<svg width="65" height="64" viewBox="0 0 65 64" fill="none" xmlns="http://www.w3.org/2000/svg">
<g id="Rounded=Anguilla (AI)">
<g clip-path="url(#clip0_2909_185463)">
<path id="Vector" d="M0.246094 0H64.2461V64H0.246094V0Z" fill="#012169"/>
<path id="Vector_2" d="M48.2461 26.5875L48.4961 26.8375L48.2461 26.5875Z" fill="#49497D"/>
<path id="Vector_3" d="M48.4961 26.5875L48.7461 26.8375L48.4961 26.5875Z" fill="#0E0E6E"/>
<path id="Vector_4" d="M47.7336 26.8375L47.9836 27.0875L47.7336 26.8375Z" fill="#262678"/>
<path id="Vector_5" d="M47.9961 26.8375L48.2461 27.0875L47.9961 26.8375Z" fill="#808067"/>
<path id="Vector_6" d="M48.7461 26.8375L48.9961 27.0875L48.7461 26.8375Z" fill="#58587B"/>
<path id="Vector_7" d="M39.3586 27.1L39.6086 27.35L39.3586 27.1Z" fill="#0E0E6E"/>
<path id="Vector_8" d="M47.2336 27.1L47.4836 27.35L47.2336 27.1Z" fill="#1B1B74"/>
<path id="Vector_9" d="M47.4836 27.1L47.7336 27.35L47.4836 27.1Z" fill="#6E6C70"/>
<path id="Vector_10" d="M39.8086 27.55C39.8086 34.1125 39.0586 41.5 43.9336 46.6375C44.9336 47.6875 46.8586 50.1 48.4961 50.0125C50.2086 49.9125 52.4211 47.375 53.3961 46.1375C57.6461 40.5375 56.9836 33.8625 57.1211 27.3625C55.2086 28.225 54.2461 28.5125 52.5711 28.4875C51.3211 28.6125 49.4086 27.8 48.2586 27.2375C47.5086 27.7375 46.4211 28.35 44.4586 28.4125C42.2086 28.5125 41.4836 28.125 39.8086 27.5375V27.55Z" fill="#CCCC33"/>
<path id="Vector_11" d="M48.9961 27.1L49.2461 27.35L48.9961 27.1Z" fill="#99994E"/>
<path id="Vector_12" d="M49.2461 27.1L49.4961 27.35L49.2461 27.1Z" fill="#49497D"/>
<path id="Vector_13" d="M57.1211 27.1L57.3711 27.35L57.1211 27.1Z" fill="#0E0E6E"/>
<path id="Vector_14" d="M39.6211 27.35L39.8711 27.6L39.6211 27.35Z" fill="#A4A43D"/>
<path id="Vector_15" d="M39.8711 27.35L40.1211 27.6L39.8711 27.35Z" fill="#6E6C70"/>
<path id="Vector_16" d="M40.1211 27.35L40.3711 27.6L40.1211 27.35Z" fill="#3A3A7C"/>
<path id="Vector_17" d="M46.7212 27.35L46.9712 27.6L46.7212 27.35Z" fill="#1B1B74"/>
<path id="Vector_18" d="M46.9712 27.35L47.2212 27.6L46.9712 27.35Z" fill="#6E6C70"/>
<path id="Vector_19" d="M47.2336 27.35L47.4836 27.6L47.2336 27.35Z" fill="#A4A43D"/>
<path id="Vector_20" d="M48.2461 27.35L48.4961 27.6L48.2461 27.35Z" fill="#D0D045"/>
<path id="Vector_21" d="M49.2461 27.35L49.4961 27.6L49.2461 27.35Z" fill="#A4A43D"/>
<path id="Vector_22" d="M49.4961 27.35L49.7461 27.6L49.4961 27.35Z" fill="#8D8D5B"/>
<path id="Vector_23" d="M49.771 27.35L50.021 27.6L49.771 27.35Z" fill="#3A3A7C"/>
<path id="Vector_24" d="M56.3586 27.35L56.6086 27.6L56.3586 27.35Z" fill="#262678"/>
<path id="Vector_25" d="M56.6211 27.35L56.8711 27.6L56.6211 27.35Z" fill="#53527C"/>
<path id="Vector_26" d="M56.8711 27.35L57.1211 27.6L56.8711 27.35Z" fill="#8D8D5B"/>
<path id="Vector_27" d="M40.6211 27.6125L40.8711 27.8625L40.6211 27.6125Z" fill="#737370"/>
<path id="Vector_28" d="M40.8711 27.6125L41.1211 27.8625L40.8711 27.6125Z" fill="#53527C"/>
<path id="Vector_29" d="M41.1211 27.6125L41.3711 27.8625L41.1211 27.6125Z" fill="#1B1B74"/>
<path id="Vector_30" d="M46.2085 27.6125L46.4585 27.8625L46.2085 27.6125Z" fill="#262678"/>
<path id="Vector_31" d="M46.4712 27.6125L46.7212 27.8625L46.4712 27.6125Z" fill="#6E6C70"/>
<path id="Vector_32" d="M46.7212 27.6125L46.9712 27.8625L46.7212 27.6125Z" fill="#A4A43D"/>
<path id="Vector_33" d="M47.9961 27.6125L48.2461 27.8625L47.9961 27.6125Z" fill="#E5E59D"/>
<path id="Vector_34" d="M40.3212 28.25C40.1682 31.9325 40.3355 35.6214 40.8212 39.275C41.4337 41.2 41.3462 42.2625 42.2337 43.4L54.6087 43.3125C55.3587 42.1 55.9212 40.2625 55.9837 39.525C56.6837 35.8125 56.6962 31.7 56.7212 28.025C55.36 28.7736 53.8053 29.0959 52.2587 28.95C50.9155 28.8693 49.6099 28.4755 48.4462 27.8C47.2587 28.5 46.8462 28.825 44.8962 28.9125C43.3712 28.9875 42.1462 29.1125 40.3212 28.2625V28.25Z" fill="#F5F5F5"/>
<path id="Vector_35" d="M48.4961 27.6125L48.7461 27.8625L48.4961 27.6125Z" fill="#F2F1D7"/>
<path id="Vector_36" d="M48.7461 27.6125L48.9961 27.8625L48.7461 27.6125Z" fill="#D9D868"/>
<path id="Vector_37" d="M49.771 27.6125L50.021 27.8625L49.771 27.6125Z" fill="#A4A43D"/>
<path id="Vector_38" d="M50.021 27.6125L50.271 27.8625L50.021 27.6125Z" fill="#99994E"/>
<path id="Vector_39" d="M50.271 27.6125L50.521 27.8625L50.271 27.6125Z" fill="#49497D"/>
<path id="Vector_40" d="M50.521 27.6125L50.771 27.8625L50.521 27.6125Z" fill="#0E0E6E"/>
<path id="Vector_41" d="M55.6086 27.6125L55.8586 27.8625L55.6086 27.6125Z" fill="#3A3A7C"/>
<path id="Vector_42" d="M55.8586 27.6125L56.1086 27.8625L55.8586 27.6125Z" fill="#666677"/>
<path id="Vector_43" d="M56.1086 27.6125L56.3586 27.8625L56.1086 27.6125Z" fill="#99994E"/>
<path id="Vector_44" d="M56.3585 27.6125L56.6085 27.8625L56.3585 27.6125ZM41.1335 27.8625L41.3835 28.1125L41.1335 27.8625Z" fill="#A4A43D"/>
<path id="Vector_45" d="M41.396 27.8625L41.646 28.1125L41.396 27.8625Z" fill="#99994E"/>
<path id="Vector_46" d="M41.646 27.8625L41.896 28.1125L41.646 27.8625Z" fill="#6E6C70"/>
<path id="Vector_47" d="M41.896 27.8625L42.146 28.1125L41.896 27.8625Z" fill="#49497D"/>
<path id="Vector_48" d="M42.146 27.8625L42.396 28.1125L42.146 27.8625ZM45.446 27.8625L45.696 28.1125L45.446 27.8625Z" fill="#1B1B74"/>
<path id="Vector_49" d="M45.696 27.8625L45.946 28.1125L45.696 27.8625Z" fill="#53527C"/>
<path id="Vector_50" d="M45.9585 27.8625L46.2085 28.1125L45.9585 27.8625Z" fill="#8D8D5B"/>
<path id="Vector_51" d="M46.2085 27.8625L46.4585 28.1125L46.2085 27.8625Z" fill="#A4A43D"/>
<path id="Vector_52" d="M47.4836 27.8625L47.7336 28.1125L47.4836 27.8625Z" fill="#E5E59D"/>
<path id="Vector_53" d="M47.7336 27.8625L47.9836 28.1125L47.7336 27.8625Z" fill="#FBFAF2"/>
<path id="Vector_54" d="M48.9961 27.8625L49.2461 28.1125L48.9961 27.8625Z" fill="#F2F1D2"/>
<path id="Vector_55" d="M49.2461 27.8625L49.4961 28.1125L49.2461 27.8625Z" fill="#D9D868"/>
<path id="Vector_56" d="M50.521 27.8625L50.771 28.1125L50.521 27.8625Z" fill="#A4A43D"/>
<path id="Vector_57" d="M50.7837 27.8625L51.0337 28.1125L50.7837 27.8625Z" fill="#6E6C70"/>
<path id="Vector_58" d="M51.0337 27.8625L51.2837 28.1125L51.0337 27.8625Z" fill="#3A3A7C"/>
<path id="Vector_59" d="M54.3335 27.8625L54.5835 28.1125L54.3335 27.8625Z" fill="#0E0E6E"/>
<path id="Vector_60" d="M54.5835 27.8625L54.8335 28.1125L54.5835 27.8625Z" fill="#32327B"/>
<path id="Vector_61" d="M54.8462 27.8625L55.0962 28.1125L54.8462 27.8625Z" fill="#58587B"/>
<path id="Vector_62" d="M55.0962 27.8625L55.3462 28.1125L55.0962 27.8625Z" fill="#808067"/>
<path id="Vector_63" d="M55.521 27.9375L55.6835 28.025L55.521 27.9375Z" fill="#A4A43D"/>
<path id="Vector_64" d="M40.1211 28.1125L40.3711 28.3625L40.1211 28.1125Z" fill="#DDDC7A"/>
<path id="Vector_65" d="M40.3711 28.1125L40.6211 28.3625L40.3711 28.1125Z" fill="#D0D045"/>
<path id="Vector_66" d="M42.321 28.1875L42.496 28.275L42.321 28.1875Z" fill="#A4A43D"/>
<path id="Vector_67" d="M42.6587 28.1125L42.9087 28.3625L42.6587 28.1125Z" fill="#808067"/>
<path id="Vector_68" d="M42.9087 28.1125L43.1587 28.3625L42.9087 28.1125Z" fill="#666677"/>
<path id="Vector_69" d="M43.1711 28.1125L43.4211 28.3625L43.1711 28.1125Z" fill="#58587B"/>
<path id="Vector_70" d="M43.4211 28.1125L43.6711 28.3625L43.4211 28.1125Z" fill="#49497D"/>
<path id="Vector_71" d="M44.946 28.1125L45.196 28.3625L44.946 28.1125Z" fill="#737370"/>
<path id="Vector_72" d="M45.196 28.1125L45.446 28.3625L45.196 28.1125Z" fill="#99994E"/>
<path id="Vector_73" d="M45.446 28.1125L45.696 28.3625L45.446 28.1125Z" fill="#A4A43D"/>
<path id="Vector_74" d="M46.9712 28.1125L47.2212 28.3625L46.9712 28.1125Z" fill="#E5E59D"/>
<path id="Vector_75" d="M47.2336 28.1125L47.4836 28.3625L47.2336 28.1125Z" fill="#FBFAF2"/>
<path id="Vector_76" d="M49.4961 28.1125L49.7461 28.3625L49.4961 28.1125Z" fill="#F2F1D2"/>
<path id="Vector_77" d="M49.771 28.1125L50.021 28.3625L49.771 28.1125Z" fill="#D9D868"/>
<path id="Vector_78" d="M51.196 28.1875L51.371 28.275L51.2085 28.1875H51.196Z" fill="#A4A43D"/>
<path id="Vector_79" d="M51.5461 28.1125L51.7961 28.3625L51.5461 28.1125Z" fill="#808067"/>
<path id="Vector_80" d="M51.7961 28.1125L52.0461 28.3625L51.7961 28.1125Z" fill="#666677"/>
<path id="Vector_81" d="M52.0461 28.1125L52.2961 28.3625L52.0461 28.1125Z" fill="#58587B"/>
<path id="Vector_82" d="M52.3086 28.1125L52.5586 28.3625L52.3086 28.1125Z" fill="#3A3A7C"/>
<path id="Vector_83" d="M53.4836 28.1875L53.6586 28.275L53.4836 28.1875Z" fill="#58587B"/>
<path id="Vector_84" d="M53.821 28.1125L54.071 28.3625L53.821 28.1125Z" fill="#737370"/>
<path id="Vector_85" d="M54.071 28.1125L54.321 28.3625L54.071 28.1125Z" fill="#99994E"/>
<path id="Vector_86" d="M54.3335 28.1125L54.5835 28.3625L54.3335 28.1125Z" fill="#A4A43D"/>
<path id="Vector_87" d="M56.3586 28.1125L56.6086 28.3625L56.3586 28.1125Z" fill="#DDDC7A"/>
<path id="Vector_88" d="M56.6211 28.1125L56.8711 28.3625L56.6211 28.1125Z" fill="#D0D045"/>
<path id="Vector_89" d="M40.6211 28.3625L40.8711 28.6125L40.6211 28.3625Z" fill="#F2F1D7"/>
<path id="Vector_90" d="M40.8711 28.3625L41.1211 28.6125L40.8711 28.3625Z" fill="#E0DEA1"/>
<path id="Vector_91" d="M41.1211 28.3625L41.3711 28.6125L41.1211 28.3625Z" fill="#DDDC7A"/>
<path id="Vector_92" d="M46.2085 28.3625L46.4585 28.6125L46.2085 28.3625Z" fill="#D9D868"/>
<path id="Vector_93" d="M46.4712 28.3625L46.7212 28.6125L46.4712 28.3625Z" fill="#E5E3AF"/>
<path id="Vector_94" d="M50.021 28.3625L50.271 28.6125L50.021 28.3625Z" fill="#F6F6E4"/>
<path id="Vector_95" d="M50.271 28.3625L50.521 28.6125L50.271 28.3625Z" fill="#E1E18C"/>
<path id="Vector_96" d="M55.3462 28.3625L55.5962 28.6125L55.3462 28.3625Z" fill="#D4D456"/>
<path id="Vector_97" d="M55.6086 28.3625L55.8586 28.6125L55.6086 28.3625Z" fill="#E1E18C"/>
<path id="Vector_98" d="M55.8586 28.3625L56.1086 28.6125L55.8586 28.3625Z" fill="#EEEDC1"/>
<path id="Vector_99" d="M41.646 28.6125L41.896 28.8625L41.646 28.6125Z" fill="#F2F1D2"/>
<path id="Vector_100" d="M41.896 28.6125L42.146 28.8625L41.896 28.6125Z" fill="#E0DEA1"/>
<path id="Vector_101" d="M42.146 28.6125L42.396 28.8625L42.146 28.6125Z" fill="#DDDC7A"/>
<path id="Vector_102" d="M42.4087 28.6125L42.6587 28.8625L42.4087 28.6125Z" fill="#D0D045"/>
<path id="Vector_103" d="M45.446 28.6125L45.696 28.8625L45.446 28.6125Z" fill="#DDDC7A"/>
<path id="Vector_104" d="M45.696 28.6125L45.946 28.8625L45.696 28.6125Z" fill="#E5E3AF"/>
<path id="Vector_105" d="M45.9585 28.6125L46.2085 28.8625L45.9585 28.6125Z" fill="#F6F6E4"/>
<path id="Vector_106" d="M50.7837 28.6125L51.0337 28.8625L50.7837 28.6125Z" fill="#EEEDC1"/>
<path id="Vector_107" d="M51.0337 28.6125L51.2837 28.8625L51.0337 28.6125Z" fill="#E1E18C"/>
<path id="Vector_108" d="M51.2837 28.6125L51.5337 28.8625L51.2837 28.6125Z" fill="#D4D456"/>
<path id="Vector_109" d="M54.3335 28.6125L54.5835 28.8625L54.3335 28.6125Z" fill="#D9D868"/>
<path id="Vector_110" d="M54.5835 28.6125L54.8335 28.8625L54.5835 28.6125Z" fill="#E1E18C"/>
<path id="Vector_111" d="M54.8462 28.6125L55.0962 28.8625L54.8462 28.6125Z" fill="#EEEDC1"/>
<path id="Vector_112" d="M55.0962 28.6125L55.3462 28.8625L55.0962 28.6125Z" fill="#F6F6E4"/>
<path id="Vector_113" d="M42.9087 28.8625L43.1587 29.1125L42.9087 28.8625Z" fill="#F2F1D7"/>
<path id="Vector_114" d="M43.1711 28.8625L43.4211 29.1125L43.1711 28.8625Z" fill="#F2F1D2"/>
<path id="Vector_115" d="M43.4211 28.8625L43.6711 29.1125L43.4211 28.8625Z" fill="#EEEDC1"/>
<path id="Vector_116" d="M44.6086 28.95L44.7711 29.0375L44.6086 28.95Z" fill="#F2F1D2"/>
<path id="Vector_117" d="M44.946 28.8625L45.196 29.1125L44.946 28.8625Z" fill="#FBFAF2"/>
<path id="Vector_118" d="M46.2085 28.8625L46.7085 29.3625V28.8625H46.2085Z" fill="#FEF8F1"/>
<path id="Vector_119" d="M51.7961 28.8625L52.0461 29.1125L51.7961 28.8625Z" fill="#F2F1D7"/>
<path id="Vector_120" d="M52.0461 28.8625L52.2961 29.1125L52.0461 28.8625Z" fill="#F2F1D2"/>
<path id="Vector_121" d="M52.3086 28.8625L52.5586 29.1125L52.3086 28.8625Z" fill="#E5E3AF"/>
<path id="Vector_122" d="M52.7337 28.95L52.8962 29.0375L52.7212 28.95H52.7337Z" fill="#E5E59D"/>
<path id="Vector_123" d="M53.071 28.8625L53.321 29.1125L53.071 28.8625Z" fill="#E0DEA1"/>
<path id="Vector_124" d="M53.4836 28.95L53.6586 29.0375L53.4836 28.95Z" fill="#F2F1D2"/>
<path id="Vector_125" d="M53.821 28.8625L54.071 29.1125L53.821 28.8625Z" fill="#FBFAF2"/>
<path id="Vector_126" d="M45.696 29.125L45.946 29.375L45.696 29.125Z" fill="#FEF8F1"/>
<path id="Vector_127" d="M45.9585 29.125L46.2085 29.375L45.9585 29.125Z" fill="#FBBE66"/>
<path id="Vector_128" d="M45.696 29.375L45.946 29.625L45.696 29.375Z" fill="#FBC477"/>
<path id="Vector_129" d="M46.2085 29.375L46.4585 29.625L46.2085 29.375Z" fill="#FCB144"/>
<path id="Vector_130" d="M45.696 29.625L45.946 29.875L45.696 29.625Z" fill="#FE9F11"/>
<path id="Vector_131" d="M46.2085 29.625L46.4585 29.875L46.2085 29.625Z" fill="#FEA522"/>
<path id="Vector_132" d="M45.446 29.875L45.696 30.125L45.446 29.875ZM46.471 29.875L46.721 30.125L46.471 29.875Z" fill="#FAE3C9"/>
<path id="Vector_133" d="M47.7336 29.875L47.9836 30.125L47.7336 29.875Z" fill="#FBEAD6"/>
<path id="Vector_134" d="M47.9961 29.875L48.2461 30.125L47.9961 29.875Z" fill="#F9D6AA"/>
<path id="Vector_135" d="M48.9961 29.875L49.2461 30.125L48.9961 29.875Z" fill="#FAE3C9"/>
<path id="Vector_136" d="M49.2461 29.875L49.4961 30.125L49.2461 29.875Z" fill="#FEF8F1"/>
<path id="Vector_137" d="M45.446 30.125L45.696 30.375L45.446 30.125Z" fill="#F9D099"/>
<path id="Vector_138" d="M46.4712 30.125L46.7212 30.375L46.4712 30.125Z" fill="#FDAB33"/>
<path id="Vector_139" d="M46.9712 30.125L47.2212 30.375L46.9712 30.125Z" fill="#FCF1E4"/>
<path id="Vector_140" d="M47.2336 30.125L47.4836 30.375L47.2336 30.125Z" fill="#FBC477"/>
<path id="Vector_141" d="M47.4836 30.125L47.7336 30.375L47.4836 30.125Z" fill="#FEA522"/>
<path id="Vector_142" d="M49.4961 30.125L49.7461 30.375L49.4961 30.125Z" fill="#FCB755"/>
<path id="Vector_143" d="M49.771 30.125L50.021 30.375L49.771 30.125Z" fill="#F9D6AA"/>
<path id="Vector_144" d="M45.446 30.4L45.696 30.65L45.446 30.4Z" fill="#FACA88"/>
<path id="Vector_145" d="M46.7212 30.4L46.9712 30.65L46.7212 30.4ZM50.0212 30.4L50.2712 30.65L50.0212 30.4Z" fill="#FEA522"/>
<path id="Vector_146" d="M50.271 30.4L50.521 30.65L50.271 30.4Z" fill="#F8DCBB"/>
<path id="Vector_147" d="M40.1211 30.65L40.3711 30.9L40.1211 30.65Z" fill="#F6F6E4"/>
<path id="Vector_148" d="M45.446 30.65L45.696 30.9L45.446 30.65Z" fill="#FBC477"/>
<path id="Vector_149" d="M50.521 30.65L50.771 30.9L50.521 30.65Z" fill="#FBBE66"/>
<path id="Vector_150" d="M50.7837 30.65L51.0337 30.9L50.7837 30.65Z" fill="#F8DCBB"/>
<path id="Vector_151" d="M45.446 30.9L45.696 31.15L45.446 30.9Z" fill="#FACA88"/>
<path id="Vector_152" d="M51.2837 30.9L51.5337 31.15L51.2837 30.9Z" fill="#FCB755"/>
<path id="Vector_153" d="M51.5461 30.9L51.7961 31.15L51.5461 30.9Z" fill="#F8DCBB"/>
<path id="Vector_154" d="M45.196 31.1625L45.446 31.4125L45.196 31.1625Z" fill="#FEF8F1"/>
<path id="Vector_155" d="M45.446 31.1625L45.696 31.4125L45.446 31.1625Z" fill="#FE9F11"/>
<path id="Vector_156" d="M52.5586 31.1625L52.8086 31.4125L52.5586 31.1625Z" fill="#FDAB33"/>
<path id="Vector_157" d="M52.821 31.1625L53.071 31.4125L52.821 31.1625Z" fill="#FCB144"/>
<path id="Vector_158" d="M53.071 31.1625L53.321 31.4125L53.071 31.1625Z" fill="#FBC477"/>
<path id="Vector_159" d="M53.321 31.1625L53.821 31.6625L53.321 31.1625Z" fill="#F9D6AA"/>
<path id="Vector_160" d="M53.571 31.1625L53.821 31.4125L53.571 31.1625Z" fill="#FEF8F1"/>
<path id="Vector_161" d="M45.196 31.4125L45.446 31.6625L45.196 31.4125Z" fill="#FCB144"/>
<path id="Vector_162" d="M48.7461 31.4125L48.9961 31.6625L48.7461 31.4125Z" fill="#FDAB33"/>
<path id="Vector_163" d="M48.9961 31.4125L49.2461 31.6625L48.9961 31.4125ZM49.9961 31.4125L50.2711 31.6625L50.0211 31.4125H49.9961Z" fill="#FBC477"/>
<path id="Vector_164" d="M50.271 31.4125L50.521 31.6625L50.271 31.4125Z" fill="#FEA522"/>
<path id="Vector_165" d="M44.946 31.6625L45.196 31.9125L44.946 31.6625Z" fill="#FAE3C9"/>
<path id="Vector_166" d="M48.2461 31.6625L48.4961 31.9125L48.2461 31.6625Z" fill="#FCB144"/>
<path id="Vector_167" d="M48.4961 31.6625L48.7461 31.9125L48.4961 31.6625Z" fill="#FAE3C9"/>
<path id="Vector_168" d="M50.521 31.6625L50.771 31.9125L50.521 31.6625Z" fill="#F8DCBB"/>
<path id="Vector_169" d="M50.7837 31.6625L51.0337 31.9125L50.7837 31.6625Z" fill="#FDAB33"/>
<path id="Vector_170" d="M52.3086 31.6625L52.5586 31.9125L52.3086 31.6625Z" fill="#FE9F11"/>
<path id="Vector_171" d="M52.5586 31.6625L52.8086 31.9125L52.5586 31.6625Z" fill="#FCB755"/>
<path id="Vector_172" d="M52.821 31.6625L53.071 31.9125L52.821 31.6625Z" fill="#F9D099"/>
<path id="Vector_173" d="M53.071 31.6625L53.321 31.9125L53.071 31.6625Z" fill="#FBEAD6"/>
<path id="Vector_174" d="M44.946 31.9125L45.196 32.1625L44.946 31.9125Z" fill="#FCB144"/>
<path id="Vector_175" d="M47.9961 31.9125L48.2461 32.1625L47.9961 31.9125Z" fill="#FBBE66"/>
<path id="Vector_176" d="M51.0337 31.9125L51.2837 32.1625L51.0337 31.9125Z" fill="#F9D099"/>
<path id="Vector_177" d="M52.0461 31.9125L52.2961 32.1625L52.0461 31.9125Z" fill="#FBEAD6"/>
<path id="Vector_178" d="M44.696 32.175L44.946 32.425L44.696 32.175Z" fill="#FCF1E4"/>
<path id="Vector_179" d="M47.7336 32.175L47.9836 32.425L47.7336 32.175Z" fill="#FBBE66"/>
<path id="Vector_180" d="M51.2837 32.175L51.5337 32.425L51.2837 32.175Z" fill="#F9D099"/>
<path id="Vector_181" d="M52.0461 32.175L52.2961 32.425L52.0461 32.175Z" fill="#FAE3C9"/>
<path id="Vector_182" d="M44.696 32.425L44.946 32.675L44.696 32.425Z" fill="#FBC477"/>
<path id="Vector_183" d="M47.4836 32.425L47.7336 32.675L47.4836 32.425ZM51.5461 32.425L51.7961 32.675L51.5461 32.425Z" fill="#FCB144"/>
<path id="Vector_184" d="M52.0461 32.425L52.2961 32.675L52.0461 32.425Z" fill="#FBBE66"/>
<path id="Vector_185" d="M40.1211 32.675L40.3711 32.925L40.1211 32.675Z" fill="#F6F6E4"/>
<path id="Vector_186" d="M44.696 32.675L44.946 32.925L44.696 32.675Z" fill="#FEA522"/>
<path id="Vector_187" d="M47.4836 32.675L47.7336 32.925L47.4836 32.675Z" fill="#FBEAD6"/>
<path id="Vector_188" d="M51.5461 32.675L51.7961 32.925L51.5461 32.675Z" fill="#FCF1E4"/>
<path id="Vector_189" d="M52.3086 32.675L52.5586 32.925L52.3086 32.675Z" fill="#FEF8F1"/>
<path id="Vector_190" d="M44.446 32.9375L44.696 33.1875L44.446 32.9375Z" fill="#FCF1E4"/>
<path id="Vector_191" d="M47.2336 32.9375L47.4836 33.1875L47.2336 32.9375Z" fill="#FBBE66"/>
<path id="Vector_192" d="M51.7961 32.9375L52.0461 33.1875L51.7961 32.9375Z" fill="#FACA88"/>
<path id="Vector_193" d="M52.3086 32.9375L52.5586 33.1875L52.3086 32.9375Z" fill="#F9D099"/>
<path id="Vector_194" d="M44.446 33.1875L44.696 33.4375L44.446 33.1875Z" fill="#F9D6AA"/>
<path id="Vector_195" d="M47.2336 33.1875L47.4836 33.4375L47.2336 33.1875Z" fill="#FCF1E4"/>
<path id="Vector_196" d="M48.4961 33.1875L48.7461 33.4375L48.4961 33.1875Z" fill="#FAE3C9"/>
<path id="Vector_197" d="M48.7461 33.1875L48.9961 33.4375L48.7461 33.1875Z" fill="#FEA522"/>
<path id="Vector_198" d="M48.9961 33.1875L49.2461 33.4375L48.9961 33.1875Z" fill="#FCB144"/>
<path id="Vector_199" d="M49.2461 33.1875L49.4961 33.4375L49.2461 33.1875Z" fill="#F9D6AA"/>
<path id="Vector_200" d="M51.7961 33.1875L52.0461 33.4375L51.7961 33.1875Z" fill="#FEF8F1"/>
<path id="Vector_201" d="M52.0461 33.1875L52.2961 33.4375L52.0461 33.1875Z" fill="#FEA522"/>
<path id="Vector_202" d="M52.3086 33.1875L52.5586 33.4375L52.3086 33.1875Z" fill="#FDAB33"/>
<path id="Vector_203" d="M44.4461 33.4375L44.1836 34.1875L44.4336 33.4375H44.4461Z" fill="#FACA88"/>
<path id="Vector_204" d="M46.9712 33.4375L47.2212 33.6875L46.9712 33.4375Z" fill="#FEA522"/>
<path id="Vector_205" d="M47.2336 33.4375L47.4836 33.6875L47.2336 33.4375Z" fill="#FEF8F1"/>
<path id="Vector_206" d="M48.4961 33.4375L48.7461 33.6875L48.4961 33.4375Z" fill="#F9D099"/>
<path id="Vector_207" d="M49.4961 33.4375L49.7461 33.6875L49.4961 33.4375Z" fill="#FDAB33"/>
<path id="Vector_208" d="M49.771 33.4375L50.021 33.6875L49.771 33.4375Z" fill="#FAE3C9"/>
<path id="Vector_209" d="M52.0461 33.4375L52.2961 33.6875L52.0461 33.4375Z" fill="#F8DCBB"/>
<path id="Vector_210" d="M52.3086 33.4375L52.5586 33.6875L52.3086 33.4375Z" fill="#FF9900"/>
<path id="Vector_211" d="M52.646 33.6125L52.721 33.775L52.646 33.6125Z" fill="#FBEAD6"/>
<path id="Vector_212" d="M47.4836 33.6875L47.7336 33.9375L47.4836 33.6875Z" fill="#FEA522"/>
<path id="Vector_213" d="M47.7336 33.6875L47.9836 33.9375L47.7336 33.6875Z" fill="#FBBE66"/>
<path id="Vector_214" d="M47.9961 33.6875L48.2461 33.9375L47.9961 33.6875Z" fill="#FACA88"/>
<path id="Vector_215" d="M48.2461 33.6875L48.4961 33.9375L48.2461 33.6875Z" fill="#FCB144"/>
<path id="Vector_216" d="M48.4961 33.6875L48.7461 33.9375L48.4961 33.6875Z" fill="#FAE3C9"/>
<path id="Vector_217" d="M48.7461 33.6875L48.9961 33.9375L48.7461 33.6875Z" fill="#FE9F11"/>
<path id="Vector_218" d="M50.021 33.6875L50.271 33.9375L50.021 33.6875Z" fill="#FDAB33"/>
<path id="Vector_219" d="M50.271 33.6875L50.521 33.9375L50.271 33.6875Z" fill="#FBC477"/>
<path id="Vector_220" d="M50.521 33.6875L50.771 33.9375L50.521 33.6875Z" fill="#FACA88"/>
<path id="Vector_221" d="M50.7837 33.6875L51.0337 33.9375L50.7837 33.6875Z" fill="#F9D6AA"/>
<path id="Vector_222" d="M51.196 33.775L51.371 33.8625L51.2085 33.775H51.196Z" fill="#FAE3C9"/>
<path id="Vector_223" d="M51.5461 33.6875L51.7961 33.9375L51.5461 33.6875Z" fill="#FEF8F1"/>
<path id="Vector_224" d="M52.3086 33.6875L52.5586 33.9375L52.3086 33.6875Z" fill="#FBC477"/>
<path id="Vector_225" d="M41.396 33.95L41.646 34.2L41.396 33.95Z" fill="#FEF8F1"/>
<path id="Vector_226" d="M41.646 33.95L41.896 34.2L41.646 33.95Z" fill="#FCF1E4"/>
<path id="Vector_227" d="M48.2461 33.95L48.4961 34.2L48.2461 33.95Z" fill="#FCB755"/>
<path id="Vector_228" d="M48.7461 33.95L48.9961 34.2L48.7461 33.95Z" fill="#FBEAD6"/>
<path id="Vector_229" d="M48.9961 33.95L49.2461 34.2L48.9961 33.95Z" fill="#FEA522"/>
<path id="Vector_230" d="M51.0337 33.95L51.2837 34.2L51.0337 33.95Z" fill="#FE9F11"/>
<path id="Vector_231" d="M51.2837 33.95L51.0337 34.45L51.2837 33.95Z" fill="#FCB144"/>
<path id="Vector_232" d="M51.7961 33.95L52.0461 34.2L51.7961 33.95Z" fill="#FE9F11"/>
<path id="Vector_233" d="M52.0461 33.95L52.2961 34.2L52.0461 33.95Z" fill="#FBBE66"/>
<path id="Vector_234" d="M52.3086 33.95L52.5586 34.2L52.3086 33.95Z" fill="#FCF1E4"/>
<path id="Vector_235" d="M41.396 34.2L41.646 34.45L41.396 34.2Z" fill="#FAE3C9"/>
<path id="Vector_236" d="M41.646 34.2L42.146 34.7L41.646 34.2Z" fill="#FE9F11"/>
<path id="Vector_237" d="M41.896 34.2L42.146 34.45L41.896 34.2ZM44.1835 34.2L44.4335 34.45L44.1835 34.2Z" fill="#FBEAD6"/>
<path id="Vector_238" d="M44.446 34.2L44.696 34.45L44.446 34.2Z" fill="#FAE3C9"/>
<path id="Vector_239" d="M46.7212 34.2L46.9712 34.45L46.7212 34.2Z" fill="#FE9F11"/>
<path id="Vector_240" d="M46.9712 34.2L47.2212 34.45L46.9712 34.2Z" fill="#FBC477"/>
<path id="Vector_241" d="M47.2336 34.2L47.4836 34.45L47.2336 34.2Z" fill="#FEA522"/>
<path id="Vector_242" d="M47.9961 34.2L48.2461 34.45L47.9961 34.2Z" fill="#FBC477"/>
<path id="Vector_243" d="M48.2461 34.2L48.4961 34.45L48.2461 34.2Z" fill="#FEF8F1"/>
<path id="Vector_244" d="M49.2461 34.2L49.4961 34.45L49.2461 34.2Z" fill="#FBC477"/>
<path id="Vector_245" d="M51.2837 34.2L51.5337 34.45L51.2837 34.2Z" fill="#F5F5F5"/>
<path id="Vector_246" d="M51.5461 34.2L51.7961 34.45L51.5461 34.2Z" fill="#FDAB33"/>
<path id="Vector_247" d="M52.5586 34.2L52.8086 34.45L52.5586 34.2Z" fill="#FBC477"/>
<path id="Vector_248" d="M41.396 34.45L41.646 34.7L41.396 34.45Z" fill="#FEF8F1"/>
<path id="Vector_249" d="M42.146 34.45L42.396 34.7L42.146 34.45Z" fill="#FBEAD6"/>
<path id="Vector_250" d="M43.4211 34.45L43.6711 34.7L43.4211 34.45Z" fill="#F9D6AA"/>
<path id="Vector_251" d="M44.696 34.45L44.946 34.7L44.696 34.45Z" fill="#FE9F11"/>
<path id="Vector_252" d="M45.1086 34.5375L45.2836 34.625L45.1086 34.5375Z" fill="#F9D6AA"/>
<path id="Vector_253" d="M46.7212 34.45L46.9712 34.7L46.7212 34.45Z" fill="#F8DCBB"/>
<path id="Vector_254" d="M47.4836 34.45L47.7336 34.7L47.4836 34.45Z" fill="#FCF1E4"/>
<path id="Vector_255" d="M49.4961 34.45L49.7461 34.7L49.4961 34.45Z" fill="#F9D6AA"/>
<path id="Vector_256" d="M51.2837 34.45L51.5337 34.7L51.2837 34.45Z" fill="#FDAB33"/>
<path id="Vector_257" d="M52.821 34.45L53.071 34.7L52.821 34.45Z" fill="#FCB755"/>
<path id="Vector_258" d="M53.071 34.45L53.321 34.7L53.071 34.45Z" fill="#FEF8F1"/>
<path id="Vector_259" d="M39.3586 34.7125L39.6086 34.9625L39.3586 34.7125Z" fill="#53527C"/>
<path id="Vector_260" d="M41.646 34.7125L41.896 34.9625L41.646 34.7125Z" fill="#FCB755"/>
<path id="Vector_261" d="M42.146 34.7125L42.396 34.9625L42.146 34.7125Z" fill="#FEA522"/>
<path id="Vector_262" d="M43.1711 34.7125L43.4211 34.9625L43.1711 34.7125Z" fill="#FBEAD6"/>
<path id="Vector_263" d="M43.6711 34.7125L43.9211 34.9625L43.6711 34.7125Z" fill="#FE9F11"/>
<path id="Vector_264" d="M43.9336 34.7125L44.1836 34.9625L43.9336 34.7125Z" fill="#FCF1E4"/>
<path id="Vector_265" d="M44.696 34.7125L44.946 34.9625L44.696 34.7125Z" fill="#FBBE66"/>
<path id="Vector_266" d="M44.946 34.7125L45.196 34.9625L44.946 34.7125Z" fill="#FBC477"/>
<path id="Vector_267" d="M45.196 34.7125L45.446 34.9625L45.196 34.7125Z" fill="#FBBE66"/>
<path id="Vector_268" d="M46.4712 34.7125L46.7212 34.9625L46.4712 34.7125Z" fill="#FEA522"/>
<path id="Vector_269" d="M49.771 34.7125L50.021 34.9625L49.771 34.7125Z" fill="#F9D6AA"/>
<path id="Vector_270" d="M53.071 34.7125L53.321 34.9625L53.071 34.7125Z" fill="#FCB144"/>
<path id="Vector_271" d="M57.1211 34.7125L57.3711 34.9625L57.1211 34.7125Z" fill="#8D8D5B"/>
<path id="Vector_272" d="M40.1211 34.9625L40.3711 35.2125L40.1211 34.9625Z" fill="#E5E3AF"/>
<path id="Vector_273" d="M41.646 34.9625L41.896 35.2125L41.646 34.9625Z" fill="#F8DCBB"/>
<path id="Vector_274" d="M42.4087 34.9625L42.6587 35.2125L42.4087 34.9625Z" fill="#FDAB33"/>
<path id="Vector_275" d="M43.1711 34.9625L43.4211 35.2125L43.1711 34.9625Z" fill="#FE9F11"/>
<path id="Vector_276" d="M43.6711 34.9625L43.9211 35.2125L43.6711 34.9625Z" fill="#FACA88"/>
<path id="Vector_277" d="M44.696 34.9625L44.946 35.2125L44.696 34.9625Z" fill="#FCF1E4"/>
<path id="Vector_278" d="M46.4712 34.9625L46.7212 35.2125L46.4712 34.9625ZM50.0212 34.9625L50.2712 35.2125L50.0212 34.9625Z" fill="#F9D099"/>
<path id="Vector_279" d="M53.321 34.9625L53.571 35.2125L53.321 34.9625Z" fill="#FBBE66"/>
<path id="Vector_280" d="M41.896 35.2125L42.146 35.4625L41.896 35.2125Z" fill="#FEA522"/>
<path id="Vector_281" d="M42.6587 35.2125L42.9087 35.4625L42.6587 35.2125Z" fill="#FDAB33"/>
<path id="Vector_282" d="M42.9087 35.2125L43.1587 35.4625L42.9087 35.2125Z" fill="#FEA522"/>
<path id="Vector_283" d="M43.4211 35.2125L43.6711 35.4625L43.4211 35.2125Z" fill="#FE9F11"/>
<path id="Vector_284" d="M43.6711 35.2125L43.9211 35.4625L43.6711 35.2125Z" fill="#FEF8F1"/>
<path id="Vector_285" d="M44.946 35.2125L45.196 35.4625L44.946 35.2125Z" fill="#FBBE66"/>
<path id="Vector_286" d="M46.4712 35.2125L46.7212 35.4625L46.4712 35.2125Z" fill="#FEF8F1"/>
<path id="Vector_287" d="M50.271 35.2125L50.521 35.4625L50.271 35.2125Z" fill="#FBBE66"/>
<path id="Vector_288" d="M53.571 35.2125L53.821 35.4625L53.571 35.2125Z" fill="#F9D099"/>
<path id="Vector_289" d="M41.896 35.475L42.146 35.725L41.896 35.475Z" fill="#F9D6AA"/>
<path id="Vector_290" d="M43.4211 35.475L43.6711 35.725L43.4211 35.475Z" fill="#F9D099"/>
<path id="Vector_291" d="M44.946 35.475L45.196 35.725L44.946 35.475Z" fill="#FCF1E4"/>
<path id="Vector_292" d="M46.2085 35.475L46.4585 35.725L46.2085 35.475ZM50.521 35.475L50.771 35.725L50.521 35.475Z" fill="#FDAB33"/>
<path id="Vector_293" d="M53.821 35.475L54.071 35.725L53.821 35.475Z" fill="#FBEAD6"/>
<path id="Vector_294" d="M42.146 35.725L42.396 35.975L42.146 35.725Z" fill="#FEA522"/>
<path id="Vector_295" d="M43.1711 35.725L43.4211 35.975L43.1711 35.725Z" fill="#FE9F11"/>
<path id="Vector_296" d="M45.196 35.725L45.446 35.975L45.196 35.725Z" fill="#FCB144"/>
<path id="Vector_297" d="M46.2085 35.725L46.4585 35.975L46.2085 35.725Z" fill="#FACA88"/>
<path id="Vector_298" d="M50.521 35.725L50.771 35.975L50.521 35.725Z" fill="#F8DCBB"/>
<path id="Vector_299" d="M53.821 35.725L54.071 35.975L53.821 35.725Z" fill="#FCB144"/>
<path id="Vector_300" d="M40.1211 35.9875L40.3711 36.2375L40.1211 35.9875Z" fill="#D3D079"/>
<path id="Vector_301" d="M42.146 35.9875L42.396 36.2375L42.146 35.9875ZM45.196 35.9875L45.446 36.2375L45.196 35.9875Z" fill="#FACA88"/>
<path id="Vector_302" d="M46.2085 35.9875L46.4585 36.2375L46.2085 35.9875ZM50.521 35.9875L50.771 36.2375L50.521 35.9875Z" fill="#FAE3C9"/>
<path id="Vector_303" d="M54.071 35.9875L54.321 36.2375L54.071 35.9875Z" fill="#F8DCBB"/>
<path id="Vector_304" d="M56.3586 35.9875L56.6086 36.2375L56.3586 35.9875Z" fill="#F2F1D7"/>
<path id="Vector_305" d="M57.2085 36.15L57.296 36.3125L57.2085 36.15Z" fill="#58587B"/>
<path id="Vector_306" d="M40.196 36.4L40.296 36.575L40.2085 36.4H40.196Z" fill="#D9D868"/>
<path id="Vector_307" d="M42.146 36.2375L42.396 36.4875L42.146 36.2375Z" fill="#F8DCBB"/>
<path id="Vector_308" d="M50.271 36.2375L50.521 36.4875L50.271 36.2375Z" fill="#F9D6AA"/>
<path id="Vector_309" d="M50.521 36.2375L50.771 36.4875L50.521 36.2375Z" fill="#FE9F11"/>
<path id="Vector_310" d="M54.071 36.2375L54.321 36.4875L54.071 36.2375Z" fill="#FCB144"/>
<path id="Vector_311" d="M56.446 36.4L56.5335 36.575L56.446 36.4Z" fill="#F2F1D2"/>
<path id="Vector_312" d="M42.146 36.4875L42.396 36.7375L42.146 36.4875Z" fill="#FCF1E4"/>
<path id="Vector_313" d="M50.021 36.4875L50.271 36.7375L50.021 36.4875Z" fill="#FEF8F1"/>
<path id="Vector_314" d="M50.271 36.4875L50.521 36.7375L50.271 36.4875Z" fill="#FE9F11"/>
<path id="Vector_315" d="M51.0337 36.4875L50.7837 36.9875L51.0337 36.4875Z" fill="#FDAB33"/>
<path id="Vector_316" d="M51.2837 36.4875L51.5337 36.7375L51.2837 36.4875Z" fill="#FCB755"/>
<path id="Vector_317" d="M54.3335 36.4875L54.5835 36.7375L54.3335 36.4875Z" fill="#FEA522"/>
<path id="Vector_318" d="M54.5835 36.4875L54.8335 36.7375L54.5835 36.4875Z" fill="#F9D099"/>
<path id="Vector_319" d="M57.1211 36.4875L57.3711 36.7375L57.1211 36.4875Z" fill="#53527C"/>
<path id="Vector_320" d="M39.696 36.9125L39.7835 37.075L39.696 36.9125Z" fill="#808067"/>
<path id="Vector_321" d="M42.4087 36.7375L42.6587 36.9875L42.4087 36.7375ZM43.1587 36.7375L43.4087 36.9875L43.1587 36.7375Z" fill="#FEA522"/>
<path id="Vector_322" d="M45.9585 36.7375L46.2085 36.9875L45.9585 36.7375Z" fill="#FE9F11"/>
<path id="Vector_323" d="M50.021 36.7375L50.271 36.9875L50.021 36.7375Z" fill="#FAE3C9"/>
<path id="Vector_324" d="M51.0337 36.7375L51.2837 36.9875L51.0337 36.7375Z" fill="#FEF8F1"/>
<path id="Vector_325" d="M51.5461 36.7375L51.7961 36.9875L51.5461 36.7375Z" fill="#FCB144"/>
<path id="Vector_326" d="M54.8462 36.7375L55.0962 36.9875L54.8462 36.7375Z" fill="#FCB755"/>
<path id="Vector_327" d="M55.0962 36.7375L55.5962 37.2375L55.0962 36.7375Z" fill="#FEF8F1"/>
<path id="Vector_328" d="M56.446 36.9125L56.5335 37.075L56.446 36.9125Z" fill="#E5E59D"/>
<path id="Vector_329" d="M57.2085 36.9125L57.296 37.075L57.2085 36.9125Z" fill="#32327B"/>
<path id="Vector_330" d="M42.4961 37.1625L42.5711 37.3375L42.4961 37.1625Z" fill="#FCB755"/>
<path id="Vector_331" d="M43.4211 36.9875L43.6711 37.2375L43.4211 36.9875Z" fill="#FEF8F1"/>
<path id="Vector_332" d="M45.9585 36.9875L46.2085 37.2375L45.9585 36.9875Z" fill="#FBBE66"/>
<path id="Vector_333" d="M50.021 36.9875L50.271 37.2375L50.021 36.9875Z" fill="#FBEAD6"/>
<path id="Vector_334" d="M50.521 36.9875L50.771 37.2375L50.521 36.9875Z" fill="#FE9F11"/>
<path id="Vector_335" d="M50.7837 36.9875L51.0337 37.2375L50.7837 36.9875Z" fill="#FCF1E4"/>
<path id="Vector_336" d="M51.5461 36.9875L51.7961 37.2375L51.5461 36.9875Z" fill="#FBEAD6"/>
<path id="Vector_337" d="M55.0962 36.9875L55.3462 37.2375L55.0962 36.9875Z" fill="#FDAB33"/>
<path id="Vector_338" d="M39.6211 37.2375L39.8711 37.4875L39.6211 37.2375Z" fill="#666677"/>
<path id="Vector_339" d="M40.3711 37.2375L40.6211 37.4875L40.3711 37.2375Z" fill="#F6F6E4"/>
<path id="Vector_340" d="M43.4211 37.2375L43.6711 37.4875L43.4211 37.2375Z" fill="#F9D6AA"/>
<path id="Vector_341" d="M45.446 37.2375L45.696 37.4875L45.446 37.2375Z" fill="#FDAB33"/>
<path id="Vector_342" d="M45.696 37.2375L45.946 37.4875L45.696 37.2375Z" fill="#FE9F11"/>
<path id="Vector_343" d="M45.9585 37.2375L46.2085 37.4875L45.9585 37.2375Z" fill="#FCF1E4"/>
<path id="Vector_344" d="M50.271 37.2375L50.521 37.4875L50.271 37.2375Z" fill="#FEA522"/>
<path id="Vector_345" d="M50.521 37.2375L50.771 37.4875L50.521 37.2375ZM51.796 37.2375L52.046 37.4875L51.796 37.2375Z" fill="#FACA88"/>
<path id="Vector_346" d="M55.3462 37.2375L55.5962 37.4875L55.3462 37.2375Z" fill="#FCB144"/>
<path id="Vector_347" d="M56.3586 37.2375L56.6086 37.4875L56.3586 37.2375Z" fill="#DDDC7A"/>
<path id="Vector_348" d="M39.6211 37.5L39.8711 37.75L39.6211 37.5Z" fill="#58587B"/>
<path id="Vector_349" d="M40.3711 37.5L40.6211 37.75L40.3711 37.5Z" fill="#F2F1D2"/>
<path id="Vector_350" d="M42.4961 37.675L42.5711 37.8375L42.4961 37.675Z" fill="#FCB144"/>
<path id="Vector_351" d="M43.4211 37.5L43.6711 37.75L43.4211 37.5Z" fill="#FEA522"/>
<path id="Vector_352" d="M45.9585 37.5L46.2085 37.75L45.9585 37.5Z" fill="#FEF8F1"/>
<path id="Vector_353" d="M46.2085 37.5L46.4585 37.75L46.2085 37.5Z" fill="#FEA522"/>
<path id="Vector_354" d="M46.7212 37.5L46.9712 37.75L46.7212 37.5Z" fill="#FCB144"/>
<path id="Vector_355" d="M46.9712 37.5L47.2212 37.75L46.9712 37.5Z" fill="#FBEAD6"/>
<path id="Vector_356" d="M50.271 37.5L50.521 37.75L50.271 37.5Z" fill="#F8DCBB"/>
<path id="Vector_357" d="M50.521 37.5L50.771 37.75L50.521 37.5Z" fill="#FCF1E4"/>
<path id="Vector_358" d="M51.7961 37.5L52.0461 37.75L51.7961 37.5Z" fill="#FEF8F1"/>
<path id="Vector_359" d="M52.0461 37.5L52.2961 37.75L52.0461 37.5Z" fill="#FE9F11"/>
<path id="Vector_360" d="M55.6086 37.5L55.8586 37.75L55.6086 37.5Z" fill="#FBEAD6"/>
<path id="Vector_361" d="M56.3586 37.5L56.6086 37.75L56.3586 37.5Z" fill="#D9D868"/>
<path id="Vector_362" d="M39.6211 37.75L39.8711 38L39.6211 37.75Z" fill="#3A3A7C"/>
<path id="Vector_363" d="M40.3711 37.75L40.6211 38L40.3711 37.75Z" fill="#E5E3AF"/>
<path id="Vector_364" d="M43.6711 37.75L43.9211 38L43.6711 37.75Z" fill="#FACA88"/>
<path id="Vector_365" d="M46.2085 37.75L46.4585 38L46.2085 37.75Z" fill="#FBEAD6"/>
<path id="Vector_366" d="M46.9712 37.75L47.2212 38L46.9712 37.75Z" fill="#FE9F11"/>
<path id="Vector_367" d="M47.2336 37.75L47.4836 38L47.2336 37.75Z" fill="#FCF1E4"/>
<path id="Vector_368" d="M50.021 37.75L50.271 38L50.021 37.75Z" fill="#FBEAD6"/>
<path id="Vector_369" d="M50.271 37.75L50.521 38L50.271 37.75Z" fill="#FAE3C9"/>
<path id="Vector_370" d="M50.521 37.75L50.771 38L50.521 37.75Z" fill="#FBEAD6"/>
<path id="Vector_371" d="M52.0461 37.75L52.2961 38L52.0461 37.75ZM54.0836 37.75L54.3336 38L54.0836 37.75Z" fill="#FBBE66"/>
<path id="Vector_372" d="M54.3335 37.75L54.5835 38L54.3335 37.75Z" fill="#FCF1E4"/>
<path id="Vector_373" d="M54.5835 37.75L54.8335 38L54.5835 37.75Z" fill="#FEF8F1"/>
<path id="Vector_374" d="M54.8462 37.75L55.0962 38L54.8462 37.75Z" fill="#F8DCBB"/>
<path id="Vector_375" d="M55.0962 37.75L55.3462 38L55.0962 37.75Z" fill="#FCB755"/>
<path id="Vector_376" d="M55.6086 37.75L55.8586 38L55.6086 37.75Z" fill="#FAE3C9"/>
<path id="Vector_377" d="M56.8711 37.75L57.1211 38L56.8711 37.75Z" fill="#808067"/>
<path id="Vector_378" d="M39.6211 38L39.8711 38.25L39.6211 38Z" fill="#32327B"/>
<path id="Vector_379" d="M39.946 38.175L40.0335 38.35L39.9585 38.175H39.946Z" fill="#A4A43D"/>
<path id="Vector_380" d="M40.3711 38L40.6211 38.25L40.3711 38Z" fill="#E5E59D"/>
<path id="Vector_381" d="M42.4087 38L42.6587 38.25L42.4087 38Z" fill="#FBC477"/>
<path id="Vector_382" d="M43.9336 38L44.1836 38.25L43.9336 38Z" fill="#F9D6AA"/>
<path id="Vector_383" d="M46.4712 38L46.7212 38.25L46.4712 38Z" fill="#FBBE66"/>
<path id="Vector_384" d="M47.2336 38L47.4836 38.25L47.2336 38Z" fill="#F9D099"/>
<path id="Vector_385" d="M49.4961 38L49.7461 38.25L49.4961 38Z" fill="#FAE3C9"/>
<path id="Vector_386" d="M49.771 38L50.021 38.25L49.771 38Z" fill="#FCB144"/>
<path id="Vector_387" d="M50.7837 38L51.0337 38.25L50.7837 38Z" fill="#FAE3C9"/>
<path id="Vector_388" d="M52.0461 38L52.2961 38.25L52.0461 38Z" fill="#F8DCBB"/>
<path id="Vector_389" d="M54.071 38L54.321 38.25L54.071 38Z" fill="#F9D099"/>
<path id="Vector_390" d="M55.3462 38L55.5962 38.25L55.3462 38Z" fill="#FBC477"/>
<path id="Vector_391" d="M55.6086 38L55.8586 38.25L55.6086 38Z" fill="#FBEAD6"/>
<path id="Vector_392" d="M56.8711 38L57.1211 38.25L56.8711 38Z" fill="#737370"/>
<path id="Vector_393" d="M40.3711 38.25L40.6211 38.5L40.3711 38.25Z" fill="#D9D868"/>
<path id="Vector_394" d="M42.4087 38.25L42.6587 38.5L42.4087 38.25Z" fill="#F9D099"/>
<path id="Vector_395" d="M44.1836 38.25L44.4336 38.5L44.1836 38.25ZM46.4711 38.25L46.7211 38.5L46.4711 38.25Z" fill="#F9D6AA"/>
<path id="Vector_396" d="M47.2336 38.25L47.4836 38.5L47.2336 38.25Z" fill="#FBC477"/>
<path id="Vector_397" d="M48.4961 38.25L48.7461 38.5L48.4961 38.25Z" fill="#FEF8F1"/>
<path id="Vector_398" d="M48.7461 38.25L48.9961 38.5L48.7461 38.25Z" fill="#F8DCBB"/>
<path id="Vector_399" d="M48.9961 38.25L49.2461 38.5L48.9961 38.25Z" fill="#FBC477"/>
<path id="Vector_400" d="M49.2461 38.25L49.4961 38.5L49.2461 38.25Z" fill="#FEA522"/>
<path id="Vector_401" d="M50.7837 38.25L51.0337 38.5L50.7837 38.25Z" fill="#FBEAD6"/>
<path id="Vector_402" d="M56.1086 38.25L56.3586 38.5L56.1086 38.25Z" fill="#F2F1D2"/>
<path id="Vector_403" d="M56.8711 38.25L57.1211 38.5L56.8711 38.25Z" fill="#58587B"/>
<path id="Vector_404" d="M39.8711 38.5L40.1211 38.75L39.8711 38.5Z" fill="#99994E"/>
<path id="Vector_405" d="M40.3711 38.5L40.6211 38.75L40.3711 38.5Z" fill="#D0D045"/>
<path id="Vector_406" d="M44.446 38.5L44.696 38.75L44.446 38.5Z" fill="#FCB144"/>
<path id="Vector_407" d="M44.696 38.5L44.946 38.75L44.696 38.5Z" fill="#FAE3C9"/>
<path id="Vector_408" d="M46.4712 38.5L46.7212 38.75L46.4712 38.5Z" fill="#FEF8F1"/>
<path id="Vector_409" d="M47.4836 38.5L47.7336 38.75L47.4836 38.5Z" fill="#FCB755"/>
<path id="Vector_410" d="M47.7336 38.5L47.9836 38.75L47.7336 38.5Z" fill="#FBC477"/>
<path id="Vector_411" d="M47.9961 38.5L48.2461 38.75L47.9961 38.5Z" fill="#FCB144"/>
<path id="Vector_412" d="M48.2461 38.5L48.4961 38.75L48.2461 38.5Z" fill="#FEA522"/>
<path id="Vector_413" d="M50.271 38.5L50.521 38.75L50.271 38.5Z" fill="#FE9F11"/>
<path id="Vector_414" d="M50.521 38.5L50.771 38.75L50.521 38.5Z" fill="#F9D6AA"/>
<path id="Vector_415" d="M54.071 38.5L54.321 38.75L54.071 38.5Z" fill="#FEF8F1"/>
<path id="Vector_416" d="M56.1086 38.5L56.3586 38.75L56.1086 38.5Z" fill="#E0DEA1"/>
<path id="Vector_417" d="M56.8711 38.5L57.1211 38.75L56.8711 38.5Z" fill="#3A3A7C"/>
<path id="Vector_418" d="M39.8711 38.775L40.1211 39.025L39.8711 38.775Z" fill="#737370"/>
<path id="Vector_419" d="M40.6211 38.775L40.8711 39.025L40.6211 38.775Z" fill="#FBFAF2"/>
<path id="Vector_420" d="M42.6587 38.775L42.9087 39.025L42.6587 38.775Z" fill="#FEA522"/>
<path id="Vector_421" d="M44.946 38.775L45.196 39.025L44.946 38.775Z" fill="#FE9F11"/>
<path id="Vector_422" d="M45.196 38.775L45.446 39.025L45.196 38.775Z" fill="#FCB144"/>
<path id="Vector_423" d="M45.446 38.775L45.696 39.025L45.446 38.775Z" fill="#FBC477"/>
<path id="Vector_424" d="M45.696 38.775L45.946 39.025L45.696 38.775Z" fill="#FACA88"/>
<path id="Vector_425" d="M45.9585 38.775L46.2085 39.025L45.9585 38.775Z" fill="#FBC477"/>
<path id="Vector_426" d="M46.2085 38.775L46.4585 39.025L46.2085 38.775Z" fill="#FCB144"/>
<path id="Vector_427" d="M46.4712 38.775L46.7212 39.025L46.4712 38.775Z" fill="#FDAB33"/>
<path id="Vector_428" d="M50.021 38.775L50.271 39.025L50.021 38.775Z" fill="#FBC477"/>
<path id="Vector_429" d="M50.271 38.775L50.521 39.025L50.271 38.775Z" fill="#FEF8F1"/>
<path id="Vector_430" d="M53.821 38.775L54.071 39.025L53.821 38.775Z" fill="#FDAB33"/>
<path id="Vector_431" d="M56.1086 38.775L56.3586 39.025L56.1086 38.775Z" fill="#E1E18C"/>
<path id="Vector_432" d="M56.696 38.9375L56.7835 39.1125L56.696 38.9375Z" fill="#A4A43D"/>
<path id="Vector_433" d="M56.8711 38.775L57.1211 39.025L56.8711 38.775Z" fill="#262678"/>
<path id="Vector_434" d="M39.8711 39.025L40.1211 39.275L39.8711 39.025Z" fill="#58587B"/>
<path id="Vector_435" d="M40.6211 39.025L40.8711 39.275L40.6211 39.025Z" fill="#F2F1D2"/>
<path id="Vector_436" d="M42.6587 39.025L42.9087 39.275L42.6587 39.025Z" fill="#FACA88"/>
<path id="Vector_437" d="M49.4961 39.025L49.7461 39.275L49.4961 39.025Z" fill="#FE9F11"/>
<path id="Vector_438" d="M49.771 39.025L50.021 39.275L49.771 39.025Z" fill="#FBEAD6"/>
<path id="Vector_439" d="M52.0461 39.025L52.2961 39.275L52.0461 39.025Z" fill="#FBC477"/>
<path id="Vector_440" d="M53.821 39.025L54.071 39.275L53.821 39.025Z" fill="#FACA88"/>
<path id="Vector_441" d="M56.1086 39.025L56.3586 39.275L56.1086 39.025Z" fill="#D4D456"/>
<path id="Vector_442" d="M39.8711 39.275L40.1211 39.525L39.8711 39.275Z" fill="#32327B"/>
<path id="Vector_443" d="M40.6211 39.275L40.8711 39.525L40.6211 39.275Z" fill="#E5E59D"/>
<path id="Vector_444" d="M42.6587 39.275L42.9087 39.525L42.6587 39.275Z" fill="#FEF8F1"/>
<path id="Vector_445" d="M42.9087 39.275L43.1587 39.525L42.9087 39.275Z" fill="#FE9F11"/>
<path id="Vector_446" d="M49.4961 39.275L49.7461 39.525L49.4961 39.275Z" fill="#FBEAD6"/>
<path id="Vector_447" d="M52.0461 39.275L52.2961 39.525L52.0461 39.275Z" fill="#FEA522"/>
<path id="Vector_448" d="M53.821 39.275L54.071 39.525L53.821 39.275Z" fill="#FCF1E4"/>
<path id="Vector_449" d="M56.6211 39.275L56.8711 39.525L56.6211 39.275Z" fill="#808067"/>
<path id="Vector_450" d="M39.8711 39.525L40.1211 39.775L39.8711 39.525Z" fill="#0E0E6E"/>
<path id="Vector_451" d="M40.1211 39.525L40.3711 39.775L40.1211 39.525Z" fill="#A4A43D"/>
<path id="Vector_452" d="M40.6211 39.525L40.8711 39.775L40.6211 39.525Z" fill="#D9D868"/>
<path id="Vector_453" d="M42.9087 39.525L43.1587 39.775L42.9087 39.525Z" fill="#F8DCBB"/>
<path id="Vector_454" d="M51.7961 39.525L52.0461 39.775L51.7961 39.525Z" fill="#F9D6AA"/>
<path id="Vector_455" d="M53.571 39.525L53.821 39.775L53.571 39.525Z" fill="#FACA88"/>
<path id="Vector_456" d="M55.8586 39.525L56.1086 39.775L55.8586 39.525Z" fill="#F2F1D2"/>
<path id="Vector_457" d="M56.6211 39.525L56.8711 39.775L56.6211 39.525Z" fill="#58587B"/>
<path id="Vector_458" d="M40.1211 39.7875L40.3711 40.0375L40.1211 39.7875Z" fill="#8D8D5B"/>
<path id="Vector_459" d="M43.1711 39.7875L43.4211 40.0375L43.1711 39.7875Z" fill="#F9D6AA"/>
<path id="Vector_460" d="M48.2461 39.7875L48.4961 40.0375L48.2461 39.7875Z" fill="#FDAB33"/>
<path id="Vector_461" d="M48.4961 39.7875L48.7461 40.0375L48.4961 39.7875Z" fill="#F5F5F5"/>
<path id="Vector_462" d="M48.9211 39.8625L49.0961 39.95L48.9211 39.8625Z" fill="#FCB144"/>
<path id="Vector_463" d="M51.5461 39.7875L51.2961 40.2875L51.5461 39.7875Z" fill="#FEF8F1"/>
<path id="Vector_464" d="M51.7961 39.7875L52.0461 40.0375L51.7961 39.7875Z" fill="#FE9F11"/>
<path id="Vector_465" d="M53.321 39.7875L53.071 40.2875L53.321 39.7875Z" fill="#FDAB33"/>
<path id="Vector_466" d="M55.8586 39.7875L56.1086 40.0375L55.8586 39.7875Z" fill="#E5E59D"/>
<path id="Vector_467" d="M56.6211 39.7875L56.8711 40.0375L56.6211 39.7875Z" fill="#3A3A7C"/>
<path id="Vector_468" d="M40.1211 40.0375L40.3711 40.2875L40.1211 40.0375Z" fill="#666677"/>
<path id="Vector_469" d="M40.8711 40.0375L41.1211 40.2875L40.8711 40.0375Z" fill="#F2F1D2"/>
<path id="Vector_470" d="M43.4211 40.0375L43.6711 40.2875L43.4211 40.0375Z" fill="#F9D6AA"/>
<path id="Vector_471" d="M48.2461 40.0375L48.4961 40.2875L48.2461 40.0375Z" fill="#FE9F11"/>
<path id="Vector_472" d="M48.4961 40.0375L48.7461 40.2875L48.4961 40.0375Z" fill="#FACA88"/>
<path id="Vector_473" d="M48.7461 40.0375L48.9961 40.2875L48.7461 40.0375Z" fill="#FEA522"/>
<path id="Vector_474" d="M48.9961 40.0375L49.2461 40.2875L48.9961 40.0375Z" fill="#FCF1E4"/>
<path id="Vector_475" d="M51.5461 40.0375L51.7961 40.2875L51.5461 40.0375Z" fill="#FDAB33"/>
<path id="Vector_476" d="M53.321 40.0375L53.571 40.2875L53.321 40.0375Z" fill="#FEF8F1"/>
<path id="Vector_477" d="M55.8586 40.0375L56.1086 40.2875L55.8586 40.0375Z" fill="#D9D868"/>
<path id="Vector_478" d="M56.3586 40.0375L56.6086 40.2875L56.3586 40.0375Z" fill="#A4A43D"/>
<path id="Vector_479" d="M56.6211 40.0375L56.8711 40.2875L56.6211 40.0375Z" fill="#0E0E6E"/>
<path id="Vector_480" d="M40.1211 40.2875L40.3711 40.5375L40.1211 40.2875Z" fill="#3A3A7C"/>
<path id="Vector_481" d="M40.8711 40.2875L41.1211 40.5375L40.8711 40.2875Z" fill="#E5E59D"/>
<path id="Vector_482" d="M43.6711 40.2875L44.1711 40.7875L43.6711 40.2875Z" fill="#FAE3C9"/>
<path id="Vector_483" d="M43.9336 40.2875L44.1836 40.5375L43.9336 40.2875Z" fill="#FE9F11"/>
<path id="Vector_484" d="M48.7461 40.2875L48.9961 40.5375L48.7461 40.2875Z" fill="#F8DCBB"/>
<path id="Vector_485" d="M51.0337 40.2875L51.2837 40.5375L51.0337 40.2875Z" fill="#FCF1E4"/>
<path id="Vector_486" d="M51.2837 40.2875L51.5337 40.5375L51.2837 40.2875Z" fill="#FDAB33"/>
<path id="Vector_487" d="M52.821 40.2875L53.071 40.5375L52.821 40.2875Z" fill="#FCB144"/>
<path id="Vector_488" d="M53.071 40.2875L53.321 40.5375L53.071 40.2875Z" fill="#FEF8F1"/>
<path id="Vector_489" d="M55.6086 40.2875L55.8586 40.5375L55.6086 40.2875Z" fill="#FBFAF2"/>
<path id="Vector_490" d="M56.3586 40.2875L56.6086 40.5375L56.3586 40.2875Z" fill="#8D8D5B"/>
<path id="Vector_491" d="M40.1211 40.55L40.3711 40.8L40.1211 40.55Z" fill="#0E0E6E"/>
<path id="Vector_492" d="M40.3711 40.55L40.6211 40.8L40.3711 40.55Z" fill="#A4A43D"/>
<path id="Vector_493" d="M40.8711 40.55L41.1211 40.8L40.8711 40.55Z" fill="#D4D456"/>
<path id="Vector_494" d="M48.4961 40.55L48.7461 40.8L48.4961 40.55Z" fill="#F9D6AA"/>
<path id="Vector_495" d="M50.7837 40.55L51.0337 40.8L50.7837 40.55Z" fill="#F9D099"/>
<path id="Vector_496" d="M51.0337 40.55L51.2837 40.8L51.0337 40.55Z" fill="#FE9F11"/>
<path id="Vector_497" d="M52.5586 40.55L52.8086 40.8L52.5586 40.55Z" fill="#FACA88"/>
<path id="Vector_498" d="M55.6086 40.55L55.8586 40.8L55.6086 40.55Z" fill="#EEEDC1"/>
<path id="Vector_499" d="M56.3586 40.55L56.6086 40.8L56.3586 40.55Z" fill="#58587B"/>
<path id="Vector_500" d="M40.3711 40.8L40.6211 41.05L40.3711 40.8Z" fill="#737370"/>
<path id="Vector_501" d="M41.1211 40.8L41.3711 41.05L41.1211 40.8Z" fill="#F6F6E4"/>
<path id="Vector_502" d="M43.9336 40.8L44.1836 41.05L43.9336 40.8Z" fill="#FBBE66"/>
<path id="Vector_503" d="M47.9961 40.8L48.2461 41.05L47.9961 40.8Z" fill="#FCB144"/>
<path id="Vector_504" d="M48.321 40.975L48.4085 41.1375L48.321 40.975Z" fill="#F8DCBB"/>
<path id="Vector_505" d="M50.271 40.8L50.521 41.05L50.271 40.8Z" fill="#FBBE66"/>
<path id="Vector_506" d="M50.521 40.8L50.771 41.05L50.521 40.8Z" fill="#FE9F11"/>
<path id="Vector_507" d="M52.0461 40.8L52.2961 41.05L52.0461 40.8Z" fill="#FBC477"/>
<path id="Vector_508" d="M52.3086 40.8L52.5586 41.05L52.3086 40.8Z" fill="#FCF1E4"/>
<path id="Vector_509" d="M55.6086 40.8L55.8586 41.05L55.6086 40.8Z" fill="#D3D079"/>
<path id="Vector_510" d="M56.1086 40.8L56.3586 41.05L56.1086 40.8Z" fill="#A4A43D"/>
<path id="Vector_511" d="M56.3586 40.8L56.6086 41.05L56.3586 40.8Z" fill="#262678"/>
<path id="Vector_512" d="M40.3711 41.05L40.6211 41.3L40.3711 41.05Z" fill="#49497D"/>
<path id="Vector_513" d="M41.1211 41.05L41.3711 41.3L41.1211 41.05Z" fill="#E0DEA1"/>
<path id="Vector_514" d="M43.6711 41.05L43.9211 41.3L43.6711 41.05Z" fill="#FAE3C9"/>
<path id="Vector_515" d="M47.2336 41.05L47.4836 41.3L47.2336 41.05Z" fill="#FDAB33"/>
<path id="Vector_516" d="M47.4836 41.05L47.7336 41.3L47.4836 41.05Z" fill="#FBC477"/>
<path id="Vector_517" d="M47.7336 41.05L47.9836 41.3L47.7336 41.05Z" fill="#FBEAD6"/>
<path id="Vector_518" d="M48.4961 41.05L48.7461 41.3L48.4961 41.05Z" fill="#FCB144"/>
<path id="Vector_519" d="M51.7961 41.05L52.0461 41.3L51.7961 41.05Z" fill="#F9D6AA"/>
<path id="Vector_520" d="M56.1086 41.05L56.3586 41.3L56.1086 41.05Z" fill="#99994E"/>
<path id="Vector_521" d="M40.3711 41.3125L40.6211 41.5625L40.3711 41.3125Z" fill="#0E0E6E"/>
<path id="Vector_522" d="M40.6211 41.3125L40.8711 41.5625L40.6211 41.3125Z" fill="#A4A43D"/>
<path id="Vector_523" d="M41.1211 41.3125L41.3711 41.5625L41.1211 41.3125Z" fill="#D4D456"/>
<path id="Vector_524" d="M43.4211 41.3125L43.6711 41.5625L43.4211 41.3125Z" fill="#F9D099"/>
<path id="Vector_525" d="M43.6711 41.3125L43.9211 41.5625L43.6711 41.3125ZM44.9461 41.3125L45.1961 41.5625L44.9461 41.3125Z" fill="#FE9F11"/>
<path id="Vector_526" d="M45.196 41.3125L45.446 41.5625L45.196 41.3125Z" fill="#F9D6AA"/>
<path id="Vector_527" d="M45.446 41.3125L45.696 41.5625L45.446 41.3125Z" fill="#F9D099"/>
<path id="Vector_528" d="M46.4712 41.3125L46.7212 41.5625L46.4712 41.3125Z" fill="#F9D6AA"/>
<path id="Vector_529" d="M46.7212 41.3125L46.9712 41.5625L46.7212 41.3125Z" fill="#FAE3C9"/>
<path id="Vector_530" d="M46.9712 41.3125L47.2212 41.5625L46.9712 41.3125Z" fill="#FEF8F1"/>
<path id="Vector_531" d="M48.9961 41.3125L49.2461 41.5625L48.9961 41.3125Z" fill="#FBEAD6"/>
<path id="Vector_532" d="M49.2461 41.3125L49.4961 41.5625L49.2461 41.3125Z" fill="#FAE3C9"/>
<path id="Vector_533" d="M49.4961 41.3125L49.7461 41.5625L49.4961 41.3125Z" fill="#FACA88"/>
<path id="Vector_534" d="M49.771 41.3125L50.021 41.5625L49.771 41.3125Z" fill="#FBC477"/>
<path id="Vector_535" d="M50.021 41.3125L50.271 41.5625L50.021 41.3125Z" fill="#FDAB33"/>
<path id="Vector_536" d="M51.2837 41.3125L51.5337 41.5625L51.2837 41.3125Z" fill="#FE9F11"/>
<path id="Vector_537" d="M51.5461 41.3125L51.7961 41.5625L51.5461 41.3125Z" fill="#F9D6AA"/>
<path id="Vector_538" d="M55.3462 41.3125L55.5962 41.5625L55.3462 41.3125Z" fill="#E5E3AF"/>
<path id="Vector_539" d="M56.1086 41.3125L56.3586 41.5625L56.1086 41.3125Z" fill="#666677"/>
<path id="Vector_540" d="M40.6211 41.5625L40.8711 41.8125L40.6211 41.5625Z" fill="#737370"/>
<path id="Vector_541" d="M41.396 41.5625L41.646 41.8125L41.396 41.5625Z" fill="#F2F1D7"/>
<path id="Vector_542" d="M43.1711 41.5625L43.4211 41.8125L43.1711 41.5625Z" fill="#FEA522"/>
<path id="Vector_543" d="M44.446 41.5625L44.696 41.8125L44.446 41.5625Z" fill="#FE9F11"/>
<path id="Vector_544" d="M44.696 41.5625L44.946 41.8125L44.696 41.5625Z" fill="#FBBE66"/>
<path id="Vector_545" d="M44.946 41.5625L45.196 41.8125L44.946 41.5625Z" fill="#FCF1E4"/>
<path id="Vector_546" d="M51.0337 41.5625L51.2837 41.8125L51.0337 41.5625Z" fill="#FEA522"/>
<path id="Vector_547" d="M51.2837 41.5625L51.5337 41.8125L51.2837 41.5625Z" fill="#FBEAD6"/>
<path id="Vector_548" d="M55.3462 41.5625L55.5962 41.8125L55.3462 41.5625Z" fill="#DDDC7A"/>
<path id="Vector_549" d="M55.8586 41.5625L56.1086 41.8125L55.8586 41.5625Z" fill="#A4A43D"/>
<path id="Vector_550" d="M56.1086 41.5625L56.3586 41.8125L56.1086 41.5625Z" fill="#262678"/>
<path id="Vector_551" d="M40.6211 41.8125L40.8711 42.0625L40.6211 41.8125Z" fill="#49497D"/>
<path id="Vector_552" d="M40.9712 41.9875L41.0587 42.15L40.9712 41.9875Z" fill="#A4A43D"/>
<path id="Vector_553" d="M41.396 41.8125L41.646 42.0625L41.396 41.8125Z" fill="#D3D079"/>
<path id="Vector_554" d="M43.4211 41.8125L43.6711 42.0625L43.4211 41.8125Z" fill="#F9D099"/>
<path id="Vector_555" d="M43.6711 41.8125L43.9211 42.0625L43.6711 41.8125Z" fill="#FCB144"/>
<path id="Vector_556" d="M43.9336 41.8125L44.1836 42.0625L43.9336 41.8125Z" fill="#FACA88"/>
<path id="Vector_557" d="M44.1836 41.8125L44.4336 42.0625L44.1836 41.8125Z" fill="#F8DCBB"/>
<path id="Vector_558" d="M44.446 41.8125L44.696 42.0625L44.446 41.8125Z" fill="#FEF8F1"/>
<path id="Vector_559" d="M50.021 41.8125L50.271 42.0625L50.021 41.8125Z" fill="#F8DCBB"/>
<path id="Vector_560" d="M51.0337 41.8125L51.2837 42.0625L51.0337 41.8125Z" fill="#FCF1E4"/>
<path id="Vector_561" d="M55.0962 41.8125L55.3462 42.0625L55.0962 41.8125Z" fill="#F6F6E4"/>
<path id="Vector_562" d="M55.8586 41.8125L56.1086 42.0625L55.8586 41.8125Z" fill="#8D8D5B"/>
<path id="Vector_563" d="M41.646 42.0625L41.896 42.3125L41.646 42.0625Z" fill="#FBFAF2"/>
<path id="Vector_564" d="M50.021 42.0625L50.271 42.3125L50.021 42.0625Z" fill="#FBBE66"/>
<path id="Vector_565" d="M50.7837 42.0625L51.0337 42.3125L50.7837 42.0625Z" fill="#FACA88"/>
<path id="Vector_566" d="M55.0962 42.0625L55.3462 42.3125L55.0962 42.0625Z" fill="#E1E18C"/>
<path id="Vector_567" d="M55.8586 42.0625L56.1086 42.3125L55.8586 42.0625Z" fill="#49497D"/>
<path id="Vector_568" d="M40.8711 42.325L41.1211 42.575L40.8711 42.325Z" fill="#58587B"/>
<path id="Vector_569" d="M41.646 42.325L41.896 42.575L41.646 42.325Z" fill="#E5E59D"/>
<path id="Vector_570" d="M50.021 42.325L50.271 42.575L50.021 42.325Z" fill="#FE9F11"/>
<path id="Vector_571" d="M50.521 42.325L50.771 42.575L50.521 42.325Z" fill="#FDAB33"/>
<path id="Vector_572" d="M54.8462 42.325L55.0962 42.575L54.8462 42.325Z" fill="#FBFAF2"/>
<path id="Vector_573" d="M55.6086 42.325L55.8586 42.575L55.6086 42.325Z" fill="#A4A43D"/>
<path id="Vector_574" d="M55.8586 42.325L56.1086 42.575L55.8586 42.325Z" fill="#0E0E6E"/>
<path id="Vector_575" d="M40.8711 42.575L41.1211 42.825L40.8711 42.575Z" fill="#1B1B74"/>
<path id="Vector_576" d="M41.1211 42.575L41.3711 42.825L41.1211 42.575Z" fill="#A4A43D"/>
<path id="Vector_577" d="M41.646 42.575L41.896 42.825L41.646 42.575Z" fill="#D0D045"/>
<path id="Vector_578" d="M49.771 42.575L50.021 42.825L49.771 42.575Z" fill="#FBEAD6"/>
<path id="Vector_579" d="M50.271 42.575L50.521 42.825L50.271 42.575Z" fill="#FE9F11"/>
<path id="Vector_580" d="M50.521 42.575L50.771 42.825L50.521 42.575Z" fill="#FBEAD6"/>
<path id="Vector_581" d="M54.8462 42.575L55.0962 42.825L54.8462 42.575Z" fill="#E5E59D"/>
<path id="Vector_582" d="M55.6086 42.575L55.8586 42.825L55.6086 42.575Z" fill="#666677"/>
<path id="Vector_583" d="M41.1211 42.825L41.3711 43.075L41.1211 42.825Z" fill="#6E6C70"/>
<path id="Vector_584" d="M41.896 42.825L42.146 43.075L41.896 42.825Z" fill="#E5E3AF"/>
<path id="Vector_585" d="M49.8462 43L49.9337 43.175L49.8462 43Z" fill="#FACA88"/>
<path id="Vector_586" d="M50.271 42.825L50.521 43.075L50.271 42.825Z" fill="#FAE3C9"/>
<path id="Vector_587" d="M54.5835 42.825L54.8335 43.075L54.5835 42.825Z" fill="#FBFAF2"/>
<path id="Vector_588" d="M55.3462 42.825L55.5962 43.075L55.3462 42.825Z" fill="#A4A43D"/>
<path id="Vector_589" d="M55.6085 42.825L55.8585 43.075L55.6085 42.825ZM41.1335 43.075L41.3835 43.325L41.1335 43.075Z" fill="#1B1B74"/>
<path id="Vector_590" d="M41.396 43.0875L41.646 43.3375L41.396 43.0875Z" fill="#A4A43D"/>
<path id="Vector_591" d="M41.896 43.0875L42.146 43.3375L41.896 43.0875Z" fill="#D0D045"/>
<path id="Vector_592" d="M42.146 43.0875L42.396 43.3375L42.146 43.0875Z" fill="#FBFAF2"/>
<path id="Vector_593" d="M50.021 43.0875L50.271 43.3375L50.021 43.0875Z" fill="#F9D6AA"/>
<path id="Vector_594" d="M54.5835 43.0875L54.8335 43.3375L54.5835 43.0875Z" fill="#E5E59D"/>
<path id="Vector_595" d="M55.346 43.0875L55.596 43.3375L55.346 43.0875ZM41.396 43.3375L41.646 43.5875L41.396 43.3375Z" fill="#6E6C70"/>
<path id="Vector_596" d="M42.146 43.3375L42.396 43.5875L42.146 43.3375Z" fill="#8CBF84"/>
<path id="Vector_597" d="M42.2461 43.3375C43.1211 45.1875 46.2461 49.5625 48.6211 49.4875C50.9586 49.4 53.5711 45.1125 54.5836 43.3375H42.2461Z" fill="#00CCFF"/>
<path id="Vector_598" d="M55.0962 43.3375L55.3462 43.5875L55.0962 43.3375Z" fill="#A4A43D"/>
<path id="Vector_599" d="M55.346 43.3375L55.596 43.5875L55.346 43.3375ZM41.396 43.5875L41.646 43.8375L41.396 43.5875Z" fill="#1B1B74"/>
<path id="Vector_600" d="M41.646 43.5875L41.896 43.8375L41.646 43.5875Z" fill="#A4A43D"/>
<path id="Vector_601" d="M42.146 43.5875L42.396 43.8375L42.146 43.5875Z" fill="#ADB333"/>
<path id="Vector_602" d="M42.4087 43.5875L42.6587 43.8375L42.4087 43.5875Z" fill="#1AC5B5"/>
<path id="Vector_603" d="M54.3335 43.5875L54.5835 43.8375L54.3335 43.5875Z" fill="#68B070"/>
<path id="Vector_604" d="M55.0962 43.5875L55.3462 43.8375L55.0962 43.5875Z" fill="#666677"/>
<path id="Vector_605" d="M41.646 43.85L41.896 44.1L41.646 43.85Z" fill="#58587B"/>
<path id="Vector_606" d="M42.4087 43.85L42.6587 44.1L42.4087 43.85Z" fill="#7FB15C"/>
<path id="Vector_607" d="M54.071 43.85L54.321 44.1L54.071 43.85Z" fill="#27C2AA"/>
<path id="Vector_608" d="M54.8462 43.85L54.5962 44.35L54.8462 43.85Z" fill="#A4A43D"/>
<path id="Vector_609" d="M55.096 43.85L55.346 44.1L55.096 43.85ZM41.646 44.1L41.896 44.35L41.646 44.1Z" fill="#0E0E6E"/>
<path id="Vector_610" d="M41.896 44.1L42.396 44.6L41.896 44.1Z" fill="#A4A43D"/>
<path id="Vector_611" d="M42.6587 44.1L42.9087 44.35L42.6587 44.1Z" fill="#34BE9E"/>
<path id="Vector_612" d="M54.071 44.1L54.321 44.35L54.071 44.1Z" fill="#96B247"/>
<path id="Vector_613" d="M54.8462 44.1L55.0962 44.35L54.8462 44.1Z" fill="#53527C"/>
<path id="Vector_614" d="M41.896 44.3625L42.146 44.6125L41.896 44.3625Z" fill="#3A3A7C"/>
<path id="Vector_615" d="M42.6587 44.3625L42.9087 44.6125L42.6587 44.3625Z" fill="#A2B23D"/>
<path id="Vector_616" d="M42.9087 44.3625L43.1587 44.6125L42.9087 44.3625Z" fill="#0DC9C1"/>
<path id="Vector_617" d="M53.821 44.3625L54.071 44.6125L53.821 44.3625Z" fill="#5BB47C"/>
<path id="Vector_618" d="M54.5835 44.3625L54.8335 44.6125L54.5835 44.3625Z" fill="#8D8D5B"/>
<path id="Vector_619" d="M42.146 44.6125L42.396 44.8625L42.146 44.6125Z" fill="#737370"/>
<path id="Vector_620" d="M42.9087 44.6125L43.1587 44.8625L42.9087 44.6125Z" fill="#74B166"/>
<path id="Vector_621" d="M53.571 44.6125L53.821 44.8625L53.571 44.6125Z" fill="#27C2AA"/>
<path id="Vector_622" d="M54.3335 44.6125L54.0835 45.1125L54.3335 44.6125Z" fill="#A4A43D"/>
<path id="Vector_623" d="M54.5835 44.6125L54.8335 44.8625L54.5835 44.6125Z" fill="#262678"/>
<path id="Vector_624" d="M42.146 44.8625L42.396 45.1125L42.146 44.8625Z" fill="#0E0E6E"/>
<path id="Vector_625" d="M42.4087 44.8625L42.9087 45.3625L42.4087 44.8625Z" fill="#A4A43D"/>
<path id="Vector_626" d="M43.1711 44.8625L43.4211 45.1125L43.1711 44.8625Z" fill="#42BB92"/>
<path id="Vector_627" d="M53.321 44.8625L53.571 45.1125L53.321 44.8625Z" fill="#0DC9C1"/>
<path id="Vector_628" d="M53.571 44.8625L53.821 45.1125L53.571 44.8625Z" fill="#96B247"/>
<path id="Vector_629" d="M54.3335 44.8625L54.5835 45.1125L54.3335 44.8625Z" fill="#58587B"/>
<path id="Vector_630" d="M42.4087 45.1125L42.6587 45.3625L42.4087 45.1125Z" fill="#3A3A7C"/>
<path id="Vector_631" d="M43.1711 45.1125L43.4211 45.3625L43.1711 45.1125Z" fill="#ADB333"/>
<path id="Vector_632" d="M43.4211 45.1125L43.6711 45.3625L43.4211 45.1125Z" fill="#27C2AA"/>
<path id="Vector_633" d="M53.321 45.1125L53.571 45.3625L53.321 45.1125Z" fill="#74B166"/>
<path id="Vector_634" d="M54.071 45.1125L54.321 45.3625L54.071 45.1125Z" fill="#8D8D5B"/>
<path id="Vector_635" d="M42.6587 45.3625L42.9087 45.6125L42.6587 45.3625Z" fill="#6E6C70"/>
<path id="Vector_636" d="M43.4211 45.3625L43.6711 45.6125L43.4211 45.3625Z" fill="#96B247"/>
<path id="Vector_637" d="M43.6711 45.3625L43.9211 45.6125L43.6711 45.3625Z" fill="#0DC9C1"/>
<path id="Vector_638" d="M53.071 45.3625L53.321 45.6125L53.071 45.3625Z" fill="#42BB92"/>
<path id="Vector_639" d="M53.821 45.3625L53.321 46.1125L53.821 45.3625Z" fill="#A4A43D"/>
<path id="Vector_640" d="M54.071 45.3625L54.321 45.6125L54.071 45.3625Z" fill="#1B1B74"/>
<path id="Vector_641" d="M42.6587 45.6125L42.9087 45.8625L42.6587 45.6125Z" fill="#0E0E6E"/>
<path id="Vector_642" d="M42.9087 45.6125L43.1587 45.8625L42.9087 45.6125Z" fill="#8D8D5B"/>
<path id="Vector_643" d="M43.6711 45.6125L43.9211 45.8625L43.6711 45.6125Z" fill="#7FB15C"/>
<path id="Vector_644" d="M52.821 45.6125L53.071 45.8625L52.821 45.6125Z" fill="#34BE9E"/>
<path id="Vector_645" d="M53.821 45.6125L54.071 45.8625L53.821 45.6125Z" fill="#3A3A7C"/>
<path id="Vector_646" d="M42.9087 45.875L43.1587 46.125L42.9087 45.875Z" fill="#1B1B74"/>
<path id="Vector_647" d="M43.1711 45.875L45.9586 48.6625L43.1711 45.875Z" fill="#A4A43D"/>
<path id="Vector_648" d="M43.9336 45.875L44.1836 46.125L43.9336 45.875Z" fill="#74B166"/>
<path id="Vector_649" d="M52.5586 45.875L52.8086 46.125L52.5586 45.875Z" fill="#27C2AA"/>
<path id="Vector_650" d="M52.821 45.875L53.071 46.125L52.821 45.875Z" fill="#ADB333"/>
<path id="Vector_651" d="M53.571 45.875L53.821 46.125L53.571 45.875Z" fill="#666677"/>
<path id="Vector_652" d="M43.1711 46.125L43.4211 46.375L43.1711 46.125Z" fill="#32327B"/>
<path id="Vector_653" d="M44.1836 46.125L44.4336 46.375L44.1836 46.125Z" fill="#42BB92"/>
<path id="Vector_654" d="M52.3087 46.125L51.2837 47.4L52.3212 46.1125L52.3087 46.125Z" fill="#0DC9C1"/>
<path id="Vector_655" d="M52.5586 46.125L52.8086 46.375L52.5586 46.125Z" fill="#ADB333"/>
<path id="Vector_656" d="M53.321 46.125L53.571 46.375L53.321 46.125Z" fill="#737370"/>
<path id="Vector_657" d="M43.4211 46.375L43.6711 46.625L43.4211 46.375Z" fill="#49497D"/>
<path id="Vector_658" d="M44.446 46.375L44.696 46.625L44.446 46.375Z" fill="#42BB92"/>
<path id="Vector_659" d="M52.3086 46.375L52.5586 46.625L52.3086 46.375Z" fill="#96B247"/>
<path id="Vector_660" d="M53.071 46.375L52.821 46.875L53.071 46.375Z" fill="#8D8D5B"/>
<path id="Vector_661" d="M53.321 46.375L53.571 46.625L53.321 46.375Z" fill="#0E0E6E"/>
<path id="Vector_662" d="M43.6711 46.625L43.9211 46.875L43.6711 46.625Z" fill="#53527C"/>
<path id="Vector_663" d="M44.696 46.625L44.946 46.875L44.696 46.625Z" fill="#42BB92"/>
<path id="Vector_664" d="M52.0461 46.625L52.2961 46.875L52.0461 46.625Z" fill="#96B247"/>
<path id="Vector_665" d="M53.071 46.625L53.321 46.875L53.071 46.625Z" fill="#0E0E6E"/>
<path id="Vector_666" d="M43.9336 46.875L44.1836 47.125L43.9336 46.875Z" fill="#6E6C70"/>
<path id="Vector_667" d="M44.946 46.875L45.196 47.125L44.946 46.875Z" fill="#42BB92"/>
<path id="Vector_668" d="M51.7961 46.875L52.0461 47.125L51.7961 46.875Z" fill="#96B247"/>
<path id="Vector_669" d="M52.5586 46.875L52.0586 47.65L52.5586 46.9V46.875Z" fill="#A4A43D"/>
<path id="Vector_670" d="M52.821 46.875L53.071 47.125L52.821 46.875Z" fill="#262678"/>
<path id="Vector_671" d="M44.1836 47.15L44.4336 47.4L44.1836 47.15Z" fill="#6E6C70"/>
<path id="Vector_672" d="M45.196 47.15L45.446 47.4L45.196 47.15Z" fill="#42BB92"/>
<path id="Vector_673" d="M51.5461 47.15L51.7961 47.4L51.5461 47.15Z" fill="#96B247"/>
<path id="Vector_674" d="M52.5586 47.15L52.8086 47.4L52.5586 47.15Z" fill="#262678"/>
<path id="Vector_675" d="M44.446 47.4L44.696 47.65L44.446 47.4Z" fill="#6E6C70"/>
<path id="Vector_676" d="M45.446 47.4L45.696 47.65L45.446 47.4Z" fill="#68B070"/>
<path id="Vector_677" d="M51.0337 47.4L51.2837 47.65L51.0337 47.4Z" fill="#27C2AA"/>
<path id="Vector_678" d="M51.2837 47.4L51.5337 47.65L51.2837 47.4Z" fill="#ADB333"/>
<path id="Vector_679" d="M52.3086 47.4L52.5586 47.65L52.3086 47.4Z" fill="#262678"/>
<path id="Vector_680" d="M44.696 47.65L44.946 47.9L44.696 47.65Z" fill="#666677"/>
<path id="Vector_681" d="M45.696 47.65L45.946 47.9L45.696 47.65Z" fill="#74B166"/>
<path id="Vector_682" d="M50.7837 47.65L51.0337 47.9L50.7837 47.65Z" fill="#34BE9E"/>
<path id="Vector_683" d="M51.0337 47.65L51.2837 47.9L51.0337 47.65Z" fill="#ADB333"/>
<path id="Vector_684" d="M51.7961 47.65L51.5461 48.15L51.7961 47.65Z" fill="#8D8D5B"/>
<path id="Vector_685" d="M52.0461 47.65L52.2961 47.9L52.0461 47.65Z" fill="#262678"/>
<path id="Vector_686" d="M44.946 47.9L45.196 48.15L44.946 47.9Z" fill="#49497D"/>
<path id="Vector_687" d="M45.9585 47.9L46.2085 48.15L45.9585 47.9Z" fill="#96B247"/>
<path id="Vector_688" d="M46.2085 47.9L46.4585 48.15L46.2085 47.9Z" fill="#0DC9C1"/>
<path id="Vector_689" d="M50.521 47.9L50.771 48.15L50.521 47.9Z" fill="#42BB92"/>
<path id="Vector_690" d="M51.7961 47.9L52.0461 48.15L51.7961 47.9Z" fill="#0E0E6E"/>
<path id="Vector_691" d="M45.196 48.1625L45.446 48.4125L45.196 48.1625Z" fill="#49497D"/>
<path id="Vector_692" d="M46.2085 48.1625L46.4585 48.4125L46.2085 48.1625Z" fill="#A2B23D"/>
<path id="Vector_693" d="M46.4712 48.1625L46.7212 48.4125L46.4712 48.1625Z" fill="#27C2AA"/>
<path id="Vector_694" d="M50.271 48.1625L50.521 48.4125L50.271 48.1625Z" fill="#74B166"/>
<path id="Vector_695" d="M51.0337 48.1625L50.2837 49.1625L51.0337 48.1625Z" fill="#A4A43D"/>
<path id="Vector_696" d="M51.2837 48.1625L51.5337 48.4125L51.2837 48.1625Z" fill="#808067"/>
<path id="Vector_697" d="M51.5461 48.1625L51.7961 48.4125L51.5461 48.1625Z" fill="#0E0E6E"/>
<path id="Vector_698" d="M45.446 48.4125L45.696 48.6625L45.446 48.4125Z" fill="#262678"/>
<path id="Vector_699" d="M46.4712 48.4125L46.7212 48.6625L46.4712 48.4125Z" fill="#ADB333"/>
<path id="Vector_700" d="M46.7212 48.4125L46.9712 48.6625L46.7212 48.4125Z" fill="#42BB92"/>
<path id="Vector_701" d="M49.771 48.4125L50.021 48.6625L49.771 48.4125Z" fill="#0DC9C1"/>
<path id="Vector_702" d="M50.021 48.4125L50.271 48.6625L50.021 48.4125Z" fill="#96B247"/>
<path id="Vector_703" d="M51.0337 48.4125L51.2837 48.6625L51.0337 48.4125Z" fill="#6E6C70"/>
<path id="Vector_704" d="M45.696 48.6625L45.946 48.9125L45.696 48.6625Z" fill="#1B1B74"/>
<path id="Vector_705" d="M45.9585 48.6625L46.2085 48.9125L45.9585 48.6625Z" fill="#8D8D5B"/>
<path id="Vector_706" d="M46.9712 48.6625L47.2212 48.9125L46.9712 48.6625Z" fill="#74B166"/>
<path id="Vector_707" d="M47.2336 48.6625L47.4836 48.9125L47.2336 48.6625Z" fill="#0DC9C1"/>
<path id="Vector_708" d="M49.4961 48.6625L49.7461 48.9125L49.4961 48.6625Z" fill="#34BE9E"/>
<path id="Vector_709" d="M49.771 48.6625L50.021 48.9125L49.771 48.6625Z" fill="#ADB333"/>
<path id="Vector_710" d="M50.7837 48.6625L51.0337 48.9125L50.7837 48.6625Z" fill="#49497D"/>
<path id="Vector_711" d="M45.9585 48.925L46.2085 49.175L45.9585 48.925Z" fill="#0E0E6E"/>
<path id="Vector_712" d="M46.2085 48.925L46.4585 49.175L46.2085 48.925Z" fill="#6E6C70"/>
<path id="Vector_713" d="M46.4712 48.925L46.9712 49.425L46.4712 48.925Z" fill="#A4A43D"/>
<path id="Vector_714" d="M47.2336 48.925L47.4836 49.175L47.2336 48.925Z" fill="#96B247"/>
<path id="Vector_715" d="M47.4836 48.925L47.7336 49.175L47.4836 48.925Z" fill="#27C2AA"/>
<path id="Vector_716" d="M49.2461 48.925L49.4961 49.175L49.2461 48.925Z" fill="#68B070"/>
<path id="Vector_717" d="M50.521 48.925L50.771 49.175L50.521 48.925Z" fill="#32327B"/>
<path id="Vector_718" d="M46.4712 49.175L46.7212 49.425L46.4712 49.175Z" fill="#49497D"/>
<path id="Vector_719" d="M47.7336 49.175L47.9836 49.425L47.7336 49.175Z" fill="#5BB47C"/>
<path id="Vector_720" d="M48.7461 49.175L48.9961 49.425L48.7461 49.175Z" fill="#27C2AA"/>
<path id="Vector_721" d="M48.9961 49.175L49.2461 49.425L48.9961 49.175Z" fill="#96B247"/>
<path id="Vector_722" d="M49.771 49.175L49.521 49.675L49.771 49.175Z" fill="#A4A43D"/>
<path id="Vector_723" d="M50.021 49.175L50.271 49.425L50.021 49.175Z" fill="#808067"/>
<path id="Vector_724" d="M50.271 49.175L50.521 49.425L50.271 49.175Z" fill="#0E0E6E"/>
<path id="Vector_725" d="M46.7212 49.425L46.9712 49.675L46.7212 49.425Z" fill="#262678"/>
<path id="Vector_726" d="M46.9712 49.425L47.2212 49.675L46.9712 49.425Z" fill="#8D8D5B"/>
<path id="Vector_727" d="M47.9961 49.425L48.2461 49.675L47.9961 49.425Z" fill="#8BB252"/>
<path id="Vector_728" d="M48.2461 49.425L48.4961 49.675L48.2461 49.425Z" fill="#1AC5B5"/>
<path id="Vector_729" d="M48.4961 49.425L48.7461 49.675L48.4961 49.425Z" fill="#5BB47C"/>
<path id="Vector_730" d="M49.771 49.425L50.021 49.675L49.771 49.425Z" fill="#58587B"/>
<path id="Vector_731" d="M46.9712 49.6875L47.2212 49.9375L46.9712 49.6875Z" fill="#0E0E6E"/>
<path id="Vector_732" d="M47.2336 49.6875L47.4836 49.9375L47.2336 49.6875Z" fill="#666677"/>
<path id="Vector_733" d="M47.4836 49.6875L47.7336 49.9375L47.4836 49.6875Z" fill="#A4A43D"/>
<path id="Vector_734" d="M49.2461 49.6875L49.4961 49.9375L49.2461 49.6875Z" fill="#99994E"/>
<path id="Vector_735" d="M49.4961 49.6875L49.7461 49.9375L49.4961 49.6875ZM47.4836 49.9375L47.7336 50.1875L47.4836 49.9375Z" fill="#32327B"/>
<path id="Vector_736" d="M47.7336 49.9375L47.9836 50.1875L47.7336 49.9375Z" fill="#99994E"/>
<path id="Vector_737" d="M48.7461 49.9375L48.9961 50.1875L48.7461 49.9375Z" fill="#A4A43D"/>
<path id="Vector_738" d="M48.9961 49.9375L49.2461 50.1875L48.9961 49.9375Z" fill="#666677"/>
<path id="Vector_739" d="M49.2461 49.9375L49.4961 50.1875L49.2461 49.9375ZM47.7336 50.1875L47.9836 50.4375L47.7336 50.1875Z" fill="#0E0E6E"/>
<path id="Vector_740" d="M47.9961 50.1875L48.2461 50.4375L47.9961 50.1875Z" fill="#666677"/>
<path id="Vector_741" d="M48.2461 50.1875L48.4961 50.4375L48.2461 50.1875Z" fill="#A4A43D"/>
<path id="Vector_742" d="M48.4961 50.1875L48.7461 50.4375L48.4961 50.1875Z" fill="#99994E"/>
<path id="Vector_743" d="M48.7461 50.1875L48.9961 50.4375L48.7461 50.1875Z" fill="#32327B"/>
<path id="Vector_744" d="M48.2461 50.4375L48.4961 50.6875L48.2461 50.4375Z" fill="#262678"/>
<path id="Vector_745" d="M48.4961 50.4375L48.7461 50.6875L48.4961 50.4375Z" fill="#0E0E6E"/>
<path id="Vector_746" d="M48.746 33.4375C49.146 34.3625 50.396 35.375 50.746 35.875C50.3085 36.375 50.221 36.325 50.271 37.25C51.021 36.45 51.046 36.375 51.546 36.4875C52.621 37.5625 51.7335 39.8625 50.846 40.3625C49.9585 40.9 50.121 40.35 48.7835 41.0125C49.396 41.5375 50.1085 40.9375 50.6835 41.1C50.996 41.475 50.5335 42.15 50.771 42.8C51.271 42.75 51.221 41.7125 51.346 41.3375C51.721 39.9625 53.971 39.0125 54.0835 37.75C54.5585 37.5375 55.021 37.6875 55.5835 38C55.3085 36.825 54.371 36.8375 54.1085 36.475C53.5085 35.55 52.971 34.5 51.6835 34.225C50.6835 34.0125 50.771 34.2875 50.146 33.85C49.746 33.55 48.5585 32.975 48.746 33.4375V33.4375Z" fill="#FF9900"/>
<path id="Vector_747" fill-rule="evenodd" clip-rule="evenodd" d="M51.5712 34.4875C51.5712 34.5422 51.5495 34.5947 51.5108 34.6333C51.4721 34.672 51.4196 34.6937 51.3649 34.6937C51.3102 34.6937 51.2578 34.672 51.2191 34.6333C51.1804 34.5947 51.1587 34.5422 51.1587 34.4875C51.1587 34.4328 51.1804 34.3803 51.2191 34.3417C51.2578 34.303 51.3102 34.2812 51.3649 34.2812C51.4196 34.2812 51.4721 34.303 51.5108 34.3417C51.5495 34.3803 51.5712 34.4328 51.5712 34.4875V34.4875Z" fill="#F5F5F5"/>
<path id="Vector_748" d="M45.6085 37.35C46.2335 36.575 46.5586 34.975 46.8336 34.45C47.4836 34.6 47.4586 34.7 48.2711 34.225C47.2086 33.925 47.1211 33.95 46.9961 33.4625C47.4461 32 49.8961 31.7125 50.7461 32.2625C51.6461 32.8 51.0835 32.9125 52.296 33.7625C52.471 32.9875 51.6085 32.6375 51.4835 32.0625C51.671 31.6 52.4836 31.6875 52.9336 31.1875C52.6586 30.75 51.7711 31.2875 51.3836 31.3625C50.0086 31.675 48.0961 30.1375 46.9336 30.6125C46.5211 30.3 46.4336 29.8125 46.4336 29.15C45.5461 29.9625 45.996 30.775 45.7835 31.1875C45.2585 32.15 44.5711 33.125 44.9336 34.3875C45.2086 35.3625 45.4086 35.1625 45.3336 35.925C45.2461 36.4125 45.2835 37.7375 45.6085 37.35V37.35Z" fill="#FF9900"/>
<path id="Vector_749" fill-rule="evenodd" clip-rule="evenodd" d="M45.2212 34.3625C45.3212 34.3125 45.4462 34.35 45.4962 34.45C45.5135 34.4852 45.5201 34.5247 45.5151 34.5636C45.5101 34.6025 45.4938 34.639 45.4682 34.6687C45.4427 34.6985 45.4089 34.72 45.3712 34.7307C45.3334 34.7413 45.2934 34.7407 45.2561 34.7288C45.2187 34.7169 45.1857 34.6943 45.161 34.6638C45.1364 34.6333 45.1213 34.5962 45.1176 34.5572C45.1139 34.5181 45.1217 34.4789 45.1401 34.4443C45.1586 34.4097 45.1867 34.3812 45.2212 34.3625V34.3625Z" fill="#F5F5F5"/>
<path id="Vector_750" d="M50.746 37.875C49.746 37.75 48.2335 38.3 47.621 38.35C47.4335 37.7125 47.521 37.6625 46.696 37.225C46.9835 38.3 47.046 38.35 46.696 38.725C45.221 39.0875 43.696 37.1375 43.721 36.125C43.721 35.0875 44.121 35.5 44.221 34C43.471 34.25 43.621 35.1875 43.1835 35.6C42.6835 35.675 42.3585 34.9375 41.6835 34.8125C41.4585 35.275 42.371 35.75 42.6335 36.05C43.621 37.075 43.2835 39.4875 44.296 40.2375C44.246 40.7625 43.871 41.0875 43.296 41.4125C44.4585 41.775 44.921 40.95 45.3835 40.9125C46.4835 40.8875 47.671 40.9625 48.571 40C49.246 39.25 48.9835 39.1875 49.671 38.875C50.1335 38.7 51.246 37.975 50.746 37.875V37.875Z" fill="#FF9900"/>
<path id="Vector_751" fill-rule="evenodd" clip-rule="evenodd" d="M48.3961 39.775C48.3731 39.761 48.3531 39.7427 48.3372 39.721C48.3213 39.6993 48.3098 39.6747 48.3035 39.6486C48.2971 39.6225 48.2959 39.5954 48.3 39.5688C48.3041 39.5422 48.3134 39.5167 48.3273 39.4937C48.3413 39.4708 48.3596 39.4508 48.3813 39.4349C48.403 39.419 48.4276 39.4075 48.4537 39.4011C48.4798 39.3947 48.507 39.3936 48.5335 39.3977C48.5601 39.4017 48.5856 39.411 48.6086 39.425C48.655 39.4532 48.6883 39.4986 48.7012 39.5514C48.7141 39.6041 48.7055 39.6598 48.6773 39.7062C48.6492 39.7527 48.6037 39.786 48.551 39.7989C48.4982 39.8118 48.4425 39.8032 48.3961 39.775V39.775Z" fill="#F5F5F5"/>
<path id="Vector_752" d="M0.246094 0H32.2461V32H0.246094V0Z" fill="#012169"/>
<path id="Vector_753" d="M32.2461 0V4L20.3711 16L32.2461 27.6875V32H28.0586L16.1211 20.25L4.49609 32H0.246094V27.75L11.8711 16.0625L0.246094 4.625V0H4.12109L16.1211 11.75L27.7461 0H32.2461Z" fill="#F5F5F5"/>
<path id="Vector_754" d="M11.7461 20.25L12.4336 22.375L2.87109 32H0.246094V31.8125L11.7461 20.25ZM19.4961 19.5L22.8711 20L32.2461 29.1875V32L19.4961 19.5ZM32.2461 0L20.2461 12.25L19.9961 9.5L29.3711 0H32.2461ZM0.246094 0.0625L12.3086 11.875L8.62109 11.375L0.246094 3.0625V0.0625Z" fill="#C8102E"/>
<path id="Vector_755" d="M11.2461 0V32H21.2461V0H11.2461ZM0.246094 11V21H32.2461V11H0.246094Z" fill="#F5F5F5"/>
<path id="Vector_756" d="M0.246094 13V19H32.2461V13H0.246094ZM13.2461 0V32H19.2461V0H13.2461Z" fill="#C8102E"/>
</g>
</g>
<defs>
<clipPath id="clip0_2909_185463">
<path d="M0.246094 32C0.246094 14.3269 14.573 0 32.2461 0V0C49.9192 0 64.2461 14.3269 64.2461 32V32C64.2461 49.6731 49.9192 64 32.2461 64V64C14.573 64 0.246094 49.6731 0.246094 32V32Z" fill="white"/>
</clipPath>
</defs>
</svg>
