<svg width="65" height="64" viewBox="0 0 65 64" fill="none" xmlns="http://www.w3.org/2000/svg">
<g id="Rounded=Albania (AL)">
<g clip-path="url(#clip0_2909_185338)">
<path id="Vector" d="M0.246094 0H64.2461V64H0.246094V0Z" fill="#E41E20"/>
<path id="a" d="M25.8585 12.4375C25.2335 12.4375 24.2085 12.6375 24.2335 13.1125C22.4835 12.825 22.3085 13.5375 22.4085 14.175C22.5835 13.925 22.7835 13.7875 22.9335 13.7625C23.171 13.725 23.4085 13.8 23.6585 13.95C23.8925 14.102 24.103 14.2873 24.2835 14.5C23.6835 14.6375 23.2085 14.55 22.7335 14.4625C22.462 14.4073 22.2033 14.3013 21.971 14.15C21.771 14.0125 21.7085 13.8875 21.396 13.5625C21.0335 13.1875 20.646 13.3 20.771 13.875C21.046 14.4125 21.521 14.6625 22.1085 14.75C22.3835 14.8 22.8085 14.9 23.2835 14.9C23.7585 14.9 24.296 14.8375 24.596 14.9C24.421 15 24.221 15.2 23.821 15.275C23.421 15.35 22.821 15.025 22.446 14.95C22.496 15.2625 22.8835 15.55 23.6585 15.7C24.9335 15.975 25.996 16.2 26.696 16.575C27.396 16.95 27.8335 17.425 28.146 17.8C28.771 18.55 28.8085 19.1125 28.846 19.2375C28.971 20.425 28.571 21.0875 27.796 21.2875C27.421 21.3875 26.7335 21.2 26.4835 20.9125C26.2335 20.6125 25.9835 20.1125 26.0585 19.325C26.121 19.0125 26.4835 18.2 26.1835 18.0375C24.7951 17.2782 23.3588 16.6101 21.8835 16.0375C21.546 15.9 21.2585 16.35 21.1585 16.5375C20.1759 16.3986 19.2365 16.0428 18.4084 15.4958C17.5803 14.9488 16.8844 14.2243 16.371 13.375C15.796 12.3625 14.8585 13.375 15.0085 14.3375C15.271 15.4125 16.0835 16.1875 17.071 16.7375C18.071 17.3 19.3335 17.8375 20.6085 17.8125C21.296 17.9375 21.296 18.8375 20.471 19C18.846 19 17.571 18.975 16.3585 17.8C15.4335 16.9625 14.921 17.9625 15.1835 18.525C15.6335 20.275 18.1335 20.775 20.6585 20.2C21.6335 20.0375 21.046 21.075 20.771 21.1C19.721 21.85 17.8335 22.6 16.171 21.0875C15.4085 20.5 14.896 21 15.171 21.8375C15.921 24.025 18.7335 23.5625 20.671 22.4875C21.171 22.2125 21.621 22.8625 21.0085 23.35C18.6085 25.025 17.396 25.05 16.3085 24.4C14.9585 23.8625 14.8335 25.375 15.646 25.875C16.546 26.425 18.821 26 20.5085 24.95C21.221 24.425 21.2585 25.25 20.796 25.575C18.8085 27.3 18.021 27.7625 15.946 27.475C14.921 27.4 14.946 28.6625 15.746 29.1625C16.846 29.8375 19.0085 28.7125 20.6835 27.325C21.3835 26.95 21.5085 27.575 21.1585 28.3C20.4193 29.3456 19.4136 30.1742 18.246 30.7C17.4678 31.0088 16.6069 31.0397 15.8085 30.7875C15.0335 30.5125 14.9335 31.3125 15.3585 32.0375C15.6085 32.475 16.6835 32.625 17.821 32.2125C18.971 31.8125 20.196 30.8625 21.0335 29.7375C21.7835 29.1 21.6835 29.9625 21.346 30.575C19.6585 33.2375 18.1085 34.225 16.0835 34.0625C15.171 33.9125 14.971 34.6125 15.546 35.2625C16.546 36.1 17.821 36.0625 18.921 35.2375C20.2447 33.9178 21.5286 32.5589 22.771 31.1625C23.4585 30.6125 23.6835 31.1625 23.4835 32.2875C23.296 32.925 22.8335 33.6 21.571 34.1C20.696 34.6 21.346 35.275 21.996 35.2875C22.3585 35.2875 23.0835 34.875 23.621 34.25C24.3585 33.4375 24.396 32.875 24.8085 31.6125C25.1835 30.9875 25.8585 31.275 25.8585 31.925C25.5335 33.2 25.2585 33.425 24.6085 33.95C23.971 34.5375 25.0335 34.7375 25.396 34.5C26.4335 33.8 26.8085 32.9 27.1585 32.075C27.4085 31.475 28.1335 31.7625 27.796 32.7375C26.996 35.05 25.671 35.9625 23.3585 36.4375C23.121 36.475 22.9835 36.6125 23.0585 36.8875L23.996 37.825C22.5585 38.2375 21.396 38.475 19.971 38.8875L17.996 37.575C17.8085 37.15 17.721 36.4875 16.696 36.95C15.9835 36.625 15.671 36.75 15.271 37.075C15.8335 37.0875 16.0835 37.2375 16.3085 37.5C16.596 38.25 17.2585 38.325 17.9335 38.125C18.371 38.4875 18.6085 38.775 19.0585 39.15L16.8335 39.075C16.046 38.2375 15.421 38.2875 14.8585 38.95C14.421 39.0125 14.2335 39.0125 13.946 39.5375C14.4085 39.35 14.696 39.2875 14.9085 39.5C15.7335 39.9875 16.2835 39.875 16.696 39.5L19.0335 39.6375C18.746 39.8875 18.3335 40.025 18.0335 40.2875C16.821 39.9375 16.196 40.4125 15.9835 41.3875C15.8085 41.7793 15.7478 42.2127 15.8085 42.6375C15.9335 42.2375 16.121 41.9 16.471 41.6875C17.546 41.9625 17.946 41.525 18.0085 40.875C18.5335 40.45 19.321 40.3625 19.8335 39.925C20.446 40.125 20.7335 40.25 21.346 40.4375C21.5585 41.1 22.0585 41.3625 22.846 41.1875C23.8085 41.225 23.6335 41.6125 23.721 41.925C23.971 41.475 23.971 41.05 23.371 40.6375C23.1585 40.0625 22.6835 39.8 22.071 40.1375C21.4835 39.975 21.3335 39.7375 20.7585 39.5625C22.221 39.1 23.2585 39 24.7335 38.525C25.1085 38.875 25.3835 39.125 25.7585 39.425C25.9585 39.55 26.1335 39.575 26.2585 39.425C27.171 38.1 27.5835 36.925 28.4335 36.05C28.7585 35.6875 29.1835 35.2 29.6335 35.075C29.8585 35.025 30.1335 35.05 30.321 35.25C30.496 35.45 30.646 35.8 30.571 36.3375C30.496 37.1125 30.321 37.3625 30.096 37.8125C29.8835 38.275 29.6085 38.5625 29.346 38.9125C28.796 39.625 28.0835 40.0375 27.6585 40.3125C26.8085 40.8625 26.446 40.625 25.7835 40.5875C24.946 40.6875 24.721 41.1 25.4085 41.675C25.9302 41.9623 26.5341 42.0637 27.121 41.9625C27.5335 41.8875 27.996 41.3625 28.346 41.0875C28.721 40.6375 29.3585 41.1625 28.9335 41.675C28.146 42.6125 27.3585 43.225 26.396 43.2125C25.371 43.3375 25.5585 43.925 26.2335 44.2C27.4585 44.7 28.5585 43.7625 29.1085 43.1375C29.546 42.675 29.8585 42.65 29.771 43.3875C29.346 44.7 28.7585 45.2125 27.8085 45.275C27.0335 45.2125 27.021 45.8 27.596 46.2125C28.8835 47.0875 29.8085 45.5875 30.246 44.6625C30.5585 43.8375 31.0335 44.225 31.0835 44.9125C31.0835 45.825 30.6835 46.5625 29.5835 47.5C30.421 48.8375 31.396 50.2125 32.246 51.5625L34.8085 23.0375L32.246 18.5375C31.9835 18.2875 31.0835 17.225 30.846 17.075C30.7585 16.9875 30.7085 16.925 30.8335 16.875C30.9585 16.825 31.2335 16.775 31.4335 16.75C30.8835 16.2 30.4335 16.025 29.396 15.725C29.646 15.625 29.896 15.6875 30.6335 15.65C30.177 15.0293 29.5525 14.5522 28.8335 14.275C29.396 13.9 29.496 13.8625 30.0585 13.4C29.096 13.325 28.271 13.15 27.4585 12.9C26.954 12.6596 26.4135 12.5034 25.8585 12.4375V12.4375ZM25.946 13.5625C26.446 13.5625 26.771 13.7375 26.771 13.9375C26.771 14.15 26.4585 14.325 25.946 14.325C25.446 14.325 25.121 14.1375 25.121 13.925C25.121 13.7125 25.446 13.55 25.946 13.55V13.5625Z" fill="black"/>
<path id="Vector_2" d="M38.6336 12.4375C39.2586 12.4375 40.2836 12.6375 40.2586 13.1125C42.0086 12.825 42.1836 13.5375 42.0836 14.175C41.9086 13.925 41.7086 13.7875 41.5586 13.7625C41.3211 13.725 41.0836 13.8 40.8336 13.95C40.5997 14.102 40.3892 14.2873 40.2086 14.5C40.8086 14.6375 41.2836 14.55 41.7586 14.4625C42.0302 14.4073 42.2889 14.3013 42.5211 14.15C42.7211 14.0125 42.7836 13.8875 43.0961 13.5625C43.4586 13.1875 43.8461 13.3 43.7211 13.875C43.4461 14.4125 42.9711 14.6625 42.3836 14.75C42.1086 14.8 41.6836 14.9 41.2086 14.9C40.7336 14.9 40.1961 14.8375 39.8961 14.9C40.0711 15 40.2711 15.2 40.6711 15.275C41.0711 15.35 41.6711 15.025 42.0461 14.95C41.9961 15.2625 41.6086 15.55 40.8336 15.7C39.5586 15.975 38.4961 16.2 37.7961 16.575C37.0961 16.95 36.6586 17.425 36.3461 17.8C35.7211 18.55 35.6836 19.1125 35.6461 19.2375C35.5211 20.425 35.9211 21.0875 36.6961 21.2875C37.0711 21.3875 37.7586 21.2 38.0086 20.9125C38.2586 20.6125 38.5086 20.1125 38.4336 19.325C38.3711 19.0125 38.0086 18.2 38.3086 18.0375C39.697 17.2782 41.1334 16.6101 42.6086 16.0375C42.9461 15.9 43.2336 16.35 43.3336 16.5375C44.3163 16.3986 45.2557 16.0428 46.0838 15.4958C46.9119 14.9488 47.6078 14.2243 48.1211 13.375C48.6961 12.3625 49.6336 13.375 49.4836 14.3375C49.2211 15.4125 48.4086 16.1875 47.4211 16.7375C46.4211 17.3 45.1586 17.8375 43.8836 17.8125C43.1961 17.9375 43.1961 18.8375 44.0211 19C45.6461 19 46.9211 18.975 48.1336 17.8C49.0586 16.9625 49.5711 17.9625 49.3086 18.525C48.8586 20.275 46.3586 20.775 43.8336 20.2C42.8586 20.0375 43.4461 21.075 43.7211 21.1C44.7711 21.85 46.6586 22.6 48.3211 21.0875C49.0836 20.5 49.5961 21 49.3211 21.8375C48.5711 24.025 45.7586 23.5625 43.8211 22.4875C43.3211 22.2125 42.8711 22.8625 43.4836 23.35C45.8836 25.025 47.0961 25.05 48.1836 24.4C49.5336 23.8625 49.6586 25.375 48.8461 25.875C47.9461 26.425 45.6711 26 43.9836 24.95C43.2711 24.425 43.2336 25.25 43.6961 25.575C45.6836 27.3 46.4711 27.7625 48.5461 27.475C49.5711 27.4 49.5461 28.6625 48.7461 29.1625C47.6461 29.8375 45.4836 28.7125 43.8086 27.325C43.1086 26.95 42.9836 27.575 43.3336 28.3C44.0729 29.3456 45.0785 30.1742 46.2461 30.7C47.0244 31.0088 47.8853 31.0397 48.6836 30.7875C49.4586 30.5125 49.5586 31.3125 49.1336 32.0375C48.8836 32.475 47.8086 32.625 46.6711 32.2125C45.5211 31.8125 44.2961 30.8625 43.4586 29.7375C42.7086 29.1 42.8086 29.9625 43.1461 30.575C44.8336 33.2375 46.3836 34.225 48.4086 34.0625C49.3211 33.9125 49.5211 34.6125 48.9461 35.2625C47.9461 36.1 46.6711 36.0625 45.5711 35.2375C44.2475 33.9178 42.9636 32.5589 41.7211 31.1625C41.0336 30.6125 40.8086 31.1625 41.0086 32.2875C41.1961 32.925 41.6586 33.6 42.9211 34.1C43.7961 34.6 43.1461 35.275 42.4961 35.2875C42.1336 35.2875 41.4086 34.875 40.8711 34.25C40.1336 33.4375 40.0961 32.875 39.6836 31.6125C39.3086 30.9875 38.6336 31.275 38.6336 31.925C38.9586 33.2 39.2336 33.425 39.8836 33.95C40.5211 34.5375 39.4586 34.7375 39.0961 34.5C38.0586 33.8 37.6836 32.9 37.3336 32.075C37.0836 31.475 36.3586 31.7625 36.6961 32.7375C37.4961 35.05 38.8211 35.9625 41.1336 36.4375C41.3711 36.475 41.5086 36.6125 41.4336 36.8875L40.4961 37.825C41.9336 38.2375 43.0961 38.475 44.5211 38.8875L46.4961 37.575C46.6836 37.15 46.7711 36.4875 47.7961 36.95C48.5086 36.625 48.8211 36.75 49.2211 37.075C48.6586 37.0875 48.4086 37.2375 48.1836 37.5C47.8961 38.25 47.2336 38.325 46.5586 38.125C46.1211 38.4875 45.8836 38.775 45.4336 39.15L47.6586 39.075C48.4461 38.2375 49.0711 38.2875 49.6336 38.95C50.0711 39.0125 50.2586 39.0125 50.5461 39.5375C50.0836 39.35 49.7961 39.2875 49.5836 39.5C48.7586 39.9875 48.2086 39.875 47.7961 39.5L45.4586 39.6375C45.7461 39.8875 46.1586 40.025 46.4586 40.2875C47.6711 39.9375 48.2961 40.4125 48.5086 41.3875C48.6837 41.7793 48.7444 42.2127 48.6836 42.6375C48.5586 42.2375 48.3711 41.9 48.0211 41.6875C46.9461 41.9625 46.5461 41.525 46.4836 40.875C45.9586 40.45 45.1711 40.3625 44.6586 39.925C44.0461 40.125 43.7586 40.25 43.1461 40.4375C42.9336 41.1 42.4336 41.3625 41.6461 41.1875C40.6836 41.225 40.8586 41.6125 40.7711 41.925C40.5211 41.475 40.5211 41.05 41.1211 40.6375C41.3336 40.0625 41.8086 39.8 42.4211 40.1375C43.0086 39.975 43.1586 39.7375 43.7336 39.5625C42.2711 39.1 41.2336 39 39.7586 38.525C39.3836 38.875 39.1086 39.125 38.7336 39.425C38.5336 39.55 38.3586 39.575 38.2336 39.425C37.3211 38.1 36.9086 36.925 36.0586 36.05C35.7336 35.6875 35.3086 35.2 34.8586 35.075C34.6336 35.025 34.3586 35.05 34.1711 35.25C33.9961 35.45 33.8461 35.8 33.9211 36.3375C33.9961 37.1125 34.1711 37.3625 34.3961 37.8125C34.6086 38.275 34.8836 38.5625 35.1461 38.9125C35.6961 39.625 36.4086 40.0375 36.8336 40.3125C37.6836 40.8625 38.0461 40.625 38.7086 40.5875C39.5461 40.6875 39.7711 41.1 39.0836 41.675C38.562 41.9623 37.9581 42.0637 37.3711 41.9625C36.9586 41.8875 36.4961 41.3625 36.1461 41.0875C35.7711 40.6375 35.1336 41.1625 35.5586 41.675C36.3461 42.6125 37.1336 43.225 38.0961 43.2125C39.1211 43.3375 38.9336 43.925 38.2586 44.2C37.0336 44.7 35.9336 43.7625 35.3836 43.1375C34.9461 42.675 34.6336 42.65 34.7211 43.3875C35.1461 44.7 35.7336 45.2125 36.6836 45.275C37.4586 45.2125 37.4711 45.8 36.8961 46.2125C35.6086 47.0875 34.6836 45.5875 34.2461 44.6625C33.9336 43.8375 33.4586 44.225 33.4086 44.9125C33.4086 45.825 33.8086 46.5625 34.9086 47.5C34.0711 48.8375 33.0961 50.2125 32.2461 51.5625L29.6836 23.0375L32.2461 18.5375C32.5086 18.2875 33.4086 17.225 33.6461 17.075C33.7336 16.9875 33.7836 16.925 33.6586 16.875C33.5336 16.825 33.2586 16.775 33.0586 16.75C33.6086 16.2 34.0586 16.025 35.0961 15.725C34.8461 15.625 34.5961 15.6875 33.8586 15.65C34.3152 15.0293 34.9397 14.5522 35.6586 14.275C35.0961 13.9 34.9961 13.8625 34.4336 13.4C35.3961 13.325 36.2211 13.15 37.0336 12.9C37.5382 12.6596 38.0787 12.5034 38.6336 12.4375V12.4375ZM38.5461 13.5625C38.0461 13.5625 37.7211 13.7375 37.7211 13.9375C37.7211 14.15 38.0336 14.325 38.5461 14.325C39.0461 14.325 39.3711 14.1375 39.3711 13.925C39.3711 13.7125 39.0461 13.55 38.5461 13.55V13.5625Z" fill="black"/>
</g>
</g>
<defs>
<clipPath id="clip0_2909_185338">
<path d="M0.246094 32C0.246094 14.3269 14.573 0 32.2461 0V0C49.9192 0 64.2461 14.3269 64.2461 32V32C64.2461 49.6731 49.9192 64 32.2461 64V64C14.573 64 0.246094 49.6731 0.246094 32V32Z" fill="white"/>
</clipPath>
</defs>
</svg>
