<svg width="65" height="64" viewBox="0 0 65 64" fill="none" xmlns="http://www.w3.org/2000/svg">
<g id="Rounded=Argentina (AR)">
<g clip-path="url(#clip0_2909_185475)">
<path id="Vector" d="M0.246094 0H64.2461V64H0.246094V0Z" fill="#74ACDF"/>
<path id="Vector_2" d="M0.246094 21.3375H64.2461V42.6625H0.246094V21.3375Z" fill="#F5F5F5"/>
<g id="c">
<g id="a">
<path d="M31.8367 32.1664L35.4847 40.1024C35.4847 40.1024 35.5487 40.256 35.6511 40.2176C35.7535 40.1664 35.6895 40.0256 35.6895 40.0256L32.6559 31.8336L31.8367 32.1664ZM32.5663 34.9184C32.5151 36.1216 33.2575 36.7872 33.1679 37.8624C33.0655 38.9504 33.6543 39.552 33.8079 39.9744C33.9359 40.3968 33.6415 40.64 33.7695 40.704C33.8975 40.768 34.1535 40.4352 34.0767 39.8336C33.9871 39.2448 33.5391 39.0656 33.6415 37.7472C33.7439 36.4288 33.1039 36.1216 33.2575 34.9312" fill="#F6B40E"/>
<path d="M32.5663 34.9184C32.5151 36.1216 33.2575 36.7872 33.1679 37.8624C33.0655 38.9504 33.6543 39.552 33.8079 39.9744C33.9359 40.3968 33.6415 40.64 33.7695 40.704C33.8975 40.768 34.1535 40.4352 34.0767 39.8336C33.9871 39.2448 33.5391 39.0656 33.6415 37.7472C33.7439 36.4288 33.1039 36.1216 33.2575 34.9312M31.8367 32.1664L35.4847 40.1024C35.4847 40.1024 35.5487 40.256 35.6511 40.2176C35.7535 40.1664 35.6895 40.0256 35.6895 40.0256L32.6559 31.8336L31.8367 32.1664Z" stroke="#85340A" stroke-width="0.1408"/>
</g>
<g id="Vector_3">
<path d="M31.804 31.997L32.1374 40.7249C32.1374 40.7249 32.1377 40.8913 32.247 40.895C32.3612 40.8869 32.356 40.7323 32.356 40.7323L32.6882 32.003L31.804 31.997ZM31.425 34.8187C30.9172 35.9107 31.3484 36.8098 30.8541 37.7688C30.3432 38.7348 30.6569 39.516 30.6372 39.965C30.5938 40.4042 30.2288 40.5162 30.3225 40.6243C30.4163 40.7325 30.7801 40.523 30.9394 39.9378C31.082 39.3595 30.7366 39.0225 31.3358 37.8436C31.9349 36.6648 31.4612 36.136 32.0586 35.095" fill="#F6B40E"/>
<path d="M31.425 34.8187C30.9172 35.9107 31.3484 36.8098 30.8541 37.7688C30.3432 38.7348 30.6569 39.516 30.6372 39.965C30.5938 40.4042 30.2288 40.5162 30.3225 40.6243C30.4163 40.7325 30.7801 40.523 30.9394 39.9378C31.082 39.3595 30.7366 39.0225 31.3358 37.8436C31.9349 36.6648 31.4612 36.136 32.0586 35.095M31.804 31.997L32.1374 40.7249C32.1374 40.7249 32.1377 40.8913 32.247 40.895C32.3612 40.8869 32.356 40.7323 32.356 40.7323L32.6882 32.003L31.804 31.997Z" stroke="#85340A" stroke-width="0.1408"/>
</g>
<g id="Vector_4">
<path d="M31.8389 31.828L28.8068 40.0192C28.8068 40.0192 28.7435 40.173 28.843 40.2183C28.9516 40.2545 29.0059 40.1097 29.0059 40.1097L32.6535 32.172L31.8389 31.828ZM30.4088 34.2899C29.5218 35.1045 29.5762 36.1001 28.7525 36.797C27.9108 37.4939 27.9017 38.3357 27.7117 38.743C27.5035 39.1322 27.1233 39.096 27.1686 39.2317C27.2138 39.3675 27.6302 39.3132 28.0013 38.8335C28.3543 38.3538 28.1642 37.9103 29.1689 37.0504C30.1735 36.1906 29.9382 35.5208 30.8885 34.7877" fill="#F6B40E"/>
<path d="M30.4088 34.2899C29.5218 35.1045 29.5762 36.1001 28.7525 36.797C27.9108 37.4939 27.9017 38.3357 27.7117 38.743C27.5035 39.1322 27.1233 39.096 27.1686 39.2317C27.2138 39.3675 27.6302 39.3132 28.0013 38.8335C28.3543 38.3538 28.1642 37.9103 29.1689 37.0504C30.1735 36.1906 29.9382 35.5208 30.8885 34.7877M31.8389 31.828L28.8068 40.0192C28.8068 40.0192 28.7435 40.173 28.843 40.2183C28.9516 40.2545 29.0059 40.1097 29.0059 40.1097L32.6535 32.172L31.8389 31.828Z" stroke="#85340A" stroke-width="0.1408"/>
</g>
<g id="Vector_5">
<path d="M31.9357 31.6852L25.9998 38.0925C25.9998 38.0925 25.8824 38.2104 25.9571 38.2904C26.0436 38.3654 26.1491 38.2524 26.1491 38.2524L32.5567 32.3147L31.9357 31.6852ZM29.6724 33.4125C28.5412 33.8256 28.2104 34.7662 27.1827 35.0949C26.1383 35.4166 25.8079 36.1908 25.4764 36.4944C25.1351 36.7743 24.7978 36.5954 24.7876 36.7381C24.7775 36.8809 25.1829 36.99 25.7093 36.6889C26.219 36.3807 26.2131 35.8983 27.4704 35.4883C28.7276 35.0784 28.7665 34.3696 29.9251 34.0559" fill="#F6B40E"/>
<path d="M29.6724 33.4125C28.5412 33.8256 28.2104 34.7662 27.1827 35.0949C26.1383 35.4166 25.8079 36.1908 25.4764 36.4944C25.1351 36.7743 24.7978 36.5954 24.7876 36.7381C24.7775 36.8809 25.1829 36.99 25.7093 36.6889C26.219 36.3807 26.2131 35.8983 27.4704 35.4883C28.7276 35.0784 28.7665 34.3696 29.9251 34.0559M31.9357 31.6852L25.9998 38.0925C25.9998 38.0925 25.8824 38.2104 25.9571 38.2904C26.0436 38.3654 26.1491 38.2524 26.1491 38.2524L32.5567 32.3147L31.9357 31.6852Z" stroke="#85340A" stroke-width="0.1408"/>
</g>
<path id="b" d="M32.7967 35.1232C32.8607 36.2752 33.5135 36.7872 33.3855 37.8496C33.6671 37.0176 32.9887 36.3648 33.0271 35.136L32.7967 35.1232ZM32.0415 32.0896L34.5375 37.5424L32.4511 31.9232" fill="#85340A"/>
<path id="Vector_6" d="M31.5596 35.0961C31.1778 36.1849 31.585 36.9077 31.0602 37.8403C31.6387 37.1794 31.2618 36.3167 31.7675 35.1961L31.5596 35.0961ZM32.0227 32.0044L32.2421 37.9973L32.4648 32.0074" fill="#85340A"/>
<path id="Vector_7" d="M30.427 34.5976C29.6577 35.4575 29.7573 36.2811 28.9155 36.9418C29.7029 36.5526 29.6848 35.6113 30.5809 34.7696L30.427 34.5976ZM32.0381 31.9185L29.9473 37.5392L32.4454 32.0905" fill="#85340A"/>
<path id="Vector_8" d="M29.5714 33.7037C28.5315 34.2037 28.3083 35.0027 27.2778 35.291C28.1542 35.2328 28.4977 34.3562 29.6477 33.9215L29.5714 33.7037ZM32.085 31.8451L28.0025 36.2378L32.3955 32.1598" fill="#85340A"/>
</g>
<g id="Group">
<g id="a_2">
<path d="M32.0798 31.5904L24.1438 35.2384C24.1438 35.2384 23.9902 35.3024 24.0286 35.4048C24.0798 35.5072 24.2206 35.4432 24.2206 35.4432L32.4126 32.4096L32.0798 31.5904ZM29.3278 32.32C28.1246 32.2688 27.459 33.0112 26.3838 32.9216C25.2958 32.8192 24.6942 33.408 24.2718 33.5616C23.8494 33.6896 23.6062 33.3952 23.5422 33.5232C23.4782 33.6512 23.811 33.9072 24.4126 33.8304C25.0014 33.7408 25.1806 33.2928 26.499 33.3952C27.8174 33.4976 28.1246 32.8576 29.315 33.0112" fill="#F6B40E"/>
<path d="M29.3278 32.32C28.1246 32.2688 27.459 33.0112 26.3838 32.9216C25.2958 32.8192 24.6942 33.408 24.2718 33.5616C23.8494 33.6896 23.6062 33.3952 23.5422 33.5232C23.4782 33.6512 23.811 33.9072 24.4126 33.8304C25.0014 33.7408 25.1806 33.2928 26.499 33.3952C27.8174 33.4976 28.1246 32.8576 29.315 33.0112M32.0798 31.5904L24.1438 35.2384C24.1438 35.2384 23.9902 35.3024 24.0286 35.4048C24.0798 35.5072 24.2206 35.4432 24.2206 35.4432L32.4126 32.4096L32.0798 31.5904Z" stroke="#85340A" stroke-width="0.1408"/>
</g>
<g id="Vector_9">
<path d="M32.2492 31.5579L23.5212 31.8912C23.5212 31.8912 23.3548 31.8916 23.3511 32.0009C23.3592 32.1151 23.5138 32.1098 23.5138 32.1098L32.2431 32.4421L32.2492 31.5579ZM29.4275 31.1788C28.3354 30.6711 27.4364 31.1022 26.4773 30.608C25.5113 30.097 24.7302 30.4108 24.2812 30.391C23.8419 30.3477 23.7299 29.9826 23.6218 30.0764C23.5137 30.1701 23.7232 30.534 24.3084 30.6933C24.8867 30.8358 25.2237 30.4905 26.4025 31.0896C27.5814 31.6888 28.1101 31.215 29.1511 31.8125" fill="#F6B40E"/>
<path d="M29.4275 31.1788C28.3354 30.6711 27.4364 31.1022 26.4773 30.608C25.5113 30.097 24.7302 30.4108 24.2812 30.391C23.8419 30.3477 23.7299 29.9826 23.6218 30.0764C23.5137 30.1701 23.7232 30.534 24.3084 30.6933C24.8867 30.8358 25.2237 30.4905 26.4025 31.0896C27.5814 31.6888 28.1101 31.215 29.1511 31.8125M32.2492 31.5579L23.5212 31.8912C23.5212 31.8912 23.3548 31.8916 23.3511 32.0009C23.3592 32.1151 23.5138 32.1098 23.5138 32.1098L32.2431 32.4421L32.2492 31.5579Z" stroke="#85340A" stroke-width="0.1408"/>
</g>
<g id="Vector_10">
<path d="M32.418 31.5927L24.2269 28.5606C24.2269 28.5606 24.073 28.4973 24.0277 28.5968C23.9915 28.7055 24.1364 28.7598 24.1364 28.7598L32.0741 32.4073L32.418 31.5927ZM29.9561 30.1627C29.1415 29.2757 28.1459 29.33 27.449 28.5063C26.7521 27.6646 25.9103 27.6555 25.5031 27.4655C25.1139 27.2573 25.1501 26.8772 25.0143 26.9224C24.8785 26.9677 24.9328 27.384 25.4125 27.7551C25.8922 28.1081 26.3357 27.918 27.1956 28.9227C28.0554 29.9273 28.7252 29.692 29.4583 30.6424" fill="#F6B40E"/>
<path d="M29.9561 30.1627C29.1415 29.2757 28.1459 29.33 27.449 28.5063C26.7521 27.6646 25.9103 27.6555 25.5031 27.4655C25.1139 27.2573 25.1501 26.8772 25.0143 26.9224C24.8785 26.9677 24.9328 27.384 25.4125 27.7551C25.8922 28.1081 26.3357 27.918 27.1956 28.9227C28.0554 29.9273 28.7252 29.692 29.4583 30.6424M32.418 31.5927L24.2269 28.5606C24.2269 28.5606 24.073 28.4973 24.0277 28.5968C23.9915 28.7055 24.1364 28.7598 24.1364 28.7598L32.0741 32.4073L32.418 31.5927Z" stroke="#85340A" stroke-width="0.1408"/>
</g>
<g id="Vector_11">
<path d="M32.5609 31.6895L26.1536 25.7536C26.1536 25.7536 26.0357 25.6362 25.9558 25.7109C25.8808 25.7974 25.9938 25.903 25.9938 25.903L31.9314 32.3105L32.5609 31.6895ZM30.8337 29.4262C30.4205 28.295 29.4799 27.9642 29.1512 26.9365C28.8295 25.8922 28.0553 25.5617 27.7517 25.2302C27.4718 24.8889 27.6508 24.5516 27.508 24.5414C27.3653 24.5313 27.2561 24.9367 27.5573 25.4632C27.8654 25.9728 28.3479 25.967 28.7578 27.2242C29.1677 28.4814 29.8765 28.5203 30.1902 29.6789" fill="#F6B40E"/>
<path d="M30.8337 29.4262C30.4205 28.295 29.4799 27.9642 29.1512 26.9365C28.8295 25.8922 28.0553 25.5617 27.7517 25.2302C27.4718 24.8889 27.6508 24.5516 27.508 24.5414C27.3653 24.5313 27.2561 24.9367 27.5573 25.4632C27.8654 25.9728 28.3479 25.967 28.7578 27.2242C29.1677 28.4814 29.8765 28.5203 30.1902 29.6789M32.5609 31.6895L26.1536 25.7536C26.1536 25.7536 26.0357 25.6362 25.9558 25.7109C25.8808 25.7974 25.9938 25.903 25.9938 25.903L31.9314 32.3105L32.5609 31.6895Z" stroke="#85340A" stroke-width="0.1408"/>
</g>
<path id="b_2" d="M29.123 32.5504C27.971 32.6144 27.459 33.2672 26.3966 33.1392C27.2286 33.4208 27.8814 32.7424 29.1102 32.7808L29.123 32.5504ZM32.1566 31.7952L26.7038 34.2912L32.323 32.2048" fill="#85340A"/>
<path id="Vector_12" d="M29.1501 31.3133C28.0613 30.9316 27.3384 31.3388 26.4059 30.8139C27.0668 31.3925 27.9295 31.0156 29.0501 31.5213L29.1501 31.3133ZM32.2418 31.7765L26.2489 31.9958L32.2388 32.2186" fill="#85340A"/>
<path id="Vector_13" d="M29.6486 30.1807C28.7887 29.4114 27.9651 29.511 27.3044 28.6692C27.6936 29.4567 28.6349 29.4386 29.4766 30.3346L29.6486 30.1807ZM32.3276 31.7918L26.707 29.701L32.1557 32.1991" fill="#85340A"/>
<path id="Vector_14" d="M30.5425 29.3252C30.0426 28.2854 29.2435 28.0621 28.9552 27.0316C29.0134 27.9081 29.89 28.2516 30.3248 29.4015L30.5425 29.3252ZM32.4012 31.8389L28.0085 27.7563L32.0864 32.1493" fill="#85340A"/>
</g>
<g id="Group_2">
<g id="a_3">
<path d="M32.6555 31.8336L29.0075 23.8976C29.0075 23.8976 28.9435 23.744 28.8411 23.7824C28.7387 23.8336 28.8027 23.9744 28.8027 23.9744L31.8363 32.1664L32.6555 31.8336ZM31.9259 29.0816C31.9771 27.8784 31.2347 27.2128 31.3243 26.1376C31.4267 25.0496 30.8379 24.448 30.6843 24.0256C30.5563 23.6032 30.8507 23.36 30.7227 23.296C30.5947 23.232 30.3387 23.5648 30.4155 24.1664C30.5051 24.7552 30.9531 24.9344 30.8507 26.2528C30.7483 27.5712 31.3883 27.8784 31.2347 29.0688" fill="#F6B40E"/>
<path d="M31.9259 29.0816C31.9771 27.8784 31.2347 27.2128 31.3243 26.1376C31.4267 25.0496 30.8379 24.448 30.6843 24.0256C30.5563 23.6032 30.8507 23.36 30.7227 23.296C30.5947 23.232 30.3387 23.5648 30.4155 24.1664C30.5051 24.7552 30.9531 24.9344 30.8507 26.2528C30.7483 27.5712 31.3883 27.8784 31.2347 29.0688M32.6555 31.8336L29.0075 23.8976C29.0075 23.8976 28.9435 23.744 28.8411 23.7824C28.7387 23.8336 28.8027 23.9744 28.8027 23.9744L31.8363 32.1664L32.6555 31.8336Z" stroke="#85340A" stroke-width="0.1408"/>
</g>
<g id="Vector_15">
<path d="M32.6881 32.003L32.3548 23.2751C32.3548 23.2751 32.3545 23.1087 32.2452 23.105C32.131 23.1131 32.1362 23.2677 32.1362 23.2677L31.8039 31.997L32.6881 32.003ZM33.0672 29.1813C33.575 28.0893 33.1438 27.1902 33.638 26.2312C34.149 25.2652 33.8352 24.484 33.855 24.035C33.8984 23.5958 34.2634 23.4838 34.1697 23.3757C34.0759 23.2675 33.712 23.477 33.5528 24.0622C33.4102 24.6405 33.7555 24.9775 33.1564 26.1564C32.5573 27.3352 33.031 27.864 32.4335 28.905" fill="#F6B40E"/>
<path d="M33.0672 29.1813C33.575 28.0893 33.1438 27.1902 33.638 26.2312C34.149 25.2652 33.8352 24.484 33.855 24.035C33.8984 23.5958 34.2634 23.4838 34.1697 23.3757C34.0759 23.2675 33.712 23.477 33.5528 24.0622C33.4102 24.6405 33.7555 24.9775 33.1564 26.1564C32.5573 27.3352 33.031 27.864 32.4335 28.905M32.6881 32.003L32.3548 23.2751C32.3548 23.2751 32.3545 23.1087 32.2452 23.105C32.131 23.1131 32.1362 23.2677 32.1362 23.2677L31.8039 31.997L32.6881 32.003Z" stroke="#85340A" stroke-width="0.1408"/>
</g>
<g id="Vector_16">
<path d="M32.6533 32.172L35.6854 23.9808C35.6854 23.9808 35.7487 23.827 35.6492 23.7817C35.5406 23.7455 35.4862 23.8903 35.4862 23.8903L31.8387 31.828L32.6533 32.172ZM34.0833 29.7101C34.9703 28.8955 34.916 27.8999 35.7397 27.203C36.5814 26.5061 36.5905 25.6643 36.7805 25.257C36.9887 24.8678 37.3688 24.904 37.3236 24.7683C37.2783 24.6325 36.862 24.6868 36.4909 25.1665C36.1379 25.6462 36.328 26.0897 35.3233 26.9496C34.3187 27.8094 34.554 28.4792 33.6036 29.2123" fill="#F6B40E"/>
<path d="M34.0833 29.7101C34.9703 28.8955 34.916 27.8999 35.7397 27.203C36.5814 26.5061 36.5905 25.6643 36.7805 25.257C36.9887 24.8678 37.3688 24.904 37.3236 24.7683C37.2783 24.6325 36.862 24.6868 36.4909 25.1665C36.1379 25.6462 36.328 26.0897 35.3233 26.9496C34.3187 27.8094 34.554 28.4792 33.6036 29.2123M32.6533 32.172L35.6854 23.9808C35.6854 23.9808 35.7487 23.827 35.6492 23.7817C35.5406 23.7455 35.4862 23.8903 35.4862 23.8903L31.8387 31.828L32.6533 32.172Z" stroke="#85340A" stroke-width="0.1408"/>
</g>
<g id="Vector_17">
<path d="M32.5565 32.3148L38.4924 25.9075C38.4924 25.9075 38.6098 25.7896 38.5351 25.7096C38.4486 25.6346 38.343 25.7476 38.343 25.7476L31.9355 31.6853L32.5565 32.3148ZM34.8198 30.5875C35.951 30.1744 36.2818 29.2338 37.3095 28.9051C38.3538 28.5834 38.6843 27.8092 39.0158 27.5056C39.3571 27.2257 39.6944 27.4046 39.7046 27.2619C39.7147 27.1191 39.3093 27.01 38.7829 27.3111C38.2732 27.6193 38.279 28.1017 37.0218 28.5117C35.7646 28.9216 35.7257 29.6304 34.5671 29.9441" fill="#F6B40E"/>
<path d="M34.8198 30.5875C35.951 30.1744 36.2818 29.2338 37.3095 28.9051C38.3538 28.5834 38.6843 27.8092 39.0158 27.5056C39.3571 27.2257 39.6944 27.4046 39.7046 27.2619C39.7147 27.1191 39.3093 27.01 38.7829 27.3111C38.2732 27.6193 38.279 28.1017 37.0218 28.5117C35.7646 28.9216 35.7257 29.6304 34.5671 29.9441M32.5565 32.3148L38.4924 25.9075C38.4924 25.9075 38.6098 25.7896 38.5351 25.7096C38.4486 25.6346 38.343 25.7476 38.343 25.7476L31.9355 31.6853L32.5565 32.3148Z" stroke="#85340A" stroke-width="0.1408"/>
</g>
<path id="b_3" d="M31.6955 28.8768C31.6315 27.7248 30.9787 27.2128 31.1067 26.1504C30.8251 26.9824 31.5035 27.6352 31.4651 28.864L31.6955 28.8768ZM32.4507 31.9104L29.9547 26.4576L32.0411 32.0768" fill="#85340A"/>
<path id="Vector_18" d="M32.9326 28.9039C33.3144 27.8151 32.9072 27.0923 33.432 26.1597C32.8534 26.8206 33.2304 27.6833 32.7247 28.8039L32.9326 28.9039ZM32.4694 31.9956L32.2501 26.0027L32.0273 31.9926" fill="#85340A"/>
<path id="Vector_19" d="M34.0652 29.4024C34.8345 28.5425 34.7349 27.7189 35.5767 27.0582C34.7892 27.4474 34.8073 28.3887 33.9113 29.2304L34.0652 29.4024ZM32.4541 32.0815L34.5449 26.4608L32.0468 31.9095" fill="#85340A"/>
<path id="Vector_20" d="M34.9208 30.2963C35.9606 29.7963 36.1839 28.9973 37.2144 28.709C36.3379 28.7672 35.9944 29.6438 34.8445 30.0785L34.9208 30.2963ZM32.4072 32.1549L36.4897 27.7622L32.0967 31.8402" fill="#85340A"/>
</g>
<g id="Group_3">
<g id="a_4">
<path d="M32.4124 32.4096L40.3484 28.7616C40.3484 28.7616 40.502 28.6976 40.4636 28.5952C40.4124 28.4928 40.2716 28.5568 40.2716 28.5568L32.0796 31.5904L32.4124 32.4096ZM35.1644 31.68C36.3676 31.7312 37.0332 30.9888 38.1084 31.0784C39.1964 31.1808 39.798 30.592 40.2204 30.4384C40.6428 30.3104 40.886 30.6048 40.95 30.4768C41.014 30.3488 40.6812 30.0928 40.0796 30.1696C39.4908 30.2592 39.3116 30.7072 37.9932 30.6048C36.6748 30.5024 36.3676 31.1424 35.1772 30.9888" fill="#F6B40E"/>
<path d="M35.1644 31.68C36.3676 31.7312 37.0332 30.9888 38.1084 31.0784C39.1964 31.1808 39.798 30.592 40.2204 30.4384C40.6428 30.3104 40.886 30.6048 40.95 30.4768C41.014 30.3488 40.6812 30.0928 40.0796 30.1696C39.4908 30.2592 39.3116 30.7072 37.9932 30.6048C36.6748 30.5024 36.3676 31.1424 35.1772 30.9888M32.4124 32.4096L40.3484 28.7616C40.3484 28.7616 40.502 28.6976 40.4636 28.5952C40.4124 28.4928 40.2716 28.5568 40.2716 28.5568L32.0796 31.5904L32.4124 32.4096Z" stroke="#85340A" stroke-width="0.1408"/>
</g>
<g id="Vector_21">
<path d="M32.243 32.4421L40.971 32.1088C40.971 32.1088 41.1374 32.1084 41.1411 31.9991C41.1329 31.8849 40.9784 31.8902 40.9784 31.8902L32.249 31.5579L32.243 32.4421ZM35.0647 32.8212C36.1568 33.3289 37.0558 32.8978 38.0149 33.392C38.9809 33.903 39.762 33.5892 40.211 33.609C40.6502 33.6523 40.7623 34.0174 40.8704 33.9236C40.9785 33.8299 40.769 33.466 40.1838 33.3067C39.6055 33.1642 39.2685 33.5095 38.0897 32.9104C36.9108 32.3112 36.3821 32.785 35.3411 32.1875" fill="#F6B40E"/>
<path d="M35.0647 32.8212C36.1568 33.3289 37.0558 32.8978 38.0149 33.392C38.9809 33.903 39.762 33.5892 40.211 33.609C40.6502 33.6523 40.7623 34.0174 40.8704 33.9236C40.9785 33.8299 40.769 33.466 40.1838 33.3067C39.6055 33.1642 39.2685 33.5095 38.0897 32.9104C36.9108 32.3112 36.3821 32.785 35.3411 32.1875M32.243 32.4421L40.971 32.1088C40.971 32.1088 41.1374 32.1084 41.1411 31.9991C41.1329 31.8849 40.9784 31.8902 40.9784 31.8902L32.249 31.5579L32.243 32.4421Z" stroke="#85340A" stroke-width="0.1408"/>
</g>
<g id="Vector_22">
<path d="M32.0742 32.4073L40.2653 35.4394C40.2653 35.4394 40.4192 35.5027 40.4644 35.4032C40.5006 35.2945 40.3558 35.2402 40.3558 35.2402L32.4181 31.5927L32.0742 32.4073ZM34.5361 33.8373C35.3506 34.7243 36.3463 34.67 37.0432 35.4937C37.7401 36.3354 38.5818 36.3445 38.9891 36.5345C39.3783 36.7427 39.3421 37.1228 39.4779 37.0776C39.6136 37.0323 39.5593 36.616 39.0796 36.2449C38.5999 35.8919 38.1564 36.082 37.2966 35.0773C36.4368 34.0727 35.767 34.308 35.0339 33.3576" fill="#F6B40E"/>
<path d="M34.5361 33.8373C35.3506 34.7243 36.3463 34.67 37.0432 35.4937C37.7401 36.3354 38.5818 36.3445 38.9891 36.5345C39.3783 36.7427 39.3421 37.1228 39.4779 37.0776C39.6136 37.0323 39.5593 36.616 39.0796 36.2449C38.5999 35.8919 38.1564 36.082 37.2966 35.0773C36.4368 34.0727 35.767 34.308 35.0339 33.3576M32.0742 32.4073L40.2653 35.4394C40.2653 35.4394 40.4192 35.5027 40.4644 35.4032C40.5006 35.2945 40.3558 35.2402 40.3558 35.2402L32.4181 31.5927L32.0742 32.4073Z" stroke="#85340A" stroke-width="0.1408"/>
</g>
<g id="Vector_23">
<path d="M31.9313 32.3105L38.3386 38.2464C38.3386 38.2464 38.4565 38.3638 38.5364 38.2891C38.6114 38.2026 38.4984 38.097 38.4984 38.097L32.5608 31.6895L31.9313 32.3105ZM33.6585 34.5738C34.0717 35.705 35.0123 36.0358 35.3409 37.0635C35.6627 38.1078 36.4369 38.4383 36.7405 38.7698C37.0204 39.1111 36.8414 39.4484 36.9842 39.4586C37.1269 39.4687 37.2361 39.0633 36.9349 38.5368C36.6268 38.0272 36.1443 38.033 35.7344 36.7758C35.3245 35.5186 34.6156 35.4797 34.302 34.3211" fill="#F6B40E"/>
<path d="M33.6585 34.5738C34.0717 35.705 35.0123 36.0358 35.3409 37.0635C35.6627 38.1078 36.4369 38.4383 36.7405 38.7698C37.0204 39.1111 36.8414 39.4484 36.9842 39.4586C37.1269 39.4687 37.2361 39.0633 36.9349 38.5368C36.6268 38.0272 36.1443 38.033 35.7344 36.7758C35.3245 35.5186 34.6156 35.4797 34.302 34.3211M31.9313 32.3105L38.3386 38.2464C38.3386 38.2464 38.4565 38.3638 38.5364 38.2891C38.6114 38.2026 38.4984 38.097 38.4984 38.097L32.5608 31.6895L31.9313 32.3105Z" stroke="#85340A" stroke-width="0.1408"/>
</g>
<path id="b_4" d="M35.3692 31.4496C36.5212 31.3856 37.0332 30.7328 38.0956 30.8608C37.2636 30.5792 36.6108 31.2576 35.382 31.2192L35.3692 31.4496ZM32.3356 32.2048L37.7884 29.7088L32.1692 31.7952" fill="#85340A"/>
<path id="Vector_24" d="M35.3421 32.6867C36.4309 33.0684 37.1537 32.6612 38.0863 33.1861C37.4254 32.6075 36.5627 32.9844 35.4421 32.4787L35.3421 32.6867ZM32.2504 32.2235L38.2433 32.0042L32.2534 31.7814" fill="#85340A"/>
<path id="Vector_25" d="M34.8436 33.8193C35.7035 34.5886 36.5271 34.489 37.1878 35.3308C36.7986 34.5433 35.8573 34.5614 35.0156 33.6654L34.8436 33.8193ZM32.1645 32.2082L37.7852 34.299L32.3365 31.8009" fill="#85340A"/>
<path id="Vector_26" d="M33.9496 34.6748C34.4496 35.7146 35.2487 35.9379 35.537 36.9684C35.4787 36.0919 34.6022 35.7484 34.1674 34.5985L33.9496 34.6748ZM32.091 32.1611L36.4837 36.2437L32.4058 31.8507" fill="#85340A"/>
</g>
<path id="Vector_27" d="M32.246 35.55C34.2067 35.55 35.796 33.9606 35.796 32C35.796 30.0394 34.2067 28.45 32.246 28.45C30.2854 28.45 28.696 30.0394 28.696 32C28.696 33.9606 30.2854 35.55 32.246 35.55Z" fill="#F6B40E" stroke="#85340A" stroke-width="0.1875"/>
<path id="h" d="M33.4587 31.25C33.2087 31.25 32.9837 31.35 32.8462 31.5625C33.1212 31.8125 33.7212 31.8375 34.1337 31.5375C34.0474 31.4444 33.943 31.3698 33.827 31.3182C33.711 31.2666 33.5857 31.2392 33.4587 31.2375V31.25ZM33.4587 31.3C33.6962 31.3 33.9087 31.4 33.9462 31.5125C33.6712 31.8125 33.2337 31.7875 32.9587 31.5625C33.0124 31.4794 33.0867 31.4116 33.1742 31.3656C33.2618 31.3196 33.3598 31.297 33.4587 31.3Z" fill="#843511"/>
<path id="Vector_28" d="M33.5086 31.075C33.1586 31.075 33.0711 31.15 32.9086 31.2875C32.7461 31.425 32.6586 31.4 32.6336 31.425C32.6086 31.45 32.6336 31.5375 32.6961 31.5125C32.7461 31.475 32.8461 31.425 33.0211 31.2875C33.1836 31.1625 33.3461 31.1625 33.5211 31.1625C33.9961 31.1625 34.2711 31.5625 34.3336 31.5375C34.3836 31.5125 34.0586 31.075 33.5086 31.075V31.075Z" fill="#85340A"/>
<path id="Vector_29" d="M34.4961 31.2375C33.8711 30.6875 33.0711 30.6125 32.6336 31.0125C32.5312 31.1487 32.4627 31.3072 32.4336 31.475C32.3711 31.7875 32.4711 32.125 32.7211 32.475C32.6836 32.475 32.6336 32.4875 32.5961 32.525C32.3961 32.1 32.3086 31.675 32.3836 31.275C32.4032 31.1684 32.4324 31.0638 32.4711 30.9625C33.0711 30.4625 33.8961 30.4125 34.4961 31.2375V31.2375Z" fill="#85340A"/>
<path id="Vector_30" d="M33.446 31.7625C33.5841 31.7625 33.696 31.6506 33.696 31.5125C33.696 31.3744 33.5841 31.2625 33.446 31.2625C33.308 31.2625 33.196 31.3744 33.196 31.5125C33.196 31.6506 33.308 31.7625 33.446 31.7625Z" fill="#85340A"/>
<path id="Vector_31" d="M34.1586 31.675C33.6961 32.025 33.2336 32 32.9586 31.8375C32.6836 31.675 32.6836 31.6125 32.7461 31.6125C32.7961 31.6125 32.8586 31.675 33.0711 31.775C33.2961 31.9 33.6211 31.9 34.1711 31.675H34.1586Z" fill="#85340A"/>
<path id="Vector_32" d="M31.7085 32.5C31.6666 32.5059 31.6269 32.5223 31.5932 32.5477C31.5594 32.5731 31.5326 32.6067 31.5153 32.6453C31.498 32.6839 31.4908 32.7262 31.4943 32.7683C31.4978 32.8105 31.512 32.851 31.5354 32.8862C31.5589 32.9214 31.5909 32.95 31.6284 32.9695C31.6659 32.989 31.7078 32.9986 31.7501 32.9974C31.7923 32.9963 31.8336 32.9845 31.8701 32.9631C31.9065 32.9417 31.9369 32.9114 31.9585 32.875C32.046 32.95 32.171 32.95 32.246 32.95H32.2835C32.3846 32.9532 32.4844 32.9272 32.571 32.875C32.5926 32.9114 32.623 32.9417 32.6594 32.9631C32.6959 32.9845 32.7372 32.9963 32.7794 32.9974C32.8217 32.9986 32.8636 32.989 32.9011 32.9695C32.9386 32.95 32.9706 32.9214 32.9941 32.8862C33.0175 32.851 33.0317 32.8105 33.0352 32.7683C33.0387 32.7262 33.0315 32.6839 33.0142 32.6453C32.9969 32.6067 32.9701 32.5731 32.9363 32.5477C32.9025 32.5223 32.8629 32.5059 32.821 32.5C32.8835 32.5125 32.9335 32.575 32.9335 32.65C32.9335 32.6931 32.9164 32.7344 32.8859 32.7649C32.8554 32.7954 32.8141 32.8125 32.771 32.8125C32.7279 32.8125 32.6866 32.7954 32.6561 32.7649C32.6256 32.7344 32.6085 32.6931 32.6085 32.65C32.5753 32.7151 32.5254 32.7703 32.4639 32.8099C32.4024 32.8494 32.3315 32.8719 32.2585 32.875C32.1876 32.8697 32.1193 32.8463 32.0602 32.8068C32.001 32.7674 31.9531 32.7134 31.921 32.65C31.921 32.6931 31.9039 32.7344 31.8734 32.7649C31.8429 32.7954 31.8016 32.8125 31.7585 32.8125C31.7154 32.8125 31.6741 32.7954 31.6436 32.7649C31.6131 32.7344 31.596 32.6931 31.596 32.65C31.596 32.575 31.6335 32.525 31.696 32.4875L31.7085 32.5ZM31.9585 33.225C31.696 33.225 31.5835 33.475 31.3335 33.6375C31.4835 33.575 31.5835 33.475 31.7835 33.3625C31.971 33.25 32.1335 33.3875 32.246 33.3875C32.3585 33.3875 32.521 33.25 32.7085 33.3625C32.896 33.475 33.0085 33.575 33.146 33.6375C32.896 33.4625 32.796 33.225 32.521 33.225C32.4254 33.2322 32.332 33.2576 32.246 33.3C32.1602 33.257 32.0667 33.2315 31.971 33.225H31.9585Z" fill="#85340A"/>
<path id="Vector_33" d="M31.8711 33.55C31.7181 33.5607 31.567 33.59 31.4211 33.6375C31.9211 33.5125 32.0211 33.6875 32.2461 33.6875C32.4711 33.6875 32.5711 33.525 33.0711 33.625C32.5211 33.475 32.4086 33.575 32.2461 33.575C32.1336 33.575 32.0586 33.5375 31.8711 33.5375V33.55Z" fill="#85340A"/>
<path id="Vector_34" d="M31.4462 33.625H31.3462C31.9212 33.6875 31.6337 34.0125 32.2462 34.0125C32.8462 34.0125 32.5712 33.6875 33.1462 33.6375C32.5462 33.575 32.7337 33.9375 32.2462 33.9375C31.7837 33.9375 31.9212 33.625 31.4462 33.625ZM32.7337 34.5125C32.7337 34.382 32.6828 34.2567 32.5917 34.1633C32.5006 34.0699 32.3766 34.0158 32.2462 34.0125C32.1136 34.0125 31.9864 34.0652 31.8926 34.1589C31.7989 34.2527 31.7462 34.3799 31.7462 34.5125C31.7745 34.4025 31.8395 34.3054 31.9304 34.2373C32.0213 34.1691 32.1326 34.1339 32.2462 34.1375C32.3597 34.1339 32.4711 34.1691 32.562 34.2373C32.6529 34.3054 32.7178 34.4025 32.7462 34.5125H32.7337Z" fill="#85340A"/>
<path id="e" d="M30.0337 31.2375C30.6587 30.6875 31.4587 30.6125 31.8962 31.0125C31.9986 31.1487 32.0671 31.3072 32.0962 31.475C32.1587 31.7875 32.0587 32.125 31.8087 32.475C31.8462 32.475 31.8962 32.4875 31.9337 32.525C32.1337 32.1 32.2212 31.675 32.1462 31.275C32.1266 31.1684 32.0973 31.0638 32.0587 30.9625C31.4587 30.4625 30.6337 30.4125 30.0337 31.2375V31.2375Z" fill="#85340A"/>
<path id="d" d="M31.0212 31.075C31.3712 31.075 31.4587 31.15 31.6212 31.2875C31.7837 31.425 31.8712 31.4 31.8962 31.425C31.9212 31.45 31.8962 31.5375 31.8337 31.5125C31.7837 31.475 31.6837 31.425 31.5087 31.2875C31.3462 31.1625 31.1837 31.1625 31.0087 31.1625C30.5337 31.1625 30.2587 31.5625 30.1962 31.5375C30.1462 31.5125 30.4712 31.075 31.0212 31.075V31.075Z" fill="#85340A"/>
<path id="Vector_35" d="M31.0085 31.25C30.7585 31.25 30.5335 31.35 30.396 31.5625C30.671 31.8125 31.271 31.8375 31.6835 31.5375C31.5972 31.4444 31.4928 31.3698 31.3768 31.3182C31.2608 31.2666 31.1355 31.2392 31.0085 31.2375V31.25ZM31.0085 31.3C31.246 31.3 31.4585 31.4 31.496 31.5125C31.221 31.8125 30.7835 31.7875 30.5085 31.5625C30.5622 31.4794 30.6365 31.4116 30.7241 31.3656C30.8116 31.3196 30.9096 31.297 31.0085 31.3Z" fill="#843511"/>
<path id="f" d="M31.0337 31.7625C31.1718 31.7625 31.2837 31.6506 31.2837 31.5125C31.2837 31.3744 31.1718 31.2625 31.0337 31.2625C30.8956 31.2625 30.7837 31.3744 30.7837 31.5125C30.7837 31.6506 30.8956 31.7625 31.0337 31.7625Z" fill="#85340A"/>
<path id="g" d="M30.3711 31.675C30.8336 32.025 31.2961 32 31.5711 31.8375C31.8461 31.675 31.8461 31.6125 31.7836 31.6125C31.7336 31.6125 31.6711 31.675 31.4586 31.775C31.2336 31.9 30.9086 31.9 30.3586 31.675H30.3711Z" fill="#85340A"/>
</g>
</g>
<defs>
<clipPath id="clip0_2909_185475">
<path d="M0.246094 32C0.246094 14.3269 14.573 0 32.2461 0V0C49.9192 0 64.2461 14.3269 64.2461 32V32C64.2461 49.6731 49.9192 64 32.2461 64V64C14.573 64 0.246094 49.6731 0.246094 32V32Z" fill="white"/>
</clipPath>
</defs>
</svg>
