<svg width="65" height="64" viewBox="0 0 65 64" fill="none" xmlns="http://www.w3.org/2000/svg">
<g id="Rounded=Aruba (AW)">
<g clip-path="url(#clip0_2909_185443)">
<g id="Group">
<path id="Vector" d="M0.246094 0V64H96.2461V0H0.246094Z" fill="#3399CC"/>
<path id="Vector_2" d="M0.246094 42.6625V46.225H96.2461V42.6625H0.246094ZM0.246094 49.7875V53.3375H96.2461V49.775H0.246094V49.7875Z" fill="#FFFF00"/>
<path id="Vector_3" d="M15.496 3.5L15.796 3.8125L15.5085 3.5125L15.496 3.5ZM15.2085 4.1L15.5085 4.4L15.2085 4.1ZM15.796 4.1L16.096 4.4L15.8085 4.1H15.796Z" fill="#99CCCC"/>
<path id="Vector_4" d="M15.2085 4.39999L15.5085 4.69999L15.2085 4.39999ZM15.796 4.39999L16.096 4.69999L15.8085 4.39999H15.796Z" fill="#CCCCFF"/>
<path id="Vector_5" d="M14.9087 5L15.2087 5.2875L14.9087 5Z" fill="#66CCCC"/>
<path id="Vector_6" d="M15.4961 5L15.7961 5.2875L15.5086 5H15.4961Z" fill="#CC6666"/>
<path id="Vector_7" d="M16.0962 5L16.3962 5.2875L16.0962 5V5Z" fill="#66CCCC"/>
<path id="Vector_8" d="M14.9087 5.29999L15.2087 5.58749L14.9087 5.29999ZM16.0962 5.29999L16.3962 5.58749L16.0962 5.29999V5.29999Z" fill="#CCCCFF"/>
<path id="Vector_9" d="M15.2085 5.58749L15.5085 5.88749L15.2085 5.58749ZM15.796 5.58749L16.096 5.88749L15.8085 5.58749H15.796Z" fill="#FFCCCC"/>
<path id="Vector_10" d="M14.6211 5.88751L14.9086 6.18751L14.6086 5.88751H14.6211Z" fill="#66CCCC"/>
<path id="Vector_11" d="M15.4586 4.11249L13.3711 12.025L5.43359 14.175L13.3461 16.2375L15.4586 24.15L17.5711 16.2375L25.4711 14.125L17.5586 12.025L15.4586 4.11249V4.11249Z" fill="#CC0000" stroke="#F5F5F5" stroke-width="0.375"/>
<path id="Vector_12" d="M16.396 5.88751L16.696 6.18751L16.396 5.88751Z" fill="#66CCCC"/>
<path id="Vector_13" d="M14.6211 6.1875L14.9086 6.4875L14.6086 6.1875H14.6211ZM16.3961 6.1875L16.6961 6.4875L16.3961 6.1875Z" fill="#99CCFF"/>
<path id="Vector_14" d="M14.9087 6.48749L15.2087 6.77499L14.9087 6.48749ZM16.0962 6.48749L16.3962 6.77499L16.0962 6.48749V6.48749Z" fill="#FFCCCC"/>
<path id="Vector_15" d="M14.3086 6.78751L14.6086 7.07501L14.3086 6.78751Z" fill="#6699CC"/>
<path id="Vector_16" d="M15.0085 6.97501L15.1085 7.17501L15.0085 6.97501ZM16.196 6.97501L16.296 7.17501L16.196 6.97501V6.97501Z" fill="#CC3333"/>
<path id="Vector_17" d="M16.696 6.78751L16.996 7.07501L16.696 6.78751Z" fill="#6699CC"/>
<path id="Vector_18" d="M14.3086 7.07501L14.6211 7.37501L14.3211 7.07501H14.3086ZM16.6961 7.07501L16.9961 7.37501L16.6961 7.07501Z" fill="#99CCFF"/>
<path id="Vector_19" d="M14.6211 7.375L14.9086 7.675L14.6086 7.375H14.6211ZM16.3961 7.375L16.6961 7.675L16.3961 7.375Z" fill="#FFCCCC"/>
<path id="Vector_20" d="M14.021 7.67499L14.3085 7.97499L14.021 7.67499ZM16.996 7.67499L17.296 7.97499L16.996 7.67499Z" fill="#6699CC"/>
<path id="Vector_21" d="M14.021 7.97501L14.3085 8.27501L14.021 7.97501V7.97501ZM16.996 7.97501L17.296 8.27501L16.996 7.97501Z" fill="#99CCCC"/>
<path id="Vector_22" d="M14.021 8.27499L14.3085 8.56249L14.021 8.27499ZM16.996 8.27499L17.296 8.56249L16.996 8.27499Z" fill="#CCFFFF"/>
<path id="Vector_23" d="M13.7212 8.5625L14.0212 8.8625L13.7212 8.5625Z" fill="#6699CC"/>
<path id="Vector_24" d="M14.3086 8.5625L14.6211 8.875L14.3211 8.575L14.3086 8.5625ZM16.6961 8.575L16.9961 8.875L16.6961 8.575Z" fill="#FFCCCC"/>
<path id="Vector_25" d="M17.2837 8.5625L17.5837 8.8625L17.2962 8.5625H17.2837Z" fill="#6699CC"/>
<path id="Vector_26" d="M13.7212 8.87499L14.0212 9.16249L13.7212 8.86249V8.87499Z" fill="#99CCCC"/>
<path id="Vector_27" d="M14.4087 9.0625L14.5087 9.2625L14.4087 9.0625ZM16.7837 9.0625L16.8962 9.2625L16.7962 9.0625H16.7837Z" fill="#CC3333"/>
<path id="Vector_28" d="M17.2837 8.87499L17.5837 9.16249L17.2962 8.86249L17.2837 8.87499Z" fill="#99CCCC"/>
<path id="Vector_29" d="M13.7212 9.16251L14.0212 9.46251L13.7212 9.16251ZM17.2962 9.16251L17.5837 9.46251L17.2962 9.16251Z" fill="#CCFFFF"/>
<path id="Vector_30" d="M14.021 9.46249L14.3085 9.74999L14.021 9.46249ZM16.996 9.46249L17.296 9.74999L16.996 9.46249Z" fill="#FFCCCC"/>
<path id="Vector_31" d="M13.4211 9.75L13.7211 10.05L13.4211 9.7625V9.75Z" fill="#99CCCC"/>
<path id="Vector_32" d="M14.1211 9.95001L14.2086 10.15L14.1086 9.95001H14.1211ZM17.0961 9.95001L17.1961 10.15L17.0961 9.95001Z" fill="#CC3333"/>
<path id="Vector_33" d="M17.5835 9.75L17.8835 10.05L17.5835 9.7625V9.75Z" fill="#99CCCC"/>
<path id="Vector_34" d="M13.4211 10.05L13.7211 10.35L13.4211 10.05ZM17.5836 10.05L17.8836 10.35L17.5836 10.05Z" fill="#CCCCFF"/>
<path id="Vector_35" d="M13.7212 10.35L14.0212 10.65L13.7212 10.35ZM17.2962 10.35L17.5837 10.65L17.2962 10.35Z" fill="#FFCCCC"/>
<path id="Vector_36" d="M13.1211 10.65L13.4211 10.95L13.1211 10.65Z" fill="#99CCCC"/>
<path id="Vector_37" d="M13.821 10.85L13.921 11.05L13.821 10.85ZM17.3835 10.85L17.4835 11.05L17.3835 10.85Z" fill="#CC3333"/>
<path id="Vector_38" d="M17.8835 10.65L18.1835 10.95L17.8835 10.65Z" fill="#99CCCC"/>
<path id="Vector_39" d="M13.1211 10.95L13.4211 11.25L13.1211 10.95ZM17.8836 10.95L18.1836 11.25L17.8836 10.95Z" fill="#CCCCFF"/>
<path id="Vector_40" d="M13.4211 11.25L13.7211 11.5375L13.4211 11.25ZM17.5836 11.25L17.8836 11.5375L17.5836 11.25Z" fill="#FFCCCC"/>
<path id="Vector_41" d="M12.821 11.5375L13.121 11.8375L12.821 11.5375Z" fill="#99CCCC"/>
<path id="Vector_42" d="M13.4211 11.5375L13.7211 11.8375L13.4211 11.5375ZM17.5836 11.5375L17.8836 11.8375L17.5836 11.5375Z" fill="#CC3333"/>
<path id="Vector_43" d="M18.1836 11.5375L18.4836 11.8375L18.1836 11.5375ZM11.9336 11.8375L12.2336 12.1375L11.9336 11.8375Z" fill="#99CCCC"/>
<path id="Vector_44" d="M12.2336 11.8375L12.5336 12.1375L12.2336 11.8375ZM18.7711 11.8375L19.0711 12.1375L18.7836 11.8375H18.7711Z" fill="#CCCCFF"/>
<path id="Vector_45" d="M19.0711 11.8375L19.3711 12.1375L19.0711 11.8375ZM11.0461 12.1375L11.3336 12.4375L11.0461 12.1375Z" fill="#99CCCC"/>
<path id="Vector_46" d="M11.3335 12.1375L11.6335 12.4375L11.3335 12.1375Z" fill="#CCCCFF"/>
<path id="Vector_47" d="M12.5337 12.1375L12.8212 12.4375L12.5337 12.1375Z" fill="#FFCCCC"/>
<path id="Vector_48" d="M12.821 12.1375L13.121 12.4375L12.821 12.1375ZM18.1835 12.1375L18.4835 12.4375L18.1835 12.1375Z" fill="#CC3333"/>
<path id="Vector_49" d="M18.4836 12.1375L18.7711 12.4375L18.4961 12.125L18.4836 12.1375Z" fill="#FFCCCC"/>
<path id="Vector_50" d="M19.6711 12.1375L19.9711 12.4375L19.6711 12.1375Z" fill="#CCCCFF"/>
<path id="Vector_51" d="M19.9712 12.1375L20.2587 12.4375L19.9712 12.1375Z" fill="#99CCCC"/>
<path id="Vector_52" d="M9.84619 12.4375L10.1462 12.7375L9.84619 12.4375Z" fill="#6699CC"/>
<path id="Vector_53" d="M10.146 12.4375L10.446 12.7375L10.146 12.4375Z" fill="#99CCCC"/>
<path id="Vector_54" d="M10.446 12.4375L10.746 12.7375L10.446 12.4375Z" fill="#CCFFFF"/>
<path id="Vector_55" d="M11.6335 12.4375L11.9335 12.7375L11.6335 12.4375Z" fill="#FFCCCC"/>
<path id="Vector_56" d="M12.1211 12.5375L12.3336 12.6375L12.1336 12.5375H12.1211ZM18.9711 12.5375L19.1711 12.6375L18.9711 12.5375Z" fill="#CC3333"/>
<path id="Vector_57" d="M19.3711 12.4375L19.6711 12.7375L19.3711 12.4375Z" fill="#FFCCCC"/>
<path id="Vector_58" d="M20.5586 12.4375L20.8586 12.7375L20.5586 12.4375Z" fill="#CCFFFF"/>
<path id="Vector_59" d="M20.8711 12.4375L21.1586 12.7375L20.8586 12.4375H20.8711Z" fill="#99CCCC"/>
<path id="Vector_60" d="M21.1585 12.4375L21.4585 12.7375L21.1585 12.4375ZM8.9585 12.7375L9.2585 13.025L8.9585 12.7375Z" fill="#6699CC"/>
<path id="Vector_61" d="M9.24609 12.7375L9.55859 13.025L9.24609 12.75V12.7375Z" fill="#99CCCC"/>
<path id="Vector_62" d="M9.55859 12.7375L9.84609 13.025L9.55859 12.7375Z" fill="#CCFFFF"/>
<path id="Vector_63" d="M10.7461 12.7375L11.0461 13.025L10.7461 12.75V12.7375Z" fill="#FFCCCC"/>
<path id="Vector_64" d="M11.2461 12.8375L11.4336 12.9375L11.2461 12.8375ZM19.8711 12.8375L20.0711 12.9375L19.8711 12.8375Z" fill="#CC3333"/>
<path id="Vector_65" d="M20.271 12.7375L20.5585 13.025L20.271 12.7375Z" fill="#FFCCCC"/>
<path id="Vector_66" d="M21.4585 12.7375L21.746 13.025L21.4585 12.7375Z" fill="#CCFFFF"/>
<path id="Vector_67" d="M21.7461 12.7375L22.0461 13.025L21.7586 12.7375H21.7461Z" fill="#99CCCC"/>
<path id="Vector_68" d="M22.046 12.7375L22.346 13.025L22.046 12.7375ZM8.07104 13.025L8.35855 13.325L8.07104 13.025Z" fill="#6699CC"/>
<path id="Vector_69" d="M8.37114 13.025L8.65864 13.325L8.35864 13.025H8.37114Z" fill="#99CCFF"/>
<path id="Vector_70" d="M9.84619 13.025L10.1462 13.325L9.84619 13.025Z" fill="#FFCCCC"/>
<path id="Vector_71" d="M10.3462 13.125L10.5462 13.225L10.3462 13.125ZM20.7587 13.125L20.9587 13.225L20.7587 13.125Z" fill="#CC3333"/>
<path id="Vector_72" d="M21.1587 13.025L21.4587 13.325L21.1587 13.025Z" fill="#FFCCCC"/>
<path id="Vector_73" d="M22.646 13.025L22.946 13.325L22.646 13.025Z" fill="#99CCFF"/>
<path id="Vector_74" d="M22.946 13.025L23.2335 13.325L22.946 13.025Z" fill="#6699CC"/>
<path id="Vector_75" d="M7.17114 13.325L7.47114 13.625L7.17114 13.325Z" fill="#66CCCC"/>
<path id="Vector_76" d="M7.47119 13.325L7.77119 13.625L7.47119 13.325Z" fill="#99CCFF"/>
<path id="Vector_77" d="M8.65869 13.325L8.95869 13.625L8.65869 13.325ZM22.3462 13.325L22.6462 13.625L22.3462 13.325Z" fill="#FFCCCC"/>
<path id="Vector_78" d="M23.5337 13.325L23.8337 13.625L23.5337 13.325Z" fill="#99CCFF"/>
<path id="Vector_79" d="M23.8337 13.325L24.1337 13.625L23.8337 13.325ZM6.28369 13.625L6.58369 13.925L6.28369 13.625Z" fill="#66CCCC"/>
<path id="Vector_80" d="M6.57104 13.625L6.87105 13.925L6.58355 13.625H6.57104Z" fill="#CCCCFF"/>
<path id="Vector_81" d="M7.771 13.625L8.0585 13.925L7.771 13.625Z" fill="#FFCCCC"/>
<path id="Vector_82" d="M8.25854 13.725L8.45854 13.825L8.25854 13.725ZM22.846 13.725L23.046 13.825L22.846 13.725Z" fill="#CC3333"/>
<path id="Vector_83" d="M23.2461 13.625L23.5336 13.925L23.2461 13.625Z" fill="#FFCCCC"/>
<path id="Vector_84" d="M24.4336 13.625L24.7336 13.925L24.4336 13.625Z" fill="#CCCCFF"/>
<path id="Vector_85" d="M24.7336 13.625L25.0211 13.925L24.7336 13.625Z" fill="#66CCCC"/>
<path id="Vector_86" d="M5.38354 13.925L5.68355 14.225L5.38354 13.925Z" fill="#99CCCC"/>
<path id="Vector_87" d="M5.68359 13.925L5.98359 14.225L5.68359 13.925Z" fill="#CCCCFF"/>
<path id="Vector_88" d="M6.87109 13.925L7.17109 14.225L6.87109 13.925ZM24.1336 13.925L24.4336 14.225L24.1336 13.925Z" fill="#FFCCCC"/>
<path id="Vector_89" d="M25.321 13.925L25.621 14.225L25.321 13.925Z" fill="#CCCCFF"/>
<path id="Vector_90" d="M25.6211 13.925L25.9211 14.225L25.6211 13.925ZM4.79614 14.225L5.09614 14.5125L4.79614 14.225Z" fill="#99CCCC"/>
<path id="Vector_91" d="M6.28369 14.225L6.58369 14.5125L6.28369 14.225ZM24.7337 14.225L25.0212 14.5125L24.7337 14.225Z" fill="#CC6666"/>
<path id="Vector_92" d="M26.2211 14.225L26.5086 14.5125L26.2211 14.225ZM5.37109 14.5L5.67109 14.8L5.37109 14.5Z" fill="#99CCCC"/>
<path id="Vector_93" d="M5.68359 14.5125L5.98359 14.8125L5.68359 14.5125Z" fill="#CCCCFF"/>
<path id="Vector_94" d="M6.87109 14.5125L7.17109 14.8125L6.87109 14.5125ZM24.1336 14.5125L24.4336 14.8125L24.1336 14.5125Z" fill="#FFCCCC"/>
<path id="Vector_95" d="M25.321 14.5125L25.621 14.8125L25.321 14.5125Z" fill="#CCCCFF"/>
<path id="Vector_96" d="M25.6211 14.5125L25.9211 14.8125L25.6211 14.5125Z" fill="#99CCCC"/>
<path id="Vector_97" d="M6.28369 14.8125L6.58369 15.1125L6.28369 14.8125Z" fill="#66CCCC"/>
<path id="Vector_98" d="M6.57104 14.8125L6.87105 15.125L6.58355 14.825L6.57104 14.8125Z" fill="#CCCCFF"/>
<path id="Vector_99" d="M7.771 14.8125L8.0585 15.1125L7.771 14.8125Z" fill="#FFCCCC"/>
<path id="Vector_100" d="M8.25854 14.9125L8.45854 15.0125L8.25854 14.9125ZM22.846 14.9125L23.046 15.0125L22.846 14.9125Z" fill="#CC3333"/>
<path id="Vector_101" d="M23.2461 14.8125L23.5336 15.1125L23.2461 14.8125Z" fill="#FFCCCC"/>
<path id="Vector_102" d="M24.4336 14.8125L24.7336 15.1125L24.4336 14.8125Z" fill="#CCCCFF"/>
<path id="Vector_103" d="M24.7336 14.8125L25.0211 15.1125L24.7336 14.8125ZM7.17114 15.125L7.47114 15.425L7.17114 15.125Z" fill="#66CCCC"/>
<path id="Vector_104" d="M7.47119 15.1125L7.77119 15.4125L7.47119 15.1125Z" fill="#99CCFF"/>
<path id="Vector_105" d="M8.65869 15.1125L8.95869 15.4125L8.65869 15.1125ZM22.3462 15.1125L22.6462 15.4125L22.3462 15.1125Z" fill="#FFCCCC"/>
<path id="Vector_106" d="M23.5337 15.1125L23.8337 15.4125L23.5337 15.1125Z" fill="#99CCFF"/>
<path id="Vector_107" d="M23.8335 15.1125L24.1335 15.4125L23.8335 15.1125Z" fill="#66CCCC"/>
<path id="Vector_108" d="M8.05859 15.4125L8.35859 15.7125L8.07109 15.4125H8.05859Z" fill="#6699CC"/>
<path id="Vector_109" d="M8.37114 15.4125L8.65864 15.7125L8.35864 15.4125H8.37114Z" fill="#99CCFF"/>
<path id="Vector_110" d="M9.84619 15.4125L10.1462 15.7125L9.84619 15.4125Z" fill="#FFCCCC"/>
<path id="Vector_111" d="M10.3462 15.5L10.5462 15.6125L10.3462 15.5125V15.5ZM20.7587 15.5125L20.9587 15.6125L20.7587 15.5125Z" fill="#CC3333"/>
<path id="Vector_112" d="M21.1587 15.4125L21.4587 15.7125L21.1587 15.4125Z" fill="#FFCCCC"/>
<path id="Vector_113" d="M22.646 15.4125L22.946 15.7125L22.646 15.4125Z" fill="#99CCFF"/>
<path id="Vector_114" d="M22.946 15.4125L23.2335 15.7125L22.946 15.4125ZM8.9585 15.7125L9.2585 16L8.9585 15.7125Z" fill="#6699CC"/>
<path id="Vector_115" d="M9.24609 15.7125L9.55859 16L9.25859 15.7125H9.24609Z" fill="#99CCCC"/>
<path id="Vector_116" d="M9.55859 15.7125L9.84609 16L9.55859 15.7125Z" fill="#CCFFFF"/>
<path id="Vector_117" d="M10.7461 15.7125L11.0461 16L10.7461 15.7125Z" fill="#FFCCCC"/>
<path id="Vector_118" d="M11.2461 15.8125L11.4336 15.9L11.2461 15.8V15.8125ZM19.8711 15.8L20.0711 15.9L19.8711 15.8Z" fill="#CC3333"/>
<path id="Vector_119" d="M20.271 15.7125L20.5585 16L20.271 15.7125Z" fill="#FFCCCC"/>
<path id="Vector_120" d="M21.4585 15.7125L21.746 16L21.4585 15.7125Z" fill="#CCFFFF"/>
<path id="Vector_121" d="M21.7461 15.7125L22.0461 16L21.7586 15.7125H21.7461Z" fill="#99CCCC"/>
<path id="Vector_122" d="M22.0462 15.7125L22.3462 16L22.0462 15.7125ZM9.84619 16L10.1462 16.3L9.84619 16Z" fill="#6699CC"/>
<path id="Vector_123" d="M10.146 16L10.446 16.3L10.146 16Z" fill="#99CCCC"/>
<path id="Vector_124" d="M10.446 16L10.746 16.3L10.446 16Z" fill="#CCFFFF"/>
<path id="Vector_125" d="M11.6335 16L11.9335 16.3L11.6335 16Z" fill="#FFCCCC"/>
<path id="Vector_126" d="M12.1211 16.1L12.3336 16.2L12.1336 16.1H12.1211ZM18.9711 16.1L19.1711 16.2L18.9711 16.1Z" fill="#CC3333"/>
<path id="Vector_127" d="M19.3711 16L19.6711 16.3L19.3711 16Z" fill="#FFCCCC"/>
<path id="Vector_128" d="M20.5586 16L20.8586 16.3L20.5586 16Z" fill="#CCFFFF"/>
<path id="Vector_129" d="M20.8711 16L21.1586 16.3L20.8586 16H20.8711Z" fill="#99CCCC"/>
<path id="Vector_130" d="M21.1587 16L21.4587 16.3L21.1587 16Z" fill="#6699CC"/>
<path id="Vector_131" d="M11.0461 16.3L11.3336 16.6L11.0461 16.3Z" fill="#99CCCC"/>
<path id="Vector_132" d="M11.3335 16.3L11.6335 16.6L11.3335 16.3Z" fill="#CCCCFF"/>
<path id="Vector_133" d="M12.5337 16.3L12.8212 16.6L12.5337 16.3Z" fill="#FFCCCC"/>
<path id="Vector_134" d="M12.821 16.3L13.121 16.6L12.821 16.3ZM18.1835 16.3L18.4835 16.6L18.1835 16.3Z" fill="#CC3333"/>
<path id="Vector_135" d="M18.4836 16.3L18.7711 16.6L18.4836 16.3Z" fill="#FFCCCC"/>
<path id="Vector_136" d="M19.6711 16.3L19.9711 16.6L19.6711 16.3Z" fill="#CCCCFF"/>
<path id="Vector_137" d="M19.9711 16.3L20.2586 16.6L19.9711 16.3ZM11.9336 16.6L12.2336 16.9L11.9336 16.6Z" fill="#99CCCC"/>
<path id="Vector_138" d="M12.2336 16.6L12.5336 16.9L12.2336 16.6ZM18.7711 16.6L19.0711 16.9L18.7836 16.6H18.7711Z" fill="#CCCCFF"/>
<path id="Vector_139" d="M19.071 16.6L19.371 16.9L19.071 16.6ZM12.821 16.9L13.121 17.2L12.821 16.9Z" fill="#99CCCC"/>
<path id="Vector_140" d="M13.4211 16.9L13.7211 17.2L13.4211 16.9ZM17.5836 16.9L17.8836 17.2L17.5836 16.9Z" fill="#CC3333"/>
<path id="Vector_141" d="M18.1836 16.9L18.4836 17.2L18.1836 16.9Z" fill="#99CCCC"/>
<path id="Vector_142" d="M13.4211 17.2L13.7211 17.4875L13.4211 17.2ZM17.5836 17.2L17.8836 17.4875L17.5836 17.2Z" fill="#FFCCCC"/>
<path id="Vector_143" d="M13.1211 17.5L13.4211 17.7875L13.1211 17.4875V17.5Z" fill="#CCCCFF"/>
<path id="Vector_144" d="M13.821 17.6875L13.921 17.8875L13.821 17.6875ZM17.3835 17.6875L17.4835 17.8875L17.3835 17.6875Z" fill="#CC3333"/>
<path id="Vector_145" d="M17.8835 17.5L18.1835 17.7875L17.8835 17.4875V17.5Z" fill="#CCCCFF"/>
<path id="Vector_146" d="M13.1211 17.7875L13.4211 18.0875L13.1211 17.7875ZM17.8836 17.7875L18.1836 18.0875L17.8836 17.7875Z" fill="#99CCCC"/>
<path id="Vector_147" d="M13.7212 18.0875L14.0212 18.3875L13.7212 18.0875ZM17.2962 18.0875L17.5837 18.3875L17.2962 18.0875Z" fill="#FFCCCC"/>
<path id="Vector_148" d="M13.4211 18.375L13.7211 18.6875L13.4211 18.3875V18.375Z" fill="#CCCCFF"/>
<path id="Vector_149" d="M14.1211 18.5875L14.2086 18.7875L14.1086 18.5875H14.1211ZM17.0961 18.5875L17.1961 18.7875L17.0961 18.5875Z" fill="#CC3333"/>
<path id="Vector_150" d="M17.5835 18.375L17.8835 18.6875L17.5835 18.3875V18.375Z" fill="#CCCCFF"/>
<path id="Vector_151" d="M13.4211 18.6875L13.7211 18.975L13.4211 18.6875ZM17.5836 18.6875L17.8836 18.975L17.5836 18.6875Z" fill="#99CCCC"/>
<path id="Vector_152" d="M14.021 18.975L14.3085 19.275L14.021 18.9875V18.975ZM16.996 18.9875L17.296 19.275L16.996 18.9875Z" fill="#FFCCCC"/>
<path id="Vector_153" d="M13.7212 19.275L14.0212 19.575L13.7212 19.275Z" fill="#CCFFFF"/>
<path id="Vector_154" d="M14.4087 19.475L14.5087 19.675L14.4087 19.475ZM16.7837 19.475L16.8962 19.675L16.7962 19.475H16.7837Z" fill="#CC3333"/>
<path id="Vector_155" d="M17.2837 19.275L17.5837 19.575L17.2962 19.275H17.2837Z" fill="#CCFFFF"/>
<path id="Vector_156" d="M13.7212 19.575L14.0212 19.875L13.7212 19.575ZM17.2962 19.575L17.5837 19.875L17.2962 19.575Z" fill="#99CCCC"/>
<path id="Vector_157" d="M13.7212 19.875L14.0212 20.175L13.7212 19.875Z" fill="#6699CC"/>
<path id="Vector_158" d="M14.3086 19.875L14.6086 20.175L14.3086 19.875ZM16.6836 19.875L16.9961 20.175L16.6961 19.875H16.6836Z" fill="#FFCCCC"/>
<path id="Vector_159" d="M17.2837 19.875L17.5837 20.175L17.2962 19.875H17.2837Z" fill="#6699CC"/>
<path id="Vector_160" d="M14.021 20.175L14.3085 20.4625L14.021 20.175ZM16.996 20.175L17.296 20.4625L16.996 20.175Z" fill="#CCFFFF"/>
<path id="Vector_161" d="M14.021 20.475L14.3085 20.7625L14.021 20.475ZM16.996 20.475L17.296 20.7625L16.996 20.475Z" fill="#99CCCC"/>
<path id="Vector_162" d="M14.021 20.7625L14.3085 21.0625L14.021 20.7625ZM16.996 20.7625L17.296 21.0625L16.996 20.7625Z" fill="#6699CC"/>
<path id="Vector_163" d="M14.6211 21.0625L14.9086 21.3625L14.6086 21.0625H14.6211ZM16.3961 21.0625L16.6961 21.3625L16.3961 21.0625Z" fill="#FFCCCC"/>
<path id="Vector_164" d="M14.3086 21.3625L14.6086 21.6625L14.3086 21.3625Z" fill="#99CCFF"/>
<path id="Vector_165" d="M15.0085 21.5625L15.1085 21.7625L15.0085 21.5625ZM16.196 21.5625L16.296 21.7625L16.196 21.5625V21.5625Z" fill="#CC3333"/>
<path id="Vector_166" d="M16.696 21.3625L16.996 21.6625L16.696 21.3625Z" fill="#99CCFF"/>
<path id="Vector_167" d="M14.3086 21.6625L14.6086 21.95L14.3086 21.6625ZM16.6836 21.6625L16.9961 21.95L16.6961 21.6625H16.6836Z" fill="#6699CC"/>
<path id="Vector_168" d="M14.9087 21.9625L15.2087 22.25L14.9087 21.9625ZM16.0962 21.9625L16.3962 22.25L16.0962 21.9625V21.9625Z" fill="#FFCCCC"/>
<path id="Vector_169" d="M14.6211 22.25L14.9086 22.55L14.6086 22.25H14.6211ZM16.3961 22.25L16.6961 22.55L16.3961 22.25Z" fill="#99CCFF"/>
<path id="Vector_170" d="M14.6211 22.55L14.9086 22.85L14.6086 22.55H14.6211ZM16.3961 22.55L16.6961 22.85L16.3961 22.55Z" fill="#66CCCC"/>
<path id="Vector_171" d="M15.2085 22.85L15.5085 23.15L15.2085 22.85ZM15.796 22.85L16.096 23.15L15.8085 22.85H15.796Z" fill="#FFCCCC"/>
<path id="Vector_172" d="M14.9087 23.15L15.2087 23.4375L14.9087 23.15ZM16.0962 23.15L16.3962 23.4375L16.0962 23.15V23.15Z" fill="#CCCCFF"/>
<path id="Vector_173" d="M14.9087 23.45L15.2087 23.7375L14.9087 23.45Z" fill="#66CCCC"/>
<path id="Vector_174" d="M15.4961 23.45L15.7961 23.7375L15.5086 23.45H15.4961Z" fill="#CC6666"/>
<path id="Vector_175" d="M16.0962 23.45L16.3962 23.7375L16.0962 23.45V23.45Z" fill="#66CCCC"/>
<path id="Vector_176" d="M15.2085 24.0375L15.5085 24.3375L15.2085 24.0375ZM15.796 24.0375L16.096 24.3375L15.8085 24.0375H15.796Z" fill="#CCCCFF"/>
<path id="Vector_177" d="M15.2085 24.3375L15.5085 24.6375L15.2085 24.3375ZM15.796 24.3375L16.096 24.6375L15.8085 24.3375H15.796ZM15.5085 24.9375L15.8085 25.225L15.5085 24.925V24.9375Z" fill="#99CCCC"/>
</g>
</g>
</g>
<defs>
<clipPath id="clip0_2909_185443">
<path d="M0.246094 32C0.246094 14.3269 14.573 0 32.2461 0V0C49.9192 0 64.2461 14.3269 64.2461 32V32C64.2461 49.6731 49.9192 64 32.2461 64V64C14.573 64 0.246094 49.6731 0.246094 32V32Z" fill="white"/>
</clipPath>
</defs>
</svg>
