<svg width="65" height="64" viewBox="0 0 65 64" fill="none" xmlns="http://www.w3.org/2000/svg">
<g id="Rounded=Aland Islands (AX)">
<g clip-path="url(#clip0_2909_185469)">
<g id="Group">
<path id="Vector" d="M-12.2539 0H85.6361V64.005H-12.2539V0Z" fill="#0053A5"/>
<g id="Group_2">
<path id="Vector_2" d="M17.8662 0H36.6912V64.005H17.8662V0Z" fill="#FFCE00"/>
<path id="Vector_3" d="M-12.2539 22.59H85.6361V41.415H-12.2539V22.59Z" fill="#FFCE00"/>
</g>
<g id="Group_3">
<path id="Vector_4" d="M23.5137 0H31.0437V64.005H23.5137V0Z" fill="#D21034"/>
<path id="Vector_5" d="M-12.2539 28.2375H85.6361V35.7675H-12.2539V28.2375Z" fill="#D21034"/>
</g>
</g>
</g>
</g>
<defs>
<clipPath id="clip0_2909_185469">
<path d="M0.246094 32C0.246094 14.3269 14.573 0 32.2461 0V0C49.9192 0 64.2461 14.3269 64.2461 32V32C64.2461 49.6731 49.9192 64 32.2461 64V64C14.573 64 0.246094 49.6731 0.246094 32V32Z" fill="white"/>
</clipPath>
</defs>
</svg>
