<svg width="65" height="64" viewBox="0 0 65 64" fill="none" xmlns="http://www.w3.org/2000/svg">
<g id="Rounded=Barbados (BB)">
<g clip-path="url(#clip0_2909_185494)">
<path id="Vector" d="M0.246094 -0.0249939H64.2461V64H0.246094V-0.0249939Z" fill="#00267F"/>
<path id="Vector_2" d="M21.5835 -0.0249939H42.9085V64H21.5835V-0.0249939Z" fill="#FFC726"/>
<path id="a" d="M32.246 21.6625C31.5585 23.55 30.846 25.525 29.3335 27.0375C29.925 26.8548 30.5396 26.7579 31.1585 26.75V34.7L28.9085 35.0375C28.821 35.0375 28.796 34.9125 28.796 34.7375C28.5624 32.4562 28.0718 30.2086 27.3335 28.0375C27.2835 27.75 26.4335 26.625 27.0835 26.825C27.171 26.825 28.046 27.2 27.9085 27.025C26.6528 25.7582 25.0304 24.9186 23.271 24.625C23.121 24.5875 23.021 24.6625 23.1585 24.8375C25.4085 28.3 27.296 32.3875 27.2835 37.2375C28.1585 37.2375 30.2835 36.725 31.1585 36.725V42.3375H32.2585L32.5085 26.6625L32.246 21.6625Z" fill="black"/>
<path id="Vector_3" d="M32.2461 21.6625C32.9336 23.55 33.6461 25.525 35.1586 27.0375C34.5672 26.8548 33.9526 26.7579 33.3336 26.75V34.7L35.5836 35.0375C35.6711 35.0375 35.6961 34.9125 35.6961 34.7375C35.9298 32.4562 36.4204 30.2086 37.1586 28.0375C37.2086 27.75 38.0586 26.625 37.4086 26.825C37.3211 26.825 36.4461 27.2 36.5836 27.025C37.8394 25.7582 39.4618 24.9186 41.2211 24.625C41.3711 24.5875 41.4711 24.6625 41.3336 24.8375C39.0836 28.3 37.1961 32.3875 37.2086 37.2375C36.3336 37.2375 34.2086 36.725 33.3336 36.725V42.3375H32.2336L31.9836 26.6625L32.2461 21.6625Z" fill="black"/>
</g>
</g>
<defs>
<clipPath id="clip0_2909_185494">
<path d="M0.246094 32C0.246094 14.3269 14.573 0 32.2461 0V0C49.9192 0 64.2461 14.3269 64.2461 32V32C64.2461 49.6731 49.9192 64 32.2461 64V64C14.573 64 0.246094 49.6731 0.246094 32V32Z" fill="white"/>
</clipPath>
</defs>
</svg>
