<svg width="65" height="64" viewBox="0 0 65 64" fill="none" xmlns="http://www.w3.org/2000/svg">
<g id="Rounded=Bangladesh (BD)">
<g clip-path="url(#clip0_2909_185461)">
<path id="Vector" d="M0.246094 0H64.2461V64H0.246094V0Z" fill="#006A4E"/>
<path id="Vector_2" d="M28.9962 53.3375C40.7806 53.3375 50.3337 43.7844 50.3337 32C50.3337 20.2156 40.7806 10.6625 28.9962 10.6625C17.2118 10.6625 7.65869 20.2156 7.65869 32C7.65869 43.7844 17.2118 53.3375 28.9962 53.3375Z" fill="#F42A41"/>
</g>
</g>
<defs>
<clipPath id="clip0_2909_185461">
<path d="M0.246094 32C0.246094 14.3269 14.573 0 32.2461 0V0C49.9192 0 64.2461 14.3269 64.2461 32V32C64.2461 49.6731 49.9192 64 32.2461 64V64C14.573 64 0.246094 49.6731 0.246094 32V32Z" fill="white"/>
</clipPath>
</defs>
</svg>
