<svg width="65" height="64" viewBox="0 0 65 64" fill="none" xmlns="http://www.w3.org/2000/svg">
<g id="Rounded=Burundi (BI)">
<g clip-path="url(#clip0_2909_185488)">
<g id="Group">
<path id="Vector" fill-rule="evenodd" clip-rule="evenodd" d="M-22.0039 -0.00488281L31.6095 31.995L-22.0039 63.9948V-0.00488281ZM85.1864 -0.00488281L31.6095 31.995L85.1499 63.9948L85.1864 -0.00488281Z" fill="#18B637"/>
<path id="Vector_2" fill-rule="evenodd" clip-rule="evenodd" d="M-22.0039 -0.00488281L31.6095 31.995L85.1499 -0.00488281H-22.0039ZM-22.0039 63.9948L31.6095 31.995L85.1499 63.9948H-22.0039Z" fill="#CF0921"/>
<path id="Vector_3" fill-rule="evenodd" clip-rule="evenodd" d="M85.1864 -0.00488281H75.2025L-22.0039 58.0337V63.9948H-12.02L85.1864 5.95623V-0.00488281Z" fill="#F5F5F5"/>
<path id="Vector_4" fill-rule="evenodd" clip-rule="evenodd" d="M50.1146 31.995C50.1146 36.9028 48.165 41.6096 44.6946 45.08C41.2242 48.5504 36.5174 50.5 31.6095 50.5C26.7017 50.5 21.9949 48.5504 18.5245 45.08C15.0541 41.6096 13.1045 36.9028 13.1045 31.995C13.1045 27.0871 15.0541 22.3803 18.5245 18.9099C21.9949 15.4395 26.7017 13.4899 31.6095 13.4899C36.5174 13.4899 41.2242 15.4395 44.6946 18.9099C48.165 22.3803 50.1146 27.0871 50.1146 31.995V31.995Z" fill="#F5F5F5"/>
<path id="Vector_5" fill-rule="evenodd" clip-rule="evenodd" d="M-22.0039 -0.00488281V5.95623L75.2025 63.9948H85.1864V58.0337L-12.02 -0.00488281H-22.0039Z" fill="#F5F5F5"/>
<path id="Vector_6" fill-rule="evenodd" clip-rule="evenodd" d="M35.23 25.0099L32.8163 25.0464L31.5729 27.0944L30.3295 25.0464L27.9524 25.0099L29.1226 22.8887L27.9524 20.8042L30.3661 20.731L31.6095 18.683L32.8529 20.7676H35.23L34.0963 22.8887L35.23 25.0099ZM27.1844 38.9801H24.7707L23.5272 41.0646L22.2838 39.0167L19.8701 38.9435L21.0404 36.8589L19.9067 34.7378L22.2838 34.7012L23.5272 32.6533L24.7707 34.7012L27.1844 34.7744L26.0141 36.8589L27.1844 38.9801ZM43.4951 38.9801H41.0814L39.838 41.0646L38.5946 39.0167L36.2175 38.9435L37.3512 36.8589L36.2175 34.7378L38.6312 34.7012L39.8746 32.6533L41.118 34.7012L43.4951 34.7744L42.3249 36.8589L43.4951 38.9801Z" fill="#CF0921" stroke="#18B637" stroke-width="0.365712"/>
</g>
</g>
</g>
<defs>
<clipPath id="clip0_2909_185488">
<path d="M0.246094 32C0.246094 14.3269 14.573 0 32.2461 0V0C49.9192 0 64.2461 14.3269 64.2461 32V32C64.2461 49.6731 49.9192 64 32.2461 64V64C14.573 64 0.246094 49.6731 0.246094 32V32Z" fill="white"/>
</clipPath>
</defs>
</svg>
