<svg width="65" height="64" viewBox="0 0 65 64" fill="none" xmlns="http://www.w3.org/2000/svg">
<g id="Rounded=Bermuda (BM)">
<g clip-path="url(#clip0_2909_185505)">
<path id="Vector" d="M0.246094 0H64.2461V64H0.246094V0Z" fill="#CF142B"/>
<path id="Vector_2" d="M0.246094 0H32.2461V32H0.246094V0Z" fill="#000066"/>
<path id="Vector_3" d="M32.2461 0V4L20.3711 16L32.2461 27.6875V32H28.0586L16.1211 20.25L4.49609 32H0.246094V27.75L11.8711 16.0625L0.246094 4.625V0H4.12109L16.1211 11.75L27.7461 0H32.2461Z" fill="#F5F5F5"/>
<path id="Vector_4" d="M11.7461 20.25L12.4336 22.375L2.87109 32H0.246094V31.8125L11.7461 20.25ZM19.4961 19.5L22.8711 20L32.2461 29.1875V32L19.4961 19.5ZM32.2461 0L20.2461 12.25L19.9961 9.5L29.3711 0H32.2461ZM0.246094 0.0625L12.3086 11.875L8.62109 11.375L0.246094 3.0625V0.0625Z" fill="#C8102E"/>
<path id="Vector_5" d="M11.2461 0V32H21.2461V0H11.2461ZM0.246094 11V21H32.2461V11H0.246094Z" fill="#F5F5F5"/>
<path id="Vector_6" d="M0.246094 13V19H32.2461V13H0.246094ZM13.2461 0V32H19.2461V0H13.2461Z" fill="#C8102E"/>
<path id="Vector_7" d="M58.6211 18.325V38.525C58.6211 43.9125 47.8586 45.675 47.8586 45.675C47.8586 45.675 37.0461 43.925 37.0461 38.5V18.325H58.6211Z" fill="#F5F5F5"/>
<path id="Vector_8" d="M58.6211 38.525C58.6211 43.9125 47.8586 45.675 47.8586 45.675C47.8586 45.675 37.0461 43.925 37.0461 38.5C37.0461 38.5 37.0461 38.0625 37.2711 37.825C37.2711 37.825 37.1461 38.7125 37.8336 39.4C37.8336 39.4 37.2961 38.425 37.8336 37.4875C37.8336 37.4875 37.6336 38.7125 38.3836 39.4C38.3836 39.4 37.9711 38.4125 38.4336 37.3125C38.4336 37.3125 38.2086 39.1 39.0336 39.475C39.0336 39.475 39.2586 38.425 38.9211 37.775C38.9211 37.775 39.4961 38 39.4586 39.5C39.4586 39.5 39.6461 39.275 39.6836 38.1875C39.6836 38.1875 39.7211 39.4375 40.1336 39.725C40.1336 39.725 40.2836 39.6 40.0836 39.0375C39.8961 38.4875 40.1586 38.2875 40.2086 38.2875C40.2086 38.2875 40.1211 38.9125 40.6336 39.3875C40.6336 39.3875 40.4211 38.4 40.7336 38.2625C40.7336 38.2625 40.6586 39.1 41.3211 39.275C41.3211 39.275 41.3711 39.0375 41.2211 38.775C41.2211 38.775 41.0961 38.4625 41.1961 38.2125C41.1961 38.2125 41.3961 38.9625 41.6836 39.0875C41.6836 39.0875 41.5211 38.6375 41.6836 38.2125C41.6836 38.2125 41.7086 38.8375 42.2836 39.1C42.2836 39.1 41.9086 38.6 42.0336 38.075L45.6336 38.25L47.4961 38.3375L53.0836 37.9625L54.0336 37.125C54.0336 37.125 54.4211 37.6375 53.8211 38.475C53.8211 38.475 54.4086 38.375 54.6086 37.4375C54.6086 37.4375 54.8461 37.95 54.5211 38.5375C54.5211 38.5375 55.1711 37.8625 55.2711 37.125C55.2711 37.125 55.5211 37.85 54.8961 38.625C54.8961 38.625 55.4586 38.425 55.6961 37.6125C55.6961 37.6125 55.8836 38.1125 55.3461 38.8C55.3461 38.8 56.3586 38.2875 56.3461 37.175C56.3461 37.175 56.7461 37.775 56.2711 38.625C56.2711 38.625 56.7711 38.1625 56.8461 37.4625C56.8461 37.4625 57.1211 37.775 56.8086 38.6375C56.8086 38.6375 57.4336 38.0375 57.5461 37.4C57.5461 37.4 57.6711 38 57.1336 38.75C57.1336 38.75 57.5086 38.65 57.8586 37.925C57.8586 37.925 57.9461 38.225 57.6336 38.75C57.6336 38.75 57.9711 38.6875 58.1961 38.0125C58.1961 38.0125 58.2461 38.4125 58.1336 38.7625C58.1336 38.7625 58.4086 38.6 58.4711 37.85C58.4711 37.85 58.6086 38.0875 58.6086 38.4V38.5L58.6211 38.525Z" fill="#2F8F22"/>
<path id="Vector_9" d="M53.0835 26.8375C53.0835 26.8375 52.7085 26.9125 52.221 26.7625C51.746 26.6125 51.546 26.675 51.396 26.7625C51.396 26.7625 51.596 26.375 51.121 26.0625C51.121 26.0625 51.271 26.4625 51.0585 26.6375C51.0585 26.6375 50.971 26.725 50.846 26.6C50.846 26.6 50.6835 26.4125 50.5085 26.3C50.5085 26.3 50.9085 26.15 50.8335 25.7375C50.7585 25.325 50.5335 25.2875 50.4335 25.225C50.4133 25.324 50.4133 25.426 50.4335 25.525C50.4335 25.525 49.9835 25.275 50.5835 24.9375C51.1835 24.6 51.0835 24.3875 50.9585 24.2125C50.8431 24.0357 50.6945 23.8829 50.521 23.7625C50.521 23.7625 50.646 23.9625 50.6085 24.125C50.596 24.275 50.3085 24.375 50.371 24.1125C50.4335 23.8125 50.371 23.8625 50.371 23.575C50.371 23.575 50.896 23.75 51.121 23.225C51.121 23.225 51.3085 22.6875 50.646 22.425C50.646 22.425 50.8085 22.65 50.7335 22.8C50.7335 22.8 50.5835 23.075 50.421 22.875C50.2585 22.6625 50.1335 22.6 50.146 22.35C50.146 22.35 50.771 22.4375 50.596 21.7625C50.596 21.7625 50.496 22.2125 49.696 21.6125C49.696 21.6125 50.221 21.0875 50.0085 20.6625C50.0085 20.6625 49.9585 20.475 49.4085 20.575C49.4085 20.575 49.8835 20.275 49.6835 20.0125C49.6835 20.0125 49.5835 19.85 49.121 20.0625C49.121 20.0625 49.296 19.775 48.846 19.4375C48.846 19.4375 48.5585 19.5875 48.4085 19.7375C48.4085 19.7375 48.1085 19.3625 47.9085 19.2C47.9085 19.2 47.5585 19.3375 47.471 19.7375C47.471 19.7375 47.296 19.55 46.9335 19.4375C46.9335 19.4375 46.746 19.7875 46.9835 20.0625C46.9835 20.0625 46.8085 20.0625 46.496 19.925C46.496 19.925 46.1335 19.775 46.196 20.0625C46.246 20.3625 46.271 20.4375 46.346 20.5875C46.346 20.5875 45.546 20.4 45.571 20.8375C45.5798 20.9862 45.6187 21.1316 45.6853 21.2648C45.7519 21.398 45.8449 21.5163 45.9585 21.6125C45.9585 21.6125 45.5085 22.2125 45.121 21.7625C45.121 21.7625 44.971 21.9125 45.271 22.2875C45.271 22.2875 45.571 22.6 45.321 22.8125C45.321 22.8125 45.0085 23.0625 44.8585 22.5625C44.8585 22.5625 44.3335 23.075 44.946 23.4625C44.946 23.4625 45.3335 23.6875 45.7335 23.3375C45.7335 23.3375 45.6085 24.3375 45.2335 24.1375C45.2335 24.1375 45.0085 23.9875 45.4085 23.775C45.4085 23.775 44.8085 23.7 44.721 24.275C44.721 24.275 44.646 24.7125 45.171 24.9C45.171 24.9 45.5585 25.05 45.1585 25.35C45.1585 25.35 44.8585 25.5625 45.046 25.9C45.046 25.9 45.271 26.25 44.696 26.3C44.696 26.3 44.396 26.3 44.271 26.25C44.271 26.25 44.146 26.5 44.2335 26.75C44.2335 26.75 43.9335 26.5375 43.296 26.775C42.6335 27.025 42.671 26.85 42.6335 26.925L42.446 27.225C42.446 27.225 42.7835 27.675 42.796 27.6375L42.721 28.1375L42.9085 28.2125L44.246 27.6125L45.621 26.9L46.746 26.95L47.4335 27.1125L48.346 27.1875L49.021 26.8375H49.971L51.0085 27.3625L52.2085 28.075L52.8335 28.2L53.3085 28.1625V27.1875L53.0835 26.8375Z" fill="#D40000" stroke="black" stroke-width="0.15" stroke-linejoin="round"/>
<path id="Vector_10" d="M42.1962 27.9625C42.1962 27.9625 42.7087 28.2375 42.9462 27.925C42.9462 27.925 43.2212 27.375 42.5962 27.175C42.5962 27.175 42.9337 26.775 42.5587 26.4C42.5587 26.4 42.3712 26.2 42.0462 26.3375C42.0462 26.3375 41.8962 26.05 41.5837 26.0625C41.5837 26.0625 41.2837 26.0625 41.1962 26.375C41.1962 26.375 40.8087 26.225 40.5962 26.45C40.5962 26.45 40.2212 26.85 40.7212 27.175L41.0962 27.2125L41.4462 27.0375L41.8462 27.15C41.8462 27.15 41.7462 27.55 42.1962 27.9625V27.9625Z" fill="#D40000" stroke="black" stroke-width="0.15" stroke-linejoin="round"/>
<path id="Vector_11" d="M53.8712 27.0125C54.0447 26.9932 54.2199 27.0286 54.3723 27.1138C54.5247 27.1989 54.6467 27.3296 54.7212 27.4875C55.0587 28.2625 54.3462 28.6875 54.3462 28.6875C54.3962 28.85 54.4087 29.0875 54.4087 29.0875C55.3962 29.2125 55.2212 30.3125 55.2212 30.3125L54.8837 30.0375C54.3212 29.8125 53.7212 30.3125 53.3087 31.1125C52.8962 31.9375 53.0837 32.3 53.1587 33.275C53.2337 34.2375 54.7962 34.825 54.7962 34.825L53.5712 37.95C53.0962 39.2 52.0837 38.6875 51.7837 38.4125C51.5087 38.1625 51.4337 38.3125 51.2962 38.4125C51.1462 38.5375 51.9587 39.1625 50.4712 39.7625C49.0212 40.35 48.7587 40.8 48.5087 40.95C48.2712 41.1 47.2587 41.0125 47.1712 40.875C47.0462 40.75 47.1087 40.75 46.7212 40.5125C46.3462 40.3 45.7087 40.075 45.0087 39.7375C44.3087 39.4 44.3212 38.9625 44.3337 38.875C44.3337 38.7875 44.5837 38.0625 43.7587 38.6375C42.9337 39.225 42.2337 38.3625 42.2337 38.3625C42.0837 38.15 41.3837 36.3125 41.3837 36.3125C41.2393 35.8007 41.0597 35.2995 40.8462 34.8125C40.8462 34.8125 40.8087 34.9125 41.4212 34.5625C42.0087 34.225 42.2962 33.65 42.5087 33.075C42.7087 32.5 42.5087 31.5125 42.4337 31.325C42.3587 31.125 41.9087 30.2125 41.3462 30.025C40.7837 29.825 40.3962 30.325 40.3962 30.325C40.3962 30.325 40.2337 29.2 41.2212 29.075C41.2212 29.075 41.2212 28.85 41.2837 28.6875C41.2837 28.6875 40.5837 28.2625 40.9087 27.4875C40.9087 27.4875 41.1337 26.95 41.7587 27.0125L41.6087 27.3125C41.6087 27.3125 41.4587 28.8875 43.7712 27.8375C46.0837 26.7625 46.0087 26.5625 47.3462 27.2375L48.2962 27.225C48.2962 27.225 49.6837 26.5625 50.1337 26.85C50.5837 27.1375 52.1712 28.025 52.1712 28.025C52.1712 28.025 53.7212 28.6125 54.0462 27.525L53.8712 27.0125Z" fill="#64B4D1" stroke="black" stroke-width="0.15"/>
<path id="Vector_12" d="M46.8835 33.875C46.8835 33.875 46.8085 33.3875 46.7335 33.075C46.7335 33.075 46.5585 32.5875 46.8585 32.225L47.2085 31.8125C47.2085 31.8125 47.4335 31.5125 47.7085 31.475C47.7085 31.475 48.0085 31.475 48.021 31.4125C48.046 31.35 48.3585 30.85 49.096 31.4125C49.096 31.4125 49.3085 31.0375 49.6835 30.9625C49.6835 30.9625 50.0585 30.8625 50.2585 31.1375C50.2585 31.1375 50.6835 30.8125 51.0585 31.35C51.0585 31.35 51.5585 31.05 51.9585 31.6375C51.9585 31.6375 52.446 31.3875 52.7585 31.9C53.071 32.4375 53.0085 32.65 53.0085 32.65L53.2585 33.5L54.071 34.5L52.1585 35.225H51.296L49.5835 35.675L46.546 35.9125L45.7085 34.9125L46.896 33.875H46.8835Z" fill="#F5F5F5" stroke="#00247D" stroke-width="0.15" stroke-miterlimit="10"/>
<path id="Vector_13" d="M44.3212 38.9375C44.3212 38.9375 43.8712 38.95 43.6337 39.0875C43.4087 39.1875 43.2337 39.3125 42.9712 39.4875C42.9712 39.4875 42.8337 39.65 42.3087 39.55C42.3087 39.55 41.4212 39.3375 41.4212 40.05C41.4212 40.05 40.3087 40.125 40.7587 41.0875C40.7587 41.0875 41.0587 41.8375 41.6837 41.3125C41.6837 41.3125 41.2837 41.875 42.0587 42.1C42.0587 42.1 42.6087 42.25 42.7712 41.6625C42.7712 41.6625 42.8587 41.4375 42.6462 41.1625C42.6462 41.1625 42.9212 41.1125 43.0962 40.825C43.0962 40.825 42.5337 41.55 43.1587 41.825C43.1587 41.825 43.9462 42.0125 43.9962 41.2C43.9962 41.2 43.9212 40.8 44.2337 40.6625C44.2337 40.6625 44.8587 40.5125 45.1212 39.8375C45.1212 39.8375 44.2337 39.35 44.3212 38.9375V38.9375ZM42.4837 31.75C42.4837 31.75 41.7837 31.4375 41.4462 31.75C41.4462 31.75 40.9962 31.475 40.5087 31.75C40.5087 31.75 40.0462 32.05 39.7212 32.4C39.7212 32.4 39.4962 32.5875 39.5712 33.2C39.5712 33.2 39.6962 33.6375 39.6212 33.8375C39.6212 33.8375 39.4712 33.8125 39.1587 34.1875C39.1587 34.1875 38.7837 34.625 38.4087 34.225C38.4087 34.225 38.5337 34.8 39.1837 34.7C39.1837 34.7 38.8712 34.95 39.1337 35.575C39.1337 35.575 39.3462 36.025 39.0087 36.6C39.0087 36.6 39.5837 36.375 39.5712 35.7C39.5712 35.7 39.5087 35.25 39.6962 34.95C39.6962 34.95 39.5087 35.225 39.8962 35.8375C39.8962 35.8375 40.1962 36.2875 39.9587 36.7375C39.9587 36.7375 40.5087 36.5375 40.4587 35.8625C40.3962 35.1875 40.0837 35.4625 40.2837 34.8375C40.2837 34.8375 40.3462 35.1625 40.5087 35.3375C40.6332 35.4425 40.7269 35.5794 40.7797 35.7335C40.8325 35.8876 40.8426 36.0532 40.8087 36.2125C40.8087 36.2125 41.1337 35.7875 41.0587 35.3625C41.0373 35.171 40.9823 34.9848 40.8962 34.8125L41.9337 34.2125L42.4712 33.275L42.4837 31.75Z" fill="#D40000" stroke="black" stroke-width="0.15" stroke-linejoin="round"/>
<path id="Vector_14" d="M39.6211 33.8375C39.6211 33.8375 39.7711 33.8375 39.9211 33.9875C39.9211 33.9875 40.0086 34.1375 40.1711 34.1125M40.8961 34.4375C40.8961 34.4375 40.4461 34.4125 40.3961 34.0625L40.8961 34.4375Z" stroke="black" stroke-width="0.15" stroke-miterlimit="10"/>
<path id="Vector_15" d="M41.5336 33.15C41.5336 33.15 41.3086 33.15 41.1711 33.05C41.1711 33.05 41.0461 32.9625 40.9836 33.1C40.9836 33.1 40.8586 33.3 41.0711 33.3875C41.0711 33.3875 41.3586 33.5375 40.9211 33.8125C40.9211 33.8125 41.4211 33.6125 41.2211 33.3625C41.2211 33.3625 40.9961 33.2125 41.0711 33.15C41.0711 33.15 41.0961 33.1 41.1961 33.15C41.2836 33.225 41.4586 33.2 41.5336 33.15V33.15Z" fill="black"/>
<path id="Vector_16" d="M48.371 34.375L48.621 34.3L46.8835 28.3H46.821L48.371 34.375Z" fill="#784421" stroke="black" stroke-width="0.15"/>
<path id="Vector_17" d="M42.5586 41.0375C42.5586 41.0375 42.1586 40.8 41.8086 41.075C41.8086 41.075 41.8586 40.925 42.1211 40.8625C42.1211 40.8625 42.2586 40.4625 42.6461 40.5C42.6461 40.5 42.4836 40.7 42.2711 40.85C42.2711 40.85 42.5086 40.875 42.5836 41.0375H42.5586Z" fill="black"/>
<path id="Vector_18" d="M41.1211 41.975C41.1211 41.975 40.4711 41.575 40.8336 40.8875C40.8336 40.8875 40.9336 40.7 41.1336 40.7375C41.1336 40.7375 41.5336 40.8625 41.2211 41.425C41.2211 41.425 41.0586 41.7875 41.1336 41.9875L41.1211 41.975ZM42.4461 42.6375C42.4461 42.6375 41.5211 42.2125 41.8086 41.4875C41.8086 41.4875 41.8961 41.2375 42.0961 41.2625C42.0961 41.2625 42.4586 41.2875 42.3836 41.7625C42.3836 41.7625 42.2836 42.2125 42.4461 42.6375Z" fill="#64B4D1" stroke="#00247D" stroke-width="0.15" stroke-miterlimit="2.6"/>
<path id="Vector_19" d="M42.2462 39.95C42.2462 39.95 41.9712 40.1625 41.8712 40.3C41.8712 40.3 41.7462 40.15 41.5962 40.075C41.5962 40.075 41.7712 40.0375 41.8587 40.1125C41.8587 40.1125 42.0087 39.9875 42.2462 39.95V39.95Z" fill="black"/>
<path id="Vector_20" d="M43.071 42.45C43.071 42.45 43.821 42.275 43.671 41.5125C43.671 41.5125 43.596 41.1875 43.296 41.2375C43.296 41.2375 42.921 41.3375 43.1585 41.8125C43.1585 41.8125 43.3085 42.1375 43.071 42.45V42.45Z" fill="#64B4D1" stroke="#00247D" stroke-width="0.15" stroke-miterlimit="2.6"/>
<path id="Vector_21" d="M46.3711 26.5875L47.0836 26.825C47.0836 26.825 47.7461 27.1125 48.6086 26.825L49.2711 26.575L48.8211 27.25V27.6125L49.0961 28.0125C49.0961 28.0125 48.9211 28.0875 48.4211 27.7625C48.4211 27.7625 47.8711 27.3375 47.2086 27.7625C47.2086 27.7625 46.8336 28.0125 46.5461 28.0125L46.9711 27.5375L46.8086 27.1L46.3586 26.5625L46.3711 26.5875Z" fill="#F5CE00" stroke="black" stroke-width="0.15" stroke-miterlimit="2.6"/>
<path id="Vector_22" d="M43.3585 41.5625C43.3585 41.5625 43.3835 41.5125 43.3585 41.5L43.296 41.525C43.296 41.525 43.221 41.65 43.296 41.825C43.296 41.825 43.3585 41.9375 43.321 42.05L43.3335 42.1C43.3335 42.1 43.371 42.0875 43.371 42.05C43.371 42.05 43.4085 41.95 43.3335 41.825C43.3335 41.825 43.2585 41.65 43.3585 41.5625V41.5625Z" fill="#F5F5F5"/>
<path id="Vector_23" d="M53.4085 27.9625C53.4085 27.9625 52.896 28.2375 52.6585 27.925C52.6585 27.925 52.4085 27.375 53.0335 27.175C53.0335 27.175 52.6835 26.775 53.0335 26.4C53.0335 26.4 53.2335 26.2 53.5585 26.3375C53.5585 26.3375 53.7085 26.05 54.021 26.0625C54.021 26.0625 54.321 26.0625 54.4085 26.375C54.4085 26.375 54.8085 26.225 55.0335 26.45C55.0335 26.45 55.3835 26.85 54.871 27.175L54.521 27.2125L54.1585 27.0375L53.771 27.15C53.771 27.15 53.871 27.55 53.4085 27.9625V27.9625Z" fill="#D40000" stroke="black" stroke-width="0.15" stroke-linejoin="round"/>
<path id="Vector_24" d="M49.2711 27.55C49.2711 27.55 49.2711 27.65 49.1711 27.675C49.1711 27.675 49.0461 27.7125 48.9711 27.5625V27.525C48.9711 27.4625 48.9461 27.275 49.1461 27.1125C49.1461 27.1125 49.4836 26.85 50.1086 27.175C50.7115 27.514 51.3287 27.8268 51.9586 28.1125C51.9586 28.1125 52.3336 28.3125 52.9336 28.3375C52.9336 28.3375 53.7586 28.4 54.0961 27.825C54.0961 27.825 54.3711 27.3875 54.0961 27.1C54.0961 27.1 53.9961 26.975 53.8211 27C53.7301 27.0203 53.6499 27.0737 53.5961 27.15C53.5961 27.15 53.4586 27.325 53.5961 27.4625C53.5961 27.4625 53.7961 27.5875 53.8711 27.3375C53.8711 27.3625 53.9336 27.55 53.8336 27.7C53.8336 27.7 53.3336 28.45 51.9586 27.6875L50.1836 26.675C50.1836 26.675 49.2836 26.2125 48.7336 26.9375C48.7336 26.9375 48.2961 27.5375 48.8586 27.925C48.8586 27.925 49.2836 28.175 49.5336 27.775C49.5336 27.775 49.7586 27.3875 49.4086 27.225C49.4086 27.225 49.1211 27.075 48.9961 27.375C48.8711 27.675 49.2211 27.75 49.2461 27.5375C49.2461 27.5375 49.2461 27.4875 49.2836 27.5375L49.2711 27.55Z" fill="#F5CE00" stroke="black" stroke-width="0.15" stroke-miterlimit="2.6"/>
<path id="Vector_25" d="M42.1587 30.65V29.525C42.1587 29.425 42.1587 29.375 42.3087 29.25C42.4337 29.15 42.5837 28.9625 42.7712 29.4625C42.7712 29.4625 43.1712 29.025 43.3087 28.9625C43.3087 28.9625 43.5462 28.775 43.7087 29.05C43.7087 29.05 43.9212 28.725 44.0837 28.65C44.0837 28.65 44.4837 28.4 44.4962 29.175L44.8087 28.875C44.8087 28.875 45.0587 28.6875 45.3337 28.9625C45.3337 28.9625 45.7837 29.4125 45.8337 29.5375C45.8337 29.5375 45.9462 29.6625 45.9587 29.875C45.9587 29.875 45.9587 30.125 46.0837 30.25C46.0837 30.25 46.2337 30.375 46.3587 30.4C46.3587 30.4 46.6712 30.4125 46.8087 30.725C46.8087 30.725 46.8587 30.6625 47.0212 32.125V34.8125L45.2212 36.95L42.3212 36.125L41.1712 35.6375L40.9087 34.8125L42.0337 34.075L42.6212 32.45L42.4462 31.2875L42.1587 30.6375V30.65Z" fill="#E4CB5E" stroke="black" stroke-width="0.15" stroke-miterlimit="2.6"/>
<path id="Vector_26" d="M50.1211 32.05L50.2711 31.8625L50.5836 31.6125C50.5836 31.6125 51.0836 32.9125 51.1086 33.2V33.6C51.1086 33.6 51.8586 33.8 51.9961 34.9375L51.3711 36.0875L50.4086 35.5375L50.1211 35.35V32.0625V32.05Z" fill="#784421" stroke="black" stroke-width="0.15"/>
<path id="Vector_27" d="M40.9586 41.05C40.9586 41.05 40.9836 41.0125 40.9586 40.975L40.8961 41.025C40.8961 41.025 40.6961 41.2375 40.8586 41.575C40.8586 41.575 40.8586 41.625 40.9086 41.6C40.9086 41.6 40.9336 41.6 40.9086 41.5625C40.9086 41.5625 40.7586 41.2625 40.9586 41.0625V41.05Z" fill="#F5F5F5"/>
<path id="Vector_28" d="M44.4962 29.175C44.4962 29.175 44.4962 29.4625 44.5837 29.675C44.6587 29.875 44.9587 30.2375 44.9587 30.4125M43.8712 40.825C43.8712 40.825 43.8837 40.725 43.8337 40.625C43.8337 40.625 43.7837 40.55 43.7962 40.4375L43.8712 40.825Z" stroke="black" stroke-width="0.15" stroke-miterlimit="10"/>
<path id="Vector_29" d="M51.2961 38.9375C51.2961 38.9375 51.7461 38.95 51.9836 39.0875C52.2211 39.1875 52.3961 39.3125 52.6711 39.4875C52.6711 39.4875 52.7961 39.65 53.3086 39.55C53.3086 39.55 54.2211 39.3375 54.2211 40.05C54.2211 40.05 55.3086 40.125 54.8586 41.0875C54.8586 41.0875 54.5586 41.8375 53.9336 41.3125C53.9336 41.3125 54.3336 41.875 53.5586 42.1C53.5586 42.1 53.0086 42.25 52.8461 41.6625C52.8461 41.6625 52.7586 41.4375 52.9711 41.1625C52.9711 41.1625 52.7211 41.1125 52.5336 40.825C52.5336 40.825 53.0961 41.55 52.4711 41.825C52.4711 41.825 51.6836 42.0125 51.6336 41.2C51.6336 41.2 51.6961 40.8 51.3961 40.6625C51.3961 40.6625 50.7711 40.5125 50.4961 39.8375C50.4961 39.8375 51.3836 39.35 51.2961 38.9375V38.9375Z" fill="#D40000" stroke="black" stroke-width="0.15" stroke-linejoin="round"/>
<path id="Vector_30" d="M44.471 30.3875L45.4335 35.9125M44.146 30.425L44.896 36.4L44.146 30.425ZM44.321 30.4125L45.1585 35.9875L44.321 30.4125Z" stroke="black" stroke-width="0.15" stroke-miterlimit="10"/>
<path id="Vector_31" d="M45.996 35.4375L46.2585 35.35L44.5085 29.35H44.4585L45.996 35.4375Z" fill="#784421" stroke="black" stroke-width="0.15"/>
<path id="Vector_32" d="M44.896 30.225L46.5835 34.85M44.996 30.1625L46.771 34.6L44.996 30.1625Z" stroke="black" stroke-width="0.15" stroke-miterlimit="10"/>
<path id="Vector_33" d="M42.1211 42.2C42.1211 42.2 41.9086 42.0125 41.9336 41.6625C41.9336 41.6625 41.9336 41.5875 41.9086 41.575C41.9086 41.575 41.8586 41.5625 41.8586 41.65C41.8586 41.65 41.8086 42.0125 42.0586 42.2125C42.0586 42.2125 42.0711 42.25 42.0961 42.2375C42.0961 42.2375 42.1336 42.2375 42.0961 42.2H42.1211Z" fill="#F5F5F5"/>
<path id="Vector_34" d="M44.6211 30.35L45.7461 35.8125M45.0961 30.1L46.8836 34.15L45.0961 30.1Z" stroke="black" stroke-width="0.15" stroke-miterlimit="10"/>
<path id="Vector_35" d="M53.6712 34.375C52.8712 33.925 52.6962 32.95 52.6962 32.95C52.5871 32.3463 52.6611 31.7238 52.9087 31.1625C53.4087 30.0875 54.2837 29.875 54.2837 29.875C54.2837 29.875 53.4337 30.475 53.1837 31.275C53.1837 31.275 53.0087 31.9625 53.1212 32.6125C53.2212 33.3 53.1712 33.125 53.3337 33.65L53.6712 34.4V34.375Z" fill="#F5CE00" stroke="black" stroke-width="0.15" stroke-miterlimit="2.6"/>
<path id="Vector_36" d="M50.2462 31.8375L46.9337 32.9L46.7462 34.4C45.9587 35.5375 44.3462 35.7375 44.3462 35.7375L45.5962 37.075L47.9837 37.575L49.2587 36.6L50.4087 35.55C50.2837 34.9875 50.3462 34.15 50.3462 34.15C50.3462 34 50.4087 33.675 50.4087 33.675C50.4087 33.675 50.2087 32.3375 50.2587 31.8625L50.2462 31.8375Z" fill="#784421" stroke="black" stroke-width="0.15"/>
<path id="Vector_37" d="M45.7336 35.275C45.7336 35.275 48.4836 34.775 50.4086 33.675L51.1086 33.2M46.7961 34.025C46.7961 34.025 48.9836 33.3375 50.2961 32.775L46.7961 34.025Z" stroke="black" stroke-width="0.15" stroke-miterlimit="10"/>
<path id="Vector_38" d="M50.346 35.15C50.346 35.15 47.9835 36.3625 46.646 36.375M51.1085 33.6L50.3585 34.15C50.3585 34.15 47.2835 35.55 44.946 35.6L51.1085 33.6Z" stroke="black" stroke-width="0.15" stroke-miterlimit="10"/>
<path id="Vector_39" d="M53.146 31.75C53.146 31.75 53.846 31.4375 54.1835 31.75C54.1835 31.75 54.6335 31.475 55.146 31.75C55.146 31.75 55.5835 32.05 55.921 32.4C55.921 32.4 56.146 32.5875 56.071 33.2C56.071 33.2 55.946 33.6375 56.021 33.8375C56.021 33.8375 56.171 33.8125 56.471 34.1875C56.471 34.1875 56.871 34.625 57.221 34.225C57.221 34.225 57.1085 34.8 56.471 34.7C56.471 34.7 56.771 34.95 56.496 35.575C56.496 35.575 56.3085 36.025 56.621 36.6C56.621 36.6 56.046 36.375 56.0835 35.7C56.0835 35.7 56.121 35.25 55.9585 34.95C55.9585 34.95 56.121 35.225 55.7335 35.8375C55.7335 35.8375 55.446 36.2875 55.696 36.7375C55.696 36.7375 55.121 36.5375 55.196 35.8625C55.2335 35.1875 55.571 35.4625 55.346 34.8375C55.346 34.8375 55.3085 35.1625 55.146 35.3375C55.0215 35.4425 54.9278 35.5794 54.875 35.7335C54.8221 35.8876 54.8121 36.0532 54.846 36.2125C54.846 36.2125 54.521 35.7875 54.596 35.3625C54.671 34.925 54.7335 34.8125 54.7335 34.8125L53.696 34.2125L53.171 33.275L53.146 31.75Z" fill="#D40000" stroke="black" stroke-width="0.15" stroke-linejoin="round"/>
<path id="Vector_40" d="M41.2462 35.55C41.2462 35.55 41.3462 35.0875 41.7712 35.25C41.7712 35.25 41.9212 34.5 42.7462 34.475C43.5462 34.45 43.5962 35.275 43.5962 35.325C43.5962 35.325 43.8462 34.975 44.2212 35.0125C44.2212 35.0125 44.9212 34.975 44.6837 36.075L44.8087 36.225C44.8087 36.225 45.3087 34.9875 46.3962 35.3C46.3962 35.3 47.4337 35.625 46.7712 36.6375C46.7712 36.6375 47.2837 37.325 47.7212 37.2625C48.1712 37.2 48.5587 37.0625 48.9837 36.2875C49.4337 35.5125 50.4462 35.3875 50.6962 35.4375C50.9462 35.475 51.1587 35.6625 51.1962 35.8375C51.1962 35.8375 51.7462 34.05 53.6837 34.3125L54.4587 34.725L54.7587 34.85L54.3087 36.1L53.2462 38.5L52.4337 38.75L51.5837 38.2625L51.2837 38.4125L51.2712 39.15L50.1462 39.95L49.3712 40.2625L48.5212 40.8625L48.3212 41.3875C48.3212 41.3875 47.8587 41.175 47.3212 41.3875L47.1337 40.9375L46.6337 40.475L44.6962 39.55L44.3462 38.425L43.9962 38.2625L43.5962 38.7125L43.0212 38.7875L42.1587 38.1875L41.2212 35.5625L41.2462 35.55Z" fill="#F5F5F5" stroke="#00247D" stroke-width="0.15" stroke-miterlimit="10"/>
<path id="Vector_41" d="M49.6836 26.75C49.6836 26.75 48.9336 26.725 48.9711 27.5" stroke="black" stroke-width="0.15" stroke-miterlimit="2.6"/>
<path id="Vector_42" d="M54.5461 34.9125C53.2586 34.5125 52.9086 33.125 52.9086 33.125C52.7597 32.478 52.8165 31.8007 53.0711 31.1875C53.6711 29.8125 54.6461 29.8125 54.6461 29.8125C54.7752 29.7906 54.9078 29.8202 55.0153 29.895C55.1229 29.9698 55.1968 30.0838 55.2211 30.2125C55.2586 30.5125 55.0586 30.625 55.0586 30.625C54.7086 30.8125 54.4836 30.5625 54.4836 30.5625C54.3336 30.3625 54.4586 30.2 54.4586 30.2C54.5461 30.075 54.7086 30.15 54.7086 30.15C54.8586 30.175 54.8336 30.35 54.8336 30.35C54.8336 30.35 54.8711 30.15 54.6836 30.125C54.6836 30.125 54.2836 30.0375 53.8336 30.6C53.8336 30.6 53.2336 31.3625 53.2336 32.3625C53.2336 32.3625 53.1586 34.2125 55.0836 34.6875C55.0836 34.6875 54.8711 34.9875 54.4961 36.075C54.4961 36.075 54.0836 37.475 53.6961 38.2375C53.6961 38.2375 53.1586 39.3125 51.9711 38.875C51.9711 38.875 51.2711 38.5625 51.2711 38.0625C51.2711 38.0625 51.2211 37.5875 51.6461 37.5625C51.6461 37.5625 52.0586 37.525 52.0586 37.875C52.0586 37.875 52.0586 38.25 51.6086 38.175C51.6086 38.175 51.4586 38.1375 51.4836 37.9875C51.4836 37.9875 51.5086 37.8375 51.6961 37.9125C51.8961 37.9875 51.6961 37.9125 51.6961 37.9C51.6961 37.9 51.6211 37.8625 51.5461 37.9C51.5461 37.9 51.4711 37.9 51.4711 38.025C51.4711 38.025 51.4711 38.1 51.5711 38.1625L51.7711 38.1875C51.7711 38.1875 51.8961 38.4375 52.1586 38.525C52.3061 38.5691 52.4619 38.5785 52.6137 38.5524C52.7654 38.5264 52.9091 38.4657 53.0336 38.375C53.2012 38.2297 53.3301 38.045 53.4086 37.8375C53.6652 37.2897 53.8865 36.7261 54.0711 36.15C54.0711 36.15 54.2961 35.4375 54.4836 35.0625L54.5461 34.9125Z" fill="#F5CE00" stroke="black" stroke-width="0.15" stroke-miterlimit="2.6"/>
<path id="Vector_43" d="M50.9087 38.425C50.9087 38.425 51.1587 38.4 51.1587 38.6125C51.1587 38.6125 51.1587 38.9125 50.7587 38.85C50.7587 38.85 50.3837 38.775 50.5212 38.35C50.5212 38.35 50.6087 38.0625 50.9712 38.1C50.9712 38.1 51.3087 38.1 51.4712 38.575C51.4712 38.575 51.5837 38.9875 51.3712 39.325C51.1462 39.7 50.5962 39.95 50.3337 40.075C50.3337 40.075 49.2337 40.4875 48.9087 40.7375C48.9087 40.7375 48.4087 41.1 48.6462 41.4375C48.6462 41.4375 48.7337 41.575 48.8462 41.575C48.8462 41.575 48.9962 41.575 49.0212 41.425C49.0212 41.425 49.0212 41.5125 48.9212 41.55C48.9212 41.55 48.8212 41.6 48.7212 41.5125C48.7212 41.5125 48.5962 41.3875 48.6837 41.2125C48.6837 41.2125 48.8212 41.0125 49.1337 41.1375C49.1337 41.1375 49.3837 41.275 49.2837 41.55C49.2837 41.55 49.1837 41.8125 48.8712 41.8C48.8712 41.8 48.6212 41.8 48.4587 41.65C48.2212 41.3875 48.2087 40.9 48.4337 40.65C48.4337 40.65 48.6337 40.3875 49.0337 40.2L50.1587 39.7625C50.4588 39.6506 50.7315 39.4758 50.9587 39.25C50.9587 39.25 51.1212 39.075 51.1837 38.75C51.1837 38.75 51.2212 38.5 51.0712 38.45L50.9212 38.4125L50.9087 38.425Z" fill="#F5CE00" stroke="black" stroke-width="0.15" stroke-miterlimit="2.6"/>
<path id="Vector_44" d="M51.5711 37.8875C51.5711 37.8875 51.2961 37.925 51.4336 38.3125C51.5836 38.675 51.8086 38.775 51.8836 38.8375M50.9336 38.425C50.9336 38.425 51.2086 38.375 51.3711 38.7C51.3711 38.7 51.4586 38.8875 51.4711 39.0125L50.9336 38.425Z" stroke="black" stroke-width="0.15" stroke-miterlimit="2.6"/>
<path id="Vector_45" d="M46.3712 27.55C46.3712 27.55 46.3712 27.65 46.4837 27.675C46.4837 27.675 46.5837 27.7 46.6462 27.5625L46.6587 27.525C46.6587 27.4625 46.6962 27.275 46.4962 27.1125C46.4962 27.1125 46.1587 26.85 45.5337 27.175C45.5337 27.175 45.0337 27.425 44.6962 27.625C44.6962 27.625 43.7962 28.1 43.6837 28.125C43.6837 28.125 43.2962 28.325 42.6962 28.35C42.6962 28.35 41.8712 28.4125 41.5337 27.8375C41.5337 27.8375 41.2712 27.4 41.5337 27.1125C41.5337 27.1125 41.6337 26.9875 41.8212 27.0125C41.8962 27.025 41.9712 27.0625 42.0462 27.1625C42.0462 27.1625 42.1712 27.3375 42.0212 27.475C42.0212 27.475 41.8337 27.6 41.7587 27.35C41.7587 27.375 41.7087 27.55 41.8212 27.725C41.8212 27.725 42.3087 28.4625 43.6712 27.6875L45.4587 26.6875C45.4587 26.6875 46.3462 26.225 46.8962 26.9375C46.8962 26.9375 47.3337 27.5375 46.7712 27.9375C46.7712 27.9375 46.3587 28.1875 46.0962 27.7875C46.0962 27.7875 45.8837 27.4125 46.2212 27.2375C46.2212 27.2375 46.5087 27.0875 46.6462 27.3875C46.7712 27.6875 46.3962 27.7625 46.3837 27.55C46.3837 27.55 46.3837 27.5 46.3587 27.55H46.3712ZM41.9712 34.3875C42.7587 33.95 42.9337 32.95 42.9337 32.95C43.1087 31.95 42.7212 31.1625 42.7212 31.1625C42.2212 30.0875 41.3462 29.875 41.3462 29.875C41.3462 29.875 42.2087 30.475 42.4462 31.275C42.4462 31.275 42.6337 31.9625 42.5212 32.6125C42.4087 33.3 42.4587 33.125 42.2962 33.65L41.9712 34.3875Z" fill="#F5CE00" stroke="black" stroke-width="0.15" stroke-miterlimit="2.6"/>
<path id="Vector_46" d="M45.9585 26.75C45.9585 26.75 46.7085 26.725 46.6585 27.5" stroke="black" stroke-width="0.15" stroke-miterlimit="2.6"/>
<path id="Vector_47" d="M41.0712 34.9125C42.3712 34.5125 42.7087 33.125 42.7087 33.125C42.8616 32.4793 42.8091 31.802 42.5587 31.1875C41.9712 29.8125 40.9837 29.8125 40.9837 29.8125C40.8565 29.7941 40.7271 29.8254 40.6224 29.8999C40.5176 29.9743 40.4456 30.0863 40.4212 30.2125C40.3712 30.5125 40.5837 30.625 40.5837 30.625C40.9212 30.8125 41.1462 30.5625 41.1462 30.5625C41.2962 30.3625 41.1712 30.2 41.1712 30.2C41.0837 30.075 40.9212 30.15 40.9212 30.15C40.7712 30.175 40.7962 30.35 40.7962 30.35C40.7962 30.35 40.7587 30.15 40.9587 30.125C40.9587 30.125 41.3587 30.0375 41.8087 30.6C41.8087 30.6 42.3962 31.3625 42.3962 32.3625C42.3962 32.3625 42.4712 34.2125 40.5462 34.6875C40.5462 34.6875 40.7587 34.9875 41.1337 36.075C41.1337 36.075 41.5462 37.475 41.9462 38.2375C41.9462 38.2375 42.4712 39.3125 43.6712 38.875C43.6712 38.875 44.3712 38.5625 44.3712 38.0625C44.3712 38.0625 44.4087 37.5875 43.9962 37.5625C43.9962 37.5625 43.5712 37.525 43.5712 37.875C43.5712 37.875 43.5712 38.25 44.0212 38.175C44.0212 38.175 44.1712 38.1375 44.1462 37.9875C44.1462 37.9875 44.1337 37.8375 43.9337 37.9125C43.7462 37.9875 43.9337 37.9125 43.9337 37.9C43.9337 37.9 44.0087 37.8625 44.0837 37.9C44.0837 37.9 44.1587 37.9 44.1587 38.025C44.1587 38.025 44.1587 38.1 44.0712 38.1625L43.8712 38.1875C43.8712 38.1875 43.7462 38.4375 43.4712 38.525C43.3243 38.5742 43.1675 38.5863 43.0148 38.5601C42.8621 38.534 42.7183 38.4703 42.5962 38.375C42.4285 38.2297 42.2997 38.045 42.2212 37.8375C41.9646 37.2897 41.7433 36.726 41.5587 36.15C41.5587 36.15 41.3462 35.4375 41.1587 35.0625L41.0837 34.9125H41.0712Z" fill="#F5CE00" stroke="black" stroke-width="0.15" stroke-miterlimit="2.6"/>
<path id="Vector_48" d="M44.721 38.425C44.721 38.425 44.4835 38.4 44.4835 38.6125C44.4835 38.6125 44.4835 38.9125 44.871 38.85C44.871 38.85 45.246 38.775 45.121 38.35C45.121 38.35 45.021 38.0625 44.6585 38.1C44.6585 38.1 44.321 38.1 44.171 38.575C44.171 38.575 44.046 38.9875 44.2585 39.325C44.4835 39.7 45.0335 39.95 45.3085 40.075C45.3085 40.075 46.396 40.4875 46.721 40.7375C46.721 40.7375 47.221 41.1 46.9835 41.4375C46.9835 41.4375 46.9085 41.575 46.7835 41.575C46.7835 41.575 46.6335 41.575 46.621 41.425C46.621 41.425 46.621 41.5125 46.7085 41.55C46.7085 41.55 46.8085 41.6 46.9085 41.5125C46.9085 41.5125 47.0335 41.3875 46.946 41.2125C46.946 41.2125 46.821 41.0125 46.5085 41.1375C46.5085 41.1375 46.246 41.275 46.3585 41.55C46.3585 41.55 46.4585 41.8125 46.771 41.8C46.771 41.8 47.0085 41.8 47.171 41.65C47.4085 41.3875 47.421 40.9 47.2085 40.65C47.2085 40.65 47.0085 40.3875 46.621 40.2C46.371 40.125 45.9335 39.9375 45.4835 39.7625C45.1806 39.6562 44.9067 39.4808 44.6835 39.25C44.6835 39.25 44.521 39.075 44.4585 38.75C44.4585 38.75 44.4085 38.5 44.5585 38.45L44.7085 38.4125H44.721V38.425Z" fill="#F5CE00" stroke="black" stroke-width="0.15" stroke-miterlimit="2.6"/>
<path id="Vector_49" d="M43.7087 29.05L44.0087 29.875L44.3712 30.725M44.6962 38.425C44.6962 38.425 44.4212 38.375 44.2587 38.7C44.2587 38.7 44.1712 38.8875 44.1587 39.0125L44.6962 38.425ZM44.0712 37.8875C44.0712 37.8875 44.3337 37.925 44.1962 38.3125C44.0587 38.675 43.8212 38.775 43.7587 38.8375L44.0712 37.8875ZM47.1837 27.45C47.1837 27.45 47.8212 27.0375 48.4837 27.4875L47.1837 27.45ZM43.5212 31.4C43.5212 31.4 43.6087 31.025 43.1837 30.4L42.7837 29.4625L43.5212 31.4Z" stroke="black" stroke-width="0.15" stroke-miterlimit="2.6"/>
<path id="Vector_50" d="M46.0211 31.0375C46.0211 31.0375 46.4336 31.2375 46.3836 32.2875C46.3836 32.2875 46.3211 32.9125 46.5086 33.25M43.8086 31.7875C43.8086 31.7875 44.0586 32.05 44.0336 32.4875L43.8086 31.7875ZM43.0336 31.5C43.0336 31.5 43.2836 31.625 43.2586 32.35C43.2586 32.35 43.2586 32.85 43.6336 33.125L43.0336 31.5ZM42.9836 33.3C42.9836 33.3 43.8086 33.2125 43.8711 33.7375C43.8711 33.7375 43.8711 34.2375 44.1711 34.275C44.1711 34.275 44.5836 34.3125 44.6711 34.725L42.9836 33.3ZM43.2461 33.875C43.2461 33.875 43.3961 34.0875 43.5461 34.2L43.2461 33.875ZM44.3211 33.325C44.3211 33.325 44.5336 33.6625 44.5711 33.8375L44.3211 33.325ZM45.2461 29.4625C45.2461 29.4625 45.4336 29.725 45.6211 29.8375L45.2461 29.4625Z" stroke="black" stroke-width="0.15" stroke-miterlimit="10"/>
<path id="Vector_51" d="M44.0586 30.325L44.0961 30.425C44.0961 30.425 44.8461 30.4625 45.2461 29.95L45.1961 29.85C45.1961 29.85 44.5461 29.8125 44.0711 30.325H44.0586Z" fill="#784421" stroke="black" stroke-width="0.15"/>
<path id="Vector_52" d="M46.7461 34.3125C46.7461 34.3125 49.3336 33.5625 50.3336 33.1125" stroke="black" stroke-width="0.15" stroke-miterlimit="10"/>
<path id="Vector_53" d="M46.4835 29.5625L46.4585 29.4875L47.7085 28.9875L47.746 29.0875L46.4835 29.5625Z" fill="#784421" stroke="black" stroke-width="0.15"/>
<path id="Vector_54" d="M50.2585 31.3125L50.4335 31.725M46.5835 29.5125L47.4335 33.675L46.5835 29.5125ZM46.7335 29.475L47.7085 33.6L46.7335 29.475ZM46.896 29.4L47.9585 33.5125L46.896 29.4ZM47.321 29.25L48.7585 32.325L47.321 29.25ZM47.5085 29.2L49.046 32.225L47.5085 29.2ZM47.646 29.125L49.3085 32.1625L47.646 29.125ZM47.371 33.7L48.0335 33.5L47.371 33.7ZM46.8835 33.3C46.8835 33.3 48.796 32.7375 50.2585 32.15L46.8835 33.3ZM46.8585 33.5C46.8585 33.5 49.2835 32.875 50.2585 32.4L46.8585 33.5ZM47.596 35.475L47.721 35.8875L48.071 35.7625L47.9585 35.375L47.596 35.475ZM48.5835 35.2125L48.7085 35.5875L49.046 35.475L48.921 35.1L48.5835 35.2125ZM46.921 32.9L46.896 32.375L50.0835 31.4125L50.2585 31.8625L46.921 32.9ZM48.2585 31.9625L48.421 32.4375L48.2585 31.9625ZM49.3585 31.6375L49.571 32.0875L49.3585 31.6375ZM49.621 31.55L49.821 31.9625L49.621 31.55ZM49.8835 31.4625L50.071 31.9125L49.8835 31.4625ZM50.071 31.4125L50.4335 31.2125L50.5835 31.6L50.071 31.4125Z" stroke="black" stroke-width="0.15" stroke-miterlimit="10"/>
<path id="Vector_55" d="M45.4837 36.5125C45.4837 36.5125 45.6962 36.025 46.1337 36.0625C46.1337 36.0625 45.9337 36.1625 45.9337 36.375C45.9337 36.375 45.8962 36.75 46.2837 36.775C46.2837 36.775 46.5962 36.825 46.7712 36.65M42.3587 37.3875C42.3587 37.3875 41.7337 36.75 42.3587 36.1375C42.3587 36.1375 41.6712 35.8125 41.7712 35.2625L42.3587 37.3875ZM43.4712 37.8875C43.4712 37.8875 42.8212 37.975 43.0087 36.7125C43.0087 36.7125 42.7462 37.2125 42.6462 37.4625C42.6071 37.5868 42.6104 37.7206 42.6557 37.8428C42.7009 37.965 42.7855 38.0687 42.8962 38.1375C43.0212 38.2125 43.5962 38.3625 43.7712 37.9875L43.4712 37.8875ZM42.7462 35.9625C42.7462 35.9625 42.4712 36.2 42.6712 36.6375L42.7462 35.9625ZM43.0087 36.0125C43.0087 36.0125 43.0337 36.45 43.2587 36.6875L43.0087 36.0125ZM43.2087 35.85C43.2087 35.85 43.2087 36.35 43.5587 36.675L43.2087 35.85ZM43.3837 35.675C43.3837 35.675 43.3837 36.2375 43.7962 36.6L43.3837 35.675Z" stroke="#00247D" stroke-width="0.15" stroke-miterlimit="10"/>
<path id="Vector_56" d="M51.2086 35.8375C51.2086 35.8375 51.2961 36.225 51.2086 36.4625M46.5586 38.6375C46.5586 38.6375 45.4336 38.1125 45.5586 37.375C45.5586 37.375 45.6086 36.925 46.0586 36.7L46.5586 38.6375ZM45.8086 37.175C45.8086 37.175 45.7086 37.4875 45.9336 37.7125L45.8086 37.175ZM46.0586 36.9625C46.0586 36.9625 45.9211 37.3125 46.1586 37.5625L46.0586 36.9625ZM46.3336 36.775C46.3336 36.775 46.1711 37.075 46.3586 37.3375L46.3336 36.775ZM45.3211 38.7125C45.3211 38.7125 45.9211 39.25 46.3961 39.25L45.3211 38.7125ZM45.1211 38.8875C45.1211 38.8875 45.6961 39.3375 46.0461 39.4125L45.1211 38.8875ZM44.9211 39.0125C44.9211 39.0125 45.6211 39.625 46.0461 39.6625L44.9211 39.0125ZM47.7586 40.2375C47.7586 40.2375 47.0836 40.6125 47.6211 41.0125L47.7586 40.2375ZM47.3211 39.8375L48.4461 39.2625L47.3211 39.8375ZM47.5961 40.0375C47.5961 40.0375 48.7336 39.35 49.0586 39.2L47.5961 40.0375ZM48.1836 40.1C48.1836 40.1 49.1461 39.45 49.6836 39.1625L48.1836 40.1ZM48.8211 40.05C48.8211 40.05 49.4961 39.55 50.1336 39.1625L48.8211 40.05ZM50.3586 38.525C50.3586 38.525 50.0336 38.0375 48.9586 38.525C48.9586 38.525 49.3586 38.1625 50.1336 37.875L50.3586 38.525Z" stroke="#00247D" stroke-width="0.15" stroke-miterlimit="10"/>
<path id="Vector_57" d="M51.5087 32.5625C51.5087 32.5625 51.6087 32.75 51.5087 32.9M49.4837 37.7125C49.4837 37.7125 49.6962 37.3875 50.2712 37.2125C50.2712 37.2125 50.4212 37.5875 50.8587 37.525C50.8587 37.525 51.5212 37.3875 51.3087 36.65C51.3087 36.65 51.1837 36.125 50.4212 36.0625L49.4837 37.7125ZM52.6712 35.15C52.6712 35.15 53.4462 35.3 53.4212 35.9125C53.4212 35.9125 53.5087 36.8625 52.5087 37.0375L52.6712 35.15ZM53.3212 35.5375C53.3212 35.5375 53.5337 35.075 54.0087 34.8875L53.3212 35.5375ZM53.4462 34.6125C53.4462 34.6125 53.6462 34.9625 53.7837 35L53.4462 34.6125ZM53.3337 34.875L53.5837 35.1875L53.3337 34.875ZM53.2587 35.125C53.3155 35.2008 53.3829 35.2681 53.4587 35.325L53.2587 35.125ZM49.2837 31.475C49.2837 31.475 49.4337 31.225 49.8212 31.325L49.2837 31.475ZM51.3462 33.3C51.3462 33.3 51.5837 32.325 52.3962 32.675L51.3462 33.3ZM52.0712 32.6C52.0712 32.6 52.1462 32.15 51.9462 31.9125L52.0712 32.6Z" stroke="#00247D" stroke-width="0.15" stroke-miterlimit="10"/>
<path id="Vector_58" d="M53.1836 42.625C53.1836 42.625 54.1086 42.2125 53.8336 41.4875C53.8336 41.4875 53.7461 41.2375 53.5336 41.2625C53.5336 41.2625 53.1711 41.275 53.2336 41.7625C53.2336 41.7625 53.3586 42.2375 53.1711 42.6375L53.1836 42.625Z" fill="#64B4D1" stroke="#00247D" stroke-width="0.15" stroke-miterlimit="2.6"/>
<path id="Vector_59" d="M53.5211 42.2C53.5211 42.2 53.7211 42.0125 53.6961 41.6625C53.6961 41.6625 53.6836 41.5875 53.7086 41.575C53.7086 41.575 53.7586 41.5625 53.7586 41.65C53.7586 41.65 53.8211 42.0125 53.5711 42.2125C53.5711 42.2125 53.5711 42.25 53.5336 42.2375C53.5336 42.2375 53.5086 42.2375 53.5211 42.2V42.2Z" fill="#F5F5F5"/>
<path id="Vector_60" d="M54.4962 41.975C54.4962 41.975 55.1586 41.575 54.7961 40.8875C54.7961 40.8875 54.6962 40.7 54.4962 40.7375C54.4962 40.7375 54.0961 40.8625 54.4086 41.425C54.4086 41.425 54.5587 41.7875 54.4962 41.9875V41.975Z" fill="#64B4D1" stroke="#00247D" stroke-width="0.15" stroke-miterlimit="2.6"/>
<path id="Vector_61" d="M54.6712 41.05C54.6712 41.05 54.6337 41.0125 54.6712 40.975L54.7087 41.025C54.7087 41.025 54.9087 41.2375 54.7587 41.575C54.7587 41.575 54.7337 41.625 54.6962 41.6V41.5625C54.6962 41.5625 54.8462 41.2625 54.6712 41.0625V41.05Z" fill="#F5F5F5"/>
<path id="Vector_62" d="M52.546 42.45C52.546 42.45 51.821 42.275 51.9585 41.5125C51.9585 41.5125 52.021 41.1875 52.3335 41.2375C52.3335 41.2375 52.7085 41.3375 52.471 41.8125C52.471 41.8125 52.321 42.1375 52.546 42.45V42.45Z" fill="#64B4D1" stroke="#00247D" stroke-width="0.15" stroke-miterlimit="2.6"/>
<path id="Vector_63" d="M52.2712 41.5625C52.2712 41.5625 52.2462 41.5125 52.2712 41.5C52.2712 41.5 52.3087 41.5 52.3212 41.525C52.3212 41.525 52.3961 41.65 52.3461 41.825C52.3461 41.825 52.2836 41.9375 52.3086 42.05C52.3086 42.05 52.3086 42.0875 52.2836 42.1L52.2461 42.05C52.2461 42.05 52.2211 41.95 52.2836 41.825C52.2836 41.825 52.3586 41.65 52.2836 41.5625H52.2712Z" fill="#F5F5F5"/>
<path id="Vector_64" d="M53.0711 41.0375C53.0711 41.0375 53.4836 40.8 53.8211 41.075C53.8211 41.075 53.7836 40.925 53.5211 40.8625C53.5211 40.8625 53.3836 40.4625 52.9961 40.5C52.9961 40.5 53.1461 40.7 53.3711 40.85C53.3711 40.85 53.1461 40.875 53.0711 41.0375V41.0375ZM53.3711 39.95C53.3711 39.95 53.6711 40.1625 53.7711 40.3C53.7711 40.3 53.8711 40.15 54.0211 40.075C54.0211 40.075 53.8586 40.0375 53.7711 40.1125C53.7711 40.1125 53.6211 39.9875 53.3836 39.95H53.3711Z" fill="black"/>
<path id="Vector_65" d="M56.0086 33.8375C56.0086 33.8375 55.8586 33.8375 55.7211 33.9875C55.7211 33.9875 55.6211 34.1375 55.4711 34.1125M51.7586 40.825C51.7586 40.825 51.7336 40.725 51.8086 40.625C51.8086 40.625 51.8461 40.55 51.8336 40.4375L51.7586 40.825ZM54.7586 34.4375C54.7586 34.4375 55.1836 34.4125 55.2586 34.0625L54.7586 34.4375Z" stroke="black" stroke-width="0.15" stroke-miterlimit="10"/>
<path id="Vector_66" d="M54.1211 33.15C54.1211 33.15 54.3336 33.15 54.4586 33.05C54.4586 33.05 54.5836 32.9625 54.6711 33.1C54.6711 33.1 54.7961 33.3 54.5586 33.3875C54.5586 33.3875 54.2961 33.5375 54.7211 33.8125C54.7211 33.8125 54.2086 33.6125 54.4211 33.3625C54.4211 33.3625 54.6461 33.2125 54.5586 33.15C54.5586 33.15 54.5336 33.1 54.4336 33.15C54.3461 33.225 54.1836 33.2 54.1086 33.15H54.1211Z" fill="black"/>
<path id="Vector_67" d="M54.4087 27.7C54.4087 27.7 54.5212 27.55 54.4712 27.15C54.4212 26.75 54.7962 26.6875 54.9337 26.8C54.9337 26.8 55.0837 26.925 54.9337 27.1875C54.827 27.4166 54.6403 27.5988 54.4087 27.7V27.7Z" fill="#64B4D1" stroke="#00247D" stroke-width="0.15" stroke-miterlimit="2.6"/>
<path id="Vector_68" d="M54.5461 27.375C54.5461 27.375 54.6961 27.2375 54.6211 26.925L54.6336 26.9H54.6836C54.6836 26.9 54.7586 27.25 54.6086 27.425C54.6086 27.425 54.5711 27.4625 54.5461 27.425V27.375Z" fill="#F5F5F5"/>
<path id="Vector_69" d="M54.3087 27.55C54.3087 27.55 54.2962 27.375 54.0087 27.1C53.7087 26.8 53.9462 26.55 54.1337 26.55C54.1337 26.55 54.3087 26.55 54.3837 26.8375C54.4441 27.0764 54.4175 27.3289 54.3087 27.55V27.55Z" fill="#64B4D1" stroke="#00247D" stroke-width="0.15" stroke-miterlimit="2.6"/>
<path id="Vector_70" d="M54.2586 27.175C54.2586 27.175 54.2586 26.975 53.9961 26.7625V26.7125H54.0336C54.0336 26.7125 54.3211 26.9375 54.3211 27.1875C54.3211 27.1875 54.3211 27.225 54.2961 27.225C54.2961 27.225 54.2586 27.225 54.2586 27.175Z" fill="#F5F5F5"/>
<path id="Vector_71" d="M53.9087 27.4125C53.9087 27.4125 53.8337 27.2875 53.4712 27.15C53.1212 27.025 53.2087 26.7125 53.3462 26.65C53.3462 26.65 53.5212 26.5875 53.6837 26.7875C53.8314 26.962 53.9113 27.1839 53.9087 27.4125Z" fill="#64B4D1" stroke="#00247D" stroke-width="0.15" stroke-miterlimit="2.6"/>
<path id="Vector_72" d="M53.7461 27.1625C53.7461 27.1625 53.6711 26.9875 53.3336 26.9C53.3336 26.9 53.3086 26.9 53.3086 26.8625C53.3086 26.8625 53.3086 26.8375 53.3586 26.85C53.3586 26.85 53.7086 26.925 53.8211 27.15L53.7961 27.1875C53.7961 27.1875 53.7711 27.1875 53.7586 27.1625H53.7461Z" fill="#F5F5F5"/>
<path id="Vector_73" d="M54.1212 27.55C54.1212 27.55 53.9587 27.6125 53.5712 27.425C53.1962 27.2375 53.0211 27.5625 53.0961 27.7125C53.0961 27.7125 53.1587 27.9125 53.4587 27.8625C53.7128 27.8487 53.9531 27.7419 54.1337 27.5625L54.1212 27.55Z" fill="#64B4D1" stroke="#00247D" stroke-width="0.15" stroke-miterlimit="2.6"/>
<path id="Vector_74" d="M53.246 27.675C53.246 27.675 53.4085 27.8 53.721 27.675H53.771C53.771 27.675 53.771 27.7 53.746 27.7125C53.746 27.7125 53.4085 27.8625 53.1835 27.725C53.1835 27.725 53.1585 27.725 53.1835 27.6875H53.2335L53.246 27.675Z" fill="#F5F5F5"/>
<path id="Vector_75" d="M53.571 26.3375C53.571 26.3375 53.7585 26.4375 53.721 26.65" stroke="black" stroke-width="0.15" stroke-miterlimit="2.6"/>
<path id="Vector_76" d="M54.4087 26.375C54.4087 26.375 54.4837 26.6125 54.4087 26.75" stroke="black" stroke-width="0.15" stroke-miterlimit="10"/>
<path id="Vector_77" d="M41.1961 27.7C41.1961 27.7 41.0836 27.55 41.1336 27.15C41.1711 26.725 40.8211 26.6875 40.6836 26.8C40.6836 26.8 40.5336 26.925 40.6711 27.1875C40.7778 27.4166 40.9645 27.5988 41.1961 27.7V27.7Z" fill="#64B4D1" stroke="#00247D" stroke-width="0.15" stroke-miterlimit="2.6"/>
<path id="Vector_78" d="M41.0586 27.375C41.0586 27.375 40.9336 27.2375 40.9836 26.925V26.9H40.9211C40.9211 26.9 40.8586 27.25 41.0086 27.425C41.0086 27.425 41.0461 27.4625 41.0586 27.425V27.375Z" fill="#F5F5F5"/>
<path id="Vector_79" d="M41.3086 27.55C41.3086 27.55 41.3086 27.375 41.6086 27.1C41.9086 26.8 41.6711 26.55 41.4836 26.55C41.4836 26.55 41.2961 26.55 41.2336 26.8375C41.1732 27.0764 41.1997 27.3289 41.3086 27.55V27.55Z" fill="#64B4D1" stroke="#00247D" stroke-width="0.15" stroke-miterlimit="2.6"/>
<path id="Vector_80" d="M41.3587 27.175C41.3587 27.175 41.3587 26.975 41.6087 26.7625C41.6087 26.7625 41.6337 26.725 41.6087 26.7125H41.5837C41.5837 26.7125 41.2837 26.9375 41.2837 27.1875C41.2837 27.1875 41.2837 27.225 41.3212 27.225C41.3212 27.225 41.3587 27.225 41.3587 27.175V27.175Z" fill="#F5F5F5"/>
<path id="Vector_81" d="M41.6961 27.4125C41.6961 27.4125 41.7711 27.2875 42.1461 27.15C42.4836 27.025 42.3961 26.7125 42.2461 26.65C42.2461 26.65 42.0961 26.5875 41.9211 26.7875C41.7733 26.962 41.6935 27.1839 41.6961 27.4125Z" fill="#64B4D1" stroke="#00247D" stroke-width="0.15" stroke-miterlimit="2.6"/>
<path id="Vector_82" d="M41.8711 27.1625C41.8711 27.1625 41.9336 26.9875 42.2586 26.9C42.2586 26.9 42.2961 26.9 42.2961 26.8625C42.2961 26.8625 42.2961 26.8375 42.2586 26.85C42.2586 26.85 41.9086 26.925 41.8086 27.15V27.1875C41.8086 27.1875 41.8461 27.1875 41.8586 27.1625H41.8711Z" fill="#F5F5F5"/>
<path id="Vector_83" d="M41.4712 27.55C41.4712 27.55 41.6587 27.6125 42.0212 27.425C42.4087 27.2375 42.5837 27.5625 42.5212 27.7125C42.5212 27.7125 42.4462 27.9125 42.1462 27.8625C41.892 27.8487 41.6518 27.7419 41.4712 27.5625V27.55Z" fill="#64B4D1" stroke="#00247D" stroke-width="0.15" stroke-miterlimit="2.6"/>
<path id="Vector_84" d="M42.3712 27.675C42.3712 27.675 42.2087 27.8 41.8712 27.675H41.8462V27.7125C41.8462 27.7125 42.2087 27.8625 42.4087 27.725C42.4087 27.725 42.4462 27.725 42.4087 27.6875H42.3712V27.675Z" fill="#F5F5F5"/>
<path id="Vector_85" d="M42.0462 26.3375C42.0462 26.3375 41.8462 26.4375 41.8962 26.65" stroke="black" stroke-width="0.15" stroke-miterlimit="2.6"/>
<path id="Vector_86" d="M41.1962 26.375C41.1962 26.375 41.1212 26.6125 41.1962 26.75" stroke="black" stroke-width="0.15" stroke-miterlimit="10"/>
<path id="Vector_87" d="M49.5085 24.2C49.5085 24.2 49.6335 24.5375 49.5835 24.85C49.5335 25.15 49.596 25.2125 49.7085 25.275C49.796 25.3125 49.996 25.225 50.0085 25C50.0085 25 50.2585 25.475 49.796 25.7875C49.796 25.7875 49.446 26 49.171 25.7375C49.0585 25.625 49.021 25.3625 49.071 25.1125C49.071 25.1125 49.146 24.775 49.021 24.425C49.021 24.425 49.2085 24.625 49.171 25.0375C49.171 25.0375 49.0585 25.7875 49.6085 25.7375C49.6085 25.7375 49.9835 25.7375 49.996 25.2875C49.996 25.2875 49.846 25.4375 49.6835 25.3875C49.608 25.3696 49.5424 25.3231 49.5005 25.2578C49.4585 25.1926 49.4435 25.1136 49.4585 25.0375C49.4835 24.8375 49.5335 24.5 49.5085 24.2V24.2ZM48.9085 25.3875C48.9085 25.3875 48.871 25.9875 48.346 26.125C48.346 26.125 48.421 26.0125 48.296 25.7125C48.296 25.7125 48.171 25.5625 48.171 25.3C48.171 25.3 48.0335 25.425 48.2085 25.775C48.3335 25.9875 48.221 26.225 48.196 26.2375C48.146 26.25 49.071 26.1125 48.896 25.4L48.9085 25.3875ZM48.2085 24.825C48.2085 24.825 48.0835 24.675 48.0585 24.35C48.0585 24.0125 48.0085 23.925 47.9585 23.9C47.9585 23.9 48.021 24.1875 48.0085 24.35C48.0085 24.5375 48.0085 24.65 48.046 24.725C48.046 24.725 47.746 24.7625 47.571 24.35C47.4085 23.9375 47.2335 23.975 47.1335 23.975C47.1335 23.975 47.246 23.9875 47.4335 24.35C47.646 24.725 47.7085 24.8125 48.2085 24.8125V24.825ZM46.871 23.95C46.871 23.95 47.021 24.35 47.0335 24.55C47.0335 24.55 46.646 24.425 46.5335 24.1125C46.5335 24.1125 46.1335 24.2375 46.2835 24.7C46.2835 24.7 45.9335 24.575 45.771 24.3C45.771 24.3 45.9585 24.45 46.146 24.5125C46.146 24.5125 46.121 24.125 46.596 23.9875C46.596 23.9875 46.671 24.325 46.9335 24.4L46.871 23.95ZM47.496 23.275C47.496 23.275 47.646 23.4625 47.9085 23.4625C47.9877 23.4705 48.0676 23.4574 48.1401 23.4244C48.2125 23.3915 48.275 23.3399 48.321 23.275C48.321 23.275 48.296 23.6 47.9085 23.6125C47.9085 23.6125 47.496 23.6125 47.496 23.275ZM45.8085 25.5875L46.0585 25.825C46.0585 25.825 46.2085 25.975 46.3085 25.7875C46.3085 25.7875 46.4835 25.4875 46.6835 25.5125C46.6835 25.5125 46.521 25.6 46.3835 25.8875C46.3835 25.8875 46.346 25.975 46.2335 25.9875C46.171 25.9875 46.1085 26.0125 46.0085 25.9L45.8085 25.6V25.5875ZM47.896 21.9125C47.496 21.9125 47.8335 22.2125 47.8335 22.2125C47.8335 22.7125 47.4585 22.8875 47.1835 22.7375C46.896 22.5875 47.121 22.2375 47.121 22.2375C47.121 22.2375 46.821 22.425 46.996 22.725C47.196 23.025 47.721 22.875 47.896 22.6125C48.096 22.8875 48.6085 23.025 48.796 22.725C48.996 22.425 48.6835 22.225 48.6835 22.225C48.6835 22.225 48.9085 22.5875 48.6335 22.725C48.3585 22.8875 47.9585 22.725 47.971 22.225C47.971 22.225 48.321 21.9125 47.9085 21.9125H47.896ZM48.146 21.3625C48.146 21.3625 48.296 21.6125 48.271 21.9875C48.271 21.9875 48.396 21.6125 48.146 21.375V21.3625ZM46.896 21.95C46.896 21.95 46.871 21.675 46.596 21.65C46.596 21.65 46.846 21.8125 46.896 21.95ZM48.9085 21.95C48.9085 21.95 48.946 21.675 49.2085 21.65C49.2085 21.65 48.9835 21.8125 48.9085 21.95ZM46.496 22.35C46.496 22.35 46.7085 22.4125 46.821 22.2625L46.496 22.35ZM45.821 20.7125C45.821 20.7125 46.071 20.7 46.3085 21.05C46.3085 21.05 46.0585 21.175 46.0085 21.25C46.0085 21.25 46.0085 21.125 46.1335 21.0375C46.1335 21.0375 46.0835 20.8625 45.821 20.725V20.7125ZM49.821 20.7125C49.821 20.7125 49.571 20.7 49.346 21.05C49.346 21.05 49.5835 21.175 49.646 21.25C49.646 21.25 49.646 21.125 49.521 21.0375C49.521 21.0375 49.571 20.8625 49.821 20.725V20.7125ZM47.9835 20.9875C47.9835 20.9875 48.196 21.05 48.4585 20.9C48.4585 20.9 48.796 20.725 48.996 20.9C48.996 20.9 48.821 20.8125 48.4585 20.9875C48.4585 20.9875 48.121 21.1875 47.9835 20.9875Z" fill="black"/>
<path id="Vector_88" d="M48.2085 21.2C48.2085 21.2 48.396 20.8875 48.9585 20.95C48.9585 20.95 48.8085 21.4 48.2085 21.2Z" fill="#F5F5F5"/>
<path id="Vector_89" d="M48.5836 21.2375C48.6389 21.2375 48.6836 21.1759 48.6836 21.1C48.6836 21.0241 48.6389 20.9625 48.5836 20.9625C48.5284 20.9625 48.4836 21.0241 48.4836 21.1C48.4836 21.1759 48.5284 21.2375 48.5836 21.2375Z" fill="#784421"/>
<path id="Vector_90" d="M48.5835 21.1875C48.618 21.1875 48.646 21.1483 48.646 21.1C48.646 21.0517 48.618 21.0125 48.5835 21.0125C48.549 21.0125 48.521 21.0517 48.521 21.1C48.521 21.1483 48.549 21.1875 48.5835 21.1875Z" fill="black"/>
<path id="Vector_91" d="M47.021 20.5125C47.021 20.5125 47.3585 20.55 47.5835 20.6625C47.5835 20.6625 47.8085 20.8125 48.0585 20.625C48.0585 20.625 48.346 20.45 48.521 20.2375C48.521 20.2375 48.096 20.525 47.9335 20.575C47.9335 20.575 47.7835 20.45 47.7335 20.2875C47.7335 20.2875 47.746 20.1625 47.9835 19.95C47.9835 19.95 47.671 20.05 47.6085 20.3125C47.652 20.4195 47.7156 20.5171 47.796 20.6C47.796 20.6 47.7335 20.6375 47.5835 20.525C47.5835 20.525 47.246 20.425 47.021 20.525V20.5125ZM47.9085 22.6375C47.621 22.9 47.9085 22.875 47.9085 22.875C47.9085 22.875 48.2085 22.9 47.9085 22.625V22.6375ZM47.7335 20.9875C47.7335 20.9875 47.5085 21.05 47.2335 20.9C47.2335 20.9 46.9085 20.725 46.7085 20.9C46.7085 20.9 46.8835 20.8125 47.246 20.9875C47.246 20.9875 47.596 21.1875 47.746 20.9875H47.7335Z" fill="black"/>
<path id="Vector_92" d="M47.5085 21.2C47.5085 21.2 47.3335 20.8875 46.7585 20.95C46.7585 20.95 46.9085 21.4 47.5085 21.2Z" fill="#F5F5F5"/>
<path id="Vector_93" d="M47.121 21.2375C47.1762 21.2375 47.221 21.1759 47.221 21.1C47.221 21.0241 47.1762 20.9625 47.121 20.9625C47.0658 20.9625 47.021 21.0241 47.021 21.1C47.021 21.1759 47.0658 21.2375 47.121 21.2375Z" fill="#784421"/>
<path id="Vector_94" d="M47.1211 21.1875C47.1556 21.1875 47.1836 21.1483 47.1836 21.1C47.1836 21.0517 47.1556 21.0125 47.1211 21.0125C47.0866 21.0125 47.0586 21.0517 47.0586 21.1C47.0586 21.1483 47.0866 21.1875 47.1211 21.1875Z" fill="black"/>
<path id="Vector_95" d="M58.6587 18.325V38.525C58.6587 43.9125 47.8837 45.675 47.8837 45.675C47.8837 45.675 37.0962 43.925 37.0962 38.525V18.325H58.6712H58.6587Z" stroke="black" stroke-width="0.15"/>
</g>
</g>
<defs>
<clipPath id="clip0_2909_185505">
<path d="M0.246094 32C0.246094 14.3269 14.573 0 32.2461 0V0C49.9192 0 64.2461 14.3269 64.2461 32V32C64.2461 49.6731 49.9192 64 32.2461 64V64C14.573 64 0.246094 49.6731 0.246094 32V32Z" fill="white"/>
</clipPath>
</defs>
</svg>
