<svg width="65" height="64" viewBox="0 0 65 64" fill="none" xmlns="http://www.w3.org/2000/svg">
<g id="Rounded=Brunei Darussalam (BN)">
<g clip-path="url(#clip0_2909_185485)">
<path id="Vector" d="M0.246094 0H64.2461V64H0.246094V0Z" fill="#F7E017"/>
<path id="Vector_2" d="M0.246094 4.45001V32.875L64.2461 46.2125V31.0875L0.246094 4.45001Z" fill="#F5F5F5"/>
<path id="Vector_3" d="M0.246094 19.55V32.8875L64.2461 59.55V46.225L0.246094 19.55Z" fill="black"/>
<g id="Group">
<path id="Vector_4" d="M30.0858 50.6399C28.5256 50.4676 27.0245 49.945 25.6947 49.111C25.4813 48.9688 25.2858 48.8444 25.2502 48.8444C25.2147 48.8444 25.1969 49.0133 25.1969 49.2088C25.1969 49.7777 24.9658 50.0622 24.3969 50.2133C23.8458 50.3555 23.0102 50.0711 22.3347 49.5022C21.6941 48.9541 20.9464 48.5454 20.1391 48.3022C19.2982 48.102 18.4132 48.2158 17.6502 48.6222C17.5748 48.6752 17.4905 48.7143 17.4014 48.7377C17.3036 48.7377 17.3125 48.1244 17.4191 47.9377C17.5525 47.6711 17.8725 47.4222 18.2547 47.2888C18.4502 47.2177 18.6102 47.1288 18.6102 47.0844C18.6102 47.0488 18.5391 46.9066 18.4591 46.7644C18.2014 46.3111 18.308 45.8755 18.7614 45.5288C19.2236 45.1733 20.0058 45.1199 20.6902 45.3777C20.8059 45.427 20.9247 45.4686 21.0458 45.5022C21.1347 45.5022 21.0813 45.3688 20.8325 45.0044C20.548 44.5866 20.4858 44.3822 20.5213 43.8755C20.5458 43.5654 20.6801 43.2741 20.9 43.0542C21.12 42.8342 21.4112 42.6999 21.7213 42.6755C22.2369 42.6399 22.5569 42.8177 23.3213 43.5377C25.3745 45.6043 28.0711 46.9087 30.9658 47.2355C31.7036 47.3244 33.1702 47.2799 34.0324 47.1466C36.7639 46.6909 39.2963 45.4277 41.3035 43.5199C41.8724 42.9866 42.1391 42.8444 42.6102 42.8444C43.0102 42.8444 43.2946 42.9688 43.588 43.2888C43.8546 43.5822 43.9435 43.8577 43.908 44.3111C43.8902 44.5955 43.8458 44.7288 43.6769 45.0133C43.428 45.4133 43.4724 45.4577 43.9613 45.2622C44.6369 44.9955 45.4635 45.1199 45.908 45.5466C46.2991 45.9199 46.3346 46.2933 46.0324 46.7911C45.9169 46.9777 45.828 47.1466 45.828 47.1822C45.828 47.2355 45.9169 47.2533 46.3169 47.3244C46.8502 47.4133 47.1613 47.8044 47.1613 48.4088C47.1613 48.5866 47.1346 48.7377 47.108 48.7377C47.0813 48.7377 46.8769 48.6577 46.6635 48.5688C46.0413 48.3111 45.6858 48.2488 44.9569 48.2577C44.4058 48.2577 44.2191 48.2844 43.8369 48.4088C43.1971 48.6313 42.6079 48.9788 42.1035 49.431C41.5347 49.9377 41.1791 50.0977 40.628 50.0888C40.1124 50.0888 39.7658 49.9377 39.5791 49.6444C39.4813 49.4844 39.4635 49.3955 39.4902 49.0399C39.508 48.8088 39.4991 48.6222 39.4902 48.6222C39.4635 48.6222 39.268 48.7466 39.0458 48.8977C38.5384 49.2615 37.9855 49.5574 37.4013 49.7777C35.0619 50.6251 32.5582 50.9202 30.0858 50.6399Z" fill="#CF1126"/>
<path id="Vector_5" d="M31.0281 46.6844C29.3087 46.5263 27.6428 46.0029 26.1421 45.149C24.6413 44.2952 23.3402 43.1306 22.3259 41.7333C20.157 38.7822 19.4814 34.8799 20.1392 31.3155C20.4948 29.6888 21.2059 28.0622 22.4059 26.9066C21.4166 28.9596 21.1443 31.2851 21.6326 33.5111C22.4325 37.9377 26.1659 41.6799 30.637 42.3288C32.4148 42.8355 34.237 42.2933 35.9259 41.751C39.6592 40.4355 42.5036 36.8977 42.8414 32.9422C43.1347 30.8088 42.8147 28.5777 41.8459 26.6311C42.397 26.9244 43.0903 28.0711 43.4992 28.8355C44.9214 31.5911 44.9836 34.8888 44.1481 37.8311C43.0103 41.5733 40.1481 44.8533 36.3703 46.0444C34.6468 46.5828 32.839 46.7998 31.037 46.6844H31.0281Z" fill="#CF1126"/>
<g id="a">
<path id="Vector_6" d="M13.7569 41.7688C13.5347 41.7333 13.2858 41.9555 13.3747 42.1866C13.5347 42.4177 13.8191 42.5422 14.068 42.6488C14.7238 42.9049 15.4277 43.0141 16.1302 42.9688C16.6456 42.969 17.1571 42.8787 17.6413 42.7022C17.908 42.6133 18.2458 42.5244 18.3524 42.2222C18.468 42.0355 18.2636 41.84 18.0769 41.8755C17.8102 41.9377 17.5436 42.0533 17.2769 42.1333C16.6907 42.2992 16.0797 42.3594 15.4725 42.3111C15.0305 42.2468 14.5997 42.1211 14.1925 41.9377C14.0502 41.8755 13.9169 41.7866 13.7569 41.7688V41.7688Z" fill="#CF1126"/>
<path id="Vector_7" d="M14.0059 40.8444C13.7836 40.8088 13.5881 41.0755 13.677 41.2888C13.8547 41.5377 14.1481 41.6711 14.4236 41.7866C14.9044 41.9752 15.4187 42.0629 15.9347 42.0444H16.0681C16.5069 42.0463 16.9419 41.9617 17.3481 41.7955C17.5881 41.6977 17.8903 41.6 17.997 41.3333C18.077 41.1822 18.0147 40.9688 17.8192 40.9511C17.6592 40.9511 17.5081 41.0577 17.3481 41.1022C16.769 41.3413 16.1413 41.4388 15.517 41.3866C15.1259 41.3422 14.7614 41.2 14.4059 41.0311C14.2725 40.9688 14.157 40.8711 14.0059 40.8533V40.8444Z" fill="#CF1126"/>
<path id="Vector_8" d="M14.3169 39.9644C14.1213 39.9377 13.988 40.16 14.0236 40.3289C14.0502 40.4889 14.1836 40.5955 14.2991 40.6844C14.7831 41.0197 15.3644 41.1853 15.9525 41.1555H16.0947C16.4643 41.1528 16.8287 41.0678 17.1613 40.9066C17.3836 40.8177 17.6413 40.7022 17.7213 40.4444C17.7569 40.3289 17.7747 40.16 17.6413 40.0889C17.4991 40.0177 17.3658 40.1333 17.2413 40.1777C16.8162 40.4011 16.3438 40.52 15.8636 40.5244C15.4513 40.508 15.0503 40.3855 14.6991 40.1689C14.5658 40.1066 14.4591 39.9911 14.3169 39.9644V39.9644Z" fill="#CF1126"/>
<path id="Vector_9" d="M11.0459 26.9066C10.7615 27.2 10.9837 27.7333 10.957 28.1066C11.117 29.28 11.3037 30.4622 11.7392 31.5733C12.2726 32.64 13.4103 33.2177 14.0948 34.1689C14.3437 34.6222 14.2548 35.1733 14.3081 35.68C14.3437 37.04 14.3348 38.4088 14.3081 39.7688C14.9303 40.0888 15.597 40.3911 16.3081 40.2755C16.7259 40.1777 17.5081 40.1155 17.597 39.6977L17.5081 32.6311C17.2681 31.9111 16.5303 31.5378 15.9881 31.0755C15.5349 30.6281 15.1132 30.15 14.7259 29.6444C14.4948 29.2444 13.5792 29.1111 13.9081 29.7866C14.1037 30.3822 14.5926 30.8178 14.717 31.44C14.7437 31.7866 15.1615 32.4177 14.8059 32.6133C14.5869 32.227 14.255 31.9168 13.8548 31.7244C13.4637 31.4311 12.8148 31.3066 12.6726 30.7911C12.5445 30.0578 12.2046 29.378 11.6948 28.8355C11.8281 28.1778 11.6948 27.3511 11.1259 26.9244L11.0459 26.9066V26.9066Z" fill="#CF1126"/>
<path id="Vector_10" d="M11.926 27.04C11.6593 27.0844 11.6771 27.4133 11.7927 27.5911C11.9244 27.9737 11.958 28.3832 11.8905 28.7822C12.3779 29.325 12.7042 29.993 12.8327 30.7111C12.8327 30.9777 13.1171 31.0666 13.3038 31.2C13.7393 31.4755 14.2193 31.68 14.6104 32.0266C14.6904 32.1155 14.7527 32.2044 14.6993 32.0266C14.6371 31.7955 14.6104 31.5466 14.4327 31.3777C14.1838 31.1111 13.8816 30.88 13.526 30.8089C13.4993 30.4355 13.3216 30.0977 13.1616 29.7778C12.9838 29.4666 12.7971 29.1378 12.4949 28.9422C12.4949 28.4 12.4949 27.8311 12.2638 27.3244C12.1927 27.2 12.086 27.0489 11.926 27.04Z" fill="#CF1126"/>
<path id="Vector_11" d="M12.6638 27.2533C12.486 27.3067 12.5216 27.5378 12.5749 27.6711C12.6525 28.0571 12.6824 28.4512 12.6638 28.8444C13.0105 29.1111 13.2149 29.5022 13.4105 29.8755C13.5349 30.1244 13.6416 30.3911 13.686 30.6667C13.9616 30.7555 14.2016 30.9333 14.4149 31.1111C14.326 30.8622 14.1482 30.6667 14.0149 30.4267C13.8816 30.1867 13.7482 29.9289 13.686 29.6533C13.4194 29.3778 13.2771 28.9778 13.3305 28.5867C13.3482 28.1689 13.2149 27.7333 12.9305 27.4133C12.8594 27.3422 12.7705 27.2622 12.6638 27.2533Z" fill="#CF1126"/>
<path id="Vector_12" d="M13.5082 27.3778C13.4015 27.3955 13.3482 27.4844 13.2949 27.5644C13.2682 27.6444 13.366 27.7244 13.3837 27.8133C13.4999 28.1067 13.5426 28.4241 13.5082 28.7378C13.4993 28.96 13.5793 29.1822 13.686 29.36C13.7059 29.2915 13.7465 29.2309 13.8022 29.1864C13.8579 29.1418 13.9259 29.1156 13.9971 29.1111C14.0415 29.1111 14.1215 29.1289 14.086 29.0489C14.0504 28.6222 13.9882 28.1955 13.8371 27.8044C13.7933 27.6504 13.707 27.5118 13.5882 27.4044C13.5704 27.3866 13.5349 27.3689 13.4993 27.3778H13.5082Z" fill="#CF1126"/>
</g>
<g id="Group_2">
<path id="Vector_13" d="M50.7348 41.7688C50.957 41.7333 51.2059 41.9555 51.117 42.1866C50.957 42.4177 50.6726 42.5422 50.4237 42.6488C49.7679 42.9049 49.064 43.0141 48.3615 42.9688C47.8461 42.969 47.3346 42.8787 46.8504 42.7022C46.5837 42.6133 46.2459 42.5244 46.1393 42.2222C46.0237 42.0355 46.2281 41.84 46.4148 41.8755C46.6815 41.9377 46.9481 42.0533 47.2148 42.1333C47.801 42.2992 48.412 42.3594 49.0192 42.3111C49.4612 42.2468 49.892 42.1211 50.2992 41.9377C50.4415 41.8755 50.5748 41.7866 50.7348 41.7688V41.7688Z" fill="#CF1126"/>
<path id="Vector_14" d="M50.4858 40.8444C50.7081 40.8088 50.9036 41.0755 50.8147 41.2888C50.637 41.5377 50.3436 41.6711 50.0681 41.7866C49.5873 41.9752 49.073 42.0629 48.557 42.0444H48.4236C47.9848 42.0463 47.5498 41.9617 47.1436 41.7955C46.9036 41.6977 46.6014 41.6 46.4947 41.3333C46.4147 41.1822 46.477 40.9688 46.6725 40.9511C46.8325 40.9511 46.9836 41.0577 47.1436 41.1022C47.7227 41.3413 48.3504 41.4388 48.9747 41.3866C49.3658 41.3422 49.7303 41.2 50.0858 41.0311C50.2192 40.9688 50.3347 40.8711 50.4858 40.8533V40.8444Z" fill="#CF1126"/>
<path id="Vector_15" d="M50.1748 39.9644C50.3704 39.9377 50.5037 40.16 50.4681 40.3289C50.4415 40.4889 50.3081 40.5955 50.1926 40.6844C49.7086 41.0197 49.1273 41.1853 48.5392 41.1555H48.397C48.0274 41.1528 47.663 41.0678 47.3304 40.9066C47.1081 40.8177 46.8504 40.7022 46.7704 40.4444C46.7348 40.3289 46.717 40.16 46.8504 40.0889C46.9926 40.0177 47.1259 40.1333 47.2504 40.1777C47.6755 40.4011 48.1479 40.52 48.6281 40.5244C49.0404 40.508 49.4414 40.3855 49.7926 40.1689C49.9259 40.1066 50.0326 39.9911 50.1748 39.9644V39.9644Z" fill="#CF1126"/>
<path id="Vector_16" d="M53.4458 26.9066C53.7302 27.2 53.508 27.7333 53.5347 28.1066C53.3747 29.28 53.188 30.4622 52.7525 31.5733C52.2191 32.64 51.0814 33.2177 50.3969 34.1689C50.148 34.6222 50.2369 35.1733 50.1836 35.68C50.148 37.04 50.1569 38.4088 50.1836 39.7688C49.5614 40.0888 48.8947 40.3911 48.1836 40.2755C47.7658 40.1777 46.9836 40.1155 46.8947 39.6977L46.9836 32.6311C47.2236 31.9111 47.9614 31.5378 48.5036 31.0755C48.9568 30.6281 49.3785 30.15 49.7658 29.6444C49.9969 29.2444 50.9125 29.1111 50.5836 29.7866C50.388 30.3822 49.8991 30.8178 49.7747 31.44C49.748 31.7866 49.3302 32.4177 49.6858 32.6133C49.9048 32.227 50.2367 31.9168 50.6369 31.7244C51.028 31.4311 51.6769 31.3066 51.8191 30.7911C51.9472 30.0578 52.2871 29.378 52.7969 28.8355C52.6636 28.1778 52.7969 27.3511 53.3658 26.9244L53.4458 26.9066V26.9066Z" fill="#CF1126"/>
<path id="Vector_17" d="M52.5657 27.04C52.8324 27.0844 52.8146 27.4133 52.699 27.5911C52.5673 27.9737 52.5337 28.3832 52.6012 28.7822C52.1138 29.325 51.7875 29.993 51.659 30.7111C51.659 30.9777 51.3746 31.0666 51.1879 31.2C50.7524 31.4755 50.2724 31.68 49.8813 32.0266C49.8013 32.1155 49.739 32.2044 49.7924 32.0266C49.8546 31.7955 49.8813 31.5466 50.059 31.3777C50.3079 31.1111 50.6101 30.88 50.9657 30.8089C50.9924 30.4355 51.1701 30.0977 51.3301 29.7778C51.5079 29.4666 51.6946 29.1378 51.9968 28.9422C51.9968 28.4 51.9968 27.8311 52.2279 27.3244C52.299 27.2 52.4057 27.0489 52.5657 27.04Z" fill="#CF1126"/>
<path id="Vector_18" d="M51.8281 27.2533C52.0059 27.3067 51.9704 27.5378 51.917 27.6711C51.8394 28.0571 51.8095 28.4512 51.8281 28.8444C51.4815 29.1111 51.277 29.5022 51.0815 29.8755C50.957 30.1244 50.8504 30.3911 50.8059 30.6667C50.5304 30.7555 50.2904 30.9333 50.077 31.1111C50.1659 30.8622 50.3437 30.6667 50.477 30.4267C50.6104 30.1867 50.7437 29.9289 50.8059 29.6533C51.0726 29.3778 51.2148 28.9778 51.1615 28.5867C51.1437 28.1689 51.277 27.7333 51.5615 27.4133C51.6326 27.3422 51.7215 27.2622 51.8281 27.2533Z" fill="#CF1126"/>
<path id="Vector_19" d="M50.9835 27.3778C51.0902 27.3955 51.1435 27.4844 51.1968 27.5644C51.2235 27.6444 51.1257 27.7244 51.1079 27.8133C50.9918 28.1067 50.9491 28.4241 50.9835 28.7378C50.9924 28.96 50.9124 29.1822 50.8057 29.36C50.7858 29.2915 50.7452 29.2309 50.6895 29.1864C50.6338 29.1418 50.5658 29.1156 50.4946 29.1111C50.4502 29.1111 50.3702 29.1289 50.4057 29.0489C50.4413 28.6222 50.5035 28.1955 50.6546 27.8044C50.6984 27.6504 50.7846 27.5118 50.9035 27.4044C50.9213 27.3866 50.9568 27.3689 50.9924 27.3778H50.9835Z" fill="#CF1126"/>
</g>
<path id="Vector_20" d="M31.8636 42.3111C31.2632 42.2461 30.6939 42.0108 30.223 41.6328C29.752 41.2547 29.3991 40.7499 29.2058 40.1777C29.2325 39.9822 29.4725 40.2844 29.588 40.3111C29.8048 40.4403 30.0478 40.5192 30.2991 40.5422C30.6103 40.6755 30.8058 40.9866 31.108 41.1555C31.2503 41.2622 31.748 41.4755 31.6503 41.1288C31.5347 40.9511 31.4547 40.72 31.5614 40.5066C31.7214 40.1422 31.9791 39.8222 32.2458 39.5111C32.4325 39.4488 32.5658 39.8311 32.6991 39.9555C32.8858 40.2488 33.1169 40.6044 33.0014 40.96C32.8947 41.0933 32.8236 41.4933 33.1169 41.3688C33.4725 41.2088 33.7658 40.9422 34.0591 40.6933C34.3258 40.5155 34.6547 40.5066 34.9214 40.3377C35.0547 40.3111 35.3125 40.0622 35.3658 40.1955C35.2066 40.5929 34.9845 40.962 34.708 41.2888C34.2806 41.7963 33.6897 42.1389 33.0369 42.2577C32.6458 42.3288 32.2547 42.3466 31.8636 42.3111V42.3111Z" fill="#CF1126"/>
<path id="Vector_21" d="M33.2682 40.9066C33.2948 40.6666 33.2415 40.4266 33.117 40.1955C32.9304 39.8222 32.6726 39.4844 32.4059 39.1377C32.157 38.9955 32.0237 39.4666 31.8637 39.5999C31.6059 39.9822 31.2859 40.3733 31.2682 40.8444C31.1259 41.0666 30.8593 40.6666 30.7437 40.5333C30.5068 40.2288 30.3814 39.8523 30.3882 39.4666C30.3667 38.8407 30.4757 38.2171 30.7082 37.6355C30.8859 37.1377 31.1615 36.6577 31.1348 36.1244C31.1526 35.7066 31.0726 35.2622 30.7437 34.9866C30.4237 34.7377 30.9482 34.6844 31.1082 34.8088C31.3926 34.8355 31.5437 35.2977 31.8015 35.1822C31.8993 34.9422 31.9259 34.6488 32.1393 34.4622C32.3437 34.1777 32.557 34.5777 32.6282 34.7733C32.7793 34.9333 32.6282 35.3511 32.8593 35.36C33.1437 35.1555 33.3482 34.8266 33.7126 34.7466C33.8637 34.6577 34.1126 34.7466 33.917 34.9066C33.6504 35.1644 33.4193 35.4755 33.3659 35.8577C33.2859 36.3288 33.4015 36.8088 33.6059 37.2266C34.0059 38.0622 34.317 39.0044 34.1126 39.9377C34.0237 40.3466 33.7393 40.7022 33.4015 40.9422C33.357 40.9688 33.2859 40.9688 33.2682 40.9066V40.9066Z" fill="#CF1126"/>
<path id="Vector_22" d="M32.8415 34.6311C32.7218 34.3906 32.5521 34.1784 32.3437 34.0089C32.1304 34.0089 31.997 34.2755 31.8548 34.4177C31.757 34.6044 31.6326 34.9155 31.3837 34.6755C30.9837 34.4444 30.9215 33.9377 30.9215 33.52C30.8948 32.8444 31.1704 32.2133 31.4104 31.6C31.5615 31.2177 31.5259 30.7822 31.4282 30.3911C31.3126 29.9466 30.9482 29.6266 30.6726 29.2711C30.6904 29.1378 31.0459 29.2089 31.1793 29.2355C31.4815 29.3155 31.6593 29.5733 31.8815 29.7689C32.0415 29.7155 31.9704 29.3955 32.0504 29.2444C32.0504 29.0311 32.3348 28.7555 32.4504 29.0578C32.6282 29.2533 32.4504 29.6355 32.6726 29.7511C32.8859 29.6711 32.9926 29.44 33.1882 29.3333C33.2903 29.2672 33.4076 29.2284 33.529 29.2207C33.6504 29.2129 33.7718 29.2364 33.8815 29.2889C33.9615 29.4844 33.6504 29.6444 33.5615 29.8222C33.3838 30.0438 33.2607 30.304 33.202 30.582C33.1433 30.8599 33.1508 31.1477 33.2237 31.4222C33.3482 31.8666 33.5615 32.2666 33.6415 32.7111C33.7375 33.2179 33.7223 33.7396 33.597 34.24C33.517 34.5422 33.2593 34.7377 32.9926 34.8622C32.9215 34.8 32.8859 34.7111 32.8415 34.6311V34.6311Z" fill="#CF1126"/>
<path id="Vector_23" d="M31.4992 29.0578C31.197 28.8355 31.0992 28.6311 31.0992 28.2133C31.0992 28.0089 31.1437 27.8933 31.277 27.6978C31.4903 27.4133 31.4548 27.3244 31.1614 27.4044C30.6903 27.5378 30.4681 27.4222 30.4503 27.0222C30.4503 26.8266 30.4859 26.7466 30.7437 26.4266C30.957 26.1778 31.037 26.0444 30.9926 26C30.9481 25.9644 30.6992 26.1778 30.1926 26.6933C29.8748 27.0283 29.5364 27.343 29.1792 27.6355C28.3081 28.2222 27.4726 28.3111 27.0903 27.8578C26.8948 27.6266 26.9037 27.5022 27.1259 27.36C27.2674 27.2644 27.3985 27.1541 27.517 27.0311C27.9527 26.6333 28.4329 26.2873 28.9481 26C29.2681 25.84 29.3392 25.7333 29.1348 25.7333C28.8681 25.7333 28.0237 26.2844 27.3748 26.8711C27.1881 27.0489 26.9126 27.2444 26.7703 27.3155C26.3748 27.4598 25.9469 27.4906 25.5348 27.4044C25.3392 27.3422 24.9748 27.0044 24.9748 26.88C24.9748 26.8533 25.0637 26.7822 25.1526 26.72C25.2974 26.6381 25.4343 26.5429 25.5615 26.4355C26.077 25.9911 27.0548 25.52 27.8281 25.3511C28.077 25.3067 27.9792 25.1733 27.7037 25.1911C26.8878 25.3469 26.1238 25.7044 25.4815 26.2311C24.7437 26.8444 23.6326 26.7822 23.277 26.1155C23.2148 26 23.1703 25.8933 23.1881 25.8755C23.8177 25.7166 24.4264 25.4839 25.0015 25.1822C25.4967 24.8903 26.0425 24.6943 26.6103 24.6044C26.8592 24.56 26.877 24.4355 26.637 24.4089C26.317 24.3733 25.837 24.5333 24.9926 24.9422C23.8992 25.4844 23.5881 25.5822 23.0192 25.5466C22.4859 25.5111 22.1926 25.3778 21.7748 24.9778C21.4903 24.7111 21.0992 24.0444 21.1703 23.9644C21.6318 24.0615 22.1037 24.1003 22.5748 24.08C23.3126 24.08 23.517 24.0622 23.9081 23.9467C24.6722 23.7045 25.3924 23.3414 26.0415 22.8711C26.9564 22.0971 28.1142 21.6692 29.3126 21.6622C30.4148 21.6622 31.1081 21.9111 31.7303 22.5422C31.9437 22.7555 32.1214 22.8889 32.1481 22.8622C32.1748 22.8355 32.2014 22.4622 32.2103 22.0355C32.2103 22.0355 32.5392 22 32.6103 22.0978C32.6103 22.7822 32.6103 22.8444 32.717 22.8444C32.7792 22.8444 32.8503 22.7733 32.8948 22.6667C32.9837 22.4444 33.3392 22.1333 33.7125 21.9378C34.5125 21.5378 35.9081 21.52 37.0281 21.9111C37.5635 22.1143 38.0643 22.3991 38.5125 22.7555C39.1665 23.2155 39.8856 23.575 40.6459 23.8222C41.2503 24 42.3348 24.0444 42.877 23.9111C43.0356 23.8744 43.1957 23.8447 43.357 23.8222C43.5614 23.8222 43.2148 24.4978 42.8059 24.8978C42.0592 25.6267 41.0903 25.6178 39.7303 24.8889C38.877 24.4267 37.8637 24.1778 37.8637 24.4267C37.8637 24.48 37.917 24.5155 37.997 24.5155C38.2903 24.5155 38.8592 24.7111 39.6592 25.0933C40.1618 25.3832 40.713 25.579 41.2859 25.6711C41.4903 25.6711 41.4992 25.8044 41.3037 26.0889C41.0992 26.3911 40.7525 26.5333 40.2637 26.5333C39.7925 26.5333 39.5259 26.4355 39.1081 26.0889C38.397 25.5022 36.6548 24.8444 36.717 25.2C36.7348 25.2622 36.8148 25.3067 37.0014 25.3333C37.7522 25.4964 38.4549 25.8311 39.0548 26.3111L39.5792 26.6933C39.677 26.7466 39.677 26.7644 39.597 26.9155C39.4725 27.1644 39.1348 27.3511 38.7792 27.3866C38.317 27.44 37.9081 27.2978 37.4903 26.9422C36.6014 26.2044 35.7748 25.6711 35.5081 25.6711C35.2859 25.6711 35.3837 25.7955 35.7748 26C36.2807 26.268 36.7523 26.5963 37.1792 26.9778C37.357 27.1466 37.5614 27.3066 37.6237 27.3422C37.7925 27.4311 37.7837 27.5555 37.6059 27.7866C37.4281 28.0178 37.1259 28.1244 36.7437 28.08C35.9792 28 35.3748 27.6355 34.4325 26.6578C34.2085 26.4075 33.9648 26.1757 33.7037 25.9644C33.5792 25.9644 33.6592 26.1333 33.8992 26.4089C34.2014 26.7378 34.2548 26.9244 34.1392 27.2089C34.0414 27.44 33.8725 27.5022 33.5348 27.4044C33.1792 27.3155 33.1259 27.4044 33.357 27.68C33.6948 28.1155 33.6503 28.6311 33.2237 28.9955C33.1354 29.0805 33.0332 29.1497 32.9214 29.2C32.8859 29.2 32.797 29.1111 32.717 28.9866C32.4503 28.5778 32.2103 28.5778 31.9437 28.9866C31.8874 29.0775 31.8281 29.1664 31.7659 29.2533C31.6759 29.1896 31.587 29.1244 31.4992 29.0578V29.0578Z" fill="#CF1126"/>
<path id="Vector_24" d="M32.8413 20.7111L32.3791 21.0666L31.9702 20.7644V23.2355H32.8413V20.7111Z" fill="#CF1126"/>
<path id="Vector_25" d="M30.0148 18.16C29.934 19.1593 29.6624 20.1339 29.2148 21.0311L30.2015 20.1155L30.886 20.9333L31.6326 20.0978L32.3882 20.8089L33.1171 20.0711L33.8726 20.96L34.5304 20.2311L35.6504 21.0311C35.2415 20.1422 34.6993 19.3778 34.7615 18.1155C33.6859 18.9155 31.1171 19.0578 30.0148 18.1511V18.16Z" fill="#CF1126"/>
<path id="Vector_26" d="M31.9792 17.5644C31.5792 17.5644 31.1614 17.5733 30.7881 17.6533C30.5408 17.6927 30.3046 17.7835 30.0947 17.92C30.1214 18.6844 33.7392 18.9955 34.7081 17.9378C34.49 17.7868 34.241 17.6866 33.9792 17.6444C33.6236 17.5733 33.2147 17.5733 32.8325 17.5555V18.1867H31.9792V17.5644V17.5644Z" fill="#CF1126"/>
<path id="Vector_27" d="M32.6813 13.6889H32.1213V18.08H32.6902L32.6813 13.6889Z" fill="#CF1126"/>
<path id="Vector_28" d="M32.6814 13.7955L32.4681 15.9022L34.6281 16.96L33.5348 15.4933L35.0281 15.0044L32.6814 13.7955ZM32.4414 13.2533C32.1126 13.2533 31.8726 13.3778 31.8726 13.52C31.8726 13.6622 32.1126 13.7867 32.4414 13.7867C32.7703 13.7867 33.0103 13.6622 33.0103 13.52C33.0103 13.3778 32.7703 13.2533 32.4414 13.2533Z" fill="#CF1126"/>
</g>
<g id="Group_3">
<path id="Vector_29" d="M31.446 50.125C31.8085 50 32.0085 49.7875 32.146 49.375C32.2058 49.2177 32.2477 49.0542 32.271 48.8875C32.2335 48.7625 32.071 48.7625 31.9085 48.9125C31.7835 49 31.7835 49.05 31.8085 49.25C31.896 49.75 31.721 49.875 30.771 49.975C30.6835 49.975 30.4085 49.975 30.171 49.9375C29.721 49.8875 29.571 49.9375 29.7335 50.0625C29.8172 50.1198 29.9103 50.1621 30.0085 50.1875C30.2585 50.25 31.1835 50.2125 31.446 50.1125V50.125ZM33.4085 50.0375C33.4585 49.9875 33.6335 49.9125 33.8085 49.85C34.0335 49.775 34.1585 49.7 34.246 49.55C34.521 49.1375 34.471 48.7875 34.071 48.3C33.846 48.05 33.746 48.05 33.571 48.35C33.421 48.6 33.421 48.6 33.646 48.6625C33.771 48.6875 33.871 48.7875 33.9335 48.8875C34.171 49.3 34.096 49.55 33.746 49.55C33.421 49.55 33.3335 49.6 33.246 49.8C33.2103 49.8841 33.1851 49.9723 33.171 50.0625C33.171 50.15 33.296 50.1375 33.4085 50.0375V50.0375ZM32.7585 49.5625C32.821 49.4 32.846 49.1125 32.8335 48.5125C32.8335 48.05 32.821 47.6625 32.796 47.6375C32.746 47.6 32.4835 47.7625 32.446 47.875C32.4335 47.9375 32.4585 48.0625 32.5085 48.1625C32.596 48.325 32.6085 48.475 32.5835 49.1C32.546 49.8875 32.596 50.0125 32.7585 49.5625Z" fill="#F7E017"/>
<path id="Vector_30" d="M31.2585 49.2C31.296 49.05 31.3335 48.75 31.346 48.525C31.371 48.3125 31.4085 48.025 31.446 47.9C31.546 47.6 31.446 47.525 31.196 47.7L31.021 47.825L31.0585 48.2625C31.096 48.6625 31.0335 49.4 30.9335 49.6875C30.921 49.775 30.9585 49.75 31.0585 49.6375C31.1562 49.5033 31.2243 49.35 31.2585 49.1875V49.2ZM29.921 49.4125C30.246 49.1375 30.2085 48.6625 30.2835 48.2875C30.2835 48.0375 30.446 47.7375 30.3335 47.525C30.0335 47.575 29.8335 47.8625 29.996 48.15C30.0085 48.4875 29.996 48.85 29.8335 49.15C29.696 49.3375 29.246 49.275 29.271 49.0125C29.3835 48.6 28.896 48.8 28.696 48.9125C28.546 49.0125 28.2335 49.025 28.346 48.7625C28.271 48.4125 27.8335 48.6375 27.596 48.6375C27.371 48.6375 27.571 48.175 27.246 48.2625C26.646 48.2 25.971 48.2625 25.446 47.8875C25.146 47.75 25.196 47.3875 25.346 47.1375C25.546 46.8125 25.596 46.4 25.896 46.15C26.196 45.8625 25.621 45.9875 25.4835 46.0875C25.196 46.2375 25.4585 46.65 25.2335 46.875C25.0835 47.125 24.896 47.4375 24.5835 47.4C24.1085 47.3125 23.8335 46.875 23.5085 46.5875C23.221 46.525 23.3835 47.05 23.5335 47.1625C23.8296 47.3819 24.1647 47.5431 24.521 47.6375C24.871 47.575 24.8835 48.0375 25.1835 48.1125C25.7335 48.3625 26.346 48.4375 26.9335 48.475C27.1835 48.4875 27.046 48.9125 27.3585 48.825C27.5335 48.875 27.921 48.7625 27.9335 48.9625C27.6835 49.275 28.1835 49.275 28.3835 49.2125C28.6335 49.175 28.9335 49.0875 29.0085 49.4125C29.2085 49.6375 29.5835 49.6 29.821 49.475L29.921 49.4125V49.4125Z" fill="#F7E017"/>
<path id="Vector_31" d="M24.6211 46.7125C24.7086 46.5875 24.8586 46.3375 24.9461 46.15C25.0143 45.9856 25.1024 45.8303 25.2086 45.6875C25.3711 45.5125 25.2836 45.4125 25.0211 45.475C24.8961 45.5 24.8336 45.55 24.8211 45.6625C24.7461 46.0375 24.6086 46.425 24.4836 46.6C24.2586 46.925 24.2586 46.9375 24.3586 46.9375C24.3961 46.9375 24.5086 46.8375 24.6086 46.7125H24.6211ZM21.2711 44.625C21.0211 44.625 21.0211 44.7875 21.2586 44.875C21.3711 44.9125 21.4711 45 21.5461 45.175C21.7961 45.6375 21.9211 45.725 22.5461 45.775L22.9586 45.8125L22.9711 46.0625C22.9836 46.1875 23.0211 46.3125 23.0461 46.3125C23.0836 46.3125 23.2336 46.2375 23.3961 46.1625C23.6836 46.0125 23.9711 45.6625 23.9711 45.45C23.9711 45.3125 23.7211 45.15 23.5211 45.15C23.3652 45.1731 23.2183 45.2379 23.0961 45.3375C22.6461 45.6625 22.1711 45.5875 21.9086 45.175C21.6961 44.825 21.4711 44.625 21.2711 44.625V44.625ZM23.4461 45.5C23.5711 45.5 23.5961 45.5875 23.5336 45.75C23.4836 45.875 23.3336 45.875 23.2836 45.75C23.2461 45.625 23.3211 45.5 23.4461 45.5ZM40.3086 44.95C40.1461 44.95 40.0961 44.9875 39.9961 45.15C39.8211 45.4 39.8086 45.9375 39.9711 46.125C40.0586 46.25 40.0711 46.25 40.2836 46.1625C40.5711 46.0375 40.6211 46.05 40.6086 46.2C40.6086 46.6 40.0461 47.35 39.4586 47.7625C39.3385 47.829 39.2324 47.9181 39.1461 48.025C39.0961 48.15 39.3211 48.1125 39.5836 47.975C39.9586 47.7875 40.4336 47.3 40.6336 46.9125C40.7836 46.6 40.8086 46.5 40.8336 45.9625C40.8336 45.4625 40.8336 45.325 40.7461 45.15C40.6586 44.9625 40.6211 44.95 40.3836 44.95H40.3086V44.95ZM40.3336 45.3C40.4586 45.3 40.4711 45.325 40.4836 45.5C40.4961 45.65 40.4836 45.7375 40.3961 45.8125C40.2711 45.9125 40.2711 45.9125 40.1711 45.7625C40.0461 45.55 40.1211 45.3 40.3336 45.3V45.3ZM37.6336 49.0875C38.0805 48.9013 38.4447 48.5593 38.6586 48.125C38.7245 47.9924 38.7789 47.8544 38.8211 47.7125C38.8211 47.6375 38.5711 47.525 38.4086 47.525C38.2461 47.525 38.2336 47.4125 38.2836 47.125C38.3586 46.8375 38.2836 46.4875 38.1586 46.4875C38.1086 46.4875 38.0336 46.55 37.9836 46.625C37.8961 46.75 37.8961 46.8125 37.9586 47C38.0461 47.25 37.9711 47.4625 37.7336 47.625C37.6086 47.7125 37.5461 47.8125 37.5461 47.9C37.5461 47.975 37.5586 48.0375 37.5711 48.0375L37.8586 47.9L38.1086 47.75L38.2711 47.875C38.3461 47.9375 38.4211 48.05 38.4211 48.1125C38.4211 48.425 37.5211 48.9625 36.8961 49.0125C36.5711 49.0375 36.5211 49.0125 36.3961 48.9125C36.3086 48.8125 36.2711 48.7375 36.2961 48.625L36.3711 48.2875C36.4336 48.0125 36.3086 48.05 36.1086 48.375C35.9336 48.625 35.8836 48.925 35.9836 49.075C36.0586 49.2 36.5711 49.3125 36.9336 49.2875C37.1586 49.275 37.3961 49.2125 37.6336 49.0875V49.0875ZM41.0961 47.15C41.4211 46.825 41.5711 46.425 41.5711 45.8125V45.35L41.8336 45.225C42.1836 45.0625 42.5211 44.725 42.5211 44.55C42.5211 44.35 42.4336 44.3625 42.2836 44.575C42.1711 44.725 42.0336 44.8125 41.4836 45.0625C41.3461 45.125 41.3336 45.1625 41.3086 45.7375C41.2711 46.4 41.1836 46.6375 40.8086 47.1C40.5836 47.3625 40.5711 47.4 40.7336 47.4C40.7961 47.4 40.9586 47.3 41.1086 47.15H41.0961ZM37.5336 46.775C37.5711 46.6875 37.3836 46.625 37.3086 46.7C37.2711 46.7375 37.2711 46.7875 37.2961 46.825C37.3461 46.9125 37.5086 46.8875 37.5461 46.7875L37.5336 46.775ZM42.4461 45.5125C42.4836 45.4125 42.2961 45.35 42.2211 45.425C42.1836 45.4625 42.1836 45.525 42.2086 45.55C42.2586 45.6375 42.4211 45.6125 42.4586 45.5125H42.4461ZM36.5336 42.0625C36.4086 42.125 36.3461 42.2625 36.2586 42.375C36.1961 42.4125 36.2461 42.45 36.2836 42.5C36.5086 42.7375 36.5961 43.0625 36.7086 43.375C36.8086 43.725 36.9461 44.1125 36.8336 44.4875C36.7836 44.625 36.6711 44.775 36.5086 44.7375C36.2336 44.7125 35.9711 44.65 35.7086 44.65C35.4586 44.65 35.2711 44.875 35.0336 44.85C34.8711 44.8625 34.8836 44.5375 34.7336 44.625C34.6586 44.8 34.6961 44.9875 34.6836 45.175C34.7211 45.2 34.7961 45.175 34.8336 45.175H35.3336C35.3586 45.35 35.3461 45.55 35.4711 45.675C35.6461 45.7375 35.8336 45.675 35.9836 45.6125C36.1586 45.5375 36.1836 45.325 36.2336 45.175C36.2836 45 36.5086 45.05 36.6461 44.975C36.8028 44.9209 36.9376 44.8172 37.0301 44.6796C37.1226 44.542 37.1677 44.378 37.1586 44.2125C37.1461 43.7 36.9461 43.2125 36.7961 42.7375C36.7211 42.525 36.6711 42.3125 36.5836 42.1C36.5836 42.0875 36.5586 42.0625 36.5336 42.075V42.0625ZM35.7336 44.975C35.9086 44.975 35.9836 45.1875 35.9586 45.3375C35.8836 45.5375 35.6336 45.4125 35.5836 45.2625C35.4961 45.1375 35.5586 44.9625 35.7336 44.975V44.975Z" fill="#F7E017"/>
<path id="Vector_32" d="M29.0461 43.3125C28.9516 43.3134 28.8597 43.344 28.7836 43.4C28.3086 43.7375 28.1836 44.125 28.5086 44.275C28.7461 44.3875 28.6836 44.525 28.3086 44.7125C27.7836 44.9625 27.3086 44.9375 26.4336 44.575C26.2086 44.475 26.1461 44.5125 26.1961 44.7125C26.2461 44.9125 26.4336 45.0125 26.8711 45.125C27.3586 45.225 27.9336 45.2 28.3086 45.0375C28.5281 44.9269 28.7235 44.774 28.8836 44.5875L29.1711 44.275L29.5086 44.3125C29.9211 44.3625 29.9336 44.375 29.9336 44.5625C29.9336 44.725 29.9336 44.7375 30.3211 44.7625L30.9461 44.8C31.1211 44.8 31.2211 44.8375 31.2711 44.925C31.3461 45.0125 31.3961 45.025 32.0211 44.9625C32.5961 44.9125 32.7211 44.9125 32.9836 45.0125C33.1711 45.075 33.3711 45.1 33.5336 45.075C33.9836 45.025 34.5961 44.6625 34.6836 44.3875C34.6961 44.3625 34.8586 44.3 35.0461 44.2625C35.4961 44.175 35.5211 44.075 35.0961 44.025C34.8873 43.9964 34.682 43.9461 34.4836 43.875C34.3358 43.815 34.1799 43.7771 34.0211 43.7625C33.7961 43.7625 33.5711 43.9 33.5711 44.05C33.5711 44.15 33.6086 44.1625 33.8836 44.1375C34.1336 44.1 34.2086 44.1125 34.3336 44.225C34.4336 44.3 34.4836 44.375 34.4586 44.4C34.4086 44.5 33.8836 44.7375 33.6461 44.775C33.5109 44.803 33.3702 44.7854 33.2461 44.725C33.0336 44.625 32.7336 44.6 32.6711 44.6875C32.6586 44.7375 32.5836 44.7125 32.4961 44.625L32.3711 44.5L32.0461 44.625C31.7211 44.75 31.6086 44.75 31.6086 44.6C31.6086 44.525 31.5211 44.525 31.0461 44.55C30.5211 44.5875 30.4711 44.575 30.3711 44.475C30.2836 44.375 30.2836 44.3375 30.3461 44.225C30.4086 44.1375 30.4086 44.1 30.3461 44.0375C30.2961 43.9875 30.2211 43.9875 30.0211 44.0375C29.5086 44.175 29.3586 44.1 29.3586 43.7C29.3586 43.45 29.2211 43.3125 29.0461 43.3125V43.3125ZM28.9211 43.6875C28.9461 43.6875 28.9586 43.6875 28.9961 43.7375C29.0461 43.775 29.0711 43.8625 29.0461 43.9125C29.0086 44.0375 28.7836 44.025 28.7336 43.9C28.7211 43.8375 28.7336 43.775 28.8086 43.725L28.9086 43.675L28.9211 43.6875Z" fill="#F7E017"/>
<path id="Vector_33" d="M27.996 44.05C28.296 43.85 28.296 43.875 28.3335 43.3125C28.371 42.9375 28.371 42.9 28.2585 42.9C28.1085 42.9 28.021 43.0625 28.021 43.3875C28.021 43.5875 27.996 43.6875 27.896 43.8C27.621 44.05 26.971 43.9375 26.896 43.6125C26.871 43.5 26.896 43.4 27.0335 43.2125C27.321 42.8125 27.2585 42.7125 26.9085 43.0125C26.6585 43.225 26.621 43.225 26.671 43.05C26.7085 42.8875 26.621 42.8125 26.421 42.8625C26.3335 42.8875 26.2835 42.95 26.2585 43.075C26.2335 43.2 26.171 43.2625 26.0835 43.275C25.921 43.325 25.6585 43.175 25.6585 43.0375C25.6585 42.95 26.0585 42.4625 26.571 41.9125C26.7074 41.7895 26.829 41.6511 26.9335 41.5C26.9335 41.475 26.821 41.45 26.696 41.45C26.5085 41.45 26.471 41.475 26.471 41.5625C26.471 41.6125 26.2085 41.9625 25.8835 42.3125C25.221 43.0625 25.171 43.225 25.5085 43.4125C25.6396 43.4912 25.7906 43.5307 25.9434 43.5262C26.0963 43.5218 26.2447 43.4737 26.371 43.3875L26.5835 43.2375V43.5125C26.5835 43.85 26.646 43.9625 26.921 44.1125C27.088 44.1964 27.2741 44.2349 27.4607 44.2239C27.6472 44.2129 27.8276 44.1529 27.9835 44.05H27.996ZM41.9085 39.4375C41.6585 39.5875 41.846 39.9 41.8835 40.1C41.7835 40.375 41.4335 40.45 41.171 40.5125C40.796 40.5625 40.5335 40.8875 40.396 41.2125C40.321 41.425 40.1335 41.75 39.9335 41.425C39.7585 41.25 39.4335 41.1125 39.2335 41.3125C39.071 41.4625 39.0335 41.6875 38.971 41.8875C38.8835 41.7375 38.846 41.5125 38.646 41.4625C38.3335 41.5 38.446 41.9 38.5835 42.0625C38.721 42.25 38.846 42.5 38.7085 42.725C38.6085 43 38.2085 43.175 37.9585 42.95C37.746 42.825 37.896 42.4125 37.6835 42.3875C37.571 42.475 37.5585 42.9 37.396 42.6625C37.271 42.4625 37.3335 42.1875 37.1835 42.0125C37.0085 42.0375 36.8585 42.3375 36.921 42.5125C37.1372 42.8459 37.2819 43.2204 37.346 43.6125C37.4085 43.775 37.346 44.075 37.4835 44.1375C37.5835 43.8875 37.4835 43.6125 37.571 43.3625C37.796 43.3375 38.071 43.4375 38.3085 43.3875C38.6585 43.3375 38.9335 43.05 39.046 42.7375C39.0835 42.4875 39.046 42.2625 39.0335 42.025C39.3085 42.0625 39.596 42.0625 39.8585 42.15C39.9835 42.35 39.821 42.6375 39.7835 42.85C39.646 43.3 39.2835 43.625 38.946 43.925C38.8085 44.0125 38.7835 44.2375 38.996 44.125C39.4585 43.925 39.796 43.5 39.996 43.05C40.146 42.7125 40.021 42.325 40.121 41.975C40.2585 41.7 40.596 41.7625 40.846 41.7625C41.096 41.75 41.321 41.45 41.221 41.2C41.146 40.9125 41.4585 40.775 41.6585 40.675C41.9335 40.5375 42.1585 40.25 42.1335 39.925C42.121 39.7625 42.1335 39.45 41.9085 39.4375V39.4375ZM40.921 41.1C41.221 41.1875 40.871 41.75 40.7085 41.3875C40.671 41.2625 40.7835 41.1 40.921 41.1ZM39.546 41.5125C39.9335 41.4875 39.796 42.05 39.471 41.8C39.296 41.7125 39.346 41.5 39.546 41.5125ZM25.5835 43.6875C25.596 43.625 25.571 43.5875 25.521 43.5875C25.4085 43.5875 25.346 43.6875 25.396 43.7625C25.446 43.85 25.571 43.8 25.5835 43.6875V43.6875ZM30.1085 43.1875C30.1085 43.1 30.071 43.0625 30.0085 43.0875C29.8585 43.1125 29.8335 43.3 29.9835 43.3C30.071 43.3 30.1085 43.2625 30.1085 43.175V43.1875ZM24.521 40.475C24.3335 40.4375 24.221 40.5875 24.1585 40.725C24.0335 40.9625 23.8585 41.1875 23.621 41.3125C23.446 41.3625 23.246 41.2875 23.1085 41.2C22.921 41.1125 22.971 40.9 22.8835 40.75C22.7585 40.65 22.5335 40.7875 22.5335 40.95C22.521 41.1625 22.721 41.2875 22.8835 41.3625C23.021 41.45 23.221 41.5 23.2835 41.675C23.2835 41.825 23.3335 41.9875 23.521 41.925C23.721 41.925 23.771 42.175 23.6835 42.325C23.5919 42.4883 23.5567 42.6772 23.5835 42.8625C23.6835 42.95 23.7835 42.7375 23.8585 42.6625L23.996 42.475C24.346 42.5 24.7085 42.5375 25.0585 42.525C25.3085 42.525 25.5335 42.3625 25.6835 42.1875C25.921 41.9375 26.1085 41.6625 26.371 41.4625C26.5585 41.4125 26.4585 41.0625 26.2585 41.1625C26.0835 41.2375 26.0335 41.425 25.9085 41.55C25.7085 41.8 25.496 42.05 25.2335 42.25C25.046 42.325 24.8335 42.3 24.6335 42.25C24.5585 42.1875 24.796 42.125 24.8335 42.05C24.946 41.925 25.0835 41.825 25.1335 41.675C25.071 41.55 24.8835 41.5375 24.7585 41.5375C24.421 41.575 24.171 41.85 23.846 41.875C23.596 41.875 23.721 41.6125 23.846 41.525C24.0585 41.2625 24.296 41.0125 24.5335 40.75C24.596 40.675 24.8335 40.6 24.6835 40.5C24.6335 40.475 24.571 40.475 24.521 40.475V40.475ZM24.6835 41.8C24.846 41.8875 24.571 42.05 24.4585 42.025C24.3085 42.0625 24.3085 41.9125 24.4335 41.8875C24.5085 41.85 24.596 41.8 24.6835 41.8ZM24.171 42.15C24.2585 42.15 24.4585 42.2375 24.271 42.2875C24.146 42.3875 23.996 42.1875 24.171 42.15Z" fill="#F7E017"/>
<path id="Vector_34" d="M28.171 42.375C28.171 42.25 27.946 42.2625 27.921 42.4C27.9085 42.475 27.921 42.5 28.046 42.4875C28.1085 42.475 28.171 42.425 28.171 42.375ZM38.1335 41.5C38.1585 41.375 37.9835 41.3 37.896 41.375C37.8085 41.475 37.896 41.6375 38.021 41.625C38.071 41.6 38.121 41.55 38.1335 41.5ZM22.6335 40.275C22.7835 40.15 22.7835 40.1375 22.721 39.8375C22.621 39.425 22.6335 39.375 22.7835 39.3375C22.9835 39.2875 23.496 39.5625 23.6085 39.775C23.696 39.95 23.696 39.95 23.546 40.0875C23.3835 40.2375 23.3835 40.4125 23.546 40.4125C23.671 40.4125 24.046 40.0625 24.046 39.9375C24.046 39.775 23.6335 39.3625 23.321 39.2125C23.1248 39.1242 22.9111 39.0815 22.696 39.0875C22.2835 39.0875 22.2335 39.175 22.3335 39.65C22.4585 40.2 22.296 40.275 21.8335 39.8625C21.6748 39.7186 21.5516 39.5399 21.4735 39.3403C21.3955 39.1408 21.3647 38.9259 21.3835 38.7125C21.3835 38.1625 21.596 37.8875 22.0585 37.8375C22.3835 37.7875 22.371 37.7125 22.0585 37.6625C21.571 37.5875 21.1835 37.9125 21.021 38.4625C20.8585 39.0875 21.246 39.85 21.921 40.2375C22.2835 40.45 22.421 40.45 22.6335 40.275V40.275ZM41.196 39.5875C41.2335 39.55 41.2585 39.4625 41.2585 39.4C41.2585 39.3375 41.3335 39.1875 41.4085 39.0875C41.4718 39.0129 41.5225 38.9284 41.5585 38.8375C41.5585 38.725 41.371 38.7375 41.2335 38.8375C41.0835 38.9625 40.9835 38.9625 40.9835 38.85C40.9835 38.825 41.046 38.7625 41.1335 38.725C41.346 38.625 41.3585 38.525 41.1835 38.4375C40.946 38.3375 40.721 38.525 40.696 38.8375C40.6835 39.05 40.696 39.0875 40.8585 39.175C41.0085 39.2625 41.0335 39.3125 41.0085 39.425C40.971 39.65 41.0585 39.725 41.196 39.5875V39.5875ZM42.946 39.3875C43.071 39.275 43.171 39.1375 43.171 39.1C43.171 39.0625 43.2835 38.95 43.421 38.85C43.796 38.575 43.8835 38.3 43.7085 37.8625C43.646 37.7 43.4335 37.4625 42.9835 37.05C42.7656 36.8352 42.527 36.6426 42.271 36.475C42.146 36.475 42.1585 36.9375 42.2835 36.975C42.521 37.05 42.6585 37.15 43.0085 37.475C43.4335 37.85 43.621 38.2 43.5085 38.3875C43.421 38.575 43.2835 38.5125 42.9085 38.1375C42.721 37.925 42.5335 37.7625 42.496 37.7625C42.446 37.7625 42.421 37.825 42.421 37.9375C42.421 38.0625 42.4835 38.1875 42.671 38.4C42.9835 38.75 43.021 38.95 42.796 39.1375C42.696 39.2 42.621 39.2625 42.596 39.2625C42.2932 38.7456 41.8893 38.295 41.4085 37.9375C41.346 37.9375 41.321 37.9875 41.321 38.125C41.321 38.2875 41.3585 38.35 41.4835 38.4125C41.6335 38.4875 42.0335 38.8875 42.421 39.3625C42.5335 39.4875 42.646 39.6125 42.671 39.6125C42.6835 39.6125 42.8085 39.5125 42.9335 39.3875H42.946ZM43.721 37.1625C43.671 37 42.596 35.9125 42.496 35.9125C42.4335 35.9125 42.421 35.975 42.4335 36.15C42.4335 36.3625 42.471 36.4 42.6085 36.425C42.7085 36.4625 42.9835 36.675 43.2335 36.925C43.4835 37.175 43.7085 37.35 43.7335 37.3375L43.721 37.1625V37.1625ZM37.346 49.5C37.3563 49.5228 37.3604 49.5476 37.3578 49.5722C37.3552 49.5967 37.3461 49.6204 37.3312 49.6409C37.3164 49.6615 37.2963 49.6783 37.2727 49.69C37.2491 49.7016 37.2228 49.7077 37.196 49.7077C37.1693 49.7077 37.1429 49.7016 37.1194 49.69C37.0958 49.6783 37.0757 49.6615 37.0608 49.6409C37.046 49.6204 37.0369 49.5967 37.0343 49.5722C37.0317 49.5476 37.0357 49.5228 37.046 49.5C37.0391 49.4777 37.0379 49.4542 37.0425 49.4314C37.0471 49.4085 37.0574 49.387 37.0726 49.3685C37.0877 49.3499 37.1073 49.3349 37.1298 49.3246C37.1523 49.3142 37.1771 49.3088 37.2023 49.3088C37.2274 49.3088 37.2522 49.3142 37.2748 49.3246C37.2973 49.3349 37.3169 49.3499 37.332 49.3685C37.3472 49.387 37.3574 49.4085 37.362 49.4314C37.3666 49.4542 37.3654 49.4777 37.3585 49.5H37.346ZM37.921 49.3125C37.921 49.3523 37.9039 49.3904 37.8734 49.4186C37.843 49.4467 37.8016 49.4625 37.7585 49.4625C37.7154 49.4625 37.6741 49.4467 37.6436 49.4186C37.6132 49.3904 37.596 49.3523 37.596 49.3125C37.596 49.2727 37.6132 49.2346 37.6436 49.2064C37.6741 49.1783 37.7154 49.1625 37.7585 49.1625C37.8016 49.1625 37.843 49.1783 37.8734 49.2064C37.9039 49.2346 37.921 49.2727 37.921 49.3125Z" fill="#F7E017"/>
</g>
</g>
</g>
<defs>
<clipPath id="clip0_2909_185485">
<path d="M0.246094 32C0.246094 14.3269 14.573 0 32.2461 0V0C49.9192 0 64.2461 14.3269 64.2461 32V32C64.2461 49.6731 49.9192 64 32.2461 64V64C14.573 64 0.246094 49.6731 0.246094 32V32Z" fill="white"/>
</clipPath>
</defs>
</svg>
