<svg width="65" height="64" viewBox="0 0 65 64" fill="none" xmlns="http://www.w3.org/2000/svg">
<g id="Rounded=Brazil (BR)">
<g clip-path="url(#clip0_2909_185480)">
<g id="Group">
<path id="Vector" fill-rule="evenodd" clip-rule="evenodd" d="M0.246094 0H64.2461V64H0.246094V0Z" fill="#229E45"/>
<path id="Vector_2" fill-rule="evenodd" clip-rule="evenodd" d="M32.9212 50.675L61.6462 32.025L32.7462 13.325L3.90869 32.075L32.9087 50.675H32.9212Z" fill="#F8E509"/>
<path id="Vector_3" fill-rule="evenodd" clip-rule="evenodd" d="M45.4338 32C45.4843 33.6276 45.2072 35.2487 44.6188 36.767C44.0305 38.2853 43.1429 39.6699 42.0089 40.8385C40.8749 42.007 39.5176 42.9357 38.0176 43.5693C36.5175 44.203 34.9055 44.5286 33.2771 44.527C31.6488 44.5253 30.0374 44.1963 28.5387 43.5596C27.04 42.9229 25.6846 41.9914 24.553 40.8205C23.4214 39.6496 22.5367 38.2632 21.9515 36.7437C21.3662 35.2241 21.0924 33.6025 21.1463 31.975C21.2507 28.8218 22.5775 25.8328 24.8461 23.6403C27.1147 21.4478 30.1472 20.2237 33.3022 20.227C36.4571 20.2302 39.4871 21.4605 41.7512 23.6577C44.0153 25.8549 45.3359 28.8466 45.4338 32Z" fill="#2B49A3"/>
<path id="Vector_4" fill-rule="evenodd" clip-rule="evenodd" d="M29.2838 39.275L28.9088 39.05L28.5213 39.25L28.6088 38.8125L28.3088 38.5L28.7338 38.45L28.9338 38.05L29.1213 38.4625L29.5463 38.5375L29.2213 38.8375L29.2838 39.275ZM37.4338 41.3375L37.0588 41.1125L36.6588 41.3125L36.7463 40.875L36.4463 40.5625L36.8838 40.5125L37.0838 40.1125L37.2588 40.525L37.6838 40.6L37.3713 40.9L37.4338 41.3375ZM33.9213 38.0375L33.5963 37.85L33.2588 38.0125L33.3338 37.6375L33.0838 37.3625L33.4463 37.325L33.6213 36.9875L33.7713 37.3375L34.1463 37.4L33.8713 37.65L33.9213 38.0375ZM42.1463 36.85L41.8213 36.6625L41.4963 36.825L41.5713 36.4625L41.3213 36.2L41.6838 36.15L41.8463 35.825L42.0088 36.1625L42.3713 36.225L42.0963 36.475L42.1463 36.85ZM33.7713 34.3875L33.3963 34.1625L33.0088 34.3625L33.0963 33.925L32.7963 33.6125L33.2213 33.5625L33.4213 33.175L33.6088 33.575L34.0338 33.65L33.7088 33.95L33.7713 34.3875ZM23.7463 30.625L23.3713 30.4L22.9963 30.6L23.0713 30.1625L22.7713 29.85L23.2088 29.8L23.4088 29.4L23.5838 29.8125L24.0088 29.8875L23.6963 30.1875L23.7463 30.625ZM24.9588 35.625L24.5838 35.4125L24.1963 35.6L24.2838 35.175L23.9838 34.85L24.4088 34.8L24.6088 34.425L24.7963 34.8125L25.2213 34.9L24.8963 35.1875L24.9588 35.625ZM37.4713 28.775L37.1463 28.5875L36.7963 28.75L36.8713 28.375L36.6213 28.0875L36.9963 28.05L37.1713 27.7L37.3338 28.0625L37.7088 28.125L37.4213 28.3875L37.4713 28.775ZM36.7963 32.0375L36.4963 31.875L36.2338 32L36.2838 31.7L36.0838 31.4875L36.3838 31.45L36.5213 31.175L36.6463 31.4625L36.9463 31.5125L36.7213 31.7125L36.7963 32.0375ZM23.1713 36.525L22.9213 36.375L22.6588 36.5L22.7088 36.2125L22.5088 36L22.8088 35.975L22.9338 35.725L23.0588 35.975L23.3463 36.0375L23.1338 36.2375L23.1713 36.525ZM42.2088 37.675L41.9963 37.575L41.7838 37.6625L41.8338 37.45L41.6713 37.2875L41.9088 37.2625L42.0213 37.075L42.1088 37.275L42.3463 37.3125L42.1713 37.4625" fill="#FFFFEF"/>
<path id="Vector_5" fill-rule="evenodd" clip-rule="evenodd" d="M23.1835 36.5375L22.9335 36.3875L22.671 36.5125L22.7335 36.225L22.521 36.0125L22.8085 35.9875L22.946 35.7375L23.071 35.9875L23.3585 36.05L23.146 36.25" fill="#FFFFEF"/>
<path id="Vector_6" fill-rule="evenodd" clip-rule="evenodd" d="M23.1835 36.5375L22.9335 36.3875L22.671 36.5125L22.7335 36.225L22.521 36.0125L22.8085 35.9875L22.946 35.7375L23.071 35.9875L23.3585 36.05L23.146 36.25L23.1835 36.5375ZM27.171 36.5375L26.921 36.3875L26.671 36.5125L26.721 36.225L26.521 36.0125L26.8085 35.9875L26.9335 35.725L27.0585 35.9875L27.346 36.05L27.1335 36.25L27.171 36.5375ZM26.671 37.875L26.421 37.725L26.171 37.85L26.221 37.5625L26.021 37.35L26.3085 37.3125L26.4335 37.0625L26.5585 37.3125L26.846 37.375L26.6335 37.575L26.671 37.875ZM34.971 35.45L34.721 35.3L34.4585 35.425L34.5085 35.1375L34.3085 34.925L34.596 34.9L34.7335 34.6375L34.8585 34.9L35.1335 34.95L34.921 35.15L34.971 35.45ZM32.5335 35.45L32.2835 35.3L32.021 35.425L32.0835 35.1375L31.8835 34.925L32.171 34.9L32.296 34.6375L32.421 34.9L32.7085 34.95L32.496 35.15L32.5335 35.45ZM25.9335 34.6L25.7835 34.5125L25.621 34.5875L25.646 34.4L25.521 34.275L25.7085 34.25L25.796 34.0875L25.8585 34.2625L26.046 34.2875L25.921 34.4125L25.9335 34.6ZM41.896 38.75L41.646 38.6125L41.3835 38.7375L41.446 38.45L41.246 38.2375L41.5335 38.2L41.6585 37.95L41.7835 38.2L42.071 38.2625L41.8585 38.4625L41.896 38.75ZM39.8585 39.0125L39.6585 38.8875L39.446 39.0125L39.496 38.7625L39.321 38.5875L39.571 38.5625L39.671 38.35L39.771 38.5625L40.021 38.6125L39.8335 38.775L39.8585 39.0125ZM40.8335 39L40.6335 38.875L40.4335 38.9875L40.471 38.7625L40.321 38.6L40.546 38.575L40.646 38.375L40.7335 38.575L40.9585 38.6125L40.796 38.775L40.8335 39ZM43.571 36.6L43.3835 36.4875L43.1835 36.5875L43.2335 36.375L43.0835 36.2125L43.296 36.1875L43.396 36L43.4835 36.2L43.696 36.2375L43.5335 36.3875L43.571 36.6ZM39.871 40.3625L39.621 40.225L39.371 40.35L39.4335 40.075L39.2335 39.8875L39.5085 39.85L39.646 39.6125L39.771 39.8625L40.0335 39.9125L39.8335 40.0875L39.871 40.3625ZM39.8835 41.45L39.6585 41.325L39.4335 41.4375L39.4835 41.1625L39.3085 40.975L39.5585 40.9375L39.6835 40.7L39.7835 40.95L40.0335 41L39.846 41.175L39.8835 41.45ZM38.0335 39L37.846 38.8875L37.646 38.9875L37.696 38.7625L37.546 38.6125L37.7585 38.5875L37.8585 38.3875L37.946 38.5875L38.1585 38.625L37.996 38.775L38.0335 39ZM36.3085 39L36.121 38.8875L35.921 38.9875L35.971 38.7625L35.821 38.6125L36.0335 38.5875L36.1335 38.3875L36.221 38.5875L36.4335 38.625L36.2835 38.775L36.3085 39ZM33.371 36.425L33.1835 36.3125L32.9835 36.4125L33.0335 36.2L32.8835 36.0375L33.096 36.0125L33.196 35.825L33.2835 36.025L33.496 36.0625L33.3335 36.2L33.371 36.425ZM33.696 41.6375L33.5335 41.55L33.371 41.6375L33.4085 41.45L33.2835 41.325L33.4585 41.2875L33.546 41.125L33.621 41.3L33.8085 41.325L33.671 41.45L33.696 41.6375ZM29.271 33.2L28.896 32.9875L28.5085 33.175L28.596 32.75L28.296 32.425L28.721 32.375L28.921 31.9875L29.1085 32.3875L29.5335 32.4625L29.2085 32.7625" fill="#FFFFEF"/>
<path id="Vector_7" fill-rule="evenodd" clip-rule="evenodd" d="M44.6338 36.375C44.869 35.7621 45.0529 35.1308 45.1838 34.4875C38.7338 28.8125 31.5338 25.9 22.4338 26.5C22.1078 27.1371 21.84 27.8023 21.6338 28.4875C25.8085 28.0659 30.025 28.5513 33.9947 29.9105C37.9644 31.2697 41.5936 33.4706 44.6338 36.3625V36.375Z" fill="#F5F5F5"/>
<path id="Vector_8" d="M41.7336 33.175L41.9586 33.3C41.9236 33.3696 41.9147 33.4494 41.9336 33.525C41.9461 33.575 41.9961 33.6375 42.0586 33.675C42.1336 33.725 42.1961 33.75 42.2586 33.75C42.3086 33.75 42.3586 33.7125 42.3836 33.675C42.3961 33.65 42.4086 33.625 42.3961 33.5875L42.3586 33.4875L42.2086 33.325C42.1289 33.2439 42.069 33.1455 42.0336 33.0375C42.0117 32.9562 42.0199 32.8697 42.0567 32.7939C42.0934 32.7182 42.1562 32.6582 42.2336 32.625C42.3003 32.5955 42.3744 32.5867 42.4461 32.6C42.5364 32.6196 42.6215 32.658 42.6961 32.7125C42.8045 32.7887 42.8907 32.8922 42.9461 33.0125C42.9612 33.0678 42.9635 33.1259 42.9526 33.1823C42.9418 33.2386 42.9182 33.2917 42.8836 33.3375L42.6586 33.2C42.6836 33.1375 42.6961 33.075 42.6836 33.025C42.6711 32.9875 42.6211 32.9375 42.5586 32.9C42.4961 32.85 42.4336 32.8375 42.3836 32.8375C42.3691 32.8379 42.3549 32.8415 42.342 32.848C42.329 32.8545 42.3176 32.8637 42.3086 32.875C42.2999 32.8876 42.2943 32.9021 42.2922 32.9173C42.29 32.9325 42.2913 32.9479 42.2961 32.9625C42.2961 33.0125 42.3586 33.0875 42.4461 33.175L42.6336 33.425C42.6677 33.4872 42.6834 33.5578 42.679 33.6286C42.6746 33.6994 42.6502 33.7675 42.6086 33.825C42.565 33.8869 42.5041 33.9348 42.4336 33.9625C42.3593 33.9965 42.2759 34.0053 42.1961 33.9875C42.1013 33.9633 42.0121 33.9209 41.9336 33.8625C41.8155 33.7916 41.7268 33.6807 41.6836 33.55C41.6461 33.4375 41.6586 33.3125 41.7336 33.175V33.175ZM40.6336 32.4625L40.8836 32.5875C40.8543 32.6498 40.8455 32.7199 40.8586 32.7875C40.8711 32.85 40.9211 32.9125 40.9836 32.95C41.0586 33 41.1211 33.0125 41.1836 33C41.2336 33 41.2836 32.975 41.3086 32.925C41.3204 32.9019 41.3248 32.8757 41.3211 32.85C41.3211 32.8125 41.3086 32.7875 41.2711 32.75L41.1211 32.5875C41.0388 32.511 40.9747 32.417 40.9336 32.3125C40.917 32.2629 40.9118 32.2101 40.9183 32.1582C40.9248 32.1063 40.9428 32.0565 40.9711 32.0125C41.0082 31.9574 41.0602 31.9141 41.1211 31.8875C41.188 31.8587 41.2618 31.85 41.3336 31.8625C41.4086 31.8625 41.4836 31.9 41.5836 31.9625C41.7086 32.05 41.8086 32.1375 41.8336 32.25C41.8523 32.3035 41.8586 32.3605 41.8522 32.4168C41.8457 32.4731 41.8265 32.5272 41.7961 32.575L41.5586 32.4375C41.5961 32.375 41.5961 32.3125 41.5836 32.275C41.5586 32.225 41.5211 32.1875 41.4586 32.15C41.4049 32.1086 41.3389 32.0865 41.2711 32.0875C41.2556 32.0894 41.2407 32.0949 41.2276 32.1036C41.2146 32.1122 41.2038 32.1239 41.1961 32.1375C41.1895 32.1511 41.186 32.1661 41.186 32.1812C41.186 32.1964 41.1895 32.2114 41.1961 32.225C41.1961 32.2625 41.2586 32.3375 41.3461 32.4375C41.4461 32.525 41.5086 32.6125 41.5461 32.6625C41.5846 32.7249 41.6039 32.7973 41.6017 32.8706C41.5995 32.9439 41.5758 33.015 41.5336 33.075C41.491 33.1398 41.4306 33.1908 41.3596 33.2219C41.2886 33.2529 41.2101 33.2627 41.1336 33.25C41.0354 33.2309 40.942 33.1927 40.8586 33.1375C40.7388 33.0711 40.646 32.965 40.5961 32.8375C40.5605 32.7123 40.5739 32.5782 40.6336 32.4625ZM39.2836 32.0875L39.9836 30.9625L40.8211 31.4625L40.6961 31.6625L40.0961 31.2875L39.9336 31.5375L40.5086 31.8875L40.3836 32.0875L39.8211 31.7375L39.6336 32.05L40.2586 32.425L40.1461 32.625L39.2836 32.1V32.0875ZM37.3086 30.475L37.4211 30.275L37.9211 30.55L37.6836 31.0125C37.4809 31.0574 37.269 31.0309 37.0836 30.9375C36.9718 30.8795 36.877 30.7933 36.8086 30.6875C36.7425 30.5921 36.7076 30.4785 36.7086 30.3625C36.7086 30.2375 36.7461 30.125 36.8086 30.0125C36.8663 29.897 36.9523 29.7981 37.0586 29.725C37.1461 29.65 37.2711 29.6125 37.3961 29.6125C37.4836 29.6125 37.5961 29.65 37.7086 29.7C37.8318 29.7579 37.9328 29.8545 37.9961 29.975C38.0461 30.075 38.0586 30.1875 38.0336 30.3125L37.7711 30.2375C37.7852 30.174 37.7763 30.1076 37.7461 30.05C37.7128 29.9887 37.66 29.9403 37.5961 29.9125C37.5517 29.885 37.502 29.8674 37.4502 29.861C37.3984 29.8545 37.3459 29.8593 37.2961 29.875C37.2086 29.9125 37.1211 30 37.0461 30.125C36.9852 30.2399 36.9632 30.3715 36.9836 30.5C37.0086 30.6 37.0711 30.675 37.1836 30.725L37.3461 30.775H37.5086L37.5836 30.625L37.3086 30.475V30.475ZM28.7086 28.35L28.9086 27.025L29.3086 27.0875L29.4086 28.025L29.7836 27.15L30.1711 27.2125L29.9836 28.5375L29.7336 28.5L29.8836 27.4625L29.4711 28.4625L29.2211 28.425L29.1086 27.3375L28.9586 28.3875L28.7086 28.35V28.35ZM27.3711 28.1875L27.4961 26.8625L28.4711 26.95L28.4586 27.175L27.7336 27.1125L27.7086 27.4L28.3711 27.4625L28.3586 27.6875L27.6961 27.625L27.6586 28L28.3961 28.0625L28.3711 28.2875L27.3711 28.1875V28.1875Z" fill="#309E3A"/>
<g id="Group_2">
<path id="Vector_9" d="M22.921 27.35C22.921 27.225 22.946 27.1 22.9835 27.0125L23.1085 26.8375L23.296 26.7125C23.3883 26.6808 23.4861 26.668 23.5835 26.675C23.6702 26.6744 23.7562 26.6919 23.8358 26.7263C23.9154 26.7608 23.987 26.8114 24.046 26.875C24.171 27 24.2085 27.1625 24.2085 27.375C24.2085 27.6 24.1335 27.7625 24.021 27.875C23.9584 27.9357 23.8838 27.9826 23.802 28.0128C23.7202 28.0429 23.633 28.0556 23.546 28.05C23.4602 28.0522 23.3748 28.0367 23.2952 28.0044C23.2156 27.9722 23.1436 27.9239 23.0835 27.8625C23.0217 27.796 22.9752 27.7168 22.9471 27.6304C22.919 27.5441 22.9101 27.4527 22.921 27.3625V27.35Z" fill="#309E3A"/>
<path id="Vector_10" d="M23.1961 27.35C23.1961 27.5 23.2211 27.625 23.2961 27.7C23.3586 27.7875 23.4461 27.825 23.5461 27.825C23.5972 27.826 23.6479 27.8165 23.6952 27.7972C23.7425 27.7778 23.7853 27.749 23.8211 27.7125C23.8836 27.6375 23.9211 27.525 23.9336 27.375C23.9336 27.2125 23.9086 27.1 23.8336 27.025C23.8033 26.9875 23.7653 26.957 23.7221 26.9354C23.679 26.9139 23.6318 26.9018 23.5836 26.9C23.4586 26.9 23.3711 26.9375 23.3086 27.0125C23.2336 27.0875 23.1961 27.2 23.1836 27.35H23.1961Z" fill="#F7FFFF"/>
</g>
<g id="Group_3">
<path id="Vector_11" d="M24.4961 28.05L24.5086 26.7125H25.0711C25.2211 26.7125 25.3211 26.7375 25.3836 26.7625C25.4461 26.7875 25.5086 26.825 25.5336 26.8875C25.5586 26.95 25.5961 27.0125 25.5961 27.1C25.5961 27.2 25.5586 27.275 25.5086 27.35C25.4461 27.4125 25.3586 27.45 25.2336 27.475C25.2961 27.5 25.3461 27.5375 25.3836 27.575L25.5336 27.8L25.6961 28.05H25.3711L25.1836 27.7625C25.1378 27.6928 25.0877 27.626 25.0336 27.5625C25.0127 27.5403 24.9871 27.5232 24.9586 27.5125C24.9184 27.4981 24.8763 27.4897 24.8336 27.4875H24.7711V28.05H24.4961V28.05Z" fill="#309E3A"/>
<path id="Vector_12" d="M24.771 27.275H24.971C25.054 27.2853 25.138 27.2853 25.221 27.275L25.2835 27.2125C25.3085 27.1875 25.321 27.15 25.321 27.1125C25.321 27.0625 25.3085 27.025 25.2835 27C25.2571 26.972 25.2217 26.9543 25.1835 26.95H24.7835V27.275H24.771Z" fill="#F5F5F5"/>
</g>
<g id="Group_4">
<path id="Vector_13" d="M26.0213 26.775L26.5088 26.8C26.5934 26.8013 26.6775 26.8139 26.7588 26.8375C26.83 26.8644 26.8941 26.9071 26.9463 26.9625C27.0047 27.0317 27.0473 27.1127 27.0713 27.2C27.0963 27.2875 27.0963 27.3875 27.0963 27.5125C27.1 27.6082 27.083 27.7036 27.0463 27.7921C27.0096 27.8805 26.9542 27.96 26.8838 28.025C26.8338 28.0625 26.7713 28.1 26.6963 28.125H26.4463L25.9463 28.1125L26.0213 26.775V26.775Z" fill="#309E3A"/>
<path id="Vector_14" d="M26.2714 27.0125L26.2339 27.8875L26.4339 27.9125H26.5964L26.7089 27.85C26.7464 27.825 26.7589 27.7875 26.7839 27.725L26.8214 27.475L26.8089 27.25C26.7839 27.1875 26.7714 27.15 26.7339 27.125C26.7006 27.0881 26.6571 27.062 26.6089 27.05C26.5389 27.0353 26.4678 27.027 26.3964 27.025H26.2714V27.0125Z" fill="#F5F5F5"/>
</g>
<g id="Group_5">
<path id="Vector_15" d="M32.5586 29.1625L32.8711 27.8625L33.2836 27.9625C33.4461 28 33.5461 28.0375 33.5961 28.0625C33.6586 28.1 33.7211 28.15 33.7461 28.225C33.7836 28.3125 33.7836 28.4 33.7586 28.5C33.7475 28.5645 33.7198 28.6249 33.6781 28.6754C33.6365 28.7258 33.5823 28.7644 33.5211 28.7875C33.4781 28.8087 33.4314 28.8214 33.3836 28.825C33.2906 28.8169 33.1985 28.8002 33.1086 28.775L32.9336 28.7375L32.8086 29.225L32.5586 29.1625V29.1625Z" fill="#309E3A"/>
<path id="Vector_16" d="M33.0709 28.15L32.9834 28.525L33.1334 28.55C33.2334 28.575 33.3084 28.5875 33.3459 28.575C33.3805 28.5714 33.4132 28.5576 33.44 28.5354C33.4667 28.5131 33.4861 28.4834 33.4959 28.45L33.4834 28.3125C33.4619 28.2721 33.4263 28.241 33.3834 28.225L33.1959 28.175L33.0709 28.15V28.15Z" fill="#F5F5F5"/>
</g>
<g id="Group_6">
<path id="Vector_17" d="M33.7959 29.5375L34.2334 28.275L34.7709 28.4625C34.8684 28.49 34.9611 28.5321 35.0459 28.5875C35.0959 28.6375 35.1334 28.7 35.1584 28.775C35.1834 28.85 35.1584 28.9125 35.1334 28.9875C35.1084 29.0875 35.0459 29.15 34.9709 29.1875C34.9279 29.2125 34.8803 29.2287 34.8309 29.2352C34.7816 29.2416 34.7314 29.2381 34.6834 29.225L34.7834 29.375L34.8584 29.625L34.9209 29.925L34.6209 29.825L34.5334 29.4875C34.5139 29.4067 34.4888 29.3273 34.4584 29.25C34.4477 29.2215 34.4306 29.1959 34.4084 29.175C34.3705 29.1474 34.3282 29.1263 34.2834 29.1125L34.2334 29.1L34.0459 29.625L33.7959 29.5375V29.5375Z" fill="#309E3A"/>
<path id="Vector_18" d="M34.2959 28.9L34.4834 28.9625L34.7209 29.025C34.7584 29.025 34.7834 29.025 34.8084 29L34.8709 28.9125V28.7875C34.855 28.7548 34.8286 28.7284 34.7959 28.7125L34.6084 28.65L34.4084 28.575L34.2959 28.9V28.9Z" fill="#F5F5F5"/>
</g>
<g id="Group_7">
<path id="Vector_19" d="M35.3585 29.4875C35.3903 29.3731 35.4457 29.2667 35.521 29.175C35.5585 29.1125 35.621 29.075 35.6835 29.0375C35.7453 29.0034 35.8134 28.9822 35.8835 28.975C35.971 28.975 36.071 28.975 36.171 29.0125C36.2559 29.0337 36.3353 29.0725 36.4042 29.1263C36.4731 29.1801 36.5299 29.2478 36.571 29.325C36.646 29.475 36.6585 29.6625 36.5835 29.8625C36.5629 29.9524 36.5246 30.0374 36.471 30.1125C36.4173 30.1875 36.3494 30.2513 36.271 30.3C36.1939 30.3384 36.1097 30.3605 36.0237 30.3648C35.9376 30.3691 35.8516 30.3555 35.771 30.325C35.6862 30.3038 35.6068 30.265 35.5379 30.2112C35.469 30.1574 35.4122 30.0897 35.371 30.0125C35.2976 29.8461 35.2931 29.6573 35.3585 29.4875V29.4875Z" fill="#309E3A"/>
<path id="Vector_20" d="M35.6209 29.5625C35.5834 29.7 35.5834 29.8125 35.6209 29.9125C35.6709 30.0125 35.7459 30.075 35.8459 30.1125C35.9459 30.1375 36.0334 30.125 36.1209 30.075C36.2084 30.025 36.2834 29.925 36.3334 29.775C36.3709 29.625 36.3709 29.5125 36.3334 29.4125C36.3124 29.3663 36.2813 29.3255 36.2423 29.2931C36.2033 29.2606 36.1576 29.2373 36.1084 29.225C36.0607 29.2095 36.0102 29.2048 35.9604 29.2113C35.9107 29.2178 35.863 29.2353 35.8209 29.2625C35.7334 29.3125 35.6709 29.4125 35.6209 29.5625V29.5625Z" fill="#F5F5F5"/>
</g>
<g id="Group_8">
<path id="Vector_21" d="M37.9585 31.35L38.571 30.1625L39.071 30.4125C39.196 30.4875 39.2835 30.5375 39.321 30.5875C39.371 30.65 39.396 30.7125 39.4085 30.775C39.421 30.8375 39.4085 30.925 39.3585 30.9875C39.321 31.075 39.2585 31.1375 39.171 31.175C39.0835 31.2 38.996 31.2 38.8835 31.1625C38.921 31.2125 38.946 31.275 38.9585 31.325L38.996 31.5875L39.021 31.9L38.7335 31.75L38.696 31.4L38.6585 31.15C38.6478 31.1215 38.6307 31.0959 38.6085 31.075C38.5751 31.0443 38.5372 31.019 38.496 31L38.446 30.975L38.196 31.475L37.9585 31.35V31.35Z" fill="#309E3A"/>
<path id="Vector_22" d="M38.5459 30.7875L38.7209 30.875L38.9459 30.975C38.9834 30.975 39.0084 30.975 39.0334 30.95C39.0671 30.9326 39.0947 30.9053 39.1125 30.8718C39.1304 30.8383 39.1377 30.8002 39.1334 30.7625C39.1199 30.7252 39.0932 30.694 39.0584 30.675C39.0055 30.6397 38.9513 30.6064 38.8959 30.575L38.7084 30.4875L38.5459 30.7875V30.7875Z" fill="#F5F5F5"/>
</g>
<g id="Group_9">
<path id="Vector_23" d="M42.8962 33.7875C42.9712 33.6625 43.0462 33.5875 43.1462 33.5375C43.2072 33.4968 43.2749 33.4672 43.3462 33.45C43.4122 33.4372 43.4801 33.4372 43.5462 33.45C43.6337 33.4625 43.7337 33.5 43.8212 33.575C43.8951 33.6201 43.9588 33.6801 44.0082 33.7511C44.0577 33.8221 44.0919 33.9026 44.1087 33.9875C44.1268 34.1694 44.0779 34.3516 43.9712 34.5C43.9237 34.5807 43.8605 34.651 43.7854 34.7068C43.7102 34.7627 43.6246 34.8028 43.5337 34.825C43.4491 34.8408 43.3621 34.839 43.2782 34.8197C43.1943 34.8003 43.1153 34.7638 43.0462 34.7125C42.9723 34.6674 42.9086 34.6075 42.8591 34.5364C42.8096 34.4654 42.7754 34.3849 42.7587 34.3C42.7447 34.2106 42.7486 34.1192 42.7701 34.0313C42.7915 33.9433 42.8301 33.8605 42.8837 33.7875H42.8962Z" fill="#309E3A"/>
<path id="Vector_24" d="M43.1214 33.925C43.0464 34.05 43.0089 34.175 43.0214 34.275C43.03 34.3256 43.0488 34.3739 43.0767 34.4169C43.1047 34.4599 43.1412 34.4967 43.1839 34.525C43.2235 34.5525 43.2686 34.5712 43.316 34.5798C43.3634 34.5884 43.4122 34.5868 43.4589 34.575C43.5589 34.55 43.6589 34.475 43.7464 34.3375C43.8339 34.2125 43.8714 34.1 43.8464 34C43.8464 33.9 43.7839 33.825 43.6964 33.75C43.6089 33.675 43.5089 33.675 43.4089 33.7C43.3089 33.725 43.2214 33.8 43.1339 33.925H43.1214Z" fill="#F5F5F5"/>
</g>
<path id="Vector_25" d="M31.0459 28.625L31.2584 27.675L31.9584 27.8375L31.9209 28L31.4209 27.875L31.3709 28.0875L31.8334 28.2L31.7959 28.3625L31.3334 28.2375L31.2709 28.5L31.7959 28.625L31.7584 28.7875L31.0459 28.625V28.625Z" fill="#309E3A"/>
</g>
</g>
</g>
<defs>
<clipPath id="clip0_2909_185480">
<path d="M0.246094 32C0.246094 14.3269 14.573 0 32.2461 0V0C49.9192 0 64.2461 14.3269 64.2461 32V32C64.2461 49.6731 49.9192 64 32.2461 64V64C14.573 64 0.246094 49.6731 0.246094 32V32Z" fill="white"/>
</clipPath>
</defs>
</svg>
