<svg width="65" height="64" viewBox="0 0 65 64" fill="none" xmlns="http://www.w3.org/2000/svg">
<g id="Rounded=Bahamas (BS)">
<g clip-path="url(#clip0_2909_185454)">
<g id="Group">
<path id="Vector" fill-rule="evenodd" clip-rule="evenodd" d="M124.614 64.0019H-6.05127V0.168671H124.614V64.0019Z" fill="#F5F5F5"/>
<path id="Vector_2" fill-rule="evenodd" clip-rule="evenodd" d="M124.614 45.9163H-6.05127V19.0546H124.614V45.9163Z" fill="#FFE900"/>
<path id="Vector_3" fill-rule="evenodd" clip-rule="evenodd" d="M124.614 64.0019H-6.05127V42.7286H124.614V64.0019ZM124.614 21.4553H-6.05127V0.208679H124.614V21.4553Z" fill="#08CED6"/>
<path id="Vector_4" fill-rule="evenodd" clip-rule="evenodd" d="M-6.10475 -0.058075C-5.82492 -0.058075 46.1692 31.5518 46.1692 31.5518L-6.26465 63.8819L-6.10475 -0.058075Z" fill="black"/>
</g>
</g>
</g>
<defs>
<clipPath id="clip0_2909_185454">
<path d="M0.246094 32C0.246094 14.3269 14.573 0 32.2461 0V0C49.9192 0 64.2461 14.3269 64.2461 32V32C64.2461 49.6731 49.9192 64 32.2461 64V64C14.573 64 0.246094 49.6731 0.246094 32V32Z" fill="white"/>
</clipPath>
</defs>
</svg>
