<svg width="65" height="64" viewBox="0 0 65 64" fill="none" xmlns="http://www.w3.org/2000/svg">
<g id="Rounded=Bhutan (BT)">
<g clip-path="url(#clip0_2909_185369)">
<path id="Vector" d="M0.246094 0H64.2461V64H0.246094V0Z" fill="#FFD520"/>
<path id="Vector_2" d="M0.246094 64H64.2461V0L0.246094 64Z" fill="#FF4E12"/>
<g id="Group">
<g id="Group_2">
<path id="Vector_3" d="M35.4832 20.3125C34.9832 20.1375 34.6832 20.3875 34.6957 21.025C34.7082 21.65 35.0457 22.0125 35.5332 21.775L35.4832 20.3125Z" fill="white" stroke="black" stroke-width="0.05"/>
<path id="Vector_4" d="M35.9085 19.1375C35.5085 18.8125 35.121 18.95 34.9335 19.55C34.746 20.15 34.946 20.6 35.4835 20.5375L35.9085 19.1375V19.1375Z" fill="white" stroke="black" stroke-width="0.05"/>
<path id="Vector_5" d="M36.5833 18C36.2333 17.625 35.8333 17.6875 35.5583 18.25C35.2833 18.8125 35.3958 19.2875 35.9333 19.3125L36.5833 18ZM36.1458 23.525C35.5458 23.75 35.4833 24.5625 35.8583 25.0625C36.2333 25.5625 36.9208 25.6625 37.3083 25.0625L36.1333 23.525H36.1458Z" fill="white" stroke="black" stroke-width="0.05"/>
<path id="Vector_6" d="M35.4461 21.8C34.8836 21.6125 34.3711 22.375 34.2836 23.05C34.1836 23.925 32.9586 24.2 33.6336 25.5125C33.7711 24.675 34.3211 24.225 34.7586 24.1875C35.1961 24.1625 35.8586 24.0625 36.1336 23.525L35.4461 21.8V21.8ZM37.2336 25.1625C36.5836 25.325 36.4836 26.2 36.9586 26.825C37.3586 27.3625 38.6211 27.2375 38.5836 26.7L37.2461 25.1625H37.2336ZM39.1086 30.45C39.1336 29.8875 38.2336 29.6625 37.7961 29.775C37.3461 29.8875 36.5086 29.7625 36.3086 29.2875C36.1586 29.6625 36.3836 30.075 37.0211 30.2875C37.4961 30.4375 37.4961 30.7875 37.3461 30.9375C37.7211 31 38.7836 31 39.0961 30.45H39.1086Z" fill="white" stroke="black" stroke-width="0.05"/>
<path id="Vector_7" d="M38.5957 26.8375C37.9457 26.5625 37.5582 26.9875 37.3207 27.4125C36.9457 28.025 35.8457 27.2375 35.4707 28.05C35.9707 27.8375 36.4957 28.3 36.7332 28.4625C37.4332 28.9125 38.7582 28.775 38.9457 27.7125L38.5832 26.8375H38.5957Z" fill="white" stroke="black" stroke-width="0.05"/>
<path id="Vector_8" d="M38.9709 27.6C38.3209 28.075 38.0709 28.6625 38.0959 29.05C38.0959 29.45 38.6584 30.3 39.2459 30.3625C39.5959 29.65 39.7709 28.1625 38.9709 27.6ZM36.2959 30.625C36.2959 30.3875 36.6459 30.3 36.8834 30.375C37.1084 30.45 37.4709 30.6875 37.3459 30.9375L36.2959 30.625ZM32.7459 29.3375C32.6834 29.05 33.1459 28.5625 33.7459 28.8375C34.3709 29.1 34.4459 29.625 34.1959 29.825L32.7459 29.3375Z" fill="white" stroke="black" stroke-width="0.05"/>
<path id="Vector_9" d="M34.2459 29.85C34.1959 29.7 34.6334 29.3875 35.3834 29.575C36.1334 29.7625 36.3209 30.25 36.2959 30.625L34.2459 29.85V29.85ZM32.6709 29.3375C33.0584 29.0375 32.9209 28.4625 32.5584 28.3C31.9209 27.9875 32.1584 27.175 31.7459 27.0125C31.3334 26.8625 30.9459 26.575 30.9334 26.2875C30.7209 26.6875 30.8459 27.0375 31.1334 27.2875C31.4209 27.5375 30.9084 28.5625 31.2709 28.8375L32.6709 29.3375V29.3375ZM24.2584 29.1125C23.9334 28.6 23.1334 28.7 22.8209 29.05C22.4834 29.425 22.5334 29.95 22.8459 30.175L24.2584 29.1125ZM26.1334 28.35C26.0084 27.6625 25.1834 27.575 24.7334 27.75C24.2709 27.925 23.9584 28.625 24.2584 29.125L26.1334 28.35Z" fill="white" stroke="black" stroke-width="0.05"/>
<path id="Vector_10" d="M27.3959 28.25C27.6959 27.675 27.1209 26.8125 26.4584 26.6875C25.9084 26.575 25.2584 26.5875 25.0459 26.0375C24.9209 26.5125 25.2584 26.8125 25.6709 27.075C26.0834 27.35 25.5959 28.0375 26.2584 28.425L27.3959 28.25V28.25Z" fill="white" stroke="black" stroke-width="0.05"/>
<path id="Vector_11" d="M27.3335 28.275C27.2085 27.8625 27.4835 27.3 28.046 27.3375C28.6085 27.3875 28.921 27.7875 28.671 28.3L27.3335 28.275Z" fill="white" stroke="black" stroke-width="0.05"/>
<path id="Vector_12" d="M28.596 28.3C28.5085 27.875 28.871 27.3625 29.421 27.4875C29.971 27.6 30.2335 28.05 29.921 28.525L28.596 28.3Z" fill="white" stroke="black" stroke-width="0.05"/>
<path id="Vector_13" d="M29.8335 28.5C29.7835 28.075 30.1585 27.575 30.7085 27.725C31.2585 27.8625 31.496 28.325 31.146 28.7875L29.8335 28.5ZM20.371 35.7C19.321 35.7 19.0585 35.95 18.9085 37.025C18.721 38.375 20.5585 38.525 20.371 35.7Z" fill="white" stroke="black" stroke-width="0.05"/>
<path id="Vector_14" d="M20.8334 34.2875C19.2209 33.6625 18.3334 36.225 16.7459 35.775C17.3209 36.6875 18.7084 35.775 19.2209 35.8625C20.0959 36.025 21.9959 35.7 20.8459 34.2875H20.8334ZM19.7834 37.7875C18.9834 37.4125 18.1209 38.6375 18.2834 39.175C18.4834 39.8625 20.3084 39.3 19.7834 37.7875ZM16.0459 43.05C16.4959 43.175 17.0209 43.425 16.9209 44.275C16.8334 45.125 15.2334 46.85 13.7959 46.95C12.3459 47.0375 11.8334 48.7875 10.5834 48.3C11.7459 48.075 11.7459 46.7625 12.6584 46.35C11.9959 46.1125 11.6584 47.6 10.8084 47.6C9.9584 47.6 9.5584 48.9625 8.5209 48.8625C7.4834 48.775 7.3709 50.5 5.2959 50.525C3.7209 50.5375 1.7584 52.4 1.0459 51.6C2.5834 51.375 3.2084 50.525 4.1209 49.5875C5.5959 48.0875 7.2584 48.75 7.8334 47.425C7.17225 47.8668 6.39086 48.0938 5.5959 48.075C4.6334 48.0625 3.5709 49.6125 2.4959 48.925C3.1209 48.85 3.5334 48.575 4.1834 47.8875C4.8584 47.1875 5.8459 47.6375 6.6334 46.9125C7.8584 45.7875 8.9084 46.725 10.0834 45.3125C9.7584 45.1625 9.0459 45.275 8.3959 45.6125C7.7334 45.9625 6.8959 45.375 6.1334 45.7875C6.2209 44.8625 7.9834 45.3875 9.0834 44.75C10.3334 44.025 11.3459 44.25 12.3334 44.325C10.9584 44.325 10.4334 43.025 8.5459 43.4C7.7334 43.5625 7.0709 42.275 6.2584 42.925C6.2834 42.4375 7.1334 42.05 8.0084 42.525C8.8834 42.9875 9.2584 42.1125 11.0084 43.2125C11.7209 43.6625 12.9584 42.925 13.7459 43.4125C13.6459 43.1125 13.1959 42.925 12.6709 42.975C12.9959 42.3 15.1209 42.3875 16.0459 43.0625V43.05Z" fill="white" stroke="black" stroke-width="0.05"/>
<path id="Vector_15" d="M17.446 42.0375C16.7585 41.5 15.796 42.15 15.146 41.8875C15.146 42.3375 15.3585 42.9875 16.0835 43.2375C16.5625 42.8619 17.0215 42.4613 17.4585 42.0375H17.446Z" fill="white" stroke="black" stroke-width="0.05"/>
<path id="Vector_16" d="M18.5332 40.5125C17.4457 39.9625 17.2582 41.325 16.4082 41.05C16.4457 41.4375 16.7582 41.925 17.4457 42.0375L18.5332 40.5125Z" fill="white" stroke="black" stroke-width="0.05"/>
<path id="Vector_17" d="M19.1709 39.275C17.5709 38.65 17.3709 40.1875 16.4209 39.8875C16.6459 40.4125 17.9959 40.7 18.6834 40.5125L19.1834 39.2625L19.1709 39.275ZM21.3709 32.5375C20.9459 31.9375 20.0584 32.425 19.9084 33.1375C19.7709 33.8375 20.1209 34.825 20.7084 34.6125L21.3709 32.5375V32.5375Z" fill="white" stroke="black" stroke-width="0.05"/>
<path id="Vector_18" d="M22.4585 30.65C21.7085 30.4875 20.871 30.5625 20.9585 31.275C20.6835 31.4 20.596 32.3375 21.371 32.5375L22.4585 30.6625V30.65Z" fill="white" stroke="black" stroke-width="0.05"/>
<path id="Vector_19" d="M22.9459 30.1625C22.2209 29.325 21.4084 29.3375 20.9584 29.7C20.1334 30.3625 19.3334 29.975 19.2959 30.6375C19.7959 30.2625 20.2459 30.7125 20.6459 30.575C21.0584 30.4375 21.3584 31.225 22.4834 30.8875L22.9459 30.1625V30.1625ZM21.1959 42.8375C21.3084 43.0375 21.9834 43.1375 22.3209 42.7875C22.7459 42.325 22.2709 41.0625 21.5709 40.9625C20.8834 40.875 20.8209 42.4 21.1959 42.8375Z" fill="white" stroke="black" stroke-width="0.05"/>
<path id="Vector_20" d="M20.4082 42.875C21.4082 43.225 21.8207 42.4125 21.2832 41.8875C21.0133 42.2314 20.721 42.5571 20.4082 42.8625V42.875Z" fill="white" stroke="black" stroke-width="0.05"/>
<path id="Vector_21" d="M16.7082 44.2125C16.5207 44.7875 15.5457 44.875 14.4582 46.6375C13.3457 48.3875 12.2957 47.65 12.0332 48.8625C13.3457 47.8 14.3832 48.5 15.1707 47.45C16.3707 45.85 17.3457 46.075 17.8082 45C18.4707 43.4625 21.3582 43.5 21.5082 41.075C20.5457 40.8875 17.4582 43.5 16.7082 44.2125V44.2125ZM41.4957 20.5C42.7457 20.9125 42.7832 22.5375 44.2207 23.075C45.6707 23.6 45.8082 24.8875 46.9832 24.575C45.8832 24.275 45.9582 23.0125 44.8207 22.7C43.4707 22.325 42.9707 20.275 41.8957 19.9625L41.4957 20.5ZM47.2457 29.025C47.4707 29.525 47.4332 30.4125 46.6582 30.65C47.0832 30.925 47.7082 30.6625 48.0457 30.0875C47.5332 31.2375 47.8832 32.275 48.6957 32.4625C48.3082 31.675 49.1832 31.3 48.8957 30.775C49.4207 31 49.8707 31.7 49.8582 32.15C50.5332 31.4 49.3582 30.3875 49.5707 29.675L47.2457 29.025ZM39.1207 37.0875C38.3457 36.4125 38.0207 37.2625 37.6457 36.9625C37.2957 36.7 36.8207 36.6625 36.6457 36.9375C37.2957 36.95 36.9832 37.4625 38.2582 37.5875C36.9832 37.675 37.2082 39.1 36.3582 39.0375C37.2707 39.9 37.7332 38.2625 38.4832 38.5375C38.2582 38.6 38.8207 39.1125 38.4332 39.8C39.0582 39.7875 39.3207 38.9125 39.4082 38.45L39.1207 37.0875V37.0875ZM22.1832 44.4125C21.8957 44.1875 21.0832 44.075 20.7707 44.2625C20.4582 44.45 20.5707 44.5 20.9457 44.525C21.3207 44.5625 21.8082 45.1625 20.9957 45.2C20.6207 45.2125 20.7457 46.125 19.9582 46.2C20.2707 46.575 21.1957 46.325 21.5207 45.8875C21.4582 46.25 21.9332 46.5625 21.7457 46.9875C22.3207 47.05 21.9957 45.8125 22.9082 45.875C22.5332 45.925 22.6832 46.775 23.3457 46.55C22.9582 46.7375 23.1582 47.2 23.5957 47.0875C23.3207 47.175 23.2207 47.5375 23.6082 47.75C23.9832 47.225 23.5707 45.375 22.1832 44.4125V44.4125ZM56.3707 27.0875C56.9476 27.0875 57.5008 26.8583 57.9087 26.4505C58.3166 26.0426 58.5457 25.4893 58.5457 24.9125C58.5457 24.3356 58.3166 23.7824 57.9087 23.3745C57.5008 22.9666 56.9476 22.7375 56.3707 22.7375C55.7939 22.7375 55.2406 22.9666 54.8327 23.3745C54.4249 23.7824 54.1957 24.3356 54.1957 24.9125C54.1957 25.4893 54.4249 26.0426 54.8327 26.4505C55.2406 26.8583 55.7939 27.0875 56.3707 27.0875V27.0875Z" fill="white" stroke="black" stroke-width="0.05"/>
<path id="Vector_22" d="M44.996 29.7125C45.6585 29.0875 46.6585 28.775 47.346 29.25C48.0335 29.7125 50.3335 30.275 51.471 29.5C52.596 28.7125 53.121 28.3 53.621 28.4C53.996 28.9625 54.4585 29.225 55.021 29.275C55.196 29.4625 55.8085 29.625 56.146 29.575C56.646 29.7 57.271 29.5375 57.7585 29.0125C58.5085 29.1125 59.2085 28.55 59.4835 27.7C60.2835 27.6125 60.3335 26.7125 59.821 26.125C59.3585 26.025 59.721 24.4375 58.0085 24.75C58.721 25.1875 58.171 26.075 58.771 26.475C58.371 26.475 57.846 26.65 57.721 27.2625C57.871 26.8375 57.696 26.5625 57.5835 26.4625C57.596 26.1 56.796 25.2125 56.046 25.5375C56.5835 25.6625 56.2835 26.5375 56.671 26.8625C56.5243 26.87 56.381 26.9097 56.2514 26.9789C56.1218 27.048 56.009 27.1448 55.921 27.2625C55.7085 26.9 54.996 26.525 54.546 26.5C54.546 26.375 54.5335 26.125 54.471 26C54.2299 25.5755 54.1334 25.0842 54.196 24.6C53.821 25 53.496 25.575 53.321 25.975C52.721 25.575 51.246 26.1625 50.546 26.325C49.8585 26.4875 47.546 26.1 47.0085 25.5375C46.2649 24.9448 45.3907 24.5377 44.4585 24.35C43.121 23.9625 43.1085 22.5 41.6335 21.4875C41.6085 23.3125 44.371 29.0875 44.996 29.7125V29.7125ZM29.621 43.5875C30.178 43.5875 30.7121 43.3663 31.1059 42.9724C31.4997 42.5786 31.721 42.0445 31.721 41.4875C31.721 40.9306 31.4997 40.3964 31.1059 40.0026C30.7121 39.6088 30.178 39.3875 29.621 39.3875C29.064 39.3875 28.5299 39.6088 28.1361 40.0026C27.7422 40.3964 27.521 40.9306 27.521 41.4875C27.521 42.0445 27.7422 42.5786 28.1361 42.9724C28.5299 43.3663 29.064 43.5875 29.621 43.5875Z" fill="white" stroke="black" stroke-width="0.05"/>
<path id="Vector_23" d="M24.5834 41.975C25.0084 42.525 25.7334 42.4875 26.0334 42.4375C26.2834 43.1 27.0834 43.0875 27.4334 43.4375C27.7709 43.8125 28.9584 43.775 29.3084 43.5625C28.9834 43.5375 28.5709 43.35 28.1834 43.025C27.7084 42.625 27.9334 41.8375 27.5584 41.55C27.8334 41.2375 27.8834 40.7125 27.8209 40.5125C28.1209 40.3375 28.3459 40.0625 28.3709 39.9125C28.8046 39.8856 29.2156 39.7089 29.5334 39.4125C29.7959 39.6625 30.4709 39.3375 30.8334 39.7625C30.9209 38.725 29.9209 38.175 29.2709 38.5125C28.9959 38.3875 28.2959 38.475 28.1709 38.6625C27.9459 38.5625 27.3334 38.875 27.0459 39.0875C27.3709 38.9125 27.4209 38.4 27.2959 38.2125C27.5459 38.0875 27.8584 37.7375 27.8834 37.4625C28.2584 37.525 28.8209 37.275 29.0834 37.3375C28.6709 36.8125 27.9959 36.625 27.3084 36.6625C26.5834 36.7125 26.2834 37.2125 26.1834 37.75C25.7709 38 25.6209 38.85 25.7834 39.15C25.5334 39.15 25.3084 39.375 25.2209 39.5125C24.8599 39.3614 24.4745 39.2767 24.0834 39.2625L24.5834 41.975ZM24.2334 38.4125C24.0834 38 24.2709 37.6375 24.3584 37.3125C24.6084 36.4875 24.4584 36.275 23.7334 36.3875C23.7752 37.0874 23.9447 37.7736 24.2334 38.4125V38.4125Z" fill="white" stroke="black" stroke-width="0.05"/>
<path id="Vector_24" d="M23.6836 36.425C23.8711 36.625 24.5461 36.7125 24.6086 36.1125C24.6961 35.425 24.4211 35.1625 23.8211 35.425C23.7711 35.5875 23.7211 36.225 23.6961 36.425H23.6836Z" fill="white" stroke="black" stroke-width="0.05"/>
<path id="Vector_25" d="M23.8333 35.4C24.0833 35.5 24.6208 35.7125 24.9208 35.125C25.1708 34.6375 24.8458 34.2625 24.3208 34.3C24.1958 34.4375 23.9458 34.9375 23.8208 35.4H23.8333Z" fill="white" stroke="black" stroke-width="0.05"/>
<path id="Vector_26" d="M24.2959 34.25C24.3584 34.4375 24.9959 35.0625 25.4709 34.6125C25.9334 34.1625 25.9334 33.4875 25.2334 33.2375C25.0459 33.2625 24.4834 33.925 24.2959 34.25Z" fill="white" stroke="black" stroke-width="0.05"/>
<path id="Vector_27" d="M25.2332 33.225C25.3707 33.625 25.8082 34.3 26.6332 33.975C27.4457 33.675 27.0957 32.65 26.7207 32.45C26.5082 32.45 25.6082 32.8625 25.2207 33.225H25.2332Z" fill="white" stroke="black" stroke-width="0.05"/>
<path id="Vector_28" d="M26.7207 32.45C26.6582 32.7875 26.7207 33.7375 27.8457 33.7125C28.9457 33.7125 28.6332 32.4 28.3457 32.2125C27.8957 32.2125 27.1332 32.225 26.7207 32.45Z" fill="white" stroke="black" stroke-width="0.05"/>
<path id="Vector_29" d="M28.4085 32.25C28.2835 32.525 27.996 34.275 30.171 33.8C30.4585 33.7375 31.196 32.1125 28.396 32.2625L28.4085 32.25Z" fill="white" stroke="black" stroke-width="0.05"/>
<path id="Vector_30" d="M29.596 32.4125C29.371 32.6375 29.946 34.4125 31.421 34.1125C32.896 33.8125 31.6585 32.125 29.596 32.4125Z" fill="white" stroke="black" stroke-width="0.05"/>
<path id="Vector_31" d="M30.8457 32.675C30.6207 33.175 30.9707 34.6125 32.7832 34.6125C34.4457 34.6125 32.7082 32.7125 30.8582 32.675H30.8457Z" fill="white" stroke="black" stroke-width="0.05"/>
<path id="Vector_32" d="M32.2832 33.1C32.1582 33.375 32.0207 34.9 34.1582 35.0375C35.7207 35.125 35.3457 32.925 32.2832 33.1Z" fill="white" stroke="black" stroke-width="0.05"/>
<path id="Vector_33" d="M34.5832 33.75C34.3207 34.225 34.0332 35.4 36.3957 35.5C37.8957 35.55 36.9707 33.775 34.5832 33.75Z" fill="white" stroke="black" stroke-width="0.05"/>
<path id="Vector_34" d="M36.5459 34.1125C36.2084 34.575 36.4584 35.5 37.3334 35.675C38.4334 35.9 38.5834 34.8625 37.8334 34.3625C37.0834 33.8625 36.5459 34.1125 36.5459 34.1125Z" fill="white" stroke="black" stroke-width="0.05"/>
<path id="Vector_35" d="M37.6209 34.325C37.3709 34.7625 37.5209 35.825 39.1834 35.825C39.5334 35.825 40.8459 34.4875 37.6209 34.325ZM24.7334 54.8C25.3815 54.8 26.0031 54.5425 26.4614 54.0843C26.9197 53.626 27.1771 53.0044 27.1771 52.3563C27.1771 51.7081 26.9197 51.0866 26.4614 50.6283C26.0031 50.17 25.3815 49.9125 24.7334 49.9125C24.0869 49.9125 23.4669 50.1693 23.0098 50.6264C22.5527 51.0836 22.2959 51.7035 22.2959 52.35C22.2959 52.9965 22.5527 53.6165 23.0098 54.0736C23.4669 54.5307 24.0869 54.7875 24.7334 54.7875V54.8Z" fill="white" stroke="black" stroke-width="0.05"/>
<path id="Vector_36" d="M42.6336 19.2875C42.4461 19.475 42.0586 20.0375 41.9836 20.2625C41.1586 22.7125 43.3461 24.55 44.6086 27.175C45.1348 28.3647 45.3478 29.6692 45.2275 30.9644C45.1071 32.2597 44.6574 33.5026 43.9211 34.575C43.3836 35.2875 43.5461 35.4875 42.8586 36.2125C42.5961 36.4875 42.2961 36.8375 42.3836 37.8375C42.8336 37.6875 43.4586 38.0875 43.5836 38.4375C43.8961 38.2875 44.3336 38.35 44.4961 38.5375C45.0211 38.2875 45.4711 38.4125 45.9336 38.9125C46.3461 38.85 46.7836 38.9125 47.1836 39.35C47.4086 38.9125 47.8461 38.75 48.1586 38.85C48.1336 38.2875 48.6961 37.875 49.1961 38.1C49.1554 37.9382 49.1591 37.7684 49.207 37.6086C49.2548 37.4487 49.345 37.3048 49.468 37.1921C49.591 37.0793 49.7422 37.002 49.9056 36.9681C50.069 36.9343 50.2385 36.9453 50.3961 37C50.9586 36.5625 52.0836 36.525 52.6461 37.1875C51.6461 36.9 51.6836 37.975 50.8336 37.875C51.0586 38.5 50.4836 38.875 49.9211 39.0625C50.2836 38.9 50.6711 38.6875 50.7961 38.9125C51.1086 38.6375 51.7461 38.7375 51.8961 38.875C52.3211 38.75 52.7211 38.85 52.8961 39.35C53.4711 39.7 53.8461 40.575 53.4336 41.225C53.3086 40.5375 52.8461 40.575 52.6586 40.2875C52.2086 40.45 51.7836 40.45 51.6586 40.1625C51.4086 40.4125 50.5461 40.6375 50.1711 40.2625C50.0336 40.825 49.5461 41.3 48.9836 41.3C49.1336 41.7375 48.6961 42.4875 48.3586 42.8625C48.8836 43.15 48.7336 43.775 48.6086 44.15C49.4211 44.275 48.7336 45 50.1461 45.475C49.4461 45.6875 48.0961 45.475 47.9086 44.625C47.2211 44.5875 46.7461 43.9 46.7836 43.175C46.2461 42.675 46.1586 41.9625 46.9086 41.45C46.2836 41.6375 45.9336 40.6375 45.0336 41.05C44.5711 41.25 43.3836 40.9 43.3961 40.4875C43.2086 40.8 42.0586 40.675 41.8961 40.1375C41.5211 40.3375 40.6461 40 40.6586 39.475C40.1711 39.7 39.5211 39.3 39.5461 38.8C39.0961 38.7375 39.0461 38.3375 39.0711 37.9875C38.6711 37.8 38.7836 37.4 38.9461 36.9375C38.6586 36.625 38.7836 36.1875 38.9961 35.775C38.6836 35.4625 38.7461 35.0875 38.8461 34.65C37.3336 34.525 35.4461 34.15 31.1211 32.825C24.5961 30.825 22.8336 35.525 24.2711 38.475C25.9461 41.875 24.0836 42.6125 24.6461 45.1625C25.2461 45.2875 25.5586 45.7875 25.5211 46.325C25.8836 46.325 26.1461 46.6625 26.0211 47.2875C26.187 47.2607 26.3569 47.2727 26.5174 47.3226C26.6779 47.3725 26.8246 47.4589 26.9461 47.575C27.1586 47.1625 27.8836 47.075 28.2586 47.55C29.0836 47.4875 29.4836 48.1375 29.4586 48.9625C29.6535 49.3316 29.7394 49.7486 29.7062 50.1647C29.673 50.5809 29.5221 50.9789 29.2711 51.3125C29.3086 50.9875 29.2711 50.5125 29.2461 50.225C29.2211 49.7125 28.4961 49.6 28.5711 49.175C28.1961 49.2125 27.8336 49 27.7086 48.725C27.5996 48.817 27.4686 48.8792 27.3284 48.9055C27.1882 48.9318 27.0436 48.9213 26.9086 48.875C27.3336 49.0625 27.6586 49.825 27.5336 50.325C27.7586 50.7 27.7086 51.3875 27.4461 51.7C27.3211 52.3 26.8461 52.525 26.2336 52.25C26.3859 52.1477 26.5087 52.0074 26.5898 51.8429C26.671 51.6784 26.7076 51.4955 26.6961 51.3125C26.4907 51.1042 26.3665 50.8293 26.3461 50.5375C25.7336 50.6375 24.8836 50.1125 24.7211 49.9125C24.401 49.9141 24.0844 49.9788 23.7893 50.1028C23.4942 50.2268 23.2264 50.4078 23.0012 50.6353C22.776 50.8628 22.5979 51.1324 22.4769 51.4288C22.3559 51.7251 22.2945 52.0424 22.2961 52.3625C22.2336 51.8625 21.5961 51.3625 21.6711 50.9375C21.2961 49.775 21.8336 48.6875 23.3711 48.475C23.1836 48.0375 23.8336 47.575 23.5836 47.075C23.0952 46.1851 22.4944 45.3617 21.7961 44.625C22.3336 43.7125 22.1711 42.5 21.8586 41.7375C21.4086 40.65 20.9836 40.925 19.3836 42.675C16.7586 45.55 13.2836 44.75 10.2086 46.6375C9.39612 47.1375 8.58362 47.325 9.45862 46.45C10.3336 45.575 12.6586 44.7 14.1711 43.9375C16.9961 42.525 19.3836 40.1625 20.3211 35.5875C22.5336 24.8125 30.6836 28.3625 35.8211 30.375C40.6586 32.25 39.7836 27.9875 37.3336 25.4125C34.3961 22.325 34.9836 19.8875 36.3586 17.9375C38.8461 17.6 43.5961 18.4625 42.6336 19.2875V19.2875Z" fill="white" stroke="black" stroke-width="0.05"/>
<path id="Vector_37" d="M51.3711 45.75C51.724 45.75 52.0735 45.6805 52.3996 45.5454C52.7256 45.4104 53.0219 45.2124 53.2714 44.9628C53.521 44.7133 53.719 44.417 53.854 44.091C53.9891 43.7649 54.0586 43.4154 54.0586 43.0625C54.0586 42.7096 53.9891 42.3601 53.854 42.034C53.719 41.708 53.521 41.4117 53.2714 41.1622C53.0219 40.9126 52.7256 40.7146 52.3996 40.5796C52.0735 40.4445 51.724 40.375 51.3711 40.375C50.6583 40.375 49.9747 40.6581 49.4707 41.1622C48.9667 41.6662 48.6836 42.3497 48.6836 43.0625C48.6836 43.7753 48.9667 44.4588 49.4707 44.9628C49.9747 45.4669 50.6583 45.75 51.3711 45.75V45.75Z" fill="white" stroke="black" stroke-width="0.05"/>
</g>
<g id="Group_3">
<path id="Vector_38" d="M41.1333 19.4125C40.5333 22.05 41.0333 23.25 41.9208 24.4125C43.7333 26.8125 45.1708 32.2875 43.1083 35.8625" stroke="black" stroke-width="0.05"/>
<g id="Group_4">
<path id="Vector_39" d="M41.521 22.5125C41.6335 22.45 41.9335 22.35 41.896 22.125M44.271 32.775C44.521 32.675 44.996 32.3875 45.1085 31.8625L44.271 32.775ZM44.4585 31.625C44.5335 31.175 45.246 30.975 45.2585 30.5L44.4585 31.625ZM44.471 29.85C44.4335 29.3875 45.1835 28.9625 45.071 28.4875L44.471 29.85ZM44.071 28.1625C44.0085 27.9 44.696 27.3875 44.5085 26.9625L44.071 28.1625ZM43.546 26.5125C43.4085 26.2125 43.8835 25.875 43.671 25.55L43.546 26.5125ZM42.796 25.1875C42.746 24.9875 43.046 24.5375 42.8835 24.275L42.796 25.1875ZM42.046 23.65C42.1085 23.5625 42.3585 23.375 42.2585 23.1375L42.046 23.65Z" stroke="black" stroke-width="0.05" stroke-linecap="round"/>
<path id="Vector_40" d="M57.1836 24.5125C56.7336 24.5375 56.3586 24.1125 56.3836 23.75C56.3836 24.0125 57.0086 24.1375 57.1836 23.9625M25.8086 52.1C25.1836 51.875 24.3961 52.1875 24.2461 52.725L25.8086 52.1ZM24.7086 53.2125C24.7961 52.675 25.6086 52.4375 25.8586 52.6875C25.3461 52.4125 25.0961 53.4125 25.5461 53.4375L24.7086 53.2125ZM29.7711 40.8C29.3961 40.9875 29.2711 41.675 29.7711 42.1875V40.8ZM30.3336 40.95C30.0711 41.175 30.0836 41.825 30.4711 41.9875C30.1461 41.75 30.4711 41.35 30.7211 41.325C30.9461 41.325 31.0961 41.6 30.8211 41.875L30.3336 40.95ZM52.3836 42.5C51.5086 42.275 50.7961 43.2875 51.5961 44.2C51.5961 43.325 52.2211 42.7375 52.9711 42.9L52.3836 42.5ZM52.6336 43.5C52.5888 43.4982 52.5441 43.5058 52.5024 43.5221C52.4606 43.5384 52.4227 43.5632 52.391 43.5949C52.3593 43.6266 52.3345 43.6645 52.3182 43.7063C52.3019 43.748 52.2943 43.7927 52.2961 43.8375C52.2961 44.0125 52.4461 44.175 52.6836 44.175C52.8461 44.175 52.9711 44 52.9711 43.85L52.6336 43.5ZM55.7211 24.225C55.8711 24.775 56.5961 24.9875 57.1836 24.8625L55.7211 24.225Z" stroke="black" stroke-width="0.05" stroke-linecap="round" stroke-linejoin="round"/>
<path id="Vector_41" d="M57.7087 27.2625C57.6509 27.508 57.5201 27.7302 57.3337 27.9M26.0337 42.4375C25.9087 42.125 26.4087 41.8125 26.4212 41.5125C26.4462 41.2125 26.9962 40.9875 27.5462 41.55L26.0337 42.4375ZM27.2962 38.2C27.1712 38.25 27.0837 38.325 26.9962 38.35L27.2962 38.2ZM28.3712 39.9125C28.2462 39.9125 27.9587 39.9125 27.8087 39.8L28.3712 39.9125ZM27.8212 40.5125C27.7087 40.5625 27.4712 40.6625 27.3212 40.6875L27.8212 40.5125ZM22.4462 49.9875C22.4212 50.275 22.6962 50.6875 22.8587 50.8125L22.4462 49.9875ZM23.6587 49.3125C23.5087 49.5625 23.4087 49.9625 23.5087 50.2375L23.6587 49.3125ZM26.0087 50.2625C25.7212 50.075 25.9087 49.5875 25.8837 49.2625C25.8462 48.95 26.2087 48.45 26.9087 48.8875L26.0087 50.2625ZM23.3587 48.475C23.6462 48.425 23.9462 48.4375 24.1337 48.5125L23.3587 48.475ZM26.9462 47.575C26.8466 47.7196 26.7863 47.8876 26.7712 48.0625L26.9462 47.575ZM28.2712 47.5375C28.0462 47.5375 27.8587 47.7 27.7587 47.8625L28.2712 47.5375ZM25.2212 39.5C25.4712 39.5875 26.1212 39.9875 26.1462 40.4L25.2212 39.5ZM27.8837 37.45C27.1087 37.45 26.8212 36.65 27.3962 36.65L27.8837 37.45ZM29.2712 38.5C28.9712 38.625 29.1087 39.15 29.5212 39.4L29.2712 38.5ZM27.4337 43.4375C27.2837 43.25 27.4712 42.6875 27.9587 42.8625L27.4337 43.4375ZM28.5837 49.1625C28.6087 48.6875 29.2087 48.4125 29.4587 48.9375L28.5837 49.1625ZM26.3462 50.525C26.3087 50 26.5712 49.825 26.8087 49.8C27.0462 49.7625 27.3837 49.9625 27.5337 50.3L26.3462 50.525ZM21.6587 50.925C21.6962 50.6125 21.9712 50.275 22.2462 50.325L21.6587 50.925ZM50.3962 37C50.1837 37.15 50.0587 37.8125 50.8337 37.875L50.3962 37ZM49.2087 38.1C49.2087 38.175 49.2962 38.2875 49.3587 38.325L49.2087 38.1ZM52.8962 39.35C52.6962 39.1875 52.1712 39.825 52.6462 40.2875L52.8962 39.35ZM47.9087 44.625C47.7837 44.175 48.2087 44.0625 48.5962 44.15L47.9087 44.625ZM46.9087 41.45C47.1462 41.3 47.3837 41.125 47.6712 41.05L46.9087 41.45ZM46.7837 43.175C46.7837 42.8 46.9712 42.4875 47.1462 42.4L46.7837 43.175ZM48.1587 38.85C48.152 39.2456 48.2559 39.6352 48.4587 39.975L48.1587 38.85ZM51.8962 38.875C51.6712 38.95 51.4712 39.0375 51.3837 39.225L51.8962 38.875ZM51.6462 40.1625C51.7587 40.075 51.8837 39.9625 51.9337 39.8875L51.6462 40.1625ZM57.5837 26.4625C57.5837 26.9 57.0337 27.1375 56.6712 26.8625L57.5837 26.4625ZM58.7712 26.4875C59.0212 26.6625 59.8587 26.4875 59.6587 26L58.7712 26.4875ZM57.7462 29C57.5179 28.9352 57.3136 28.8048 57.1587 28.625L57.7462 29ZM59.4837 27.7C59.2745 27.7538 59.0531 27.7316 58.8587 27.6375L59.4837 27.7ZM55.0212 29.275C55.1837 29.275 55.5587 29.2125 55.8087 29.075L55.0212 29.275ZM54.5587 26.5C54.395 26.4696 54.2258 26.5007 54.0837 26.5875L54.5587 26.5Z" stroke="black" stroke-width="0.05" stroke-linecap="round"/>
<path id="Vector_42" d="M55.921 27.275C55.796 27.4375 55.7085 27.7 55.696 27.9375M54.021 27.9625C54.4085 27.7875 54.896 29.125 55.8335 28.65L54.021 27.9625Z" stroke="black" stroke-width="0.05" stroke-linecap="round" stroke-linejoin="round"/>
</g>
<path id="Vector_43" d="M37.8836 24.85C38.4211 25.5125 39.2336 25.9125 40.0086 24.8M37.1461 25.225C37.2711 25.2125 37.4961 25.1625 37.5336 25L37.1461 25.225ZM20.9961 39.85C21.4711 40.1125 21.7961 40.575 21.5961 41.25L20.9961 39.85ZM42.5711 23.8C42.7211 23.8875 43.2461 23.8875 43.5461 23.775L42.5711 23.8ZM43.9211 24.1125C43.9211 24.325 43.9711 25.1625 43.5461 25.3375L43.9211 24.1125ZM43.7086 25.2125C44.0961 25.3375 44.8836 25.3 45.1336 24.5875L43.7086 25.2125ZM44.5836 25.1875C44.6508 25.2904 44.6953 25.4065 44.714 25.528C44.7328 25.6494 44.7253 25.7735 44.6922 25.8919C44.659 26.0103 44.601 26.1202 44.5219 26.2143C44.4428 26.3084 44.3445 26.3845 44.2336 26.4375L44.5836 25.1875ZM44.7336 25.7125C45.1961 25.8625 46.2461 25.875 46.1336 24.9875L44.7336 25.7125ZM45.7836 25.7125C46.0961 26.15 47.4711 26.6625 47.2586 25.75L45.7836 25.7125ZM44.5086 26.975C45.0461 27.1 45.7961 26.7375 45.4836 25.8L44.5086 26.975ZM46.9836 26.275C47.0711 26.6375 48.8211 27.0125 48.5836 26.2L46.9836 26.275ZM48.2586 26.6625C48.5836 27.4125 50.3336 27.3625 49.7836 26.35L48.2586 26.6625ZM49.4961 27.125C49.8461 27.55 51.3711 27.3 50.7711 26.275L49.4961 27.125ZM50.7586 27.1125C51.7086 27.825 52.8211 26.8 51.6211 26.0375L50.7586 27.1125ZM52.1711 26.875C53.0086 27.55 54.0461 26.325 53.3086 25.975L52.1711 26.875ZM45.4586 26.6C45.7336 26.675 46.2961 26.6375 46.4211 26.15L45.4586 26.6ZM46.2086 26.475C46.1836 27.2 47.3836 27.475 47.6836 26.65L46.2086 26.475ZM47.2836 27.0875C47.5086 27.5625 48.5586 27.75 48.7336 27.0875H47.2836ZM48.5586 27.3875C48.7336 27.8625 49.6461 27.8125 49.8961 27.325L48.5586 27.3875ZM49.5586 27.6375C49.8461 28.2625 51.0086 28.2625 51.2711 27.3625L49.5586 27.6375ZM51.0711 27.75C51.5211 28.0375 52.4961 27.925 52.4211 27.05L51.0711 27.75ZM52.2336 27.675C52.9086 28.225 53.8586 27.6875 53.3961 26.7625L52.2336 27.675ZM53.3461 28.3875C53.7086 28.3375 53.8961 27.6125 53.5211 27.425L53.3461 28.3875ZM44.9836 28.525C45.7336 28.1125 45.8711 27.425 45.3586 26.75L44.9836 28.525ZM45.6211 27.8375C46.0961 28.1125 46.9961 27.8125 47.1461 27.125L45.6211 27.8375ZM46.2711 27.9125C46.5211 28.25 46.5836 28.675 46.2336 29.075L46.2711 27.9125ZM46.4836 28.35C47.3211 27.825 48.3586 28.7875 47.5836 29.375L46.4836 28.35ZM47.4461 28.3C47.6336 28.25 47.9586 27.9125 47.9961 27.5125L47.4461 28.3ZM47.8211 28.6625C48.1586 28.3 50.5211 29.0375 49.0336 29.7875L47.8211 28.6625ZM48.9086 27.6625C49.3711 27.85 49.6086 28.4875 48.9086 28.7125V27.6625ZM49.5086 29.25C50.0086 28.725 51.5836 29.0625 51.0211 29.7125L49.5086 29.25ZM50.6461 29.0375C50.9211 28.0875 52.6086 28.675 52.0586 29.075L50.6461 29.0375ZM50.3086 28.075C50.3461 28.275 50.3586 28.7375 50.0586 28.9875L50.3086 28.075ZM51.7086 27.9C51.7403 28.0043 51.7489 28.1142 51.7338 28.2222C51.7187 28.3301 51.6802 28.4334 51.6211 28.525L51.7086 27.9ZM52.7836 27.9C52.8711 28.0875 53.0336 28.4 52.6836 28.675L52.7836 27.9ZM39.3461 20.6875C39.3586 21.5875 39.6711 22.1875 40.8836 21.6125L39.3461 20.6875ZM39.7211 21.7625C39.1211 22.5625 39.7961 23.425 40.9711 22.5625L39.7211 21.7625ZM37.8836 22.15C38.6961 23.025 40.1586 22.3875 39.2211 21.05L37.8836 22.15ZM40.2086 22.9C40.0461 23.775 40.7586 23.9375 41.3336 23.55L40.2086 22.9ZM37.1586 22.3C37.3086 23.1625 38.1961 23.85 39.0586 23.3L37.1586 22.3ZM38.2461 23.5C38.2461 24.7375 39.9586 24.875 40.3461 23.5875L38.2461 23.5ZM39.7211 24.375C40.2836 25.5 41.4711 25.05 41.8711 24.3625L39.7211 24.375ZM38.4961 22.55C38.7211 23.1125 39.1586 23.725 40.1836 23.2625L38.4961 22.55ZM35.3586 22.2875C35.4961 22.75 36.3211 23.2875 37.2586 22.6625L35.3586 22.2875ZM35.9461 22.875C35.4461 23.6125 36.4461 24.3 37.6461 23.2L35.9461 22.875ZM36.5336 23.7875C36.7461 24.8125 37.1586 25.65 38.6211 24.3125L36.5336 23.7875Z" stroke="black" stroke-width="0.05"/>
<path id="Vector_44" d="M39.8334 32.225C39.4584 33.2875 39.8334 33.6625 40.6709 33.6875M40.5834 25.0375C40.5334 25.825 40.6959 26.2125 41.3084 26.1875C41.7834 26.1625 42.2459 25.775 42.5084 25.3625L40.5834 25.0375ZM41.1959 26.1875C41.1834 27.075 41.8834 27.7875 43.1959 26.875L41.1959 26.1875ZM41.7459 27.2375C41.4959 27.9125 42.2459 29.0125 43.7209 28.4375L41.7459 27.2375ZM38.6209 25.4375C38.5209 26.3125 39.3334 26.8875 40.6209 25.775L38.6209 25.4375ZM39.2459 26.4C39.2959 27.1125 40.0959 27.9625 41.2709 26.7375L39.2459 26.4ZM39.8084 27.3C39.7209 28.5 40.8334 28.85 41.7709 27.925L39.8084 27.3ZM38.1459 26.4C38.3959 26.4125 38.5834 26.2 38.7084 26.0375L38.1459 26.4ZM38.6709 27.2875C38.8834 27.325 39.2584 27.125 39.3834 26.875L38.6709 27.2875ZM39.2209 28.7125C39.4709 28.975 40.3209 28.7875 40.4209 28.425L39.2209 28.7125ZM40.1709 28.6875C40.6334 29.7875 41.8834 29.75 42.4084 28.5L40.1709 28.6875ZM42.1584 28.95C42.4084 29.5875 42.9959 30 43.9709 29.775L42.1584 28.95ZM42.6334 29.6C42.0834 30.5 42.8084 31.55 44.0334 30.5125L42.6334 29.6ZM42.9334 30.9375C42.8709 31.5 43.3959 32.15 44.0959 32.225L42.9334 30.9375ZM40.6209 29.2875C40.4334 30.5625 41.3459 31.1625 42.4959 30.5L40.6209 29.2875ZM39.2959 29.9C39.5959 30.1375 40.1209 30.1625 40.6209 29.975L39.2959 29.9ZM41.2459 30.725C40.9584 31.7875 42.0584 32.55 42.9959 31.3625L41.2459 30.725ZM39.7209 30.075C39.7209 30.625 40.2709 31.225 41.1959 31.05L39.7209 30.075ZM43.7834 32.15C43.1584 32.575 43.0334 33.325 43.9084 33.8125L43.7834 32.15ZM42.2459 31.9375C42.2709 32.5625 42.5709 32.9375 43.2834 32.9875L42.2459 31.9375ZM41.3209 31.6C40.3709 32.4625 41.2959 33.475 42.4209 32.6125L41.3209 31.6ZM41.9709 32.8875C41.6584 33.875 42.8459 34.475 43.4709 33.4625L41.9709 32.8875ZM40.0334 30.775C39.6834 31.75 40.1209 32.4 40.9209 32.3375L40.0334 30.775ZM38.7959 30.5875C38.8334 31.175 39.3334 31.375 39.9084 31.25L38.7959 30.5875ZM39.1584 31.2C38.7209 32.025 39.3709 32.45 40.2209 32.15L39.1584 31.2ZM42.7959 33.9625C42.6584 34.4875 42.7334 34.8625 43.4959 35.0375L42.7959 33.9625ZM42.8459 34.7C41.9084 35.125 41.8459 36.025 42.5584 36.6L42.8459 34.7ZM42.0959 33.7125C41.9843 33.8087 41.8972 33.9301 41.8419 34.0667C41.7867 34.2033 41.7649 34.3512 41.7783 34.4979C41.7918 34.6447 41.8401 34.7861 41.9193 34.9104C41.9984 35.0347 42.1061 35.1383 42.2334 35.2125L42.0959 33.7125ZM37.9834 30.8375C37.4459 31.375 37.9459 32.825 39.1334 32.025L37.9834 30.8375ZM41.0334 32.675C40.3084 33.275 40.6459 34.3625 41.8334 34.05L41.0334 32.675Z" stroke="black" stroke-width="0.05"/>
<path id="Vector_45" d="M35.9088 32.95C35.1588 32.975 34.8213 33.35 34.8213 33.875M37.1713 30.8C37.055 30.8808 36.9572 30.9854 36.8844 31.1068C36.8116 31.2282 36.7653 31.3637 36.7488 31.5043C36.7323 31.645 36.7458 31.7875 36.7884 31.9225C36.8311 32.0575 36.9019 32.1819 36.9963 32.2875C37.2713 32.6 37.8088 32.4625 37.9713 32.05L37.1713 30.8ZM35.8213 30.375C35.1088 31.3 35.8213 32.4 36.8463 32.075L35.8213 30.375ZM39.6838 33.125C38.9463 33.375 38.3838 34.0625 38.8463 34.6375C39.0963 34.9875 40.2713 35.0375 40.5963 33.7L39.6838 33.125ZM38.3463 32.2625C37.9338 32.875 38.0713 33.45 38.8463 33.75L38.3463 32.2625ZM38.3088 33.4C37.8588 33.65 37.5588 33.95 37.6588 34.5L38.3088 33.4ZM37.2838 32.45C37.1213 33.1875 37.3213 33.6375 37.7838 33.8625L37.2838 32.45ZM37.2713 33.325C36.5713 33.275 36.2088 33.575 36.4463 34.2625L37.2713 33.325ZM36.5088 33.5C35.8088 33.25 35.7088 32.65 36.0088 32.025L36.5088 33.5Z" stroke="black" stroke-width="0.05"/>
<path id="Vector_46" d="M29.7961 31C28.9086 30.8875 28.7711 31.925 29.0586 32.4125M34.8836 30.0125C34.3336 30.25 34.1586 30.9875 34.3711 31.3875C34.5711 31.8 35.2211 31.8375 35.6086 31.5625L34.8836 30.0125ZM33.3586 29.4375C32.8461 30 33.4211 31.1 34.3211 30.825L33.3586 29.4375ZM32.0711 28.9875C31.5961 29.65 32.1086 30.75 33.3211 30.4375L32.0711 28.9875ZM33.3836 33.5C33.2586 32.7125 34.0711 32.2 35.0711 33.2125L33.3836 33.5ZM34.5836 31.625C34.4428 31.756 34.3346 31.9179 34.2673 32.098C34.2 32.2781 34.1756 32.4713 34.1961 32.6625L34.5836 31.625ZM30.7711 28.625C30.2586 29.5 30.8836 30.3125 31.9961 30L30.7711 28.625ZM33.6836 30.8125C32.9336 31.55 33.1836 32.2875 33.7461 32.7125L33.6836 30.8125ZM33.2086 31.675C32.0836 31.6875 32.0336 32.975 32.9461 33.3875L33.2086 31.675ZM32.3586 30.3875C31.9086 30.7 31.7586 31.5625 32.5461 31.9125L32.3586 30.3875ZM32.3336 32.3125C31.8586 32.1 31.2961 32.3625 31.3336 32.9125L32.3336 32.3125ZM31.6211 32.3375C31.1961 31.3375 29.9586 31.5 30.0711 32.5375L31.6211 32.3375ZM31.9711 31.0875C31.6961 31.1375 31.1711 31.3 30.9711 31.7125L31.9711 31.0875ZM31.0461 29.9625C30.5461 30.525 30.9211 31.2125 31.3336 31.3375L31.0461 29.9625ZM29.5461 28.375C29.4586 29.05 29.7211 29.375 30.5711 29.325L29.5461 28.375ZM29.8461 29.2375C29.5211 30.0625 29.9586 30.4125 30.8086 30.3625L29.8461 29.2375ZM30.0336 30.2375C29.5336 30.8375 29.8836 31.4875 30.3711 31.75L30.0336 30.2375Z" stroke="black" stroke-width="0.05"/>
<path id="Vector_47" d="M28.6963 29.825C28.2463 30.5125 28.6588 31.0375 29.1463 31.2375M29.0838 28.2875C28.5338 28.525 28.2088 29.2125 28.5088 29.6375C28.8088 30.0625 29.4088 29.925 29.7338 29.7L29.0838 28.2875Z" stroke="black" stroke-width="0.05"/>
<path id="Vector_48" d="M23.9209 35.4C23.2084 35.1875 23.1959 34.35 23.8209 34.025M26.9459 28.2125C26.5709 28.5875 26.8084 29.35 27.6834 29.375C28.3834 29.375 28.7459 28.7125 28.5334 28.25L26.9459 28.2125ZM27.5584 29.375C27.2709 30 27.4459 30.675 28.5084 30.5625L27.5584 29.375ZM28.9709 31.55C28.3084 31.25 27.4334 31.55 27.8084 32.3375L28.9709 31.55ZM27.7084 30.4375C27.4459 30.8125 27.5459 31.35 27.8334 31.6875L27.7084 30.4375ZM27.6709 31.4375C27.2209 31.5125 26.7959 31.75 27.0709 32.4375L27.6709 31.4375ZM27.0084 31.875C26.4459 31.7125 25.7209 32.125 26.1584 32.7L27.0084 31.875ZM26.0584 32.15C25.5834 32.075 24.9959 32.5875 25.4709 33.1L26.0584 32.15ZM25.2834 32.675C24.8459 32.8 24.3209 33.3 24.7834 33.675L25.2834 32.675ZM27.4959 30.2125C26.8709 30.5 26.7959 31.2125 27.0959 31.7125L27.4959 30.2125ZM26.8334 28.9125C25.8959 29.275 25.9084 30.5375 26.9459 30.9125L26.8334 28.9125ZM26.5084 30.6375C25.9334 30.975 25.8334 31.6 26.2084 32.0125L26.5084 30.6375ZM25.5209 28.4375C25.1459 28.5625 25.1709 29.725 26.1709 29.6875L25.5209 28.4375ZM24.4834 28.8375C23.7334 29.3375 24.6334 30.6125 25.8584 29.7L24.4834 28.8375ZM25.1834 30.0125C25.0709 30.525 25.2209 31.1 26.0584 31.1625L25.1834 30.0125ZM25.2334 30.7C25.0697 30.7828 24.9389 30.9185 24.8621 31.0851C24.7854 31.2517 24.7673 31.4394 24.8107 31.6176C24.8542 31.7958 24.9567 31.954 25.1015 32.0666C25.2463 32.1791 25.425 32.2394 25.6084 32.2375L25.2334 30.7ZM23.3334 29.5875C22.5709 30.3 23.9584 30.9125 24.4834 29.8875L23.3334 29.5875ZM22.2709 30.7625C21.8959 31.225 23.2084 32.4125 23.7834 30.425L22.2709 30.7625ZM23.9334 30.3875C23.9584 30.8625 24.2459 31.1375 24.8209 31.175L23.9334 30.3875ZM24.8209 31.625C23.8834 31.775 23.5834 32.9375 24.6209 33.1875L24.8209 31.625ZM23.0959 31.475C23.0709 31.9125 23.5209 32.275 24.0459 32.2L23.0959 31.475ZM24.5084 33.15C23.6584 33.3375 23.5584 34.4375 24.3084 34.375L24.5084 33.15Z" stroke="black" stroke-width="0.05"/>
<path id="Vector_49" d="M25.5336 46.325C25.2586 46.35 24.9711 46.525 25.1711 47.1125C25.3211 47.5125 25.9211 47.5375 26.0086 47.2875M23.3336 34.6625C22.7336 35.0125 22.9711 35.8875 23.2836 36.0125C23.5961 36.1375 23.8461 35.975 23.8836 35.7125L23.3336 34.6625ZM23.8336 36.9125C23.8961 37.325 22.3836 37.1625 23.1586 35.9L23.8336 36.9125ZM23.1586 36.9875C22.6461 37.7875 23.4711 38.4375 23.9961 37.7625L23.1586 36.9875ZM23.2211 37.95C23.0211 38.6 23.7961 39.0625 24.2961 38.5625L23.2211 37.95ZM21.5336 31.9375C21.2461 32.5125 22.6586 32.725 22.7586 31.5375L21.5336 31.9375ZM21.1336 32.7875C20.8586 33.9125 22.9836 33.6875 22.4336 32.225L21.1336 32.7875ZM22.4836 32.975C22.6249 33.041 22.7797 33.0729 22.9357 33.0684C23.0916 33.0638 23.2442 33.0229 23.3815 32.9488C23.5188 32.8747 23.6368 32.7695 23.7261 32.6417C23.8155 32.5138 23.8737 32.3669 23.8961 32.2125L22.4836 32.975ZM23.2586 33.0125C23.2985 33.1716 23.37 33.3211 23.4687 33.4521C23.5675 33.5831 23.6916 33.6929 23.8336 33.775L23.2586 33.0125ZM22.2336 33.3125C22.1461 33.925 22.7586 34.425 23.4586 34.375L22.2336 33.3125ZM22.3336 33.9C21.9961 34.375 21.8961 35.275 22.9711 35.35L22.3336 33.9ZM20.6961 34.0625C20.5211 34.55 21.5461 35.05 22.1461 34.25L20.6961 34.0625ZM20.3836 35.3C20.2961 35.675 21.2211 36.175 21.7336 34.6L20.3836 35.3ZM21.3211 35.4C21.5461 35.7875 22.2836 36.1 22.7336 35.3375L21.3211 35.4ZM21.9961 35.8C21.8086 36.35 22.3336 36.875 22.9586 36.7125L21.9961 35.8ZM20.8336 35.675C20.7086 36.4625 21.6086 36.925 22.1711 36.5125L20.8336 35.675ZM20.2211 36.0125C19.9586 37.025 21.2461 37.4 21.7211 36.65L20.2211 36.0125ZM21.4086 36.95C21.4461 37.5125 22.3336 38 23.0211 37.525L21.4086 36.95ZM19.8336 37.425C19.7711 37.675 20.8336 37.925 20.9836 37.05L19.8336 37.425ZM20.4461 37.6375C20.6961 38.2875 21.5461 38.4375 22.0336 37.65L20.4461 37.6375ZM21.7461 37.9625C21.8586 38.5625 22.6211 38.9 23.3086 38.4875L21.7461 37.9625ZM23.5836 38.725C23.4086 39.525 24.2461 40.1625 24.7586 39.725L23.5836 38.725ZM22.2586 38.5875C22.0086 39.4625 23.0961 39.9625 23.7086 39.475L22.2586 38.5875ZM20.9336 38.1375C20.8711 38.9625 21.5086 39.45 22.2461 39.0875L20.9336 38.1375ZM19.5336 38.2125C19.3211 38.75 20.4836 39.1875 21.0336 38.7375L19.5336 38.2125ZM18.8086 39.675C19.1086 40.025 20.1461 39.675 20.2461 38.9125L18.8086 39.675ZM19.9586 39.475C20.3336 39.9125 21.2336 40.15 21.5836 39.2125L19.9586 39.475ZM21.2836 39.7C21.2586 40.375 22.4711 40.8625 22.8586 39.6125L21.2836 39.7ZM24.2836 39.8625C24.1711 40.1875 24.4336 40.7125 24.9711 40.775L24.2836 39.8625ZM23.2836 39.65C23.2086 40.025 23.7586 40.5625 24.3336 40.35L23.2836 39.65ZM24.4586 40.5C24.2961 40.9125 24.4211 41.5 24.9711 41.5L24.4586 40.5ZM24.5086 41.2625C24.0961 41.6125 24.2586 42.225 24.8586 42.25L24.5086 41.2625ZM24.2961 41.85C23.7086 42.2375 23.9211 43.1 24.6836 43.05L24.2961 41.85ZM22.5336 40.175C22.5336 41.025 23.5836 41.15 23.7836 40.375L22.5336 40.175ZM23.3836 40.875C23.2211 41.375 23.6336 41.8625 24.2711 41.725L23.3836 40.875ZM23.5086 46.9375C23.6461 47.1375 24.2336 46.7875 24.0711 46.4375C23.9211 46.1 23.2961 46.2875 23.3711 46.65L23.5086 46.9375ZM23.9336 46.3C24.0086 45.6125 23.1836 45.5 22.9836 46.1L23.9336 46.3ZM23.2836 45.75C23.4961 45.4125 22.7961 44.9375 22.5211 45.4375L23.2836 45.75ZM22.7711 45.2375C22.9586 44.7375 22.1711 44.5125 22.1086 44.975L22.7711 45.2375ZM21.9336 44.3125C22.0336 44.0625 22.9086 44.2125 22.5336 44.7375L21.9336 44.3125ZM23.2086 45.3625C23.5586 45.05 22.9711 44.4 22.6086 44.6375L23.2086 45.3625Z" stroke="black" stroke-width="0.05"/>
<path id="Vector_50" d="M19.1334 40.725C19.0959 41.025 19.2584 41.5625 20.0584 41.35M25.1209 46.6125C24.8709 46.4375 24.2834 46.7375 24.5459 47.2875C24.7459 47.7125 25.2584 47.5375 25.3334 47.325L25.1209 46.6125ZM23.6334 47.4125C23.7584 47.6625 24.4334 47.55 24.5459 47.2875L23.6334 47.4125ZM24.0834 46.6375C24.2334 46.55 24.4834 46.6625 24.5459 46.7875L24.0834 46.6375ZM24.0459 42.775C23.5834 43.075 23.8709 43.975 24.5709 43.75L24.0459 42.775ZM23.8959 43.5C23.5334 43.7875 23.8709 44.675 24.5459 44.3375L23.8959 43.5ZM24.0084 44.3375C23.7584 44.5875 24.0084 45.2875 24.6584 45.1625L24.0084 44.3375ZM23.9084 44.6875C23.7834 44.625 23.4084 44.675 23.2459 44.9L23.9084 44.6875ZM23.4959 41.5125C23.1584 41.8375 23.3209 42.5125 23.9709 42.5625L23.4959 41.5125ZM23.3834 42.1875C22.8834 42.4375 22.8834 43.425 23.8834 43.4625L23.3834 42.1875ZM23.3459 43.3C23.0709 43.525 23.1959 44.375 23.9084 44.2625L23.3459 43.3ZM23.5709 44.2375C23.4709 44.3375 23.4459 44.5875 23.5334 44.7L23.5709 44.2375ZM23.2584 43.9125C23.0084 43.9125 22.6709 44.1 22.5834 44.3625L23.2584 43.9125ZM22.1334 43.45C22.2334 43.2 23.0084 43.2125 23.0584 43.95L22.1334 43.45ZM23.1334 43.075C23.0465 43.093 22.9661 43.1337 22.9002 43.193C22.8343 43.2523 22.7853 43.3281 22.7584 43.4125L23.1334 43.075ZM22.7959 40.775C22.4584 41.075 22.2959 42.0375 23.3209 42.225L22.7959 40.775ZM22.1209 42.7625C22.1209 42.5125 22.8209 42.2875 23.0584 42.675L22.1209 42.7625ZM21.6709 41.3625C21.7709 41.55 22.2584 41.825 22.5459 41.6125L21.6709 41.3625ZM19.1459 39.825C19.1413 39.9379 19.1614 40.0503 19.2048 40.1546C19.2482 40.2588 19.3139 40.3523 19.3973 40.4286C19.4806 40.5048 19.5796 40.5618 19.6873 40.5958C19.7951 40.6297 19.9089 40.6397 20.0209 40.625C20.5459 40.5625 20.6459 40.1 20.4959 39.8L19.1459 39.825ZM20.0959 40.6375C19.7584 41.0625 20.1834 41.6625 20.5709 41.4875L20.0959 40.6375ZM20.4959 40.3375C20.6959 40.2625 21.3709 40.1625 21.5709 40.475L20.4959 40.3375ZM18.3209 40.475C18.1584 40.7 19.1334 40.9375 19.4459 40.475H18.3209Z" stroke="black" stroke-width="0.05"/>
<path id="Vector_51" d="M18.0962 40.775C17.8462 41.1875 18.7712 41.9375 19.2837 41.2375M20.1837 41.825C20.3087 41.575 19.7087 41.125 19.2587 41.6125C18.7962 42.1 19.3212 42.65 19.5962 42.4625L20.1837 41.825Z" stroke="black" stroke-width="0.05"/>
<path id="Vector_52" d="M17.4961 41.4875C17.1586 41.825 17.5711 42.4375 18.0586 42.25C18.5586 42.0625 18.5086 41.55 18.3961 41.4125" stroke="black" stroke-width="0.05"/>
<path id="Vector_53" d="M24.4211 47.8375C24.7086 48.0625 25.2211 47.8125 25.2211 47.475M16.8461 42.1125C16.5961 42.3625 16.8461 42.925 17.2211 42.925C17.5961 42.925 17.8086 42.6375 17.7336 42.275L16.8461 42.1125ZM18.3586 42.0625C18.2961 42.4375 18.8336 42.6875 19.1836 42.3375L18.3586 42.0625ZM19.1961 41.6875C19.2461 41.6 19.1961 41.475 19.1211 41.4125L19.1961 41.6875ZM16.2836 42.6C15.9711 42.85 16.6336 43.525 17.0461 42.9L16.2836 42.6ZM18.6461 42.4625C18.4461 42.65 18.7586 43.15 19.0711 43L18.6461 42.4625ZM17.5711 42.8125C17.6086 43.15 18.2711 43.4 18.6961 42.8875L17.5711 42.8125ZM17.9211 43.1375C17.8211 43.3625 18.0336 43.7 18.2836 43.65L17.9211 43.1375ZM24.1711 45.0875C23.9211 45.5625 24.7086 46.125 25.2711 45.55L24.1711 45.0875ZM24.7336 45.8C24.6086 46.05 24.7586 46.425 24.9836 46.55L24.7336 45.8ZM23.9961 46.3375C24.0586 46.1125 24.3961 45.8875 24.6961 46L23.9961 46.3375ZM23.5961 45.725C23.6336 45.5125 23.9211 45.3 24.1336 45.35L23.5961 45.725ZM42.0711 35.925C40.9586 35.95 41.4336 37.7375 42.3836 37.375L42.0711 35.925ZM41.7086 37.25C41.4961 37.6125 41.9211 38.1875 42.3836 37.85L41.7086 37.25ZM42.2586 37.9125C41.9336 38.4625 43.1086 39.3 43.5836 38.4375L42.2586 37.9125ZM43.2086 38.775C43.2086 39.2875 44.7336 39.6125 44.5086 38.5875L43.2086 38.775ZM44.3711 39.15C44.7211 39.7625 46.0711 39.825 45.9336 38.9L44.3711 39.15ZM45.6336 39.5375C45.9211 39.95 47.2336 40.2 47.1961 39.35L45.6336 39.5375ZM40.2836 34.375C40.4711 34.8625 41.1211 35.0375 41.8211 34.75L40.2836 34.375ZM39.8711 34.725C40.3211 35 39.6711 36.2875 38.9961 35.775L39.8711 34.725ZM39.8711 35.525C40.3711 35.75 40.9586 35.5875 41.1211 34.9L39.8711 35.525ZM40.8336 35.425C40.8836 35.7875 41.3961 36.075 42.0836 35.925L40.8336 35.425ZM39.6211 35.8C40.2461 36.3375 39.3461 37.425 38.9336 36.925L39.6211 35.8ZM39.8586 36.2125C40.1586 36.425 40.9336 36.3 41.0086 35.7125L39.8586 36.2125ZM40.6586 36.2125C40.7211 36.5875 41.0336 36.725 41.4461 36.75L40.6586 36.2125ZM39.6961 36.725C40.0086 37.1625 40.7836 37.3 41.1336 36.7125L39.6961 36.725ZM40.7836 37.0375C40.7586 37.4625 41.2211 37.8125 41.7086 37.7125L40.7836 37.0375ZM39.0836 37.9875C39.4836 38.1875 39.9211 37.425 39.5836 36.8875L39.0836 37.9875ZM39.5461 38.8C40.0461 38.8375 40.0961 38.0875 39.6461 37.675L39.5461 38.8ZM40.6586 39.475C41.0711 39.375 40.9461 38.475 39.9586 38.4125L40.6586 39.475ZM41.8961 40.1375C42.2961 40.025 41.9836 39.0375 40.8961 39.1L41.8961 40.1375ZM43.3961 40.475C43.6586 40.075 42.7711 39.375 42.0586 39.7375L43.3961 40.475ZM44.1336 41.05C44.6211 41.175 44.9461 39.9 43.4086 40.1L44.1336 41.05ZM45.0336 41.05C45.4461 40.925 45.7461 40.175 44.5086 40.425L45.0336 41.05ZM45.9711 41.1125C46.3461 41.3 46.5211 40.2 45.3711 40.4875L45.9711 41.1125ZM39.6461 37.6875C40.1086 37.95 40.8461 37.6375 40.7836 37.0375L39.6461 37.6875ZM40.5961 37.5625C40.7586 37.8375 40.6961 38.3875 40.3961 38.5375L40.5961 37.5625ZM40.6461 38.225C40.9586 38.35 41.3836 38.225 41.6336 37.725L40.6461 38.225ZM41.1961 38.225C41.2836 38.4375 41.3211 38.875 41.1211 39.1L41.1961 38.225ZM41.2711 38.6C41.6211 38.7875 42.0211 38.5375 42.1961 38.175L41.2711 38.6ZM41.9836 38.4875C42.2336 38.6375 42.4461 39.375 42.0336 39.675L41.9836 38.4875ZM42.2586 39.3375C42.5586 39.35 43.0086 39.35 43.2836 38.9625L42.2586 39.3375ZM43.0836 39.175C43.3461 39.25 43.6586 39.7 43.5461 40.0875L43.0836 39.175ZM43.5711 39.95C43.8711 39.9125 44.3836 39.7 44.5211 39.35L43.5711 39.95ZM44.3836 39.5875C44.5168 39.6679 44.6241 39.7848 44.6928 39.9244C44.7615 40.064 44.7887 40.2204 44.7711 40.375L44.3836 39.5875ZM44.7711 40.125C45.0711 40.1 45.3336 39.95 45.4211 39.625L44.7711 40.125ZM45.3336 39.8375C45.5586 39.9125 45.8336 40.1625 45.8336 40.4625L45.3336 39.8375ZM45.8086 40.275C46.0336 40.2375 46.1836 40.1 46.3336 39.8875L45.8086 40.275ZM46.9211 39.85C47.2086 40.1375 46.8336 41.075 46.2461 40.9L46.9211 39.85ZM40.8961 20.825C40.3211 21.175 38.6711 21.075 39.4836 19.7L40.8961 20.825ZM41.0586 19.9C39.9086 20.3625 38.4961 19.475 39.9711 18.525L41.0586 19.9ZM39.5836 18.2125C38.6211 18.2125 37.9836 19.75 39.2711 20.275L39.5836 18.2125ZM35.8586 18.85C35.6086 19.35 36.5086 19.875 37.1086 19.3875C37.5961 19.0125 37.5586 17.9875 37.2711 17.6L35.8586 18.85ZM35.3711 20C35.0586 21.0375 37.3711 21.1 36.9961 19.45L35.3711 20ZM35.2461 21.5375C35.3211 22.325 37.4586 22.075 36.7711 20.4875L35.2461 21.5375ZM37.0211 20.05C37.1961 20.2875 37.6586 20.6875 38.4586 20.6125L37.0211 20.05ZM37.3961 18.9375C37.4711 19.2125 37.9461 19.4375 38.5586 19.225L37.3961 18.9375ZM15.9836 42.825C15.4336 43.2125 16.2711 43.825 16.5711 43.15L15.9836 42.825ZM15.5586 43.125C15.0211 43.5 15.8461 44.125 16.1586 43.45L15.5586 43.125ZM15.1086 43.4125C14.5711 43.8 15.3961 44.4125 15.7086 43.7375L15.1086 43.4125ZM14.6336 43.6875C14.1211 43.9625 14.7211 44.6375 15.2586 44.0375L14.6336 43.6875ZM14.1336 43.9375C13.6086 44.2125 14.2211 44.8875 14.7461 44.3L14.1336 43.9375ZM16.7461 43.1375C16.7461 43.5375 17.5086 43.7 17.7836 43.1L16.7461 43.1375ZM17.2461 43.5C17.0086 43.8 17.4461 44.175 17.6836 44.0375L17.2461 43.5ZM16.2336 43.45C16.2086 43.7875 16.8711 43.975 17.1961 43.6125L16.2336 43.45ZM16.5961 43.8C16.3836 44.075 16.7961 44.45 17.0711 44.3375L16.5961 43.8ZM15.7961 43.75C15.8211 44.025 16.1961 44.325 16.6086 44.15L15.7961 43.75ZM16.0336 44.1125C15.8836 44.25 15.9586 44.5875 16.1836 44.6875L16.0336 44.1125ZM15.2211 44.0875C15.1586 44.3375 15.5711 44.7625 15.9961 44.4875L15.2211 44.0875ZM15.3086 44.3625C15.0586 44.575 15.0836 44.8625 15.4086 44.9125L15.3086 44.3625ZM14.7086 44.3375C14.6711 44.5 14.8836 44.775 15.1586 44.7375L14.7086 44.3375ZM13.3586 44.325C13.1086 44.45 13.7586 45.1375 14.1586 44.5125L13.3586 44.325ZM12.7461 44.6125C12.4336 44.7625 13.2086 45.5125 13.5586 44.7375L12.7461 44.6125ZM14.7836 44.575C14.5336 44.6375 14.3836 44.9875 14.5836 45.125L14.7836 44.575ZM13.9836 44.7C13.9586 44.85 14.2461 45.075 14.4836 44.9875L13.9836 44.7ZM13.7836 44.7625C13.5336 44.9125 13.6586 45.325 13.9461 45.2625L13.7836 44.7625ZM12.9461 45.0375C12.7211 45.2 12.8711 45.5375 13.1711 45.45L12.9461 45.0375ZM13.3461 45.0125C13.3461 45.1 13.5461 45.2375 13.7086 45.1875L13.3461 45.0125ZM12.1711 44.875C11.8961 45 11.9086 45.6875 12.8336 45.3125L12.1711 44.875ZM11.5461 45.15C11.1711 45.3375 11.2961 45.8625 12.1336 45.3625L11.5461 45.15ZM12.1961 45.4C12.0961 45.475 11.9836 45.825 12.3711 45.6875L12.1961 45.4ZM11.4961 45.5625C11.3336 45.7 11.4336 46 11.7836 45.8875L11.4961 45.5625ZM10.6836 45.6125C10.3961 45.775 11.0211 45.9875 11.4336 45.5625L10.6836 45.6125ZM10.8711 45.8125C10.7461 45.9375 10.7461 46.3125 11.0711 46.1875L10.8711 45.8125ZM10.0711 45.9625C9.88359 46.1125 10.1961 46.3 10.7961 46.0375L10.0711 45.9625ZM10.2961 46.1625C10.0836 46.35 10.1086 46.575 10.4211 46.5125L10.2961 46.1625ZM9.65859 46.2625C9.40859 46.4875 9.75859 46.6375 10.1836 46.4625L9.65859 46.2625ZM9.65859 46.5125C9.24609 46.7 9.42109 47.05 9.68359 46.9125L9.65859 46.5125ZM23.5586 47.7125C23.4586 47.925 23.7711 48.0875 24.0711 48.05C24.3586 48 24.6336 47.7625 24.4211 47.425L23.5586 47.7125Z" stroke="black" stroke-width="0.05"/>
</g>
<g id="Group_5">
<path id="Vector_54" d="M41.746 14.5875C40.496 13.9625 37.8835 12.7875 37.146 13.7375C37.821 13.45 39.796 13.75 41.4335 15.2625L41.746 14.5875Z" fill="white" stroke="black" stroke-width="0.05"/>
<path id="Vector_55" d="M42.4961 14.5125C41.0586 12.825 40.1961 13.2 39.1586 12.625C38.1711 12.075 36.6086 11.9625 36.3086 12.8375C37.7461 12.1375 39.0586 13.2125 39.8586 13.3375C40.9836 13.5125 41.6086 14.375 41.9336 14.775L42.5086 14.525L42.4961 14.5125ZM47.9711 14.3C47.2211 12.575 45.6086 13.025 44.8961 12.3C43.8586 11.225 41.2461 10.2375 40.1586 10.975C42.5336 10.85 43.5586 12.6125 44.8336 13.225C45.7461 13.675 46.7086 14.6125 47.9711 14.3Z" fill="white" stroke="black" stroke-width="0.05"/>
<path id="Vector_56" d="M45.1458 14.1125C43.8583 12.5125 41.8958 11.1 40.9708 11.6375C42.1708 11.7 42.5458 12.525 43.3958 13.0625C44.2458 13.6 43.8583 14.3625 45.1458 14.1125V14.1125ZM39.0208 16.9375C37.6833 16.4375 35.0458 16.1875 33.8208 17.725C35.8583 18.0625 38.9458 17.875 39.0333 16.9375H39.0208Z" fill="white" stroke="black" stroke-width="0.05"/>
<path id="Vector_57" d="M38.7834 17.5375C37.4334 16.9125 36.3709 17.7875 35.1084 17.6625C32.6834 17.425 30.9584 17.5625 30.7334 18.725C32.1209 17.4875 34.4459 18.5125 35.3834 18.25C36.3334 18 39.8084 18.225 40.9084 18.7C40.3459 18 39.4709 17.825 38.7834 17.5375V17.5375ZM43.0209 13.9375C42.6959 12.9 42.7209 11.8125 44.2709 11.8875C43.8834 11.3875 42.4334 11.1375 42.1959 12.9625C40.4834 11.7125 38.6209 11.4875 38.2709 12.575C39.1459 11.825 40.5209 12.375 42.1459 14.225C42.4204 14.0832 42.7158 13.9861 43.0209 13.9375V13.9375Z" fill="white" stroke="black" stroke-width="0.05"/>
<path id="Vector_58" d="M40.6583 15.375C39.6833 14.75 38.3708 13.725 40.6708 13.3125C39.6958 12.775 38.2458 13.0125 38.4083 14.8375C35.7583 13.7625 33.8708 14.125 33.4708 15.175C33.0333 16.3375 34.6708 16.9875 34.9458 16.25C34.6458 16.375 33.6333 16.025 34.1583 15.375C34.6958 14.7125 37.4333 15.2 40.0333 16.5625C40.7583 16.9375 43.2333 16.875 40.6583 15.375Z" fill="white" stroke="black" stroke-width="0.05"/>
<path id="Vector_59" d="M39.971 17.1C39.221 15.5625 36.7835 16.95 36.296 15.475C35.621 17.65 39.7585 16.4375 39.971 17.1ZM55.471 18.7625C55.971 19.0125 56.421 18.6125 55.6335 18.3C56.1335 18.55 56.596 18.175 55.8085 17.85C56.321 18.1 56.771 17.725 55.9835 17.4C55.771 17.6125 55.4835 18.3875 55.4585 18.7625H55.471ZM55.721 15.8125C56.8585 14.6125 55.6335 14.2125 57.021 12.9875C58.146 11.9875 57.2335 11.3125 58.3085 10.5375C58.646 10.2875 59.396 9.78751 59.471 9.28751C59.921 10.4125 58.0585 10.5625 58.1835 12.3875C58.2585 13.55 57.471 13.45 57.1835 15.3875C57.1085 15.8125 56.8335 16.725 55.7335 15.8125H55.721Z" fill="white" stroke="black" stroke-width="0.05"/>
<path id="Vector_60" d="M56.2334 16.3375C56.8584 14.9875 57.5834 15.0125 57.9209 14.4875C58.5834 13.4875 59.9834 14.6625 61.1709 13.7625C60.9584 15.0375 59.3709 14.5875 58.6709 15.4C57.9959 16.2125 57.4209 16.5875 56.2334 16.3375Z" fill="white" stroke="black" stroke-width="0.05"/>
<path id="Vector_61" d="M56.3835 16.7875C57.4835 15.9125 58.296 16.4875 59.0585 16.0375C60.971 14.8625 61.746 16.2625 63.446 15.7125C62.996 16.8125 60.471 15.875 59.371 16.6875C58.271 17.5 54.4085 18.2875 56.3835 16.7875V16.7875ZM53.1835 23.0375C53.1549 22.7367 53.0279 22.4537 52.8223 22.2323C52.6167 22.0109 52.3439 21.8633 52.046 21.8125C51.3835 21.7375 51.096 21.05 50.596 21.0125C50.096 20.9875 49.7585 19.9875 49.071 20C48.3835 20.0125 48.096 20.9125 49.721 21.725C51.346 22.5375 53.121 23.475 53.1835 23.0375V23.0375ZM51.146 23.4625C50.4585 23.5 50.3585 24.5 49.696 24.5375C50.6085 25.025 51.271 24.3125 51.746 23.6875L51.146 23.4625V23.4625Z" fill="white" stroke="black" stroke-width="0.05"/>
<path id="Vector_62" d="M51.7085 23.5875C51.121 24.0875 50.946 25.15 51.8085 25.45C51.2835 24.7375 52.721 24.4125 52.271 23.75L51.7085 23.5875Z" fill="white" stroke="black" stroke-width="0.05"/>
<path id="Vector_63" d="M52.3085 23.625C51.8335 24.5375 53.046 24.65 52.7335 25.3375C53.421 25.175 53.5335 23.875 52.9085 23.525L52.3085 23.625V23.625Z" fill="white" stroke="black" stroke-width="0.05"/>
<path id="Vector_64" d="M47.6958 21.675C48.8208 21.6125 49.8583 22.225 50.5458 23.2125C50.9833 23.8375 52.4583 24.0875 52.9708 23.5875C53.4708 23.0875 53.1833 22.025 51.9333 22.3625C51.6208 21.8375 50.7083 22.025 50.2708 21.5875C49.8333 21.1375 48.1333 19.8875 47.6958 21.675V21.675Z" fill="white" stroke="black" stroke-width="0.05"/>
<g id="Vector_65">
<path d="M51.9334 22.375C51.6334 22.425 51.5334 22.95 51.7209 23.2125L51.9334 22.375ZM52.5709 22.6875C52.6709 22.8375 52.6084 23.0625 52.5584 23.175L52.5709 22.6875ZM49.4834 21.725C50.0584 21.75 50.1709 22.175 50.7959 22.3375Z" fill="white"/>
<path d="M49.4834 21.725C50.0584 21.75 50.1709 22.175 50.7959 22.3375M51.9334 22.375C51.6334 22.425 51.5334 22.95 51.7209 23.2125L51.9334 22.375ZM52.5709 22.6875C52.6709 22.8375 52.6084 23.0625 52.5584 23.175L52.5709 22.6875Z" stroke="black" stroke-width="0.05" stroke-linecap="round"/>
</g>
<path id="Vector_66" d="M49.0959 20.3C51.0959 20.8 52.6959 21.2375 53.6834 21.8C54.8772 22.396 56.2517 22.521 57.5334 22.15C58.8709 21.775 61.4459 21.425 61.3209 23.0875C62.0209 22.2625 61.1334 21.3625 59.3459 21.2125C59.3834 20.3875 58.5084 19.65 57.8834 20.1375C58.4584 20.0625 58.9584 21.1375 57.8209 21.5875C57.8804 21.3946 57.8815 21.1884 57.8242 20.9948C57.7669 20.8012 57.6537 20.6289 57.4989 20.4994C57.344 20.3698 57.1543 20.289 56.9537 20.2668C56.753 20.2447 56.5503 20.2823 56.3709 20.375C56.9084 20.5375 57.4584 21.4375 56.2459 21.7875C55.4834 22.0125 54.3709 21.725 53.5459 21.225C52.7209 20.725 48.0709 18.9 49.0834 20.2875L49.0959 20.3Z" fill="white" stroke="black" stroke-width="0.05"/>
<path id="Vector_67" d="M54.1584 19.475C53.5334 19.7625 53.9334 20.425 52.9709 20.8C51.9959 21.175 51.3209 22.05 51.5334 22.775C52.1959 21.3375 53.3584 21.4 53.7709 20.825C54.1709 20.2625 54.7709 19.4375 54.1584 19.475Z" fill="white" stroke="black" stroke-width="0.05"/>
<path id="Vector_68" d="M54.3336 19.575C54.2961 20.725 53.3961 20.3 53.7461 21.9125C53.9761 22.6036 53.9673 23.352 53.7211 24.0375C54.7211 23.3125 54.0836 21.7625 54.5336 21.175C54.7972 20.8427 55.0081 20.4716 55.1586 20.075C54.9086 20.7375 54.9336 21.95 55.5711 22.275C55.0586 21.05 56.9711 20.05 55.6461 18.6375C55.4586 18.975 54.8711 19.5875 54.3336 19.575V19.575ZM51.1336 18.425C51.2836 18.675 51.4461 19.2625 51.3086 19.5875C51.6868 19.3338 51.996 18.9902 52.2086 18.5875C52.8586 18.675 53.1086 19.475 52.4961 19.8375C52.8711 19.8375 53.5211 19.8375 53.8711 19.4C53.4336 18.9125 52.0711 18.1625 51.1211 18.425H51.1336Z" fill="white" stroke="black" stroke-width="0.05"/>
<path id="Vector_69" d="M41.3711 16.175C41.2014 16.0401 40.9984 15.9538 40.7836 15.925C39.8336 15.7375 40.3336 14.8875 41.1336 14.8875C42.8586 13.0125 43.8336 14.4625 45.9336 13.8625C46.6836 13.65 47.1836 13.7125 47.5836 13.8875C48.5211 13.2625 49.6211 13.4375 50.4211 14.175C50.5086 14.0375 50.6336 13.925 50.7961 13.875C51.5461 13.675 52.1336 14.3 52.3336 15.125C52.9086 15 53.5711 15.3 54.0086 15.6875C54.5961 15.375 55.0086 15.3625 55.1586 15.6875C55.6961 15.4375 56.3836 15.275 56.7336 16.125C57.0836 16.975 55.9211 16.7125 55.7336 18.5C55.6086 19.6125 54.3836 20.05 53.4086 19.375C51.8461 18.3375 50.3336 18.1625 49.5711 19.7625C48.8211 21.3625 48.2336 22.3 46.4086 21.7625C45.7461 21.5875 44.9086 21.8375 44.3711 22.5625C43.8336 23.275 43.0211 22.6 42.0461 22.6875C43.2711 22.5 42.7961 22.1875 43.8586 22.1125C44.8336 22.05 44.5836 21.15 45.2086 21.0125C42.7711 21.6375 42.8586 20.7375 40.8461 21.3625C41.7211 20.2375 43.1086 20.8625 43.7961 20.2C41.9836 20.175 41.1711 18.9875 40.3461 19.475C39.0586 20.2625 39.6211 22.5 36.2711 22.3C34.6461 22.2125 33.5961 22.425 32.6211 23.4C34.3211 19.9 36.6211 21.825 37.7461 20.7C38.3283 20.1782 38.8333 19.5764 39.2461 18.9125C39.2962 18.8154 39.3669 18.7304 39.4532 18.6635C39.5396 18.5965 39.6396 18.5493 39.7461 18.525C36.9461 17.65 38.6336 16.275 41.3711 16.175V16.175Z" fill="white" stroke="black" stroke-width="0.05"/>
<g id="Vector_70">
<path d="M55.1586 15.6875C55.2086 15.775 55.2211 15.8875 55.2211 16.025C55.2211 16.725 54.1961 16.75 54.1336 17.775C54.0961 18.3 54.0336 18.6 53.6711 18.5375C53.3086 18.475 52.9961 17.9125 53.3461 17.25" fill="white"/>
<path d="M55.1586 15.6875C55.2086 15.775 55.2211 15.8875 55.2211 16.025C55.2211 16.725 54.1961 16.75 54.1336 17.775C54.0961 18.3 54.0336 18.6 53.6711 18.5375C53.3086 18.475 52.9961 17.9125 53.3461 17.25" stroke="black" stroke-width="0.05" stroke-linecap="round"/>
</g>
<path id="Vector_71" d="M41.8833 15.15C41.6646 14.9923 41.4029 14.9051 41.1333 14.9L41.8833 15.15ZM47.5708 13.8875C48.4083 14.25 48.8083 15.1125 50.0208 15.1375C51.1833 15.1875 51.8958 16.875 53.8458 15.775L53.9958 15.7L47.5708 13.8875ZM50.4208 14.175C50.2552 14.4804 50.1979 14.8329 50.2583 15.175L50.4208 14.175ZM46.6333 17.725C45.1458 17.725 44.7708 18.475 44.7708 19.2C44.7708 19.925 45.4708 20.8625 46.6833 20.8625C47.9083 20.8625 48.5708 20.1125 48.5708 19.2875C48.5708 18.4625 47.8208 17.725 46.6208 17.725H46.6333Z" fill="white" stroke="black" stroke-width="0.05"/>
<g id="Vector_72">
<path d="M46.8961 20.825C46.8586 20.425 46.1211 20.4875 46.1461 20.175C46.1711 19.8625 46.5586 19.725 46.5586 19.3C46.5586 18.875 47.2211 18.825 47.4336 19.175C47.6586 19.5125 48.3211 20.175 48.4586 19.8375L46.8961 20.825ZM47.4461 19.1625C47.2448 19.3776 47.1288 19.6586 47.1196 19.9531C47.1104 20.2475 47.2087 20.5353 47.3961 20.7625L47.4461 19.1625ZM47.9086 19.7C47.8086 19.9375 47.7836 20.3 47.9086 20.5125Z" fill="white"/>
<path d="M47.9086 19.7C47.8086 19.9375 47.7836 20.3 47.9086 20.5125M46.8961 20.825C46.8586 20.425 46.1211 20.4875 46.1461 20.175C46.1711 19.8625 46.5586 19.725 46.5586 19.3C46.5586 18.875 47.2211 18.825 47.4336 19.175C47.6586 19.5125 48.3211 20.175 48.4586 19.8375L46.8961 20.825ZM47.4461 19.1625C47.2448 19.3776 47.1288 19.6586 47.1196 19.9531C47.1104 20.2475 47.2087 20.5353 47.3961 20.7625L47.4461 19.1625Z" stroke="black" stroke-width="0.05"/>
</g>
<path id="Vector_73" d="M52.3585 15.1125C51.9585 14.6125 51.0335 14.4375 51.021 15.5125M53.771 18.55C54.9335 18.6375 55.121 17.375 54.271 17.3L53.771 18.55Z" stroke="black" stroke-width="0.05"/>
<g id="Vector_74">
<path d="M50.9084 16.75C50.5209 15.775 49.5084 15.625 48.9834 16.125C48.5334 16.525 48.5209 17.575 49.4834 17.8C49.8084 17.4125 50.4584 16.8875 50.9084 16.75ZM50.4834 16.1375C49.9084 15.6375 49.0834 16.5875 49.8334 17.4625L50.4834 16.1375ZM39.7459 18.5C40.1209 18.4125 40.6709 18.6 41.5209 19C42.0584 19.25 43.6459 19.7875 44.6584 19.25C43.6209 19.625 42.8459 18.05 42.0584 18.25C41.2709 18.4375 39.8334 18.725 39.2334 18.15C40.7084 18.25 41.4959 17.075 43.1834 18.0875C43.6622 18.3874 44.2187 18.5395 44.7834 18.525C43.4084 16.8625 41.5834 17.925 41.3959 16.575C42.2334 17.475 44.2709 16.375 45.2959 18.05L39.7459 18.5ZM41.6959 16.825C41.4959 16.5875 41.5834 16.35 41.3834 16.1625Z" fill="white"/>
<path d="M41.6959 16.825C41.4959 16.5875 41.5834 16.35 41.3834 16.1625M50.9084 16.75C50.5209 15.775 49.5084 15.625 48.9834 16.125C48.5334 16.525 48.5209 17.575 49.4834 17.8C49.8084 17.4125 50.4584 16.8875 50.9084 16.75ZM50.4834 16.1375C49.9084 15.6375 49.0834 16.5875 49.8334 17.4625L50.4834 16.1375ZM39.7459 18.5C40.1209 18.4125 40.6709 18.6 41.5209 19C42.0584 19.25 43.6459 19.7875 44.6584 19.25C43.6209 19.625 42.8459 18.05 42.0584 18.25C41.2709 18.4375 39.8334 18.725 39.2334 18.15C40.7084 18.25 41.4959 17.075 43.1834 18.0875C43.6622 18.3874 44.2187 18.5395 44.7834 18.525C43.4084 16.8625 41.5834 17.925 41.3959 16.575C42.2334 17.475 44.2709 16.375 45.2959 18.05L39.7459 18.5Z" stroke="black" stroke-width="0.05"/>
</g>
</g>
<path id="Vector_75" d="M52.3583 15.125C52.0083 14.75 51.2583 15.0375 51.4708 15.7875C51.5501 15.6119 51.6714 15.4584 51.824 15.3407C51.9766 15.223 52.1558 15.1446 52.3458 15.1125L52.3583 15.125ZM50.2208 17.125C50.4295 16.9657 50.6614 16.8392 50.9083 16.75C50.8137 16.5001 50.654 16.28 50.4458 16.1125C50.2708 15.9875 49.7458 16.6875 50.2208 17.125Z" fill="black"/>
<path id="Vector_76" d="M46.5959 16.225C45.9709 16.125 45.4709 16.2875 45.7959 16.5125M49.2959 15.85C48.7334 15.475 48.2084 15.5125 48.0459 15.825C47.6334 15.8125 47.2959 16.1125 47.2709 16.7L49.2959 15.85ZM48.1459 16.95C47.4709 16.4875 46.5459 16.6625 46.6084 17.7L48.1459 16.95ZM46.2084 18.2875C46.5334 18.025 47.0084 17.8375 47.3584 18.3L46.2084 18.2875ZM51.2334 17.2625C51.1084 17.4375 51.0209 17.7125 51.2334 18.1125C50.9834 17.7875 50.3459 17.7875 49.6709 18.6625L51.2334 17.2625ZM52.7334 17.225C51.9209 17.3125 51.9334 17.85 52.5959 18.0875L52.7334 17.225ZM46.9209 15.225C46.2334 15.0875 45.7334 15.5 46.6834 15.85L46.9209 15.225ZM48.2459 14.75C47.2709 14.5 46.8709 14.75 47.3209 14.975L48.2459 14.75ZM45.4334 18.65C45.3959 19 45.5959 19.45 46.1584 18.9375L45.4334 18.65ZM45.6209 19.6875C45.6209 19.7875 45.6084 19.8875 45.5459 19.975L45.6209 19.6875ZM43.3584 15.1C42.7709 14.9125 42.6584 14.3625 43.3459 14.4125L43.3584 15.1ZM43.1584 16.3625C42.4959 16.1375 42.4959 15.4875 43.0459 15.5625L43.1584 16.3625ZM44.3834 16.025C43.6084 15.8375 43.5834 15.3125 44.1584 15.3875L44.3834 16.025ZM44.4709 14.3875C44.0709 14.3625 43.4334 14.825 44.4959 15.0875L44.4709 14.3875ZM45.6209 15.3125C44.6584 15.1625 44.6834 15.5625 45.2459 15.8125L45.6209 15.3125ZM46.3459 14.4C45.5959 14.2625 45.3459 14.7 45.8459 14.8875L46.3459 14.4ZM44.0334 17.125C43.8584 16.975 43.7084 16.2625 44.5709 16.475L44.0334 17.125ZM45.8209 16.9C45.2459 16.75 44.6959 17.3125 45.2209 17.65L45.8209 16.9Z" stroke="black" stroke-width="0.05" stroke-linecap="round"/>
<g id="Vector_77">
<path d="M52.3207 15.125C52.1361 15.1586 51.9623 15.2364 51.8143 15.3518C51.6663 15.4672 51.5484 15.6167 51.4707 15.7875" fill="white"/>
<path d="M52.3207 15.125C52.1361 15.1586 51.9623 15.2364 51.8143 15.3518C51.6663 15.4672 51.5484 15.6167 51.4707 15.7875" stroke="black" stroke-width="0.05"/>
</g>
</g>
</g>
</g>
<defs>
<clipPath id="clip0_2909_185369">
<path d="M0.246094 32C0.246094 14.3269 14.573 0 32.2461 0V0C49.9192 0 64.2461 14.3269 64.2461 32V32C64.2461 49.6731 49.9192 64 32.2461 64V64C14.573 64 0.246094 49.6731 0.246094 32V32Z" fill="white"/>
</clipPath>
</defs>
</svg>
