<svg width="65" height="64" viewBox="0 0 65 64" fill="none" xmlns="http://www.w3.org/2000/svg">
<g id="Rounded=Bouvet Island (BV)">
<g clip-path="url(#clip0_2909_185503)">
<g id="Group">
<path id="Vector" fill-rule="evenodd" clip-rule="evenodd" d="M-8.25391 0H79.2086V64H-8.25391V0Z" fill="#F5F5F5"/>
<path id="Vector_2" fill-rule="evenodd" clip-rule="evenodd" d="M-11.3789 -9.72501H15.9586V24.8H-11.3789V-9.72501ZM31.4211 -0.0750055H79.0461V24.8H31.4211V-0.0750055ZM-8.20391 40H15.5961V63.7875H-8.19141L-8.20391 40ZM31.7461 40.2625H79.0336V63.7875H31.7461V40.2625Z" fill="#D72828"/>
<path id="Vector_3" fill-rule="evenodd" clip-rule="evenodd" d="M19.8336 -3.17502H27.8711V63.7875H19.8086L19.8336 -3.17502Z" fill="#003897"/>
<path id="Vector_4" fill-rule="evenodd" clip-rule="evenodd" d="M-8.19141 28.1H79.0336V36.0375H-8.19141V28.1Z" fill="#003897"/>
</g>
</g>
</g>
<defs>
<clipPath id="clip0_2909_185503">
<path d="M0.246094 32C0.246094 14.3269 14.573 0 32.2461 0V0C49.9192 0 64.2461 14.3269 64.2461 32V32C64.2461 49.6731 49.9192 64 32.2461 64V64C14.573 64 0.246094 49.6731 0.246094 32V32Z" fill="white"/>
</clipPath>
</defs>
</svg>
