<svg width="65" height="64" viewBox="0 0 65 64" fill="none" xmlns="http://www.w3.org/2000/svg">
<g id="Rounded=Cocos (Keeling) Islands (CC)">
<g clip-path="url(#clip0_2909_185473)">
<path id="Vector" d="M0.246094 0H64.2461V64H0.246094V0Z" fill="#008000"/>
<path id="Vector_2" d="M33.7711 38.95C37.9961 38.95 41.4211 35.525 41.4211 31.3C41.4211 27.075 37.9961 23.65 33.7711 23.65C29.5461 23.65 26.1211 27.075 26.1211 31.3C26.1211 35.525 29.5461 38.95 33.7711 38.95Z" fill="#FFE000"/>
<path id="Vector_3" d="M36.1584 37.6C39.6378 37.6 42.4584 34.7794 42.4584 31.3C42.4584 27.8206 39.6378 25 36.1584 25C32.679 25 29.8584 27.8206 29.8584 31.3C29.8584 34.7794 32.679 37.6 36.1584 37.6Z" fill="#008000"/>
<path id="Vector_4" d="M9.64609 31.675C14.0782 31.675 17.6711 28.0821 17.6711 23.65C17.6711 19.2179 14.0782 15.625 9.64609 15.625C5.21401 15.625 1.62109 19.2179 1.62109 23.65C1.62109 28.0821 5.21401 31.675 9.64609 31.675Z" fill="#FFE000"/>
<path id="Vector_5" d="M9.0835 29.7H11.0835C11.0835 29.7 11.1835 29.5125 11.071 29.425C10.9585 29.325 10.5335 29.3 10.646 28.9875C10.896 28.3125 10.921 28.525 11.071 26.9375C11.221 25.35 11.2835 22.8625 11.2835 22.8625H10.996C10.996 22.8625 11.0585 23.6375 10.8835 24.65C10.721 25.65 10.671 25.7375 10.4835 26.525C10.3085 27.2875 10.271 27.35 10.1085 27.8125C9.946 28.2625 9.921 28.275 9.671 28.6875L9.3585 29.2125C9.2835 29.3375 9.196 29.3 9.146 29.3875C9.096 29.4875 9.0835 29.7 9.0835 29.7V29.7Z" fill="#802000" stroke="#7B3100" stroke-width="0.175"/>
<path id="Vector_6" d="M10.621 17.8125C10.621 18.125 10.596 18.525 10.471 18.8625C10.346 19.2375 10.196 19.6125 10.2085 19.9875C9.996 20.075 9.7835 19.55 9.5835 19.8625C9.7335 20.275 10.0835 20.6125 10.321 20.9875C10.3585 21.1125 10.696 21.425 10.5085 21.4875C10.0085 21.325 9.8835 20.6875 9.571 20.3C9.39336 19.9785 9.13765 19.707 8.82744 19.5104C8.51723 19.3138 8.16251 19.1984 7.796 19.175C7.5085 19.175 6.596 19.1 6.8335 19.575C7.1835 19.825 7.621 19.975 7.9585 20.2375C8.221 20.2625 8.6835 20.6875 8.6585 20.8625C8.2085 20.675 7.996 20.45 7.5085 20.2625C6.846 20.0125 5.9335 20.15 5.571 20.8125C5.496 20.9875 5.396 21.475 5.6085 21.525C5.8585 21.1375 6.2335 20.7 6.7585 20.8125C7.171 20.85 6.2835 21.6 6.6335 21.4375C6.7335 21.4 6.9835 21.2375 7.146 21.225C7.321 21.2 7.421 21.325 7.546 21.35C7.8085 21.3875 7.8835 21.4875 7.8585 21.55C7.8335 21.625 7.7335 21.5625 7.4835 21.65C7.3585 21.6875 7.2835 21.8125 7.121 21.8625C6.971 21.9125 6.646 21.9125 6.5335 21.8625C6.1085 21.6875 5.421 21.725 5.2835 22.2375C5.2835 22.4875 5.0835 22.225 4.996 22.325C4.921 22.575 4.896 22.825 4.521 22.8125C4.296 23.05 4.071 23.3 3.771 23.4625C3.946 23.85 4.621 23.075 4.5835 23.4C4.296 23.8 4.7335 23.8875 4.9335 23.575C5.2585 23.225 5.671 22.8125 6.1585 23.1625C6.396 23.375 6.5335 23.0375 6.696 23.0625C6.8085 23.3375 6.946 23.0625 7.071 23C7.2585 22.975 7.196 23.25 7.446 23.075C7.9085 22.7625 8.4835 23.025 8.946 22.725C9.421 22.5 9.0085 22.9 8.871 23.0625C8.6585 23.475 8.846 24.025 8.371 24.275C8.196 24.775 8.596 25.425 8.1835 25.7875C8.121 26.025 8.721 26 8.8835 26.0875C9.1835 26.1 8.8835 25.425 9.1585 25.3375C9.546 25.575 9.5335 24.9 9.4585 24.6875C9.496 24.225 9.521 23.7125 9.746 23.275C9.996 22.7625 10.2335 23.4875 9.946 23.7C9.796 24.175 9.571 24.7875 9.921 25.225C10.0335 25.25 10.1085 25.5 10.246 25.575C10.371 25.6625 10.5585 25.5625 10.596 25.325C10.771 24.65 10.6835 23.9 10.9335 23.2375C11.096 23.025 11.346 23.2 11.446 23.3875C11.796 23.7875 12.0335 24.2875 12.446 24.625C12.8374 24.7861 13.1572 25.0837 13.346 25.4625C13.346 25.7625 14.196 25.8 13.946 25.4625C13.696 25.15 13.8585 24.8125 14.1085 24.6C14.2335 24.6375 14.196 24.4 14.1085 24.4875C13.9335 24.45 13.921 24.1375 14.146 24.2875C14.546 24.4125 14.121 24 13.9835 23.9875C13.646 23.7875 13.271 23.55 13.1085 23.1875C13.5335 23.1875 13.9835 23.4375 14.421 23.2875C14.7835 23.1 15.1335 23.3 15.2585 23.6125C15.5335 23.5625 15.421 23.3 15.2585 23.2C15.4585 23.125 15.596 22.95 15.3585 22.8C15.2335 22.625 15.5335 22.35 15.1585 22.3625C15.171 22.075 15.0585 21.825 14.7585 21.725C14.446 21.4625 13.546 22.1 13.571 21.5125C13.4835 21.2 13.946 21.475 14.071 21.3125C14.196 20.975 13.446 21.0125 13.696 20.75C13.846 20.65 14.621 20.5 14.021 20.375C13.8867 20.4144 13.7453 20.4236 13.607 20.402C13.4687 20.3804 13.3369 20.3285 13.221 20.25C13.0085 20.625 12.3835 20.05 12.496 20.7C12.4085 20.95 11.871 21.575 11.7085 21.0875C11.8335 20.7125 12.496 20.5875 12.2835 20.0875C12.2585 19.7625 11.996 20.1375 11.871 20.1125C11.8085 19.9125 12.0585 19.675 12.246 19.625C12.5835 19.9 12.596 19.2875 12.9335 19.3375C13.1835 19.2875 12.846 19.1875 12.7835 19.1375C12.846 18.9625 13.221 18.8625 12.8585 18.7125C12.5335 18.4625 12.296 18.9625 12.0335 18.975C11.7835 18.6875 12.2585 18.55 12.396 18.4C12.396 18.275 12.1085 18.3625 12.196 18.275C12.271 18.125 12.796 18.1125 12.546 17.9125C12.1835 17.7875 11.721 17.825 11.371 17.975C11.146 18.05 11.0835 18.55 10.896 18.525C10.796 18.3125 10.921 17.875 10.621 17.8V17.8125ZM12.3335 22.675C12.621 22.625 12.3335 23.0875 12.2085 23.0875C12.221 22.925 11.8085 22.9375 12.071 22.7875C12.1505 22.7308 12.2394 22.6885 12.3335 22.6625V22.675Z" fill="#008000"/>
</g>
</g>
<defs>
<clipPath id="clip0_2909_185473">
<path d="M0.246094 32C0.246094 14.3269 14.573 0 32.2461 0V0C49.9192 0 64.2461 14.3269 64.2461 32V32C64.2461 49.6731 49.9192 64 32.2461 64V64C14.573 64 0.246094 49.6731 0.246094 32V32Z" fill="white"/>
</clipPath>
</defs>
</svg>
