<svg width="65" height="64" viewBox="0 0 65 64" fill="none" xmlns="http://www.w3.org/2000/svg">
<g id="Rounded=Democratic Republic of the Congo (CD)">
<g clip-path="url(#clip0_2909_185430)">
<g id="Group">
<path id="Vector" d="M0.246094 0.00448608H85.5461V63.9795H0.246094V0.00448608Z" fill="#007FFF"/>
<path id="Vector_2" d="M4.08459 12.7995H13.0411L15.8133 3.84299L18.5856 12.7995H27.5421L20.2916 18.344L23.0638 27.3005L15.8133 21.756L8.56284 27.3005L11.3351 18.344L4.08459 12.7995ZM80.2148 0.00448608L0.246094 47.9857V63.9795H5.57734L85.5461 15.9982V0.00448608H80.2148Z" fill="#F7D618"/>
<path id="Vector_3" d="M85.5461 0.00448608L0.246094 51.1845V63.9795L85.5461 12.7995V0.00448608Z" fill="#CE1021"/>
</g>
</g>
</g>
<defs>
<clipPath id="clip0_2909_185430">
<path d="M0.246094 32C0.246094 14.3269 14.573 0 32.2461 0V0C49.9192 0 64.2461 14.3269 64.2461 32V32C64.2461 49.6731 49.9192 64 32.2461 64V64C14.573 64 0.246094 49.6731 0.246094 32V32Z" fill="white"/>
</clipPath>
</defs>
</svg>
