<svg width="65" height="64" viewBox="0 0 65 64" fill="none" xmlns="http://www.w3.org/2000/svg">
<g id="Rounded=Central African Republic (CF)">
<g clip-path="url(#clip0_2909_185519)">
<g id="Group">
<path id="Vector" fill-rule="evenodd" clip-rule="evenodd" d="M-6.25391 -0.0625H89.7461V15.8125H-6.25391V-0.0625Z" fill="#0000FF"/>
<path id="Vector_2" fill-rule="evenodd" clip-rule="evenodd" d="M-6.25391 47.9375H89.7461V64H-6.25391V47.9375Z" fill="#FFFF00"/>
<path id="Vector_3" fill-rule="evenodd" clip-rule="evenodd" d="M-6.25391 31.875H89.7461V47.9375H-6.25391V31.875Z" fill="#009A00"/>
<path id="Vector_4" fill-rule="evenodd" clip-rule="evenodd" d="M-6.25391 15.8125H89.7461V31.875H-6.25391V15.8125Z" fill="#F5F5F5"/>
<path id="Vector_5" fill-rule="evenodd" clip-rule="evenodd" d="M33.7461 0H49.7461V64H33.7461V0Z" fill="#FF0000"/>
<path id="Vector_6" fill-rule="evenodd" clip-rule="evenodd" d="M13.9338 14.0375L9.73379 11.1375L5.55879 14.0625L7.00879 9.16251L2.94629 6.08751L8.03379 5.96251L9.70879 1.10001L11.3963 5.92501L16.4963 6.02501L12.4463 9.12501" fill="#FFFF00"/>
</g>
</g>
</g>
<defs>
<clipPath id="clip0_2909_185519">
<path d="M0.246094 32C0.246094 14.3269 14.573 0 32.2461 0V0C49.9192 0 64.2461 14.3269 64.2461 32V32C64.2461 49.6731 49.9192 64 32.2461 64V64C14.573 64 0.246094 49.6731 0.246094 32V32Z" fill="white"/>
</clipPath>
</defs>
</svg>
