<svg width="65" height="64" viewBox="0 0 65 64" fill="none" xmlns="http://www.w3.org/2000/svg">
<g id="Rounded=Cameroon (CM)">
<g clip-path="url(#clip0_2909_185452)">
<path id="Vector" d="M0.246094 0H21.5836V64H0.246094V0Z" fill="#007A5E"/>
<path id="Vector_2" d="M21.5835 0H42.9085V64H21.5835V0Z" fill="#CE1126"/>
<path id="Vector_3" d="M42.9087 0H64.2462V64H42.9087V0Z" fill="#FCD116"/>
<g id="Group">
<g id="b">
<path id="a" d="M32.246 26.3111L30.4683 31.7156L33.1705 32.64L32.246 26.3111Z" fill="#FCD116"/>
<path id="Vector_4" d="M32.2461 26.3111L34.0239 31.7156L31.3217 32.64L32.2461 26.3111Z" fill="#FCD116"/>
</g>
<g id="Group_2">
<path id="a_2" d="M37.6563 30.242L31.967 30.2213L31.9228 33.077L37.6563 30.242Z" fill="#FCD116"/>
<path id="Vector_5" d="M37.6562 30.242L33.0656 33.6029L31.3514 31.3186L37.6562 30.242Z" fill="#FCD116"/>
</g>
<g id="Group_3">
<path id="a_3" d="M35.5896 36.6024L33.8512 31.1852L31.1216 32.0256L35.5896 36.6024Z" fill="#FCD116"/>
<path id="Vector_6" d="M35.5896 36.6024L30.9747 33.2751L32.6175 30.9389L35.5896 36.6024Z" fill="#FCD116"/>
</g>
<g id="Group_4">
<path id="a_4" d="M28.9021 36.6024L33.517 33.2751L31.8742 30.9389L28.9021 36.6024Z" fill="#FCD116"/>
<path id="Vector_7" d="M28.9021 36.6024L30.6405 31.1852L33.37 32.0256L28.9021 36.6024Z" fill="#FCD116"/>
</g>
<g id="Group_5">
<path id="a_5" d="M26.8355 30.242L31.4261 33.6029L33.1403 31.3186L26.8355 30.242Z" fill="#FCD116"/>
<path id="Vector_8" d="M26.8354 30.242L32.5247 30.2213L32.5689 33.077L26.8354 30.242Z" fill="#FCD116"/>
</g>
</g>
</g>
</g>
<defs>
<clipPath id="clip0_2909_185452">
<path d="M0.246094 32C0.246094 14.3269 14.573 0 32.2461 0V0C49.9192 0 64.2461 14.3269 64.2461 32V32C64.2461 49.6731 49.9192 64 32.2461 64V64C14.573 64 0.246094 49.6731 0.246094 32V32Z" fill="white"/>
</clipPath>
</defs>
</svg>
