<svg width="65" height="64" viewBox="0 0 65 64" fill="none" xmlns="http://www.w3.org/2000/svg">
<g id="Rounded=Cura&#195;&#167;ao (CW)">
<g clip-path="url(#clip0_2909_185509)">
<g id="Group">
<path id="Vector" d="M0.246094 0H96.4336V64.125H0.246094V0Z" fill="#002B7F"/>
<path id="Vector_2" d="M0.246094 40.0781H96.4336V48.0938H0.246094V40.0781Z" fill="#F9E814"/>
<path id="Vector_3" d="M0.245898 -5.34375L1.31465 -1.60313H5.58965L1.84902 0L2.91777 3.74063L0.245898 2.1375L-2.96035 4.275L-1.8916 0.534375L-4.56348 -1.60313H-0.822852L0.245898 -5.34375Z" fill="#F5F5F5"/>
<path id="Vector_4" d="M0.245996 -7.125L1.671 -2.1375H7.371L2.3835 0L3.8085 4.9875L0.245996 2.85L-4.029 5.7L-2.604 0.7125L-6.1665 -2.1375H-1.179L0.245996 -7.125Z" fill="#F5F5F5"/>
</g>
</g>
</g>
<defs>
<clipPath id="clip0_2909_185509">
<path d="M0.246094 32C0.246094 14.3269 14.573 0 32.2461 0V0C49.9192 0 64.2461 14.3269 64.2461 32V32C64.2461 49.6731 49.9192 64 32.2461 64V64C14.573 64 0.246094 49.6731 0.246094 32V32Z" fill="white"/>
</clipPath>
</defs>
</svg>
