<svg width="65" height="64" viewBox="0 0 65 64" fill="none" xmlns="http://www.w3.org/2000/svg">
<g id="Rounded=Christmas Island (CX)">
<g clip-path="url(#clip0_2909_185397)">
<path id="Vector" d="M0.246094 0H64.2461V64H0.246094V0Z" fill="#0021AD"/>
<path id="Vector_2" d="M0.246094 0H64.2461V64L0.246094 0Z" fill="#1C8A42"/>
<path id="Vector_3" d="M32.2462 39.7125C36.5057 39.7125 39.9587 36.2595 39.9587 32C39.9587 27.7405 36.5057 24.2875 32.2462 24.2875C27.9867 24.2875 24.5337 27.7405 24.5337 32C24.5337 36.2595 27.9867 39.7125 32.2462 39.7125Z" fill="#FFC639"/>
<path id="Vector_4" d="M27.5335 28.5375C28.071 29.2625 28.8585 30.475 29.5085 30.1625C30.0085 30.1625 30.2585 30.2 30.3335 30.5375C31.171 30.6213 32.016 30.4895 32.7883 30.1548C33.5606 29.8201 34.2345 29.2935 34.746 28.625C34.746 28.625 34.846 28.625 34.8085 28.025C34.8085 27.75 35.1835 27.8125 35.1835 27.9C35.2335 28.025 35.221 28.125 35.296 28.125C35.446 28.075 35.6585 27.7375 35.8335 27.525C35.871 27.425 35.846 27.325 35.8585 27.2C35.9585 26.975 36.1835 27.025 36.2335 27.15C36.271 27.225 36.271 27.275 36.321 27.3625C36.546 27.5125 36.971 27.3625 37.0085 27.3625C37.046 27.175 37.171 27.2 37.171 27.2C37.321 27.1625 37.2585 27.175 37.371 27.225C37.271 28.25 37.571 28.3 37.546 28.825C37.546 29.4125 37.371 29.575 37.371 29.8C37.421 30.075 38.2835 30.0875 37.996 30.3125C37.721 30.4625 37.996 30.725 37.5835 30.825C36.4085 31.425 36.1835 31.9375 36.1835 31.9375C36.1835 31.9375 35.896 32.4875 35.8585 32.4875C35.6585 32.8625 35.421 32.6625 35.271 32.8375C35.2085 33.0625 35.1335 33.575 35.271 33.8375C35.3335 34.1875 35.271 34.3875 35.171 34.75C35.096 35.5 34.796 35.6125 34.7585 35.875C34.6335 36.15 34.796 37.475 34.6585 37.475C33.7835 37.4875 33.121 37.3125 32.7835 37.2375C33.1085 35.7875 32.9835 34.5125 32.9835 34.3875C32.896 33.35 31.4335 33.6 31.2085 33.4625C31.021 33.425 30.9085 33.275 30.8335 33.2125C30.6335 33.1875 30.5585 33.1375 30.346 33.1125C30.246 33.1625 30.3085 33.225 30.071 33.2875C29.496 33.3625 29.2335 32.7875 29.2335 32.7875C29.2585 32.5875 27.921 32.825 27.1835 32.6625C26.8835 32.825 26.7585 33.3125 26.5085 33.375C26.5085 33.525 26.1085 33.25 26.021 33.1C26.021 32.6625 26.4085 32.475 26.4085 32.475C26.721 32.2375 26.9085 32.2 27.071 32.05C27.146 31.675 27.1085 31.3875 27.271 31.1C27.396 30.8875 27.6085 30.975 27.746 30.8875C27.896 30.7875 27.9585 30.1375 27.821 29.975L27.196 29.4125C26.996 28.85 27.421 28.5 27.5335 28.5375V28.5375Z" fill="#1C8A42"/>
<path id="Vector_5" d="M56.7834 7.96251C56.4334 6.58751 53.2959 3.61251 50.9584 1.71251C50.3959 1.33751 50.0334 1.56251 50.0959 2.10001C50.3959 2.60001 50.6084 3.12501 50.9084 3.61251C50.9834 3.93751 51.1459 4.16251 51.2209 4.48751C51.2209 4.48751 51.2459 5.05001 51.2959 5.11251C51.7011 5.51908 51.9865 6.02941 52.1209 6.58751C52.4906 7.37436 53.0132 8.07974 53.6584 8.66251C54.4834 9.18751 53.8834 10.8 53.9084 11.6625C53.9084 12.2 53.5084 12.1375 53.1709 12.075C50.4834 9.60001 47.8209 9.60001 45.4709 8.88751C44.5459 8.78751 44.5334 9.22501 44.8334 9.46251C46.4709 11.2125 48.0209 12.4125 50.0459 13.4125L51.0709 14.05L52.2459 15.025C53.1459 15.6125 53.2209 16.15 53.2209 16.2C53.2459 17.3 52.6584 18.15 52.4959 18.4875C52.1834 19.65 51.5584 19.8625 51.5584 19.8625C46.5459 23.2375 43.9084 24.1125 35.7584 23.075C35.6334 23.0125 34.8584 23.1375 35.7584 23.4625C37.8334 24.15 42.9209 25.2625 47.8459 22.925C49.0334 22.1 49.8334 22.375 50.6834 21.875C52.0959 21 54.0959 19.925 54.4709 19.8125C55.5584 19.225 58.6334 18.5625 59.3459 17.975C60.1584 17.9125 60.9959 17.8 61.0584 17.1C61.3209 16.9375 61.7084 17.0625 61.9959 16.4875C62.6459 16.375 62.5334 16.15 62.5334 16.15C62.3709 15.6875 61.7834 15.5 61.3459 15.175C60.7084 14.9625 60.2709 14.9 59.8084 15.125L59.3709 15.325C59.3709 15.325 58.6834 15.225 58.6834 15.175C57.1709 15.0875 57.3084 10.05 56.7834 7.96251V7.96251Z" fill="#FFC639"/>
<g id="Group">
<path id="a" d="M14.8311 39.0988L13.7389 38.0747L12.6381 39.0817L12.7575 37.5969L11.2812 37.3579L12.5186 36.5217L11.7847 35.2246L13.2098 35.6769L13.7645 34.2945L14.3021 35.6854L15.7271 35.2587L14.9762 36.5387L16.205 37.3921L14.7287 37.6054L14.8311 39.0902V39.0988Z" fill="#F5F5F5"/>
<path id="Vector_6" d="M18.6882 51.4295L17.5106 50.6529L16.3671 51.4721L16.7768 50.1495L15.6162 49.3388L17.0328 49.3047L17.4594 47.982L17.9373 49.2876L19.3624 49.2791L18.2274 50.1068L18.6797 51.4209L18.6882 51.4295Z" fill="#F5F5F5"/>
<path id="Vector_7" d="M14.8311 39.0988L13.7389 38.0747L12.6381 39.0817L12.7575 37.5969L11.2812 37.3579L12.5186 36.5217L11.7847 35.2246L13.2098 35.6769L13.7645 34.2945L14.3021 35.6854L15.7271 35.2587L14.9762 36.5387L16.205 37.3921L14.7287 37.6054L14.8311 39.0902V39.0988Z" fill="#F5F5F5"/>
<path id="Vector_8" d="M14.8311 39.0988L13.7389 38.0747L12.6381 39.0817L12.7575 37.5969L11.2812 37.3579L12.5186 36.5217L11.7847 35.2246L13.2098 35.6769L13.7645 34.2945L14.3021 35.6854L15.7271 35.2587L14.9762 36.5387L16.205 37.3921L14.7287 37.6054L14.8311 39.0902V39.0988Z" fill="#F5F5F5"/>
<path id="Vector_9" d="M14.8311 39.0988L13.7389 38.0747L12.6381 39.0817L12.7575 37.5969L11.2812 37.3579L12.5186 36.5217L11.7847 35.2246L13.2098 35.6769L13.7645 34.2945L14.3021 35.6854L15.7271 35.2587L14.9762 36.5387L16.205 37.3921L14.7287 37.6054L14.8311 39.0902V39.0988Z" fill="#F5F5F5"/>
</g>
</g>
</g>
<defs>
<clipPath id="clip0_2909_185397">
<path d="M0.246094 32C0.246094 14.3269 14.573 0 32.2461 0V0C49.9192 0 64.2461 14.3269 64.2461 32V32C64.2461 49.6731 49.9192 64 32.2461 64V64C14.573 64 0.246094 49.6731 0.246094 32V32Z" fill="white"/>
</clipPath>
</defs>
</svg>
