<svg width="65" height="64" viewBox="0 0 65 64" fill="none" xmlns="http://www.w3.org/2000/svg">
<g id="Rounded=Cyprus (CY)">
<g clip-path="url(#clip0_2909_185477)">
<path id="Vector" d="M0.246094 0H64.2461V64H0.246094V0Z" fill="#F5F5F5"/>
<path id="a" d="M30.6213 53.15C30.6072 53.1443 30.5945 53.1358 30.5838 53.125V53.1125L30.4088 52.9375C30.2337 52.7404 30.0669 52.536 29.9088 52.325L29.2463 51.5L29.1588 51.3875L28.3338 51.1375L27.7338 50.85L28.0463 50.4875L29.1713 50.9625L29.9963 51.1375L31.5213 52.2625C31.2279 52.5182 30.9443 52.7851 30.6713 53.0625C30.6613 53.0783 30.6529 53.095 30.6463 53.1125L30.7463 53.05L30.8463 53.1375L30.6338 53.15H30.6213ZM24.9338 51.4375C24.2088 51.4375 23.4963 51.2375 22.8088 50.8375C22.1213 50.4375 22.9088 50.675 23.1213 50.5125C23.3213 50.3625 23.6963 50.175 24.3088 50.175C25.0338 50.175 25.9088 50.425 26.9213 50.9C26.8838 50.925 26.0838 51.4375 24.9338 51.4375ZM21.8088 50.75C21.6713 50.75 21.5588 50.6875 21.4588 50.6C21.3829 50.5104 21.3313 50.4028 21.3088 50.2875C21.2758 50.1442 21.2631 49.9969 21.2713 49.85C21.3257 49.8219 21.3852 49.8049 21.4463 49.8C21.7213 49.8 21.9338 50.05 22.0213 50.275C22.0713 50.4 22.0838 50.5125 22.0588 50.6C22.0338 50.6875 21.9213 50.7375 21.8088 50.7375V50.75ZM27.3088 50.1C25.4588 49.85 24.6838 49.175 24.3463 48.65C24.1335 48.3383 24.0322 47.9639 24.0588 47.5875C24.0588 47.5875 24.1838 47.5625 24.3463 47.5625C24.8463 47.5625 26.0963 47.8125 27.3088 50.1ZM23.5213 49.7375C22.7338 49.7375 22.1213 49.6125 21.7338 49.3375C21.5612 49.2276 21.4227 49.0718 21.3338 48.8875C21.3022 48.8203 21.2811 48.7486 21.2713 48.675C21.573 48.5535 21.8961 48.494 22.2213 48.5C22.8463 48.5 23.7713 48.7 24.7463 49.65C24.3398 49.701 23.9309 49.7302 23.5213 49.7375V49.7375ZM19.6963 49.5875C18.8588 49.5875 17.7088 49.3375 16.9963 48.625C17.5904 48.4841 18.1982 48.4086 18.8088 48.4C19.5963 48.4 20.1838 48.55 20.5838 48.85C20.7338 48.95 20.8088 49.05 20.8213 49.15C20.8338 49.225 20.7963 49.3125 20.7088 49.375C20.5338 49.5 20.2088 49.5875 19.7588 49.5875H19.6963ZM16.9838 48.2125C16.9356 48.2107 16.8884 48.1987 16.8452 48.1771C16.8021 48.1555 16.7641 48.125 16.7338 48.0875C16.6703 48.0074 16.6273 47.913 16.6088 47.8125C16.5588 47.6125 16.5713 47.425 16.5713 47.425C16.6089 47.4017 16.652 47.3887 16.6963 47.3875C16.8213 47.3875 16.9213 47.45 16.9838 47.5125C17.0616 47.5902 17.1213 47.6841 17.1588 47.7875C17.1963 47.9125 17.2088 48 17.1838 48.075C17.1588 48.1375 17.0838 48.2 16.9838 48.2V48.2125ZM23.2338 48.0625C23.0963 48.0625 22.9838 48.0125 22.8963 47.925C22.8204 47.8354 22.7688 47.7278 22.7463 47.6125C22.7121 47.4651 22.6994 47.3135 22.7088 47.1625C22.7602 47.1403 22.8153 47.1276 22.8713 47.125C23.1463 47.125 23.3713 47.3625 23.4463 47.5875C23.4963 47.7125 23.5088 47.8375 23.4838 47.9125C23.4463 48 23.3463 48.0625 23.2338 48.0625V48.0625ZM20.1838 47.9375C18.5088 47.875 17.6338 47.4 17.2088 47.0125C17.0184 46.8481 16.8614 46.6487 16.7463 46.425C16.7083 46.345 16.679 46.2612 16.6588 46.175C16.6588 46.175 16.8088 46.1125 17.0713 46.1125H17.1088C17.6713 46.1125 18.8338 46.35 20.1838 47.9375V47.9375ZM22.0088 47.7625C21.0514 47.6598 20.1613 47.2214 19.4963 46.525C19.2454 46.26 19.0536 45.9447 18.9338 45.6C18.9338 45.6 19.1088 45.5625 19.3588 45.55C19.3963 45.549 19.4338 45.549 19.4713 45.55C20.1463 45.5625 21.3838 45.875 22.0088 47.7625V47.7625ZM15.0838 47.1125C14.6338 47.1125 14.2088 47.075 13.8088 46.9625C13.0963 46.7875 12.7963 46.525 12.6588 46.325C12.6057 46.2417 12.5716 46.1479 12.5588 46.05C12.5541 46.0126 12.5541 45.9749 12.5588 45.9375C12.5588 45.9375 13.0213 45.8125 13.6713 45.8C14.0026 45.7941 14.3336 45.8234 14.6588 45.8875C15.3401 46.0288 15.9479 46.4103 16.3713 46.9625C16.3713 46.9625 15.8338 47.1125 15.0838 47.1125V47.1125ZM18.2088 45.9875C18.0838 45.9875 17.9588 45.925 17.8713 45.8375C17.7954 45.7479 17.7438 45.6403 17.7213 45.525C17.6879 45.3817 17.6753 45.2344 17.6838 45.0875C17.7352 45.0653 17.7903 45.0525 17.8463 45.05H17.8588C18.1338 45.05 18.3463 45.275 18.4338 45.5125C18.4838 45.6375 18.4963 45.7375 18.4588 45.8375C18.4213 45.925 18.3338 45.975 18.2088 45.975V45.9875ZM15.8588 45.65C15.8463 45.65 15.2213 45.5 14.5838 45.1C13.9838 44.725 13.2713 44.1 13.1713 43.1C13.0713 42.1 13.2338 43.075 13.3213 43.075H13.3463C13.5213 43.075 13.8838 43.125 14.3213 43.45C14.8838 43.875 15.3963 44.625 15.8588 45.6625V45.65ZM17.3963 45.6C17.3963 45.6 16.9463 45.425 16.3963 44.95C15.6041 44.2785 14.9864 43.425 14.5963 42.4625C14.5963 42.4625 14.7213 42.4 14.9088 42.3875C14.9213 42.387 14.9338 42.387 14.9463 42.3875H14.9963C15.2463 42.3875 15.6338 42.5 16.0713 42.975C16.6971 43.7442 17.1491 44.6397 17.3963 45.6ZM13.3963 45.475C12.8963 45.475 12.7213 45.2 12.6588 45.0875C12.6098 44.9602 12.5926 44.8229 12.6088 44.6875C12.6904 44.6656 12.7743 44.6531 12.8588 44.65H12.8838C13.2838 44.65 13.6088 44.8625 13.7463 45.0625C13.7713 45.1 13.8588 45.25 13.7838 45.35C13.7338 45.4375 13.6088 45.475 13.4088 45.475H13.3963ZM12.2713 44.05C11.9838 44.05 11.5463 44.025 11.0838 43.95C10.6213 43.8625 10.3588 43.475 10.2213 43.1625C10.1291 42.9512 10.066 42.7283 10.0338 42.5C11.4463 42.5375 12.1213 42.95 12.4338 43.2875C12.6277 43.4923 12.7466 43.7566 12.7713 44.0375H12.2713V44.05ZM13.7463 42.575C13.6307 42.4304 13.5222 42.2802 13.4213 42.125C13.2463 41.8625 13.0963 41.5875 13.0963 41.375C13.0848 41.0657 13.0597 40.7571 13.0213 40.45L12.9338 39.825C12.9713 39.85 13.8213 40.1625 13.8213 40.9625C13.8213 41.7625 13.7463 42.5625 13.7463 42.575V42.575ZM12.6463 42.5H12.6088C12.3588 42.45 11.9213 42.25 11.4338 41.975C10.9711 41.7291 10.5494 41.4128 10.1838 41.0375C9.95878 40.775 9.80878 40.35 9.78378 39.7875C9.76348 39.5379 9.76348 39.2871 9.78378 39.0375C9.83116 39.0162 9.88195 39.0035 9.93378 39C10.1213 39 10.3088 39.0875 10.5838 39.275C10.8336 39.4503 11.0678 39.6469 11.2838 39.8625C11.5531 40.1319 11.8076 40.4156 12.0463 40.7125C12.312 41.2079 12.5417 41.7217 12.7338 42.25V42.4375C12.7238 42.4597 12.706 42.4775 12.6838 42.4875C12.6673 42.4909 12.6503 42.4909 12.6338 42.4875L12.6463 42.5Z" fill="#435125"/>
<path id="Vector_2" d="M27.7088 53.15C27.7229 53.1443 27.7356 53.1358 27.7463 53.125V53.1125L27.9213 52.9375C28.0964 52.7404 28.2632 52.536 28.4213 52.325L29.0838 51.5L29.1713 51.3875L29.9963 51.1375L30.5963 50.85L30.2838 50.4875L29.1588 50.9625L28.3338 51.1375L26.8088 52.2625C27.1022 52.5182 27.3858 52.7851 27.6588 53.0625C27.6688 53.0783 27.6772 53.095 27.6838 53.1125L27.5838 53.05L27.4838 53.1375L27.6963 53.15H27.7088ZM33.3963 51.4375C34.1213 51.4375 34.8338 51.2375 35.5213 50.8375C36.2088 50.4375 35.4213 50.675 35.2088 50.5125C35.0088 50.3625 34.6338 50.175 34.0213 50.175C33.2963 50.175 32.4213 50.425 31.4088 50.9C31.4463 50.925 32.2463 51.4375 33.3963 51.4375ZM36.5213 50.75C36.6588 50.75 36.7713 50.6875 36.8713 50.6C36.9472 50.5104 36.9988 50.4028 37.0213 50.2875C37.0543 50.1442 37.067 49.9969 37.0588 49.85C37.0044 49.8219 36.9449 49.8049 36.8838 49.8C36.6088 49.8 36.3963 50.05 36.3088 50.275C36.2588 50.4 36.2463 50.5125 36.2713 50.6C36.2963 50.6875 36.4088 50.7375 36.5213 50.7375V50.75ZM31.0213 50.1C32.8713 49.85 33.6463 49.175 33.9838 48.65C34.1966 48.3383 34.2979 47.9639 34.2713 47.5875C34.2713 47.5875 34.1463 47.5625 33.9838 47.5625C33.4838 47.5625 32.2338 47.8125 31.0213 50.1ZM34.8088 49.7375C35.5963 49.7375 36.2088 49.6125 36.5963 49.3375C36.7689 49.2276 36.9074 49.0718 36.9963 48.8875C37.0279 48.8203 37.049 48.7486 37.0588 48.675C36.7571 48.5535 36.434 48.494 36.1088 48.5C35.4838 48.5 34.5588 48.7 33.5838 49.65C33.9903 49.701 34.3992 49.7302 34.8088 49.7375V49.7375ZM38.6338 49.5875C39.4713 49.5875 40.6213 49.3375 41.3338 48.625C40.7397 48.4841 40.1319 48.4086 39.5213 48.4C38.7338 48.4 38.1463 48.55 37.7463 48.85C37.5963 48.95 37.5213 49.05 37.5088 49.15C37.4963 49.225 37.5338 49.3125 37.6213 49.375C37.7963 49.5 38.1213 49.5875 38.5713 49.5875H38.6338ZM41.3463 48.2125C41.3945 48.2107 41.4417 48.1987 41.4848 48.1771C41.528 48.1555 41.566 48.125 41.5963 48.0875C41.6598 48.0074 41.7027 47.913 41.7213 47.8125C41.7713 47.6125 41.7588 47.425 41.7588 47.425C41.7212 47.4017 41.678 47.3887 41.6338 47.3875C41.5088 47.3875 41.4088 47.45 41.3463 47.5125C41.2685 47.5902 41.2088 47.6841 41.1713 47.7875C41.1338 47.9125 41.1213 48 41.1463 48.075C41.1713 48.1375 41.2463 48.2 41.3463 48.2V48.2125ZM35.0963 48.0625C35.2338 48.0625 35.3463 48.0125 35.4338 47.925C35.5097 47.8354 35.5613 47.7278 35.5838 47.6125C35.618 47.4651 35.6307 47.3135 35.6213 47.1625C35.5698 47.1403 35.5148 47.1276 35.4588 47.125C35.1838 47.125 34.9588 47.3625 34.8838 47.5875C34.8338 47.7125 34.8213 47.8375 34.8463 47.9125C34.8838 48 34.9838 48.0625 35.0963 48.0625V48.0625ZM38.1463 47.9375C39.8213 47.875 40.6963 47.4 41.1213 47.0125C41.3117 46.8481 41.4687 46.6487 41.5838 46.425C41.6217 46.345 41.6511 46.2612 41.6713 46.175C41.6713 46.175 41.5213 46.1125 41.2588 46.1125H41.2213C40.6588 46.1125 39.4963 46.35 38.1463 47.9375V47.9375ZM36.3213 47.7625C37.2787 47.6598 38.1688 47.2214 38.8338 46.525C39.0847 46.26 39.2765 45.9447 39.3963 45.6C39.3963 45.6 39.2213 45.5625 38.9713 45.55C38.9338 45.549 38.8963 45.549 38.8588 45.55C38.1838 45.5625 36.9463 45.875 36.3213 47.7625V47.7625ZM43.2463 47.1125C43.6963 47.1125 44.1213 47.075 44.5213 46.9625C45.2338 46.7875 45.5338 46.525 45.6713 46.325C45.7243 46.2417 45.7585 46.1479 45.7713 46.05C45.776 46.0126 45.776 45.9749 45.7713 45.9375C45.7713 45.9375 45.3088 45.8125 44.6588 45.8C44.3275 45.7941 43.9964 45.8234 43.6713 45.8875C42.99 46.0288 42.3822 46.4103 41.9588 46.9625C41.9588 46.9625 42.4963 47.1125 43.2463 47.1125V47.1125ZM40.1213 45.9875C40.2463 45.9875 40.3713 45.925 40.4588 45.8375C40.5347 45.7479 40.5863 45.6403 40.6088 45.525C40.6422 45.3817 40.6548 45.2344 40.6463 45.0875C40.5948 45.0653 40.5398 45.0525 40.4838 45.05H40.4713C40.1963 45.05 39.9838 45.275 39.8963 45.5125C39.8463 45.6375 39.8338 45.7375 39.8713 45.8375C39.9088 45.925 39.9963 45.975 40.1213 45.975V45.9875ZM42.4713 45.65C42.4838 45.65 43.1088 45.5 43.7463 45.1C44.3463 44.725 45.0588 44.1 45.1588 43.1C45.2588 42.1 45.0963 43.075 45.0088 43.075H44.9838C44.8088 43.075 44.4463 43.125 44.0088 43.45C43.4463 43.875 42.9338 44.625 42.4713 45.6625V45.65ZM40.9338 45.6C40.9338 45.6 41.3838 45.425 41.9338 44.95C42.726 44.2785 43.3437 43.425 43.7338 42.4625C43.7338 42.4625 43.6088 42.4 43.4213 42.3875C43.4088 42.387 43.3963 42.387 43.3838 42.3875H43.3338C43.0838 42.3875 42.6963 42.5 42.2588 42.975C41.633 43.7442 41.181 44.6397 40.9338 45.6ZM44.9338 45.475C45.4338 45.475 45.6088 45.2 45.6713 45.0875C45.7203 44.9602 45.7374 44.8229 45.7213 44.6875C45.6396 44.6656 45.5558 44.6531 45.4713 44.65H45.4463C45.0463 44.65 44.7213 44.8625 44.5838 45.0625C44.5588 45.1 44.4713 45.25 44.5463 45.35C44.5963 45.4375 44.7213 45.475 44.9213 45.475H44.9338ZM46.0588 44.05C46.3463 44.05 46.7838 44.025 47.2463 43.95C47.7088 43.8625 47.9713 43.475 48.1088 43.1625C48.201 42.9512 48.264 42.7283 48.2963 42.5C46.8838 42.5375 46.2088 42.95 45.8963 43.2875C45.7024 43.4923 45.5835 43.7566 45.5588 44.0375H46.0588V44.05ZM44.5838 42.575C44.6994 42.4304 44.8078 42.2802 44.9088 42.125C45.0838 41.8625 45.2338 41.5875 45.2338 41.375C45.2453 41.0657 45.2703 40.7571 45.3088 40.45L45.3963 39.825C45.3588 39.85 44.5088 40.1625 44.5088 40.9625C44.5088 41.7625 44.5838 42.5625 44.5838 42.575V42.575ZM45.6838 42.5H45.7213C45.9713 42.45 46.4088 42.25 46.8963 41.975C47.359 41.7291 47.7807 41.4128 48.1463 41.0375C48.3713 40.775 48.5213 40.35 48.5463 39.7875C48.5666 39.5379 48.5666 39.2871 48.5463 39.0375C48.4989 39.0162 48.4481 39.0035 48.3963 39C48.2088 39 48.0213 39.0875 47.7463 39.275C47.4965 39.4503 47.2623 39.6469 47.0463 39.8625C46.777 40.1319 46.5225 40.4156 46.2838 40.7125C46.0181 41.2079 45.7884 41.7217 45.5963 42.25V42.4375C45.6063 42.4597 45.6241 42.4775 45.6463 42.4875C45.6628 42.4909 45.6798 42.4909 45.6963 42.4875L45.6838 42.5Z" fill="#435125"/>
<path id="Vector_3" d="M58.7834 10.1875L58.5334 10.2875L58.4334 10.325L58.1334 10.3L57.8459 10.4375L57.3459 10.7875L57.3209 10.8L57.1334 10.85L56.9584 10.775L56.8584 10.825L56.8209 11.025L56.7334 11.175L56.6084 11.2625L56.2084 11.3L55.8709 11.475L55.4209 11.35L55.2209 11.4375L54.7834 11.825L54.5584 11.9375H54.4834L54.1834 11.9125L54.0584 11.9625L53.8709 12.125L53.5209 12.15L53.4084 12.225L53.2334 12.575L53.0459 12.775L52.9459 12.7875L52.8209 12.75L52.7334 12.7625L52.6959 12.9875L52.6209 13.0875L52.3709 13.1625L52.1959 13.325L52.0209 13.4H51.7459L51.5334 13.525L51.1084 13.5625L50.9459 13.725L50.8959 13.7625L50.8209 13.8125L50.6959 13.8875L50.6584 13.9125L50.4959 13.875L50.3084 13.95L50.2334 13.825L50.1084 13.9125H49.9334L49.7209 13.825L49.5584 13.75L49.4334 13.775L49.3959 13.975V14L49.2709 14.1625L49.0334 14.3L49.0084 14.35L48.7459 14.6875L48.2459 15.225L47.8084 15.4375L47.3709 15.5625L47.0584 15.8125L46.2459 16.225L44.9709 16.8625L44.7084 16.95L44.3334 17L43.6709 17.25L43.0709 17.425L43.0334 17.4375L42.9209 17.475L42.0959 17.725L41.7084 17.6875L41.4709 17.775L40.8709 17.7L40.4584 17.7125L40.2084 17.7625L39.7084 18.0125L38.8709 18.4L38.5959 18.65L38.1584 18.8875L37.6584 19.0375V18.825L37.4834 18.875L37.3584 18.9125L36.9459 18.975H36.7209L36.5834 18.9375H36.5584L35.7209 19.225L34.7959 19.3125L34.3334 19.4625H33.9834L33.7584 19.5125L33.3334 19.575L33.1834 19.525H33.1459L31.8959 19.575L31.3209 19.5125L31.0459 19.575L30.5959 19.4125L29.9209 19.3375L29.7709 19.2875L29.4209 19.1875L29.2584 19.275L29.1334 19.2875L28.8584 19.1875H28.7459L28.5209 19.275L28.3834 19.2375L28.2584 19.1375L27.9584 19.1L27.7834 18.9375L26.7834 19.075L26.5084 19L25.5959 18.725L25.4459 18.7375L25.2709 18.8625L24.9959 18.975L24.7584 19.0375H24.4334L24.0584 18.95L23.6834 18.7625L23.5334 18.725L23.2209 18.7625H23.1209L22.5459 18.45L21.7959 17.9875L21.2834 17.7375L21.0834 17.7125L21.0584 17.8L21.1584 18.1L21.1959 18.4L21.1834 18.6625V18.8375L21.2209 18.9875L21.4084 19.1875L21.4834 19.4L21.5459 19.9625V20.5375L21.4459 21.45L21.4209 21.575L21.3084 22.0625L21.2209 22.4875L20.8459 23.65L20.7334 23.7875L20.4834 23.9625L19.8959 24.3625L19.4709 24.6125L19.3459 24.6625L18.9959 24.6875L18.7834 24.675L18.5084 24.525L18.2584 24.4625L17.9084 24.2125L17.5209 24.1375L17.0959 23.8875L16.9959 23.7625L16.7584 23.7375L16.4459 23.6375L16.3209 23.6125L16.2459 23.5875L15.8459 23.575L15.4709 23.4L15.2709 23.35L14.9959 23.3375L14.7084 23.4625L14.5709 23.5375L14.3834 23.4625H14.2584L14.0959 23.7L14.0834 23.7375L13.9834 23.7875H13.7459L13.6459 23.825L13.4959 23.8875L13.3709 23.95L13.3084 23.975H13.2584L13.1959 24H13.1084L12.9584 23.925L12.8834 23.875L12.7459 23.85L12.6709 23.9V24.15L12.5959 24.2875L12.3709 24.5L12.1584 24.6875L12.0084 24.9125L11.6209 25.8L11.3709 26.175L11.2959 26.25L11.0459 26.5375L10.8084 26.7125L10.2834 27.1125L9.7834 27.3L9.3584 27.3875H9.1584L8.7584 27.3375L8.4084 27.225L8.0209 26.975L7.5834 26.6375L6.9709 26.025L6.8834 25.975H6.8709L6.6834 25.85H6.5334L6.4834 25.9375L6.4459 26.0625L6.4209 26.1875L6.3584 26.875V26.9125L6.3959 27.1875L6.8709 27.85L7.0084 28.2L7.0334 28.2375L7.1334 28.4L7.2084 28.525L7.3709 29L7.2584 29.275L7.3209 29.45L7.1709 29.5625L7.1459 29.7125L7.5709 30.25L7.6584 30.475L7.5584 30.8L7.3959 30.975L7.3459 31.025L7.3709 31.1625L7.5709 31.3375L7.8959 31.6375L8.0709 32.075L8.1959 32.1875L8.3584 32.15L8.4459 32.225H8.5709L8.6959 32.35L8.7834 32.3875L8.9209 32.45L9.0209 32.5875L9.0459 33L9.2459 33.525V33.85L9.3709 34.05L9.4084 34.2125L9.3459 34.65L9.4959 34.7875L9.6584 34.75L9.7709 34.775L9.9459 34.9125L10.1584 35.2375L10.3584 35.2125L10.4834 35.275L11.1084 35.8375L11.2584 35.9125L11.3834 35.9625L11.5084 36.0875L11.6959 35.9625H11.7209L11.9334 35.9375L12.0334 36L12.2084 36.125H12.4584L12.9584 36.2875L13.1959 36.3375L13.6459 36.625L13.8459 36.75L13.9584 36.8375L14.1084 36.9625L14.4084 37.0875L14.6584 37.15L14.8084 37.1875L14.9209 37.225L15.4834 37.45L15.7834 37.5125L16.0709 37.625L16.2709 37.7H16.4209L16.6334 37.5125H16.8459L17.0209 37.55L17.1834 37.525L17.4459 37.3625L17.5084 37.275L17.6959 37.1875L18.3209 37.1125L18.5084 37.175L18.9834 36.9625L19.3084 37.05L19.5834 36.95L20.2084 37.0875L20.3709 37.2125L20.5459 37.4125H20.7709L20.6959 37.5625L20.9584 37.85L21.2084 38.225V38.2625L21.3959 38.775L21.5209 38.9625L21.6209 39.2125V39.3875L21.4834 39.5L21.4584 39.5625V39.5875L21.4834 39.65L21.5334 39.625L21.6334 39.5625L21.7584 39.55L21.9834 39.575H22.1209L22.3584 39.475L22.5084 39.4L22.7584 39.5H23.0209L23.1334 39.55L23.4584 39.6875L23.6209 39.7125L23.6834 39.6625L23.7209 39.575L23.6959 39.475L23.5709 39.325L23.3084 39.0125L23.1834 38.85L23.1084 38.625L23.0834 38.325L23.0584 38.125L23.0959 37.8625L23.1709 37.7625L23.2209 37.55L23.2334 37.5L23.3834 37.3L23.7834 37.05L24.2084 36.675L24.5459 36.4375L24.8959 36.2875V36.25L24.9459 36.2625L25.8209 35.9625H25.8459L26.2334 35.8875L28.8959 36.075L28.9959 36.05L29.0834 35.8L29.1334 35.75L29.1584 35.725L29.4584 35.6L29.5834 35.575L29.9584 35.675L30.1209 35.7125L30.3709 35.575H30.5459L30.9209 35.375H31.1459L31.2209 35.35L31.6584 35.025L32.0834 34.9L32.2084 34.85L32.2334 34.825L32.6709 34.6L32.9459 34.3875L33.1834 34.2625L33.4334 34.2L34.1209 34.15L34.2584 33.925L34.5459 33.875L34.7334 33.675L34.9334 33.6L35.0709 33.3875L35.1959 33.2125L35.3709 33.1125L35.9084 33.0875L36.5584 33.1625L36.6459 33.1125L36.7834 32.5875L36.9334 32.4875L37.3459 31.9V31.5L37.4209 31.2375L37.3709 30.7625L37.4334 30.2875L37.6834 29.6875L37.9084 29.4375L38.2709 29.2L38.4584 29.125L38.7084 29.075H38.7584L38.8209 29.0625L39.7209 29.05H40.0459L40.3459 29.0375L41.0959 29.1625L41.1584 29.1875L41.4084 29.2625L41.7084 29.5L42.0209 29.8L42.0834 29.8625L42.2834 29.9375L42.3459 29.975L42.5209 29.9375L42.7584 29.8125L42.9334 29.6625L43.1834 29.5375V29.525L43.3209 29.3125L43.3834 29.225L43.8584 29.0375L44.4209 29.0125L44.4834 28.975L44.5209 28.9625L44.6584 28.7875H44.7959L45.1334 28.9125L45.3709 28.8625L45.5584 28.9375L45.6959 28.9125L45.9709 28.8875L46.2709 29.0875L46.4459 29.1125L47.0459 29.4625H47.0959L47.1209 29.475L47.1959 29.4625L47.3084 29.425L47.3334 29.4375L47.3959 29.5375L47.4959 29.55L47.6084 29.4L47.5584 29.3375L47.5459 29.3125L47.3334 29.2625L47.1334 28.9375L47.3209 28.7375L47.0334 28.3875L46.9834 28.325L46.9709 28.3L46.8709 28.15L46.3709 27.375L45.6959 26.85L45.4709 26.6625L45.3834 26.6L45.0334 26.2375L44.7834 25.9125L44.7459 25.8375L44.6959 25.7125L44.5459 25.4L44.2959 25.1875L44.0709 24.9625V24.95L43.6209 24.35L43.5459 24.25L43.4459 24.1875H43.2209L43.1959 24.1625V24.15L43.2959 24.025L43.4209 24L43.4709 23.8875L43.2459 23.2375V23.2125L43.2209 23.0125L43.4084 22.0625L43.4334 21.9375L43.7459 21.3125L43.9459 21.15L44.1459 20.7375L44.3334 20.475L44.5084 20.3L44.5334 20.2875L44.8459 20.1L45.1084 20.0625L45.3584 20.025L45.7959 20.15H46.2959L46.4834 20.125L46.7959 20.025L46.9459 19.9375L47.0209 19.8125L47.1709 19.2875L47.2334 19.1125L47.3209 18.9375L47.8959 18.275L48.3209 17.8875L49.2834 17.175L49.7584 16.9L49.9959 16.75L52.1459 15.8L52.6959 15.2375L52.9834 14.9375L53.5084 14.6L54.1084 14.35L54.6209 13.9375L54.7334 13.8L54.8834 13.3375L54.9959 13.3125L55.1084 13.075L55.1334 13.0125L55.5584 12.7125L55.6084 12.6875L57.2459 11.875L57.4959 11.9L57.6209 11.7125L58.0959 11.6375L58.1709 11.6125L58.2959 11.5625L58.3959 11.3875V11.35L58.4084 10.9L58.5084 10.775L58.5709 10.475L58.6209 10.4L58.6709 10.3375L58.8084 10.2375L58.7834 10.175V10.1875Z" fill="#D47600"/>
</g>
</g>
<defs>
<clipPath id="clip0_2909_185477">
<path d="M0.246094 32C0.246094 14.3269 14.573 0 32.2461 0V0C49.9192 0 64.2461 14.3269 64.2461 32V32C64.2461 49.6731 49.9192 64 32.2461 64V64C14.573 64 0.246094 49.6731 0.246094 32V32Z" fill="white"/>
</clipPath>
</defs>
</svg>
