<svg width="65" height="64" viewBox="0 0 65 64" fill="none" xmlns="http://www.w3.org/2000/svg">
<g id="Rounded=Diego Garcia (DG)">
<g clip-path="url(#clip0_2909_185510)">
<path id="Vector" fill-rule="evenodd" clip-rule="evenodd" d="M64.2461 55.5C63.5336 56.375 62.9211 58.425 61.0086 58.425C57.1961 58.425 56.2461 54.1 53.3836 54.1C51.4836 54.1 50.5336 58.4375 48.6336 58.4375C44.8086 58.4375 43.8586 54.1 41.0086 54.1C39.0961 54.1 38.1461 58.4375 36.2586 58.4375C32.4336 58.4375 31.4836 54.1 28.6336 54.1C26.7211 54.1 25.7711 58.4375 23.8711 58.4375C20.0586 58.4375 19.1086 54.1 16.2461 54.1C14.3336 54.1 13.3836 58.4375 11.4836 58.4375C7.67109 58.4375 6.72109 54.1 3.85859 54.1C1.95859 54.1 1.39609 57.1875 0.246094 57.1875V62.75C1.39609 62.75 1.95859 59.6625 3.87109 59.6625C6.72109 59.6625 7.68359 64 11.4836 64C13.3961 64 14.3461 59.6625 16.2461 59.6625C19.1086 59.6625 20.0586 64 23.8711 64C25.7711 64 26.7211 59.6625 28.6211 59.6625C31.4836 59.6625 32.4461 64 36.2461 64C38.1586 64 39.1086 59.6625 41.0086 59.6625C43.8711 59.6625 44.8211 64 48.6336 64C50.5336 64 51.4836 59.6625 53.3836 59.6625C56.2461 59.6625 57.2086 64 61.0086 64C62.9211 64 63.5336 62.775 64.2461 61.9V55.5ZM64.2461 44.675C63.5336 45.5625 62.9211 47.6 61.0086 47.6C57.1961 47.6 56.2461 43.275 53.3836 43.275C51.4836 43.275 50.5336 47.6 48.6336 47.6C44.8086 47.6 43.8586 43.275 41.0086 43.275C39.0961 43.275 38.1461 47.6 36.2586 47.6C32.4336 47.6 31.4836 43.275 28.6336 43.275C26.7211 43.275 25.7711 47.6 23.8711 47.6C20.0586 47.6 19.1086 43.275 16.2461 43.275C14.3336 43.275 13.3836 47.6 11.4836 47.6C7.67109 47.6 6.72109 43.275 3.85859 43.275C1.95859 43.275 1.39609 46.3625 0.246094 46.3625V51.9375C1.39609 51.9375 1.95859 48.85 3.87109 48.85C6.72109 48.85 7.68359 53.1875 11.4836 53.1875C13.3961 53.1875 14.3461 48.85 16.2461 48.85C19.1086 48.85 20.0586 53.1875 23.8711 53.1875C25.7711 53.1875 26.7211 48.85 28.6211 48.85C31.4836 48.85 32.4461 53.1875 36.2461 53.1875C38.1586 53.1875 39.1086 48.85 41.0086 48.85C43.8711 48.85 44.8211 53.1875 48.6336 53.1875C50.5336 53.1875 51.4836 48.85 53.3836 48.85C56.2461 48.85 57.2086 53.1875 61.0086 53.1875C62.9211 53.1875 63.5336 51.9625 64.2461 51.075V44.675ZM64.2461 33.85C63.5336 34.75 62.9211 36.7875 61.0086 36.7875C57.1961 36.7875 56.2461 32.45 53.3836 32.45C51.4836 32.45 50.5336 36.7875 48.6336 36.7875C44.8086 36.7875 43.8586 32.45 41.0086 32.45C39.0961 32.45 38.1461 36.7875 36.2586 36.7875C32.4336 36.7875 31.4836 32.45 28.6336 32.45C26.7211 32.45 25.7711 36.7875 23.8711 36.7875C20.0586 36.7875 19.1086 32.45 16.2461 32.45C14.3336 32.45 13.3836 36.7875 11.4836 36.7875C7.67109 36.7875 6.72109 32.45 3.85859 32.45C1.95859 32.45 1.39609 35.55 0.246094 35.55V41.1125C1.39609 41.1125 1.95859 38.0375 3.87109 38.0375C6.72109 38.0375 7.68359 42.3625 11.4836 42.3625C13.3961 42.3625 14.3461 38.0375 16.2461 38.0375C19.1086 38.0375 20.0586 42.3625 23.8711 42.3625C25.7711 42.3625 26.7211 38.0375 28.6211 38.0375C31.4836 38.0375 32.4461 42.3625 36.2461 42.3625C38.1586 42.3625 39.1086 38.0375 41.0086 38.0375C43.8711 38.0375 44.8211 42.3625 48.6336 42.3625C50.5336 42.3625 51.4836 38.0375 53.3836 38.0375C56.2461 38.0375 57.2086 42.3625 61.0086 42.3625C62.9211 42.3625 63.5336 41.125 64.2461 40.25V33.85ZM64.2461 23.0375C63.5336 23.9125 62.9211 25.9625 61.0086 25.9625C57.1961 25.9625 56.2461 21.6375 53.3836 21.6375C51.4836 21.6375 50.5336 25.9625 48.6336 25.9625C44.8086 25.9625 43.8586 21.6375 41.0086 21.6375C39.0961 21.6375 38.1461 25.9625 36.2586 25.9625C32.4336 25.9625 31.4836 21.6375 28.6336 21.6375C26.7211 21.6375 25.7711 25.9625 23.8711 25.9625C20.0586 25.9625 19.1086 21.6375 16.2461 21.6375C14.3336 21.6375 13.3836 25.9625 11.4836 25.9625C7.67109 25.9625 6.72109 21.6375 3.85859 21.6375C1.95859 21.6375 1.39609 24.725 0.246094 24.725V30.3C1.39609 30.3 1.95859 27.2125 3.87109 27.2125C6.72109 27.2125 7.68359 31.55 11.4836 31.55C13.3961 31.55 14.3461 27.2125 16.2461 27.2125C19.1086 27.2125 20.0586 31.55 23.8711 31.55C25.7711 31.55 26.7211 27.2125 28.6211 27.2125C31.4836 27.2125 32.4461 31.55 36.2461 31.55C38.1586 31.55 39.1086 27.2125 41.0086 27.2125C43.8711 27.2125 44.8211 31.55 48.6336 31.55C50.5336 31.55 51.4836 27.2125 53.3836 27.2125C56.2461 27.2125 57.2086 31.55 61.0086 31.55C62.9211 31.55 63.5336 30.3 64.2461 29.425V23.0375ZM64.2461 12.2125C63.5336 13.0875 62.9211 15.15 61.0086 15.15C57.1961 15.15 56.2461 10.8125 53.3836 10.8125C51.4836 10.8125 50.5336 15.15 48.6336 15.15C44.8086 15.15 43.8586 10.8125 41.0086 10.8125C39.0961 10.8125 38.1461 15.15 36.2586 15.15C32.4336 15.15 31.4836 10.8125 28.6336 10.8125C26.7211 10.8125 25.7711 15.15 23.8711 15.15C20.0586 15.15 19.1086 10.8125 16.2461 10.8125C14.3336 10.8125 13.3836 15.15 11.4836 15.15C7.67109 15.15 6.72109 10.8125 3.85859 10.8125C1.95859 10.825 1.38359 13.9375 0.246094 13.9375V19.5C1.39609 19.5 1.95859 16.4125 3.87109 16.4125C6.72109 16.4125 7.67109 20.7375 11.4961 20.7375C13.3961 20.7375 14.3461 16.4125 16.2461 16.4125C19.1086 16.4125 20.0586 20.7375 23.8711 20.7375C25.7711 20.7375 26.7211 16.4125 28.6211 16.4125C31.4836 16.4125 32.4336 20.7375 36.2461 20.7375C38.1586 20.7375 39.1086 16.4125 41.0086 16.4125C43.8711 16.4125 44.8211 20.7375 48.6336 20.7375C50.5336 20.7375 51.4836 16.4125 53.3836 16.4125C56.2461 16.4125 57.2086 20.7375 61.0086 20.7375C62.9086 20.7375 63.5336 19.5125 64.2461 18.625V12.25V12.2125ZM64.2461 1.4C63.5336 2.275 62.9211 4.3375 61.0086 4.3375C57.1961 4.3375 56.2461 0 53.3836 0C51.4836 0 50.5336 4.3375 48.6336 4.3375C44.8086 4.3375 43.8586 0 41.0086 0C39.0961 0 38.1461 4.3375 36.2586 4.3375C32.4336 4.3375 31.4836 0 28.6336 0C26.7211 0 25.7711 4.3375 23.8586 4.3375C20.0461 4.3375 19.1211 0 16.2461 0C14.3336 0 13.3961 4.3375 11.4836 4.3375C7.67109 4.3375 6.72109 0 3.85859 0C1.97109 0 1.39609 3.1 0.246094 3.1V8.675C1.39609 8.675 1.95859 5.5875 3.87109 5.5875C6.72109 5.5875 7.67109 9.925 11.4961 9.925C13.3961 9.925 14.3461 5.5875 16.2461 5.5875C19.1086 5.5875 20.0586 9.925 23.8711 9.925C25.7711 9.925 26.7211 5.5875 28.6211 5.5875C31.4836 5.5875 32.4336 9.925 36.2461 9.925C38.1586 9.925 39.1086 5.5875 41.0086 5.5875C43.8711 5.5875 44.8211 9.925 48.6336 9.925C50.5336 9.925 51.4836 5.5875 53.3836 5.5875C56.2461 5.5875 57.2086 9.925 61.0086 9.925C62.9086 9.925 63.5336 8.6875 64.2461 7.8V1.4Z" fill="#000063"/>
<path id="Vector_2" fill-rule="evenodd" clip-rule="evenodd" d="M47.4086 21.125L46.9961 58.775C46.9961 60.7625 48.7836 60.7625 48.9711 58.775L48.5836 21.15L47.4086 21.125Z" fill="#A24300" stroke="#F5F5F5" stroke-width="0.2375"/>
<path id="Vector_3" fill-rule="evenodd" clip-rule="evenodd" d="M51.5088 35.125L50.2588 33.75L49.9588 35.1375L49.4088 33.1375L48.9088 34.1375L48.8213 32.0125L48.3213 33.025L48.2213 30.9L47.7213 31.9L47.4213 29.4L46.9213 30.4L46.6338 27.9L46.1338 28.9L45.8338 26.4L45.6963 25.15L45.9463 24.65L46.5963 24.9L47.6463 25.8875L49.7338 27.875L48.4338 27.375L50.5338 29.375L49.2338 28.875L51.3338 30.875L50.0338 30.375L51.9213 32L50.6213 31.5L52.5213 33.1125L51.2213 32.6125L52.6588 34.3625L51.1588 33.4875L51.5088 35.125V35.125Z" fill="#006D00" stroke="#F5F5F5" stroke-width="0.2125"/>
<path id="Vector_4" d="M49.7463 27.875L46.7463 26.15L46.1338 28.9M51.5088 35.125L45.9463 24.65L51.5088 35.125Z" stroke="black" stroke-width="0.0375"/>
<path id="Vector_5" d="M50.5334 29.375L47.5334 27.6375L46.9209 30.4125" stroke="black" stroke-width="0.0375"/>
<path id="Vector_6" d="M51.3335 30.875L48.3335 29.1375L47.7085 31.9" stroke="black" stroke-width="0.0375"/>
<path id="Vector_7" d="M51.9211 32L49.1211 30.625L48.3086 33.0125" stroke="black" stroke-width="0.0375"/>
<path id="Vector_8" d="M52.5212 33.125L49.7212 31.75L48.9087 34.15" stroke="black" stroke-width="0.0375"/>
<path id="Vector_9" d="M52.6588 34.375L50.1213 32.5L49.9463 35.1375" stroke="black" stroke-width="0.0375"/>
<path id="Vector_10" fill-rule="evenodd" clip-rule="evenodd" d="M36.8961 17.25L38.9336 18.0375L38.3461 16.4875L40.1211 18.2375L39.9586 16.9875L41.3961 19.0875L41.2211 17.8375L42.6711 19.9375L42.4961 18.675L44.3711 21.05L44.1961 19.8L46.0586 22.175L45.8836 20.925L47.7586 23.3L48.6836 24.5L48.7711 25.125L48.0086 25.1875L46.3836 24.6875L43.1711 23.7L44.6961 23.575L41.4711 22.575L43.0086 22.45L39.7836 21.45L41.3086 21.325L38.5086 20.6125L40.0336 20.4875L37.2336 19.775L38.7586 19.6375L36.3086 18.575L38.2586 18.725L36.9086 17.25H36.8961Z" fill="#006D00" stroke="#F5F5F5" stroke-width="0.225"/>
<path id="Vector_11" d="M43.171 23.7L47.071 24L45.8835 20.925M36.896 17.25L48.771 25.125L36.896 17.25Z" stroke="black" stroke-width="0.0375"/>
<path id="Vector_12" d="M41.4712 22.575L45.3712 22.875L44.1962 19.8" stroke="black" stroke-width="0.0375"/>
<path id="Vector_13" d="M39.7837 21.4625L43.6837 21.75L42.4962 18.675" stroke="black" stroke-width="0.0375"/>
<path id="Vector_14" d="M38.5088 20.625H41.9838L41.2338 17.825" stroke="black" stroke-width="0.0375"/>
<path id="Vector_15" d="M37.2461 19.775H40.7211L39.9586 16.9875" stroke="black" stroke-width="0.0375"/>
<path id="Vector_16" d="M36.3086 18.575L39.8711 19.225L38.3461 16.4875" stroke="black" stroke-width="0.0375"/>
<path id="Vector_17" fill-rule="evenodd" clip-rule="evenodd" d="M60.5584 19.875L58.8709 21.125L60.7459 21.3375L58.1209 21.9625L59.5209 22.3625L56.6959 22.575L58.0834 22.9875L55.2584 23.1875L56.6459 23.6L53.3459 24.0125L54.7334 24.425L51.4334 24.8375L52.8209 25.2625L49.5209 25.675L47.8709 25.875L47.1709 25.675L47.4209 25.05L48.6459 24.0125L51.0834 21.95L50.5584 23.1875L52.9959 21.125L52.4709 22.3625L54.9084 20.3L54.3834 21.5375L56.3459 19.675L55.8209 20.925L57.7709 19.05L57.2584 20.3L59.4334 18.85L58.4334 20.3L60.5584 19.8875V19.875Z" fill="#006D00" stroke="#F5F5F5" stroke-width="0.225"/>
<path id="Vector_18" d="M51.0836 21.95L49.0836 24.8375L52.8336 25.2625M60.5586 19.875L47.1836 25.6625L60.5586 19.875Z" stroke="black" stroke-width="0.0375"/>
<path id="Vector_19" d="M52.9961 21.125L50.9961 24L54.7461 24.4125" stroke="black" stroke-width="0.0375"/>
<path id="Vector_20" d="M54.9087 20.3L52.9087 23.1875L56.6587 23.6" stroke="black" stroke-width="0.0375"/>
<path id="Vector_21" d="M56.3463 19.675L54.8213 22.3625L58.0838 22.9875" stroke="black" stroke-width="0.0375"/>
<path id="Vector_22" d="M57.7836 19.05L56.2461 21.75L59.4961 22.375" stroke="black" stroke-width="0.0375"/>
<path id="Vector_23" d="M59.4335 18.85L57.2085 21.325H60.746" stroke="black" stroke-width="0.0375"/>
<path id="Vector_24" fill-rule="evenodd" clip-rule="evenodd" d="M60.2963 32.4125L58.1713 31.7875L58.9338 33.2875L56.9713 31.675L57.2713 32.925L55.6213 30.9375L55.9213 32.1875L54.2588 30.2L54.5588 31.45L52.4588 29.2125L52.7588 30.4625L50.6463 28.2375L50.9463 29.475L48.8338 27.25L47.7838 26.125L47.6338 25.5125L48.3838 25.3875L50.0463 25.7625L53.3588 26.4875L51.8588 26.7375L55.1588 27.475L53.6588 27.725L56.9713 28.45L55.4713 28.7L58.3338 29.2L56.8338 29.45L59.6838 29.925L58.1838 30.175L60.7338 31.05H58.7838L60.2838 32.4125H60.2963Z" fill="#006D00" stroke="#F5F5F5" stroke-width="0.225"/>
<path id="Vector_25" d="M53.3461 26.475L49.4211 26.4875L50.9336 29.4625M60.2961 32.4125L47.6211 25.5L60.2961 32.4125Z" stroke="black" stroke-width="0.0375"/>
<path id="Vector_26" d="M55.1586 27.475H51.2461L52.7461 30.45" stroke="black" stroke-width="0.0375"/>
<path id="Vector_27" d="M56.9711 28.45L53.0586 28.475L54.5586 31.4375" stroke="black" stroke-width="0.0375"/>
<path id="Vector_28" d="M58.3334 29.1875L54.8584 29.45L55.9209 32.175" stroke="black" stroke-width="0.0375"/>
<path id="Vector_29" d="M59.6837 29.925L56.2212 30.1875L57.2712 32.9125" stroke="black" stroke-width="0.0375"/>
<path id="Vector_30" d="M60.7461 31.0375L57.1211 30.6875L58.9336 33.2875" stroke="black" stroke-width="0.0375"/>
<path id="Vector_31" fill-rule="evenodd" clip-rule="evenodd" d="M38.2959 33.125L39.3584 31.65L37.7334 31.8875L39.7334 30.7625L38.4584 30.7L40.7584 29.875L39.4834 29.825L41.7709 29.0125L40.4959 28.95L43.1209 27.85L41.8584 27.7875L44.4834 26.6875L43.2084 26.6375L45.8459 25.525L47.1584 24.975L47.7959 25L47.7584 25.625L47.0459 26.8L45.5959 29.175L45.6834 27.9625L44.2459 30.3375L44.3209 29.125L42.8834 31.5L42.9709 30.2875L41.8709 32.375L41.9459 31.1625L40.8459 33.25L40.9334 32.025L39.5334 33.8L39.9584 32.2875L38.2959 33.125V33.125Z" fill="#006D00" stroke="#F5F5F5" stroke-width="0.2125"/>
<path id="Vector_32" d="M45.6209 29.1875L46.4584 26.1875L43.2209 26.65M38.2959 33.125L47.7959 25L38.2959 33.125Z" stroke="black" stroke-width="0.0375"/>
<path id="Vector_33" d="M44.2459 30.35L45.0834 27.325L41.8584 27.7875" stroke="black" stroke-width="0.0375"/>
<path id="Vector_34" d="M42.8838 31.5L43.7463 28.5L40.5088 28.9625" stroke="black" stroke-width="0.0375"/>
<path id="Vector_35" d="M41.8709 32.375L42.3709 29.65L39.4834 29.825" stroke="black" stroke-width="0.0375"/>
<path id="Vector_36" d="M40.8462 33.25L41.3462 30.5125L38.4712 30.7" stroke="black" stroke-width="0.0375"/>
<path id="Vector_37" d="M39.5336 33.8L40.6711 31.1L37.7461 31.8875" stroke="black" stroke-width="0.0375"/>
<path id="Vector_38" fill-rule="evenodd" clip-rule="evenodd" d="M57.4961 13.625L55.4461 15L55.1211 13.5375L53.9086 15.5625L53.6836 14.5875L52.7086 16.675L52.5711 15.7125L51.7961 17.85L51.3586 16.825L50.5961 19.425L50.1586 18.3875L49.3961 20.9875L48.9586 19.9625L48.1836 22.55L47.8086 23.85L48.0211 24.375L48.8461 24.1L50.2711 23.05L53.1086 20.9375L51.4836 21.475L54.3211 19.375L52.6711 19.9125L55.5211 17.8L53.8836 18.3375L56.7336 16.7L54.7836 17.1625L57.8586 15.575L55.9836 16.0625L58.2336 14.275L56.2961 15.2L57.4961 13.625Z" fill="#006D00" stroke="#F5F5F5" stroke-width="0.225"/>
<path id="Vector_39" d="M56.7085 14.375L53.746 16.9125L48.021 24.375" stroke="black" stroke-width="0.0375"/>
<path id="Vector_40" d="M52.4963 21.25L49.2213 22.8L48.9463 20.425" stroke="black" stroke-width="0.0375"/>
<path id="Vector_41" d="M53.7462 19.7L50.4337 21.2375L50.1587 18.8625" stroke="black" stroke-width="0.0375"/>
<path id="Vector_42" d="M54.9213 18.125L51.6338 19.6625L51.3838 17.2875" stroke="black" stroke-width="0.0375"/>
<path id="Vector_43" d="M55.9084 16.9625L52.8459 18.0875L52.4834 16.1625" stroke="black" stroke-width="0.0375"/>
<path id="Vector_44" d="M57.0336 15.8375L53.7461 16.925L53.6211 15.0375" stroke="black" stroke-width="0.0375"/>
<path id="Vector_45" d="M57.4711 14.775L54.4336 16.3375L55.0211 13.975" stroke="black" stroke-width="0.0375"/>
<path id="Vector_46" fill-rule="evenodd" clip-rule="evenodd" d="M46.4086 11.0625L47.3336 13.15L48.5086 12.05L48.2961 14.325L49.0836 13.5875L48.6586 15.8125L49.3586 15.05L48.7086 17.2125L49.7086 16.5375L48.7961 19.1L49.7961 18.4125L48.8711 20.975L49.8711 20.2875L48.9461 22.85L48.4836 24.1375L47.9836 24.475L47.4461 23.875L46.8711 22.3375L45.7211 19.2625L46.7961 20.4625L45.6461 17.3875L46.7211 18.575L45.5711 15.5L46.6336 16.7L45.2086 14.025L46.5836 15.2875L44.9336 12.5625L46.2336 13.8125L45.3961 11.275L46.4836 12.95L46.4086 11.0625Z" fill="#006D00" stroke="#F5F5F5" stroke-width="0.225"/>
<path id="Vector_47" d="M46.646 12.05L47.621 15.55L47.9835 24.475" stroke="black" stroke-width="0.0375"/>
<path id="Vector_48" d="M46.0586 19.8125L47.9086 22.6L49.5836 20.6875" stroke="black" stroke-width="0.0375"/>
<path id="Vector_49" d="M45.9336 17.925L47.8336 20.7125L49.5086 18.8125" stroke="black" stroke-width="0.0375"/>
<path id="Vector_50" d="M45.8838 16.05L47.7588 18.8375L49.4088 16.925" stroke="black" stroke-width="0.0375"/>
<path id="Vector_51" d="M45.7461 14.625L47.6836 16.9625L49.1586 15.4625" stroke="black" stroke-width="0.0375"/>
<path id="Vector_52" d="M45.4712 13.1625L47.6212 15.55L48.8712 14" stroke="black" stroke-width="0.0375"/>
<path id="Vector_53" d="M45.7461 12.05L47.3961 14.75L48.3211 12.4625" stroke="black" stroke-width="0.0375"/>
<path id="Vector_54" fill-rule="evenodd" clip-rule="evenodd" d="M34.146 26.4125L36.821 24.5625L35.4835 23.875L37.821 24.275L37.021 23.2125L39.296 24.0625L38.4835 23L40.771 23.85L39.9585 22.8L42.7085 23.725L41.9085 22.6625L44.5835 24.0375L43.771 22.9875L46.521 23.9125L47.8585 24.6L48.2585 25.1375L47.721 25.5125L46.2585 25.7125L43.8835 26.6875L44.321 25.85L41.371 26.25L42.446 25.5125L39.4335 26.3875L40.496 25.6375L37.9585 26.6L39.096 25.4L36.4835 26.8L37.621 25.6125L35.496 27.1L36.6835 25.45L34.146 26.4125Z" fill="#006D00" stroke="#F5F5F5" stroke-width="0.2125"/>
<path id="Vector_55" d="M34.9961 25.9125L37.7461 24.725L39.2461 24.5L40.4711 24.4875L42.5961 24.6125L44.4961 24.7L48.2461 25.125" stroke="black" stroke-width="0.0375"/>
<path id="Vector_56" d="M44.246 26.3L46.371 25L44.2085 23.3125" stroke="black" stroke-width="0.0375"/>
<path id="Vector_57" d="M41.8711 26.1L44.4836 24.7125L42.3336 23.025" stroke="black" stroke-width="0.0375"/>
<path id="Vector_58" d="M37.0337 26.4375L39.2337 24.5125L37.4462 23.5375M40.1837 26.0625L42.5712 24.625L40.4087 23.0625L40.1837 26.0625Z" stroke="black" stroke-width="0.0375"/>
<path id="Vector_59" d="M38.4959 26.225L40.6709 24.5L38.9209 23.3125M36.0459 26.575L37.7584 24.725L36.3834 24.225L36.0459 26.575Z" stroke="black" stroke-width="0.0375"/>
<g id="Group">
<path id="Vector_60" fill-rule="evenodd" clip-rule="evenodd" d="M43.1315 46.6993L43.1063 43.5787L42.2022 42.1212C41.9758 41.4047 42.0868 41.0587 42.4537 41.0342C42.8192 41.0124 43.1818 41.2195 43.7086 41.2426C44.2354 41.2658 44.1362 40.4335 44.9146 40.4567C45.6929 40.4798 47.0498 40.8966 48.204 40.9661C49.3597 41.0342 49.962 40.5956 51.2938 40.5493C52.6255 40.503 52.9762 41.1268 53.0517 41.1268C53.1272 41.1268 53.5045 40.8735 53.8804 40.8272C54.2577 40.7809 54.3835 40.9661 54.3835 40.9661C54.3835 40.9661 54.3583 41.7521 54.1822 42.2138C54.0061 42.6769 53.3787 43.4397 53.3536 43.4397C53.3284 43.4397 53.1272 46.8382 53.1272 46.8614C53.1272 46.8845 43.1315 46.7688 43.1315 46.6993V46.6993Z" fill="#CC0000" stroke="black" stroke-width="0.0141972"/>
<g id="Group_2">
<path id="Vector_61" fill-rule="evenodd" clip-rule="evenodd" d="M53.4707 43.5015C53.4707 43.5015 54.477 42.7932 54.5036 41.0892C54.5184 40.1084 53.9946 39.4001 52.6835 39.4001C50.8486 39.4001 48.228 40.1234 48.228 40.1234V40.3645C48.228 40.3645 50.3248 39.6412 52.685 39.6412C53.7327 39.6412 54.258 40.3495 54.258 41.0742C54.258 42.281 53.2073 43.5028 53.2073 43.5028V45.433H53.4707V43.5015Z" fill="#FFF100" stroke="black" stroke-width="0.0141972"/>
<path id="Vector_62" fill-rule="evenodd" clip-rule="evenodd" d="M54.0184 42.9975C54.0157 43.0308 54.0204 43.0642 54.0324 43.0957C54.0444 43.1272 54.0633 43.1561 54.0879 43.1806C54.1126 43.205 54.1425 43.2246 54.1757 43.2379C54.2089 43.2513 54.2448 43.2581 54.281 43.2581C54.3173 43.2581 54.3532 43.2513 54.3864 43.2379C54.4196 43.2246 54.4495 43.205 54.4741 43.1806C54.4988 43.1561 54.5177 43.1272 54.5297 43.0957C54.5416 43.0642 54.5464 43.0308 54.5437 42.9975C54.5387 42.9365 54.5089 42.8795 54.4602 42.8379C54.4115 42.7963 54.3475 42.7732 54.281 42.7732C54.2146 42.7732 54.1506 42.7963 54.1019 42.8379C54.0532 42.8795 54.0234 42.9365 54.0184 42.9975Z" fill="#F5F5F5" stroke="black" stroke-width="0.0141972"/>
<path id="Vector_63" fill-rule="evenodd" clip-rule="evenodd" d="M54.2781 42.445C54.2754 42.4783 54.2802 42.5117 54.2922 42.5432C54.3041 42.5747 54.3231 42.6036 54.3477 42.6281C54.3724 42.6526 54.4022 42.6721 54.4355 42.6854C54.4687 42.6988 54.5046 42.7057 54.5408 42.7057C54.5771 42.7057 54.6129 42.6988 54.6461 42.6854C54.6794 42.6721 54.7092 42.6526 54.7339 42.6281C54.7586 42.6036 54.7775 42.5747 54.7894 42.5432C54.8014 42.5117 54.8062 42.4783 54.8035 42.445C54.7985 42.384 54.7687 42.327 54.7199 42.2854C54.6712 42.2438 54.6072 42.2207 54.5408 42.2207C54.4744 42.2207 54.4104 42.2438 54.3617 42.2854C54.313 42.327 54.2831 42.384 54.2781 42.445Z" fill="#F5F5F5" stroke="black" stroke-width="0.0141972"/>
<path id="Vector_64" fill-rule="evenodd" clip-rule="evenodd" d="M54.4193 41.8816C54.4165 41.9149 54.4213 41.9484 54.4333 41.9799C54.4453 42.0114 54.4642 42.0402 54.4888 42.0647C54.5135 42.0892 54.5434 42.1087 54.5766 42.122C54.6098 42.1354 54.6457 42.1423 54.6819 42.1423C54.7182 42.1423 54.754 42.1354 54.7873 42.122C54.8205 42.1087 54.8504 42.0892 54.875 42.0647C54.8997 42.0402 54.9186 42.0114 54.9305 41.9799C54.9425 41.9484 54.9473 41.9149 54.9446 41.8816C54.9396 41.8207 54.9098 41.7637 54.8611 41.7221C54.8123 41.6805 54.7484 41.6573 54.6819 41.6573C54.6155 41.6573 54.5515 41.6805 54.5028 41.7221C54.4541 41.7637 54.4242 41.8207 54.4193 41.8816Z" fill="#F5F5F5" stroke="black" stroke-width="0.0141972"/>
<path id="Vector_65" fill-rule="evenodd" clip-rule="evenodd" d="M54.5164 41.2858C54.5137 41.3191 54.5185 41.3525 54.5305 41.384C54.5424 41.4155 54.5613 41.4444 54.586 41.4688C54.6106 41.4933 54.6405 41.5128 54.6737 41.5262C54.707 41.5395 54.7428 41.5464 54.7791 41.5464C54.8153 41.5464 54.8512 41.5395 54.8844 41.5262C54.9177 41.5128 54.9475 41.4933 54.9722 41.4688C54.9968 41.4444 55.0157 41.4155 55.0277 41.384C55.0397 41.3525 55.0445 41.3191 55.0417 41.2858C55.0368 41.2248 55.0069 41.1678 54.9582 41.1262C54.9095 41.0846 54.8455 41.0615 54.7791 41.0615C54.7126 41.0615 54.6487 41.0846 54.5999 41.1262C54.5512 41.1678 54.5214 41.2248 54.5164 41.2858Z" fill="#F5F5F5" stroke="black" stroke-width="0.0141972"/>
<path id="Vector_66" fill-rule="evenodd" clip-rule="evenodd" d="M54.4949 40.6358C54.4922 40.669 54.497 40.7025 54.509 40.734C54.5209 40.7655 54.5398 40.7944 54.5645 40.8188C54.5892 40.8433 54.619 40.8628 54.6523 40.8762C54.6855 40.8895 54.7213 40.8964 54.7576 40.8964C54.7939 40.8964 54.8297 40.8895 54.8629 40.8762C54.8962 40.8628 54.926 40.8433 54.9507 40.8188C54.9754 40.7944 54.9943 40.7655 55.0062 40.734C55.0182 40.7025 55.023 40.669 55.0203 40.6358C55.0153 40.5748 54.9854 40.5178 54.9367 40.4762C54.888 40.4346 54.824 40.4115 54.7576 40.4115C54.6912 40.4115 54.6272 40.4346 54.5785 40.4762C54.5298 40.5178 54.4999 40.5748 54.4949 40.6358Z" fill="#F5F5F5" stroke="black" stroke-width="0.0141972"/>
<path id="Vector_67" fill-rule="evenodd" clip-rule="evenodd" d="M53.639 43.485C53.6363 43.5183 53.641 43.5518 53.653 43.5833C53.665 43.6147 53.6839 43.6436 53.7085 43.6681C53.7332 43.6926 53.7631 43.7121 53.7963 43.7254C53.8295 43.7388 53.8654 43.7457 53.9016 43.7457C53.9379 43.7457 53.9738 43.7388 54.007 43.7254C54.0402 43.7121 54.0701 43.6926 54.0947 43.6681C54.1194 43.6436 54.1383 43.6147 54.1503 43.5833C54.1622 43.5518 54.167 43.5183 54.1643 43.485C54.1593 43.4241 54.1295 43.367 54.0808 43.3255C54.0321 43.2839 53.9681 43.2607 53.9016 43.2607C53.8352 43.2607 53.7712 43.2839 53.7225 43.3255C53.6738 43.367 53.644 43.4241 53.639 43.485Z" fill="#F5F5F5" stroke="black" stroke-width="0.0141972"/>
<path id="Vector_68" fill-rule="evenodd" clip-rule="evenodd" d="M54.2674 40.0183C54.2647 40.0516 54.2695 40.085 54.2814 40.1165C54.2934 40.148 54.3123 40.1769 54.337 40.2013C54.3616 40.2258 54.3915 40.2453 54.4247 40.2587C54.4579 40.272 54.4938 40.2789 54.5301 40.2789C54.5663 40.2789 54.6022 40.272 54.6354 40.2587C54.6686 40.2453 54.6985 40.2258 54.7232 40.2013C54.7478 40.1769 54.7667 40.148 54.7787 40.1165C54.7907 40.085 54.7954 40.0516 54.7927 40.0183C54.7877 39.9573 54.7579 39.9003 54.7092 39.8587C54.6605 39.8171 54.5965 39.794 54.5301 39.794C54.4636 39.794 54.3996 39.8171 54.3509 39.8587C54.3022 39.9003 54.2724 39.9573 54.2674 40.0183Z" fill="#F5F5F5" stroke="black" stroke-width="0.0141972"/>
<path id="Vector_69" fill-rule="evenodd" clip-rule="evenodd" d="M53.7801 39.5308C53.7774 39.5641 53.7822 39.5975 53.7941 39.629C53.8061 39.6605 53.825 39.6894 53.8497 39.7138C53.8743 39.7383 53.9042 39.7578 53.9374 39.7712C53.9706 39.7845 54.0065 39.7914 54.0428 39.7914C54.079 39.7914 54.1149 39.7845 54.1481 39.7712C54.1813 39.7578 54.2112 39.7383 54.2359 39.7138C54.2605 39.6894 54.2794 39.6605 54.2914 39.629C54.3034 39.5975 54.3081 39.5641 54.3054 39.5308C54.3004 39.4698 54.2706 39.4128 54.2219 39.3712C54.1732 39.3296 54.1092 39.3065 54.0428 39.3065C53.9763 39.3065 53.9123 39.3296 53.8636 39.3712C53.8149 39.4128 53.7851 39.4698 53.7801 39.5308Z" fill="#F5F5F5" stroke="black" stroke-width="0.0141972"/>
<path id="Vector_70" fill-rule="evenodd" clip-rule="evenodd" d="M53.1297 39.2058C53.127 39.2391 53.1318 39.2725 53.1437 39.304C53.1557 39.3355 53.1746 39.3644 53.1993 39.3888C53.2239 39.4133 53.2538 39.4328 53.287 39.4462C53.3203 39.4595 53.3561 39.4664 53.3924 39.4664C53.4286 39.4664 53.4645 39.4595 53.4977 39.4462C53.5309 39.4328 53.5608 39.4133 53.5855 39.3888C53.6101 39.3644 53.629 39.3355 53.641 39.304C53.653 39.2725 53.6577 39.2391 53.655 39.2058C53.65 39.1448 53.6202 39.0878 53.5715 39.0462C53.5228 39.0046 53.4588 38.9815 53.3924 38.9815C53.3259 38.9815 53.2619 39.0046 53.2132 39.0462C53.1645 39.0878 53.1347 39.1448 53.1297 39.2058Z" fill="#F5F5F5" stroke="black" stroke-width="0.0141972"/>
<path id="Vector_71" fill-rule="evenodd" clip-rule="evenodd" d="M52.4798 39.1625C52.4771 39.1958 52.4819 39.2292 52.4938 39.2607C52.5058 39.2922 52.5247 39.3211 52.5494 39.3456C52.574 39.3701 52.6039 39.3896 52.6371 39.4029C52.6704 39.4163 52.7062 39.4231 52.7425 39.4231C52.7787 39.4231 52.8146 39.4163 52.8478 39.4029C52.881 39.3896 52.9109 39.3701 52.9356 39.3456C52.9602 39.3211 52.9791 39.2922 52.9911 39.2607C53.0031 39.2292 53.0078 39.1958 53.0051 39.1625C53.0001 39.1015 52.9703 39.0445 52.9216 39.0029C52.8729 38.9613 52.8089 38.9382 52.7425 38.9382C52.676 38.9382 52.612 38.9613 52.5633 39.0029C52.5146 39.0445 52.4848 39.1015 52.4798 39.1625Z" fill="#F5F5F5" stroke="black" stroke-width="0.0141972"/>
<path id="Vector_72" fill-rule="evenodd" clip-rule="evenodd" d="M51.7757 39.1841C51.773 39.2174 51.7778 39.2508 51.7897 39.2823C51.8017 39.3138 51.8206 39.3427 51.8453 39.3672C51.8699 39.3917 51.8998 39.4112 51.933 39.4245C51.9662 39.4379 52.0021 39.4448 52.0384 39.4448C52.0746 39.4448 52.1105 39.4379 52.1437 39.4245C52.1769 39.4112 52.2068 39.3917 52.2315 39.3672C52.2561 39.3427 52.275 39.3138 52.287 39.2823C52.299 39.2508 52.3037 39.2174 52.301 39.1841C52.296 39.1231 52.2662 39.0661 52.2175 39.0245C52.1688 38.983 52.1048 38.9598 52.0384 38.9598C51.9719 38.9598 51.9079 38.983 51.8592 39.0245C51.8105 39.0661 51.7807 39.1231 51.7757 39.1841Z" fill="#F5F5F5" stroke="black" stroke-width="0.0141972"/>
<path id="Vector_73" fill-rule="evenodd" clip-rule="evenodd" d="M51.0716 39.2816C51.0689 39.3149 51.0737 39.3484 51.0856 39.3799C51.0976 39.4113 51.1165 39.4402 51.1412 39.4647C51.1658 39.4892 51.1957 39.5087 51.2289 39.522C51.2621 39.5354 51.298 39.5423 51.3343 39.5423C51.3705 39.5423 51.4064 39.5354 51.4396 39.522C51.4728 39.5087 51.5027 39.4892 51.5274 39.4647C51.552 39.4402 51.5709 39.4113 51.5829 39.3799C51.5949 39.3484 51.5996 39.3149 51.5969 39.2816C51.5919 39.2207 51.5621 39.1636 51.5134 39.1221C51.4647 39.0805 51.4007 39.0573 51.3343 39.0573C51.2678 39.0573 51.2038 39.0805 51.1551 39.1221C51.1064 39.1636 51.0766 39.2207 51.0716 39.2816Z" fill="#F5F5F5" stroke="black" stroke-width="0.0141972"/>
<path id="Vector_74" fill-rule="evenodd" clip-rule="evenodd" d="M50.3782 39.3683C50.3755 39.4016 50.3803 39.435 50.3923 39.4665C50.4042 39.498 50.4231 39.5269 50.4478 39.5513C50.4725 39.5758 50.5023 39.5953 50.5356 39.6087C50.5688 39.622 50.6046 39.6289 50.6409 39.6289C50.6772 39.6289 50.713 39.622 50.7462 39.6087C50.7795 39.5953 50.8093 39.5758 50.834 39.5513C50.8587 39.5269 50.8776 39.498 50.8895 39.4665C50.9015 39.435 50.9063 39.4016 50.9036 39.3683C50.8986 39.3073 50.8687 39.2503 50.82 39.2087C50.7713 39.1671 50.7073 39.144 50.6409 39.144C50.5745 39.144 50.5105 39.1671 50.4618 39.2087C50.4131 39.2503 50.3832 39.3073 50.3782 39.3683Z" fill="#F5F5F5" stroke="black" stroke-width="0.0141972"/>
<path id="Vector_75" fill-rule="evenodd" clip-rule="evenodd" d="M49.6199 39.4766C49.6172 39.5099 49.622 39.5434 49.634 39.5749C49.6459 39.6064 49.6648 39.6352 49.6895 39.6597C49.7142 39.6842 49.744 39.7037 49.7773 39.717C49.8105 39.7304 49.8463 39.7373 49.8826 39.7373C49.9189 39.7373 49.9547 39.7304 49.9879 39.717C50.0212 39.7037 50.051 39.6842 50.0757 39.6597C50.1004 39.6352 50.1193 39.6064 50.1312 39.5749C50.1432 39.5434 50.148 39.5099 50.1453 39.4766C50.1403 39.4157 50.1104 39.3587 50.0617 39.3171C50.013 39.2755 49.949 39.2523 49.8826 39.2523C49.8162 39.2523 49.7522 39.2755 49.7035 39.3171C49.6548 39.3587 49.6249 39.4157 49.6199 39.4766Z" fill="#F5F5F5" stroke="black" stroke-width="0.0141972"/>
<path id="Vector_76" fill-rule="evenodd" clip-rule="evenodd" d="M48.97 39.65C48.9673 39.6833 48.9721 39.7167 48.9841 39.7482C48.996 39.7797 49.0149 39.8086 49.0396 39.8331C49.0643 39.8575 49.0941 39.8771 49.1274 39.8904C49.1606 39.9037 49.1964 39.9106 49.2327 39.9106C49.269 39.9106 49.3048 39.9037 49.338 39.8904C49.3713 39.8771 49.4011 39.8575 49.4258 39.8331C49.4505 39.8086 49.4694 39.7797 49.4813 39.7482C49.4933 39.7167 49.4981 39.6833 49.4954 39.65C49.4904 39.589 49.4605 39.532 49.4118 39.4904C49.3631 39.4488 49.2991 39.4257 49.2327 39.4257C49.1663 39.4257 49.1023 39.4488 49.0536 39.4904C49.0049 39.532 48.975 39.589 48.97 39.65Z" fill="#F5F5F5" stroke="black" stroke-width="0.0141972"/>
</g>
<path id="Vector_77" fill-rule="evenodd" clip-rule="evenodd" d="M42.4362 42.9975C42.4389 43.0308 42.4341 43.0642 42.4222 43.0957C42.4102 43.1272 42.3913 43.1561 42.3666 43.1806C42.342 43.205 42.3121 43.2246 42.2789 43.2379C42.2457 43.2513 42.2098 43.2581 42.1736 43.2581C42.1373 43.2581 42.1014 43.2513 42.0682 43.2379C42.035 43.2246 42.0051 43.205 41.9805 43.1806C41.9558 43.1561 41.9369 43.1272 41.9249 43.0957C41.913 43.0642 41.9082 43.0308 41.9109 42.9975C41.9159 42.9365 41.9457 42.8795 41.9944 42.8379C42.0431 42.7963 42.1071 42.7732 42.1736 42.7732C42.24 42.7732 42.304 42.7963 42.3527 42.8379C42.4014 42.8795 42.4312 42.9365 42.4362 42.9975Z" fill="#F5F5F5" stroke="black" stroke-width="0.0141972"/>
<path id="Vector_78" fill-rule="evenodd" clip-rule="evenodd" d="M42.1652 42.445C42.1679 42.4783 42.1632 42.5117 42.1512 42.5432C42.1392 42.5747 42.1203 42.6036 42.0957 42.6281C42.071 42.6526 42.0411 42.6721 42.0079 42.6854C41.9747 42.6988 41.9388 42.7057 41.9026 42.7057C41.8663 42.7057 41.8304 42.6988 41.7972 42.6854C41.764 42.6721 41.7341 42.6526 41.7095 42.6281C41.6848 42.6036 41.6659 42.5747 41.6539 42.5432C41.642 42.5117 41.6372 42.4783 41.6399 42.445C41.6449 42.384 41.6747 42.327 41.7234 42.2854C41.7721 42.2438 41.8361 42.2207 41.9026 42.2207C41.969 42.2207 42.033 42.2438 42.0817 42.2854C42.1304 42.327 42.1602 42.384 42.1652 42.445Z" fill="#F5F5F5" stroke="black" stroke-width="0.0141972"/>
<path id="Vector_79" fill-rule="evenodd" clip-rule="evenodd" d="M42.0353 41.8816C42.038 41.9149 42.0333 41.9484 42.0213 41.9799C42.0093 42.0114 41.9904 42.0402 41.9658 42.0647C41.9411 42.0892 41.9112 42.1087 41.878 42.122C41.8448 42.1354 41.8089 42.1423 41.7727 42.1423C41.7364 42.1423 41.7006 42.1354 41.6673 42.122C41.6341 42.1087 41.6042 42.0892 41.5796 42.0647C41.5549 42.0402 41.536 42.0114 41.524 41.9799C41.5121 41.9484 41.5073 41.9149 41.51 41.8816C41.515 41.8207 41.5448 41.7637 41.5935 41.7221C41.6422 41.6805 41.7062 41.6573 41.7727 41.6573C41.8391 41.6573 41.9031 41.6805 41.9518 41.7221C42.0005 41.7637 42.0304 41.8207 42.0353 41.8816Z" fill="#F5F5F5" stroke="black" stroke-width="0.0141972"/>
<path id="Vector_80" fill-rule="evenodd" clip-rule="evenodd" d="M41.9377 41.2858C41.9404 41.3191 41.9356 41.3525 41.9236 41.384C41.9117 41.4155 41.8928 41.4444 41.8681 41.4688C41.8435 41.4933 41.8136 41.5128 41.7804 41.5262C41.7471 41.5395 41.7113 41.5464 41.675 41.5464C41.6388 41.5464 41.6029 41.5395 41.5697 41.5262C41.5365 41.5128 41.5066 41.4933 41.4819 41.4688C41.4573 41.4444 41.4384 41.4155 41.4264 41.384C41.4144 41.3525 41.4096 41.3191 41.4124 41.2858C41.4173 41.2248 41.4472 41.1678 41.4959 41.1262C41.5446 41.0846 41.6086 41.0615 41.675 41.0615C41.7415 41.0615 41.8054 41.0846 41.8542 41.1262C41.9029 41.1678 41.9327 41.2248 41.9377 41.2858Z" fill="#F5F5F5" stroke="black" stroke-width="0.0141972"/>
<path id="Vector_81" fill-rule="evenodd" clip-rule="evenodd" d="M41.9596 40.6358C41.9624 40.6691 41.9576 40.7025 41.9456 40.734C41.9336 40.7655 41.9147 40.7944 41.8901 40.8189C41.8654 40.8433 41.8356 40.8628 41.8023 40.8762C41.7691 40.8895 41.7332 40.8964 41.697 40.8964C41.6607 40.8964 41.6249 40.8895 41.5916 40.8762C41.5584 40.8628 41.5285 40.8433 41.5039 40.8189C41.4792 40.7944 41.4603 40.7655 41.4484 40.734C41.4364 40.7025 41.4316 40.6691 41.4343 40.6358C41.4393 40.5748 41.4691 40.5178 41.5179 40.4762C41.5666 40.4346 41.6305 40.4115 41.697 40.4115C41.7634 40.4115 41.8274 40.4346 41.8761 40.4762C41.9248 40.5178 41.9547 40.5748 41.9596 40.6358Z" fill="#F5F5F5" stroke="black" stroke-width="0.0141972"/>
<path id="Vector_82" fill-rule="evenodd" clip-rule="evenodd" d="M42.176 40.0183C42.1787 40.0516 42.1739 40.085 42.1619 40.1165C42.15 40.148 42.1311 40.1769 42.1064 40.2013C42.0817 40.2258 42.0519 40.2453 42.0186 40.2587C41.9854 40.272 41.9495 40.2789 41.9133 40.2789C41.877 40.2789 41.8412 40.272 41.808 40.2587C41.7747 40.2453 41.7449 40.2258 41.7202 40.2013C41.6955 40.1769 41.6766 40.148 41.6647 40.1165C41.6527 40.085 41.6479 40.0516 41.6506 40.0183C41.6556 39.9573 41.6855 39.9003 41.7342 39.8587C41.7829 39.8171 41.8469 39.794 41.9133 39.794C41.9797 39.794 42.0437 39.8171 42.0924 39.8587C42.1411 39.9003 42.171 39.9573 42.176 40.0183Z" fill="#F5F5F5" stroke="black" stroke-width="0.0141972"/>
<path id="Vector_83" fill-rule="evenodd" clip-rule="evenodd" d="M42.6525 39.5308C42.6552 39.5641 42.6505 39.5975 42.6385 39.629C42.6265 39.6605 42.6076 39.6894 42.583 39.7138C42.5583 39.7383 42.5284 39.7578 42.4952 39.7712C42.462 39.7845 42.4261 39.7914 42.3899 39.7914C42.3536 39.7914 42.3177 39.7845 42.2845 39.7712C42.2513 39.7578 42.2214 39.7383 42.1968 39.7138C42.1721 39.6894 42.1532 39.6605 42.1412 39.629C42.1293 39.5975 42.1245 39.5641 42.1272 39.5308C42.1322 39.4698 42.162 39.4128 42.2107 39.3712C42.2594 39.3296 42.3234 39.3065 42.3899 39.3065C42.4563 39.3065 42.5203 39.3296 42.569 39.3712C42.6177 39.4128 42.6475 39.4698 42.6525 39.5308Z" fill="#F5F5F5" stroke="black" stroke-width="0.0141972"/>
<path id="Vector_84" fill-rule="evenodd" clip-rule="evenodd" d="M43.3136 39.2058C43.3164 39.2391 43.3116 39.2725 43.2996 39.304C43.2877 39.3355 43.2687 39.3644 43.2441 39.3888C43.2194 39.4133 43.1896 39.4328 43.1563 39.4462C43.1231 39.4595 43.0872 39.4664 43.051 39.4664C43.0147 39.4664 42.9789 39.4595 42.9457 39.4462C42.9124 39.4328 42.8826 39.4133 42.8579 39.3888C42.8332 39.3644 42.8143 39.3355 42.8024 39.304C42.7904 39.2725 42.7856 39.2391 42.7883 39.2058C42.7933 39.1448 42.8231 39.0878 42.8719 39.0462C42.9206 39.0046 42.9846 38.9815 43.051 38.9815C43.1174 38.9815 43.1814 39.0046 43.2301 39.0462C43.2788 39.0878 43.3087 39.1448 43.3136 39.2058Z" fill="#F5F5F5" stroke="black" stroke-width="0.0141972"/>
<path id="Vector_85" fill-rule="evenodd" clip-rule="evenodd" d="M43.9636 39.1625C43.9663 39.1958 43.9615 39.2292 43.9495 39.2607C43.9376 39.2922 43.9186 39.3211 43.894 39.3456C43.8693 39.3701 43.8395 39.3896 43.8062 39.4029C43.773 39.4163 43.7371 39.4231 43.7009 39.4231C43.6646 39.4231 43.6288 39.4163 43.5956 39.4029C43.5623 39.3896 43.5325 39.3701 43.5078 39.3456C43.4831 39.3211 43.4642 39.2922 43.4523 39.2607C43.4403 39.2292 43.4355 39.1958 43.4382 39.1625C43.4432 39.1015 43.473 39.0445 43.5218 39.0029C43.5705 38.9613 43.6345 38.9382 43.7009 38.9382C43.7673 38.9382 43.8313 38.9613 43.88 39.0029C43.9287 39.0445 43.9586 39.1015 43.9636 39.1625Z" fill="#F5F5F5" stroke="black" stroke-width="0.0141972"/>
<path id="Vector_86" fill-rule="evenodd" clip-rule="evenodd" d="M44.6677 39.1842C44.6704 39.2174 44.6656 39.2509 44.6536 39.2824C44.6417 39.3139 44.6228 39.3428 44.5981 39.3672C44.5734 39.3917 44.5436 39.4112 44.5103 39.4246C44.4771 39.4379 44.4412 39.4448 44.405 39.4448C44.3687 39.4448 44.3329 39.4379 44.2997 39.4246C44.2664 39.4112 44.2366 39.3917 44.2119 39.3672C44.1872 39.3428 44.1683 39.3139 44.1564 39.2824C44.1444 39.2509 44.1396 39.2174 44.1423 39.1842C44.1473 39.1232 44.1772 39.0662 44.2259 39.0246C44.2746 38.983 44.3386 38.9599 44.405 38.9599C44.4714 38.9599 44.5354 38.983 44.5841 39.0246C44.6328 39.0662 44.6627 39.1232 44.6677 39.1842Z" fill="#F5F5F5" stroke="black" stroke-width="0.0141972"/>
<path id="Vector_87" fill-rule="evenodd" clip-rule="evenodd" d="M45.3718 39.2817C45.3745 39.3149 45.3697 39.3484 45.3577 39.3799C45.3458 39.4114 45.3269 39.4403 45.3022 39.4647C45.2775 39.4892 45.2477 39.5087 45.2144 39.5221C45.1812 39.5354 45.1454 39.5423 45.1091 39.5423C45.0728 39.5423 45.037 39.5354 45.0038 39.5221C44.9705 39.5087 44.9407 39.4892 44.916 39.4647C44.8913 39.4403 44.8724 39.4114 44.8605 39.3799C44.8485 39.3484 44.8437 39.3149 44.8464 39.2817C44.8514 39.2207 44.8813 39.1637 44.93 39.1221C44.9787 39.0805 45.0427 39.0574 45.1091 39.0574C45.1755 39.0574 45.2395 39.0805 45.2882 39.1221C45.3369 39.1637 45.3668 39.2207 45.3718 39.2817Z" fill="#F5F5F5" stroke="black" stroke-width="0.0141972"/>
<path id="Vector_88" fill-rule="evenodd" clip-rule="evenodd" d="M46.0763 39.3683C46.0791 39.4016 46.0743 39.435 46.0623 39.4665C46.0503 39.498 46.0314 39.5269 46.0068 39.5513C45.9821 39.5758 45.9523 39.5953 45.919 39.6087C45.8858 39.622 45.8499 39.6289 45.8137 39.6289C45.7774 39.6289 45.7416 39.622 45.7083 39.6087C45.6751 39.5953 45.6452 39.5758 45.6206 39.5513C45.5959 39.5269 45.577 39.498 45.5651 39.4665C45.5531 39.435 45.5483 39.4016 45.551 39.3683C45.556 39.3073 45.5858 39.2503 45.6346 39.2087C45.6833 39.1671 45.7472 39.144 45.8137 39.144C45.8801 39.144 45.9441 39.1671 45.9928 39.2087C46.0415 39.2503 46.0714 39.3073 46.0763 39.3683Z" fill="#F5F5F5" stroke="black" stroke-width="0.0141972"/>
<path id="Vector_89" fill-rule="evenodd" clip-rule="evenodd" d="M46.8239 39.4766C46.8266 39.5099 46.8218 39.5434 46.8099 39.5749C46.7979 39.6064 46.779 39.6352 46.7543 39.6597C46.7297 39.6842 46.6998 39.7037 46.6666 39.717C46.6334 39.7304 46.5975 39.7373 46.5612 39.7373C46.525 39.7373 46.4891 39.7304 46.4559 39.717C46.4227 39.7037 46.3928 39.6842 46.3681 39.6597C46.3435 39.6352 46.3246 39.6064 46.3126 39.5749C46.3007 39.5434 46.2959 39.5099 46.2986 39.4766C46.3036 39.4157 46.3334 39.3587 46.3821 39.3171C46.4308 39.2755 46.4948 39.2523 46.5612 39.2523C46.6277 39.2523 46.6917 39.2755 46.7404 39.3171C46.7891 39.3587 46.8189 39.4157 46.8239 39.4766Z" fill="#F5F5F5" stroke="black" stroke-width="0.0141972"/>
<path id="Vector_90" fill-rule="evenodd" clip-rule="evenodd" d="M47.4738 39.65C47.4765 39.6833 47.4717 39.7167 47.4598 39.7482C47.4478 39.7797 47.4289 39.8086 47.4042 39.8331C47.3796 39.8575 47.3497 39.8771 47.3165 39.8904C47.2833 39.9037 47.2474 39.9106 47.2111 39.9106C47.1749 39.9106 47.139 39.9037 47.1058 39.8904C47.0726 39.8771 47.0427 39.8575 47.0181 39.8331C46.9934 39.8086 46.9745 39.7797 46.9625 39.7482C46.9506 39.7167 46.9458 39.6833 46.9485 39.65C46.9535 39.589 46.9833 39.532 47.032 39.4904C47.0807 39.4488 47.1447 39.4257 47.2111 39.4257C47.2776 39.4257 47.3416 39.4488 47.3903 39.4904C47.439 39.532 47.4688 39.589 47.4738 39.65Z" fill="#F5F5F5" stroke="black" stroke-width="0.0141972"/>
<path id="Vector_91" fill-rule="evenodd" clip-rule="evenodd" d="M42.8044 43.485C42.8071 43.5183 42.8023 43.5518 42.7903 43.5833C42.7784 43.6147 42.7595 43.6436 42.7348 43.6681C42.7102 43.6926 42.6803 43.7121 42.6471 43.7254C42.6138 43.7388 42.578 43.7457 42.5417 43.7457C42.5055 43.7457 42.4696 43.7388 42.4364 43.7254C42.4031 43.7121 42.3733 43.6926 42.3486 43.6681C42.324 43.6436 42.3051 43.6147 42.2931 43.5833C42.2811 43.5518 42.2763 43.5183 42.2791 43.485C42.284 43.4241 42.3139 43.367 42.3626 43.3255C42.4113 43.2839 42.4753 43.2607 42.5417 43.2607C42.6082 43.2607 42.6721 43.2839 42.7209 43.3255C42.7696 43.367 42.7994 43.4241 42.8044 43.485Z" fill="#F5F5F5" stroke="black" stroke-width="0.0141972"/>
<path id="Vector_92" fill-rule="evenodd" clip-rule="evenodd" d="M42.9834 43.5015C42.9834 43.5015 41.9771 42.7932 41.9505 41.0892C41.9357 40.1084 42.4595 39.4001 43.7706 39.4001C45.6055 39.4001 48.2261 40.1234 48.2261 40.1234V40.3645C48.2261 40.3645 46.1293 39.6412 43.7691 39.6412C42.7214 39.6412 42.1961 40.3495 42.1961 41.0742C42.1961 42.281 43.2468 43.5028 43.2468 43.5028V45.433H42.9834V43.5015Z" fill="#FFF100" stroke="black" stroke-width="0.0141972"/>
<path id="Vector_93" fill-rule="evenodd" clip-rule="evenodd" d="M44.811 44.3954C44.811 44.3954 44.8865 44.2118 45.1607 44.2118C45.3472 44.2118 45.51 44.3954 45.51 44.5791V44.947H45.6851V44.5791C45.6851 44.3954 45.8597 44.2118 46.0343 44.2118C46.2967 44.2118 46.384 44.3954 46.384 44.3954C46.384 44.3954 46.384 43.8439 46.0343 43.8439C45.7724 43.8439 45.6851 44.0276 45.6851 44.0276C45.6851 44.0276 45.7724 43.752 45.7724 43.476C45.7724 43.1999 45.5978 43.0163 45.5978 43.0163C45.5978 43.0515 45.4227 43.2005 45.4227 43.476C45.4227 43.7515 45.51 44.0276 45.51 44.0276C45.51 44.0276 45.4227 43.8439 45.1607 43.8439C44.811 43.8439 44.811 44.3954 44.811 44.3954Z" fill="#FFF100" stroke="black" stroke-width="0.015177"/>
<path id="Vector_94" fill-rule="evenodd" clip-rule="evenodd" d="M50.0542 44.3954C50.0542 44.3954 50.1297 44.2118 50.4039 44.2118C50.5904 44.2118 50.7531 44.3954 50.7531 44.5791V44.947H50.9282V44.5791C50.9282 44.3954 51.1028 44.2118 51.2775 44.2118C51.5399 44.2118 51.6272 44.3954 51.6272 44.3954C51.6272 44.3954 51.6272 43.8439 51.2775 43.8439C51.0155 43.8439 50.9282 44.0276 50.9282 44.0276C50.9282 44.0276 51.0155 43.752 51.0155 43.476C51.0155 43.1999 50.8409 43.0163 50.8409 43.0163C50.8409 43.0515 50.6658 43.2005 50.6658 43.476C50.6658 43.7515 50.7531 44.0276 50.7531 44.0276C50.7531 44.0276 50.6658 43.8439 50.4039 43.8439C50.0542 43.8439 50.0542 44.3954 50.0542 44.3954Z" fill="#FFF100" stroke="black" stroke-width="0.015177"/>
<path id="Vector_95" fill-rule="evenodd" clip-rule="evenodd" d="M42.9834 46.8809V44.7083C42.9834 44.7083 43.5072 45.433 44.2945 45.433C44.9381 45.433 45.6055 44.4672 45.6055 44.4672C45.6055 44.4672 46.2196 45.1919 46.9166 45.1919C47.5381 45.1919 48.2262 44.2574 48.2262 44.2574C48.2262 44.2574 48.8654 45.1919 49.5372 45.1919C50.2105 45.1919 50.8483 44.4672 50.8483 44.4672C50.8483 44.4672 51.5334 45.433 52.4212 45.433C53.207 45.433 53.4704 44.7083 53.4704 44.7083V46.8809H42.9834Z" fill="#FFF100" stroke="black" stroke-width="0.0141972"/>
<path id="Vector_96" fill-rule="evenodd" clip-rule="evenodd" d="M42.9839 46.8809V45.1919C42.9839 45.1919 44.5569 45.6727 44.5569 46.8809H42.9839Z" fill="#FFF100" stroke="black" stroke-width="0.0141972"/>
<path id="Vector_97" fill-rule="evenodd" clip-rule="evenodd" d="M53.4595 46.8809V45.1919C53.4595 45.1919 51.8865 45.6727 51.8865 46.8809H53.4595Z" fill="#FFF100" stroke="black" stroke-width="0.0141972"/>
<path id="Vector_98" fill-rule="evenodd" clip-rule="evenodd" d="M44.0327 46.8809C44.0327 45.6727 45.6057 44.9099 45.6057 44.9099C45.6057 44.9099 47.1787 45.6727 47.1787 46.8809H44.0327Z" fill="#FFF100" stroke="black" stroke-width="0.0141972"/>
<path id="Vector_99" fill-rule="evenodd" clip-rule="evenodd" d="M49.2759 46.8809C49.2759 45.6727 50.8489 44.9099 50.8489 44.9099C50.8489 44.9099 52.4218 45.6727 52.4218 46.8809H49.2759Z" fill="#FFF100" stroke="black" stroke-width="0.0141972"/>
<path id="Vector_100" fill-rule="evenodd" clip-rule="evenodd" d="M46.3911 46.8875C46.3911 45.6807 48.2275 44.7163 48.2275 44.7163C48.2275 44.7163 50.0624 45.6807 50.0624 46.8875H46.3926H46.3911Z" fill="#FFF100" stroke="black" stroke-width="0.0141972"/>
<path id="Vector_101" fill-rule="evenodd" clip-rule="evenodd" d="M53.7264 46.883C53.2085 46.6419 51.2979 46.4008 48.2212 46.4008C45.1445 46.4008 43.1007 46.6419 42.5813 46.883C42.0634 47.1241 42.0634 47.6076 42.5813 47.8487C43.0992 48.0898 45.1459 48.3309 48.2212 48.3309C51.2964 48.3309 53.2085 48.0898 53.7264 47.8487C54.2443 47.6076 54.2443 47.1241 53.7264 46.883Z" fill="#F5F5F5" stroke="black" stroke-width="0.0141166"/>
<path id="Vector_102" fill-rule="evenodd" clip-rule="evenodd" d="M53.4706 47.8451C53.4706 48.3326 49.1048 48.3326 48.2273 48.3326C47.2739 48.3326 42.9839 48.4626 42.9839 47.8451C42.9839 47.3685 47.3064 47.3685 48.2273 47.3685C49.1373 47.3685 53.4706 47.466 53.4706 47.8451Z" fill="#808080"/>
<path id="Vector_103" fill-rule="evenodd" clip-rule="evenodd" d="M43.5039 46.1119C43.5039 46.2744 43.3955 46.4044 43.2439 46.4044C43.0923 46.4044 42.9839 46.2744 42.9839 46.1119C42.9839 45.9494 43.0923 45.8301 43.2439 45.8301C43.3848 45.8301 43.5039 45.9601 43.5039 46.1119ZM53.4706 46.1119C53.4706 46.2744 53.3514 46.4044 53.1998 46.4044C53.0589 46.4044 52.9398 46.2744 52.9398 46.1119C52.9398 45.9494 53.0589 45.8301 53.1998 45.8301C53.3514 45.8301 53.4598 45.9601 53.4598 46.1119H53.4706Z" fill="#CC0000"/>
<path id="Vector_104" fill-rule="evenodd" clip-rule="evenodd" d="M48.7472 45.971C48.7472 46.1226 48.5088 46.2526 48.2272 46.2526C47.9455 46.2526 47.6963 46.1226 47.6963 45.9601C47.6963 45.7976 47.9347 45.6785 48.2272 45.6785C48.5197 45.6785 48.7472 45.8085 48.7472 45.9601V45.971Z" fill="black"/>
<path id="Vector_105" fill-rule="evenodd" clip-rule="evenodd" d="M51.2606 45.971C51.2606 46.1226 51.0872 46.2526 50.8706 46.2526C50.654 46.2526 50.4806 46.1226 50.4806 45.9601C50.4806 45.7976 50.6538 45.6785 50.8706 45.6785C51.0873 45.6785 51.2606 45.8085 51.2606 45.9601V45.971ZM45.8656 45.971C45.8656 46.1226 45.6922 46.2526 45.4756 46.2526C45.259 46.2526 45.0747 46.1226 45.0747 45.9601C45.0747 45.7976 45.2481 45.6785 45.4756 45.6785C45.6922 45.6785 45.8656 45.8085 45.8656 45.9601V45.971Z" fill="#006300"/>
<path id="Vector_106" fill-rule="evenodd" clip-rule="evenodd" d="M47.1732 44.3067C47.1732 44.3067 47.4725 43.8942 47.7727 43.8942H48.072V44.169C48.072 44.5831 47.623 44.7216 47.623 44.7216H48.8211C48.8211 44.7216 48.3713 44.5831 48.3713 44.169V43.8942H48.6714C48.9707 43.8942 49.27 44.3083 49.27 44.3083V43.2038C49.27 43.2038 48.9707 43.6179 48.6714 43.6179H48.3713V43.3416C48.3713 42.9282 48.8211 42.7905 48.8211 42.7905H47.6222C47.6222 42.7905 48.0711 42.9282 48.0711 43.3416V43.6179H47.7718C47.4717 43.6179 47.1724 43.2038 47.1724 43.2038V44.3075L47.1732 44.3067Z" fill="#FFF100" stroke="black" stroke-width="0.0178474"/>
<path id="Vector_107" fill-rule="evenodd" clip-rule="evenodd" d="M42.9771 45.1942H43.2769C43.2769 45.1942 43.0519 45.0737 43.0519 44.7113V44.4709H43.2016C43.3517 44.4709 43.5018 44.8332 43.5018 44.8332V43.8667C43.5018 43.8667 43.3517 44.2291 43.2016 44.2291H43.0519V43.9873C43.0519 43.6256 43.2769 43.505 43.2769 43.505H42.9771V45.1942Z" fill="#FFF100" stroke="black" stroke-width="0.0177106"/>
<path id="Vector_108" fill-rule="evenodd" clip-rule="evenodd" d="M53.4658 45.1942H53.166C53.166 45.1942 53.391 45.0737 53.391 44.7113V44.4709H53.2413C53.0912 44.4709 52.941 44.8332 52.941 44.8332V43.8667C52.941 43.8667 53.0912 44.2291 53.2413 44.2291H53.391V43.9873C53.391 43.6256 53.166 43.505 53.166 43.505H53.4658V45.1942Z" fill="#FFF100" stroke="black" stroke-width="0.0177106"/>
<path id="Vector_109" fill-rule="evenodd" clip-rule="evenodd" d="M48.4882 43.7439C48.4882 43.8079 48.4606 43.8692 48.4115 43.9144C48.3624 43.9596 48.2957 43.985 48.2263 43.985C48.1568 43.985 48.0902 43.9596 48.0411 43.9144C47.9919 43.8692 47.9644 43.8079 47.9644 43.7439C47.9644 43.68 47.9919 43.6187 48.0411 43.5735C48.0902 43.5282 48.1568 43.5028 48.2263 43.5028C48.2957 43.5028 48.3624 43.5282 48.4115 43.5735C48.4606 43.6187 48.4882 43.68 48.4882 43.7439V43.7439Z" fill="#F5F5F5" stroke="black" stroke-width="0.0141972"/>
<path id="Vector_110" fill-rule="evenodd" clip-rule="evenodd" d="M47.1732 39.2367C47.1732 39.2367 47.4725 38.8242 47.7727 38.8242H48.072V39.099C48.072 39.5131 47.623 39.6516 47.623 39.6516H48.8211C48.8211 39.6516 48.3713 39.5131 48.3713 39.099V38.8242H48.6714C48.9707 38.8242 49.27 39.2383 49.27 39.2383V38.1338C49.27 38.1338 48.9707 38.5479 48.6714 38.5479H48.3713V38.2715C48.3713 37.8582 48.8211 37.7205 48.8211 37.7205H47.6222C47.6222 37.7205 48.0711 37.8582 48.0711 38.2715V38.5479H47.7718C47.4717 38.5479 47.1724 38.1338 47.1724 38.1338V39.2375L47.1732 39.2367Z" fill="#FFF100" stroke="black" stroke-width="0.0178474"/>
<path id="Vector_111" fill-rule="evenodd" clip-rule="evenodd" d="M48.5097 38.7172C48.5097 38.7811 48.4821 38.8424 48.433 38.8877C48.3838 38.9329 48.3172 38.9583 48.2478 38.9583C48.1783 38.9583 48.1117 38.9329 48.0626 38.8877C48.0134 38.8424 47.9858 38.7811 47.9858 38.7172C47.9858 38.6532 48.0134 38.5919 48.0626 38.5467C48.1117 38.5015 48.1783 38.4761 48.2478 38.4761C48.3172 38.4761 48.3838 38.5015 48.433 38.5467C48.4821 38.5919 48.5097 38.6532 48.5097 38.7172V38.7172Z" fill="#F5F5F5" stroke="black" stroke-width="0.0141972"/>
<path id="Vector_112" fill-rule="evenodd" clip-rule="evenodd" d="M47.7022 39.6462H48.7513V40.3709H47.7007L47.7022 39.6462Z" fill="#FFF100" stroke="black" stroke-width="0.0141972"/>
<path id="Vector_113" fill-rule="evenodd" clip-rule="evenodd" d="M47.7022 40.0249H48.7513V42.7832H47.7007L47.7022 40.0249Z" fill="#FFF100" stroke="black" stroke-width="0.0141972"/>
<path id="Vector_114" fill-rule="evenodd" clip-rule="evenodd" d="M48.4811 42.2933C48.4838 42.3265 48.4791 42.36 48.4671 42.3915C48.4551 42.423 48.4362 42.4519 48.4116 42.4763C48.3869 42.5008 48.357 42.5203 48.3238 42.5337C48.2906 42.547 48.2547 42.5539 48.2185 42.5539C48.1822 42.5539 48.1464 42.547 48.1131 42.5337C48.0799 42.5203 48.05 42.5008 48.0254 42.4763C48.0007 42.4519 47.9818 42.423 47.9698 42.3915C47.9579 42.36 47.9531 42.3265 47.9558 42.2933C47.9608 42.2323 47.9906 42.1753 48.0393 42.1337C48.088 42.0921 48.152 42.069 48.2185 42.069C48.2849 42.069 48.3489 42.0921 48.3976 42.1337C48.4463 42.1753 48.4762 42.2323 48.4811 42.2933Z" fill="#F5F5F5" stroke="black" stroke-width="0.0141972"/>
<path id="Vector_115" fill-rule="evenodd" clip-rule="evenodd" d="M48.4811 41.6758C48.4838 41.7091 48.4791 41.7425 48.4671 41.774C48.4551 41.8055 48.4362 41.8344 48.4116 41.8588C48.3869 41.8833 48.357 41.9028 48.3238 41.9162C48.2906 41.9295 48.2547 41.9364 48.2185 41.9364C48.1822 41.9364 48.1464 41.9295 48.1131 41.9162C48.0799 41.9028 48.05 41.8833 48.0254 41.8588C48.0007 41.8344 47.9818 41.8055 47.9698 41.774C47.9579 41.7425 47.9531 41.7091 47.9558 41.6758C47.9608 41.6148 47.9906 41.5578 48.0393 41.5162C48.088 41.4746 48.152 41.4515 48.2185 41.4515C48.2849 41.4515 48.3489 41.4746 48.3976 41.5162C48.4463 41.5578 48.4762 41.6148 48.4811 41.6758Z" fill="#F5F5F5" stroke="black" stroke-width="0.0141972"/>
<path id="Vector_116" fill-rule="evenodd" clip-rule="evenodd" d="M48.4811 41.1016C48.4838 41.1349 48.4791 41.1684 48.4671 41.1999C48.4551 41.2314 48.4362 41.2602 48.4116 41.2847C48.3869 41.3092 48.357 41.3287 48.3238 41.342C48.2906 41.3554 48.2547 41.3623 48.2185 41.3623C48.1822 41.3623 48.1464 41.3554 48.1131 41.342C48.0799 41.3287 48.05 41.3092 48.0254 41.2847C48.0007 41.2602 47.9818 41.2314 47.9698 41.1999C47.9579 41.1684 47.9531 41.1349 47.9558 41.1016C47.9608 41.0407 47.9906 40.9837 48.0393 40.9421C48.088 40.9005 48.152 40.8773 48.2185 40.8773C48.2849 40.8773 48.3489 40.9005 48.3976 40.9421C48.4463 40.9837 48.4762 41.0407 48.4811 41.1016Z" fill="#F5F5F5" stroke="black" stroke-width="0.0141972"/>
<path id="Vector_117" fill-rule="evenodd" clip-rule="evenodd" d="M48.4811 40.495C48.4838 40.5283 48.4791 40.5617 48.4671 40.5932C48.4551 40.6247 48.4362 40.6536 48.4116 40.6781C48.3869 40.7025 48.357 40.7221 48.3238 40.7354C48.2906 40.7487 48.2547 40.7556 48.2185 40.7556C48.1822 40.7556 48.1464 40.7487 48.1131 40.7354C48.0799 40.7221 48.05 40.7025 48.0254 40.6781C48.0007 40.6536 47.9818 40.6247 47.9698 40.5932C47.9579 40.5617 47.9531 40.5283 47.9558 40.495C47.9608 40.434 47.9906 40.377 48.0393 40.3354C48.088 40.2938 48.152 40.2707 48.2185 40.2707C48.2849 40.2707 48.3489 40.2938 48.3976 40.3354C48.4463 40.377 48.4762 40.434 48.4811 40.495Z" fill="#F5F5F5" stroke="black" stroke-width="0.0141972"/>
<path id="Vector_118" fill-rule="evenodd" clip-rule="evenodd" d="M48.7793 46.8919C48.7793 47.0001 48.5409 47.0869 48.2377 47.0869C47.9344 47.0869 47.7177 47.0001 47.7177 46.8919C47.7177 46.7836 47.9559 46.6969 48.2484 46.6969C48.5409 46.6969 48.7793 46.7835 48.7793 46.8919V46.8919ZM53.6109 47.3685C53.5784 47.4444 53.3184 47.4551 53.0259 47.3794C52.7334 47.3144 52.5277 47.206 52.5493 47.1301C52.5818 47.0544 52.8418 47.0435 53.1343 47.1194C53.4268 47.1844 53.6327 47.2926 53.6109 47.3685V47.3685ZM51.5852 47.0435C51.5852 47.141 51.3252 47.1951 51.0218 47.1844C50.7293 47.1626 50.4909 47.0651 50.5018 46.9676C50.5127 46.8701 50.7727 46.816 51.0652 46.8376C51.3684 46.8594 51.6068 46.946 51.5852 47.0435ZM42.7234 47.3685C42.7451 47.4444 43.0051 47.4551 43.2976 47.3794C43.5901 47.3144 43.8068 47.206 43.7743 47.1301C43.7418 47.0544 43.4818 47.0435 43.1893 47.1194C42.9076 47.1844 42.6909 47.2926 42.7234 47.3685V47.3685ZM44.8359 47.0001C44.8468 47.0976 45.1068 47.1519 45.3993 47.1301C45.7027 47.1085 45.9409 47.0219 45.9193 46.9135C45.9193 46.8269 45.6593 46.7619 45.3559 46.7835C45.0634 46.8051 44.8252 46.8919 44.8359 47.0001Z" fill="black"/>
</g>
<path id="Vector_119" d="M0.246094 0H32.2461V32H0.246094V0Z" fill="#012169"/>
<path id="Vector_120" d="M32.2461 0V4L20.3711 16L32.2461 27.6875V32H28.0586L16.1211 20.25L4.49609 32H0.246094V27.75L11.8711 16.0625L0.246094 4.625V0H4.12109L16.1211 11.75L27.7461 0H32.2461Z" fill="#F5F5F5"/>
<path id="Vector_121" d="M11.7461 20.25L12.4336 22.375L2.87109 32H0.246094V31.8125L11.7461 20.25ZM19.4961 19.5L22.8711 20L32.2461 29.1875V32L19.4961 19.5ZM32.2461 0L20.2461 12.25L19.9961 9.5L29.3711 0H32.2461ZM0.246094 0.0625L12.3086 11.875L8.62109 11.375L0.246094 3.0625V0.0625Z" fill="#C8102E"/>
<path id="Vector_122" d="M11.2461 0V32H21.2461V0H11.2461ZM0.246094 11V21H32.2461V11H0.246094Z" fill="#F5F5F5"/>
<path id="Vector_123" d="M0.246094 13V19H32.2461V13H0.246094ZM13.2461 0V32H19.2461V0H13.2461Z" fill="#C8102E"/>
</g>
</g>
<defs>
<clipPath id="clip0_2909_185510">
<path d="M0.246094 32C0.246094 14.3269 14.573 0 32.2461 0V0C49.9192 0 64.2461 14.3269 64.2461 32V32C64.2461 49.6731 49.9192 64 32.2461 64V64C14.573 64 0.246094 49.6731 0.246094 32V32Z" fill="white"/>
</clipPath>
</defs>
</svg>
