<svg width="65" height="64" viewBox="0 0 65 64" fill="none" xmlns="http://www.w3.org/2000/svg">
<g id="Rounded=Djibouti (DJ)">
<g clip-path="url(#clip0_2909_185442)">
<g id="Group">
<path id="Vector" fill-rule="evenodd" clip-rule="evenodd" d="M-4.75391 0H91.1818V63.9602H-4.75391V0Z" fill="#00CC00"/>
<path id="Vector_2" fill-rule="evenodd" clip-rule="evenodd" d="M-4.75391 0H91.1818V31.9756H-4.75391V0Z" fill="#6699FF"/>
<path id="Vector_3" fill-rule="evenodd" clip-rule="evenodd" d="M-4.75391 0L43.0515 31.9395L-4.75391 63.8338V0Z" fill="#FFFEFE"/>
<path id="Vector_4" fill-rule="evenodd" clip-rule="evenodd" d="M15.2093 36.4881L11.3557 33.7084L7.52907 36.5061L8.95502 31.9666L5.12842 29.1508L9.85752 29.1147L11.3286 24.5841L12.8267 29.0966L17.5558 29.1147L13.7563 31.9485L15.2003 36.4881H15.2093Z" fill="#FF0000"/>
</g>
</g>
</g>
<defs>
<clipPath id="clip0_2909_185442">
<path d="M0.246094 32C0.246094 14.3269 14.573 0 32.2461 0V0C49.9192 0 64.2461 14.3269 64.2461 32V32C64.2461 49.6731 49.9192 64 32.2461 64V64C14.573 64 0.246094 49.6731 0.246094 32V32Z" fill="white"/>
</clipPath>
</defs>
</svg>
