<svg width="65" height="64" viewBox="0 0 65 64" fill="none" xmlns="http://www.w3.org/2000/svg">
<g id="Rounded=Algeria (DZ)">
<g clip-path="url(#clip0_2909_185476)">
<path id="Vector" d="M32.2461 0H64.2461V64H32.2461V0Z" fill="#F5F5F5"/>
<path id="Vector_2" d="M0.246094 0H32.2461V64H0.246094V0Z" fill="#006233"/>
<path id="Vector_3" d="M46.1211 24C44.36 20.9497 41.6416 18.5658 38.3876 17.2179C35.1335 15.8701 31.5257 15.6336 28.1235 16.5452C24.7214 17.4568 21.7151 19.4655 19.571 22.2598C17.4268 25.0541 16.2646 28.4779 16.2646 32C16.2646 35.5222 17.4268 38.9459 19.571 41.7402C21.7151 44.5345 24.7214 46.5432 28.1235 47.4548C31.5257 48.3664 35.1335 48.1299 38.3876 46.7821C41.6416 45.4342 44.36 43.0503 46.1211 40C44.4636 42.0702 42.2041 43.5744 39.6547 44.3049C37.1054 45.0353 34.3921 44.9559 31.8898 44.0776C29.3875 43.1993 27.2199 41.5655 25.6863 39.402C24.1528 37.2384 23.3291 34.6519 23.3291 32C23.3291 29.3481 24.1528 26.7616 25.6863 24.5981C27.2199 22.4345 29.3875 20.8007 31.8898 19.9224C34.3921 19.0441 37.1054 18.9647 39.6547 19.6951C42.2041 20.4256 44.4636 21.9298 46.1211 24V24ZM46.6461 32L32.2461 27.3L41.2086 39.575V24.425L32.2461 36.7L46.6461 32Z" fill="#D21034"/>
</g>
</g>
<defs>
<clipPath id="clip0_2909_185476">
<path d="M0.246094 32C0.246094 14.3269 14.573 0 32.2461 0V0C49.9192 0 64.2461 14.3269 64.2461 32V32C64.2461 49.6731 49.9192 64 32.2461 64V64C14.573 64 0.246094 49.6731 0.246094 32V32Z" fill="white"/>
</clipPath>
</defs>
</svg>
