<svg width="65" height="64" viewBox="0 0 65 64" fill="none" xmlns="http://www.w3.org/2000/svg">
<g id="Rounded=Western Sahara (EH)">
<g clip-path="url(#clip0_2909_185304)">
<path id="Vector" d="M0.246094 0H64.2461V32H0.246094V0Z" fill="black"/>
<path id="Vector_2" d="M0.246094 32H64.2461V64H0.246094V32Z" fill="#007A3D"/>
<path id="Vector_3" d="M0.246094 18.6625H64.2461V45.325H0.246094V18.6625Z" fill="#F5F5F5"/>
<path id="Vector_4" d="M0.246094 0L32.2461 32L0.246094 64V0Z" fill="#C4111B"/>
<g id="Group">
<path id="Vector_5" d="M48.996 40.7543C53.8308 40.7543 57.7502 36.8348 57.7502 32C57.7502 27.1651 53.8308 23.2457 48.996 23.2457C44.1611 23.2457 40.2417 27.1651 40.2417 32C40.2417 36.8348 44.1611 40.7543 48.996 40.7543Z" fill="#C4111B"/>
<path id="Vector_6" d="M52.2772 40.7543C57.1121 40.7543 61.0315 36.8348 61.0315 32C61.0315 27.1651 57.1121 23.2457 52.2772 23.2457C47.4424 23.2457 43.5229 27.1651 43.5229 32C43.5229 36.8348 47.4424 40.7543 52.2772 40.7543Z" fill="#F5F5F5"/>
<path id="Vector_7" d="M46.6504 37.2936L50.3674 34.6276L54.0845 37.3448L52.7002 32.9613L56.4172 30.2697L51.8286 30.244L50.4187 25.8861L48.9703 30.2312L44.3945 30.2184L48.0731 32.9357L46.6504 37.2936V37.2936Z" fill="#C4111B"/>
</g>
</g>
</g>
<defs>
<clipPath id="clip0_2909_185304">
<path d="M0.246094 32C0.246094 14.3269 14.573 0 32.2461 0V0C49.9192 0 64.2461 14.3269 64.2461 32V32C64.2461 49.6731 49.9192 64 32.2461 64V64C14.573 64 0.246094 49.6731 0.246094 32V32Z" fill="white"/>
</clipPath>
</defs>
</svg>
