<svg width="65" height="64" viewBox="0 0 65 64" fill="none" xmlns="http://www.w3.org/2000/svg">
<g id="Rounded=Ethiopia (ET)">
<g clip-path="url(#clip0_2909_185422)">
<g id="Group">
<path id="Vector" fill-rule="evenodd" clip-rule="evenodd" d="M-29.4923 0.443268H100.186V62.6672H-29.5054L-29.4923 0.443268Z" fill="#FFC621"/>
<path id="Vector_2" fill-rule="evenodd" clip-rule="evenodd" d="M-29.7539 42.7932H100.107V63.9747H-29.7539V42.7932Z" fill="#EF2118"/>
<path id="Vector_3" fill-rule="evenodd" clip-rule="evenodd" d="M-29.4922 -0.00128174H100.186V22.4877H-29.4922V-0.00128174Z" fill="#298C08"/>
<path id="Vector_4" d="M32.9817 46.4595C40.4083 46.4595 46.4288 40.439 46.4288 33.0124C46.4288 25.5858 40.4083 19.5654 32.9817 19.5654C25.5551 19.5654 19.5347 25.5858 19.5347 33.0124C19.5347 40.439 25.5551 46.4595 32.9817 46.4595Z" fill="#006BC6"/>
<path id="Vector_5" fill-rule="evenodd" clip-rule="evenodd" d="M26.9917 23.5207L26.2072 24.0829L29.136 28.2146L29.9205 27.7047L27.0048 23.5207H26.9917ZM30.6789 33.2615L29.476 32.4117L29.9728 30.8427L23.9583 30.9211L22.2193 29.5875L30.4174 29.4959L31.9471 24.8805L32.7447 26.7633L30.6527 33.2746L30.6789 33.2615ZM40.2367 24.4228L39.4522 23.8345L36.4057 27.8877L37.1248 28.4761L40.2367 24.4228ZM32.0648 30.8688L32.4963 29.4698H34.1568L32.2609 23.756L33.0062 21.6902L35.5689 29.4959L40.4328 29.5482L38.903 30.895L32.0648 30.8688V30.8688ZM43.3878 37.2756L43.7146 36.3342L38.9292 34.6867L38.5892 35.5366L43.3878 37.2625V37.2756ZM34.7583 31.4703L36.2227 31.4441L36.7457 33.0262L41.5834 29.4698L43.7669 29.5482L37.1379 34.386L38.5762 39.0276L36.8241 37.9816L34.7452 31.4703H34.7583ZM32.274 44.2184L33.2677 44.2315L33.3069 39.1714L32.3917 39.1191L32.2871 44.2184H32.274ZM35.0198 34.1768L35.5035 35.5627L34.183 36.5695L39.0992 40.0344L39.7268 42.1264L33.0324 37.3932L29.0968 40.2305L29.5283 38.2431L35.0328 34.1899L35.0198 34.1768ZM22.1147 35.7981L22.4155 36.7395L27.2401 35.2097L27.0048 34.3206L22.1147 35.7981ZM32.5224 35.3012L31.3457 36.1903L29.9859 35.2228L28.2208 40.9758L26.4164 42.2179L28.8614 34.3729L24.9389 31.5226L26.9656 31.3134L32.5224 35.3012Z" fill="#FFC621"/>
</g>
</g>
</g>
<defs>
<clipPath id="clip0_2909_185422">
<path d="M0.246094 32C0.246094 14.3269 14.573 0 32.2461 0V0C49.9192 0 64.2461 14.3269 64.2461 32V32C64.2461 49.6731 49.9192 64 32.2461 64V64C14.573 64 0.246094 49.6731 0.246094 32V32Z" fill="white"/>
</clipPath>
</defs>
</svg>
