<svg width="65" height="64" viewBox="0 0 65 64" fill="none" xmlns="http://www.w3.org/2000/svg">
<g id="Rounded=Federated States of Micronesia (FM)">
<g clip-path="url(#clip0_2909_185343)">
<g id="Group">
<path id="Vector" fill-rule="evenodd" clip-rule="evenodd" d="M-31.2539 0H96.727V63.984H-31.2539V0Z" fill="#6797D6"/>
<path id="Vector_2" fill-rule="evenodd" clip-rule="evenodd" d="M34.265 10.9005H39.2702L35.2067 13.6611L36.7547 18.1503L32.717 15.3768L28.6535 18.1503L30.2015 13.6611L26.1509 10.8876H31.1819L32.7299 6.41129L34.265 10.9005ZM34.2779 53.2383H39.2831L35.2196 50.4648L36.7676 45.9756L32.7299 48.7491L28.6664 45.9756L30.2144 50.4648L26.1638 53.2383H31.1819L32.7299 57.7146L34.2779 53.2383ZM13.3799 29.6829L18.1787 28.2123L15.0956 32.0565L17.8949 35.8878L13.2122 34.4172L10.142 38.2614L10.3226 33.5142L5.62695 32.0436L10.4258 30.5859L10.5935 25.8387L13.3799 29.6829ZM52.0025 29.6829L47.2166 28.2123L50.2867 32.0436L47.4875 35.8878L52.183 34.4172L55.2404 38.2614L55.0727 33.5142L59.7682 32.0436L54.9695 30.5859L54.8017 25.8387" fill="#F5F5F5"/>
</g>
</g>
</g>
<defs>
<clipPath id="clip0_2909_185343">
<path d="M0.246094 32C0.246094 14.3269 14.573 0 32.2461 0V0C49.9192 0 64.2461 14.3269 64.2461 32V32C64.2461 49.6731 49.9192 64 32.2461 64V64C14.573 64 0.246094 49.6731 0.246094 32V32Z" fill="white"/>
</clipPath>
</defs>
</svg>
