<svg width="65" height="64" viewBox="0 0 65 64" fill="none" xmlns="http://www.w3.org/2000/svg">
<g id="Rounded=Faroe Islands (FO)">
<g clip-path="url(#clip0_2909_185470)">
<g id="Group">
<path id="Vector" fill-rule="evenodd" clip-rule="evenodd" d="M-9.50391 0H79.0211V64H-9.50391V0Z" fill="#F5F5F5"/>
<path id="Vector_2" fill-rule="evenodd" clip-rule="evenodd" d="M-9.24141 24.8875H15.5461V0H29.7086V24.8875H79.2836V39.125H29.7086V64H15.5461V39.1125H-9.25391V24.875L-9.24141 24.8875Z" fill="#003897"/>
<path id="Vector_3" fill-rule="evenodd" clip-rule="evenodd" d="M-9.24121 28.45H19.0838V0H26.1713V28.45H79.2838V35.5625H26.1588V64H19.0838V35.55H-9.24121V28.45V28.45Z" fill="#D72828"/>
</g>
</g>
</g>
<defs>
<clipPath id="clip0_2909_185470">
<path d="M0.246094 32C0.246094 14.3269 14.573 0 32.2461 0V0C49.9192 0 64.2461 14.3269 64.2461 32V32C64.2461 49.6731 49.9192 64 32.2461 64V64C14.573 64 0.246094 49.6731 0.246094 32V32Z" fill="white"/>
</clipPath>
</defs>
</svg>
