<svg width="65" height="64" viewBox="0 0 65 64" fill="none" xmlns="http://www.w3.org/2000/svg">
<g id="Rounded=United Kingdom (GB)">
<g clip-path="url(#clip0_2909_185360)">
<path id="Vector" d="M0.246094 0H64.2461V64H0.246094V0Z" fill="#012169"/>
<path id="Vector_2" d="M64.2461 0V8L40.4961 32L64.2461 55.375V64H55.8711L31.9961 40.5L8.74609 64H0.246094V55.5L23.4961 32.125L0.246094 9.25V0H7.99609L31.9961 23.5L55.2461 0H64.2461Z" fill="#F5F5F5"/>
<path id="Vector_3" d="M23.2461 40.5L24.6211 44.75L5.49609 64H0.246094V63.625L23.2461 40.5ZM38.7461 39L45.4961 40L64.2461 58.375V64L38.7461 39ZM64.2461 0L40.2461 24.5L39.7461 19L58.4961 0H64.2461ZM0.246094 0.125L24.3711 23.75L16.9961 22.75L0.246094 6.125V0.125Z" fill="#C8102E"/>
<path id="Vector_4" d="M22.2461 0V64H42.2461V0H22.2461ZM0.246094 22V42H64.2461V22H0.246094Z" fill="#F5F5F5"/>
<path id="Vector_5" d="M0.246094 26V38H64.2461V26H0.246094ZM26.2461 0V64H38.2461V0H26.2461Z" fill="#C8102E"/>
</g>
</g>
<defs>
<clipPath id="clip0_2909_185360">
<path d="M0.246094 32C0.246094 14.3269 14.573 0 32.2461 0V0C49.9192 0 64.2461 14.3269 64.2461 32V32C64.2461 49.6731 49.9192 64 32.2461 64V64C14.573 64 0.246094 49.6731 0.246094 32V32Z" fill="white"/>
</clipPath>
</defs>
</svg>
