<svg width="65" height="64" viewBox="0 0 65 64" fill="none" xmlns="http://www.w3.org/2000/svg">
<g id="Rounded=Grenada (GD)">
<g clip-path="url(#clip0_2909_185419)">
<path id="Vector" d="M0.246094 0H64.2461V64H0.246094V0Z" fill="#CE1126"/>
<path id="Vector_2" d="M9.20898 8.96249H55.284V55.0375H9.20898V8.96249Z" fill="#007A5E"/>
<path id="Vector_3" d="M9.20898 8.96249H55.284L9.20898 55.05H55.284L9.20898 8.96249Z" fill="#FCD116"/>
<path id="Vector_4" d="M32.2336 39.6875C36.4724 39.6875 39.9086 36.2513 39.9086 32.0125C39.9086 27.7737 36.4724 24.3375 32.2336 24.3375C27.9948 24.3375 24.5586 27.7737 24.5586 32.0125C24.5586 36.2513 27.9948 39.6875 32.2336 39.6875Z" fill="#CE1126"/>
<g id="Group">
<g id="b">
<path id="a" d="M32.2461 24.96L30.0706 31.6554L33.4183 32.7432" fill="#FCD116"/>
<path id="Vector_5" d="M32.2461 24.96L34.4216 31.6554L31.0739 32.7432" fill="#FCD116"/>
</g>
<g id="Group_2">
<path id="a_2" d="M38.9414 29.8245H31.9014V33.3445" fill="#FCD116"/>
<path id="Vector_6" d="M38.9414 29.8245L33.2459 33.9625L31.1769 31.1148" fill="#FCD116"/>
</g>
<g id="Group_3">
<path id="a_3" d="M36.3848 37.6955L34.2093 31L30.8616 32.0878" fill="#FCD116"/>
<path id="Vector_7" d="M36.3848 37.6955L30.6893 33.5575L32.7583 30.7097" fill="#FCD116"/>
</g>
<g id="Group_4">
<path id="a_4" d="M28.1084 37.6955L33.8039 33.5575L31.7349 30.7097" fill="#FCD116"/>
<path id="Vector_8" d="M28.1084 37.6955L30.2839 31L33.6316 32.0878" fill="#FCD116"/>
</g>
<g id="Group_5">
<path id="a_5" d="M25.5508 29.8245L31.2463 33.9625L33.3153 31.1148" fill="#FCD116"/>
<path id="Vector_9" d="M25.5508 29.8245H32.5908V33.3445" fill="#FCD116"/>
</g>
</g>
<g id="Group_6">
<g id="b_2">
<path id="a_6" d="M32.2471 0.327515L30.9616 4.28391L32.9398 4.92667" fill="#FCD116"/>
<path id="Vector_10" d="M32.2471 0.327515L33.5326 4.28391L31.5544 4.92667" fill="#FCD116"/>
</g>
<g id="Group_7">
<path id="a_7" d="M36.2031 3.202H32.0431V5.282" fill="#FCD116"/>
<path id="Vector_11" d="M36.2031 3.202L32.8376 5.64718L31.615 3.96443" fill="#FCD116"/>
</g>
<g id="Group_8">
<path id="a_8" d="M34.6914 7.85303L33.4059 3.89663L31.4277 4.53939" fill="#FCD116"/>
<path id="Vector_12" d="M34.6914 7.85303L31.3259 5.40784L32.5485 3.72509" fill="#FCD116"/>
</g>
<g id="Group_9">
<path id="a_9" d="M29.8008 7.85303L33.1663 5.40784L31.9437 3.72509" fill="#FCD116"/>
<path id="Vector_13" d="M29.8008 7.85303L31.0863 3.89663L33.0645 4.53939" fill="#FCD116"/>
</g>
<g id="Group_10">
<path id="a_10" d="M28.29 3.202L31.6556 5.64718L32.8781 3.96443" fill="#FCD116"/>
<path id="Vector_14" d="M28.29 3.202H32.45V5.282" fill="#FCD116"/>
</g>
</g>
<path id="Vector_15" d="M12.7207 32.1C13.6832 33.8875 15.5457 35.825 17.1832 36.5125C17.2082 34.7 16.5582 32.3625 15.6832 30.5125L12.7207 32.1Z" fill="#CE1126"/>
<path id="Vector_16" d="M11.0962 25.95C12.4837 28.8625 7.47121 35.7875 15.8212 37.4125C14.7004 35.7768 14.1914 33.7986 14.3837 31.825C16.2304 32.6887 17.7477 34.1271 18.7087 35.925C20.8962 28 13.1087 28.4875 11.0837 25.95H11.0962Z" fill="#FCD116"/>
<g id="Group_11">
<g id="b_3">
<path id="a_11" d="M32.2471 55.59L30.9616 59.5464L32.9398 60.1891" fill="#FCD116"/>
<path id="Vector_17" d="M32.2471 55.59L33.5326 59.5464L31.5544 60.1891" fill="#FCD116"/>
</g>
<g id="Group_12">
<path id="a_12" d="M36.2031 58.4645H32.0431V60.5445" fill="#FCD116"/>
<path id="Vector_18" d="M36.2031 58.4645L32.8376 60.9097L31.615 59.2269" fill="#FCD116"/>
</g>
<g id="Group_13">
<path id="a_13" d="M34.6914 63.1155L33.4059 59.1591L31.4277 59.8019" fill="#FCD116"/>
<path id="Vector_19" d="M34.6914 63.1155L31.3259 60.6703L32.5485 58.9876" fill="#FCD116"/>
</g>
<g id="Group_14">
<path id="a_14" d="M29.8008 63.1155L33.1663 60.6703L31.9437 58.9876" fill="#FCD116"/>
<path id="Vector_20" d="M29.8008 63.1155L31.0863 59.1591L33.0645 59.8019" fill="#FCD116"/>
</g>
<g id="Group_15">
<path id="a_15" d="M28.29 58.4645L31.6556 60.9097L32.8781 59.2269" fill="#FCD116"/>
<path id="Vector_21" d="M28.29 58.4645H32.45V60.5445" fill="#FCD116"/>
</g>
</g>
</g>
</g>
<defs>
<clipPath id="clip0_2909_185419">
<path d="M0.246094 32C0.246094 14.3269 14.573 0 32.2461 0V0C49.9192 0 64.2461 14.3269 64.2461 32V32C64.2461 49.6731 49.9192 64 32.2461 64V64C14.573 64 0.246094 49.6731 0.246094 32V32Z" fill="white"/>
</clipPath>
</defs>
</svg>
