<svg width="65" height="64" viewBox="0 0 65 64" fill="none" xmlns="http://www.w3.org/2000/svg">
<g id="Rounded=Georgia (GE)">
<g clip-path="url(#clip0_2909_185500)">
<path id="Vector" d="M0.246094 0H64.2461V64H0.246094V0Z" fill="#F5F5F5"/>
<path id="Vector_2" d="M25.8711 0H38.6211V64H25.8711V0Z" fill="#FF0000"/>
<path id="Vector_3" d="M0.246094 25.625H64.2461V38.375H0.246094V25.625Z" fill="#FF0000"/>
<g id="Vector_4" style="mix-blend-mode:multiply">
<path fill-rule="evenodd" clip-rule="evenodd" d="M14.5086 49.7375C14.6461 47.4875 15.0461 45.5625 15.0461 45.5625C15.0461 45.5625 13.7211 45.6875 13.0586 45.6875C12.3961 45.6875 11.0711 45.5625 11.0711 45.5625C11.0711 45.5625 11.4711 47.475 11.6086 49.7375C9.35859 49.6 7.43359 49.2 7.43359 49.2C7.43359 49.2 7.55859 50.2 7.55859 51.1875C7.55859 52.175 7.43359 53.175 7.43359 53.175C7.43359 53.175 9.34609 52.775 11.6086 52.6375C11.4711 54.8875 11.0711 56.8125 11.0711 56.8125C11.0711 56.8125 12.0711 56.6875 13.0586 56.6875C14.0586 56.6875 15.0461 56.8125 15.0461 56.8125C15.0461 56.8125 14.6461 54.9 14.5086 52.6375C16.7586 52.775 18.6836 53.175 18.6836 53.175C18.6836 53.175 18.5586 51.85 18.5586 51.1875C18.5586 50.525 18.6836 49.2 18.6836 49.2C18.6836 49.2 16.7711 49.6 14.5086 49.7375ZM52.8836 11.3625C53.0211 9.1125 53.4211 7.1875 53.4211 7.1875C53.4211 7.1875 52.0961 7.3125 51.4336 7.3125C50.7711 7.3125 49.4461 7.1875 49.4461 7.1875C49.4461 7.1875 49.8461 9.1125 49.9836 11.3625C47.7336 11.225 45.8086 10.825 45.8086 10.825C45.8086 10.825 45.9336 11.825 45.9336 12.8125C45.9336 13.8125 45.8086 14.8 45.8086 14.8C45.8086 14.8 47.7211 14.4 49.9836 14.2625C49.8461 16.5125 49.4461 18.4375 49.4461 18.4375C49.4461 18.4375 50.4461 18.3125 51.4336 18.3125C52.4211 18.3125 53.4211 18.4375 53.4211 18.4375C53.4211 18.4375 53.0211 16.525 52.8836 14.2625C55.1336 14.4 57.0586 14.8 57.0586 14.8C57.0586 14.8 56.9336 13.475 56.9336 12.8125C56.9336 12.1625 57.0586 10.825 57.0586 10.825C57.0586 10.825 55.1336 11.225 52.8836 11.3625ZM14.5086 11.3625C14.6461 9.1125 15.0461 7.1875 15.0461 7.1875C15.0461 7.1875 13.7211 7.3125 13.0586 7.3125C12.3961 7.3125 11.0711 7.1875 11.0711 7.1875C11.0711 7.1875 11.4711 9.1125 11.6086 11.3625C9.35859 11.225 7.43359 10.825 7.43359 10.825C7.43359 10.825 7.55859 11.825 7.55859 12.8125C7.55859 13.8125 7.43359 14.8 7.43359 14.8C7.43359 14.8 9.34609 14.4 11.6086 14.2625C11.4711 16.5125 11.0711 18.4375 11.0711 18.4375C11.0711 18.4375 12.0711 18.3125 13.0586 18.3125C14.0586 18.3125 15.0461 18.4375 15.0461 18.4375C15.0461 18.4375 14.6461 16.525 14.5086 14.2625C16.7586 14.4 18.6836 14.8 18.6836 14.8C18.6836 14.8 18.5586 13.475 18.5586 12.8125C18.5586 12.1625 18.6836 10.825 18.6836 10.825C18.6836 10.825 16.7711 11.225 14.5086 11.3625ZM52.8836 49.7375C53.0211 47.4875 53.4211 45.5625 53.4211 45.5625C53.4211 45.5625 52.0961 45.6875 51.4336 45.6875C50.7711 45.6875 49.4461 45.5625 49.4461 45.5625C49.4461 45.5625 49.8461 47.475 49.9836 49.7375C47.7336 49.6 45.8086 49.2 45.8086 49.2C45.8086 49.2 45.9336 50.2 45.9336 51.1875C45.9336 52.175 45.8086 53.175 45.8086 53.175C45.8086 53.175 47.7211 52.775 49.9836 52.6375C49.8461 54.8875 49.4461 56.8125 49.4461 56.8125C49.4461 56.8125 50.4461 56.6875 51.4336 56.6875C52.4211 56.6875 53.4211 56.8125 53.4211 56.8125C53.4211 56.8125 53.0211 54.9 52.8836 52.6375C55.1336 52.775 57.0586 53.175 57.0586 53.175C57.0586 53.175 56.9336 51.85 56.9336 51.1875C56.9336 50.525 57.0586 49.2 57.0586 49.2C57.0586 49.2 55.1336 49.6 52.8836 49.7375Z" fill="#FF0000"/>
</g>
</g>
</g>
<defs>
<clipPath id="clip0_2909_185500">
<path d="M0.246094 32C0.246094 14.3269 14.573 0 32.2461 0V0C49.9192 0 64.2461 14.3269 64.2461 32V32C64.2461 49.6731 49.9192 64 32.2461 64V64C14.573 64 0.246094 49.6731 0.246094 32V32Z" fill="white"/>
</clipPath>
</defs>
</svg>
