<svg width="65" height="64" viewBox="0 0 65 64" fill="none" xmlns="http://www.w3.org/2000/svg">
<g id="Rounded=Guernsey (GG)">
<g clip-path="url(#clip0_2909_185413)">
<path id="Vector" d="M0.246094 0H64.2461V64H0.246094V0Z" fill="#F5F5F5"/>
<path id="Vector_2" d="M24.2461 0H40.2461V64H24.2461V0Z" fill="#E8112D"/>
<path id="Vector_3" d="M0.246094 23.4625H64.2461V40.5375H0.246094V23.4625Z" fill="#E8112D"/>
<path id="a" d="M5.99609 38.225L8.90859 35.1H35.1586V28.8875H8.90859L5.99609 25.775V38.225Z" fill="#F9DD16"/>
<path id="Vector_4" d="M26.4102 4.00836L29.3398 7.11504V35.1151H35.1641V7.11504L38.082 4.00836H26.4102Z" fill="#F9DD16"/>
<path id="Vector_5" d="M38.082 59.9916L35.1523 56.885V28.8849H29.3281V56.885L26.4102 59.9916H38.082Z" fill="#F9DD16"/>
<path id="Vector_6" d="M58.4961 25.775L55.5836 28.9L29.3336 28.9V35.1125H55.5836L58.4961 38.225V25.775Z" fill="#F9DD16"/>
</g>
</g>
<defs>
<clipPath id="clip0_2909_185413">
<path d="M0.246094 32C0.246094 14.3269 14.573 0 32.2461 0V0C49.9192 0 64.2461 14.3269 64.2461 32V32C64.2461 49.6731 49.9192 64 32.2461 64V64C14.573 64 0.246094 49.6731 0.246094 32V32Z" fill="white"/>
</clipPath>
</defs>
</svg>
