<svg width="65" height="64" viewBox="0 0 65 64" fill="none" xmlns="http://www.w3.org/2000/svg">
<g id="Rounded=Greenland (GL)">
<g clip-path="url(#clip0_2909_185468)">
<path id="Vector" d="M0.246094 0H64.2461V64H0.246094V0Z" fill="#F5F5F5"/>
<path id="Vector_2" d="M0.246094 32H64.2461V64H0.246094V32ZM6.90859 32C6.90859 34.8021 7.4605 37.5767 8.53281 40.1655C9.60512 42.7543 11.1768 45.1065 13.1582 47.0879C15.1396 49.0693 17.4918 50.641 20.0806 51.7133C22.6694 52.7856 25.444 53.3375 28.2461 53.3375C31.0482 53.3375 33.8228 52.7856 36.4116 51.7133C39.0004 50.641 41.3526 49.0693 43.334 47.0879C45.3154 45.1065 46.8871 42.7543 47.9594 40.1655C49.0317 37.5767 49.5836 34.8021 49.5836 32C49.5836 26.3409 47.3355 20.9137 43.334 16.9121C39.3324 12.9106 33.9052 10.6625 28.2461 10.6625C22.587 10.6625 17.1598 12.9106 13.1582 16.9121C9.15665 20.9137 6.90859 26.3409 6.90859 32" fill="#D00C33"/>
</g>
</g>
<defs>
<clipPath id="clip0_2909_185468">
<path d="M0.246094 32C0.246094 14.3269 14.573 0 32.2461 0V0C49.9192 0 64.2461 14.3269 64.2461 32V32C64.2461 49.6731 49.9192 64 32.2461 64V64C14.573 64 0.246094 49.6731 0.246094 32V32Z" fill="white"/>
</clipPath>
</defs>
</svg>
