<svg width="65" height="64" viewBox="0 0 65 64" fill="none" xmlns="http://www.w3.org/2000/svg">
<g id="Rounded=South Georgia and the South Sandwich Islands (GS)">
<g clip-path="url(#clip0_2909_185423)">
<path id="Vector" d="M0.246094 0H64.2461V64H0.246094V0Z" fill="#000066"/>
<path id="Vector_2" d="M46.9207 43.575C46.9207 43.575 46.6332 44.325 46.4707 44.325C46.3082 44.325 45.7207 44.0125 45.7207 44.0125C45.7207 44.0125 45.2832 44.7 45.0582 44.7375C44.8332 44.7875 44.2332 44.6375 44.2332 44.6375C44.2332 44.6375 43.6707 44.6375 43.6457 44.5625C43.6207 44.475 43.6707 44.3125 43.6707 44.3125C43.6707 44.3125 42.8457 44.9625 42.6707 44.925C42.4832 44.8875 41.8707 44.1125 41.8707 44.1125L41.7707 44.5125L40.6082 44.475L39.5832 43.825C39.5832 43.825 39.0082 44.7625 38.9832 44.7375C38.9707 44.725 37.9832 44.9625 37.9832 44.9625L37.9207 44.7875L37.2707 44.4C37.2707 44.4 37.7707 43.675 37.7707 43.65L37.5332 43.5625L37.1582 43.8625L36.4082 44.3625L35.6582 44.0125L35.9832 43.3875L36.0207 42.9375L36.6207 42.05L43.8707 35L47.4457 41.6L46.9207 43.575Z" fill="#6A4C2D" stroke="black" stroke-width="0.1125"/>
<path id="Vector_3" d="M52.0711 44L53.9461 43.9375L53.1586 43.5375L60.3461 43.2625L59.3336 42.8875L58.4336 41.6625L54.7086 41.375C54.7086 41.375 54.4211 41.1625 53.9586 41.275C53.9586 40.9875 53.5961 40.6 53.5961 40.6L51.3086 40.4375L49.8711 41.4125L50.8336 43.8875L52.0711 44Z" fill="#F5F5F5" stroke="black" stroke-width="0.1125"/>
<path id="Vector_4" d="M44.7207 22.8625L44.9082 22.2125C44.9082 22.2125 45.2457 21.65 45.2457 21.4C45.2457 21.15 45.4957 20.8625 45.4957 20.8625C45.4957 20.8625 46.2457 20.65 46.4207 21.1125C47.2332 19.875 48.1957 21.05 48.1957 21.05L48.4582 20.7375L48.9957 20.075C48.9957 20.075 49.7707 20.8 49.7832 20.925C49.7832 21.05 49.9082 20.9625 49.9082 20.9625L50.7457 20.8875C50.7181 21.0547 50.7335 21.2261 50.7903 21.3857C50.8472 21.5454 50.9437 21.6879 51.0707 21.8C51.3582 21.975 51.6207 23 51.6207 23L44.7207 22.8625Z" fill="url(#paint0_linear_2909_185423)" stroke="black" stroke-width="0.1125"/>
<path id="Vector_5" d="M52.0713 30.55C52.2213 30.4625 52.6713 30.325 52.6088 29.65C52.5588 28.9875 51.9838 28.9125 51.6588 28.9375C51.429 28.9733 51.2154 29.0779 51.0463 29.2375L49.9838 28.5625C49.9838 28.5625 50.5213 25.1875 51.0838 24.9875C51.6213 24.6 51.7088 24.4375 51.7088 24.35C51.7088 24.25 51.5213 24.0375 51.5213 24.0375L48.0463 23.625L44.7588 24C44.7588 24 44.5088 24.4 44.5463 24.55C44.5713 24.7125 44.5838 24.875 45.1713 25.325C45.8213 25.825 46.2713 28.7 46.2713 28.7C46.2713 28.7 45.3463 29.15 45.2963 29.1C45.2338 29.05 44.9588 28.9875 44.8213 29.0125C44.6713 29.0375 44.1963 29.275 44.1963 29.9125C44.1963 30.5375 44.6713 30.9125 44.6713 30.9125C44.6713 30.9125 47.8088 30.5375 48.2838 31.4125C48.7338 30.3625 51.7213 30.725 52.0713 30.55Z" fill="#656263" stroke="black" stroke-width="0.1125"/>
<path id="Vector_6" d="M55.4465 27.0625C55.4465 27.0625 55.484 26.6875 55.7465 26.525C55.9965 26.35 57.7465 26.2625 58.159 26.525C58.584 26.775 58.734 28.0625 58.734 28.0625C58.734 28.0625 58.984 28.525 59.009 28.85L59.059 29.4C59.059 29.4 60.459 31.2125 60.4715 32.85C60.6215 33.95 60.5965 36.925 60.159 38.05C60.1576 38.8647 59.9467 39.6653 59.5465 40.375C59.5465 40.375 59.684 40.625 59.6715 40.875C59.659 41.15 59.5215 41.3875 59.5215 41.3875L61.5465 42.3875L60.7965 42.1125L61.5465 42.7375L60.6965 42.3375L61.1965 42.8375L59.9715 42.2875L60.509 42.8125L59.584 42.375L60.1215 42.9375C60.109 42.9 59.3215 42.5875 59.3215 42.5875L59.359 42.8875C59.359 42.8875 58.734 42.85 58.734 42.3875C58.4215 42.2 58.209 41.9625 58.209 41.9625L56.7715 41.7125L55.1465 36.8375L55.5215 28.5875L55.6215 28.175L55.4465 27.0625Z" fill="black" stroke="black" stroke-width="0.1125" stroke-linejoin="round"/>
<path id="Vector_7" d="M54.3716 53.425C54.3716 53.425 53.5216 51.675 53.1091 51.6375C52.7341 50.925 54.4216 45.0625 57.6716 44.725C59.4591 44.875 57.8216 46.7875 56.6466 46.2C56.7841 46.7125 57.3716 47.45 57.3716 47.45C57.3716 47.45 55.0466 48.45 54.3716 53.425ZM43.1466 53.675C43.1466 53.675 43.8466 51.675 44.2716 51.65C44.6841 51.625 43.1466 44.975 39.8091 44.925C38.0091 45.075 39.6591 47 40.8466 46.4125C40.7091 46.9375 40.1091 47.6625 40.1091 47.6625C40.1091 47.6625 42.4591 48.6875 43.1466 53.675V53.675Z" fill="#FFBB00" stroke="black" stroke-width="0.1125"/>
<path id="Vector_8" d="M46.2082 41.175C46.2082 41.1625 45.3832 41.425 45.9082 42.325C45.9582 41.975 46.3207 41.7625 46.3207 41.7625C46.3207 41.7625 45.7582 42.4375 46.3582 43C46.4332 42.4625 46.7707 42.3 46.7707 42.3C46.7707 42.3 46.3457 43.525 46.7707 43.775C46.8207 43.2875 47.1457 43.075 47.1457 43.075C47.1457 43.075 46.7582 44.175 47.0957 44.425C47.1332 44 47.4207 43.825 47.4207 43.825C47.4207 43.825 47.2457 44.95 47.6832 45.0375C47.6957 44.6375 48.0207 44.25 48.0207 44.25C48.0207 44.25 47.8707 45.175 48.5707 45.225C48.5707 44.8625 48.6957 44.4625 48.6957 44.4625C48.6957 44.4625 49.0207 45.4625 49.4707 45.2875V44.45C49.4707 44.45 49.7582 45.4 50.3082 45.225C50.2332 44.95 50.3457 44.6375 50.3457 44.6375C50.3457 44.6375 50.6332 45.225 51.1582 45.0375C51.2457 44.8625 51.1332 44.5125 51.1332 44.5125C51.1332 44.5125 51.8832 45.3 52.1332 44.825C52.3582 44.35 51.5082 44.2 51.5082 44.2H52.0832C52.0832 44.2 51.9082 43.7 51.1332 43.6C51.3957 43.475 51.6707 43.575 51.6707 43.575C51.6707 43.575 51.5082 42.9625 50.7207 42.9C51.0207 42.8 51.3582 42.875 51.3582 42.875C51.3582 42.875 51.2582 42.3 50.3957 42.1375C50.5207 41.9875 50.8957 42.0375 50.8957 42.0375C50.8957 42.0375 50.5457 41.5 50.1457 41.5375C49.7707 41.5625 46.1957 41.1625 46.2082 41.1625V41.175Z" fill="#00713D" stroke="black" stroke-width="0.1125"/>
<path id="Vector_9" d="M47.6588 44.1C47.6588 44.1 47.8463 44.2875 47.8338 44.3375M49.7213 44.075C49.7213 44.075 50.0338 44.225 50.0338 44.3625L49.7213 44.075ZM49.9088 43.825C49.9088 43.825 50.3088 44.1125 50.3088 44.325L49.9088 43.825ZM50.2588 43.6875C50.2588 43.6875 50.5838 43.8875 50.5963 44.1875L50.2588 43.6875ZM50.7963 43.8125C50.7963 43.8125 50.9588 44.1625 50.9088 44.225L50.7963 43.8125ZM51.1213 44C51.1463 44.275 51.0963 44.2875 51.0963 44.2875L51.1213 44ZM47.1588 42.2625C47.1588 42.2625 47.5338 42.5125 47.5088 42.85L47.1588 42.2625ZM47.1338 42.5625C47.1338 42.5625 47.3088 42.725 47.2713 42.8375L47.1338 42.5625ZM47.5963 42.275C47.5963 42.275 47.8463 42.625 47.7713 42.8625L47.5963 42.275ZM48.0213 42.5C48.0213 42.5 48.1463 42.7125 48.0338 42.8375L48.0213 42.5ZM48.2338 42.6C48.2338 42.6 48.3588 42.825 48.2338 42.9V42.6ZM48.0713 43.325C48.0713 43.325 48.4338 43.4 48.4838 43.6625L48.0713 43.325ZM48.2838 43.075C48.2838 43.075 48.6588 43.1 48.6963 43.5L48.2838 43.075ZM48.7713 42.9375C48.7838 42.9375 49.0213 43.375 48.9838 43.5L48.7713 42.9375ZM49.2463 42.9875C49.2463 42.9875 49.3463 43.3875 49.2713 43.525L49.2463 42.9875ZM49.5588 43.1375V43.6125V43.1375ZM49.0838 42.5C49.0838 42.5 49.3213 42.5875 49.3088 42.8125L49.0838 42.5ZM49.3088 42.2875C49.3088 42.2875 49.6088 42.4625 49.5713 42.7875L49.3088 42.2875ZM49.6463 42.15C49.6463 42.15 49.9088 42.4625 49.8088 42.8L49.6463 42.15ZM50.0963 42.225C50.0963 42.225 50.0088 42.6 50.0463 42.7625L50.0963 42.225ZM50.3713 42.4875C50.3713 42.4875 50.2088 42.6125 50.2963 42.775L50.3713 42.4875ZM48.9088 43.95C48.9088 43.95 48.9713 44.25 48.9088 44.2875V43.95ZM48.5463 43.7875C48.5463 43.7875 48.7213 44.1125 48.6713 44.275L48.5463 43.7875ZM48.1463 43.775C48.1463 43.775 48.3588 44.0125 48.3463 44.2L48.1463 43.775ZM47.8213 43.825C47.8213 43.825 48.0213 44 48.0088 44.1125L47.8213 43.825Z" stroke="#3EC26D" stroke-width="0.10688" stroke-linecap="round"/>
<path id="Vector_10" d="M43.6582 30.9L46.3207 30.85C46.3207 30.85 48.0707 30.85 48.2582 31.425C48.5957 30.6625 50.1207 30.7125 50.1207 30.7125L52.8707 30.6125L52.9207 37.2625C52.6711 38.4304 52.1315 39.5166 51.3516 40.421C50.5717 41.3254 49.5767 42.0189 48.4582 42.4375C47.3088 42.0475 46.2844 41.3576 45.4911 40.4389C44.6977 39.5203 44.1642 38.4064 43.9457 37.2125L43.6582 30.9V30.9Z" fill="#F5F5F5" stroke="black" stroke-width="0.1125"/>
<path id="Vector_11" d="M44.6084 30.875L48.4834 41.2L51.9834 30.65C50.8959 30.725 48.5584 30.475 48.2709 31.475C47.8209 30.5875 45.3709 30.9375 44.6084 30.875Z" fill="#006B00" stroke="black" stroke-width="0.1125"/>
<path id="Vector_12" d="M47.2457 36.4625C47.3957 36.5375 47.3832 33.6625 47.5832 33.575L47.7332 32.975C47.5707 32.675 46.8082 32.7 46.5332 32.95C46.589 33.1314 46.6515 33.3107 46.7207 33.4875C47.0957 34.1 47.0207 36.525 47.2457 36.4625V36.4625Z" fill="#FFC900" stroke="#006B00" stroke-width="0.0625" stroke-linecap="round"/>
<path id="Vector_13" d="M46.2088 14.2125C46.2088 14.2125 46.4838 13.9 46.4963 13.825C46.4963 13.75 47.7463 13.7 48.4713 12.325C48.8838 11.6125 48.4713 12.025 48.4713 12.025L48.4463 11.6875C48.4463 11.6875 48.9463 11.1875 48.7713 10.9375C48.5838 10.675 48.6463 11.275 48.3463 11.2625C48.0463 11.25 48.2088 10.6125 48.2088 10.6125C48.2088 10.6125 48.1838 10.5375 48.0963 10.5C47.9713 10.5125 48.0088 10.7375 47.8963 10.75C47.7838 10.7875 47.6838 10.25 47.6838 10.25C47.6838 10.25 47.4963 9.99999 47.3338 10.775C47.4213 11.6125 47.9588 11.45 47.9588 11.9875C47.9588 12.5375 47.4838 12.9625 47.3463 12.9875C47.2213 12.9875 47.2588 12.5125 47.2588 12.5125C47.2588 12.5125 47.1838 12.2875 47.1338 12.2875C47.0838 12.2875 47.4088 12.2375 47.3588 11.625C47.2463 10.875 47.1588 11.8 46.9588 11.75C46.7588 11.725 46.9088 11.075 46.9838 11C47.0588 10.925 46.8963 10.6125 46.4713 11.4125C46.4338 11.7875 46.3838 11.3125 46.2963 11.3375C46.1463 11.65 46.1713 11.8625 46.3838 12.15C46.6963 12.4375 46.8838 12.725 46.8838 12.875C46.8588 13.025 46.6963 13.3625 46.4838 13.3625C46.2588 13.3625 46.4838 12.95 46.4838 12.8125C46.4713 12.6875 46.0963 12.1875 46.0963 12.1875C46.0963 12.1875 45.8338 11.7625 45.8463 11.75C45.8838 11.7375 45.8338 11.675 45.7088 12.1C45.5838 12.5375 45.4338 11.825 45.4338 11.825C45.4338 11.825 45.2588 12.35 45.6338 12.675C45.3463 12.6375 45.3213 12.75 45.3213 12.75C45.3213 12.9 45.6963 12.9625 45.7588 13.225C45.8088 13.475 45.3588 13.6375 45.3588 13.6375C45.3588 13.6375 45.5463 13.8875 46.0713 13.3875C46.0753 13.5893 46.004 13.7854 45.8713 13.9375C46.0463 14.0125 46.1838 14 46.2088 14.2125V14.2125Z" fill="#CDAD56" stroke="black" stroke-width="0.1125" stroke-linejoin="round"/>
<path id="Vector_14" d="M44.4961 14.2125L44.2461 13.8C44.2461 13.725 43.1211 13.875 42.5711 12.5C42.2211 11.8375 42.5711 12.225 42.5711 12.225L42.5961 11.9125C42.5961 11.9125 42.2211 11.45 42.3836 11.2125C42.5461 10.975 42.4711 11.525 42.6836 11.525C42.9336 11.525 42.7961 10.9375 42.7961 10.9375C42.7961 10.9375 42.8211 10.8625 42.8961 10.8375C42.9961 10.8375 43.0461 11.1875 43.1461 11.2125C43.2336 11.2375 43.4211 10.8125 43.4836 10.7125C43.5711 10.7125 43.5711 10.375 43.7086 11.0875C43.6336 11.8375 43.0086 11.7 43.0086 12.1875C43.0086 12.6875 43.4086 13.075 43.5211 13.0875C43.6461 13.0875 43.5961 12.6625 43.5961 12.6625C43.5961 12.6625 43.6586 12.4625 43.7086 12.4625C43.7461 12.4625 43.3336 12.5375 43.3836 11.975C43.4711 11.45 43.6836 12.0125 43.8586 11.975C44.0211 11.9375 43.8336 11.4125 43.8836 11.3375C43.8836 11.2625 44.1336 10.9125 44.2336 11.675C44.2711 12.025 44.4586 11.375 44.5336 11.3875C44.6586 11.675 44.4836 12.05 44.2961 12.3125C44.0461 12.575 43.9211 12.8625 43.9211 13C43.9336 13.125 43.9961 13.3 44.1961 13.3C44.3836 13.3 44.2586 13.0625 44.2711 12.9375C44.2711 12.8125 44.5961 12.4125 44.5961 12.4125C44.6586 12.3125 44.5961 12.125 44.6711 12.0375C44.7711 12.0375 44.8086 11.9 44.9211 12.2875C45.0211 12.6875 45.1586 12.0375 45.1586 12.0375C45.1586 12.0375 45.2961 12.525 44.9836 12.8125C45.2336 12.775 45.2461 12.8875 45.2461 12.8875C45.2461 13.0125 45.1211 13.075 45.0836 13.3125C45.0461 13.5625 45.2086 13.6875 45.2086 13.6875C45.2086 13.6875 45.0586 13.925 44.6086 13.4625C44.6139 13.6433 44.675 13.8179 44.7836 13.9625C44.6336 14.025 44.5211 14.025 44.4961 14.2125V14.2125Z" fill="#CDAD56" stroke="black" stroke-width="0.1" stroke-linejoin="round"/>
<path id="Vector_15" d="M51.3336 32.4125C51.0961 32.2 51.0836 32.3875 50.9586 32.3375C50.9086 32.325 50.8586 32.2625 50.8086 32.2125C50.7711 32.175 50.7211 32.1625 50.6586 32.1375L50.5961 32.325C50.5836 32.3875 50.6586 32.4875 50.6586 32.575C50.6461 32.7125 50.5836 32.825 50.4086 32.875C50.4586 32.7875 50.4836 32.775 50.4711 32.6625C50.4711 32.6 50.2961 32.4875 50.3211 32.4375C50.3461 32.3375 50.3961 32.2375 50.3586 32.15C50.2961 32.2 50.1961 32.175 50.1211 32.2C50.0711 32.225 50.0586 32.3375 49.9836 32.3875C49.8961 32.425 49.7086 32.4 49.5461 32.3125C49.6461 32.2375 49.7211 32.2875 49.8211 32.2125C49.8711 32.175 49.8586 32.025 49.9086 31.9875L50.1211 31.875C50.0836 31.825 50.0836 31.75 50.0461 31.7C49.9961 31.65 49.7961 31.6625 49.7586 31.6125C49.6711 31.5125 49.6961 31.3875 49.6086 31.2875C49.8336 31.3625 49.7961 31.475 49.8586 31.4625C49.9586 31.4125 50.0586 31.4 50.1086 31.425C50.1711 31.45 50.2836 31.5875 50.3336 31.6125L50.4086 31.4125C50.4336 31.35 50.3211 31.2375 50.3336 31.175C50.3836 31.05 50.4836 30.9375 50.5211 30.8125L50.5711 31.1625C50.5836 31.2125 50.6961 31.25 50.7086 31.3125C50.7086 31.375 50.6461 31.5125 50.6586 31.5625H50.8836C50.9461 31.5375 50.9836 31.3875 51.0461 31.375C51.1711 31.35 51.2711 31.3625 51.4086 31.375C51.3086 31.475 51.2336 31.4625 51.1711 31.55C51.1211 31.5875 51.1961 31.7125 51.0461 31.8C50.9961 31.825 50.8586 31.7875 50.8086 31.825L50.9336 31.975C50.9836 32.025 51.1836 32.0375 51.2211 32.1C51.3086 32.1875 51.3461 32.3125 51.3336 32.4125V32.4125ZM45.3711 32.5125C45.6086 32.3125 45.6336 32.4875 45.7461 32.4375C45.8086 32.425 45.8461 32.3625 45.8961 32.3125C45.9336 32.275 45.9836 32.2625 46.0461 32.2375L46.1086 32.425C46.1336 32.4875 46.0461 32.5875 46.0461 32.675C46.0711 32.825 46.1211 32.925 46.2961 32.9875C46.2461 32.8875 46.2211 32.875 46.2336 32.7625C46.2336 32.7 46.4086 32.5875 46.3961 32.5375C46.3586 32.45 46.3086 32.3375 46.3461 32.25C46.4211 32.3 46.5086 32.275 46.5836 32.3C46.6461 32.325 46.6461 32.4375 46.7336 32.4875C46.8211 32.525 47.0086 32.5 47.1586 32.4125C47.0711 32.3375 46.9836 32.3875 46.8961 32.325C46.8461 32.2875 46.8461 32.125 46.7961 32.0875L46.5836 31.975C46.6336 31.925 46.6211 31.85 46.6711 31.8C46.7086 31.75 46.9086 31.7625 46.9461 31.7125C47.0336 31.6125 47.0211 31.4875 47.1086 31.3875C46.8836 31.4625 46.9086 31.575 46.8586 31.5625C46.7461 31.5125 46.6461 31.5 46.5836 31.525C46.5336 31.55 46.4211 31.6875 46.3711 31.7125L46.2961 31.5125C46.2711 31.45 46.3961 31.3375 46.3711 31.275C46.3336 31.15 46.2211 31.05 46.1836 30.925L46.1336 31.2625C46.1336 31.325 46.0086 31.35 46.0086 31.4125C45.9961 31.475 46.0586 31.6125 46.0586 31.6625H45.8336C45.7711 31.6375 45.7211 31.4875 45.6586 31.475C45.5336 31.45 45.4336 31.4625 45.3086 31.475C45.3961 31.575 45.4711 31.575 45.5336 31.65C45.5836 31.6875 45.5211 31.8125 45.6586 31.9C45.7086 31.925 45.8461 31.8875 45.8961 31.925L45.7711 32.075C45.7211 32.125 45.5211 32.15 45.4836 32.2C45.3961 32.2875 45.3586 32.4125 45.3711 32.5125V32.5125Z" fill="#FFC900"/>
<path id="Vector_16" d="M51.1212 33.075C50.9087 33.25 49.5587 33.5875 49.5462 34.7625C49.5337 35.9375 49.7837 36.2125 49.5337 36.2375C49.0337 36.2375 48.9712 34.925 48.9837 34.35C48.9962 33.7625 49.0087 33.85 49.0087 33.85C49.0087 33.85 49.3462 33.95 49.3212 34.225C49.2962 34.5125 49.6587 33.525 49.5337 33.2625C49.7587 33.4875 50.0462 33.3875 50.0462 33.3875C50.0462 33.3625 49.8837 33.1875 49.8087 33.05C49.7462 32.925 50.0587 33.125 50.0587 33.125C50.0587 33.125 50.0712 32.9 49.7962 32.9125C49.4212 32.9125 49.8587 32.7875 49.8587 32.7875C49.8587 32.7875 50.0587 32.9875 50.2087 32.7875C50.0462 32.6125 49.8337 32.5375 49.8337 32.5375C49.8337 32.5375 49.6337 32.1625 49.3587 32.0875C49.0587 32.0125 49.1087 32.2125 48.7462 32.1875C48.6837 32.3125 48.6837 32.3375 48.8212 32.375C48.5712 32.5375 48.6962 32.875 48.6962 32.875C48.6962 32.875 49.0837 32.7125 49.0712 32.975C49.0587 33.25 48.8462 33.2 48.6962 33.0375C48.5712 32.9625 48.5337 33.1125 48.5337 33.1125L48.7337 33.3125C48.7337 33.3125 48.3587 33.3125 48.2587 33.5625C48.3684 33.5459 48.4806 33.5588 48.5837 33.6C48.5837 33.6 48.1462 33.8 48.1087 33.9C48.0587 34 48.0462 33.775 48.0337 33.775L47.6212 33.6375L47.4712 34.275C47.4712 34.275 47.7587 34.55 47.9087 34.4625C48.0587 34.375 48.3462 34.1125 48.5087 34.1875C48.0212 34.5625 47.5337 35.0875 47.2587 35.1625C47.1962 35.1125 46.9587 34.8625 46.8587 34.9875C46.7587 35.1125 46.8337 35.25 46.9587 35.2375C47.0837 35.2375 46.5587 35.3625 46.6712 35.5875C46.7712 35.8125 46.7587 35.7875 46.8587 35.7375C46.9587 35.675 46.7712 35.6625 47.1462 35.55C47.5087 35.45 47.4962 35.35 47.4962 35.35C47.4962 35.35 47.4212 35.5125 47.2212 35.55C47.0337 35.6 46.8712 35.6 46.9212 35.6625C46.9587 35.7125 47.0462 35.825 47.0087 35.8875C46.9837 35.9375 47.4212 35.575 47.5337 35.8625C47.8212 35.8625 48.0212 35.4875 47.8837 35.2875C47.8837 35.5125 48.0337 35.5875 47.9462 35.6875C47.8712 35.7875 48.6087 35.35 48.2462 35.075C48.3462 35.3 48.3587 35.475 48.3587 35.475C48.3587 35.475 48.5212 35.475 48.5712 35.4C48.6087 35.35 48.4837 35.575 48.5337 35.6125C48.5962 35.6625 48.8587 35.9125 48.7462 36.0875C48.6837 35.9875 48.6587 35.825 48.5837 35.8375C48.4962 35.85 48.1462 36.1 47.9337 36.125C47.7337 36.125 48.1837 36.9 48.1837 36.9C48.1837 36.9 47.8712 36.85 47.8212 36.875C47.7837 36.9125 47.5712 36.6125 47.5337 36.7875C47.4587 37.0125 47.5962 36.925 47.5962 36.925C47.5962 36.925 47.4212 36.8375 47.3212 36.9375C47.2212 37.05 47.1212 37.15 47.1962 37.1875C47.2712 37.2375 47.5712 37.2375 47.6212 37.225C47.6587 37.2125 47.2712 37.25 47.2462 37.3C47.2087 37.3375 47.1587 37.5125 47.2462 37.5625C47.3212 37.625 47.5337 37.5375 47.5462 37.4875C47.5587 37.45 47.5712 37.65 47.5712 37.65C47.5712 37.65 47.9462 37.6875 47.9462 37.3125C47.9462 36.9375 47.9712 37.575 47.9712 37.575C47.9712 37.575 48.3337 37.6375 48.3462 37.2625C48.3462 36.8875 48.3837 37.5125 48.3837 37.5125C48.3837 37.5125 48.6337 37.45 48.6337 37.3875C48.6337 37.325 48.6087 38.1375 48.4462 38.3625C48.1712 38.175 48.0087 38.475 48.0087 38.475C48.0087 38.475 48.0212 38.9125 47.9962 39.0125C47.9712 39.1125 48.1712 38.95 48.1837 38.9125C48.2087 38.8625 48.4587 38.7375 48.4712 38.7125L48.5462 38.5375C48.5462 38.5375 48.4962 38.7375 48.3962 38.775C48.2962 38.8 48.2087 38.9 48.2462 39C48.2837 39.0875 48.4462 39.15 48.4962 39.2375C48.5462 39.325 48.7462 38.7125 48.7462 38.7125L48.7587 38.8375C48.7587 38.8375 49.0087 38.7875 49.0462 38.675C49.0712 38.55 48.7712 38.45 49.0087 38.25C49.2587 38.0625 49.0087 38.425 49.0087 38.425C49.0087 38.425 49.0962 38.7125 49.1587 38.7125C49.2087 38.7125 49.3462 38.175 49.2087 38.0375L49.4212 38.2125C49.4212 38.2125 49.6212 37.65 49.4087 37.5875L49.0962 37.475C49.0962 37.475 49.2212 37.325 49.1587 37.3125C49.0962 37.3 49.4462 37.6375 49.5087 37.5625C49.5587 37.4625 49.6337 37.1875 49.2337 37.05C48.8337 36.9 49.2337 36.475 49.2337 36.475C49.2337 36.475 49.4837 36.775 49.6587 36.6125C49.8337 36.45 49.6462 36.45 49.6462 36.45C49.6462 36.45 50.1587 36.125 50.1712 35.95L49.9087 35.975C49.9087 35.975 50.1962 35.775 50.1337 35.475C50.0087 35.625 49.8712 35.625 49.8712 35.625C49.8712 35.625 50.1212 35.375 50.0712 35.1375C49.9212 35.2625 49.9462 35.35 49.8337 35.3125C49.7462 35.2875 49.5837 34.35 49.9587 34.2875C50.3587 34.225 50.1462 34.75 50.1587 34.75C50.1712 34.75 50.7462 34.5 50.1587 34.125C50.2962 34.075 50.5962 34.35 50.5962 34.35C50.5962 34.35 50.4712 33.6875 49.8462 34.1C49.9962 33.925 50.0962 33.825 50.2212 33.85C50.3462 33.8875 50.7837 33.85 50.7837 33.7125C50.6837 33.6125 50.4462 33.75 50.3087 33.7125C50.1837 33.6625 51.2087 33.5875 51.1212 33.0875V33.075Z" fill="#FFC900" stroke="#006B00" stroke-width="0.0625" stroke-linecap="round" stroke-linejoin="round"/>
<path id="Vector_17" d="M48.1338 34.7625C48.1338 34.7625 48.6463 34.8125 48.9838 34.2625M46.6963 33.4625C46.6963 33.4625 47.2588 33.15 47.5338 33.5375L46.6963 33.4625ZM47.7463 34.1375C47.7463 34.1375 47.5588 34.3375 47.5213 34.3375L47.7463 34.1375Z" stroke="#006B00" stroke-width="0.0625" stroke-linecap="round"/>
<path id="Vector_18" d="M48.6957 34.6C48.6957 34.6 48.7332 34.9 48.8207 34.9C48.8957 34.9 48.6832 34.975 48.5957 34.9125C48.6957 35.0375 48.7457 35.2875 48.5957 35.375" stroke="#006B00" stroke-width="0.0625" stroke-linecap="round"/>
<g id="Vector_19">
<path d="M48.4215 38.35C48.4215 38.35 48.2465 38.5625 48.0215 38.575Z" fill="#E80000"/>
<path d="M48.4215 38.35C48.4215 38.35 48.2465 38.5625 48.0215 38.575" stroke="#006B00" stroke-width="0.0625" stroke-linecap="round"/>
</g>
<path id="Vector_20" d="M48.6336 37.4C48.6336 37.4 48.5211 36.8 48.5961 36.65C48.6336 36.4625 48.8211 36.4 48.9586 36.1375" stroke="#006B00" stroke-width="0.0625" stroke-linecap="round"/>
<path id="Vector_21" d="M48.059 33.925C48.059 33.925 47.834 34.1375 47.934 34.425M48.584 36.975C48.584 36.975 48.4465 37.325 47.834 37.2125L48.584 36.975ZM48.7465 36.075C48.7465 36.075 48.784 36.55 48.234 36.375L48.7465 36.075Z" stroke="#006B00" stroke-width="0.0625" stroke-linecap="round"/>
<path id="Vector_22" d="M48.8965 33.4125C48.8965 33.4125 49.1965 33.2875 49.2465 33.225C49.3247 33.1499 49.3883 33.0609 49.434 32.9625C49.459 32.875 49.234 32.7375 49.3465 32.5375C49.4215 32.45 49.5215 32.4375 49.684 32.5375C49.8465 32.65 49.534 32.2125 49.359 32.2C49.1965 32.1875 49.084 32.325 49.0465 32.2875C48.9965 32.2625 49.0465 32.4125 48.984 32.4125C48.9215 32.4125 49.1215 32.5375 49.109 32.6C49.109 32.675 49.334 32.925 49.3215 32.9875C49.309 33.05 48.9715 33.3875 48.8965 33.4125Z" fill="#006B00"/>
<path id="Vector_23" d="M49.1211 32.425C49.2461 32.3875 49.2586 32.425 49.2461 32.55C49.1836 32.5125 49.1586 32.4875 49.1211 32.425Z" fill="#FFC900" stroke="#FFC900" stroke-width="0.0625" stroke-linecap="round" stroke-linejoin="round"/>
<path id="Vector_24" d="M48.2209 39.0625C48.2209 39.0625 48.1709 39.375 48.2834 39.4C48.2834 39.275 48.3084 39.2 48.3334 39.1625L48.2084 39.0625H48.2209ZM47.9584 38.675C47.8584 38.675 47.6709 38.7625 47.7209 38.875C47.8084 38.7875 47.8959 38.875 47.9459 38.8C47.9709 38.775 47.9709 38.7125 47.9584 38.675V38.675ZM47.9584 38.4625C47.9584 38.4625 47.7959 38.425 47.7709 38.55C47.8834 38.5375 47.9209 38.525 47.9584 38.55V38.4625ZM47.2459 36.7C47.2459 36.7 47.3459 36.7375 47.3709 36.85C47.4584 36.8 47.4959 36.5625 47.2459 36.7ZM46.9959 36.9625C47.0084 36.9625 47.2084 36.8375 47.2459 36.9625C47.1959 37 47.1709 37.0375 47.1334 37.0375C47.1084 37.0375 47.0584 36.9625 47.0084 36.9625H46.9959ZM46.9834 37.4C46.9834 37.4 47.1084 37.275 47.1709 37.35C47.2084 37.4375 47.1209 37.425 47.1209 37.425L46.9834 37.4V37.4ZM46.8084 35C46.8084 35 46.6334 34.925 46.5584 35.05C46.6834 35.0625 46.7209 35.1 46.7709 35.15C46.7459 35.1 46.7334 35.025 46.8084 35ZM46.4959 35.9C46.4959 35.9 46.4959 35.7 46.5834 35.6125C46.6334 35.65 46.6459 35.6875 46.6834 35.75C46.6209 35.775 46.5209 35.775 46.4834 35.9H46.4959ZM46.9209 35.75C46.9209 35.75 46.7459 35.8375 46.7959 35.9375C46.8584 35.875 46.9209 35.9 46.9209 35.8875V35.7625V35.75Z" fill="#E80000" stroke="#006B00" stroke-width="0.0625" stroke-linejoin="round"/>
<path id="Vector_25" d="M46.6591 33.8125C46.5966 33.8875 46.7466 34.0625 46.8966 34.025C46.9341 33.85 46.6966 33.75 46.6591 33.8125Z" fill="#FFC900" stroke="#006B00" stroke-width="0.0625" stroke-linejoin="round"/>
<path id="Vector_26" d="M46.834 33.675C46.834 33.675 46.859 33.8125 46.984 33.775C46.9715 33.6625 46.8715 33.5875 46.8715 33.5875C46.8715 33.6125 46.8965 33.6625 46.834 33.675ZM46.9215 34.0875C46.9215 34.0875 46.984 34.175 47.134 34C47.0715 34.025 46.9465 33.9625 46.9465 33.9625C46.9465 33.9625 46.9465 34.0875 46.9215 34.0875Z" fill="#E80000" stroke="#006B00" stroke-width="0.0625" stroke-linejoin="round"/>
<path id="Vector_27" d="M46.6591 33.4875C46.5966 33.5625 46.6841 33.6625 46.8341 33.6375C46.8716 33.4625 46.6966 33.425 46.6591 33.4875Z" fill="#FFC900" stroke="#006B00" stroke-width="0.0625" stroke-linejoin="round"/>
<path id="Vector_28" d="M46.7208 32.7625C46.7208 32.7625 47.3208 32.6 47.6333 32.85C47.9583 33.1 47.9583 32.875 47.9583 32.875C47.9583 32.875 48.4208 33.05 48.5583 33.0125C48.6833 32.975 48.4583 33.025 48.6458 32.9125C48.8333 32.8 48.2708 32.9375 48.2208 32.7C48.1458 32.5625 48.2333 32.375 48.0458 32.4375C47.9083 32.2625 48.1333 32.1375 48.0833 31.9625C47.9458 32.05 47.8708 31.925 47.7583 32.1625C47.5083 32.1125 47.7208 31.7625 47.4458 31.725C47.4458 31.975 47.2333 32 47.2208 32.1375C47.0958 32.225 46.5583 32.55 46.7208 32.7625V32.7625Z" fill="url(#paint1_linear_2909_185423)"/>
<path id="Vector_29" d="M39.7961 52.35C40.1711 52.25 42.2961 52.8125 43.1086 53.6875C42.9336 52.125 42.5086 50.9375 42.5086 50.9375C42.5086 50.9375 41.2461 50.575 41.0711 50.75C40.8211 51.0125 40.0586 51.8125 39.7961 52.35ZM39.1461 45.15C38.9961 45.175 38.8461 45.275 38.6961 45.525C38.5211 45.9375 38.4086 47 38.1586 47.25C37.9086 47.5 37.6836 47.525 37.6836 47.75C37.6836 47.975 37.7086 48.5 38.3836 48.6875C39.0461 48.7125 40.1086 47.625 40.1086 47.625C40.1086 47.625 40.6586 47.025 40.8711 46.3875C39.5961 46.8375 38.6711 45.6375 39.1461 45.15V45.15ZM57.7461 52.1C56.5179 52.1783 55.3456 52.6419 54.3961 53.425C54.5014 52.4984 54.7025 51.5852 54.9961 50.7C55.1461 50.65 56.2461 50.3375 56.4086 50.5125C56.6586 50.775 57.4711 51.575 57.7336 52.1H57.7461ZM58.3336 44.95C58.4836 44.975 58.5336 45.1625 58.6586 45.4125C58.8211 45.825 58.9961 46.4375 59.2461 46.6875C59.4961 46.9375 59.7086 47.2875 59.7086 47.5125C59.7086 47.7375 59.6586 48.0375 58.9961 48.225C58.3336 48.25 57.3711 47.4 57.3711 47.4C57.3711 47.4 56.8336 46.8125 56.6211 46.175C57.8961 46.6125 58.7211 45.475 58.3336 44.95V44.95Z" fill="#C01500" stroke="black" stroke-width="0.1125"/>
<path id="Vector_30" d="M38.4082 50.9875C38.4082 50.9875 39.7332 51.9 39.7582 52.325C43.3457 47 52.4957 45.35 57.7082 51.95C58.0724 51.436 58.5575 51.0196 59.1207 50.7375C53.6207 43.575 42.7082 44.4625 38.4082 50.9875V50.9875Z" fill="#FFBB00" stroke="black" stroke-width="0.1125"/>
<path id="Vector_31" d="M51.9959 30.65H52.5209L51.5959 31.825L52.7209 33.125L50.5084 35.9L52.5834 38.4C52.3584 38.9625 52.0834 39.475 51.7334 39.9375L50.5459 38.6125L52.7084 35.9125L50.9334 33.9L51.9959 30.65ZM44.5334 30.8875L43.9834 30.9L45.0209 32.025L43.9209 33.4125L46.2209 35.9125L44.3084 38.4625C44.5429 39.0443 44.8494 39.5945 45.2209 40.1L46.3459 38.675L44.0334 36.0875L45.7334 33.925L44.5334 30.8875Z" fill="#1E5AA6" stroke="black" stroke-width="0.0855039"/>
<path id="Vector_32" d="M47.1207 37.6L46.3082 38.7L49.2332 42.1C49.7582 41.8375 50.1582 41.5375 50.6082 41.175L49.0832 39.4125L49.7082 37.575L50.5957 38.6125L47.7957 42.1875C47.2727 41.9568 46.7846 41.6538 46.3457 41.2875L47.8207 39.4125L47.1207 37.6ZM46.2207 35.9L46.7457 36.575L46.4082 35.6625L46.2207 35.9Z" fill="#1E5AA6" stroke="black" stroke-width="0.0855039"/>
<path id="Vector_33" d="M50.0459 36.5L50.4834 35.925L50.3209 35.7L50.0459 36.5Z" fill="#1E5AA6" stroke="black" stroke-width="0.1125"/>
<path id="Vector_34" d="M56.2334 27.15C56.2334 27.15 56.7459 26.7125 57.1084 26.7" stroke="#FFF700" stroke-width="0.0855039" stroke-linecap="round"/>
<path id="Vector_35" d="M56.3211 27.125C56.3211 27.1 59.7586 26.825 59.7586 26.825M56.3086 27.0875C56.3086 27.0875 59.3961 26.65 59.4836 26.55L56.3086 27.0875Z" stroke="#FFF700" stroke-width="0.0855039" stroke-linecap="round"/>
<path id="Vector_36" d="M56.2715 27.1375C56.284 27.1375 59.7715 27.45 60.109 27.8875M56.309 27.125C56.309 27.125 59.959 26.95 60.184 27.1375L56.309 27.125ZM56.2965 27.125C56.2965 27.125 59.8715 27.1375 59.9215 27.225L56.2965 27.125ZM56.309 27.125L59.7465 27.4L56.309 27.125Z" stroke="#FFF700" stroke-width="0.0855039" stroke-linecap="round"/>
<path id="Vector_37" d="M60.2963 28.5125C60.2963 28.5125 59.1088 27.1 56.2588 27.1375" stroke="#FFF700" stroke-width="0.0855039" stroke-linecap="round"/>
<path id="Vector_38" d="M56.2715 27.15C56.2715 27.15 58.2465 27.2875 58.8715 27.975" stroke="#FFF700" stroke-width="0.0855039" stroke-linecap="round"/>
<path id="Vector_39" d="M56.3086 27.125C56.3086 27.125 57.5836 26.875 58.9336 28.5" stroke="#FFF700" stroke-width="0.0855039" stroke-linecap="round"/>
<path id="Vector_40" d="M55.4958 28.5875C55.4958 28.5875 57.2708 28.6625 57.2708 28.8375C57.2708 29 55.9583 29.3375 55.9333 30.0625C55.9208 30.8 56.9333 30.85 57.0083 31.7625C57.0833 32.6875 56.2208 32.825 56.0458 33.075C55.8708 33.2 55.4458 34.4875 55.5083 35.2625C55.5583 36.0125 55.7833 38.6125 56.1833 39.1375C56.4958 39.375 56.9583 40.15 57.4708 39.9125C57.9708 39.6625 57.6208 38.7875 57.5708 38.5375C57.5208 38.2875 57.7833 37.9 57.7833 37.5375C57.7833 37.1625 57.5833 36.875 57.6083 36.7875C57.6208 36.7 59.0083 37.1125 58.9208 38.4875C58.8333 39.8625 58.2833 39.4375 58.2833 39.4375C58.2833 39.4375 58.4583 41.125 58.0208 41.35C57.2458 41.775 56.6708 41.2625 56.6708 41.2625L56.7458 41.6125L56.1458 41.3C56.1458 41.3 55.3833 40.2125 55.2083 39.725C54.9851 38.6987 54.8803 37.6502 54.8958 36.6C54.9708 36.125 55.0208 33.3875 54.9833 33.2375C54.9458 33.1125 54.8083 30.8125 54.8958 30.4625C54.9833 30.1125 55.5208 28.5875 55.5083 28.5875H55.4958Z" fill="url(#paint2_linear_2909_185423)" stroke="black" stroke-width="0.1125"/>
<path id="Vector_41" d="M53.5957 28.125C53.5957 28.125 54.8207 26.9375 55.5332 27.075C55.9082 27.075 55.5582 27.3375 55.5582 27.3375C55.5582 27.3375 56.1832 27.3875 56.2707 27.6625C56.2832 27.7875 55.9707 27.825 55.9707 27.825C55.9707 27.825 56.2207 27.875 56.2457 28.1C56.2707 28.325 53.6207 28.15 53.5957 28.1375V28.125Z" fill="#FF7000" stroke="black" stroke-width="0.1125"/>
<path id="Vector_42" d="M53.6582 28.0875C53.6582 28.0875 54.9832 27.9125 55.5332 27.35" stroke="black" stroke-width="0.1125"/>
<path id="Vector_43" d="M54.9961 27.725C54.9961 27.725 55.9711 27.6875 55.9711 27.825" stroke="black" stroke-width="0.1125"/>
<path id="Vector_44" d="M58.459 41.925C58.459 41.925 59.284 41.7375 59.5215 41.4375C59.6465 41.3375 60.384 42.5375 58.459 41.9375V41.925Z" fill="#F5F5F5" stroke="black" stroke-width="0.1125" stroke-linejoin="round"/>
<path id="Vector_45" d="M56.7082 32.95C56.7082 32.95 56.0457 33.175 55.9082 33.825M58.2332 35.0375C58.2332 35.0375 58.3332 35.675 58.0332 36.1125C57.8832 36.2875 57.4082 36.575 57.4082 36.7875C57.4082 37 57.5832 37.275 57.5582 37.5125C57.5207 37.7625 57.2582 38.0125 57.2707 38.2125C57.2707 38.4125 57.5707 39.525 57.5332 39.55L58.2332 35.0375Z" stroke="#F5F5F5" stroke-width="0.1125" stroke-linecap="round"/>
<path id="Vector_46" d="M56.4209 27.725C56.4209 27.725 56.6459 28.35 57.3834 27.75C56.9084 27.1125 56.4209 27.7375 56.4209 27.725Z" fill="#C75B00" stroke="black" stroke-width="0.1125"/>
<path id="Vector_47" d="M56.9586 27.7C56.9586 27.725 56.9336 27.75 56.8836 27.75C56.8461 27.75 56.8086 27.725 56.8086 27.7C56.8086 27.6625 56.8461 27.6375 56.8836 27.6375C56.9336 27.6375 56.9586 27.6625 56.9586 27.7Z" fill="black"/>
<path id="Vector_48" d="M50.4586 26.275C50.4586 26.275 51.8336 27.775 52.7336 27.75C52.8961 28.1875 52.3336 28.6 52.1086 28.7875C51.6461 28.65 51.2336 28.825 50.1836 27.5125C50.2461 26.6875 50.4711 26.3 50.4586 26.2625V26.275ZM52.3336 22.7875C52.5086 22.2375 52.8711 21.7875 53.1711 21.75C53.0961 21.325 53.8336 19.45 55.9586 18.7375C56.0836 19.7 55.0461 20.6375 55.0461 20.6375C55.0461 20.6375 58.1836 20.1 58.8211 19.3C58.7586 19.6625 58.1211 21.8875 54.7711 21.875C56.0461 23.075 54.3711 24.0375 53.6461 23.75C54.9711 22.75 53.2711 22.125 52.3336 22.7875Z" fill="#F5F5F5" stroke="black" stroke-width="0.1125"/>
<path id="Vector_49" d="M53.4082 22C54.0332 21.6 54.2707 21.6 54.7832 21.675C54.4082 21.725 54.4082 21.75 54.4082 21.75C54.4082 21.75 54.3832 21.8 54.6082 22C54.3582 21.9375 54.1207 21.8 53.4082 22Z" fill="#CCCCCD" stroke="#CCCCCC" stroke-width="0.1125"/>
<path id="Vector_50" d="M53.1582 21.75C53.1582 21.75 54.4082 21.075 55.1082 20.625" stroke="black" stroke-width="0.1125"/>
<path id="Vector_51" d="M52.0832 28.7875C52.0832 28.7875 53.8082 29.2625 54.0082 26.7875C53.6332 25.7125 53.1082 23.4125 53.9082 22.7375C53.1707 22.2375 52.3832 22.75 52.3832 22.75C52.3332 22.875 51.6832 23.8 52.5582 25.425C50.4707 24.875 51.3207 26.8375 51.3207 26.8375C51.4082 26.525 52.5082 26.2375 52.7832 27.8125C52.9082 28.2 52.0332 28.8125 52.0832 28.7875V28.7875Z" fill="#0000FF" stroke="black" stroke-width="0.1125"/>
<path id="Vector_52" d="M54.0213 26.8125C54.0213 26.8125 55.8463 25.825 55.7963 23.5375C54.2463 23.5625 53.6963 25.575 53.6963 25.575L54.0213 26.8125Z" fill="#0000FF" stroke="black" stroke-width="0.1125"/>
<path id="Vector_53" d="M45.8588 26.6875C45.8588 26.6875 44.5088 27.8625 43.7338 27.4875C43.1713 27.8375 42.5088 27.2375 42.5088 27.2375C42.5088 27.2375 43.2838 30.1125 46.0838 28.025C46.0547 27.5726 45.9793 27.1245 45.8588 26.6875V26.6875Z" fill="#F5F5F5" stroke="black" stroke-width="0.1125"/>
<path id="Vector_54" d="M43.7216 27.4375C43.8466 26.8375 44.3091 26.55 44.6841 27.1125C45.1841 27.2125 45.6841 25.15 43.8966 25.4875C44.3966 22.7875 42.8966 21.775 42.8966 21.775C42.8966 21.775 42.3591 24.775 42.5966 25.325C42.8466 25.875 42.2466 24.3 40.3091 23.8625C40.2716 26.1125 42.4716 27.175 42.4716 27.175C42.4716 27.175 43.0966 27.75 43.7216 27.4375V27.4375Z" fill="#0000FF" stroke="black" stroke-width="0.1125"/>
<path id="Vector_55" d="M42.6212 25.375C42.6212 25.375 42.4212 26.075 42.8462 27.0625M43.8962 25.475C43.8962 25.475 43.0587 26.1875 43.2462 27.1625L43.8962 25.475Z" stroke="black" stroke-width="0.1125"/>
<path id="Vector_56" d="M42.4961 27.3C42.4961 27.3 42.8711 26.6625 43.7211 27.475" stroke="black" stroke-width="0.1125"/>
<path id="Vector_57" d="M42.6461 22.9C42.6461 22.8875 41.3586 22.9 42.1336 24.2C41.5586 24.3875 40.2836 23.55 41.1711 22.45C38.2961 22.375 37.1211 21 37.1211 19.725C37.9586 20.6 39.9836 20.25 40.6961 20.7875C39.8211 19.975 39.9961 18.85 39.9961 18.85C39.9961 18.85 42.4586 19.5875 42.8961 21.7625C42.7461 22.1875 42.6836 22.9375 42.6461 22.9Z" fill="#F5F5F5" stroke="black" stroke-width="0.1125"/>
<path id="Vector_58" d="M40.6709 20.725C41.1459 21.2125 42.3584 21.35 42.9834 21.8875" stroke="black" stroke-width="0.1125"/>
<path id="Vector_59" d="M41.2334 22.15C41.2334 22.15 42.2334 22.025 42.5334 22.375C42.1334 22.375 42.0084 22.2875 41.4334 22.5C41.5959 22.4125 41.5584 22.2625 41.6459 22.2625C41.7334 22.2625 41.2709 22.15 41.2334 22.15V22.15Z" fill="#CCCCCD" stroke="#CCCCCC" stroke-width="0.075"/>
<path id="Vector_60" d="M46.2582 14.25C46.2582 14.25 46.8082 13.775 47.4207 14.2125C47.1457 15.025 46.1707 14.7125 46.1707 14.7125C46.1707 14.7125 46.1957 15.125 46.0957 15.3125C46.2957 15.4625 46.4582 15.95 46.4582 15.95C46.4582 15.95 47.4582 15.7 47.6832 16.15C48.0582 16.1 48.3457 16.15 48.3457 16.15C48.3457 16.15 49.1207 15.95 49.3957 15.95C49.6832 15.95 50.5582 16.175 50.6457 16.3375C50.7207 16.5 51.0207 17.5875 51.2082 17.5875C51.4082 17.5625 50.7332 17.8375 50.5582 17.5625C50.3832 17.2875 50.4332 17.925 50.4332 17.925C50.4332 17.925 50.9832 18.5125 51.0457 18.6375C51.1082 18.7625 50.7082 19.825 51.0082 20.5625C50.7457 20.5875 50.7207 20.8625 50.7207 20.8625C50.7082 21.1875 50.2957 21.275 50.2957 21.275L50.1957 20.8375L49.9207 21L50.0457 20.65C50.0457 20.65 50.4207 19.75 50.4457 19.45C50.4707 19.1625 50.0957 18.6375 49.8082 18.6375C49.5207 18.6375 49.3082 19.5625 49.3082 19.5625C49.3082 19.5625 49.1582 20.2625 49.2082 20.325L49.0082 20.1C49.0082 20.1 48.8832 20.525 48.7832 20.65C48.6832 20.775 48.4707 20.8375 48.4707 20.8375C48.4707 20.8375 48.3332 20.4125 48.3707 20.25C48.4207 20.0875 49.1707 19.45 49.1207 19C49.0457 18.5375 49.1207 18.65 49.0957 18.6375C49.0707 18.625 48.7082 18.3 48.6832 18.1125C48.6707 17.9375 48.1957 18.35 47.5832 18.2125C47.3957 18.55 47.3707 19.375 47.3707 19.375C47.3707 19.375 47.3082 20.3625 47.4332 20.475C47.5582 20.6 47.1082 20.8375 47.1082 20.8375L46.7832 21.275L46.6582 21.025L46.4457 21.175L46.5707 20.85C46.5707 20.6 46.8832 19.925 46.8832 19.35C46.8832 18.7875 46.9332 18.1875 46.9332 18.1875C46.9332 18.1875 46.3207 18.15 46.3457 18.7625C46.3582 19.3875 46.1957 19.425 46.2207 19.6C46.2582 19.775 46.4207 20.275 46.3707 20.425C46.3207 20.575 46.1207 20.625 46.1207 20.625L46.0832 20.7C46.0832 20.7 45.4832 20.975 45.4957 21.1L45.4832 20.775L45.4457 20.3C45.4457 20.3 45.8082 20.075 45.8082 19.5C45.8082 18.925 45.7207 18.85 45.7457 18.725C45.7457 18.6 45.8332 18.1125 45.8207 18.0625C45.8082 18.025 45.4832 18.1875 45.3832 18.1875C45.2832 18.1875 45.5582 17.8625 45.5957 17.6125C45.6207 17.3625 45.2707 17.8375 44.9707 17.5625C45.1082 17.2625 45.3207 17.175 45.3457 16.9375C45.3832 16.7125 45.1207 17.1375 44.8957 16.975C44.9082 16.7625 45.1457 16.575 45.1457 16.575C45.1457 16.575 44.9582 16.55 44.8832 16.575C44.7332 16.525 45.0457 16.3 45.0582 15.9625C45.0707 15.6375 44.8832 15.5125 44.8832 15.5C44.8832 15.475 44.5582 15.2 44.5082 15.0875C44.4582 14.975 44.4582 14.8375 44.4582 14.8375C44.4582 14.8375 43.9207 15.2375 43.2832 14.4125C43.8582 13.9125 44.4832 14.2875 44.4832 14.2875C44.4832 14.2875 44.6457 13.825 45.3957 13.85C46.1457 13.8875 46.2957 14.3125 46.2707 14.2625L46.2582 14.25Z" fill="#923F00" stroke="black" stroke-width="0.1125"/>
<path id="Vector_61" d="M50.3588 22.675C50.3588 22.675 51.7338 22.7125 51.7463 23.45C51.7588 24.1875 51.3338 23.9875 51.3213 23.9875L50.3213 23.8625L50.3588 22.675Z" fill="#0000FF" stroke="black" stroke-width="0.1125"/>
<path id="Vector_62" d="M49.0215 22.475C49.0215 22.475 50.734 22.4625 50.6465 23.2C50.5465 23.95 50.109 23.8 50.109 23.8L49.284 23.7375L49.0215 22.475Z" fill="#FFFEFF" stroke="black" stroke-width="0.1125"/>
<path id="Vector_63" d="M48.0584 22.3875L49.0584 22.475C49.0584 22.475 49.6459 22.55 49.6209 23.125C49.5959 23.7 49.0084 23.7125 49.0084 23.7125L48.0459 23.65L48.0584 22.3875Z" fill="#0000FF" stroke="black" stroke-width="0.1125"/>
<path id="Vector_64" d="M45.7457 22.675C45.7332 22.675 44.3707 22.7125 44.3457 23.45C44.3457 24.1875 44.7707 23.9875 44.7832 23.9875L45.7832 23.8625L45.7457 22.675Z" fill="#F5F5F5" stroke="black" stroke-width="0.1125"/>
<path id="Vector_65" d="M47.0708 22.475C47.0708 22.475 45.3708 22.4625 45.4583 23.2C45.5583 23.95 45.9958 23.8 45.9958 23.8L46.8208 23.7375L47.0708 22.475Z" fill="#0000FF" stroke="black" stroke-width="0.1125"/>
<path id="Vector_66" d="M48.0331 22.3875L47.0456 22.475C47.0456 22.475 46.4456 22.55 46.4831 23.125C46.5081 23.7 47.0831 23.7125 47.0831 23.7125L48.0456 23.65L48.0331 22.3875Z" fill="#F5F5F5" stroke="black" stroke-width="0.1125"/>
<path id="Vector_67" d="M50.6832 30.625C50.6832 30.625 51.3957 29.575 51.6957 29.6875C51.9582 29.775 51.7582 30.5875 51.6332 30.6625L50.6832 30.625ZM45.8082 30.8125C45.5832 30.5 45.2582 29.6375 44.9582 29.875C44.7082 29.9625 44.8957 30.775 45.0207 30.85L45.8082 30.8125Z" fill="#5E0043" stroke="black" stroke-width="0.1125"/>
<path id="Vector_68" d="M46.2832 28.7375C46.2832 28.7375 47.6582 29.5875 48.1207 29.6125C48.5832 29.6375 50.0207 28.5 50.0207 28.5" stroke="black" stroke-width="0.1125"/>
<path id="Vector_69" d="M46.4209 25.375L46.6709 25.05L48.0084 25.725L49.3709 25.125L49.6209 25.4125L48.1209 26.475L46.4209 25.375Z" fill="#5E0043" stroke="black" stroke-width="0.1125"/>
<path id="Vector_70" d="M45.3588 25.375C45.4713 25.5 46.3213 26.55 46.4838 27.4125C46.6338 28.2875 46.3963 26.225 46.3963 26.225C46.3963 26.225 47.4588 26.75 47.4963 27.0875C47.5213 27.4125 47.9963 27.0625 48.0213 27L44.9463 25L45.3588 25.375ZM50.6213 25.3125C50.6213 25.3125 49.4963 26.7875 49.6213 28.3875C49.3963 27.625 49.5838 26.35 49.5838 26.35L49.3338 26.5125C49.3338 26.5125 49.0838 27.5875 48.7713 27.7625C48.7088 27.6375 48.7213 27.5875 48.7213 27.5875C48.7213 27.5875 48.3838 28.025 48.3088 28.075C48.2463 28.1125 48.3338 29.575 48.3338 29.575C48.3338 29.575 48.4588 30.625 48.5838 30.6125C48.4687 30.6701 48.3561 30.7327 48.2463 30.8L48.1088 27.9875L48.4213 27.675C48.4213 27.675 48.8463 27.1625 48.8713 26.6625C48.7621 26.7553 48.6342 26.8235 48.4963 26.8625C48.4963 26.8625 48.4338 27.575 48.2713 27.675C48.0963 27.775 48.0963 27.95 48.0963 27.95L48.0588 27.025L50.6213 25.3125Z" fill="#474747" stroke="#474747" stroke-width="0.1125" stroke-linejoin="round"/>
<path id="Vector_71" d="M48.0586 27.0125L48.2711 31.45" stroke="black" stroke-width="0.1125" stroke-linecap="round"/>
<path id="Vector_72" d="M45.334 29.125C45.334 29.125 45.834 29.4375 46.0215 30.3375C47.6965 30.2125 48.209 30.8125 48.209 30.8125C48.209 30.8125 49.584 30.15 50.209 30.275C50.4413 29.8828 50.7274 29.5252 51.059 29.2125" stroke="black" stroke-width="0.1125"/>
<path id="Vector_73" d="M44.6214 24.7875L48.0589 27.0375L51.1339 24.95C51.1339 24.95 51.7839 24.6 51.7214 24.35C51.6714 24.1 51.4464 24.1875 51.3464 24.225C51.2214 24.275 48.1089 26.475 48.1089 26.475L44.7964 24.3875C44.7964 24.3875 44.5464 24.3125 44.5089 24.4625C44.4589 24.625 44.5964 24.7125 44.6339 24.7875H44.6214Z" fill="#B4B6B9" stroke="black" stroke-width="0.1125"/>
<path id="Vector_74" d="M50.7465 24.2C50.7465 24.2 49.8715 23.825 49.8715 24.15C49.8715 24.475 49.909 24.5125 50.0465 24.7125C50.184 24.925 49.934 25.05 49.934 25.05L49.859 24.825C49.809 24.6875 49.334 24.575 49.2965 24.425C49.2465 24.25 49.3965 23.9875 49.109 23.9625C48.834 23.925 48.559 24.075 48.4965 24.4C48.4465 24.7125 48.084 25.475 48.084 25.475L48.1215 23.7625C48.7465 23.8 49.8965 23.9375 50.7715 24.0375C50.509 24 50.8715 24.0625 50.859 24.15C50.834 24.225 50.7465 24.225 50.759 24.2H50.7465ZM47.659 23.775C47.4965 23.775 46.709 23.8625 46.5215 23.9875C46.3215 24.1 46.834 24.275 46.7715 24.4375C46.709 24.5875 46.6965 24.9125 46.4465 24.8375C46.1965 24.775 45.3715 24.3625 45.3465 24.2125C45.3215 24.0875 45.1465 24.075 45.1465 24.075C45.1465 24.075 47.5465 23.75 47.6465 23.775H47.659Z" fill="#474747" stroke="#474747" stroke-width="0.1125" stroke-linejoin="round"/>
<path id="Vector_75" d="M46.4211 21.1L45.4336 22.7125M48.0336 23.575V25.675V23.575Z" stroke="black" stroke-width="0.1125"/>
<g id="Vector_76">
<path d="M48.1836 21.0625C48.1836 21.0625 48.6086 21.6375 48.5586 21.8C48.7159 21.9988 48.8384 22.2228 48.9211 22.4625" fill="url(#paint3_linear_2909_185423)"/>
<path d="M48.1836 21.0625C48.1836 21.0625 48.6086 21.6375 48.5586 21.8C48.7159 21.9988 48.8384 22.2228 48.9211 22.4625" stroke="black" stroke-width="0.1125"/>
</g>
<path id="Vector_77" d="M49.7964 20.975C49.7964 20.975 48.8964 22.2375 48.9214 22.3375" stroke="black" stroke-width="0.1125"/>
<path id="Vector_78" d="M45.1713 14.9125C45.1588 14.9875 45.0463 15.0125 44.9213 14.975C44.7963 14.9375 44.7088 14.85 44.7338 14.775C44.7588 14.7 44.8588 14.675 44.9838 14.7125C45.1088 14.75 45.1963 14.8375 45.1713 14.9125ZM45.5338 14.875C45.5588 14.9625 45.6713 14.9875 45.7963 14.95C45.9213 14.9125 45.9963 14.825 45.9838 14.75C45.9588 14.675 45.8463 14.65 45.7338 14.6875C45.6088 14.725 45.5213 14.8125 45.5338 14.8875V14.875Z" fill="black"/>
<path id="Vector_79" d="M56.1215 41.275C56.1215 41.275 55.7715 41.3375 55.784 41.375C55.7965 41.4 54.809 41.4375 54.784 41.4C54.7715 41.375 54.6465 41.575 54.6465 41.575L54.7965 41.475C54.7965 41.475 55.0465 41.725 55.1215 41.7C55.184 41.6875 55.084 41.8 55.109 41.825C55.1215 41.8375 55.1965 41.775 55.1965 41.775L56.8215 41.75L56.1215 41.275ZM56.7215 41.7875L55.384 41.825C55.384 41.825 55.059 42.125 55.034 42.2C55.009 42.275 55.2465 42.2875 55.2465 42.2875L55.3215 42.5375L55.4965 42.475C55.4965 42.475 56.6215 42.65 57.659 42.4125C58.184 42.2375 58.284 42.0125 57.909 41.875C57.534 41.75 56.7215 41.7875 56.7215 41.7875Z" fill="#FF7000" stroke="black" stroke-width="0.1125" stroke-linejoin="round"/>
<path id="Vector_80" d="M52.1715 44.5L54.5465 44.4L54.109 44.025L60.584 43.7625L60.359 43.25L53.109 43.5375L53.984 43.95L52.034 44L52.084 44.2125L51.584 44.1875C51.584 44.1875 52.1465 44.4125 52.1715 44.5125V44.5Z" fill="url(#paint4_linear_2909_185423)" stroke="black" stroke-width="0.1125"/>
<path id="Vector_81" d="M54.8465 31.3C54.659 31.2 53.8215 31.0875 52.8965 31.7L52.934 33.8375C52.934 33.8375 54.2965 33.1 54.959 33.275C54.9215 32.6125 54.9215 31.75 54.8465 31.3V31.3Z" fill="url(#paint5_linear_2909_185423)" stroke="black" stroke-width="0.1125"/>
<path id="Vector_82" d="M41.1961 43.725L40.6086 44.5M41.6211 37.8125L35.9961 43.4125L41.6211 37.8125ZM44.1336 37.85L39.5586 43.8875L44.1336 37.85ZM43.9336 36.2875L37.8211 43.675L43.9336 36.2875ZM37.6336 43.575L38.2336 42.8875L37.6336 43.575ZM45.0961 40L42.7211 43.275L45.0961 40ZM42.6211 43.7L42.6836 44.95L42.6211 43.7ZM46.1836 41.15L43.6711 44.2875L46.1836 41.15ZM45.7336 44.05L46.7461 42.375L45.7336 44.05ZM46.1211 42.05L44.8961 43.425L46.1211 42.05ZM45.7461 40.7375L44.9086 41.7625L45.7461 40.7375ZM44.6711 39.25C44.6711 39.25 42.1086 42.9875 42.1586 43.2875L44.6711 39.25ZM44.4086 38.75C44.3461 38.8 42.1961 41.625 42.1961 41.625L44.4086 38.75ZM42.0711 42.5375L41.6961 43L42.0711 42.5375Z" stroke="black" stroke-width="0.0855039"/>
<path id="Vector_83" d="M41.3465 29.2125C41.3465 29.2125 41.1715 29.75 41.3465 30.025C41.5215 30.3 42.5965 32.5 42.5965 32.5C42.5965 32.5 43.3465 31.5875 43.6215 31.5625C43.8965 31.5375 43.7715 33.9375 43.7715 33.9375C43.7715 33.9375 43.3215 34.35 43.0465 34.325C42.784 34.3 43.7215 35.2625 43.6965 36.075C43.6715 36.9 42.4465 40.95 42.009 41.025C41.5715 41.1 42.209 40.275 42.184 40.0625C42.159 39.8375 42.034 39.9875 41.934 39.7375C41.834 39.4875 42.084 39.1125 42.034 38.8625C41.984 38.625 41.7715 38.675 41.7465 38.5C41.7215 38.325 41.884 38.275 41.8715 38.0875C41.834 37.8875 41.5715 37.9375 41.5965 37.7625C41.6215 37.5875 41.6465 37.6625 41.6215 37.3375C41.5965 37.025 41.5465 37.5625 41.2715 37.5875C40.9965 37.6125 40.7715 38.2375 40.7715 38.2375C40.7715 38.2375 40.234 38.9875 39.684 38.65C40.009 39.35 39.759 39.65 39.634 39.6625C39.509 39.6875 39.734 40.2125 39.4465 40.2375C39.1465 40.2625 39.659 41.4 39.3215 41.4875C39.6965 41.6625 39.3965 41.8875 39.3965 41.8875C39.3965 41.8875 38.534 41.9625 38.7215 43.075C36.209 42.1875 34.9715 40.65 34.9965 39.1C35.0215 37.5375 35.509 36.125 36.7215 35.6C37.0715 34.325 37.659 32.9375 37.659 32.9375C37.659 32.9375 37.559 32.375 37.634 32C37.709 31.625 38.059 31.25 38.059 31.25C38.059 31.25 38.009 30.375 38.034 29.925C38.059 29.475 38.234 29.2875 38.259 29.0375C38.284 28.7875 38.184 27.5375 38.434 27.3C38.684 27.0875 39.1465 27.1125 39.3965 26.9625C39.6465 26.8125 39.959 26.5375 40.2715 26.5625C40.609 26.5875 40.8715 26.8125 40.8715 26.8125C40.8715 26.8125 42.084 26.8125 42.159 27.275C42.234 27.75 41.909 27.925 41.909 27.925C41.909 27.925 42.084 28.5875 41.3465 29.2125V29.2125Z" fill="#8A9396" stroke="#2B2B2B" stroke-width="0.1125"/>
<path id="Vector_84" d="M40.2708 27.5C40.3083 27.5625 40.2208 27.6875 40.0708 27.775C39.9208 27.85 39.7708 27.8625 39.7333 27.775C39.6958 27.7125 39.7833 27.5875 39.9333 27.5125C40.0833 27.4375 40.2333 27.425 40.2708 27.5Z" fill="#CECFCF" stroke="#2B2B2B" stroke-width="0.1125"/>
<path id="Vector_85" d="M40.0588 27.625C40.0588 27.6625 40.0213 27.7 39.9713 27.7C39.9213 27.7 39.8838 27.6625 39.8838 27.625C39.8838 27.575 39.9213 27.5375 39.9713 27.5375C40.0213 27.5375 40.0588 27.575 40.0588 27.625Z" fill="black"/>
<path id="Vector_86" d="M42.1336 27.5125C42.1336 27.5125 42.4586 27.7375 42.5336 27.9625M41.8711 28.4375C41.8711 28.4375 42.1711 29.775 41.8086 30.7L41.8711 28.4375ZM41.9586 27.85C41.9586 27.85 42.5461 28.625 42.4711 29.6L41.9586 27.85ZM42.0211 27.6875C42.0336 27.6875 42.5211 28.1 42.4961 28.3875L42.0211 27.6875Z" stroke="#2B2B2B" stroke-width="0.05"/>
<path id="Vector_87" d="M41.9832 27.375C41.9832 27.375 40.8332 29.25 40.9832 30.425" stroke="black" stroke-width="0.1125"/>
<path id="Vector_88" d="M42.0586 27.325C42.0586 27.325 40.5336 28.225 40.2461 31.2" stroke="#2B2B2B" stroke-width="0.05"/>
<path id="Vector_89" d="M41.8832 27.875L41.2832 28.325" stroke="black" stroke-width="0.1125"/>
<path id="Vector_90" d="M39.6836 31.375C39.6836 31.375 40.5336 27.8375 42.0336 27.325" stroke="#2B2B2B" stroke-width="0.05"/>
<path id="Vector_91" d="M42.6209 32.5625C42.6209 32.5625 43.4334 31.5375 43.6209 31.575C43.8209 31.6125 43.7584 33.9375 43.7584 33.9375C43.7584 33.9375 43.1584 34.3875 43.0209 34.375C42.8959 34.35 43.6959 35.4625 43.6834 35.875L43.6459 36.3C43.6459 36.3 43.6459 36.05 43.4584 35.65C43.2709 35.2625 43.3834 34.8 42.1584 33.8C41.8459 33.175 42.7584 34.175 42.9459 34.025C43.1334 33.875 42.6084 32.575 42.6209 32.5625V32.5625Z" fill="#2B2B2B" stroke="#2B2B2B" stroke-width="0.1125"/>
<path id="Vector_92" d="M41.1836 26.8125C41.1836 26.8125 40.8336 26.9 40.7961 27.05C40.7461 27.175 40.5461 27.325 40.4336 27.275C40.3211 27.225 40.1211 27.0625 40.1211 27.0625" stroke="#2B2B2B" stroke-width="0.1125"/>
<path id="Vector_93" d="M39.246 28C39.246 28 38.7335 28.525 38.971 28.5875C39.221 28.6375 39.4835 28.175 39.4835 28.175C39.4835 28.175 39.4835 28.975 39.7085 28.85C39.921 28.725 40.5585 28.275 40.5585 28.275C40.5585 28.275 40.7835 28.25 40.821 28.275C40.871 28.275 41.4085 28.75 41.771 28.5875C41.571 29.1125 41.3335 29.175 41.3335 29.175C41.3335 29.175 40.9585 29.65 40.4835 29.55C39.996 29.425 39.871 29.2375 39.871 29.2375C39.871 29.2375 39.471 29.2625 39.346 29.075C39.221 28.8875 39.1835 28.7875 39.1835 28.7875C39.1835 28.7875 38.946 29.0125 38.8835 28.9125C38.821 28.7875 38.8835 28.1625 39.246 28.0125V28Z" fill="#2B2B2B" stroke="#2B2B2B" stroke-width="0.1125" stroke-linejoin="round"/>
<path id="Vector_94" d="M42.1465 27.2875C42.1465 27.2875 41.1965 27.0125 40.8715 27.475C40.5465 27.95 40.6215 28.2125 40.7965 28.25" stroke="#2B2B2B" stroke-width="0.1125"/>
<path id="Vector_95" d="M42.2836 27.2625C42.2836 27.3875 42.2086 27.4625 42.1086 27.4625C42.0086 27.4625 41.9336 27.375 41.9336 27.2625C41.9336 27.15 42.0086 27.0625 42.1086 27.0625C42.2086 27.0625 42.2836 27.15 42.2836 27.2625Z" fill="black"/>
<path id="Vector_96" d="M39.5338 29.6875C39.5338 29.6875 39.9088 30.275 40.3838 30.4375C40.8463 30.6 40.0588 30.75 39.5963 30.4375C39.2713 29.975 39.3463 29.65 39.3463 29.65C39.3463 29.65 39.4463 29.5625 39.5338 29.6875ZM42.8338 33.1875C42.8338 33.1875 41.7588 31.6875 41.4463 31.6C41.1338 31.5125 41.6838 31.45 42.0088 31.775C42.3463 32.0875 41.9213 31.25 41.9213 31.25L42.8338 33.1875Z" fill="#2B2B2B" stroke="#2B2B2B" stroke-width="0.1125"/>
<path id="Vector_97" d="M39.4337 41.9C39.8462 41.7875 41.6587 42.9375 42.0587 43.225C42.4712 43.5125 43.3337 43.3375 43.3337 43.3375C43.3337 43.3375 42.9337 43.575 42.6837 43.625C42.4337 43.6875 43.4212 43.6875 43.4212 43.6875C43.4212 43.6875 41.0962 44.325 38.7462 43.0875C38.5337 42.125 39.2462 41.9125 39.4337 41.9Z" fill="#2B2B2B" stroke="#2B2B2B" stroke-width="0.1125" stroke-linejoin="round"/>
<path id="Vector_98" d="M42.0832 33.5625C42.0832 33.5625 41.7707 33.5 41.6207 33.3125C41.4582 33.15 41.2457 32.7 41.0082 32.525C40.7832 32.3375 39.6332 31.7 39.2082 31.75C38.7957 31.7875 38.6707 31.7 38.6207 31.65C38.5707 31.6 38.3957 31.675 38.4207 31.9C38.4582 32.1 38.1082 32.575 38.2332 32.8C38.3582 33.025 38.9582 33.925 39.0707 33.9625C39.1957 33.9875 39.1207 34.4875 39.1207 34.4875C39.1207 34.4875 39.6457 35.025 39.7832 35.05C39.9082 35.0875 40.0457 35.175 40.0332 35.3C40.0207 35.425 39.4457 36.125 39.4457 36.125C39.4457 36.125 38.8457 36.4375 38.8332 36.625C38.8332 36.8 38.9832 37.1625 39.4582 37.2875C40.0783 37.3887 40.7127 37.3589 41.3207 37.2C41.4137 36.9266 41.456 36.6386 41.4457 36.35C41.3957 36.2875 41.0707 36.0875 40.9082 36.1125C40.7457 36.15 40.6082 36.275 40.6207 36.3125C40.6207 36.3375 40.3832 36.4625 40.3832 36.35C40.3832 36.225 40.8707 35.6875 40.9082 35.725C40.9582 35.775 41.6457 35.85 41.7707 36.1875C41.8957 36.525 41.8957 36.775 42.2457 36.7375C42.6082 36.7 43.1082 36.3625 43.1457 35.6875C43.1957 35.0125 42.7457 34.55 42.6457 34.475C42.5207 34.4125 42.1457 34.1875 42.1207 34.0875C42.0957 33.9875 42.0207 33.6375 42.0832 33.5625V33.5625Z" fill="#2B2B2B" stroke="#2B2B2B" stroke-width="0.1125"/>
<path id="Vector_99" d="M35.659 36.575C35.659 36.575 36.809 36.275 37.109 36.2875C37.3965 36.2875 38.5215 36.8125 38.859 37.1375C39.1715 37.45 39.8465 38.2125 40.284 38.1375C40.7215 38.075 40.8465 37.9875 40.8465 37.9875L40.6715 38.3125C40.6715 38.3125 40.3215 38.4125 40.1465 38.3625C39.959 38.325 39.6215 38.2125 39.2715 37.8625C38.9215 37.525 37.8465 36.6125 36.9215 36.675C36.009 36.7375 35.484 37.6375 35.484 37.6375C35.484 37.6375 35.484 37.2 35.534 37.1C35.5715 37 35.334 37.3125 35.334 37.3125L35.659 36.575Z" fill="#2B2B2B" stroke="#2B2B2B" stroke-width="0.1125"/>
<path id="Vector_100" d="M39.8963 37.4625C39.8963 37.4625 40.1838 37.55 40.6588 37.55C41.1338 37.55 41.3963 37.3375 41.3963 37.3375L41.3588 37.15L41.4338 36.9C41.4338 36.9 41.8088 37.275 41.7963 37.3375C41.7838 37.4125 41.6463 37.45 41.6463 37.45L41.5963 37.2625L41.4713 37.425C41.4713 37.425 40.7713 37.975 40.3963 37.8875C40.0213 37.8125 39.6713 37.5625 39.7713 37.5125C39.8588 37.45 39.9088 37.4625 39.8963 37.4625ZM38.2213 38.4375C38.2213 38.4375 37.8088 38.4375 37.6213 38.525C37.4338 38.6125 37.3713 38.725 37.2463 38.7C37.1213 38.7 37.0213 38.525 37.0588 38.45C37.1088 38.3625 37.3463 38.225 37.8088 38.2625C38.2838 38.3 38.2213 38.4375 38.2213 38.4375V38.4375ZM39.6713 39.5625C39.6713 39.55 39.6463 38.9625 39.4213 38.725C39.3401 38.6369 39.2378 38.5712 39.124 38.534C39.0102 38.4968 38.8887 38.4894 38.7713 38.5125C38.6463 38.5375 39.2463 38.8 39.3088 38.975C39.3588 39.15 39.5588 39.625 39.5088 39.7375C39.4463 39.8625 39.3588 39.4 38.9963 39.275C38.6213 39.15 38.1213 39.225 38.2213 39.3875C38.3338 39.55 38.7338 39.3875 38.9463 39.75C39.1588 40.1 39.3213 40.4625 39.3213 40.4625L39.3838 40.2125L39.5588 40.1625L39.5838 39.675L39.6713 39.5625Z" fill="#2B2B2B" stroke="#2B2B2B" stroke-width="0.1125"/>
<path id="Vector_101" d="M39.3712 41.4625L38.9962 40.7125C38.9962 40.7125 38.8712 40.225 38.5587 40.0875C38.2462 39.9625 37.8087 39.9875 37.8087 40.15C37.8087 40.3125 38.4962 40.525 38.5337 40.6125C38.5837 40.7 38.5587 40.85 38.4962 40.8625C38.4462 40.8625 38.1337 40.7375 37.9837 40.775C37.8212 40.8125 37.7337 41.025 37.5087 40.9625C37.2712 40.9 37.0837 40.1625 37.1712 40.0875C37.2587 40.0125 36.9962 40.2125 36.9462 40.025C36.8962 39.8375 37.0212 39.2375 36.9462 39.15C36.8462 39.0875 36.4087 38.825 36.4087 38.775C36.4087 38.725 36.4337 35.8125 38.8587 38.225C37.8212 36.9875 37.4087 37.125 37.2212 37.1125C37.0712 37.1125 36.1337 37.2 35.8962 38.4C35.6462 39.6 35.3712 38.85 35.3712 38.85C35.3712 38.85 35.3212 39.375 35.5712 39.525C35.8212 39.675 35.4462 40.1 35.4462 40.1C35.4462 40.1 35.0087 39 35.0712 38.5125C34.9671 39.3418 35.1431 40.1821 35.5712 40.9C36.3797 41.8233 37.3947 42.5428 38.5337 43C39.4212 41.65 39.3837 41.4875 39.3837 41.4625H39.3712Z" fill="#2B2B2B" stroke="#2B2B2B" stroke-width="0.1125" stroke-linejoin="round"/>
<path id="Vector_102" d="M37.7837 41.475C37.7837 41.475 38.2837 41.5375 38.4087 41.7875C38.5462 42.0375 38.6087 42.425 38.6087 42.425C38.6837 42.2625 38.7337 42.125 38.8837 42C39.0462 41.875 39.1712 41.875 39.1587 41.775C39.1587 41.6875 38.6462 41.15 38.3837 41.125C38.1337 41.0875 37.6712 41.4 37.6712 41.4C37.6712 41.4 37.5837 41.525 37.7962 41.475H37.7837Z" fill="#8A9396" stroke="#2B2B2B" stroke-width="0.1125" stroke-linejoin="round"/>
<path id="Vector_103" d="M38.9082 42.75C38.9082 42.75 40.1832 43.3375 42.2707 43.375" stroke="#8A9396" stroke-width="0.10688" stroke-linecap="round"/>
<path id="Vector_104" d="M43.1457 36.8625C43.1457 36.8625 43.0332 37.925 42.2207 40.025" stroke="#2B2B2B" stroke-width="0.10688" stroke-linecap="round"/>
<path id="Vector_105" d="M42.9961 37.5125C42.9961 37.5125 42.7461 38.275 42.0586 38.85" stroke="#2B2B2B" stroke-width="0.1125"/>
<path id="Vector_106" d="M39.2715 50.75L39.4965 50.5L39.559 50.5625L39.5465 50.5875L39.5215 50.6125V50.625L39.5465 50.65L39.834 50.9L39.859 50.925H39.8715L39.8965 50.9125L39.9465 50.825C39.9548 50.7917 39.9548 50.7583 39.9465 50.725C39.9465 50.7 39.934 50.6667 39.909 50.625L39.9965 50.575L40.1215 50.8125L39.784 51.1875L39.709 51.1375L39.734 51.1125L39.7465 51.0875V51.0625L39.7215 51.0375L39.434 50.7875L39.409 50.7625H39.384L39.3715 50.7875L39.3465 50.8125L39.2715 50.75V50.75ZM39.7465 50.2125L40.159 49.8125L40.359 49.9125L40.3215 49.9875L40.2215 49.975H40.1465L40.084 50.0375L40.009 50.1125L40.134 50.2375L40.1465 50.2125L40.184 50.1625V50.1375L40.159 50.1L40.134 50.0875L40.1965 50.025L40.3965 50.225L40.3465 50.2875L40.3215 50.2625L40.284 50.2375H40.259L40.2215 50.275L40.1965 50.3L40.309 50.4125L40.3215 50.425H40.334L40.359 50.4125L40.409 50.3625L40.4715 50.275V50.1875C40.4715 50.1458 40.4632 50.1083 40.4465 50.075L40.534 50.0375L40.659 50.2875L40.234 50.6875L40.1715 50.625V50.6125L40.209 50.575V50.55L40.184 50.525L39.9215 50.2625L39.884 50.2375H39.8715L39.8465 50.25L39.8215 50.275L39.759 50.2125H39.7465ZM40.609 49.4C40.6923 49.325 40.7756 49.2917 40.859 49.3C40.959 49.3 41.0423 49.3417 41.109 49.425C41.1506 49.475 41.1798 49.5333 41.1965 49.6C41.2048 49.6583 41.1965 49.7167 41.1715 49.775C41.1548 49.8333 41.1131 49.8875 41.0465 49.9375C40.9798 49.9958 40.9048 50.025 40.8215 50.025C40.7132 50.025 40.6256 49.9833 40.559 49.9C40.4923 49.8167 40.4631 49.7333 40.4715 49.65C40.4715 49.55 40.5131 49.4667 40.5965 49.4H40.609ZM40.6715 49.475C40.6381 49.5083 40.6215 49.55 40.6215 49.6C40.6215 49.6583 40.6465 49.7167 40.6965 49.775C40.7465 49.8333 40.8006 49.8708 40.859 49.8875C40.909 49.8875 40.9506 49.875 40.984 49.85C41.0256 49.8167 41.0465 49.775 41.0465 49.725C41.0465 49.6667 41.0215 49.6083 40.9715 49.55L40.859 49.4625L40.759 49.4375C40.7257 49.4375 40.6965 49.45 40.6715 49.475V49.475ZM41.3465 48.8L41.3965 48.7625H41.409L41.734 48.55L41.7215 48.525L41.7715 48.4875L41.984 48.6375L41.9215 48.7125L41.8465 48.675H41.709V48.725L41.934 49.0375L41.959 49.075H41.9965L42.0465 49.05L42.0965 49.125L41.8215 49.3125L41.7715 49.2375H41.784L41.8215 49.2V49.175L41.7965 49.1375L41.5715 48.8125L41.559 48.8H41.5465C41.5298 48.8083 41.5173 48.825 41.509 48.85L41.4965 48.925V49.0125L41.409 49.0375L41.3465 48.7875V48.8ZM41.959 48.4L42.4465 48.1L42.6215 48.25L42.559 48.325C42.534 48.3 42.5048 48.2833 42.4715 48.275H42.3965C42.3715 48.275 42.3465 48.2875 42.3215 48.3125L42.234 48.3625L42.3215 48.5125L42.3465 48.4875L42.384 48.4625C42.3923 48.4542 42.3923 48.4458 42.384 48.4375V48.3875L42.359 48.3625L42.434 48.325L42.584 48.575L42.509 48.6125L42.4965 48.5875L42.4715 48.55H42.4465L42.3965 48.575L42.3715 48.5875L42.4465 48.7125L42.459 48.75H42.4715L42.509 48.7375L42.559 48.7C42.5923 48.6833 42.6173 48.6625 42.634 48.6375L42.6715 48.55V48.425H42.759L42.809 48.675L42.309 48.975L42.259 48.9H42.284L42.309 48.8625C42.3173 48.8625 42.3173 48.8542 42.309 48.8375V48.8L42.109 48.4875L42.084 48.45H42.0715L42.034 48.4625L42.009 48.475L41.959 48.4V48.4ZM42.6465 47.9875L43.0215 47.8L43.0965 47.7625L43.1965 47.75L43.2715 47.775L43.334 47.8375C43.359 47.8875 43.359 47.9333 43.334 47.975C43.3173 48.025 43.2923 48.0667 43.259 48.1L43.459 48.175L43.4965 48.1875H43.5465L43.5715 48.1625L43.6215 48.25L43.4215 48.35L43.0965 48.1875L43.0465 48.2125L43.109 48.3375L43.134 48.375H43.184L43.209 48.35L43.259 48.4375L42.959 48.5875L42.9215 48.5125L42.9465 48.4875L42.9715 48.475V48.425L42.784 48.075L42.7715 48.05H42.7215L42.6965 48.075L42.6465 47.9875V47.9875ZM42.9215 47.975L42.9965 48.125L43.0965 48.075L43.159 48.025C43.1756 48.0167 43.184 48.0042 43.184 47.9875V47.925L43.1465 47.9C43.1298 47.8917 43.1131 47.8917 43.0965 47.9L43.0215 47.925L42.9215 47.975ZM43.409 47.6L43.7965 47.425L43.884 47.4H43.9715C44.0048 47.4 44.034 47.4083 44.059 47.425L44.109 47.5C44.1256 47.5417 44.1256 47.5833 44.109 47.625C44.084 47.675 44.0507 47.7167 44.009 47.75L44.209 47.8375L44.2465 47.85H44.309L44.334 47.8375L44.3715 47.9125L44.1715 48L43.8465 47.825L43.7965 47.85L43.859 47.975L43.8715 48.0125H43.9215L43.959 48L43.9965 48.0875L43.684 48.2125L43.6465 48.125H43.6715L43.709 48.1V48.05L43.5465 47.7L43.534 47.6625H43.484L43.459 47.6875L43.409 47.6V47.6ZM43.684 47.6L43.759 47.7625L43.8465 47.7125L43.934 47.675L43.959 47.625V47.575L43.9215 47.5375C43.9048 47.5292 43.8881 47.5292 43.8715 47.5375L43.7965 47.55L43.684 47.6V47.6ZM44.434 47.175L44.584 47.1125L44.959 47.5375L44.9965 47.575H45.0465L45.0715 47.6625L44.7715 47.775L44.7465 47.675H44.759C44.7757 47.675 44.7881 47.6667 44.7965 47.65V47.6375L44.7715 47.6L44.734 47.55L44.5465 47.625V47.7375H44.6215L44.6465 47.8125L44.3965 47.9L44.3715 47.8125L44.409 47.8V47.775L44.4215 47.75L44.434 47.175V47.175ZM44.5465 47.525L44.6715 47.475L44.5465 47.325V47.525V47.525ZM44.9715 46.975L45.259 46.8875L45.484 47.2625V46.825L45.7965 46.7375L45.8215 46.825L45.784 46.8375C45.7673 46.8375 45.759 46.8458 45.759 46.8625V46.9L45.859 47.275L45.8715 47.3125H45.959L45.984 47.3875L45.6715 47.4875L45.6465 47.3875H45.6715L45.6965 47.375L45.709 47.35V47.325L45.584 46.925V47.5125L45.4965 47.5375L45.1965 47.05L45.309 47.45V47.475H45.3965L45.4215 47.55L45.159 47.6375L45.134 47.5375H45.159L45.184 47.525L45.1965 47.5V47.4625L45.084 47.0875V47.0625H44.9965L44.9715 46.975V46.975ZM46.3215 46.625L46.6715 46.5625L46.7965 46.55L46.8715 46.575L46.934 46.6375L46.9715 46.7125C46.9798 46.7708 46.9673 46.8208 46.934 46.8625C46.8923 46.9125 46.834 46.9458 46.759 46.9625L46.634 46.975L46.6715 47.1V47.1375H46.759L46.7715 47.225L46.4465 47.2875L46.434 47.2H46.459L46.4965 47.1875V47.125L46.434 46.75L46.4215 46.725L46.409 46.7125H46.3465L46.3215 46.625ZM46.584 46.6875L46.6215 46.875H46.684L46.759 46.8375C46.7757 46.8292 46.784 46.8167 46.784 46.8V46.7375C46.784 46.7125 46.7715 46.6917 46.7465 46.675H46.584V46.6875ZM47.0465 46.5L47.459 46.4375H47.5465L47.634 46.45C47.6673 46.4667 47.6923 46.4875 47.709 46.5125L47.734 46.5875C47.7423 46.6458 47.7298 46.6917 47.6965 46.725C47.6632 46.7583 47.6215 46.7833 47.5715 46.8L47.734 46.95L47.7715 46.975H47.859V47.075L47.6465 47.1L47.3965 46.8375H47.3465V46.975L47.3715 47.025C47.3881 47.0333 47.4048 47.0333 47.4215 47.025H47.4465L47.459 47.125L47.134 47.1625L47.1215 47.075H47.1465L47.184 47.0625V47L47.1465 46.625V46.6L47.1215 46.5875H47.059L47.0465 46.4875V46.5ZM47.2965 46.575L47.334 46.75L47.434 46.7375L47.5215 46.7125L47.559 46.675V46.625L47.5465 46.575L47.4965 46.55H47.4215L47.2965 46.575ZM48.2715 46.35C48.3798 46.35 48.4673 46.3792 48.534 46.4375C48.6006 46.5042 48.6423 46.5875 48.659 46.6875C48.659 46.7542 48.6423 46.8167 48.609 46.875C48.584 46.925 48.5423 46.9667 48.484 47C48.4423 47.0333 48.3798 47.0542 48.2965 47.0625C48.1965 47.0625 48.1131 47.0375 48.0465 46.9875C47.9631 46.9292 47.9215 46.8458 47.9215 46.7375C47.9215 46.6292 47.9507 46.5417 48.009 46.475C48.0757 46.4 48.159 46.3583 48.259 46.35H48.2715ZM48.2715 46.475C48.2215 46.475 48.1798 46.4917 48.1465 46.525C48.1132 46.575 48.1006 46.6417 48.109 46.725C48.109 46.8 48.1298 46.8583 48.1715 46.9C48.2048 46.9333 48.2465 46.95 48.2965 46.95C48.3465 46.95 48.3881 46.9292 48.4215 46.8875C48.4548 46.8375 48.4673 46.775 48.459 46.7C48.459 46.6417 48.4506 46.6 48.434 46.575C48.4173 46.5333 48.3923 46.5042 48.359 46.4875C48.334 46.4708 48.3048 46.4625 48.2715 46.4625V46.475ZM48.784 46.35H49.259L49.334 46.4L49.384 46.475L49.3965 46.55C49.3965 46.6083 49.3757 46.6583 49.334 46.7C49.2923 46.7417 49.2298 46.7625 49.1465 46.7625H49.0215V46.8875L49.034 46.9125L49.0465 46.925H49.109V47.025H48.784V46.925H48.8465L48.859 46.9125V46.4375H48.784V46.35V46.35ZM49.034 46.4625V46.65H49.1715L49.209 46.6125L49.2215 46.55C49.2215 46.5167 49.209 46.4917 49.184 46.475L49.109 46.4625H49.034V46.4625ZM49.5215 46.35L49.934 46.375C49.9673 46.375 49.9965 46.3833 50.0215 46.4C50.0548 46.4 50.084 46.4125 50.109 46.4375L50.1715 46.5V46.5875C50.1715 46.6375 50.1548 46.6792 50.1215 46.7125C50.0798 46.7375 50.034 46.7542 49.984 46.7625L50.109 46.9375L50.134 46.9625L50.159 46.975H50.1965L50.2215 46.9875V47.075H49.9965L49.7965 46.7625H49.7465L49.734 46.8875V46.9375L49.7465 46.95H49.809V47.05L49.4715 47.025V46.9375H49.5465L49.559 46.925V46.8875L49.5965 46.5125V46.475L49.584 46.4625H49.534L49.509 46.45V46.35H49.5215ZM49.7715 46.475L49.7465 46.6625H49.9465L49.984 46.625C50.0006 46.6167 50.009 46.6042 50.009 46.5875L49.9965 46.5375L49.959 46.5H49.8715L49.759 46.475H49.7715ZM50.3715 46.4125L50.684 46.4625V46.55H50.609L50.584 46.6L50.5465 46.975V47.025H50.584L50.6215 47.0375L50.609 47.1375L50.284 47.0875V47H50.359L50.3715 46.9625L50.4215 46.5875V46.525H50.384L50.3465 46.5125L50.359 46.4125H50.3715ZM51.0715 46.5125L51.2215 46.5375L51.334 47.1L51.3465 47.15L51.3965 47.1625L51.384 47.2625L51.059 47.2L51.0715 47.1125H51.134L51.1465 47.1V47L50.934 46.9625L50.8965 47.025L50.884 47.05V47.0625L50.8965 47.075L50.9465 47.0875L50.934 47.1875L50.6715 47.1375L50.684 47.05H50.7215L50.7465 47.0375L50.7715 47.0125L51.0715 46.5125V46.5125ZM50.984 46.875L51.109 46.9L51.084 46.7L50.984 46.875V46.875ZM51.6215 46.625L51.9215 46.6875L51.934 47.125L52.159 46.75L52.459 46.825L52.434 46.9125H52.3715L52.3465 46.95L52.259 47.325C52.2507 47.3417 52.2507 47.35 52.259 47.35V47.375H52.284L52.3215 47.3875L52.2965 47.4875L51.984 47.4L52.009 47.3125H52.084V47.2875L52.1965 46.875L51.8965 47.375L51.809 47.3625L51.784 46.7875L51.684 47.1875V47.2375H51.7215L51.759 47.25L51.734 47.3375L51.459 47.275L51.484 47.1875H51.559L51.584 47.15L51.6715 46.775V46.725H51.6465L51.609 46.7125L51.634 46.6125L51.6215 46.625ZM52.9965 47L53.334 47.125C53.3757 47.1333 53.409 47.15 53.434 47.175C53.459 47.1917 53.4756 47.2125 53.484 47.2375L53.509 47.3125V47.4C53.484 47.4583 53.4423 47.5 53.384 47.525C53.334 47.5417 53.2715 47.5333 53.1965 47.5L53.084 47.4625L53.0465 47.5875L53.034 47.6125V47.6375H53.0715L53.0965 47.6625L53.0715 47.75L52.759 47.625L52.7965 47.55H52.809L52.8465 47.5625H52.8715L52.884 47.525L53.009 47.1625L53.0215 47.125V47.1125L52.984 47.1L52.959 47.0875L52.9965 47V47ZM53.184 47.1875L53.1215 47.3625L53.1715 47.3875L53.2465 47.4L53.2965 47.3875L53.334 47.3375V47.2625C53.3173 47.2375 53.2923 47.2208 53.259 47.2125L53.184 47.1875V47.1875ZM53.684 47.25L54.059 47.425L54.1465 47.4625L54.209 47.525L54.2465 47.6125L54.2215 47.7C54.2048 47.7417 54.1715 47.7708 54.1215 47.7875C54.0798 47.8042 54.034 47.8042 53.984 47.7875L54.0465 48V48.0375L54.0715 48.0625L54.0965 48.075L54.1215 48.0875L54.084 48.175L53.8965 48.0875L53.809 47.725L53.759 47.7125L53.709 47.8375L53.684 47.875V47.8875L53.7215 47.9125H53.7465L53.709 48.0125L53.409 47.875L53.4465 47.7875L53.4715 47.8H53.534V47.7625L53.6965 47.4125L53.709 47.3875V47.375L53.684 47.35H53.6465L53.684 47.25V47.25ZM53.8715 47.45L53.7965 47.6125L53.884 47.6625L53.9715 47.6875L54.034 47.675L54.059 47.6375C54.0673 47.6208 54.0673 47.6042 54.059 47.5875L54.0465 47.5375L53.9715 47.5L53.8715 47.45V47.45ZM54.809 47.775C54.9006 47.825 54.9631 47.8917 54.9965 47.975C55.0215 48.0667 55.009 48.1583 54.959 48.25C54.9257 48.3083 54.884 48.3542 54.834 48.3875C54.784 48.4208 54.7256 48.4375 54.659 48.4375C54.6006 48.4375 54.5381 48.4208 54.4715 48.3875C54.3881 48.3375 54.3298 48.275 54.2965 48.2C54.2548 48.1083 54.2632 48.0125 54.3215 47.9125C54.3715 47.8208 54.4382 47.7625 54.5215 47.7375C54.6132 47.7042 54.709 47.7167 54.809 47.775V47.775ZM54.759 47.8625C54.709 47.8375 54.6673 47.8375 54.634 47.8625C54.5673 47.8875 54.5173 47.9333 54.484 48C54.4506 48.0667 54.4382 48.1292 54.4465 48.1875C54.4548 48.2375 54.4798 48.275 54.5215 48.3C54.5715 48.3167 54.6173 48.3167 54.659 48.3C54.7173 48.275 54.759 48.2333 54.784 48.175C54.8173 48.1167 54.834 48.0708 54.834 48.0375L54.8215 47.9375C54.8048 47.9042 54.784 47.8792 54.759 47.8625V47.8625ZM55.309 48.0375L55.3715 48.075V48.1L55.684 48.3L55.709 48.2875L55.759 48.3125L55.709 48.5625L55.609 48.5375V48.45L55.5965 48.375L55.559 48.3375H55.5465L55.5215 48.35L55.3215 48.6875L55.2965 48.725V48.7375L55.309 48.75L55.359 48.7875L55.309 48.8625L55.0215 48.6875L55.0715 48.6125H55.0965L55.134 48.6375H55.1465L55.1715 48.6L55.384 48.2625C55.3923 48.2458 55.3923 48.2375 55.384 48.2375V48.225L55.3215 48.2125L55.2465 48.225L55.1715 48.275L55.1215 48.2L55.309 48.0375V48.0375ZM55.9215 48.45L56.384 48.775L56.3215 49L56.234 48.975V48.875L56.209 48.8L56.1465 48.75L56.059 48.6875L55.959 48.8125L55.984 48.8375L56.034 48.8625H56.059L56.0965 48.825V48.8125L56.184 48.8625L56.009 49.0875L55.9465 49.0375V49.0125C55.9632 49.0042 55.9715 48.9917 55.9715 48.975V48.95L55.934 48.9125L55.909 48.9L55.8215 49.025L55.7965 49.05V49.0625L55.8215 49.0875L55.8715 49.1125L55.9715 49.1625C56.0048 49.1708 56.0382 49.1708 56.0715 49.1625L56.1715 49.1125L56.2215 49.1875L56.009 49.35L55.5215 49L55.584 48.925L55.634 48.9625H55.659L55.684 48.925L55.8965 48.625L55.9215 48.5875V48.575L55.8965 48.55L55.8715 48.525L55.9215 48.45V48.45ZM56.684 49.425L56.934 49.625L56.8715 49.7H56.859L56.8215 49.675H56.809L56.784 49.7L56.659 49.8625L56.5715 49.8V49.75C56.5382 49.75 56.509 49.7417 56.484 49.725L56.3965 49.6625C56.3465 49.6292 56.309 49.5833 56.284 49.525C56.2673 49.4667 56.2673 49.4083 56.284 49.35C56.284 49.2917 56.309 49.2333 56.359 49.175C56.4006 49.125 56.4507 49.0917 56.509 49.075C56.559 49.05 56.6131 49.0417 56.6715 49.05C56.7381 49.0583 56.7923 49.0833 56.834 49.125L56.8965 49.1875L56.9465 49.2625H56.9715L57.0215 49.3L56.934 49.5125L56.8465 49.475V49.35L56.834 49.275L56.784 49.225L56.709 49.1875L56.609 49.2125L56.509 49.2875C56.4757 49.3292 56.4548 49.3708 56.4465 49.4125C56.4298 49.4542 56.4298 49.4958 56.4465 49.5375C56.4465 49.5625 56.459 49.5833 56.484 49.6L56.5465 49.6375H56.609L56.6465 49.6125V49.5875L56.6715 49.5625V49.55L56.6465 49.5125L56.6215 49.5L56.684 49.425V49.425ZM57.409 49.6375L57.534 49.75L57.309 50.2625V50.325L57.334 50.3625L57.2715 50.4375L57.0215 50.2125L57.0965 50.15H57.109L57.1465 50.175H57.159L57.184 50.1375L57.209 50.075L57.059 49.95L56.984 49.975L56.959 49.9875V50.025L56.9965 50.05L56.934 50.125L56.7465 49.9375L56.809 49.875L56.834 49.9H56.859L56.8965 49.8875L57.409 49.6375V49.6375ZM57.159 49.8875L57.2465 49.9875L57.3215 49.8L57.1465 49.8875H57.159ZM57.859 50.0375L57.909 50.0875L57.8965 50.1L58.1465 50.3875L58.184 50.375L58.2215 50.4125L58.109 50.6375L58.0215 50.6L58.0465 50.5125V50.4375C58.0465 50.4125 58.0382 50.3958 58.0215 50.3875H57.984L57.709 50.6625L57.6715 50.7V50.725L57.709 50.7625L57.6465 50.8375L57.4215 50.5875L57.484 50.525L57.4965 50.5375L57.534 50.575H57.5465L57.584 50.5375L57.8715 50.2625L57.884 50.25V50.2375L57.834 50.2125H57.7465L57.6715 50.225L57.634 50.1375L57.859 50.0375V50.0375Z" fill="black"/>
<path id="Vector_107" d="M0.246094 0H32.2461V32H0.246094V0Z" fill="#012169"/>
<path id="Vector_108" d="M32.2461 0V4L20.3711 16L32.2461 27.6875V32H28.0586L16.1211 20.25L4.49609 32H0.246094V27.75L11.8711 16.0625L0.246094 4.625V0H4.12109L16.1211 11.75L27.7461 0H32.2461Z" fill="#F5F5F5"/>
<path id="Vector_109" d="M11.7461 20.25L12.4336 22.375L2.87109 32H0.246094V31.8125L11.7461 20.25ZM19.4961 19.5L22.8711 20L32.2461 29.1875V32L19.4961 19.5ZM32.2461 0L20.2461 12.25L19.9961 9.5L29.3711 0H32.2461ZM0.246094 0.0625L12.3086 11.875L8.62109 11.375L0.246094 3.0625V0.0625Z" fill="#C8102E"/>
<path id="Vector_110" d="M11.2461 0V32H21.2461V0H11.2461ZM0.246094 11V21H32.2461V11H0.246094Z" fill="#F5F5F5"/>
<path id="Vector_111" d="M0.246094 13V19H32.2461V13H0.246094ZM13.2461 0V32H19.2461V0H13.2461Z" fill="#C8102E"/>
</g>
</g>
<defs>
<linearGradient id="paint0_linear_2909_185423" x1="51.921" y1="22.1531" x2="51.9596" y2="19.6369" gradientUnits="userSpaceOnUse">
<stop stop-color="#474747"/>
<stop offset="1" stop-color="#FF5500"/>
</linearGradient>
<linearGradient id="paint1_linear_2909_185423" x1="51.0652" y1="31.5982" x2="51.0697" y2="33.0197" gradientUnits="userSpaceOnUse">
<stop stop-color="#B50000"/>
<stop offset="1" stop-color="#FFC500"/>
</linearGradient>
<linearGradient id="paint2_linear_2909_185423" x1="57.3059" y1="32.4666" x2="59.6278" y2="32.4362" gradientUnits="userSpaceOnUse">
<stop stop-color="#D5DFFF"/>
<stop offset="1" stop-color="white"/>
</linearGradient>
<linearGradient id="paint3_linear_2909_185423" x1="51.479" y1="21.6758" x2="52.3152" y2="21.6758" gradientUnits="userSpaceOnUse">
<stop stop-color="#474747"/>
<stop offset="1" stop-color="#FF5500"/>
</linearGradient>
<linearGradient id="paint4_linear_2909_185423" x1="63.5776" y1="44.143" x2="63.1707" y2="41.6141" gradientUnits="userSpaceOnUse">
<stop stop-color="#D5DFFF"/>
<stop offset="1" stop-color="white"/>
</linearGradient>
<linearGradient id="paint5_linear_2909_185423" x1="57.8693" y1="33.3333" x2="56.8316" y2="31.6599" gradientUnits="userSpaceOnUse">
<stop stop-color="#D5DFFF"/>
<stop offset="1" stop-color="white"/>
</linearGradient>
<clipPath id="clip0_2909_185423">
<path d="M0.246094 32C0.246094 14.3269 14.573 0 32.2461 0V0C49.9192 0 64.2461 14.3269 64.2461 32V32C64.2461 49.6731 49.9192 64 32.2461 64V64C14.573 64 0.246094 49.6731 0.246094 32V32Z" fill="white"/>
</clipPath>
</defs>
</svg>
