<svg width="65" height="64" viewBox="0 0 65 64" fill="none" xmlns="http://www.w3.org/2000/svg">
<g id="Rounded=Haiti (HT)">
<g clip-path="url(#clip0_2909_185330)">
<path id="Vector" d="M0.246094 0H64.2461V64H0.246094V0Z" fill="#D21034"/>
<path id="Vector_2" d="M0.246094 0H64.2461V32H0.246094V0Z" fill="#00209F"/>
<g id="Group">
<path id="Vector_3" d="M22.1465 23.95H42.3465V40.025H22.1465V23.95Z" fill="#F5F5F5"/>
<path id="Vector_4" d="M36.309 35.575L32.184 35.7L28.084 35.7375C28.084 35.7375 25.984 36.525 25.1215 36.7C24.259 36.875 24.3715 37.15 23.709 37.3C23.1715 37.425 23.109 37.4625 22.7965 37.475C22.609 37.4875 22.384 37.6375 22.1465 37.8V40.025H42.3465V37.9C42.138 37.7935 41.9205 37.7057 41.6965 37.6375C41.409 37.5375 41.1965 37.425 40.6715 37.3C40.009 37.15 40.1215 36.875 39.259 36.7C38.3965 36.525 36.309 35.575 36.309 35.575V35.575Z" fill="#016A16" stroke="#016A16" stroke-width="0.0375"/>
<g id="Group_2">
<g id="a">
<path id="Vector_5" d="M31.0693 30.6134H31.368L31.9227 32.8961L31.7947 33.6214L31.0693 30.6347V30.6134Z" fill="#F1B517" stroke="black" stroke-width="0.0426668"/>
<path id="Vector_6" d="M30.749 29.0774L30.9624 30.8481H31.1757L30.749 29.0988V29.0774Z" fill="#F5F5F5" stroke="black" stroke-width="0.0426668"/>
<path id="Vector_7" d="M31.3255 32.9814L30.4082 30.5281L30.7495 30.5067L31.8162 33.4934L31.3255 32.9814V32.9814Z" fill="#F1B517" stroke="black" stroke-width="0.0426668"/>
<path id="Vector_8" d="M29.9814 29.1201L30.3654 30.8268H30.6641L29.9814 29.1201V29.1201Z" fill="#F5F5F5" stroke="black" stroke-width="0.0426668"/>
<path id="Vector_9" d="M30.5148 32.1281L29.9814 30.9547L30.1948 30.9121L31.1975 32.8321L30.5148 32.1281Z" fill="#F1B517" stroke="black" stroke-width="0.0426668"/>
<path id="Vector_10" d="M29.2559 29.6107L29.8745 31.2321H30.1732L29.2772 29.6107H29.2559Z" fill="#F5F5F5" stroke="black" stroke-width="0.0426668"/>
<path id="Vector_11" d="M30.6003 32.2988L28.147 29.6321C27.379 30.2294 27.5283 31.3388 27.5283 31.3388L30.3016 33.5148L30.579 32.2988H30.6003Z" fill="#0A328C" stroke="black" stroke-width="0.0426668"/>
<path id="Vector_12" d="M32.0085 33.7494L30.1951 31.9148C29.4271 31.9574 30.0245 33.0881 30.0671 33.2374L31.9871 34.8801V33.7494H32.0085Z" fill="#D20014" stroke="black" stroke-width="0.0426668"/>
<path id="Vector_13" d="M31.8371 33.4508L28.1038 29.4401L27.9544 29.5467L31.9225 33.9414L31.8371 33.4508V33.4508ZM27.8904 29.1841L27.8051 29.0774V28.8854L27.0371 28.3947L27.3784 29.1841L27.6558 29.2267L27.7198 29.3121L27.8904 29.1841V29.1841Z" fill="#F1B517" stroke="black" stroke-width="0.0426668"/>
<path id="Vector_14" d="M27.4854 29.4614C27.6425 29.2664 27.8387 29.1066 28.0614 28.9921L28.2747 29.3121L27.8054 29.6961L27.4854 29.4827V29.4614Z" fill="#F1B517" stroke="black" stroke-width="0.0426668"/>
<path id="Vector_15" d="M27.0801 30.1441L27.2081 30.3574C27.2934 30.3361 28.0614 29.6107 28.0614 29.6107H28.6374L28.7867 29.4187C28.3601 28.9921 27.9974 29.4827 27.9974 29.4827L27.0801 30.1227V30.1441Z" fill="#0A328C" stroke="#0A328C" stroke-width="0.0426668"/>
<path id="Vector_16" d="M27.5493 30.5067C27.5493 30.2934 27.9333 29.8241 27.976 29.8027C28.2533 29.8881 28.5093 30.0587 28.808 29.4187C28.552 29.7174 28.0613 29.4187 28.0613 29.4187L27.848 29.5894V29.6747L27.208 30.2721L27.528 30.5067H27.5493Z" fill="#D20014" stroke="#D20014" stroke-width="0.0426668"/>
<path id="Vector_17" d="M29.5336 33.0027L26.4616 30.5707C25.9282 31.1041 26.3762 32.7467 26.3762 32.7467L29.3629 34.3681L29.5122 33.0027H29.5336Z" fill="#0A328C" stroke="black" stroke-width="0.0426668"/>
<path id="Vector_18" d="M32.0719 34.9868L29.5333 32.9388C28.6799 33.0668 29.3626 34.3254 29.4053 34.4748L32.0719 35.9254V34.9654V34.9868Z" fill="#D20014" stroke="black" stroke-width="0.0426668"/>
<path id="Vector_19" d="M31.9653 34.5601L26.5039 30.4641L26.3973 30.5921L32.1146 35.0721L31.9653 34.5601V34.5601ZM26.2479 30.2507L26.1626 30.1654L26.1199 29.9948L25.2666 29.6321L25.7573 30.3361H26.0346L26.1199 30.4214L26.2479 30.2507V30.2507Z" fill="#F1B517" stroke="black" stroke-width="0.0426668"/>
<path id="Vector_20" d="M25.9072 30.5921C26.0293 30.3743 26.1966 30.1852 26.3979 30.0374L26.6539 30.3147L26.2699 30.7627L25.9072 30.5921Z" fill="#F1B517" stroke="black" stroke-width="0.0426668"/>
<path id="Vector_21" d="M25.6297 31.2747V31.5094C25.7151 31.4667 26.4191 30.7201 26.4191 30.7201L26.9524 30.6134L27.0804 30.4427C26.6964 29.9947 26.2911 30.5921 26.2911 30.5921L25.6084 31.2747H25.6297Z" fill="#0A328C" stroke="#0A328C" stroke-width="0.0426668"/>
<path id="Vector_22" d="M26.0557 31.6801C26.0131 31.4668 26.3117 30.8694 26.3544 30.8268C26.6957 30.9334 26.9944 31.0828 27.1011 30.4001C26.8877 30.7414 26.3544 30.4854 26.3544 30.4854L26.1837 30.6988V30.8054L25.6504 31.5094L26.0557 31.6801V31.6801Z" fill="#D20014" stroke="#D20014" stroke-width="0.0426668"/>
<path id="Vector_23" d="M29.2983 34.4961C27.9799 33.7544 26.6643 33.0078 25.3516 32.2561C25.0743 32.7467 25.3303 33.4294 25.4583 33.5361C25.4583 33.8561 25.3303 34.0267 25.6076 34.7094C25.693 35.1361 25.885 35.5414 26.1836 35.7761C26.525 37.1414 27.933 37.2481 28.4663 36.1174L29.3197 34.4961H29.2983Z" fill="#0A328C" stroke="black" stroke-width="0.0426668"/>
<path id="Vector_24" d="M31.8805 35.9468L29.2138 34.3894C28.3605 34.4961 29.2138 36.0961 29.2778 36.2454L31.8805 37.1628V35.9468Z" fill="#D20014" stroke="black" stroke-width="0.0426668"/>
<path id="Vector_25" d="M31.4321 35.3708L25.3948 32.1708L25.2881 32.2988L31.6881 35.8614L31.4321 35.3708V35.3708ZM25.0961 32.0001L24.9894 31.9361L24.9254 31.7654L24.0508 31.5521L24.6268 32.1708L24.8828 32.1281L25.0108 32.1921L25.0961 32.0001V32.0001Z" fill="#F1B517" stroke="black" stroke-width="0.0426668"/>
<path id="Vector_26" d="M24.8184 32.3841C24.9037 32.1707 24.989 31.9787 25.2024 31.7441L25.501 31.9787L25.2024 32.4907L24.8184 32.3841Z" fill="#F1B517" stroke="black" stroke-width="0.0426668"/>
<path id="Vector_27" d="M24.584 33.1094L24.712 33.3654L25.352 32.3841L25.8853 32.1921L25.992 31.9788C25.5653 31.5948 25.2453 32.2774 25.2453 32.2774L24.584 33.1094Z" fill="#0A328C" stroke="#0A328C" stroke-width="0.0426668"/>
<path id="Vector_28" d="M25.1601 33.4508C25.1174 33.2374 25.2667 32.5548 25.3094 32.5334C25.6294 32.6401 25.9067 32.6614 25.9921 31.9788C25.7787 32.2988 25.2881 32.1921 25.2881 32.1921L25.1387 32.4054L25.1601 32.4908L24.7334 33.3441L25.1601 33.4508V33.4508Z" fill="#D20014" stroke="#D20014" stroke-width="0.0426668"/>
</g>
<g id="Group_3">
<path id="Vector_29" d="M33.3945 30.6134H33.0959L32.5412 32.8961L32.6692 33.6214L33.3945 30.6347V30.6134Z" fill="#F1B517" stroke="black" stroke-width="0.0426668"/>
<path id="Vector_30" d="M33.7148 29.0774L33.5015 30.8481H33.2882L33.7148 29.0988V29.0774Z" fill="#F5F5F5" stroke="black" stroke-width="0.0426668"/>
<path id="Vector_31" d="M33.1383 32.9814L34.0557 30.5281L33.7143 30.5067L32.6477 33.4934L33.1383 32.9814V32.9814Z" fill="#F1B517" stroke="black" stroke-width="0.0426668"/>
<path id="Vector_32" d="M34.4824 29.1201L34.0984 30.8268H33.7998L34.4824 29.1201V29.1201Z" fill="#F5F5F5" stroke="black" stroke-width="0.0426668"/>
<path id="Vector_33" d="M33.9491 32.1281L34.4824 30.9547L34.2691 30.9121L33.2664 32.8321L33.9491 32.1281Z" fill="#F1B517" stroke="black" stroke-width="0.0426668"/>
<path id="Vector_34" d="M35.208 29.6107L34.5893 31.2321H34.2907L35.1867 29.6107H35.208Z" fill="#F5F5F5" stroke="black" stroke-width="0.0426668"/>
<path id="Vector_35" d="M33.8636 32.2988L36.3169 29.6321C37.0849 30.2294 36.9356 31.3388 36.9356 31.3388L34.1622 33.5148L33.8849 32.2988H33.8636Z" fill="#0A328C" stroke="black" stroke-width="0.0426668"/>
<path id="Vector_36" d="M32.4554 33.7494L34.2687 31.9148C35.0367 31.9574 34.4394 33.0881 34.3967 33.2374L32.4767 34.8801V33.7494H32.4554Z" fill="#D20014" stroke="black" stroke-width="0.0426668"/>
<path id="Vector_37" d="M32.6267 33.4508L36.3601 29.4401L36.5094 29.5467L32.5414 33.9414L32.6267 33.4508V33.4508ZM36.5734 29.1841L36.6588 29.0774V28.8854L37.4268 28.3947L37.0854 29.1841L36.8081 29.2267L36.7441 29.3121L36.5734 29.1841V29.1841Z" fill="#F1B517" stroke="black" stroke-width="0.0426668"/>
<path id="Vector_38" d="M36.9785 29.4614C36.8214 29.2664 36.6252 29.1066 36.4025 28.9921L36.1892 29.3121L36.6585 29.6961L36.9785 29.4827V29.4614Z" fill="#F1B517" stroke="black" stroke-width="0.0426668"/>
<path id="Vector_39" d="M37.3838 30.1441L37.2558 30.3574C37.1705 30.3361 36.4025 29.6107 36.4025 29.6107H35.8265L35.6771 29.4187C36.1038 28.9921 36.4665 29.4827 36.4665 29.4827L37.3838 30.1227V30.1441Z" fill="#0A328C" stroke="#0A328C" stroke-width="0.0426668"/>
<path id="Vector_40" d="M36.9145 30.5067C36.9145 30.2934 36.5305 29.8241 36.4879 29.8027C36.2105 29.8881 35.9545 30.0587 35.6559 29.4187C35.9119 29.7174 36.4025 29.4187 36.4025 29.4187L36.6159 29.5894V29.6747L37.2559 30.2721L36.9359 30.5067H36.9145Z" fill="#D20014" stroke="#D20014" stroke-width="0.0426668"/>
<path id="Vector_41" d="M34.9303 33.0027L38.0023 30.5707C38.5356 31.1041 38.0876 32.7467 38.0876 32.7467L35.101 34.3681L34.9516 33.0027H34.9303Z" fill="#0A328C" stroke="black" stroke-width="0.0426668"/>
<path id="Vector_42" d="M32.3919 34.9868L34.9306 32.9388C35.7839 33.0668 35.1013 34.3254 35.0586 34.4748L32.3919 35.9254V34.9654V34.9868Z" fill="#D20014" stroke="black" stroke-width="0.0426668"/>
<path id="Vector_43" d="M32.4986 34.5601L37.9599 30.4641L38.0666 30.5921L32.3493 35.0721L32.4986 34.5601V34.5601ZM38.2159 30.2507L38.3013 30.1654L38.3439 29.9948L39.1973 29.6321L38.7066 30.3361H38.4293L38.3439 30.4214L38.2159 30.2507V30.2507Z" fill="#F1B517" stroke="black" stroke-width="0.0426668"/>
<path id="Vector_44" d="M38.5566 30.5921C38.4345 30.3743 38.2672 30.1852 38.066 30.0374L37.81 30.3147L38.194 30.7627L38.5566 30.5921Z" fill="#F1B517" stroke="black" stroke-width="0.0426668"/>
<path id="Vector_45" d="M38.8341 31.2747V31.5094C38.7488 31.4667 38.0448 30.7201 38.0448 30.7201L37.5115 30.6134L37.3835 30.4427C37.7675 29.9947 38.1728 30.5921 38.1728 30.5921L38.8555 31.2747H38.8341Z" fill="#0A328C" stroke="#0A328C" stroke-width="0.0426668"/>
<path id="Vector_46" d="M38.4081 31.6801C38.4508 31.4668 38.1521 30.8694 38.1095 30.8268C37.7681 30.9334 37.4695 31.0828 37.3628 30.4001C37.5761 30.7414 38.1095 30.4854 38.1095 30.4854L38.2801 30.6988V30.8054L38.8135 31.5094L38.4081 31.6801V31.6801Z" fill="#D20014" stroke="#D20014" stroke-width="0.0426668"/>
<path id="Vector_47" d="M35.1656 34.4961C36.484 33.7544 37.7995 33.0078 39.1122 32.2561C39.3896 32.7467 39.1336 33.4294 39.0056 33.5361C39.0056 33.8561 39.1336 34.0267 38.8562 34.7094C38.7709 35.1361 38.5789 35.5414 38.2802 35.7761C37.9389 37.1414 36.5309 37.2481 35.9976 36.1174L35.1442 34.4961H35.1656Z" fill="#0A328C" stroke="black" stroke-width="0.0426668"/>
<path id="Vector_48" d="M32.5833 35.9468L35.25 34.3894C36.1034 34.4961 35.25 36.0961 35.186 36.2454L32.5833 37.1628V35.9468Z" fill="#D20014" stroke="black" stroke-width="0.0426668"/>
<path id="Vector_49" d="M33.0317 35.3708L39.0691 32.1708L39.1758 32.2988L32.7757 35.8614L33.0317 35.3708V35.3708ZM39.3678 32.0001L39.4744 31.9361L39.5384 31.7654L40.4131 31.5521L39.8371 32.1708L39.5811 32.1281L39.4531 32.1921L39.3678 32.0001V32.0001Z" fill="#F1B517" stroke="black" stroke-width="0.0426668"/>
<path id="Vector_50" d="M39.6455 32.3841C39.5602 32.1707 39.4748 31.9787 39.2615 31.7441L38.9628 31.9787L39.2615 32.4907L39.6455 32.3841Z" fill="#F1B517" stroke="black" stroke-width="0.0426668"/>
<path id="Vector_51" d="M39.8799 33.1094L39.7519 33.3654L39.1119 32.3841L38.5785 32.1921L38.4719 31.9788C38.8985 31.5948 39.2186 32.2774 39.2186 32.2774L39.8799 33.1094Z" fill="#0A328C" stroke="#0A328C" stroke-width="0.0426668"/>
<path id="Vector_52" d="M39.3038 33.4508C39.3465 33.2374 39.1971 32.5548 39.1545 32.5334C38.8345 32.6401 38.5571 32.6614 38.4718 31.9788C38.6851 32.2988 39.1758 32.1921 39.1758 32.1921L39.3251 32.4054L39.3038 32.4908L39.7305 33.3441L39.3038 33.4508V33.4508Z" fill="#D20014" stroke="#D20014" stroke-width="0.0426668"/>
</g>
</g>
<g id="Group_4">
<path id="Vector_53" d="M31.986 26.7947L31.8793 28.7147H32.498L32.4127 26.7947L33.0527 26.7307L32.9887 25.9627L31.3887 26.0267V26.7094L31.986 26.7947V26.7947Z" fill="#016A16" stroke="#016A16" stroke-width="0.0426668"/>
<g id="b">
<g id="Vector_54">
<path d="M32.1996 26.0054C30.5356 24.3414 29.2342 25.152 28.9355 25.3867C29.1489 25.4294 29.3195 25.3014 29.4262 25.28L29.2129 25.536C29.2129 25.536 29.7462 25.3227 29.8102 25.3227C29.7249 25.3867 29.6395 25.536 29.6395 25.536C29.6822 25.536 29.9809 25.3014 30.0236 25.3014C29.9382 25.3867 29.9169 25.6214 29.9169 25.6214L30.1729 25.5147C30.2369 25.5574 30.1515 25.6427 30.1942 25.6427C30.6209 25.6 31.1969 26.0054 31.2609 26.1334" fill="#016A16"/>
<path d="M32.1996 26.0054C30.5356 24.3414 29.2342 25.152 28.9355 25.3867C29.1489 25.4294 29.3195 25.3014 29.4262 25.28L29.2129 25.536C29.2129 25.536 29.7462 25.3227 29.8102 25.3227C29.7249 25.3867 29.6395 25.536 29.6395 25.536C29.6822 25.536 29.9809 25.3014 30.0236 25.3014C29.9382 25.3867 29.9169 25.6214 29.9169 25.6214L30.1729 25.5147C30.2369 25.5574 30.1515 25.6427 30.1942 25.6427C30.6209 25.6 31.1969 26.0054 31.2609 26.1334" stroke="black" stroke-width="0.0426668"/>
</g>
<g id="Vector_55">
<path d="M31.7942 26.304C31.6235 25.92 28.4662 25.2374 27.8262 26.368C28.0822 26.432 28.3168 26.1547 28.3168 26.1547V26.4107L28.7222 26.0694L28.5728 26.4107L28.8928 26.1334V26.4107L29.3195 25.984L29.2555 26.2187L29.6182 26.0694L29.5755 26.2827" fill="#016A16"/>
<path d="M31.7942 26.304C31.6235 25.92 28.4662 25.2374 27.8262 26.368C28.0822 26.432 28.3168 26.1547 28.3168 26.1547V26.4107L28.7222 26.0694L28.5728 26.4107L28.8928 26.1334V26.4107L29.3195 25.984L29.2555 26.2187L29.6182 26.0694L29.5755 26.2827" stroke="black" stroke-width="0.0426668"/>
</g>
<g id="Vector_56">
<path d="M31.6451 26.368C30.8344 25.8347 29.5971 26.1974 29.5971 26.1974C28.7864 26.624 28.3597 26.56 28.2744 27.392C28.3384 27.3707 28.5517 27.0934 28.5517 27.0934L28.7224 27.4134L28.7651 26.9654L28.8931 27.328L29.1064 26.7307L29.1491 27.136L29.4477 26.7307L29.5758 26.8587L29.7038 26.5387L29.8318 26.752C29.8318 26.752 30.0451 26.624 30.1518 26.688L30.3651 26.432L30.4291 26.624L30.6424 26.4107L30.7064 26.56L30.8984 26.3894V26.5174H31.5384" fill="#016A16"/>
<path d="M31.6451 26.368C30.8344 25.8347 29.5971 26.1974 29.5971 26.1974C28.7864 26.624 28.3597 26.56 28.2744 27.392C28.3384 27.3707 28.5517 27.0934 28.5517 27.0934L28.7224 27.4134L28.7651 26.9654L28.8931 27.328L29.1064 26.7307L29.1491 27.136L29.4477 26.7307L29.5758 26.8587L29.7038 26.5387L29.8318 26.752C29.8318 26.752 30.0451 26.624 30.1518 26.688L30.3651 26.432L30.4291 26.624L30.6424 26.4107L30.7064 26.56L30.8984 26.3894V26.5174H31.5384" stroke="black" stroke-width="0.0426668"/>
</g>
<g id="Vector_57">
<path d="M31.4738 26.4534C30.8978 26.4534 29.2764 27.072 28.8711 27.6907C28.9612 27.6431 29.0538 27.6004 29.1484 27.5627L29.2124 27.8187L29.3191 27.5627L29.3404 27.776C29.4044 27.6054 29.4684 27.6054 29.5964 27.7547L29.6391 27.52L29.7031 27.7334L29.8098 27.4987C29.8098 27.4987 29.8738 27.7547 29.9164 27.7547C29.9164 27.7547 30.0871 27.2854 30.1724 27.264L30.1938 27.5627L30.3004 27.264L30.4071 27.4774V27.1787L30.5351 27.392C30.5351 27.392 30.5778 27.1787 30.6631 27.136L30.8338 27.2854L31.5591 26.752" fill="#016A16"/>
<path d="M31.4738 26.4534C30.8978 26.4534 29.2764 27.072 28.8711 27.6907C28.9612 27.6431 29.0538 27.6004 29.1484 27.5627L29.2124 27.8187L29.3191 27.5627L29.3404 27.776C29.4044 27.6054 29.4684 27.6054 29.5964 27.7547L29.6391 27.52L29.7031 27.7334L29.8098 27.4987C29.8098 27.4987 29.8738 27.7547 29.9164 27.7547C29.9164 27.7547 30.0871 27.2854 30.1724 27.264L30.1938 27.5627L30.3004 27.264L30.4071 27.4774V27.1787L30.5351 27.392C30.5351 27.392 30.5778 27.1787 30.6631 27.136L30.8338 27.2854L31.5591 26.752" stroke="black" stroke-width="0.0426668"/>
</g>
<g id="Vector_58">
<path d="M31.5804 26.6027C30.8338 26.8801 30.1511 27.9254 30.2151 28.3521C30.5351 27.9254 30.4711 27.9894 30.6204 28.4801C30.6204 28.4801 30.6631 28.0534 30.7271 28.0107L30.8338 28.3094L30.8551 27.9041H30.9618L30.9404 27.6694L31.0898 27.7761C31.0471 27.6267 31.0258 27.5841 31.1751 27.4561C31.1751 27.4561 30.9618 27.4774 31.1324 27.1361L31.2818 27.2641C31.2818 27.2641 31.2391 27.1147 31.2818 27.0507L31.8364 26.8801" fill="#016A16"/>
<path d="M31.5804 26.6027C30.8338 26.8801 30.1511 27.9254 30.2151 28.3521C30.5351 27.9254 30.4711 27.9894 30.6204 28.4801C30.6204 28.4801 30.6631 28.0534 30.7271 28.0107L30.8338 28.3094L30.8551 27.9041H30.9618L30.9404 27.6694L31.0898 27.7761C31.0471 27.6267 31.0258 27.5841 31.1751 27.4561C31.1751 27.4561 30.9618 27.4774 31.1324 27.1361L31.2818 27.2641C31.2818 27.2641 31.2391 27.1147 31.2818 27.0507L31.8364 26.8801" stroke="black" stroke-width="0.0426668"/>
</g>
<g id="Vector_59">
<path d="M31.6447 26.6667L31.3674 27.2214L31.5167 27.2641L31.1754 27.4987L31.4527 27.4774C31.4527 27.4774 31.0261 27.6267 30.9834 28.0534L31.4101 27.8401C31.4101 27.8401 31.0474 28.2241 30.9834 28.4587L31.2607 28.2454C31.2607 28.2454 31.0047 28.5014 31.0474 28.8854L31.2394 28.6721C31.1967 29.1627 31.1967 29.2054 31.4101 29.5681C31.4101 29.5681 31.3674 29.0134 31.4101 28.9281L31.9007 29.4401L31.6447 28.7361C31.6447 28.7361 31.9434 29.1627 32.1141 29.1414L31.7301 28.5654L32.1141 28.8641L31.6874 28.2241L32.0714 28.3521C32.0714 28.3521 31.7941 27.9894 31.8154 27.7547L32.0927 28.0534C32.0927 28.0534 31.9861 27.7334 32.0074 27.6267L32.1567 27.6481L31.8794 27.3494L32.0714 27.3067L32.0501 27.0934L32.1781 27.0721V26.8374L31.6447 26.6667ZM31.9434 26.8374C31.4741 27.4774 31.7087 28.4374 31.4314 28.9494Z" fill="#016A16"/>
<path d="M31.9434 26.8374C31.4741 27.4774 31.7087 28.4374 31.4314 28.9494M31.6447 26.6667L31.3674 27.2214L31.5167 27.2641L31.1754 27.4987L31.4527 27.4774C31.4527 27.4774 31.0261 27.6267 30.9834 28.0534L31.4101 27.8401C31.4101 27.8401 31.0474 28.2241 30.9834 28.4587L31.2607 28.2454C31.2607 28.2454 31.0047 28.5014 31.0474 28.8854L31.2394 28.6721C31.1967 29.1627 31.1967 29.2054 31.4101 29.5681C31.4101 29.5681 31.3674 29.0134 31.4101 28.9281L31.9007 29.4401L31.6447 28.7361C31.6447 28.7361 31.9434 29.1627 32.1141 29.1414L31.7301 28.5654L32.1141 28.8641L31.6874 28.2241L32.0714 28.3521C32.0714 28.3521 31.7941 27.9894 31.8154 27.7547L32.0927 28.0534C32.0927 28.0534 31.9861 27.7334 32.0074 27.6267L32.1567 27.6481L31.8794 27.3494L32.0714 27.3067L32.0501 27.0934L32.1781 27.0721V26.8374L31.6447 26.6667Z" stroke="black" stroke-width="0.0426668"/>
</g>
</g>
<g id="Group_5">
<g id="Vector_60">
<path d="M32.2633 26.0054C33.9273 24.3414 35.2287 25.152 35.5273 25.3867C35.314 25.4294 35.1433 25.3014 35.0367 25.28L35.25 25.536C35.25 25.536 34.7167 25.3227 34.6527 25.3227C34.738 25.3867 34.8233 25.536 34.8233 25.536C34.7807 25.536 34.482 25.3014 34.4393 25.3014C34.5247 25.3867 34.546 25.6214 34.546 25.6214L34.29 25.5147C34.226 25.5574 34.3113 25.6427 34.2687 25.6427C33.842 25.6 33.266 26.0054 33.202 26.1334" fill="#016A16"/>
<path d="M32.2633 26.0054C33.9273 24.3414 35.2287 25.152 35.5273 25.3867C35.314 25.4294 35.1433 25.3014 35.0367 25.28L35.25 25.536C35.25 25.536 34.7167 25.3227 34.6527 25.3227C34.738 25.3867 34.8233 25.536 34.8233 25.536C34.7807 25.536 34.482 25.3014 34.4393 25.3014C34.5247 25.3867 34.546 25.6214 34.546 25.6214L34.29 25.5147C34.226 25.5574 34.3113 25.6427 34.2687 25.6427C33.842 25.6 33.266 26.0054 33.202 26.1334" stroke="black" stroke-width="0.0426668"/>
</g>
<g id="Vector_61">
<path d="M32.6687 26.304C32.8394 25.92 35.9967 25.2374 36.6367 26.368C36.3807 26.432 36.1461 26.1547 36.1461 26.1547V26.4107L35.7407 26.0694L35.8901 26.4107L35.57 26.1334V26.4107L35.1434 25.984L35.2074 26.2187L34.8447 26.0694L34.8874 26.2827" fill="#016A16"/>
<path d="M32.6687 26.304C32.8394 25.92 35.9967 25.2374 36.6367 26.368C36.3807 26.432 36.1461 26.1547 36.1461 26.1547V26.4107L35.7407 26.0694L35.8901 26.4107L35.57 26.1334V26.4107L35.1434 25.984L35.2074 26.2187L34.8447 26.0694L34.8874 26.2827" stroke="black" stroke-width="0.0426668"/>
</g>
<g id="Vector_62">
<path d="M32.8178 26.368C33.6285 25.8347 34.8658 26.1974 34.8658 26.1974C35.6765 26.624 36.1031 26.56 36.1885 27.392C36.1245 27.3707 35.9111 27.0934 35.9111 27.0934L35.7405 27.4134L35.6978 26.9654L35.5698 27.328L35.3565 26.7307L35.3138 27.136L35.0151 26.7307L34.8871 26.8587L34.7591 26.5387L34.6311 26.752C34.6311 26.752 34.4178 26.624 34.3111 26.688L34.0978 26.432L34.0338 26.624L33.8205 26.4107L33.7565 26.56L33.5645 26.3894V26.5174H32.9245" fill="#016A16"/>
<path d="M32.8178 26.368C33.6285 25.8347 34.8658 26.1974 34.8658 26.1974C35.6765 26.624 36.1031 26.56 36.1885 27.392C36.1245 27.3707 35.9111 27.0934 35.9111 27.0934L35.7405 27.4134L35.6978 26.9654L35.5698 27.328L35.3565 26.7307L35.3138 27.136L35.0151 26.7307L34.8871 26.8587L34.7591 26.5387L34.6311 26.752C34.6311 26.752 34.4178 26.624 34.3111 26.688L34.0978 26.432L34.0338 26.624L33.8205 26.4107L33.7565 26.56L33.5645 26.3894V26.5174H32.9245" stroke="black" stroke-width="0.0426668"/>
</g>
<g id="Vector_63">
<path d="M32.9891 26.4534C33.5651 26.4534 35.1865 27.072 35.5918 27.6907C35.5017 27.6431 35.4091 27.6004 35.3145 27.5627L35.2505 27.8187L35.1438 27.5627L35.1225 27.776C35.0585 27.6054 34.9945 27.6054 34.8665 27.7547L34.8238 27.52L34.7598 27.7334L34.6531 27.4987C34.6531 27.4987 34.5891 27.7547 34.5465 27.7547C34.5465 27.7547 34.3758 27.2854 34.2905 27.264L34.2691 27.5627L34.1625 27.264L34.0558 27.4774V27.1787L33.9278 27.392C33.9278 27.392 33.8851 27.1787 33.7998 27.136L33.6291 27.2854L32.9038 26.752" fill="#016A16"/>
<path d="M32.9891 26.4534C33.5651 26.4534 35.1865 27.072 35.5918 27.6907C35.5017 27.6431 35.4091 27.6004 35.3145 27.5627L35.2505 27.8187L35.1438 27.5627L35.1225 27.776C35.0585 27.6054 34.9945 27.6054 34.8665 27.7547L34.8238 27.52L34.7598 27.7334L34.6531 27.4987C34.6531 27.4987 34.5891 27.7547 34.5465 27.7547C34.5465 27.7547 34.3758 27.2854 34.2905 27.264L34.2691 27.5627L34.1625 27.264L34.0558 27.4774V27.1787L33.9278 27.392C33.9278 27.392 33.8851 27.1787 33.7998 27.136L33.6291 27.2854L32.9038 26.752" stroke="black" stroke-width="0.0426668"/>
</g>
<g id="Vector_64">
<path d="M32.8824 26.6027C33.6291 26.8801 34.3118 27.9254 34.2478 28.3521C33.9278 27.9254 33.9918 27.9894 33.8425 28.4801C33.8425 28.4801 33.7998 28.0534 33.7358 28.0107L33.6291 28.3094L33.6078 27.9041H33.5011L33.5225 27.6694L33.3731 27.7761C33.4158 27.6267 33.4371 27.5841 33.2878 27.4561C33.2878 27.4561 33.5011 27.4774 33.3304 27.1361L33.1811 27.2641C33.1811 27.2641 33.2238 27.1147 33.1811 27.0507L32.6264 26.8801" fill="#016A16"/>
<path d="M32.8824 26.6027C33.6291 26.8801 34.3118 27.9254 34.2478 28.3521C33.9278 27.9254 33.9918 27.9894 33.8425 28.4801C33.8425 28.4801 33.7998 28.0534 33.7358 28.0107L33.6291 28.3094L33.6078 27.9041H33.5011L33.5225 27.6694L33.3731 27.7761C33.4158 27.6267 33.4371 27.5841 33.2878 27.4561C33.2878 27.4561 33.5011 27.4774 33.3304 27.1361L33.1811 27.2641C33.1811 27.2641 33.2238 27.1147 33.1811 27.0507L32.6264 26.8801" stroke="black" stroke-width="0.0426668"/>
</g>
<g id="Vector_65">
<path d="M32.8182 26.6667L33.0955 27.2214L32.9462 27.2641L33.2875 27.4987L33.0102 27.4774C33.0102 27.4774 33.4368 27.6267 33.4795 28.0534L33.0528 27.8401C33.0528 27.8401 33.4155 28.2241 33.4795 28.4587L33.2022 28.2454C33.2022 28.2454 33.4582 28.5014 33.4155 28.8854L33.2235 28.6721C33.2662 29.1627 33.2662 29.2054 33.0528 29.5681C33.0528 29.5681 33.0955 29.0134 33.0528 28.9281L32.5622 29.4401L32.8182 28.7361C32.8182 28.7361 32.5195 29.1627 32.3488 29.1414L32.7328 28.5654L32.3488 28.8641L32.7755 28.2241L32.3915 28.3521C32.3915 28.3521 32.6688 27.9894 32.6475 27.7547L32.3702 28.0534C32.3702 28.0534 32.4768 27.7334 32.4555 27.6267L32.3062 27.6481L32.5835 27.3494L32.3915 27.3067L32.4128 27.0934L32.2848 27.0721V26.8374L32.8182 26.6667ZM32.5195 26.8374C32.9888 27.4774 32.7542 28.4374 33.0315 28.9494Z" fill="#016A16"/>
<path d="M32.5195 26.8374C32.9888 27.4774 32.7542 28.4374 33.0315 28.9494M32.8182 26.6667L33.0955 27.2214L32.9462 27.2641L33.2875 27.4987L33.0102 27.4774C33.0102 27.4774 33.4368 27.6267 33.4795 28.0534L33.0528 27.8401C33.0528 27.8401 33.4155 28.2241 33.4795 28.4587L33.2022 28.2454C33.2022 28.2454 33.4582 28.5014 33.4155 28.8854L33.2235 28.6721C33.2662 29.1627 33.2662 29.2054 33.0528 29.5681C33.0528 29.5681 33.0955 29.0134 33.0528 28.9281L32.5622 29.4401L32.8182 28.7361C32.8182 28.7361 32.5195 29.1627 32.3488 29.1414L32.7328 28.5654L32.3488 28.8641L32.7755 28.2241L32.3915 28.3521C32.3915 28.3521 32.6688 27.9894 32.6475 27.7547L32.3702 28.0534C32.3702 28.0534 32.4768 27.7334 32.4555 27.6267L32.3062 27.6481L32.5835 27.3494L32.3915 27.3067L32.4128 27.0934L32.2848 27.0721V26.8374L32.8182 26.6667Z" stroke="black" stroke-width="0.0426668"/>
</g>
</g>
<path id="Vector_66" d="M32.4557 35.5201C32.4557 35.5201 32.6904 33.3867 32.6904 32.4907C32.6904 31.7654 32.5197 30.1867 32.5197 30.1867H31.8157C31.8157 30.1867 31.709 31.7654 31.7304 32.4907C31.7304 33.3867 31.965 35.5201 31.965 35.5201H32.4557Z" fill="#F1B517" stroke="black" stroke-width="0.0426668"/>
<path id="Vector_67" d="M31.752 30.2934H32.6053L32.4986 29.7174H31.88L31.752 30.272V30.2934Z" fill="#F1B517" stroke="black" stroke-width="0.0426668"/>
<path id="Vector_68" d="M31.8153 29.824H32.5619L32.4126 29.248H31.9433L31.7939 29.824H31.8153Z" fill="#F1B517" stroke="black" stroke-width="0.0426668"/>
<path id="Vector_69" d="M31.8584 29.376H32.4984L32.3704 28.8H31.9651L31.8584 29.376Z" fill="#F1B517" stroke="black" stroke-width="0.0426668"/>
<g id="Vector_70">
<path d="M32.3915 28.7361H31.9648L31.9008 28.9494H32.4342L32.3915 28.7361ZM32.4768 35.0721H31.9222H32.4768ZM32.5195 34.6454H31.8795H32.5195ZM32.6048 34.2187H31.7942H32.6048ZM32.6475 33.7707H31.7942H32.6475ZM32.6475 33.3014H31.7728H32.6475ZM32.6688 32.8747H31.7302H32.6688ZM32.6688 32.5121H31.6875H32.6688ZM32.6688 32.0427H31.6875H32.6688ZM32.6475 31.5947H31.6875H32.6475ZM32.6048 31.1254H31.7302H32.6048ZM32.5622 30.6987H31.7728Z" fill="#F1B517"/>
<path d="M32.5622 30.6987H31.7728M32.3915 28.7361H31.9648L31.9008 28.9494H32.4342L32.3915 28.7361ZM32.4768 35.0721H31.9222H32.4768ZM32.5195 34.6454H31.8795H32.5195ZM32.6048 34.2187H31.7942H32.6048ZM32.6475 33.7707H31.7942H32.6475ZM32.6475 33.3014H31.7728H32.6475ZM32.6688 32.8747H31.7302H32.6688ZM32.6688 32.5121H31.6875H32.6688ZM32.6688 32.0427H31.6875H32.6688ZM32.6475 31.5947H31.6875H32.6475ZM32.6048 31.1254H31.7302H32.6048Z" stroke="black" stroke-width="0.0426668"/>
</g>
<path id="Vector_71" d="M32.2418 25.3867C32.0711 25.3227 31.7511 25.1094 31.8365 24.9814L31.9858 24.7254C32.1991 24.256 31.9858 24.4267 31.9858 24.2987C31.9431 24.128 32.7965 24.256 32.7965 24.576C32.7965 24.6827 32.7325 24.6187 32.7538 25.1307L32.5831 25.4507C32.4606 25.4667 32.336 25.4521 32.2205 25.408L32.2418 25.3867Z" fill="#0A328C" stroke="#0A328C" stroke-width="0.0426668"/>
<path id="Vector_72" d="M32.3276 26.6667L32.1143 26.4747L32.1783 24.9601L32.3916 25.0241L32.3276 26.6454V26.6667Z" fill="#F1B517" stroke="black" stroke-width="0.0426668"/>
<path id="Vector_73" d="M32.6049 25.4507C32.7329 25.3654 32.8182 25.1307 32.7329 25.0027C32.5195 24.7254 32.3702 24.832 32.0075 24.704C31.9435 24.7894 31.7942 24.9174 31.8155 25.0454C32.3062 25.2587 32.1142 25.088 32.2849 25.1094C32.3702 25.1094 32.4129 25.216 32.6049 25.4294V25.4507Z" fill="#D20014" stroke="#D20014" stroke-width="0.0426668"/>
</g>
<g id="Group_6">
<path id="Vector_74" d="M29.7894 34.1974C29.7468 34.0907 29.5761 34.0054 29.3628 34.0054C29.1494 34.0054 29.0001 34.0907 28.9361 34.1974C28.9289 34.1694 28.9289 34.14 28.9361 34.1121C28.9361 33.9627 29.1281 33.8561 29.3628 33.8561C29.6188 33.8561 29.8108 33.9627 29.8108 34.1121C29.818 34.14 29.818 34.1694 29.8108 34.1974H29.7894Z" fill="#016A16" stroke="#F5F5F5" stroke-width="0.0426668" stroke-linecap="round"/>
<path id="Vector_75" d="M29.7678 34.5174C29.7678 34.7734 29.5759 35.0081 29.3625 35.0081C29.1492 35.0081 28.9785 34.7947 28.9785 34.4961V34.2401H29.7678V34.4961V34.5174Z" fill="#016A16" stroke="#F5F5F5" stroke-width="0.0426668" stroke-linecap="round"/>
<path id="Vector_76" d="M29.3625 34.3467C29.5746 34.3467 29.7465 34.2608 29.7465 34.1547C29.7465 34.0487 29.5746 33.9627 29.3625 33.9627C29.1504 33.9627 28.9785 34.0487 28.9785 34.1547C28.9785 34.2608 29.1504 34.3467 29.3625 34.3467Z" fill="#F5F5F5"/>
<path id="Vector_77" d="M29.2769 34.3467L29.2129 33.6641H29.5116L29.4689 34.3681H29.2769V34.3467Z" fill="#016A16" stroke="#F1B517" stroke-width="0.0426668"/>
<path id="c" d="M29.7894 34.1547C29.7468 34.2614 29.5761 34.3467 29.3628 34.3467C29.1494 34.3467 29.0001 34.2614 28.9361 34.1547C28.9289 34.1827 28.9289 34.2121 28.9361 34.2401C28.9361 34.3894 29.1281 34.4961 29.3628 34.4961C29.6188 34.4961 29.8108 34.3894 29.8108 34.2401C29.818 34.2121 29.818 34.1827 29.8108 34.1547H29.7894Z" fill="#016A16" stroke="#F5F5F5" stroke-width="0.0426668" stroke-linecap="round"/>
<g id="d">
<path id="Vector_78" d="M31.3892 36.8641L29.8959 36.3947L29.2345 35.2641L26.9092 35.1574L26.9945 36.0107L28.9785 36.3734L29.1492 36.7147L31.4319 37.3547L31.3892 36.8641V36.8641Z" fill="#F1B517" stroke="black" stroke-width="0.0426668"/>
<path id="Vector_79" d="M29.8319 37.1841L27.4426 33.6641L27.3359 33.7707L29.6826 37.2694L29.8319 37.1841Z" fill="#503200" stroke="black" stroke-width="0.0426668"/>
<path id="Vector_80" d="M27.6767 33.8134L27.4207 33.3867C27.3567 33.3014 27.2927 33.2801 27.186 33.3441C27.0794 33.3867 27.1007 33.4934 27.1434 33.5787L27.3567 33.9841L27.6767 33.8134V33.8134Z" fill="#F5F5F5" stroke="black" stroke-width="0.0426668"/>
<path id="Vector_81" d="M30.1087 35.0081L25.3087 34.5174L25.1807 35.2214L29.9593 35.7121L30.1087 35.0081Z" fill="#F1B517" stroke="black" stroke-width="0.0426668"/>
<path id="Vector_82" d="M25.2024 34.3467L25.0957 35.3067H25.309L25.437 34.4321L25.2237 34.3467H25.2024ZM26.013 34.4961L25.9704 35.3707H26.0984L26.205 34.6241L26.0344 34.4961H26.013ZM29.277 34.8801L29.149 35.6907H29.3837L29.4904 34.8801H29.277ZM29.981 34.9014L29.8317 35.8401L30.0877 35.8827L30.173 35.3921C30.173 35.4987 30.2797 35.5627 30.3864 35.5627C30.5144 35.5627 30.5997 35.4561 30.5997 35.3494C30.5997 35.2214 30.5144 35.1361 30.3864 35.1361C30.3419 35.1324 30.2974 35.1428 30.2591 35.1658C30.2209 35.1887 30.1907 35.2231 30.173 35.2641L30.237 34.9227L29.981 34.9014V34.9014ZM28.2744 35.0507L27.5917 35.7974L27.677 35.8827L28.5304 35.3067L28.253 35.0507H28.2744ZM26.6957 36.9067L27.357 36.1601L27.293 36.0747L26.4397 36.6507L26.6957 36.9067V36.9067ZM28.4237 36.7147L27.6344 36.0961L27.549 36.1601L28.189 36.9707L28.4237 36.7147V36.7147ZM26.4397 35.2854L27.2717 35.8827L27.357 35.8187L26.717 35.0081L26.4397 35.2854ZM27.3357 34.7947L27.421 35.7761H27.5277L27.7837 34.8161L27.3357 34.7947ZM27.5917 37.1414L27.5277 36.1814H27.3997L27.2504 37.1627H27.5917V37.1414ZM28.6797 35.8614L27.6557 35.9467V36.0534L28.6797 36.1814V35.8401V35.8614ZM26.2477 36.1814L27.2504 36.0321V35.9467L26.2264 35.8401V36.1814H26.2477Z" fill="#F1B517" stroke="black" stroke-width="0.0426668"/>
<path id="Vector_83" d="M27.4853 36.2241C27.6385 36.2241 27.7627 36.1095 27.7627 35.9681C27.7627 35.8267 27.6385 35.7121 27.4853 35.7121C27.3322 35.7121 27.208 35.8267 27.208 35.9681C27.208 36.1095 27.3322 36.2241 27.4853 36.2241Z" fill="#F1B517" stroke="black" stroke-width="0.0426668"/>
<path id="Vector_84" fill-rule="evenodd" clip-rule="evenodd" d="M28.9143 35.9681C28.9143 36.7147 28.2743 37.3547 27.485 37.3547C27.3001 37.3576 27.1164 37.3239 26.9445 37.2558C26.7726 37.1876 26.6158 37.0862 26.4831 36.9575C26.3504 36.8287 26.2443 36.6751 26.171 36.5053C26.0976 36.3355 26.0584 36.153 26.0557 35.9681C26.0557 35.2001 26.6957 34.5814 27.485 34.5814C27.6699 34.5786 27.8536 34.6122 28.0255 34.6804C28.1974 34.7485 28.3542 34.8499 28.4869 34.9787C28.6196 35.1074 28.7257 35.2611 28.799 35.4309C28.8724 35.6006 28.9116 35.7832 28.9143 35.9681ZM28.637 35.9681C28.6342 36.1166 28.6022 36.263 28.5428 36.3992C28.4834 36.5353 28.3978 36.6584 28.2908 36.7614C28.1838 36.8644 28.0576 36.9453 27.9193 36.9996C27.7811 37.0538 27.6335 37.0802 27.485 37.0774C27.3347 37.0802 27.1854 37.0531 27.0458 36.9975C26.9061 36.942 26.7789 36.8592 26.6717 36.7539C26.5644 36.6486 26.4792 36.523 26.4211 36.3844C26.3629 36.2458 26.333 36.097 26.333 35.9467C26.3441 35.6506 26.4711 35.3707 26.6865 35.1672C26.902 34.9637 27.1887 34.8529 27.485 34.8587C27.6335 34.8559 27.7811 34.8824 27.9193 34.9366C28.0576 34.9908 28.1838 35.0717 28.2908 35.1748C28.3978 35.2778 28.4834 35.4009 28.5428 35.537C28.6022 35.6731 28.6342 35.8196 28.637 35.9681V35.9681Z" fill="#F1B517" stroke="black" stroke-width="0.0426668" stroke-linecap="round"/>
<path id="Vector_85" d="M26.5893 35.2641L26.376 35.0934L26.5893 35.2641ZM28.1893 35.0934L28.4026 34.8801L28.1893 35.0934ZM28.616 36.8428L28.3813 36.6508L28.616 36.8428ZM26.5893 37.0561L26.8026 36.8428L26.5893 37.0561ZM31.432 34.5814L31.6667 35.8614L31.4747 35.9468L31.2613 34.6028H31.432V34.5814Z" fill="#F1B517" stroke="black" stroke-width="0.0426668"/>
<path id="Vector_86" d="M31.3039 34.4321C31.1972 34.3681 31.0479 34.4534 30.7919 34.1547C30.3866 34.5174 30.7919 34.5814 30.8346 34.9441C30.9412 34.9867 31.0266 34.6454 31.3252 34.6241L31.8159 34.5814L31.7092 34.4321H31.2826H31.3039Z" fill="#F5F5F5" stroke="black" stroke-width="0.0426668"/>
<path id="Vector_87" d="M31.4747 34.6667L31.4321 34.3041C31.3681 34.1547 31.2188 34.2827 31.2188 34.3467L31.2614 34.7094L31.4747 34.6667Z" fill="#F5F5F5" stroke="black" stroke-width="0.0426668"/>
<path id="Vector_88" fill-rule="evenodd" clip-rule="evenodd" d="M30.2802 35.7121V36.0534C30.1522 36.0961 30.1736 36.1814 30.1736 36.3094V37.3121C30.1522 37.3974 30.0242 37.3974 29.9602 37.4401C29.8962 37.5041 29.9176 37.6107 30.1736 37.6534L30.3869 37.6747C30.7069 37.6107 30.7709 37.5041 30.6002 37.4614C30.5362 37.4187 30.4082 37.3761 30.3869 37.3334V37.0774H30.6002C30.6429 37.0774 30.7496 36.9494 30.7496 36.8427V36.3094C30.7496 36.0107 30.5362 35.9681 30.4509 35.9894V35.7121H30.2802V35.7121ZM30.6216 36.2881C30.6216 36.2027 30.4936 36.1174 30.4509 36.1174C30.4082 36.1174 30.3015 36.2241 30.3015 36.3094V36.5227C30.3015 36.6081 30.3656 36.8641 30.4936 36.8854C30.5362 36.8854 30.6216 36.8001 30.6216 36.7147V36.2881V36.2881Z" fill="#F1B517" stroke="black" stroke-width="0.0426668"/>
<g id="Vector_89">
<path d="M28.8934 36.7574C28.7441 36.7147 28.7441 37.0134 28.7441 37.0134H28.9574C29.0641 37.0561 29.1281 37.1841 29.0854 37.2694C29.0214 37.3121 28.6161 37.1627 28.5947 37.2694C28.6587 37.6747 29.2134 37.8241 29.4054 37.6534C29.5974 37.4614 29.6401 37.0134 29.0214 36.8641L28.8934 36.7574ZM29.0214 36.8854L28.9574 37.0134Z" fill="#F5F5F5"/>
<path d="M29.0214 36.8854L28.9574 37.0134M28.8934 36.7574C28.7441 36.7147 28.7441 37.0134 28.7441 37.0134H28.9574C29.0641 37.0561 29.1281 37.1841 29.0854 37.2694C29.0214 37.3121 28.6161 37.1627 28.5947 37.2694C28.6587 37.6747 29.2134 37.8241 29.4054 37.6534C29.5974 37.4614 29.6401 37.0134 29.0214 36.8641L28.8934 36.7574Z" stroke="black" stroke-width="0.0426668"/>
</g>
<g id="Vector_90">
<path d="M24.7757 36.9067L24.5624 36.0534L24.7757 36.9067ZM25.0104 36.8641L24.6904 36.2027L25.0104 36.8641ZM25.5437 36.6934L24.8397 36.3094L25.5437 36.6934ZM25.8637 36.6081L24.541 36.0321Z" fill="#F1B517"/>
<path d="M25.8637 36.6081L24.541 36.0321M24.7757 36.9067L24.5624 36.0534L24.7757 36.9067ZM25.0104 36.8641L24.6904 36.2027L25.0104 36.8641ZM25.5437 36.6934L24.8397 36.3094L25.5437 36.6934Z" stroke="black" stroke-width="0.0426668"/>
</g>
<path id="Vector_91" d="M23.7517 35.4134L23.1971 35.4348C23.1544 35.4561 23.3037 35.6268 23.2824 35.6694C23.1544 35.9041 22.3437 35.8828 22.2797 35.8401C22.1731 35.7334 23.0264 35.6694 23.0477 35.6268C23.0477 35.5414 22.9197 35.3708 22.9411 35.2641C22.9411 35.1148 23.3037 35.0508 23.3037 35.0508L23.7517 35.4134Z" fill="#D20014" stroke="#D20014" stroke-width="0.0426668"/>
<path id="Vector_92" d="M24.3915 35.8401L23.3248 34.9441C23.3248 34.9441 23.2608 34.9014 23.2182 34.9441C23.1755 34.9867 23.2182 35.0294 23.2182 35.0294L24.3702 35.9681L24.3915 35.8614V35.8401Z" fill="#503200" stroke="black" stroke-width="0.0426668"/>
<path id="Vector_93" d="M25.4589 36.7361L24.5629 35.9681L24.4989 35.7547L24.3282 35.8827C24.2642 35.9254 24.2002 36.0534 24.2002 36.0534H24.4349L25.2029 36.7787L25.4375 36.7361H25.4589Z" fill="#F1B517" stroke="black" stroke-width="0.0426668"/>
<path id="Vector_94" d="M28.5087 37.9307C28.5912 37.9307 28.658 37.8639 28.658 37.7814C28.658 37.6989 28.5912 37.6321 28.5087 37.6321C28.4262 37.6321 28.3594 37.6989 28.3594 37.7814C28.3594 37.8639 28.4262 37.9307 28.5087 37.9307Z" fill="#F1B517" stroke="black" stroke-width="0.0426668"/>
<path id="Vector_95" d="M28.1034 37.6321C28.1859 37.6321 28.2528 37.5652 28.2528 37.4827C28.2528 37.4003 28.1859 37.3334 28.1034 37.3334C28.021 37.3334 27.9541 37.4003 27.9541 37.4827C27.9541 37.5652 28.021 37.6321 28.1034 37.6321Z" fill="#F1B517" stroke="black" stroke-width="0.0426668"/>
<path id="Vector_96" d="M27.5702 37.8241C27.6527 37.8241 27.7196 37.7572 27.7196 37.6748C27.7196 37.5923 27.6527 37.5254 27.5702 37.5254C27.4878 37.5254 27.4209 37.5923 27.4209 37.6748C27.4209 37.7572 27.4878 37.8241 27.5702 37.8241Z" fill="#F1B517" stroke="black" stroke-width="0.0426668"/>
<path id="Vector_97" d="M26.7382 37.9947C26.8207 37.9947 26.8875 37.9279 26.8875 37.8454C26.8875 37.7629 26.8207 37.6961 26.7382 37.6961C26.6557 37.6961 26.5889 37.7629 26.5889 37.8454C26.5889 37.9279 26.6557 37.9947 26.7382 37.9947Z" fill="#F1B517" stroke="black" stroke-width="0.0426668"/>
<path id="Vector_98" d="M26.3759 38.0374C26.4584 38.0374 26.5252 37.9705 26.5252 37.8881C26.5252 37.8056 26.4584 37.7387 26.3759 37.7387C26.2934 37.7387 26.2266 37.8056 26.2266 37.8881C26.2266 37.9705 26.2934 38.0374 26.3759 38.0374Z" fill="#F1B517" stroke="black" stroke-width="0.0426668"/>
<path id="Vector_99" d="M26.0126 38.0374C26.0951 38.0374 26.1619 37.9705 26.1619 37.8881C26.1619 37.8056 26.0951 37.7387 26.0126 37.7387C25.9301 37.7387 25.8633 37.8056 25.8633 37.8881C25.8633 37.9705 25.9301 38.0374 26.0126 38.0374Z" fill="#F1B517" stroke="black" stroke-width="0.0426668"/>
<path id="Vector_100" d="M25.6718 38.0374C25.7543 38.0374 25.8211 37.9705 25.8211 37.8881C25.8211 37.8056 25.7543 37.7387 25.6718 37.7387C25.5893 37.7387 25.5225 37.8056 25.5225 37.8881C25.5225 37.9705 25.5893 38.0374 25.6718 38.0374Z" fill="#F1B517" stroke="black" stroke-width="0.0426668"/>
<path id="Vector_101" d="M25.8427 37.7601C25.9252 37.7601 25.992 37.6932 25.992 37.6108C25.992 37.5283 25.9252 37.4614 25.8427 37.4614C25.7602 37.4614 25.6934 37.5283 25.6934 37.6108C25.6934 37.6932 25.7602 37.7601 25.8427 37.7601Z" fill="#F1B517" stroke="black" stroke-width="0.0426668"/>
<path id="Vector_102" d="M26.1835 37.7814C26.266 37.7814 26.3328 37.7145 26.3328 37.6321C26.3328 37.5496 26.266 37.4827 26.1835 37.4827C26.101 37.4827 26.0342 37.5496 26.0342 37.6321C26.0342 37.7145 26.101 37.7814 26.1835 37.7814Z" fill="#F1B517" stroke="black" stroke-width="0.0426668"/>
<path id="Vector_103" d="M26.5038 37.7387C26.5863 37.7387 26.6532 37.6719 26.6532 37.5894C26.6532 37.5069 26.5863 37.4401 26.5038 37.4401C26.4214 37.4401 26.3545 37.5069 26.3545 37.5894C26.3545 37.6719 26.4214 37.7387 26.5038 37.7387Z" fill="#F1B517" stroke="black" stroke-width="0.0426668"/>
<path id="Vector_104" d="M26.3544 37.4827C26.4369 37.4827 26.5037 37.4159 26.5037 37.3334C26.5037 37.2509 26.4369 37.1841 26.3544 37.1841C26.2719 37.1841 26.2051 37.2509 26.2051 37.3334C26.2051 37.4159 26.2719 37.4827 26.3544 37.4827Z" fill="#F1B517" stroke="black" stroke-width="0.0426668"/>
<path id="Vector_105" d="M26.0126 37.4614C26.0951 37.4614 26.1619 37.3946 26.1619 37.3121C26.1619 37.2296 26.0951 37.1628 26.0126 37.1628C25.9301 37.1628 25.8633 37.2296 25.8633 37.3121C25.8633 37.3946 25.9301 37.4614 26.0126 37.4614Z" fill="#F1B517" stroke="black" stroke-width="0.0426668"/>
<path id="Vector_106" fill-rule="evenodd" clip-rule="evenodd" d="M29.3621 37.9734C29.3621 37.9094 29.1914 37.9308 29.1914 37.8454C29.1914 37.7601 29.4474 37.8454 29.4687 37.9094C29.6181 37.7814 29.6821 37.8668 29.7674 37.9094C29.8954 37.7388 30.0447 37.7388 30.1941 37.8668C30.2794 37.7814 30.4927 37.8028 30.5567 37.9094C30.7061 37.7814 30.8341 37.8028 30.9194 37.9094C30.9621 37.8454 31.0261 37.8454 31.0687 37.9094C31.1327 37.7601 31.3247 37.8028 31.4101 37.9094C31.4741 37.8241 31.5594 37.8881 31.6447 37.9308C31.7087 37.8881 31.8154 37.8881 31.8154 37.9308C31.8154 38.0161 31.6874 37.9948 31.6874 38.0588C31.6874 38.1014 31.7727 38.0588 31.7727 38.1441C31.7727 38.2081 31.6447 38.2294 31.6234 38.1441C31.5594 38.2294 31.3887 38.1868 31.3674 38.1014C31.3514 38.1196 31.3317 38.1341 31.3096 38.1441C31.2876 38.1541 31.2636 38.1592 31.2394 38.1592C31.2152 38.1592 31.1913 38.1541 31.1692 38.1441C31.1471 38.1341 31.1274 38.1196 31.1114 38.1014C31.0474 38.1441 30.9621 38.1441 30.9407 38.1014C30.8341 38.2081 30.6421 38.1868 30.5781 38.0588H30.5141C30.4941 38.0815 30.4694 38.0996 30.4418 38.1121C30.4143 38.1245 30.3843 38.131 30.3541 38.131C30.3238 38.131 30.2939 38.1245 30.2663 38.1121C30.2387 38.0996 30.2141 38.0815 30.1941 38.0588C30.0021 38.1868 29.8954 38.1441 29.7887 38.0588C29.6821 38.2081 29.4901 38.2081 29.4687 38.0588C29.3834 38.1228 29.2127 38.1441 29.2127 38.0588C29.2127 38.0161 29.3621 38.0374 29.3621 37.9734V37.9734ZM29.7034 37.9948C29.7034 38.0374 29.6607 38.0588 29.6181 38.0588C29.5754 38.0588 29.5327 38.0374 29.5327 37.9948C29.5327 37.9521 29.5541 37.9521 29.6181 37.9521C29.6821 37.9521 29.7034 37.9734 29.7034 37.9948ZM30.1087 37.9521C30.1087 37.9948 30.0447 38.0161 29.9807 38.0161C29.9167 38.0161 29.8741 37.9948 29.8741 37.9521C29.8741 37.9308 29.9167 37.8881 29.9807 37.8881C30.0447 37.8881 30.0874 37.9308 30.0874 37.9521H30.1087ZM30.8554 37.9948C30.8554 38.0374 30.8127 38.0588 30.7487 38.0588C30.6847 38.0588 30.6634 38.0374 30.6634 37.9948C30.6634 37.9734 30.7061 37.9308 30.7487 37.9308C30.7914 37.9308 30.8554 37.9521 30.8554 37.9948ZM30.4501 37.9948C30.4501 38.0374 30.4074 38.0588 30.3434 38.0588C30.2794 38.0588 30.2581 38.0374 30.2581 37.9734C30.2581 37.9308 30.3007 37.8881 30.3434 37.8881C30.3861 37.8881 30.4501 37.9308 30.4501 37.9734V37.9948ZM31.3034 37.9948C31.3034 38.0161 31.2821 38.0588 31.2394 38.0588C31.1754 38.0588 31.1327 38.0161 31.1327 37.9734C31.1327 37.9308 31.1754 37.9094 31.2394 37.9094C31.2821 37.9094 31.3247 37.9308 31.3247 37.9734L31.3034 37.9948ZM31.0474 37.9948C31.0474 38.0374 31.0474 38.0588 31.0047 38.0588C30.9621 38.0588 30.9407 38.0374 30.9407 37.9948C30.9407 37.9521 30.9621 37.9521 31.0047 37.9521L31.0474 37.9948ZM31.5594 38.0161C31.5594 38.0588 31.5594 38.1014 31.4954 38.1014C31.4741 38.1014 31.4314 38.0588 31.4314 38.0161C31.4314 37.9734 31.4741 37.9521 31.4954 37.9521C31.5381 37.9521 31.5594 37.9734 31.5594 38.0161Z" fill="#F1B517" stroke="black" stroke-width="0.0426668"/>
</g>
<g id="Group_7">
<path id="Vector_107" d="M33.0747 36.8641L34.568 36.3947L35.2294 35.2641L37.5547 35.1574L37.4694 36.0107L35.4854 36.3734L35.3147 36.7147L33.032 37.3547L33.0747 36.8641V36.8641Z" fill="#F1B517" stroke="black" stroke-width="0.0426668"/>
<path id="Vector_108" d="M34.6319 37.1841L37.0213 33.6641L37.1279 33.7707L34.7813 37.2694L34.6319 37.1841Z" fill="#503200" stroke="black" stroke-width="0.0426668"/>
<path id="Vector_109" d="M36.7872 33.8134L37.0432 33.3867C37.1072 33.3014 37.1712 33.2801 37.2778 33.3441C37.3845 33.3867 37.3632 33.4934 37.3205 33.5787L37.1072 33.9841L36.7872 33.8134V33.8134Z" fill="#F5F5F5" stroke="black" stroke-width="0.0426668"/>
<path id="Vector_110" d="M34.3552 35.0081L39.1552 34.5174L39.2832 35.2214L34.5045 35.7121L34.3552 35.0081Z" fill="#F1B517" stroke="black" stroke-width="0.0426668"/>
<path id="Vector_111" d="M39.2615 34.3467L39.3682 35.3067H39.1548L39.0268 34.4321L39.2402 34.3467H39.2615ZM38.4508 34.4961L38.4935 35.3707H38.3655L38.2588 34.6241L38.4295 34.4961H38.4508ZM35.1868 34.8801L35.3148 35.6907H35.0802L34.9735 34.8801H35.1868ZM34.4828 34.9014L34.6322 35.8401L34.3762 35.8827L34.2908 35.3921C34.2908 35.4987 34.1842 35.5627 34.0775 35.5627C33.9495 35.5627 33.8642 35.4561 33.8642 35.3494C33.8642 35.2214 33.9495 35.1361 34.0775 35.1361C34.122 35.1324 34.1665 35.1428 34.2047 35.1658C34.243 35.1887 34.2731 35.2231 34.2908 35.2641L34.2268 34.9227L34.4828 34.9014V34.9014ZM36.1895 35.0507L36.8722 35.7974L36.7868 35.8827L35.9335 35.3067L36.2108 35.0507H36.1895ZM37.7682 36.9067L37.1068 36.1601L37.1708 36.0747L38.0242 36.6507L37.7682 36.9067V36.9067ZM36.0402 36.7147L36.8295 36.0961L36.9148 36.1601L36.2748 36.9707L36.0402 36.7147V36.7147ZM38.0242 35.2854L37.1922 35.8827L37.1068 35.8187L37.7468 35.0081L38.0242 35.2854ZM37.1282 34.7947L37.0428 35.7761H36.9362L36.6802 34.8161L37.1282 34.7947ZM36.8722 37.1414L36.9362 36.1814H37.0642L37.2135 37.1627H36.8722V37.1414ZM35.7842 35.8614L36.8082 35.9467V36.0534L35.7842 36.1814V35.8401V35.8614ZM38.2162 36.1814L37.2135 36.0321V35.9467L38.2375 35.8401V36.1814H38.2162Z" fill="#F1B517" stroke="black" stroke-width="0.0426668"/>
<path id="Vector_112" d="M36.9785 36.2241C36.8254 36.2241 36.7012 36.1095 36.7012 35.9681C36.7012 35.8267 36.8254 35.7121 36.9785 35.7121C37.1317 35.7121 37.2559 35.8267 37.2559 35.9681C37.2559 36.1095 37.1317 36.2241 36.9785 36.2241Z" fill="#F1B517" stroke="black" stroke-width="0.0426668"/>
<path id="Vector_113" fill-rule="evenodd" clip-rule="evenodd" d="M35.5495 35.9681C35.5495 36.7147 36.1895 37.3547 36.9789 37.3547C37.1638 37.3576 37.3474 37.3239 37.5193 37.2558C37.6912 37.1876 37.848 37.0862 37.9808 36.9575C38.1135 36.8287 38.2196 36.6751 38.2929 36.5053C38.3662 36.3355 38.4054 36.153 38.4082 35.9681C38.4082 35.2001 37.7682 34.5814 36.9789 34.5814C36.794 34.5786 36.6103 34.6122 36.4384 34.6804C36.2665 34.7485 36.1097 34.8499 35.977 34.9787C35.8442 35.1074 35.7382 35.2611 35.6648 35.4309C35.5915 35.6006 35.5523 35.7832 35.5495 35.9681ZM35.8269 35.9681C35.8296 36.1166 35.8616 36.263 35.921 36.3992C35.9804 36.5353 36.0661 36.6584 36.1731 36.7614C36.28 36.8644 36.4063 36.9453 36.5445 36.9996C36.6828 37.0538 36.8304 37.0802 36.9789 37.0774C37.1291 37.0802 37.2785 37.0531 37.4181 36.9975C37.5578 36.942 37.6849 36.8592 37.7922 36.7539C37.8995 36.6486 37.9847 36.523 38.0428 36.3844C38.101 36.2458 38.1309 36.097 38.1309 35.9467C38.1197 35.6506 37.9928 35.3707 37.7773 35.1672C37.5619 34.9637 37.2752 34.8529 36.9789 34.8587C36.8304 34.8559 36.6828 34.8824 36.5445 34.9366C36.4063 34.9908 36.28 35.0717 36.1731 35.1748C36.0661 35.2778 35.9804 35.4009 35.921 35.537C35.8616 35.6731 35.8296 35.8196 35.8269 35.9681V35.9681Z" fill="#F1B517" stroke="black" stroke-width="0.0426668" stroke-linecap="round"/>
<path id="Vector_114" d="M37.8746 35.2641L38.0879 35.0934L37.8746 35.2641ZM36.2746 35.0934L36.0612 34.8801L36.2746 35.0934ZM35.8479 36.8428L36.0826 36.6508L35.8479 36.8428ZM37.8746 37.0561L37.6612 36.8428L37.8746 37.0561ZM33.0319 34.5814L32.7972 35.8614L32.9892 35.9468L33.2025 34.6028H33.0319V34.5814Z" fill="#F1B517" stroke="black" stroke-width="0.0426668"/>
<path id="Vector_115" d="M33.16 34.4321C33.2666 34.3681 33.416 34.4534 33.672 34.1547C34.0773 34.5174 33.672 34.5814 33.6293 34.9441C33.5226 34.9867 33.4373 34.6454 33.1386 34.6241L32.648 34.5814L32.7546 34.4321H33.1813H33.16Z" fill="#F5F5F5" stroke="black" stroke-width="0.0426668"/>
<path id="Vector_116" d="M32.9891 34.6667L33.0318 34.3041C33.0958 34.1547 33.2451 34.2827 33.2451 34.3467L33.2025 34.7094L32.9891 34.6667Z" fill="#F5F5F5" stroke="black" stroke-width="0.0426668"/>
<path id="Vector_117" fill-rule="evenodd" clip-rule="evenodd" d="M34.1836 35.7121V36.0534C34.3116 36.0961 34.2903 36.1814 34.2903 36.3094V37.3121C34.3116 37.3974 34.4396 37.3974 34.5036 37.4401C34.5676 37.5041 34.5463 37.6107 34.2903 37.6534L34.077 37.6747C33.757 37.6107 33.693 37.5041 33.8636 37.4614C33.9276 37.4187 34.0556 37.3761 34.077 37.3334V37.0774H33.8636C33.821 37.0774 33.7143 36.9494 33.7143 36.8427V36.3094C33.7143 36.0107 33.9276 35.9681 34.013 35.9894V35.7121H34.1836V35.7121ZM33.8423 36.2881C33.8423 36.2027 33.9703 36.1174 34.013 36.1174C34.0556 36.1174 34.1623 36.2241 34.1623 36.3094V36.5227C34.1623 36.6081 34.0983 36.8641 33.9703 36.8854C33.9276 36.8854 33.8423 36.8001 33.8423 36.7147V36.2881V36.2881Z" fill="#F1B517" stroke="black" stroke-width="0.0426668"/>
<g id="Vector_118">
<path d="M35.5705 36.7574C35.7198 36.7147 35.7198 37.0134 35.7198 37.0134H35.5065C35.3998 37.0561 35.3358 37.1841 35.3785 37.2694C35.4425 37.3121 35.8478 37.1627 35.8691 37.2694C35.8051 37.6747 35.2505 37.8241 35.0585 37.6534C34.8665 37.4614 34.8238 37.0134 35.4425 36.8641L35.5705 36.7574ZM35.4425 36.8854L35.5065 37.0134Z" fill="#F5F5F5"/>
<path d="M35.4425 36.8854L35.5065 37.0134M35.5705 36.7574C35.7198 36.7147 35.7198 37.0134 35.7198 37.0134H35.5065C35.3998 37.0561 35.3358 37.1841 35.3785 37.2694C35.4425 37.3121 35.8478 37.1627 35.8691 37.2694C35.8051 37.6747 35.2505 37.8241 35.0585 37.6534C34.8665 37.4614 34.8238 37.0134 35.4425 36.8641L35.5705 36.7574Z" stroke="black" stroke-width="0.0426668"/>
</g>
<g id="Vector_119">
<path d="M39.6882 36.9067L39.9015 36.0534L39.6882 36.9067ZM39.4535 36.8641L39.7735 36.2027L39.4535 36.8641ZM38.9202 36.6934L39.6242 36.3094L38.9202 36.6934ZM38.6002 36.6081L39.9229 36.0321Z" fill="#F1B517"/>
<path d="M38.6002 36.6081L39.9229 36.0321M39.6882 36.9067L39.9015 36.0534L39.6882 36.9067ZM39.4535 36.8641L39.7735 36.2027L39.4535 36.8641ZM38.9202 36.6934L39.6242 36.3094L38.9202 36.6934Z" stroke="black" stroke-width="0.0426668"/>
</g>
<path id="Vector_120" d="M40.7121 35.4134L41.2668 35.4348C41.3095 35.4561 41.1601 35.6268 41.1815 35.6694C41.3095 35.9041 42.1201 35.8828 42.1841 35.8401C42.2908 35.7334 41.4375 35.6694 41.4161 35.6268C41.4161 35.5414 41.5441 35.3708 41.5228 35.2641C41.5228 35.1148 41.1601 35.0508 41.1601 35.0508L40.7121 35.4134Z" fill="#D20014" stroke="#D20014" stroke-width="0.0426668"/>
<path id="Vector_121" d="M40.0723 35.8401L41.139 34.9441C41.139 34.9441 41.203 34.9014 41.2457 34.9441C41.2884 34.9867 41.2457 35.0294 41.2457 35.0294L40.0937 35.9681L40.0723 35.8614V35.8401Z" fill="#503200" stroke="black" stroke-width="0.0426668"/>
<path id="Vector_122" d="M39.005 36.7361L39.901 35.9681L39.965 35.7547L40.1357 35.8827C40.1997 35.9254 40.2637 36.0534 40.2637 36.0534H40.029L39.261 36.7787L39.0263 36.7361H39.005Z" fill="#F1B517" stroke="black" stroke-width="0.0426668"/>
<path id="Vector_123" d="M35.9552 37.9307C35.8727 37.9307 35.8058 37.8639 35.8058 37.7814C35.8058 37.6989 35.8727 37.6321 35.9552 37.6321C36.0376 37.6321 36.1045 37.6989 36.1045 37.7814C36.1045 37.8639 36.0376 37.9307 35.9552 37.9307Z" fill="#F1B517" stroke="black" stroke-width="0.0426668"/>
<path id="Vector_124" d="M36.3604 37.6321C36.278 37.6321 36.2111 37.5652 36.2111 37.4827C36.2111 37.4003 36.278 37.3334 36.3604 37.3334C36.4429 37.3334 36.5098 37.4003 36.5098 37.4827C36.5098 37.5652 36.4429 37.6321 36.3604 37.6321Z" fill="#F1B517" stroke="black" stroke-width="0.0426668"/>
<path id="Vector_125" d="M36.8936 37.8241C36.8112 37.8241 36.7443 37.7572 36.7443 37.6748C36.7443 37.5923 36.8112 37.5254 36.8936 37.5254C36.9761 37.5254 37.043 37.5923 37.043 37.6748C37.043 37.7572 36.9761 37.8241 36.8936 37.8241Z" fill="#F1B517" stroke="black" stroke-width="0.0426668"/>
<path id="Vector_126" d="M37.7257 37.9947C37.6432 37.9947 37.5763 37.9279 37.5763 37.8454C37.5763 37.7629 37.6432 37.6961 37.7257 37.6961C37.8081 37.6961 37.875 37.7629 37.875 37.8454C37.875 37.9279 37.8081 37.9947 37.7257 37.9947Z" fill="#F1B517" stroke="black" stroke-width="0.0426668"/>
<path id="Vector_127" d="M38.088 38.0374C38.0055 38.0374 37.9386 37.9705 37.9386 37.8881C37.9386 37.8056 38.0055 37.7387 38.088 37.7387C38.1704 37.7387 38.2373 37.8056 38.2373 37.8881C38.2373 37.9705 38.1704 38.0374 38.088 38.0374Z" fill="#F1B517" stroke="black" stroke-width="0.0426668"/>
<path id="Vector_128" d="M38.4513 38.0374C38.3688 38.0374 38.3019 37.9705 38.3019 37.8881C38.3019 37.8056 38.3688 37.7387 38.4513 37.7387C38.5337 37.7387 38.6006 37.8056 38.6006 37.8881C38.6006 37.9705 38.5337 38.0374 38.4513 38.0374Z" fill="#F1B517" stroke="black" stroke-width="0.0426668"/>
<path id="Vector_129" d="M38.7921 38.0374C38.7096 38.0374 38.6427 37.9705 38.6427 37.8881C38.6427 37.8056 38.7096 37.7387 38.7921 37.7387C38.8745 37.7387 38.9414 37.8056 38.9414 37.8881C38.9414 37.9705 38.8745 38.0374 38.7921 38.0374Z" fill="#F1B517" stroke="black" stroke-width="0.0426668"/>
<path id="Vector_130" d="M38.6212 37.7601C38.5387 37.7601 38.4718 37.6932 38.4718 37.6108C38.4718 37.5283 38.5387 37.4614 38.6212 37.4614C38.7036 37.4614 38.7705 37.5283 38.7705 37.6108C38.7705 37.6932 38.7036 37.7601 38.6212 37.7601Z" fill="#F1B517" stroke="black" stroke-width="0.0426668"/>
<path id="Vector_131" d="M38.2804 37.7814C38.1979 37.7814 38.131 37.7145 38.131 37.6321C38.131 37.5496 38.1979 37.4827 38.2804 37.4827C38.3628 37.4827 38.4297 37.5496 38.4297 37.6321C38.4297 37.7145 38.3628 37.7814 38.2804 37.7814Z" fill="#F1B517" stroke="black" stroke-width="0.0426668"/>
<path id="Vector_132" d="M37.96 37.7387C37.8776 37.7387 37.8107 37.6719 37.8107 37.5894C37.8107 37.5069 37.8776 37.4401 37.96 37.4401C38.0425 37.4401 38.1094 37.5069 38.1094 37.5894C38.1094 37.6719 38.0425 37.7387 37.96 37.7387Z" fill="#F1B517" stroke="black" stroke-width="0.0426668"/>
<path id="Vector_133" d="M38.1095 37.4827C38.027 37.4827 37.9601 37.4159 37.9601 37.3334C37.9601 37.2509 38.027 37.1841 38.1095 37.1841C38.1919 37.1841 38.2588 37.2509 38.2588 37.3334C38.2588 37.4159 38.1919 37.4827 38.1095 37.4827Z" fill="#F1B517" stroke="black" stroke-width="0.0426668"/>
<path id="Vector_134" d="M38.4513 37.4614C38.3688 37.4614 38.3019 37.3946 38.3019 37.3121C38.3019 37.2296 38.3688 37.1628 38.4513 37.1628C38.5337 37.1628 38.6006 37.2296 38.6006 37.3121C38.6006 37.3946 38.5337 37.4614 38.4513 37.4614Z" fill="#F1B517" stroke="black" stroke-width="0.0426668"/>
<path id="Vector_135" fill-rule="evenodd" clip-rule="evenodd" d="M35.1018 37.9734C35.1018 37.9094 35.2725 37.9308 35.2725 37.8454C35.2725 37.7601 35.0165 37.8454 34.9951 37.9094C34.8458 37.7814 34.7818 37.8668 34.6965 37.9094C34.5685 37.7388 34.4191 37.7388 34.2698 37.8668C34.1845 37.7814 33.9711 37.8028 33.9071 37.9094C33.7578 37.7814 33.6298 37.8028 33.5445 37.9094C33.5018 37.8454 33.4378 37.8454 33.3951 37.9094C33.3311 37.7601 33.1391 37.8028 33.0538 37.9094C32.9898 37.8241 32.9045 37.8881 32.8191 37.9308C32.7551 37.8881 32.6485 37.8881 32.6485 37.9308C32.6485 38.0161 32.7765 37.9948 32.7765 38.0588C32.7765 38.1014 32.6911 38.0588 32.6911 38.1441C32.6911 38.2081 32.8191 38.2294 32.8405 38.1441C32.9045 38.2294 33.0751 38.1868 33.0965 38.1014C33.1125 38.1196 33.1322 38.1341 33.1542 38.1441C33.1763 38.1541 33.2002 38.1592 33.2245 38.1592C33.2487 38.1592 33.2726 38.1541 33.2947 38.1441C33.3167 38.1341 33.3364 38.1196 33.3525 38.1014C33.4165 38.1441 33.5018 38.1441 33.5231 38.1014C33.6298 38.2081 33.8218 38.1868 33.8858 38.0588H33.9498C33.9698 38.0815 33.9944 38.0996 34.022 38.1121C34.0496 38.1245 34.0795 38.131 34.1098 38.131C34.1401 38.131 34.17 38.1245 34.1976 38.1121C34.2252 38.0996 34.2498 38.0815 34.2698 38.0588C34.4618 38.1868 34.5685 38.1441 34.6751 38.0588C34.7818 38.2081 34.9738 38.2081 34.9951 38.0588C35.0805 38.1228 35.2511 38.1441 35.2511 38.0588C35.2511 38.0161 35.1018 38.0374 35.1018 37.9734V37.9734ZM34.7605 37.9948C34.7605 38.0374 34.8031 38.0588 34.8458 38.0588C34.8885 38.0588 34.9311 38.0374 34.9311 37.9948C34.9311 37.9521 34.9098 37.9521 34.8458 37.9521C34.7818 37.9521 34.7605 37.9734 34.7605 37.9948ZM34.3551 37.9521C34.3551 37.9948 34.4191 38.0161 34.4831 38.0161C34.5471 38.0161 34.5898 37.9948 34.5898 37.9521C34.5898 37.9308 34.5471 37.8881 34.4831 37.8881C34.4191 37.8881 34.3765 37.9308 34.3765 37.9521H34.3551ZM33.6085 37.9948C33.6085 38.0374 33.6511 38.0588 33.7151 38.0588C33.7791 38.0588 33.8005 38.0374 33.8005 37.9948C33.8005 37.9734 33.7578 37.9308 33.7151 37.9308C33.6725 37.9308 33.6085 37.9521 33.6085 37.9948ZM34.0138 37.9948C34.0138 38.0374 34.0565 38.0588 34.1205 38.0588C34.1845 38.0588 34.2058 38.0374 34.2058 37.9734C34.2058 37.9308 34.1631 37.8881 34.1205 37.8881C34.0778 37.8881 34.0138 37.9308 34.0138 37.9734V37.9948ZM33.1605 37.9948C33.1605 38.0161 33.1818 38.0588 33.2245 38.0588C33.2885 38.0588 33.3311 38.0161 33.3311 37.9734C33.3311 37.9308 33.2885 37.9094 33.2245 37.9094C33.1818 37.9094 33.1391 37.9308 33.1391 37.9734L33.1605 37.9948ZM33.4165 37.9948C33.4165 38.0374 33.4165 38.0588 33.4591 38.0588C33.5018 38.0588 33.5231 38.0374 33.5231 37.9948C33.5231 37.9521 33.5018 37.9521 33.4591 37.9521L33.4165 37.9948ZM32.9045 38.0161C32.9045 38.0588 32.9045 38.1014 32.9685 38.1014C32.9898 38.1014 33.0325 38.0588 33.0325 38.0161C33.0325 37.9734 32.9898 37.9521 32.9685 37.9521C32.9258 37.9521 32.9045 37.9734 32.9045 38.0161Z" fill="#F1B517" stroke="black" stroke-width="0.0426668"/>
</g>
<path id="Vector_136" d="M32.2002 35.3494C31.6669 35.3494 31.2402 35.5627 31.2402 35.7974C31.2402 35.8401 31.2402 35.8827 31.2829 35.9254C31.3896 36.0534 31.7736 36.1387 32.2216 36.1387C32.6482 36.1387 32.9896 36.0747 33.1176 35.9467C33.1602 35.9041 33.1816 35.8614 33.1816 35.7974C33.1816 35.5627 32.7549 35.3707 32.2002 35.3707V35.3494Z" fill="#0A328C" stroke="#0A328C" stroke-width="0.0426668"/>
<path id="Vector_137" d="M33.1816 35.8401V37.3334C33.1816 37.5254 32.7549 37.6534 32.2216 37.6534C31.6882 37.6534 31.2402 37.5254 31.2402 37.3334V35.8401C31.2402 36.0108 31.6669 36.1601 32.2002 36.1601C32.7549 36.1601 33.1816 36.0108 33.1816 35.8401Z" fill="#F1B517" stroke="black" stroke-width="0.0426668"/>
<path id="Vector_138" d="M31.2402 35.8401V36.0534L31.7096 37.5468L32.0936 36.3948L32.5202 37.5681L32.7976 36.4588L33.1816 37.2054V36.8001L32.8402 36.0748C32.7981 36.0906 32.7554 36.1048 32.7122 36.1174L32.4989 36.9281L32.1789 36.1601C32.1291 36.1613 32.0793 36.1613 32.0296 36.1601L31.7096 36.9281L31.3682 35.9894C31.2829 35.9468 31.2402 35.8828 31.2402 35.8401V35.8401Z" fill="#D20014" stroke="#D20014" stroke-width="0.0426668"/>
<path id="Vector_139" d="M33.1816 37.0561V37.3334C33.1816 37.5254 32.7549 37.6534 32.2216 37.6534C31.6882 37.6534 31.2402 37.5254 31.2402 37.3334V37.0561C31.2402 37.2481 31.6669 37.3761 32.2002 37.3761C32.7549 37.3761 33.1816 37.2481 33.1816 37.0561Z" fill="#0A328C" stroke="#0A328C" stroke-width="0.0426668"/>
<path id="Vector_140" d="M32.6056 37.3334L32.3709 37.3761V37.6534L32.6269 37.6321V37.3548L32.6056 37.3334ZM31.5816 37.3121V37.5894L31.8162 37.6321V37.3548C31.7372 37.3455 31.6588 37.3312 31.5816 37.3121ZM31.2402 37.0561V37.3334C31.2402 37.3974 31.2829 37.4401 31.3469 37.4828V37.2054C31.2829 37.1628 31.2402 37.1201 31.2402 37.0561ZM33.1816 37.0988C33.1816 37.1414 33.0962 37.2054 33.0109 37.2481V37.5254C33.1176 37.4828 33.1816 37.4188 33.1816 37.3334V37.1201V37.0988Z" fill="#F1B517" stroke="black" stroke-width="0.0426668"/>
<path id="Vector_141" d="M33.1816 35.8401V37.3334C33.1816 37.5254 32.7549 37.6534 32.2216 37.6534C31.6882 37.6534 31.2402 37.5254 31.2402 37.3334V35.8401" stroke="black" stroke-width="0.0426668"/>
<path id="Vector_142" d="M32.9678 35.7334C32.9678 35.8401 32.6265 35.9467 32.2211 35.9467C31.7945 35.9467 31.4531 35.8401 31.4531 35.7334C31.4531 35.6267 31.7945 35.5414 32.1998 35.5414C32.6265 35.5414 32.9678 35.6267 32.9678 35.7547V35.7334Z" fill="#F5F5F5" stroke="#F5F5F5" stroke-width="0.0426668"/>
<path id="Vector_143" d="M31.9654 35.8827L32.0081 36.1387H32.2214L32.2428 35.8827H31.9654V35.8827ZM32.8401 35.8187L32.6268 35.8614L32.6481 36.1174L32.8614 36.0747V35.8401L32.8401 35.8187ZM31.6881 35.3921L31.5388 35.4561L31.5601 35.6694L31.6881 35.6267V35.4134V35.3921ZM32.2001 35.3281H32.1361L32.1788 35.5841H32.3068L32.3494 35.3281C32.2997 35.3263 32.2498 35.3263 32.2001 35.3281V35.3281ZM32.7761 35.4134L32.7548 35.6267L32.9041 35.6907V35.4774C32.8628 35.4534 32.8201 35.432 32.7761 35.4134V35.4134ZM31.3894 36.0107L31.4321 35.7334L31.2188 35.6267V35.9467L31.3894 36.0107ZM33.1814 35.9467V35.6694L33.0108 35.7334L33.1814 35.9467ZM35.1654 34.1334C35.3361 34.1334 35.5921 34.3467 35.6134 34.6667C35.6134 34.8801 35.2508 34.8801 35.2508 34.8801C35.2508 34.9867 35.0374 35.0721 34.8668 35.0934C34.6961 35.0934 34.9094 34.7734 34.9094 34.7734C34.8028 34.4961 34.9521 34.1974 34.9521 34.1974L35.1654 34.1334Z" fill="#F1B517" stroke="black" stroke-width="0.0426668"/>
<g id="Vector_144">
<path d="M34.9092 34.7734H35.0798C35.0798 34.7734 35.0798 34.8374 35.1225 34.8374C35.1652 34.8374 35.1865 34.7521 35.1865 34.7521H35.4425" fill="#F1B517"/>
<path d="M34.9092 34.7734H35.0798C35.0798 34.7734 35.0798 34.8374 35.1225 34.8374C35.1652 34.8374 35.1865 34.7521 35.1865 34.7521H35.4425" stroke="black" stroke-width="0.0426668"/>
</g>
<path id="Vector_145" d="M35.2507 34.3254C35.4 34.2187 35.272 34.0054 35.1653 34.0054H34.952C34.824 34.0054 34.6533 34.1334 34.6747 34.2187C34.6747 34.3254 34.76 34.3681 34.8453 34.3467C34.888 34.3467 34.9733 34.2187 35.016 34.2187C35.08 34.2187 35.2293 34.3467 35.2507 34.3254V34.3254Z" fill="#D20014" stroke="#F1B517" stroke-width="0.0426668"/>
<path id="Vector_146" fill-rule="evenodd" clip-rule="evenodd" d="M24.6046 37.2907C24.4766 37.3121 24.4553 37.4614 24.498 37.6107C23.9433 37.7601 23.4313 37.9734 22.9193 38.1227C22.898 38.0161 23.1753 37.7387 23.1753 37.7387C23.2393 37.7601 23.3033 37.9307 23.3033 37.9307C23.3033 37.5894 23.6446 37.3761 23.6446 37.3761C23.4313 37.3334 22.8553 37.5894 22.7913 37.6747C22.7913 37.6747 23.0046 37.6321 23.0473 37.6747C23.0473 37.6747 22.578 38.1654 22.5566 38.3147C22.642 38.4641 23.41 38.5921 23.41 38.5921C23.41 38.6347 23.1966 38.8054 23.1966 38.8054C23.5166 38.8481 23.986 38.6347 24.114 38.5067C24.114 38.5067 23.7513 38.4641 23.474 38.2294C23.474 38.2294 23.5166 38.3787 23.474 38.4427C23.474 38.4427 23.0473 38.3147 22.9833 38.2294C22.9833 38.2294 24.05 37.9734 24.562 37.8027C24.5833 37.9094 24.69 38.0801 24.818 38.0374C24.882 38.0161 24.8606 37.8667 24.818 37.7387C24.8353 37.7542 24.8556 37.7659 24.8776 37.7733C24.8996 37.7806 24.9229 37.7834 24.946 37.7814C25.0313 37.7814 25.0953 37.7174 25.0953 37.6321C25.0953 37.5467 25.0313 37.4827 24.946 37.4827C24.9135 37.4844 24.8822 37.4954 24.8558 37.5143C24.8293 37.5332 24.8088 37.5593 24.7966 37.5894C24.7753 37.4827 24.7113 37.2907 24.626 37.3121L24.6046 37.2907ZM25.0313 37.6321C25.0313 37.6747 24.9886 37.6961 24.946 37.6961C24.936 37.6996 24.9254 37.7006 24.9149 37.699C24.9045 37.6975 24.8946 37.6933 24.8861 37.687C24.8777 37.6806 24.8709 37.6723 24.8665 37.6627C24.862 37.6531 24.86 37.6426 24.8606 37.6321C24.8606 37.5894 24.9033 37.5467 24.946 37.5467C24.9886 37.5467 25.01 37.5894 25.01 37.6321H25.0313Z" fill="#F1B517" stroke="black" stroke-width="0.0426668"/>
<path id="Vector_147" d="M41.4159 37.9521C41.4586 37.8667 41.4159 37.4827 41.4159 37.4827C41.3092 37.4827 41.2026 37.6321 41.2026 37.6321C41.3092 37.2907 41.0319 36.7787 41.0319 36.7787C41.2239 36.8001 41.8639 37.4188 41.8852 37.5468C41.8852 37.5468 41.6079 37.4401 41.5652 37.4614C41.6292 37.7814 41.8426 37.9308 41.9279 38.1014C41.9279 38.1014 41.5652 38.1654 41.5865 38.4854H41.3519C41.2666 38.3788 41.3732 38.2081 41.3732 38.2081L39.7305 37.5254C39.6239 37.4827 39.3892 37.3548 39.4319 37.2267C39.4532 37.1201 39.8585 37.2907 39.9439 37.3334L41.4372 37.9521H41.4159Z" fill="#F1B517" stroke="black" stroke-width="0.0426668"/>
<path id="Vector_148" d="M39.8373 37.6534L40.0506 37.3121C40.1146 37.2054 39.9653 37.0987 39.8586 37.2267L39.6453 37.5467C39.56 37.7387 39.752 37.7814 39.8586 37.6534H39.8373Z" fill="#F1B517" stroke="black" stroke-width="0.0426668"/>
</g>
<g id="Group_8">
<path id="Vector_149" d="M28.2713 38.475L28.2588 38.1L27.7838 38.1125L27.7588 38.5375L28.2713 38.475Z" fill="#F5F5F5" stroke="black" stroke-width="0.0375"/>
<path id="Vector_150" d="M24.8338 39.025L24.2088 38.675C26.7963 38.9125 27.3338 38 27.9588 37.95C28.3338 37.925 28.3963 38.375 27.6588 38.1625L27.8463 38.6375C27.8463 38.6375 25.9963 39.675 24.1963 39.2625L24.8213 39.0125L24.8338 39.025ZM36.1463 38.475V38.1H36.7338L36.7588 38.525L36.1338 38.475H36.1463Z" fill="#F5F5F5" stroke="black" stroke-width="0.0375"/>
<path id="Vector_151" d="M39.6961 38.925L40.2961 38.6C37.3211 38.7 37.9961 38.1125 36.5086 37.95C36.1336 37.9125 35.8336 38.4125 36.8086 38.1625L36.6211 38.6375H37.0836C38.0692 39.2346 39.2505 39.4188 40.3711 39.15L39.6961 38.925Z" fill="#F5F5F5" stroke="black" stroke-width="0.0375"/>
<path id="Vector_152" d="M27.6465 38.1625V38.8375C27.6465 38.8375 29.2965 39.4625 32.234 39.4625C35.184 39.4625 36.8215 38.8375 36.8215 38.8375V38.1625C36.8215 38.1625 35.5715 38.7375 32.234 38.7375C28.909 38.7375 27.6465 38.1625 27.6465 38.1625Z" fill="#F5F5F5" stroke="black" stroke-width="0.0375"/>
</g>
<path id="Vector_153" d="M27.8838 38.85L28.0338 38.35L28.0963 38.375L27.9713 38.8L28.2213 38.875L28.2088 38.9375L27.8838 38.8375V38.85ZM28.3713 38.625V38.525L28.3963 38.45L28.4713 38.4625L28.4463 38.55L28.4088 38.6375H28.3713V38.625ZM29.0713 38.5875L29.1463 38.6125L29.0838 38.9C29.0838 38.95 29.0588 38.9875 29.0338 39.025L28.9588 39.075C28.9178 39.0856 28.8748 39.0856 28.8338 39.075C28.7883 39.0701 28.7451 39.0528 28.7088 39.025C28.6888 39.0045 28.6757 38.9783 28.6713 38.95V38.825L28.7338 38.525L28.8088 38.5375L28.7463 38.825C28.7338 38.875 28.7338 38.9125 28.7463 38.925C28.7463 38.95 28.7463 38.975 28.7713 38.9875L28.8338 39.0125H28.9588C28.9838 38.9875 28.9963 38.95 29.0088 38.8875L29.0713 38.5875V38.5875ZM29.1463 39.125L29.2338 38.625H29.3088L29.5213 39.075L29.5838 38.675L29.6463 38.6875L29.5588 39.1875H29.4963L29.2838 38.7375L29.2213 39.1375H29.1463V39.125ZM29.6963 39.2125L29.7713 38.7125H29.8338L29.7588 39.2125H29.6963ZM29.8963 38.9875C29.8999 38.916 29.9313 38.8487 29.9838 38.8C30.0117 38.7779 30.0439 38.7621 30.0784 38.7534C30.1129 38.7448 30.1488 38.7436 30.1838 38.75C30.2338 38.75 30.2713 38.7625 30.3088 38.7875C30.3463 38.825 30.3713 38.85 30.3838 38.9C30.3963 38.9375 30.4088 38.9875 30.3963 39.0375C30.3893 39.0824 30.3722 39.1252 30.3463 39.1625C30.3213 39.2125 30.2838 39.2375 30.2463 39.25C30.2072 39.268 30.1643 39.2766 30.1213 39.275C30.0758 39.2701 30.0326 39.2528 29.9963 39.225C29.9463 39.2 29.9213 39.1625 29.9088 39.1125C29.895 39.0724 29.8908 39.0296 29.8963 38.9875V38.9875ZM29.9713 38.9875C29.9588 39.0625 29.9713 39.1125 29.9963 39.15C30.0338 39.1875 30.0713 39.2125 30.1213 39.2125C30.1713 39.2125 30.2213 39.2125 30.2588 39.175C30.2963 39.1375 30.3213 39.1 30.3213 39.025C30.3298 38.988 30.3298 38.9495 30.3213 38.9125C30.3086 38.8817 30.2868 38.8555 30.2588 38.8375C30.2336 38.8172 30.2034 38.8042 30.1713 38.8C30.1213 38.8 30.0838 38.8 30.0463 38.8375C29.9963 38.8625 29.9713 38.925 29.9713 39V38.9875ZM30.4588 39.3L30.4963 38.7875H30.5713L30.8213 39.2125L30.8463 38.8125H30.9213L30.8713 39.3375H30.8088L30.5588 38.9L30.5213 39.3H30.4588V39.3ZM31.2088 39.35L31.2213 38.8375L31.5963 38.85L31.5838 38.9125H31.2963V39.0625H31.5463L31.5338 39.125H31.2838V39.35H31.2088ZM31.5838 39.3625L31.8088 38.8625H31.8838L32.0963 39.375H32.0088L31.9463 39.2125H31.7463L31.6838 39.375H31.6088L31.5838 39.3625ZM31.7463 39.1625H31.9338L31.8838 39.025C31.8697 38.9881 31.8572 38.9505 31.8463 38.9125C31.8463 38.95 31.8213 38.975 31.8088 39.0125L31.7463 39.1625V39.1625ZM32.1588 39.375V38.8625H32.2338V39.375H32.1588ZM32.4838 39.375V38.925H32.3088V38.8625H32.7213V38.9125H32.5463L32.5588 39.375H32.4838V39.375ZM33.0088 39.3625L32.9838 38.85H33.0588L33.0713 39.3L33.3338 39.2875V39.35H33.0088V39.3625ZM33.3713 39.35L33.5338 38.825H33.6088L33.8588 39.3125H33.7838L33.7088 39.1625L33.4838 39.1875L33.4463 39.3375H33.3713V39.35ZM33.4963 39.125H33.6838L33.6213 38.975C33.6033 38.9424 33.5866 38.909 33.5713 38.875C33.5656 38.9089 33.5572 38.9424 33.5463 38.975L33.5088 39.125H33.4963ZM34.1213 39.2875L34.0713 38.7875L34.4213 38.7375V38.8L34.1463 38.8375L34.1588 38.9875L34.4088 38.9625V39.025L34.1713 39.05L34.1963 39.275L34.1338 39.2875H34.1213ZM34.5213 39C34.5088 38.9125 34.5213 38.8375 34.5588 38.7875C34.5794 38.7596 34.6056 38.7363 34.6358 38.7191C34.6659 38.7019 34.6993 38.6911 34.7338 38.6875C34.7769 38.6849 34.82 38.6935 34.8588 38.7125C34.9088 38.7125 34.9463 38.75 34.9713 38.7875C34.9983 38.8274 35.0157 38.8729 35.0222 38.9206C35.0287 38.9683 35.0241 39.0169 35.0088 39.0625C34.9944 39.1026 34.9682 39.1374 34.9338 39.1625C34.8963 39.1875 34.8463 39.2125 34.8088 39.2125C34.7627 39.2213 34.715 39.217 34.6713 39.2C34.6303 39.181 34.5956 39.1506 34.5713 39.1125C34.545 39.0754 34.5278 39.0325 34.5213 38.9875V39ZM34.5838 38.9875C34.5963 39.05 34.6213 39.1 34.6588 39.1125C34.6963 39.15 34.7463 39.1625 34.7963 39.1625C34.8463 39.1625 34.8963 39.125 34.9213 39.0875C34.9463 39.05 34.9588 39 34.9463 38.925C34.9411 38.8894 34.9283 38.8553 34.9088 38.825C34.8908 38.797 34.8646 38.7752 34.8338 38.7625C34.8024 38.7486 34.7676 38.7443 34.7338 38.75C34.7098 38.7513 34.6863 38.7575 34.6648 38.7682C34.6433 38.779 34.6242 38.7941 34.6088 38.8125C34.5838 38.85 34.5838 38.9125 34.5963 38.9875H34.5838ZM35.1463 39.1625L35.0463 38.6625L35.2838 38.6125H35.3963C35.4213 38.6125 35.4463 38.625 35.4588 38.65C35.4838 38.6625 35.4963 38.6875 35.4963 38.725C35.4992 38.7563 35.4903 38.7875 35.4713 38.8125C35.4588 38.8375 35.4213 38.8625 35.3713 38.875L35.4213 38.9L35.4963 38.95L35.6088 39.075L35.5213 39.0875L35.4338 39C35.4139 38.9783 35.393 38.9574 35.3713 38.9375C35.36 38.9275 35.3474 38.9191 35.3338 38.9125C35.3214 38.9104 35.3087 38.9104 35.2963 38.9125H35.1713L35.2213 39.15H35.1463V39.1625ZM35.1588 38.8625L35.3088 38.8375C35.3463 38.8375 35.3713 38.8375 35.3838 38.8125C35.3968 38.8052 35.4073 38.7941 35.414 38.7807C35.4207 38.7674 35.4232 38.7523 35.4213 38.7375C35.4209 38.7248 35.4172 38.7123 35.4106 38.7014C35.4041 38.6905 35.3948 38.6814 35.3838 38.675H35.2963L35.1338 38.7L35.1588 38.8625ZM35.9963 38.8125H36.0713C36.0713 38.8625 36.0588 38.9125 36.0213 38.95C35.9963 38.9875 35.9463 39.0125 35.8963 39.025C35.8514 39.0379 35.8037 39.0379 35.7588 39.025C35.7123 39.0097 35.6726 38.9788 35.6463 38.9375C35.6214 38.8996 35.6044 38.8571 35.5963 38.8125V38.675C35.5963 38.625 35.6213 38.5875 35.6588 38.5625C35.6951 38.5347 35.7383 38.5174 35.7838 38.5125C35.8246 38.5007 35.868 38.5007 35.9088 38.5125C35.9588 38.5375 35.9963 38.5625 36.0213 38.6125L35.9588 38.6375C35.9408 38.6095 35.9146 38.5877 35.8838 38.575C35.8553 38.5663 35.8248 38.5663 35.7963 38.575C35.7463 38.575 35.7213 38.5875 35.6963 38.6125C35.6727 38.6356 35.6593 38.667 35.6588 38.7C35.6524 38.7704 35.67 38.8409 35.7088 38.9C35.7338 38.9375 35.7588 38.95 35.7838 38.9625C35.8213 38.9625 35.8463 38.975 35.8838 38.9625C35.9213 38.9625 35.9463 38.95 35.9713 38.9125C35.9963 38.8875 36.0088 38.85 35.9963 38.8125V38.8125ZM36.1963 38.9375L36.0588 38.45L36.4338 38.35V38.4125L36.1338 38.5L36.1838 38.65L36.4588 38.575L36.4838 38.625L36.1963 38.7L36.2463 38.875L36.5588 38.7875L36.5838 38.85L36.2088 38.95L36.1963 38.9375Z" fill="black"/>
</g>
</g>
</g>
<defs>
<clipPath id="clip0_2909_185330">
<path d="M0.246094 32C0.246094 14.3269 14.573 0 32.2461 0V0C49.9192 0 64.2461 14.3269 64.2461 32V32C64.2461 49.6731 49.9192 64 32.2461 64V64C14.573 64 0.246094 49.6731 0.246094 32V32Z" fill="white"/>
</clipPath>
</defs>
</svg>
