<svg width="65" height="64" viewBox="0 0 65 64" fill="none" xmlns="http://www.w3.org/2000/svg">
<g id="Rounded=Isle of Man (IM)">
<g clip-path="url(#clip0_2909_185407)">
<g id="Group">
<path id="Vector" fill-rule="evenodd" clip-rule="evenodd" d="M80.5086 65.1H-12.5039V0H80.5086V65.1Z" fill="#BA0000"/>
<path id="Vector_2" fill-rule="evenodd" clip-rule="evenodd" d="M36.1986 47.8188C36.2248 47.7313 36.2861 46.9438 36.2511 46.9438C36.2161 46.9438 35.0523 45.5613 35.0786 45.5613C35.1048 45.5613 36.5836 45.8938 36.5836 45.8413C36.5836 45.7975 37.1786 44.3888 37.1786 44.3538L37.8961 46.0775L39.3486 46.7163L38.3248 47.5563L38.5611 49.2188C38.5611 49.245 37.5373 48.2563 37.5373 48.2563L36.3998 48.3788C36.3998 48.3788 36.2511 47.8713 36.1986 47.8188V47.8188Z" fill="#FFEF00" stroke="black" stroke-width="0.28"/>
<path id="Vector_3" fill-rule="evenodd" clip-rule="evenodd" d="M28.2706 26.3112C27.3081 26.81 23.5719 31.08 23.0556 31.7362C22.6269 32.7075 21.7869 33.9237 20.9206 34.7112C20.0019 35.4112 19.4856 36.3737 19.6169 37.2662C19.6081 38.395 20.2294 39.1562 20.7369 39.9525C21.0344 40.3025 21.4369 40.5387 21.8569 40.565C22.7319 40.6875 22.8106 40.95 23.2394 41.1162C24.9631 43.4612 27.5269 45.185 29.3644 46.5412C30.203 46.9434 30.9712 47.4781 31.6394 48.125C32.0292 48.9101 32.1579 49.7991 32.0069 50.6625L30.6419 55.825C30.4056 57.2337 31.6306 56.9187 31.6919 56.6387C32.2519 55.9212 33.0744 56.4287 34.2469 52.2812L35.8656 50.0937C35.8656 50.0937 36.4956 49.8487 36.4956 49.7875C37.4406 48.65 36.7144 48.0025 36.1806 47.7925L34.9994 47.355C34.9994 47.355 33.6256 45.99 33.5644 45.99C32.9169 44.0912 29.7144 40.0487 28.9794 39.4887C28.6182 39.0746 28.1964 38.7176 27.7281 38.43C26.9844 38.0712 26.7394 37.9487 26.2844 37.765C25.8994 37.6162 26.1706 37.1962 26.4156 37.0037C28.9444 35.63 30.9481 34.0987 33.3806 32.5412L33.7569 32.2875L32.8819 27.3L28.8306 25.8737C28.6206 26.0225 28.4631 26.1625 28.2706 26.3112V26.3112Z" fill="#F5F5F5" stroke="black" stroke-width="0.3325"/>
<path id="Vector_4" fill-rule="evenodd" clip-rule="evenodd" d="M31.657 52.5437C31.6745 52.4912 34.1945 52.0275 34.1945 52.0275L33.8882 52.9637L31.377 53.7163L31.657 52.5437V52.5437Z" fill="#FFEC00"/>
<path id="Vector_5" d="M25.0859 43.05C25.3451 42.454 25.7221 41.9166 26.1942 41.47C26.6664 41.0234 27.224 40.6769 27.8334 40.4512" stroke="black" stroke-width="0.28"/>
<path id="Vector_6" d="M31.1064 54.1188C31.1327 54.0925 31.3077 53.9438 31.4302 53.865C31.5789 53.8213 32.0689 53.6025 32.2614 53.5763L32.8564 53.4013C33.0752 53.3488 33.2064 53.2963 33.4427 53.2525C33.6244 53.1771 33.8116 53.1157 34.0027 53.0688M31.5702 52.5613C31.7364 52.5175 32.4539 52.2988 32.6639 52.2725L33.3289 52.0975C33.5827 52.0363 33.7314 51.9925 33.9939 51.9488C34.1952 51.8613 34.3964 51.8175 34.6064 51.765L31.5702 52.5613Z" stroke="black" stroke-width="0.30625"/>
<path id="Vector_7" d="M28.6907 39.165C28.6994 39.2437 28.6557 39.4712 28.6644 39.6462C28.6557 39.8475 28.3932 40.4775 28.0782 40.67M32.1382 43.4175H32.1032C32.2169 43.4175 32.1469 43.4087 31.9894 43.5925C31.9369 43.7412 31.4732 44.065 31.1232 44.065C30.9482 44.0825 30.6944 44.1 30.5282 44.1C30.4757 44.1 30.4144 44.065 30.3619 44.065L32.1382 43.4175ZM32.1032 50.8725H32.2782C32.4707 50.8725 32.6544 50.8987 32.8207 50.9075C33.0044 50.9075 33.1882 50.96 33.3719 50.96C33.5469 50.9862 33.7744 50.9775 33.9582 51.0037C34.1682 51.0037 34.3432 51.0475 34.5619 51.0475C34.7369 51.0475 34.8332 51.0825 35.0344 51.0825L34.5619 51.0475C34.7369 51.0475 34.8332 51.0825 35.0344 51.0825L32.1032 50.8725ZM30.8694 55.2825C30.8869 55.2562 31.0444 55.1075 31.1582 55.0287C31.2894 54.985 31.7444 54.775 31.9194 54.74L32.4619 54.565C32.6632 54.5125 32.7944 54.46 33.0044 54.4162C33.1707 54.3375 33.3369 54.285 33.5119 54.2412L30.8694 55.2825ZM34.2644 48.9912C34.1594 49.2887 34.2907 49.3675 34.3519 49.49C34.4394 49.6125 34.6844 49.805 35.0694 49.9275L35.5069 50.0675C35.6207 50.085 35.6732 50.1112 35.7607 50.1462L34.2644 48.9912ZM19.9407 38.0887H19.9757C19.8619 38.0887 19.9319 38.0975 20.1244 37.9487C20.2382 37.8175 20.3344 37.7562 20.4482 37.625L19.9407 38.0887ZM22.2857 40.67C22.3032 40.67 24.3857 39.62 24.6132 39.3925C24.7707 39.2787 24.8844 39.165 25.0769 39.0337C25.1994 38.9725 25.2869 38.885 25.4007 38.815C25.4969 38.675 25.6194 38.5962 25.6894 38.465C25.8207 38.36 25.7682 38.2375 25.8644 38.1062C25.9169 37.9662 26.0132 37.7387 26.0394 37.6075L22.2857 40.67Z" stroke="black" stroke-width="0.28"/>
<path id="Vector_8" d="M20.7461 34.8863C20.9823 34.9738 20.8861 34.9038 21.1048 35.0088C21.2536 35.07 21.3498 35.07 21.4986 35.1225C21.6473 35.175 22.0761 35.2538 22.2861 35.4638C22.4348 35.595 22.5486 35.7088 22.7236 35.8138C22.9047 35.9337 23.0983 36.0335 23.3011 36.1113C23.5111 36.19 23.7386 36.2775 23.9486 36.2863H24.9461H24.4211H24.9286M24.9461 39.1475L25.8123 39.41C26.5482 39.7363 27.2514 40.1318 27.9123 40.5913C28.0436 40.6963 28.2798 40.7925 28.3761 40.915C28.5161 41.0375 28.6211 41.1775 28.7261 41.3175C28.8519 41.4513 28.9634 41.5979 29.0586 41.755C29.4611 42.0788 30.5461 44.3363 30.5811 44.4675C30.6446 44.5964 30.7029 44.7278 30.7561 44.8613C30.8436 44.9488 30.8961 45.08 30.9748 45.22C31.0536 45.395 31.1411 45.4825 31.2373 45.6225C31.3511 45.71 31.5086 45.8588 31.6661 45.9463C31.8236 46.0863 31.9811 46.1388 32.1036 46.235C32.2698 46.305 34.1773 47.5125 34.2648 47.5738C34.4398 47.7138 34.9648 48.2738 34.5973 48.6675C34.4398 48.7988 34.2998 48.9825 34.1598 49.0613C34.0157 49.1806 33.8491 49.2699 33.6698 49.3238C32.8123 49.5863 32.3748 49.4988 32.2086 49.4988H32.0336L24.9461 39.1475Z" stroke="black" stroke-width="0.28"/>
<path id="Vector_9" fill-rule="evenodd" clip-rule="evenodd" d="M20.6851 37.2925C21.2276 37.2575 22.1289 37.4238 22.1464 37.4238L23.3451 37.4063C23.9664 37.345 24.1064 37.1 24.2114 36.9338C24.4476 36.575 24.6051 36.4438 24.7889 36.1725C25.0776 35.9538 25.4801 36.4613 25.4889 36.4613C26.5126 37.4238 25.6989 38.5963 25.6376 38.64C25.1301 39.095 25.0251 39.13 24.7189 38.8325C24.4126 38.4738 24.3164 38.3075 24.0626 38.185C23.5814 37.9488 22.5664 38.1325 22.5489 38.1325L22.0239 38.325C21.7701 38.4125 21.6126 38.6313 21.1926 38.71C20.7551 38.7363 20.6064 38.6925 20.3964 38.3425C20.0989 37.8963 20.2476 37.3538 20.6851 37.2925V37.2925Z" fill="#FFE606" stroke="black" stroke-width="0.28"/>
<path id="Vector_10" fill-rule="evenodd" clip-rule="evenodd" d="M49.0171 15.3475C48.9384 15.3562 48.2296 15.6975 48.2296 15.7237C48.2296 15.75 47.6171 17.4562 47.6084 17.43C47.5996 17.4037 47.1534 15.9425 47.1096 15.9775C47.0659 16.0037 45.5521 16.1787 45.5346 16.1875C45.5084 16.205 46.6721 14.7262 46.6721 14.7262L46.5146 13.1425L47.7571 13.615L49.0959 12.6C49.1134 12.5912 48.7459 13.9737 48.7459 13.9737L49.4109 14.8925C49.4109 14.8925 49.0346 15.2775 49.0171 15.3475V15.3475Z" fill="#FFEF00" stroke="black" stroke-width="0.28"/>
<path id="Vector_11" fill-rule="evenodd" clip-rule="evenodd" d="M34.1598 32.795C35.0698 33.3988 40.6173 34.5625 41.4486 34.685C42.4986 34.58 43.9861 34.7113 45.0886 35.0788C46.1473 35.5425 47.2323 35.5163 47.9586 34.9738C48.9386 34.4313 49.2973 33.5038 49.7436 32.6813C49.9098 32.2438 49.9186 31.78 49.7348 31.395C49.4023 30.5813 49.6036 30.38 49.5336 29.925C50.7323 27.2825 50.9773 24.2025 51.2661 21.9188C51.2057 20.9919 51.2943 20.0613 51.5286 19.1625C52.0183 18.4405 52.7268 17.8946 53.5498 17.605L58.7298 16.2663C60.0685 15.7763 59.1936 14.8663 58.9136 14.9538C58.0211 14.8138 58.0561 13.8513 53.8648 14.8663L51.1698 14.5163C51.1698 14.5163 50.6448 14.0963 50.5923 14.1225C49.1398 13.86 48.9298 14.805 49.0173 15.3738L49.2098 16.6163C49.2098 16.6163 48.6848 18.48 48.7198 18.5413C47.3898 20.0288 45.4036 24.8413 45.2723 25.76C45.2198 26.6263 44.8873 26.4688 44.9748 27.3088C44.9748 27.9738 44.9048 27.5625 45.1236 28.9188C45.1761 29.3213 44.6773 29.295 44.3886 29.1813C41.9473 27.6413 39.6286 26.6438 37.0823 25.2963L36.6798 25.0863L32.7686 28.2888L33.5036 32.5238C33.7311 32.6375 33.9411 32.6988 34.1598 32.795V32.795Z" fill="#F5F5F5" stroke="black" stroke-width="0.3325"/>
<path id="Vector_12" fill-rule="evenodd" clip-rule="evenodd" d="M55.3606 16.9925C55.3081 17.0012 53.6719 15.0325 53.6719 15.0325L54.6344 14.84L56.5244 16.66L55.3606 16.9925V16.9925Z" fill="#FFEC00"/>
<path id="Vector_13" d="M50.312 27.37C49.6652 27.4371 49.0115 27.3725 48.3904 27.18C47.7693 26.9875 47.1937 26.6711 46.6982 26.25" stroke="black" stroke-width="0.28"/>
<path id="Vector_14" d="M57.0057 16.695C56.8748 16.6566 56.7486 16.6038 56.6294 16.5375C56.5244 16.4325 56.0957 16.1 55.9732 15.96C55.831 15.8076 55.6821 15.6616 55.5269 15.5225L55.1069 15.085C54.9543 14.9648 54.8109 14.8331 54.6782 14.6913M55.4219 17.0625C55.3082 16.94 54.7657 16.415 54.6344 16.24C54.4806 16.0731 54.32 15.9126 54.1532 15.7588L53.6982 15.2513C53.5363 15.1101 53.3843 14.9581 53.2432 14.7963L55.4219 17.0625Z" stroke="black" stroke-width="0.30625"/>
<path id="Vector_15" d="M45.1589 26.1275C45.2202 26.075 45.4477 26.005 45.5964 25.9087C45.7714 25.8212 46.4539 25.7337 46.7689 25.9262M47.1714 21.0437L47.1889 21.0787C47.1364 20.9825 47.1627 21.0437 47.3989 21.0787C47.5564 21.0612 48.0639 21.3062 48.2389 21.6037C48.3545 21.7679 48.4625 21.9373 48.5627 22.1112C48.5889 22.155 48.5889 22.2337 48.6152 22.2687L47.1714 21.0437ZM53.6902 17.4212L53.6727 17.395L53.6027 17.2637C53.5152 17.1062 53.4452 16.9137 53.3664 16.7737C53.2789 16.6162 53.2352 16.4325 53.1477 16.275C53.0777 16.1 52.9639 15.925 52.8939 15.7412C52.7977 15.5487 52.7539 15.3825 52.6402 15.19C52.5527 15.0325 52.5352 14.9275 52.4389 14.7612L52.6402 15.19C52.5527 15.0325 52.5352 14.9275 52.4389 14.7612L53.6902 17.4212ZM58.1439 16.3362C58.1089 16.3362 57.8989 16.2662 57.7852 16.205C57.6802 16.1175 57.2689 15.82 57.1552 15.68C57.0212 15.548 56.881 15.4225 56.7352 15.3037C56.5864 15.1462 56.4814 15.0587 56.3414 14.9012C56.1952 14.7958 56.0576 14.6788 55.9302 14.5512L58.1439 16.3362ZM50.9952 16.45C51.3102 16.3975 51.3102 16.24 51.3889 16.135C51.4502 15.9862 51.4939 15.68 51.4152 15.2862C51.378 15.1392 51.3488 14.9902 51.3277 14.84C51.2839 14.735 51.2752 14.665 51.2664 14.5775L50.9952 16.45ZM48.5102 34.2737L48.4927 34.2475C48.5539 34.335 48.5277 34.2825 48.3002 34.1862C48.1252 34.1512 48.0289 34.0987 47.8627 34.0637L48.5102 34.2737ZM49.6127 30.975C49.6039 30.9487 47.6702 29.6537 47.3639 29.5662C47.1889 29.4787 47.0139 29.4437 46.8127 29.3387C46.6989 29.26 46.5852 29.225 46.4627 29.1637C46.2964 29.1462 46.1652 29.0762 46.0252 29.0762C45.8589 29.0237 45.7802 29.1287 45.6139 29.1025L45.1064 29.19L49.6127 30.975Z" stroke="black" stroke-width="0.28"/>
<path id="Vector_16" d="M45.3156 35.0875L45.2981 35.0525C45.3419 35.14 45.3156 35.0962 45.2544 34.9125L45.1669 34.3875C45.1319 34.2212 45.0531 34.0375 45.0794 33.9325C45.0181 33.775 45.0531 33.635 45.0794 33.4775C45.1144 33.2762 45.1406 33.1362 45.1406 32.9437C45.1669 32.7075 45.1406 32.5325 45.1581 32.305C45.0969 32.13 45.0881 31.9638 44.9831 31.78C44.8956 31.605 44.8344 31.4388 44.7381 31.255L44.4844 30.8175L44.7381 31.255L44.4844 30.8175M46.9694 29.4L46.7856 28.525C46.7094 27.7247 46.7094 26.919 46.7856 26.1187C46.8119 25.9437 46.7769 25.6987 46.8381 25.55C46.8819 25.3662 46.9519 25.2 47.0131 25.0425C47.0831 24.85 47.1531 24.6837 47.2319 24.5437C47.3194 24.0362 48.7544 21.98 48.8506 21.8925C48.9334 21.7724 49.021 21.6556 49.1131 21.5425C49.1481 21.42 49.2356 21.3062 49.3231 21.1662C49.4369 21.0175 49.4719 20.9037 49.5419 20.755C49.5594 20.6062 49.6119 20.3875 49.6119 20.2125C49.6556 20.0025 49.6294 19.845 49.6556 19.6875C49.6294 19.5125 49.7431 17.255 49.7606 17.15C49.7956 16.9312 50.0144 16.1962 50.5481 16.3275C50.7406 16.3975 50.9681 16.4325 51.0994 16.5112C51.2919 16.5637 51.4406 16.7037 51.5806 16.8087C52.2194 17.43 52.3594 17.8587 52.4381 18.0075L52.5256 18.165L46.9694 29.4Z" stroke="black" stroke-width="0.28"/>
<path id="Vector_17" fill-rule="evenodd" clip-rule="evenodd" d="M47.4595 34.0287C47.162 33.5737 46.8558 32.7075 46.847 32.69L46.2433 31.6575C45.8933 31.1325 45.6045 31.1325 45.412 31.1325C44.9745 31.0975 44.7908 31.0187 44.467 30.9925C44.1345 30.8525 44.3795 30.2575 44.3708 30.24C44.712 28.8837 46.1295 29.015 46.1908 29.05C46.847 29.26 46.9258 29.3475 46.8208 29.75C46.6458 30.205 46.5583 30.3625 46.567 30.6425C46.602 31.185 47.2583 31.9812 47.267 31.9987L47.7045 32.3487C47.897 32.5237 48.1595 32.5587 48.4395 32.8912C48.6758 33.2587 48.7108 33.4075 48.5095 33.7662C48.2558 34.2387 47.722 34.3787 47.4595 34.0287V34.0287Z" fill="#FFE606" stroke="black" stroke-width="0.28"/>
<path id="Vector_18" fill-rule="evenodd" clip-rule="evenodd" d="M13.8513 21.455C13.9126 21.5075 14.5863 21.9188 14.6038 21.8925C14.6213 21.8663 16.3801 21.4638 16.3713 21.49C16.3626 21.5163 15.3826 22.68 15.4263 22.6975C15.4701 22.7238 16.4501 23.8963 16.4763 23.905L14.6213 23.7475L13.3788 24.7538L13.0988 23.45L11.5238 22.89C11.4976 22.8813 12.8538 22.4262 12.8538 22.4262L13.2563 21.3763C13.2563 21.3763 13.7813 21.4725 13.8513 21.455V21.455Z" fill="#FFEF00" stroke="black" stroke-width="0.28"/>
<path id="Vector_19" fill-rule="evenodd" clip-rule="evenodd" d="M36.584 24.325C36.5927 23.2312 34.5277 17.9462 34.1777 17.185C33.4249 16.2135 32.861 15.1094 32.5152 13.93C32.3227 12.7925 31.7102 11.8912 30.8527 11.5937C29.864 11.0687 28.8927 11.27 27.9652 11.3487C27.5015 11.445 27.1077 11.6987 26.889 12.0575C26.3902 12.775 26.1102 12.7225 25.769 13.0375C22.899 13.475 20.1865 14.9625 18.1215 15.9687C17.3793 16.5264 16.552 16.9607 15.6715 17.255C14.5077 17.2637 13.659 16.7125 13.2565 16.415L9.30149 12.8275C8.16399 11.97 7.87524 13.195 8.09399 13.3875C8.47899 14.21 7.65649 14.7 10.789 17.6575L11.979 20.1075C11.979 20.1075 11.909 20.7725 11.9702 20.8075C12.539 22.1637 13.4577 21.8225 13.8777 21.4375L14.814 20.5887C14.814 20.5887 16.6515 20.0112 16.6865 19.95C18.664 20.2475 23.774 19.2762 24.614 18.8737C25.3752 18.4537 25.419 18.8125 26.0752 18.2787C26.6265 17.9112 26.329 18.2 27.344 17.2725C27.6502 17.01 27.904 17.4475 27.9565 17.745C28.0177 20.6325 28.4465 23.1087 28.709 25.9875L28.7615 26.425L33.5827 27.9562L36.724 25.0162C36.689 24.7625 36.6365 24.5525 36.5927 24.3162L36.584 24.325Z" fill="#F5F5F5" stroke="black" stroke-width="0.3325"/>
<path id="Vector_20" fill-rule="evenodd" clip-rule="evenodd" d="M11.7516 15.2425C11.7953 15.2775 11.0428 17.7275 11.0428 17.7275L10.3516 17.0275L10.8416 14.4463L11.7516 15.2338V15.2425Z" fill="#FFEC00"/>
<path id="Vector_21" d="M23.1963 13.7812C23.6073 14.2843 23.9123 14.8654 24.0927 15.4895C24.2732 16.1135 24.3254 16.7677 24.2463 17.4125" stroke="black" stroke-width="0.28"/>
<path id="Vector_22" d="M10.6047 14.0262C10.6222 14.0612 10.6747 14.2887 10.6834 14.4287C10.6572 14.5775 10.6134 15.1112 10.5522 15.3037C10.5082 15.5033 10.4732 15.7048 10.4472 15.9075L10.2984 16.5025C10.2835 16.694 10.2542 16.8841 10.2109 17.0712M11.7772 15.155C11.7422 15.3212 11.6022 16.0562 11.5234 16.2575C11.4675 16.4801 11.4208 16.7048 11.3834 16.9312L11.2084 17.5875C11.1822 17.7975 11.1384 18.0075 11.0772 18.2175L11.7772 15.155Z" stroke="black" stroke-width="0.30625"/>
<path id="Vector_23" d="M24.9812 18.7687C24.9112 18.7425 24.7187 18.5937 24.5699 18.5237C24.3949 18.4187 23.9574 17.9025 23.9312 17.535M19.6349 19.8625L19.6437 19.8362C19.5999 19.9412 19.6437 19.88 19.5387 19.6612C19.4337 19.5387 19.3637 18.9787 19.5212 18.6725C19.5939 18.4849 19.6756 18.3009 19.7662 18.1212C19.7837 18.0775 19.8537 18.0337 19.8712 17.9987L19.6349 19.8625ZM13.0287 16.4062L13.0199 16.4325L12.9499 16.5637C12.8624 16.7387 12.7487 16.8787 12.6699 17.0275C12.5824 17.1937 12.4512 17.325 12.3724 17.4912C12.2674 17.64 12.1712 17.8412 12.0574 17.99C11.9524 18.1737 11.8387 18.3137 11.7424 18.5062C11.6549 18.6637 11.5762 18.7337 11.4887 18.9087L11.7424 18.5062C11.6549 18.6637 11.5762 18.7337 11.4887 18.9087L13.0287 16.4062ZM9.67742 13.2737C9.69492 13.3087 9.76492 13.5187 9.76492 13.65C9.74742 13.79 9.72992 14.2887 9.67742 14.455C9.64242 14.6475 9.60742 14.8312 9.58992 15.0237L9.45867 15.575C9.44919 15.7516 9.42578 15.9271 9.38867 16.1L9.67742 13.2737ZM13.6937 19.1887C13.4749 18.9612 13.3437 19.04 13.2124 19.0312C13.0549 19.0575 12.7749 19.1887 12.4862 19.4687C12.3844 19.5827 12.2763 19.6908 12.1624 19.7925C12.1012 19.88 12.0487 19.9237 11.9874 19.985L13.6937 19.1887ZM29.9687 11.4975L29.9512 11.5325C30.0037 11.4275 29.9599 11.4887 30.0124 11.725C30.0737 11.8912 30.0824 12.005 30.1524 12.1625L29.9687 11.4975ZM26.5999 12.39C26.5912 12.4075 26.5562 14.7437 26.6524 15.0412C26.6874 15.2337 26.7399 15.3912 26.7662 15.6275C26.7662 15.7587 26.7924 15.8812 26.8012 16.0125C26.8887 16.1612 26.8974 16.31 26.9762 16.4325C27.0199 16.5987 27.1512 16.6075 27.2212 16.7562C27.3262 16.8612 27.4837 17.0537 27.5799 17.1325L26.5999 12.39Z" stroke="black" stroke-width="0.28"/>
<path id="Vector_24" d="M30.7653 26.0575L30.8091 25.9962C30.7478 26.1187 30.7653 26.0837 30.8266 25.8825C30.8266 25.6462 30.8791 25.3575 30.8878 25.1387C30.9228 24.92 30.9578 24.675 30.9578 24.4387C30.9491 24.1762 30.9491 23.94 30.9053 23.6862C30.9053 23.45 30.8791 23.205 30.8703 22.9687C30.8697 22.7511 30.8463 22.534 30.8003 22.3212C30.7957 22.1216 30.7752 21.9226 30.7391 21.7262C30.7653 21.56 30.7216 21.4112 30.6866 21.2887L30.5291 20.6325L30.3978 20.1075C30.3716 19.915 30.2666 19.67 30.2228 19.495C30.1568 19.3561 30.1098 19.2089 30.0828 19.0575C30.0216 18.9175 29.9428 18.76 29.9078 18.6025L29.7153 18.13L29.5403 17.675C29.4791 17.5 29.3916 17.3512 29.3566 17.1675C29.2953 17.1062 29.2778 17.045 29.2428 16.9925M26.7316 15.4612L26.1016 16.1C25.4736 16.6 24.7998 17.0394 24.0891 17.4125C23.9316 17.4825 23.7391 17.6575 23.5816 17.675C23.4066 17.7537 23.2316 17.78 23.0566 17.815C22.8641 17.8587 22.6891 17.9025 22.5316 17.9025C22.0503 18.1125 19.5566 18.0337 19.4166 18.0075C19.2704 18.0045 19.1245 17.9957 18.9791 17.9812C18.8653 18.0075 18.7166 17.9987 18.5591 18.0075C18.3666 17.99 18.2528 18.025 18.0866 18.0512C17.9641 18.1125 17.7453 18.1912 17.6053 18.2875C17.4041 18.3662 17.2816 18.4712 17.1416 18.5325C16.4221 18.986 15.6928 19.4236 14.9541 19.845C14.7528 19.9325 14.0178 20.1512 13.8341 19.635C13.7903 19.4337 13.6941 19.2237 13.6853 19.0662C13.6328 18.8825 13.6591 18.6812 13.6766 18.5062C13.8516 17.6312 14.1228 17.2812 14.2016 17.1325L14.2891 16.975L26.7316 15.4612ZM32.4016 13.7375L32.3841 13.7637C32.4278 13.6762 32.4103 13.7287 32.2878 13.8775C32.1566 13.9825 32.0078 14.14 31.8941 14.245C31.7803 14.3587 31.6666 14.5162 31.5616 14.56C31.4566 14.7 31.3253 14.735 31.1853 14.8225C31.0143 14.8807 30.8501 14.9569 30.6953 15.05C30.4853 15.1637 30.3453 15.2687 30.1528 15.3825C30.0391 15.54 29.9166 15.6362 29.8028 15.82C29.7153 15.9862 29.6103 16.1262 29.5141 16.31L29.2778 16.765L29.5141 16.31L29.2778 16.765L32.4016 13.7375Z" stroke="black" stroke-width="0.28"/>
<path id="Vector_25" fill-rule="evenodd" clip-rule="evenodd" d="M30.3363 12.5212C30.1175 13.02 29.5575 13.7462 29.5488 13.7637L29.0238 14.8312C28.7788 15.4175 28.9363 15.6537 29.0325 15.82C29.2425 16.1962 29.2863 16.3975 29.4438 16.6862C29.505 17.0362 28.8663 17.1675 28.8575 17.1762C27.545 17.6312 26.8713 16.3712 26.8625 16.3012C26.6875 15.645 26.7138 15.5312 27.1163 15.4C27.58 15.2862 27.7638 15.2862 27.9913 15.12C28.4288 14.7962 28.735 13.8075 28.7438 13.79L28.805 13.2387C28.84 12.9762 28.7175 12.7312 28.8488 12.32C29.0238 11.9262 29.1288 11.8125 29.5488 11.7775C30.0738 11.7337 30.4938 12.11 30.3363 12.5212Z" fill="#FFE606" stroke="black" stroke-width="0.28"/>
<path id="Vector_26" fill-rule="evenodd" clip-rule="evenodd" d="M28.6034 25.3838C28.4109 25.2088 32.3484 26.8188 32.8909 26.8363C33.6346 26.565 36.6971 23.975 36.6971 23.975C36.7234 24.2375 36.8371 24.885 37.1346 25.025C35.9446 25.9875 34.8771 26.9063 33.6959 27.8688C33.7834 29.3913 33.5034 31.0013 34.2734 32.6988C34.2734 32.6988 33.3459 32.7163 33.3459 32.6988C32.5321 31.885 32.2434 27.9563 32.2434 27.9563L28.3584 26.25C28.5509 26.1275 28.6996 25.7513 28.6209 25.3925L28.6034 25.3838Z" fill="#FFEF00" stroke="black" stroke-width="0.28"/>
<path id="Vector_27" d="M34.8069 27.1425C34.7369 27.1075 35.4544 27.6063 35.6381 27.7375C38.9806 30.0475 42.2881 30.4237 42.4369 30.4762C42.5769 30.4762 42.7694 30.5025 42.9531 30.5288C43.1019 30.5375 43.2769 30.59 43.4344 30.5988C43.6094 30.625 43.9944 30.6863 44.1694 30.7475C44.2569 30.7213 44.1169 30.7038 44.1694 30.7038M32.3569 29.4088C32.4269 29.365 31.6569 29.7763 31.4469 29.8725C27.8594 31.7888 26.0219 34.5712 25.9081 34.6762C25.8469 34.79 25.7331 34.9475 25.6281 35.105C25.5406 35.2363 25.4181 35.3675 25.3394 35.4988C25.1944 35.7016 25.0396 35.8972 24.8756 36.085C24.8581 36.1725 24.9369 36.0588 24.9106 36.1113L32.3569 29.4088Z" stroke="black" stroke-width="0.28"/>
</g>
</g>
</g>
<defs>
<clipPath id="clip0_2909_185407">
<path d="M0.246094 32C0.246094 14.3269 14.573 0 32.2461 0V0C49.9192 0 64.2461 14.3269 64.2461 32V32C64.2461 49.6731 49.9192 64 32.2461 64V64C14.573 64 0.246094 49.6731 0.246094 32V32Z" fill="white"/>
</clipPath>
</defs>
</svg>
