<svg width="65" height="64" viewBox="0 0 65 64" fill="none" xmlns="http://www.w3.org/2000/svg">
<g id="Rounded=Comoros (KM)">
<g clip-path="url(#clip0_2909_185435)">
<g id="Group">
<path id="Vector" fill-rule="evenodd" clip-rule="evenodd" d="M0.246094 0H96.3398V15.99H0.246094V0Z" fill="#FFFF00"/>
<path id="Vector_2" fill-rule="evenodd" clip-rule="evenodd" d="M0.246094 15.99H96.3398V31.9954H0.246094V15.99Z" fill="#F5F5F5"/>
<path id="Vector_3" fill-rule="evenodd" clip-rule="evenodd" d="M0.246094 31.9954H96.3398V47.9854H0.246094V31.9954Z" fill="#BE0027"/>
<path id="Vector_4" fill-rule="evenodd" clip-rule="evenodd" d="M0.246094 48.0008H96.3398V63.9908H0.246094V48.0008Z" fill="#3B5AA3"/>
<path id="Vector_5" fill-rule="evenodd" clip-rule="evenodd" d="M0.246094 0V63.9908L47.9701 32.0876L0.246094 0Z" fill="#239E46"/>
<path id="Vector_6" fill-rule="evenodd" clip-rule="evenodd" d="M19.8951 17.6813C9.25558 17.1431 4.41246 25.6148 4.42783 32.1645C4.39708 39.9135 11.7463 46.3095 18.5267 45.9098C16.0317 44.5851 13.9498 42.5987 12.5096 40.1685C11.0694 37.7384 10.3265 34.9584 10.3626 32.1338C10.2796 29.0384 11.1494 25.9922 12.8543 23.4073C14.5593 20.8224 17.017 18.8236 19.8951 17.6813V17.6813Z" fill="#F5F5F5"/>
<path id="Vector_7" fill-rule="evenodd" clip-rule="evenodd" d="M19.7417 24.6307L18.235 23.4623L16.4207 24.0311L17.0665 22.2476L15.9748 20.6948L17.866 20.7563L19.0037 19.2188L19.5265 21.0638L21.3407 21.6634L19.7571 22.7396L19.7417 24.6307ZM19.711 31.1344L18.2042 29.9659L16.39 30.5348L17.0357 28.7513L15.9287 27.1984L17.8352 27.2599L18.973 25.7224L19.4957 27.5674L21.31 28.1824L19.7263 29.2432L19.711 31.1344ZM19.7417 37.7149L18.235 36.5464L16.4207 37.1152L17.0665 35.3164L15.9748 33.7789L17.866 33.8404L19.0037 32.3029L19.5265 34.1479L21.3407 34.7475L19.7571 35.8084L19.7417 37.7149ZM19.711 44.3415L18.2042 43.173L16.39 43.7419L17.0357 41.9584L15.9287 40.4055L17.8352 40.467L18.973 38.9295L19.4957 40.7745L21.31 41.3895L19.7263 42.4504L19.711 44.3415Z" fill="#F5F5F5"/>
</g>
</g>
</g>
<defs>
<clipPath id="clip0_2909_185435">
<path d="M0.246094 32C0.246094 14.3269 14.573 0 32.2461 0V0C49.9192 0 64.2461 14.3269 64.2461 32V32C64.2461 49.6731 49.9192 64 32.2461 64V64C14.573 64 0.246094 49.6731 0.246094 32V32Z" fill="white"/>
</clipPath>
</defs>
</svg>
