<svg width="65" height="64" viewBox="0 0 65 64" fill="none" xmlns="http://www.w3.org/2000/svg">
<g id="Rounded=South Korea (KR)">
<g clip-path="url(#clip0_2909_185362)">
<path id="Vector" fill-rule="evenodd" clip-rule="evenodd" d="M0.246094 0H64.2461V64H0.246094V0Z" fill="#F5F5F5"/>
<g id="Group">
<g id="b">
<path id="a" fill-rule="evenodd" clip-rule="evenodd" d="M2.99316 20.9433L10.7957 9.24394L12.7456 10.5444L4.94306 22.2437L2.99316 20.9433ZM5.918 22.8939L13.7205 11.1946L15.6704 12.495L7.8679 24.1943L5.918 22.8939ZM8.84284 24.8445L16.6453 13.1452L18.5952 14.4456L10.7927 26.145L8.84284 24.8445Z" fill="black"/>
<path id="Vector_2" fill-rule="evenodd" clip-rule="evenodd" d="M2.99316 20.9433L10.7957 9.24394L12.7456 10.5444L4.94306 22.2437L2.99316 20.9433ZM5.918 22.8939L13.7205 11.1946L15.6704 12.495L7.8679 24.1943L5.918 22.8939ZM8.84284 24.8445L16.6453 13.1452L18.5952 14.4456L10.7927 26.145L8.84284 24.8445Z" fill="black"/>
</g>
<g id="Vector_3">
<path fill-rule="evenodd" clip-rule="evenodd" d="M48.8174 43.0526L58.5668 49.5547Z" fill="black"/>
<path d="M48.8174 43.0526L58.5668 49.5547" stroke="#F5F5F5" stroke-width="1.17188"/>
</g>
<path id="Vector_4" fill-rule="evenodd" clip-rule="evenodd" d="M20.5439 24.1965C22.6133 21.0937 25.8305 18.9399 29.4878 18.2091C33.1451 17.4783 36.9429 18.2303 40.0458 20.2997C43.1487 22.369 45.3024 25.5862 46.0332 29.2435C46.764 32.9008 46.012 36.6987 43.9427 39.8015L20.5439 24.1965Z" fill="#CD2E3A"/>
<path id="Vector_5" fill-rule="evenodd" clip-rule="evenodd" d="M20.5437 24.1965C18.4744 27.2994 17.7224 31.0972 18.4532 34.7545C19.184 38.4118 21.3377 41.629 24.4406 43.6984C27.5434 45.7677 31.3413 46.5197 34.9986 45.7889C38.6559 45.0581 41.8731 42.9044 43.9424 39.8015C44.9771 38.2501 45.3531 36.3512 44.9877 34.5225C44.6223 32.6939 43.5454 31.0853 41.994 30.0506C40.4426 29.0159 38.5437 28.6399 36.715 29.0053C34.8863 29.3707 33.2777 30.4476 32.2431 31.999L20.5437 24.1965Z" fill="#0047A0"/>
<path id="Vector_6" d="M32.2432 31.999C34.3978 28.7683 33.5254 24.4027 30.2948 22.2481C27.0641 20.0935 22.6984 20.9658 20.5438 24.1965C18.3892 27.4272 19.2616 31.7929 22.4923 33.9475C25.7229 36.1021 30.0886 35.2297 32.2432 31.999Z" fill="#CD2E3A"/>
</g>
<g id="Group_2">
<g id="Group_3">
<path id="a_2" fill-rule="evenodd" clip-rule="evenodd" d="M10.8018 54.7541L2.99926 43.0548L4.94915 41.7543L12.7517 53.4537L10.8018 54.7541ZM13.7266 52.8035L5.9241 41.1041L7.87399 39.8037L15.6765 51.5031L13.7266 52.8035ZM16.6514 50.8529L8.84894 39.1535L10.7988 37.8531L18.6013 49.5525L16.6514 50.8529Z" fill="black"/>
<path id="Vector_7" fill-rule="evenodd" clip-rule="evenodd" d="M10.8018 54.7541L2.99926 43.0548L4.94915 41.7543L12.7517 53.4537L10.8018 54.7541ZM13.7266 52.8035L5.9241 41.1041L7.87399 39.8037L15.6765 51.5031L13.7266 52.8035ZM16.6514 50.8529L8.84894 39.1535L10.7988 37.8531L18.6013 49.5525L16.6514 50.8529Z" fill="black"/>
</g>
<g id="Vector_8">
<path fill-rule="evenodd" clip-rule="evenodd" d="M9.33789 47.2789L12.2627 45.3283L9.33789 47.2789ZM48.8232 20.9455L52.2355 18.6698L48.8232 20.9455ZM55.1604 16.7191L58.0852 14.7685Z" fill="black"/>
<path d="M55.1604 16.7191L58.0852 14.7685M9.33789 47.2789L12.2627 45.3283L9.33789 47.2789ZM48.8232 20.9455L52.2355 18.6698L48.8232 20.9455Z" stroke="#F5F5F5" stroke-width="1.17188"/>
</g>
</g>
</g>
</g>
<defs>
<clipPath id="clip0_2909_185362">
<path d="M0.246094 32C0.246094 14.3269 14.573 0 32.2461 0V0C49.9192 0 64.2461 14.3269 64.2461 32V32C64.2461 49.6731 49.9192 64 32.2461 64V64C14.573 64 0.246094 49.6731 0.246094 32V32Z" fill="white"/>
</clipPath>
</defs>
</svg>
