<svg width="65" height="64" viewBox="0 0 65 64" fill="none" xmlns="http://www.w3.org/2000/svg">
<g id="Rounded=Laos (LA)">
<g clip-path="url(#clip0_2909_185358)">
<g id="Group">
<path id="Vector" fill-rule="evenodd" clip-rule="evenodd" d="M-15.7539 0H80.247V64.0036H-15.7539V0Z" fill="#CE1126"/>
<path id="Vector_2" fill-rule="evenodd" clip-rule="evenodd" d="M-15.7539 15.8948H80.247V48.0998H-15.7539V15.8948Z" fill="#002868"/>
<path id="Vector_3" fill-rule="evenodd" clip-rule="evenodd" d="M46.0371 31.9973C46.0371 35.6548 44.5842 39.1624 41.998 41.7487C39.4117 44.3349 35.9041 45.7878 32.2466 45.7878C28.5891 45.7878 25.0814 44.3349 22.4952 41.7487C19.909 39.1624 18.4561 35.6548 18.4561 31.9973C18.4561 28.3398 19.909 24.8321 22.4952 22.2459C25.0814 19.6597 28.5891 18.2068 32.2466 18.2068C35.9041 18.2068 39.4117 19.6597 41.998 22.2459C44.5842 24.8321 46.0371 28.3398 46.0371 31.9973V31.9973Z" fill="#F5F5F5"/>
</g>
</g>
</g>
<defs>
<clipPath id="clip0_2909_185358">
<path d="M0.246094 32C0.246094 14.3269 14.573 0 32.2461 0V0C49.9192 0 64.2461 14.3269 64.2461 32V32C64.2461 49.6731 49.9192 64 32.2461 64V64C14.573 64 0.246094 49.6731 0.246094 32V32Z" fill="white"/>
</clipPath>
</defs>
</svg>
