<svg width="65" height="64" viewBox="0 0 65 64" fill="none" xmlns="http://www.w3.org/2000/svg">
<g id="Rounded=Lebanon (LB)">
<g clip-path="url(#clip0_2909_185380)">
<g id="Group">
<g id="Group_2">
<path id="Vector" fill-rule="evenodd" clip-rule="evenodd" d="M-15.7539 47.9926H80.2314V63.9902H-15.7539V47.9926ZM-15.7539 0H80.2314V15.9975H-15.7539V0Z" fill="#FF0000"/>
<path id="Vector_2" fill-rule="evenodd" clip-rule="evenodd" d="M-15.7539 15.9976H80.2314V47.9927H-15.7539V15.9976Z" fill="#F5F5F5"/>
</g>
<path id="Vector_3" d="M31.7617 16.2427C30.7812 18.1908 30.1232 18.1908 28.4976 19.4938C27.8526 20.1389 26.8721 20.4614 28.1751 21.1193C26.885 21.7644 26.227 22.0869 25.5691 23.39L25.9045 23.7125C25.9045 23.7125 27.1301 23.1061 27.1946 23.39C27.4139 23.648 25.5691 24.6414 25.3368 24.8091C25.1046 24.9768 23.9435 25.6606 23.9435 25.6606C22.3179 26.9636 21.3374 26.6411 20.3699 28.5892L23.621 28.2666C24.266 30.5373 21.9954 30.8598 20.3699 31.8403L17.7638 33.4658C18.4089 35.7365 20.3699 34.4334 21.9954 33.7884L22.3179 34.1109V34.756L19.0797 36.3815C19.0797 36.3815 15.2352 38.5747 15.1706 38.6522C15.1448 38.7812 15.1706 39.2972 15.1706 39.2972C16.4737 39.6326 18.4218 39.9552 19.7248 39.2972C21.3503 38.6522 21.6858 38.0071 23.6339 38.0071C21.7537 39.4768 19.4939 40.3807 17.1187 40.6131V41.9033C19.0797 41.9033 20.3828 41.9033 22.0083 41.5807L26.2399 40.2906C27.2075 40.2906 28.188 41.2582 27.8655 42.2258C26.885 45.7994 22.9888 45.1544 21.6729 48.083L26.885 46.1349C28.188 45.4898 29.491 44.8318 31.1166 45.1544C33.0647 45.7994 33.0647 47.1025 35.6707 47.7475L35.0257 46.1349C35.6707 46.4574 36.3158 46.4574 36.9738 46.7799C38.5993 47.425 38.9218 48.0701 40.8828 47.7475C39.2573 45.8123 38.9218 46.1349 37.6317 44.8318C36.3287 42.8838 35.6707 39.9552 37.6317 39.6326L39.9023 40.2777C42.1859 40.6131 42.1859 39.9552 45.437 41.2582C47.3851 41.9033 48.043 42.8838 50.3136 42.2258C49.3461 39.9552 45.7595 38.3296 43.476 37.6846C46.082 36.059 45.437 38.3296 49.0235 37.362V36.717C46.4175 34.756 45.437 33.1304 41.8504 33.1304L47.398 32.4854V31.8403C47.398 31.8403 41.9149 30.4082 41.7859 30.3566C41.8198 30.2254 41.8859 30.1048 41.9783 30.0056C42.0707 29.9065 42.1864 29.832 42.3149 29.789C43.347 30.4599 46.482 30.3824 46.6626 30.3695C46.5723 29.5697 45.0886 28.9117 43.7856 28.2666C43.7856 28.2666 38.2123 24.822 38.1865 24.5253C38.2897 23.648 40.47 24.6543 42.8051 25.3381C42.1601 24.0479 40.857 23.39 39.554 23.0674L41.5021 22.7449C40.212 19.8163 36.948 20.1389 34.9999 18.8358C33.6968 17.8682 33.6968 17.2103 31.7488 16.2427H31.7617Z" fill="#007900"/>
<path id="Vector_4" fill-rule="evenodd" clip-rule="evenodd" d="M28.2394 37.8781C28.4845 37.104 28.7941 36.4202 27.3492 35.7623C25.9043 35.1043 28.0717 38.407 28.2523 37.8781H28.2394ZM29.9553 36.3299C29.6585 36.3686 29.5166 37.4394 30.0843 37.7232C30.7422 37.8265 30.2133 36.3428 29.9553 36.3299ZM31.6453 36.2138C31.3486 36.3041 31.3357 37.8136 32.3936 37.5426C33.4644 37.2846 32.3936 36.0977 31.6453 36.2267V36.2138ZM33.6192 32.3692C33.8514 32.008 33.6063 30.4985 32.6903 31.1307C31.7743 31.7758 33.3354 32.4724 33.6192 32.3692ZM31.6195 31.1178C31.9034 31.0146 31.9292 30.0857 31.1293 30.3437C30.3294 30.5759 31.4131 31.3113 31.6195 31.1178ZM29.8133 31.4919C29.8133 31.4919 29.2586 30.7179 28.82 30.8727C28.2781 31.3887 29.8521 31.5048 29.8133 31.4919ZM23.6207 33.9561C23.853 33.9819 25.6204 33.6722 26.2268 32.9885C26.8461 32.3047 23.0918 33.2723 23.0918 33.2852C23.0918 33.2981 23.4401 33.8916 23.6078 33.9561H23.6207ZM41.2568 29.5955C41.3471 29.4277 40.315 28.6924 39.7086 28.9891C39.5538 29.5309 41.2568 29.6987 41.2568 29.5955ZM37.7863 27.8409C37.9798 27.57 37.3348 26.4217 36.0705 27.0668C34.8061 27.7119 37.3993 28.2924 37.7863 27.8409ZM33.774 27.17C33.774 27.17 34.0837 26.1379 34.8577 26.3443C35.7092 27.0023 33.8127 27.2087 33.774 27.17ZM33.0258 26.3959C32.8967 26.1121 32.1098 26.2798 31.1938 26.8862C30.2778 27.4796 33.2967 27.0539 33.0258 26.3959ZM35.348 23.6351C35.348 23.6351 36.1737 23.2609 36.4188 23.6351C36.7542 24.1769 35.348 23.6351 35.3609 23.6351H35.348ZM34.6771 23.2738C34.5094 22.9513 33.6063 22.9126 33.6321 23.4029C33.4773 23.7641 34.7932 23.6996 34.6642 23.2738H34.6771ZM32.5226 23.2738C32.4323 23.0803 31.1551 23.2738 30.768 24.0479C31.3873 24.3446 32.8064 23.7641 32.5226 23.2738ZM29.7746 24.0608C29.7746 24.0608 28.0975 25.0929 27.9814 25.8541C28.033 26.4992 30.0843 24.6672 30.0843 24.6672C30.0843 24.6672 30.2649 23.9447 29.7746 24.0608V24.0608ZM27.904 23.119C27.9556 22.9126 28.7425 22.4224 28.807 22.474C28.8716 22.6804 28.162 23.248 27.904 23.119ZM28.4458 27.0668C28.4845 26.7701 26.4332 26.7959 27.2073 27.7248C27.8524 28.5117 28.5877 27.2087 28.4458 27.0797V27.0668ZM26.5622 28.4214C26.459 28.215 26.3042 27.6603 26.0204 27.6087C25.8011 27.6087 24.5625 27.8667 24.4722 28.0602C24.4206 28.2279 24.9883 29.2471 25.1689 29.2729C25.3882 29.3503 26.5235 28.5247 26.5622 28.4214ZM37.6057 35.3107C37.6702 35.0914 39.7602 34.3689 40.4827 35.0527C41.3342 36.2138 37.5541 35.6719 37.6057 35.3107ZM43.3597 36.6782C43.8112 35.9042 41.9405 34.9753 41.1665 35.8655C41.4245 36.9234 42.9855 37.3104 43.3597 36.6782Z" fill="#F5F5F5" stroke="#F5F5F5" stroke-width="0.399939" stroke-linecap="round" stroke-linejoin="round"/>
</g>
</g>
</g>
<defs>
<clipPath id="clip0_2909_185380">
<path d="M0.246094 32C0.246094 14.3269 14.573 0 32.2461 0V0C49.9192 0 64.2461 14.3269 64.2461 32V32C64.2461 49.6731 49.9192 64 32.2461 64V64C14.573 64 0.246094 49.6731 0.246094 32V32Z" fill="white"/>
</clipPath>
</defs>
</svg>
