<svg width="65" height="64" viewBox="0 0 65 64" fill="none" xmlns="http://www.w3.org/2000/svg">
<g id="Rounded=Sri Lanka (LK)">
<g clip-path="url(#clip0_2909_185350)">
<path id="Vector" d="M0.246094 0H64.2461V64H0.246094V0Z" fill="#FFB700"/>
<path id="Vector_2" d="M2.9082 32L11.6707 2.66251H20.4332V61.3375H11.6832L2.9082 32Z" fill="#FF5B00"/>
<path id="Vector_3" d="M2.9082 2.66251H11.6707V61.3375H2.9207L2.9082 2.66251Z" fill="#005641"/>
<path id="Vector_4" d="M23.084 2.66251H61.584V61.3375H23.084V2.66251Z" fill="#8D2029"/>
<path id="a" d="M58.1709 56.8625C58.1709 56.8625 58.5334 57.6 58.9334 57.9C59.5334 58.3375 60.7459 58.3125 61.2584 58.825C61.8834 59.45 61.2084 60.25 61.2209 60.325L61.2584 60.75C61.2584 60.75 60.8334 60.75 60.6584 60.7875C60.3959 60.825 60.2834 61.0375 59.7959 61.0125C58.5584 60.925 58.6084 59.8125 58.5459 58.8625C58.4834 58.4875 58.3334 58.025 58.2584 57.6625C58.1834 57.35 58.1709 56.8625 58.1709 56.8625V56.8625Z" fill="#FFB700" stroke="black" stroke-width="0.1125"/>
<path id="Vector_5" d="M26.8584 56.8625C26.8584 56.8625 26.4959 57.6 26.0959 57.9C25.4959 58.3375 24.2834 58.3125 23.7709 58.825C23.1459 59.45 23.8209 60.25 23.8084 60.325L23.7709 60.75C23.7709 60.75 24.1959 60.75 24.3709 60.7875C24.6334 60.825 24.7459 61.0375 25.2334 61.0125C26.4709 60.925 26.4209 59.8125 26.4834 58.8625C26.5459 58.4875 26.6959 58.025 26.7709 57.6625C26.8459 57.35 26.8584 56.8625 26.8584 56.8625V56.8625Z" fill="#FFB700" stroke="black" stroke-width="0.1125"/>
<path id="Vector_6" d="M58.1709 7.13751C58.1709 7.13751 58.5334 6.40001 58.9334 6.10001C59.5334 5.66251 60.7459 5.68751 61.2584 5.17501C61.8834 4.55001 61.2084 3.75001 61.2209 3.67501L61.2584 3.25001C61.2584 3.25001 60.8334 3.25001 60.6584 3.21251C60.3959 3.17501 60.2834 2.96251 59.7959 2.98751C58.5584 3.07501 58.6084 4.18751 58.5459 5.13751C58.4834 5.51251 58.3334 5.97501 58.2584 6.33751C58.1834 6.65001 58.1709 7.13751 58.1709 7.13751V7.13751Z" fill="#FFB700" stroke="black" stroke-width="0.1125"/>
<path id="Vector_7" d="M26.8457 7.13751C26.8457 7.13751 26.4832 6.40001 26.0832 6.10001C25.4832 5.66251 24.2707 5.68751 23.7582 5.17501C23.1332 4.55001 23.8082 3.75001 23.7957 3.67501L23.7582 3.25001C23.7582 3.25001 24.1832 3.25001 24.3582 3.21251C24.6207 3.17501 24.7332 2.96251 25.2207 2.98751C26.4582 3.07501 26.4082 4.18751 26.4707 5.13751C26.5332 5.51251 26.6832 5.97501 26.7582 6.33751C26.8332 6.65001 26.8457 7.13751 26.8457 7.13751V7.13751Z" fill="#FFB700" stroke="black" stroke-width="0.1125"/>
<g id="Group">
<g id="Group_2">
<path id="Vector_8" d="M36.5962 41.98L36.8262 41.84L36.9262 41.98C37.0562 42.16 37.4262 42.15 37.6662 41.98L37.8562 41.83L38.0162 41.97C38.2162 42.16 38.5962 42.16 38.8462 41.97C39.0162 41.85 39.0462 41.84 39.1462 41.94C39.2162 42 39.4162 42.06 39.5862 42.09C39.9062 42.13 39.9062 42.13 40.0862 41.85C40.2462 41.62 40.2662 41.53 40.2362 41.3C40.2083 41.1243 40.1883 40.9475 40.1762 40.77C40.1562 40.51 40.1662 40.51 40.5362 40.37C40.7199 40.3137 40.9002 40.2469 41.0762 40.17C41.2262 40.08 41.6462 39.59 41.6462 39.49C41.6462 39.47 41.4862 39.43 41.2862 39.41C40.4862 39.31 40.3562 38.89 40.8762 38.11C41.7062 36.81 42.2162 35.56 42.2162 34.77C42.2162 34.41 42.2462 34.29 42.2862 34.37C42.4762 34.68 42.1362 36.01 41.6362 36.97L41.4362 37.35L41.6262 37.31C41.7262 37.28 42.3662 37.01 43.0262 36.71C44.8462 35.89 45.4662 35.73 46.6462 35.78C47.6362 35.82 48.0462 36.01 48.7462 36.74C49.1162 37.14 49.4762 37.41 50.1262 37.82C51.5062 38.68 51.5662 38.76 51.6362 39.78C51.7062 40.81 51.6662 40.87 50.8862 41.04C50.2162 41.19 49.7962 41.5 49.6862 41.94C49.6262 42.16 49.7562 42.17 50.0862 41.95L50.3362 41.79L50.4462 41.95C50.5962 42.16 50.8962 42.16 51.1462 41.95L51.3462 41.8L51.5462 41.95C51.8462 42.2 52.2462 42.14 52.3662 41.83C52.3862 41.78 52.4462 41.79 52.5662 41.9C52.7962 42.1 53.3662 42.18 53.4262 42.02C53.4462 41.96 53.4062 41.82 53.3262 41.7C52.9962 41.2 52.8862 40.97 52.8862 40.7C52.8862 40.32 52.9862 40.13 53.4262 39.83C53.9462 39.45 54.1062 38.97 53.7062 38.97C53.4662 38.97 53.2162 38.75 53.0562 38.4C52.7362 37.68 52.8062 36.88 53.2862 35.54C53.6542 34.7516 53.8389 33.89 53.8262 33.02C53.8262 32.28 53.8062 32.16 53.6462 31.75C53.5211 31.465 53.3669 31.1935 53.1862 30.94L52.9062 30.57L53.2562 30.27C54.3362 29.38 54.1162 27.92 52.8162 27.36C52.4162 27.18 52.3162 27.17 51.6162 27.17C51.2162 27.17 50.5662 27.23 50.2162 27.3C49.7464 27.3744 49.2718 27.4145 48.7962 27.42C48.1162 27.42 47.9962 27.4 47.7362 27.26C47.4662 27.12 47.4162 27.05 47.3662 26.71C47.3614 26.678 47.3489 26.6476 47.3297 26.6214C47.3105 26.5953 47.2853 26.5742 47.2562 26.56C47.1562 26.53 46.7362 26.9 46.6762 27.06C46.6362 27.15 46.6162 27.14 46.5262 27.03C46.4414 26.921 46.3739 26.7996 46.3262 26.67C46.2262 26.34 46.3562 26.1 46.7462 25.91L47.0462 25.77L46.8662 25.66C46.5062 25.43 45.8862 25.59 45.6662 25.96C45.5962 26.06 45.5262 26.16 45.5062 26.16C45.4862 26.16 45.3662 26.06 45.2462 25.93C44.7762 25.47 44.9362 24.79 45.5662 24.59C45.8962 24.48 46.1962 24.56 46.2562 24.79C46.3562 25.12 46.6362 24.68 46.5862 24.27C46.5562 24 46.5562 23.99 46.7462 23.99C47.0062 23.99 47.5462 24.33 47.7262 24.59C47.9262 24.9 47.9062 25.39 47.6862 25.75L47.5162 26.03L47.7462 25.99C48.0662 25.92 48.3862 25.72 48.5462 25.47C48.6305 25.3108 48.6779 25.1346 48.6848 24.9546C48.6918 24.7745 48.658 24.5952 48.5862 24.43C48.4362 24.16 48.4562 24.12 48.6762 24.21C49.0362 24.36 49.2362 24.53 49.3762 24.82C49.5162 25.08 49.5262 25.14 49.4562 25.42C49.4083 25.5905 49.3341 25.7524 49.2362 25.9C49.1162 26.06 49.1062 26.09 49.2062 26.09C49.3862 26.09 49.7462 25.92 49.8762 25.79C49.9462 25.71 50.0462 25.54 50.0962 25.39L50.1962 25.14L50.2962 25.34C50.4462 25.61 50.7462 25.86 51.1062 26.02C51.4962 26.18 51.6562 26.19 51.4562 26.04C51.3162 25.94 51.0562 25.19 51.1462 25.12C51.5778 25.3617 51.9719 25.6649 52.3162 26.02C52.8862 26.53 53.2462 26.7 53.7662 26.7C54.4362 26.7 54.8262 26.12 54.5262 25.57C54.3562 25.25 53.9662 25.2 53.7262 25.47C53.6262 25.6 53.5962 25.7 53.6262 25.84C53.6662 26 53.6562 26.02 53.5062 26.02C53.3062 26.02 52.9262 25.77 52.2462 25.2C51.2997 24.3854 50.2117 23.7516 49.0362 23.33C48.2399 23.146 47.4176 23.102 46.6062 23.2C45.9662 23.32 45.2062 23.69 44.7862 24.08C44.0562 24.78 44.0462 25.71 44.7562 26.56L44.9562 26.8L44.8262 27.02C44.7284 27.1776 44.68 27.3608 44.6871 27.5461C44.6942 27.7315 44.7566 27.9104 44.8662 28.06C44.9662 28.2 45.0662 28.31 45.0962 28.31C45.1162 28.31 45.1362 28.22 45.1462 28.11C45.1662 27.84 45.2862 27.66 45.4862 27.59C45.6662 27.52 45.7862 27.56 46.6062 27.89C47.4762 28.23 48.9062 28.25 50.4262 27.95C51.085 27.7979 51.7706 27.8047 52.4262 27.97C53.1462 28.27 53.3062 29.04 52.7862 29.62C52.5562 29.88 52.3462 29.98 51.6162 30.18C50.9806 30.3476 50.3199 30.3984 49.6662 30.33C48.5862 30.32 48.1962 30.34 47.7662 30.43C47.2762 30.53 46.9862 30.54 45.5862 30.51L43.9562 30.47L44.1362 30.61C44.2326 30.6956 44.3363 30.7726 44.4462 30.84C44.5762 30.91 44.5662 30.92 44.3862 30.99C44.2862 31.03 44.0462 31.06 43.8562 31.06H43.5262L43.4862 31.34C43.4593 31.472 43.4593 31.608 43.4862 31.74C43.5262 31.84 43.5062 31.86 43.4062 31.82C43.3362 31.79 43.1462 31.74 42.9762 31.71C42.8047 31.6732 42.6372 31.6196 42.4762 31.55C42.2862 31.45 42.2662 31.45 42.1962 31.58C42.1362 31.68 41.5762 32.1 41.4962 32.1C41.4601 31.8406 41.3859 31.5879 41.2762 31.35C41.1762 31.14 41.0862 30.9 41.0562 30.83C41.0262 30.72 41.0062 30.71 40.9562 30.8C40.9262 30.85 40.8862 31 40.8562 31.12C40.8212 31.282 40.7604 31.4373 40.6762 31.58L40.5262 31.8L40.4262 31.61C40.3262 31.41 40.1662 31.19 40.1062 31.19C40.0862 31.19 40.0562 31.25 40.0362 31.34C39.9862 31.5 39.5962 31.97 39.4962 31.97C39.4662 31.97 39.4362 31.84 39.4362 31.67C39.4362 31.52 39.4062 31.38 39.3662 31.38C39.3262 31.38 39.2962 31.43 39.2962 31.48C39.2962 31.6 38.9662 31.98 38.8462 31.98C38.8062 31.98 38.7262 32.02 38.6762 32.08C38.5562 32.21 38.4562 32.19 38.5062 32.04C38.5202 31.9119 38.5066 31.7824 38.4662 31.66L38.3662 31.34C38.3462 31.29 38.2262 31.31 37.9662 31.39C37.5662 31.52 37.4262 31.49 37.6362 31.33C37.7162 31.27 37.8362 31.06 37.8962 30.87C37.9662 30.67 38.0662 30.5 38.1162 30.48C38.1862 30.46 38.1862 30.48 38.0962 30.6C38.0383 30.6761 38.0005 30.7655 37.9862 30.86C37.9862 30.91 37.9362 31.04 37.8862 31.15C37.8262 31.25 37.7862 31.35 37.7962 31.36C37.8062 31.37 37.9662 31.31 38.1462 31.23L38.4662 31.07V31.21C38.4662 31.29 38.5062 31.49 38.5562 31.66L38.6462 31.96L38.8662 31.86C39.0862 31.76 39.2962 31.4 39.2962 31.11C39.2962 30.97 39.3762 30.99 39.4162 31.14C39.4162 31.18 39.4762 31.35 39.5162 31.51L39.6162 31.79L39.7662 31.61C39.8562 31.51 39.9562 31.31 39.9962 31.18C40.0762 30.94 40.1962 30.83 40.1962 31.01C40.1962 31.13 40.5362 31.59 40.5962 31.55C40.6362 31.53 40.6962 31.36 40.7462 31.17C40.8462 30.77 40.9962 30.51 41.0962 30.57C41.1362 30.59 41.1462 30.63 41.1262 30.67C41.1062 30.69 41.1862 30.95 41.3062 31.23C41.3932 31.4399 41.4798 31.6499 41.5662 31.86C41.6062 31.96 41.6462 31.96 41.8962 31.73C42.0462 31.59 42.1962 31.44 42.2062 31.39C42.2362 31.31 42.2662 31.32 42.4062 31.41C42.701 31.5658 43.024 31.661 43.3562 31.69C43.3762 31.67 43.3962 31.49 43.3962 31.29L43.4062 30.92L43.6062 30.96C43.7062 30.99 43.9362 30.99 44.1062 30.96L44.4062 30.92L44.1362 30.72C43.9862 30.62 43.8362 30.49 43.7962 30.43C43.7662 30.37 43.6262 30.31 43.4762 30.3C43.0662 30.26 42.3362 29.86 42.3362 29.66C42.3362 29.62 42.4362 29.69 42.5562 29.8C42.8362 30.05 43.2162 30.2 43.5562 30.2H43.7962L43.6462 30C43.5393 29.8449 43.4708 29.6667 43.4462 29.48C43.4262 29.18 43.3962 29.14 43.0862 28.93C42.9065 28.8026 42.7391 28.6587 42.5862 28.5L42.4162 28.31L42.3262 28.54C42.2762 28.67 42.2262 28.77 42.1962 28.77C42.1762 28.77 42.0762 28.69 41.9962 28.6C41.94 28.5348 41.8721 28.4806 41.7962 28.44C41.7662 28.44 41.6962 28.56 41.6162 28.71L41.4762 28.98L41.3762 28.83C41.2873 28.7074 41.1868 28.5935 41.0762 28.49C40.9562 28.39 40.9062 28.31 40.9462 28.31C40.9862 28.31 41.1162 28.41 41.2462 28.54L41.4662 28.77L41.5662 28.6C41.624 28.4822 41.6415 28.3487 41.6162 28.22C41.5762 28.04 41.5862 28.03 41.6462 28.15C41.7324 28.2629 41.8333 28.3638 41.9462 28.45L42.1662 28.63L42.3162 28.36C42.4662 28.08 42.4662 28.08 42.5262 28.25C42.6262 28.46 43.2762 29 43.8262 29.31C43.9262 29.36 43.8862 29.2 43.7262 28.81C43.6782 28.6819 43.6511 28.5468 43.6462 28.41C43.6462 28.23 43.5962 28.15 43.3662 27.97C43.2232 27.8786 43.1036 27.755 43.0168 27.6092C42.93 27.4634 42.8784 27.2993 42.8662 27.13C42.8362 26.96 42.7762 26.78 42.7262 26.72C42.6662 26.62 42.6462 26.68 42.6662 26.98C42.6862 27.19 42.6562 27.45 42.6062 27.56L42.5262 27.76L42.4662 27.59C42.4262 27.5 42.2662 27.34 42.1162 27.24C41.9662 27.14 41.8562 27.04 41.8762 27.02C41.8962 27 42.0562 27.09 42.2262 27.22C42.4962 27.43 42.5462 27.45 42.5862 27.36C42.6262 27.26 42.5862 26.8 42.5062 26.48C42.4662 26.32 42.4662 26.32 42.6662 26.52C42.8062 26.66 42.8862 26.84 42.9562 27.14C43.0362 27.52 43.0762 27.59 43.4262 27.9C43.6362 28.09 43.8262 28.23 43.8362 28.22C43.8562 28.2 43.8762 27.72 43.8962 27.14C43.9362 26.03 43.8962 25.76 43.6262 25.42L43.4862 25.24L43.7062 25.01C43.9527 24.7743 44.1173 24.4659 44.1762 24.13L44.2162 23.86L43.9762 24.09C43.7762 24.28 43.6762 24.32 43.4462 24.32C43.2162 24.32 43.1262 24.28 42.9762 24.12C42.7426 23.8951 42.4577 23.7303 42.1462 23.64C42.0262 23.6 41.9862 23.62 41.9862 23.7C41.9862 23.76 41.9262 23.92 41.8462 24.07L41.7062 24.33L41.4062 24.03C41.2162 23.86 41.0062 23.71 40.8362 23.67C40.4262 23.57 40.4062 23.57 40.4062 23.88C40.4062 24.35 40.2062 24.44 39.8462 24.13C39.5662 23.89 39.3462 23.83 38.8162 23.9L38.4162 23.94L38.4862 24.12C38.5462 24.27 38.5362 24.34 38.4062 24.51C38.1962 24.79 37.9262 24.91 37.5062 24.91C37.3062 24.91 37.0662 24.95 36.9662 25C36.8662 25.05 36.6062 25.1 36.3962 25.12C36.1962 25.14 35.9662 25.18 35.8962 25.2C35.7962 25.24 35.7962 25.2 35.8262 24.98C35.8762 24.64 35.6262 24.38 35.2562 24.38C34.7662 24.38 34.5462 24.82 34.7362 25.4C34.7751 25.5252 34.8085 25.6519 34.8362 25.78C34.9675 26.0301 35.1438 26.2538 35.3562 26.44C35.6162 26.7 35.8562 26.97 35.8962 27.04C35.9767 27.1443 36.0791 27.2296 36.1962 27.29L36.4162 27.41L36.3862 27.17C36.3562 26.91 36.4062 26.87 36.5462 27.06C36.5962 27.12 36.7262 27.23 36.8262 27.29C36.9962 27.39 37.0262 27.39 37.0262 27.31C37.0262 27.25 37.0562 27.12 37.0962 27.02L37.1662 26.84L37.2962 27.09C37.3662 27.23 37.5962 27.54 37.8062 27.79C38.2162 28.26 38.4762 28.79 38.3462 28.91C38.2862 28.96 38.1462 28.96 37.8462 28.9C37.6262 28.86 37.3462 28.83 37.2262 28.85C36.9962 28.88 36.9762 28.85 37.1262 28.67C37.2762 28.47 37.2462 28.44 36.9462 28.44C36.5962 28.44 35.7262 28.27 35.3862 28.14C35.0662 28.01 34.9862 28.04 34.8862 28.35L34.7162 28.91L34.6162 29.21L34.9762 29.18C35.1618 29.1606 35.3457 29.1272 35.5262 29.08C35.597 29.0564 35.6716 29.0462 35.7462 29.05C35.7662 29.06 35.7162 29.18 35.6462 29.32L35.5062 29.56L35.7262 29.52C35.8462 29.49 36.0262 29.43 36.1262 29.38C36.3062 29.3 36.3262 29.3 36.4662 29.53C36.6362 29.8 36.7662 29.79 36.7962 29.5C36.8262 29.2 36.9262 29.24 37.1162 29.64C37.2962 30.02 37.4762 30.16 37.5162 29.94C37.5262 29.86 37.6162 29.74 37.7262 29.66C37.9462 29.51 38.1062 29.56 38.1962 29.79C38.2962 30.04 38.0762 30.29 37.4562 30.67C36.882 30.987 36.388 31.4312 36.0119 31.9685C35.6358 32.5058 35.3875 33.122 35.2862 33.77C35.0962 34.95 35.6862 36.17 36.8462 37.06C37.4062 37.48 38.2962 37.92 38.2362 37.76C37.9962 37.03 38.0062 35.66 38.2462 35.43C38.2862 35.39 38.2762 35.53 38.2162 35.74C38.0162 36.53 38.1162 37.15 38.6162 38.61C39.0562 39.93 38.9962 40.5 38.3562 40.87C38.1562 40.99 38.0262 41.01 37.4762 41C36.8762 41 36.8062 41 36.6162 41.16C36.3865 41.3947 36.2361 41.6954 36.1862 42.02C36.1862 42.15 36.3262 42.13 36.5862 41.98H36.5962Z" fill="#FFB700" stroke="black" stroke-width="0.56"/>
<path id="Vector_9" d="M46.2959 41.95L46.5459 41.79L46.7159 41.95C46.9359 42.16 47.2059 42.15 47.4159 41.94C47.5159 41.84 47.5959 41.78 47.6059 41.79L47.6959 41.95C47.7459 42.04 47.8559 42.08 48.0559 42.1C48.2859 42.11 48.3559 42.1 48.4559 41.96L48.5559 41.79L48.8059 41.95C49.4859 42.39 49.8459 41.93 49.5359 41.02C49.3859 40.56 49.4759 40.3 49.9659 39.72C50.1759 39.47 50.3459 39.2 50.3459 39.12C50.3459 39.01 50.3059 38.99 50.0259 39C49.7659 39 49.6859 38.97 49.5459 38.82C49.3159 38.57 49.3359 38.28 49.5859 37.96L49.7859 37.71L49.4259 37.47C49.1385 37.2578 48.8708 37.0201 48.6259 36.76C48.4076 36.5024 48.1407 36.2903 47.8405 36.1359C47.5402 35.9814 47.2124 35.8877 46.8759 35.86L46.4059 35.81V36.17C46.4059 36.62 46.6259 37.06 47.2059 37.8C47.8659 38.64 47.9059 38.77 47.9359 39.87L47.9659 40.8L47.7659 40.98C47.5959 41.14 47.5259 41.17 46.9659 41.2C46.4359 41.23 46.3159 41.26 46.1659 41.4C45.9904 41.528 45.8691 41.7171 45.8259 41.93C45.7959 42.08 45.8059 42.11 45.9159 42.11C45.9859 42.11 46.1559 42.04 46.2959 41.95V41.95ZM32.0759 39.55C32.1364 39.4612 32.171 39.3573 32.1759 39.25C32.1759 39.15 32.2359 39.11 32.4959 39.07L32.8059 39.03L32.6059 38.86C32.3559 38.66 32.3259 38.51 32.5459 38.51C32.7659 38.51 33.1259 38.29 33.1859 38.12C33.2159 38.04 33.1859 37.94 33.1459 37.89C33.0259 37.75 32.7959 37.77 32.7559 37.93C32.7059 38.09 32.6359 38.09 32.4559 37.93C32.2059 37.68 32.1959 37.17 32.4559 36.87C32.5659 36.73 32.5659 36.73 32.4159 36.58C32.2559 36.42 32.1359 36.12 32.2159 36.04C32.2359 36.02 32.3659 36.04 32.4959 36.09C32.6959 36.15 32.7659 36.15 32.8459 36.09C33.0759 35.9 32.8259 35.66 32.4459 35.72C32.2859 35.74 32.2259 35.72 32.2059 35.64C32.1859 35.58 32.0559 35.5 31.9059 35.46C31.6359 35.39 31.6359 35.39 31.6359 35.58C31.6359 35.78 31.5159 35.82 31.2959 35.69C31.1159 35.59 30.9459 35.67 30.9459 35.86C30.9459 36.04 31.1159 36.12 31.4459 36.1C31.6859 36.09 31.6959 36.27 31.4659 36.53L31.2959 36.73L31.4259 36.92C31.6259 37.2 31.6059 37.67 31.3959 37.91L31.2259 38.09L31.1159 37.94C30.9559 37.74 30.7459 37.75 30.6859 37.97C30.6559 38.11 30.6859 38.17 30.8659 38.33C30.9859 38.43 31.1659 38.51 31.2559 38.51C31.4859 38.51 31.4759 38.7 31.2359 38.88L31.0359 39.03L31.3359 39.07C31.4959 39.1 31.6359 39.14 31.6359 39.17C31.6359 39.3 31.8359 39.69 31.8959 39.69C31.9359 39.69 32.0159 39.62 32.0759 39.54V39.55Z" fill="#FFB700" stroke="black" stroke-width="0.56"/>
<path id="Vector_10" d="M35.8958 37.89C36.1658 37.79 36.7458 37.29 36.7458 37.18C36.7458 37.14 36.5858 36.96 36.3858 36.78C35.9858 36.42 35.5358 35.79 35.4158 35.43C35.3558 35.23 35.0658 34.91 34.2458 34.11L33.1558 33.06L32.8458 33.14C32.6658 33.18 32.4558 33.22 32.3758 33.22C32.2258 33.22 32.2258 33.22 32.4258 33.38L32.6258 33.54L32.9258 33.38C33.1958 33.22 33.2058 33.22 33.2358 33.35C33.2558 33.42 33.2158 33.55 33.1358 33.64C33.0658 33.73 33.0258 33.84 33.0358 33.87C33.0658 33.9 32.9958 33.97 32.8858 34.03C32.6858 34.13 32.5358 34.46 32.6958 34.46C32.8458 34.46 33.1658 34.06 33.1258 33.93C33.1058 33.86 33.1258 33.79 33.1458 33.77C33.2758 33.7 33.2658 34.01 33.1458 34.17C33.0658 34.25 33.0258 34.35 33.0458 34.39C33.0658 34.42 32.9958 34.49 32.8858 34.55C32.6858 34.65 32.5358 34.98 32.6958 34.98C32.8558 34.98 33.1658 34.6 33.1358 34.46C33.1158 34.39 33.1158 34.31 33.1458 34.29C33.2358 34.25 33.2758 34.49 33.2058 34.61C33.1874 34.6437 33.1778 34.6816 33.1778 34.72C33.1778 34.7584 33.1874 34.7962 33.2058 34.83C33.2758 34.96 33.2058 35.2 33.0758 35.28C33.0258 35.31 33.0558 35.38 33.1958 35.48C33.3958 35.62 33.3958 35.64 33.3958 36.28C33.3958 36.82 33.4158 36.96 33.5158 37.05C33.6158 37.15 33.6358 37.15 33.6358 37.05C33.6358 36.95 33.8358 36.81 33.9858 36.81C34.0358 36.81 34.3258 37.06 34.6358 37.36C34.9458 37.66 35.2758 37.93 35.3658 37.94L35.5858 37.98C35.6158 37.98 35.7558 37.95 35.8958 37.88V37.89ZM32.5658 35.28C32.5658 35.11 32.2058 34.92 31.7758 34.88C31.4258 34.83 31.4258 34.84 31.4258 35.01C31.4258 35.15 31.4758 35.21 31.7258 35.31C32.1058 35.48 32.5658 35.46 32.5658 35.28Z" fill="#FFB700" stroke="black" stroke-width="0.56"/>
<path id="Vector_11" d="M32.956 35.26C33.136 35.1 33.216 34.92 33.106 34.92C32.986 34.92 32.666 35.2 32.666 35.32C32.666 35.48 32.726 35.47 32.966 35.26H32.956ZM32.586 34.75C32.596 34.65 32.536 34.59 32.356 34.5C31.956 34.33 31.496 34.24 31.386 34.33C31.176 34.5 31.316 34.72 31.646 34.76C31.786 34.77 31.966 34.81 32.056 34.85C32.316 34.95 32.556 34.9 32.586 34.75V34.75ZM32.586 34.22C32.606 34.09 32.516 34.04 31.786 33.78C31.236 33.58 30.996 33.68 31.176 34.01C31.236 34.12 31.336 34.17 31.566 34.21C31.736 34.23 31.966 34.28 32.076 34.32C32.376 34.42 32.556 34.38 32.576 34.22H32.586ZM32.946 33.73C33.056 33.62 33.146 33.49 33.146 33.43C33.146 33.28 32.716 33.56 32.656 33.76C32.596 33.99 32.706 33.98 32.956 33.73H32.946ZM32.586 33.7C32.606 33.54 32.346 33.4 31.826 33.29C31.436 33.2 31.266 33.25 31.296 33.43C31.316 33.53 31.446 33.6 31.796 33.71C32.386 33.89 32.556 33.89 32.586 33.7V33.7ZM33.086 32.96C33.766 32.66 33.816 31.91 33.186 31.71C32.926 31.63 32.766 31.68 32.666 31.85C32.586 31.99 32.636 32.23 32.736 32.23C32.776 32.23 32.806 32.28 32.806 32.33C32.806 32.6 31.786 32.71 31.366 32.5C31.216 32.43 31.166 32.23 31.276 32.23C31.376 32.23 31.436 32.03 31.386 31.9C31.326 31.7 31.126 31.64 30.856 31.72C30.226 31.88 30.246 32.62 30.886 32.92C31.594 33.1799 32.3689 33.194 33.086 32.96V32.96Z" fill="#FFB700" stroke="black" stroke-width="0.56"/>
<path id="Vector_12" d="M32.6761 32.38C32.7161 32.34 32.6961 32.28 32.6361 32.24C32.4961 32.13 32.5061 31.96 32.6561 31.77C32.7761 31.63 32.7861 31.41 32.8261 29.26C32.8961 25.55 33.1761 22.76 33.5361 22.08C33.6861 21.82 33.6661 21.82 33.2861 22.08C32.7876 22.4273 32.3851 22.8952 32.1161 23.44C31.4961 24.59 31.2861 26.14 31.2861 29.46C31.2861 31.34 31.2961 31.59 31.4061 31.76C31.5061 31.94 31.5061 32 31.4461 32.18C31.3961 32.29 31.3761 32.41 31.3961 32.43C31.5361 32.56 32.5361 32.53 32.6761 32.38ZM38.2861 28.84C38.3161 28.81 38.2661 28.64 38.1861 28.48C38.0661 28.22 38.0161 28.18 37.8461 28.18C37.0465 28.1105 36.2667 27.8935 35.5461 27.54C35.0361 27.31 34.8461 27.26 34.7961 27.32C34.6361 27.47 34.8961 27.82 35.2961 28.01C35.8848 28.2221 36.5013 28.3468 37.1261 28.38C37.3961 28.38 37.4061 28.38 37.2461 28.61L37.1461 28.77H37.4461L37.9461 28.83C38.2461 28.9 38.2461 28.9 38.2861 28.84V28.84Z" fill="#FFB700" stroke="black" stroke-width="0.56"/>
<path id="Vector_13" d="M41.4463 30.51C41.4463 30.41 41.1563 30.16 40.8763 29.99C40.6463 29.86 40.6063 29.85 40.6063 29.96C40.6063 30.12 40.4663 30.53 40.4063 30.53C40.3763 30.53 40.3263 30.45 40.3063 30.36C40.2763 30.26 40.1663 30.06 40.0563 29.93L39.8563 29.68L39.7163 29.91C39.5763 30.13 39.3263 30.34 39.2163 30.34C39.1963 30.34 39.1863 30.22 39.2163 30.09C39.2263 29.93 39.2163 29.81 39.1663 29.79C39.1263 29.76 39.0863 29.77 39.0863 29.81C39.0863 29.89 38.7463 30.27 38.6863 30.27C38.6463 30.27 38.6063 30.17 38.5863 30.03L38.5063 29.55C38.4863 29.43 38.5363 29.51 38.6063 29.75L38.7663 30.16L38.9263 29.91C38.9987 29.8067 39.0528 29.6917 39.0863 29.57C39.0863 29.52 39.1163 29.5 39.1563 29.52C39.1963 29.54 39.2463 29.71 39.2663 29.89L39.3163 30.23L39.4963 30.03C39.5905 29.9297 39.6773 29.8228 39.7563 29.71C39.8263 29.59 39.8363 29.59 39.9863 29.71C40.0663 29.79 40.1963 29.96 40.2763 30.1C40.3563 30.24 40.4263 30.34 40.4363 30.33L40.4963 30.01L40.5363 29.71C40.5463 29.66 41.0763 30.01 41.2763 30.18C41.3963 30.29 41.5163 30.37 41.5363 30.35C41.5563 30.33 41.5763 30.17 41.5763 29.98C41.5763 29.7 41.5463 29.62 41.3763 29.47C41.1763 29.29 41.1763 29.29 41.0963 29.42C40.9963 29.59 40.8863 29.59 40.8863 29.42C40.8863 29.3 40.5063 28.83 40.4163 28.83C40.3863 28.83 40.3063 28.93 40.2363 29.06C40.1663 29.19 40.0863 29.29 40.0663 29.29C39.9663 29.29 39.4363 28.69 39.4363 28.59C39.4363 28.51 39.4763 28.53 39.5663 28.67C39.6556 28.8014 39.7596 28.9221 39.8763 29.03C40.0763 29.21 40.1563 29.17 40.2363 28.82C40.2663 28.72 40.3063 28.64 40.3363 28.64C40.4163 28.64 40.8763 29.13 40.9363 29.29L41.0063 29.45L41.0563 29.27C41.1163 29.05 41.1863 29.05 41.2863 29.25C41.3263 29.33 41.5263 29.51 41.7263 29.63L42.0963 29.87L42.1663 29.63C42.2063 29.5 42.2663 29.43 42.2863 29.47C42.3263 29.52 42.2263 29.92 42.1563 30C42.1563 30.01 42.0263 29.94 41.8963 29.85L41.6463 29.67V29.99C41.6463 30.16 41.6263 30.37 41.6063 30.45C41.5563 30.61 41.4363 30.65 41.4363 30.51H41.4463ZM39.5963 27.97C39.1563 27.61 39.0963 27.53 39.0963 27.35L39.1063 27.17L39.1363 27.34C39.1563 27.44 39.2763 27.6 39.4163 27.72L39.6763 27.92L39.8263 27.74C39.9163 27.64 39.9863 27.52 39.9863 27.48C39.9863 27.36 40.0063 27.37 40.3063 27.63C40.5663 27.86 40.5763 27.86 40.6063 27.71C40.6363 27.63 40.6263 27.47 40.6063 27.36C40.5063 27.06 40.5263 27.02 40.6563 27.2L40.8963 27.48C40.9963 27.59 41.0063 27.59 41.0463 27.45C41.0763 27.36 41.0963 27.21 41.0963 27.11V26.92L41.3263 27.19C41.5563 27.45 41.5763 27.46 41.6363 27.33C41.6863 27.26 41.7163 27.09 41.7163 26.96C41.7163 26.78 41.7363 26.74 41.7763 26.8C41.8563 26.92 41.8063 27.22 41.6663 27.48L41.5663 27.68L41.4363 27.47C41.2663 27.21 41.2063 27.21 41.1063 27.49C41.0063 27.76 40.9363 27.78 40.8363 27.57C40.7763 27.44 40.7563 27.46 40.7163 27.74L40.6663 28.04L40.3663 27.81L40.0663 27.58L39.9163 27.73C39.8463 27.82 39.7863 27.93 39.7863 27.97C39.7863 28.07 39.7063 28.07 39.5963 27.97V27.97ZM43.4963 26.61C43.3463 26.47 43.2363 26.33 43.2563 26.31C43.2863 26.28 43.3063 26.27 43.3163 26.29C43.4131 26.3932 43.5131 26.4932 43.6163 26.59C43.9563 26.95 43.8863 26.96 43.5063 26.61H43.4963ZM38.2963 26.07C38.1563 25.87 38.1663 25.75 38.3463 25.53C38.4663 25.38 38.5263 25.36 38.7463 25.39C38.8963 25.4 39.2063 25.53 39.4363 25.67C39.7686 25.8686 40.1491 25.9723 40.5363 25.97L40.3663 25.69C40.1463 25.36 40.1463 25.32 40.4063 25.52C40.6663 25.73 40.9763 25.79 41.6763 25.77L42.0163 25.76L41.8163 25.56C41.5463 25.29 41.6263 25.26 41.9363 25.53C42.2163 25.78 42.2063 25.8 41.5963 25.86C41.3419 25.8857 41.085 25.8688 40.8363 25.81C40.4963 25.71 40.4763 25.72 40.5463 25.83C40.5863 25.9 40.6463 25.95 40.6763 25.95C40.7163 25.95 40.7463 25.99 40.7463 26.03C40.7463 26.16 40.0063 26.04 39.6463 25.87C38.8463 25.46 38.7463 25.42 38.5463 25.48C38.493 25.5005 38.4443 25.5314 38.4031 25.5709C38.3619 25.6104 38.329 25.6577 38.3063 25.71C38.1763 26.04 38.6463 26.3 38.8363 26.01C38.8963 25.92 38.8863 25.87 38.7863 25.76C38.6463 25.62 38.6663 25.6 38.8463 25.66C38.9763 25.71 38.9863 26.02 38.8663 26.14C38.7363 26.27 38.4163 26.24 38.2963 26.07Z" fill="black" stroke="black" stroke-width="0.56"/>
<path id="Vector_14" d="M41.4856 25.26C41.3856 25.16 41.4656 25.14 41.9156 25.13C42.4756 25.12 42.8156 25.03 43.2156 24.77C43.5356 24.57 43.6256 24.61 43.3156 24.82C43.0456 25.02 42.6156 25.16 42.1856 25.2L41.6756 25.27C41.5956 25.29 41.5056 25.28 41.4756 25.26H41.4856Z" fill="black" stroke="black" stroke-width="0.56"/>
</g>
<g id="b">
<path id="Vector_15" d="M36.5962 41.98L36.8262 41.84L36.9262 41.98C37.0562 42.16 37.4262 42.15 37.6662 41.98L37.8562 41.83L38.0162 41.97C38.2162 42.16 38.5962 42.16 38.8462 41.97C39.0162 41.85 39.0462 41.84 39.1462 41.94C39.2162 42 39.4162 42.06 39.5862 42.09C39.9062 42.13 39.9062 42.13 40.0862 41.85C40.2462 41.62 40.2662 41.53 40.2362 41.3C40.2083 41.1243 40.1883 40.9475 40.1762 40.77C40.1562 40.51 40.1662 40.51 40.5362 40.37C40.7199 40.3137 40.9002 40.2469 41.0762 40.17C41.2262 40.08 41.6462 39.59 41.6462 39.49C41.6462 39.47 41.4862 39.43 41.2862 39.41C40.4862 39.31 40.3562 38.89 40.8762 38.11C41.7062 36.81 42.2162 35.56 42.2162 34.77C42.2162 34.41 42.2462 34.29 42.2862 34.37C42.4762 34.68 42.1362 36.01 41.6362 36.97L41.4362 37.35L41.6262 37.31C41.7262 37.28 42.3662 37.01 43.0262 36.71C44.8462 35.89 45.4662 35.73 46.6462 35.78C47.6362 35.82 48.0462 36.01 48.7462 36.74C49.1162 37.14 49.4762 37.41 50.1262 37.82C51.5062 38.68 51.5662 38.76 51.6362 39.78C51.7062 40.81 51.6662 40.87 50.8862 41.04C50.2162 41.19 49.7962 41.5 49.6862 41.94C49.6262 42.16 49.7562 42.17 50.0862 41.95L50.3362 41.79L50.4462 41.95C50.5962 42.16 50.8962 42.16 51.1462 41.95L51.3462 41.8L51.5462 41.95C51.8462 42.2 52.2462 42.14 52.3662 41.83C52.3862 41.78 52.4462 41.79 52.5662 41.9C52.7962 42.1 53.3662 42.18 53.4262 42.02C53.4462 41.96 53.4062 41.82 53.3262 41.7C52.9962 41.2 52.8862 40.97 52.8862 40.7C52.8862 40.32 52.9862 40.13 53.4262 39.83C53.9462 39.45 54.1062 38.97 53.7062 38.97C53.4662 38.97 53.2162 38.75 53.0562 38.4C52.7362 37.68 52.8062 36.88 53.2862 35.54C53.6542 34.7516 53.8389 33.89 53.8262 33.02C53.8262 32.28 53.8062 32.16 53.6462 31.75C53.5211 31.465 53.3669 31.1935 53.1862 30.94L52.9062 30.57L53.2562 30.27C54.3362 29.38 54.1162 27.92 52.8162 27.36C52.4162 27.18 52.3162 27.17 51.6162 27.17C51.2162 27.17 50.5662 27.23 50.2162 27.3C49.7464 27.3744 49.2718 27.4145 48.7962 27.42C48.1162 27.42 47.9962 27.4 47.7362 27.26C47.4662 27.12 47.4162 27.05 47.3662 26.71C47.3614 26.678 47.3489 26.6476 47.3297 26.6214C47.3105 26.5953 47.2853 26.5742 47.2562 26.56C47.1562 26.53 46.7362 26.9 46.6762 27.06C46.6362 27.15 46.6162 27.14 46.5262 27.03C46.4414 26.921 46.3739 26.7996 46.3262 26.67C46.2262 26.34 46.3562 26.1 46.7462 25.91L47.0462 25.77L46.8662 25.66C46.5062 25.43 45.8862 25.59 45.6662 25.96C45.5962 26.06 45.5262 26.16 45.5062 26.16C45.4862 26.16 45.3662 26.06 45.2462 25.93C44.7762 25.47 44.9362 24.79 45.5662 24.59C45.8962 24.48 46.1962 24.56 46.2562 24.79C46.3562 25.12 46.6362 24.68 46.5862 24.27C46.5562 24 46.5562 23.99 46.7462 23.99C47.0062 23.99 47.5462 24.33 47.7262 24.59C47.9262 24.9 47.9062 25.39 47.6862 25.75L47.5162 26.03L47.7462 25.99C48.0662 25.92 48.3862 25.72 48.5462 25.47C48.6305 25.3108 48.6779 25.1346 48.6848 24.9546C48.6918 24.7745 48.658 24.5952 48.5862 24.43C48.4362 24.16 48.4562 24.12 48.6762 24.21C49.0362 24.36 49.2362 24.53 49.3762 24.82C49.5162 25.08 49.5262 25.14 49.4562 25.42C49.4083 25.5905 49.3341 25.7524 49.2362 25.9C49.1162 26.06 49.1062 26.09 49.2062 26.09C49.3862 26.09 49.7462 25.92 49.8762 25.79C49.9462 25.71 50.0462 25.54 50.0962 25.39L50.1962 25.14L50.2962 25.34C50.4462 25.61 50.7462 25.86 51.1062 26.02C51.4962 26.18 51.6562 26.19 51.4562 26.04C51.3162 25.94 51.0562 25.19 51.1462 25.12C51.5778 25.3617 51.9719 25.6649 52.3162 26.02C52.8862 26.53 53.2462 26.7 53.7662 26.7C54.4362 26.7 54.8262 26.12 54.5262 25.57C54.3562 25.25 53.9662 25.2 53.7262 25.47C53.6262 25.6 53.5962 25.7 53.6262 25.84C53.6662 26 53.6562 26.02 53.5062 26.02C53.3062 26.02 52.9262 25.77 52.2462 25.2C51.2997 24.3854 50.2117 23.7516 49.0362 23.33C48.2399 23.146 47.4176 23.102 46.6062 23.2C45.9662 23.32 45.2062 23.69 44.7862 24.08C44.0562 24.78 44.0462 25.71 44.7562 26.56L44.9562 26.8L44.8262 27.02C44.7284 27.1776 44.68 27.3608 44.6871 27.5461C44.6942 27.7315 44.7566 27.9104 44.8662 28.06C44.9662 28.2 45.0662 28.31 45.0962 28.31C45.1162 28.31 45.1362 28.22 45.1462 28.11C45.1662 27.84 45.2862 27.66 45.4862 27.59C45.6662 27.52 45.7862 27.56 46.6062 27.89C47.4762 28.23 48.9062 28.25 50.4262 27.95C51.085 27.7979 51.7706 27.8047 52.4262 27.97C53.1462 28.27 53.3062 29.04 52.7862 29.62C52.5562 29.88 52.3462 29.98 51.6162 30.18C50.9806 30.3476 50.3199 30.3984 49.6662 30.33C48.5862 30.32 48.1962 30.34 47.7662 30.43C47.2762 30.53 46.9862 30.54 45.5862 30.51L43.9562 30.47L44.1362 30.61C44.2326 30.6956 44.3363 30.7726 44.4462 30.84C44.5762 30.91 44.5662 30.92 44.3862 30.99C44.2862 31.03 44.0462 31.06 43.8562 31.06H43.5262L43.4862 31.34C43.4593 31.472 43.4593 31.608 43.4862 31.74C43.5262 31.84 43.5062 31.86 43.4062 31.82C43.3362 31.79 43.1462 31.74 42.9762 31.71C42.8047 31.6732 42.6372 31.6196 42.4762 31.55C42.2862 31.45 42.2662 31.45 42.1962 31.58C42.1362 31.68 41.5762 32.1 41.4962 32.1C41.4601 31.8406 41.3859 31.5879 41.2762 31.35C41.1762 31.14 41.0862 30.9 41.0562 30.83C41.0262 30.72 41.0062 30.71 40.9562 30.8C40.9262 30.85 40.8862 31 40.8562 31.12C40.8212 31.282 40.7604 31.4373 40.6762 31.58L40.5262 31.8L40.4262 31.61C40.3262 31.41 40.1662 31.19 40.1062 31.19C40.0862 31.19 40.0562 31.25 40.0362 31.34C39.9862 31.5 39.5962 31.97 39.4962 31.97C39.4662 31.97 39.4362 31.84 39.4362 31.67C39.4362 31.52 39.4062 31.38 39.3662 31.38C39.3262 31.38 39.2962 31.43 39.2962 31.48C39.2962 31.6 38.9662 31.98 38.8462 31.98C38.8062 31.98 38.7262 32.02 38.6762 32.08C38.5562 32.21 38.4562 32.19 38.5062 32.04C38.5202 31.9119 38.5066 31.7824 38.4662 31.66L38.3662 31.34C38.3462 31.29 38.2262 31.31 37.9662 31.39C37.5662 31.52 37.4262 31.49 37.6362 31.33C37.7162 31.27 37.8362 31.06 37.8962 30.87C37.9662 30.67 38.0662 30.5 38.1162 30.48C38.1862 30.46 38.1862 30.48 38.0962 30.6C38.0383 30.6761 38.0005 30.7655 37.9862 30.86C37.9862 30.91 37.9362 31.04 37.8862 31.15C37.8262 31.25 37.7862 31.35 37.7962 31.36C37.8062 31.37 37.9662 31.31 38.1462 31.23L38.4662 31.07V31.21C38.4662 31.29 38.5062 31.49 38.5562 31.66L38.6462 31.96L38.8662 31.86C39.0862 31.76 39.2962 31.4 39.2962 31.11C39.2962 30.97 39.3762 30.99 39.4162 31.14C39.4162 31.18 39.4762 31.35 39.5162 31.51L39.6162 31.79L39.7662 31.61C39.8562 31.51 39.9562 31.31 39.9962 31.18C40.0762 30.94 40.1962 30.83 40.1962 31.01C40.1962 31.13 40.5362 31.59 40.5962 31.55C40.6362 31.53 40.6962 31.36 40.7462 31.17C40.8462 30.77 40.9962 30.51 41.0962 30.57C41.1362 30.59 41.1462 30.63 41.1262 30.67C41.1062 30.69 41.1862 30.95 41.3062 31.23C41.3932 31.4399 41.4798 31.6499 41.5662 31.86C41.6062 31.96 41.6462 31.96 41.8962 31.73C42.0462 31.59 42.1962 31.44 42.2062 31.39C42.2362 31.31 42.2662 31.32 42.4062 31.41C42.701 31.5658 43.024 31.661 43.3562 31.69C43.3762 31.67 43.3962 31.49 43.3962 31.29L43.4062 30.92L43.6062 30.96C43.7062 30.99 43.9362 30.99 44.1062 30.96L44.4062 30.92L44.1362 30.72C43.9862 30.62 43.8362 30.49 43.7962 30.43C43.7662 30.37 43.6262 30.31 43.4762 30.3C43.0662 30.26 42.3362 29.86 42.3362 29.66C42.3362 29.62 42.4362 29.69 42.5562 29.8C42.8362 30.05 43.2162 30.2 43.5562 30.2H43.7962L43.6462 30C43.5393 29.8449 43.4708 29.6667 43.4462 29.48C43.4262 29.18 43.3962 29.14 43.0862 28.93C42.9065 28.8026 42.7391 28.6587 42.5862 28.5L42.4162 28.31L42.3262 28.54C42.2762 28.67 42.2262 28.77 42.1962 28.77C42.1762 28.77 42.0762 28.69 41.9962 28.6C41.94 28.5348 41.8721 28.4806 41.7962 28.44C41.7662 28.44 41.6962 28.56 41.6162 28.71L41.4762 28.98L41.3762 28.83C41.2873 28.7074 41.1868 28.5935 41.0762 28.49C40.9562 28.39 40.9062 28.31 40.9462 28.31C40.9862 28.31 41.1162 28.41 41.2462 28.54L41.4662 28.77L41.5662 28.6C41.624 28.4822 41.6415 28.3487 41.6162 28.22C41.5762 28.04 41.5862 28.03 41.6462 28.15C41.7324 28.2629 41.8333 28.3638 41.9462 28.45L42.1662 28.63L42.3162 28.36C42.4662 28.08 42.4662 28.08 42.5262 28.25C42.6262 28.46 43.2762 29 43.8262 29.31C43.9262 29.36 43.8862 29.2 43.7262 28.81C43.6782 28.6819 43.6511 28.5468 43.6462 28.41C43.6462 28.23 43.5962 28.15 43.3662 27.97C43.2232 27.8786 43.1036 27.755 43.0168 27.6092C42.93 27.4634 42.8784 27.2993 42.8662 27.13C42.8362 26.96 42.7762 26.78 42.7262 26.72C42.6662 26.62 42.6462 26.68 42.6662 26.98C42.6862 27.19 42.6562 27.45 42.6062 27.56L42.5262 27.76L42.4662 27.59C42.4262 27.5 42.2662 27.34 42.1162 27.24C41.9662 27.14 41.8562 27.04 41.8762 27.02C41.8962 27 42.0562 27.09 42.2262 27.22C42.4962 27.43 42.5462 27.45 42.5862 27.36C42.6262 27.26 42.5862 26.8 42.5062 26.48C42.4662 26.32 42.4662 26.32 42.6662 26.52C42.8062 26.66 42.8862 26.84 42.9562 27.14C43.0362 27.52 43.0762 27.59 43.4262 27.9C43.6362 28.09 43.8262 28.23 43.8362 28.22C43.8562 28.2 43.8762 27.72 43.8962 27.14C43.9362 26.03 43.8962 25.76 43.6262 25.42L43.4862 25.24L43.7062 25.01C43.9527 24.7743 44.1173 24.4659 44.1762 24.13L44.2162 23.86L43.9762 24.09C43.7762 24.28 43.6762 24.32 43.4462 24.32C43.2162 24.32 43.1262 24.28 42.9762 24.12C42.7426 23.8951 42.4577 23.7303 42.1462 23.64C42.0262 23.6 41.9862 23.62 41.9862 23.7C41.9862 23.76 41.9262 23.92 41.8462 24.07L41.7062 24.33L41.4062 24.03C41.2162 23.86 41.0062 23.71 40.8362 23.67C40.4262 23.57 40.4062 23.57 40.4062 23.88C40.4062 24.35 40.2062 24.44 39.8462 24.13C39.5662 23.89 39.3462 23.83 38.8162 23.9L38.4162 23.94L38.4862 24.12C38.5462 24.27 38.5362 24.34 38.4062 24.51C38.1962 24.79 37.9262 24.91 37.5062 24.91C37.3062 24.91 37.0662 24.95 36.9662 25C36.8662 25.05 36.6062 25.1 36.3962 25.12C36.1962 25.14 35.9662 25.18 35.8962 25.2C35.7962 25.24 35.7962 25.2 35.8262 24.98C35.8762 24.64 35.6262 24.38 35.2562 24.38C34.7662 24.38 34.5462 24.82 34.7362 25.4C34.7751 25.5252 34.8085 25.6519 34.8362 25.78C34.9675 26.0301 35.1438 26.2538 35.3562 26.44C35.6162 26.7 35.8562 26.97 35.8962 27.04C35.9767 27.1443 36.0791 27.2296 36.1962 27.29L36.4162 27.41L36.3862 27.17C36.3562 26.91 36.4062 26.87 36.5462 27.06C36.5962 27.12 36.7262 27.23 36.8262 27.29C36.9962 27.39 37.0262 27.39 37.0262 27.31C37.0262 27.25 37.0562 27.12 37.0962 27.02L37.1662 26.84L37.2962 27.09C37.3662 27.23 37.5962 27.54 37.8062 27.79C38.2162 28.26 38.4762 28.79 38.3462 28.91C38.2862 28.96 38.1462 28.96 37.8462 28.9C37.6262 28.86 37.3462 28.83 37.2262 28.85C36.9962 28.88 36.9762 28.85 37.1262 28.67C37.2762 28.47 37.2462 28.44 36.9462 28.44C36.5962 28.44 35.7262 28.27 35.3862 28.14C35.0662 28.01 34.9862 28.04 34.8862 28.35L34.7162 28.91L34.6162 29.21L34.9762 29.18C35.1618 29.1606 35.3457 29.1272 35.5262 29.08C35.597 29.0564 35.6716 29.0462 35.7462 29.05C35.7662 29.06 35.7162 29.18 35.6462 29.32L35.5062 29.56L35.7262 29.52C35.8462 29.49 36.0262 29.43 36.1262 29.38C36.3062 29.3 36.3262 29.3 36.4662 29.53C36.6362 29.8 36.7662 29.79 36.7962 29.5C36.8262 29.2 36.9262 29.24 37.1162 29.64C37.2962 30.02 37.4762 30.16 37.5162 29.94C37.5262 29.86 37.6162 29.74 37.7262 29.66C37.9462 29.51 38.1062 29.56 38.1962 29.79C38.2962 30.04 38.0762 30.29 37.4562 30.67C36.882 30.987 36.388 31.4312 36.0119 31.9685C35.6358 32.5058 35.3875 33.122 35.2862 33.77C35.0962 34.95 35.6862 36.17 36.8462 37.06C37.4062 37.48 38.2962 37.92 38.2362 37.76C37.9962 37.03 38.0062 35.66 38.2462 35.43C38.2862 35.39 38.2762 35.53 38.2162 35.74C38.0162 36.53 38.1162 37.15 38.6162 38.61C39.0562 39.93 38.9962 40.5 38.3562 40.87C38.1562 40.99 38.0262 41.01 37.4762 41C36.8762 41 36.8062 41 36.6162 41.16C36.3865 41.3947 36.2361 41.6954 36.1862 42.02C36.1862 42.15 36.3262 42.13 36.5862 41.98H36.5962Z" fill="#FFB700"/>
<path id="Vector_16" d="M46.2959 41.95L46.5459 41.79L46.7159 41.95C46.9359 42.16 47.2059 42.15 47.4159 41.94C47.5159 41.84 47.5959 41.78 47.6059 41.79L47.6959 41.95C47.7459 42.04 47.8559 42.08 48.0559 42.1C48.2859 42.11 48.3559 42.1 48.4559 41.96L48.5559 41.79L48.8059 41.95C49.4859 42.39 49.8459 41.93 49.5359 41.02C49.3859 40.56 49.4759 40.3 49.9659 39.72C50.1759 39.47 50.3459 39.2 50.3459 39.12C50.3459 39.01 50.3059 38.99 50.0259 39C49.7659 39 49.6859 38.97 49.5459 38.82C49.3159 38.57 49.3359 38.28 49.5859 37.96L49.7859 37.71L49.4259 37.47C49.1385 37.2578 48.8708 37.0201 48.6259 36.76C48.4076 36.5024 48.1407 36.2903 47.8405 36.1359C47.5402 35.9814 47.2124 35.8877 46.8759 35.86L46.4059 35.81V36.17C46.4059 36.62 46.6259 37.06 47.2059 37.8C47.8659 38.64 47.9059 38.77 47.9359 39.87L47.9659 40.8L47.7659 40.98C47.5959 41.14 47.5259 41.17 46.9659 41.2C46.4359 41.23 46.3159 41.26 46.1659 41.4C45.9904 41.528 45.8691 41.7171 45.8259 41.93C45.7959 42.08 45.8059 42.11 45.9159 42.11C45.9859 42.11 46.1559 42.04 46.2959 41.95V41.95ZM32.0759 39.55C32.1364 39.4612 32.171 39.3573 32.1759 39.25C32.1759 39.15 32.2359 39.11 32.4959 39.07L32.8059 39.03L32.6059 38.86C32.3559 38.66 32.3259 38.51 32.5459 38.51C32.7659 38.51 33.1259 38.29 33.1859 38.12C33.2159 38.04 33.1859 37.94 33.1459 37.89C33.0259 37.75 32.7959 37.77 32.7559 37.93C32.7059 38.09 32.6359 38.09 32.4559 37.93C32.2059 37.68 32.1959 37.17 32.4559 36.87C32.5659 36.73 32.5659 36.73 32.4159 36.58C32.2559 36.42 32.1359 36.12 32.2159 36.04C32.2359 36.02 32.3659 36.04 32.4959 36.09C32.6959 36.15 32.7659 36.15 32.8459 36.09C33.0759 35.9 32.8259 35.66 32.4459 35.72C32.2859 35.74 32.2259 35.72 32.2059 35.64C32.1859 35.58 32.0559 35.5 31.9059 35.46C31.6359 35.39 31.6359 35.39 31.6359 35.58C31.6359 35.78 31.5159 35.82 31.2959 35.69C31.1159 35.59 30.9459 35.67 30.9459 35.86C30.9459 36.04 31.1159 36.12 31.4459 36.1C31.6859 36.09 31.6959 36.27 31.4659 36.53L31.2959 36.73L31.4259 36.92C31.6259 37.2 31.6059 37.67 31.3959 37.91L31.2259 38.09L31.1159 37.94C30.9559 37.74 30.7459 37.75 30.6859 37.97C30.6559 38.11 30.6859 38.17 30.8659 38.33C30.9859 38.43 31.1659 38.51 31.2559 38.51C31.4859 38.51 31.4759 38.7 31.2359 38.88L31.0359 39.03L31.3359 39.07C31.4959 39.1 31.6359 39.14 31.6359 39.17C31.6359 39.3 31.8359 39.69 31.8959 39.69C31.9359 39.69 32.0159 39.62 32.0759 39.54V39.55Z" fill="#FFB700"/>
<path id="Vector_17" d="M35.8958 37.89C36.1658 37.79 36.7458 37.29 36.7458 37.18C36.7458 37.14 36.5858 36.96 36.3858 36.78C35.9858 36.42 35.5358 35.79 35.4158 35.43C35.3558 35.23 35.0658 34.91 34.2458 34.11L33.1558 33.06L32.8458 33.14C32.6658 33.18 32.4558 33.22 32.3758 33.22C32.2258 33.22 32.2258 33.22 32.4258 33.38L32.6258 33.54L32.9258 33.38C33.1958 33.22 33.2058 33.22 33.2358 33.35C33.2558 33.42 33.2158 33.55 33.1358 33.64C33.0658 33.73 33.0258 33.84 33.0358 33.87C33.0658 33.9 32.9958 33.97 32.8858 34.03C32.6858 34.13 32.5358 34.46 32.6958 34.46C32.8458 34.46 33.1658 34.06 33.1258 33.93C33.1058 33.86 33.1258 33.79 33.1458 33.77C33.2758 33.7 33.2658 34.01 33.1458 34.17C33.0658 34.25 33.0258 34.35 33.0458 34.39C33.0658 34.42 32.9958 34.49 32.8858 34.55C32.6858 34.65 32.5358 34.98 32.6958 34.98C32.8558 34.98 33.1658 34.6 33.1358 34.46C33.1158 34.39 33.1158 34.31 33.1458 34.29C33.2358 34.25 33.2758 34.49 33.2058 34.61C33.1874 34.6437 33.1778 34.6816 33.1778 34.72C33.1778 34.7584 33.1874 34.7962 33.2058 34.83C33.2758 34.96 33.2058 35.2 33.0758 35.28C33.0258 35.31 33.0558 35.38 33.1958 35.48C33.3958 35.62 33.3958 35.64 33.3958 36.28C33.3958 36.82 33.4158 36.96 33.5158 37.05C33.6158 37.15 33.6358 37.15 33.6358 37.05C33.6358 36.95 33.8358 36.81 33.9858 36.81C34.0358 36.81 34.3258 37.06 34.6358 37.36C34.9458 37.66 35.2758 37.93 35.3658 37.94L35.5858 37.98C35.6158 37.98 35.7558 37.95 35.8958 37.88V37.89ZM32.5658 35.28C32.5658 35.11 32.2058 34.92 31.7758 34.88C31.4258 34.83 31.4258 34.84 31.4258 35.01C31.4258 35.15 31.4758 35.21 31.7258 35.31C32.1058 35.48 32.5658 35.46 32.5658 35.28Z" fill="#FFB700"/>
<path id="Vector_18" d="M32.956 35.26C33.136 35.1 33.216 34.92 33.106 34.92C32.986 34.92 32.666 35.2 32.666 35.32C32.666 35.48 32.726 35.47 32.966 35.26H32.956ZM32.586 34.75C32.596 34.65 32.536 34.59 32.356 34.5C31.956 34.33 31.496 34.24 31.386 34.33C31.176 34.5 31.316 34.72 31.646 34.76C31.786 34.77 31.966 34.81 32.056 34.85C32.316 34.95 32.556 34.9 32.586 34.75V34.75ZM32.586 34.22C32.606 34.09 32.516 34.04 31.786 33.78C31.236 33.58 30.996 33.68 31.176 34.01C31.236 34.12 31.336 34.17 31.566 34.21C31.736 34.23 31.966 34.28 32.076 34.32C32.376 34.42 32.556 34.38 32.576 34.22H32.586ZM32.946 33.73C33.056 33.62 33.146 33.49 33.146 33.43C33.146 33.28 32.716 33.56 32.656 33.76C32.596 33.99 32.706 33.98 32.956 33.73H32.946ZM32.586 33.7C32.606 33.54 32.346 33.4 31.826 33.29C31.436 33.2 31.266 33.25 31.296 33.43C31.316 33.53 31.446 33.6 31.796 33.71C32.386 33.89 32.556 33.89 32.586 33.7V33.7ZM33.086 32.96C33.766 32.66 33.816 31.91 33.186 31.71C32.926 31.63 32.766 31.68 32.666 31.85C32.586 31.99 32.636 32.23 32.736 32.23C32.776 32.23 32.806 32.28 32.806 32.33C32.806 32.6 31.786 32.71 31.366 32.5C31.216 32.43 31.166 32.23 31.276 32.23C31.376 32.23 31.436 32.03 31.386 31.9C31.326 31.7 31.126 31.64 30.856 31.72C30.226 31.88 30.246 32.62 30.886 32.92C31.594 33.1799 32.3689 33.194 33.086 32.96V32.96Z" fill="#FFB700"/>
<path id="Vector_19" d="M32.6761 32.38C32.7161 32.34 32.6961 32.28 32.6361 32.24C32.4961 32.13 32.5061 31.96 32.6561 31.77C32.7761 31.63 32.7861 31.41 32.8261 29.26C32.8961 25.55 33.1761 22.76 33.5361 22.08C33.6861 21.82 33.6661 21.82 33.2861 22.08C32.7876 22.4273 32.3851 22.8952 32.1161 23.44C31.4961 24.59 31.2861 26.14 31.2861 29.46C31.2861 31.34 31.2961 31.59 31.4061 31.76C31.5061 31.94 31.5061 32 31.4461 32.18C31.3961 32.29 31.3761 32.41 31.3961 32.43C31.5361 32.56 32.5361 32.53 32.6761 32.38ZM38.2861 28.84C38.3161 28.81 38.2661 28.64 38.1861 28.48C38.0661 28.22 38.0161 28.18 37.8461 28.18C37.0465 28.1105 36.2667 27.8935 35.5461 27.54C35.0361 27.31 34.8461 27.26 34.7961 27.32C34.6361 27.47 34.8961 27.82 35.2961 28.01C35.8848 28.2221 36.5013 28.3468 37.1261 28.38C37.3961 28.38 37.4061 28.38 37.2461 28.61L37.1461 28.77H37.4461L37.9461 28.83C38.2461 28.9 38.2461 28.9 38.2861 28.84V28.84Z" fill="#FFB700"/>
<path id="Vector_20" d="M41.4463 30.51C41.4463 30.41 41.1563 30.16 40.8763 29.99C40.6463 29.86 40.6063 29.85 40.6063 29.96C40.6063 30.12 40.4663 30.53 40.4063 30.53C40.3763 30.53 40.3263 30.45 40.3063 30.36C40.2763 30.26 40.1663 30.06 40.0563 29.93L39.8563 29.68L39.7163 29.91C39.5763 30.13 39.3263 30.34 39.2163 30.34C39.1963 30.34 39.1863 30.22 39.2163 30.09C39.2263 29.93 39.2163 29.81 39.1663 29.79C39.1263 29.76 39.0863 29.77 39.0863 29.81C39.0863 29.89 38.7463 30.27 38.6863 30.27C38.6463 30.27 38.6063 30.17 38.5863 30.03L38.5063 29.55C38.4863 29.43 38.5363 29.51 38.6063 29.75L38.7663 30.16L38.9263 29.91C38.9987 29.8067 39.0528 29.6917 39.0863 29.57C39.0863 29.52 39.1163 29.5 39.1563 29.52C39.1963 29.54 39.2463 29.71 39.2663 29.89L39.3163 30.23L39.4963 30.03C39.5905 29.9297 39.6773 29.8228 39.7563 29.71C39.8263 29.59 39.8363 29.59 39.9863 29.71C40.0663 29.79 40.1963 29.96 40.2763 30.1C40.3563 30.24 40.4263 30.34 40.4363 30.33L40.4963 30.01L40.5363 29.71C40.5463 29.66 41.0763 30.01 41.2763 30.18C41.3963 30.29 41.5163 30.37 41.5363 30.35C41.5563 30.33 41.5763 30.17 41.5763 29.98C41.5763 29.7 41.5463 29.62 41.3763 29.47C41.1763 29.29 41.1763 29.29 41.0963 29.42C40.9963 29.59 40.8863 29.59 40.8863 29.42C40.8863 29.3 40.5063 28.83 40.4163 28.83C40.3863 28.83 40.3063 28.93 40.2363 29.06C40.1663 29.19 40.0863 29.29 40.0663 29.29C39.9663 29.29 39.4363 28.69 39.4363 28.59C39.4363 28.51 39.4763 28.53 39.5663 28.67C39.6556 28.8014 39.7596 28.9221 39.8763 29.03C40.0763 29.21 40.1563 29.17 40.2363 28.82C40.2663 28.72 40.3063 28.64 40.3363 28.64C40.4163 28.64 40.8763 29.13 40.9363 29.29L41.0063 29.45L41.0563 29.27C41.1163 29.05 41.1863 29.05 41.2863 29.25C41.3263 29.33 41.5263 29.51 41.7263 29.63L42.0963 29.87L42.1663 29.63C42.2063 29.5 42.2663 29.43 42.2863 29.47C42.3263 29.52 42.2263 29.92 42.1563 30C42.1563 30.01 42.0263 29.94 41.8963 29.85L41.6463 29.67V29.99C41.6463 30.16 41.6263 30.37 41.6063 30.45C41.5563 30.61 41.4363 30.65 41.4363 30.51H41.4463ZM39.5963 27.97C39.1563 27.61 39.0963 27.53 39.0963 27.35L39.1063 27.17L39.1363 27.34C39.1563 27.44 39.2763 27.6 39.4163 27.72L39.6763 27.92L39.8263 27.74C39.9163 27.64 39.9863 27.52 39.9863 27.48C39.9863 27.36 40.0063 27.37 40.3063 27.63C40.5663 27.86 40.5763 27.86 40.6063 27.71C40.6363 27.63 40.6263 27.47 40.6063 27.36C40.5063 27.06 40.5263 27.02 40.6563 27.2L40.8963 27.48C40.9963 27.59 41.0063 27.59 41.0463 27.45C41.0763 27.36 41.0963 27.21 41.0963 27.11V26.92L41.3263 27.19C41.5563 27.45 41.5763 27.46 41.6363 27.33C41.6863 27.26 41.7163 27.09 41.7163 26.96C41.7163 26.78 41.7363 26.74 41.7763 26.8C41.8563 26.92 41.8063 27.22 41.6663 27.48L41.5663 27.68L41.4363 27.47C41.2663 27.21 41.2063 27.21 41.1063 27.49C41.0063 27.76 40.9363 27.78 40.8363 27.57C40.7763 27.44 40.7563 27.46 40.7163 27.74L40.6663 28.04L40.3663 27.81L40.0663 27.58L39.9163 27.73C39.8463 27.82 39.7863 27.93 39.7863 27.97C39.7863 28.07 39.7063 28.07 39.5963 27.97V27.97ZM43.4963 26.61C43.3463 26.47 43.2363 26.33 43.2563 26.31C43.2863 26.28 43.3063 26.27 43.3163 26.29C43.4131 26.3932 43.5131 26.4932 43.6163 26.59C43.9563 26.95 43.8863 26.96 43.5063 26.61H43.4963ZM38.2963 26.07C38.1563 25.87 38.1663 25.75 38.3463 25.53C38.4663 25.38 38.5263 25.36 38.7463 25.39C38.8963 25.4 39.2063 25.53 39.4363 25.67C39.7686 25.8686 40.1491 25.9723 40.5363 25.97L40.3663 25.69C40.1463 25.36 40.1463 25.32 40.4063 25.52C40.6663 25.73 40.9763 25.79 41.6763 25.77L42.0163 25.76L41.8163 25.56C41.5463 25.29 41.6263 25.26 41.9363 25.53C42.2163 25.78 42.2063 25.8 41.5963 25.86C41.3419 25.8857 41.085 25.8688 40.8363 25.81C40.4963 25.71 40.4763 25.72 40.5463 25.83C40.5863 25.9 40.6463 25.95 40.6763 25.95C40.7163 25.95 40.7463 25.99 40.7463 26.03C40.7463 26.16 40.0063 26.04 39.6463 25.87C38.8463 25.46 38.7463 25.42 38.5463 25.48C38.493 25.5005 38.4443 25.5314 38.4031 25.5709C38.3619 25.6104 38.329 25.6577 38.3063 25.71C38.1763 26.04 38.6463 26.3 38.8363 26.01C38.8963 25.92 38.8863 25.87 38.7863 25.76C38.6463 25.62 38.6663 25.6 38.8463 25.66C38.9763 25.71 38.9863 26.02 38.8663 26.14C38.7363 26.27 38.4163 26.24 38.2963 26.07Z" fill="black"/>
<path id="Vector_21" d="M41.4856 25.26C41.3856 25.16 41.4656 25.14 41.9156 25.13C42.4756 25.12 42.8156 25.03 43.2156 24.77C43.5356 24.57 43.6256 24.61 43.3156 24.82C43.0456 25.02 42.6156 25.16 42.1856 25.2L41.6756 25.27C41.5956 25.29 41.5056 25.28 41.4756 25.26H41.4856Z" fill="black"/>
</g>
</g>
</g>
</g>
<defs>
<clipPath id="clip0_2909_185350">
<path d="M0.246094 32C0.246094 14.3269 14.573 0 32.2461 0V0C49.9192 0 64.2461 14.3269 64.2461 32V32C64.2461 49.6731 49.9192 64 32.2461 64V64C14.573 64 0.246094 49.6731 0.246094 32V32Z" fill="white"/>
</clipPath>
</defs>
</svg>
