<svg width="65" height="64" viewBox="0 0 65 64" fill="none" xmlns="http://www.w3.org/2000/svg">
<g id="Rounded=Liberia (LR)">
<g clip-path="url(#clip0_2909_185348)">
<g id="Group">
<path id="Vector" fill-rule="evenodd" clip-rule="evenodd" d="M0.246094 0H96.2336V64H0.246094V0Z" fill="#F5F5F5"/>
<path id="Vector_2" fill-rule="evenodd" clip-rule="evenodd" d="M0.246094 0H29.3336V29.1H0.246094V0Z" fill="#000066"/>
<path id="Vector_3" fill-rule="evenodd" clip-rule="evenodd" d="M0.246094 58.1125H96.2336V64H0.246094V58.1125Z" fill="#CC0000"/>
<path id="Vector_4" fill-rule="evenodd" clip-rule="evenodd" d="M0.246094 58.175H96.2336V64H0.246094V58.175ZM0.246094 46.5625H96.2336V52.3375H0.246094V46.5625ZM0.246094 34.9125H95.9961V40.75H0.246094V34.9125ZM29.3336 0H96.2211V5.8125H29.3336V0ZM29.3336 23.25H96.2211V29.1H29.3336V23.25ZM29.3336 11.6625H96.2211V17.475H29.3336V11.6625Z" fill="#CC0000"/>
<path id="Vector_5" fill-rule="evenodd" clip-rule="evenodd" d="M21.0338 22.1875L14.6963 18.3125L8.39629 22.225L10.7338 15.8625L4.44629 11.9375L12.2338 11.8875L14.6463 5.54999L17.1213 11.875H24.9088L18.6463 15.8375L21.0338 22.1875Z" fill="#F5F5F5"/>
</g>
</g>
</g>
<defs>
<clipPath id="clip0_2909_185348">
<path d="M0.246094 32C0.246094 14.3269 14.573 0 32.2461 0V0C49.9192 0 64.2461 14.3269 64.2461 32V32C64.2461 49.6731 49.9192 64 32.2461 64V64C14.573 64 0.246094 49.6731 0.246094 32V32Z" fill="white"/>
</clipPath>
</defs>
</svg>
