<svg width="65" height="64" viewBox="0 0 65 64" fill="none" xmlns="http://www.w3.org/2000/svg">
<g id="Rounded=Lesotho (LS)">
<g clip-path="url(#clip0_2909_185346)">
<path id="Vector" d="M0.246094 0H64.2461V64H0.246094V0Z" fill="#F5F5F5"/>
<path id="Vector_2" d="M0.246094 44.8H64.2461V64H0.246094V44.8Z" fill="#009543"/>
<path id="Vector_3" d="M0.246094 0H64.2461V19.2H0.246094V0Z" fill="#00209F"/>
<path id="Vector_4" d="M32.4461 20.3875C32.0711 20.3875 31.7211 20.8 31.7211 20.8L31.7586 25.1125L30.3836 26.55H31.5086L31.4836 29.0125L24.9586 37.8125L23.9961 37.475L22.3086 41.075C22.3086 41.075 26.4836 43.6875 32.5336 43.6125C39.1836 43.525 42.7836 40.95 42.7836 40.95L41.0461 37.4L40.1961 37.775L33.5711 29.025V26.475H34.6711L33.1711 25.0625L33.1836 20.7625C33.1836 20.7625 32.8086 20.3875 32.4461 20.3875V20.3875Z" fill="black" stroke="black" stroke-width="0.2125"/>
<path id="Vector_5" d="M34.7207 30.725H30.2082C30.2082 30.725 28.5707 27.275 28.8332 24.85C29.1082 22.4 30.5082 21.2375 32.3832 21.225C34.5832 21.1875 35.7332 22.3 36.0832 24.7625C36.4332 27.2 34.7207 30.725 34.7207 30.725V30.725Z" stroke="black" stroke-width="1.0625"/>
<path id="Vector_6" d="M24.5586 38.95C24.4836 39.05 23.9336 40.125 23.9336 40.125L24.8711 39.925L24.5586 38.95V38.95ZM25.0961 40.35L24.1086 40.675L25.2961 41.1375L25.0961 40.35ZM25.5461 38.975L26.0336 40.425L27.2336 40.075L26.9211 39.3875L25.5461 38.975ZM26.2961 40.9375L26.4711 41.525L28.0711 41.925L27.4461 40.575L26.3086 40.95L26.2961 40.9375ZM28.0711 39.7125L28.6336 41.0625L29.8461 40.6L29.4461 40L28.0711 39.7125ZM28.8586 41.55L29.0586 42.075L30.9336 42.3375L30.1336 41.1125L28.8586 41.55ZM30.6586 40.1L31.3461 41.3125L33.0961 40.675L32.8961 40.2L30.6461 40.1H30.6586ZM31.6586 41.75L32.0336 42.3875L34.1961 42.3125L33.3836 41.1125L31.6586 41.75ZM33.9461 40.15L34.5461 41.15L35.9211 40.5L35.5461 39.9625L33.9461 40.15ZM36.2086 40.9125L34.8336 41.6L35.2086 42.2L37.0461 41.9L36.2086 40.9125V40.9125ZM36.6586 39.8625L37.3711 40.7375L38.5211 39.8375L38.1336 39.4125L36.6586 39.8625V39.8625ZM38.7711 40.325L37.6586 41.1625L37.9586 41.675L39.4836 41.2875L38.7711 40.325ZM40.2961 38.575L40.5711 38.975L39.8086 40.1L39.0211 39.1L40.2961 38.575V38.575ZM40.8086 39.5625L41.2836 40.5L40.3461 40.8125L40.2711 40.375L40.8086 39.5625Z" fill="#F5F5F5"/>
</g>
</g>
<defs>
<clipPath id="clip0_2909_185346">
<path d="M0.246094 32C0.246094 14.3269 14.573 0 32.2461 0V0C49.9192 0 64.2461 14.3269 64.2461 32V32C64.2461 49.6731 49.9192 64 32.2461 64V64C14.573 64 0.246094 49.6731 0.246094 32V32Z" fill="white"/>
</clipPath>
</defs>
</svg>
