<svg width="65" height="64" viewBox="0 0 65 64" fill="none" xmlns="http://www.w3.org/2000/svg">
<g id="Rounded=Libya (LY)">
<g clip-path="url(#clip0_2909_185344)">
<g id="Group">
<path id="Vector" d="M-31.7539 -0.00149536H96.2461V63.9985H-31.7539V-0.00149536Z" fill="#239E46"/>
<path id="Vector_2" d="M-31.7539 -0.00149536H96.2461V47.9985H-31.7539V-0.00149536Z" fill="black"/>
<path id="Vector_3" d="M-31.7539 -0.00149536H96.2461V15.9985H-31.7539V-0.00149536Z" fill="#E70013"/>
<path id="Vector_4" d="M37.9042 26.3409C36.8649 25.5993 35.6414 25.1582 34.3679 25.0662C33.0944 24.9742 31.8202 25.2347 30.6851 25.8192C29.55 26.4036 28.5978 27.2895 27.933 28.3796C27.2682 29.4696 26.9165 30.7217 26.9165 31.9985C26.9165 33.2753 27.2682 34.5274 27.933 35.6175C28.5978 36.7075 29.55 37.5934 30.6851 38.1779C31.8202 38.7623 33.0944 39.0229 34.3679 38.9308C35.6414 38.8388 36.8649 38.3978 37.9042 37.6561C36.7853 38.7747 35.3598 39.5364 33.808 39.8449C32.2562 40.1535 30.6478 39.9949 29.1861 39.3893C27.7244 38.7838 26.4751 37.7584 25.5961 36.4429C24.7172 35.1273 24.248 33.5807 24.248 31.9985C24.248 30.4163 24.7172 28.8697 25.5961 27.5542C26.4751 26.2386 27.7244 25.2132 29.1861 24.6077C30.6478 24.0021 32.2562 23.8436 33.808 24.1521C35.3598 24.4606 36.7853 25.2223 37.9042 26.3409V26.3409ZM36.1378 31.9985L46.9026 28.5041L40.2466 37.6561V26.3409L46.9026 35.4929L36.1378 31.9985Z" fill="#F5F5F5"/>
</g>
</g>
</g>
<defs>
<clipPath id="clip0_2909_185344">
<path d="M0.246094 32C0.246094 14.3269 14.573 0 32.2461 0V0C49.9192 0 64.2461 14.3269 64.2461 32V32C64.2461 49.6731 49.9192 64 32.2461 64V64C14.573 64 0.246094 49.6731 0.246094 32V32Z" fill="white"/>
</clipPath>
</defs>
</svg>
