<svg width="65" height="64" viewBox="0 0 65 64" fill="none" xmlns="http://www.w3.org/2000/svg">
<g id="Rounded=Moldova (MD)">
<g clip-path="url(#clip0_2909_185414)">
<g id="Group">
<path id="Vector" fill-rule="evenodd" clip-rule="evenodd" d="M0.246094 0H21.5836V64H0.246094V0Z" fill="#00319C"/>
<path id="Vector_2" fill-rule="evenodd" clip-rule="evenodd" d="M21.584 0H42.909V64H21.584V0Z" fill="#FFDE00"/>
<path id="Vector_3" fill-rule="evenodd" clip-rule="evenodd" d="M42.9082 0H64.2457V64H42.9082V0Z" fill="#DE2110"/>
</g>
<g id="Vector_4">
<path fill-rule="evenodd" clip-rule="evenodd" d="M36.4536 40.1902L38.9161 43.7431C39.0553 43.9439 39.1906 44.1391 38.9863 44.2684C38.7762 44.4014 38.8425 44.9211 38.9816 45.1219C39.2561 45.5179 39.5996 45.5894 39.8039 45.4601L41.6717 44.278C41.8759 44.1487 41.9411 43.8187 41.6666 43.4227C41.5119 43.2237 41.0525 42.9607 40.8483 43.09C40.6381 43.223 40.5028 43.0278 40.3675 42.8326L37.8973 39.2686" fill="#FF1900"/>
<path d="M36.4536 40.1902L38.9161 43.7431C39.0553 43.9439 39.1906 44.1391 38.9863 44.2684C38.7762 44.4014 38.8425 44.9211 38.9816 45.1219C39.2561 45.5179 39.5996 45.5894 39.8039 45.4601L41.6717 44.278C41.8759 44.1487 41.9411 43.8187 41.6666 43.4227C41.5119 43.2237 41.0525 42.9607 40.8483 43.09C40.6381 43.223 40.5028 43.0278 40.3675 42.8326L37.8973 39.2686" stroke="black" stroke-width="0.0684662"/>
</g>
<path id="Vector_5" fill-rule="evenodd" clip-rule="evenodd" d="M37.4076 37.6767C38.5073 38.9258 38.8899 40.358 38.2631 40.8618C37.6363 41.3657 36.2251 40.7604 35.1255 39.5113C34.0258 38.2622 33.6486 36.8257 34.2754 36.3219C34.9022 35.818 36.3088 36.4182 37.413 37.6724L37.4076 37.6767Z" fill="#A77B3B" stroke="black" stroke-width="0.212256"/>
<g id="Vector_6">
<path fill-rule="evenodd" clip-rule="evenodd" d="M26.4512 38.7351L24.2773 42.4558C24.1544 42.6661 24.035 42.8706 23.821 42.7564C23.6009 42.639 23.1481 42.9337 23.0252 43.144C22.7829 43.5587 22.874 43.8831 23.088 43.9973L25.0441 45.0408C25.258 45.155 25.5948 45.0588 25.8371 44.6441C25.9512 44.4215 25.9849 43.9109 25.771 43.7967C25.5509 43.6793 25.6704 43.4749 25.7898 43.2704L27.9706 39.538" fill="#FF1900"/>
<path d="M26.4512 38.7351L24.2773 42.4558C24.1544 42.6661 24.035 42.8706 23.821 42.7564C23.6009 42.639 23.1481 42.9337 23.0252 43.144C22.7829 43.5587 22.874 43.8831 23.088 43.9973L25.0441 45.0408C25.258 45.155 25.5948 45.0588 25.8371 44.6441C25.9512 44.4215 25.9849 43.9109 25.771 43.7967C25.5509 43.6793 25.6704 43.4749 25.7898 43.2704L27.9706 39.538" stroke="black" stroke-width="0.068461"/>
</g>
<path id="Vector_7" fill-rule="evenodd" clip-rule="evenodd" d="M33.4741 36.1478H31.4928C31.4228 36.2147 30.8628 39.7603 30.2537 41.125C29.5116 42.784 27.2783 44.2491 27.2783 44.2491C27.2783 44.2491 28.6085 44.6505 29.0145 44.9181C29.1125 44.8913 31.2408 44.4431 31.4928 41.8408C31.7379 44.4431 30.0017 45.6272 30.0017 45.6272C30.0017 45.6272 32.487 46.3363 32.487 48.002C32.487 46.343 34.9653 45.6272 34.9653 45.6272C34.9653 45.6272 33.7191 44.4431 33.4741 41.8341C33.9642 44.4431 35.8544 44.8913 35.9594 44.9114C36.3585 44.6505 37.6886 44.2424 37.6886 44.2424C37.6886 44.2424 35.4623 42.7907 34.7203 41.125C34.1112 39.767 33.5441 36.208 33.4811 36.1478H33.4741Z" fill="#A77B3B" stroke="black" stroke-width="0.21215"/>
<path id="Vector_8" fill-rule="evenodd" clip-rule="evenodd" d="M25.0361 24.288L28.7606 25.472C29.4038 25.4312 30.0097 25.1686 30.4656 24.7331C30.9214 24.2975 31.1962 23.7185 31.2389 23.1039C31.2809 20.4681 30.2448 19.5449 29.9998 19.5449L30.4898 19.0766L29.7547 18.3542C29.7547 18.3542 30.0068 17.1232 32.4851 17.1701C34.9634 17.2169 34.9634 18.3542 34.9634 19.5382C34.9634 20.729 33.7242 20.729 33.7242 23.0972C33.7686 23.7124 34.0448 24.2914 34.5018 24.7269C34.9588 25.1624 35.5655 25.4247 36.2095 25.4654L39.927 24.2813V36.1489H25.0361V24.288Z" fill="#A77B3B" stroke="black" stroke-width="0.21215"/>
<g id="Group_2">
<path id="Vector_9" d="M30.7393 24.7611L30.9865 25.4739L31.2355 24.7611L31.4828 25.4739L31.9791 24.7611L32.2213 25.5119L32.4754 24.7611L32.8412 25.5119L33.2189 24.7611L33.4662 25.4739L33.7152 24.7611" stroke="black" stroke-width="0.0170226"/>
<path id="Vector_10" d="M33.4716 22.1539L33.7166 24.7629M31.7353 22.1539L31.2383 24.7629L31.7353 22.1539ZM31.9804 22.1539V24.7629V22.1539ZM32.4774 22.1539V24.7629V22.1539ZM32.9745 22.1539L33.2195 24.7629L32.9745 22.1539Z" stroke="black" stroke-width="0.0205306"/>
</g>
<g id="Group_3">
<path id="Vector_11" fill-rule="evenodd" clip-rule="evenodd" d="M22.557 17.1768C20.0787 18.3608 20.0787 20.7357 20.0787 21.9198C20.1627 22.9968 20.0787 45.6216 20.0787 45.6216C20.0787 45.6216 20.2397 44.2836 21.3179 43.2534L22.55 42.0693L23.7892 40.8852C24.6993 40.0958 25.0283 38.5104 25.0283 37.3263V20.7357C25.0283 20.7357 25.0283 19.5449 22.55 17.1768H22.557Z" fill="#A77B3B" stroke="black" stroke-width="0.21215"/>
<path id="Vector_12" d="M25.0361 21.9242C25.0081 21.9242 23.797 20.7401 23.797 20.7401L22.5578 21.9242L21.3187 20.7401L20.0795 21.9242" stroke="black" stroke-width="0.21215"/>
<path id="Vector_13" d="M25.0361 23.1008C25.0081 23.1008 23.797 24.2849 23.797 24.2849L22.5578 23.1008L21.3187 24.2849L20.0795 23.1008" stroke="black" stroke-width="0.21215"/>
<path id="Vector_14" d="M25.0361 26.6492C25.0081 26.6492 23.797 25.4651 23.797 25.4651L22.5578 26.6492L21.3187 25.4651L20.0795 26.6492" stroke="black" stroke-width="0.21215"/>
<path id="Vector_15" d="M23.7829 20.7396L23.7969 40.8931" stroke="black" stroke-width="0.292205"/>
<path id="Vector_16" d="M22.5573 21.9296L22.5713 42.0341" stroke="black" stroke-width="0.276829"/>
<path id="Vector_17" d="M21.32 20.7397L21.334 43.2611" stroke="black" stroke-width="0.292997"/>
</g>
<g id="Group_4">
<path id="Vector_18" fill-rule="evenodd" clip-rule="evenodd" d="M42.4088 17.1768C44.8871 18.3608 44.8871 20.7357 44.8871 21.9198C44.8031 22.9968 44.8871 45.6216 44.8871 45.6216C44.8871 45.6216 44.7261 44.2836 43.648 43.2534L42.4158 42.0693L41.1767 40.8852C40.2665 40.0958 39.9375 38.5104 39.9375 37.3263V20.7357C39.9375 20.7357 39.9375 19.5449 42.4158 17.1768H42.4088Z" fill="#A77B3B" stroke="black" stroke-width="0.21215"/>
<path id="Vector_19" d="M39.9307 21.9242C39.9587 21.9242 41.1698 20.7401 41.1698 20.7401L42.409 21.9242L43.6481 20.7401L44.8873 21.9242" stroke="black" stroke-width="0.21215"/>
<path id="Vector_20" d="M39.9307 23.1008C39.9587 23.1008 41.1698 24.2849 41.1698 24.2849L42.409 23.1008L43.6481 24.2849L44.8873 23.1008" stroke="black" stroke-width="0.21215"/>
<path id="Vector_21" d="M39.9307 26.6492C39.9587 26.6492 41.1698 25.4651 41.1698 25.4651L42.409 26.6492L43.6481 25.4651L44.8873 26.6492" stroke="black" stroke-width="0.21215"/>
<path id="Vector_22" d="M41.1839 20.7396L41.1699 40.8931" stroke="black" stroke-width="0.292205"/>
<path id="Vector_23" d="M42.4085 21.9296L42.3945 42.0341" stroke="black" stroke-width="0.276829"/>
<path id="Vector_24" d="M43.6458 20.7397L43.6318 43.2611" stroke="black" stroke-width="0.292997"/>
</g>
<path id="Vector_25" fill-rule="evenodd" clip-rule="evenodd" d="M29.2232 38.4068C28.5662 39.9135 27.41 40.8953 26.6539 40.5943C25.8978 40.2932 25.8133 38.8174 26.4703 37.3107C27.1273 35.8039 28.2899 34.8247 29.046 35.1257C29.8021 35.4267 29.8894 36.8964 29.2297 38.4093L29.2232 38.4068Z" fill="#A77B3B" stroke="black" stroke-width="0.212205"/>
<path id="Vector_26" fill-rule="evenodd" clip-rule="evenodd" d="M25.0459 25.475H39.9209V32.5875H25.0459V25.475Z" fill="#FF0000"/>
<path id="Vector_27" fill-rule="evenodd" clip-rule="evenodd" d="M25.0459 32.5875H39.9209V36.125C39.9209 38.5 36.2084 38.5 32.4834 40.875C28.7584 38.5 25.0459 38.5 25.0459 36.125V32.575V32.5875Z" fill="#564DFF"/>
<path id="Vector_28" d="M25.0361 25.472H39.92V36.1489C39.92 38.5171 36.2025 38.5171 32.4781 40.8919C28.7606 38.5171 25.0361 38.5171 25.0361 36.1422V25.4787V25.472Z" stroke="#FFFF00" stroke-width="0.171089"/>
<path id="Vector_29" fill-rule="evenodd" clip-rule="evenodd" d="M29.7551 25.9555C29.7551 25.9555 27.2754 27.6989 27.2754 29.3669C27.2754 31.0349 29.8776 31.594 29.8776 31.594C29.8776 31.594 29.0102 31.594 29.0102 33.818C29.0102 34.9332 31.6124 34.3772 31.6124 34.9332C31.6124 35.4892 31.5781 36.8336 31.6124 37.7163C31.6124 38.2723 29.8776 37.7163 29.8776 38.2723C29.8776 38.5487 31.1812 39.9403 32.4848 39.9403C33.7883 39.9403 35.087 38.5487 35.087 38.2723C35.087 37.7163 33.3522 38.2723 33.3522 37.7163V34.9332C33.3522 34.3772 35.9544 34.9332 35.9544 33.818C35.9544 31.594 35.087 31.594 35.087 31.594C35.087 31.594 37.6941 31.038 37.6941 29.3669C37.6941 27.6957 35.2095 25.9555 35.2095 25.9555C35.2095 25.9555 36.6062 28.2549 36.6062 29.3669C36.6062 29.9229 35.9544 31.038 34.2196 31.038C34.2196 31.038 33.7785 30.4789 33.3522 31.038C33.3522 31.038 32.8523 30.4789 32.4848 31.038C32.3573 31.2265 32.1319 30.4789 31.6124 31.038C31.3968 31.1857 31.2204 30.4789 30.745 31.038C29.8776 31.038 28.1428 30.4789 28.1428 29.3669C28.1428 28.2549 29.7551 25.9555 29.7551 25.9555V25.9555Z" fill="#FFFF00" stroke="black" stroke-width="0.117706"/>
<path id="Vector_30" fill-rule="evenodd" clip-rule="evenodd" d="M29.801 35.9153C29.6245 36.0284 30.0264 37.8409 30.144 37.9194C30.3204 38.0294 31.3643 38.0294 31.5358 37.9194C31.6583 37.8409 31.5358 36.1383 31.3643 36.0284C31.1878 35.9153 29.9235 35.8399 29.7961 35.9153H29.801Z" fill="#FFFF00" stroke="black" stroke-width="0.117706"/>
<path id="Vector_31" fill-rule="evenodd" clip-rule="evenodd" d="M35.1668 35.9153C35.3432 36.0284 34.9414 37.8409 34.8238 37.9194C34.6474 38.0294 33.6035 38.0294 33.432 37.9194C33.3095 37.8409 33.432 36.1383 33.6035 36.0284C33.7799 35.9153 35.0443 35.8399 35.1717 35.9153H35.1668Z" fill="#FFFF00" stroke="black" stroke-width="0.117706"/>
<path id="Vector_32" fill-rule="evenodd" clip-rule="evenodd" d="M31.5877 35.2478C31.5877 35.414 31.4927 35.5733 31.3237 35.6908C31.1547 35.8083 30.9254 35.8743 30.6864 35.8743C30.4474 35.8743 30.2181 35.8083 30.0491 35.6908C29.8801 35.5733 29.7852 35.414 29.7852 35.2478C29.7852 35.0816 29.8801 34.9223 30.0491 34.8048C30.2181 34.6873 30.4474 34.6212 30.6864 34.6212C30.9254 34.6212 31.1547 34.6873 31.3237 34.8048C31.4927 34.9223 31.5877 35.0816 31.5877 35.2478V35.2478Z" fill="#FFFF00" stroke="black" stroke-width="0.140897"/>
<path id="Vector_33" fill-rule="evenodd" clip-rule="evenodd" d="M35.1746 35.2481C35.1746 35.4142 35.0796 35.5736 34.9106 35.6911C34.7416 35.8086 34.5124 35.8746 34.2733 35.8746C34.0343 35.8746 33.8051 35.8086 33.636 35.6911C33.467 35.5736 33.3721 35.4142 33.3721 35.2481C33.3721 35.0819 33.467 34.9225 33.636 34.805C33.8051 34.6875 34.0343 34.6215 34.2733 34.6215C34.5124 34.6215 34.7416 34.6875 34.9106 34.805C35.0796 34.9225 35.1746 35.0819 35.1746 35.2481V35.2481Z" fill="#FFFF00" stroke="black" stroke-width="0.140899"/>
<path id="Vector_34" fill-rule="evenodd" clip-rule="evenodd" d="M34.0459 38.875C34.0459 39.025 33.8459 39.15 33.6084 39.15C33.3709 39.15 33.1834 39.025 33.1834 38.875C33.1834 38.725 33.3709 38.6 33.6084 38.6C33.8459 38.6 34.0459 38.725 34.0459 38.875ZM31.7959 38.875C31.7959 39.025 31.5959 39.15 31.3584 39.15C31.1209 39.15 30.9209 39.025 30.9209 38.875C30.9209 38.725 31.1209 38.6 31.3584 38.6C31.5959 38.6 31.7834 38.725 31.7834 38.875H31.7959Z" fill="black"/>
<path id="Vector_35" fill-rule="evenodd" clip-rule="evenodd" d="M32.4827 29.9839L31.9499 29.3117L31.0757 29.4226L31.1986 28.5872L30.4951 28.0847L31.1986 27.5756L31.0757 26.7402L31.9499 26.8577L32.4827 26.1854L33.0154 26.8577L33.8829 26.7402L33.7667 27.5756L34.4634 28.0847L33.7667 28.5938L33.8829 29.4226L33.0086 29.3117L32.4827 29.9839Z" fill="#FFFF00" stroke="black" stroke-width="0.0667665"/>
<path id="Vector_36" fill-rule="evenodd" clip-rule="evenodd" d="M36.1953 32.5833L37.6865 33.2991L39.1777 32.5833L37.6865 31.8741L36.2023 32.5833H36.1953Z" fill="#FFFF00" stroke="black" stroke-width="0.0684354"/>
<path id="Vector_37" fill-rule="evenodd" clip-rule="evenodd" d="M25.5332 32.5833L27.0244 33.2991L28.5156 32.5833L27.0244 31.8741L25.5402 32.5833H25.5332Z" fill="#FFFF00" stroke="black" stroke-width="0.0684354"/>
<path id="Vector_38" fill-rule="evenodd" clip-rule="evenodd" d="M38.5146 36.8317C38.0581 36.5422 37.289 36.6865 36.858 36.9231C36.427 37.1596 35.9959 37.3961 35.9379 38.2534C35.4429 37.4296 35.8328 36.6679 36.4884 36.3081C36.8361 36.1448 37.2343 36.1084 37.6081 36.2059C37.9818 36.3034 38.3055 36.528 38.5181 36.8375L38.5146 36.8317Z" fill="#FFFF00" stroke="black" stroke-width="0.0684622"/>
<path id="Vector_39" fill-rule="evenodd" clip-rule="evenodd" d="M28.2713 35.4297C28.2713 35.5547 28.2193 35.6747 28.1267 35.7632C28.0342 35.8516 27.9086 35.9013 27.7777 35.9013C27.6468 35.9013 27.5213 35.8516 27.4287 35.7632C27.3362 35.6747 27.2842 35.5547 27.2842 35.4297C27.2842 35.3046 27.3362 35.1846 27.4287 35.0962C27.5213 35.0077 27.6468 34.958 27.7777 34.958C27.9086 34.958 28.0342 35.0077 28.1267 35.0962C28.2193 35.1846 28.2713 35.3046 28.2713 35.4297V35.4297Z" fill="#FFFF00" stroke="black" stroke-width="0.0684354"/>
<path id="Vector_40" fill-rule="evenodd" clip-rule="evenodd" d="M27.7713 37.0922C27.7713 37.2173 27.7193 37.3372 27.6267 37.4257C27.5342 37.5141 27.4086 37.5638 27.2777 37.5638C27.1468 37.5638 27.0213 37.5141 26.9287 37.4257C26.8362 37.3372 26.7842 37.2173 26.7842 37.0922C26.7842 36.9671 26.8362 36.8471 26.9287 36.7587C27.0213 36.6702 27.1468 36.6205 27.2777 36.6205C27.4086 36.6205 27.5342 36.6702 27.6267 36.7587C27.7193 36.8471 27.7713 36.9671 27.7713 37.0922V37.0922Z" fill="#FFFF00" stroke="black" stroke-width="0.0684354"/>
<path id="Vector_41" fill-rule="evenodd" clip-rule="evenodd" d="M27.5213 36.1422C27.5213 36.2672 27.4693 36.3872 27.3767 36.4756C27.2842 36.5641 27.1586 36.6138 27.0277 36.6138C26.8968 36.6138 26.7713 36.5641 26.6787 36.4756C26.5862 36.3872 26.5342 36.2672 26.5342 36.1422C26.5342 36.0171 26.5862 35.8971 26.6787 35.8087C26.7713 35.7202 26.8968 35.6705 27.0277 35.6705C27.1586 35.6705 27.2842 35.7202 27.3767 35.8087C27.4693 35.8971 27.5213 36.0171 27.5213 36.1422V36.1422Z" fill="#FFFF00" stroke="black" stroke-width="0.0684354"/>
<path id="Vector_42" fill-rule="evenodd" clip-rule="evenodd" d="M28.7586 37.0922C28.7586 37.2173 28.7066 37.3372 28.614 37.4257C28.5215 37.5141 28.3959 37.5638 28.265 37.5638C28.1341 37.5638 28.0086 37.5141 27.916 37.4257C27.8235 37.3372 27.7715 37.2173 27.7715 37.0922C27.7715 36.9671 27.8235 36.8471 27.916 36.7587C28.0086 36.6702 28.1341 36.6205 28.265 36.6205C28.3959 36.6205 28.5215 36.6702 28.614 36.7587C28.7066 36.8471 28.7586 36.9671 28.7586 37.0922V37.0922Z" fill="#FFFF00" stroke="black" stroke-width="0.0684354"/>
<path id="Vector_43" fill-rule="evenodd" clip-rule="evenodd" d="M29.0086 36.1422C29.0086 36.2672 28.9566 36.3872 28.864 36.4756C28.7715 36.5641 28.6459 36.6138 28.515 36.6138C28.3841 36.6138 28.2586 36.5641 28.166 36.4756C28.0735 36.3872 28.0215 36.2672 28.0215 36.1422C28.0215 36.0171 28.0735 35.8971 28.166 35.8087C28.2586 35.7202 28.3841 35.6705 28.515 35.6705C28.6459 35.6705 28.7715 35.7202 28.864 35.8087C28.9566 35.8971 29.0086 36.0171 29.0086 36.1422V36.1422Z" fill="#FFFF00" stroke="black" stroke-width="0.0684354"/>
<path id="Vector_44" fill-rule="evenodd" clip-rule="evenodd" d="M28.2713 36.3797C28.2713 36.5048 28.2193 36.6247 28.1267 36.7132C28.0342 36.8016 27.9086 36.8513 27.7777 36.8513C27.6468 36.8513 27.5213 36.8016 27.4287 36.7132C27.3362 36.6247 27.2842 36.5048 27.2842 36.3797C27.2842 36.2546 27.3362 36.1346 27.4287 36.0462C27.5213 35.9577 27.6468 35.9081 27.7777 35.9081C27.9086 35.9081 28.0342 35.9577 28.1267 36.0462C28.2193 36.1346 28.2713 36.2546 28.2713 36.3797V36.3797Z" fill="#FFFF00" stroke="black" stroke-width="0.0684354"/>
<g id="Group_5">
<path id="Vector_45" fill-rule="evenodd" clip-rule="evenodd" d="M30.0844 19.875C28.8344 19.875 28.6719 20.0625 28.1094 20.25C28.1094 19.7125 29.4969 19.075 30.7469 19.075C30.7469 19.475 30.4219 19.8625 30.0844 19.8625V19.875Z" fill="#DA4500"/>
<path id="Vector_46" fill-rule="evenodd" clip-rule="evenodd" d="M31.9961 18.6C31.9961 18.8625 31.7711 19.075 31.4961 19.075C31.2211 19.075 30.9961 18.8625 30.9961 18.6C30.9961 18.3375 31.2211 18.125 31.4961 18.125C31.7711 18.125 31.9961 18.3375 31.9961 18.6Z" fill="#CAC9C7"/>
<path id="Vector_47" fill-rule="evenodd" clip-rule="evenodd" d="M26.7726 16.9426V17.6517H28.0118V21.204H28.7609V17.6517H30V16.9426H28.7609V15.9927H28.0048V16.9426H26.7656H26.7726Z" fill="#FFFF00" stroke="black" stroke-width="0.0684354"/>
<path id="Vector_48" fill-rule="evenodd" clip-rule="evenodd" d="M30.7465 19.075C29.7385 19.0194 28.729 19.1552 27.7715 19.475C27.7715 18.7375 28.6215 17.8875 30.084 17.8875C30.4215 17.8875 30.7465 18.675 30.7465 19.075Z" fill="#DA4500"/>
</g>
<g id="Group_6">
<path id="Vector_49" fill-rule="evenodd" clip-rule="evenodd" d="M17.8478 31.6583C17.4908 30.8886 17.4991 30.643 18.1342 31.5236L25.7851 46.0284L25.5509 46.0945L17.8517 31.6613L17.8478 31.6583Z" fill="#008500" stroke="black" stroke-width="0.0335496"/>
<path id="Vector_50" fill-rule="evenodd" clip-rule="evenodd" d="M23.0331 41.2C23.1206 40.125 21.1581 38.9625 21.0706 39.0375C20.9956 39.1125 21.1956 39.7375 21.5706 40.0625C20.8456 39.7 20.0956 39.475 20.0706 39.6375C20.0206 39.85 21.1956 40.3625 21.2956 40.5625C21.2956 40.7 20.4206 40.6875 20.4456 40.825C20.4581 40.975 22.9081 42.2 23.0331 41.2ZM21.0706 38.075C21.1456 37 19.1831 35.825 19.0956 35.9125C19.0206 35.9875 19.2206 36.6125 19.5956 36.9375C18.8831 36.5625 18.1331 36.3375 18.1081 36.5C18.0581 36.7125 19.2331 37.225 19.3206 37.425C19.3331 37.575 18.4581 37.55 18.4831 37.7C18.4956 37.8375 20.9456 39.075 21.0706 38.075V38.075ZM19.5706 35.225C19.6456 34.15 17.6706 32.9875 17.5956 33.0625C17.5206 33.1375 17.7206 33.7625 18.0956 34.0875C17.3706 33.7125 16.6206 33.5 16.6081 33.6625C16.5456 33.875 17.7331 34.3875 17.8206 34.5875C17.8331 34.725 16.9581 34.7125 16.9706 34.85C16.9956 34.9875 19.4331 36.225 19.5581 35.225H19.5706ZM18.0706 32.15C18.1581 31.075 16.1956 29.9 16.1081 29.9875C16.0331 30.0625 16.2331 30.6875 16.6081 31.0125C15.8831 30.6375 15.1331 30.4125 15.1206 30.575C15.0581 30.7875 16.2331 31.3 16.3331 31.5C16.3456 31.65 15.4706 31.625 15.4831 31.775C15.4956 31.9 17.9456 33.15 18.0706 32.15V32.15Z" fill="#008F00"/>
<path id="Vector_51" fill-rule="evenodd" clip-rule="evenodd" d="M18.5831 32C19.5456 31.425 19.3582 29.225 19.2457 29.2125C19.1332 29.1875 18.7206 29.7125 18.6706 30.2C18.5456 29.425 18.2956 28.7125 18.1706 28.8C17.9456 28.8875 18.2082 30.0875 18.0957 30.2875C17.9832 30.375 17.4707 29.7 17.3707 29.7875C17.2582 29.8875 17.6706 32.5 18.5831 32ZM19.9581 34.7125C21.0706 34.4625 21.6582 32.3375 21.5707 32.2875C21.4707 32.2375 20.8957 32.6 20.6832 33.0375C20.8457 32.275 20.8457 31.525 20.6832 31.55C20.4582 31.5625 20.2706 32.775 20.1081 32.925C19.9706 32.9875 19.7332 32.175 19.5957 32.2375C19.4582 32.2875 18.9332 34.8875 19.9707 34.7125H19.9581ZM21.6207 37.475C22.6207 36.975 22.6457 34.775 22.5332 34.75C22.4207 34.725 21.9707 35.2125 21.8707 35.6875C21.8207 34.9125 21.6457 34.1875 21.4957 34.25C21.2707 34.3125 21.4082 35.5375 21.2832 35.725C21.1582 35.8 20.7331 35.075 20.6081 35.1625C20.4831 35.25 20.6581 37.9 21.6081 37.475H21.6207ZM23.3956 41.1C24.4456 40.7 24.7082 38.5 24.5957 38.475C24.4957 38.425 23.9832 38.8625 23.8457 39.325C23.8832 38.55 23.7707 37.8125 23.6207 37.8625C23.3832 37.9125 23.4082 39.1375 23.2582 39.3125C23.1332 39.3875 22.7706 38.625 22.6456 38.6875C22.5206 38.775 22.3956 41.4125 23.3956 41.0875V41.1Z" fill="#008F00"/>
</g>
<path id="Vector_52" fill-rule="evenodd" clip-rule="evenodd" d="M25.714 44.8544C25.4478 45.31 24.6059 45.3512 23.8234 44.9338C23.041 44.5164 22.6359 43.8099 22.9021 43.3543C23.1683 42.8987 24.0163 42.8608 24.7927 43.2749C25.569 43.6891 25.9802 44.3988 25.714 44.8544Z" fill="#FF1900" stroke="black" stroke-width="0.068461"/>
<g id="Group_7">
<path id="Vector_53" fill-rule="evenodd" clip-rule="evenodd" d="M45.9114 29.5933L46.0431 29.2533L46.3979 29.365L46.5296 29.025L46.8844 29.1368L46.7545 29.472L47.1195 29.5869L46.9859 29.9317L46.621 29.8167L46.2926 30.6643L45.9378 30.5526L46.2662 29.705L45.9114 29.5933V29.5933ZM45.1493 32.5877L45.5041 32.6994L41.6916 42.5398L41.3368 42.428L45.1493 32.5877Z" fill="#FFFF00" stroke="black" stroke-width="0.0313435"/>
<path id="Vector_54" fill-rule="evenodd" clip-rule="evenodd" d="M41.2201 42.203L41.9399 42.4297L40.8879 45.1447L40.1682 44.9181L41.2201 42.203ZM45.4521 30.7808L46.5318 31.1208C47.2464 31.3459 45.6257 32.9309 45.6257 32.9309L44.9111 32.7058C44.9111 32.7058 44.7324 30.5542 45.4521 30.7808V30.7808ZM46.4444 30.8032C46.3887 30.9468 46.1871 31.0123 45.9894 30.95C45.7917 30.8878 45.6741 30.7218 45.7279 30.5829C45.7817 30.444 45.9852 30.3738 46.1829 30.4361C46.3805 30.4983 46.4982 30.6643 46.4425 30.808L46.4444 30.8032Z" fill="#FFFF00" stroke="black" stroke-width="0.0313435"/>
</g>
<path id="Vector_55" fill-rule="evenodd" clip-rule="evenodd" d="M41.8062 43.6234C42.1077 44.0585 41.7597 44.7922 41.0126 45.2651C40.2655 45.7379 39.4227 45.7577 39.1212 45.3227C38.8197 44.8876 39.1735 44.1502 39.9147 43.6811C40.656 43.2119 41.5046 43.1884 41.8062 43.6234Z" fill="#FF1900" stroke="black" stroke-width="0.0684662"/>
</g>
</g>
<defs>
<clipPath id="clip0_2909_185414">
<path d="M0.246094 32C0.246094 14.3269 14.573 0 32.2461 0V0C49.9192 0 64.2461 14.3269 64.2461 32V32C64.2461 49.6731 49.9192 64 32.2461 64V64C14.573 64 0.246094 49.6731 0.246094 32V32Z" fill="white"/>
</clipPath>
</defs>
</svg>
