<svg width="65" height="64" viewBox="0 0 65 64" fill="none" xmlns="http://www.w3.org/2000/svg">
<g id="Rounded=Marshall Islands (MH)">
<g clip-path="url(#clip0_2909_185341)">
<g id="Group">
<path id="Vector" fill-rule="evenodd" clip-rule="evenodd" d="M0.246094 0H64.2336V64H0.246094V0Z" fill="#3B5AA3"/>
<path id="Vector_2" fill-rule="evenodd" clip-rule="evenodd" d="M17.6211 0.149994L16.9586 11.15L14.0586 4.13749L15.1836 11.6L10.6961 5.57499L13.6336 12.45L7.75859 7.88749L12.3336 13.625L5.68359 10.675L11.5086 15.0875L4.25859 14.125L11.1211 16.8375L0.371094 17.825L11.1211 18.5375L4.30859 21.3375L11.4961 20.375L5.69609 24.65L12.4211 21.7L7.83359 27.475L13.6711 23.05L10.7461 29.8L15.4211 23.95L14.1711 31.2375L17.0961 24.425L17.7711 35.1875L18.7961 24.45L21.3336 31.3125L20.3711 23.925L25.0211 29.775L21.9586 22.9375L27.7961 27.6375L23.1711 21.7625L30.0961 24.65L23.9586 20.175L31.4336 21.425L24.2711 18.675L35.3961 17.9875L24.2711 16.95L31.6211 14.5L24.0336 15.45L30.3086 11.075L23.2336 13.9125L28.1086 7.99999L22.1711 12.6375L25.0461 5.53749L20.4211 11.575L21.4211 4.03749L18.6711 11.15L17.6461 0.149994H17.6211Z" fill="#F5F5F5"/>
<path id="Vector_3" fill-rule="evenodd" clip-rule="evenodd" d="M0.246094 62.275L64.2461 0V11.5875L0.246094 64V62.275Z" fill="#E2AE57"/>
<path id="Vector_4" fill-rule="evenodd" clip-rule="evenodd" d="M2.4959 64L64.2459 23.9L64.2334 11.1625L0.233398 64H2.4834H2.4959Z" fill="#F5F5F5"/>
</g>
</g>
</g>
<defs>
<clipPath id="clip0_2909_185341">
<path d="M0.246094 32C0.246094 14.3269 14.573 0 32.2461 0V0C49.9192 0 64.2461 14.3269 64.2461 32V32C64.2461 49.6731 49.9192 64 32.2461 64V64C14.573 64 0.246094 49.6731 0.246094 32V32Z" fill="white"/>
</clipPath>
</defs>
</svg>
