<svg width="65" height="64" viewBox="0 0 65 64" fill="none" xmlns="http://www.w3.org/2000/svg">
<g id="Rounded=Mongolia (MN)">
<g clip-path="url(#clip0_2909_185337)">
<path id="Vector" d="M0.246094 0H64.2461V64H0.246094V0Z" fill="#C4272F"/>
<path id="Vector_2" d="M21.584 0H42.909V64H21.584V0Z" fill="#015197"/>
<path id="Vector_3" d="M10.9463 30.4125C12.8793 30.4125 14.4463 28.8455 14.4463 26.9125C14.4463 24.9795 12.8793 23.4125 10.9463 23.4125C9.01329 23.4125 7.44629 24.9795 7.44629 26.9125C7.44629 28.8455 9.01329 30.4125 10.9463 30.4125Z" fill="#F9CF02"/>
<path id="Vector_4" d="M10.9463 29.125C13.0519 29.125 14.7588 27.4181 14.7588 25.3125C14.7588 23.2069 13.0519 21.5 10.9463 21.5C8.8407 21.5 7.13379 23.2069 7.13379 25.3125C7.13379 27.4181 8.8407 29.125 10.9463 29.125Z" fill="#C4272F"/>
<path id="Vector_5" fill-rule="evenodd" clip-rule="evenodd" d="M9.3709 21.1875C9.40606 21.5826 9.58787 21.9502 9.88053 22.218C10.1732 22.4858 10.5555 22.6343 10.9521 22.6343C11.3488 22.6343 11.7311 22.4858 12.0238 22.218C12.3164 21.9502 12.4982 21.5826 12.5334 21.1875C12.5334 20.55 12.1459 20.4625 12.1459 20.225C12.1459 19.9875 12.3834 19.675 11.8959 19.275C12.1459 19.675 11.7459 19.75 11.7459 20.15C11.7459 20.55 11.8959 20.55 11.8959 20.8625C11.8959 20.9454 11.863 21.0249 11.8044 21.0835C11.7458 21.1421 11.6663 21.175 11.5834 21.175C11.5005 21.175 11.421 21.1421 11.3624 21.0835C11.3038 21.0249 11.2709 20.9454 11.2709 20.8625C11.2709 20.55 11.5834 20.2375 11.5834 19.75C11.5834 19.275 11.5084 19.125 11.2709 18.725C11.0209 18.325 10.6334 18 10.9459 17.6875C10.4709 17.85 10.7084 18.4875 10.7084 18.875C10.7084 19.275 10.3959 19.5125 10.3959 20C10.3959 20.4625 10.6334 20.55 10.6334 20.875C10.6334 20.9595 10.5998 21.0406 10.54 21.1004C10.4803 21.1602 10.3992 21.1938 10.3146 21.1938C10.2301 21.1938 10.149 21.1602 10.0893 21.1004C10.0295 21.0406 9.9959 20.9595 9.9959 20.875C9.9959 20.55 10.1584 20.55 10.1584 20.15C10.1584 19.75 9.7584 19.675 9.9959 19.275C9.5209 19.675 9.7584 19.9875 9.7584 20.225C9.7584 20.475 9.3584 20.55 9.3584 21.1875H9.3709Z" fill="#F9CF02"/>
<path id="Vector_6" d="M10.9465 28.5C12.3548 28.5 13.4965 27.3583 13.4965 25.95C13.4965 24.5417 12.3548 23.4 10.9465 23.4C9.53816 23.4 8.39648 24.5417 8.39648 25.95C8.39648 27.3583 9.53816 28.5 10.9465 28.5Z" fill="#F9CF02"/>
<path id="Vector_7" d="M3.94629 31.0375V46.3125H7.13379V31.0375H3.94629ZM14.7713 31.0375V46.3125H17.9463V31.0375H14.7713ZM7.77129 33.5875V34.8625H14.1213V33.5875H7.77129ZM7.77129 42.5V43.75H14.1213V42.5H7.77129ZM7.77129 31.0375H14.1213L10.9338 32.95L7.77129 31.0375ZM7.77129 44.4125H14.1213L10.9338 46.3125L7.77129 44.4125Z" fill="#F9CF02"/>
<path id="Vector_8" d="M10.9463 42.05C12.8103 42.05 14.3213 40.5389 14.3213 38.675C14.3213 36.811 12.8103 35.3 10.9463 35.3C9.08233 35.3 7.57129 36.811 7.57129 38.675C7.57129 40.5389 9.08233 42.05 10.9463 42.05Z" fill="#F9CF02" stroke="#C4272F" stroke-width="0.375"/>
<path id="Vector_9" d="M10.9463 35.3C11.3938 35.3 11.8231 35.4778 12.1395 35.7942C12.456 36.1107 12.6338 36.5399 12.6338 36.9875C12.6338 37.435 12.456 37.8643 12.1395 38.1807C11.8231 38.4972 11.3938 38.675 10.9463 38.675C10.4987 38.675 10.0695 38.8528 9.75305 39.1692C9.43658 39.4857 9.25879 39.9149 9.25879 40.3625C9.25879 40.81 9.43658 41.2393 9.75305 41.5557C10.0695 41.8722 10.4987 42.05 10.9463 42.05" stroke="#C4272F" stroke-width="0.375"/>
<path id="Vector_10" d="M10.9461 37.625C11.2982 37.625 11.5836 37.3396 11.5836 36.9875C11.5836 36.6354 11.2982 36.35 10.9461 36.35C10.594 36.35 10.3086 36.6354 10.3086 36.9875C10.3086 37.3396 10.594 37.625 10.9461 37.625Z" fill="#C4272F"/>
<path id="Vector_11" d="M10.9461 41C11.2982 41 11.5836 40.7146 11.5836 40.3625C11.5836 40.0104 11.2982 39.725 10.9461 39.725C10.594 39.725 10.3086 40.0104 10.3086 40.3625C10.3086 40.7146 10.594 41 10.9461 41Z" fill="#C4272F"/>
</g>
</g>
<defs>
<clipPath id="clip0_2909_185337">
<path d="M0.246094 32C0.246094 14.3269 14.573 0 32.2461 0V0C49.9192 0 64.2461 14.3269 64.2461 32V32C64.2461 49.6731 49.9192 64 32.2461 64V64C14.573 64 0.246094 49.6731 0.246094 32V32Z" fill="white"/>
</clipPath>
</defs>
</svg>
