<svg width="65" height="64" viewBox="0 0 65 64" fill="none" xmlns="http://www.w3.org/2000/svg">
<g id="Rounded=Northern Mariana Islands (MP)">
<g clip-path="url(#clip0_2909_185332)">
<g id="Group">
<path id="Vector" fill-rule="evenodd" clip-rule="evenodd" d="M-31.7539 0H96.2394V63.9902H-31.7539V0Z" fill="#0071BC"/>
<path id="Vector_2" fill-rule="evenodd" clip-rule="evenodd" d="M39.6419 50.6245C39.6419 50.6245 41.8996 48.2378 44.067 48.6893C44.7121 46.1865 47.1762 45.98 47.1762 45.98C47.1762 45.98 46.9311 43.2063 50.079 42.5999C50.1693 40.7163 52.0787 39.1424 52.0787 39.1424C52.0787 39.1424 51.6917 36.2267 53.6914 35.5429C52.4657 33.2207 54.1042 31.5436 54.0784 31.4919C54.0526 31.4403 52.0142 27.8151 53.8333 26.783C51.8981 25.1574 52.5432 23.2997 52.5432 23.2997C52.5432 23.2997 50.4274 22.7707 51.1885 20.2421C49.4598 19.9453 49.1114 17.1458 49.1114 17.1458C49.1114 17.1458 46.428 17.6747 46.1183 15.3525C44.3509 15.6363 44.1573 13.8946 44.1315 13.8946C44.1186 13.8946 40.6482 14.8364 39.9515 12.2175C38.6098 12.9012 38.0163 11.6627 38.0163 11.6627C38.0163 11.6627 36.0812 12.6174 34.9329 10.7725C32.6365 12.2046 31.3593 10.708 31.3593 10.708C31.3593 10.708 28.3404 12.7077 27.347 11.1596C25.5666 12.9658 23.9798 12.1917 23.9798 12.1917C23.9798 12.1917 22.6381 14.5655 20.4577 13.9591C19.9675 16.1782 17.4647 16.2169 17.4647 16.2169C17.4647 16.2169 17.7227 18.1779 14.7296 18.6939C14.3426 20.9903 12.7815 21.3903 12.7815 21.3903C12.7815 21.3903 12.9363 23.6222 11.5172 24.3318C12.0332 25.5961 10.7173 27.1313 10.7173 27.1313C10.7173 27.1313 12.1106 28.8988 10.2142 30.834C12.0461 31.3113 10.7302 34.4592 10.7302 34.4592C10.7302 34.4592 13.233 35.5945 11.6462 37.6845C13.4524 38.2522 12.8847 39.6971 12.9105 40.5357C14.0716 41.0518 15.0779 40.7937 14.5877 43.116C18.1226 43.503 16.4455 45.464 16.4455 45.464C16.4455 45.464 18.0968 45.5285 17.4518 46.8315C20.4577 46.767 20.8964 49.0892 20.8964 49.0892C20.8964 49.0892 23.696 48.3539 24.0701 49.4376C24.4313 50.5213 22.8445 57.8234 22.8445 57.8234C22.8445 57.8234 20.4835 57.8234 18.7161 55.9398C14.6006 55.8366 15.5166 53.1273 15.4521 53.1273C15.3876 53.1273 14.0845 53.6176 13.4137 51.3599C10.6528 51.9275 10.7431 49.6053 10.7173 49.5795C10.6915 49.5666 9.47878 49.0247 9.94323 47.8765C7.10495 48.1346 7.31137 45.3608 7.31137 45.3608C6.69211 45.1028 6.45989 44.5222 6.5502 43.9417C6.18896 43.8126 3.66032 43.7739 4.96334 40.4583C2.56371 39.0005 4.06026 37.3233 4.06026 37.3233C4.06026 37.3233 0.731734 35.6074 3.28618 33.6336C1.4026 30.834 3.4668 29.4148 3.4668 29.4148C3.4668 29.4148 0.822041 26.7314 3.5055 24.822C3.06686 20.7323 5.50519 19.7647 5.50519 19.7647C5.50519 19.7647 4.21507 16.4491 7.69841 15.0558C7.91773 11.7014 10.3432 11.5982 10.3432 11.5982C10.3432 11.5982 10.4077 8.92766 14.2135 9.19859C14.9618 6.81186 17.5679 7.2892 17.5679 7.2892C17.5679 7.2892 18.3677 4.39932 21.9027 5.79266C23.7089 2.27062 26.3794 4.07679 26.3794 4.07679C26.3794 4.07679 28.0695 2.96728 28.921 3.30272C29.9918 1.47074 32.2753 3.23821 33.7589 3.59944C34.3008 3.39302 36.2102 1.94808 37.6809 3.76716C39.6419 2.47704 41.3062 4.79926 41.3062 4.79926C41.3062 4.79926 44.0025 3.41883 45.254 6.55383C50.9692 6.03778 50.1435 9.76624 50.1435 9.76624C50.1435 9.76624 54.6332 8.73414 53.6527 13.2109C57.7424 13.4947 57.3295 16.1782 57.3295 16.1782C57.3295 16.1782 59.9098 18.1392 58.7745 19.8937C61.0709 19.9969 60.2323 22.2159 60.2323 22.2159C60.2323 22.2159 61.9869 22.8868 60.529 25.6219C63.8963 28.3182 61.1741 30.9759 61.1741 30.963C61.1354 30.9372 62.9674 33.1304 61.316 35.6461C61.8192 39.6455 59.7937 40.6647 59.7937 40.6647C59.7937 40.6647 60.3097 43.245 58.0649 43.9804C58.0133 47.0121 55.1492 47.3863 55.1492 47.3863C55.1492 47.3863 55.9233 48.7022 53.0721 50.0955C52.956 52.1339 49.9887 52.2888 49.9887 52.2888C49.9887 52.2888 49.7049 56.0301 45.9248 55.0238C45.0217 58.0169 40.5966 57.1267 40.5063 57.088C40.416 57.0493 39.6548 50.6632 39.6548 50.6374L39.6419 50.6245Z" fill="#F5F5F5" stroke="black" stroke-width="0.245124"/>
<path id="Vector_3" fill-rule="evenodd" clip-rule="evenodd" d="M12.2269 14.8107C12.2269 14.8107 13.1816 15.6363 13.0009 16.8749C12.8203 18.1134 12.1107 19.8292 12.2527 21.1065C12.343 21.6225 12.3043 22.5385 12.3043 22.5385C12.3043 22.5385 11.4528 21.3258 11.4399 20.0228C11.427 18.7197 12.3688 17.4812 12.3688 16.5136C12.3688 15.546 12.2011 14.7977 12.2269 14.8107V14.8107ZM11.7495 15.1848C11.7495 15.1848 10.511 16.3717 10.3562 17.5199C10.2272 18.1134 10.1885 20.8742 10.1756 22.1128L9.95624 24.5124C9.91753 25.0542 10.8593 23.5835 10.9238 22.3966C10.872 20.9898 10.9022 19.5812 11.0141 18.1779C11.1303 17.6618 11.1045 17.1071 11.2722 16.6039L11.7495 15.1848V15.1848Z" fill="#217900" stroke="black" stroke-width="0.245124" stroke-linejoin="round"/>
<g id="Group_2">
<path id="Vector_4" fill-rule="evenodd" clip-rule="evenodd" d="M39.0605 11.3144C39.0605 11.3144 40.6731 10.5661 41.1247 9.18568C41.5762 7.80525 39.7313 7.79235 39.4862 8.23099C39.2411 8.66963 39.6926 9.76624 39.5765 10.0501C39.4604 10.3468 38.8024 11.0435 39.0605 11.3144Z" fill="#FFD200" stroke="#EF8A10" stroke-width="0.245124"/>
<path id="Vector_5" fill-rule="evenodd" clip-rule="evenodd" d="M24.7918 11.8175C24.7918 11.8175 25.8368 10.3855 25.5659 8.95345C25.3078 7.52141 23.6694 8.41159 23.6694 8.91474C23.6694 9.41789 24.5983 10.1533 24.637 10.4629C24.6757 10.7725 24.4435 11.7014 24.7918 11.8175ZM21.9664 12.669C21.9664 12.669 23.0114 11.237 22.7405 9.80493C22.4825 8.37289 20.844 9.26308 20.844 9.76623C20.844 10.2694 21.7729 11.0047 21.8116 11.3144C21.8503 11.624 21.6181 12.5529 21.9664 12.669ZM18.8314 13.6366C18.8314 13.6366 19.8764 12.2046 19.6055 10.7725C19.3475 9.34048 17.709 10.2307 17.709 10.7338C17.709 11.237 18.6379 11.9723 18.6766 12.282C18.7153 12.5916 18.4831 13.5205 18.8314 13.6366ZM16.6382 15.8298C16.6382 15.8298 17.6703 14.4107 17.4123 12.9786C17.1284 11.5466 15.5029 12.4368 15.5029 12.9399C15.5029 13.4431 16.4318 14.1785 16.4705 14.4881C16.5092 14.7977 16.277 15.7266 16.6253 15.8427L16.6382 15.8298ZM14.316 17.9714C14.316 17.9714 15.3481 16.5394 15.0901 15.1073C14.8062 13.6753 13.1807 14.5655 13.1807 15.0686C13.1807 15.5718 14.1096 16.3072 14.1483 16.6168C14.187 16.9264 13.9547 17.8553 14.3031 17.9714H14.316Z" fill="#FFD200" stroke="#EF8A10" stroke-width="0.335432"/>
<path id="Vector_6" fill-rule="evenodd" clip-rule="evenodd" d="M19.6444 5.57333C19.6444 5.57333 18.251 6.66993 18.1349 8.11487C18.0059 9.57272 19.8121 9.14697 19.9411 8.66963C20.0701 8.17938 19.3863 7.22469 19.425 6.91506C19.4767 6.60543 19.9411 5.77975 19.6444 5.57333ZM24.2888 4.14129C24.2888 4.14129 22.8955 5.23789 22.7665 6.68284C22.6375 8.14068 24.4436 7.71494 24.5855 7.23759C24.7146 6.74734 24.0308 5.79265 24.0695 5.48302C24.1211 5.17339 24.5855 4.34771 24.2888 4.14129V4.14129ZM6.98824 16.6684C6.98824 16.6684 7.27207 18.423 8.48479 19.2229C9.6975 20.0227 10.2007 18.2553 9.83942 17.894C9.47818 17.5328 8.30417 17.7005 8.05905 17.507C7.80102 17.3264 7.31077 16.5007 6.98824 16.6684ZM4.66602 22.603C4.66602 22.603 4.67892 24.3834 5.74972 25.3638C6.82053 26.3572 7.5946 24.6801 7.29787 24.2672C7.00114 23.8544 5.81423 23.8286 5.59491 23.6093C5.37559 23.3771 5.01435 22.4998 4.66602 22.603ZM10.02 29.2342C10.02 29.2342 9.37497 27.5829 8.03324 27.041C6.69151 26.4863 6.5496 28.3311 6.97534 28.5892C7.38818 28.873 8.52349 28.4988 8.79442 28.6279C9.07824 28.7569 9.72331 29.4664 10.02 29.2342V29.2342ZM8.89763 26.3701C8.89763 26.3701 9.98133 24.951 9.73621 23.5319C9.49109 22.0869 7.85263 22.9513 7.83972 23.4545C7.83972 23.9576 8.74281 24.7059 8.78152 25.0155C8.80732 25.3251 8.5622 26.254 8.91053 26.3701H8.89763ZM42.3635 12.7464C42.3635 12.7464 43.9632 11.9982 44.4277 10.6177C44.8921 9.23728 43.0343 9.22438 42.7892 9.66302C42.5441 10.1017 42.9956 11.1983 42.8795 11.4821C42.7634 11.7788 42.1054 12.4755 42.3635 12.7464V12.7464ZM47.2272 15.1719C47.2272 15.1719 48.169 13.6753 47.8078 12.2562C47.4466 10.8499 45.8726 11.8433 45.9113 12.3465C45.95 12.8625 46.9176 13.5205 46.9821 13.8301C47.0466 14.1398 46.866 15.0815 47.2272 15.1719V15.1719ZM60.5155 28.9633C60.5155 28.9633 59.8705 27.3119 58.5287 26.7572C57.1741 26.2024 57.0451 28.0473 57.4579 28.3311C57.8837 28.5892 59.0061 28.215 59.2899 28.3569C59.5737 28.4859 60.2188 29.1955 60.5155 28.9633V28.9633ZM54.0133 29.9954C54.0133 29.9954 54.052 28.215 55.1357 27.2474C56.2194 26.2669 56.9677 27.957 56.671 28.3569C56.3613 28.7569 55.1744 28.7827 54.9551 29.002C54.7358 29.2342 54.3616 30.1115 54.0133 29.9954V29.9954ZM52.9683 11.1983C52.9683 11.1983 51.3169 10.5661 50.001 11.1983C48.6851 11.8304 49.9752 13.1851 50.4655 13.0432C50.9557 12.9141 51.4072 11.8304 51.704 11.7014C51.9878 11.5853 52.9425 11.5724 52.9683 11.1983V11.1983ZM49.1753 8.02457C49.1753 8.02457 47.524 7.3924 46.208 8.02457C44.905 8.66963 46.1822 10.0114 46.6725 9.86944C47.1627 9.74043 47.6272 8.65673 47.911 8.52771C48.1948 8.4116 49.1624 8.3987 49.1753 8.02457ZM43.5246 4.99277C43.5246 4.99277 42.1183 6.07648 41.9764 7.53432C41.8474 8.97926 43.6536 8.57932 43.7826 8.10197C43.9245 7.61173 43.2408 6.65703 43.2924 6.3474C43.344 6.03777 43.8213 5.21209 43.5246 5.00567V4.99277ZM39.8348 4.12839C39.8348 4.12839 39.1898 5.77975 39.8219 7.09568C40.4541 8.4116 41.7958 7.12148 41.6668 6.64413C41.5378 6.16679 40.4412 5.68944 40.3251 5.39271C40.209 5.10888 40.1961 4.15419 39.8348 4.12839V4.12839ZM29.3848 10.4887C29.3848 10.4887 30.533 9.14697 30.3653 7.68913C30.1976 6.24419 28.5075 7.01827 28.4688 7.52142C28.443 8.02457 29.3074 8.81154 29.3332 9.13407C29.3332 9.4437 29.0494 10.3468 29.3848 10.4887Z" fill="#FFD200" stroke="#EF8A10" stroke-width="0.245124"/>
</g>
<path id="Vector_7" fill-rule="evenodd" clip-rule="evenodd" d="M35.6167 13.3786C35.6167 13.3786 38.3646 13.5592 38.5066 15.1332C38.6485 16.7071 37.8486 17.6618 37.8486 17.6618C37.8486 17.6618 38.1969 21.0677 35.5006 22.0611C32.6236 22.4095 28.1082 22.1385 28.1082 22.1385C28.1082 22.1385 26.7922 22.474 26.2504 19.726C25.7085 16.978 25.5537 15.0299 25.5537 15.0299C25.5537 15.0299 25.8246 13.4947 27.7598 13.4044C29.695 13.3012 35.6038 13.4173 35.6296 13.3786H35.6167Z" fill="#8C8A8C" stroke="black" stroke-width="0.245124"/>
<path id="Vector_8" d="M37.8353 17.6489C37.8353 17.6489 36.3516 19.4938 36.5064 20.2292" stroke="black" stroke-width="0.245124" stroke-linecap="round"/>
<path id="Vector_9" fill-rule="evenodd" clip-rule="evenodd" d="M35.8488 21.9708C36.21 22.2804 36.5583 22.6159 36.6357 23.7512L36.7906 26.0218L38.7129 43.3095L40.4029 55.8108L40.519 57.746C40.519 57.746 40.1191 59.1651 38.9709 59.2941C38.1581 61.01 33.6814 61.5132 33.2427 61.4873C32.8428 61.4744 31.4107 60.881 30.5464 60.9584C29.682 61.0358 28.1854 61.6035 27.5146 61.5131C26.8437 61.4228 25.3214 60.8939 25.0633 59.7973C23.1797 59.2038 22.8701 57.7718 22.8701 57.7718L24.9085 43.3095L26.8824 25.0155C26.8824 25.0155 27.1146 22.5772 28.0951 22.2159C29.1143 22.1256 34.378 22.3192 35.8488 21.9579V21.9708Z" fill="#8C8A8C" stroke="black" stroke-width="0.245124"/>
<path id="Vector_10" d="M37.9129 48.6893L39.0353 59.2297M25.4761 46.9993L25.0762 59.7844L25.4761 46.9993Z" stroke="black" stroke-width="0.245124"/>
<path id="Vector_11" d="M58.1809 39.8907L58.2196 40.0197M5.05356 40.3422L5.00195 40.497L5.05356 40.3422Z" stroke="black" stroke-width="0.129012"/>
<path id="Vector_12" d="M3.62164 23.0803C3.62164 23.0803 4.47312 24.2415 4.61503 24.9123C4.76985 25.5832 5.05368 26.8991 5.41491 27.441C5.78905 27.9699 7.86615 30.9759 7.99516 32.2273C7.99516 33.0401 7.11788 34.4463 5.80195 34.4721C4.98917 34.4463 2.87337 33.9045 2.78306 32.0983C2.69275 30.2921 3.42812 30.2405 3.51843 29.131C3.60874 28.0344 3.62164 23.1061 3.62164 23.0674V23.0803Z" stroke="#6B18B5" stroke-width="0.245124" stroke-linejoin="round"/>
<path id="Vector_13" d="M18.0839 7.22471C18.0839 7.22471 17.2066 7.27631 16.5357 7.63755C16.0197 7.96008 15.1424 8.41162 14.5231 9.27601C12.9621 10.4887 10.6012 11.0564 9.86579 12.0756C9.41425 12.7593 9.44005 14.4236 10.5625 15.1203C11.272 15.5331 13.362 16.1653 14.3683 14.6687C15.4004 13.1593 14.7812 12.7335 15.2714 11.753C16.11 9.49533 18.071 7.23761 18.0839 7.21181V7.22471ZM39.2032 5.00569C39.2032 5.00569 38.5582 4.41223 37.8228 4.19291C37.2293 4.0381 36.2488 4.1026 35.2296 3.99939C33.2558 3.72847 31.2303 2.30933 29.9917 2.47705C29.1919 2.64476 28.0178 3.81878 28.2888 5.096C28.4823 5.89588 29.3725 7.50853 31.1658 7.186C32.9461 6.87637 32.9332 6.47643 33.9911 6.1539C36.5585 4.70896 39.1774 4.99279 39.2032 4.99279V5.00569ZM60.1549 25.3639C60.3097 25.0284 60.0258 24.4092 59.8452 23.6609C59.6517 23.0803 59.3808 22.1773 58.697 21.3774C57.8842 19.5712 58.0262 17.0813 57.2263 16.1266C56.6586 15.5202 55.0331 15.1461 54.0913 16.0621C53.5236 16.6555 52.4141 18.5262 53.6268 19.8808C54.8395 21.2226 55.3685 20.7194 56.2071 21.429C58.2068 22.7707 59.1744 25.1187 60.1549 25.3639V25.3639ZM59.4582 41.2066C59.7162 40.8196 60.2194 40.11 60.1549 39.5036C60.1162 39.0134 60.3742 37.5684 60.4129 36.9234C60.5935 34.9624 61.832 33.3497 61.4837 31.6339C61.2902 30.8469 60.1162 29.6987 58.8518 30.0341C58.0649 30.2792 56.3232 31.2339 56.7231 33.0014C57.1231 34.7818 57.6907 34.7431 58.0778 35.7881C59.1615 37.9297 58.4648 40.4712 59.4582 41.2066Z" stroke="#6B18B5" stroke-width="0.129012" stroke-linejoin="round"/>
<path id="Vector_14" d="M18.4702 54.0046C18.4702 54.0046 18.7798 55.5657 18.754 55.9398M44.9177 53.7724C44.9177 53.7724 44.5823 54.4175 45.924 54.9722L44.9177 53.7724ZM47.6012 52.25C47.6012 52.25 49.0848 51.8888 50.0911 52.25H47.6012ZM52.0521 48.4829C52.0521 48.5087 51.8457 49.1537 53.0326 50.0826L52.0521 48.4829ZM52.9036 46.8057C52.9036 46.8057 53.7809 47.4508 55.2516 47.425L52.9036 46.8057ZM44.0663 48.6893C44.0663 48.6893 44.1179 50.3923 43.2406 51.1921L44.0663 48.6893ZM47.0077 46.0574C47.0077 46.0574 48.4398 46.4187 49.6267 45.8252L47.0077 46.0574ZM56.245 43.5675C56.245 43.5675 56.5547 44.0061 58.1544 43.9287L56.245 43.5675ZM50.0266 42.5612C50.0653 42.587 51.8973 43.1805 53.0584 42.6386L50.0266 42.5612ZM53.6777 35.5429C53.6777 35.5429 53.7551 35.4526 54.3227 37.4394L53.6777 35.5429ZM55.0968 29.9567C55.0968 29.9567 55.0194 31.0146 54.1679 31.479L55.0968 29.9567ZM60.5282 25.6348C60.5282 25.6348 59.2897 26.6411 59.5219 27.0539L60.5282 25.6348ZM54.3614 24.9123C54.3614 24.9123 55.0065 25.996 53.9615 26.7443L54.3614 24.9123ZM51.2523 20.2808C51.2523 20.2808 52.3618 20.2291 52.852 21.1838L51.2523 20.2808ZM49.1622 17.1328H50.0137H49.1622ZM53.5745 13.2625C53.5745 13.3012 53.8067 13.5076 53.3681 13.9462L53.5745 13.2625ZM45.666 13.3786C45.666 13.3786 46.2595 14.3075 46.1563 15.4428L45.666 13.3786ZM49.0848 10.2307C49.3429 10.2049 50.2202 9.81784 50.2202 9.81784L49.0848 10.2307ZM45.279 6.54092C45.2532 6.54092 44.9435 7.70203 45.5112 8.11487L45.279 6.54092ZM43.8469 11.8304C43.8469 13.069 44.8274 12.7593 44.1566 13.9462L43.8469 11.8304ZM41.4473 10.7983C40.8762 11.1977 40.3562 11.6656 39.8992 12.1917L41.4473 10.7983ZM37.4866 10.1533C37.4866 10.1533 38.1317 10.7983 37.9769 11.6756L37.4866 10.1533ZM35.603 9.63722C35.603 9.63722 35.2676 10.6177 34.829 10.8757L35.603 9.63722ZM32.1713 9.3792C32.1455 9.4308 31.6294 10.5403 31.2682 10.7467L32.1713 9.3792ZM27.4881 9.405C27.514 9.405 28.0042 10.4371 27.3591 11.1854L27.4881 9.405ZM26.4044 4.07678C26.4302 4.10258 26.5077 4.87666 26.0174 5.54752L26.4044 4.07678ZM21.76 5.83135C21.76 5.85715 21.9793 6.70864 20.5989 6.99246L21.76 5.83135ZM19.1668 13.6753C19.1926 13.7269 20.4828 13.9333 20.4828 13.9333L19.1668 13.6753ZM15.9544 16.6555C16.4722 16.4841 16.9927 16.3207 17.5155 16.1653L15.9544 16.6555ZM13.4516 18.5907C13.5032 18.5907 14.5353 18.7713 14.7933 18.6423L13.4516 18.5907ZM12.7291 19.5454C12.7291 19.5454 13.0646 19.726 12.7807 21.4548L12.7291 19.5454ZM7.69763 15.0041L8.32979 15.933L7.69763 15.0041ZM5.59473 19.7776C5.59473 19.7518 6.21399 20.7065 7.03967 20.8871L5.59473 19.7776ZM10.4585 24.6285C10.4843 24.6285 11.4648 24.4091 11.6196 24.3059L10.4585 24.6285ZM10.0199 28.1247C10.0457 28.1247 9.99405 27.4796 10.7939 27.041L10.0199 28.1247ZM8.96195 29.7245C8.96195 29.7503 9.71022 30.6792 10.2263 30.8082L8.96195 29.7245ZM8.52331 31.4919C8.60072 31.4661 9.4006 30.7695 10.3295 30.8211L8.52331 31.4919ZM8.26529 33.8916C8.26529 33.8916 8.29109 34.6914 10.6649 34.485L8.26529 33.8916ZM8.49751 36.7169C8.49751 36.6911 9.19417 35.1172 10.6133 34.5237L8.49751 36.7169ZM10.4069 38.7295C10.4069 38.7295 10.6133 38.0587 11.8002 37.5942L10.4069 38.7295ZM11.7228 41.3743C11.7228 41.3743 12.5743 40.6776 12.8839 40.5744L11.7228 41.3743ZM12.7807 43.4385C12.7807 43.4385 13.2968 43.9803 14.5869 43.0515L12.7807 43.4385ZM6.56232 43.8642C6.71714 43.8384 8.58782 43.3998 9.23288 44.3803L6.56232 43.8642ZM7.29769 45.4124C7.29769 45.4124 9.28448 45.1544 9.54251 45.3608L7.29769 45.4124ZM14.3934 45.8252C14.3934 45.8252 14.1354 46.3671 16.5866 45.464L14.3934 45.8252ZM17.4252 46.8057C16.9865 47.5411 17.5284 48.1345 16.9607 48.4829L17.4252 46.8057ZM9.99405 47.8378C10.0586 47.7733 10.8971 47.4895 10.7681 46.3155L9.99405 47.8378ZM10.7294 49.6053C10.8326 49.5795 12.2002 48.986 12.484 49.2957L10.7294 49.6053ZM13.4 51.347C13.4 51.347 13.5806 50.1342 13.9676 50.0052L13.4 51.347ZM15.4513 53.1789C15.4513 53.1789 16.5866 53.1531 17.0768 52.7919L15.4513 53.1789ZM17.6445 49.0763C17.6703 49.1021 18.7024 49.644 20.8956 49.1021L17.6445 49.0763Z" stroke="black" stroke-width="0.245124"/>
<g id="Group_3">
<path id="Vector_15" fill-rule="evenodd" clip-rule="evenodd" d="M58.0414 29.8243C57.98 29.3328 57.7277 28.8651 57.4108 28.6552C57.0431 28.4266 56.6615 28.4743 56.409 28.7804C56.1566 29.0865 56.0003 29.5802 56.0617 30.0717C56.1262 30.5878 56.3754 31.0308 56.6954 31.2653C57.0631 31.4939 57.4447 31.4462 57.6972 31.1401C57.9496 30.834 58.1297 30.3373 58.0445 29.8488L58.0414 29.8243Z" fill="#DE2010" stroke="black" stroke-width="0.243983"/>
<path id="Vector_16" fill-rule="evenodd" clip-rule="evenodd" d="M57.8226 27.2053C57.7612 26.7138 57.509 26.2462 57.192 26.0362C56.8243 25.8076 56.4427 25.8553 56.1903 26.1614C55.9379 26.4675 55.7816 26.9613 55.843 27.4527C55.9075 27.9688 56.1567 28.4119 56.4767 28.6464C56.8444 28.875 57.226 28.8273 57.4784 28.5212C57.7308 28.2151 57.911 27.7184 57.8257 27.2299L57.8226 27.2053Z" fill="#DE2010" stroke="black" stroke-width="0.243983"/>
<path id="Vector_17" fill-rule="evenodd" clip-rule="evenodd" d="M57.2836 24.4212C57.1792 23.937 56.8868 23.4934 56.5527 23.3121C56.1663 23.1167 55.7903 23.1977 55.5658 23.5248C55.3412 23.8519 55.2289 24.3575 55.3333 24.8417C55.4429 25.3501 55.7301 25.7695 56.0694 25.975C56.4558 26.1704 56.8318 26.0893 57.0563 25.7623C57.2809 25.4352 57.4167 24.9245 57.2888 24.4454L57.2836 24.4212Z" fill="#DE2010" stroke="black" stroke-width="0.243984"/>
<path id="Vector_18" fill-rule="evenodd" clip-rule="evenodd" d="M56.3188 21.5032C56.0945 21.0617 55.6987 20.7072 55.3293 20.6171C54.9059 20.5266 54.563 20.7009 54.4293 21.0744C54.2955 21.4479 54.3158 21.9654 54.5402 22.407C54.7758 22.8706 55.1603 23.203 55.5409 23.3152C55.9643 23.4056 56.3072 23.2314 56.4409 22.8579C56.5747 22.4844 56.5758 21.956 56.33 21.5253L56.3188 21.5032Z" fill="#DE2010" stroke="black" stroke-width="0.243983"/>
<path id="Vector_19" fill-rule="evenodd" clip-rule="evenodd" d="M55.2866 19.1552C55.0622 18.7136 54.6664 18.3592 54.2971 18.269C53.8737 18.1786 53.5308 18.3528 53.3971 18.7264C53.2633 19.0999 53.2836 19.6174 53.5079 20.0589C53.7435 20.5226 54.1281 20.855 54.5087 20.9672C54.9321 21.0576 55.2749 20.8834 55.4087 20.5099C55.5424 20.1364 55.5436 19.608 55.2978 19.1773L55.2866 19.1552Z" fill="#DE2010" stroke="black" stroke-width="0.243983"/>
<path id="Vector_20" fill-rule="evenodd" clip-rule="evenodd" d="M53.822 16.8028C53.561 16.3818 53.1366 16.0621 52.761 16.0036C52.3314 15.9493 52.0045 16.152 51.9029 16.5355C51.8013 16.919 51.8653 17.4329 52.1262 17.8539C52.4002 18.2959 52.8116 18.5945 53.2003 18.6741C53.6298 18.7284 53.9567 18.5257 54.0583 18.1422C54.16 17.7587 54.1164 17.2321 53.835 16.8238L53.822 16.8028Z" fill="#DE2010" stroke="black" stroke-width="0.243984"/>
<path id="Vector_21" fill-rule="evenodd" clip-rule="evenodd" d="M52.1819 14.5301C51.8814 14.1363 51.4281 13.8592 51.0486 13.8372C50.6158 13.8248 50.31 14.058 50.2459 14.4496C50.1819 14.8411 50.2953 15.3464 50.5957 15.7402C50.9112 16.1537 51.3495 16.4112 51.744 16.4528C52.1768 16.4653 52.4826 16.232 52.5467 15.8404C52.6107 15.4489 52.5164 14.929 52.1969 14.5498L52.1819 14.5301Z" fill="#DE2010" stroke="black" stroke-width="0.243984"/>
<path id="Vector_22" fill-rule="evenodd" clip-rule="evenodd" d="M50.2317 12.4253C49.8773 12.0792 49.3886 11.8707 49.0099 11.904C48.5799 11.9544 48.3112 12.2295 48.3045 12.6262C48.2979 13.0229 48.4833 13.5065 48.8377 13.8526C49.2097 14.2159 49.6807 14.4071 50.0772 14.3911C50.5072 14.3407 50.7759 14.0656 50.7825 13.6689C50.7892 13.2722 50.6205 12.7715 50.2494 12.4426L50.2317 12.4253Z" fill="#DE2010" stroke="black" stroke-width="0.243985"/>
<path id="Vector_23" fill-rule="evenodd" clip-rule="evenodd" d="M48.0334 10.4686C47.6487 10.1566 47.1429 9.99388 46.7689 10.0619C46.3453 10.1516 46.103 10.4503 46.1329 10.8459C46.1628 11.2416 46.3919 11.706 46.7766 12.018C47.1805 12.3456 47.6671 12.4927 48.0604 12.4403C48.4839 12.3505 48.7262 12.0519 48.6963 11.6562C48.6665 11.2606 48.4524 10.7775 48.0526 10.4842L48.0334 10.4686Z" fill="#DE2010" stroke="black" stroke-width="0.243983"/>
<path id="Vector_24" fill-rule="evenodd" clip-rule="evenodd" d="M45.6997 8.91596C45.2686 8.67213 44.7428 8.59568 44.3852 8.72484C43.9824 8.88365 43.7931 9.21841 43.8882 9.60359C43.9834 9.98876 44.2865 10.4087 44.7176 10.6525C45.1703 10.9086 45.6745 10.9728 46.0536 10.8558C46.4564 10.697 46.6457 10.3623 46.5506 9.97709C46.4555 9.59192 46.1642 9.15105 45.7213 8.92815L45.6997 8.91596Z" fill="#DE2010" stroke="black" stroke-width="0.243984"/>
<path id="Vector_25" fill-rule="evenodd" clip-rule="evenodd" d="M43.0892 7.5442C42.6377 7.34062 42.1071 7.31235 41.7628 7.47352C41.3761 7.66833 41.218 8.01894 41.3478 8.39385C41.4776 8.76877 41.8177 9.15939 42.2692 9.36296C42.7433 9.57671 43.2513 9.5948 43.6182 9.44382C44.0049 9.249 44.1629 8.8984 44.0331 8.52348C43.9034 8.14856 43.5732 7.73604 43.1118 7.55438L43.0892 7.5442Z" fill="#DE2010" stroke="black" stroke-width="0.243983"/>
<path id="Vector_26" fill-rule="evenodd" clip-rule="evenodd" d="M40.5364 6.50799C40.0722 6.33514 39.541 6.3425 39.2082 6.52639C38.8355 6.74668 38.7013 7.10709 38.8559 7.47246C39.0105 7.83784 39.376 8.20477 39.8402 8.37762C40.3276 8.55911 40.8356 8.54311 41.1916 8.36786C41.5643 8.14757 41.6985 7.78716 41.5439 7.42178C41.3892 7.05641 41.0322 6.66695 40.5596 6.51663L40.5364 6.50799Z" fill="#DE2010" stroke="black" stroke-width="0.243984"/>
<path id="Vector_27" fill-rule="evenodd" clip-rule="evenodd" d="M37.9427 5.69025C37.4667 5.55333 36.9376 5.60121 36.6198 5.80996C36.265 6.05806 36.1587 6.42766 36.3408 6.78017C36.5228 7.13268 36.9152 7.47066 37.3913 7.60758C37.8911 7.75134 38.3964 7.69661 38.738 7.49471C39.0928 7.24661 39.1991 6.87701 39.017 6.5245C38.835 6.17199 38.4492 5.81091 37.9665 5.69709L37.9427 5.69025Z" fill="#DE2010" stroke="black" stroke-width="0.243984"/>
<path id="Vector_28" fill-rule="evenodd" clip-rule="evenodd" d="M35.0764 5.20604C34.585 5.14406 34.0695 5.27287 33.7877 5.52806C33.4753 5.82784 33.4272 6.20941 33.6614 6.52967C33.8956 6.84993 34.3353 7.12345 34.8267 7.18542C35.3427 7.2505 35.8336 7.11859 36.14 6.86651C36.4524 6.56672 36.5005 6.18516 36.2663 5.86489C36.0321 5.54463 35.5954 5.24727 35.101 5.20914L35.0764 5.20604Z" fill="#DE2010" stroke="black" stroke-width="0.243983"/>
<path id="Vector_29" fill-rule="evenodd" clip-rule="evenodd" d="M32.2558 5.05383C31.7609 5.03396 31.2583 5.20622 30.9993 5.4845C30.7136 5.80981 30.6982 6.1941 30.9588 6.49324C31.2194 6.79238 31.6809 7.02742 32.1758 7.04729C32.6954 7.06816 33.1733 6.8949 33.4571 6.61761C33.7428 6.2923 33.7582 5.90802 33.4976 5.60888C33.237 5.30973 32.7765 5.05068 32.2806 5.05482L32.2558 5.05383Z" fill="#DE2010" stroke="black" stroke-width="0.243984"/>
<path id="Vector_30" fill-rule="evenodd" clip-rule="evenodd" d="M29.6631 5.13125C29.1682 5.11138 28.6655 5.28365 28.4065 5.56192C28.1208 5.88724 28.1054 6.27152 28.366 6.57066C28.6266 6.8698 29.0881 7.10484 29.583 7.12471C30.1027 7.14558 30.5806 6.97232 30.8643 6.69504C31.15 6.36972 31.1655 5.98544 30.9048 5.6863C30.6442 5.38716 30.1837 5.1281 29.6878 5.13224L29.6631 5.13125Z" fill="#DE2010" stroke="black" stroke-width="0.243984"/>
<path id="Vector_31" fill-rule="evenodd" clip-rule="evenodd" d="M26.6414 5.50422C26.1586 5.61459 25.7186 5.91242 25.5414 6.2488C25.3508 6.63756 25.4365 7.01247 25.7664 7.23296C26.0962 7.45344 26.6031 7.55948 27.086 7.44911C27.593 7.33322 28.0088 7.0409 28.2101 6.69901C28.4007 6.31025 28.315 5.93533 27.9852 5.71485C27.6553 5.49436 27.143 5.36489 26.6656 5.4987L26.6414 5.50422Z" fill="#DE2010" stroke="black" stroke-width="0.243984"/>
<path id="Vector_32" fill-rule="evenodd" clip-rule="evenodd" d="M23.8809 6.19017C23.4088 6.34 22.9949 6.67311 22.8461 7.02295C22.6882 7.42611 22.8045 7.79268 23.1514 7.98521C23.4983 8.17773 24.0123 8.2416 24.4844 8.09177C24.9801 7.93446 25.3704 7.60884 25.5428 7.2515C25.7007 6.84835 25.5844 6.48178 25.2375 6.28925C24.8905 6.09672 24.3693 6.00995 23.9045 6.18268L23.8809 6.19017Z" fill="#DE2010" stroke="black" stroke-width="0.243984"/>
<path id="Vector_33" fill-rule="evenodd" clip-rule="evenodd" d="M21.3665 7.27784C20.9156 7.48283 20.5443 7.86287 20.4382 8.22794C20.3295 8.64703 20.4886 8.99713 20.856 9.14697C21.2234 9.2968 21.7412 9.299 22.1921 9.09401C22.6656 8.87877 23.0143 8.50897 23.143 8.13365C23.2517 7.71456 23.0925 7.36446 22.7252 7.21462C22.3578 7.06479 21.83 7.04071 21.389 7.26759L21.3665 7.27784Z" fill="#DE2010" stroke="black" stroke-width="0.243983"/>
<path id="Vector_34" fill-rule="evenodd" clip-rule="evenodd" d="M18.8561 8.56239C18.4243 8.8051 18.0868 9.21543 18.0122 9.58822C17.9397 10.0151 18.1281 10.3503 18.5069 10.4683C18.8857 10.5862 19.4019 10.5442 19.8337 10.3015C20.287 10.0467 20.603 9.64846 20.6991 9.26353C20.7717 8.8367 20.5832 8.50145 20.2044 8.3835C19.8256 8.26555 19.2976 8.28659 18.8777 8.55025L18.8561 8.56239Z" fill="#DE2010" stroke="black" stroke-width="0.243982"/>
<path id="Vector_35" fill-rule="evenodd" clip-rule="evenodd" d="M16.4861 10.1697C16.0832 10.4578 15.7923 10.9024 15.7587 11.2811C15.7329 11.7133 15.9567 12.0261 16.3461 12.1022C16.7355 12.1783 17.244 12.0804 17.6469 11.7922C18.0699 11.4896 18.3407 11.0595 18.3944 10.6664C18.4201 10.2342 18.1964 9.9214 17.807 9.84531C17.4176 9.76922 16.895 9.84751 16.5062 10.1552L16.4861 10.1697Z" fill="#DE2010" stroke="black" stroke-width="0.243983"/>
<path id="Vector_36" fill-rule="evenodd" clip-rule="evenodd" d="M14.2855 11.8313C13.9085 12.1525 13.6562 12.6201 13.6548 13.0003C13.6657 13.4331 13.9151 13.7258 14.3096 13.7687C14.704 13.8116 15.2025 13.6711 15.5795 13.3498C15.9753 13.0125 16.2087 12.561 16.229 12.1647C16.2181 11.7319 15.9687 11.4392 15.5742 11.3963C15.1798 11.3535 14.6658 11.4757 14.3044 11.8152L14.2855 11.8313Z" fill="#DE2010" stroke="black" stroke-width="0.243982"/>
<path id="Vector_37" fill-rule="evenodd" clip-rule="evenodd" d="M12.3483 13.8612C11.9953 14.2086 11.7772 14.6931 11.8031 15.0724C11.845 15.5033 12.1148 15.7774 12.5112 15.7919C12.9077 15.8064 13.3948 15.6305 13.7478 15.283C14.1185 14.9182 14.3189 14.4511 14.3108 14.0544C14.2688 13.6235 13.9991 13.3494 13.6026 13.3349C13.2061 13.3205 12.7021 13.4792 12.366 13.8438L12.3483 13.8612Z" fill="#DE2010" stroke="black" stroke-width="0.243983"/>
<path id="Vector_38" fill-rule="evenodd" clip-rule="evenodd" d="M10.685 16.1169C10.3623 16.4927 10.1855 16.9937 10.243 17.3695C10.3208 17.7954 10.6126 18.046 11.0089 18.0272C11.4052 18.0085 11.8759 17.7924 12.1986 17.4166C12.5374 17.0221 12.698 16.5398 12.6567 16.1452C12.5788 15.7193 12.2871 15.4688 11.8908 15.4875C11.4945 15.5063 11.0056 15.7067 10.7011 16.0981L10.685 16.1169Z" fill="#DE2010" stroke="black" stroke-width="0.243984"/>
<path id="Vector_39" fill-rule="evenodd" clip-rule="evenodd" d="M9.16438 18.4161C8.88362 18.8241 8.76127 19.3411 8.85852 19.7087C8.98132 20.1238 9.29816 20.3418 9.6902 20.2809C10.0823 20.22 10.5272 19.955 10.808 19.547C11.1028 19.1185 11.2111 18.6219 11.1279 18.234C11.0051 17.8188 10.6882 17.6008 10.2962 17.6617C9.90413 17.7226 9.43938 17.974 9.17842 18.3957L9.16438 18.4161Z" fill="#DE2010" stroke="black" stroke-width="0.243984"/>
<path id="Vector_40" fill-rule="evenodd" clip-rule="evenodd" d="M7.89057 21.0335C7.68407 21.4837 7.65236 22.014 7.81129 22.3594C8.00359 22.7473 8.35316 22.9077 8.72891 22.7803C9.10466 22.6529 9.49747 22.3154 9.70396 21.8652C9.92079 21.3925 9.94217 20.8846 9.79357 20.5168C9.60127 20.1289 9.2517 19.9685 8.87595 20.0959C8.5002 20.2232 8.08554 20.5507 7.90089 21.0109L7.89057 21.0335Z" fill="#DE2010" stroke="black" stroke-width="0.243983"/>
<path id="Vector_41" fill-rule="evenodd" clip-rule="evenodd" d="M6.87316 23.77C6.70833 24.237 6.72483 24.7681 6.91441 25.0976C7.14109 25.4665 7.50375 25.5945 7.86641 25.4336C8.22906 25.2727 8.58965 24.901 8.75449 24.4339C8.92756 23.9435 8.90282 23.4358 8.72147 23.0829C8.4948 22.714 8.13213 22.586 7.76948 22.7469C7.40682 22.9078 7.02356 23.2715 6.8814 23.7466L6.87316 23.77Z" fill="#DE2010" stroke="black" stroke-width="0.243982"/>
<path id="Vector_42" fill-rule="evenodd" clip-rule="evenodd" d="M6.00999 28.9306C5.96424 29.3259 6.10996 29.7355 6.3743 29.9546C6.68422 30.1969 7.06716 30.2254 7.37953 30.0293C7.6919 29.8332 7.95077 29.4736 7.99652 29.0783C8.04456 28.6631 7.89654 28.2733 7.6345 28.0345C7.32458 27.7921 6.94163 27.7637 6.62926 27.9598C6.31689 28.1559 6.03409 28.5137 6.01227 28.9108L6.00999 28.9306Z" fill="#DE2010" stroke="black" stroke-width="0.218541"/>
<path id="Vector_43" fill-rule="evenodd" clip-rule="evenodd" d="M6.23774 26.5226C6.12767 27.0055 6.20508 27.5312 6.43127 27.8367C6.69882 28.1771 7.07379 28.2626 7.41556 28.0611C7.75733 27.8596 8.07283 27.4489 8.1829 26.966C8.29848 26.4589 8.21557 25.9574 7.99488 25.6277C7.72733 25.2873 7.35236 25.2018 7.01059 25.4033C6.66882 25.6048 6.32989 26.0102 6.24325 26.4985L6.23774 26.5226Z" fill="#DE2010" stroke="black" stroke-width="0.243983"/>
</g>
<path id="Vector_44" fill-rule="evenodd" clip-rule="evenodd" d="M55.9745 25.2865C56.2842 24.9381 56.5809 24.8349 56.955 24.9639C56.826 24.0608 56.5422 23.7641 56.181 23.8673C55.8455 23.9705 55.6907 24.435 55.9616 25.2865H55.9745ZM56.4519 27.9957C56.8002 27.6732 57.097 27.6087 57.4582 27.7377C57.3937 26.8346 57.1357 26.5121 56.7873 26.6024C56.4261 26.6798 56.2455 27.1184 56.4519 27.9828V27.9957ZM55.2908 22.7965C55.523 22.3837 55.781 22.216 56.181 22.2418C55.8197 21.4161 55.4714 21.1839 55.1618 21.3774C54.8521 21.5709 54.8134 22.0611 55.2908 22.7965ZM54.091 20.3453C54.3103 19.9195 54.5812 19.7518 54.9683 19.7776C54.6199 18.939 54.2587 18.7197 53.949 18.9132C53.6523 19.1068 53.6136 19.597 54.091 20.3324V20.3453ZM51.2011 15.804C51.3559 15.3654 51.5881 15.159 51.9752 15.1074C51.4978 14.3333 51.1108 14.1785 50.8399 14.4236C50.5689 14.6687 50.6076 15.1461 51.2011 15.804ZM49.3046 13.8302C49.4336 13.3786 49.6658 13.1722 50.0658 13.1206C49.5497 12.3723 49.1627 12.2175 48.9047 12.4755C48.6337 12.7206 48.6853 13.198 49.3046 13.8302ZM45.331 10.4758C45.331 10.0114 45.46 9.72755 45.8213 9.57274C45.1117 9.00508 44.686 8.99218 44.5182 9.31471C44.3376 9.62434 44.5569 10.063 45.331 10.4758V10.4758ZM47.3952 12.024C47.4726 11.5595 47.6532 11.3144 48.0403 11.2112C47.4339 10.5403 47.0211 10.45 46.8018 10.7339C46.5695 11.0177 46.6985 11.4821 47.4081 12.024H47.3952ZM42.9701 9.1728C42.9185 8.70835 43.0346 8.42453 43.3571 8.21811C42.5831 7.74076 42.1831 7.75366 42.0412 8.0891C41.8993 8.42453 42.1573 8.85027 42.9701 9.1728ZM40.5576 8.1278C40.4285 7.67626 40.5059 7.37953 40.8156 7.1215C39.977 6.76027 39.5771 6.85057 39.4868 7.19891C39.3964 7.54724 39.7061 7.92138 40.5576 8.1278V8.1278ZM37.9644 7.32792C37.7967 6.88928 37.8483 6.57965 38.1321 6.29582C37.2677 6.01199 36.8678 6.1281 36.8033 6.48934C36.7517 6.85057 37.0871 7.19891 37.9644 7.32792ZM35.41 6.83767C35.2164 6.41193 35.2422 6.1023 35.5003 5.80557C34.623 5.57335 34.2359 5.71526 34.1972 6.0765C34.1585 6.43773 34.5198 6.76027 35.41 6.82477V6.83767ZM32.7007 6.63125C32.4685 6.21841 32.4556 5.90878 32.7007 5.59915C31.7976 5.45724 31.4106 5.63786 31.4106 5.99909C31.4235 6.36033 31.8234 6.64416 32.7007 6.63125ZM27.4112 7.01829C27.0887 6.68286 26.9983 6.38613 27.1532 6.0249C26.2501 6.1023 25.9275 6.37323 26.0178 6.72156C26.1082 7.0828 26.5597 7.26342 27.4112 7.01829V7.01829ZM30.0172 6.68286C29.7334 6.29582 29.6947 5.99909 29.8882 5.65076C28.9851 5.61206 28.6239 5.83138 28.6755 6.19261C28.7142 6.55385 29.1399 6.79897 30.0172 6.68286ZM24.8567 7.58595C24.4697 7.28922 24.3536 7.00539 24.4439 6.61835C23.5666 6.83767 23.2828 7.1473 23.4247 7.48274C23.5666 7.81817 24.044 7.93428 24.8438 7.57305L24.8567 7.58595ZM19.9543 9.83076C19.5414 9.61144 19.3608 9.35342 19.3737 8.96638C18.548 9.35342 18.3416 9.70175 18.5351 9.99848C18.7415 10.3081 19.2318 10.3339 19.9543 9.83076ZM22.3152 8.61805C21.9282 8.36002 21.7862 8.0891 21.8507 7.70206C20.9864 7.97298 20.7283 8.30842 20.8961 8.63095C21.0509 8.95348 21.5411 9.03089 22.3152 8.63095V8.61805ZM15.5678 12.8755C15.1163 12.7722 14.8841 12.5529 14.8196 12.1659C14.0971 12.7077 13.9552 13.1077 14.2132 13.3528C14.4712 13.6108 14.9615 13.5205 15.5678 12.8884V12.8755ZM17.6578 11.1854C17.2192 11.0306 17.0128 10.7984 16.9741 10.4113C16.2 10.8887 16.0452 11.2757 16.2774 11.5466C16.5225 11.8176 16.9999 11.7789 17.6578 11.1854ZM13.6972 14.7074C13.2456 14.63 13.0005 14.4365 12.8973 14.0624C12.2135 14.6558 12.1232 15.0687 12.407 15.288C12.678 15.5202 13.1553 15.4041 13.6972 14.7074ZM12.0329 16.8748C11.5684 16.8361 11.3104 16.6684 11.1685 16.2943C10.5492 16.9652 10.4976 17.378 10.7944 17.5844C11.0911 17.7779 11.5555 17.6102 12.0329 16.8748V16.8748ZM10.6396 19.0939C10.1751 19.1326 9.89128 19.0036 9.69776 18.6552C9.18171 19.4164 9.18171 19.8292 9.51715 19.984C9.85258 20.1389 10.2783 19.9066 10.6396 19.0939ZM9.41394 21.4677C8.94949 21.558 8.65276 21.4677 8.42054 21.1581C8.0206 21.9579 8.07221 22.3708 8.42054 22.4869C8.76887 22.5901 9.15591 22.3063 9.41394 21.4548V21.4677ZM8.43344 23.8931C7.9948 24.0608 7.68517 24.0221 7.40134 23.7383C7.14332 24.6027 7.25943 25.0026 7.60776 25.0542C7.969 25.1058 8.31733 24.7575 8.43344 23.8931ZM7.77548 26.6024C7.34974 26.783 7.04011 26.7701 6.74338 26.5121C6.52406 27.3894 6.67887 27.7764 7.04011 27.8022C7.40134 27.8409 7.72387 27.4668 7.77548 26.5895V26.6024ZM7.51745 28.8472C7.10461 29.0536 6.79498 29.0794 6.48535 28.9246C6.35634 29.6342 6.54986 29.918 6.9111 29.8922C7.27233 29.8664 7.55616 29.5439 7.50455 28.8472H7.51745ZM53.0202 18.1392C53.175 17.7005 53.4072 17.4941 53.7942 17.4554C53.3298 16.6813 52.9428 16.5136 52.6718 16.7458C52.4009 16.991 52.4396 17.4683 53.0202 18.1392ZM56.7486 30.7308C57.097 30.4212 57.3937 30.3438 57.7549 30.4986C57.6904 29.5955 57.4324 29.26 57.0841 29.3375C56.7228 29.4278 56.5422 29.8793 56.7486 30.7308V30.7308Z" fill="#FFE300"/>
<path id="Vector_45" fill-rule="evenodd" clip-rule="evenodd" d="M53.2011 15.9975C53.1882 15.9975 52.169 17.0038 52.3496 18.2424C52.5173 19.4809 53.3043 21.0032 53.1623 22.2805C53.0204 23.5706 52.7753 24.4092 52.7753 24.4092C52.7753 24.4092 53.9751 23.0545 53.988 21.7515C54.0009 20.4614 53.1752 18.7326 53.1752 17.7779C53.1752 16.8232 53.214 15.9717 53.2011 15.9846V15.9975ZM55.0717 20.1259C55.0717 20.1259 54.2719 20.7194 54.3493 22.0611C54.4267 23.4029 55.82 25.8799 55.82 25.8799C55.82 25.8799 56.8392 27.9699 56.8005 28.5118C56.7747 29.0536 56.994 27.9957 56.8908 26.7959C56.7876 25.609 55.2524 22.9771 55.2524 22.9771C55.2524 22.9771 54.9298 22.4353 54.9556 21.5451C54.9943 20.642 55.0846 20.1388 55.0717 20.1259Z" fill="#217900" stroke="black" stroke-width="0.245124" stroke-linejoin="round"/>
<path id="Vector_46" fill-rule="evenodd" clip-rule="evenodd" d="M31.2038 3.45755C31.2038 3.17372 30.8813 2.9415 30.4942 2.9415C30.1072 2.9415 29.7976 3.17372 29.7976 3.45755C29.7976 3.72847 30.1072 3.9607 30.4942 3.9607C30.8813 3.9607 31.1909 3.72847 31.1909 3.44465L31.2038 3.45755ZM31.5005 4.61866C31.5005 4.36064 31.1651 4.14131 30.7781 4.14131C30.3781 4.14131 30.0556 4.36064 30.0556 4.63156C30.0556 4.90249 30.3781 5.10891 30.7781 5.10891C31.1651 5.10891 31.5005 4.88959 31.5005 4.61866ZM32.3907 3.23823C32.3907 3.23823 31.565 3.85749 31.9005 4.10261C32.2488 4.34773 33.1906 3.56076 33.1906 3.56076L32.3907 3.23823ZM56.6064 17.378C56.6069 17.2946 56.5873 17.2123 56.5491 17.1381C56.5109 17.064 56.4553 17.0002 56.387 16.9523C56.3225 16.9079 56.246 16.8841 56.1677 16.8841C56.0894 16.8841 56.0129 16.9079 55.9484 16.9523C55.8825 17.0016 55.8294 17.066 55.7935 17.1401C55.7576 17.2141 55.7399 17.2957 55.742 17.378C55.7414 17.4614 55.7611 17.5437 55.7993 17.6178C55.8375 17.692 55.8931 17.7558 55.9613 17.8037C56.0245 17.8454 56.0985 17.8675 56.1742 17.8675C56.2498 17.8675 56.3238 17.8454 56.387 17.8037C56.4553 17.7558 56.5109 17.692 56.5491 17.6178C56.5873 17.5437 56.6069 17.4614 56.6064 17.378V17.378ZM56.2838 16.204C56.2838 15.9073 56.0903 15.675 55.8323 15.675C55.5743 15.675 55.3807 15.9073 55.3807 16.204C55.3807 16.5007 55.5872 16.7329 55.8323 16.7329C56.0774 16.7329 56.2838 16.5007 56.2838 16.204ZM56.5031 18.6036C56.5031 18.4488 56.4257 18.3198 56.3225 18.3198C56.2322 18.3198 56.1548 18.4488 56.1548 18.6036C56.1548 18.7584 56.2322 18.8745 56.3225 18.8745C56.4257 18.8745 56.5031 18.7455 56.5031 18.6036ZM57.2256 16.462C57.2256 16.2814 57.1482 16.1395 57.0579 16.1395C56.9547 16.1395 56.8773 16.2814 56.8773 16.462C56.8773 16.6426 56.9547 16.7716 57.0579 16.7716C57.1482 16.7716 57.2256 16.6426 57.2256 16.462ZM55.2517 16.6684C55.2517 16.5394 55.1743 16.4104 55.0711 16.4104C54.9679 16.4104 54.8905 16.5394 54.8905 16.6684C54.8905 16.7974 54.9679 16.9265 55.0711 16.9265C55.1743 16.9265 55.2517 16.8103 55.2517 16.6684ZM55.5614 18.3714C55.5614 18.1392 55.3936 17.9457 55.1872 17.9457C54.9808 17.9457 54.8131 18.1392 54.8131 18.3714C54.8131 18.5907 54.9808 18.7713 55.2001 18.7713C55.4194 18.7713 55.5614 18.5907 55.5614 18.3585V18.3714ZM54.5809 17.6231C54.5809 17.4296 54.439 17.2619 54.2583 17.2619C54.0906 17.2619 53.9487 17.4167 53.9487 17.6231C53.9487 17.8295 54.0906 17.9715 54.2583 17.9715C54.439 17.9715 54.5809 17.8166 54.5809 17.6231ZM54.426 16.6168C54.426 16.5136 54.3744 16.4104 54.297 16.3588C54.2549 16.3311 54.2056 16.3163 54.1551 16.3163C54.1047 16.3163 54.0553 16.3311 54.0132 16.3588C53.9715 16.3873 53.9378 16.4259 53.9152 16.4711C53.8927 16.5162 53.882 16.5664 53.8842 16.6168C53.8842 16.72 53.9229 16.8232 54.0132 16.8748C54.0539 16.9 54.1008 16.9133 54.1487 16.9133C54.1965 16.9133 54.2434 16.9 54.2841 16.8748C54.3258 16.8464 54.3595 16.8077 54.3821 16.7626C54.4047 16.7174 54.4154 16.6673 54.4132 16.6168H54.426ZM58.9028 21.7128C58.4899 21.171 57.8449 20.9387 57.4449 21.1968C57.0579 21.4548 57.0579 22.0999 57.4707 22.6417C57.8707 23.1836 58.5286 23.4029 58.9157 23.1449C59.3156 22.8868 59.3027 22.2418 58.9028 21.7128V21.7128ZM60.0639 31.5952C60.1284 30.9372 59.8059 30.3567 59.3414 30.305C58.8641 30.2405 58.4125 30.7308 58.3351 31.3888C58.2577 32.0338 58.5803 32.6273 59.0576 32.6789C59.5349 32.7305 59.9736 32.2531 60.051 31.5952H60.0639ZM60.2961 37.3362C60.4251 36.6912 60.1671 36.0977 59.7027 35.9945C59.2253 35.8913 58.748 36.3428 58.6061 36.9879C58.477 37.633 58.7351 38.2393 59.2124 38.3425C59.6769 38.4328 60.1671 37.9942 60.2961 37.3491V37.3362ZM61.4056 31.9564C61.4056 31.6984 61.225 31.492 61.0186 31.492C60.8122 31.492 60.6315 31.6984 60.6315 31.9564C60.6315 32.2144 60.7993 32.4338 61.0186 32.4338C61.2379 32.4338 61.4056 32.2144 61.4056 31.9564ZM60.438 33.0401L59.6382 33.9432C59.6382 33.9432 58.877 33.969 58.9157 34.2141C58.9673 34.4722 59.9607 35.2075 59.9478 35.5043C59.9478 35.7881 60.6187 35.4268 60.6187 35.4268L61.1605 33.7755C61.1605 33.7755 61.1347 32.6402 60.838 32.6531C60.5412 32.6789 60.4638 33.0143 60.4509 33.0401H60.438ZM7.4655 32.6789C7.4655 32.5762 7.42472 32.4778 7.35214 32.4052C7.27955 32.3326 7.18111 32.2918 7.07846 32.2918C6.97581 32.2918 6.87737 32.3326 6.80479 32.4052C6.7322 32.4778 6.69142 32.5762 6.69142 32.6789C6.69142 32.7815 6.7322 32.88 6.80479 32.9526C6.87737 33.0251 6.97581 33.0659 7.07846 33.0659C7.18111 33.0659 7.27955 33.0251 7.35214 32.9526C7.42472 32.88 7.4655 32.7815 7.4655 32.6789ZM7.82673 31.5178C7.82673 31.2855 7.64611 31.1049 7.43969 31.1049C7.23327 31.1049 7.05266 31.2855 7.05266 31.5049C7.05266 31.7242 7.23327 31.9177 7.43969 31.9177C7.64611 31.9177 7.82673 31.7371 7.82673 31.5049V31.5178ZM4.67883 25.9315C4.53691 25.609 4.22729 25.4284 4.00796 25.5445C3.77574 25.6348 3.71123 25.9831 3.85315 26.3057C4.00796 26.6282 4.30469 26.8088 4.52401 26.6927C4.75624 26.6024 4.82074 26.2541 4.67883 25.9315ZM5.62062 29.4149C5.4271 28.9891 5.01426 28.7569 4.71753 28.8988C4.4208 29.0407 4.30469 29.4665 4.49821 29.8793C4.69173 30.2921 5.11747 30.5244 5.4271 30.3954C5.73673 30.2663 5.81414 29.8277 5.62062 29.402V29.4149ZM6.65272 31.9564C6.70433 31.4404 6.4979 30.9501 6.16247 30.8856C5.82704 30.8082 5.51741 31.1823 5.4529 31.6984C5.37549 32.2144 5.59482 32.7047 5.93025 32.7692C6.25278 32.8337 6.57531 32.4725 6.63982 31.9564H6.65272ZM5.01426 32.3176C5.20778 31.8403 5.14327 31.3242 4.83364 31.1565C4.52401 30.9888 4.13698 31.2726 3.93056 31.75C3.72414 32.2273 3.80154 32.7563 4.09827 32.9111C4.395 33.0659 4.80784 32.8079 5.00136 32.3305L5.01426 32.3176Z" fill="#6B18B5"/>
<path id="Vector_47" fill-rule="evenodd" clip-rule="evenodd" d="M4.26673 31.221C4.26673 30.9759 4.07321 30.7824 3.84099 30.7824C3.60877 30.7824 3.41525 30.9888 3.41525 31.2339C3.41525 31.4791 3.60877 31.6726 3.84099 31.6726C4.07321 31.6726 4.26673 31.4791 4.26673 31.2339V31.221ZM3.9313 30.1244C3.93484 30.0715 3.92745 30.0184 3.90959 29.9684C3.89173 29.9184 3.86378 29.8726 3.82748 29.8339C3.79118 29.7952 3.74731 29.7644 3.69859 29.7433C3.64987 29.7223 3.59734 29.7115 3.54426 29.7116C3.32494 29.7116 3.15723 29.8922 3.15723 30.1244C3.15723 30.3567 3.32494 30.5244 3.54426 30.5244C3.76359 30.5244 3.9313 30.3437 3.9313 30.1244ZM4.29254 27.9957C4.29254 27.6087 4.12482 27.312 3.9055 27.312C3.71198 27.312 3.54426 27.6216 3.54426 27.9957C3.54426 28.3699 3.71198 28.6795 3.9184 28.6795C4.12482 28.6795 4.29254 28.3699 4.29254 27.9957V27.9957ZM5.44075 27.828C5.47945 27.4539 5.36334 27.1313 5.15692 27.1055C4.9505 27.0797 4.74408 27.3636 4.69247 27.7248C4.64087 28.1118 4.76988 28.4215 4.9763 28.4602C5.18272 28.486 5.38914 28.2021 5.44075 27.828ZM13.6072 11.5208C13.7621 11.0048 13.6072 10.4629 13.2589 10.3339C12.9106 10.2049 12.5106 10.5403 12.3558 11.0693C12.201 11.5853 12.3558 12.1272 12.7042 12.2562C13.0525 12.3852 13.4524 12.0498 13.6072 11.5208ZM12.0591 13.8818C12.5106 13.4947 12.7042 12.9529 12.4848 12.6819C12.2784 12.411 11.7366 12.5013 11.2721 12.8884C10.8077 13.2754 10.6271 13.8043 10.8464 14.0882C11.0528 14.3462 11.5946 14.2688 12.0591 13.8818ZM11.156 12.5658C11.5946 12.2433 11.8011 11.7789 11.5817 11.5337C11.3624 11.2886 10.8335 11.3918 10.3819 11.7143C9.93038 12.0498 9.73687 12.5142 9.94329 12.7464C10.1497 12.9787 10.7045 12.9013 11.156 12.5658ZM14.6393 10.2694C14.949 10.0501 15.078 9.72755 14.9361 9.55984C14.7813 9.39212 14.42 9.45663 14.1233 9.68885C13.8266 9.92107 13.6846 10.2307 13.8266 10.3984C13.9814 10.5661 14.3426 10.5145 14.6393 10.2694Z" fill="#6B18B5"/>
<path id="Vector_48" fill-rule="evenodd" clip-rule="evenodd" d="M12.8198 12.5013C13.0262 12.1788 13.0391 11.8304 12.8456 11.7272C12.665 11.624 12.3296 11.7917 12.1361 12.1143C11.9425 12.4368 11.9038 12.7851 12.0974 12.8883C12.2909 12.9916 12.6134 12.8238 12.8198 12.5013ZM15.4517 11.1209C15.7742 10.8499 15.9032 10.4758 15.7355 10.3081C15.5549 10.1404 15.155 10.2178 14.8324 10.4887C14.5099 10.7596 14.3809 11.1338 14.5486 11.3144C14.7163 11.4821 15.1162 11.4047 15.4517 11.1209V11.1209ZM10.6911 14.3333C10.9878 14.3204 11.2201 14.1656 11.2072 13.9979C11.1814 13.8172 10.9104 13.6882 10.6137 13.714C10.3041 13.714 10.0719 13.8817 10.0977 14.0495C10.1235 14.2172 10.3815 14.3462 10.6911 14.3333ZM16.4322 9.43081C16.6386 9.09538 16.6515 8.75994 16.458 8.65673C16.2774 8.54062 15.9419 8.72124 15.7484 9.04377C15.5549 9.3663 15.5291 9.70173 15.7097 9.81785C15.9032 9.92106 16.2258 9.74044 16.4322 9.43081Z" fill="#6B18B5"/>
<path id="Vector_49" fill-rule="evenodd" clip-rule="evenodd" d="M51.0461 19.1584C51.0461 19.1584 51.9879 17.6618 51.6267 16.2427C51.2654 14.8364 49.6915 15.8298 49.7302 16.333C49.7689 16.849 50.7365 17.507 50.801 17.8166C50.8655 18.1263 50.6978 19.068 51.0461 19.1584V19.1584Z" fill="#FFD200" stroke="#EF8A10" stroke-width="0.129012"/>
<path id="Vector_50" fill-rule="evenodd" clip-rule="evenodd" d="M32.9717 6.69574C32.9717 6.69574 36.3776 6.82476 36.4034 9.03087C36.3905 9.3792 36.4034 9.77914 36.2744 10.7725C36.6094 10.5524 36.8809 10.2484 37.0619 9.89081C37.243 9.5332 37.3273 9.13443 37.3065 8.73414C37.3323 6.48932 34.2747 4.96698 32.9717 6.69574V6.69574Z" fill="#217900" stroke="black" stroke-width="0.30963" stroke-linejoin="round"/>
<path id="Vector_51" fill-rule="evenodd" clip-rule="evenodd" d="M30.8047 6.59253C30.8047 6.59253 33.5527 6.02488 33.5785 8.23099C33.6043 10.4242 32.7012 10.7854 32.7012 10.7854C32.7012 10.7854 34.817 10.3339 34.817 8.10198C34.8299 5.85716 32.1077 4.86377 30.8047 6.59253V6.59253Z" fill="#217900" stroke="black" stroke-width="0.30963" stroke-linejoin="round"/>
<path id="Vector_52" fill-rule="evenodd" clip-rule="evenodd" d="M40.1447 54.2239C40.1447 54.2239 53.0073 50.5987 56.8777 34.8076C54.6199 51.0115 40.5447 56.1462 40.5447 56.1462L40.1318 54.2239H40.1447Z" fill="#F7DF73" stroke="black" stroke-width="0.335432" stroke-linejoin="round"/>
<path id="Vector_53" fill-rule="evenodd" clip-rule="evenodd" d="M41.4611 55.2173C41.861 55.2173 42.8415 54.1207 43.4092 54.0046C43.9768 53.8756 44.0413 53.3079 43.3834 53.2821C42.7383 53.2692 42.1707 54.0175 42.1707 54.0175C42.1707 54.0175 41.6159 54.5078 41.0224 54.5594C40.4419 54.6239 40.816 55.3592 41.4611 55.2044V55.2173Z" fill="#8C1800"/>
<path id="Vector_54" fill-rule="evenodd" clip-rule="evenodd" d="M48.879 49.6827C48.879 49.6827 47.5373 50.4568 47.7179 50.6503C47.9114 50.8309 49.0983 49.9149 49.1241 49.8891C49.1499 49.8762 49.6273 49.2828 48.8661 49.6827H48.879Z" fill="#8C1800" stroke="#8C1800" stroke-width="0.335432"/>
<path id="Vector_55" fill-rule="evenodd" clip-rule="evenodd" d="M44.2082 53.2047C44.2082 53.2047 43.8082 53.0628 44.8274 52.6629C45.8595 52.263 45.795 51.7985 46.1176 51.6179C46.4659 51.4244 47.1755 50.9212 47.3174 51.218C47.4593 51.5147 46.5691 52.0952 46.3627 52.1597C46.1563 52.2242 45.1242 53.166 44.8274 53.2434C44.5436 53.3338 44.3243 53.2821 44.2082 53.2047V53.2047Z" fill="#8C1800"/>
<path id="Vector_56" d="M50.8656 47.7217C49.9883 48.7022 49.9883 48.6764 49.9883 48.6764" stroke="#8C1800" stroke-width="0.399939" stroke-linecap="round"/>
<path id="Vector_57" d="M52.1814 46.1091L51.3428 47.1412" stroke="#8C1800" stroke-width="0.374136" stroke-linecap="round"/>
<path id="Vector_58" d="M53.4975 44.0191L52.5557 45.5156" stroke="#8C1800" stroke-width="0.335432" stroke-linecap="round"/>
<path id="Vector_59" d="M55.1102 40.7422L54.8522 41.2969M54.6071 41.8775L53.833 43.4256L54.6071 41.8775Z" stroke="#8C1800" stroke-width="0.30963" stroke-linecap="round"/>
<path id="Vector_60" d="M55.6781 39.2585L55.4717 39.9036" stroke="#8C1800" stroke-width="0.180617" stroke-linecap="round"/>
<path id="Vector_61" fill-rule="evenodd" clip-rule="evenodd" d="M23.2695 53.9024C23.2695 53.9024 10.509 50.1963 6.68085 34.1112C8.91394 50.6249 22.8769 55.8437 22.8769 55.8437L23.2695 53.9024Z" fill="#F7DF73" stroke="black" stroke-width="0.248733" stroke-linejoin="round"/>
<path id="Vector_62" fill-rule="evenodd" clip-rule="evenodd" d="M21.967 54.8948C21.58 54.8948 20.5995 53.7853 20.0319 53.6563C19.4771 53.5273 19.4255 52.9467 20.0577 52.9338C20.7027 52.908 21.2704 53.6821 21.2704 53.6821C21.2704 53.6821 21.8251 54.1723 22.4057 54.2369C22.9862 54.3014 22.6121 55.0367 21.967 54.8819V54.8948Z" fill="#8C1800"/>
<path id="Vector_63" fill-rule="evenodd" clip-rule="evenodd" d="M14.6316 49.2634C14.6316 49.2634 15.9567 50.0702 15.7604 50.2719C15.5887 50.4484 14.4108 49.5155 14.3862 49.4903C14.3617 49.4651 13.8954 48.86 14.6316 49.2634Z" fill="#8C1800" stroke="#8C1800" stroke-width="0.248733"/>
<path id="Vector_64" fill-rule="evenodd" clip-rule="evenodd" d="M19.2576 52.8435C19.2576 52.8435 19.6446 52.7016 18.6254 52.2888C17.6191 51.8888 17.6707 51.4244 17.3353 51.2309C17.0128 51.0373 16.3032 50.5213 16.1742 50.818C16.0452 51.1147 16.9096 51.7211 17.116 51.7856C17.3224 51.8501 18.3416 52.8048 18.6254 52.8951C18.9222 52.9725 19.1286 52.9338 19.2576 52.8435V52.8435Z" fill="#8C1800"/>
<path id="Vector_65" d="M12.6685 47.2717L13.5273 48.255" stroke="#8C1800" stroke-width="0.397972" stroke-linecap="round"/>
<path id="Vector_66" d="M11.3424 45.6329L12.1768 46.6666" stroke="#8C1800" stroke-width="0.373099" stroke-linecap="round"/>
<path id="Vector_67" d="M10.0421 43.49L10.9746 45.0279" stroke="#8C1800" stroke-width="0.348226" stroke-linecap="round"/>
<path id="Vector_68" d="M8.44758 40.162L8.69298 40.7167M8.93837 41.3218L9.72363 42.9101L8.93837 41.3218Z" stroke="#8C1800" stroke-width="0.323353" stroke-linecap="round"/>
<path id="Vector_69" d="M7.88266 38.6493L8.10352 39.33" stroke="#8C1800" stroke-width="0.198986" stroke-linecap="round"/>
<path id="Vector_70" fill-rule="evenodd" clip-rule="evenodd" d="M57.51 31.8919C57.5745 32.8853 58.5421 33.8271 58.155 35.5687C57.6777 37.5168 55.9618 42.1871 56.2714 42.9999C55.7554 42.3032 55.8457 41.6581 55.807 40.6776C55.7554 39.71 57.2132 36.1106 57.3422 34.885C57.3422 33.7884 57.4455 32.3047 57.51 31.8919V31.8919Z" fill="#217900" stroke="black" stroke-width="0.30963" stroke-linejoin="round"/>
<path id="Vector_71" fill-rule="evenodd" clip-rule="evenodd" d="M57.5103 31.9177C57.5103 31.9177 59.0843 33.9174 59.0069 35.5042C58.9165 37.0782 58.0393 38.936 58.336 39.7617C57.8199 39.065 57.6909 38.6134 57.6522 37.6458C57.6135 36.6783 58.4263 35.6075 58.2715 34.5495C58.1038 33.4916 57.4974 31.9177 57.4974 31.9177H57.5103ZM5.72469 32.3563C5.66018 33.3497 4.92481 34.2399 5.29895 35.9687C5.78919 37.9168 7.51796 40.4067 7.23413 43.2579C7.71573 42.5326 7.96338 41.6771 7.9437 40.8067C7.98241 39.8391 6.02141 36.575 5.8924 35.3494C5.8924 34.2528 5.78919 32.7692 5.72469 32.3563Z" fill="#217900" stroke="black" stroke-width="0.30963" stroke-linejoin="round"/>
<path id="Vector_72" fill-rule="evenodd" clip-rule="evenodd" d="M5.72434 32.3821C5.72434 32.3821 4.17619 34.3173 4.2665 35.9042C4.2923 36.9492 6.22749 41.3614 5.94366 42.1871C6.44681 41.4904 6.58872 41.5678 6.56292 40.5099C5.99526 37.8136 4.98897 36.0848 5.15668 35.0398C5.3244 33.9819 5.75014 32.3821 5.72434 32.3821V32.3821Z" fill="#217900" stroke="black" stroke-width="0.30963" stroke-linejoin="round"/>
<path id="Vector_73" d="M32.0154 14.6505L35.8156 26.4328H48.2525L38.2338 33.7233L42.0513 45.5056L32.0327 38.2323L22.014 45.5056L25.8142 33.7233L15.7783 26.4328H28.1807L32.0154 14.6505Z" fill="#F5F5F5" stroke="black" stroke-width="0.259122" stroke-linecap="square" stroke-linejoin="round"/>
</g>
</g>
</g>
<defs>
<clipPath id="clip0_2909_185332">
<path d="M0.246094 32C0.246094 14.3269 14.573 0 32.2461 0V0C49.9192 0 64.2461 14.3269 64.2461 32V32C64.2461 49.6731 49.9192 64 32.2461 64V64C14.573 64 0.246094 49.6731 0.246094 32V32Z" fill="white"/>
</clipPath>
</defs>
</svg>
