<svg width="65" height="64" viewBox="0 0 65 64" fill="none" xmlns="http://www.w3.org/2000/svg">
<g id="Rounded=Montserrat (MS)">
<g clip-path="url(#clip0_2909_185394)">
<path id="Vector" d="M0.271484 0H64.2715V64H0.271484V0Z" fill="#012169"/>
<path id="Vector_2" d="M35.4465 15.875H61.1215L61.084 34.1625C61.2965 41.5 56.709 46.0625 48.2965 48.125C42.309 46.625 35.409 43.5625 35.3965 34.375L35.434 15.875H35.4465Z" fill="#F5F5F5"/>
<path id="Vector_3" d="M36.0084 16.425H60.5584L60.5334 33.95C60.7334 40.9875 56.3584 45.35 48.3084 47.325C42.5834 45.9 35.9834 42.95 35.9834 34.15L36.0084 16.425V16.425Z" fill="#00A2BD" stroke="black" stroke-width="0.225"/>
<path id="Vector_4" d="M60.3709 36.025C59.4709 42.7375 54.2959 45.675 48.2959 47.2375C42.9959 45.8125 37.2959 43.5375 36.1709 36.05L60.3709 36.025Z" fill="#A53D08"/>
<path id="Vector_5" d="M47.3334 19.6875L47.2959 17.4875L49.0459 17.5L49.0584 19.6875H53.8334L53.8459 21.4L49.0584 21.425L49.0209 41.6L47.3209 41.6125L47.2959 21.4L42.5459 21.425V19.675L47.3334 19.6875Z" fill="black"/>
<path id="Vector_6" fill-rule="evenodd" clip-rule="evenodd" d="M43.4714 36.85L47.8464 41.3875C49.3464 39.725 48.2964 33.5125 46.3089 32.375C46.0714 33.1125 45.6714 34 45.2339 34.275C44.2839 34.925 41.9714 35.675 42.7339 36.15C42.9214 35.9125 43.3839 35.6875 43.6089 36.225C43.8589 37.0875 42.6339 37.1375 42.6339 37.1375C42.6339 37.1375 41.8589 37.0375 41.7214 36.2625C41.5964 35.4625 42.8839 34.7375 42.9839 34.6875C43.1089 34.65 44.7839 34.1875 45.0714 32.7C45.4214 31.225 45.7964 31.45 45.8589 31.425C48.0714 31.6375 49.5089 35.5875 49.5964 38.3625C49.6714 41.1375 48.4714 42.9875 48.2464 43.1125C48.0214 43.225 42.9964 37.125 42.9964 37.125L43.4714 36.85V36.85Z" fill="#FF9A08" stroke="black" stroke-width="0.1"/>
<g id="Vector_7">
<path d="M46.6459 32.625L46.6834 40.8125L46.6459 32.625ZM46.1584 32.7875L46.1834 40.2125L46.1584 32.7875ZM45.6209 33.8625L45.6584 39.7625L45.6209 33.8625ZM45.1959 34.275L45.2209 39.1625L45.1959 34.275ZM44.7334 34.5V38.625V34.5ZM44.2334 34.825V38.0875V34.825ZM43.7959 35.0875V37.5875Z" fill="#FF9A08"/>
<path d="M43.7959 35.0875V37.5875M46.6459 32.625L46.6834 40.8125L46.6459 32.625ZM46.1584 32.7875L46.1834 40.2125L46.1584 32.7875ZM45.6209 33.8625L45.6584 39.7625L45.6209 33.8625ZM45.1959 34.275L45.2209 39.1625L45.1959 34.275ZM44.7334 34.5V38.625V34.5ZM44.2334 34.825V38.0875V34.825Z" stroke="black" stroke-width="0.1"/>
</g>
<path id="Vector_8" d="M43.3965 37.375L47.8965 42.525" stroke="#FFDF00" stroke-width="0.125" stroke-linecap="round"/>
<path id="Vector_9" d="M42.5083 35.2875C42.5083 35.2875 41.6958 36.0125 42.1333 36.475M48.1208 34.125C48.1208 34.125 50.1583 38.5875 48.2708 42.25L48.1208 34.125ZM42.8708 36.425C42.8708 36.425 43.0208 36.0375 43.2083 36.2L42.8708 36.425Z" stroke="#FFDF00" stroke-width="0.175" stroke-linecap="round"/>
<path id="Vector_10" d="M49.0707 23.925C49.3707 23.675 49.5332 23.5125 49.7207 23.55C49.9082 23.575 50.1582 23.55 50.3457 23.5C50.8377 23.3857 51.3472 23.3688 51.8457 23.45C51.9707 23.475 52.1457 23.5375 52.4207 23.7625C52.6832 23.9875 53.0707 24.3875 52.9457 25.4625C52.8207 26.5375 52.8582 27 52.7957 27.6125C52.6957 28.675 52.4582 29.55 52.0457 29.4875C52.6082 30.4875 52.6707 31.3625 53.0457 32.05C53.4207 32.7375 53.6457 34.15 53.5082 35.675C53.3582 37.2125 52.9582 40.6375 54.1707 42.95C53.9707 43.0875 53.4832 42.95 53.0457 42.4875C52.6082 42.025 52.4207 42.0375 52.0582 42.3125C50.9707 43.15 49.9332 44.1625 48.4332 43.15C48.0832 42.925 47.9707 42.65 48.2332 41.9375C48.8582 40.1875 49.1707 37.7625 49.0707 36.6375V23.925Z" fill="#008021" stroke="black" stroke-width="0.0375"/>
<path id="Vector_11" d="M50.1214 22.85C50.1964 23.1 50.2339 23.4125 50.1089 23.7C49.9839 23.9875 49.9464 24.325 50.1589 24.75C50.5089 24.2625 50.9964 24.375 51.2839 24.075C51.5714 23.7875 51.6339 23.5125 51.8464 23.45C51.6339 23.2625 51.2964 23.075 51.3714 22.5125C51.4464 21.975 52.2089 21.5125 51.5214 20.6875C51.3574 20.489 51.124 20.3603 50.8685 20.3278C50.6131 20.2953 50.3549 20.3614 50.1464 20.5125C50.0234 20.5971 49.9209 20.7081 49.8464 20.8375C49.8089 20.9375 49.8589 21.15 49.7589 21.275L49.5089 21.525C49.4339 21.5625 49.3839 21.625 49.4589 21.7125C49.4839 21.7375 49.5464 21.75 49.5964 21.7625C49.569 21.828 49.5356 21.8908 49.4964 21.95C49.4589 21.9875 49.4714 22.025 49.5089 22.075C49.4589 22.2375 49.5589 22.2625 49.4964 22.3875C49.4339 22.5 49.3464 22.6375 49.5714 22.7625C49.6464 22.8 49.9464 22.875 50.1089 22.85H50.1214ZM47.3089 25.7125C46.9089 25.825 46.2589 25.65 45.7589 25.7125C45.5464 25.725 45.3839 25.6125 45.4089 25.4C45.4339 25.1875 45.4589 24.85 45.4089 24.55C45.3464 24.075 45.5714 23.425 45.8964 22.7C46.1435 22.2504 46.3046 21.7587 46.3714 21.25C46.3714 21.025 46.3964 20.775 46.5964 20.65C46.7464 20.55 46.7714 20.4625 46.8214 20.3875C46.9464 20.2 47.0714 20.1625 47.0714 20.2625C47.0839 20.325 47.0714 20.3875 47.0089 20.475C47.1339 20.3625 47.3589 20.2375 47.4089 20.2C47.4589 20.175 47.7089 19.9875 47.7214 20.1625C47.8214 20.1125 47.8964 20.1125 47.9214 20.1625C47.9464 20.225 47.9214 20.25 47.8839 20.2875C47.9464 20.2875 48.0339 20.4125 47.8839 20.5125C47.9714 20.4875 48.0464 20.6125 47.9089 20.7375C47.7714 20.85 47.6089 20.9375 47.5589 21.025C47.5089 21.125 47.1714 21.3875 47.0339 21.4375C46.8964 21.5 46.8839 21.575 46.8839 21.775C46.8839 24 46.6214 23.825 46.6214 24.35C46.6214 24.5 46.5964 24.625 46.7464 24.5875C46.8714 24.5375 47.0964 24.475 47.3089 24.475V25.725V25.7125ZM47.3964 30.5C48.0464 30.175 48.7964 30.0625 49.1839 29.9625C49.5589 29.8625 50.1839 29.55 50.4964 29.4C50.7964 29.2375 51.0464 29.025 51.2089 28.9625C51.3839 28.9 51.5839 28.7875 51.6839 28.575C52.2464 27.475 52.5589 26.6 52.5589 25.825C52.5589 25.325 52.4339 24.7625 51.9339 25.175C51.4714 25.55 50.9714 26.2875 50.8339 26.8125C50.6339 27.625 50.4589 27.8 50.4214 27.95C50.3714 28.1125 50.2089 28.1125 50.0214 28.15C49.3942 28.2507 48.8088 28.5282 48.3339 28.95C47.7626 29.3702 47.1656 29.7543 46.5464 30.1C46.0839 30.35 45.9964 30.3875 45.8964 30.6C45.8221 30.7666 45.7254 30.9222 45.6089 31.0625C45.5718 31.1047 45.5447 31.1547 45.5296 31.2088C45.5144 31.2629 45.5116 31.3197 45.5214 31.375L45.4839 32.05C45.4839 32.1875 45.5089 32.225 45.5714 32.2375C45.6214 32.2375 45.6964 32.2125 45.7339 32.0375C45.7089 32.2125 45.9464 32.1625 45.9589 32.0375C45.9589 32.2125 46.2089 32.1 46.2089 31.9375C46.2089 32.0625 46.4089 31.975 46.4214 31.9125L46.5589 31.4875C46.6464 31.325 46.7339 31.1125 46.9089 30.9875C47.0964 30.8625 47.0089 30.7 47.3964 30.5V30.5ZM52.0589 42.3125L52.2214 42.7625C52.2464 42.875 52.1964 42.9 52.1714 42.9625C52.0034 43.3108 51.8856 43.6812 51.8214 44.0625C51.8214 44.2125 51.6964 44.375 51.6589 44.4625C51.5964 44.5625 51.6214 44.65 51.7464 44.75C51.8089 44.7875 51.9964 44.725 52.0339 44.625C52.0964 44.7 52.2339 44.675 52.2839 44.5625C52.3589 44.625 52.4589 44.5875 52.5339 44.475C52.5964 44.525 52.6964 44.4375 52.7339 44.375C52.8339 44.425 52.9339 44.375 52.9464 44.1625L52.9964 44.0125C53.0214 43.9625 53.0339 43.875 53.0339 43.8C53.0339 43.7125 53.0839 43.55 53.1464 43.45C53.2089 43.325 53.3339 43.1375 53.2714 42.95C53.2339 42.775 53.1589 42.7875 53.0964 42.5375C52.9339 42.375 52.7214 42.1375 52.4964 42.125C52.2714 42.1125 52.1464 42.2625 52.0589 42.3125V42.3125ZM47.9589 43.55C48.1589 43.75 48.6214 43.7625 48.9339 43.425C48.8089 43.375 48.5589 43.2625 48.4589 43.175C48.2964 43.325 48.1089 43.5 47.9589 43.55Z" fill="#FFE1CF" stroke="black" stroke-width="0.0375"/>
<path id="Vector_12" d="M49.9961 20.625C50.0836 20.125 50.4461 20.125 50.6711 20.1875C50.7711 20.2 50.9961 20.225 51.2086 20.1625C51.6461 20.05 51.9586 20.2 51.9211 20.6125C52.0461 20.7 52.1586 20.9 52.1336 21.075C52.1086 21.25 52.1461 21.325 52.3086 21.3375C52.4711 21.3625 52.8086 21.5625 52.5836 21.8375C52.7961 21.9625 52.9586 22.3 52.8461 22.5125C52.7336 22.7375 52.3836 22.775 52.2461 22.575C52.0836 22.65 51.8211 22.6625 51.6711 22.5C51.5586 22.625 51.2961 22.6125 51.2336 22.5C51.1836 22.375 51.1086 22.325 50.9961 22.2875C50.8711 22.25 50.8711 21.9375 51.0461 21.9C51.0211 21.8 51.0336 21.7 51.0711 21.65C51.1211 21.6 51.0836 21.5 50.9836 21.425C50.8836 21.3375 50.7961 21.05 50.8961 20.875C50.7211 20.9375 50.3461 20.7625 50.2711 20.65C50.1836 20.525 50.0711 20.525 50.0086 20.625H49.9961Z" fill="#870F00" stroke="black" stroke-width="0.0375"/>
<path id="Vector_13" d="M52.2463 22.575C52.1463 22.45 52.1588 22.325 52.1838 22.175M50.1213 22.85C50.3963 22.8125 50.4963 22.6375 50.6963 22.65L50.1213 22.85ZM49.5088 22.0625L49.5838 22.1125C49.6338 22.1375 49.7088 22.15 49.7588 22.15L49.5088 22.0625ZM49.5963 21.7625L49.7213 21.8375L49.5963 21.7625ZM50.2463 20.625C50.0838 20.475 50.5338 20.15 50.9963 20.6125C51.0838 20.6875 51.3088 20.7 51.3713 20.675L50.2463 20.625ZM50.8963 20.875C51.1088 20.825 51.4338 20.825 51.5213 21.0625C51.6213 21.3125 51.8088 21.15 51.9588 21.4375C52.1088 21.7375 52.3588 22.0625 52.5838 21.8375L50.8963 20.875ZM51.6713 22.5C51.6339 22.4388 51.61 22.3704 51.6014 22.2992C51.5928 22.228 51.5996 22.1558 51.6213 22.0875C51.5338 21.9875 51.5713 21.7875 51.6213 21.6875L51.6713 22.5ZM51.0463 21.9C51.0463 21.9875 51.1713 22.15 51.3463 22.175L51.0463 21.9Z" stroke="black" stroke-width="0.0375"/>
<path id="Vector_14" d="M52.0338 29.4875C51.7088 29.4125 51.2338 29.4125 50.9713 29.6C50.8243 29.6909 50.6566 29.7432 50.484 29.7519C50.3113 29.7607 50.1392 29.7256 49.9838 29.65M51.1963 21.1375C51.1963 21.2625 51.2588 21.4375 51.3963 21.5125C51.4338 21.575 51.5713 21.775 51.8588 21.75L51.1963 21.1375ZM51.9213 20.625C51.7342 20.4583 51.5051 20.3459 51.2588 20.3L51.9213 20.625ZM50.1588 24.75C49.9088 25.0875 49.7588 25.55 49.8713 26.2C49.9963 26.8375 50.1713 27.8 49.6963 28.225L50.1588 24.75Z" stroke="black" stroke-width="0.0375"/>
<path id="Vector_15" d="M49.7833 34.2625C49.8833 33.9125 49.5333 33.8625 49.8458 32.6C49.9708 32.05 50.0083 31.725 49.9208 31.5375M51.3333 29.4625C51.0458 29.5125 50.9083 29.7125 50.9083 30.25C50.9083 30.775 50.7958 31.5625 50.8958 32.325L51.3333 29.4625ZM50.8083 29.6875C50.6208 29.7375 50.4333 29.7375 50.4583 30.25L50.8083 29.6875ZM49.8333 30.25C49.8333 29.95 49.9583 29.6625 50.1583 29.7125L49.8333 30.25ZM51.9083 30.3125C51.9333 29.6375 51.7833 29.4375 51.5708 29.4375C51.8458 29.45 52.0333 29.4875 52.1458 30.6125C52.2333 31.4375 52.4083 31.7375 52.6083 32.4C53.1333 34.1 52.8708 36.725 53.1333 37.65L51.9083 30.3125ZM51.5208 30.525C52.2302 32.5218 52.2081 34.7055 51.4583 36.6875C52.0583 38.3625 52.6708 39.575 52.7833 40.2625L51.5208 30.525Z" stroke="black" stroke-width="0.0375"/>
<path id="Vector_16" d="M50.1711 41.575C50.2386 42.0973 50.1829 42.6281 50.0086 43.125M49.9211 32.2875C49.7961 32.85 50.3336 33.9125 50.0586 34.6625L49.9211 32.2875ZM49.3711 34.8125C49.3711 35.3125 49.4961 35.9375 49.4711 36.4375C49.4461 36.925 49.6461 37.15 49.8711 37.6125C50.7086 39.2875 51.2836 40.4875 51.1961 42.05C51.1961 42.3375 51.2836 42.95 50.9836 43.125L49.3711 34.8125ZM49.4086 43.55C49.4961 43.55 49.5836 43.5125 49.6961 43.25C49.7961 43 50.1461 41.4375 50.0086 40.375L49.4086 43.55Z" stroke="black" stroke-width="0.0375"/>
<path id="Vector_17" d="M52.7338 44.375C52.6963 44.375 52.6838 44.3125 52.7338 44.15M50.7213 40.5875C50.8463 41.2875 50.8463 41.925 50.7338 42.375L50.7213 40.5875ZM50.4338 42.375C50.4463 42.6625 50.5838 43.375 50.3588 43.4375L50.4338 42.375ZM51.5213 39.025C52.0463 39.8625 52.4713 41.925 52.9088 42.3625L51.5213 39.025ZM51.9838 42.025C51.9588 41.8 51.9463 41.475 51.8213 41.3375L51.9838 42.025ZM46.2213 31.9375C46.2213 31.775 46.1963 31.625 46.3713 31.375L46.2213 31.9375ZM45.9588 32.025C45.9838 31.475 45.9713 31.425 46.1338 31.275L45.9588 32.025ZM45.7463 32.0375C45.7463 31.65 45.6963 31.5125 45.8463 31.25L45.7463 32.0375ZM47.7213 20.15L47.1463 20.575L47.7213 20.15ZM47.8713 20.275C47.8088 20.2875 47.6213 20.45 47.2588 20.725L47.8713 20.275ZM47.8963 20.5C47.7713 20.55 47.5713 20.75 47.3713 20.9L47.8963 20.5ZM46.9963 20.4625L46.7963 20.6625L46.9963 20.4625ZM52.0338 44.625C51.9963 44.5875 51.9963 44.4625 52.0588 44.325L52.0338 44.625ZM52.2838 44.5625C52.2463 44.525 52.2838 44.35 52.3338 44.2375L52.2838 44.5625ZM52.5338 44.475C52.4838 44.45 52.4713 44.35 52.5338 44.225V44.475Z" stroke="black" stroke-width="0.0375"/>
<path id="Vector_18" d="M49.8964 21.0875C49.9964 21.2125 50.1089 21.2125 50.1214 21.3L50.1714 21.425H50.0964L49.9214 21.4125C49.8714 21.4125 49.8089 21.35 49.8464 21.3375C49.8839 21.3375 49.8839 21.325 49.8714 21.3L49.9089 21.225C49.9339 21.2125 49.9089 21.225 49.9089 21.175C49.8839 21.1375 49.8714 21.05 49.8964 21.0875V21.0875ZM49.9589 20.9625C50.1168 20.9784 50.2656 21.0441 50.3839 21.15C50.4714 21.25 50.3964 21.225 50.3589 21.225C50.3089 21.225 50.2339 21.2 50.1839 21.15C50.1464 21.1 50.0089 21.025 49.9339 21.0125C49.9089 21 49.8714 20.95 49.9589 20.9625Z" fill="black"/>
<path id="Vector_19" d="M0.271484 0H32.2715V32H0.271484V0Z" fill="#012169"/>
<path id="Vector_20" d="M32.2715 0V4L20.3965 16L32.2715 27.6875V32H28.084L16.1465 20.25L4.52148 32H0.271484V27.75L11.8965 16.0625L0.271484 4.625V0H4.14648L16.1465 11.75L27.7715 0H32.2715Z" fill="#F5F5F5"/>
<path id="Vector_21" d="M11.7715 20.25L12.459 22.375L2.89648 32H0.271484V31.8125L11.7715 20.25ZM19.5215 19.5L22.8965 20L32.2715 29.1875V32L19.5215 19.5ZM32.2715 0L20.2715 12.25L20.0215 9.5L29.3965 0H32.2715ZM0.271484 0.0625L12.334 11.875L8.64648 11.375L0.271484 3.0625V0.0625Z" fill="#C8102E"/>
<path id="Vector_22" d="M11.2715 0V32H21.2715V0H11.2715ZM0.271484 11V21H32.2715V11H0.271484Z" fill="#F5F5F5"/>
<path id="Vector_23" d="M0.271484 13V19H32.2715V13H0.271484ZM13.2715 0V32H19.2715V0H13.2715Z" fill="#C8102E"/>
</g>
</g>
<defs>
<clipPath id="clip0_2909_185394">
<path d="M0.246094 32C0.246094 14.3269 14.573 0 32.2461 0V0C49.9192 0 64.2461 14.3269 64.2461 32V32C64.2461 49.6731 49.9192 64 32.2461 64V64C14.573 64 0.246094 49.6731 0.246094 32V32Z" fill="white"/>
</clipPath>
</defs>
</svg>
