<svg width="65" height="64" viewBox="0 0 65 64" fill="none" xmlns="http://www.w3.org/2000/svg">
<g id="Rounded=Maldives (MV)">
<g clip-path="url(#clip0_2909_185329)">
<path id="Vector" d="M0.246094 0H64.2461V64H0.246094V0Z" fill="#D21034"/>
<path id="Vector_2" d="M16.2461 16H48.2461V48H16.2461V16Z" fill="#007E3A"/>
<path id="Vector_3" d="M36.2465 42.6625C42.1352 42.6625 46.909 37.8887 46.909 32C46.909 26.1113 42.1352 21.3375 36.2465 21.3375C30.3577 21.3375 25.584 26.1113 25.584 32C25.584 37.8887 30.3577 42.6625 36.2465 42.6625Z" fill="#F5F5F5"/>
<path id="Vector_4" d="M38.8215 42.6625C43.9232 42.6625 48.059 37.8887 48.059 32C48.059 26.1113 43.9232 21.3375 38.8215 21.3375C33.7198 21.3375 29.584 26.1113 29.584 32C29.584 37.8887 33.7198 42.6625 38.8215 42.6625Z" fill="#007E3A"/>
</g>
</g>
<defs>
<clipPath id="clip0_2909_185329">
<path d="M0.246094 32C0.246094 14.3269 14.573 0 32.2461 0V0C49.9192 0 64.2461 14.3269 64.2461 32V32C64.2461 49.6731 49.9192 64 32.2461 64V64C14.573 64 0.246094 49.6731 0.246094 32V32Z" fill="white"/>
</clipPath>
</defs>
</svg>
