<svg width="65" height="64" viewBox="0 0 65 64" fill="none" xmlns="http://www.w3.org/2000/svg">
<g id="Rounded=Malaysia (MY)">
<g clip-path="url(#clip0_2909_185327)">
<path id="Vector" d="M0.246094 0H64.2461V64H0.246094V0Z" fill="#CC0000"/>
<path id="Vector_2" d="M0.295898 5.3125H64.1959V10.4375H0.295898V5.3125ZM0.295898 15.8125H64.1959V20.9375H0.295898V15.8125ZM0.295898 26.325H64.1959V31.45H0.295898V26.325Z" fill="#F5F5F5"/>
<path id="Vector_3" d="M0.246094 0H32.2461V37.3375H0.246094V0Z" fill="#000066"/>
<path id="Vector_4" d="M21.8084 10.85L22.5084 15.625L25.2084 11.625L23.7584 16.225L27.9209 13.8L24.6209 17.3125L29.4334 16.9375L24.9334 18.6625L29.4334 20.4125L24.6209 20.025L27.9209 23.525L23.7459 21.125L25.1959 25.7125L22.4959 21.725L21.7959 26.4875L21.0959 21.7375L18.4084 25.7125L19.8459 21.125L15.6959 23.55L18.9834 20.0375L14.1834 20.4125L18.6834 18.675L14.1834 16.9375L18.9834 17.325L15.6959 13.8125L19.8459 16.2375L18.4209 11.625L21.1084 15.625L21.8084 10.85ZM17.9084 11.05C16.639 10.4858 15.2487 10.2476 13.8639 10.3573C12.4791 10.4669 11.1436 10.9208 9.97881 11.6777C8.814 12.4347 7.85679 13.4707 7.19413 14.6916C6.53147 15.9125 6.18437 17.2796 6.18437 18.6688C6.18437 20.0579 6.53147 21.425 7.19413 22.646C7.85679 23.8669 8.814 24.9029 9.97881 25.6598C11.1436 26.4167 12.4791 26.8706 13.8639 26.9803C15.2487 27.0899 16.639 26.8518 17.9084 26.2875C16.5074 27.2921 14.8564 27.891 13.1371 28.0182C11.4179 28.1454 9.69677 27.7961 8.16313 27.0086C6.62948 26.2212 5.34268 25.0261 4.44418 23.5547C3.54569 22.0834 3.07031 20.3928 3.07031 18.6688C3.07031 16.9448 3.54569 15.2542 4.44418 13.7828C5.34268 12.3115 6.62948 11.1164 8.16313 10.3289C9.69677 9.54143 11.4179 9.1921 13.1371 9.31933C14.8564 9.44655 16.5074 10.0454 17.9084 11.05V11.05Z" fill="#FFCC00"/>
<path id="Vector_5" d="M0.296094 36.825H64.1961V41.95H0.296094V36.825ZM0.296094 47.2625H64.1961V52.3875H0.296094V47.2625ZM0.246094 58.875H64.1461V64H0.246094V58.875Z" fill="#F5F5F5"/>
</g>
</g>
<defs>
<clipPath id="clip0_2909_185327">
<path d="M0.246094 32C0.246094 14.3269 14.573 0 32.2461 0V0C49.9192 0 64.2461 14.3269 64.2461 32V32C64.2461 49.6731 49.9192 64 32.2461 64V64C14.573 64 0.246094 49.6731 0.246094 32V32Z" fill="white"/>
</clipPath>
</defs>
</svg>
