<svg width="65" height="64" viewBox="0 0 65 64" fill="none" xmlns="http://www.w3.org/2000/svg">
<g id="Rounded=Mozambique (MZ)">
<g clip-path="url(#clip0_2909_185325)">
<g id="Group">
<path id="Vector" fill-rule="evenodd" clip-rule="evenodd" d="M0.246094 0H96.2314V19.9969H0.246094V0Z" fill="#009A00"/>
<path id="Vector_2" fill-rule="evenodd" clip-rule="evenodd" d="M0.246094 19.9969H96.2314V21.9966H0.246094V19.9969Z" fill="#F5F5F5"/>
<path id="Vector_3" fill-rule="evenodd" clip-rule="evenodd" d="M0.246094 21.9966H96.2314V41.9936H0.246094V21.9966Z" fill="black"/>
<path id="Vector_4" fill-rule="evenodd" clip-rule="evenodd" d="M0.246094 41.9936H96.2314V43.9933H0.246094V41.9936Z" fill="#F5F5F5"/>
<path id="Vector_5" fill-rule="evenodd" clip-rule="evenodd" d="M0.246094 43.9933H96.2314V63.9902H0.246094V43.9933Z" fill="#FFCA00"/>
<path id="Vector_6" fill-rule="evenodd" clip-rule="evenodd" d="M0.246094 0V63.9902L42.2526 31.9951L0.246094 0Z" fill="#FF0000"/>
<path id="Vector_7" fill-rule="evenodd" clip-rule="evenodd" d="M25.0556 41.6194L18.6566 36.9363L12.2705 41.6194L14.7475 34.0851L8.29688 29.4407L16.244 29.4794L18.6566 21.9321L21.082 29.4794L29.0163 29.4407L22.5657 34.0851L25.0556 41.6194Z" fill="#FFCA00"/>
<path id="Vector_8" fill-rule="evenodd" clip-rule="evenodd" d="M13.0957 36.3686H17.7143C18.0885 36.7815 18.9142 36.9492 19.7011 36.3686C21.1461 35.5687 23.9457 36.3686 23.9457 36.3686L24.5004 35.7752L23.1587 31.3758L22.6684 30.8598C22.6684 30.8598 21.6363 30.2405 19.6753 30.4469C17.7144 30.6534 17.0306 30.3695 17.0306 30.3695C17.0306 30.3695 15.3018 30.576 14.8245 30.834L14.2697 31.3887L13.1086 36.3815L13.0957 36.3686Z" fill="#F5F5F5" stroke="black" stroke-width="0.141914" stroke-linecap="round" stroke-linejoin="round"/>
<path id="Vector_9" d="M14.0244 35.2204C14.0244 35.2204 18.4366 34.6786 19.701 36.3686C18.9914 36.8589 18.3592 36.8847 17.6755 36.3944C17.7916 36.2138 19.2623 34.6786 23.0166 35.1946" stroke="black" stroke-width="0.141914" stroke-linecap="round" stroke-linejoin="round"/>
<path id="Vector_10" d="M22.6687 30.8985L23.4944 34.7431M18.7467 30.8211L18.708 35.6719L18.7467 30.8211Z" stroke="black" stroke-width="0.141914"/>
<path id="Vector_11" d="M14.8637 30.834L14.4121 32.8208" stroke="black" stroke-width="0.141914" stroke-linecap="round" stroke-linejoin="round"/>
<path id="Vector_12" fill-rule="evenodd" clip-rule="evenodd" d="M10.1025 36.8976L11.1862 38.1619C11.3153 38.2393 11.4314 38.2393 11.5475 38.1619L13.1472 36.2267L13.831 35.401C13.8771 35.3483 13.9122 35.2869 13.9343 35.2205C13.9565 35.154 13.9652 35.0838 13.96 35.014L15.2501 33.8529C15.3533 33.8787 15.4179 33.8916 15.5082 33.8916C15.3921 33.8529 15.3017 33.8013 15.405 33.6594L15.6888 33.44L15.921 33.7239C15.921 33.7239 15.5985 34.1496 15.5598 34.1496H15.2114L14.5277 34.756L14.8244 35.014L15.2759 36.2396L15.8178 35.8526L15.4695 34.6012L16.2435 33.7626L15.9468 33.311L16.1403 33.053C16.1403 33.053 18.8109 34.7302 19.843 34.2786C19.8688 34.2915 19.9075 33.0788 19.9075 33.0788C19.9075 33.0788 17.1337 32.795 17.0692 32.2531C17.0047 31.6984 17.6885 31.6339 17.6885 31.6339L17.3917 31.221L17.4563 30.9888L17.9465 31.6081L19.0302 30.6663L25.4679 38.0071C25.8163 37.8652 25.8937 37.7749 25.9195 37.4265L19.5979 30.1889L20.0881 29.6729C20.1784 29.5697 20.2171 29.5181 20.2171 29.3503L20.9525 28.7053C21.1514 28.7755 21.32 28.9122 21.4298 29.0923L23.4682 27.3765C23.5198 27.4281 23.6876 27.4797 23.7908 27.4152L27.1451 24.1898L23.494 26.7701L23.365 26.6798C23.365 26.5766 23.494 26.5508 23.365 26.3573C23.2231 26.1895 23.0038 26.525 22.978 26.525C22.9522 26.525 22.449 26.3444 22.3329 26.125L22.3071 26.7185L21.3653 27.5829L20.6558 27.5571L19.6237 28.5505L19.4946 28.9375L19.6624 29.26C19.6624 29.26 19.1205 29.7374 19.1205 29.7116C19.1205 29.6729 19.0044 29.5697 18.9915 29.5439L19.4688 29.131L19.5334 28.8343L19.3785 28.5892C19.3269 28.6279 18.7335 29.26 18.6948 29.1955L16.9789 27.2216L17.0692 26.8604L15.9726 25.6735C15.5856 25.5445 14.9405 25.5187 14.8115 26.3831C14.7212 26.5895 13.8826 26.4089 13.8826 26.4089L13.444 26.5121L10.9024 30.1115L12.3216 31.8145L15.2114 28.1505L15.2888 27.1184L15.8952 27.7893C16.1016 27.8151 16.2951 27.8151 16.4758 27.7248L18.1916 29.6342L17.9078 29.918L18.1658 30.2018L18.4496 29.9954L18.5787 30.1631C18.4238 30.2405 18.3206 30.3437 18.1916 30.4212C17.9465 30.2792 17.7272 30.0857 17.753 29.789L16.7854 30.5889L16.7467 30.7566L13.8826 33.1304L13.6246 33.1691L13.5601 33.9045L15.4308 32.3563V32.137L15.6243 32.2918L17.0692 31.1307C17.0692 31.1307 17.1724 31.2597 17.1337 31.2597C17.095 31.2597 15.8436 32.4208 15.8436 32.4208L15.8178 32.5499L15.5985 32.7434L15.4695 32.6531L13.7278 34.2012H13.4698L12.5022 35.1559C12.257 35.1817 12.0377 35.2075 11.8313 35.3494L10.1025 36.8976V36.8976Z" fill="black" stroke="black" stroke-width="0.141914" stroke-linecap="round" stroke-linejoin="round"/>
</g>
</g>
</g>
<defs>
<clipPath id="clip0_2909_185325">
<path d="M0.246094 32C0.246094 14.3269 14.573 0 32.2461 0V0C49.9192 0 64.2461 14.3269 64.2461 32V32C64.2461 49.6731 49.9192 64 32.2461 64V64C14.573 64 0.246094 49.6731 0.246094 32V32Z" fill="white"/>
</clipPath>
</defs>
</svg>
