<svg width="65" height="64" viewBox="0 0 65 64" fill="none" xmlns="http://www.w3.org/2000/svg">
<g id="Rounded=Nauru (NR)">
<g clip-path="url(#clip0_2909_185393)">
<g id="Group">
<path id="Vector" fill-rule="evenodd" clip-rule="evenodd" d="M-17.2539 0H110.739V63.9902H-17.2539V0Z" fill="#002170"/>
<path id="Vector_2" fill-rule="evenodd" clip-rule="evenodd" d="M-17.2539 29.26H110.739V34.7302H-17.2539V29.26Z" fill="#FFB20D"/>
<path id="Vector_3" fill-rule="evenodd" clip-rule="evenodd" d="M20.4689 54.7529L16.3534 50.6245L15.0375 56.3011L13.528 50.6632L9.54152 54.9206L11.0639 49.2957L5.49053 50.9729L9.61893 46.8703L3.94238 45.5414L9.56733 44.0449L5.30991 40.0455L10.9349 41.5678L9.2577 35.9945L13.3603 40.1229L14.6891 34.4464L16.1986 40.0713L20.1722 35.8268L18.6627 41.4517L24.236 39.7746L20.1076 43.8772L25.7842 45.206L20.1593 46.7025L24.4167 50.689L18.7788 49.1796L20.4689 54.7529Z" fill="#F5F5F5"/>
</g>
</g>
</g>
<defs>
<clipPath id="clip0_2909_185393">
<path d="M0.246094 32C0.246094 14.3269 14.573 0 32.2461 0V0C49.9192 0 64.2461 14.3269 64.2461 32V32C64.2461 49.6731 49.9192 64 32.2461 64V64C14.573 64 0.246094 49.6731 0.246094 32V32Z" fill="white"/>
</clipPath>
</defs>
</svg>
