<svg width="65" height="64" viewBox="0 0 65 64" fill="none" xmlns="http://www.w3.org/2000/svg">
<g id="Rounded=Oman (OM)">
<g clip-path="url(#clip0_2909_185313)">
<g id="Group">
<path id="Vector" fill-rule="evenodd" clip-rule="evenodd" d="M-2.66602 -2.70001H66.6715V66.425H-2.66602V-2.70001Z" fill="#EF2D29"/>
<path id="Vector_2" fill-rule="evenodd" clip-rule="evenodd" d="M20.8213 42.6625H67.8713V68.625H20.8213V42.6625Z" fill="#009025"/>
<path id="Vector_3" fill-rule="evenodd" clip-rule="evenodd" d="M20.8213 -2.42502H67.8713V21.325H20.8213V-2.42502Z" fill="#F5F5F5"/>
<g id="Group_2">
<g id="Group_3">
<path id="Vector_4" d="M17.419 9.53745H14.6087C14.4537 9.53745 14.3281 9.65559 14.3281 9.80133V11.1273C14.3281 11.273 14.4537 11.3912 14.6087 11.3912H17.419C17.5739 11.3912 17.6995 11.273 17.6995 11.1273V9.80133C17.6995 9.65559 17.5739 9.53745 17.419 9.53745Z" fill="#F5F5F5" stroke="#EF2D28" stroke-width="0.0322919"/>
<path id="Vector_5" d="M17.3483 9.61597H14.6819C14.5351 9.61597 14.416 9.72435 14.416 9.85804V11.075C14.416 11.2087 14.5351 11.317 14.6819 11.317H17.3483C17.4952 11.317 17.6142 11.2087 17.6142 11.075V9.85804C17.6142 9.72435 17.4952 9.61597 17.3483 9.61597Z" fill="#F5F5F5" stroke="#EF2D28" stroke-width="0.0230657"/>
<path id="Vector_6" fill-rule="evenodd" clip-rule="evenodd" d="M15.9035 10.077L16.0647 10.0833L16.0714 10.1574L16.2043 10.225L16.3073 10.1395L16.4319 10.2071L16.3156 10.2812L16.3438 10.3833L16.4901 10.3769V10.5109L16.3737 10.5058L16.3139 10.59L16.4469 10.6857L16.3438 10.7649L16.2325 10.6806L16.0714 10.7138L16.0797 10.8376L15.9035 10.8504L15.8803 10.7304L15.7341 10.6691L15.6527 10.7534L15.528 10.6908L15.6012 10.5951L15.5131 10.5339H15.3885L15.3818 10.359L15.5064 10.3705L15.5945 10.2684L15.4915 10.1893L15.6244 10.0999L15.7191 10.1727L15.8803 10.1497L15.9035 10.077Z" fill="#F5F5F5" stroke="#EF2D28" stroke-width="0.0145619"/>
<path id="Vector_7" d="M15.9487 10.5967C16.0472 10.5967 16.127 10.5288 16.127 10.445C16.127 10.3613 16.0472 10.2934 15.9487 10.2934C15.8503 10.2934 15.7705 10.3613 15.7705 10.445C15.7705 10.5288 15.8503 10.5967 15.9487 10.5967Z" fill="#F5F5F5" stroke="#EF2D28" stroke-width="0.0156814"/>
<g id="Vector_8">
<path fill-rule="evenodd" clip-rule="evenodd" d="M14.8475 9.69229L14.5864 9.92346L14.8475 9.69229ZM15.0207 9.69229L14.7596 9.92346L15.0207 9.69229ZM15.1914 9.69229L14.9328 9.92346L15.1914 9.69229ZM15.3646 9.69229L15.106 9.92346L15.3646 9.69229ZM15.5378 9.69229L15.2792 9.92346L15.5378 9.69229ZM15.711 9.69229L15.4524 9.92346L15.711 9.69229ZM15.8842 9.69229L15.6257 9.92346L15.8842 9.69229ZM16.0574 9.69229L15.7989 9.92346L16.0574 9.69229ZM16.2306 9.69229L15.9696 9.92346L16.2306 9.69229ZM16.4039 9.69229L16.1404 9.92346L16.4039 9.69229ZM16.5722 9.69229L16.3136 9.92346L16.5722 9.69229ZM16.7454 9.69229L16.4868 9.92346L16.7454 9.69229ZM16.055 9.69229L15.7989 9.92346L16.055 9.69229ZM16.921 9.69229L16.6624 9.92346L16.921 9.69229ZM17.0942 9.69229L16.8356 9.92346L17.0942 9.69229ZM17.2674 9.69229L17.0088 9.92346L17.2674 9.69229ZM17.4406 9.69229L17.1821 9.92346L17.4406 9.69229ZM17.1821 9.69229L17.4406 9.92346L17.1821 9.69229ZM17.0088 9.69229L17.2674 9.92346L17.0088 9.69229ZM16.8356 9.69229L17.0942 9.92346L16.8356 9.69229ZM16.6624 9.69229L16.921 9.92346L16.6624 9.69229ZM16.4892 9.69229L16.7478 9.92346L16.4892 9.69229ZM16.316 9.69229L16.5746 9.92346L16.316 9.69229ZM16.1428 9.69229L16.4039 9.92346L16.1428 9.69229ZM15.9696 9.69229L16.2282 9.92346L15.9696 9.69229ZM15.794 9.69229L16.055 9.92346L15.794 9.69229ZM15.6232 9.69229L15.8818 9.92346L15.6232 9.69229ZM15.45 9.69229L15.7086 9.92346L15.45 9.69229ZM15.2768 9.69229L15.5354 9.92346L15.2768 9.69229ZM15.9696 9.69229L16.2282 9.92346L15.9696 9.69229ZM15.106 9.69229L15.3622 9.92346L15.106 9.69229ZM14.9304 9.69229L15.1914 9.92346L14.9304 9.69229ZM14.7572 9.69229L15.0182 9.92346L14.7572 9.69229ZM14.584 9.69229L14.8475 9.92346L14.584 9.69229ZM14.8475 11.0052L14.5889 11.2385L14.8475 11.0052ZM15.0182 11.0052L14.7572 11.2385L15.0182 11.0052ZM15.1939 11.0052L14.9328 11.2385L15.1939 11.0052ZM15.3646 11.0052L15.106 11.2385L15.3646 11.0052ZM15.5378 11.0052L15.2792 11.2385L15.5378 11.0052ZM15.711 11.0052L15.4524 11.2385L15.711 11.0052ZM15.8842 11.0052L15.6281 11.2385L15.8842 11.0052ZM16.0574 11.0052L15.7989 11.2385L16.0574 11.0052ZM16.2306 11.0052L15.9696 11.2385L16.2306 11.0052ZM16.4014 11.0052L16.1404 11.2385L16.4014 11.0052ZM16.5795 11.0052L16.3185 11.2385L16.5795 11.0052ZM16.7503 11.0052L16.4917 11.2385L16.7503 11.0052ZM16.0574 11.0052L15.7989 11.2385L16.0574 11.0052ZM16.921 11.0052L16.6624 11.2385L16.921 11.0052ZM17.0942 11.0052L16.8356 11.2385L17.0942 11.0052ZM17.2674 11.0052L17.0088 11.2385L17.2674 11.0052ZM17.4406 11.0052L17.1821 11.2385L17.4406 11.0052ZM17.1821 11.0052L17.4406 11.2385L17.1821 11.0052ZM17.0088 11.0052L17.2674 11.2385L17.0088 11.0052ZM16.8356 11.0052L17.0942 11.2385L16.8356 11.0052ZM16.6624 11.0052L16.921 11.2385L16.6624 11.0052ZM16.4892 11.0052L16.7478 11.2385L16.4892 11.0052ZM16.316 11.0052L16.5771 11.2385L16.316 11.0052ZM16.1404 11.0052L16.4014 11.2385L16.1404 11.0052ZM15.9696 11.0052L16.2282 11.2385L15.9696 11.0052ZM15.7989 11.0052L16.0574 11.2385L15.7989 11.0052ZM15.6257 11.0052L15.8842 11.2385L15.6257 11.0052ZM15.4524 11.0052L15.711 11.2385L15.4524 11.0052ZM15.2792 11.0052L15.5378 11.2385L15.2792 11.0052ZM15.9721 11.0052L16.2306 11.2385L15.9721 11.0052ZM15.1085 11.0052L15.3646 11.2385L15.1085 11.0052ZM14.9328 11.0052L15.1939 11.2385L14.9328 11.0052ZM14.7596 11.0052L15.0207 11.2385L14.7596 11.0052ZM14.5889 11.0052L14.8475 11.2385Z" fill="#F5F5F5"/>
<path d="M14.5889 11.0052L14.8475 11.2385M14.8475 9.69229L14.5864 9.92346L14.8475 9.69229ZM15.0207 9.69229L14.7596 9.92346L15.0207 9.69229ZM15.1914 9.69229L14.9328 9.92346L15.1914 9.69229ZM15.3646 9.69229L15.106 9.92346L15.3646 9.69229ZM15.5378 9.69229L15.2792 9.92346L15.5378 9.69229ZM15.711 9.69229L15.4524 9.92346L15.711 9.69229ZM15.8842 9.69229L15.6257 9.92346L15.8842 9.69229ZM16.0574 9.69229L15.7989 9.92346L16.0574 9.69229ZM16.2306 9.69229L15.9696 9.92346L16.2306 9.69229ZM16.4039 9.69229L16.1404 9.92346L16.4039 9.69229ZM16.5722 9.69229L16.3136 9.92346L16.5722 9.69229ZM16.7454 9.69229L16.4868 9.92346L16.7454 9.69229ZM16.055 9.69229L15.7989 9.92346L16.055 9.69229ZM16.921 9.69229L16.6624 9.92346L16.921 9.69229ZM17.0942 9.69229L16.8356 9.92346L17.0942 9.69229ZM17.2674 9.69229L17.0088 9.92346L17.2674 9.69229ZM17.4406 9.69229L17.1821 9.92346L17.4406 9.69229ZM17.1821 9.69229L17.4406 9.92346L17.1821 9.69229ZM17.0088 9.69229L17.2674 9.92346L17.0088 9.69229ZM16.8356 9.69229L17.0942 9.92346L16.8356 9.69229ZM16.6624 9.69229L16.921 9.92346L16.6624 9.69229ZM16.4892 9.69229L16.7478 9.92346L16.4892 9.69229ZM16.316 9.69229L16.5746 9.92346L16.316 9.69229ZM16.1428 9.69229L16.4039 9.92346L16.1428 9.69229ZM15.9696 9.69229L16.2282 9.92346L15.9696 9.69229ZM15.794 9.69229L16.055 9.92346L15.794 9.69229ZM15.6232 9.69229L15.8818 9.92346L15.6232 9.69229ZM15.45 9.69229L15.7086 9.92346L15.45 9.69229ZM15.2768 9.69229L15.5354 9.92346L15.2768 9.69229ZM15.9696 9.69229L16.2282 9.92346L15.9696 9.69229ZM15.106 9.69229L15.3622 9.92346L15.106 9.69229ZM14.9304 9.69229L15.1914 9.92346L14.9304 9.69229ZM14.7572 9.69229L15.0182 9.92346L14.7572 9.69229ZM14.584 9.69229L14.8475 9.92346L14.584 9.69229ZM14.8475 11.0052L14.5889 11.2385L14.8475 11.0052ZM15.0182 11.0052L14.7572 11.2385L15.0182 11.0052ZM15.1939 11.0052L14.9328 11.2385L15.1939 11.0052ZM15.3646 11.0052L15.106 11.2385L15.3646 11.0052ZM15.5378 11.0052L15.2792 11.2385L15.5378 11.0052ZM15.711 11.0052L15.4524 11.2385L15.711 11.0052ZM15.8842 11.0052L15.6281 11.2385L15.8842 11.0052ZM16.0574 11.0052L15.7989 11.2385L16.0574 11.0052ZM16.2306 11.0052L15.9696 11.2385L16.2306 11.0052ZM16.4014 11.0052L16.1404 11.2385L16.4014 11.0052ZM16.5795 11.0052L16.3185 11.2385L16.5795 11.0052ZM16.7503 11.0052L16.4917 11.2385L16.7503 11.0052ZM16.0574 11.0052L15.7989 11.2385L16.0574 11.0052ZM16.921 11.0052L16.6624 11.2385L16.921 11.0052ZM17.0942 11.0052L16.8356 11.2385L17.0942 11.0052ZM17.2674 11.0052L17.0088 11.2385L17.2674 11.0052ZM17.4406 11.0052L17.1821 11.2385L17.4406 11.0052ZM17.1821 11.0052L17.4406 11.2385L17.1821 11.0052ZM17.0088 11.0052L17.2674 11.2385L17.0088 11.0052ZM16.8356 11.0052L17.0942 11.2385L16.8356 11.0052ZM16.6624 11.0052L16.921 11.2385L16.6624 11.0052ZM16.4892 11.0052L16.7478 11.2385L16.4892 11.0052ZM16.316 11.0052L16.5771 11.2385L16.316 11.0052ZM16.1404 11.0052L16.4014 11.2385L16.1404 11.0052ZM15.9696 11.0052L16.2282 11.2385L15.9696 11.0052ZM15.7989 11.0052L16.0574 11.2385L15.7989 11.0052ZM15.6257 11.0052L15.8842 11.2385L15.6257 11.0052ZM15.4524 11.0052L15.711 11.2385L15.4524 11.0052ZM15.2792 11.0052L15.5378 11.2385L15.2792 11.0052ZM15.9721 11.0052L16.2306 11.2385L15.9721 11.0052ZM15.1085 11.0052L15.3646 11.2385L15.1085 11.0052ZM14.9328 11.0052L15.1939 11.2385L14.9328 11.0052ZM14.7596 11.0052L15.0207 11.2385L14.7596 11.0052Z" stroke="#EF2D28" stroke-width="0.0230657"/>
</g>
</g>
<g id="Group_4">
<path id="Vector_9" d="M6.09378 9.44995H3.28347C3.12853 9.44995 3.00293 9.5681 3.00293 9.71384V11.0398C3.00293 11.1855 3.12853 11.3037 3.28347 11.3037H6.09378C6.24872 11.3037 6.37432 11.1855 6.37432 11.0398V9.71384C6.37432 9.5681 6.24872 9.44995 6.09378 9.44995Z" fill="#F5F5F5" stroke="#EF2D28" stroke-width="0.0322919"/>
<path id="Vector_10" d="M6.0231 9.52847H3.35673C3.20987 9.52847 3.09082 9.63685 3.09082 9.77055V10.9875C3.09082 11.1212 3.20987 11.2296 3.35673 11.2296H6.0231C6.16995 11.2296 6.289 11.1212 6.289 10.9875V9.77055C6.289 9.63685 6.16995 9.52847 6.0231 9.52847Z" fill="#F5F5F5" stroke="#EF2D28" stroke-width="0.0230657"/>
<path id="Vector_11" fill-rule="evenodd" clip-rule="evenodd" d="M4.57835 9.98947L4.73951 9.99585L4.74616 10.0699L4.87908 10.1375L4.98209 10.052L5.10671 10.1196L4.9904 10.1937L5.01865 10.2958L5.16486 10.2894V10.4234L5.04855 10.4183L4.98874 10.5025L5.12166 10.5982L5.01865 10.6774L4.90733 10.5931L4.74616 10.6263L4.75447 10.7501L4.57835 10.7629L4.55509 10.6429L4.40888 10.5817L4.32746 10.6659L4.20285 10.6033L4.27596 10.5076L4.1879 10.4464H4.06329L4.05664 10.2715L4.18125 10.283L4.26931 10.1809L4.1663 10.1018L4.29922 10.0124L4.39392 10.0852L4.55509 10.0622L4.57835 9.98947Z" fill="#F5F5F5" stroke="#EF2D28" stroke-width="0.0145619"/>
<path id="Vector_12" d="M4.62354 10.5092C4.72197 10.5092 4.80177 10.4413 4.80177 10.3576C4.80177 10.2738 4.72197 10.2059 4.62354 10.2059C4.52511 10.2059 4.44531 10.2738 4.44531 10.3576C4.44531 10.4413 4.52511 10.5092 4.62354 10.5092Z" fill="#F5F5F5" stroke="#EF2D28" stroke-width="0.0156814"/>
<g id="Vector_13">
<path fill-rule="evenodd" clip-rule="evenodd" d="M3.52226 9.6048L3.26123 9.83597L3.52226 9.6048ZM3.69546 9.6048L3.43443 9.83597L3.69546 9.6048ZM3.86622 9.6048L3.60764 9.83597L3.86622 9.6048ZM4.03943 9.6048L3.78084 9.83597L4.03943 9.6048ZM4.21263 9.6048L3.95405 9.83597L4.21263 9.6048ZM4.38584 9.6048L4.12725 9.83597L4.38584 9.6048ZM4.55904 9.6048L4.30046 9.83597L4.55904 9.6048ZM4.73225 9.6048L4.47366 9.83597L4.73225 9.6048ZM4.90545 9.6048L4.64443 9.83597L4.90545 9.6048ZM5.07866 9.6048L4.81519 9.83597L5.07866 9.6048ZM5.24698 9.6048L4.98839 9.83597L5.24698 9.6048ZM5.42019 9.6048L5.1616 9.83597L5.42019 9.6048ZM4.72981 9.6048L4.47366 9.83597L4.72981 9.6048ZM5.59583 9.6048L5.33724 9.83597L5.59583 9.6048ZM5.76903 9.6048L5.51045 9.83597L5.76903 9.6048ZM5.94224 9.6048L5.68365 9.83597L5.94224 9.6048ZM6.11544 9.6048L5.85686 9.83597L6.11544 9.6048ZM5.85686 9.6048L6.11544 9.83597L5.85686 9.6048ZM5.68365 9.6048L5.94224 9.83597L5.68365 9.6048ZM5.51045 9.6048L5.76903 9.83597L5.51045 9.6048ZM5.33724 9.6048L5.59583 9.83597L5.33724 9.6048ZM5.16404 9.6048L5.42263 9.83597L5.16404 9.6048ZM4.99083 9.6048L5.24942 9.83597L4.99083 9.6048ZM4.81763 9.6048L5.07866 9.83597L4.81763 9.6048ZM4.64443 9.6048L4.90301 9.83597L4.64443 9.6048ZM4.46878 9.6048L4.72981 9.83597L4.46878 9.6048ZM4.29802 9.6048L4.5566 9.83597L4.29802 9.6048ZM4.12481 9.6048L4.3834 9.83597L4.12481 9.6048ZM3.95161 9.6048L4.21019 9.83597L3.95161 9.6048ZM4.64443 9.6048L4.90301 9.83597L4.64443 9.6048ZM3.78084 9.6048L4.03699 9.83597L3.78084 9.6048ZM3.6052 9.6048L3.86622 9.83597L3.6052 9.6048ZM3.43199 9.6048L3.69302 9.83597L3.43199 9.6048ZM3.25879 9.6048L3.52226 9.83597L3.25879 9.6048ZM3.52226 10.9177L3.26367 11.151L3.52226 10.9177ZM3.69302 10.9177L3.43199 11.151L3.69302 10.9177ZM3.86866 10.9177L3.60764 11.151L3.86866 10.9177ZM4.03943 10.9177L3.78084 11.151L4.03943 10.9177ZM4.21263 10.9177L3.95405 11.151L4.21263 10.9177ZM4.38584 10.9177L4.12725 11.151L4.38584 10.9177ZM4.55904 10.9177L4.3029 11.151L4.55904 10.9177ZM4.73225 10.9177L4.47366 11.151L4.73225 10.9177ZM4.90545 10.9177L4.64443 11.151L4.90545 10.9177ZM5.07622 10.9177L4.81519 11.151L5.07622 10.9177ZM5.2543 10.9177L4.99327 11.151L5.2543 10.9177ZM5.42507 10.9177L5.16648 11.151L5.42507 10.9177ZM4.73225 10.9177L4.47366 11.151L4.73225 10.9177ZM5.59583 10.9177L5.33724 11.151L5.59583 10.9177ZM5.76903 10.9177L5.51045 11.151L5.76903 10.9177ZM5.94224 10.9177L5.68365 11.151L5.94224 10.9177ZM6.11544 10.9177L5.85686 11.151L6.11544 10.9177ZM5.85686 10.9177L6.11544 11.151L5.85686 10.9177ZM5.68365 10.9177L5.94224 11.151L5.68365 10.9177ZM5.51045 10.9177L5.76903 11.151L5.51045 10.9177ZM5.33724 10.9177L5.59583 11.151L5.33724 10.9177ZM5.16404 10.9177L5.42263 11.151L5.16404 10.9177ZM4.99083 10.9177L5.25186 11.151L4.99083 10.9177ZM4.81519 10.9177L5.07622 11.151L4.81519 10.9177ZM4.64443 10.9177L4.90301 11.151L4.64443 10.9177ZM4.47366 10.9177L4.73225 11.151L4.47366 10.9177ZM4.30046 10.9177L4.55904 11.151L4.30046 10.9177ZM4.12725 10.9177L4.38584 11.151L4.12725 10.9177ZM3.95405 10.9177L4.21263 11.151L3.95405 10.9177ZM4.64686 10.9177L4.90545 11.151L4.64686 10.9177ZM3.78328 10.9177L4.03943 11.151L3.78328 10.9177ZM3.60764 10.9177L3.86866 11.151L3.60764 10.9177ZM3.43443 10.9177L3.69546 11.151L3.43443 10.9177ZM3.26367 10.9177L3.52226 11.151Z" fill="#F5F5F5"/>
<path d="M3.26367 10.9177L3.52226 11.151M3.52226 9.6048L3.26123 9.83597L3.52226 9.6048ZM3.69546 9.6048L3.43443 9.83597L3.69546 9.6048ZM3.86622 9.6048L3.60764 9.83597L3.86622 9.6048ZM4.03943 9.6048L3.78084 9.83597L4.03943 9.6048ZM4.21263 9.6048L3.95405 9.83597L4.21263 9.6048ZM4.38584 9.6048L4.12725 9.83597L4.38584 9.6048ZM4.55904 9.6048L4.30046 9.83597L4.55904 9.6048ZM4.73225 9.6048L4.47366 9.83597L4.73225 9.6048ZM4.90545 9.6048L4.64443 9.83597L4.90545 9.6048ZM5.07866 9.6048L4.81519 9.83597L5.07866 9.6048ZM5.24698 9.6048L4.98839 9.83597L5.24698 9.6048ZM5.42019 9.6048L5.1616 9.83597L5.42019 9.6048ZM4.72981 9.6048L4.47366 9.83597L4.72981 9.6048ZM5.59583 9.6048L5.33724 9.83597L5.59583 9.6048ZM5.76903 9.6048L5.51045 9.83597L5.76903 9.6048ZM5.94224 9.6048L5.68365 9.83597L5.94224 9.6048ZM6.11544 9.6048L5.85686 9.83597L6.11544 9.6048ZM5.85686 9.6048L6.11544 9.83597L5.85686 9.6048ZM5.68365 9.6048L5.94224 9.83597L5.68365 9.6048ZM5.51045 9.6048L5.76903 9.83597L5.51045 9.6048ZM5.33724 9.6048L5.59583 9.83597L5.33724 9.6048ZM5.16404 9.6048L5.42263 9.83597L5.16404 9.6048ZM4.99083 9.6048L5.24942 9.83597L4.99083 9.6048ZM4.81763 9.6048L5.07866 9.83597L4.81763 9.6048ZM4.64443 9.6048L4.90301 9.83597L4.64443 9.6048ZM4.46878 9.6048L4.72981 9.83597L4.46878 9.6048ZM4.29802 9.6048L4.5566 9.83597L4.29802 9.6048ZM4.12481 9.6048L4.3834 9.83597L4.12481 9.6048ZM3.95161 9.6048L4.21019 9.83597L3.95161 9.6048ZM4.64443 9.6048L4.90301 9.83597L4.64443 9.6048ZM3.78084 9.6048L4.03699 9.83597L3.78084 9.6048ZM3.6052 9.6048L3.86622 9.83597L3.6052 9.6048ZM3.43199 9.6048L3.69302 9.83597L3.43199 9.6048ZM3.25879 9.6048L3.52226 9.83597L3.25879 9.6048ZM3.52226 10.9177L3.26367 11.151L3.52226 10.9177ZM3.69302 10.9177L3.43199 11.151L3.69302 10.9177ZM3.86866 10.9177L3.60764 11.151L3.86866 10.9177ZM4.03943 10.9177L3.78084 11.151L4.03943 10.9177ZM4.21263 10.9177L3.95405 11.151L4.21263 10.9177ZM4.38584 10.9177L4.12725 11.151L4.38584 10.9177ZM4.55904 10.9177L4.3029 11.151L4.55904 10.9177ZM4.73225 10.9177L4.47366 11.151L4.73225 10.9177ZM4.90545 10.9177L4.64443 11.151L4.90545 10.9177ZM5.07622 10.9177L4.81519 11.151L5.07622 10.9177ZM5.2543 10.9177L4.99327 11.151L5.2543 10.9177ZM5.42507 10.9177L5.16648 11.151L5.42507 10.9177ZM4.73225 10.9177L4.47366 11.151L4.73225 10.9177ZM5.59583 10.9177L5.33724 11.151L5.59583 10.9177ZM5.76903 10.9177L5.51045 11.151L5.76903 10.9177ZM5.94224 10.9177L5.68365 11.151L5.94224 10.9177ZM6.11544 10.9177L5.85686 11.151L6.11544 10.9177ZM5.85686 10.9177L6.11544 11.151L5.85686 10.9177ZM5.68365 10.9177L5.94224 11.151L5.68365 10.9177ZM5.51045 10.9177L5.76903 11.151L5.51045 10.9177ZM5.33724 10.9177L5.59583 11.151L5.33724 10.9177ZM5.16404 10.9177L5.42263 11.151L5.16404 10.9177ZM4.99083 10.9177L5.25186 11.151L4.99083 10.9177ZM4.81519 10.9177L5.07622 11.151L4.81519 10.9177ZM4.64443 10.9177L4.90301 11.151L4.64443 10.9177ZM4.47366 10.9177L4.73225 11.151L4.47366 10.9177ZM4.30046 10.9177L4.55904 11.151L4.30046 10.9177ZM4.12725 10.9177L4.38584 11.151L4.12725 10.9177ZM3.95405 10.9177L4.21263 11.151L3.95405 10.9177ZM4.64686 10.9177L4.90545 11.151L4.64686 10.9177ZM3.78328 10.9177L4.03943 11.151L3.78328 10.9177ZM3.60764 10.9177L3.86866 11.151L3.60764 10.9177ZM3.43443 10.9177L3.69546 11.151L3.43443 10.9177Z" stroke="#EF2D28" stroke-width="0.0230657"/>
</g>
</g>
<path id="Vector_14" fill-rule="evenodd" clip-rule="evenodd" d="M8.30479 13.338C4.11013 17.4521 2.3207 17.9718 3.162 18.3039C4.0033 18.6359 6.70374 16.5122 9.51323 13.6937C12.3227 10.8753 14.0436 8.36493 13.2023 8.03286C12.361 7.70079 12.7675 8.966 8.30479 13.338Z" fill="#F5F5F5" stroke="#EF2D28" stroke-width="0.0386024"/>
<path id="Vector_15" fill-rule="evenodd" clip-rule="evenodd" d="M4.75847 16.3374L6.22949 16.7234C4.8463 18.0385 3.2899 18.5772 2.8581 18.346C2.42631 18.1148 3.6363 17.574 4.76091 16.3396L4.75847 16.3374Z" fill="#F5F5F5" stroke="#EF2D28" stroke-width="0.0299854"/>
<path id="Vector_16" fill-rule="evenodd" clip-rule="evenodd" d="M4.76565 16.4888L5.97754 16.797C4.63021 18.0615 3.29713 18.4201 2.95257 18.2649C2.60564 18.1118 3.67258 17.6778 4.76565 16.4888Z" fill="#F5F5F5" stroke="#EF2D28" stroke-width="0.0290194"/>
<path id="Vector_17" d="M9.28027 13.1638C9.27684 13.1836 9.26653 13.2721 9.25794 13.3072C9.25794 13.356 9.25279 13.3927 9.24763 13.4308C9.23389 13.4644 9.23561 13.4949 9.19437 13.5071C9.17533 13.5376 9.14498 13.5613 9.10847 13.5742C9.07546 13.5977 9.03906 13.6172 9.00024 13.6322C8.95963 13.6479 8.91429 13.6511 8.87139 13.6413C8.83359 13.6185 8.80611 13.594 8.77518 13.5742C8.76831 13.5437 8.76144 13.4995 8.75285 13.4689C8.76627 13.5096 8.77377 13.5517 8.77518 13.594C8.77175 13.6398 8.75285 13.6612 8.73223 13.6978" stroke="#EF2D28" stroke-width="0.0291424"/>
<path id="Vector_18" d="M8.8808 13.801L8.87049 13.7919C8.89626 13.8148 8.88595 13.8041 8.82754 13.772C8.78631 13.7537 8.74164 13.7446 8.68838 13.7354H8.5372C8.47878 13.7354 8.43927 13.743 8.39804 13.7537C8.36711 13.7812 8.32245 13.7964 8.2898 13.8209C8.26079 13.8403 8.23872 13.8668 8.22624 13.8971C8.19703 13.9231 8.17813 13.9627 8.15065 13.9826C8.13862 14.0268 8.11457 14.0253 8.09739 14.0589C8.14893 14.0619 8.18844 14.068 8.21593 14.097C8.2606 14.1168 8.17813 14.0772 8.16095 14.0589C8.12659 14.0497 8.118 14.0406 8.06475 14.0406C8.01664 14.0253 7.98572 14.0512 7.9359 14.0589C7.90669 14.0741 7.8981 14.0787 7.8603 14.0787" stroke="#EF2D28" stroke-width="0.0291424"/>
<path id="Vector_19" d="M8.30664 14.2851C8.28431 14.2851 8.18466 14.3019 8.14515 14.2851C8.10048 14.2745 8.07643 14.2546 8.04894 14.218C8.0352 14.1921 8.04894 14.2638 8.04894 14.2943C8.04379 14.3508 8.02489 14.3508 7.99396 14.3889C7.96304 14.4072 7.9304 14.4316 7.89776 14.4469C7.86913 14.4676 7.83654 14.4836 7.80155 14.4942C7.76719 14.5094 7.73111 14.5216 7.70534 14.5415C7.66926 14.5644 7.67098 14.5918 7.65036 14.6284C7.65552 14.6742 7.66411 14.7017 7.69331 14.723C7.70706 14.7551 7.73455 14.7871 7.7586 14.8085C7.78437 14.8543 7.81529 14.8741 7.74829 14.8848C7.71049 14.9 7.68988 14.8878 7.65036 14.8848" stroke="#EF2D28" stroke-width="0.0291424"/>
<path id="Vector_20" d="M7.61426 14.9492C7.58677 14.9431 7.494 14.9156 7.45277 14.9019H7.30158C7.24489 14.9065 7.23286 14.9218 7.18476 14.9401C7.15212 14.969 7.1315 14.9889 7.08683 15.0072C7.0645 15.0331 7.01811 15.0789 7.00093 15.1125C6.98679 15.1519 6.97983 15.1931 6.98032 15.2345C6.98032 15.291 6.9975 15.3017 7.00093 15.3505C7.01296 15.3924 7.03525 15.4315 7.06622 15.4649C7.07137 15.4771 7.07481 15.4802 7.08683 15.4832" stroke="#EF2D28" stroke-width="0.0291424"/>
<path id="Vector_21" d="M7.10742 15.6018C7.10254 15.6018 7.09278 15.6259 7.07693 15.6463C7.04156 15.6825 7.0379 15.6849 6.98545 15.6849C6.93666 15.6825 6.94276 15.6656 6.9086 15.6548C6.89275 15.6307 6.87323 15.6114 6.85493 15.5789C6.84274 15.5596 6.83176 15.5295 6.81834 15.5115C6.8037 15.4886 6.78663 15.4717 6.77199 15.4512C6.75735 15.4452 6.75247 15.4392 6.73296 15.4356C6.77687 15.4428 6.78175 15.4585 6.8098 15.4813C6.82364 15.5031 6.83626 15.5256 6.84761 15.5488C6.85249 15.5813 6.86225 15.6066 6.86347 15.6463C6.86347 15.6885 6.86347 15.7174 6.84761 15.7523C6.82932 15.7704 6.81712 15.7897 6.79395 15.8053C6.77467 15.8238 6.75711 15.844 6.7415 15.8655L6.67197 15.9101C6.65002 15.9233 6.6244 15.9366 6.58903 15.9402C6.5439 15.9366 6.53048 15.9246 6.49755 15.9101C6.46827 15.8896 6.44632 15.8764 6.4207 15.8571C6.39968 15.84 6.38156 15.8197 6.36703 15.7969C6.32678 15.7873 6.29995 15.7909 6.27555 15.8125C6.25486 15.8268 6.23707 15.8448 6.2231 15.8655C6.21091 15.8716 6.18895 15.8896 6.17675 15.8956" stroke="#EF2D28" stroke-width="0.0290889"/>
<path id="Vector_22" d="M6.26823 15.9166C6.28036 15.9211 6.32585 15.9526 6.34405 15.9632C6.35618 16.0037 6.3759 16.0248 6.38196 16.0684C6.39258 16.1074 6.39258 16.1525 6.39258 16.1991C6.38196 16.2472 6.36225 16.2818 6.34405 16.3194C6.31372 16.3404 6.29856 16.3554 6.25913 16.3765C6.22121 16.3825 6.1833 16.387 6.13629 16.387C6.10596 16.396 6.05137 16.4005 6.02255 16.387C5.98009 16.381 5.94824 16.3645 5.91791 16.3494C5.88303 16.3299 5.8618 16.3104 5.82389 16.2923C5.80418 16.2653 5.77536 16.2397 5.74807 16.2081C5.7238 16.1766 5.70712 16.1585 5.69044 16.124C5.7056 16.1631 5.72532 16.1991 5.73745 16.2367C5.7602 16.2758 5.77233 16.2908 5.77536 16.3389C5.79053 16.378 5.78598 16.4261 5.78598 16.4712C5.78143 16.5012 5.77991 16.5583 5.76626 16.5839V16.6125" stroke="#EF2D28" stroke-width="0.028685"/>
<path id="Vector_23" d="M4.86576 16.767V16.7823C4.86576 16.7452 4.86576 16.7627 4.88284 16.8368C4.90967 16.8674 4.98041 16.8761 5.03408 16.863C5.08287 16.8259 5.08287 16.7976 5.1707 16.7823C5.25852 16.7867 5.29267 16.8085 5.34146 16.8368C5.39334 16.8541 5.43661 16.8873 5.46344 16.9306C5.48051 16.9764 5.49027 17.0091 5.43172 17.0266C5.38073 17.0571 5.32205 17.0758 5.26096 17.0811C5.19265 17.0811 5.14142 17.0745 5.10971 17.1094C5.06092 17.1531 5.0658 17.1792 5.0658 17.2577C5.04872 17.2817 5.04628 17.3537 5.03408 17.3821C4.9921 17.4018 4.94483 17.4109 4.89747 17.4082C4.8804 17.3646 4.86332 17.2905 4.85112 17.2447C4.83892 17.1967 4.83649 17.1269 4.80477 17.0942C4.7768 17.0566 4.74122 17.0241 4.69987 16.9982C4.6752 16.9732 4.64303 16.955 4.60717 16.9459C4.66816 16.972 4.67548 17.0026 4.6828 17.068C4.63157 17.0898 4.61693 17.1073 4.53155 17.1094C4.44616 17.1029 4.42665 17.0833 4.39494 17.0397C4.38762 17.1094 4.36322 17.1313 4.34615 17.1923C4.31687 17.2316 4.30467 17.273 4.27296 17.3275C4.28516 17.393 4.31443 17.3951 4.31687 17.4758C4.33639 17.5304 4.33639 17.5805 4.37786 17.6132C4.39738 17.635 4.41201 17.6372 4.45592 17.6394C4.3681 17.6394 4.31443 17.6307 4.25588 17.6001C4.21197 17.574 4.17782 17.5434 4.13391 17.5173C4.07888 17.4802 4.01693 17.4521 3.95095 17.4344C3.8802 17.4344 3.82897 17.4279 3.7997 17.4627C3.75579 17.4911 3.72651 17.5391 3.707 17.6001C3.6948 17.6699 3.68748 17.7179 3.72407 17.7637C3.74847 17.816 3.75579 17.8357 3.72407 17.8989C3.68748 17.9425 3.63625 17.9491 3.55331 17.9665C3.4972 17.9643 3.44109 17.9534 3.40206 17.9404" stroke="#EF2D28" stroke-width="0.0299854"/>
<g id="Group_5">
<path id="Vector_24" fill-rule="evenodd" clip-rule="evenodd" d="M13.0757 9.63445C14.936 6.41444 16.1698 3.67057 15.8334 3.51525C15.4936 3.35833 13.7084 5.8476 11.8481 9.0676L13.0757 9.63445V9.63445Z" fill="#F5F5F5" stroke="#EF2D28" stroke-width="0.0293235"/>
<g id="Vector_25">
<path fill-rule="evenodd" clip-rule="evenodd" d="M12.9525 9.58003C14.7472 6.47365 15.9831 3.84771 15.714 3.72345C15.4421 3.59791 13.765 6.02017 11.9704 9.12655" fill="#F5F5F5"/>
<path d="M12.9525 9.58003C14.7472 6.47365 15.9831 3.84771 15.714 3.72345C15.4421 3.59791 13.765 6.02017 11.9704 9.12655" stroke="#EF2D28" stroke-width="0.025761"/>
</g>
<path id="Vector_26" fill-rule="evenodd" clip-rule="evenodd" d="M12.6448 7.95953C12.4263 8.32255 12.1948 8.73848 11.9709 9.12601L12.9558 9.58077C13.1797 9.19324 13.4251 8.78371 13.6297 8.41429L12.6448 7.95953Z" fill="#F5F5F5" stroke="#EF2D28" stroke-width="0.0292371"/>
<path id="Vector_27" fill-rule="evenodd" clip-rule="evenodd" d="M12.7305 8.08498C12.5108 8.44994 12.3599 8.72635 12.1349 9.11583L12.8701 9.4553C13.094 9.06776 13.261 8.79387 13.4657 8.42445L12.7305 8.08498Z" fill="#F5F5F5" stroke="#EF2D28" stroke-width="0.0292371"/>
<g id="Vector_28">
<path fill-rule="evenodd" clip-rule="evenodd" d="M13.2643 8.50599L12.7719 8.27861L12.3353 9.03431L12.8277 9.26169L13.2643 8.50599ZM13.2643 8.50599L12.3353 9.03431L13.2643 8.50599ZM12.8277 9.26169L12.7719 8.27861L12.8277 9.26169ZM15.4854 4.66162L14.9929 4.43424Z" fill="#F5F5F5"/>
<path d="M15.4854 4.66162L14.9929 4.43424M13.2643 8.50599L12.7719 8.27861L12.3353 9.03431L12.8277 9.26169L13.2643 8.50599ZM13.2643 8.50599L12.3353 9.03431L13.2643 8.50599ZM12.8277 9.26169L12.7719 8.27861L12.8277 9.26169Z" stroke="#EF2D28" stroke-width="0.0292371"/>
</g>
<path id="Vector_29" d="M15.4825 4.30408C15.4068 4.32321 15.3316 4.28477 15.3145 4.21822C15.2975 4.15166 15.3449 4.08221 15.4206 4.06308C15.4963 4.04395 15.5715 4.08239 15.5885 4.14895C15.6056 4.2155 15.5581 4.28496 15.4825 4.30408Z" fill="#EF0000" stroke="#EF2D28" stroke-width="0.0378834"/>
</g>
<path id="Vector_30" fill-rule="evenodd" clip-rule="evenodd" d="M12.3495 13.263C16.5442 17.3771 18.3336 17.8968 17.4923 18.2289C16.651 18.5609 13.9506 16.4372 11.1411 13.6187C8.33158 10.8003 6.61067 8.28991 7.45197 7.95785C8.29326 7.62578 7.88681 8.89099 12.3495 13.263Z" fill="#F5F5F5" stroke="#EF2D28" stroke-width="0.0386024"/>
<path id="Vector_31" fill-rule="evenodd" clip-rule="evenodd" d="M15.8831 16.2499L14.4121 16.6359C15.7953 17.951 17.3517 18.4897 17.7835 18.2585C18.2153 18.0273 17.0053 17.4865 15.8807 16.2521L15.8831 16.2499Z" fill="#F5F5F5" stroke="#EF2D28" stroke-width="0.0299854"/>
<path id="Vector_32" fill-rule="evenodd" clip-rule="evenodd" d="M15.8759 16.4138L14.6641 16.722C16.0114 17.9865 17.3445 18.3451 17.689 18.1899C18.036 18.0369 16.969 17.6028 15.8759 16.4138Z" fill="#F5F5F5" stroke="#EF2D28" stroke-width="0.0290194"/>
<path id="Vector_33" d="M11.375 13.0888C11.3784 13.1086 11.3887 13.1971 11.3973 13.2322C11.3973 13.2811 11.4025 13.3177 11.4076 13.3558C11.4214 13.3894 11.4197 13.4199 11.4609 13.4321C11.4799 13.4626 11.5103 13.4863 11.5468 13.4992C11.5798 13.5227 11.6162 13.5422 11.655 13.5572C11.6956 13.5729 11.741 13.5761 11.7839 13.5664C11.8217 13.5435 11.8492 13.5191 11.8801 13.4992C11.887 13.4687 11.8938 13.4245 11.9024 13.394C11.889 13.4346 11.8815 13.4767 11.8801 13.5191C11.8835 13.5648 11.9024 13.5862 11.923 13.6228" stroke="#EF2D28" stroke-width="0.0291424"/>
<path id="Vector_34" d="M11.7735 13.726L11.7838 13.7169C11.758 13.7398 11.7683 13.7291 11.8268 13.697C11.868 13.6787 11.9127 13.6696 11.9659 13.6604H12.1171C12.1755 13.6604 12.215 13.6681 12.2563 13.6787C12.2872 13.7062 12.3319 13.7215 12.3645 13.7459C12.3935 13.7653 12.4156 13.7918 12.4281 13.8222C12.4573 13.8481 12.4762 13.8878 12.5037 13.9076C12.5157 13.9518 12.5397 13.9503 12.5569 13.9839C12.5054 13.9869 12.4659 13.993 12.4384 14.022C12.3937 14.0419 12.4762 14.0022 12.4933 13.9839C12.5277 13.9747 12.5363 13.9656 12.5896 13.9656C12.6377 13.9503 12.6686 13.9763 12.7184 13.9839C12.7476 13.9991 12.7562 14.0037 12.794 14.0037" stroke="#EF2D28" stroke-width="0.0291424"/>
<path id="Vector_35" d="M12.3477 14.1977C12.37 14.1977 12.4696 14.2144 12.5091 14.1977C12.5538 14.187 12.5779 14.1671 12.6054 14.1305C12.6191 14.1046 12.6054 14.1763 12.6054 14.2068C12.6105 14.2633 12.6294 14.2633 12.6603 14.3014C12.6913 14.3197 12.7239 14.3441 12.7565 14.3594C12.7852 14.3801 12.8178 14.3961 12.8527 14.4067C12.8871 14.4219 12.9232 14.4341 12.949 14.454C12.985 14.4769 12.9833 14.5043 13.0039 14.5409C12.9988 14.5867 12.9902 14.6142 12.961 14.6355C12.9472 14.6676 12.9198 14.6996 12.8957 14.721C12.8699 14.7668 12.839 14.7866 12.906 14.7973C12.9438 14.8125 12.9644 14.8003 13.0039 14.7973" stroke="#EF2D28" stroke-width="0.0291424"/>
<path id="Vector_36" d="M13.0273 14.8742C13.0548 14.8681 13.1476 14.8406 13.1888 14.8269H13.34C13.3967 14.8315 13.4087 14.8467 13.4568 14.865C13.4895 14.894 13.5101 14.9139 13.5548 14.9322C13.5771 14.9581 13.6235 15.0039 13.6407 15.0375C13.6548 15.0769 13.6618 15.1181 13.6613 15.1595C13.6613 15.216 13.6441 15.2267 13.6407 15.2755C13.6286 15.3174 13.6064 15.3565 13.5754 15.3899C13.5702 15.4021 13.5668 15.4052 13.5548 15.4082" stroke="#EF2D28" stroke-width="0.0291424"/>
<path id="Vector_37" d="M13.5342 15.5268C13.5391 15.5268 13.5488 15.5509 13.5647 15.5713C13.6 15.6075 13.6037 15.6099 13.6562 15.6099C13.7049 15.6075 13.6988 15.5906 13.733 15.5798C13.7489 15.5557 13.7684 15.5364 13.7867 15.5039C13.7989 15.4846 13.8098 15.4545 13.8233 15.4364C13.8379 15.4136 13.855 15.3967 13.8696 15.3762C13.8842 15.3702 13.8891 15.3642 13.9086 15.3606C13.8647 15.3678 13.8599 15.3834 13.8318 15.4063C13.818 15.4281 13.8053 15.4506 13.794 15.4738C13.7891 15.5063 13.7793 15.5316 13.7781 15.5713C13.7781 15.6135 13.7781 15.6424 13.794 15.6773C13.8123 15.6954 13.8245 15.7147 13.8477 15.7303C13.8669 15.7488 13.8845 15.7689 13.9001 15.7905L13.9696 15.8351C13.9916 15.8483 14.0172 15.8616 14.0526 15.8652C14.0977 15.8616 14.1111 15.8495 14.1441 15.8351C14.1733 15.8146 14.1953 15.8014 14.2209 15.7821C14.2419 15.765 14.26 15.7446 14.2746 15.7219C14.3148 15.7122 14.3417 15.7159 14.366 15.7375C14.3867 15.7518 14.4045 15.7698 14.4185 15.7905C14.4307 15.7965 14.4527 15.8146 14.4648 15.8206" stroke="#EF2D28" stroke-width="0.0290889"/>
<path id="Vector_38" d="M14.3861 15.8416C14.3739 15.8461 14.3284 15.8777 14.3102 15.8882C14.2981 15.9288 14.2784 15.9498 14.2723 15.9934C14.2617 16.0325 14.2617 16.0776 14.2617 16.1241C14.2723 16.1722 14.292 16.2068 14.3102 16.2444C14.3406 16.2654 14.3557 16.2805 14.3952 16.3015C14.4331 16.3075 14.471 16.312 14.518 16.312C14.5483 16.321 14.6029 16.3255 14.6317 16.312C14.6742 16.306 14.7061 16.2895 14.7364 16.2744C14.7713 16.2549 14.7925 16.2354 14.8304 16.2173C14.8501 16.1903 14.8789 16.1647 14.9062 16.1332C14.9305 16.1016 14.9472 16.0836 14.9639 16.049C14.9487 16.0881 14.929 16.1241 14.9168 16.1617C14.8941 16.2008 14.882 16.2158 14.8789 16.2639C14.8638 16.303 14.8683 16.3511 14.8683 16.3962C14.8729 16.4263 14.8744 16.4834 14.888 16.5089V16.5375" stroke="#EF2D28" stroke-width="0.028685"/>
<path id="Vector_39" d="M15.7758 16.6796V16.6948C15.7758 16.6577 15.7758 16.6752 15.7588 16.7493C15.7319 16.7799 15.6612 16.7886 15.6075 16.7755C15.5587 16.7384 15.5587 16.7101 15.4709 16.6948C15.3831 16.6992 15.3489 16.721 15.3001 16.7493C15.2483 16.7666 15.205 16.7998 15.1782 16.8431C15.1611 16.8889 15.1513 16.9216 15.2099 16.9391C15.2609 16.9696 15.3196 16.9883 15.3806 16.9936C15.4489 16.9936 15.5002 16.9871 15.5319 17.0219C15.5807 17.0656 15.5758 17.0917 15.5758 17.1702C15.5929 17.1942 15.5953 17.2662 15.6075 17.2946C15.6495 17.3143 15.6968 17.3234 15.7441 17.3207C15.7612 17.2771 15.7783 17.203 15.7905 17.1572C15.8027 17.1092 15.8051 17.0394 15.8368 17.0067C15.8648 16.9691 15.9004 16.9366 15.9417 16.9107C15.9664 16.8857 15.9986 16.8676 16.0344 16.8584C15.9734 16.8846 15.9661 16.9151 15.9588 16.9805C16.01 17.0023 16.0247 17.0198 16.1101 17.0219C16.1954 17.0154 16.215 16.9958 16.2467 16.9522C16.254 17.0219 16.2784 17.0438 16.2955 17.1048C16.3247 17.1441 16.3369 17.1855 16.3686 17.24C16.3564 17.3055 16.3272 17.3076 16.3247 17.3883C16.3052 17.4429 16.3052 17.493 16.2637 17.5257C16.2442 17.5475 16.2296 17.5497 16.1857 17.5519C16.2735 17.5519 16.3272 17.5432 16.3857 17.5126C16.4296 17.4865 16.4638 17.4559 16.5077 17.4298C16.5627 17.3927 16.6247 17.3646 16.6907 17.3469C16.7614 17.3469 16.8126 17.3404 16.8419 17.3753C16.8858 17.4036 16.9151 17.4516 16.9346 17.5126C16.9468 17.5824 16.9541 17.6304 16.9175 17.6762C16.8931 17.7286 16.8858 17.7482 16.9175 17.8114C16.9541 17.855 17.0054 17.8616 17.0883 17.879C17.1444 17.8769 17.2005 17.8659 17.2395 17.8529" stroke="#EF2D28" stroke-width="0.0299854"/>
<g id="Group_6">
<path id="Vector_40" fill-rule="evenodd" clip-rule="evenodd" d="M7.56685 9.54696C5.70654 6.32695 4.47275 3.58308 4.80915 3.42776C5.14901 3.27083 6.93421 5.7601 8.79452 8.98011L7.56685 9.54696V9.54696Z" fill="#F5F5F5" stroke="#EF2D28" stroke-width="0.0293235"/>
<g id="Vector_41">
<path fill-rule="evenodd" clip-rule="evenodd" d="M7.69006 9.49254C5.89539 6.38616 4.65946 3.76022 4.92858 3.63596C5.20047 3.51042 6.87755 5.93268 8.67221 9.03905" fill="#F5F5F5"/>
<path d="M7.69006 9.49254C5.89539 6.38616 4.65946 3.76022 4.92858 3.63596C5.20047 3.51042 6.87755 5.93268 8.67221 9.03905" stroke="#EF2D28" stroke-width="0.025761"/>
</g>
<path id="Vector_42" fill-rule="evenodd" clip-rule="evenodd" d="M7.99776 7.87203C8.21627 8.23505 8.44778 8.65098 8.67168 9.03852L7.68676 9.49328C7.46287 9.10574 7.21749 8.69622 7.01285 8.32679L7.99776 7.87203Z" fill="#F5F5F5" stroke="#EF2D28" stroke-width="0.0292371"/>
<path id="Vector_43" fill-rule="evenodd" clip-rule="evenodd" d="M7.91213 7.99749C8.13176 8.36245 8.28267 8.63886 8.50768 9.02834L7.77246 9.3678C7.54857 8.98027 7.38155 8.70638 7.17691 8.33696L7.91213 7.99749Z" fill="#F5F5F5" stroke="#EF2D28" stroke-width="0.0292371"/>
<g id="Vector_44">
<path fill-rule="evenodd" clip-rule="evenodd" d="M7.37824 8.4185L7.87069 8.19112L8.30729 8.94681L7.81483 9.17419L7.37824 8.4185ZM7.37824 8.4185L8.30729 8.94681L7.37824 8.4185ZM7.81483 9.17419L7.87069 8.19112L7.81483 9.17419ZM5.15723 4.57413L5.64968 4.34675Z" fill="#F5F5F5"/>
<path d="M5.15723 4.57413L5.64968 4.34675M7.37824 8.4185L7.87069 8.19112L8.30729 8.94681L7.81483 9.17419L7.37824 8.4185ZM7.37824 8.4185L8.30729 8.94681L7.37824 8.4185ZM7.81483 9.17419L7.87069 8.19112L7.81483 9.17419Z" stroke="#EF2D28" stroke-width="0.0292371"/>
</g>
<path id="Vector_45" d="M5.16012 4.21662C5.23579 4.23575 5.31097 4.1973 5.32805 4.13075C5.34513 4.0642 5.29763 3.99474 5.22197 3.97561C5.1463 3.95649 5.07112 3.99493 5.05404 4.06148C5.03696 4.12803 5.08446 4.19749 5.16012 4.21662Z" fill="#EF0000" stroke="#EF2D28" stroke-width="0.0378834"/>
</g>
<g id="Group_7">
<path id="Vector_46" fill-rule="evenodd" clip-rule="evenodd" d="M9.05374 7.90588C9.05374 10.6102 9.07 11.6286 8.87159 11.7682C8.68294 11.9187 3.43652 11.7682 3.43652 12.5402C3.43652 13.3123 7.75596 14.0887 9.05374 14.0887C10.7841 14.0887 11.646 13.3145 11.646 11.7682V7.90806H9.05374V7.90588Z" fill="#F5F5F5" stroke="#EF2D28" stroke-width="0.0266336"/>
<path id="Vector_47" fill-rule="evenodd" clip-rule="evenodd" d="M9.05469 8.67783V9.06384C9.91228 9.19239 10.7878 9.19239 11.6454 9.06384V8.67783C10.7878 8.80638 9.91228 8.80638 9.05469 8.67783V8.67783Z" fill="#F5F5F5" stroke="#EF2D28" stroke-width="0.0230657"/>
<path id="Vector_48" fill-rule="evenodd" clip-rule="evenodd" d="M9.05469 7.90579V8.2918C9.91228 8.42036 10.7878 8.42036 11.6454 8.2918V7.90579C10.7878 8.03435 9.91228 8.03435 9.05469 7.90579V7.90579Z" fill="#F5F5F5" stroke="#EF2D28" stroke-width="0.0230657"/>
<path id="Vector_49" fill-rule="evenodd" clip-rule="evenodd" d="M9.05469 8.29181V8.67782C9.91228 8.80637 10.7878 8.80637 11.6454 8.67782V8.29181C10.7878 8.42036 9.91228 8.42036 9.05469 8.29181V8.29181Z" fill="#F5F5F5" stroke="#EF2D28" stroke-width="0.0230657"/>
<path id="Vector_50" fill-rule="evenodd" clip-rule="evenodd" d="M9.05469 9.06384V9.44985C9.91228 9.57841 10.7878 9.57841 11.6454 9.44985V9.06384C10.7878 9.1924 9.91228 9.1924 9.05469 9.06384V9.06384Z" fill="#F5F5F5" stroke="#EF2D28" stroke-width="0.0230657"/>
<path id="Vector_51" d="M9.17214 8.59385C9.23754 8.59385 9.29056 8.55649 9.29056 8.51041C9.29056 8.46433 9.23754 8.42697 9.17214 8.42697C9.10673 8.42697 9.05371 8.46433 9.05371 8.51041C9.05371 8.55649 9.10673 8.59385 9.17214 8.59385Z" fill="#F5F5F5" stroke="#EF2D28" stroke-width="0.0290724"/>
<path id="Vector_52" d="M9.64382 8.63541C9.70922 8.63541 9.76224 8.59806 9.76224 8.55197C9.76224 8.50589 9.70922 8.46854 9.64382 8.46854C9.57841 8.46854 9.52539 8.50589 9.52539 8.55197C9.52539 8.59806 9.57841 8.63541 9.64382 8.63541Z" fill="#F5F5F5" stroke="#EF2D28" stroke-width="0.0290724"/>
<path id="Vector_53" d="M10.1155 8.67783C10.1809 8.67783 10.2339 8.64047 10.2339 8.59439C10.2339 8.54831 10.1809 8.51096 10.1155 8.51096C10.0501 8.51096 9.99707 8.54831 9.99707 8.59439C9.99707 8.64047 10.0501 8.67783 10.1155 8.67783Z" fill="#F5F5F5" stroke="#EF2D28" stroke-width="0.0290724"/>
<path id="Vector_54" d="M10.5872 8.67783C10.6526 8.67783 10.7056 8.64047 10.7056 8.59439C10.7056 8.54831 10.6526 8.51096 10.5872 8.51096C10.5218 8.51096 10.4688 8.54831 10.4688 8.59439C10.4688 8.64047 10.5218 8.67783 10.5872 8.67783Z" fill="#F5F5F5" stroke="#EF2D28" stroke-width="0.0290724"/>
<path id="Vector_55" d="M11.0579 8.63541C11.1233 8.63541 11.1763 8.59806 11.1763 8.55197C11.1763 8.50589 11.1233 8.46854 11.0579 8.46854C10.9925 8.46854 10.9395 8.50589 10.9395 8.55197C10.9395 8.59806 10.9925 8.63541 11.0579 8.63541Z" fill="#F5F5F5" stroke="#EF2D28" stroke-width="0.0290724"/>
<path id="Vector_56" d="M11.5305 8.59385C11.5959 8.59385 11.649 8.55649 11.649 8.51041C11.649 8.46433 11.5959 8.42697 11.5305 8.42697C11.4651 8.42697 11.4121 8.46433 11.4121 8.51041C11.4121 8.55649 11.4651 8.59385 11.5305 8.59385Z" fill="#F5F5F5" stroke="#EF2D28" stroke-width="0.0290724"/>
<g id="Vector_57">
<path fill-rule="evenodd" clip-rule="evenodd" d="M9.05448 9.83597L11.6452 11.9231L9.05448 9.83597ZM9.31307 9.83597L11.6477 11.6897L9.31307 9.83597ZM9.65704 9.91448L11.6477 11.4607L9.65704 9.91448ZM9.91563 9.9123L11.6477 11.2274L9.91563 9.9123ZM10.1767 9.91448L11.6452 10.9962L10.1767 9.91448ZM10.4352 9.91448L11.6452 10.765L10.4352 9.91448ZM10.6938 9.91448L11.6452 10.5317L10.6938 9.91448ZM10.9573 9.91448L11.6501 10.3768L10.9573 9.91448ZM11.2134 9.91448L11.6477 10.2242L11.2134 9.91448ZM11.4745 9.91448L11.6452 10.0671L11.4745 9.91448ZM9.05448 10.0671L11.6452 12.1564L9.05448 10.0671ZM11.6452 9.83815L8.79102 12.1542L11.6452 9.83815ZM11.3842 9.83597L8.87884 11.8467L11.3842 9.83597ZM11.0402 9.91448L9.05204 11.4585L11.0402 9.91448ZM10.7792 9.91448L9.05204 11.2274L10.7792 9.91448ZM10.5231 9.91448L9.05448 10.9962L10.5231 9.91448ZM10.2645 9.91448L9.05448 10.765L10.2645 9.91448ZM10.0059 9.91448L9.05448 10.5317L10.0059 9.91448ZM9.74242 9.91448L9.05204 10.3768L9.74242 9.91448ZM9.48383 9.91448L9.05204 10.2242L9.48383 9.91448ZM9.22281 9.91448L9.05204 10.0671L9.22281 9.91448ZM11.6452 10.0671L8.79102 12.3898L11.6452 10.0671ZM11.6452 10.3027L8.79102 12.6188L11.6452 10.3027ZM11.6452 10.5317L8.79102 12.8499L11.6452 10.5317ZM11.6452 10.7628L8.79102 13.0855L11.6452 10.7628ZM11.6452 10.9984L8.79102 13.3145L11.6452 10.9984ZM11.6452 11.2274L8.79102 13.5456L11.6452 11.2274ZM11.6452 11.4585L8.79102 13.7768L11.6452 11.4585ZM11.6452 11.6919L8.79102 14.0102L11.6452 11.6919ZM11.6452 11.9231L8.96422 14.0865L11.6452 11.9231ZM11.6452 12.1542L9.22525 14.0865L11.6452 12.1542ZM11.5574 12.4639L9.6546 14.0102L11.5574 12.4639ZM11.4745 12.7714L9.91806 14.008L11.4745 12.7714ZM11.3013 13.1574L10.5206 13.7746L11.3013 13.1574ZM9.05448 10.2983L11.5598 12.3069L9.05448 10.2983ZM9.05448 10.5295L11.5598 12.5403L9.05448 10.5295ZM9.05448 10.765L11.4745 12.6951L9.05448 10.765ZM9.05448 10.994L11.4745 12.9284L9.05448 10.994ZM9.05448 11.2274L11.3866 13.0811L9.05448 11.2274ZM8.96666 11.3822L11.3013 13.236L8.96666 11.3822ZM8.96666 11.6156L11.1281 13.3166L8.96666 11.6156ZM8.88128 11.7682L11.0427 13.4693L8.88128 11.7682ZM8.79102 11.9209L10.8646 13.5435L8.79102 11.9209ZM8.79102 12.1521L10.7792 13.6983L8.79102 12.1521ZM8.79102 12.3854L10.5231 13.7746Z" fill="#F5F5F5"/>
<path d="M8.79102 12.3854L10.5231 13.7746M9.05448 9.83597L11.6452 11.9231L9.05448 9.83597ZM9.31307 9.83597L11.6477 11.6897L9.31307 9.83597ZM9.65704 9.91448L11.6477 11.4607L9.65704 9.91448ZM9.91563 9.9123L11.6477 11.2274L9.91563 9.9123ZM10.1767 9.91448L11.6452 10.9962L10.1767 9.91448ZM10.4352 9.91448L11.6452 10.765L10.4352 9.91448ZM10.6938 9.91448L11.6452 10.5317L10.6938 9.91448ZM10.9573 9.91448L11.6501 10.3768L10.9573 9.91448ZM11.2134 9.91448L11.6477 10.2242L11.2134 9.91448ZM11.4745 9.91448L11.6452 10.0671L11.4745 9.91448ZM9.05448 10.0671L11.6452 12.1564L9.05448 10.0671ZM11.6452 9.83815L8.79102 12.1542L11.6452 9.83815ZM11.3842 9.83597L8.87884 11.8467L11.3842 9.83597ZM11.0402 9.91448L9.05204 11.4585L11.0402 9.91448ZM10.7792 9.91448L9.05204 11.2274L10.7792 9.91448ZM10.5231 9.91448L9.05448 10.9962L10.5231 9.91448ZM10.2645 9.91448L9.05448 10.765L10.2645 9.91448ZM10.0059 9.91448L9.05448 10.5317L10.0059 9.91448ZM9.74242 9.91448L9.05204 10.3768L9.74242 9.91448ZM9.48383 9.91448L9.05204 10.2242L9.48383 9.91448ZM9.22281 9.91448L9.05204 10.0671L9.22281 9.91448ZM11.6452 10.0671L8.79102 12.3898L11.6452 10.0671ZM11.6452 10.3027L8.79102 12.6188L11.6452 10.3027ZM11.6452 10.5317L8.79102 12.8499L11.6452 10.5317ZM11.6452 10.7628L8.79102 13.0855L11.6452 10.7628ZM11.6452 10.9984L8.79102 13.3145L11.6452 10.9984ZM11.6452 11.2274L8.79102 13.5456L11.6452 11.2274ZM11.6452 11.4585L8.79102 13.7768L11.6452 11.4585ZM11.6452 11.6919L8.79102 14.0102L11.6452 11.6919ZM11.6452 11.9231L8.96422 14.0865L11.6452 11.9231ZM11.6452 12.1542L9.22525 14.0865L11.6452 12.1542ZM11.5574 12.4639L9.6546 14.0102L11.5574 12.4639ZM11.4745 12.7714L9.91806 14.008L11.4745 12.7714ZM11.3013 13.1574L10.5206 13.7746L11.3013 13.1574ZM9.05448 10.2983L11.5598 12.3069L9.05448 10.2983ZM9.05448 10.5295L11.5598 12.5403L9.05448 10.5295ZM9.05448 10.765L11.4745 12.6951L9.05448 10.765ZM9.05448 10.994L11.4745 12.9284L9.05448 10.994ZM9.05448 11.2274L11.3866 13.0811L9.05448 11.2274ZM8.96666 11.3822L11.3013 13.236L8.96666 11.3822ZM8.96666 11.6156L11.1281 13.3166L8.96666 11.6156ZM8.88128 11.7682L11.0427 13.4693L8.88128 11.7682ZM8.79102 11.9209L10.8646 13.5435L8.79102 11.9209ZM8.79102 12.1521L10.7792 13.6983L8.79102 12.1521Z" stroke="#EF2D28" stroke-width="0.0230657"/>
</g>
<path id="Vector_58" fill-rule="evenodd" clip-rule="evenodd" d="M9.05469 9.45203V9.83804C9.91228 9.96659 10.7878 9.96659 11.6454 9.83804V9.45203C10.7878 9.58058 9.91228 9.58058 9.05469 9.45203V9.45203Z" fill="#F5F5F5" stroke="#EF2D28" stroke-width="0.0230657"/>
<g id="Vector_59">
<path fill-rule="evenodd" clip-rule="evenodd" d="M8.79346 12.6187L10.3499 13.8553L8.79346 12.6187ZM8.79346 12.8521L10.1767 13.9316L8.79346 12.8521ZM8.79346 13.0811L10.0034 14.0101L8.79346 13.0811ZM8.79346 13.3123L9.65948 14.0101L8.79346 13.3123ZM8.79102 13.5456L9.48383 14.0865L8.79102 13.5456ZM8.79102 13.7768L9.22281 14.0865Z" fill="#F5F5F5"/>
<path d="M8.79102 13.7768L9.22281 14.0865M8.79346 12.6187L10.3499 13.8553L8.79346 12.6187ZM8.79346 12.8521L10.1767 13.9316L8.79346 12.8521ZM8.79346 13.0811L10.0034 14.0101L8.79346 13.0811ZM8.79346 13.3123L9.65948 14.0101L8.79346 13.3123ZM8.79102 13.5456L9.48383 14.0865L8.79102 13.5456Z" stroke="#EF2D28" stroke-width="0.0230657"/>
</g>
<path id="Vector_60" d="M9.17214 9.75406C9.23754 9.75406 9.29056 9.71671 9.29056 9.67063C9.29056 9.62455 9.23754 9.58719 9.17214 9.58719C9.10673 9.58719 9.05371 9.62455 9.05371 9.67063C9.05371 9.71671 9.10673 9.75406 9.17214 9.75406Z" fill="#F5F5F5" stroke="#EF2D28" stroke-width="0.0290724"/>
<path id="Vector_61" d="M9.64382 9.79563C9.70922 9.79563 9.76224 9.75827 9.76224 9.71219C9.76224 9.66611 9.70922 9.62875 9.64382 9.62875C9.57841 9.62875 9.52539 9.66611 9.52539 9.71219C9.52539 9.75827 9.57841 9.79563 9.64382 9.79563Z" fill="#F5F5F5" stroke="#EF2D28" stroke-width="0.0290724"/>
<path id="Vector_62" d="M10.1155 9.83588C10.1809 9.83588 10.2339 9.79853 10.2339 9.75244C10.2339 9.70636 10.1809 9.66901 10.1155 9.66901C10.0501 9.66901 9.99707 9.70636 9.99707 9.75244C9.99707 9.79853 10.0501 9.83588 10.1155 9.83588Z" fill="#F5F5F5" stroke="#EF2D28" stroke-width="0.0290724"/>
<path id="Vector_63" d="M10.5872 9.83588C10.6526 9.83588 10.7056 9.79853 10.7056 9.75244C10.7056 9.70636 10.6526 9.66901 10.5872 9.66901C10.5218 9.66901 10.4688 9.70636 10.4688 9.75244C10.4688 9.79853 10.5218 9.83588 10.5872 9.83588Z" fill="#F5F5F5" stroke="#EF2D28" stroke-width="0.0290724"/>
<path id="Vector_64" d="M11.0579 9.79563C11.1233 9.79563 11.1763 9.75827 11.1763 9.71219C11.1763 9.66611 11.1233 9.62875 11.0579 9.62875C10.9925 9.62875 10.9395 9.66611 10.9395 9.71219C10.9395 9.75827 10.9925 9.79563 11.0579 9.79563Z" fill="#F5F5F5" stroke="#EF2D28" stroke-width="0.0290724"/>
<path id="Vector_65" d="M11.5305 9.75406C11.5959 9.75406 11.649 9.71671 11.649 9.67063C11.649 9.62455 11.5959 9.58719 11.5305 9.58719C11.4651 9.58719 11.4121 9.62455 11.4121 9.67063C11.4121 9.71671 11.4651 9.75406 11.5305 9.75406Z" fill="#F5F5F5" stroke="#EF2D28" stroke-width="0.0290724"/>
<g id="Vector_66">
<path fill-rule="evenodd" clip-rule="evenodd" d="M5.33748 13.4693L8.44785 11.8467L5.33748 13.4693ZM5.16428 13.3908L8.10388 11.8467L5.16428 13.3908ZM5.0789 13.2359L7.75747 11.8467L5.0789 13.2359ZM4.99107 13.0833L7.32568 11.8467L4.99107 13.0833ZM4.81543 12.9284L6.97683 11.8467L4.81543 12.9284ZM4.90325 12.6973L6.37183 11.923L4.90325 12.6973ZM4.81543 12.5402L5.9376 11.923L4.81543 12.5402ZM4.81543 12.3091L5.59607 11.923L4.81543 12.3091ZM5.59607 13.5456L8.53323 11.9994L5.59607 13.5456ZM5.8571 13.6219L8.62105 12.1542L5.8571 13.6219ZM6.11568 13.7005L8.70887 12.3091L6.11568 13.7005ZM6.37427 13.7768L8.53567 12.6187L6.37427 13.7768ZM6.71824 13.7768L8.62105 12.7736L6.71824 13.7768ZM6.97683 13.8553L8.61861 13.0048L6.97683 13.8553ZM7.23541 13.9316L8.53323 13.2359L7.23541 13.9316ZM7.58182 13.9338L8.61861 13.3908L7.58182 13.9338ZM7.92823 14.0101L8.62105 13.6219L7.92823 14.0101ZM8.27952 14.0101L8.71131 13.779Z" fill="#F5F5F5"/>
<path d="M8.27952 14.0101L8.71131 13.779M5.33748 13.4693L8.44785 11.8467L5.33748 13.4693ZM5.16428 13.3908L8.10388 11.8467L5.16428 13.3908ZM5.0789 13.2359L7.75747 11.8467L5.0789 13.2359ZM4.99107 13.0833L7.32568 11.8467L4.99107 13.0833ZM4.81543 12.9284L6.97683 11.8467L4.81543 12.9284ZM4.90325 12.6973L6.37183 11.923L4.90325 12.6973ZM4.81543 12.5402L5.9376 11.923L4.81543 12.5402ZM4.81543 12.3091L5.59607 11.923L4.81543 12.3091ZM5.59607 13.5456L8.53323 11.9994L5.59607 13.5456ZM5.8571 13.6219L8.62105 12.1542L5.8571 13.6219ZM6.11568 13.7005L8.70887 12.3091L6.11568 13.7005ZM6.37427 13.7768L8.53567 12.6187L6.37427 13.7768ZM6.71824 13.7768L8.62105 12.7736L6.71824 13.7768ZM6.97683 13.8553L8.61861 13.0048L6.97683 13.8553ZM7.23541 13.9316L8.53323 13.2359L7.23541 13.9316ZM7.58182 13.9338L8.61861 13.3908L7.58182 13.9338ZM7.92823 14.0101L8.62105 13.6219L7.92823 14.0101Z" stroke="#EF2D28" stroke-width="0.0230657"/>
</g>
<path id="Vector_67" fill-rule="evenodd" clip-rule="evenodd" d="M8.87891 11.7704H8.44712C8.30332 12.5371 8.30332 13.3198 8.44712 14.0865H8.87891C8.73511 13.3198 8.73511 12.5371 8.87891 11.7704V11.7704Z" fill="#F5F5F5" stroke="#EF2D28" stroke-width="0.0230657"/>
<g id="Vector_68">
<path fill-rule="evenodd" clip-rule="evenodd" d="M3.78027 12.8499L4.81706 12.0779L3.78027 12.8499ZM3.78027 12.3091L4.81706 13.2359Z" fill="#F5F5F5"/>
<path d="M3.78027 12.3091L4.81706 13.2359M3.78027 12.8499L4.81706 12.0779L3.78027 12.8499Z" stroke="#EF2D28" stroke-width="0.0230657"/>
</g>
<path id="Vector_69" fill-rule="evenodd" clip-rule="evenodd" d="M5.33691 11.9215L4.81779 11.9989C4.70264 12.4892 4.70264 12.9008 4.81779 13.3911L5.33691 13.5444C5.22177 13.0555 5.22177 12.4118 5.33691 11.9215V11.9215Z" fill="#F5F5F5" stroke="#EF2D28" stroke-width="0.0164182"/>
<path id="Vector_70" fill-rule="evenodd" clip-rule="evenodd" d="M11.6462 8.05853V7.66816C11.2551 7.67252 10.9955 7.43916 10.9955 7.20581L9.70164 7.20799C9.70164 7.43916 9.44578 7.67252 9.05469 7.67252V8.05853H11.6462V8.05853Z" fill="#F5F5F5" stroke="#EF2D28" stroke-width="0.0282335"/>
<path id="Vector_71" fill-rule="evenodd" clip-rule="evenodd" d="M9.79199 6.74567H10.9044V7.21019H9.79199V6.74567ZM9.88713 6.28114H10.8117V6.74567H9.88469L9.88713 6.28114ZM9.88713 5.8188H10.8117V6.28114H9.88469L9.88713 5.8188ZM9.97983 5.19943H10.719V5.8188H9.97983V5.19943ZM9.94812 4.65857H10.7532V5.19943H9.94812V4.65857Z" fill="#F5F5F5" stroke="#EF2D28" stroke-width="0.0322919"/>
<path id="Vector_72" d="M10.3916 4.89191C10.9833 4.89191 11.4629 4.56286 11.4629 4.15695C11.4629 3.75105 10.9833 3.422 10.3916 3.422C9.79996 3.422 9.32031 3.75105 9.32031 4.15695C9.32031 4.56286 9.79996 4.89191 10.3916 4.89191Z" fill="#F5F5F5" stroke="#EF2D28" stroke-width="0.0234466"/>
<path id="Vector_73" fill-rule="evenodd" clip-rule="evenodd" d="M10.9289 4.11771C10.9289 4.32053 11.1961 4.65857 11.1961 4.65857C11.002 4.79378 10.6869 4.89192 10.392 4.89192C10.0971 4.89192 9.72905 4.83522 9.58789 4.65857C9.58789 4.65857 9.85509 4.32271 9.85509 4.11989C9.85509 3.91707 9.58789 3.65537 9.58789 3.65537C9.82186 3.50663 10.1042 3.42571 10.3945 3.42419C10.6869 3.42419 10.9995 3.52233 11.1961 3.65537C11.1961 3.65537 10.9289 3.91707 10.9289 4.11989V4.11771Z" fill="#F5F5F5" stroke="#EF2D28" stroke-width="0.0234466"/>
<path id="Vector_74" fill-rule="evenodd" clip-rule="evenodd" d="M10.7497 4.11771C10.7497 4.32053 11.0169 4.73708 11.0169 4.73708C10.8228 4.86793 10.6892 4.88974 10.3917 4.88974C10.0943 4.88974 9.90776 4.91373 9.7666 4.73708C9.7666 4.73708 10.0338 4.32271 10.0338 4.11771C10.0338 3.91271 9.7666 3.57686 9.7666 3.57686C9.9607 3.446 10.0943 3.42419 10.3917 3.42419C10.6867 3.42419 10.8228 3.446 11.0169 3.57686C11.0169 3.57686 10.7497 3.91489 10.7497 4.11771Z" fill="#F5F5F5" stroke="#EF2D28" stroke-width="0.0234466"/>
<path id="Vector_75" d="M9.32091 4.42521C9.46848 4.42521 9.58811 4.32171 9.58811 4.19403C9.58811 4.06636 9.46848 3.96286 9.32091 3.96286C9.17334 3.96286 9.05371 4.06636 9.05371 4.19403C9.05371 4.32171 9.17334 4.42521 9.32091 4.42521Z" fill="#F5F5F5" stroke="#EF2D28" stroke-width="0.0234466"/>
<path id="Vector_76" d="M11.4645 4.42521C11.612 4.42521 11.7317 4.32171 11.7317 4.19403C11.7317 4.06636 11.612 3.96286 11.4645 3.96286C11.3169 3.96286 11.1973 4.06636 11.1973 4.19403C11.1973 4.32171 11.3169 4.42521 11.4645 4.42521Z" fill="#F5F5F5" stroke="#EF2D28" stroke-width="0.0234466"/>
<path id="Vector_77" d="M10.3942 4.42521C10.5417 4.42521 10.6613 4.32171 10.6613 4.19403C10.6613 4.06636 10.5417 3.96286 10.3942 3.96286C10.2466 3.96286 10.127 4.06636 10.127 4.19403C10.127 4.32171 10.2466 4.42521 10.3942 4.42521Z" fill="#F5F5F5" stroke="#EF2D28" stroke-width="0.0234466"/>
<path id="Vector_78" d="M10.3942 3.65317C10.5417 3.65317 10.6613 3.54967 10.6613 3.422C10.6613 3.29433 10.5417 3.19083 10.3942 3.19083C10.2466 3.19083 10.127 3.29433 10.127 3.422C10.127 3.54967 10.2466 3.65317 10.3942 3.65317Z" fill="#F5F5F5" stroke="#EF2D28" stroke-width="0.0234466"/>
<path id="Vector_79" d="M9.61072 8.05854C9.76356 8.05854 9.88746 7.95504 9.88746 7.82736C9.88746 7.69969 9.76356 7.59619 9.61072 7.59619C9.45788 7.59619 9.33398 7.69969 9.33398 7.82736C9.33398 7.95504 9.45788 8.05854 9.61072 8.05854Z" fill="#F5F5F5" stroke="#EF2D28" stroke-width="0.0238615"/>
<path id="Vector_80" d="M11.0892 8.05854C11.2421 8.05854 11.366 7.95504 11.366 7.82736C11.366 7.69969 11.2421 7.59619 11.0892 7.59619C10.9364 7.59619 10.8125 7.69969 10.8125 7.82736C10.8125 7.95504 10.9364 8.05854 11.0892 8.05854Z" fill="#F5F5F5" stroke="#EF2D28" stroke-width="0.0238615"/>
<path id="Vector_81" fill-rule="evenodd" clip-rule="evenodd" d="M9.70215 7.20801H10.9971L10.3496 7.90371L9.70215 7.20801V7.20801Z" fill="#F5F5F5" stroke="#EF2D28" stroke-width="0.0238615"/>
<path id="Vector_82" d="M10.3485 8.05697C10.5523 8.05697 10.7175 7.91897 10.7175 7.74874C10.7175 7.57852 10.5523 7.44052 10.3485 7.44052C10.1447 7.44052 9.97949 7.57852 9.97949 7.74874C9.97949 7.91897 10.1447 8.05697 10.3485 8.05697Z" fill="#F5F5F5" stroke="#EF2D28" stroke-width="0.0318157"/>
</g>
<g id="Group_8">
<path id="Vector_83" d="M10.8105 10.074H9.03703C8.97774 10.074 8.92969 10.1111 8.92969 10.1569V10.4557C8.92969 10.5014 8.97774 10.5385 9.03703 10.5385H10.8105C10.8698 10.5385 10.9179 10.5014 10.9179 10.4557V10.1569C10.9179 10.1111 10.8698 10.074 10.8105 10.074Z" fill="#F5F5F5" stroke="#EF2D28" stroke-width="0.0299854"/>
<path id="Vector_84" fill-rule="evenodd" clip-rule="evenodd" d="M11.5235 9.68798C11.2844 9.68798 11.0917 9.86899 11.0917 10.0914V10.4426C11.0901 10.4945 11.1 10.5462 11.1209 10.5946C11.1417 10.6431 11.1732 10.6874 11.2133 10.7249C11.2535 10.7624 11.3016 10.7925 11.3548 10.8132C11.4081 10.834 11.4654 10.8452 11.5235 10.846C11.5816 10.8452 11.6389 10.834 11.6921 10.8132C11.7453 10.7925 11.7934 10.7624 11.8336 10.7249C11.8738 10.6874 11.9052 10.6431 11.9261 10.5946C11.947 10.5462 11.9569 10.4945 11.9553 10.4426V10.0936C11.9572 10.0415 11.9475 9.9896 11.9268 9.94089C11.9061 9.89217 11.8747 9.84763 11.8345 9.80987C11.7943 9.77211 11.7461 9.74188 11.6927 9.72096C11.6393 9.70003 11.5818 9.68882 11.5235 9.68798V9.68798ZM11.5235 9.84064C11.3795 9.84064 11.2649 9.98676 11.2649 10.1656V10.3684C11.2649 10.5472 11.3795 10.6912 11.5235 10.6912C11.6674 10.6912 11.7821 10.5472 11.7821 10.3684V10.1656C11.7821 9.98676 11.6674 9.84282 11.5235 9.84282V9.84064ZM9.27669 9.76431C9.13032 9.76431 9.0181 9.90825 9.0181 10.0893V10.4469C9.0181 10.6258 9.13276 10.7697 9.27669 10.7697C9.42062 10.7697 9.53528 10.6258 9.53528 10.4469V10.0871C9.53528 9.90607 9.42062 9.76213 9.27669 9.76213V9.76431ZM9.27669 9.61165C9.2186 9.61249 9.16128 9.62363 9.10804 9.64443C9.05481 9.66522 9.00672 9.69525 8.96655 9.73277C8.92639 9.7703 8.89496 9.81458 8.87408 9.86304C8.85319 9.91151 8.84328 9.96319 8.8449 10.0151V10.5211C8.84328 10.573 8.85319 10.6247 8.87408 10.6731C8.89496 10.7216 8.92639 10.7659 8.96655 10.8034C9.00672 10.8409 9.05481 10.871 9.10804 10.8918C9.16128 10.9125 9.2186 10.9237 9.27669 10.9245C9.51576 10.9245 9.70848 10.7435 9.70848 10.5211V10.0151C9.71043 9.96301 9.70076 9.91109 9.68002 9.86237C9.65929 9.81366 9.62791 9.76912 9.58771 9.73136C9.54752 9.6936 9.49932 9.66337 9.44592 9.64244C9.39252 9.62152 9.33499 9.61031 9.27669 9.60947V9.61165Z" fill="#F5F5F5" stroke="#EF2D28" stroke-width="0.0299854"/>
<path id="Vector_85" fill-rule="evenodd" clip-rule="evenodd" d="M8.58333 9.91915C8.4394 9.91915 8.32474 10.0631 8.32474 10.2419V10.327C8.32474 10.5058 8.4394 10.6497 8.58333 10.6497C8.7297 10.6497 8.84436 10.5058 8.84436 10.327V10.2419C8.84436 10.0631 8.72726 9.91915 8.58333 9.91915ZM8.58333 9.76649C8.52524 9.76734 8.46792 9.77848 8.41468 9.79927C8.36145 9.82006 8.31336 9.85009 8.2732 9.88762C8.23303 9.92515 8.2016 9.96942 8.18072 10.0179C8.15983 10.0664 8.14992 10.118 8.15154 10.17V10.4011C8.14992 10.453 8.15983 10.5047 8.18072 10.5532C8.2016 10.6017 8.23303 10.6459 8.2732 10.6835C8.31336 10.721 8.36145 10.751 8.41468 10.7718C8.46792 10.7926 8.52524 10.8037 8.58333 10.8046C8.8224 10.8046 9.01756 10.6236 9.01756 10.4011V10.17C9.01951 10.1177 9.00976 10.0656 8.98888 10.0167C8.96799 9.96786 8.93639 9.92322 8.89594 9.88543C8.85549 9.84765 8.80699 9.81746 8.75331 9.79666C8.69963 9.77586 8.64184 9.76486 8.58333 9.76431V9.76649Z" fill="#F5F5F5" stroke="#EF2D28" stroke-width="0.0299854"/>
<path id="Vector_86" fill-rule="evenodd" clip-rule="evenodd" d="M7.54964 9.70583C7.28617 9.70583 7.07979 9.86669 7.07979 10.0666V10.4687C7.07979 10.6661 7.29056 10.8294 7.54964 10.8294C7.80432 10.8294 8.01509 10.6686 8.01509 10.4663V10.0666C8.01509 9.86669 7.80432 9.70583 7.54964 9.70583V9.70583ZM7.54964 9.53521C7.44509 9.53584 7.3418 9.54798 7.24576 9.57092C7.14972 9.59387 7.06284 9.62716 6.99014 9.66887C6.91744 9.71058 6.86038 9.75988 6.82225 9.81392C6.78412 9.86796 6.76569 9.92566 6.76802 9.98368V10.5491C6.76451 10.6074 6.78192 10.6654 6.81924 10.7198C6.85657 10.7743 6.91305 10.8241 6.9854 10.8663C7.05775 10.9085 7.14452 10.9423 7.24064 10.9656C7.33676 10.989 7.44031 11.0016 7.54524 11.0025C7.97996 11.0025 8.32686 10.8002 8.32686 10.5491V9.98368C8.32978 9.92566 8.31193 9.8679 8.27434 9.81373C8.23675 9.75957 8.18017 9.71009 8.10788 9.66815C8.03559 9.62621 7.94902 9.59265 7.8532 9.56941C7.75737 9.54617 7.65419 9.53372 7.54964 9.53278V9.53521Z" fill="#F5F5F5" stroke="#EF2D28" stroke-width="0.0294434"/>
<path id="Vector_87" fill-rule="evenodd" clip-rule="evenodd" d="M13.1678 9.78215C12.9043 9.78215 12.698 9.94302 12.698 10.1429V10.545C12.698 10.7425 12.9087 10.9058 13.1678 10.9058C13.4225 10.9058 13.6333 10.7449 13.6333 10.5426V10.1429C13.6333 9.94302 13.4225 9.78215 13.1678 9.78215V9.78215ZM13.1678 9.61154C13.0633 9.61217 12.96 9.62431 12.8639 9.64725C12.7679 9.67019 12.681 9.70348 12.6083 9.74519C12.5356 9.78691 12.4785 9.83621 12.4404 9.89025C12.4023 9.94429 12.3839 10.002 12.3862 10.06V10.6255C12.3827 10.6837 12.4001 10.7417 12.4374 10.7962C12.4747 10.8506 12.5312 10.9004 12.6036 10.9426C12.6759 10.9848 12.7627 11.0186 12.8588 11.042C12.9549 11.0654 13.0585 11.0779 13.1634 11.0788C13.5981 11.0788 13.945 10.8765 13.945 10.6255V10.06C13.9479 10.002 13.9301 9.94422 13.8925 9.89006C13.8549 9.8359 13.7983 9.78641 13.726 9.74447C13.6538 9.70253 13.5672 9.66897 13.4714 9.64573C13.3755 9.6225 13.2724 9.61005 13.1678 9.6091V9.61154Z" fill="#F5F5F5" stroke="#EF2D28" stroke-width="0.0294434"/>
<path id="Vector_88" d="M12.677 10.074H11.7524C11.7214 10.074 11.6963 10.1111 11.6963 10.1569V10.4557C11.6963 10.5014 11.7214 10.5385 11.7524 10.5385H12.677C12.708 10.5385 12.7331 10.5014 12.7331 10.4557V10.1569C12.7331 10.1111 12.708 10.074 12.677 10.074Z" fill="#F5F5F5" stroke="#EF2D28" stroke-width="0.0299854"/>
<path id="Vector_89" d="M11.316 9.99768H10.7793C10.7604 9.99768 10.7451 10.0465 10.7451 10.1067V10.508C10.7451 10.5682 10.7604 10.617 10.7793 10.617H11.316C11.3348 10.617 11.3501 10.5682 11.3501 10.508V10.1067C11.3501 10.0465 11.3348 9.99768 11.316 9.99768Z" fill="#F5F5F5" stroke="#EF2D28" stroke-width="0.0299854"/>
<path id="Vector_90" d="M8.46342 9.99768H7.92673C7.90787 9.99768 7.89258 10.0465 7.89258 10.1067V10.508C7.89258 10.5682 7.90787 10.617 7.92673 10.617H8.46342C8.48228 10.617 8.49757 10.5682 8.49757 10.508V10.1067C8.49757 10.0465 8.48228 9.99768 8.46342 9.99768Z" fill="#F5F5F5" stroke="#EF2D28" stroke-width="0.0299854"/>
<path id="Vector_91" d="M7.13436 9.91916H6.0561C6.01972 9.91916 5.99023 9.98067 5.99023 10.0566V10.5538C5.99023 10.6297 6.01972 10.6912 6.0561 10.6912H7.13436C7.17074 10.6912 7.20023 10.6297 7.20023 10.5538V10.0566C7.20023 9.98067 7.17074 9.91916 7.13436 9.91916Z" fill="#F5F5F5" stroke="#EF2D28" stroke-width="0.0299854"/>
<path id="Vector_92" d="M14.5744 9.99768H13.5717C13.538 9.99768 13.5107 10.0592 13.5107 10.1351V10.6323C13.5107 10.7082 13.538 10.7697 13.5717 10.7697H14.5744C14.608 10.7697 14.6354 10.7082 14.6354 10.6323V10.1351C14.6354 10.0592 14.608 9.99768 14.5744 9.99768Z" fill="#F5F5F5" stroke="#EF2D28" stroke-width="0.0299854"/>
</g>
</g>
</g>
</g>
</g>
<defs>
<clipPath id="clip0_2909_185313">
<path d="M0.246094 32C0.246094 14.3269 14.573 0 32.2461 0V0C49.9192 0 64.2461 14.3269 64.2461 32V32C64.2461 49.6731 49.9192 64 32.2461 64V64C14.573 64 0.246094 49.6731 0.246094 32V32Z" fill="white"/>
</clipPath>
</defs>
</svg>
