<svg width="65" height="64" viewBox="0 0 65 64" fill="none" xmlns="http://www.w3.org/2000/svg">
<g id="Rounded=Philippines (PH)">
<g clip-path="url(#clip0_2909_185306)">
<path id="Vector" d="M0.246094 0H64.2461V32H0.246094V0Z" fill="#0038A8"/>
<path id="Vector_2" d="M0.246094 32H64.2461V64H0.246094V32Z" fill="#CE1126"/>
<path id="Vector_3" d="M55.6711 32L0.246094 64V0" fill="#F5F5F5"/>
<g id="Group">
<path id="Vector_4" d="M3.39609 5.54999L5.32109 7.21249L7.55859 5.98749L6.55859 8.32499L8.43359 10.075L5.87109 9.86249L4.79609 12.1625L4.20859 9.68749L1.68359 9.36249L3.87109 8.04999L3.39609 5.54999ZM46.7586 28.625L46.8086 31.1625L49.2211 32L46.8086 32.8375L46.7586 35.375L45.2211 33.35L42.7836 34.1L44.2461 32L42.7836 29.9125L45.2211 30.65L46.7586 28.625ZM4.80859 51.8375L5.88359 54.1375L8.42109 53.925L6.57109 55.675L7.55859 58.0125L5.32109 56.7875L3.39609 58.45L3.88359 55.95L1.69609 54.6375L4.22109 54.3125L4.80859 51.8375ZM20.1086 18.5L19.2836 19.325L19.6836 25.6125L19.2711 25.65L18.5211 19.9125L17.8336 20.5875L18.8586 25.7125C18.036 25.8788 17.2544 26.2059 16.5586 26.675L13.6461 22.325H12.6836L16.2086 26.925L15.8961 27.1875L11.7336 22.4375H10.5586V23.625L15.3086 27.7875L15.0336 28.1L10.4336 24.575V25.5375L14.7836 28.45C14.3186 29.1467 13.9958 29.9283 13.8336 30.75L8.70859 29.725L8.02109 30.4125L13.7711 31.1625L13.7211 31.5875L7.43359 31.175L6.59609 32L7.43359 32.825L13.7211 32.425L13.7586 32.8375L8.02109 33.5875L8.69609 34.275L13.8211 33.25C13.9874 34.0725 14.3145 34.8541 14.7836 35.55L10.4336 38.4625V39.425L15.0336 35.9L15.2961 36.2125L10.5461 40.375V41.55H11.7461L15.9086 36.8L16.2211 37.075L12.6961 41.675H13.6586L16.5711 37.325C17.2676 37.7902 18.0493 38.1131 18.8711 38.275L17.8461 43.4L18.5336 44.0875L19.2836 38.3375L19.6961 38.3875L19.2961 44.675L20.1211 45.5125L20.9461 44.675L20.5461 38.3875L20.9586 38.35L21.7086 44.0875L22.3961 43.4125L21.3711 38.2875C22.1936 38.1212 22.9753 37.7941 23.6711 37.325L26.5836 41.675H27.5461L23.9961 37.075L24.3086 36.8125L28.4711 41.5625H29.6461V40.375L24.8961 36.2125L25.1711 35.9L29.7711 39.425V38.4625L25.4211 35.55C25.8861 34.8533 26.2089 34.0717 26.3711 33.25L31.4961 34.275L32.1836 33.5875L26.4336 32.8375L26.4836 32.425L32.7711 32.825L33.6086 32L32.7711 31.175L26.4836 31.5875C26.4836 31.4375 26.4586 31.3 26.4461 31.1625L32.1836 30.4125L31.5086 29.725L26.3836 30.75C26.2173 29.9274 25.8902 29.1458 25.4211 28.45L29.7711 25.5375V24.575L25.1711 28.1L24.9086 27.7875L29.6586 23.625V22.45H28.4711L24.3086 27.2L23.9961 26.925L27.5211 22.325H26.5586L23.6461 26.675C22.9494 26.21 22.1678 25.8872 21.3461 25.725L22.3711 20.6L21.6836 19.9125L20.9336 25.6625L20.5211 25.6125L20.9211 19.325L20.1086 18.5Z" fill="#FCD116"/>
</g>
</g>
</g>
<defs>
<clipPath id="clip0_2909_185306">
<path d="M0.246094 32C0.246094 14.3269 14.573 0 32.2461 0V0C49.9192 0 64.2461 14.3269 64.2461 32V32C64.2461 49.6731 49.9192 64 32.2461 64V64C14.573 64 0.246094 49.6731 0.246094 32V32Z" fill="white"/>
</clipPath>
</defs>
</svg>
