<svg width="65" height="64" viewBox="0 0 65 64" fill="none" xmlns="http://www.w3.org/2000/svg">
<g id="Rounded=Pitcairn (PN)">
<g clip-path="url(#clip0_2909_185382)">
<path id="Vector" d="M0.246094 0H64.2461V64H0.246094V0Z" fill="#00247D"/>
<path id="Vector_2" d="M41.7719 33.5125C40.8087 34.447 40.1286 35.634 39.8094 36.9375C39.2219 40.2875 38.4344 41.0375 37.2219 40.3125C37.2219 42.125 38.5594 42.2625 39.1344 41.2125C39.1344 42.9 39.6469 44.3625 40.8094 45.6125C41.3094 46.15 41.3969 45.7875 41.1594 45.2C40.9344 44.6125 40.9344 42.7375 40.4594 41.65C41.2094 42.2875 42.3094 41.925 42.2094 40.175C41.2594 40.85 40.3094 40.825 40.2094 39.2375C40.0844 37.375 40.7094 34.675 41.7719 33.5125V33.5125ZM40.6344 20.15C40.6969 19.4875 40.5844 18.8 40.1719 18.375C39.3844 17.5375 38.6094 17.8125 38.0344 18.4875C37.1719 17.925 36.7219 19.9 35.7344 19.5625C35.8969 20.2 36.1594 20.475 36.6469 20.2625C36.1344 20.8125 36.6469 21.475 36.0469 22.1375C37.1344 22.5625 37.7219 21.8375 37.6719 20.5875C37.7598 20.6939 37.8716 20.7779 37.9982 20.8328C38.1249 20.8877 38.2627 20.9119 38.4004 20.9033C38.5381 20.8948 38.6719 20.8538 38.7908 20.7837C38.9097 20.7136 39.0103 20.6164 39.0844 20.5C38.5094 20.2875 38.5094 19.6875 38.7344 19.125C39.0844 18.2875 40.7344 18.325 40.6344 20.15Z" fill="#F7E017" stroke="black" stroke-width="0.0458307"/>
<path id="Vector_3" d="M43.1578 29.8C41.9203 30.575 39.6578 30.25 39.4578 28.3375C39.2453 26.4125 40.8078 25.5625 41.2328 25.3125C41.8828 24.925 42.3953 25.6125 42.1828 26.425C42.9078 26.1125 43.0578 25.1125 42.7203 24.5375C43.6703 24.625 44.5578 23.7625 44.9328 22.5375C44.5953 22.9125 43.6828 22.6625 42.9328 22.6C43.1578 22.3 43.1578 21.7125 43.0828 21.4C42.2953 22.3625 41.1578 21.925 39.6453 24.725C40.0031 23.2054 40.3365 21.6802 40.6453 20.15C40.7328 18.325 39.0953 18.275 38.7453 19.125C39.1203 19.625 38.9203 20.2375 38.7828 21.15C38.6203 22.225 38.2828 24.725 37.9703 25.5625C37.8828 24.25 37.1578 24.1625 37.0203 23.5375C36.8078 23.7 36.6953 24.1375 36.7328 24.45C36.4828 24.1125 35.5953 24.525 35.2703 24.025C34.9203 24.8625 35.4828 25.6875 36.0578 26.05C35.7203 26.075 35.6453 26.5625 35.2703 26.5625C35.7703 27.2625 36.2828 27.5375 36.8703 27.6C37.4703 27.65 37.9078 27.9125 38.2703 28.775C38.8578 30.1625 41.0703 31.0625 43.1578 29.8V29.8Z" fill="#337321" stroke="black" stroke-width="0.0458307"/>
<path id="Vector_4" d="M46.2331 28.1125C45.5331 30.4125 43.6206 32.05 42.7581 32.3C40.8371 32.9889 39.058 34.0225 37.5081 35.35C37.3831 35.3125 37.2581 35.2625 37.1831 35.1875C36.7831 34.85 36.4581 33.775 37.1581 32.85C39.3456 30.4125 41.6956 31.475 43.1581 29.8C41.9331 30.575 39.6706 30.25 39.4581 28.325C40.7831 28.75 43.1831 28.775 45.0831 26.325C45.3456 26.6625 46.0831 27.725 46.2331 28.1125V28.1125Z" fill="#F7E017" stroke="black" stroke-width="0.0458307"/>
<path id="Vector_5" d="M41.7708 33.5125C40.6583 34.6375 40.0833 37.3875 40.2083 39.2375C40.2458 39.75 40.3583 40.1125 40.5458 40.3125C40.6208 39.2625 41.2458 36.5375 42.8083 35.3125C44.7426 33.7739 46.1957 31.7135 46.9958 29.375C46.8458 28.9 46.6208 28.5625 46.1708 28.2375C45.4208 30.725 43.3708 31.9125 41.7833 33.525L41.7708 33.5125Z" fill="#337321" stroke="black" stroke-width="0.0458307"/>
<path id="Vector_6" d="M45.5215 27.0375C45.0118 27.9189 44.2676 28.6416 43.3715 29.125C43.559 28.875 43.6215 28.55 43.6215 28.2875C42.534 28.7875 40.3465 28.7375 39.459 28.35C40.784 28.7625 43.184 28.7875 45.084 26.35C45.2715 26.6 45.434 26.8125 45.5215 27.05V27.0375Z" fill="#316D3A" stroke="black" stroke-width="0.0458307"/>
<path id="Vector_7" d="M37.1592 32.85C35.3842 34.8375 36.5592 36.575 37.2467 36.9625C37.0592 38.3375 38.1592 38.175 38.1342 39.3375C38.5717 39.0375 38.6967 38.2375 38.6342 37.5875C39.1842 38.3125 40.5967 37.5125 40.9092 38.8375C41.0967 37.375 40.1342 35.9 38.9467 36.0375C39.4467 35.5125 39.1592 34.6625 38.6967 34.4375C38.6092 35.5125 37.5717 35.5125 37.1842 35.1875C36.7842 34.85 36.4592 33.775 37.1592 32.85Z" fill="#337321" stroke="black" stroke-width="0.0458307"/>
<path id="Vector_8" d="M40.9971 45.475C40.8096 45.6 40.8346 45.9125 40.9471 46.1C41.1971 46.4875 40.7721 47.375 41.5721 47.5625C41.7971 47.6125 41.9721 47.4375 42.0721 47.125C42.3096 46.25 41.5346 46.1625 41.4596 45.75C41.3971 45.325 41.1721 45.375 41.0096 45.475H40.9971Z" fill="#F7E017" stroke="black" stroke-width="0.0458307"/>
<path id="Vector_9" d="M41.6703 47.125C41.4203 47.25 41.1703 47.4625 41.2953 48.4625C41.3328 48.875 41.3078 49.875 41.0078 49.8875C41.1953 50 41.5828 50.1125 41.7578 49.8625C41.9078 50.175 42.2578 50.0875 42.4078 49.7C42.5828 49.875 42.8453 49.575 42.8453 49.3125C43.0078 49.4375 43.3453 49.25 43.2453 48.6625C43.4453 48.7375 43.7078 48.575 43.7953 48.4125C43.5078 48.35 42.7703 47.875 42.5953 47.5C42.4203 47.125 41.9703 46.95 41.6703 47.125V47.125Z" fill="#F7E017" stroke="black" stroke-width="0.0458307"/>
<path id="Vector_10" d="M43.2453 48.65C43.0578 48.6 42.4703 48.15 42.2203 47.6625M37.6328 19.05C37.7578 18.85 37.8828 18.65 38.0328 18.4875L37.6328 19.05ZM42.0703 22.725C42.2703 22.5875 42.5703 22.575 42.9328 22.6L42.0703 22.725ZM41.7453 49.8625C41.6703 49.725 41.6328 49.1375 41.6953 48.7875L41.7453 49.8625ZM42.4078 49.7C42.2828 49.575 42.0328 49.175 41.9828 48.825L42.4078 49.7ZM42.8453 49.3125C42.537 49.0083 42.313 48.6293 42.1953 48.2125L42.8453 49.3125Z" stroke="black" stroke-width="0.0458307"/>
<path id="Vector_11" d="M53.9836 32.875C56.8461 35.75 57.0211 38.0125 56.5836 39.35C56.3586 38.1 55.1711 36.1625 53.9336 35.6625L53.9836 32.875Z" fill="#F7E017" stroke="black" stroke-width="0.0458307"/>
<path id="Vector_12" d="M48.8707 31.275H54.1707V38.75C54.1707 45.125 51.1832 48.9 48.1707 50.9C45.1332 48.9 42.1582 45.125 42.1582 38.75V31.25H45.8707C45.8707 31.65 45.9082 32.225 46.2832 32.8125C47.1582 32.7125 48.1582 31.9375 48.8457 31.2625L48.8707 31.275Z" fill="#337321" stroke="black" stroke-width="0.0458307"/>
<path id="Vector_13" d="M54.1713 31.275V38.75C54.1713 40.675 53.8963 42.375 53.4338 43.8375L48.1713 32.3125L42.8963 43.8375C42.3932 42.189 42.1445 40.4735 42.1588 38.75V31.25L54.1713 31.275Z" fill="#006EC7" stroke="black" stroke-width="0.0458307"/>
<path id="Vector_14" d="M53.5957 43.3C53.4957 43.6375 53.3332 44.1875 53.1957 44.525L48.1707 33.375L43.1207 44.525C42.9957 44.1875 42.8207 43.65 42.7207 43.3L48.1582 31.3L53.5957 43.3Z" fill="#F7E017"/>
<path id="Vector_15" d="M50.5594 47.4L51.0594 47.7C51.3338 46.9186 51.4195 46.0834 51.3094 45.2625C50.9969 46.175 49.9719 46.1375 49.6969 46.7C49.8719 46.8 50.0219 46.9375 50.1594 47.05C49.7087 47.5829 49.1562 48.0206 48.5344 48.3375V42.375C48.5344 41.95 48.4094 41.6 48.4094 41.25V40.025C48.4094 39.75 48.3719 39.35 48.1594 39.35C47.9469 39.35 47.9094 39.75 47.9094 40.025V41.2625C47.9094 41.6 47.7844 42.0125 47.7844 42.375V48.325C47.5344 47.4375 46.5344 47.7375 46.0594 46.85C46.2469 46.8 46.4344 46.775 46.6219 46.825C46.2719 45.4125 45.3219 45.3 45.1344 44.875C45.1344 45.4625 44.9219 46.825 45.2594 47.4125C45.3219 47.3 45.4344 47.1875 45.5719 47.1C45.9594 48.125 47.7469 48.125 48.1594 49.825C48.4969 49.2 49.7094 48.475 50.5594 47.3875V47.4Z" fill="#F7E017" stroke="black" stroke-width="0.0458307"/>
<path id="Vector_16" d="M48.159 42.45C48.559 42.45 49.809 42.3 50.2715 42.3C50.3965 42.3 50.484 42.0875 50.484 41.825C50.484 41.575 50.384 41.3625 50.2715 41.3625C49.8215 41.3625 48.559 41.2125 48.159 41.2125C47.7715 41.2125 46.509 41.3625 46.059 41.3625C45.934 41.3625 45.834 41.575 45.834 41.825C45.834 42.0875 45.934 42.3 46.059 42.3C46.509 42.3 47.7715 42.45 48.159 42.45ZM47.909 40.0125C47.8224 39.936 47.712 39.8918 47.5965 39.8875C47.334 39.8875 47.109 40.125 47.109 40.4C47.109 40.6875 47.3215 40.925 47.5965 40.925C47.8465 40.925 48.0715 40.6875 48.0715 40.4C48.0715 40.1875 48.334 40.1875 48.334 40.4C48.334 40.8625 48.009 41.225 47.584 41.225C47.1715 41.225 46.834 40.85 46.834 40.4C46.834 39.95 47.184 39.5875 47.584 39.5875C47.709 39.5875 47.834 39.625 47.934 39.6875L47.909 40.0125V40.0125Z" fill="#F7E017" stroke="black" stroke-width="0.0458307"/>
<g id="Vector_17">
<path d="M46.0586 42.3C46.1836 42.3 46.2711 42.0875 46.2711 41.825C46.2711 41.575 46.1711 41.3625 46.0586 41.3625" fill="#F7E017"/>
<path d="M46.0586 42.3C46.1836 42.3 46.2711 42.0875 46.2711 41.825C46.2711 41.575 46.1711 41.3625 46.0586 41.3625" stroke="black" stroke-width="0.0458307"/>
</g>
<g id="Vector_18">
<path d="M46.2328 42.3C46.3578 42.3 46.4453 42.0875 46.4453 41.825C46.4453 41.575 46.3453 41.3625 46.2328 41.3625V42.3ZM47.3703 42.4C47.5203 42.4 47.6328 42.15 47.6328 41.825C47.6328 41.5125 47.5203 41.2625 47.3828 41.2625L47.3703 42.4ZM47.6453 42.425C47.7953 42.425 47.9203 42.15 47.9203 41.825C47.9203 41.5 47.7953 41.2375 47.6453 41.2375V42.425ZM48.5453 42.425C48.6953 42.425 48.8078 42.1625 48.8078 41.825C48.8078 41.5 48.6828 41.225 48.5453 41.225V42.425ZM48.8203 42.4125C48.9703 42.4125 49.0953 42.1625 49.0953 41.825C49.0953 41.5125 48.9703 41.25 48.8203 41.25V42.4125ZM50.0703 42.3125C50.1953 42.3125 50.2953 42.1 50.2953 41.825C50.2953 41.5625 50.1953 41.35 50.0703 41.35V42.3125ZM45.5703 47.1125C45.7078 47.0125 45.8828 46.9125 46.0703 46.8625L45.5703 47.1125ZM50.3078 47.175L50.1703 47.05L50.3078 47.175ZM50.5578 47.4C50.9018 46.9808 51.157 46.4959 51.3078 45.975Z" fill="#F7E017"/>
<path d="M50.5578 47.4C50.9018 46.9808 51.157 46.4959 51.3078 45.975M46.2328 42.3C46.3578 42.3 46.4453 42.0875 46.4453 41.825C46.4453 41.575 46.3453 41.3625 46.2328 41.3625V42.3ZM47.3703 42.4C47.5203 42.4 47.6328 42.15 47.6328 41.825C47.6328 41.5125 47.5203 41.2625 47.3828 41.2625L47.3703 42.4ZM47.6453 42.425C47.7953 42.425 47.9203 42.15 47.9203 41.825C47.9203 41.5 47.7953 41.2375 47.6453 41.2375V42.425ZM48.5453 42.425C48.6953 42.425 48.8078 42.1625 48.8078 41.825C48.8078 41.5 48.6828 41.225 48.5453 41.225V42.425ZM48.8203 42.4125C48.9703 42.4125 49.0953 42.1625 49.0953 41.825C49.0953 41.5125 48.9703 41.25 48.8203 41.25V42.4125ZM50.0703 42.3125C50.1953 42.3125 50.2953 42.1 50.2953 41.825C50.2953 41.5625 50.1953 41.35 50.0703 41.35V42.3125ZM45.5703 47.1125C45.7078 47.0125 45.8828 46.9125 46.0703 46.8625L45.5703 47.1125ZM50.3078 47.175L50.1703 47.05L50.3078 47.175Z" stroke="black" stroke-width="0.0458307"/>
</g>
<g id="Vector_19">
<path d="M47.0957 36.575C47.0957 36.4375 47.1832 36.375 47.2957 36.275C47.4207 36.1625 47.4832 36.1 47.5957 36.1H49.1332C49.2332 36.1 49.2582 36.1375 49.2582 36.2625V38.75C49.2582 38.875 49.2457 38.9125 49.1332 38.9125H47.0957V36.55" fill="#F5F5F5"/>
<path d="M47.0957 36.575C47.0957 36.4375 47.1832 36.375 47.2957 36.275C47.4207 36.1625 47.4832 36.1 47.5957 36.1H49.1332C49.2332 36.1 49.2582 36.1375 49.2582 36.2625V38.75C49.2582 38.875 49.2457 38.9125 49.1332 38.9125H47.0957V36.55" stroke="black" stroke-width="0.0458307"/>
</g>
<path id="Vector_20" d="M48.7461 39.125C48.9461 39.125 48.9211 39.1125 49.0586 38.9375C49.2086 38.7625 49.1836 38.7875 49.1836 38.625V36.35C49.1836 36.2375 49.1586 36.2 49.0586 36.2H47.6461C47.5336 36.2 47.4836 36.2625 47.3711 36.375C47.2711 36.4625 47.1836 36.5125 47.1836 36.6375V39.125H48.7461Z" fill="#E5E5E5" stroke="black" stroke-width="0.0458307"/>
<path id="Vector_21" d="M48.8957 39.0625C48.8957 39.1875 48.8707 39.225 48.7707 39.225H47.2332C47.1082 39.225 47.0957 39.1875 47.0957 39.0625V36.5875C47.0957 36.4625 47.1207 36.425 47.2332 36.425H48.7582C48.8832 36.425 48.8957 36.4625 48.8957 36.5875V39.0625Z" fill="#F5F5F5" stroke="black" stroke-width="0.0458307"/>
<path id="Vector_22" d="M51.8703 29.825C52.1578 30.2125 52.2453 30.75 52.0953 31.2625H51.6453C51.8328 30.6 51.7203 29.9625 50.9328 29.8875C49.7453 29.7625 48.3703 32.4875 46.3078 32.825C45.6828 31.9625 45.7203 30.325 46.4953 29.55C46.0953 28.175 45.2578 26.675 44.6828 26.0375C44.3078 25.9625 43.8578 25.9125 43.5703 25.9375C43.9645 25.1057 44.6241 24.4285 45.4453 24.0125C45.5453 23.8125 45.6703 23.6375 45.7828 23.4625C45.8578 22.3875 50.1203 22.8875 51.0328 23.55C51.0328 24.75 51.4078 28.7375 51.8578 29.825H51.8703Z" fill="#96877D" stroke="black" stroke-width="0.0458307"/>
<path id="Vector_23" d="M46.6957 30.55C46.5957 28.7 45.9707 27.175 45.0957 26.1375C45.4127 26.2285 45.7468 26.2431 46.0705 26.1801C46.3943 26.1171 46.6985 25.9783 46.9582 25.775C47.7082 25.175 49.7207 24.1 50.4582 24.5625C50.5207 24.7125 50.5457 25.0625 50.5082 25.275C50.3332 24.725 48.3957 25.5875 47.8457 25.85C47.3332 26.1375 47.0957 26.525 47.2832 27.4C46.9832 27.1 47.0832 26.8 46.7707 26.5875C46.8957 26.95 46.9957 27.5875 47.0332 28.125C46.9082 27.75 46.7082 26.95 46.2582 26.475C46.7347 27.847 46.9303 29.3009 46.8332 30.75C47.1457 30.75 47.8332 30.375 48.1082 30.125C47.8707 30.5375 47.1707 30.825 46.7082 30.9375C46.4848 31.3921 46.3733 31.8936 46.3832 32.4C46.3457 31.8875 46.4832 30.625 46.6957 30.55V30.55ZM51.8707 29.825C51.4707 29.3125 50.7457 29.0375 49.8332 29.325C49.9832 29.25 50.2832 29.1125 50.5457 29.05C50.5207 28.7625 50.2957 27.5125 50.2582 27.2125L50.5082 27.0875C50.6332 27.8375 50.8082 28.6875 50.9082 29.0375C50.9957 29.0625 51.1832 29.1125 51.3457 29.2125C51.2707 28.9125 50.8707 26.825 50.8832 26.5875L51.2332 26.375C51.3355 27.5417 51.5447 28.6966 51.8582 29.825H51.8707Z" fill="black"/>
<path id="Vector_24" d="M51.6582 31.275C51.8332 30.6 51.7207 29.975 50.9332 29.8875C50.3082 29.825 49.6582 30.5375 48.8707 31.2625L51.6582 31.275ZM46.5082 25.2875C46.1582 25.35 45.3832 25.2625 44.9832 25.1125C45.0082 24.9875 45.0457 24.8625 45.1082 24.725C44.8582 24.9125 44.3957 25.2875 44.2207 25.5625C44.7707 25.6875 45.9332 25.7625 46.5082 25.2875Z" fill="#96877D" stroke="black" stroke-width="0.0458307"/>
<path id="Vector_25" d="M45.4469 24.0125C45.2344 24.3875 45.0469 24.775 44.9844 25.1125C45.3844 25.2625 46.1594 25.35 46.5094 25.2875M46.4969 29.55C46.6219 30 46.7094 30.425 46.7219 30.8L46.4969 29.55Z" stroke="black" stroke-width="0.0458307"/>
<path id="Vector_26" d="M44.6836 26.0375L45.0961 26.1375C45.4131 26.2285 45.7472 26.2431 46.0709 26.1801C46.3947 26.1171 46.6989 25.9783 46.9586 25.775C47.5336 25.275 49.1211 23.725 50.9086 23.5625" stroke="black" stroke-width="0.0458307"/>
<path id="Vector_27" d="M44.2207 25.5625C44.7832 25.6875 45.9332 25.7625 46.5082 25.2875C47.6083 24.2858 48.9935 23.6522 50.4707 23.475" stroke="black" stroke-width="0.0458307"/>
<path id="Vector_28" d="M53.9832 32.875C55.9332 34.5 57.3707 36.05 57.7957 38.5375C58.2207 41.0375 59.0082 41.7 59.9832 41.0375C59.7457 42.475 58.5457 42.65 57.5207 41.5375C57.6082 43.2 57.0582 45.2 55.6082 45.9125C55.5207 44.9125 56.0707 44.1375 55.9082 43.3125C55.8457 42.95 55.8207 42.1125 56.2207 41.725C55.4457 42.0375 54.2332 41.45 54.1207 40.1C54.9957 40.6 56.1457 40.675 56.5832 39.35C57.0207 38.0125 56.8332 35.7375 53.9832 32.8875V32.875ZM56.4457 19.9C57.0457 18.025 58.6332 18.2125 59.1707 19.0125C60.7332 17.9625 60.9332 20.3375 62.2707 19.875C62.2455 20.1092 62.1319 20.325 61.953 20.4783C61.7742 20.6316 61.5435 20.7109 61.3082 20.7C61.8207 21.25 61.0957 22.0875 62.1832 22.5875C61.2582 23.1375 59.9582 22.5625 59.6082 21.0375C59.3082 21.75 58.2207 21.75 57.7707 21.1625C58.7332 20.875 58.6582 19.8125 58.1207 19.4C57.5832 18.975 56.6207 19.15 56.4457 19.9V19.9ZM51.7207 24.05C52.1407 25.6397 52.9286 27.1084 54.0207 28.3375C55.1457 29.55 56.8332 29.25 57.7707 28.0875C57.7957 30.4 55.7707 30.5875 54.6457 29.8625C54.1582 29.5375 53.7707 29.7 54.2332 30.2125C54.9582 31 56.5332 31.575 58.3957 32.05C61.6457 32.875 60.4957 35.9625 59.5457 35.925C59.8207 35.925 60.0457 35.5875 59.6457 35.1625C56.8207 32.125 51.0707 33.325 51.1582 26.55C50.5582 28.325 48.0707 27.6375 49.2332 25.525C49.6082 25.8875 50.2582 25.9125 50.4457 25.3625C50.5957 24.925 50.4957 24.175 49.8457 23.5375C49.9457 23.525 50.1832 23.5375 50.1582 23.2125C50.1832 23.4 50.3332 23.675 50.6957 23.5875C50.7957 23.775 50.9082 23.9125 51.0582 23.8375C51.0832 23.825 51.1832 23.775 51.1332 23.575C51.1707 23.95 51.5332 24.075 51.7207 24.05V24.05Z" fill="#337321" stroke="black" stroke-width="0.0458307"/>
<path id="Vector_29" d="M54.6584 29.8625C56.0084 30.9125 57.5334 30.9125 58.9334 28.975C59.3709 28.35 60.0709 27.8375 60.5584 27.775C61.0584 27.7125 61.0334 27.1625 61.3959 27.05C61.1709 26.975 61.0709 26.6375 60.7209 26.675C61.5959 26.325 61.3459 25.4875 61.7709 25.0875C61.4209 25.2375 60.8709 24.6125 60.3709 25.4125C60.4959 25.0375 60.3334 24.6125 60.2084 24.45C60.2459 24.8625 59.5209 24.95 59.3709 26C59.2959 26.6 59.0334 26.5625 58.9834 25.6375C58.9459 24.975 58.6834 23.1125 58.3584 22.175C58.0334 21.2375 57.9584 19.9375 58.3959 19.75C58.3334 19.6125 58.2334 19.5 58.1209 19.4C57.5834 18.9875 56.6334 19.15 56.4459 19.9C55.8459 21.7875 57.5459 22.875 57.3959 24.925C57.1459 23.4 55.0709 23.0125 55.0959 21.5125C54.4209 21.875 54.5209 22.5375 54.7709 23.0625C54.3584 22.2875 53.3959 23.5625 52.5834 22.5125C52.4959 23.9 53.5209 24.425 54.3584 24.4875C54.277 24.6552 54.2302 24.8375 54.2209 25.0237C54.2115 25.2099 54.2397 25.396 54.3039 25.571C54.3681 25.746 54.4669 25.9063 54.5943 26.0423C54.7218 26.1783 54.8754 26.2872 55.0459 26.3625C55.0709 24.8125 57.7459 25.45 57.7709 28.1125C57.7959 30.3875 55.7459 30.575 54.6459 29.8625H54.6584ZM58.3959 32.05C61.6459 32.875 60.4959 35.9625 59.5459 35.925C58.9334 35.925 58.3584 35.3 58.3209 34.7875C57.6209 35.225 57.8084 36.1 58.3459 36.45C56.8709 36.2375 56.2584 37.3875 56.2209 38.65C56.4959 38.0625 57.3084 38.025 57.6084 38.15C57.9084 38.275 58.6959 38.35 59.0084 37.925C58.7584 38.1875 59.1709 38.8 58.8084 39.275C60.0334 39.2125 60.5584 37.8625 60.3584 37.2625C61.9334 35.55 61.6334 32.7375 58.3959 32.05V32.05ZM55.9209 45.225C56.1334 45.3875 56.1084 45.725 55.9584 45.925C55.6709 46.35 56.1084 47.35 55.2209 47.525C54.9584 47.575 54.7709 47.375 54.6834 47.025C54.4334 46.025 55.3084 45.9625 55.4084 45.5C55.4959 45.0375 55.7459 45.1 55.9209 45.225V45.225Z" fill="#F7E017" stroke="black" stroke-width="0.0458307"/>
<path id="Vector_30" d="M55.1203 47.025C55.4078 47.2 55.6578 47.4375 55.4953 48.5375C55.4328 49 55.4203 50.125 55.7578 50.1625C55.5453 50.2625 55.1078 50.375 54.9328 50.0875C54.7453 50.425 54.3453 50.3 54.2078 49.8625C53.9953 50.05 53.7078 49.7 53.7328 49.4C53.5453 49.525 53.1828 49.3125 53.2953 48.65C53.0703 48.7375 52.7953 48.5375 52.6953 48.3625C53.0203 48.3 53.8578 47.8125 54.0703 47.4C54.2703 47 54.7828 46.825 55.1203 47.025V47.025Z" fill="#F7E017" stroke="black" stroke-width="0.0458307"/>
<path id="Vector_31" d="M53.2969 48.6625C53.7886 48.4378 54.199 48.0667 54.4719 47.6M54.9344 50.0875C55.0219 49.9375 55.0844 49.2875 55.0219 48.8875L54.9344 50.0875ZM54.2094 49.875C54.3594 49.75 54.6469 49.3 54.7094 48.9125L54.2094 49.875ZM53.7344 49.4125C53.9094 49.3125 54.3719 48.6625 54.4844 48.2125L53.7344 49.4125Z" stroke="black" stroke-width="0.0458307"/>
<path id="Vector_32" d="M51.1588 26.5625C51.1213 29.4 52.1213 30.8375 53.4963 31.775C52.9838 31.4 53.1963 30.1625 52.5088 29.7625C52.6713 29.75 52.9338 30.0125 53.3338 29.9125C53.1463 29.3875 52.8213 28.5875 52.0588 28.475C52.2588 28.45 52.6838 28.525 52.9713 28.4C52.5713 27.675 51.5213 28.025 51.1588 26.5625V26.5625ZM50.9213 23.85C50.8338 23.8125 50.7588 23.725 50.6963 23.6C50.3213 23.6875 50.1963 23.4 50.1588 23.225C50.1838 23.5375 49.9463 23.525 49.8463 23.5375C50.4963 24.1875 50.5963 24.9375 50.4463 25.3625C50.2588 25.9125 49.6088 25.8875 49.2338 25.525C49.1838 26.7125 50.4713 27.1 50.9338 25.6125C50.9338 25.8625 51.1963 25.8375 51.2713 26.1625C51.5963 25.5375 51.3463 24.6125 50.9213 23.85Z" fill="#F7E017" stroke="black" stroke-width="0.0458307"/>
<path id="Vector_33" d="M48.8713 18.225C48.3357 17.5687 48.0442 16.7471 48.0463 15.9C48.0713 15.3 48.2838 14.625 49.0213 14.9C48.7963 14.9 48.9588 15.4625 48.7088 15.525C48.9088 15.6 49.1713 15.4 49.2088 15.275C49.2588 15.475 49.5588 15.425 49.5838 15.65C49.7088 15.525 49.5838 14.9875 49.3963 14.875C49.5213 14.8 49.5963 14.375 49.5338 14.1625C49.4213 14.1875 49.2463 14.375 49.2088 14.6625C49.2713 14.4375 49.2088 13.875 48.8713 13.7875C48.7838 13.95 48.7588 14.325 48.8838 14.5375C48.5838 14.45 48.1338 14.6875 48.0338 14.9875C48.0588 14.6125 48.1088 14.1 48.2838 13.7625C48.3588 13.65 48.1963 13.4625 48.0838 13.725C47.8463 13.2 47.2463 12.925 46.9838 13.1875C46.7088 13.4375 46.3588 13.0625 46.1338 13.475C45.9088 13.8875 45.1588 13.9375 45.1963 14.375C45.2213 14.6375 45.1713 15.05 45.0588 15.2C44.7963 15.55 45.1838 15.825 45.2588 16.1375C45.2088 15.0875 46.6213 13.0375 48.0338 13.8375C47.9088 14.1 47.7838 14.625 47.7463 15.2625C47.6838 16.2125 47.8088 17.5375 48.5713 18.3125L48.8713 18.225Z" fill="#337321" stroke="black" stroke-width="0.0458307"/>
<path id="Vector_34" d="M49.2952 14.9125C49.2827 14.6625 49.6452 14.3375 50.1327 14.35C50.7202 14.35 51.1702 15 51.6327 14.9375C52.1077 14.875 51.8827 15.1875 51.7827 15.2625C51.729 15.3072 51.6889 15.3659 51.6668 15.4322C51.6447 15.4984 51.6416 15.5695 51.6577 15.6375C51.6952 15.7875 51.6327 15.8875 51.4452 15.7375C51.0202 15.425 50.6077 15.8625 50.0577 15.6125C49.5827 15.4125 49.3077 15.2875 49.2952 14.9125V14.9125Z" fill="#C8102E" stroke="black" stroke-width="0.0458307"/>
<path id="Vector_35" d="M46.8953 21.4625C46.6578 20.5875 45.7703 19.6375 45.3453 19.4125L45.3203 18.95C45.5578 18.825 46.1203 18.3125 46.3703 18.0125C48.1203 19.0125 50.4953 17.6 51.5828 16.1375L52.0078 16.4375L51.7953 16.7625L51.5703 16.625C51.3078 17.0125 50.3078 18.125 50.0078 18.375C50.3699 18.4815 50.7433 18.5444 51.1203 18.5625C52.0953 17.7375 52.8703 16.9875 53.2453 16.9375L53.5453 17.4375L53.2703 17.6625L53.0453 17.5125C51.8337 18.9067 50.9155 20.5307 50.3453 22.2875C49.6953 22.1125 47.3703 22.225 46.8953 21.4625V21.4625Z" fill="#96877D" stroke="black" stroke-width="0.0458307"/>
<path id="Vector_36" d="M49.9965 18.375C49.8465 18.325 49.7215 18.275 49.6465 18.225C49.459 18.425 48.9965 18.6 48.3965 18.6375" stroke="black" stroke-width="0.0458307"/>
<path id="Vector_37" d="M46.9952 21.1625C46.8327 20.125 47.0827 18.975 47.5202 18.6375C48.0476 19.0162 48.6836 19.2137 49.3327 19.2002C49.9818 19.1866 50.6091 18.9629 51.1202 18.5625" stroke="black" stroke-width="0.0458307"/>
<path id="Vector_38" d="M46.9961 20.625C47.7336 20.5875 49.3461 20.75 49.7461 20.8125C50.1336 20.8875 50.7961 21.075 50.7086 21.3125L46.9961 20.625ZM47.3336 20.475L47.5461 20.225L47.3336 19.975L47.1211 20.225L47.3336 20.475Z" stroke="black" stroke-width="0.0458307"/>
<path id="Vector_39" d="M47.8344 15.3125C47.5719 14.8625 46.8344 14.725 46.6719 15.3125C46.6094 15.5875 46.4969 15.8625 46.3219 15.9875C46.1469 16.1125 46.1969 16.4875 46.2719 16.65C46.4469 17.0625 46.2844 17.45 46.6469 17.7125C46.6469 17.3875 47.0469 17.0625 47.3844 16.975C47.7219 16.8875 48.2344 16.5375 48.2969 16.125C48.3719 15.725 48.4844 15.3875 47.8344 15.3125Z" fill="#337321" stroke="black" stroke-width="0.0458307"/>
<path id="Vector_40" d="M46.1578 19.3H46.2578V20.05L46.3078 20.0875L46.8578 19.7125L46.9078 19.8125L46.3578 20.1875V20.2625L46.9078 20.6375L46.8578 20.7375L46.3078 20.3625C46.2946 20.379 46.2774 20.3919 46.2578 20.4V21.15H46.1578V20.4L46.1078 20.3625L45.5578 20.7375L45.5078 20.65L46.0578 20.275V20.2L45.5078 19.825L45.5578 19.725L46.1078 20.1L46.1578 20.0625V19.3Z" fill="#96877D" stroke="black" stroke-width="0.0458307"/>
<path id="Vector_41" d="M46.9969 21.15C46.9031 21.2695 46.7836 21.3664 46.6473 21.4335C46.511 21.5006 46.3613 21.5361 46.2094 21.5375C45.5969 21.5375 45.1094 20.95 45.1094 20.225C45.1094 19.5 45.5969 18.9125 46.2094 18.9125C46.5594 18.9125 46.8844 19.1125 47.0844 19.425C47.0219 19.6 46.9594 19.9625 46.9594 20.1375C46.9094 19.6875 46.5844 19.325 46.2094 19.325C45.7844 19.325 45.4594 19.7375 45.4594 20.225C45.4594 20.725 45.7844 21.125 46.2094 21.125C46.5469 21.125 46.8594 20.8375 46.9344 20.45C46.9344 20.625 46.9469 21.025 46.9844 21.15H46.9969Z" fill="#96877D" stroke="black" stroke-width="0.0458307"/>
<path id="Vector_42" d="M45.7461 22.4125C45.6309 22.2469 45.5658 22.0516 45.5586 21.85C45.6586 21.85 45.8586 21.925 45.9461 22.0375C45.9461 21.8875 45.8961 21.5875 45.9211 21.45C46.0461 21.5125 46.3086 21.6875 46.4086 21.8875C46.3836 21.7625 46.3336 21.3875 46.3836 21.175C46.5211 21.275 46.7586 21.5375 46.8086 21.7125C46.8086 21.4375 46.8961 20.975 46.9711 20.8625C47.0711 20.9875 47.2336 21.1125 47.3461 21.275C47.3586 21.05 47.4586 20.775 47.5961 20.7125C47.76 20.9599 47.8628 21.2426 47.8961 21.5375C47.9961 21.4875 48.1461 21.2875 48.1961 21.1625C48.2586 21.2875 48.3211 21.475 48.2836 21.7125C48.4261 21.5731 48.5333 21.4017 48.5961 21.2125C48.6836 21.3 48.8586 21.5 48.9086 21.725C48.8836 21.55 48.8961 21.225 48.8461 21.05C49.0211 21.15 49.1586 21.35 49.1961 21.55C49.2461 21.3625 49.3461 21.025 49.4461 20.925C49.5498 21.1484 49.6052 21.3912 49.6086 21.6375C49.6711 21.5125 49.7711 21.2625 49.8586 21.2C49.9336 21.35 49.9336 21.6875 49.9086 21.8625C49.9929 21.7256 50.1033 21.6067 50.2336 21.5125C50.2336 21.5875 50.2586 21.7625 50.2336 21.8875C50.3336 21.8125 50.5086 21.4375 50.5711 21.2375C50.7336 21.3375 50.8961 21.675 50.9086 21.8375C51.0767 21.7239 51.2176 21.5745 51.3211 21.4C51.3211 21.4875 51.3586 21.7625 51.3211 21.9625C51.3836 21.875 51.4461 21.7125 51.4836 21.6375C51.5336 21.7875 51.4961 22.1125 51.4586 22.2875C51.5586 22.1875 51.7086 22.1125 51.8086 22.1125C51.8086 22.35 51.6836 22.7625 51.5461 23.075C50.4211 22.7 48.0961 22.5625 45.7461 22.4125Z" fill="#337321" stroke="black" stroke-width="0.0458307"/>
<path id="Vector_43" d="M49.6328 15.0625C49.6328 14.9625 49.8203 14.725 50.1703 14.725C50.5703 14.725 50.9578 15.1 51.2953 15.0625C51.6203 15.0375 51.4578 15.175 51.3828 15.2C51.3078 15.2375 51.2703 15.2875 51.2953 15.35C51.3203 15.4125 51.2828 15.45 51.1453 15.4C50.8453 15.275 50.5578 15.45 50.1703 15.35C49.8328 15.2625 49.6453 15.225 49.6328 15.0625Z" fill="#F7E017"/>
<path id="Vector_44" d="M46.1094 23.25C45.7594 23.75 45.4094 23.6625 45.3344 23.3375C45.2719 23.0125 45.5219 22.8625 45.4344 22.5875C45.3344 22.3125 45.5844 22.1875 45.6969 22.3125C45.8219 22.4375 46.1969 22.0375 46.3469 22.45C46.5094 22.8625 46.6469 23.1625 46.5469 23.325C46.4594 23.4875 46.1719 23.4125 46.1094 23.2375V23.25ZM47.6094 22.5C47.5344 22.3125 47.8969 21.9625 48.0844 22.2125C48.2719 22.4625 48.5719 21.9375 48.7344 22.3375L49.0219 23.15C49.1094 23.375 48.5844 23.5 48.4219 23.3C48.4469 23.425 47.9719 23.5375 47.8344 23.1625L47.6094 22.4875V22.5ZM50.0219 22.725C49.9344 22.525 50.3594 22.25 50.5844 22.6C50.6469 22.4625 51.0594 22.425 51.0844 22.85L51.1469 23.7C51.1469 23.8625 50.8969 24.0125 50.6969 23.5875C50.3469 23.675 50.1969 23.45 50.1594 23.2125L50.0344 22.7125L50.0219 22.725Z" fill="#F7E017" stroke="black" stroke-width="0.0458307"/>
<path id="Vector_45" d="M46.3335 22.45C46.271 22.3 46.621 22.025 46.8585 22.2375C47.1085 22.45 47.4335 22.0625 47.571 22.425C47.8585 23.1875 47.871 23.2375 47.796 23.3875C47.7085 23.5375 47.3335 23.475 47.2335 23.275C47.221 23.4125 46.896 23.4 46.7335 23.275C46.5335 23.15 46.4085 22.7 46.3335 22.45ZM48.7835 22.475C48.696 22.2625 49.246 22.075 49.4835 22.45C49.6085 22.325 49.871 22.3125 50.021 22.725C50.171 23.125 50.196 23.35 50.0835 23.4625C50.0085 23.5375 49.721 23.5875 49.6335 23.4C49.5085 23.5 49.1085 23.4125 49.021 23.15C48.9335 22.9 48.8585 22.6625 48.771 22.475H48.7835ZM51.096 22.8875C51.0835 22.7 51.3835 22.6 51.4835 22.8875C51.6085 23.175 51.9585 22.9125 51.9835 23.3875C51.9835 23.475 51.946 23.825 51.8335 23.9875C51.721 24.1625 51.1835 23.9875 51.146 23.6375C51.1085 23.275 51.096 23.075 51.096 22.8875V22.8875Z" fill="#337321" stroke="black" stroke-width="0.0458307"/>
<path id="Vector_46" d="M51.4965 22.8875C51.534 22.9875 51.559 23.1 51.559 23.2625M46.109 23.25C45.984 23.0375 45.7965 22.7 45.584 23.0625L46.109 23.25ZM47.2465 23.275C47.1535 23.132 47.0819 22.9762 47.034 22.8125L47.2465 23.275ZM48.4215 23.3C48.3069 23.2033 48.2133 23.0842 48.1465 22.95L48.4215 23.3ZM48.309 22.575C48.5215 22.6 48.659 22.825 48.7215 22.9375C48.784 23.0375 48.9215 23.225 49.0215 23.25L48.309 22.575ZM49.634 23.4125C49.559 23.275 49.4965 23.1625 49.484 23.0625L49.634 23.4125ZM49.484 22.45C49.559 22.575 49.609 22.6625 49.6465 22.775L49.484 22.45ZM50.6965 23.5875C50.6184 23.3972 50.4884 23.2327 50.3215 23.1125L50.6965 23.5875ZM50.6465 22.825C50.659 23.2375 51.1215 23.2625 51.1465 23.55L50.6465 22.825Z" stroke="black" stroke-width="0.0458307"/>
<path id="Vector_47" d="M0.246094 0H32.2461V32H0.246094V0Z" fill="#012169"/>
<path id="Vector_48" d="M32.2461 0V4L20.3711 16L32.2461 27.6875V32H28.0586L16.1211 20.25L4.49609 32H0.246094V27.75L11.8711 16.0625L0.246094 4.625V0H4.12109L16.1211 11.75L27.7461 0H32.2461Z" fill="#F5F5F5"/>
<path id="Vector_49" d="M11.7461 20.25L12.4336 22.375L2.87109 32H0.246094V31.8125L11.7461 20.25ZM19.4961 19.5L22.8711 20L32.2461 29.1875V32L19.4961 19.5ZM32.2461 0L20.2461 12.25L19.9961 9.5L29.3711 0H32.2461ZM0.246094 0.0625L12.3086 11.875L8.62109 11.375L0.246094 3.0625V0.0625Z" fill="#C8102E"/>
<path id="Vector_50" d="M11.2461 0V32H21.2461V0H11.2461ZM0.246094 11V21H32.2461V11H0.246094Z" fill="#F5F5F5"/>
<path id="Vector_51" d="M0.246094 13V19H32.2461V13H0.246094ZM13.2461 0V32H19.2461V0H13.2461Z" fill="#C8102E"/>
</g>
</g>
<defs>
<clipPath id="clip0_2909_185382">
<path d="M0.246094 32C0.246094 14.3269 14.573 0 32.2461 0V0C49.9192 0 64.2461 14.3269 64.2461 32V32C64.2461 49.6731 49.9192 64 32.2461 64V64C14.573 64 0.246094 49.6731 0.246094 32V32Z" fill="white"/>
</clipPath>
</defs>
</svg>
