<svg width="65" height="64" viewBox="0 0 65 64" fill="none" xmlns="http://www.w3.org/2000/svg">
<g id="Rounded=Portugal (PT)">
<g clip-path="url(#clip0_2909_185311)">
<path id="Vector" d="M25.8465 0H64.2465V64H25.834L25.8465 0Z" fill="#FF0000"/>
<path id="Vector_2" d="M0.246875 0H25.8469V64H0.234375L0.246875 0Z" fill="#006600"/>
<g id="Group">
<path id="Vector_3" fill-rule="evenodd" clip-rule="evenodd" d="M36.9707 40.825C32.6707 40.7 12.9707 28.4 12.8457 26.4375L13.9207 24.625C15.8707 27.4625 36.0207 39.425 37.9957 39L36.9707 40.825Z" fill="#FFFF00" stroke="black" stroke-width="0.0875" stroke-linecap="round" stroke-linejoin="round"/>
<path id="Vector_4" fill-rule="evenodd" clip-rule="evenodd" d="M13.6947 24.375C13.3072 25.4125 18.8322 28.825 25.4822 32.875C32.1322 36.9125 37.8572 39.4125 38.2947 39.0625L38.4822 38.7C38.4072 38.825 38.2072 38.8625 37.9072 38.775C36.1072 38.25 31.4197 36.1 25.6197 32.5875C19.8197 29.075 14.7697 25.825 13.9947 24.45C13.9309 24.3222 13.9007 24.1802 13.9072 24.0375H13.8822L13.7197 24.325L13.6947 24.375V24.375ZM37.0697 40.875C36.9947 41.0125 36.8572 41.0125 36.6072 41C34.9947 40.8125 30.1072 38.4375 24.3572 34.9875C17.6322 30.9625 12.0822 27.3 12.6947 26.35L12.8572 26.05L12.8822 26.0625C12.3447 27.6875 23.8322 34.25 24.5072 34.675C31.1447 38.8 36.7572 41.2 37.2572 40.575L37.0697 40.875V40.875Z" fill="#FFFF00" stroke="black" stroke-width="0.0875" stroke-linecap="round" stroke-linejoin="round"/>
<path id="Vector_5" fill-rule="evenodd" clip-rule="evenodd" d="M25.8695 27.625C30.157 27.5875 35.4695 27.0375 38.5195 25.825L37.8695 24.75C36.057 25.75 30.732 26.4125 25.832 26.5C20.032 26.45 15.9445 25.9125 13.8945 24.5375L13.2695 25.675C17.0445 27.2625 20.8945 27.6125 25.8695 27.625Z" fill="#FFFF00" stroke="black" stroke-width="0.0875" stroke-linecap="round" stroke-linejoin="round"/>
<g id="Vector_6">
<path fill-rule="evenodd" clip-rule="evenodd" d="M38.7074 25.85C38.5949 26.0125 36.6074 26.7 33.6699 27.2C31.0798 27.5885 28.464 27.7807 25.8449 27.775C23.3371 27.7862 20.8313 27.6275 18.3449 27.3C15.2824 26.8125 13.6824 26.1375 13.0949 25.9L13.2449 25.6125C14.9072 26.2677 16.6395 26.729 18.4074 26.9875C20.8732 27.31 23.3581 27.4646 25.8449 27.45C28.4431 27.4517 31.0378 27.2595 33.6074 26.875C36.6074 26.3875 38.2574 25.7625 38.4824 25.475L38.7074 25.85ZM38.1199 24.75C37.7949 25 36.1699 25.5875 33.3199 26.0375C30.8566 26.3911 28.371 26.5666 25.8824 26.5625C23.4828 26.5807 21.0849 26.4261 18.7074 26.1C15.7949 25.725 14.2574 25.0375 13.7074 24.8375L13.8699 24.55C14.2949 24.775 15.7949 25.375 18.7449 25.8C21.1115 26.1067 23.4961 26.2529 25.8824 26.2375C28.3502 26.2409 30.815 26.0654 33.2574 25.7125C36.1324 25.3125 37.6824 24.5875 37.9199 24.4L38.1199 24.75V24.75ZM11.7449 32.8C14.3949 34.225 20.2574 34.95 25.8199 35C30.8824 35 37.4824 34.2125 39.9449 32.9L39.8699 31.475C39.1074 32.6875 32.0449 33.85 25.7699 33.8C19.4949 33.75 13.6699 32.775 11.7324 31.525V32.8" fill="#FFFF00"/>
<path d="M11.7449 32.8C14.3949 34.225 20.2574 34.95 25.8199 35C30.8824 35 37.4824 34.2125 39.9449 32.9L39.8699 31.475C39.1074 32.6875 32.0449 33.85 25.7699 33.8C19.4949 33.75 13.6699 32.775 11.7324 31.525V32.8M38.7074 25.85C38.5949 26.0125 36.6074 26.7 33.6699 27.2C31.0798 27.5885 28.464 27.7807 25.8449 27.775C23.3371 27.7862 20.8313 27.6275 18.3449 27.3C15.2824 26.8125 13.6824 26.1375 13.0949 25.9L13.2449 25.6125C14.9072 26.2677 16.6395 26.729 18.4074 26.9875C20.8732 27.31 23.3581 27.4646 25.8449 27.45C28.4431 27.4517 31.0378 27.2595 33.6074 26.875C36.6074 26.3875 38.2574 25.7625 38.4824 25.475L38.7074 25.85ZM38.1199 24.75C37.7949 25 36.1699 25.5875 33.3199 26.0375C30.8566 26.3911 28.371 26.5666 25.8824 26.5625C23.4828 26.5807 21.0849 26.4261 18.7074 26.1C15.7949 25.725 14.2574 25.0375 13.7074 24.8375L13.8699 24.55C14.2949 24.775 15.7949 25.375 18.7449 25.8C21.1115 26.1067 23.4961 26.2529 25.8824 26.2375C28.3502 26.2409 30.815 26.0654 33.2574 25.7125C36.1324 25.3125 37.6824 24.5875 37.9199 24.4L38.1199 24.75V24.75Z" stroke="black" stroke-width="0.0875" stroke-linecap="round" stroke-linejoin="round"/>
</g>
<g id="Vector_7">
<path fill-rule="evenodd" clip-rule="evenodd" d="M40.0828 32.6V32.9375C39.7078 33.3875 37.3828 34.0625 34.4703 34.525C31.5854 34.9441 28.6729 35.1446 25.7578 35.125C22.3328 35.125 19.6078 34.875 17.4828 34.55C15.4439 34.3183 13.4511 33.7832 11.5703 32.9625V32.5625C12.8703 33.425 16.3578 34.05 17.5328 34.2375C19.6328 34.5625 22.3453 34.8 25.7578 34.8C29.3453 34.8 32.2203 34.55 34.4203 34.2125C36.5203 33.9125 39.4953 33.125 40.0828 32.6V32.6ZM40.0828 31.3875V31.7375C39.7078 32.175 37.3828 32.85 34.4703 33.3125C31.5854 33.7316 28.6729 33.9321 25.7578 33.9125C22.3328 33.9125 19.6078 33.6625 17.4953 33.35C15.4516 33.1151 13.4545 32.5758 11.5703 31.75V31.35C12.8703 32.2125 16.3578 32.85 17.5328 33.025C19.6453 33.35 22.3578 33.6 25.7578 33.6C29.3453 33.6 32.2203 33.35 34.4203 33C36.5203 32.7 39.4953 31.9125 40.0828 31.3875V31.3875ZM25.8078 40.575C19.7328 40.5375 14.5203 38.925 13.4203 38.65L14.2203 39.9C16.1578 40.725 21.2453 41.95 25.8703 41.8125C30.4953 41.675 34.5328 41.3125 37.3703 39.9375L38.1953 38.625C36.2578 39.5375 29.6578 40.575 25.8203 40.575" fill="#FFFF00"/>
<path d="M25.8078 40.575C19.7328 40.5375 14.5203 38.925 13.4203 38.65L14.2203 39.9C16.1578 40.725 21.2453 41.95 25.8703 41.8125C30.4953 41.675 34.5328 41.3125 37.3703 39.9375L38.1953 38.625C36.2578 39.5375 29.6578 40.575 25.8203 40.575M40.0828 32.6V32.9375C39.7078 33.3875 37.3828 34.0625 34.4703 34.525C31.5854 34.9441 28.6729 35.1446 25.7578 35.125C22.3328 35.125 19.6078 34.875 17.4828 34.55C15.4439 34.3183 13.4511 33.7832 11.5703 32.9625V32.5625C12.8703 33.425 16.3578 34.05 17.5328 34.2375C19.6328 34.5625 22.3453 34.8 25.7578 34.8C29.3453 34.8 32.2203 34.55 34.4203 34.2125C36.5203 33.9125 39.4953 33.125 40.0828 32.6V32.6ZM40.0828 31.3875V31.7375C39.7078 32.175 37.3828 32.85 34.4703 33.3125C31.5854 33.7316 28.6729 33.9321 25.7578 33.9125C22.3328 33.9125 19.6078 33.6625 17.4953 33.35C15.4516 33.1151 13.4545 32.5758 11.5703 31.75V31.35C12.8703 32.2125 16.3578 32.85 17.5328 33.025C19.6453 33.35 22.3578 33.6 25.7578 33.6C29.3453 33.6 32.2203 33.35 34.4203 33C36.5203 32.7 39.4953 31.9125 40.0828 31.3875V31.3875Z" stroke="black" stroke-width="0.0875" stroke-linecap="round" stroke-linejoin="round"/>
</g>
<path id="Vector_8" fill-rule="evenodd" clip-rule="evenodd" d="M37.6824 39.6375C37.5606 39.823 37.4356 40.0064 37.3074 40.1875C35.889 40.658 34.4397 41.0298 32.9699 41.3C30.6114 41.7339 28.2181 41.9515 25.8199 41.95C20.4324 41.875 16.0199 40.825 13.9449 39.925L13.7699 39.6375L13.8074 39.5875L14.0824 39.7C17.8777 40.9576 21.8468 41.6114 25.8449 41.6375C28.3449 41.65 30.8449 41.35 32.8574 41C35.9574 40.375 37.2074 39.9125 37.5949 39.7L37.6824 39.6375V39.6375ZM38.3949 38.4625H38.4074C38.3169 38.6215 38.2252 38.7798 38.1324 38.9375C37.4199 39.1875 35.4699 39.7625 32.6324 40.1625C30.7574 40.4125 29.5949 40.6625 25.8824 40.7375C21.6287 40.6916 17.4016 40.0607 13.3199 38.8625L13.1699 38.55C17.3158 39.6878 21.5846 40.3174 25.8824 40.425C29.2824 40.35 30.7324 40.1 32.5824 39.8375C35.8949 39.3375 37.5574 38.7875 38.0574 38.625C38.0536 38.6165 38.0494 38.6082 38.0449 38.6L38.3949 38.4625V38.4625Z" fill="#FFFF00" stroke="black" stroke-width="0.075" stroke-linecap="round" stroke-linejoin="round"/>
<g id="Vector_9">
<path fill-rule="evenodd" clip-rule="evenodd" d="M38.4707 31.675C38.4957 35.675 36.4457 39.275 34.7957 40.8625C32.372 43.2198 29.1388 44.5613 25.7582 44.6125C21.7207 44.6875 17.9207 42.05 16.8957 40.9C14.8957 38.6375 13.2707 35.775 13.2207 31.9C13.4707 27.525 15.1832 24.4875 17.6707 22.4C20.0777 20.4201 23.1041 19.3494 26.2207 19.375C29.3957 19.4625 33.1207 21.025 35.6832 24.125C37.3582 26.15 38.0957 28.35 38.4707 31.6875V31.675ZM25.7957 17.975C33.5457 17.975 39.9207 24.2875 39.9207 32.0125C39.8976 35.7435 38.3992 39.3138 35.7528 41.9439C33.1063 44.5739 29.5268 46.0501 25.7957 46.05C18.0457 46.05 11.7207 39.75 11.7207 32.0125C11.7207 24.275 18.0457 17.975 25.7957 17.975" fill="#FFFF00"/>
<path d="M25.7957 17.975C33.5457 17.975 39.9207 24.2875 39.9207 32.0125C39.8976 35.7435 38.3992 39.3138 35.7528 41.9439C33.1063 44.5739 29.5268 46.0501 25.7957 46.05C18.0457 46.05 11.7207 39.75 11.7207 32.0125C11.7207 24.275 18.0457 17.975 25.7957 17.975M38.4707 31.675C38.4957 35.675 36.4457 39.275 34.7957 40.8625C32.372 43.2198 29.1388 44.5613 25.7582 44.6125C21.7207 44.6875 17.9207 42.05 16.8957 40.9C14.8957 38.6375 13.2707 35.775 13.2207 31.9C13.4707 27.525 15.1832 24.4875 17.6707 22.4C20.0777 20.4201 23.1041 19.3494 26.2207 19.375C29.3957 19.4625 33.1207 21.025 35.6832 24.125C37.3582 26.15 38.0957 28.35 38.4707 31.6875V31.675Z" stroke="black" stroke-width="0.0875" stroke-linecap="round" stroke-linejoin="round"/>
</g>
<path id="Vector_10" fill-rule="evenodd" clip-rule="evenodd" d="M25.8336 17.925C33.5836 17.925 39.9086 24.2625 39.9086 32.0125C39.9086 39.7625 33.5836 46.1 25.8336 46.1C22.0982 46.0901 18.5189 44.601 15.8788 41.9585C13.2386 39.316 11.7527 35.7354 11.7461 32C11.756 28.2668 13.2434 24.6893 15.8832 22.0496C18.5229 19.4098 22.1004 17.9224 25.8336 17.9125V17.925ZM12.0586 32.0125C12.0586 39.5875 18.2836 45.7875 25.8336 45.7875C33.3836 45.7875 39.5961 39.5875 39.5961 32.0125C39.5961 24.4375 33.3836 18.25 25.8336 18.25C22.1864 18.2632 18.6922 19.717 16.1121 22.2947C13.532 24.8725 12.0751 28.3654 12.0586 32.0125V32.0125Z" fill="#FFFF00" stroke="black" stroke-width="0.0875" stroke-linecap="round" stroke-linejoin="round"/>
<path id="Vector_11" fill-rule="evenodd" clip-rule="evenodd" d="M25.8461 19.1C32.9086 19.1 38.7336 24.9125 38.7336 32C38.7336 39.1 32.9086 44.9 25.8461 44.9C22.4267 44.8901 19.15 43.5282 16.7309 41.1115C14.3118 38.6948 12.9468 35.4194 12.9336 32C12.9336 24.9125 18.7586 19.1 25.8336 19.1H25.8461ZM13.2461 32C13.2461 38.925 18.9336 44.5875 25.8461 44.5875C32.7461 44.5875 38.4336 38.925 38.4336 32C38.4336 25.075 32.7461 19.4125 25.8336 19.4125C18.9211 19.4125 13.2461 25.075 13.2461 32Z" fill="#FFFF00" stroke="black" stroke-width="0.0875" stroke-linecap="round" stroke-linejoin="round"/>
<path id="Vector_12" fill-rule="evenodd" clip-rule="evenodd" d="M26.4078 17.875H25.1953V46.175H26.4078V17.875Z" fill="#FFFF00" stroke="black" stroke-width="0.0875" stroke-linecap="round" stroke-linejoin="round"/>
<path id="Vector_13" fill-rule="evenodd" clip-rule="evenodd" d="M26.282 17.7125H26.5945V46.3375H26.282V17.7125ZM25.082 17.7125H25.3945V46.3375H25.082V17.7125Z" fill="#FFFF00" stroke="black" stroke-width="0.0875" stroke-linecap="round" stroke-linejoin="round"/>
<path id="Vector_14" fill-rule="evenodd" clip-rule="evenodd" d="M39.9203 32.5625V31.5L39.0703 30.7125L34.2328 29.425L27.2578 28.7125L18.8828 29.1375L12.8953 30.5625L11.6953 31.4625V32.5L14.7453 31.125L21.9953 30H28.9703L34.0953 30.5625L37.6453 31.425L39.9203 32.5625Z" fill="#FFFF00" stroke="black" stroke-width="0.0875" stroke-linecap="round" stroke-linejoin="round"/>
<path id="Vector_15" fill-rule="evenodd" clip-rule="evenodd" d="M25.8328 29.8375C28.8889 29.825 31.9396 30.097 34.9453 30.65C37.5828 31.175 39.4453 31.8375 40.0703 32.575V32.95C39.3203 32.025 36.8203 31.35 34.8828 30.95C32.3453 30.4625 29.1328 30.15 25.8328 30.15C22.3328 30.15 19.0828 30.4875 16.5828 30.975C14.5828 31.375 11.9078 32.1625 11.5703 32.95V32.575C11.7578 32.025 13.7453 31.2125 16.5453 30.65C19.6096 30.0941 22.7186 29.8221 25.8328 29.8375V29.8375ZM25.8328 28.625C28.8931 28.6132 31.9478 28.8852 34.9578 29.4375C37.5828 29.9625 39.4578 30.625 40.0828 31.375V31.7375C39.3203 30.8125 36.8078 30.1375 34.8828 29.75C32.3453 29.25 29.1328 28.9375 25.8328 28.9375C22.739 28.9279 19.6509 29.2041 16.6078 29.7625C14.6703 30.1375 11.8828 30.9625 11.5703 31.7375V31.3625C11.7578 30.825 13.7953 29.9875 16.5453 29.45C19.6092 28.8899 22.7182 28.6137 25.8328 28.625V28.625ZM25.7703 22.4625C31.0078 22.4375 35.5828 23.2 37.6703 24.275L38.4328 25.5875C36.6203 24.6125 31.6828 23.5875 25.7703 23.75C20.9578 23.775 15.8203 24.275 13.2328 25.65L14.1453 24.125C16.2703 23.025 21.2703 22.475 25.7703 22.4625Z" fill="#FFFF00" stroke="black" stroke-width="0.0875" stroke-linecap="round" stroke-linejoin="round"/>
<g id="Vector_16">
<path fill-rule="evenodd" clip-rule="evenodd" d="M25.832 23.55C28.832 23.55 31.707 23.7125 34.007 24.125C36.1445 24.525 38.1945 25.125 38.482 25.45L38.707 25.85C37.9945 25.3875 36.232 24.8625 33.957 24.4375C31.2707 24.0096 28.5517 23.8214 25.832 23.875C22.457 23.875 19.832 24.0375 17.582 24.4375C15.207 24.875 13.557 25.5125 13.1445 25.8125L13.3695 25.4C14.157 24.9875 15.4195 24.5 17.532 24.125C19.857 23.7 22.4945 23.575 25.832 23.55V23.55ZM25.832 22.35C28.4721 22.3085 31.1108 22.4925 33.7195 22.9C35.457 23.2375 37.1695 23.7625 37.807 24.225L38.132 24.75C37.5695 24.125 35.457 23.5375 33.582 23.2125C31.407 22.8375 28.6945 22.6875 25.832 22.6625C22.832 22.6625 20.057 22.85 17.907 23.2375C15.857 23.6375 14.532 24.1 13.9695 24.4625L14.257 24.0125C15.032 23.6125 16.282 23.2375 17.857 22.925C20.0195 22.5375 22.8195 22.35 25.832 22.35V22.35ZM32.832 37.8625C30.5209 37.464 28.1768 37.2882 25.832 37.3375C17.0945 37.4375 14.282 39.125 13.932 39.6375L13.282 38.575C15.4945 36.9625 20.2445 36.0625 25.8695 36.15C28.782 36.2 31.2945 36.4 33.4195 36.8L32.8195 37.8625" fill="#FFFF00"/>
<path d="M32.832 37.8625C30.5209 37.464 28.1768 37.2882 25.832 37.3375C17.0945 37.4375 14.282 39.125 13.932 39.6375L13.282 38.575C15.4945 36.9625 20.2445 36.0625 25.8695 36.15C28.782 36.2 31.2945 36.4 33.4195 36.8L32.8195 37.8625M25.832 23.55C28.832 23.55 31.707 23.7125 34.007 24.125C36.1445 24.525 38.1945 25.125 38.482 25.45L38.707 25.85C37.9945 25.3875 36.232 24.8625 33.957 24.4375C31.2707 24.0096 28.5517 23.8214 25.832 23.875C22.457 23.875 19.832 24.0375 17.582 24.4375C15.207 24.875 13.557 25.5125 13.1445 25.8125L13.3695 25.4C14.157 24.9875 15.4195 24.5 17.532 24.125C19.857 23.7 22.4945 23.575 25.832 23.55V23.55ZM25.832 22.35C28.4721 22.3085 31.1108 22.4925 33.7195 22.9C35.457 23.2375 37.1695 23.7625 37.807 24.225L38.132 24.75C37.5695 24.125 35.457 23.5375 33.582 23.2125C31.407 22.8375 28.6945 22.6875 25.832 22.6625C22.832 22.6625 20.057 22.85 17.907 23.2375C15.857 23.6375 14.532 24.1 13.9695 24.4625L14.257 24.0125C15.032 23.6125 16.282 23.2375 17.857 22.925C20.0195 22.5375 22.8195 22.35 25.832 22.35V22.35Z" stroke="black" stroke-width="0.0875" stroke-linecap="round" stroke-linejoin="round"/>
</g>
<path id="Vector_17" fill-rule="evenodd" clip-rule="evenodd" d="M25.7832 37.1875C28.2082 37.225 30.5957 37.3125 32.9082 37.75L32.7332 38.05C30.4426 37.6545 28.1199 37.4745 25.7957 37.5125C22.5707 37.4875 19.2957 37.7875 16.4707 38.6C15.5707 38.85 14.0957 39.425 13.9332 39.9L13.7707 39.625C13.8207 39.35 14.7207 38.7625 16.3957 38.3C19.6457 37.3625 22.6832 37.2125 25.7707 37.175L25.7832 37.1875ZM25.8957 35.9625C28.456 35.9601 31.0116 36.1817 33.5332 36.625L33.3582 36.9375C30.9007 36.4879 28.4064 36.2703 25.9082 36.2875C22.6707 36.2875 19.2457 36.525 16.1207 37.425C15.1207 37.725 13.3707 38.35 13.3207 38.85L13.1582 38.5625C13.1957 38.1125 14.6957 37.5125 16.0582 37.1125C19.2678 36.273 22.579 35.8859 25.8957 35.9625V35.9625Z" fill="#FFFF00" stroke="black" stroke-width="0.075" stroke-linecap="round" stroke-linejoin="round"/>
<path id="Vector_18" fill-rule="evenodd" clip-rule="evenodd" d="M38.2953 38.7375L37.2453 40.3625L34.2328 37.6875L26.4078 32.4375L17.5953 27.5875L13.0078 26.025L13.9828 24.2125L14.3203 24.0375L17.1703 24.75L26.5453 29.5875L31.9578 33L36.4953 36.25L38.3453 38.3875L38.2953 38.7375Z" fill="#FFFF00" stroke="black" stroke-width="0.0875" stroke-linecap="round" stroke-linejoin="round"/>
<path id="Vector_19" fill-rule="evenodd" clip-rule="evenodd" d="M12.8449 26.0625C13.6574 25.525 19.5574 28.15 25.7199 31.875C31.8824 35.6125 37.7699 39.825 37.2449 40.625L37.0699 40.8875L36.9824 40.95C37.0074 40.95 37.0949 40.825 36.9824 40.5375C36.7074 39.675 32.5449 36.35 25.6074 32.1625C18.8574 28.1375 13.2324 25.7125 12.6699 26.4125L12.8449 26.0625V26.0625ZM38.5074 38.7125C39.0074 37.7125 33.5449 33.5875 26.7574 29.575C19.8199 25.6375 14.8074 23.325 13.8949 24.0125L13.6949 24.3875C13.6949 24.4 13.6949 24.3625 13.7449 24.325C13.9074 24.1875 14.1824 24.2 14.3074 24.2C15.8824 24.2125 20.3824 26.275 26.6824 29.9C29.4449 31.5 38.3574 37.225 38.3199 38.825C38.3199 38.9625 38.3324 38.9875 38.2824 39.0625L38.5074 38.7125Z" fill="#FFFF00" stroke="black" stroke-width="0.0875" stroke-linecap="round" stroke-linejoin="round"/>
</g>
<g id="Group_2">
<path id="Vector_20" d="M17.3945 33.5589C17.3966 34.663 17.6177 35.7556 18.0449 36.7736C18.4721 37.7916 19.097 38.7147 19.8834 39.4896C20.6602 40.2784 21.5854 40.9056 22.6057 41.3352C23.626 41.7648 24.7213 41.9883 25.8283 41.9927C28.0688 41.9926 30.2175 41.1024 31.8017 39.5181C32.5853 38.7389 33.2073 37.8126 33.632 36.7925C34.0566 35.7723 34.2756 34.6782 34.2763 33.5732V22.3091L17.3945 22.2807V33.5589V33.5589Z" fill="#F5F5F5" stroke="black" stroke-width="0.0995558"/>
<path id="Vector_21" d="M17.707 33.5732C17.71 34.6322 17.9227 35.6801 18.3328 36.6566C18.7429 37.633 19.3423 38.5185 20.0964 39.2621C21.6106 40.7842 23.6667 41.6435 25.8137 41.6514C27.9569 41.6526 30.0131 40.8035 31.5311 39.2905C32.2826 38.5458 32.8793 37.6597 33.287 36.6833C33.6946 35.707 33.905 34.6596 33.9062 33.6016V22.6505H17.7355V33.5732H17.707ZM30.6777 25.9358V32.8905L30.6635 33.6158C30.6683 34.2512 30.5448 34.881 30.3004 35.4675C30.056 36.054 29.6958 36.5852 29.2413 37.0292C28.3369 37.9367 27.1092 38.4483 25.8279 38.4514C24.491 38.4514 23.3106 37.8825 22.4288 37.0007C21.5213 36.0963 21.0097 34.8687 21.0066 33.5874V25.9074L30.6777 25.9358Z" fill="#FF0000" stroke="black" stroke-width="0.0711113"/>
<g id="e">
<g id="d">
<path id="Vector_22" d="M18.7598 25.5091C18.774 24.7269 19.3287 24.542 19.3287 24.542C19.3429 24.542 19.9402 24.7411 19.9402 25.5234H18.7598" fill="#FFFF00"/>
<path id="Vector_23" d="M18.2764 24.5562L18.1768 25.4522H18.7742C18.7742 24.7127 19.3431 24.5989 19.3431 24.5989C19.3573 24.5989 19.9119 24.7554 19.9262 25.4522H20.5235L20.4097 24.542H18.2764V24.5562ZM18.1342 25.4665H20.5519C20.5946 25.4665 20.6373 25.5091 20.6373 25.566C20.6373 25.6371 20.5946 25.6798 20.5519 25.6798H18.1342C18.0915 25.6798 18.0488 25.6371 18.0488 25.566C18.0488 25.5091 18.0915 25.4665 18.1484 25.4665H18.1342Z" fill="#FFFF00" stroke="black" stroke-width="0.0711113"/>
<g id="Vector_24">
<path d="M19.0157 25.4522C19.0157 24.9829 19.3428 24.8549 19.3428 24.8549C19.3428 24.8549 19.6699 24.9971 19.6699 25.4522H19.0157ZM18.1908 24.1722H20.509C20.5517 24.1722 20.5944 24.2291 20.5944 24.286C20.5944 24.3287 20.5517 24.3714 20.509 24.3714H18.1908C18.1481 24.3714 18.1055 24.3287 18.1055 24.2718C18.1055 24.2291 18.1481 24.1865 18.1908 24.1865V24.1722ZM18.2477 24.3856H20.4379C20.4806 24.3856 20.5233 24.4282 20.5233 24.4851C20.5233 24.542 20.4806 24.5847 20.4379 24.5847H18.2335C18.1766 24.5847 18.1481 24.542 18.1481 24.4851C18.1481 24.4282 18.1766 24.3856 18.2335 24.3856H18.2477ZM18.9588 22.878H19.1295V22.9918H19.2575V22.878H19.4424V23.006H19.5704V22.8638H19.741V23.1482C19.741 23.2051 19.7126 23.2336 19.6699 23.2336H19.0441C19.0015 23.2336 18.9588 23.2051 18.9588 23.1625V22.878ZM19.613 23.262L19.6557 24.1722H19.0441L19.0868 23.2478H19.613" fill="#FFFF00"/>
<path d="M19.613 23.262L19.6557 24.1722H19.0441L19.0868 23.2478H19.613M19.0157 25.4522C19.0157 24.9829 19.3428 24.8549 19.3428 24.8549C19.3428 24.8549 19.6699 24.9971 19.6699 25.4522H19.0157ZM18.1908 24.1722H20.509C20.5517 24.1722 20.5944 24.2291 20.5944 24.286C20.5944 24.3287 20.5517 24.3714 20.509 24.3714H18.1908C18.1481 24.3714 18.1055 24.3287 18.1055 24.2718C18.1055 24.2291 18.1481 24.1865 18.1908 24.1865V24.1722ZM18.2477 24.3856H20.4379C20.4806 24.3856 20.5233 24.4282 20.5233 24.4851C20.5233 24.542 20.4806 24.5847 20.4379 24.5847H18.2335C18.1766 24.5847 18.1481 24.542 18.1481 24.4851C18.1481 24.4282 18.1766 24.3856 18.2335 24.3856H18.2477ZM18.9588 22.878H19.1295V22.9918H19.2575V22.878H19.4424V23.006H19.5704V22.8638H19.741V23.1482C19.741 23.2051 19.7126 23.2336 19.6699 23.2336H19.0441C19.0015 23.2336 18.9588 23.2051 18.9588 23.1625V22.878Z" stroke="black" stroke-width="0.0711113"/>
</g>
<path id="a" d="M18.8736 23.6887V24.1722H18.3047V23.6887H18.8736Z" fill="#FFFF00" stroke="black" stroke-width="0.0711113"/>
<path id="Vector_25" d="M18.8736 23.6887V24.1722H18.3047V23.6887H18.8736Z" fill="#FFFF00" stroke="black" stroke-width="0.0711113"/>
<path id="b" d="M18.2051 23.3189H18.3757V23.4611H18.5037V23.3189H18.6744V23.4611H18.8024V23.3189H18.9731V23.6034C18.9731 23.6602 18.9446 23.6887 18.902 23.6887H18.2904C18.2678 23.6887 18.2461 23.6797 18.2301 23.6637C18.2141 23.6477 18.2051 23.626 18.2051 23.6034V23.3189V23.3189Z" fill="#FFFF00" stroke="black" stroke-width="0.0711113"/>
<path id="Vector_26" d="M18.2051 23.3189H18.3757V23.4611H18.5037V23.3189H18.6744V23.4611H18.8024V23.3189H18.9731V23.6034C18.9731 23.6602 18.9446 23.6887 18.902 23.6887H18.2904C18.2678 23.6887 18.2461 23.6797 18.2301 23.6637C18.2141 23.6477 18.2051 23.626 18.2051 23.6034V23.3189V23.3189Z" fill="#FFFF00" stroke="black" stroke-width="0.0711113"/>
<path id="Vector_27" d="M19.2871 23.5465C19.2871 23.4611 19.4151 23.4611 19.4151 23.5465V23.774H19.2871V23.5465Z" fill="black"/>
<path id="c" d="M18.5332 23.8593C18.5332 23.774 18.647 23.774 18.647 23.8593V24.03H18.5332V23.8593Z" fill="black"/>
<path id="Vector_28" d="M18.5332 23.8593C18.5332 23.774 18.647 23.774 18.647 23.8593V24.03H18.5332V23.8593Z" fill="black"/>
</g>
<g id="Group_3">
<path id="Vector_29" d="M18.7598 25.5091C18.774 24.7269 19.3287 24.542 19.3287 24.542C19.3429 24.542 19.9402 24.7411 19.9402 25.5234H18.7598" fill="#FFFF00"/>
<path id="Vector_30" d="M18.2764 24.5562L18.1768 25.4522H18.7742C18.7742 24.7127 19.3431 24.5989 19.3431 24.5989C19.3573 24.5989 19.9119 24.7554 19.9262 25.4522H20.5235L20.4097 24.542H18.2764V24.5562ZM18.1342 25.4665H20.5519C20.5946 25.4665 20.6373 25.5091 20.6373 25.566C20.6373 25.6371 20.5946 25.6798 20.5519 25.6798H18.1342C18.0915 25.6798 18.0488 25.6371 18.0488 25.566C18.0488 25.5091 18.0915 25.4665 18.1484 25.4665H18.1342Z" fill="#FFFF00" stroke="black" stroke-width="0.0711113"/>
<g id="Vector_31">
<path d="M19.0157 25.4522C19.0157 24.9829 19.3428 24.8549 19.3428 24.8549C19.3428 24.8549 19.6699 24.9971 19.6699 25.4522H19.0157ZM18.1908 24.1722H20.509C20.5517 24.1722 20.5944 24.2291 20.5944 24.286C20.5944 24.3287 20.5517 24.3714 20.509 24.3714H18.1908C18.1481 24.3714 18.1055 24.3287 18.1055 24.2718C18.1055 24.2291 18.1481 24.1865 18.1908 24.1865V24.1722ZM18.2477 24.3856H20.4379C20.4806 24.3856 20.5233 24.4282 20.5233 24.4851C20.5233 24.542 20.4806 24.5847 20.4379 24.5847H18.2335C18.1766 24.5847 18.1481 24.542 18.1481 24.4851C18.1481 24.4282 18.1766 24.3856 18.2335 24.3856H18.2477ZM18.9588 22.878H19.1295V22.9918H19.2575V22.878H19.4424V23.006H19.5704V22.8638H19.741V23.1482C19.741 23.2051 19.7126 23.2336 19.6699 23.2336H19.0441C19.0015 23.2336 18.9588 23.2051 18.9588 23.1625V22.878ZM19.613 23.262L19.6557 24.1722H19.0441L19.0868 23.2478H19.613" fill="#FFFF00"/>
<path d="M19.613 23.262L19.6557 24.1722H19.0441L19.0868 23.2478H19.613M19.0157 25.4522C19.0157 24.9829 19.3428 24.8549 19.3428 24.8549C19.3428 24.8549 19.6699 24.9971 19.6699 25.4522H19.0157ZM18.1908 24.1722H20.509C20.5517 24.1722 20.5944 24.2291 20.5944 24.286C20.5944 24.3287 20.5517 24.3714 20.509 24.3714H18.1908C18.1481 24.3714 18.1055 24.3287 18.1055 24.2718C18.1055 24.2291 18.1481 24.1865 18.1908 24.1865V24.1722ZM18.2477 24.3856H20.4379C20.4806 24.3856 20.5233 24.4282 20.5233 24.4851C20.5233 24.542 20.4806 24.5847 20.4379 24.5847H18.2335C18.1766 24.5847 18.1481 24.542 18.1481 24.4851C18.1481 24.4282 18.1766 24.3856 18.2335 24.3856H18.2477ZM18.9588 22.878H19.1295V22.9918H19.2575V22.878H19.4424V23.006H19.5704V22.8638H19.741V23.1482C19.741 23.2051 19.7126 23.2336 19.6699 23.2336H19.0441C19.0015 23.2336 18.9588 23.2051 18.9588 23.1625V22.878Z" stroke="black" stroke-width="0.0711113"/>
</g>
<path id="a_2" d="M18.8736 23.6887V24.1722H18.3047V23.6887H18.8736Z" fill="#FFFF00" stroke="black" stroke-width="0.0711113"/>
<path id="Vector_32" d="M18.8736 23.6887V24.1722H18.3047V23.6887H18.8736Z" fill="#FFFF00" stroke="black" stroke-width="0.0711113"/>
<path id="b_2" d="M18.2051 23.3189H18.3757V23.4611H18.5037V23.3189H18.6744V23.4611H18.8024V23.3189H18.9731V23.6034C18.9731 23.6602 18.9446 23.6887 18.902 23.6887H18.2904C18.2678 23.6887 18.2461 23.6797 18.2301 23.6637C18.2141 23.6477 18.2051 23.626 18.2051 23.6034V23.3189V23.3189Z" fill="#FFFF00" stroke="black" stroke-width="0.0711113"/>
<path id="Vector_33" d="M18.2051 23.3189H18.3757V23.4611H18.5037V23.3189H18.6744V23.4611H18.8024V23.3189H18.9731V23.6034C18.9731 23.6602 18.9446 23.6887 18.902 23.6887H18.2904C18.2678 23.6887 18.2461 23.6797 18.2301 23.6637C18.2141 23.6477 18.2051 23.626 18.2051 23.6034V23.3189V23.3189Z" fill="#FFFF00" stroke="black" stroke-width="0.0711113"/>
<path id="Vector_34" d="M19.2871 23.5465C19.2871 23.4611 19.4151 23.4611 19.4151 23.5465V23.774H19.2871V23.5465Z" fill="black"/>
<path id="c_2" d="M18.5332 23.8593C18.5332 23.774 18.647 23.774 18.647 23.8593V24.03H18.5332V23.8593Z" fill="black"/>
<path id="Vector_35" d="M18.5332 23.8593C18.5332 23.774 18.647 23.774 18.647 23.8593V24.03H18.5332V23.8593Z" fill="black"/>
</g>
<g id="Group_4">
<path id="Vector_36" d="M21.3269 38.9569C20.7818 38.3957 21.0415 37.8718 21.0415 37.8718C21.0515 37.8617 21.6137 37.5782 22.1687 38.1294L21.337 38.967" fill="#FFFF00"/>
<path id="Vector_37" d="M20.3111 38.6286L20.8767 39.3306L21.2976 38.9068C20.7728 38.3856 21.0929 37.9018 21.0929 37.9018C21.103 37.8917 21.6048 37.6084 22.1093 38.0893L22.5302 37.6655L21.8042 37.1048L20.301 38.6186L20.3111 38.6286ZM20.8567 39.3709L22.5604 37.6553C22.5904 37.625 22.6508 37.6248 22.6911 37.6649C22.7416 37.715 22.7418 37.7754 22.7117 37.8056L21.0081 39.5212C20.978 39.5515 20.9177 39.5517 20.8672 39.5016C20.8269 39.4615 20.8266 39.4012 20.8667 39.3608L20.8567 39.3709Z" fill="#FFFF00" stroke="black" stroke-width="0.0711113"/>
<g id="Vector_38">
<path d="M21.4683 38.7352C21.1353 38.4045 21.2749 38.0822 21.2749 38.0822C21.2749 38.0822 21.6064 37.9503 21.9293 38.271L21.4683 38.7352ZM19.9788 38.4186L21.6123 36.7736C21.6424 36.7434 21.7128 36.7532 21.7532 36.7933C21.7834 36.8233 21.7836 36.8837 21.7536 36.9139L20.1201 38.5589C20.09 38.5892 20.0297 38.5894 19.9893 38.5493C19.959 38.5192 19.9588 38.4589 19.9889 38.4286L19.9788 38.4186ZM20.1703 38.5285L21.7136 36.9744C21.7436 36.9441 21.804 36.9439 21.8443 36.984C21.8847 37.0241 21.8849 37.0844 21.8549 37.1147L20.3015 38.6789C20.2614 38.7193 20.2111 38.7094 20.1707 38.6693C20.1304 38.6292 20.1202 38.579 20.1602 38.5386L20.1703 38.5285ZM19.6016 36.9617L19.7219 36.8406L19.8026 36.9208L19.8928 36.8299L19.8121 36.7498L19.9423 36.6186L20.0332 36.7088L20.1234 36.6179L20.0224 36.5177L20.1427 36.3966L20.3445 36.597C20.3849 36.6371 20.385 36.6774 20.355 36.7076L19.914 37.1517C19.884 37.1819 19.8337 37.1922 19.8034 37.1621L19.6016 36.9617ZM20.3351 36.768L21.011 37.3791L20.5801 37.8131L19.9542 37.1314L20.325 36.758" fill="#FFFF00"/>
<path d="M20.3351 36.768L21.011 37.3791L20.5801 37.8131L19.9542 37.1314L20.325 36.758M21.4683 38.7352C21.1353 38.4045 21.2749 38.0822 21.2749 38.0822C21.2749 38.0822 21.6064 37.9503 21.9293 38.271L21.4683 38.7352ZM19.9788 38.4186L21.6123 36.7736C21.6424 36.7434 21.7128 36.7532 21.7532 36.7933C21.7834 36.8233 21.7836 36.8837 21.7536 36.9139L20.1201 38.5589C20.09 38.5892 20.0297 38.5894 19.9893 38.5493C19.959 38.5192 19.9588 38.4589 19.9889 38.4286L19.9788 38.4186ZM20.1703 38.5285L21.7136 36.9744C21.7436 36.9441 21.804 36.9439 21.8443 36.984C21.8847 37.0241 21.8849 37.0844 21.8549 37.1147L20.3015 38.6789C20.2614 38.7193 20.2111 38.7094 20.1707 38.6693C20.1304 38.6292 20.1202 38.579 20.1602 38.5386L20.1703 38.5285ZM19.6016 36.9617L19.7219 36.8406L19.8026 36.9208L19.8928 36.8299L19.8121 36.7498L19.9423 36.6186L20.0332 36.7088L20.1234 36.6179L20.0224 36.5177L20.1427 36.3966L20.3445 36.597C20.3849 36.6371 20.385 36.6774 20.355 36.7076L19.914 37.1517C19.884 37.1819 19.8337 37.1922 19.8034 37.1621L19.6016 36.9617Z" stroke="black" stroke-width="0.0711113"/>
</g>
<path id="a_3" d="M20.1157 37.5935L20.4588 37.9342L20.058 38.3379L19.7148 37.9971L20.1157 37.5935Z" fill="#FFFF00" stroke="black" stroke-width="0.0711113"/>
<path id="Vector_39" d="M20.1157 37.5935L20.4588 37.9342L20.058 38.3379L19.7148 37.9971L20.1157 37.5935Z" fill="#FFFF00" stroke="black" stroke-width="0.0711113"/>
<path id="b_3" d="M19.3828 37.8072L19.5031 37.6861L19.604 37.7863L19.6942 37.6955L19.5933 37.5953L19.7135 37.4742L19.8144 37.5744L19.9046 37.4836L19.8037 37.3834L19.924 37.2623L20.1258 37.4627C20.1662 37.5028 20.1663 37.543 20.1362 37.5733L19.7053 38.0072C19.6894 38.0233 19.6677 38.0324 19.6451 38.0324C19.6224 38.0325 19.6007 38.0236 19.5846 38.0077L19.3828 37.8072V37.8072Z" fill="#FFFF00" stroke="black" stroke-width="0.0711113"/>
<path id="Vector_40" d="M19.3828 37.8072L19.5031 37.6861L19.604 37.7863L19.6942 37.6955L19.5933 37.5953L19.7135 37.4742L19.8144 37.5744L19.9046 37.4836L19.8037 37.3834L19.924 37.2623L20.1258 37.4627C20.1662 37.5028 20.1663 37.543 20.1362 37.5733L19.7053 38.0072C19.6894 38.0233 19.6677 38.0324 19.6451 38.0324C19.6224 38.0325 19.6007 38.0236 19.5846 38.0077L19.3828 37.8072V37.8072Z" fill="#FFFF00" stroke="black" stroke-width="0.0711113"/>
<path id="Vector_41" d="M20.3052 37.2006C20.2446 37.1405 20.3348 37.0496 20.3954 37.1098L20.5568 37.2701L20.4666 37.3609L20.3052 37.2006Z" fill="black"/>
<path id="c_3" d="M19.9966 37.9559C19.936 37.8958 20.0162 37.8151 20.0768 37.8752L20.1979 37.9954L20.1177 38.0762L19.9966 37.9559Z" fill="black"/>
<path id="Vector_42" d="M19.9966 37.9559C19.936 37.8958 20.0162 37.8151 20.0768 37.8752L20.1979 37.9954L20.1177 38.0762L19.9966 37.9559Z" fill="black"/>
</g>
</g>
<g id="Group_5">
<path id="Vector_43" d="M18.7598 25.5091C18.774 24.7269 19.3287 24.542 19.3287 24.542C19.3429 24.542 19.9402 24.7411 19.9402 25.5234H18.7598" fill="#FFFF00"/>
<path id="Vector_44" d="M18.2764 24.5562L18.1768 25.4522H18.7742C18.7742 24.7127 19.3431 24.5989 19.3431 24.5989C19.3573 24.5989 19.9119 24.7554 19.9262 25.4522H20.5235L20.4097 24.542H18.2764V24.5562ZM18.1342 25.4665H20.5519C20.5946 25.4665 20.6373 25.5091 20.6373 25.566C20.6373 25.6371 20.5946 25.6798 20.5519 25.6798H18.1342C18.0915 25.6798 18.0488 25.6371 18.0488 25.566C18.0488 25.5091 18.0915 25.4665 18.1484 25.4665H18.1342Z" fill="#FFFF00" stroke="black" stroke-width="0.0711113"/>
<g id="Vector_45">
<path d="M19.0157 25.4522C19.0157 24.9829 19.3428 24.8549 19.3428 24.8549C19.3428 24.8549 19.6699 24.9971 19.6699 25.4522H19.0157ZM18.1908 24.1722H20.509C20.5517 24.1722 20.5944 24.2291 20.5944 24.286C20.5944 24.3287 20.5517 24.3714 20.509 24.3714H18.1908C18.1481 24.3714 18.1055 24.3287 18.1055 24.2718C18.1055 24.2291 18.1481 24.1865 18.1908 24.1865V24.1722ZM18.2477 24.3856H20.4379C20.4806 24.3856 20.5233 24.4282 20.5233 24.4851C20.5233 24.542 20.4806 24.5847 20.4379 24.5847H18.2335C18.1766 24.5847 18.1481 24.542 18.1481 24.4851C18.1481 24.4282 18.1766 24.3856 18.2335 24.3856H18.2477ZM18.9588 22.878H19.1295V22.9918H19.2575V22.878H19.4424V23.006H19.5704V22.8638H19.741V23.1482C19.741 23.2051 19.7126 23.2336 19.6699 23.2336H19.0441C19.0015 23.2336 18.9588 23.2051 18.9588 23.1625V22.878ZM19.613 23.262L19.6557 24.1722H19.0441L19.0868 23.2478H19.613" fill="#FFFF00"/>
<path d="M19.613 23.262L19.6557 24.1722H19.0441L19.0868 23.2478H19.613M19.0157 25.4522C19.0157 24.9829 19.3428 24.8549 19.3428 24.8549C19.3428 24.8549 19.6699 24.9971 19.6699 25.4522H19.0157ZM18.1908 24.1722H20.509C20.5517 24.1722 20.5944 24.2291 20.5944 24.286C20.5944 24.3287 20.5517 24.3714 20.509 24.3714H18.1908C18.1481 24.3714 18.1055 24.3287 18.1055 24.2718C18.1055 24.2291 18.1481 24.1865 18.1908 24.1865V24.1722ZM18.2477 24.3856H20.4379C20.4806 24.3856 20.5233 24.4282 20.5233 24.4851C20.5233 24.542 20.4806 24.5847 20.4379 24.5847H18.2335C18.1766 24.5847 18.1481 24.542 18.1481 24.4851C18.1481 24.4282 18.1766 24.3856 18.2335 24.3856H18.2477ZM18.9588 22.878H19.1295V22.9918H19.2575V22.878H19.4424V23.006H19.5704V22.8638H19.741V23.1482C19.741 23.2051 19.7126 23.2336 19.6699 23.2336H19.0441C19.0015 23.2336 18.9588 23.2051 18.9588 23.1625V22.878Z" stroke="black" stroke-width="0.0711113"/>
</g>
<path id="a_4" d="M18.8736 23.6887V24.1722H18.3047V23.6887H18.8736Z" fill="#FFFF00" stroke="black" stroke-width="0.0711113"/>
<path id="Vector_46" d="M18.8736 23.6887V24.1722H18.3047V23.6887H18.8736Z" fill="#FFFF00" stroke="black" stroke-width="0.0711113"/>
<path id="b_4" d="M18.2051 23.3189H18.3757V23.4611H18.5037V23.3189H18.6744V23.4611H18.8024V23.3189H18.9731V23.6034C18.9731 23.6602 18.9446 23.6887 18.902 23.6887H18.2904C18.2678 23.6887 18.2461 23.6797 18.2301 23.6637C18.2141 23.6477 18.2051 23.626 18.2051 23.6034V23.3189V23.3189Z" fill="#FFFF00" stroke="black" stroke-width="0.0711113"/>
<path id="Vector_47" d="M18.2051 23.3189H18.3757V23.4611H18.5037V23.3189H18.6744V23.4611H18.8024V23.3189H18.9731V23.6034C18.9731 23.6602 18.9446 23.6887 18.902 23.6887H18.2904C18.2678 23.6887 18.2461 23.6797 18.2301 23.6637C18.2141 23.6477 18.2051 23.626 18.2051 23.6034V23.3189V23.3189Z" fill="#FFFF00" stroke="black" stroke-width="0.0711113"/>
<path id="Vector_48" d="M19.2871 23.5465C19.2871 23.4611 19.4151 23.4611 19.4151 23.5465V23.774H19.2871V23.5465Z" fill="black"/>
<path id="c_4" d="M18.5332 23.8593C18.5332 23.774 18.647 23.774 18.647 23.8593V24.03H18.5332V23.8593Z" fill="black"/>
<path id="Vector_49" d="M18.5332 23.8593C18.5332 23.774 18.647 23.774 18.647 23.8593V24.03H18.5332V23.8593Z" fill="black"/>
</g>
<g id="Group_6">
<g id="d_2">
<path id="Vector_50" d="M32.8965 25.5091C32.8823 24.7269 32.3276 24.542 32.3276 24.542C32.3134 24.542 31.716 24.7411 31.716 25.5234H32.8965" fill="#FFFF00"/>
<path id="Vector_51" d="M33.3799 24.5562L33.4794 25.4522H32.8821C32.8821 24.7127 32.3132 24.5989 32.3132 24.5989C32.299 24.5989 31.7443 24.7554 31.7301 25.4522H31.1327L31.2465 24.542H33.3799V24.5562ZM33.5221 25.4665H31.1043C31.0616 25.4665 31.019 25.5091 31.019 25.566C31.019 25.6371 31.0616 25.6798 31.1043 25.6798H33.5221C33.5648 25.6798 33.6074 25.6371 33.6074 25.566C33.6074 25.5091 33.5648 25.4665 33.5079 25.4665H33.5221Z" fill="#FFFF00" stroke="black" stroke-width="0.0711113"/>
<g id="Vector_52">
<path d="M32.6406 25.4522C32.6406 24.9829 32.3134 24.8549 32.3134 24.8549C32.3134 24.8549 31.9863 24.9971 31.9863 25.4522H32.6406ZM33.4654 24.1722H31.1472C31.1046 24.1722 31.0619 24.2291 31.0619 24.286C31.0619 24.3287 31.1046 24.3714 31.1472 24.3714H33.4654C33.5081 24.3714 33.5508 24.3287 33.5508 24.2718C33.5508 24.2291 33.5081 24.1865 33.4654 24.1865V24.1722ZM33.4086 24.3856H31.2183C31.1757 24.3856 31.133 24.4282 31.133 24.4851C31.133 24.542 31.1757 24.5847 31.2183 24.5847H33.4228C33.4797 24.5847 33.5081 24.542 33.5081 24.4851C33.5081 24.4282 33.4797 24.3856 33.4228 24.3856H33.4086ZM32.6974 22.878H32.5268V22.9918H32.3988V22.878H32.2139V23.006H32.0859V22.8638H31.9152V23.1482C31.9152 23.2051 31.9437 23.2336 31.9863 23.2336H32.6121C32.6548 23.2336 32.6974 23.2051 32.6974 23.1625V22.878ZM32.0432 23.262L32.0006 24.1722H32.6121L32.5694 23.2478H32.0432" fill="#FFFF00"/>
<path d="M32.0432 23.262L32.0006 24.1722H32.6121L32.5694 23.2478H32.0432M32.6406 25.4522C32.6406 24.9829 32.3134 24.8549 32.3134 24.8549C32.3134 24.8549 31.9863 24.9971 31.9863 25.4522H32.6406ZM33.4654 24.1722H31.1472C31.1046 24.1722 31.0619 24.2291 31.0619 24.286C31.0619 24.3287 31.1046 24.3714 31.1472 24.3714H33.4654C33.5081 24.3714 33.5508 24.3287 33.5508 24.2718C33.5508 24.2291 33.5081 24.1865 33.4654 24.1865V24.1722ZM33.4086 24.3856H31.2183C31.1757 24.3856 31.133 24.4282 31.133 24.4851C31.133 24.542 31.1757 24.5847 31.2183 24.5847H33.4228C33.4797 24.5847 33.5081 24.542 33.5081 24.4851C33.5081 24.4282 33.4797 24.3856 33.4228 24.3856H33.4086ZM32.6974 22.878H32.5268V22.9918H32.3988V22.878H32.2139V23.006H32.0859V22.8638H31.9152V23.1482C31.9152 23.2051 31.9437 23.2336 31.9863 23.2336H32.6121C32.6548 23.2336 32.6974 23.2051 32.6974 23.1625V22.878Z" stroke="black" stroke-width="0.0711113"/>
</g>
<path id="a_5" d="M32.7827 23.6887V24.1722H33.3516V23.6887H32.7827Z" fill="#FFFF00" stroke="black" stroke-width="0.0711113"/>
<path id="Vector_53" d="M32.7827 23.6887V24.1722H33.3516V23.6887H32.7827Z" fill="#FFFF00" stroke="black" stroke-width="0.0711113"/>
<path id="b_5" d="M33.4512 23.3189H33.2805V23.4611H33.1525V23.3189H32.9818V23.4611H32.8538V23.3189H32.6832V23.6034C32.6832 23.6602 32.7116 23.6887 32.7543 23.6887H33.3658C33.3885 23.6887 33.4102 23.6797 33.4262 23.6637C33.4422 23.6477 33.4512 23.626 33.4512 23.6034V23.3189V23.3189Z" fill="#FFFF00" stroke="black" stroke-width="0.0711113"/>
<path id="Vector_54" d="M33.4512 23.3189H33.2805V23.4611H33.1525V23.3189H32.9818V23.4611H32.8538V23.3189H32.6832V23.6034C32.6832 23.6602 32.7116 23.6887 32.7543 23.6887H33.3658C33.3885 23.6887 33.4102 23.6797 33.4262 23.6637C33.4422 23.6477 33.4512 23.626 33.4512 23.6034V23.3189V23.3189Z" fill="#FFFF00" stroke="black" stroke-width="0.0711113"/>
<path id="Vector_55" d="M32.3691 23.5465C32.3691 23.4611 32.2411 23.4611 32.2411 23.5465V23.774H32.3691V23.5465Z" fill="black"/>
<path id="c_5" d="M33.123 23.8593C33.123 23.774 33.0093 23.774 33.0093 23.8593V24.03H33.123V23.8593Z" fill="black"/>
<path id="Vector_56" d="M33.123 23.8593C33.123 23.774 33.0093 23.774 33.0093 23.8593V24.03H33.123V23.8593Z" fill="black"/>
</g>
<g id="Group_7">
<path id="Vector_57" d="M32.8965 25.5091C32.8823 24.7269 32.3276 24.542 32.3276 24.542C32.3134 24.542 31.716 24.7411 31.716 25.5234H32.8965" fill="#FFFF00"/>
<path id="Vector_58" d="M33.3799 24.5562L33.4794 25.4522H32.8821C32.8821 24.7127 32.3132 24.5989 32.3132 24.5989C32.299 24.5989 31.7443 24.7554 31.7301 25.4522H31.1327L31.2465 24.542H33.3799V24.5562ZM33.5221 25.4665H31.1043C31.0616 25.4665 31.019 25.5091 31.019 25.566C31.019 25.6371 31.0616 25.6798 31.1043 25.6798H33.5221C33.5648 25.6798 33.6074 25.6371 33.6074 25.566C33.6074 25.5091 33.5648 25.4665 33.5079 25.4665H33.5221Z" fill="#FFFF00" stroke="black" stroke-width="0.0711113"/>
<g id="Vector_59">
<path d="M32.6406 25.4522C32.6406 24.9829 32.3134 24.8549 32.3134 24.8549C32.3134 24.8549 31.9863 24.9971 31.9863 25.4522H32.6406ZM33.4654 24.1722H31.1472C31.1046 24.1722 31.0619 24.2291 31.0619 24.286C31.0619 24.3287 31.1046 24.3714 31.1472 24.3714H33.4654C33.5081 24.3714 33.5508 24.3287 33.5508 24.2718C33.5508 24.2291 33.5081 24.1865 33.4654 24.1865V24.1722ZM33.4086 24.3856H31.2183C31.1757 24.3856 31.133 24.4282 31.133 24.4851C31.133 24.542 31.1757 24.5847 31.2183 24.5847H33.4228C33.4797 24.5847 33.5081 24.542 33.5081 24.4851C33.5081 24.4282 33.4797 24.3856 33.4228 24.3856H33.4086ZM32.6974 22.878H32.5268V22.9918H32.3988V22.878H32.2139V23.006H32.0859V22.8638H31.9152V23.1482C31.9152 23.2051 31.9437 23.2336 31.9863 23.2336H32.6121C32.6548 23.2336 32.6974 23.2051 32.6974 23.1625V22.878ZM32.0432 23.262L32.0006 24.1722H32.6121L32.5694 23.2478H32.0432" fill="#FFFF00"/>
<path d="M32.0432 23.262L32.0006 24.1722H32.6121L32.5694 23.2478H32.0432M32.6406 25.4522C32.6406 24.9829 32.3134 24.8549 32.3134 24.8549C32.3134 24.8549 31.9863 24.9971 31.9863 25.4522H32.6406ZM33.4654 24.1722H31.1472C31.1046 24.1722 31.0619 24.2291 31.0619 24.286C31.0619 24.3287 31.1046 24.3714 31.1472 24.3714H33.4654C33.5081 24.3714 33.5508 24.3287 33.5508 24.2718C33.5508 24.2291 33.5081 24.1865 33.4654 24.1865V24.1722ZM33.4086 24.3856H31.2183C31.1757 24.3856 31.133 24.4282 31.133 24.4851C31.133 24.542 31.1757 24.5847 31.2183 24.5847H33.4228C33.4797 24.5847 33.5081 24.542 33.5081 24.4851C33.5081 24.4282 33.4797 24.3856 33.4228 24.3856H33.4086ZM32.6974 22.878H32.5268V22.9918H32.3988V22.878H32.2139V23.006H32.0859V22.8638H31.9152V23.1482C31.9152 23.2051 31.9437 23.2336 31.9863 23.2336H32.6121C32.6548 23.2336 32.6974 23.2051 32.6974 23.1625V22.878Z" stroke="black" stroke-width="0.0711113"/>
</g>
<path id="a_6" d="M32.7827 23.6887V24.1722H33.3516V23.6887H32.7827Z" fill="#FFFF00" stroke="black" stroke-width="0.0711113"/>
<path id="Vector_60" d="M32.7827 23.6887V24.1722H33.3516V23.6887H32.7827Z" fill="#FFFF00" stroke="black" stroke-width="0.0711113"/>
<path id="b_6" d="M33.4512 23.3189H33.2805V23.4611H33.1525V23.3189H32.9818V23.4611H32.8538V23.3189H32.6832V23.6034C32.6832 23.6602 32.7116 23.6887 32.7543 23.6887H33.3658C33.3885 23.6887 33.4102 23.6797 33.4262 23.6637C33.4422 23.6477 33.4512 23.626 33.4512 23.6034V23.3189V23.3189Z" fill="#FFFF00" stroke="black" stroke-width="0.0711113"/>
<path id="Vector_61" d="M33.4512 23.3189H33.2805V23.4611H33.1525V23.3189H32.9818V23.4611H32.8538V23.3189H32.6832V23.6034C32.6832 23.6602 32.7116 23.6887 32.7543 23.6887H33.3658C33.3885 23.6887 33.4102 23.6797 33.4262 23.6637C33.4422 23.6477 33.4512 23.626 33.4512 23.6034V23.3189V23.3189Z" fill="#FFFF00" stroke="black" stroke-width="0.0711113"/>
<path id="Vector_62" d="M32.3691 23.5465C32.3691 23.4611 32.2411 23.4611 32.2411 23.5465V23.774H32.3691V23.5465Z" fill="black"/>
<path id="c_6" d="M33.123 23.8593C33.123 23.774 33.0093 23.774 33.0093 23.8593V24.03H33.123V23.8593Z" fill="black"/>
<path id="Vector_63" d="M33.123 23.8593C33.123 23.774 33.0093 23.774 33.0093 23.8593V24.03H33.123V23.8593Z" fill="black"/>
</g>
<g id="Group_8">
<path id="Vector_64" d="M30.3294 38.9569C30.8744 38.3957 30.6148 37.8718 30.6148 37.8718C30.6047 37.8617 30.0426 37.5782 29.4875 38.1294L30.3193 38.967" fill="#FFFF00"/>
<path id="Vector_65" d="M31.3452 38.6286L30.7796 39.3306L30.3587 38.9068C30.8834 38.3856 30.5633 37.9018 30.5633 37.9018C30.5533 37.8917 30.0514 37.6084 29.5469 38.0893L29.126 37.6655L29.8521 37.1048L31.3553 38.6186L31.3452 38.6286ZM30.7995 39.3709L29.0959 37.6553C29.0658 37.625 29.0055 37.6248 28.9651 37.6649C28.9147 37.715 28.9144 37.7754 28.9445 37.8056L30.6482 39.5212C30.6782 39.5515 30.7386 39.5517 30.789 39.5016C30.8294 39.4615 30.8296 39.4012 30.7895 39.3608L30.7995 39.3709Z" fill="#FFFF00" stroke="black" stroke-width="0.0711113"/>
<g id="Vector_66">
<path d="M30.188 38.7352C30.521 38.4045 30.3813 38.0822 30.3813 38.0822C30.3813 38.0822 30.0499 37.9503 29.727 38.271L30.188 38.7352ZM31.6775 38.4186L30.044 36.7736C30.0139 36.7434 29.9435 36.7532 29.9031 36.7933C29.8728 36.8233 29.8726 36.8837 29.9027 36.9139L31.5362 38.5589C31.5662 38.5892 31.6266 38.5894 31.6669 38.5493C31.6972 38.5192 31.6974 38.4589 31.6674 38.4286L31.6775 38.4186ZM31.486 38.5285L29.9427 36.9744C29.9126 36.9441 29.8523 36.9439 29.8119 36.984C29.7715 37.0241 29.7713 37.0844 29.8014 37.1147L31.3547 38.6789C31.3948 38.7193 31.4451 38.7094 31.4855 38.6693C31.5259 38.6292 31.5361 38.579 31.496 38.5386L31.486 38.5285ZM32.0546 36.9617L31.9344 36.8406L31.8536 36.9208L31.7635 36.8299L31.8442 36.7498L31.7139 36.6186L31.6231 36.7088L31.5329 36.6179L31.6338 36.5177L31.5135 36.3966L31.3117 36.597C31.2713 36.6371 31.2712 36.6774 31.3013 36.7076L31.7422 37.1517C31.7723 37.1819 31.8225 37.1922 31.8528 37.1621L32.0546 36.9617ZM31.3212 36.768L30.6452 37.3791L31.0762 37.8131L31.7021 37.1314L31.3313 36.758" fill="#FFFF00"/>
<path d="M31.3212 36.768L30.6452 37.3791L31.0762 37.8131L31.7021 37.1314L31.3313 36.758M30.188 38.7352C30.521 38.4045 30.3813 38.0822 30.3813 38.0822C30.3813 38.0822 30.0499 37.9503 29.727 38.271L30.188 38.7352ZM31.6775 38.4186L30.044 36.7736C30.0139 36.7434 29.9435 36.7532 29.9031 36.7933C29.8728 36.8233 29.8726 36.8837 29.9027 36.9139L31.5362 38.5589C31.5662 38.5892 31.6266 38.5894 31.6669 38.5493C31.6972 38.5192 31.6974 38.4589 31.6674 38.4286L31.6775 38.4186ZM31.486 38.5285L29.9427 36.9744C29.9126 36.9441 29.8523 36.9439 29.8119 36.984C29.7715 37.0241 29.7713 37.0844 29.8014 37.1147L31.3547 38.6789C31.3948 38.7193 31.4451 38.7094 31.4855 38.6693C31.5259 38.6292 31.5361 38.579 31.496 38.5386L31.486 38.5285ZM32.0546 36.9617L31.9344 36.8406L31.8536 36.9208L31.7635 36.8299L31.8442 36.7498L31.7139 36.6186L31.6231 36.7088L31.5329 36.6179L31.6338 36.5177L31.5135 36.3966L31.3117 36.597C31.2713 36.6371 31.2712 36.6774 31.3013 36.7076L31.7422 37.1517C31.7723 37.1819 31.8225 37.1922 31.8528 37.1621L32.0546 36.9617Z" stroke="black" stroke-width="0.0711113"/>
</g>
<path id="a_7" d="M31.5405 37.5935L31.1974 37.9342L31.5983 38.3379L31.9414 37.9971L31.5405 37.5935Z" fill="#FFFF00" stroke="black" stroke-width="0.0711113"/>
<path id="Vector_67" d="M31.5405 37.5935L31.1974 37.9342L31.5983 38.3379L31.9414 37.9971L31.5405 37.5935Z" fill="#FFFF00" stroke="black" stroke-width="0.0711113"/>
<path id="b_7" d="M32.2734 37.8072L32.1532 37.6861L32.0523 37.7863L31.9621 37.6955L32.063 37.5953L31.9427 37.4742L31.8418 37.5744L31.7516 37.4836L31.8525 37.3834L31.7323 37.2623L31.5304 37.4627C31.4901 37.5028 31.4899 37.543 31.52 37.5733L31.9509 38.0072C31.9669 38.0233 31.9885 38.0324 32.0112 38.0324C32.0338 38.0325 32.0555 38.0236 32.0716 38.0077L32.2734 37.8072V37.8072Z" fill="#FFFF00" stroke="black" stroke-width="0.0711113"/>
<path id="Vector_68" d="M32.2734 37.8072L32.1532 37.6861L32.0523 37.7863L31.9621 37.6955L32.063 37.5953L31.9427 37.4742L31.8418 37.5744L31.7516 37.4836L31.8525 37.3834L31.7323 37.2623L31.5304 37.4627C31.4901 37.5028 31.4899 37.543 31.52 37.5733L31.9509 38.0072C31.9669 38.0233 31.9885 38.0324 32.0112 38.0324C32.0338 38.0325 32.0555 38.0236 32.0716 38.0077L32.2734 37.8072V37.8072Z" fill="#FFFF00" stroke="black" stroke-width="0.0711113"/>
<path id="Vector_69" d="M31.3511 37.2006C31.4116 37.1405 31.3214 37.0496 31.2609 37.1098L31.0994 37.2701L31.1896 37.3609L31.3511 37.2006Z" fill="black"/>
<path id="c_7" d="M31.6597 37.9559C31.7202 37.8958 31.64 37.8151 31.5795 37.8752L31.4584 37.9954L31.5386 38.0762L31.6597 37.9559Z" fill="black"/>
<path id="Vector_70" d="M31.6597 37.9559C31.7202 37.8958 31.64 37.8151 31.5795 37.8752L31.4584 37.9954L31.5386 38.0762L31.6597 37.9559Z" fill="black"/>
</g>
</g>
<g id="f">
<path id="Vector_71" d="M24.7911 32.3358C24.7885 32.636 24.9004 32.9259 25.1039 33.1465C25.1989 33.2527 25.315 33.3379 25.4448 33.3967C25.5746 33.4555 25.7153 33.4865 25.8577 33.4878C26.1564 33.4878 26.4266 33.3456 26.6115 33.1465C26.8151 32.9259 26.927 32.636 26.9244 32.3358V30.7998H24.7911V32.3358Z" fill="#003399"/>
<path id="Vector_72" d="M25.2895 31.5963C25.4073 31.5963 25.5028 31.5008 25.5028 31.383C25.5028 31.2651 25.4073 31.1696 25.2895 31.1696C25.1717 31.1696 25.0762 31.2651 25.0762 31.383C25.0762 31.5008 25.1717 31.5963 25.2895 31.5963Z" fill="#F5F5F5"/>
<path id="Vector_73" d="M26.4692 31.5963C26.587 31.5963 26.6825 31.5008 26.6825 31.383C26.6825 31.2651 26.587 31.1696 26.4692 31.1696C26.3514 31.1696 26.2559 31.2651 26.2559 31.383C26.2559 31.5008 26.3514 31.5963 26.4692 31.5963Z" fill="#F5F5F5"/>
<path id="Vector_74" d="M25.8715 32.1652C25.9894 32.1652 26.0849 32.0696 26.0849 31.9518C26.0849 31.834 25.9894 31.7385 25.8715 31.7385C25.7537 31.7385 25.6582 31.834 25.6582 31.9518C25.6582 32.0696 25.7537 32.1652 25.8715 32.1652Z" fill="#F5F5F5"/>
<path id="Vector_75" d="M25.2895 32.7625C25.4073 32.7625 25.5028 32.667 25.5028 32.5492C25.5028 32.4314 25.4073 32.3358 25.2895 32.3358C25.1717 32.3358 25.0762 32.4314 25.0762 32.5492C25.0762 32.667 25.1717 32.7625 25.2895 32.7625Z" fill="#F5F5F5"/>
<path id="Vector_76" d="M26.4692 32.7625C26.587 32.7625 26.6825 32.667 26.6825 32.5492C26.6825 32.4314 26.587 32.3358 26.4692 32.3358C26.3514 32.3358 26.2559 32.4314 26.2559 32.5492C26.2559 32.667 26.3514 32.7625 26.4692 32.7625Z" fill="#F5F5F5"/>
</g>
<g id="Group_9">
<path id="Vector_77" d="M24.7911 32.3358C24.7885 32.636 24.9004 32.9259 25.1039 33.1465C25.1989 33.2527 25.315 33.3379 25.4448 33.3967C25.5746 33.4555 25.7153 33.4865 25.8577 33.4878C26.1564 33.4878 26.4266 33.3456 26.6115 33.1465C26.8151 32.9259 26.927 32.636 26.9244 32.3358V30.7998H24.7911V32.3358Z" fill="#003399"/>
<path id="Vector_78" d="M25.2895 31.5963C25.4073 31.5963 25.5028 31.5008 25.5028 31.383C25.5028 31.2651 25.4073 31.1696 25.2895 31.1696C25.1717 31.1696 25.0762 31.2651 25.0762 31.383C25.0762 31.5008 25.1717 31.5963 25.2895 31.5963Z" fill="#F5F5F5"/>
<path id="Vector_79" d="M26.4692 31.5963C26.587 31.5963 26.6825 31.5008 26.6825 31.383C26.6825 31.2651 26.587 31.1696 26.4692 31.1696C26.3514 31.1696 26.2559 31.2651 26.2559 31.383C26.2559 31.5008 26.3514 31.5963 26.4692 31.5963Z" fill="#F5F5F5"/>
<path id="Vector_80" d="M25.8715 32.1652C25.9894 32.1652 26.0849 32.0696 26.0849 31.9518C26.0849 31.834 25.9894 31.7385 25.8715 31.7385C25.7537 31.7385 25.6582 31.834 25.6582 31.9518C25.6582 32.0696 25.7537 32.1652 25.8715 32.1652Z" fill="#F5F5F5"/>
<path id="Vector_81" d="M25.2895 32.7625C25.4073 32.7625 25.5028 32.667 25.5028 32.5492C25.5028 32.4314 25.4073 32.3358 25.2895 32.3358C25.1717 32.3358 25.0762 32.4314 25.0762 32.5492C25.0762 32.667 25.1717 32.7625 25.2895 32.7625Z" fill="#F5F5F5"/>
<path id="Vector_82" d="M26.4692 32.7625C26.587 32.7625 26.6825 32.667 26.6825 32.5492C26.6825 32.4314 26.587 32.3358 26.4692 32.3358C26.3514 32.3358 26.2559 32.4314 26.2559 32.5492C26.2559 32.667 26.3514 32.7625 26.4692 32.7625Z" fill="#F5F5F5"/>
</g>
<g id="Group_10">
<path id="Vector_83" d="M24.7911 32.3358C24.7885 32.636 24.9004 32.9259 25.1039 33.1465C25.1989 33.2527 25.315 33.3379 25.4448 33.3967C25.5746 33.4555 25.7153 33.4865 25.8577 33.4878C26.1564 33.4878 26.4266 33.3456 26.6115 33.1465C26.8151 32.9259 26.927 32.636 26.9244 32.3358V30.7998H24.7911V32.3358Z" fill="#003399"/>
<path id="Vector_84" d="M25.2895 31.5963C25.4073 31.5963 25.5028 31.5008 25.5028 31.383C25.5028 31.2651 25.4073 31.1696 25.2895 31.1696C25.1717 31.1696 25.0762 31.2651 25.0762 31.383C25.0762 31.5008 25.1717 31.5963 25.2895 31.5963Z" fill="#F5F5F5"/>
<path id="Vector_85" d="M26.4692 31.5963C26.587 31.5963 26.6825 31.5008 26.6825 31.383C26.6825 31.2651 26.587 31.1696 26.4692 31.1696C26.3514 31.1696 26.2559 31.2651 26.2559 31.383C26.2559 31.5008 26.3514 31.5963 26.4692 31.5963Z" fill="#F5F5F5"/>
<path id="Vector_86" d="M25.8715 32.1652C25.9894 32.1652 26.0849 32.0696 26.0849 31.9518C26.0849 31.834 25.9894 31.7385 25.8715 31.7385C25.7537 31.7385 25.6582 31.834 25.6582 31.9518C25.6582 32.0696 25.7537 32.1652 25.8715 32.1652Z" fill="#F5F5F5"/>
<path id="Vector_87" d="M25.2895 32.7625C25.4073 32.7625 25.5028 32.667 25.5028 32.5492C25.5028 32.4314 25.4073 32.3358 25.2895 32.3358C25.1717 32.3358 25.0762 32.4314 25.0762 32.5492C25.0762 32.667 25.1717 32.7625 25.2895 32.7625Z" fill="#F5F5F5"/>
<path id="Vector_88" d="M26.4692 32.7625C26.587 32.7625 26.6825 32.667 26.6825 32.5492C26.6825 32.4314 26.587 32.3358 26.4692 32.3358C26.3514 32.3358 26.2559 32.4314 26.2559 32.5492C26.2559 32.667 26.3514 32.7625 26.4692 32.7625Z" fill="#F5F5F5"/>
</g>
<g id="Group_11">
<path id="Vector_89" d="M24.7911 32.3358C24.7885 32.636 24.9004 32.9259 25.1039 33.1465C25.1989 33.2527 25.315 33.3379 25.4448 33.3967C25.5746 33.4555 25.7153 33.4865 25.8577 33.4878C26.1564 33.4878 26.4266 33.3456 26.6115 33.1465C26.8151 32.9259 26.927 32.636 26.9244 32.3358V30.7998H24.7911V32.3358Z" fill="#003399"/>
<path id="Vector_90" d="M25.2895 31.5963C25.4073 31.5963 25.5028 31.5008 25.5028 31.383C25.5028 31.2651 25.4073 31.1696 25.2895 31.1696C25.1717 31.1696 25.0762 31.2651 25.0762 31.383C25.0762 31.5008 25.1717 31.5963 25.2895 31.5963Z" fill="#F5F5F5"/>
<path id="Vector_91" d="M26.4692 31.5963C26.587 31.5963 26.6825 31.5008 26.6825 31.383C26.6825 31.2651 26.587 31.1696 26.4692 31.1696C26.3514 31.1696 26.2559 31.2651 26.2559 31.383C26.2559 31.5008 26.3514 31.5963 26.4692 31.5963Z" fill="#F5F5F5"/>
<path id="Vector_92" d="M25.8715 32.1652C25.9894 32.1652 26.0849 32.0696 26.0849 31.9518C26.0849 31.834 25.9894 31.7385 25.8715 31.7385C25.7537 31.7385 25.6582 31.834 25.6582 31.9518C25.6582 32.0696 25.7537 32.1652 25.8715 32.1652Z" fill="#F5F5F5"/>
<path id="Vector_93" d="M25.2895 32.7625C25.4073 32.7625 25.5028 32.667 25.5028 32.5492C25.5028 32.4314 25.4073 32.3358 25.2895 32.3358C25.1717 32.3358 25.0762 32.4314 25.0762 32.5492C25.0762 32.667 25.1717 32.7625 25.2895 32.7625Z" fill="#F5F5F5"/>
<path id="Vector_94" d="M26.4692 32.7625C26.587 32.7625 26.6825 32.667 26.6825 32.5492C26.6825 32.4314 26.587 32.3358 26.4692 32.3358C26.3514 32.3358 26.2559 32.4314 26.2559 32.5492C26.2559 32.667 26.3514 32.7625 26.4692 32.7625Z" fill="#F5F5F5"/>
</g>
<g id="Group_12">
<path id="Vector_95" d="M24.7911 32.3358C24.7885 32.636 24.9004 32.9259 25.1039 33.1465C25.1989 33.2527 25.315 33.3379 25.4448 33.3967C25.5746 33.4555 25.7153 33.4865 25.8577 33.4878C26.1564 33.4878 26.4266 33.3456 26.6115 33.1465C26.8151 32.9259 26.927 32.636 26.9244 32.3358V30.7998H24.7911V32.3358Z" fill="#003399"/>
<path id="Vector_96" d="M25.2895 31.5963C25.4073 31.5963 25.5028 31.5008 25.5028 31.383C25.5028 31.2651 25.4073 31.1696 25.2895 31.1696C25.1717 31.1696 25.0762 31.2651 25.0762 31.383C25.0762 31.5008 25.1717 31.5963 25.2895 31.5963Z" fill="#F5F5F5"/>
<path id="Vector_97" d="M26.4692 31.5963C26.587 31.5963 26.6825 31.5008 26.6825 31.383C26.6825 31.2651 26.587 31.1696 26.4692 31.1696C26.3514 31.1696 26.2559 31.2651 26.2559 31.383C26.2559 31.5008 26.3514 31.5963 26.4692 31.5963Z" fill="#F5F5F5"/>
<path id="Vector_98" d="M25.8715 32.1652C25.9894 32.1652 26.0849 32.0696 26.0849 31.9518C26.0849 31.834 25.9894 31.7385 25.8715 31.7385C25.7537 31.7385 25.6582 31.834 25.6582 31.9518C25.6582 32.0696 25.7537 32.1652 25.8715 32.1652Z" fill="#F5F5F5"/>
<path id="Vector_99" d="M25.2895 32.7625C25.4073 32.7625 25.5028 32.667 25.5028 32.5492C25.5028 32.4314 25.4073 32.3358 25.2895 32.3358C25.1717 32.3358 25.0762 32.4314 25.0762 32.5492C25.0762 32.667 25.1717 32.7625 25.2895 32.7625Z" fill="#F5F5F5"/>
<path id="Vector_100" d="M26.4692 32.7625C26.587 32.7625 26.6825 32.667 26.6825 32.5492C26.6825 32.4314 26.587 32.3358 26.4692 32.3358C26.3514 32.3358 26.2559 32.4314 26.2559 32.5492C26.2559 32.667 26.3514 32.7625 26.4692 32.7625Z" fill="#F5F5F5"/>
</g>
</g>
</g>
</g>
<defs>
<clipPath id="clip0_2909_185311">
<path d="M0.246094 32C0.246094 14.3269 14.573 0 32.2461 0V0C49.9192 0 64.2461 14.3269 64.2461 32V32C64.2461 49.6731 49.9192 64 32.2461 64V64C14.573 64 0.246094 49.6731 0.246094 32V32Z" fill="white"/>
</clipPath>
</defs>
</svg>
