<svg width="65" height="64" viewBox="0 0 65 64" fill="none" xmlns="http://www.w3.org/2000/svg">
<g id="Rounded=Paraguay (PY)">
<g clip-path="url(#clip0_2909_185302)">
<path id="Vector" d="M0.246094 42.625H64.2461V64H0.246094V42.625Z" fill="#0038A8"/>
<path id="Vector_2" d="M0.246094 21.3375H64.2461V42.6625H0.246094V21.3375Z" fill="#F5F5F5"/>
<path id="Vector_3" d="M0.246094 0H64.2461V21.3375H0.246094V0Z" fill="#D52B1E"/>
<g id="Group">
<path id="Vector_4" d="M32.3034 40.1844C36.8235 40.1844 40.4877 36.5201 40.4877 32.0001C40.4877 27.48 36.8235 23.8158 32.3034 23.8158C27.7834 23.8158 24.1191 27.48 24.1191 32.0001C24.1191 36.5201 27.7834 40.1844 32.3034 40.1844Z" stroke="black" stroke-width="0.213334"/>
<path id="Vector_5" d="M32.3039 38.7298C36.0207 38.7298 39.0337 35.7168 39.0337 32.0001C39.0337 28.2834 36.0207 25.2704 32.3039 25.2704C28.5872 25.2704 25.5742 28.2834 25.5742 32.0001C25.5742 35.7168 28.5872 38.7298 32.3039 38.7298Z" stroke="black" stroke-width="0.09697"/>
<path id="Vector_6" d="M32.3033 37.1589C35.1525 37.1589 37.4621 34.8492 37.4621 32.0001C37.4621 29.151 35.1525 26.8413 32.3033 26.8413C29.4542 26.8413 27.1445 29.151 27.1445 32.0001C27.1445 34.8492 29.4542 37.1589 32.3033 37.1589Z" stroke="black" stroke-width="0.077576"/>
</g>
<path id="Vector_7" d="M27.9465 35.1625L26.9965 35.725L26.709 35.225C26.6657 35.1593 26.632 35.0877 26.609 35.0125C26.5988 34.9571 26.6076 34.8998 26.634 34.85C26.659 34.7875 26.6965 34.75 26.759 34.7125C26.8035 34.6843 26.8546 34.6682 26.9073 34.666C26.96 34.6638 27.0123 34.6756 27.059 34.7L27.159 34.775C27.1552 34.746 27.1552 34.7165 27.159 34.6875L27.1715 34.6125L27.209 34.525L27.3965 34.225L27.5965 34.55L27.3965 34.8875C27.3769 34.9177 27.3641 34.9519 27.359 34.9875C27.356 35.0132 27.3604 35.0392 27.3715 35.0625L27.3965 35.0875L27.7715 34.8625L27.9465 35.1625ZM27.209 35.2L27.134 35.075C27.1191 35.0488 27.1024 35.0238 27.084 35C27.0757 34.9919 27.066 34.9855 27.0552 34.9813C27.0445 34.977 27.033 34.9748 27.0215 34.975C26.9998 34.9722 26.9779 34.9766 26.959 34.9875C26.9215 35.0125 26.909 35.025 26.8965 35.0625L26.9465 35.1875L27.0215 35.3125L27.209 35.2ZM26.3215 34.4625L26.034 33.5875L26.259 33.525L26.434 34.0625L26.5965 34.0125L26.434 33.5125L26.6465 33.4375L26.809 33.9375L27.0215 33.875L26.834 33.3125L27.084 33.2375L27.3715 34.1125L26.3215 34.4625ZM25.9465 33.175L25.8715 32.6125C25.8715 32.4875 25.8715 32.3875 25.934 32.325C25.984 32.2625 26.059 32.2125 26.1715 32.2C26.284 32.2 26.3715 32.2125 26.4465 32.275C26.509 32.3375 26.559 32.4375 26.5715 32.575L26.5965 32.75L26.9965 32.7125L27.034 33.05L25.9465 33.175ZM26.3715 32.7875L26.359 32.7C26.359 32.6375 26.334 32.5875 26.309 32.575C26.298 32.5627 26.2845 32.553 26.2694 32.5465C26.2543 32.5401 26.2379 32.537 26.2215 32.5375C26.1885 32.538 26.1571 32.5515 26.134 32.575C26.109 32.6 26.109 32.65 26.109 32.7125L26.1215 32.8125L26.3715 32.7875ZM25.909 31.1L25.9465 30.7625L26.5965 30.8375C26.659 30.8375 26.7215 30.8625 26.7715 30.8875C26.834 30.9125 26.884 30.95 26.9215 31L26.9965 31.15C27.0156 31.228 27.0156 31.3095 26.9965 31.3875C26.9965 31.4375 26.9965 31.5 26.9715 31.5625C26.9715 31.625 26.9465 31.675 26.909 31.7125L26.809 31.8125C26.7682 31.8431 26.7213 31.8644 26.6715 31.875C26.5965 31.8875 26.5465 31.9 26.484 31.8875L25.834 31.8125L25.8715 31.475L26.534 31.55C26.5965 31.55 26.6465 31.55 26.684 31.5125C26.7215 31.4875 26.734 31.4375 26.7465 31.3875C26.7513 31.3613 26.7504 31.3343 26.7439 31.3085C26.7374 31.2826 26.7255 31.2584 26.709 31.2375C26.684 31.2 26.634 31.1875 26.584 31.175L25.909 31.1ZM26.0465 30.3L26.259 29.6875C26.2965 29.5875 26.3465 29.525 26.4215 29.4875C26.4538 29.4699 26.4896 29.4597 26.5263 29.4575C26.5631 29.4553 26.5998 29.4613 26.634 29.475C26.6843 29.4937 26.7273 29.5281 26.7566 29.5731C26.7859 29.6182 26.7998 29.6714 26.7965 29.725C26.8465 29.65 26.8965 29.6 26.9465 29.6C27.0066 29.5757 27.0739 29.5757 27.134 29.6C27.1842 29.6166 27.2291 29.6461 27.2642 29.6856C27.2994 29.7251 27.3234 29.7732 27.334 29.825V29.95L27.284 30.1L27.0965 30.6625L26.0465 30.3ZM26.5715 30.1125L26.6215 29.975C26.6465 29.925 26.6465 29.8875 26.634 29.85C26.634 29.8375 26.609 29.8125 26.5715 29.8C26.5579 29.7934 26.5429 29.7899 26.5277 29.7899C26.5126 29.7899 26.4976 29.7934 26.484 29.8L26.4215 29.9L26.3715 30.05L26.5715 30.1125ZM26.984 30.2625L27.0465 30.0875V29.9625C27.0416 29.948 27.0334 29.9348 27.0225 29.924C27.0117 29.9131 26.9985 29.9049 26.984 29.9C26.9704 29.8934 26.9554 29.8899 26.9402 29.8899C26.9251 29.8899 26.9101 29.8934 26.8965 29.9C26.8715 29.925 26.8465 29.9625 26.834 30.025L26.7715 30.1875L26.984 30.2625ZM26.5715 28.975L26.7465 28.675L27.459 29.1L27.734 28.65L27.9715 28.7875L27.5215 29.5375L26.5715 28.975ZM27.2465 27.9625L27.459 27.7L28.309 28.4L28.084 28.6625L27.2465 27.9625ZM28.7215 27.3875L29.009 27.2625C29.0465 27.3375 29.0715 27.4125 29.0715 27.4875C29.0759 27.5563 29.063 27.625 29.034 27.6875C28.9966 27.7591 28.9456 27.8228 28.884 27.875C28.8119 27.9417 28.7268 27.9928 28.634 28.025C28.5465 28.05 28.459 28.05 28.359 28.025C28.2445 27.9837 28.1446 27.9098 28.0715 27.8125C27.9465 27.6875 27.8965 27.5375 27.909 27.4C27.909 27.2625 27.984 27.1375 28.1215 27.025C28.2039 26.9457 28.3086 26.8933 28.4215 26.875C28.5311 26.8649 28.6409 26.8913 28.734 26.95L28.5465 27.2C28.5238 27.1834 28.4984 27.1707 28.4715 27.1625C28.4427 27.156 28.4128 27.156 28.384 27.1625C28.351 27.1714 28.3209 27.1886 28.2965 27.2125C28.234 27.2625 28.209 27.325 28.2215 27.4C28.2215 27.45 28.259 27.525 28.334 27.5875C28.409 27.6875 28.484 27.7375 28.534 27.75C28.5965 27.75 28.6465 27.75 28.6965 27.7C28.7465 27.65 28.7715 27.6125 28.7715 27.5625C28.7715 27.5125 28.759 27.45 28.7215 27.3875V27.3875ZM29.8965 26.9625L29.559 27.15L29.5965 27.3375L29.284 27.5L29.134 26.325L29.459 26.15L30.3465 26.9375L30.034 27.1L29.8965 26.9625ZM29.7215 26.7875L29.434 26.5L29.509 26.9L29.7215 26.7875ZM30.7715 25.6625L31.2715 25.575C31.3539 25.5575 31.4391 25.5575 31.5215 25.575C31.584 25.5875 31.634 25.6125 31.684 25.6625C31.734 25.7 31.7715 25.75 31.809 25.8125L31.859 26.025C31.884 26.15 31.884 26.2375 31.859 26.3C31.8485 26.3674 31.8229 26.4315 31.784 26.4875C31.7517 26.5343 31.7089 26.5728 31.659 26.6L31.459 26.6625L30.959 26.75L30.7715 25.6625ZM31.1465 25.85L31.2465 26.4375H31.334C31.3965 26.4125 31.459 26.4 31.4715 26.375C31.509 26.3625 31.5215 26.325 31.534 26.2875V26.0875C31.509 25.975 31.4715 25.9 31.434 25.8625C31.384 25.825 31.309 25.8125 31.234 25.8375L31.1465 25.85ZM32.184 25.475L33.0965 25.5V25.75L32.5215 25.725L32.509 25.9L33.034 25.9125V26.1375L32.4965 26.125V26.3375L33.084 26.3625L33.0715 26.6125L32.134 26.575L32.184 25.475ZM33.509 25.575L33.8465 25.65L33.6465 26.4625L34.159 26.5875L34.0965 26.85L33.2465 26.65L33.509 25.575ZM35.284 26.1625L35.7715 26.45C35.884 26.5125 35.9465 26.575 35.9715 26.6625C35.984 26.75 35.9715 26.8375 35.9215 26.925C35.899 26.9688 35.8672 27.0072 35.8284 27.0374C35.7895 27.0677 35.7445 27.089 35.6965 27.1C35.609 27.125 35.509 27.1 35.384 27.025L35.2215 26.9375L35.0215 27.2875L34.7215 27.1125L35.284 26.1625ZM35.3465 26.7375L35.409 26.7875L35.5465 26.825C35.5618 26.8223 35.5763 26.8165 35.5892 26.8078C35.6021 26.7992 35.6131 26.7881 35.6215 26.775C35.6325 26.7611 35.6405 26.7449 35.6448 26.7277C35.6491 26.7105 35.6497 26.6925 35.6465 26.675C35.634 26.6375 35.609 26.6125 35.5465 26.575L35.4715 26.525L35.3465 26.7375ZM36.2965 28.025L36.009 27.7625L35.8465 27.8625L35.5965 27.6125L36.6465 27.1L36.9215 27.35L36.4715 28.4375L36.2215 28.1875L36.2965 28.025ZM36.409 27.8L36.584 27.425L36.234 27.6375L36.409 27.8ZM36.534 28.5375L37.4465 27.9125L37.7715 28.375L37.8965 28.6L37.884 28.7625C37.859 28.8125 37.8215 28.8625 37.759 28.9C37.7173 28.937 37.6645 28.959 37.609 28.9625C37.5577 28.9667 37.5062 28.9581 37.459 28.9375C37.422 28.9177 37.3883 28.8924 37.359 28.8625V29.0375L37.3215 29.1125L37.1465 29.425L36.934 29.1125L37.109 28.775L37.1465 28.675C37.1465 28.65 37.1465 28.6125 37.1215 28.5875L37.0965 28.5625L36.7215 28.8125L36.534 28.5375ZM37.284 28.45L37.359 28.575L37.4215 28.625C37.4286 28.6354 37.4379 28.6441 37.4486 28.6506C37.4594 28.657 37.4715 28.6611 37.484 28.6625C37.4965 28.6625 37.5215 28.6625 37.5465 28.6375C37.5601 28.6298 37.5717 28.619 37.5804 28.606C37.5891 28.5929 37.5946 28.578 37.5965 28.5625L37.5465 28.4375L37.459 28.3125L37.284 28.45ZM37.6215 30.1L37.4715 29.7375L37.284 29.75L37.159 29.4375L38.334 29.4125L38.459 29.75L37.5965 30.55L37.4715 30.2125L37.6215 30.1ZM37.809 29.95L38.134 29.6875L37.7215 29.7125L37.809 29.95ZM38.0965 31.15L38.3215 31.1125L38.409 31.6375L37.934 31.7125C37.8641 31.6379 37.8051 31.5537 37.759 31.4625C37.6717 31.2751 37.6497 31.0639 37.6965 30.8625C37.734 30.775 37.784 30.7125 37.8715 30.65C37.9571 30.5904 38.0556 30.5518 38.159 30.5375C38.2676 30.5169 38.3798 30.5256 38.484 30.5625C38.581 30.5982 38.6642 30.6639 38.7215 30.75C38.759 30.825 38.7965 30.9125 38.809 31.0375C38.8235 31.1286 38.8235 31.2214 38.809 31.3125C38.8022 31.3711 38.7807 31.427 38.7465 31.475L38.584 31.6L38.4715 31.275C38.509 31.2625 38.534 31.2375 38.559 31.2C38.5715 31.1625 38.584 31.1125 38.5715 31.075C38.5696 31.0401 38.5595 31.0061 38.5422 30.9757C38.5248 30.9453 38.5006 30.9194 38.4715 30.9C38.409 30.8625 38.3215 30.8625 38.2215 30.875C38.0965 30.8875 38.009 30.925 37.9715 30.975C37.9487 31.0024 37.9323 31.0347 37.9237 31.0693C37.915 31.1039 37.9143 31.1401 37.9215 31.175L37.959 31.2875L38.034 31.3875H38.134L38.0965 31.15ZM38.8215 32.75L38.784 33.0875L38.134 33.0375C38.0733 33.0307 38.0141 33.0138 37.959 32.9875C37.9008 32.9624 37.8494 32.9239 37.809 32.875C37.7746 32.835 37.749 32.7881 37.734 32.7375C37.7146 32.6556 37.7103 32.5709 37.7215 32.4875C37.7215 32.4375 37.7215 32.375 37.7465 32.3125L37.7965 32.1625C37.8261 32.1178 37.8643 32.0796 37.909 32.05C37.946 32.021 37.9885 31.9997 38.034 31.9875C38.1003 31.9774 38.1677 31.9774 38.234 31.9875L38.884 32.0375L38.859 32.375L38.184 32.3125C38.1215 32.3125 38.0715 32.3125 38.034 32.35C37.9965 32.3875 37.984 32.425 37.9715 32.4875C37.9715 32.55 37.9715 32.5875 38.009 32.625C38.0465 32.6625 38.084 32.6875 38.1465 32.6875L38.8215 32.75ZM37.5965 33.925L37.7215 33.55L37.5715 33.4375L37.6715 33.1125L38.5965 33.85L38.4715 34.2L37.2965 34.25L37.4215 33.9125L37.5965 33.925ZM37.8465 33.925H38.259L37.9215 33.7L37.8465 33.925ZM38.2465 34.825L38.0465 35.15H37.6215L37.8215 35.525L37.6215 35.85L37.2965 35.15L36.8965 34.925L37.0715 34.625L37.4715 34.8625L38.2465 34.825Z" fill="black"/>
<g id="Group_2">
<path id="Vector_8" d="M33.3967 28.175C33.3967 28.175 36.5092 29.525 35.9592 32.3C35.4217 35.0625 33.6842 35.05 33.0092 35.35C32.3217 35.6625 31.8592 36.1 31.5842 36.0375C31.3217 35.975 30.9592 35.7625 30.9592 35.7625C30.9592 35.7625 30.9342 36.225 31.4842 36.3C32.0342 36.3875 32.7342 35.5875 33.0967 35.5C33.4592 35.4125 35.5467 35.175 36.0717 32.3625C36.6717 29.35 33.4092 28.2625 33.3967 28.175V28.175Z" fill="#009B3A" stroke="black" stroke-width="0.0125"/>
<path id="Vector_9" d="M34.959 28.775C34.9754 28.8633 34.982 28.9416 34.9779 28.9975C34.9738 29.0533 34.9591 29.0836 34.9362 29.0836C34.9133 29.0836 34.8835 29.0533 34.8514 28.9975C34.8193 28.9416 34.7868 28.8633 34.759 28.775C34.7398 28.7142 34.7235 28.6506 34.7113 28.5891C34.699 28.5276 34.6913 28.4698 34.6885 28.4201C34.6857 28.3705 34.688 28.3303 34.6952 28.3026C34.7025 28.275 34.7144 28.2606 34.7302 28.2606C34.7459 28.2606 34.7651 28.275 34.7862 28.3026C34.8072 28.3303 34.8297 28.3705 34.8518 28.4201C34.8738 28.4698 34.895 28.5276 34.9136 28.5891C34.9322 28.6506 34.9477 28.7142 34.959 28.775ZM34.859 28.8C34.8901 28.8561 34.919 28.9152 34.9437 28.9731C34.9683 29.0309 34.9881 29.086 35.0014 29.1343C35.0148 29.1827 35.0215 29.223 35.021 29.2524C35.0205 29.2818 35.0129 29.2995 34.9986 29.3043C34.9844 29.309 34.9639 29.3007 34.9386 29.2799C34.9134 29.259 34.884 29.2263 34.8526 29.184C34.8213 29.1416 34.7887 29.0908 34.7574 29.0352C34.7261 28.9796 34.6967 28.9206 34.6715 28.8625C34.6326 28.773 34.6054 28.6901 34.5945 28.6277C34.5836 28.5654 34.5897 28.5273 34.6116 28.52C34.6336 28.5127 34.6702 28.5365 34.7152 28.5875C34.7602 28.6384 34.811 28.7135 34.859 28.8V28.8ZM34.5465 29C34.6012 29.0161 34.655 29.0347 34.7049 29.055C34.7548 29.0752 34.7999 29.0965 34.8374 29.1177C34.8749 29.139 34.9042 29.1597 34.9236 29.1788C34.943 29.1978 34.9522 29.2148 34.9506 29.2287C34.9489 29.2427 34.9365 29.2533 34.9141 29.2601C34.8916 29.2668 34.8595 29.2695 34.8197 29.268C34.7799 29.2665 34.733 29.2608 34.6818 29.2513C34.6307 29.2418 34.5762 29.2286 34.5215 29.2125C34.411 29.18 34.3063 29.1376 34.2306 29.0947C34.1548 29.0518 34.1141 29.0119 34.1174 28.9837C34.1207 28.9555 34.1678 28.9414 34.2482 28.9445C34.3287 28.9475 34.436 28.9675 34.5465 29V29Z" fill="#009B3A" stroke="black" stroke-width="0.0125"/>
<path id="Vector_10" d="M34.5966 28.8875C34.6445 28.9197 34.6906 28.9539 34.7323 28.9881C34.7741 29.0223 34.8106 29.0559 34.8398 29.0868C34.869 29.1177 34.8903 29.1454 34.9026 29.1684C34.9148 29.1914 34.9178 29.2091 34.9112 29.2206C34.9046 29.2321 34.8887 29.2371 34.8643 29.2354C34.8399 29.2336 34.8076 29.2252 34.7691 29.2105C34.7306 29.1958 34.6867 29.1752 34.6399 29.1498C34.5932 29.1244 34.5445 29.0947 34.4966 29.0625C34.4414 29.03 34.3853 28.9928 34.3327 28.9537C34.2801 28.9147 34.2323 28.8749 34.193 28.8373C34.1537 28.7998 34.1238 28.7654 34.1058 28.7369C34.0877 28.7083 34.0819 28.6864 34.0887 28.6726C34.0956 28.6589 34.1149 28.6538 34.1453 28.6577C34.1757 28.6616 34.2163 28.6744 34.2641 28.6951C34.3118 28.7158 34.3655 28.7439 34.4209 28.7773C34.4764 28.8106 34.5322 28.8483 34.5841 28.8875H34.5966Z" fill="#009B3A" stroke="black" stroke-width="0.0125"/>
<path id="Vector_11" d="M34.7207 28.8375C34.7739 28.8812 34.8299 28.9338 34.8833 28.9901C34.9367 29.0463 34.9857 29.1044 35.0255 29.1586C35.0653 29.2128 35.0945 29.2614 35.1103 29.2995C35.1262 29.3377 35.1281 29.3641 35.1159 29.3763C35.1037 29.3885 35.0778 29.3861 35.0407 29.3691C35.0036 29.3522 34.9567 29.3215 34.9043 29.2798C34.8519 29.2382 34.796 29.1871 34.7419 29.1315C34.6878 29.0759 34.6375 29.0177 34.5957 28.9625C34.5516 28.9044 34.5187 28.8518 34.5005 28.8104C34.4823 28.7689 34.4794 28.7403 34.4923 28.7274C34.5051 28.7146 34.5332 28.718 34.5734 28.7374C34.6137 28.7568 34.6646 28.7914 34.7207 28.8375V28.8375Z" fill="#009B3A" stroke="black" stroke-width="0.0125"/>
<path id="Vector_12" d="M34.934 29.225L34.7965 29.3C34.759 29.3125 34.7215 29.2625 34.6465 29.3C34.5715 29.35 34.5215 29.425 34.4965 29.4625C34.484 29.5125 34.5215 29.525 34.6215 29.4875C34.709 29.4375 34.7465 29.3625 34.784 29.3375C34.8215 29.3 34.909 29.2625 34.9465 29.25L35.0715 29.0625C35.0965 29.0125 35.2215 28.9375 35.2715 28.825C35.309 28.75 35.2965 28.675 35.234 28.7C35.171 28.7459 35.1197 28.8058 35.084 28.875C35.0465 28.9375 35.084 29 35.0465 29.0625L34.934 29.225V29.225ZM35.909 29.55C35.9117 29.7331 35.8985 29.9047 35.8723 30.0271C35.8461 30.1496 35.809 30.2128 35.7692 30.2028C35.7295 30.1929 35.6902 30.1106 35.6602 29.9741C35.6301 29.8376 35.6117 29.6581 35.609 29.475C35.6076 29.3843 35.6102 29.2956 35.6164 29.2137C35.6227 29.1318 35.6326 29.0585 35.6456 28.9979C35.6586 28.9372 35.6744 28.8905 35.6921 28.8604C35.7097 28.8302 35.729 28.8173 35.7487 28.8222C35.7684 28.8271 35.7881 28.8498 35.8069 28.8891C35.8256 28.9283 35.8429 28.9833 35.8578 29.0509C35.8726 29.1185 35.8848 29.1973 35.8936 29.283C35.9024 29.3686 35.9076 29.4593 35.909 29.55V29.55Z" fill="#009B3A" stroke="black" stroke-width="0.0125"/>
<path id="Vector_13" d="M35.7468 29.5375C35.7846 29.7146 35.8058 29.885 35.8056 30.0114C35.8054 30.1378 35.7839 30.2097 35.7457 30.2114C35.7076 30.2131 35.656 30.1443 35.6023 30.0203C35.5486 29.8962 35.4971 29.7271 35.4593 29.55C35.4409 29.4631 35.4264 29.3771 35.4166 29.2968C35.4069 29.2166 35.402 29.1436 35.4024 29.0822C35.4027 29.0208 35.4082 28.972 35.4186 28.9388C35.429 28.9055 35.4441 28.8884 35.463 28.8884C35.4819 28.8884 35.5042 28.9055 35.5287 28.9388C35.5531 28.972 35.5793 29.0208 35.6057 29.0822C35.632 29.1436 35.658 29.2166 35.6823 29.2968C35.7065 29.3771 35.7284 29.4631 35.7468 29.55V29.5375Z" fill="#009B3A" stroke="black" stroke-width="0.0125"/>
<path id="Vector_14" d="M35.2458 29.7C35.3226 29.7464 35.4003 29.7993 35.4733 29.855C35.5462 29.9106 35.6126 29.9676 35.6675 30.0218C35.7225 30.0759 35.7646 30.1259 35.7908 30.168C35.817 30.2101 35.8266 30.2433 35.819 30.2652C35.8114 30.287 35.7868 30.297 35.7468 30.2944C35.7069 30.2918 35.6527 30.2766 35.5882 30.25C35.5236 30.2234 35.4505 30.186 35.3739 30.1406C35.2974 30.0952 35.2194 30.0429 35.1458 29.9875C35.077 29.9411 35.0103 29.8913 34.9493 29.8409C34.8883 29.7905 34.8342 29.7405 34.7903 29.6937C34.7463 29.647 34.7133 29.6044 34.693 29.5685C34.6728 29.5325 34.6657 29.5039 34.6723 29.4842C34.6789 29.4645 34.6989 29.4541 34.7313 29.4537C34.7637 29.4532 34.8077 29.4627 34.861 29.4816C34.9142 29.5005 34.9756 29.5284 35.0416 29.5637C35.1077 29.599 35.177 29.6411 35.2458 29.6875V29.7Z" fill="#009B3A" stroke="black" stroke-width="0.0125"/>
<path id="Vector_15" d="M35.3468 29.55C35.4604 29.6878 35.5595 29.8311 35.6223 29.9485C35.6851 30.0658 35.7064 30.1476 35.6815 30.1758C35.6566 30.204 35.5877 30.1762 35.4897 30.0987C35.3918 30.0212 35.2729 29.9003 35.1593 29.7625C35.103 29.6943 35.0497 29.624 35.0025 29.5556C34.9552 29.4872 34.9149 29.4221 34.8838 29.364C34.8527 29.3059 34.8315 29.2559 34.8213 29.2169C34.8112 29.1779 34.8123 29.1507 34.8246 29.1367C34.8369 29.1227 34.8602 29.1224 34.8931 29.1356C34.926 29.1488 34.9679 29.1754 35.0164 29.2137C35.0649 29.2521 35.119 29.3016 35.1757 29.3593C35.2324 29.417 35.2905 29.4818 35.3468 29.55Z" fill="#009B3A" stroke="black" stroke-width="0.0125"/>
<path id="Vector_16" d="M35.5455 29.5375C35.5904 29.6214 35.6319 29.7061 35.6674 29.7867C35.703 29.8673 35.7319 29.9423 35.7527 30.0074C35.7735 30.0726 35.7856 30.1265 35.7884 30.1662C35.7912 30.2059 35.7846 30.2305 35.769 30.2387C35.7534 30.2469 35.7291 30.2385 35.6975 30.214C35.6659 30.1895 35.6276 30.1493 35.5848 30.0958C35.542 30.0423 35.4955 29.9765 35.448 29.9022C35.4005 29.8278 35.3529 29.7464 35.308 29.6625C35.263 29.5786 35.2216 29.494 35.186 29.4133C35.1505 29.3327 35.1215 29.2577 35.1007 29.1926C35.08 29.1275 35.0679 29.0735 35.0651 29.0338C35.0623 28.9942 35.0689 28.9695 35.0845 28.9613C35.1001 28.9531 35.1244 28.9615 35.156 28.986C35.1876 29.0105 35.2259 29.0507 35.2687 29.1042C35.3115 29.1577 35.358 29.2235 35.4055 29.2978C35.453 29.3722 35.5005 29.4536 35.5455 29.5375V29.5375Z" fill="#009B3A" stroke="black" stroke-width="0.0125"/>
<path id="Vector_17" d="M35.7219 30.1875L35.4844 30.2375C35.4469 30.2375 35.4094 30.15 35.2844 30.175C35.1594 30.2 35.0594 30.2875 35.0344 30.3375C34.9844 30.3875 35.0344 30.4375 35.1844 30.4125C35.3344 30.3875 35.3844 30.2875 35.4594 30.275L35.7219 30.225L35.9469 30.0125C36.0094 29.95 36.1969 29.8875 36.2969 29.7625C36.3844 29.6625 36.3844 29.5625 36.2969 29.575C36.1959 29.6099 36.1055 29.6702 36.0344 29.75C35.9719 29.825 35.9844 29.9375 35.9094 30L35.7219 30.1875V30.1875ZM36.4094 30.8375C36.3946 30.9265 36.3764 31.0131 36.3559 31.0922C36.3353 31.1713 36.3128 31.2414 36.2895 31.2986C36.2663 31.3557 36.2429 31.3988 36.2205 31.4253C36.1982 31.4518 36.1774 31.4612 36.1594 31.453C36.1413 31.4448 36.1263 31.4191 36.1153 31.3774C36.1043 31.3358 36.0974 31.279 36.0951 31.2102C36.0928 31.1414 36.095 31.0621 36.1018 30.9767C36.1085 30.8913 36.1196 30.8015 36.1344 30.7125C36.1492 30.6234 36.1673 30.5369 36.1879 30.4578C36.2085 30.3787 36.231 30.3085 36.2542 30.2514C36.2774 30.1942 36.3009 30.1512 36.3232 30.1247C36.3455 30.0982 36.3663 30.0888 36.3844 30.097C36.4024 30.1052 36.4174 30.1309 36.4284 30.1725C36.4395 30.2142 36.4463 30.271 36.4487 30.3398C36.451 30.4085 36.4487 30.4879 36.442 30.5733C36.4352 30.6587 36.4242 30.7484 36.4094 30.8375V30.8375Z" fill="#009B3A" stroke="black" stroke-width="0.0125"/>
<path id="Vector_18" d="M36.2467 30.8C36.2563 30.9022 36.2611 31.0103 36.2607 31.1152C36.2602 31.22 36.2545 31.3188 36.2441 31.4034C36.2337 31.488 36.2188 31.5559 36.2006 31.6016C36.1825 31.6473 36.1617 31.6696 36.1398 31.6664C36.118 31.6633 36.0957 31.635 36.0749 31.5837C36.0541 31.5324 36.0354 31.4596 36.0202 31.3714C36.005 31.2832 35.9938 31.182 35.9876 31.0761C35.9813 30.9703 35.9802 30.8628 35.9842 30.7625C35.9797 30.6686 35.9793 30.5743 35.9828 30.4858C35.9864 30.3973 35.994 30.3165 36.005 30.2486C36.016 30.1806 36.0302 30.1271 36.0468 30.0914C36.0634 30.0557 36.0819 30.0386 36.1012 30.0412C36.1204 30.0438 36.1401 30.0661 36.1587 30.1066C36.1774 30.1472 36.1948 30.205 36.2096 30.2765C36.2245 30.3479 36.2366 30.4314 36.2452 30.5216C36.2537 30.6118 36.2585 30.7066 36.2592 30.8H36.2467Z" fill="#009B3A" stroke="black" stroke-width="0.0125"/>
<path id="Vector_19" d="M35.7455 30.85C35.8052 30.9085 35.8627 30.9706 35.9146 31.0326C35.9665 31.0946 36.0117 31.1552 36.0474 31.2108C36.0832 31.2663 36.1088 31.3157 36.1228 31.356C36.1367 31.3962 36.1387 31.4265 36.1286 31.4451C36.1185 31.4636 36.0965 31.4699 36.064 31.4638C36.0315 31.4576 35.989 31.439 35.9392 31.4091C35.8895 31.3792 35.8334 31.3387 35.7743 31.2898C35.7152 31.241 35.6544 31.185 35.5955 31.125C35.5277 31.0655 35.4595 30.9983 35.3961 30.9285C35.3326 30.8587 35.2755 30.7882 35.2292 30.7223C35.1828 30.6563 35.1485 30.5968 35.1287 30.5481C35.1089 30.4995 35.1042 30.463 35.115 30.4414C35.1258 30.4199 35.1518 30.4138 35.1909 30.4237C35.23 30.4337 35.2814 30.4593 35.341 30.4987C35.4005 30.5381 35.4668 30.5902 35.5347 30.6511C35.6027 30.712 35.6705 30.78 35.733 30.85H35.7455Z" fill="#009B3A" stroke="black" stroke-width="0.0125"/>
<path id="Vector_20" d="M35.8718 30.7375C35.9151 30.817 35.9552 30.898 35.9896 30.9759C36.024 31.0538 36.0521 31.1269 36.0723 31.1913C36.0925 31.2557 36.1044 31.3099 36.1074 31.351C36.1103 31.392 36.1042 31.419 36.0895 31.4305C36.0747 31.442 36.0515 31.4377 36.0213 31.4179C35.991 31.3981 35.9543 31.3631 35.9132 31.315C35.8721 31.2669 35.8274 31.2066 35.7817 31.1376C35.736 31.0685 35.6901 30.992 35.6468 30.9125C35.597 30.8294 35.5494 30.7409 35.5073 30.6534C35.4651 30.5658 35.4296 30.4813 35.4031 30.406C35.3765 30.3306 35.3598 30.2661 35.3539 30.2172C35.348 30.1684 35.3532 30.1362 35.3692 30.1231C35.3851 30.11 35.4113 30.1163 35.4459 30.1415C35.4806 30.1666 35.5228 30.2101 35.5696 30.2688C35.6164 30.3275 35.6666 30.3999 35.7167 30.4809C35.7668 30.5619 35.8154 30.6495 35.8593 30.7375H35.8718Z" fill="#009B3A" stroke="black" stroke-width="0.0125"/>
<path id="Vector_21" d="M36.0591 30.75C36.0885 30.8424 36.1143 30.9352 36.1352 31.0231C36.1561 31.111 36.1715 31.1922 36.1807 31.2622C36.1899 31.3322 36.1926 31.3895 36.1886 31.4309C36.1847 31.4724 36.1743 31.4971 36.1578 31.5036C36.1414 31.5102 36.1194 31.4985 36.093 31.4692C36.0666 31.4399 36.0363 31.3936 36.0039 31.3329C35.9715 31.2722 35.9376 31.1983 35.9042 31.1155C35.8708 31.0326 35.8385 30.9424 35.8091 30.85C35.7797 30.7576 35.7538 30.6648 35.7329 30.5769C35.7121 30.489 35.6966 30.4078 35.6874 30.3378C35.6783 30.2678 35.6756 30.2105 35.6795 30.169C35.6834 30.1276 35.6939 30.1029 35.7103 30.0963C35.7267 30.0898 35.7487 30.1015 35.7752 30.1308C35.8016 30.1601 35.8318 30.2064 35.8642 30.2671C35.8966 30.3278 35.9305 30.4017 35.9639 30.4845C35.9973 30.5674 36.0297 30.6576 36.0591 30.75Z" fill="#009B3A" stroke="black" stroke-width="0.0125"/>
<g id="Vector_22">
<path d="M36.1201 31.4375H35.8701C35.8326 31.4375 35.8201 31.3375 35.6951 31.3375C35.5701 31.3375 35.4451 31.4 35.4076 31.45C35.3576 31.4875 35.4076 31.55 35.5451 31.55C35.6951 31.55 35.7701 31.475 35.8451 31.4625H36.1076L36.3576 31.3C36.4326 31.25 36.6451 31.225 36.7576 31.125C36.8576 31.05 36.8826 30.9375 36.7951 30.95C36.6858 30.9645 36.5824 31.0076 36.4951 31.075C36.4201 31.125 36.4201 31.2375 36.3326 31.2875L36.1076 31.4375H36.1201ZM36.4451 32.275C36.3493 32.4279 36.2468 32.5626 36.1603 32.6496C36.0738 32.7366 36.0103 32.7687 35.9838 32.7389C35.9572 32.709 35.9699 32.6197 36.0189 32.4905C36.0679 32.3613 36.1493 32.2029 36.2451 32.05C36.341 31.8971 36.4434 31.7624 36.5299 31.6754C36.6165 31.5884 36.68 31.5563 36.7065 31.5861C36.733 31.616 36.7204 31.7053 36.6714 31.8345C36.6223 31.9637 36.541 32.1221 36.4451 32.275" fill="#009B3A"/>
<path d="M36.4451 32.275C36.3493 32.4279 36.2468 32.5626 36.1603 32.6496C36.0738 32.7366 36.0103 32.7687 35.9838 32.7389C35.9572 32.709 35.9699 32.6197 36.0189 32.4905C36.0679 32.3613 36.1493 32.2029 36.2451 32.05C36.341 31.8971 36.4434 31.7624 36.5299 31.6754C36.6165 31.5884 36.68 31.5563 36.7065 31.5861C36.733 31.616 36.7204 31.7053 36.6714 31.8345C36.6223 31.9637 36.541 32.1221 36.4451 32.275M36.1201 31.4375H35.8701C35.8326 31.4375 35.8201 31.3375 35.6951 31.3375C35.5701 31.3375 35.4451 31.4 35.4076 31.45C35.3576 31.4875 35.4076 31.55 35.5451 31.55C35.6951 31.55 35.7701 31.475 35.8451 31.4625H36.1076L36.3576 31.3C36.4326 31.25 36.6451 31.225 36.7576 31.125C36.8576 31.05 36.8826 30.9375 36.7951 30.95C36.6858 30.9645 36.5824 31.0076 36.4951 31.075C36.4201 31.125 36.4201 31.2375 36.3326 31.2875L36.1076 31.4375H36.1201Z" stroke="black" stroke-width="0.0125"/>
</g>
<g id="Vector_23">
<path d="M36.3215 32.175C36.2865 32.266 36.2488 32.3543 36.2105 32.4346C36.1723 32.515 36.1342 32.5859 36.0984 32.6433C36.0627 32.7007 36.03 32.7435 36.0022 32.7693C35.9744 32.795 35.952 32.8032 35.9365 32.7934C35.9209 32.7835 35.9123 32.7558 35.9113 32.7119C35.9102 32.6679 35.9168 32.6086 35.9305 32.5373C35.9442 32.4659 35.9648 32.3839 35.9911 32.296C36.0174 32.2081 36.049 32.116 36.084 32.025C36.1546 31.8411 36.2348 31.6726 36.307 31.5566C36.3792 31.4407 36.4375 31.3867 36.469 31.4066C36.5005 31.4265 36.5026 31.5186 36.4749 31.6627C36.4473 31.8068 36.3921 31.9911 36.3215 32.175V32.175ZM35.834 32.0125C35.8943 32.1689 35.9391 32.3294 35.9583 32.4587C35.9776 32.588 35.9698 32.6756 35.9366 32.7021C35.9035 32.7286 35.8477 32.6919 35.7816 32.6001C35.7154 32.5083 35.6443 32.3689 35.584 32.2125C35.5236 32.0561 35.4788 31.8956 35.4596 31.7663C35.4403 31.6369 35.4481 31.5494 35.4813 31.5229C35.5144 31.4963 35.5702 31.533 35.6364 31.6248C35.7025 31.7167 35.7736 31.8561 35.834 32.0125" fill="#009B3A"/>
<path d="M35.834 32.0125C35.8943 32.1689 35.9391 32.3294 35.9583 32.4587C35.9776 32.588 35.9698 32.6756 35.9366 32.7021C35.9035 32.7286 35.8477 32.6919 35.7816 32.6001C35.7154 32.5083 35.6443 32.3689 35.584 32.2125C35.5236 32.0561 35.4788 31.8956 35.4596 31.7663C35.4403 31.6369 35.4481 31.5494 35.4813 31.5229C35.5144 31.4963 35.5702 31.533 35.6364 31.6248C35.7025 31.7167 35.7736 31.8561 35.834 32.0125M36.3215 32.175C36.2865 32.266 36.2488 32.3543 36.2105 32.4346C36.1723 32.515 36.1342 32.5859 36.0984 32.6433C36.0627 32.7007 36.03 32.7435 36.0022 32.7693C35.9744 32.795 35.952 32.8032 35.9365 32.7934C35.9209 32.7835 35.9123 32.7558 35.9113 32.7119C35.9102 32.6679 35.9168 32.6086 35.9305 32.5373C35.9442 32.4659 35.9648 32.3839 35.9911 32.296C36.0174 32.2081 36.049 32.116 36.084 32.025C36.1546 31.8411 36.2348 31.6726 36.307 31.5566C36.3792 31.4407 36.4375 31.3867 36.469 31.4066C36.5005 31.4265 36.5026 31.5186 36.4749 31.6627C36.4473 31.8068 36.3921 31.9911 36.3215 32.175V32.175Z" stroke="black" stroke-width="0.0125"/>
</g>
<g id="Vector_24">
<path d="M35.9951 31.9625C36.0138 32.1662 36.0173 32.3654 36.0047 32.5165C35.9922 32.6675 35.9646 32.7579 35.9282 32.7679C35.8917 32.7778 35.8493 32.7065 35.8103 32.5695C35.7713 32.4325 35.7388 32.2412 35.7201 32.0375C35.7109 31.9367 35.7053 31.8358 35.7036 31.7408C35.702 31.6457 35.7043 31.5583 35.7106 31.4835C35.7168 31.4088 35.7268 31.3481 35.7399 31.3049C35.753 31.2618 35.7691 31.237 35.7871 31.2321C35.8052 31.2272 35.8249 31.2422 35.8451 31.2762C35.8654 31.3103 35.8857 31.3627 35.905 31.4305C35.9243 31.4983 35.9422 31.5802 35.9577 31.6715C35.9732 31.7628 35.9859 31.8617 35.9951 31.9625" fill="#009B3A"/>
<path d="M35.9951 31.9625C36.0138 32.1662 36.0173 32.3654 36.0047 32.5165C35.9922 32.6675 35.9646 32.7579 35.9282 32.7679C35.8917 32.7778 35.8493 32.7065 35.8103 32.5695C35.7713 32.4325 35.7388 32.2412 35.7201 32.0375C35.7109 31.9367 35.7053 31.8358 35.7036 31.7408C35.702 31.6457 35.7043 31.5583 35.7106 31.4835C35.7168 31.4088 35.7268 31.3481 35.7399 31.3049C35.753 31.2618 35.7691 31.237 35.7871 31.2321C35.8052 31.2272 35.8249 31.2422 35.8451 31.2762C35.8654 31.3103 35.8857 31.3627 35.905 31.4305C35.9243 31.4983 35.9422 31.5802 35.9577 31.6715C35.9732 31.7628 35.9859 31.8617 35.9951 31.9625" stroke="black" stroke-width="0.0125"/>
</g>
<g id="Vector_25">
<path d="M36.1719 32.0625C36.1624 32.1617 36.1494 32.2597 36.1337 32.3508C36.1179 32.4419 36.0998 32.5243 36.0803 32.5933C36.0608 32.6623 36.0403 32.7166 36.0199 32.7531C35.9996 32.7896 35.9798 32.8075 35.9618 32.8059C35.9437 32.8042 35.9277 32.783 35.9147 32.7435C35.9017 32.704 35.8918 32.647 35.8858 32.5756C35.8798 32.5043 35.8777 32.42 35.8796 32.3277C35.8815 32.2354 35.8874 32.1367 35.8969 32.0375C35.9065 31.9382 35.9195 31.8403 35.9352 31.7492C35.9509 31.6581 35.969 31.5757 35.9886 31.5067C36.0081 31.4376 36.0286 31.3833 36.0489 31.3469C36.0693 31.3104 36.089 31.2925 36.1071 31.2941C36.1251 31.2958 36.1411 31.3169 36.1542 31.3564C36.1672 31.3959 36.177 31.453 36.183 31.5243C36.189 31.5957 36.1912 31.6799 36.1893 31.7723C36.1873 31.8646 36.1815 31.9632 36.1719 32.0625" fill="#009B3A"/>
<path d="M36.1719 32.0625C36.1624 32.1617 36.1494 32.2597 36.1337 32.3508C36.1179 32.4419 36.0998 32.5243 36.0803 32.5933C36.0608 32.6623 36.0403 32.7166 36.0199 32.7531C35.9996 32.7896 35.9798 32.8075 35.9618 32.8059C35.9437 32.8042 35.9277 32.783 35.9147 32.7435C35.9017 32.704 35.8918 32.647 35.8858 32.5756C35.8798 32.5043 35.8777 32.42 35.8796 32.3277C35.8815 32.2354 35.8874 32.1367 35.8969 32.0375C35.9065 31.9382 35.9195 31.8403 35.9352 31.7492C35.9509 31.6581 35.969 31.5757 35.9886 31.5067C36.0081 31.4376 36.0286 31.3833 36.0489 31.3469C36.0693 31.3104 36.089 31.2925 36.1071 31.2941C36.1251 31.2958 36.1411 31.3169 36.1542 31.3564C36.1672 31.3959 36.177 31.453 36.183 31.5243C36.189 31.5957 36.1912 31.6799 36.1893 31.7723C36.1873 31.8646 36.1815 31.9632 36.1719 32.0625" stroke="black" stroke-width="0.0125"/>
</g>
<g id="Vector_26">
<path d="M35.947 32.7125L35.7345 32.6125C35.697 32.5875 35.722 32.5 35.6095 32.45C35.4845 32.4 35.3595 32.4 35.3095 32.425C35.247 32.45 35.2595 32.5125 35.397 32.5875C35.522 32.65 35.622 32.6 35.697 32.6375L35.947 32.7375L36.222 32.6875C36.3095 32.6875 36.5095 32.7375 36.647 32.6875C36.772 32.6625 36.8345 32.5625 36.7595 32.5375C36.6544 32.5035 36.5419 32.4992 36.4345 32.525C36.347 32.55 36.297 32.65 36.2095 32.675C36.147 32.675 35.9595 32.725 35.947 32.7125V32.7125ZM36.072 33.7375C35.9945 33.8041 35.9158 33.8658 35.8404 33.9191C35.7651 33.9725 35.6945 34.0164 35.6327 34.0484C35.571 34.0804 35.5192 34.0998 35.4805 34.1055C35.4417 34.1113 35.4167 34.1033 35.4068 34.0819C35.397 34.0606 35.4025 34.0264 35.4231 33.9812C35.4436 33.936 35.4788 33.8807 35.5267 33.8186C35.5745 33.7564 35.634 33.6885 35.7019 33.6189C35.7697 33.5492 35.8445 33.4791 35.922 33.4125C35.9977 33.3477 36.0745 33.2877 36.1479 33.2359C36.2213 33.1842 36.29 33.1417 36.3499 33.111C36.4099 33.0802 36.4599 33.0618 36.4973 33.0567C36.5346 33.0516 36.5584 33.0599 36.5675 33.0813C36.5765 33.1026 36.5705 33.1365 36.5499 33.181C36.5292 33.2256 36.4943 33.2798 36.4472 33.3408C36.4 33.4017 36.3415 33.4681 36.275 33.5362C36.2084 33.6042 36.1352 33.6727 36.0595 33.7375" fill="#009B3A"/>
<path d="M36.072 33.7375C35.9945 33.8041 35.9158 33.8658 35.8404 33.9191C35.7651 33.9725 35.6945 34.0164 35.6327 34.0484C35.571 34.0804 35.5192 34.0998 35.4805 34.1055C35.4417 34.1113 35.4167 34.1033 35.4068 34.0819C35.397 34.0606 35.4025 34.0264 35.4231 33.9812C35.4436 33.936 35.4788 33.8807 35.5267 33.8186C35.5745 33.7564 35.634 33.6885 35.7019 33.6189C35.7697 33.5492 35.8445 33.4791 35.922 33.4125C35.9977 33.3477 36.0745 33.2877 36.1479 33.2359C36.2213 33.1842 36.29 33.1417 36.3499 33.111C36.4099 33.0802 36.4599 33.0618 36.4973 33.0567C36.5346 33.0516 36.5584 33.0599 36.5675 33.0813C36.5765 33.1026 36.5705 33.1365 36.5499 33.181C36.5292 33.2256 36.4943 33.2798 36.4472 33.3408C36.4 33.4017 36.3415 33.4681 36.275 33.5362C36.2084 33.6042 36.1352 33.6727 36.0595 33.7375M35.947 32.7125L35.7345 32.6125C35.697 32.5875 35.722 32.5 35.6095 32.45C35.4845 32.4 35.3595 32.4 35.3095 32.425C35.247 32.45 35.2595 32.5125 35.397 32.5875C35.522 32.65 35.622 32.6 35.697 32.6375L35.947 32.7375L36.222 32.6875C36.3095 32.6875 36.5095 32.7375 36.647 32.6875C36.772 32.6625 36.8345 32.5625 36.7595 32.5375C36.6544 32.5035 36.5419 32.4992 36.4345 32.525C36.347 32.55 36.297 32.65 36.2095 32.675C36.147 32.675 35.9595 32.725 35.947 32.7125V32.7125Z" stroke="black" stroke-width="0.0125"/>
</g>
<g id="Vector_27">
<path d="M35.9452 33.5875C35.8786 33.6843 35.8042 33.7815 35.728 33.8715C35.6518 33.9615 35.5759 34.0417 35.5064 34.1057C35.4369 34.1698 35.3758 34.2158 35.3278 34.2403C35.2798 34.2647 35.2463 34.2668 35.23 34.2465C35.2137 34.2262 35.2151 34.1839 35.234 34.1231C35.2529 34.0623 35.2888 33.9846 35.3389 33.8963C35.3889 33.808 35.4517 33.7115 35.5223 33.6144C35.5929 33.5174 35.6692 33.4226 35.7452 33.3375C35.8119 33.2407 35.8863 33.1434 35.9625 33.0535C36.0387 32.9635 36.1145 32.8833 36.184 32.8192C36.2535 32.7552 36.3147 32.7091 36.3627 32.6847C36.4107 32.6603 36.4441 32.6581 36.4604 32.6785C36.4767 32.6988 36.4753 32.7411 36.4564 32.8019C36.4375 32.8627 36.4016 32.9404 36.3516 33.0287C36.3015 33.117 36.2387 33.2135 36.1681 33.3105C36.0976 33.4076 36.0213 33.5024 35.9452 33.5875" fill="#009B3A"/>
<path d="M35.9452 33.5875C35.8786 33.6843 35.8042 33.7815 35.728 33.8715C35.6518 33.9615 35.5759 34.0417 35.5064 34.1057C35.4369 34.1698 35.3758 34.2158 35.3278 34.2403C35.2798 34.2647 35.2463 34.2668 35.23 34.2465C35.2137 34.2262 35.2151 34.1839 35.234 34.1231C35.2529 34.0623 35.2888 33.9846 35.3389 33.8963C35.3889 33.808 35.4517 33.7115 35.5223 33.6144C35.5929 33.5174 35.6692 33.4226 35.7452 33.3375C35.8119 33.2407 35.8863 33.1434 35.9625 33.0535C36.0387 32.9635 36.1145 32.8833 36.184 32.8192C36.2535 32.7552 36.3147 32.7091 36.3627 32.6847C36.4107 32.6603 36.4441 32.6581 36.4604 32.6785C36.4767 32.6988 36.4753 32.7411 36.4564 32.8019C36.4375 32.8627 36.4016 32.9404 36.3516 33.0287C36.3015 33.117 36.2387 33.2135 36.1681 33.3105C36.0976 33.4076 36.0213 33.5024 35.9452 33.5875" stroke="black" stroke-width="0.0125"/>
</g>
<g id="Vector_28">
<path d="M35.4718 33.225C35.4794 33.3253 35.4828 33.4263 35.4817 33.5221C35.4806 33.618 35.475 33.7068 35.4653 33.7836C35.4556 33.8603 35.442 33.9235 35.4252 33.9695C35.4084 34.0155 35.3888 34.0434 35.3674 34.0516C35.3461 34.0598 35.3234 34.0481 35.3008 34.0173C35.2782 33.9865 35.256 33.9371 35.2355 33.872C35.215 33.8068 35.1966 33.7272 35.1814 33.6376C35.1662 33.5481 35.1544 33.4503 35.1468 33.35C35.1392 33.2496 35.1358 33.1487 35.1369 33.0528C35.138 32.957 35.1436 32.8681 35.1533 32.7914C35.163 32.7146 35.1766 32.6515 35.1934 32.6055C35.2102 32.5595 35.2298 32.5316 35.2512 32.5234C35.2725 32.5152 35.2951 32.5268 35.3178 32.5576C35.3404 32.5885 35.3626 32.6379 35.3831 32.703C35.4036 32.7681 35.422 32.8478 35.4372 32.9373C35.4524 33.0269 35.4642 33.1246 35.4718 33.225" fill="#009B3A"/>
<path d="M35.4718 33.225C35.4794 33.3253 35.4828 33.4263 35.4817 33.5221C35.4806 33.618 35.475 33.7068 35.4653 33.7836C35.4556 33.8603 35.442 33.9235 35.4252 33.9695C35.4084 34.0155 35.3888 34.0434 35.3674 34.0516C35.3461 34.0598 35.3234 34.0481 35.3008 34.0173C35.2782 33.9865 35.256 33.9371 35.2355 33.872C35.215 33.8068 35.1966 33.7272 35.1814 33.6376C35.1662 33.5481 35.1544 33.4503 35.1468 33.35C35.1392 33.2496 35.1358 33.1487 35.1369 33.0528C35.138 32.957 35.1436 32.8681 35.1533 32.7914C35.163 32.7146 35.1766 32.6515 35.1934 32.6055C35.2102 32.5595 35.2298 32.5316 35.2512 32.5234C35.2725 32.5152 35.2951 32.5268 35.3178 32.5576C35.3404 32.5885 35.3626 32.6379 35.3831 32.703C35.4036 32.7681 35.422 32.8478 35.4372 32.9373C35.4524 33.0269 35.4642 33.1246 35.4718 33.225" stroke="black" stroke-width="0.0125"/>
</g>
<path id="Vector_29" d="M35.6586 33.225C35.6168 33.3831 35.5683 33.5208 35.5204 33.6176C35.4724 33.7143 35.4276 33.7651 35.3925 33.7623C35.3575 33.7595 35.334 33.7033 35.3257 33.602C35.3173 33.5007 35.3245 33.3597 35.3461 33.2C35.3619 33.0841 35.3847 32.9622 35.4128 32.844C35.4408 32.7258 35.4734 32.6145 35.5079 32.5191C35.5424 32.4238 35.5778 32.3469 35.6114 32.2946C35.6449 32.2424 35.6756 32.2162 35.701 32.2183C35.7265 32.2203 35.746 32.2505 35.7579 32.3064C35.7698 32.3622 35.7739 32.4423 35.7698 32.5401C35.7656 32.6379 35.7534 32.7508 35.7342 32.8697C35.7149 32.9886 35.689 33.1103 35.6586 33.225Z" fill="#009B3A" stroke="black" stroke-width="0.0125"/>
<g id="Vector_30">
<path d="M35.8208 33.3875C35.7802 33.4877 35.7362 33.5854 35.6915 33.6752C35.6467 33.7649 35.602 33.8448 35.56 33.9105C35.5179 33.9761 35.4793 34.0261 35.4463 34.0576C35.4133 34.0891 35.3866 34.1015 35.3677 34.0941C35.3296 34.0792 35.3256 33.9845 35.3567 33.8309C35.3877 33.6773 35.4513 33.4773 35.5333 33.275C35.5747 33.1734 35.6194 33.0743 35.6648 32.9835C35.7103 32.8928 35.7556 32.812 35.7982 32.746C35.8408 32.6799 35.8799 32.6298 35.9132 32.5984C35.9464 32.5671 35.9733 32.5552 35.9922 32.5634C36.011 32.5716 36.0216 32.5998 36.0232 32.6463C36.0248 32.6928 36.0174 32.7567 36.0015 32.8343C35.9856 32.912 35.9615 33.002 35.9305 33.099C35.8995 33.1961 35.8622 33.2984 35.8208 33.4" fill="#009B3A"/>
<path d="M35.8208 33.3875C35.7802 33.4877 35.7362 33.5854 35.6915 33.6752C35.6467 33.7649 35.602 33.8448 35.56 33.9105C35.5179 33.9761 35.4793 34.0261 35.4463 34.0576C35.4133 34.0891 35.3866 34.1015 35.3677 34.0941C35.3296 34.0792 35.3256 33.9845 35.3567 33.8309C35.3877 33.6773 35.4513 33.4773 35.5333 33.275C35.5747 33.1734 35.6194 33.0743 35.6648 32.9835C35.7103 32.8928 35.7556 32.812 35.7982 32.746C35.8408 32.6799 35.8799 32.6298 35.9132 32.5984C35.9464 32.5671 35.9733 32.5552 35.9922 32.5634C36.011 32.5716 36.0216 32.5998 36.0232 32.6463C36.0248 32.6928 36.0174 32.7567 36.0015 32.8343C35.9856 32.912 35.9615 33.002 35.9305 33.099C35.8995 33.1961 35.8622 33.2984 35.8208 33.4" stroke="black" stroke-width="0.0125"/>
</g>
<path id="Vector_31" d="M35.3712 34.0375L35.1587 33.85C35.1337 33.8125 35.1837 33.725 35.0712 33.625C34.982 33.5447 34.8663 33.5002 34.7462 33.5C34.6712 33.5 34.6712 33.575 34.7962 33.7C34.9212 33.825 35.0462 33.8 35.1087 33.8625C35.1959 33.919 35.2757 33.9862 35.3462 34.0625L35.6837 34.1125C35.7712 34.125 35.9712 34.275 36.1462 34.275C36.2962 34.275 36.3962 34.2 36.3087 34.1375C36.209 34.0671 36.0927 34.024 35.9712 34.0125C35.8587 34.0125 35.7712 34.1 35.6587 34.0875L35.3587 34.0375H35.3712ZM35.0587 35.0125C34.9398 35.0393 34.8162 35.0603 34.6973 35.0739C34.5784 35.0876 34.4674 35.0935 34.3728 35.0912C34.2782 35.089 34.2025 35.0786 34.1514 35.0609C34.1004 35.0432 34.0754 35.0187 34.0784 34.9892C34.0813 34.9596 34.1121 34.9259 34.1685 34.8906C34.2248 34.8553 34.3052 34.8192 34.4034 34.7853C34.5016 34.7514 34.6151 34.7204 34.7352 34.6948C34.8553 34.6692 34.9788 34.6496 35.0962 34.6375C35.2151 34.6107 35.3388 34.5897 35.4577 34.5761C35.5766 34.5624 35.6876 34.5565 35.7822 34.5588C35.8768 34.561 35.9525 34.5714 36.0035 34.5891C36.0545 34.6068 36.0795 34.6313 36.0766 34.6608C36.0736 34.6904 36.0428 34.7241 35.9865 34.7594C35.9301 34.7948 35.8498 34.8308 35.7516 34.8647C35.6533 34.8986 35.5398 34.9296 35.4198 34.9552C35.2997 34.9808 35.1762 35.0004 35.0587 35.0125Z" fill="#009B3A" stroke="black" stroke-width="0.0125"/>
<g id="Vector_32">
<path d="M35.0457 34.8C34.8465 34.8727 34.6578 34.9238 34.517 34.9432C34.3762 34.9627 34.2937 34.949 34.2858 34.9049C34.2779 34.8608 34.3453 34.7895 34.4745 34.7052C34.6037 34.6209 34.7853 34.5298 34.9832 34.45C35.1823 34.3773 35.3711 34.3262 35.5119 34.3067C35.6527 34.2873 35.7352 34.301 35.7431 34.3451C35.751 34.3892 35.6836 34.4605 35.5544 34.5448C35.4252 34.6291 35.2436 34.7202 35.0457 34.8" fill="#009B3A"/>
<path d="M35.0457 34.8C34.8465 34.8727 34.6578 34.9238 34.517 34.9432C34.3762 34.9627 34.2937 34.949 34.2858 34.9049C34.2779 34.8608 34.3453 34.7895 34.4745 34.7052C34.6037 34.6209 34.7853 34.5298 34.9832 34.45C35.1823 34.3773 35.3711 34.3262 35.5119 34.3067C35.6527 34.2873 35.7352 34.301 35.7431 34.3451C35.751 34.3892 35.6836 34.4605 35.5544 34.5448C35.4252 34.6291 35.2436 34.7202 35.0457 34.8" stroke="black" stroke-width="0.0125"/>
</g>
<g id="Vector_33">
<path d="M34.7592 34.1875C34.6704 34.3581 34.5733 34.5101 34.4853 34.6163C34.3972 34.7225 34.3241 34.7758 34.2789 34.7668C34.2338 34.7578 34.2196 34.687 34.2389 34.567C34.2581 34.4471 34.3097 34.286 34.3842 34.1125C34.4295 34.0069 34.4819 33.9002 34.5378 33.7996C34.5937 33.699 34.6517 33.6069 34.7078 33.5298C34.7639 33.4527 34.8168 33.3923 34.8628 33.3529C34.9089 33.3135 34.947 33.2959 34.9744 33.3014C35.0019 33.3069 35.0181 33.3353 35.022 33.3847C35.0259 33.4341 35.0173 33.5034 34.9968 33.5876C34.9763 33.6719 34.9445 33.7691 34.9035 33.8727C34.8624 33.9763 34.8132 34.0837 34.7592 34.1875" fill="#009B3A"/>
<path d="M34.7592 34.1875C34.6704 34.3581 34.5733 34.5101 34.4853 34.6163C34.3972 34.7225 34.3241 34.7758 34.2789 34.7668C34.2338 34.7578 34.2196 34.687 34.2389 34.567C34.2581 34.4471 34.3097 34.286 34.3842 34.1125C34.4295 34.0069 34.4819 33.9002 34.5378 33.7996C34.5937 33.699 34.6517 33.6069 34.7078 33.5298C34.7639 33.4527 34.8168 33.3923 34.8628 33.3529C34.9089 33.3135 34.947 33.2959 34.9744 33.3014C35.0019 33.3069 35.0181 33.3353 35.022 33.3847C35.0259 33.4341 35.0173 33.5034 34.9968 33.5876C34.9763 33.6719 34.9445 33.7691 34.9035 33.8727C34.8624 33.9763 34.8132 34.0837 34.7592 34.1875" stroke="black" stroke-width="0.0125"/>
</g>
<g id="Vector_34">
<path d="M34.9585 34.3C34.804 34.4748 34.6401 34.6319 34.5027 34.7368C34.3653 34.8417 34.2658 34.8857 34.226 34.8592C34.2063 34.846 34.2019 34.816 34.213 34.7707C34.224 34.7255 34.2504 34.6659 34.2906 34.5954C34.3717 34.453 34.504 34.2748 34.6585 34.1C34.813 33.9252 34.9769 33.768 35.1143 33.6632C35.2516 33.5583 35.3512 33.5143 35.3909 33.5408C35.4307 33.5673 35.4075 33.6622 35.3264 33.8046C35.2453 33.947 35.113 34.1252 34.9585 34.3" fill="#009B3A"/>
<path d="M34.9585 34.3C34.804 34.4748 34.6401 34.6319 34.5027 34.7368C34.3653 34.8417 34.2658 34.8857 34.226 34.8592C34.2063 34.846 34.2019 34.816 34.213 34.7707C34.224 34.7255 34.2504 34.6659 34.2906 34.5954C34.3717 34.453 34.504 34.2748 34.6585 34.1C34.813 33.9252 34.9769 33.768 35.1143 33.6632C35.2516 33.5583 35.3512 33.5143 35.3909 33.5408C35.4307 33.5673 35.4075 33.6622 35.3264 33.8046C35.2453 33.947 35.113 34.1252 34.9585 34.3" stroke="black" stroke-width="0.0125"/>
</g>
<g id="Vector_35">
<path d="M35.0081 34.55C34.9123 34.6267 34.8118 34.7004 34.7134 34.7661C34.6151 34.8318 34.521 34.888 34.4374 34.9311C34.3538 34.9742 34.2826 35.0031 34.2285 35.016C34.1743 35.0289 34.1385 35.0254 34.1234 35.0058C34.1083 34.9863 34.1142 34.951 34.1407 34.9024C34.1672 34.8539 34.2138 34.793 34.2773 34.724C34.3408 34.6549 34.4199 34.5792 34.5092 34.5018C34.5985 34.4244 34.6962 34.3471 34.7956 34.275C34.9827 34.132 35.174 34.0094 35.3274 33.9342C35.4808 33.8589 35.5837 33.8371 35.6136 33.8735C35.6434 33.91 35.5977 34.0017 35.4865 34.1286C35.3753 34.2555 35.2077 34.407 35.0206 34.55" fill="#009B3A"/>
<path d="M35.0081 34.55C34.9123 34.6267 34.8118 34.7004 34.7134 34.7661C34.6151 34.8318 34.521 34.888 34.4374 34.9311C34.3538 34.9742 34.2826 35.0031 34.2285 35.016C34.1743 35.0289 34.1385 35.0254 34.1234 35.0058C34.1083 34.9863 34.1142 34.951 34.1407 34.9024C34.1672 34.8539 34.2138 34.793 34.2773 34.724C34.3408 34.6549 34.4199 34.5792 34.5092 34.5018C34.5985 34.4244 34.6962 34.3471 34.7956 34.275C34.9827 34.132 35.174 34.0094 35.3274 33.9342C35.4808 33.8589 35.5837 33.8371 35.6136 33.8735C35.6434 33.91 35.5977 34.0017 35.4865 34.1286C35.3753 34.2555 35.2077 34.407 35.0206 34.55" stroke="black" stroke-width="0.0125"/>
</g>
<g id="Vector_36">
<path d="M34.2204 34.9L34.1329 34.6125C34.1204 34.55 34.2204 34.4875 34.1704 34.3375C34.1282 34.2062 34.0392 34.095 33.9204 34.025C33.8579 33.9875 33.7954 34.0625 33.8579 34.25C33.9079 34.4375 34.0454 34.5 34.0829 34.5875L34.1829 34.9125C34.2579 34.95 34.3954 35.0875 34.4829 35.1625C34.5704 35.225 34.6829 35.475 34.8579 35.575C34.9829 35.6625 35.1079 35.65 35.0829 35.5375C35.0234 35.4127 34.9331 35.3051 34.8204 35.225C34.7204 35.15 34.5704 35.1875 34.4829 35.1125C34.4204 35.0625 34.2204 34.9125 34.2329 34.9" fill="#009B3A"/>
<path d="M34.2204 34.9L34.1329 34.6125C34.1204 34.55 34.2204 34.4875 34.1704 34.3375C34.1282 34.2062 34.0392 34.095 33.9204 34.025C33.8579 33.9875 33.7954 34.0625 33.8579 34.25C33.9079 34.4375 34.0454 34.5 34.0829 34.5875L34.1829 34.9125C34.2579 34.95 34.3954 35.0875 34.4829 35.1625C34.5704 35.225 34.6829 35.475 34.8579 35.575C34.9829 35.6625 35.1079 35.65 35.0829 35.5375C35.0234 35.4127 34.9331 35.3051 34.8204 35.225C34.7204 35.15 34.5704 35.1875 34.4829 35.1125C34.4204 35.0625 34.2204 34.9125 34.2329 34.9" stroke="black" stroke-width="0.0125"/>
</g>
<g id="Vector_37">
<path d="M33.7461 35.7375C33.533 35.7399 33.3299 35.7176 33.1804 35.6756C33.031 35.6335 32.9473 35.5751 32.9473 35.5128C32.9473 35.4504 33.031 35.3893 33.1804 35.3425C33.3299 35.2957 33.533 35.2669 33.7461 35.2625C33.9592 35.2601 34.1623 35.2824 34.3118 35.3244C34.4612 35.3665 34.5449 35.4249 34.5449 35.4872C34.5449 35.5496 34.4612 35.6107 34.3118 35.6575C34.1623 35.7043 33.9592 35.7331 33.7461 35.7375" fill="#009B3A"/>
<path d="M33.7461 35.7375C33.533 35.7399 33.3299 35.7176 33.1804 35.6756C33.031 35.6335 32.9473 35.5751 32.9473 35.5128C32.9473 35.4504 33.031 35.3893 33.1804 35.3425C33.3299 35.2957 33.533 35.2669 33.7461 35.2625C33.9592 35.2601 34.1623 35.2824 34.3118 35.3244C34.4612 35.3665 34.5449 35.4249 34.5449 35.4872C34.5449 35.5496 34.4612 35.6107 34.3118 35.6575C34.1623 35.7043 33.9592 35.7331 33.7461 35.7375" stroke="black" stroke-width="0.0125"/>
</g>
<g id="Vector_38">
<path d="M33.6345 35C33.4931 35.1822 33.3391 35.3411 33.2063 35.4418C33.0735 35.5425 32.9728 35.5767 32.9264 35.537C32.88 35.4972 32.8917 35.3867 32.9588 35.2297C33.026 35.0727 33.1431 34.8822 33.2845 34.7C33.4259 34.5178 33.5799 34.3589 33.7127 34.2582C33.8455 34.1575 33.9462 34.1232 33.9926 34.163C34.039 34.2028 34.0273 34.3133 33.9602 34.4703C33.893 34.6272 33.7759 34.8178 33.6345 35" fill="#009B3A"/>
<path d="M33.6345 35C33.4931 35.1822 33.3391 35.3411 33.2063 35.4418C33.0735 35.5425 32.9728 35.5767 32.9264 35.537C32.88 35.4972 32.8917 35.3867 32.9588 35.2297C33.026 35.0727 33.1431 34.8822 33.2845 34.7C33.4259 34.5178 33.5799 34.3589 33.7127 34.2582C33.8455 34.1575 33.9462 34.1232 33.9926 34.163C34.039 34.2028 34.0273 34.3133 33.9602 34.4703C33.893 34.6272 33.7759 34.8178 33.6345 35" stroke="black" stroke-width="0.0125"/>
</g>
<g id="Vector_39">
<path d="M33.7463 35.375C33.5702 35.439 33.4049 35.4784 33.2785 35.4864C33.1521 35.4945 33.0725 35.4706 33.0533 35.4189C33.0342 35.3673 33.0766 35.291 33.1733 35.2032C33.27 35.1154 33.4151 35.0215 33.5838 34.9375C33.7598 34.8735 33.9251 34.8341 34.0515 34.8261C34.1779 34.818 34.2575 34.8419 34.2767 34.8936C34.2959 34.9452 34.2535 35.0215 34.1567 35.1093C34.06 35.1971 33.9149 35.291 33.7463 35.375V35.375ZM33.9713 28.25C34.0613 28.334 34.1362 28.4169 34.1813 28.4823C34.2264 28.5477 34.2384 28.5909 34.2149 28.6034C34.1914 28.616 34.1341 28.5969 34.0543 28.55C33.9745 28.5031 33.878 28.4318 33.7838 28.35C33.7313 28.3045 33.6812 28.2572 33.6365 28.2111C33.5919 28.1649 33.5538 28.121 33.5246 28.0821C33.4954 28.0432 33.4758 28.0102 33.467 27.9851C33.4582 27.96 33.4604 27.9435 33.4734 27.9365C33.4865 27.9296 33.5102 27.9323 33.5429 27.9446C33.5756 27.9569 33.6167 27.9785 33.6636 28.008C33.7104 28.0375 33.762 28.0742 33.8149 28.1159C33.8679 28.1576 33.9211 28.2032 33.9713 28.25V28.25ZM33.7213 28.4625C33.8594 28.4806 33.9938 28.5092 34.095 28.542C34.1962 28.5747 34.2559 28.609 34.2608 28.6372C34.2658 28.6653 34.2157 28.6852 34.1215 28.6923C34.0274 28.6993 33.8969 28.6931 33.7588 28.675C33.6206 28.6569 33.4862 28.6283 33.385 28.5955C33.2838 28.5628 33.2242 28.5285 33.2192 28.5003C33.2142 28.4722 33.2643 28.4523 33.3585 28.4452C33.4526 28.4382 33.5831 28.4444 33.7213 28.4625" fill="#009B3A"/>
<path d="M33.7213 28.4625C33.8594 28.4806 33.9938 28.5092 34.095 28.542C34.1962 28.5747 34.2559 28.609 34.2608 28.6372C34.2658 28.6653 34.2157 28.6852 34.1215 28.6923C34.0274 28.6993 33.8969 28.6931 33.7588 28.675C33.6206 28.6569 33.4862 28.6283 33.385 28.5955C33.2838 28.5628 33.2242 28.5285 33.2192 28.5003C33.2142 28.4722 33.2643 28.4523 33.3585 28.4452C33.4526 28.4382 33.5831 28.4444 33.7213 28.4625M33.7463 35.375C33.5702 35.439 33.4049 35.4784 33.2785 35.4864C33.1521 35.4945 33.0725 35.4706 33.0533 35.4189C33.0342 35.3673 33.0766 35.291 33.1733 35.2032C33.27 35.1154 33.4151 35.0215 33.5838 34.9375C33.7598 34.8735 33.9251 34.8341 34.0515 34.8261C34.1779 34.818 34.2575 34.8419 34.2767 34.8936C34.2959 34.9452 34.2535 35.0215 34.1567 35.1093C34.06 35.1971 33.9149 35.291 33.7463 35.375V35.375ZM33.9713 28.25C34.0613 28.334 34.1362 28.4169 34.1813 28.4823C34.2264 28.5477 34.2384 28.5909 34.2149 28.6034C34.1914 28.616 34.1341 28.5969 34.0543 28.55C33.9745 28.5031 33.878 28.4318 33.7838 28.35C33.7313 28.3045 33.6812 28.2572 33.6365 28.2111C33.5919 28.1649 33.5538 28.121 33.5246 28.0821C33.4954 28.0432 33.4758 28.0102 33.467 27.9851C33.4582 27.96 33.4604 27.9435 33.4734 27.9365C33.4865 27.9296 33.5102 27.9323 33.5429 27.9446C33.5756 27.9569 33.6167 27.9785 33.6636 28.008C33.7104 28.0375 33.762 28.0742 33.8149 28.1159C33.8679 28.1576 33.9211 28.2032 33.9713 28.25V28.25Z" stroke="black" stroke-width="0.0125"/>
</g>
<path id="Vector_40" d="M33.8203 28.325C33.9483 28.3899 34.0657 28.4614 34.1468 28.5237C34.2279 28.586 34.266 28.6341 34.2527 28.6573C34.2395 28.6805 34.1759 28.6769 34.0761 28.6474C33.9762 28.618 33.8483 28.5649 33.7203 28.5C33.657 28.4679 33.5955 28.4338 33.5395 28.3997C33.4835 28.3656 33.434 28.3321 33.3938 28.3013C33.3127 28.239 33.2746 28.1909 33.2879 28.1677C33.3011 28.1445 33.3647 28.1481 33.4645 28.1775C33.5644 28.207 33.6924 28.2601 33.8203 28.325V28.325ZM30.1328 34.9375C30.1328 34.9375 30.8203 35.0875 31.4203 35.3C32.0078 35.5125 32.9203 36.2625 33.1703 36.3C33.4328 36.3125 33.8078 36.225 33.9578 35.825C33.5328 35.95 33.2828 36.1125 32.8828 35.8875C32.7453 35.8375 32.2828 35.4125 31.7578 35.1875C31.2601 34.9935 30.7508 34.8307 30.2328 34.7L30.1328 34.9375V34.9375ZM30.8703 28.7375L31.6578 28.3125L30.7828 28.5375L30.6828 28.6875L30.8703 28.7375Z" fill="#009B3A" stroke="black" stroke-width="0.0125"/>
<g id="Vector_41">
<path d="M31.6207 28.925C31.3082 28.875 30.8332 28.7625 30.5332 28.7375C30.7457 28.5125 31.0332 28.125 31.2082 27.8875C31.0832 28.1125 30.9082 28.4125 30.8332 28.6375C31.0457 28.75 31.3832 28.8375 31.6207 28.925" fill="#009B3A"/>
<path d="M31.6207 28.925C31.3082 28.875 30.8332 28.7625 30.5332 28.7375C30.7457 28.5125 31.0332 28.125 31.2082 27.8875C31.0832 28.1125 30.9082 28.4125 30.8332 28.6375C31.0457 28.75 31.3832 28.8375 31.6207 28.925" stroke="black" stroke-width="0.0125"/>
</g>
<g id="Vector_42">
<path d="M30.7207 28.7875L31.4207 28.2375L30.6082 28.6125L30.5332 28.775H30.7207" fill="#009B3A"/>
<path d="M30.7207 28.7875L31.4207 28.2375L30.6082 28.6125L30.5332 28.775H30.7207" stroke="black" stroke-width="0.0125"/>
</g>
<path id="Vector_43" d="M31.4715 28.9125C31.159 28.8625 30.6965 28.75 30.3965 28.725C30.5965 28.4875 30.8715 28.1 31.0465 27.85C30.9215 28.075 30.759 28.3875 30.684 28.6125C30.8965 28.7375 31.234 28.825 31.4715 28.9125Z" fill="#009B3A" stroke="black" stroke-width="0.0125"/>
<path id="Vector_44" d="M30.6094 28.825L31.4344 28.4875L30.5469 28.625L30.4219 28.775L30.6094 28.825Z" fill="#009B3A" stroke="black" stroke-width="0.0125"/>
<g id="Vector_45">
<path d="M31.3707 28.925C31.0707 28.9 30.5832 28.8375 30.2832 28.85C30.4582 28.5875 30.6832 28.15 30.8332 27.8875C30.7457 28.1375 30.6082 28.4625 30.5707 28.7C30.7957 28.8 31.1332 28.8625 31.3832 28.925" fill="#009B3A"/>
<path d="M31.3707 28.925C31.0707 28.9 30.5832 28.8375 30.2832 28.85C30.4582 28.5875 30.6832 28.15 30.8332 27.8875C30.7457 28.1375 30.6082 28.4625 30.5707 28.7C30.7957 28.8 31.1332 28.8625 31.3832 28.925" stroke="black" stroke-width="0.0125"/>
</g>
<g id="Vector_46">
<path d="M30.5207 28.8375L31.0832 28.15L30.3707 28.675L30.3457 28.8625L30.5207 28.825" fill="#009B3A"/>
<path d="M30.5207 28.8375L31.0832 28.15L30.3707 28.675L30.3457 28.8625L30.5207 28.825" stroke="black" stroke-width="0.0125"/>
</g>
<path id="Vector_47" d="M31.3715 28.975C31.0465 28.975 30.5215 28.9375 30.209 28.975C30.3715 28.6625 30.559 28.175 30.684 27.875C30.6215 28.15 30.509 28.525 30.484 28.7875C30.734 28.875 31.109 28.9125 31.3715 28.975Z" fill="#009B3A" stroke="black" stroke-width="0.0125"/>
<g id="Vector_48">
<path d="M30.409 29C30.6314 28.7765 30.8564 28.5557 31.084 28.3375L30.2715 28.8L30.209 28.9875H30.409" fill="#009B3A"/>
<path d="M30.409 29C30.6314 28.7765 30.8564 28.5557 31.084 28.3375L30.2715 28.8L30.209 28.9875H30.409" stroke="black" stroke-width="0.0125"/>
</g>
<g id="Vector_49">
<path d="M31.2207 29C30.8707 29 30.3207 28.975 29.9707 29.0125C30.1957 28.675 30.5207 28.1375 30.7207 27.8C30.5957 28.1 30.3832 28.525 30.3082 28.8C30.5582 28.9 30.9457 28.925 31.2207 28.9875" fill="#009B3A"/>
<path d="M31.2207 29C30.8707 29 30.3207 28.975 29.9707 29.0125C30.1957 28.675 30.5207 28.1375 30.7207 27.8C30.5957 28.1 30.3832 28.525 30.3082 28.8C30.5582 28.9 30.9457 28.925 31.2207 28.9875" stroke="black" stroke-width="0.0125"/>
</g>
<g id="Vector_50">
<path d="M30.1832 29.0375L31.0582 28.3L30.0582 28.825L29.9707 29.0375H30.1832" fill="#009B3A"/>
<path d="M30.1832 29.0375L31.0582 28.3L30.0582 28.825L29.9707 29.0375H30.1832" stroke="black" stroke-width="0.0125"/>
</g>
<path id="Vector_51" d="M31.0957 29.0125C30.7457 29.0625 30.1957 29.125 29.8457 29.2125C30.0518 28.7917 30.2395 28.3621 30.4082 27.925C30.3332 28.2375 30.1957 28.675 30.1582 28.9625C30.4207 29.0125 30.8082 29 31.0957 29.0125Z" fill="#009B3A" stroke="black" stroke-width="0.0125"/>
<g id="Vector_52">
<path d="M30.0719 29.1875C30.2899 28.8771 30.5107 28.5688 30.7344 28.2625L29.8969 29.0125L29.8594 29.25L30.0594 29.1875" fill="#009B3A"/>
<path d="M30.0719 29.1875C30.2899 28.8771 30.5107 28.5688 30.7344 28.2625L29.8969 29.0125L29.8594 29.25L30.0594 29.1875" stroke="black" stroke-width="0.0125"/>
</g>
<path id="Vector_53" d="M30.8965 29.125C30.5465 29.1625 29.9965 29.1875 29.6465 29.25C29.8465 28.9125 30.1215 28.35 30.2715 28C30.184 28.3125 30.0215 28.7375 29.9715 29.025C30.2215 29.0875 30.6215 29.0875 30.8965 29.125Z" fill="#009B3A" stroke="black" stroke-width="0.0125"/>
<path id="Vector_54" d="M29.9469 29.2875L30.7969 28.5375L29.8344 29.0625L29.7344 29.2875H29.9469Z" fill="#009B3A" stroke="black" stroke-width="0.0125"/>
<path id="Vector_55" d="M30.7969 29.1625C30.4344 29.2375 29.8844 29.325 29.5469 29.4375C29.7094 29.075 29.9219 28.4875 30.0469 28.125C29.9844 28.45 29.8719 28.875 29.8469 29.175C30.1094 29.2125 30.5094 29.1625 30.7969 29.1625Z" fill="#009B3A" stroke="black" stroke-width="0.0125"/>
<g id="Vector_56">
<path d="M29.8094 29.325L30.3469 28.3125L29.6094 29.1875V29.4125L29.8094 29.325" fill="#009B3A"/>
<path d="M29.8094 29.325L30.3469 28.3125L29.6094 29.1875V29.4125L29.8094 29.325" stroke="black" stroke-width="0.0125"/>
</g>
<path id="Vector_57" d="M30.7965 29.225C30.4215 29.3125 29.8215 29.45 29.459 29.5875C29.5965 29.175 29.759 28.5125 29.859 28.1C29.8215 28.4625 29.734 28.95 29.759 29.275C30.0465 29.3 30.484 29.2375 30.7965 29.225Z" fill="#009B3A" stroke="black" stroke-width="0.0125"/>
<path id="Vector_58" d="M29.6957 29.55L30.3832 28.55L29.5082 29.3625L29.4707 29.6125L29.6957 29.55Z" fill="#009B3A" stroke="black" stroke-width="0.0125"/>
<path id="Vector_59" d="M30.6465 29.3375C30.2715 29.4625 29.684 29.6125 29.334 29.7625C29.459 29.35 29.584 28.6875 29.659 28.275C29.634 28.6375 29.584 29.125 29.609 29.4375C29.909 29.45 30.334 29.3625 30.6465 29.3375Z" fill="#009B3A" stroke="black" stroke-width="0.0125"/>
<path id="Vector_60" d="M29.559 29.7L30.084 28.575L29.334 29.55V29.8L29.559 29.7Z" fill="#009B3A" stroke="black" stroke-width="0.0125"/>
<g id="Vector_61">
<path d="M30.4965 29.4875C30.1215 29.575 29.5215 29.6875 29.1465 29.8125C29.309 29.4125 29.4965 28.75 29.609 28.35C29.559 28.7125 29.459 29.1875 29.459 29.5125C29.759 29.55 30.184 29.4875 30.4965 29.4875" fill="#009B3A"/>
<path d="M30.4965 29.4875C30.1215 29.575 29.5215 29.6875 29.1465 29.8125C29.309 29.4125 29.4965 28.75 29.609 28.35C29.559 28.7125 29.459 29.1875 29.459 29.5125C29.759 29.55 30.184 29.4875 30.4965 29.4875" stroke="black" stroke-width="0.0125"/>
</g>
<g id="Vector_62">
<path d="M29.4328 29.8125L30.2828 28.9375L29.2828 29.5875L29.1953 29.8375L29.4453 29.8125" fill="#009B3A"/>
<path d="M29.4328 29.8125L30.2828 28.9375L29.2828 29.5875L29.1953 29.8375L29.4453 29.8125" stroke="black" stroke-width="0.0125"/>
</g>
<path id="Vector_63" d="M30.3336 29.6375C29.9586 29.6875 29.3586 29.7375 28.9961 29.8375C29.1711 29.4375 29.3961 28.8 29.5336 28.4C29.4586 28.75 29.3336 29.2375 29.3086 29.5625C29.5961 29.625 30.0211 29.6125 30.3336 29.6375Z" fill="#009B3A" stroke="black" stroke-width="0.0125"/>
<g id="Vector_64">
<path d="M29.2711 29.725L29.8461 28.625L29.0586 29.55V29.8L29.2711 29.725" fill="#009B3A"/>
<path d="M29.2711 29.725L29.8461 28.625L29.0586 29.55V29.8L29.2711 29.725" stroke="black" stroke-width="0.0125"/>
</g>
<g id="Vector_65">
<path d="M30.3711 29.5C29.9586 29.675 29.3211 29.9125 28.9336 30.125C29.0586 29.625 29.1836 28.85 29.2711 28.375C29.2586 28.7875 29.1961 29.3625 29.2336 29.725C29.5711 29.725 30.0336 29.575 30.3836 29.5125" fill="#009B3A"/>
<path d="M30.3711 29.5C29.9586 29.675 29.3211 29.9125 28.9336 30.125C29.0586 29.625 29.1836 28.85 29.2711 28.375C29.2586 28.7875 29.1961 29.3625 29.2336 29.725C29.5711 29.725 30.0336 29.575 30.3836 29.5125" stroke="black" stroke-width="0.0125"/>
</g>
<g id="Vector_66">
<path d="M29.1828 30.05L29.8828 28.8L28.9703 29.8625L28.9453 30.1625L29.1953 30.05" fill="#009B3A"/>
<path d="M29.1828 30.05L29.8828 28.8L28.9703 29.8625L28.9453 30.1625L29.1953 30.05" stroke="black" stroke-width="0.0125"/>
</g>
<g id="Vector_67">
<path d="M30.2219 29.6625C29.8094 29.85 29.1719 30.125 28.7969 30.35C28.8969 29.85 28.9969 29.0875 29.0594 28.6C29.0594 29.0125 29.0344 29.5875 29.0844 29.9375C29.4219 29.9125 29.8719 29.75 30.2094 29.6625" fill="#009B3A"/>
<path d="M30.2219 29.6625C29.8094 29.85 29.1719 30.125 28.7969 30.35C28.8969 29.85 28.9969 29.0875 29.0594 28.6C29.0594 29.0125 29.0344 29.5875 29.0844 29.9375C29.4219 29.9125 29.8719 29.75 30.2094 29.6625" stroke="black" stroke-width="0.0125"/>
</g>
<path id="Vector_68" d="M29.0469 30.25L29.5469 28.9L28.7969 30.1L28.8094 30.3875L29.0469 30.25Z" fill="#009B3A" stroke="black" stroke-width="0.0125"/>
<g id="Vector_69">
<path d="M30.0336 29.775C29.6336 29.975 28.9961 30.25 28.6211 30.475C28.7211 29.975 28.8211 29.2125 28.8711 28.725C28.8836 29.1375 28.8586 29.7 28.9086 30.0625C29.2336 30.025 29.6961 29.8625 30.0336 29.775" fill="#009B3A"/>
<path d="M30.0336 29.775C29.6336 29.975 28.9961 30.25 28.6211 30.475C28.7211 29.975 28.8211 29.2125 28.8711 28.725C28.8836 29.1375 28.8586 29.7 28.9086 30.0625C29.2336 30.025 29.6961 29.8625 30.0336 29.775" stroke="black" stroke-width="0.0125"/>
</g>
<g id="Vector_70">
<path d="M28.9336 30.4125L29.7086 29.2125L28.7211 30.1875L28.6836 30.4875L28.9336 30.4125" fill="#009B3A"/>
<path d="M28.9336 30.4125L29.7086 29.2125L28.7211 30.1875L28.6836 30.4875L28.9336 30.4125" stroke="black" stroke-width="0.0125"/>
</g>
<g id="Vector_71">
<path d="M29.9953 29.7125C29.6453 30 29.0703 30.425 28.7453 30.75C28.7453 30.25 28.6703 29.475 28.6328 29C28.7328 29.4 28.8203 29.95 28.9453 30.275C29.2578 30.1625 29.6828 29.8875 30.0078 29.7125" fill="#009B3A"/>
<path d="M29.9953 29.7125C29.6453 30 29.0703 30.425 28.7453 30.75C28.7453 30.25 28.6703 29.475 28.6328 29C28.7328 29.4 28.8203 29.95 28.9453 30.275C29.2578 30.1625 29.6828 29.8875 30.0078 29.7125" stroke="black" stroke-width="0.0125"/>
</g>
<g id="Vector_72">
<path d="M28.9711 30.4625L29.0586 29.0375L28.6836 30.4125L28.7836 30.6875L28.9711 30.4625" fill="#009B3A"/>
<path d="M28.9711 30.4625L29.0586 29.0375L28.6836 30.4125L28.7836 30.6875L28.9711 30.4625" stroke="black" stroke-width="0.0125"/>
</g>
<g id="Vector_73">
<path d="M29.8957 29.85C29.5332 30.1375 28.9582 30.55 28.6457 30.8625C28.6457 30.3625 28.5707 29.6125 28.5332 29.125C28.6207 29.525 28.7082 30.075 28.8332 30.4C29.1582 30.2875 29.5832 30.0125 29.8957 29.85" fill="#009B3A"/>
<path d="M29.8957 29.85C29.5332 30.1375 28.9582 30.55 28.6457 30.8625C28.6457 30.3625 28.5707 29.6125 28.5332 29.125C28.6207 29.525 28.7082 30.075 28.8332 30.4C29.1582 30.2875 29.5832 30.0125 29.8957 29.85" stroke="black" stroke-width="0.0125"/>
</g>
<g id="Vector_74">
<path d="M28.8711 30.7C28.9919 30.2364 29.1169 29.7739 29.2461 29.3125L28.6211 30.5875L28.6586 30.875L28.8836 30.7" fill="#009B3A"/>
<path d="M28.8711 30.7C28.9919 30.2364 29.1169 29.7739 29.2461 29.3125L28.6211 30.5875L28.6586 30.875L28.8836 30.7" stroke="black" stroke-width="0.0125"/>
</g>
<path id="Vector_75" d="M29.8586 29.875C29.5211 30.2125 28.9711 30.7125 28.6711 31.075C28.6086 30.575 28.4586 29.7875 28.3711 29.3125C28.4961 29.7 28.6586 30.25 28.8211 30.575C29.1461 30.425 29.5461 30.0875 29.8586 29.875Z" fill="#009B3A" stroke="black" stroke-width="0.0125"/>
<g id="Vector_76">
<path d="M28.8715 30.875L28.9465 29.4L28.584 30.8375L28.6965 31.1125L28.884 30.8875" fill="#009B3A"/>
<path d="M28.8715 30.875L28.9465 29.4L28.584 30.8375L28.6965 31.1125L28.884 30.8875" stroke="black" stroke-width="0.0125"/>
</g>
<g id="Vector_77">
<path d="M29.7453 30.125C29.3828 30.425 28.8078 30.875 28.4703 31.2125C28.4703 30.6875 28.3703 29.9 28.3203 29.4C28.4328 29.8125 28.5328 30.375 28.6703 30.7125C28.9953 30.5875 29.4203 30.3 29.7453 30.125" fill="#009B3A"/>
<path d="M29.7453 30.125C29.3828 30.425 28.8078 30.875 28.4703 31.2125C28.4703 30.6875 28.3703 29.9 28.3203 29.4C28.4328 29.8125 28.5328 30.375 28.6703 30.7125C28.9953 30.5875 29.4203 30.3 29.7453 30.125" stroke="black" stroke-width="0.0125"/>
</g>
<g id="Vector_78">
<path d="M28.7703 31.05L29.2828 29.65L28.5078 30.9L28.5328 31.2L28.7703 31.05" fill="#009B3A"/>
<path d="M28.7703 31.05L29.2828 29.65L28.5078 30.9L28.5328 31.2L28.7703 31.05" stroke="black" stroke-width="0.0125"/>
</g>
<path id="Vector_79" d="M29.7465 30.125C29.4215 30.475 28.909 30.9875 28.6215 31.35C28.5715 30.8375 28.4215 30.05 28.334 29.5625C28.459 29.95 28.609 30.5125 28.7715 30.8375C29.0715 30.6875 29.4465 30.3375 29.7465 30.125Z" fill="#009B3A" stroke="black" stroke-width="0.0125"/>
<g id="Vector_80">
<path d="M28.7969 31.125L28.7344 29.65L28.4844 31.1125L28.6344 31.3625L28.7969 31.1125" fill="#009B3A"/>
<path d="M28.7969 31.125L28.7344 29.65L28.4844 31.1125L28.6344 31.3625L28.7969 31.1125" stroke="black" stroke-width="0.0125"/>
</g>
<g id="Vector_81">
<path d="M29.5832 30.25C29.2707 30.5875 28.7707 31.1 28.4957 31.475C28.4332 30.95 28.2582 30.1625 28.1582 29.675C28.2957 30.075 28.4582 30.6375 28.6332 30.9625C28.9207 30.8 29.2957 30.4625 29.5832 30.2375" fill="#009B3A"/>
<path d="M29.5832 30.25C29.2707 30.5875 28.7707 31.1 28.4957 31.475C28.4332 30.95 28.2582 30.1625 28.1582 29.675C28.2957 30.075 28.4582 30.6375 28.6332 30.9625C28.9207 30.8 29.2957 30.4625 29.5832 30.2375" stroke="black" stroke-width="0.0125"/>
</g>
<g id="Vector_82">
<path d="M28.7086 31.275L28.8711 29.775L28.4336 31.1875L28.5211 31.475L28.7086 31.275" fill="#009B3A"/>
<path d="M28.7086 31.275L28.8711 29.775L28.4336 31.1875L28.5211 31.475L28.7086 31.275" stroke="black" stroke-width="0.0125"/>
</g>
<path id="Vector_83" d="M29.5211 30.3C29.2336 30.675 28.7711 31.2375 28.5211 31.625C28.4211 31.125 28.1961 30.35 28.0586 29.875C28.2211 30.25 28.4336 30.8 28.6211 31.1125C28.8961 30.925 29.2461 30.5375 29.5211 30.3Z" fill="#009B3A" stroke="black" stroke-width="0.0125"/>
<g id="Vector_84">
<path d="M28.6969 31.4125L28.6094 29.9125L28.4219 31.4L28.5469 31.65L28.6969 31.4" fill="#009B3A"/>
<path d="M28.6969 31.4125L28.6094 29.9125L28.4219 31.4L28.5469 31.65L28.6969 31.4" stroke="black" stroke-width="0.0125"/>
</g>
<g id="Vector_85">
<path d="M29.4961 30.375C29.2211 30.775 28.7836 31.375 28.5586 31.775C28.4336 31.275 28.1586 30.5125 27.9961 30.0375C28.1836 30.4125 28.4211 30.95 28.6211 31.25C28.8961 31.05 29.2211 30.65 29.4961 30.375" fill="#009B3A"/>
<path d="M29.4961 30.375C29.2211 30.775 28.7836 31.375 28.5586 31.775C28.4336 31.275 28.1586 30.5125 27.9961 30.0375C28.1836 30.4125 28.4211 30.95 28.6211 31.25C28.8961 31.05 29.2211 30.65 29.4961 30.375" stroke="black" stroke-width="0.0125"/>
</g>
<g id="Vector_86">
<path d="M28.7965 31.55L28.9465 30.05L28.5215 31.4625L28.609 31.7625L28.7965 31.55" fill="#009B3A"/>
<path d="M28.7965 31.55L28.9465 30.05L28.5215 31.4625L28.609 31.7625L28.7965 31.55" stroke="black" stroke-width="0.0125"/>
</g>
<g id="Vector_87">
<path d="M29.4344 30.525C29.1969 30.95 28.8219 31.6 28.6344 32.0375C28.4594 31.55 28.1344 30.8375 27.9219 30.3875C28.1469 30.7375 28.4219 31.2375 28.6594 31.5125C28.9094 31.2625 29.1969 30.825 29.4344 30.5125" fill="#009B3A"/>
<path d="M29.4344 30.525C29.1969 30.95 28.8219 31.6 28.6344 32.0375C28.4594 31.55 28.1344 30.8375 27.9219 30.3875C28.1469 30.7375 28.4219 31.2375 28.6594 31.5125C28.9094 31.2625 29.1969 30.825 29.4344 30.5125" stroke="black" stroke-width="0.0125"/>
</g>
<g id="Vector_88">
<path d="M28.7453 31.675L28.3203 30.25L28.4578 31.75L28.6578 31.9625L28.7453 31.675" fill="#009B3A"/>
<path d="M28.7453 31.675L28.3203 30.25L28.4578 31.75L28.6578 31.9625L28.7453 31.675" stroke="black" stroke-width="0.0125"/>
</g>
<g id="Vector_89">
<path d="M29.4211 30.6875C29.1711 31.1125 28.7961 31.7625 28.5961 32.2C28.4086 31.7125 28.0836 31 27.8711 30.55C28.0961 30.9 28.3711 31.4 28.6211 31.675C28.8711 31.425 29.1836 30.9875 29.4211 30.6875" fill="#009B3A"/>
<path d="M29.4211 30.6875C29.1711 31.1125 28.7961 31.7625 28.5961 32.2C28.4086 31.7125 28.0836 31 27.8711 30.55C28.0961 30.9 28.3711 31.4 28.6211 31.675C28.8711 31.425 29.1836 30.9875 29.4211 30.6875" stroke="black" stroke-width="0.0125"/>
</g>
<g id="Vector_90">
<path d="M28.7582 31.95L28.6082 30.45L28.4707 31.95L28.6207 32.2L28.7582 31.95" fill="#009B3A"/>
<path d="M28.7582 31.95L28.6082 30.45L28.4707 31.95L28.6207 32.2L28.7582 31.95" stroke="black" stroke-width="0.0125"/>
</g>
<path id="Vector_91" d="M29.4465 30.825C29.1965 31.25 28.7965 31.875 28.5965 32.3125C28.4215 31.825 28.0965 31.1 27.8965 30.65C28.1215 31 28.3965 31.5 28.6215 31.775C28.8965 31.55 29.1965 31.1125 29.4465 30.825Z" fill="#009B3A" stroke="black" stroke-width="0.0125"/>
<g id="Vector_92">
<path d="M28.7465 32.0625L28.4715 30.5875L28.459 32.1L28.6215 32.3375L28.7465 32.0625" fill="#009B3A"/>
<path d="M28.7465 32.0625L28.4715 30.5875L28.459 32.1L28.6215 32.3375L28.7465 32.0625" stroke="black" stroke-width="0.0125"/>
</g>
<path id="Vector_93" d="M29.3469 31.0375C29.0719 31.4375 28.6469 32.0375 28.4219 32.4625C28.2719 31.9625 27.9844 31.2125 27.7969 30.7625C28.0094 31.125 28.2594 31.6375 28.4719 31.9375C28.7469 31.7125 29.0844 31.3125 29.3469 31.0375Z" fill="#009B3A" stroke="black" stroke-width="0.0125"/>
<path id="Vector_94" d="M28.6215 32.225L28.7465 30.725L28.334 32.15L28.434 32.4375L28.6215 32.225Z" fill="#009B3A" stroke="black" stroke-width="0.0125"/>
<g id="Vector_95">
<path d="M29.3594 31.075C29.1344 31.5125 28.7594 32.175 28.5719 32.6125C28.3844 32.1375 28.0219 31.4375 27.7969 31C28.0469 31.3375 28.3344 31.825 28.5844 32.075C28.8344 31.825 29.1219 31.375 29.3594 31.075" fill="#009B3A"/>
<path d="M29.3594 31.075C29.1344 31.5125 28.7594 32.175 28.5719 32.6125C28.3844 32.1375 28.0219 31.4375 27.7969 31C28.0469 31.3375 28.3344 31.825 28.5844 32.075C28.8344 31.825 29.1219 31.375 29.3594 31.075" stroke="black" stroke-width="0.0125"/>
</g>
<g id="Vector_96">
<path d="M28.5719 32.35L28.1094 30.95L28.2844 32.45L28.4844 32.65L28.5719 32.35" fill="#009B3A"/>
<path d="M28.5719 32.35L28.1094 30.95L28.2844 32.45L28.4844 32.65L28.5719 32.35" stroke="black" stroke-width="0.0125"/>
</g>
<path id="Vector_97" d="M29.2961 31.1875C29.1336 31.6625 28.8711 32.4 28.7461 32.875C28.4961 32.45 28.0336 31.8375 27.7461 31.4625C28.0336 31.7375 28.3961 32.15 28.6836 32.3375C28.8961 32.05 29.1086 31.5375 29.2961 31.1875Z" fill="#009B3A" stroke="black" stroke-width="0.0125"/>
<g id="Vector_98">
<path d="M28.9844 32.475L28.4844 31.0875L28.6969 32.575L28.8969 32.7625L28.9844 32.4625" fill="#009B3A"/>
<path d="M28.9844 32.475L28.4844 31.0875L28.6969 32.575L28.8969 32.7625L28.9844 32.4625" stroke="black" stroke-width="0.0125"/>
</g>
<path id="Vector_99" d="M29.2953 31.3375C29.1328 31.8125 28.8703 32.55 28.7578 33.025C28.5078 32.6 28.0328 32 27.7578 31.625C28.0328 31.9 28.3953 32.3 28.6828 32.5C28.8953 32.2 29.1078 31.6875 29.2953 31.3375Z" fill="#009B3A" stroke="black" stroke-width="0.0125"/>
<g id="Vector_100">
<path d="M28.984 32.7L28.334 31.4125L28.709 32.85L28.934 33.0125L28.984 32.7" fill="#009B3A"/>
<path d="M28.984 32.7L28.334 31.4125L28.709 32.85L28.934 33.0125L28.984 32.7" stroke="black" stroke-width="0.0125"/>
</g>
<g id="Vector_101">
<path d="M29.2461 31.45C29.1461 31.95 28.9711 32.7125 28.9086 33.2C28.5961 32.825 28.0711 32.2875 27.7461 31.95C28.0586 32.2 28.4711 32.5375 28.7711 32.7C28.9461 32.3625 29.0961 31.825 29.2461 31.45" fill="#009B3A"/>
<path d="M29.2461 31.45C29.1461 31.95 28.9711 32.7125 28.9086 33.2C28.5961 32.825 28.0711 32.2875 27.7461 31.95C28.0586 32.2 28.4711 32.5375 28.7711 32.7C28.9461 32.3625 29.0961 31.825 29.2461 31.45" stroke="black" stroke-width="0.0125"/>
</g>
<g id="Vector_102">
<path d="M29.0211 32.9125L28.6836 31.45L28.7336 32.9625L28.9211 33.1875L29.0211 32.9125" fill="#009B3A"/>
<path d="M29.0211 32.9125L28.6836 31.45L28.7336 32.9625L28.9211 33.1875L29.0211 32.9125" stroke="black" stroke-width="0.0125"/>
</g>
<path id="Vector_103" d="M29.2461 31.6125C29.1961 32.1125 29.0836 32.9 29.0836 33.4C28.7336 33.0625 28.1586 32.6 27.8086 32.3125C28.1461 32.5 28.5836 32.8 28.8961 32.9125C29.0336 32.5625 29.1461 32 29.2461 31.6125Z" fill="#009B3A" stroke="black" stroke-width="0.0125"/>
<path id="Vector_104" d="M29.0461 33.0125L28.1211 31.9625L28.8211 33.2375L29.0711 33.325L29.0461 33.0125Z" fill="#009B3A" stroke="black" stroke-width="0.0125"/>
<g id="Vector_105">
<path d="M29.2703 31.7875C29.2078 32.2875 29.0953 33.075 29.0953 33.575C28.7453 33.2375 28.1703 32.775 27.8203 32.4875C28.1578 32.675 28.5953 32.975 28.9078 33.0875C29.0578 32.7375 29.1578 32.1875 29.2703 31.7875" fill="#009B3A"/>
<path d="M29.2703 31.7875C29.2078 32.2875 29.0953 33.075 29.0953 33.575C28.7453 33.2375 28.1703 32.775 27.8203 32.4875C28.1578 32.675 28.5953 32.975 28.9078 33.0875C29.0578 32.7375 29.1578 32.1875 29.2703 31.7875" stroke="black" stroke-width="0.0125"/>
</g>
<g id="Vector_106">
<path d="M29.1461 33.25C28.9046 32.8356 28.6671 32.4189 28.4336 32L28.8836 33.4125L29.1211 33.5625L29.1461 33.2625" fill="#009B3A"/>
<path d="M29.1461 33.25C28.9046 32.8356 28.6671 32.4189 28.4336 32L28.8836 33.4125L29.1211 33.5625L29.1461 33.2625" stroke="black" stroke-width="0.0125"/>
</g>
<g id="Vector_107">
<path d="M29.309 32C29.2715 32.5 29.1965 33.3 29.209 33.8C28.8465 33.475 28.259 33.05 27.8965 32.7875C28.234 32.95 28.684 33.225 29.009 33.3125C29.134 32.95 29.209 32.4 29.309 32" fill="#009B3A"/>
<path d="M29.309 32C29.2715 32.5 29.1965 33.3 29.209 33.8C28.8465 33.475 28.259 33.05 27.8965 32.7875C28.234 32.95 28.684 33.225 29.009 33.3125C29.134 32.95 29.209 32.4 29.309 32" stroke="black" stroke-width="0.0125"/>
</g>
<path id="Vector_108" d="M29.2461 33.5C29.2211 33.5 28.3711 32.375 28.3711 32.375L28.9961 33.7L29.2461 33.8V33.5Z" fill="#009B3A" stroke="black" stroke-width="0.0125"/>
<g id="Vector_109">
<path d="M29.3207 32.2375C29.2832 32.7375 29.2207 33.5375 29.2332 34.0375C28.8091 33.6815 28.3669 33.3477 27.9082 33.0375C28.2457 33.2 28.7082 33.4625 29.0332 33.55C29.1582 33.1875 29.2207 32.6375 29.3207 32.2375" fill="#009B3A"/>
<path d="M29.3207 32.2375C29.2832 32.7375 29.2207 33.5375 29.2332 34.0375C28.8091 33.6815 28.3669 33.3477 27.9082 33.0375C28.2457 33.2 28.7082 33.4625 29.0332 33.55C29.1582 33.1875 29.2207 32.6375 29.3207 32.2375" stroke="black" stroke-width="0.0125"/>
</g>
<path id="Vector_110" d="M29.3203 33.675L28.6953 32.35L29.0453 33.8L29.2578 33.9875L29.3203 33.675Z" fill="#009B3A" stroke="black" stroke-width="0.0125"/>
<g id="Vector_111">
<path d="M29.3465 32.375C29.3465 32.9 29.359 33.7 29.4215 34.1875C29.0465 33.9375 28.409 33.575 28.0215 33.3625C28.3715 33.4875 28.8465 33.7 29.1715 33.7375C29.259 33.3625 29.2965 32.8 29.334 32.3875" fill="#009B3A"/>
<path d="M29.3465 32.375C29.3465 32.9 29.359 33.7 29.4215 34.1875C29.0465 33.9375 28.409 33.575 28.0215 33.3625C28.3715 33.4875 28.8465 33.7 29.1715 33.7375C29.259 33.3625 29.2965 32.8 29.334 32.3875" stroke="black" stroke-width="0.0125"/>
</g>
<path id="Vector_112" d="M29.4219 33.625L28.2969 32.8625L29.2469 33.9L29.5094 33.925L29.4219 33.625Z" fill="#009B3A" stroke="black" stroke-width="0.0125"/>
<g id="Vector_113">
<path d="M29.3719 32.4375C29.4219 32.95 29.4594 33.75 29.5469 34.2375C29.081 33.9591 28.6012 33.7046 28.1094 33.475C28.4594 33.575 28.9469 33.7625 29.2719 33.8C29.3469 33.425 29.3469 32.85 29.3719 32.4375" fill="#009B3A"/>
<path d="M29.3719 32.4375C29.4219 32.95 29.4594 33.75 29.5469 34.2375C29.081 33.9591 28.6012 33.7046 28.1094 33.475C28.4594 33.575 28.9469 33.7625 29.2719 33.8C29.3469 33.425 29.3469 32.85 29.3719 32.4375" stroke="black" stroke-width="0.0125"/>
</g>
<path id="Vector_114" d="M29.5469 33.9125L28.6094 32.8375L29.3219 34.125L29.5719 34.225L29.5469 33.9125Z" fill="#009B3A" stroke="black" stroke-width="0.0125"/>
<path id="Vector_115" d="M29.4594 32.625C29.5219 33.15 29.5969 33.9375 29.7094 34.425C29.2969 34.2 28.6469 33.925 28.2344 33.7375C28.6094 33.825 29.0844 33.9875 29.4219 34C29.4719 33.625 29.4469 33.05 29.4594 32.625Z" fill="#009B3A" stroke="black" stroke-width="0.0125"/>
<path id="Vector_116" d="M29.7211 34.0875L28.6211 33.3125L29.5586 34.375H29.8086L29.7211 34.0875Z" fill="#009B3A" stroke="black" stroke-width="0.0125"/>
<path id="Vector_117" d="M29.4969 32.85C29.5969 33.35 29.7219 34.1375 29.8594 34.625C29.4344 34.425 28.7719 34.2125 28.3594 34.075C28.7219 34.125 29.2219 34.2375 29.5469 34.225C29.5719 33.8375 29.5094 33.275 29.4969 32.85Z" fill="#009B3A" stroke="black" stroke-width="0.0125"/>
<path id="Vector_118" d="M29.8461 34.25L28.9336 33.1625L29.6211 34.4625L29.8711 34.5625L29.8461 34.25Z" fill="#009B3A" stroke="black" stroke-width="0.0125"/>
<g id="Vector_119">
<path d="M29.5469 33C29.6969 33.4875 29.8969 34.25 30.0844 34.7125C29.6469 34.5875 28.9594 34.45 28.5469 34.3625C28.9094 34.3625 29.4094 34.4125 29.7344 34.3625C29.7344 33.9625 29.6094 33.4125 29.5469 32.9875" fill="#009B3A"/>
<path d="M29.5469 33C29.6969 33.4875 29.8969 34.25 30.0844 34.7125C29.6469 34.5875 28.9594 34.45 28.5469 34.3625C28.9094 34.3625 29.4094 34.4125 29.7344 34.3625C29.7344 33.9625 29.6094 33.4125 29.5469 32.9875" stroke="black" stroke-width="0.0125"/>
</g>
<g id="Vector_120">
<path d="M29.8961 34.25L28.6211 33.975L29.8336 34.575L30.0836 34.4875L29.8961 34.25" fill="#009B3A"/>
<path d="M29.8961 34.25L28.6211 33.975L29.8336 34.575L30.0836 34.4875L29.8961 34.25" stroke="black" stroke-width="0.0125"/>
</g>
<g id="Vector_121">
<path d="M29.6336 33.15C29.7836 33.6375 29.9836 34.4 30.1586 34.8625C29.7211 34.7375 29.0336 34.6 28.6211 34.5125C28.9836 34.5125 29.4961 34.5625 29.8086 34.5125C29.8086 34.1125 29.6836 33.5625 29.6336 33.1375" fill="#009B3A"/>
<path d="M29.6336 33.15C29.7836 33.6375 29.9836 34.4 30.1586 34.8625C29.7211 34.7375 29.0336 34.6 28.6211 34.5125C28.9836 34.5125 29.4961 34.5625 29.8086 34.5125C29.8086 34.1125 29.6836 33.5625 29.6336 33.1375" stroke="black" stroke-width="0.0125"/>
</g>
<g id="Vector_122">
<path d="M30.1078 34.375C30.1078 34.4 28.8828 33.7875 28.8828 33.7875L29.9828 34.6875L30.2328 34.6625L30.1078 34.3875" fill="#009B3A"/>
<path d="M30.1078 34.375C30.1078 34.4 28.8828 33.7875 28.8828 33.7875L29.9828 34.6875L30.2328 34.6625L30.1078 34.3875" stroke="black" stroke-width="0.0125"/>
</g>
<path id="Vector_123" d="M29.5711 33.2375C29.8211 33.675 30.1711 34.3875 30.4461 34.8C29.9961 34.7625 29.2961 34.7875 28.8711 34.8C29.2211 34.7125 29.7211 34.65 30.0211 34.525C29.9461 34.15 29.7086 33.625 29.5711 33.2375Z" fill="#009B3A" stroke="black" stroke-width="0.0125"/>
<g id="Vector_124">
<path d="M30.2965 34.5125L29.0215 34.1625L30.2215 34.8375L30.4715 34.7625L30.2965 34.5125" fill="#009B3A"/>
<path d="M30.2965 34.5125L29.0215 34.1625L30.2215 34.8375L30.4715 34.7625L30.2965 34.5125" stroke="black" stroke-width="0.0125"/>
</g>
<g id="Vector_125">
<path d="M29.7078 33.425C29.9578 33.8625 30.3078 34.575 30.5828 34.975C30.1328 34.95 29.4328 34.975 29.0078 35C29.3703 34.9125 29.8703 34.8375 30.1703 34.7125C30.0703 34.3375 29.8453 33.8125 29.6953 33.425" fill="#009B3A"/>
<path d="M29.7078 33.425C29.9578 33.8625 30.3078 34.575 30.5828 34.975C30.1328 34.95 29.4328 34.975 29.0078 35C29.3703 34.9125 29.8703 34.8375 30.1703 34.7125C30.0703 34.3375 29.8453 33.8125 29.6953 33.425" stroke="black" stroke-width="0.0125"/>
</g>
<path id="Vector_126" d="M30.459 34.625L29.2715 33.9125L30.309 34.9125H30.584L30.459 34.625Z" fill="#009B3A" stroke="black" stroke-width="0.0125"/>
<path id="Vector_127" d="M29.7965 33.5375C30.084 33.95 30.509 34.6125 30.8215 34.9875C30.3715 35.0125 29.6965 35.1375 29.2715 35.2125C29.6215 35.0875 30.0965 34.9375 30.384 34.7625C30.259 34.3875 29.9715 33.9125 29.7965 33.5375Z" fill="#009B3A" stroke="black" stroke-width="0.0125"/>
<g id="Vector_128">
<path d="M30.5465 34.725L29.2715 34.7L30.534 35.075L30.759 34.9375L30.5465 34.725V34.725ZM31.2965 28.525L32.209 28.3625L31.2965 28.3875L31.134 28.475L31.2965 28.525" fill="#009B3A"/>
<path d="M31.2965 28.525L32.209 28.3625L31.2965 28.3875L31.134 28.475L31.2965 28.525M30.5465 34.725L29.2715 34.7L30.534 35.075L30.759 34.9375L30.5465 34.725V34.725Z" stroke="black" stroke-width="0.0125"/>
</g>
<g id="Vector_129">
<path d="M31.7957 28.7125C31.5332 28.6375 31.1207 28.5 30.8457 28.4375C31.1857 28.3026 31.5193 28.1525 31.8457 27.9875C31.6332 28.1125 31.3457 28.2875 31.1832 28.4125C31.3332 28.5125 31.6082 28.625 31.8082 28.7125" fill="#009B3A"/>
<path d="M31.7957 28.7125C31.5332 28.6375 31.1207 28.5 30.8457 28.4375C31.1857 28.3026 31.5193 28.1525 31.8457 27.9875C31.6332 28.1125 31.3457 28.2875 31.1832 28.4125C31.3332 28.5125 31.6082 28.625 31.8082 28.7125" stroke="black" stroke-width="0.0125"/>
</g>
<path id="Vector_130" d="M31.2465 28.55L32.1465 28.3L31.2215 28.425L31.084 28.525L31.2465 28.55Z" fill="#009B3A" stroke="black" stroke-width="0.0125"/>
<g id="Vector_131">
<path d="M31.8461 28.7875C31.5336 28.75 31.0461 28.6875 30.7461 28.6875C30.9711 28.4875 31.2961 28.1375 31.4961 27.9375C31.3711 28.125 31.1461 28.3875 31.0586 28.575C31.2711 28.6625 31.6086 28.7125 31.8461 28.7875" fill="#009B3A"/>
<path d="M31.8461 28.7875C31.5336 28.75 31.0461 28.6875 30.7461 28.6875C30.9711 28.4875 31.2961 28.1375 31.4961 27.9375C31.3711 28.125 31.1461 28.3875 31.0586 28.575C31.2711 28.6625 31.6086 28.7125 31.8461 28.7875" stroke="black" stroke-width="0.0125"/>
</g>
<g id="Vector_132">
<path d="M30.9215 28.625L31.8465 28.5L30.9465 28.4875L30.7715 28.5625L30.9215 28.6125" fill="#009B3A"/>
<path d="M30.9215 28.625L31.8465 28.5L30.9465 28.4875L30.7715 28.5625L30.9215 28.6125" stroke="black" stroke-width="0.0125"/>
</g>
<g id="Vector_133">
<path d="M31.6094 28.8125C31.3219 28.7625 30.8969 28.6625 30.6094 28.6375C30.8719 28.5125 31.2719 28.2625 31.5219 28.1375C31.3344 28.2625 31.0719 28.45 30.9344 28.575C31.1094 28.6625 31.3969 28.7375 31.6094 28.825" fill="#009B3A"/>
<path d="M31.6094 28.8125C31.3219 28.7625 30.8969 28.6625 30.6094 28.6375C30.8719 28.5125 31.2719 28.2625 31.5219 28.1375C31.3344 28.2625 31.0719 28.45 30.9344 28.575C31.1094 28.6625 31.3969 28.7375 31.6094 28.825" stroke="black" stroke-width="0.0125"/>
</g>
<path id="Vector_134" d="M30.8457 28.6L31.6582 28.25L30.7582 28.5L30.6582 28.6H30.8457Z" fill="#009B3A" stroke="black" stroke-width="0.0125"/>
<g id="Vector_135">
<path d="M31.5836 28.925C31.3336 28.825 30.9836 28.6625 30.7461 28.5875C30.9336 28.425 31.1836 28.125 31.3461 27.95C31.2211 28.125 31.0586 28.3625 30.9961 28.5375C31.1461 28.6625 31.3961 28.8 31.5836 28.9125" fill="#009B3A"/>
<path d="M31.5836 28.925C31.3336 28.825 30.9836 28.6625 30.7461 28.5875C30.9336 28.425 31.1836 28.125 31.3461 27.95C31.2211 28.125 31.0586 28.3625 30.9961 28.5375C31.1461 28.6625 31.3961 28.8 31.5836 28.9125" stroke="black" stroke-width="0.0125"/>
</g>
<g id="Vector_136">
<path d="M30.8844 28.6625L31.5219 28.3875L30.8344 28.4875L30.7469 28.6125L30.8844 28.6625V28.6625ZM30.3719 34.625H29.0469L30.3844 34.9625L30.6094 34.8125L30.3594 34.625" fill="#009B3A"/>
<path d="M30.3719 34.625H29.0469L30.3844 34.9625L30.6094 34.8125L30.3594 34.625M30.8844 28.6625L31.5219 28.3875L30.8344 28.4875L30.7469 28.6125L30.8844 28.6625V28.6625Z" stroke="black" stroke-width="0.0125"/>
</g>
<g id="Vector_137">
<path d="M30.5961 34.7L29.2461 34.375L30.5336 35L30.7836 34.925L30.5836 34.675" fill="#009B3A"/>
<path d="M30.5961 34.7L29.2461 34.375L30.5336 35L30.7836 34.925L30.5836 34.675" stroke="black" stroke-width="0.0125"/>
</g>
<path id="Vector_138" d="M30.8094 34.7875L29.4844 34.7125L30.8094 35.125L31.0344 35L30.8094 34.7875Z" fill="#009B3A" stroke="black" stroke-width="0.0125"/>
<g id="Vector_139">
<path d="M29.9719 33.85C30.3094 34.225 30.8344 34.8375 31.1969 35.175C30.7469 35.2375 30.0719 35.425 29.6719 35.525C29.9969 35.375 30.4594 35.1875 30.7219 35C30.5469 34.65 30.1969 34.2 29.9719 33.85" fill="#009B3A"/>
<path d="M29.9719 33.85C30.3094 34.225 30.8344 34.8375 31.1969 35.175C30.7469 35.2375 30.0719 35.425 29.6719 35.525C29.9969 35.375 30.4594 35.1875 30.7219 35C30.5469 34.65 30.1969 34.2 29.9719 33.85" stroke="black" stroke-width="0.0125"/>
</g>
<path id="Vector_140" d="M30.9969 34.85L29.6719 34.4125L30.9219 35.1625L31.1719 35.1L30.9969 34.85Z" fill="#009B3A" stroke="black" stroke-width="0.0125"/>
<g id="Vector_141">
<path d="M30.0957 33.9375C30.4707 34.275 31.0332 34.825 31.4207 35.125C30.9957 35.25 30.3582 35.5125 29.9707 35.675C30.2707 35.475 30.7207 35.2375 30.9457 35.0125C30.7457 34.675 30.3457 34.2625 30.0957 33.9375" fill="#009B3A"/>
<path d="M30.0957 33.9375C30.4707 34.275 31.0332 34.825 31.4207 35.125C30.9957 35.25 30.3582 35.5125 29.9707 35.675C30.2707 35.475 30.7207 35.2375 30.9457 35.0125C30.7457 34.675 30.3457 34.2625 30.0957 33.9375" stroke="black" stroke-width="0.0125"/>
</g>
<g id="Vector_142">
<path d="M31.0957 34.9375L29.8457 35.1875L31.1707 35.275L31.3582 35.0875L31.1082 34.9375" fill="#009B3A"/>
<path d="M31.0957 34.9375L29.8457 35.1875L31.1707 35.275L31.3582 35.0875L31.1082 34.9375" stroke="black" stroke-width="0.0125"/>
</g>
<path id="Vector_143" d="M30.8457 34.85L29.5332 34.95L30.8832 35.1875L31.0957 35.025L30.8457 34.85Z" fill="#009B3A" stroke="black" stroke-width="0.0125"/>
<path id="Vector_144" d="M31.0832 34.925L29.7207 34.7125L31.0582 35.25L31.3082 35.15L31.0832 34.925V34.925Z" fill="#009B3A" stroke="black" stroke-width="0.0125"/>
<path id="Vector_145" d="M31.3094 35L29.9844 35.025L31.3344 35.325L31.5469 35.1875L31.2969 35H31.3094Z" fill="#009B3A" stroke="black" stroke-width="0.0125"/>
<path id="Vector_146" d="M30.3957 34.125C30.7707 34.475 31.3332 35.05 31.7207 35.35C31.2707 35.45 30.6207 35.675 30.2207 35.8125C30.5332 35.6375 30.9832 35.4375 31.2332 35.225C31.0332 34.875 30.6457 34.45 30.3957 34.125Z" fill="#009B3A" stroke="black" stroke-width="0.0125"/>
<path id="Vector_147" d="M31.4965 35.05L30.1465 34.7125L31.4465 35.3625L31.6965 35.2875L31.4965 35.05Z" fill="#009B3A" stroke="black" stroke-width="0.0125"/>
<path id="Vector_148" d="M30.5215 34.2C30.934 34.5125 31.534 35.025 31.9465 35.2875C31.4678 35.4866 30.9966 35.7035 30.534 35.9375C30.8215 35.725 31.2465 35.45 31.459 35.2125C31.234 34.8875 30.809 34.5125 30.5215 34.2V34.2Z" fill="#009B3A" stroke="black" stroke-width="0.0125"/>
<path id="Vector_149" d="M31.6211 35.125L30.3711 35.4625H31.7086L31.8711 35.2625L31.6211 35.1375V35.125Z" fill="#009B3A" stroke="black" stroke-width="0.0125"/>
</g>
<path id="Vector_150" d="M33.3219 33.2625L32.3094 32.5625L31.3094 33.2625L31.6844 32.1375L30.7969 31.45H31.9219L32.3094 30.325L32.6844 31.45H33.8219L32.9469 32.15L33.3219 33.275V33.2625Z" fill="#FEDF00" stroke="black" stroke-width="0.0625"/>
</g>
</g>
<defs>
<clipPath id="clip0_2909_185302">
<path d="M0.246094 32C0.246094 14.3269 14.573 0 32.2461 0V0C49.9192 0 64.2461 14.3269 64.2461 32V32C64.2461 49.6731 49.9192 64 32.2461 64V64C14.573 64 0.246094 49.6731 0.246094 32V32Z" fill="white"/>
</clipPath>
</defs>
</svg>
