<svg width="65" height="64" viewBox="0 0 65 64" fill="none" xmlns="http://www.w3.org/2000/svg">
<g id="Rounded=Qatar (QA)">
<g clip-path="url(#clip0_2909_185301)">
<path id="Vector" d="M0.246094 0H64.2461V64H0.246094V0Z" fill="#8D1B3D"/>
<path id="Vector_2" d="M0.246094 0V64H14.3711L27.3961 60.45L14.3711 56.875L27.3961 53.325L14.3711 49.775L27.3961 46.225L14.3711 42.6625L27.3961 39.125L14.3711 35.55L27.3961 32L14.3711 28.45L27.3961 24.875L14.3711 21.3375L27.3961 17.775L14.3711 14.225L27.3961 10.6625L14.3711 7.125L27.3961 3.575L14.3711 0H0.246094Z" fill="#F5F5F5"/>
</g>
</g>
<defs>
<clipPath id="clip0_2909_185301">
<path d="M0.246094 32C0.246094 14.3269 14.573 0 32.2461 0V0C49.9192 0 64.2461 14.3269 64.2461 32V32C64.2461 49.6731 49.9192 64 32.2461 64V64C14.573 64 0.246094 49.6731 0.246094 32V32Z" fill="white"/>
</clipPath>
</defs>
</svg>
