<svg width="65" height="64" viewBox="0 0 65 64" fill="none" xmlns="http://www.w3.org/2000/svg">
<g id="Rounded=Rwanda (RW)">
<g clip-path="url(#clip0_2909_185368)">
<path id="Vector" d="M0.246094 0H64.2461V64H0.246094V0Z" fill="#20603D"/>
<path id="Vector_2" d="M0.246094 0H64.2461V48H0.246094V0Z" fill="#FAD201"/>
<path id="Vector_3" d="M0.246094 0H64.2461V32H0.246094V0Z" fill="#00A1DE"/>
<g id="Group">
<g id="b">
<path id="a" d="M57.3658 16.725L50.2192 17.1428L57.0102 19.4005L50.0059 17.9516L55.988 21.8805L49.5881 18.6627L54.3347 24.0227L48.9926 19.2672L52.2103 25.6671L48.2726 19.6849L49.7125 26.6804L47.4637 19.8983L47.0459 27.0448L46.957 16.6361L57.3658 16.725Z" fill="#E5BE01"/>
<path id="Vector_4" d="M57.3658 16.725L50.2192 16.3072L57.0102 14.0495L50.0059 15.4983L55.988 11.5695L49.5881 14.7872L54.3347 9.42732L48.9926 14.1828L52.2103 7.7829L48.2726 13.765L49.7125 6.76959L47.4637 13.5517L47.0459 6.40515L46.957 16.8139L57.3658 16.725Z" fill="#E5BE01"/>
</g>
<g id="Group_2">
<path id="a_2" d="M36.726 16.725L43.8726 17.1428L37.0816 19.4005L44.0859 17.9516L38.1038 21.8805L44.5037 18.6627L39.7571 24.0227L45.0992 19.2672L41.8815 25.6671L45.8192 19.6849L44.3793 26.6804L46.6281 19.8983L47.0459 27.0448L47.1348 16.6361L36.726 16.725Z" fill="#E5BE01"/>
<path id="Vector_5" d="M36.726 16.725L43.8726 16.3072L37.0816 14.0495L44.0859 15.4983L38.1038 11.5695L44.5037 14.7872L39.7571 9.42732L45.0992 14.1828L41.8815 7.7829L45.8192 13.765L44.3793 6.76959L46.6281 13.5517L47.0459 6.40515L47.1348 16.8139L36.726 16.725Z" fill="#E5BE01"/>
</g>
<path id="Vector_6" d="M47.0469 19.7738C48.7307 19.7738 50.0957 18.4088 50.0957 16.725C50.0957 15.0412 48.7307 13.6761 47.0469 13.6761C45.3631 13.6761 43.998 15.0412 43.998 16.725C43.998 18.4088 45.3631 19.7738 47.0469 19.7738Z" fill="#E5BE01" stroke="#00A1DE" stroke-width="0.302218"/>
</g>
</g>
</g>
<defs>
<clipPath id="clip0_2909_185368">
<path d="M0.246094 32C0.246094 14.3269 14.573 0 32.2461 0V0C49.9192 0 64.2461 14.3269 64.2461 32V32C64.2461 49.6731 49.9192 64 32.2461 64V64C14.573 64 0.246094 49.6731 0.246094 32V32Z" fill="white"/>
</clipPath>
</defs>
</svg>
