<svg width="65" height="64" viewBox="0 0 65 64" fill="none" xmlns="http://www.w3.org/2000/svg">
<g id="Rounded=Saudi Arabia (SA)">
<g clip-path="url(#clip0_2909_185297)">
<g id="Group">
<path id="Vector" fill-rule="evenodd" clip-rule="evenodd" d="M-15.7539 0H80.2314V63.9902H-15.7539V0Z" fill="#199D00"/>
<path id="Vector_2" fill-rule="evenodd" clip-rule="evenodd" d="M8.43511 18.1392C8.3319 19.6357 8.18999 22.2676 9.46721 22.5385C11.0025 22.6804 10.151 19.9324 10.7057 19.4422C10.8218 19.1842 11.0154 19.1842 11.0283 19.5067V21.8289C11.0154 22.603 11.5056 22.8094 11.8926 22.9771C12.3055 22.9384 12.5635 22.9513 12.7312 23.3384L12.9118 27.3765C12.9118 27.3765 13.8536 27.6345 13.8923 25.1058C13.9439 23.6222 13.5956 22.3708 13.802 22.0869C13.802 21.8031 14.1633 21.7902 14.4213 21.9192C14.8212 22.2031 15.0019 22.5643 15.6211 22.4095C16.5758 22.1515 17.1435 21.687 17.1693 20.9645C17.1364 20.253 16.9883 19.5515 16.7306 18.8874C16.7693 18.7584 16.5371 18.4359 16.5887 18.3069C16.7564 18.5649 17.0144 18.552 17.079 18.3069C16.9112 17.765 16.6661 17.2619 16.2533 17.0426C15.9178 16.7458 15.4276 16.8103 15.247 17.4296C15.2258 18.2428 15.5009 19.036 16.0211 19.6615C16.1833 20.0121 16.25 20.3993 16.2146 20.7839C15.9436 20.9516 15.6727 20.8742 15.4405 20.642C15.4405 20.642 14.6793 20.0615 14.6793 19.9453C14.8857 18.6552 14.7309 18.5133 14.6148 18.1521C14.5374 17.6618 14.3052 17.507 14.1117 17.1716C13.9181 16.9652 13.673 16.9652 13.544 17.1716C13.2086 17.7521 13.3634 18.9906 13.6085 19.5454C13.7891 20.0615 14.0472 20.384 13.9181 20.384C13.8149 20.6678 13.6085 20.6033 13.4537 20.2679C13.2622 19.5573 13.171 18.8234 13.1828 18.0876C13.1183 17.507 13.0538 16.2814 12.6667 15.9718C12.4345 15.6621 12.0862 15.8169 11.9701 16.1008C11.9374 16.6599 11.9504 17.2209 12.0088 17.7779C12.2668 18.681 12.3442 19.5067 12.4732 20.4485C12.5119 21.7128 11.7378 21.0032 11.7765 20.3711C11.9572 19.5583 11.9056 18.2682 11.7507 17.9456C11.6217 17.6231 11.4798 17.5457 11.1831 17.5973C10.9251 17.5715 10.3187 18.2424 10.151 19.3777C10.151 19.3777 9.99617 19.9582 9.93166 20.4614C9.84135 21.0419 9.46721 21.4548 9.19629 20.384C8.96406 19.6099 8.82215 17.6876 8.43511 18.1392V18.1392Z" fill="#F5F5F5"/>
<path id="Vector_3" fill-rule="evenodd" clip-rule="evenodd" d="M12.6166 24.2802L8.61719 26.2024C8.65589 25.2994 10.5137 23.648 11.778 23.6222C12.6037 23.648 12.3973 23.9447 12.6166 24.2673V24.2802Z" fill="#F5F5F5"/>
<path id="Vector_4" fill-rule="evenodd" clip-rule="evenodd" d="M11.919 25.5316C9.80315 30.963 16.8472 31.7242 17.6342 25.7509C17.7116 25.5058 18.0212 25.2606 18.0599 25.6606C17.8922 31.0791 12.6156 31.4403 11.7125 29.7374C11.4932 29.3503 11.4287 28.4472 11.4029 27.9054C11.2739 26.8475 10.7062 27.2603 10.6288 28.3182C10.5385 28.8988 10.5514 29.0665 10.5514 29.6342C10.8352 33.8916 17.6471 32.0596 18.7566 28.5376C19.3372 26.5895 18.6534 25.1445 18.9759 25.1445C19.6468 25.8799 20.6015 25.2477 20.8079 24.9897C20.8982 24.8607 21.1175 24.7833 21.2724 24.951C21.7884 25.338 22.7302 25.1445 22.9237 24.4866C23.0269 23.8286 23.1172 23.1577 23.143 22.4611C22.7173 22.5901 22.3948 22.6804 22.369 22.8481L22.2787 23.4416C22.2399 23.6222 21.8658 23.6351 21.8529 23.39C21.6852 22.6546 21.0143 22.5514 20.6015 23.6996C20.3306 23.9318 19.8274 23.9576 19.7758 23.6351C19.8403 22.861 19.5307 22.7578 18.9114 23.119L18.3051 18.6036C18.5631 18.6036 18.8082 18.7842 19.0404 18.4875C18.7824 17.6747 18.2277 16.0362 17.9309 15.9072C17.7761 15.7266 17.66 15.8427 17.4665 15.8814C17.1311 15.9846 16.8214 16.2685 16.9246 16.8232L17.9567 23.2997C18.0083 23.5706 17.7761 23.9447 17.4794 23.906C16.9762 23.5577 16.8472 22.8739 15.9957 22.8997C15.3636 22.8997 14.654 23.5835 14.5766 24.2414C14.4605 24.7575 14.4218 25.3251 14.5766 25.7767C15.0024 26.2927 15.5313 26.254 15.9957 26.125C16.3699 25.9702 16.6795 25.5961 16.8214 25.6864C16.9117 25.8025 16.8343 27.041 15.0282 28.0086C13.9444 28.4989 13.0672 28.6021 12.6027 27.7119C12.3189 27.1571 12.6285 25.0413 11.919 25.5187V25.5316Z" fill="#F5F5F5"/>
<path id="Vector_5" fill-rule="evenodd" clip-rule="evenodd" d="M20.8602 19.9969C21.2859 19.855 23.2856 17.5457 23.2856 17.5457L22.9889 17.3135C22.8728 17.2103 22.8857 17.12 22.9889 17.0167C23.4792 16.7329 23.3243 16.0879 23.0663 15.804C22.8981 15.72 22.7126 15.6762 22.5245 15.6762C22.3364 15.6762 22.1509 15.72 21.9826 15.804C21.6343 16.1524 21.5569 16.6813 21.8278 17.0167C22.0858 17.1458 22.3697 17.4038 22.189 17.5586C21.3634 18.4359 19.1185 19.9453 19.3766 20.0098C19.4282 20.0743 20.8215 20.0743 20.8602 20.0098V19.9969ZM8.74593 28.1247C7.99766 29.3245 7.93316 31.1178 8.3589 31.6468C8.56532 31.9048 8.92655 32.008 9.19748 31.9306C9.67482 31.7242 9.88125 30.7695 9.76513 30.4211C9.61032 30.1631 9.48131 30.1373 9.32649 30.3437C8.99106 31.0146 8.84915 30.5502 8.82334 30.176C8.77174 29.4664 8.83624 28.7956 8.91365 28.2795C9.00396 27.7506 8.91365 27.9054 8.74593 28.1247V28.1247ZM40.8829 26.1895C40.1605 24.6285 39.1542 23.0803 38.8317 22.4869C37.8587 20.9462 36.8258 19.4442 35.7354 17.9843C34.9613 17.0554 37.0126 18.3714 35.4773 16.5265C34.8968 16.0104 34.8581 15.9975 34.3678 15.5847C34.1227 15.4041 33.5292 15.0945 33.426 15.6105C33.3748 15.9804 33.3923 16.3565 33.4776 16.72C33.5292 16.978 33.9034 17.4038 34.0969 17.6618C36.5481 20.9516 38.7284 24.293 40.8184 28.4731C41.1539 28.3182 41.0765 26.4605 40.8829 26.1895Z" fill="#F5F5F5"/>
<path id="Vector_6" fill-rule="evenodd" clip-rule="evenodd" d="M37.6965 31.4404C37.5546 31.6081 38.0448 32.2918 38.6899 32.2918C39.7736 32.1628 40.7154 31.5565 41.5927 29.9696C41.8249 29.5826 42.2377 28.8085 42.2506 28.1763C42.3409 24.564 42.07 21.7515 41.5282 19.1455C41.5024 18.8874 41.5282 18.5778 41.5669 18.5004C41.6314 18.423 41.8636 18.5004 41.9926 18.3069C42.1732 18.1134 41.5024 16.5523 41.1282 15.9589C40.9863 15.6879 40.9347 15.5073 40.7154 15.9847C40.4703 16.3717 40.3283 17.0555 40.3283 17.6876C40.8444 21.2484 41.0121 24.3705 41.3475 27.9183C41.3733 28.2667 41.3217 28.7698 41.0895 28.9633C40.1459 30.0191 38.9896 30.8633 37.6965 31.4404V31.4404ZM52.2491 31.4275C51.475 31.8661 51.475 32.3822 52.1072 32.408C53.178 32.2789 54.4552 32.1886 55.3325 30.8598C55.5647 30.4857 55.8485 29.4794 55.8614 28.873C55.9389 25.2607 55.8098 22.5514 55.268 19.9453C55.2422 19.6873 55.1261 19.1068 55.1648 19.0294C55.2422 18.8487 55.5905 19.0423 55.7195 18.8358C55.9002 18.6552 54.8165 17.249 54.4294 16.6426C54.2875 16.3846 54.2359 16.204 54.0166 16.6813C53.7714 17.0684 53.694 17.765 53.7844 18.3714C54.3649 22.2418 54.7907 25.1446 54.8681 28.5634C54.8294 28.8988 54.8165 29.0794 54.6616 29.4794C54.3262 29.918 53.9521 30.4599 53.5908 30.7179C53.2425 30.9759 52.4942 31.2339 52.2491 31.4275V31.4275Z" fill="#F5F5F5"/>
<path id="Vector_7" fill-rule="evenodd" clip-rule="evenodd" d="M52.8301 27.957V25.5961C52.8201 25.0078 52.6883 24.4279 52.443 23.8931C52.2108 23.3771 52.3527 22.9771 52.2495 22.4224C52.1463 21.8805 52.1721 21.0548 52.0173 20.4098C51.9657 20.1518 51.8367 19.3519 51.8883 19.2745C51.9399 19.0938 52.185 19.2745 52.3011 19.068C52.4817 18.8745 51.6818 16.8103 51.2819 16.2298C51.14 15.9717 50.882 16.0492 50.5465 16.4878C50.2498 16.7587 50.3659 17.4038 50.482 18.0101C51.2561 22.0482 51.8238 25.7122 51.7077 29.5439C51.6689 29.8793 52.843 28.5763 52.8301 27.957V27.957ZM47.1148 22.9513C46.6375 22.9513 45.6183 21.9966 45.3086 21.4548C45.2639 21.3242 45.2466 21.1857 45.2577 21.0481C45.2688 20.9105 45.3081 20.7767 45.3731 20.6549C45.5538 20.5259 45.8376 20.3969 46.044 20.5259C46.044 20.5259 46.2504 20.8355 46.2117 20.8742C46.4697 21.0032 46.5988 20.9258 46.6246 20.8097C46.6375 20.6291 46.5342 20.513 46.5342 20.2937C46.6633 19.7389 47.3083 19.6486 47.5405 20.0098C47.7212 20.2292 47.7857 20.6936 47.8115 21.0161C47.8115 21.1709 47.5534 20.9774 47.3986 21.0161C47.2567 21.0677 47.218 21.2355 47.2051 21.3903C47.1793 21.8031 47.1277 22.4611 47.1148 22.9384V22.9513ZM38.1355 28.9633C38.2645 27.7248 38.0968 25.5445 38.0839 24.822C38.0323 23.1061 37.7485 19.7905 37.6195 19.2487C37.4647 18.2037 38.0452 19.3648 37.9678 18.7584C37.7743 17.7263 37.1937 17.0038 36.5229 16.0492C36.3036 15.7524 36.3165 15.6879 35.9681 16.1266C35.6069 16.978 35.9294 17.5586 36.0197 18.2166C36.51 20.3711 36.7938 22.345 36.9228 24.306C37.0674 26.3456 37.0846 28.3923 36.9744 30.434C37.3486 30.4598 37.942 29.8406 38.1355 28.9633V28.9633Z" fill="#F5F5F5"/>
<path id="Vector_8" fill-rule="evenodd" clip-rule="evenodd" d="M54.4929 26.9894C53.6285 25.5574 52.3384 23.9963 51.99 23.4158C50.8349 21.7941 49.6214 20.2148 48.3519 18.681C47.2811 17.5586 48.8421 18.5004 48.1455 17.636C47.552 16.991 47.3714 16.7845 46.8811 16.3975C46.6231 16.2298 46.4683 15.9202 46.3909 16.4491C46.3522 16.9135 46.3264 17.4554 46.3522 17.8553C46.3522 18.0747 46.5844 18.4746 46.7779 18.7197C49.3582 21.9063 52.1965 25.1703 54.48 29.26C54.8025 29.0794 54.6993 27.2474 54.48 26.9894H54.4929Z" fill="#F5F5F5"/>
<path id="Vector_9" fill-rule="evenodd" clip-rule="evenodd" d="M15.5702 24.3318C15.5057 24.4479 15.3638 24.5898 15.4154 24.7188C15.5186 24.8478 15.596 24.8865 15.7508 24.8994C15.8798 24.8994 16.0862 24.9252 16.1249 24.8478C16.1714 24.791 16.2019 24.7227 16.2133 24.6502C16.2246 24.5776 16.2164 24.5033 16.1894 24.435C16.0604 24.0737 15.6476 24.2028 15.5702 24.3318Z" fill="#1BA400"/>
<path id="Vector_10" fill-rule="evenodd" clip-rule="evenodd" d="M44.5203 45.3221C45.6685 45.3608 46.4168 45.3737 47.436 45.4898L48.6229 45.3608C49.9517 45.2318 50.0162 47.2573 50.0162 47.2573C50.0033 48.4442 49.5389 48.4958 48.9583 48.6248C48.6229 48.6764 48.4423 48.4313 48.2745 48.1733C48.0552 48.2636 47.7585 48.2765 47.3844 48.2249C46.907 48.1991 46.4297 48.1991 45.9652 48.1604C45.4492 48.1217 45.1782 48.2249 44.6751 48.1733C44.559 48.341 44.4171 48.5603 44.1203 48.4958C43.8623 48.47 43.5527 47.7346 43.643 47.1928C43.8236 46.7928 43.772 46.9219 43.7591 46.7412C39.063 46.6251 34.3412 46.4187 29.7354 46.4832C26.1231 46.4832 22.5753 46.638 19.0274 46.7928C17.1309 46.767 15.6731 46.4574 14.6797 44.9867C14.77 44.9867 19.5177 45.2705 20.8981 45.1802C23.4783 45.1415 25.8135 44.9351 28.4324 44.8577C33.5929 44.948 38.6889 44.948 43.8494 45.3092C43.3592 44.9738 43.3334 44.1739 44.1074 43.9804C44.159 43.9417 44.1977 44.3674 44.3139 44.3674C44.9073 44.3287 44.6493 45.1415 44.5203 45.3221V45.3221ZM23.8267 16.9006C23.0526 19.1326 24.2653 21.5709 25.1168 21.3387C25.7361 21.5967 26.1231 20.4227 26.3811 19.1455C26.5488 18.7842 26.6779 18.7455 26.7682 18.9261C26.7424 20.6291 26.8972 21.0032 27.3358 21.5193C27.5882 21.7446 27.9128 21.8723 28.2511 21.8794C28.5894 21.8865 28.9191 21.7725 29.1807 21.558L29.9419 20.7839C30.1096 20.6162 30.3289 20.6033 30.574 20.7581C30.8063 20.9774 30.7675 21.3387 31.2707 21.5967C31.6835 21.7644 32.5866 21.6354 32.793 21.2742C33.064 20.7968 33.1414 20.6291 33.2704 20.4485C33.4639 20.1905 33.7993 20.2937 33.7993 20.384C33.7735 20.5259 33.58 20.6807 33.709 20.9387C33.9413 21.1194 34.0058 21.0032 34.1477 20.9645C34.6379 20.7323 35.0121 19.6486 35.0121 19.6486C35.025 19.2616 34.8056 19.2874 34.6637 19.3648L34.2767 19.6357C34.0187 19.6744 33.5542 19.8292 33.322 19.468C33.0898 19.0423 33.0769 18.4359 32.8963 17.9973C32.8963 17.9714 32.5866 17.3135 32.8834 17.2748C33.0253 17.3006 33.3478 17.378 33.3994 17.12C33.5542 16.8619 33.064 16.1266 32.7285 15.7524C32.4447 15.4428 32.0319 15.4041 31.6448 15.7266C31.3868 15.9847 31.4126 16.2427 31.361 16.5136C31.3164 16.7018 31.3165 16.8979 31.3613 17.0861C31.4061 17.2743 31.4944 17.4494 31.619 17.5973C31.89 18.1263 32.3931 18.81 32.2254 19.7905C32.2254 19.7905 31.9287 20.2421 31.4255 20.1776C31.2191 20.126 30.8837 20.0485 30.703 18.7068C30.574 17.6876 30.7288 16.2685 30.3031 15.6105C30.1483 15.1977 30.0451 14.8106 29.658 15.5073C29.5548 15.7653 29.1162 16.1782 29.4258 17.0297C29.721 17.7795 29.81 18.5947 29.6838 19.3906C29.5032 19.6615 29.4645 19.7647 29.2194 20.0356C28.8969 20.384 28.5356 20.2937 28.2647 20.1647C28.0067 19.9969 27.8003 19.9066 27.6841 19.3519C27.71 18.4746 27.7487 17.0426 27.5938 16.7329C27.3616 16.2685 26.9746 16.4362 26.8069 16.5781C26.0583 17.4083 25.5576 18.4319 25.3619 19.5325C25.1426 20.2421 24.9104 20.0485 24.7427 19.7518C24.3427 19.3648 24.3169 16.4104 23.8267 16.9006V16.9006Z" fill="#F5F5F5"/>
<path id="Vector_11" fill-rule="evenodd" clip-rule="evenodd" d="M26.1746 21.7644C26.5358 21.5064 26.3681 21.3387 26.897 21.8676C27.5779 23.0647 27.9751 24.402 28.0582 25.7767C28.0195 26.0992 28.2517 26.2928 28.3549 26.2283C28.4065 25.48 30.2514 24.4221 31.9285 24.2673C32.1866 24.2157 32.0575 23.7254 32.0962 23.4674C31.993 22.5385 32.6123 21.687 33.5025 21.6225C34.6894 21.8031 35.0893 22.4353 35.1151 23.4029C34.9861 25.2736 33.038 25.5961 31.9414 25.7251C31.7737 25.8025 31.7092 25.8799 31.9414 25.9702L36.5214 25.9831L36.7536 26.1121C36.7794 26.2412 36.6891 26.1379 36.4956 26.4347C36.3021 26.7314 36.0569 27.4281 36.044 27.8796C34.671 28.2804 33.2626 28.5482 31.8382 28.6795C31.348 28.9375 31.1029 29.2729 31.1932 29.6471C31.3609 30.0728 32.4704 30.4857 32.4704 30.5115C32.6768 30.6405 32.9219 30.9501 32.4059 31.5694C30.174 31.4791 28.4452 30.5244 27.8517 29.1826C27.6711 29.0536 27.4647 29.1826 27.3486 29.3633C26.5718 30.5572 25.452 31.4882 24.1362 32.0338C23.246 32.2531 22.3429 31.9048 21.9172 31.3242C21.6333 30.9888 21.6462 30.6276 21.5301 30.5502C21.0528 30.7566 16.9373 32.5112 17.4662 31.6984C18.4596 30.6147 20.2013 29.8277 21.7236 28.7698C21.8527 28.4215 22.0462 27.2216 22.6525 26.8346C22.6783 26.8346 22.5493 27.5313 22.5622 27.828C22.5622 28.0731 22.5493 28.1634 22.6009 28.0989C22.7041 28.0344 24.5619 26.5766 24.7038 26.125C24.8845 25.867 24.7554 25.222 24.7554 25.1962C24.42 24.2931 23.9298 24.2286 23.7491 23.777C23.5814 23.1836 23.6588 22.5127 23.9943 22.3192C24.291 22.0482 24.6393 22.074 24.9748 22.3708C25.3618 22.7062 25.6843 23.3642 25.7875 23.8544C25.723 24.0479 25.2973 23.7254 25.1425 23.8286C25.4005 24.0866 25.5295 24.4092 25.6198 24.7962C25.8778 25.8283 25.7875 26.2153 25.5553 26.8862C24.7296 28.615 23.6717 29.1439 22.7428 29.7761C22.717 29.789 22.7041 30.2276 23.0525 30.4599C23.1815 30.5889 23.6588 30.6405 24.2136 30.4599C25.4203 29.7936 26.3965 28.7769 27.0132 27.5442C27.1809 26.6153 26.9487 25.6348 26.7035 24.7833C26.4223 24.1042 26.1641 23.4157 25.9295 22.7191C25.9036 22.2031 25.9424 22.0224 26.1875 21.7644H26.1746ZM14.2022 16.9394C14.7183 17.1845 15.7117 17.0684 15.673 16.2298L15.6472 15.8298C15.5439 15.5718 15.2472 15.6363 15.1827 15.9073C15.1569 15.9847 15.2214 16.1266 15.144 16.1653C15.0924 16.204 14.9247 16.1782 14.9376 15.946C14.9376 15.8685 14.886 15.7911 14.8473 15.7395C14.8086 15.7266 14.7957 15.7137 14.7312 15.7137C14.6538 15.7137 14.6667 15.7395 14.6151 15.804L14.5764 15.9976C14.5764 16.0879 14.5376 16.1137 14.4731 16.1266C14.4086 16.1266 14.4215 16.1266 14.3699 16.1008C14.3312 16.0621 14.2925 16.0492 14.2925 15.9847L14.2667 15.7782C14.2324 15.7402 14.1874 15.7132 14.1377 15.7008C13.841 15.7008 13.8281 16.0363 13.841 16.1653C13.8152 16.1782 13.8023 16.7716 14.2022 16.9394Z" fill="#F5F5F5"/>
<path id="Vector_12" fill-rule="evenodd" clip-rule="evenodd" d="M29.6334 23.4674C30.1495 23.7254 31.4138 23.5706 31.1042 22.7578L31.0784 22.3708C30.9752 22.1127 30.6913 22.1772 30.6139 22.4353C30.601 22.5127 30.6526 22.6546 30.5752 22.6933C30.5365 22.7449 30.3688 22.7191 30.3688 22.4869C30.3688 22.4095 30.3172 22.332 30.2785 22.2804C30.2527 22.2546 30.2269 22.2546 30.1624 22.2546C30.0979 22.2546 30.0979 22.2675 30.0592 22.332L30.0205 22.5256C30.0076 22.6159 29.9689 22.6546 29.9173 22.6546C29.8399 22.6546 29.8657 22.6546 29.8012 22.6288C29.7754 22.5901 29.7238 22.5772 29.7238 22.5127C29.7238 22.4482 29.7238 22.3449 29.698 22.3062C29.6721 22.2675 29.6205 22.2546 29.5689 22.2417C29.2851 22.2417 29.2593 22.5643 29.2722 22.6933C29.2593 22.7191 29.2464 23.2996 29.6334 23.4674V23.4674ZM38.6385 20.7581C39.1546 21.0161 40.148 20.9 40.1093 20.0614L40.0835 19.6615C39.9802 19.4035 39.6835 19.468 39.619 19.726C39.5932 19.8163 39.6577 19.9453 39.5803 19.984C39.5287 20.0356 39.361 20.0098 39.3739 19.7776C39.3739 19.7002 39.3094 19.6228 39.2836 19.5712C39.2449 19.5583 39.232 19.5454 39.1546 19.5454C39.0901 19.5454 39.0901 19.5712 39.0514 19.6357L39.0127 19.8292C39.0127 19.9066 38.974 19.9453 38.9094 19.9582C38.8449 19.9582 38.8578 19.9582 38.8062 19.9195C38.7675 19.8937 38.7288 19.8679 38.7288 19.8163C38.7288 19.7518 38.7159 19.6486 38.6901 19.597C38.6643 19.5583 38.6256 19.5454 38.5611 19.5325C38.2773 19.5325 38.2644 19.8679 38.2773 19.984C38.2515 20.0098 38.2386 20.6033 38.6385 20.7581V20.7581ZM43.283 27.5571C42.3799 28.5892 42.7798 30.2921 42.9862 30.6534C43.2959 31.2726 43.5281 31.6597 44.1216 31.9564C44.6634 32.3434 45.0762 32.0983 45.3085 31.8274C45.8503 31.2726 45.8503 29.8406 46.1083 29.5567C46.289 29.0407 46.7276 29.131 46.9469 29.3632C47.1461 29.6436 47.4122 29.8698 47.721 30.0212C48.2241 30.4598 48.8176 30.5372 49.4111 30.1502C49.811 29.918 50.0819 29.6213 50.3141 29.0407C50.5722 28.3311 50.4432 25.08 50.3787 23.1577C50.3658 23.0029 49.8626 20.5001 49.8626 20.4743C49.8626 20.4485 49.7852 19.197 49.7336 18.9003C49.7336 18.7842 49.6949 18.7455 49.8239 18.7713C49.9529 18.8745 49.9787 18.8874 50.0561 18.9261C50.1851 18.9519 50.3142 18.7197 50.2367 18.5004L48.9724 16.1782C48.8821 16.0878 48.7531 15.9846 48.5854 16.2169C48.4878 16.302 48.4096 16.4071 48.3562 16.525C48.3027 16.643 48.2753 16.7711 48.2758 16.9006C48.3145 17.4554 48.4048 18.0101 48.4435 18.5649L48.9595 21.3774C49.1143 23.39 49.153 25.0284 49.3079 27.0539C49.282 27.8925 49.024 28.6408 48.766 28.7311C48.766 28.7311 48.3919 28.9633 48.1467 28.7311C47.9532 28.6408 47.2179 27.4925 47.2179 27.4925C46.8308 27.1442 46.5986 27.2345 46.3148 27.4925C45.5923 28.2021 45.2569 29.5438 44.7537 30.4598C44.6247 30.6663 44.2506 30.8469 43.8506 30.4469C42.8185 29.0278 43.4249 27.041 43.2959 27.5571H43.283ZM38.8707 15.8298C39.3481 16.0233 39.6706 16.9909 39.5674 17.4554C39.4771 18.023 39.2191 18.6552 39.0514 18.5649C38.8449 18.5004 39.1804 17.9972 38.9869 17.4683C38.8836 17.1328 38.2386 16.5007 38.3031 16.3201C38.1741 15.933 38.5869 15.7653 38.8707 15.8298V15.8298Z" fill="#F5F5F5"/>
<path id="Vector_13" fill-rule="evenodd" clip-rule="evenodd" d="M44.8172 28.1247C44.9075 26.9636 44.7398 26.2669 44.714 25.5961C44.6882 24.9252 43.9399 19.7905 43.8109 19.2745C43.6174 18.3069 44.5205 19.1455 44.4173 18.5778C44.1077 17.8682 43.3465 16.8361 43.1014 16.2298C42.9595 15.9718 43.0111 15.7266 42.6885 16.1524C42.41 16.9196 42.3129 17.7409 42.4047 18.552C43.1788 22.5901 43.9657 25.9444 43.8367 29.789C44.2109 29.789 44.6366 28.9504 44.8172 28.1118V28.1247ZM52.8676 17.4554C53.3063 17.6747 53.5514 18.8745 53.5127 19.21C53.4224 19.8421 53.1901 20.5001 53.0224 20.4227C52.8547 20.3453 53.0611 19.4938 52.9708 19.2358C52.8805 18.8616 52.3 18.1908 52.3516 17.9843C52.2355 17.5715 52.6096 17.3909 52.8676 17.4683V17.4554ZM20.9112 25.9444C21.3241 26.1121 21.5563 26.9765 21.5176 27.2345C21.4402 27.699 21.2208 28.1892 21.066 28.1376C20.8983 28.0731 21.0918 27.4539 21.0144 27.2603C20.9757 26.783 20.4081 26.5379 20.421 26.3444C20.3178 25.9573 20.6661 25.8928 20.9112 25.9573V25.9444Z" fill="#F5F5F5"/>
<path id="Vector_14" fill-rule="evenodd" clip-rule="evenodd" d="M30.8581 27.2732C31.3741 27.299 31.645 27.7248 31.1548 27.8925C30.6645 28.0602 30.1872 28.1892 30.1872 28.8988C30.3678 29.8922 29.9292 29.5439 29.6711 29.4149C29.3744 29.1955 28.5229 28.6795 28.4068 27.5442C28.3939 27.2861 28.6003 27.0539 28.9358 27.0539C29.4518 27.1829 30.2001 27.2087 30.8452 27.2732H30.8581Z" fill="#1B9D00"/>
<path id="Vector_15" fill-rule="evenodd" clip-rule="evenodd" d="M9.92041 15.546C10.5268 15.7266 10.5655 16.6168 10.5139 16.8877C10.4365 17.3651 10.2171 17.8682 10.0623 17.8037C9.89461 17.7521 10.0623 17.1071 9.98491 16.9006C9.89461 16.6168 9.37856 16.1008 9.44306 15.946C9.31405 15.6363 9.67528 15.4944 9.92041 15.5589V15.546ZM21.9057 19.7518C21.4412 20.0099 21.2606 20.7581 21.5444 21.1968C21.8154 21.5838 22.2411 21.4419 22.3056 21.4419C22.7572 21.4935 23.0281 20.5775 23.0281 20.5775C23.0281 20.5775 23.041 20.3195 22.512 20.8097C22.2798 20.8484 22.254 20.771 22.1895 20.642C22.1345 20.3993 22.1617 20.1451 22.2669 19.9195C22.3443 19.7002 22.1637 19.597 21.9057 19.7518ZM25.389 15.1977C25.1697 15.3654 24.6923 15.8427 24.6794 16.3975C24.6794 16.7071 24.6149 16.7071 24.8084 16.9136C24.9633 17.12 25.1181 17.1071 25.4148 16.9523C25.4887 16.9044 25.5519 16.8419 25.6007 16.7687C25.6496 16.6955 25.6829 16.6131 25.6986 16.5265C25.776 16.1653 25.3245 16.6942 25.2729 16.2943C25.1697 15.9331 25.4535 15.7782 25.7244 15.417C25.7244 15.1719 25.7244 15.0042 25.4019 15.1977H25.389ZM28.2144 15.7137C28.1019 16.1663 28.0328 16.6285 28.008 17.0942C27.9306 17.4425 28.3692 17.5844 28.5756 17.1329C28.8723 16.3201 28.8723 15.9718 28.8981 15.6234C28.8078 15.1074 28.4466 15.1074 28.2144 15.7008V15.7137ZM45.9536 24.7317C46.0052 24.6672 48.4564 22.9255 48.4564 22.9255C48.7016 22.8481 48.65 23.8286 48.5338 23.8286C47.7768 24.5624 46.9053 25.1681 45.9536 25.6219C45.8246 25.6993 45.7085 24.951 45.9536 24.7188V24.7317ZM48.1726 24.7188C48.5984 24.9252 48.779 26.1895 48.7274 26.525C48.7403 27.1958 48.3145 27.7248 48.1468 27.6345C47.9662 27.5571 48.1597 26.8088 48.0823 26.5508C47.992 26.1766 47.6179 25.48 47.6824 25.2865C47.5534 24.8607 47.9146 24.6414 48.1726 24.7188V24.7188ZM33.6716 30.1373C33.8393 29.8793 34.3554 29.531 34.3683 29.531C34.6134 29.402 34.8456 29.6213 34.8327 29.6084C34.8714 29.8535 34.6779 30.0728 34.7424 30.3954C34.794 30.5244 34.8327 30.6663 35.0778 30.6147C35.4649 30.3179 35.8261 30.2921 36.2132 30.2663C36.5099 30.2921 36.5099 30.7824 36.3293 30.7953C35.6068 30.9501 35.2972 31.1436 34.7811 31.3371C34.536 31.4791 34.3296 31.2984 34.3296 31.2855C34.3296 31.2726 34.2006 31.1436 34.2909 30.8211C34.3038 30.5631 34.2006 30.4341 33.9941 30.4599C33.8264 30.5373 33.6845 30.5889 33.6071 30.4083C33.5684 30.2792 33.5684 30.2147 33.6716 30.1373V30.1373ZM50.74 30.8082C50.8432 30.9372 50.9206 31.0662 50.74 31.2855L50.2755 31.6726C50.1852 31.8274 50.1465 32.0338 50.3916 32.0983C50.8432 32.2273 51.9011 31.5436 51.9011 31.5307C52.0688 31.4017 52.0172 31.1565 51.9914 31.1565C51.9011 31.0404 51.6689 31.1049 51.5269 31.092C51.4495 31.092 51.2173 31.0533 51.3205 30.8469C51.4237 30.7179 51.4495 30.6405 51.514 30.4728C51.5914 30.3179 51.5269 30.2147 51.2689 30.1244C51.0109 30.0857 50.9077 30.1115 50.6238 30.1244C50.4561 30.1631 50.4045 30.2276 50.3658 30.4212C50.3916 30.705 50.5593 30.6921 50.7529 30.8082H50.74Z" fill="#F5F5F5"/>
<path id="Vector_16" fill-rule="evenodd" clip-rule="evenodd" d="M33.7605 23.7125C33.696 23.8415 33.4638 23.8286 33.2445 23.7125C33.0251 23.5964 32.9219 23.39 32.9864 23.2738C33.051 23.1577 33.2832 23.1577 33.5025 23.2738C33.7218 23.39 33.825 23.5964 33.7605 23.7125ZM22.6267 17.0296C22.4977 17.0683 22.33 16.9522 22.2526 16.7716C22.1752 16.591 22.2139 16.4491 22.3429 16.4104C22.4719 16.3717 22.6396 16.5007 22.7171 16.6684C22.7945 16.8361 22.7558 17.0038 22.6267 17.0296Z" fill="#259F00"/>
<path id="Vector_17" fill-rule="evenodd" clip-rule="evenodd" d="M44.6494 46.8702C45.8105 46.9218 46.92 46.8831 48.0811 46.9476C48.3004 47.1154 48.1456 47.5669 48.0037 47.5282L47.0232 47.5024C47.0232 47.1283 46.0556 47.1928 46.0943 47.5153C45.5782 47.5798 45.1138 47.5024 44.5977 47.4766C44.4429 47.2831 44.4687 46.9476 44.6494 46.8702V46.8702Z" fill="#209000"/>
</g>
</g>
</g>
<defs>
<clipPath id="clip0_2909_185297">
<path d="M0.246094 32C0.246094 14.3269 14.573 0 32.2461 0V0C49.9192 0 64.2461 14.3269 64.2461 32V32C64.2461 49.6731 49.9192 64 32.2461 64V64C14.573 64 0.246094 49.6731 0.246094 32V32Z" fill="white"/>
</clipPath>
</defs>
</svg>
