<svg width="65" height="64" viewBox="0 0 65 64" fill="none" xmlns="http://www.w3.org/2000/svg">
<g id="Rounded=Slovakia (SK)">
<g clip-path="url(#clip0_2909_185287)">
<path id="Vector" d="M0.246094 0H64.2461V64H0.246094V0Z" fill="#EE1C25"/>
<path id="Vector_2" d="M0.246094 0H64.2461V42.6625H0.246094V0Z" fill="#0B4EA2"/>
<path id="Vector_3" d="M0.246094 0H64.2461V21.3375H0.246094V0Z" fill="#F5F5F5"/>
<path id="Vector_4" d="M25.6465 49.4375C19.909 46.6875 11.709 41.1875 11.709 30.3375C11.709 19.4875 12.2215 14.5625 12.2215 14.5625H39.0715C39.0715 14.5625 39.5965 19.4875 39.5965 30.3375C39.5965 41.1875 31.3715 46.675 25.6465 49.4375Z" fill="#F5F5F5"/>
<path id="Vector_5" d="M25.6469 48C20.3844 45.4625 12.8594 40.4375 12.8594 30.475C12.8594 20.5125 13.3344 16 13.3344 16H37.9594C37.9594 16 38.4344 20.525 38.4344 30.475C38.4344 40.425 30.9094 45.475 25.6469 48Z" fill="#EE1C25"/>
<path id="Vector_6" d="M26.7715 27.875C28.1965 27.9 30.984 27.95 33.459 27.125C33.459 27.125 33.384 28 33.384 29.0375C33.384 30.075 33.459 30.95 33.459 30.95C31.283 30.3505 29.0262 30.0974 26.7715 30.2V35.7H24.5215V30.2C22.2668 30.0974 20.01 30.3505 17.834 30.95C17.834 30.95 17.909 30.075 17.909 29.0375C17.909 28 17.834 27.125 17.834 27.125C20.3215 27.95 23.0965 27.9 24.5215 27.875V24.4125C22.7287 24.3686 20.9413 24.6263 19.234 25.175C19.234 25.175 19.2965 24.3 19.2965 23.2625C19.2965 22.225 19.234 21.3375 19.234 21.3375C21.359 22.05 23.2215 22.1125 24.509 22.0875C24.4465 19.9125 23.809 17.1625 23.809 17.1625C23.809 17.1625 25.1215 17.2625 25.6465 17.2625C26.1715 17.2625 27.484 17.1625 27.484 17.1625C27.484 17.1625 26.8465 19.9125 26.7715 22.1C28.5638 22.1528 30.352 21.8992 32.059 21.35C32.059 21.35 31.9965 22.225 31.9965 23.2625C31.9965 24.3 32.059 25.175 32.059 25.175C29.934 24.4625 28.0715 24.4125 26.7715 24.425V27.875V27.875Z" fill="#F5F5F5"/>
<path id="Vector_7" d="M25.6465 35.1C22.9965 35.1 21.5715 38.775 21.5715 38.775C21.5715 38.775 20.784 37.025 18.6215 37.025C17.159 37.025 16.084 38.3375 15.3965 39.55C18.059 43.775 22.309 46.3875 25.6465 48C28.984 46.3875 33.234 43.775 35.8965 39.5375C35.209 38.3375 34.134 37.0375 32.6715 37.0375C30.509 37.0375 29.7215 38.7875 29.7215 38.7875C29.7215 38.7875 28.2965 35.1 25.6465 35.1Z" fill="#0B4EA2"/>
</g>
</g>
<defs>
<clipPath id="clip0_2909_185287">
<path d="M0.246094 32C0.246094 14.3269 14.573 0 32.2461 0V0C49.9192 0 64.2461 14.3269 64.2461 32V32C64.2461 49.6731 49.9192 64 32.2461 64V64C14.573 64 0.246094 49.6731 0.246094 32V32Z" fill="white"/>
</clipPath>
</defs>
</svg>
