<svg width="65" height="64" viewBox="0 0 65 64" fill="none" xmlns="http://www.w3.org/2000/svg">
<g id="Rounded=Somalia (SO)">
<g clip-path="url(#clip0_2909_185481)">
<g id="Group">
<path id="Vector" fill-rule="evenodd" clip-rule="evenodd" d="M-15.7539 0H80.247V64.0036H-15.7539V0Z" fill="#40A6FF"/>
<path id="Vector_2" fill-rule="evenodd" clip-rule="evenodd" d="M42.3168 47.6482L31.9942 40.9652L21.7348 47.7205L25.555 36.7476L15.3047 29.9743L27.9844 29.884L31.9129 18.9473L35.9318 29.8569L48.6024 29.8659L38.4063 36.7025L42.3168 47.6482Z" fill="#F5F5F5"/>
</g>
</g>
</g>
<defs>
<clipPath id="clip0_2909_185481">
<path d="M0.246094 32C0.246094 14.3269 14.573 0 32.2461 0V0C49.9192 0 64.2461 14.3269 64.2461 32V32C64.2461 49.6731 49.9192 64 32.2461 64V64C14.573 64 0.246094 49.6731 0.246094 32V32Z" fill="white"/>
</clipPath>
</defs>
</svg>
