<svg width="65" height="64" viewBox="0 0 65 64" fill="none" xmlns="http://www.w3.org/2000/svg">
<g id="Rounded=Tristan da Cunha (TA)">
<g clip-path="url(#clip0_2909_185388)">
<path id="Vector" d="M64.2461 64V0H0.246094V64H64.2461Z" fill="#000066"/>
<path id="Vector_2" d="M59.1332 27.425C59.1332 34.65 57.9832 42.45 48.5832 46.175C39.2332 42.45 38.0832 34.65 38.0332 27.425H59.1332Z" fill="#8FC5FF" stroke="#F5F5F5" stroke-width="0.443326"/>
<path id="Vector_3" d="M48.5832 46.125C52.1449 44.8799 55.1167 42.3537 56.9207 39.0375H56.0332C55.7707 39 47.0332 38.1625 45.9707 37.7125C45.0957 37.4 41.6207 38.025 40.0332 38.5875C41.7843 42.1269 44.8544 44.8378 48.5832 46.1375V46.125Z" fill="#366CC9" stroke="black" stroke-width="0.443326"/>
<path id="Vector_4" d="M42.0219 41.7H42.5594C42.6844 41.7 42.6844 41.7 42.7344 41.575C42.7844 41.4375 42.9094 41.475 42.9969 41.525C43.0844 41.5625 43.2719 41.525 43.3594 41.4375C43.4469 41.35 43.4469 41.35 43.5344 41.4375C43.6219 41.525 43.6594 41.475 43.7594 41.4375C43.7969 41.4375 43.9719 41.35 44.0094 41.2125C44.0594 41.0875 44.1969 41.0375 44.2469 41.125C44.2844 41.2125 44.3719 41.2125 44.4594 41.2125C44.5594 41.2125 44.5594 41.2625 44.5594 41.3875C44.5594 41.475 44.5594 41.5125 44.7719 41.35C44.9469 41.525 44.9969 41.4375 44.9969 41.2625C44.9969 41.075 44.9969 40.375 44.9094 40.325C44.8219 40.2875 44.7844 39.975 44.7344 39.75C44.7344 39.3125 44.7344 39.3125 44.2844 39.0875C44.2844 38.9625 44.1969 38.9125 43.8469 38.9125C43.8844 38.8625 43.8469 38.725 43.7594 38.6875C43.6719 38.6375 43.6719 38.6 43.7594 38.425C43.8469 38.425 44.0094 38.425 44.0594 38.2875C44.1594 38.2 44.4219 38.2 44.5969 38.2875C44.7719 38.375 44.9469 38.375 45.2594 38.2875L45.7969 38.025C46.0219 37.9 46.0594 37.85 46.0594 37.6625C46.0594 37.225 45.9344 36.7875 45.8344 36.5625C45.7094 36.3375 45.7094 36.1125 45.5344 35.7125C45.3469 35.3625 45.3469 35.275 45.1719 35.05C45.0844 34.9625 45.0469 34.925 45.0469 34.7875C45.034 34.6137 44.9531 34.4521 44.8219 34.3375C44.4594 34.0375 44.3719 33.0125 44.1969 32.2625C44.1094 31.8125 44.1969 30.8 44.0219 30.6125C43.7094 30.4 43.5719 30.4375 43.3594 30.3625C43.1844 30.125 43.1344 29.7375 42.9594 29.3375C42.7344 29.375 42.5969 29.5875 42.4594 29.6875C42.3344 29.775 42.2969 29.775 42.2969 30C42.2969 30.175 42.1594 30.4375 41.9844 30.8C41.8094 31.15 41.4094 31.0125 41.0969 31.5C40.4719 30.75 40.4719 30.525 40.4344 30.3125C40.4344 30.0875 40.2969 30.0375 39.9344 29.725V29.0625C39.6344 28.85 39.4594 28.8875 39.3219 29.0625C39.1969 29.1875 39.0969 29.425 38.8844 29.5125C38.7844 29.6875 38.4344 30.0375 38.1719 30.525C38.4344 34.525 39.3219 38.5125 42.0219 41.7V41.7Z" fill="#5D3100" stroke="black" stroke-width="0.05"/>
<path id="Vector_5" d="M59.1332 27.425C59.1332 24.675 59.0082 22.0125 59.0457 19.7125C55.7111 18.4172 52.1604 17.7681 48.5832 17.8C46.2332 17.8 41.6207 18.1625 38.1207 19.7125C38.2082 22.0125 38.0332 24.675 38.0332 27.425H59.1332Z" fill="#FFFF00" stroke="#F5F5F5" stroke-width="0.443326"/>
<path id="Vector_6" d="M38.6211 30.5625C38.7336 30.75 38.9461 31.0625 38.9586 31.2375C39.0586 31.075 39.1086 30.9875 39.1211 30.9C39.1461 30.8 39.2711 30.5875 39.2211 30.4875C39.1586 30.375 39.1461 30.2875 39.2711 30.3625C39.3961 30.45 39.3711 30.5875 39.3461 30.7875C39.2711 31.35 39.0336 31.475 38.9961 31.8625C39.3336 32.65 39.0836 32.9375 39.4461 33.725C39.5086 33.7625 39.6586 33.7 39.7086 33.725C39.9086 33.575 40.0461 33.625 40.3336 33.675C40.5961 33.7375 40.7461 33.925 40.7461 34.1125C40.7461 34.2875 40.7461 34.325 40.8086 34.425C40.8711 34.55 40.9961 34.7 40.9586 34.8C40.9336 34.925 40.9836 34.9875 41.0211 35.05C41.0586 35.1125 41.0086 35.225 40.9711 35.3125C40.9336 35.4125 40.9461 35.5 41.0961 35.6875C41.2211 35.85 41.5461 36.5625 41.5461 37C41.5461 37.4125 41.5711 37.625 41.7461 37.7C41.9211 37.7875 41.9836 37.85 41.9461 38.0375C41.9571 38.4686 41.9947 38.8986 42.0586 39.325C42.0836 39.475 42.1336 39.45 42.1961 39.525C42.2711 39.6 42.3211 39.7 42.5461 39.7C42.7961 39.7 42.9961 39.6625 43.1586 39.7C43.3586 39.975 43.4836 40.3625 43.5336 40.6125C43.5711 40.8625 43.5711 41.1875 43.6586 41.1875C43.7336 41.1875 43.8211 41.1875 43.7836 40.9C43.7586 40.6 43.7461 40.55 43.6461 40.4C43.5336 40.25 43.4836 40.175 43.5336 40.0875C43.5961 40 43.6086 39.8375 43.5836 39.725C43.5586 39.6125 43.5336 39.4375 43.7211 39.6625L44.0461 40.0375C44.1086 40.125 44.1211 40.2625 44.1086 40.4125C44.0961 40.5375 44.1211 40.6 44.1961 40.5375C44.2836 40.4625 44.3836 40.5875 44.3336 40.7375C44.2961 40.8875 44.3336 40.9875 44.4836 41.025C44.6336 41.0625 44.6836 41.1 44.7086 41.2C44.7336 41.3 44.8711 41.35 44.8711 41.15C44.8711 40.9375 44.7836 40.5 44.7336 40.3625C44.6711 40.225 44.6211 39.925 44.6086 39.7375C44.6086 39.575 44.5711 39.5375 44.4836 39.4875C44.4086 39.4625 44.3336 39.4125 44.3211 39.3125C44.3211 39.225 44.2336 39.225 44.1961 39.225C44.1461 39.225 44.0961 39.175 44.0711 39.125C44.0461 39.0625 44.0086 39.0625 43.9461 39.05C43.8961 39.05 43.7961 39.075 43.7711 38.9875C43.7461 38.9 43.6961 38.7625 43.6461 38.6875C43.5961 38.6 43.5336 38.5875 43.5211 38.3125C43.5211 38.0625 43.5211 38.0375 43.4336 37.9375C43.329 37.8002 43.2369 37.6538 43.1586 37.5C43.1086 37.4125 43.0336 37.3 43.0336 37.5125C43.0336 37.725 43.0336 37.85 43.1836 37.925C43.3211 38.0125 43.3586 38.0125 43.2961 38.125C43.2336 38.2375 43.2961 38.325 43.3211 38.4C43.3461 38.4875 43.3961 38.5625 43.3211 38.65C43.2461 38.725 43.1836 38.7 43.1961 38.575C43.2019 38.4443 43.1716 38.3146 43.1086 38.2C43.0461 38.0875 42.9961 38.0125 42.9336 38.075C42.8586 38.1375 42.8086 38.075 42.8461 38.025C42.8961 37.9875 42.8836 37.9375 42.8461 37.9C42.8086 37.8875 42.8086 37.8375 42.8711 37.775C42.9336 37.7 42.9211 37.6625 42.8836 37.5C42.8461 37.35 42.5961 36.5375 42.4836 36.35C42.3586 36.1625 42.3836 36.025 42.5211 36.225C42.6711 36.4 42.8086 36.55 42.8086 36.7125C42.8336 36.8625 42.8711 36.9625 42.8961 37.0125C42.9336 37.075 42.9961 37.0375 43.0086 36.925C43.0211 36.8 43.1336 36.8375 42.9586 36.5875C42.8086 36.35 42.5086 35.95 42.3961 35.2125C42.2711 34.4875 42.2336 34.0125 42.1086 33.825C41.9961 33.625 41.9586 33.575 41.9461 33.3875C41.9461 33.2 41.9461 33.0125 41.8586 32.8875C41.7711 32.7625 41.7336 32.725 41.7211 32.9375C41.7058 33.1892 41.7268 33.4418 41.7836 33.6875C41.8461 33.7625 41.8211 33.9625 41.7961 34.0875C41.7836 34.2 41.6086 34.3125 41.9836 34.55C42.1336 34.6375 42.1086 34.7625 42.0836 34.8375C42.0711 34.925 42.0461 34.9125 41.9586 34.7875C41.8836 34.6625 41.7961 34.5625 41.7086 34.4875C41.6336 34.4125 41.6336 34.3625 41.6336 34.2125C41.6461 34.0625 41.6836 33.9375 41.6336 33.875C41.5961 33.825 41.5711 33.875 41.5461 33.9625C41.5211 34.05 41.5086 34.3 41.4586 34.3625C41.4086 34.425 41.3836 34.4 41.3461 34.2375C41.3086 34.0875 41.3586 33.8625 41.4336 33.6C41.5211 33.325 41.5711 33.0625 41.5086 32.7125C41.4336 32.3625 41.4711 32.2625 41.1961 31.9625C40.9336 31.6875 40.6461 31.4125 40.5086 31.05C40.3836 30.6875 40.3586 30.3875 40.2211 30.225C40.0917 30.0585 39.9354 29.9149 39.7586 29.8V29.25C39.7586 29.125 39.6961 29.05 39.5586 29.075C39.4086 29.1 39.3086 29.2125 39.2211 29.4C39.1336 29.5625 39.0586 29.4875 38.9336 29.775C38.7961 30.075 38.6211 30.225 38.6211 30.55V30.5625Z" fill="#CF6200"/>
<path id="Vector_7" d="M39.4582 33.95C39.5457 34.0125 39.6332 34.0375 39.7707 33.975C39.8957 33.9125 40.0707 33.7 40.2707 33.9C40.4472 34.1199 40.5441 34.393 40.5457 34.675C40.5457 34.925 40.5457 35.4 40.8332 35.6625C41.1207 35.925 41.2832 36.2 41.2832 36.55C41.2957 36.9 41.4207 37.425 41.4707 37.575C41.4957 37.7 41.5707 37.8625 41.6582 37.95C41.7582 38.05 41.8207 38.325 41.8457 38.575C41.8457 38.875 41.8082 39.075 41.8457 39.2C41.8832 39.325 41.8457 39.45 41.7332 39.375C41.6332 39.3125 41.6082 39.2875 41.5582 39.1625C41.5082 39.0375 41.4207 39.075 41.4832 39.25C41.5457 39.4375 41.7082 39.575 41.8582 39.575C42.0082 39.575 42.0582 39.6 42.1457 39.7C42.2332 39.7875 42.2582 39.8375 42.4207 39.8375C42.5832 39.8375 42.5957 39.8375 42.7457 39.8875C42.8957 39.925 42.8957 39.9 42.9832 39.8875C43.0582 39.8625 43.1457 39.925 43.1957 40.075C43.2457 40.2375 43.3957 40.65 43.3957 40.75C43.3957 40.8625 43.3957 40.9875 43.4707 41.1C43.5582 41.225 43.5332 41.3375 43.4332 41.2625C43.3457 41.1875 43.3457 41.225 43.2832 41.225C43.2082 41.2375 43.1582 41.2125 43.0707 41.15C42.9832 41.0875 43.0332 41.1 42.9457 40.9625C42.8582 40.8375 42.7957 40.775 42.7957 40.875C42.7957 40.975 42.7957 41.1125 42.7082 41.0625C42.6457 41 42.6082 41 42.5457 41.0625C42.4832 41.125 42.4707 41.1625 42.3957 41.05C42.3332 40.9375 42.2582 40.925 42.1832 40.9C42.1082 40.875 42.1082 40.8875 42.0832 40.775C42.0457 40.675 41.9457 40.65 41.8457 40.65C41.7582 40.65 41.7082 40.6125 41.6957 40.5375C41.6957 40.4625 41.6332 40.4125 41.5832 40.3875C41.5332 40.35 41.5707 40.2625 41.5457 40.1875C41.5332 40.1125 41.4707 40.1375 41.4207 40.125C41.3707 40.1125 41.3457 40.125 41.3457 40C41.3457 39.875 41.2957 39.85 41.2582 39.7625C41.2332 39.675 41.2582 39.6 41.2832 39.5125C41.2935 39.4737 41.2944 39.4331 41.2857 39.3939C41.277 39.3547 41.259 39.3182 41.2332 39.2875C41.1582 39.2 41.2207 39.125 41.0332 38.9625C40.8582 38.8 40.7582 38.9375 40.6957 38.55C40.6515 38.112 40.5593 37.6803 40.4207 37.2625C40.3332 37.1375 40.2457 37.05 40.1457 37.0125C40.0457 36.975 39.9707 37.0125 39.9707 36.775C39.9457 36.5625 39.8832 36.2875 39.7457 36.15L39.4707 35.9C39.4082 35.8625 39.3832 35.75 39.4707 35.55C39.5707 35.35 39.5332 35.0875 39.5207 34.9625C39.5207 34.8375 39.4707 34.675 39.5082 34.5375C39.5332 34.4125 39.5082 34.225 39.4707 34.1375C39.4457 34.05 39.3957 34.0125 39.4582 33.95V33.95ZM42.2332 30.675C42.0815 30.8761 41.9003 31.0531 41.6957 31.2C41.4707 31.35 41.1957 31.4625 41.3457 31.7375C41.5082 31.9875 41.6332 32.025 41.6582 32.225C41.6957 32.425 41.7332 32.5875 41.8832 32.6375C42.0457 32.6875 42.1082 32.65 42.1082 32.975C42.1082 33.3 42.1082 33.425 42.2457 33.5375C42.3957 33.6625 42.3707 33.7875 42.4207 34.0875C42.4832 34.375 42.4832 35 42.6707 35.425C42.8707 35.85 43.2832 36.675 43.2332 36.8375C43.1832 37 43.1207 37.1375 43.3082 37.3375C43.4749 37.5246 43.5873 37.7537 43.6332 38C43.6457 38.175 43.6707 38.2375 43.8582 38.175C44.0457 38.1125 44.1332 38.05 44.1957 37.9625C44.2582 37.8875 44.3707 37.9125 44.5457 38C44.7207 38.0875 44.9832 38.175 45.1332 38.0875C45.2832 38 45.3707 37.8625 45.5082 37.8625C45.7207 37.7 45.7957 37.375 45.8457 37.2875C45.8832 37.2 45.8457 37.2 45.7582 37.1125C45.6707 37.025 45.7207 36.8625 45.6957 36.7125C45.667 36.4553 45.5816 36.2077 45.4457 35.9875C45.2582 35.65 45.1457 35.2375 45.0207 35.1125C44.8957 35.0125 44.8457 34.7625 44.8332 34.6375C44.8082 34.5125 44.6707 34.4 44.5832 34.3125C44.4832 34.225 44.3957 34.0875 44.2957 33.5375C44.1832 33 44.1082 32.625 44.1082 32.5375C44.1082 32.4375 44.0832 32.4125 43.9832 32.4C43.9082 32.3625 43.8582 32.2125 43.8832 32.125C43.9082 32.05 43.8582 31.975 43.8207 31.875C43.7832 31.8 43.8207 31.625 43.8832 31.525C43.9457 31.4375 43.9332 31.175 43.8707 30.9625C43.8082 30.75 43.7457 30.5625 43.5082 30.525C43.2582 30.5 43.2207 30.4375 43.1207 30.2375C43.0207 30.0375 42.9332 29.6875 42.8957 29.6125C42.8707 29.525 42.8332 29.525 42.6457 29.675C42.4582 29.825 42.3957 29.875 42.3957 30.1625C42.3957 30.3375 42.4207 30.4125 42.4832 30.525C42.5457 30.625 42.5707 30.65 42.6082 30.95C42.6582 31.25 42.9207 31.7 42.5832 31.9625C42.2332 32.2375 42.2957 32.2875 42.3082 32.4625C42.3082 32.65 42.2207 32.775 42.1582 32.5125C42.0957 32.2625 42.1582 32.1 42.3332 31.975C42.5207 31.85 42.6957 31.7 42.5707 31.525C42.4457 31.3625 42.3957 30.9625 42.3957 30.775C42.3832 30.6 42.3332 30.525 42.2332 30.675V30.675Z" fill="#CF6200"/>
<path id="Vector_8" d="M39.4957 34.5875L39.5207 34.9625C39.5207 35.0875 39.5707 35.35 39.4707 35.5375C39.3832 35.7375 39.4082 35.85 39.4707 35.9125C39.5083 35.9016 39.5432 35.8827 39.573 35.8572C39.6027 35.8318 39.6267 35.8002 39.6433 35.7647C39.6598 35.7292 39.6686 35.6905 39.669 35.6514C39.6695 35.6122 39.6615 35.5733 39.6457 35.5375C39.621 35.4815 39.6104 35.4204 39.6147 35.3594C39.6191 35.2984 39.6383 35.2394 39.6707 35.1875C39.7207 35.0875 39.7207 35.025 39.6707 34.95C39.6207 34.875 39.6207 34.875 39.6707 34.65C39.7332 34.4625 39.5957 34.4625 39.4957 34.5875V34.5875ZM41.4707 37.575C41.4207 37.425 41.2957 36.9 41.2832 36.55C41.273 36.3791 41.2277 36.2122 41.1503 36.0595C41.0729 35.9069 40.965 35.7717 40.8332 35.6625C40.6082 35.4625 40.5707 35.125 40.5457 34.875C40.3832 34.7625 40.3082 34.8125 40.3332 35C40.3332 35.2125 40.5457 35.3125 40.5207 35.6C40.4832 35.9125 40.4832 35.825 40.6332 35.975C40.7707 36.1375 40.8332 36.2625 40.7582 36.325C40.6832 36.3875 40.6707 36.4875 40.7707 36.525C40.8832 36.575 40.8957 36.6875 40.8707 36.8C40.8707 36.9 40.9582 36.925 41.0207 37C41.0536 37.057 41.0709 37.1217 41.0709 37.1875C41.0709 37.2533 41.0536 37.318 41.0207 37.375C40.9707 37.475 40.9582 37.6375 41.0707 37.55C41.1832 37.4625 41.2207 37.55 41.3082 37.7C41.3707 37.825 41.4332 37.7875 41.5207 37.7375C41.4943 37.6813 41.4733 37.6227 41.4582 37.5625L41.4707 37.575ZM42.9582 40.25C42.8832 40.375 42.8082 40.3375 42.7457 40.2625C42.6707 40.2 42.5832 40.2 42.6207 40.075C42.6582 39.95 42.6457 39.925 42.5457 39.85C42.5374 39.8498 42.529 39.8498 42.5207 39.85H42.4207C42.2582 39.85 42.2332 39.7875 42.1457 39.7C42.1301 39.6783 42.1134 39.6575 42.0957 39.6375V39.725C42.0957 39.85 42.0957 39.825 41.9707 39.8625C41.8457 39.9 41.8582 39.7375 41.8332 39.6375C41.8308 39.6163 41.8266 39.5954 41.8207 39.575C41.6832 39.55 41.5332 39.4 41.4832 39.25C41.4207 39.0625 41.4832 39.05 41.5457 39.1625C41.5957 39.2625 41.6332 39.3125 41.7332 39.375C41.8332 39.4375 41.8582 39.3375 41.8332 39.2C41.8268 39.1502 41.8268 39.0998 41.8332 39.05C41.7957 39 41.7707 38.9625 41.7207 38.9375C41.5457 38.8625 41.5957 38.8375 41.6082 38.6875C41.6082 38.55 41.5832 38.55 41.4707 38.6125C41.3457 38.7125 41.3457 38.6125 41.3457 38.375C41.3457 38.15 41.1832 38.15 41.1582 38.3125C41.1207 38.475 41.0707 38.3625 40.9957 38.1375C40.9332 37.9 40.8332 37.85 40.8207 38.075C40.8207 38.25 40.7707 38.3 40.6457 38.2L40.6957 38.55C40.7582 38.925 40.8457 38.8 41.0332 38.9625C41.2207 39.125 41.1582 39.2125 41.2207 39.2875C41.2957 39.3625 41.3082 39.4125 41.2832 39.5125C41.2582 39.6 41.2207 39.6875 41.2582 39.7625C41.2957 39.85 41.3457 39.8875 41.3457 39.9875C41.3457 40.1 41.3707 40.1 41.4207 40.125L41.5082 40.1375L41.5957 40.0125C41.7457 39.8875 41.9707 40.025 42.0207 40.2C42.0832 40.3625 42.1707 40.425 42.2707 40.2875C42.3707 40.1625 42.3457 40.1625 42.4582 40.2875C42.5582 40.4125 42.6207 40.4 42.6207 40.4C42.6207 40.4 42.7457 40.35 42.8207 40.425C42.8957 40.4875 42.9457 40.475 43.0832 40.2625C43.2457 40.05 43.0207 40.1125 42.9582 40.2625V40.25ZM43.3707 33.925C43.4082 33.5875 43.3707 33.25 43.5207 33.125C43.6457 33 43.8207 32.7625 43.8082 33.2875C43.8082 33.8 43.7832 33.7875 43.6832 33.8875C43.5582 34.0125 43.4707 34.05 43.5832 34.2625C43.6957 34.45 43.7082 34.4625 43.6957 34.7625C43.6707 35.075 43.6707 35.2 43.7957 35.35C43.9207 35.5125 43.9457 35.525 43.9707 35.7C44.0159 35.892 44.1107 36.0687 44.2457 36.2125C44.3707 36.3375 44.5457 36.6875 44.5582 36.9375C44.5832 37.1875 44.7957 37.25 44.9957 37.4125C45.1832 37.5875 44.9457 37.7 44.7957 37.6375C44.6457 37.5375 44.7082 37.6375 44.6082 37.725C44.5207 37.85 44.4832 37.85 44.4082 37.675C44.3207 37.5 44.0707 37.3625 43.9457 37.3125C43.8332 37.275 43.7207 37.075 43.6082 36.875C43.566 36.7889 43.5026 36.7149 43.4238 36.6603C43.3451 36.6056 43.2536 36.5719 43.1582 36.5625C43.2207 36.6875 43.2457 36.8 43.2207 36.8375C43.1832 37.0125 43.1207 37.1375 43.3082 37.3375C43.4749 37.5246 43.5873 37.7537 43.6332 38C43.6332 38.1625 43.6707 38.225 43.8457 38.1625C44.0457 38.1 44.1332 38.0375 44.1957 37.9625C44.2582 37.8875 44.3707 37.9 44.5457 38C44.7082 38.0875 44.9707 38.175 45.1207 38.0875C45.2832 38 45.3582 37.8625 45.4957 37.8625C45.7207 37.7 45.7832 37.375 45.8332 37.2875C45.8832 37.2 45.8457 37.2 45.7582 37.1125C45.6707 37.025 45.7207 36.8625 45.6957 36.7125C45.6832 36.55 45.6207 36.325 45.4332 35.9875C45.2457 35.6375 45.1457 35.2375 45.0207 35.1125C44.8957 35.0125 44.8457 34.7625 44.8207 34.625C44.8207 34.5 44.6707 34.4 44.5707 34.3C44.4832 34.2125 44.3957 34.0875 44.2832 33.55L44.1082 32.625C44.0082 32.8125 43.9332 32.85 43.8832 32.725C43.8457 32.6 43.7832 32.5125 43.7207 32.6C43.6582 32.6875 43.6332 32.525 43.6332 32.45C43.6332 32.375 43.6332 32.3625 43.5457 32.3625C43.4707 32.3625 43.5332 32.2375 43.4957 32C43.4707 31.775 43.4207 31.75 43.3957 32.025C43.3707 32.3 43.2207 32.4625 43.2707 32.525C43.3332 32.5875 43.3082 32.7125 43.2457 32.9C43.1832 33.075 43.2082 33.1875 43.2582 33.3125C43.3082 33.4375 43.2207 33.675 43.1957 33.8625C43.1582 34.0625 43.3207 34.2625 43.3707 33.925V33.925ZM40.5582 31.175C40.4332 31.175 40.3582 31.275 40.4332 31.625C40.4707 31.8375 40.3082 31.8 40.2582 31.6875C40.1832 31.575 40.1332 31.35 40.0082 31.15C39.8957 30.95 39.9457 31.275 39.9457 31.475C39.9207 31.65 40.0457 31.65 40.1582 31.8125C40.2707 31.975 40.1582 32.025 40.0457 32.025C39.9332 32.025 39.9832 32.275 40.0082 32.4375C40.0457 32.6125 39.9832 32.6375 39.8957 32.5C39.8082 32.3625 39.8582 32.15 39.8832 31.875C39.8957 31.625 39.9082 31.6875 39.7332 31.625C39.5707 31.5625 39.6082 31.5375 39.6582 31.375C39.7207 31.225 39.7832 31.15 39.7082 31.0625C39.6332 31 39.6457 30.95 39.7707 30.9375C39.8957 30.9125 39.8457 30.825 39.9457 30.7875C40.0582 30.7625 40.1082 30.8125 40.1332 30.6125C40.1332 30.4375 40.1957 30.3375 40.3082 30.4C40.3957 30.65 40.4832 31.05 40.5582 31.1625V31.175ZM42.0957 32.975C42.0957 33.3 42.0957 33.425 42.2332 33.5375C42.3832 33.6625 42.3582 33.7875 42.4207 34.0875C42.4832 34.375 42.4832 35 42.6707 35.425L42.8707 35.8875C42.9654 35.8088 43.0421 35.7108 43.0957 35.6C43.1457 35.5 43.0082 35.2875 42.8957 35.1C42.7832 34.9125 42.9082 34.85 43.0207 34.625C43.1207 34.375 42.9957 34.375 42.8332 34.3125C42.6582 34.25 42.6582 34.1 42.5707 33.85C42.4832 33.6 42.4957 33.5 42.5707 33.3625C42.6082 33.225 42.5707 33.1125 42.4457 33.0875C42.3207 33.05 42.3582 32.9625 42.3957 32.8125C42.4582 32.65 42.4832 32.625 42.2957 32.6625C42.1582 32.7 42.1207 32.725 42.0707 32.7875C42.0957 32.825 42.0957 32.8875 42.0957 32.975Z" fill="#00B800"/>
<path id="Vector_9" d="M43.8702 33.625C43.8702 33.8 43.8702 33.8875 43.8202 33.95C43.7702 34.0125 43.7952 34.1125 43.8452 34.2C43.8827 34.3 43.9202 34.425 43.8827 34.575C43.8327 34.75 43.9077 34.9 43.9952 34.95C44.0827 34.9875 44.1327 34.95 44.1077 35.1625C44.0971 35.2604 44.1084 35.3594 44.1408 35.4524C44.1732 35.5454 44.226 35.63 44.2952 35.7C44.4077 35.7875 44.4827 35.9375 44.4827 36.025C44.4577 36.1125 44.5452 36.2125 44.6577 36.2625C44.7702 36.3 44.7452 36.325 44.7452 36.3875C44.7452 36.45 44.7952 36.45 44.9202 36.475C45.0452 36.5 45.1327 36.5875 45.2827 36.75C45.4202 36.925 45.6077 37.025 45.5827 36.825C45.5577 36.625 45.5827 36.525 45.4077 36.425C45.2077 36.3375 45.0702 35.8875 44.9952 35.5875C44.9176 35.2797 44.7577 34.9989 44.5327 34.775C44.5202 34.575 44.5452 34.4625 44.4077 34.3625C44.3524 34.3198 44.3078 34.2648 44.2774 34.2019C44.2471 34.139 44.2317 34.0699 44.2327 34C44.2327 33.8875 44.1452 33.75 44.0952 33.7375C44.0327 33.7 44.0077 33.6125 44.0077 33.525C44.0077 33.4375 43.8827 33.45 43.8827 33.6125L43.8702 33.625Z" fill="#5D3100"/>
<path id="Vector_10" d="M43.0586 41.85C43.4408 41.7982 43.8147 41.6974 44.1711 41.55C44.3603 41.6934 44.5775 41.7956 44.8086 41.85C44.5461 41.9125 44.3711 41.875 44.3086 41.825C44.3336 41.9125 44.4336 42.0375 44.4836 42.05C44.2336 42.0375 43.9461 41.975 43.8586 41.8875C43.6336 41.975 43.2711 42 43.0586 41.8625V41.85ZM43.5586 42.225L44.2086 42.3125C44.0461 42.4625 44.1836 42.5875 44.4586 42.5625C44.3211 42.5875 44.1836 42.6375 44.2711 42.65C44.6135 42.654 44.9534 42.5902 45.2711 42.4625C45.0586 42.7375 43.9961 43 43.5586 42.2125V42.225ZM43.9961 42.9C44.1211 42.8375 44.4586 42.8625 44.6211 42.9375C44.4336 43 44.0961 43 43.9961 42.9Z" fill="#00D860"/>
<path id="Vector_11" d="M44.4969 42.9C44.7219 42.8625 45.3844 43.025 45.6219 42.875C45.5344 43.0875 45.1219 43.125 44.9844 43.075C44.8344 43.025 44.7094 42.9625 44.6094 42.975C44.6469 42.9375 44.5719 42.9375 44.4844 42.9H44.4969Z" fill="black"/>
<path id="Vector_12" d="M44.7344 43.225C44.9094 43.25 45.5469 43.175 45.7344 43.1C45.9469 43.1625 46.3594 43.2875 46.4469 43.2625C46.2594 43.3875 45.8844 43.3125 45.7594 43.2625C45.4094 43.3875 45.1344 43.4125 44.7344 43.225Z" fill="#00D860"/>
<path id="Vector_13" d="M45.0336 43.3375C45.2961 43.3875 45.5086 43.35 45.7586 43.2625C45.898 43.3163 46.0467 43.3418 46.1961 43.3375C46.3211 43.4 46.4711 43.4875 46.6211 43.5C46.341 43.5475 46.0535 43.526 45.7836 43.4375C45.4708 43.4342 45.1605 43.4937 44.8711 43.6125C44.8711 43.525 44.9211 43.4125 45.0336 43.3375Z" fill="#00D860"/>
<path id="Vector_14" d="M44.7335 42.0375C44.9335 42.1 45.6585 42.075 46.021 41.9125C46.171 41.825 46.2585 41.9375 46.0835 42C45.496 42.2 45.021 42.2875 44.671 42.1125C44.5335 42.025 44.521 41.9625 44.7335 42.0375V42.0375Z" fill="black"/>
<path id="Vector_15" d="M48.259 41.05C47.384 41.475 46.7965 41.6 45.559 41.225C45.4465 41.1875 45.3715 41.225 45.4965 41.3C45.8041 41.4329 46.1276 41.5253 46.459 41.575C46.6215 41.575 46.559 41.6625 46.459 41.6875C46.359 41.7125 46.334 41.7875 46.459 41.725C46.609 41.675 47.334 41.6625 47.6465 41.825C47.7715 41.8875 47.8215 41.875 47.7965 41.825C47.784 41.7625 47.859 41.7375 47.959 41.725C48.059 41.725 48.109 41.6875 48.034 41.65C47.9715 41.6125 47.9465 41.6 48.009 41.575C48.0715 41.55 48.0715 41.525 47.984 41.5C47.8965 41.5 47.8465 41.4625 47.9215 41.4125C48.009 41.375 48.1215 41.35 48.2215 41.35C48.234 41.2875 48.1965 41.1 48.259 41.0625V41.05Z" fill="#00D860"/>
<path id="Vector_16" d="M46.7969 41.1625C47.502 41.1722 48.1879 40.9332 48.7344 40.4875C48.8969 40.5875 49.1469 40.7 49.2719 40.7375C49.3969 40.75 49.5219 40.8625 49.3094 40.8625C49.1219 40.8625 48.8344 40.775 48.7094 40.7375C48.1338 41.0848 47.4685 41.2544 46.7969 41.225C46.6719 41.2125 46.6219 41.15 46.7969 41.1625Z" fill="black"/>
<path id="Vector_17" d="M45.2958 38.4C45.5448 38.5954 45.8545 38.6972 46.1708 38.6875C46.3621 38.8303 46.5783 38.9363 46.8083 39C46.5458 39.1125 46.2583 39.2 46.1833 39.2875C46.0583 39.175 45.9083 39.2 45.8583 39.1375C45.7583 39.225 45.7708 39.2875 45.8458 39.3375C45.9083 39.3875 46.4958 39.475 46.6458 39.4375C46.7833 39.3875 46.8208 39.525 46.7083 39.5625C46.3833 39.6625 45.7833 39.5625 45.5833 39.225C45.3708 38.9 45.2083 38.775 44.6333 39.075C44.5708 38.9125 44.5708 38.875 44.4583 38.875C44.3333 38.875 44.1458 38.725 44.2958 38.7375C44.4583 38.7375 44.9208 38.675 45.2958 38.4V38.4Z" fill="#00D860"/>
<path id="Vector_18" d="M45.4343 39.125C45.3468 39.1625 45.0593 39.3125 44.9593 39.3125C44.8718 39.325 44.6968 39.475 44.8718 39.475C45.0593 39.475 45.2843 39.2875 45.4093 39.2625C45.5468 39.2375 45.5468 39.1 45.4343 39.1375V39.125ZM45.9843 39.725C45.9218 39.725 45.6218 39.8 45.5343 39.7875C45.4468 39.7875 45.3843 39.8125 45.3968 39.8625C45.3968 39.925 45.4218 39.95 45.3093 39.95C45.1843 39.95 45.0718 39.9875 45.0343 40.0125C44.9968 40.05 44.9968 40.0875 45.1218 40.1125C45.2468 40.125 45.2968 40.125 45.4343 40.0625C45.5843 40 45.7093 39.9 45.8593 39.8875C46.0093 39.8875 46.1593 39.7 45.9843 39.7125V39.725Z" fill="#00D860"/>
<path id="Vector_19" d="M45.5719 40.075C45.6969 40.1625 46.3219 40.3625 46.5469 40.35C46.7719 40.3375 46.7344 40.4375 46.5594 40.475C46.2094 40.55 45.7844 40.4 45.4844 40.175C45.3594 40.05 45.4844 40.0125 45.5719 40.075Z" fill="black"/>
<path id="Vector_20" d="M48.5202 40.375C48.0452 40.525 47.5577 40.475 47.3702 40.425C47.1702 40.3875 46.9952 40.3625 47.1202 40.4875C47.2577 40.6125 47.6827 40.7 47.9327 40.6375C47.0702 40.8375 46.8452 40.8125 46.6327 40.775C46.3708 40.7499 46.1071 40.7499 45.8452 40.775C45.7202 40.775 45.5452 40.775 45.4702 40.7125C45.4077 40.6625 45.3702 40.5875 45.5952 40.6125C45.8202 40.6375 45.8452 40.5875 45.6577 40.55C45.4577 40.525 45.1827 40.6125 45.4577 40.775C45.7202 40.95 46.2952 40.775 46.6702 40.875C47.0452 40.975 47.8202 41.05 48.5702 40.45C48.6077 40.425 48.6702 40.325 48.5202 40.375ZM46.1827 39.675V39.8375C46.1702 39.875 46.1702 39.925 46.2327 39.875C46.3077 39.825 46.3577 39.75 46.4327 39.7875C46.5504 39.8211 46.6739 39.8296 46.7952 39.8125C46.8827 39.8125 46.8952 39.7875 46.7702 39.725C46.6452 39.675 46.5202 39.6625 46.4452 39.6625C46.3827 39.675 46.2952 39.6625 46.2327 39.6375C46.1702 39.6 46.1702 39.625 46.1827 39.675V39.675Z" fill="#00D860"/>
<path id="Vector_21" d="M47.4084 39.9C47.2881 39.8879 47.1702 39.8584 47.0584 39.8125C46.9584 39.775 46.8084 39.7625 46.9209 39.8875C47.0209 40.025 47.4459 40.1 47.5959 40.0375C47.7584 39.975 47.6834 39.9125 47.8334 39.9875C47.9834 40.075 48.1334 40.15 48.2459 40.15C48.3584 40.15 48.3959 40.15 48.2709 40.075C48.1459 40.0125 48.0959 39.9875 48.0959 39.9375C48.0959 39.8875 48.0584 39.85 48.1709 39.8875C48.2709 39.925 48.3959 39.975 48.4834 39.925C48.5834 39.8875 48.7334 39.7875 48.8834 39.7875L48.9209 39.7C48.7084 39.675 48.5834 39.7375 48.5084 39.7625C48.4247 39.7942 48.3341 39.8028 48.2459 39.7875C48.1334 39.7625 47.9959 39.75 47.9584 39.725C47.9209 39.7 47.9209 39.6625 48.0084 39.65C48.0959 39.6375 48.1334 39.575 48.0084 39.6C47.8834 39.625 47.5459 39.6 47.3709 39.55C47.1834 39.5 47.1209 39.4875 47.0334 39.5125C46.9584 39.5375 46.9709 39.625 47.0834 39.6375C47.1834 39.6375 47.4334 39.6625 47.5334 39.7375C47.6209 39.825 47.5959 39.825 47.4959 39.7875C47.4084 39.7375 47.2334 39.7625 47.4084 39.9125V39.9Z" fill="#00D860"/>
<path id="Vector_22" d="M48.9078 39.7L48.8828 39.7875C49.1889 39.7749 49.4945 39.8216 49.7828 39.925C49.9453 39.8 49.9078 39.7625 50.0328 39.7875C50.1578 39.8 50.2828 39.85 50.3578 39.8125C50.4203 39.775 50.4578 39.7875 50.5328 39.7875C50.5953 39.8125 50.7453 39.7875 50.8328 39.725C50.9078 39.675 51.0953 39.6 51.2078 39.6C51.3078 39.6 51.4328 39.5875 51.2453 39.55C51.0515 39.5388 50.8572 39.5599 50.6703 39.6125C50.5703 39.65 50.2703 39.675 50.0953 39.675C49.9328 39.675 49.6828 39.7625 49.4953 39.7125C49.2953 39.6625 49.0203 39.7 48.9078 39.7V39.7Z" fill="#00D860"/>
<path id="Vector_23" d="M51.5827 39.6C51.2452 39.85 50.8202 39.9 50.3327 39.9375C50.1827 39.9375 50.2327 39.9875 50.3577 40C50.8577 40.05 51.4702 39.875 51.6577 39.65C51.7202 39.6 51.7202 39.5 51.5827 39.6V39.6Z" fill="black"/>
<path id="Vector_24" d="M49.2344 40.175C49.3719 40.175 49.8969 40.325 50.0719 40.375C50.1969 40.375 50.2344 40.3375 50.1969 40.2875C50.1719 40.2375 50.1594 40.2 50.3844 40.2H51.2594C51.3344 40.175 51.5094 40.0375 51.5969 40.025C51.3844 40.05 50.5094 40.0875 50.4094 40.075C50.3282 40.0611 50.2448 40.0743 50.1719 40.1125C50.0969 40.15 50.0719 40.175 49.9719 40.1375C49.8844 40.1125 49.7344 40.05 49.6594 40.1125C49.5594 40.1625 49.3844 40.1125 49.2344 40.175V40.175Z" fill="#00D860"/>
<path id="Vector_25" d="M51.2466 40.2C51.3341 40.175 51.5091 40.025 51.5966 40.025C51.7466 40.025 51.9091 40.075 51.9966 40.0875C52.0716 40.0875 52.1591 40.0875 52.0966 40.025C52.0341 39.9625 52.0966 39.85 52.3466 39.8875C52.5716 39.9125 52.6966 39.95 52.9216 39.925C53.1466 39.9125 53.2591 40.075 53.6841 39.9C53.6591 40.075 53.7466 40.075 53.8216 40.05C53.9091 40.025 53.9966 40.025 54.1341 40.1375C54.2591 40.2375 55.1091 40.2625 55.3091 40.2125C55.4966 40.175 55.6091 40.275 55.4591 40.3375C55.3091 40.375 55.2716 40.4375 55.3091 40.4875C55.3341 40.5375 55.3716 40.5875 55.1841 40.575C55.0091 40.55 54.9716 40.6 54.8841 40.675C54.7966 40.75 54.7591 40.7625 54.5091 40.7125C54.2591 40.675 54.2091 40.7125 54.0716 40.7375C53.9216 40.7625 53.9091 40.75 53.7591 40.7125C53.5583 40.6424 53.3419 40.6294 53.1341 40.675C52.9466 40.725 52.8216 40.8 52.6591 40.75C52.4966 40.7 52.4841 40.7125 52.5841 40.625C52.6966 40.525 52.7091 40.525 52.9091 40.5C53.1091 40.475 53.2591 40.4125 53.1216 40.3375C52.9716 40.2625 52.9341 40.2625 52.7466 40.3625C52.5716 40.45 52.4716 40.5125 52.2591 40.4C52.0591 40.275 51.9591 40.3 51.8091 40.3375C51.6716 40.375 51.4466 40.3 51.2466 40.2125V40.2ZM51.9466 40.55C51.6716 40.5875 51.6091 40.425 51.3216 40.4625C51.2466 40.4625 51.0716 40.5875 51.2966 40.5625C51.5091 40.55 51.7466 40.6625 51.9466 40.65C52.1591 40.625 52.0716 40.5375 51.9466 40.55ZM51.6216 40.75C51.7716 40.7 52.0591 40.8 52.1716 40.775C52.2966 40.7625 52.4216 40.825 52.2841 40.875C52.1466 40.9125 51.8466 40.8 51.7091 40.8375C51.5841 40.875 51.4341 40.825 51.6216 40.75V40.75ZM48.8716 41.5C49.0591 41.5 49.7466 41.475 50.0216 40.9C50.0341 40.85 50.0591 40.8375 50.1466 40.9C50.2216 40.9625 50.5466 41.15 51.1466 41.1875C51.3091 41.2125 51.4841 41.2875 51.1466 41.2625C50.8091 41.2375 50.2841 41.1625 50.1091 41.0375C49.8091 41.5125 49.2716 41.575 48.8591 41.5625C48.6341 41.5625 48.6966 41.4875 48.8591 41.5H48.8716Z" fill="#00D860"/>
<path id="Vector_26" d="M50.3703 40.7125C50.2703 40.8375 49.9578 41.0625 49.8203 41.0875C49.6578 41.0875 49.2328 41.0375 49.1203 41C49.0203 40.9625 48.8703 40.975 49.0328 41.0875C49.2478 41.2004 49.4911 41.2481 49.7328 41.225C49.8953 41.2 50.0703 41.1375 50.1828 41.225C50.3078 41.3125 50.5453 41.4375 50.6703 41.4125C50.8358 41.3791 51.0067 41.3834 51.1703 41.425C51.2453 41.4625 51.3953 41.5875 51.1703 41.5125C50.9453 41.4375 50.7703 41.5125 50.6578 41.45C50.7828 41.6125 51.0328 41.875 51.2578 41.875C51.3078 41.875 51.3453 41.9625 51.2328 42.0125C51.3328 42.075 51.5953 42.1125 51.7328 41.9875C51.6953 42.0375 51.7203 42.075 51.7703 42.1C51.8203 42.125 51.8953 42.175 51.7953 42.175C51.6953 42.1875 51.4578 42.2125 51.3828 42.1875C51.6078 42.325 52.1953 42.5625 52.7828 42.4375C52.9078 42.4375 52.9578 42.375 52.7828 42.3875C52.3828 42.3875 52.3703 42.3875 52.2953 42.35C52.2203 42.3125 52.2453 42.275 52.3578 42.2375C52.4578 42.2 52.7328 42.175 52.8578 42.175C52.9703 42.175 53.0828 42.1125 52.8578 42.1125C52.6328 42.1125 52.3203 42.1125 52.2078 42.075C52.0953 42.05 52.0078 41.9875 52.1203 41.9C52.2453 41.8125 52.3703 41.85 52.4328 41.775C52.0578 41.775 51.5828 41.575 51.8453 41.375C51.9078 41.3375 51.8828 41.3375 51.7828 41.325C51.6828 41.325 51.4078 41.2375 51.2828 41.1625C51.1578 41.0875 51.2453 41.0375 51.3328 41.025C51.1203 41.0625 50.6703 40.9375 50.3578 40.7125H50.3703ZM53.7453 40.7C53.516 40.8422 53.2526 40.92 52.9828 40.925C52.8203 40.925 52.7828 40.975 52.9203 41C53.0453 41.0125 53.1828 41.025 53.2453 41.0125C53.3078 41 53.3328 41 53.4328 41.025C53.5687 41.0787 53.719 41.0831 53.8578 41.0375C54.0327 40.9889 54.214 40.9678 54.3953 40.975C54.5078 40.975 54.6328 40.975 54.3953 40.925C54.1806 40.8844 53.9601 40.8844 53.7453 40.925C53.6703 40.9375 53.4328 40.925 53.5578 40.9C53.6631 40.8646 53.7607 40.8094 53.8453 40.7375C53.8078 40.7375 53.7828 40.7125 53.7453 40.7V40.7ZM53.6328 41.15C53.4288 41.3017 53.1862 41.3927 52.9328 41.4125C53.1828 41.5 53.3828 41.7625 53.5328 41.75C53.4578 41.7875 53.3578 41.85 53.2703 41.875C53.4203 41.9125 53.6703 41.875 53.8703 41.75C54.2203 41.85 54.6703 41.7875 54.8203 41.6625C54.6018 41.6637 54.3882 41.5983 54.2078 41.475C54.3203 41.475 54.4203 41.4125 54.4828 41.35C54.2078 41.3875 53.7578 41.25 53.6328 41.15Z" fill="#00D860"/>
<path id="Vector_27" d="M53.2715 41.875C53.3715 41.875 53.459 41.7875 53.534 41.75C53.0899 41.7824 52.6462 41.6824 52.259 41.4625C52.0215 41.2375 52.0215 41.4125 52.1965 41.5625C52.3379 41.6963 52.5092 41.7944 52.6962 41.8487C52.8831 41.9031 53.0804 41.9121 53.2715 41.875V41.875ZM53.8715 42.4C53.7715 42.4625 53.2715 42.4875 53.1215 42.4625C52.959 42.425 52.8715 42.4375 52.9215 42.5C52.9715 42.5625 52.984 42.625 52.8465 42.6125C52.6914 42.5927 52.5339 42.6055 52.384 42.65C52.2965 42.6875 52.159 42.775 52.384 42.7375C52.5715 42.7125 52.759 42.6625 52.9215 42.7125C53.0715 42.75 53.634 42.7625 53.7465 42.7125C53.8465 42.65 53.784 42.6625 53.7215 42.6625C53.6715 42.6625 53.659 42.6375 53.7215 42.6C53.7965 42.5625 53.859 42.475 53.8715 42.4ZM49.084 41.725C48.7356 41.8549 48.3757 41.9512 48.009 42.0125C47.8416 42.1 47.6593 42.1552 47.4715 42.175C47.559 42.25 47.859 42.325 47.984 42.2875C47.8987 42.3617 47.8015 42.4208 47.6965 42.4625C47.884 42.45 48.0965 42.4875 48.1965 42.5C47.967 42.6243 47.7068 42.6806 47.4465 42.6625C47.4965 42.75 47.5715 42.825 47.6965 42.825C47.4926 42.882 47.2775 42.8863 47.0715 42.8375C47.1215 42.9625 47.184 43.025 47.259 43.0375C47.084 43.0625 46.8465 43.0875 46.6465 42.975C46.7965 43.175 47.134 43.25 47.6465 43.1875C48.0094 43.1465 48.3569 43.0178 48.659 42.8125C48.4465 42.8375 48.1715 42.85 48.034 42.8125C48.3823 42.7264 48.7154 42.5873 49.0215 42.4C48.9109 42.4029 48.802 42.3724 48.709 42.3125C48.859 42.325 49.434 42.2625 49.5965 42.1875C49.4415 42.1533 49.304 42.0646 49.209 41.9375C49.8352 42.12 50.4973 42.1415 51.134 42C51.2215 41.975 51.2465 41.85 51.059 41.875C50.734 41.8875 50.109 41.8 49.9465 41.725C50.084 41.825 50.2419 41.8934 50.409 41.925C50.109 42.0125 49.684 42.075 49.084 41.725V41.725Z" fill="#00D860"/>
<path id="Vector_28" d="M47.6961 42.475L47.9836 42.3C47.8057 42.3094 47.6287 42.2705 47.4711 42.1875C47.5836 42.1875 47.7711 42.125 48.0086 42.025C47.5836 42.0125 47.2961 42.0125 47.1336 41.9375C46.9651 41.8783 46.7838 41.8654 46.6086 41.9C46.5086 41.925 46.5461 42.0875 46.9836 42.05C46.7148 42.1761 46.4146 42.2196 46.1211 42.175C46.1711 42.325 46.2086 42.475 46.1586 42.55C46.4086 42.6875 47.0336 42.875 47.3461 42.8375C47.0711 42.7375 46.9211 42.625 47.1461 42.6C47.3711 42.575 47.4961 42.525 47.6961 42.475V42.475Z" fill="#00D860"/>
<path id="Vector_29" d="M46.9959 43.225C47.5334 43.175 48.2709 43.1625 48.8709 42.675C49.0209 42.5375 49.1209 42.5875 48.9709 42.7125C48.4443 43.1141 47.8076 43.3453 47.1459 43.375C46.8459 43.375 46.7084 43.25 46.9959 43.225V43.225Z" fill="black"/>
<path id="Vector_30" d="M51.1209 42.3C50.9834 42.3625 50.5959 42.425 50.4834 42.4125C50.3584 42.4 50.1959 42.3875 50.1084 42.4375C50.0084 42.4875 50.0084 42.525 50.1334 42.55L50.5084 42.5625C50.4297 42.6055 50.3614 42.6652 50.3084 42.7375C50.4834 42.6875 50.8334 42.775 50.9334 42.8375C50.8459 42.85 50.7709 42.825 50.7084 42.7875C51.0209 43.125 51.9459 43.125 52.0834 43.0625C52.0209 43.1125 51.9584 43.1625 51.8834 43.1875C52.1459 43.225 52.4459 43.225 52.7334 43.05C52.5788 43.0554 52.424 43.0471 52.2709 43.025C52.3349 42.9661 52.412 42.9233 52.4959 42.9C52.3077 42.8774 52.1169 42.8901 51.9334 42.9375C51.9709 42.8625 52.0209 42.775 52.0959 42.75C51.6875 42.7796 51.2771 42.7373 50.8834 42.625C51.2084 42.6625 51.5584 42.475 51.7209 42.475C51.4709 42.475 51.1834 42.4125 51.1209 42.3V42.3ZM49.9584 42.5625C49.7374 42.6035 49.5201 42.6621 49.3084 42.7375C49.2084 42.7875 49.1209 42.8375 49.3084 42.8375C49.3334 42.8291 49.3584 42.8208 49.3834 42.8125C49.3084 42.8125 49.2084 42.8125 49.3584 42.7625C49.5084 42.7125 49.7084 42.6125 49.9584 42.5625V42.5625ZM49.5084 43.1C49.5834 43.1 49.9459 43.1 50.0709 42.975C50.2209 43.0875 50.4959 43.25 50.6709 43.25C50.8584 43.25 50.8334 43.2875 50.6709 43.3125C50.5209 43.325 50.2209 43.225 50.0709 43.1125C49.8584 43.1875 49.6834 43.125 49.4959 43.0875L49.5084 43.1ZM46.8334 44.65C47.1959 44.7875 47.6584 44.9 48.0084 44.775C48.2084 44.95 48.6084 44.9625 48.8334 44.9125C49.0459 44.875 49.2459 44.8375 49.4834 44.9125C49.7334 45 50.2209 45.0125 50.3584 45.125C50.2334 45.125 49.9709 45.125 49.8959 45.15C49.8334 45.1625 49.8709 45.2 49.9834 45.275C49.5377 45.2593 49.0963 45.3675 48.7084 45.5875C48.7657 45.4574 48.8605 45.3474 48.9808 45.2717C49.1011 45.1959 49.2413 45.1579 49.3834 45.1625C49.1834 45.0875 48.5084 45.0875 48.2959 45.2125C48.2334 45.15 48.1584 45.0375 48.1584 45C47.7959 45.1875 47.1209 44.9 46.8334 44.65V44.65ZM45.9209 44C46.3459 43.95 46.6459 43.8125 46.7709 43.675C46.8334 43.75 47.1459 43.825 47.4834 43.7125C47.4549 43.7362 47.4348 43.7684 47.4258 43.8043C47.4168 43.8403 47.4195 43.8781 47.4334 43.9125C47.1617 43.9358 46.8957 44.0033 46.6459 44.1125C46.5084 44.175 46.0834 44.2375 45.9459 44.1625C45.8209 44.0875 45.8084 44.0125 45.9209 44Z" fill="#00D860"/>
<path id="Vector_31" d="M47.434 43.9125C47.209 43.9125 46.7965 44.0375 46.6465 44.1125L46.709 44.325C47.2648 44.1644 47.8441 44.1009 48.4215 44.1375C48.259 44.1375 47.9215 44.325 47.7465 44.35C48.1965 44.3125 48.6215 44.4125 48.7465 44.4375C48.859 44.4625 48.8715 44.5625 48.7965 44.6375C48.709 44.7125 48.6715 44.725 48.859 44.725C49.034 44.725 49.4215 44.725 49.5965 44.55C49.5215 44.475 49.3465 44.5 49.2965 44.45C49.4092 44.4107 49.5117 44.3466 49.5965 44.2625C49.4206 44.2706 49.2444 44.258 49.0715 44.225C48.9715 44.2 48.8965 44.175 49.0215 44.1C49.107 44.0566 49.1834 43.9972 49.2465 43.925C49.0215 43.9875 48.6715 44.05 48.3715 43.8C48.4965 43.85 48.7465 43.825 48.834 43.7875C48.734 43.725 48.659 43.7 48.584 43.7C48.809 43.575 49.2715 43.475 49.859 43.7C50.1308 43.678 50.4044 43.6949 50.6715 43.75C50.7715 43.6625 50.959 43.4375 51.059 43.3875C50.384 43.4375 49.1715 43.3125 49.184 42.9625C48.9715 43.25 48.4715 43.4125 48.2465 43.3625C48.2215 43.4625 48.309 43.5875 48.384 43.6625C48.1715 43.7 47.7715 43.75 47.584 43.7C47.684 43.8125 47.884 43.9 48.009 43.8875C47.759 43.8875 47.634 43.9375 47.434 43.9125Z" fill="#00D860"/>
<path id="Vector_32" d="M48.8594 44.725C49.0344 44.725 49.4219 44.725 49.5969 44.55C49.5219 44.475 49.3469 44.5 49.2969 44.45C49.4094 44.4103 49.5119 44.3463 49.5969 44.2625C50.0844 44.2125 50.5094 44.2375 50.7219 44.175C50.9344 44.1125 51.4719 44.15 51.5594 44.1125C51.1094 44.2 51.0219 44.2375 50.9844 44.3125C50.9594 44.3875 51.1469 44.4375 51.2469 44.4375C51.0469 44.4375 50.7844 44.65 50.7469 44.7375C50.4969 44.5875 50.3594 44.775 50.3219 44.8375C50.2029 44.8082 50.0792 44.8042 49.9586 44.8257C49.838 44.8472 49.7233 44.8938 49.6219 44.9625C49.3719 44.9 49.2094 44.85 48.9594 44.9C49.1219 44.8625 49.0844 44.75 48.8594 44.7375V44.725ZM51.0594 43.375C51.2219 43.375 51.5594 43.4 51.6844 43.375C51.6053 43.4122 51.5334 43.463 51.4719 43.525C51.8719 43.475 52.3969 43.45 52.5469 43.475C52.3719 43.4375 52.1719 43.5625 52.0719 43.6375C51.9719 43.7 52.0344 43.725 52.1594 43.75C52.2969 43.7625 52.4844 43.875 52.2344 43.8375C51.9562 43.8073 51.6758 43.8031 51.3969 43.825C51.2844 43.8375 51.2219 43.7875 51.3969 43.7625C51.5469 43.725 51.6719 43.675 51.7469 43.6375C51.5895 43.6627 51.4292 43.6627 51.2719 43.6375C51.1844 43.6125 51.1344 43.5625 51.2219 43.55C51.3094 43.5375 51.2594 43.4875 51.1594 43.5C51.0594 43.525 50.8094 43.625 50.6719 43.75C50.8219 43.6 50.9594 43.4625 51.0594 43.3875V43.375Z" fill="#00D860"/>
<path id="Vector_33" d="M49.3089 43.65C49.405 43.7601 49.5244 43.8475 49.6584 43.9059C49.7925 43.9642 49.9378 43.9921 50.0839 43.9875C50.1589 43.9875 50.2964 44.0875 50.1089 44.1C49.6339 44.1125 49.3964 44.0125 49.1839 43.7C49.1339 43.625 49.2089 43.5375 49.3089 43.6375V43.65ZM52.1839 39.6125C52.5574 39.7613 52.9569 39.8336 53.3589 39.825C53.4339 39.825 53.5589 39.8875 53.3964 39.9125C52.9692 39.9644 52.5365 39.8813 52.1589 39.675C52.0714 39.625 52.0964 39.575 52.1964 39.6125H52.1839Z" fill="black"/>
<path id="Vector_34" d="M52.4469 39.625C52.8469 39.6 53.1469 39.6 53.2594 39.725C53.4844 39.65 53.8844 39.6 53.9719 39.6375C54.0719 39.6625 54.1719 39.6 53.9594 39.55C53.7469 39.5 53.2469 39.475 53.0969 39.5125C52.9469 39.5375 52.4719 39.5625 52.2969 39.5375C52.3594 39.55 52.4094 39.5625 52.4469 39.6V39.625ZM53.9719 39.7625C54.1594 39.6625 54.6969 39.7625 54.8469 39.6875C54.7219 39.825 55.2219 39.8375 55.6344 39.725C55.4719 39.825 55.1344 39.85 54.9844 39.9125C54.8344 39.975 54.7469 39.925 54.6344 39.8875C54.5094 39.8375 54.2219 39.725 53.9719 39.7625Z" fill="#00D860"/>
<path id="Vector_35" d="M55.6344 39.725C55.2219 39.85 54.7344 39.825 54.8594 39.6875C54.6844 39.7625 54.1594 39.6625 53.9844 39.7625C54.1594 39.65 54.3094 39.7375 54.4469 39.5C54.5469 39.525 54.7344 39.5375 54.8219 39.4375C54.9549 39.4645 55.0819 39.5153 55.1969 39.5875C55.2719 39.65 55.3719 39.575 55.2844 39.4625C55.4594 39.4 55.3469 39.5625 55.7969 39.4375C55.8844 39.4125 56.1094 39.375 56.1969 39.375C56.0282 39.5133 55.8436 39.6308 55.6469 39.725H55.6344Z" fill="#00D860"/>
<path id="Vector_36" d="M47.4844 37.8L47.3844 27.9625C47.3844 27.5125 47.1719 27.6 47.1719 27.9625V37.7125L47.4844 37.8ZM50.6719 27.425L51.0219 37.8L50.9844 37.8875H50.7469L50.5219 27.425H50.6719ZM53.6844 36.2L53.5094 27.775C53.5094 27.525 53.2844 27.5625 53.2844 27.825L53.4594 36.2H53.6844Z" fill="#FFFF00" stroke="black" stroke-width="0.05"/>
<path id="Vector_37" d="M48.8968 29.15L45.7968 29.1125C45.6718 29.7375 46.4218 29.6875 46.6718 29.55C47.0468 29.775 47.2968 29.775 47.4843 29.55C47.7343 29.775 48.1093 29.725 48.2343 29.55C48.5843 29.8625 48.9843 29.55 48.8968 29.1125V29.15ZM49.1218 30.6625H46.0218C45.4343 31.2 46.1468 31.4625 46.7718 31.1C46.8593 31.2875 47.2093 31.375 47.4843 31.2375C47.7343 31.4125 48.1093 31.2875 48.2718 31.1125C48.5843 31.2375 48.9843 31.2875 49.1593 30.6625H49.1218ZM49.0343 32.6625H46.0218C45.9718 33.15 46.5968 33.1 46.8093 32.9625C47.0343 33.325 47.5593 33.2375 47.7468 33.0125C48.0593 33.2375 48.3218 33.1875 48.4593 33.0125C48.7593 33.275 49.0843 32.925 49.0343 32.6625V32.6625ZM49.2093 34.6125L45.7968 34.5625C45.6218 35.1375 46.1468 35.225 46.3718 35.1C46.4593 35.4 46.8968 35.3125 47.0343 35.1C47.2093 35.225 47.4343 35.1375 47.5343 35.0125C47.5718 35.3125 47.9718 35.3625 48.2843 35.1C48.9093 35.5375 49.4718 35.0125 49.1593 34.6L49.2093 34.6125ZM52.1718 33.8125H49.3843C49.5093 34.3375 49.7843 34.475 50.2218 34.1625C50.5843 34.525 51.1093 34.3875 51.2468 34.2125C51.8718 34.7 52.1718 34.125 52.1718 33.7625V33.8125ZM51.9218 31.8625L49.1718 31.775C49.2093 32.475 49.8718 32.4375 50.2218 32.175C50.4468 32.475 50.8968 32.3875 51.1093 32.175C51.4218 32.525 51.9968 32.3 51.9093 31.8625H51.9218ZM52.2718 29.6875H49.3468C49.3468 30.175 50.0093 30.4375 50.4968 30C50.6218 30.575 51.1593 30.4 51.3718 30.175C51.7343 30.6125 52.4968 30.0875 52.2718 29.725V29.6875ZM52.0843 28.225L49.4343 28.2625C49.4343 28.7125 50.0593 28.8875 50.2718 28.5375C50.3968 28.75 50.8468 28.7125 50.9843 28.5375C51.1593 28.85 51.4218 28.625 51.5093 28.5375C51.8218 28.75 52.1343 28.625 52.0843 28.225ZM55.1468 29.2L51.9593 29.15C51.9593 29.4625 52.2718 29.6 52.4843 29.4625C52.4843 29.825 52.9343 29.9125 53.2343 29.6375C53.4218 29.95 53.9843 30 54.2218 29.6375C54.6593 30.0375 55.1968 29.725 55.0968 29.2H55.1468ZM55.1093 31.825H51.9968C51.9968 32.2625 52.4968 32.3875 52.7968 32.175C52.8468 32.525 53.2468 32.5625 53.4593 32.35C53.7718 32.6625 54.2093 32.7 54.4843 32.35C54.8343 32.475 55.1468 32.175 55.1093 31.8125V31.825ZM54.9218 34.1625H52.4468C52.4468 34.6125 52.9718 34.6125 53.1968 34.3875C53.4593 34.7 53.8218 34.7 54.0343 34.475C54.3468 34.7375 54.8843 34.65 54.9218 34.1625Z" fill="#F5F5F5" stroke="black" stroke-width="0.05"/>
<path id="Vector_38" d="M50.9835 37.8875C49.646 37.8875 48.271 37.8875 47.346 37.8C46.4085 37.7125 46.146 37.5375 45.4835 37.1375L42.996 35.625C42.7835 35.525 42.5585 35.6625 42.871 35.8375L45.346 37.475C46.021 37.925 46.4585 38.325 46.846 38.8125C47.3835 39.3875 47.746 39.3875 48.0085 39.3C48.271 39.2125 48.6335 39.075 49.0335 39.1625C49.3835 39.25 49.9085 39.2875 50.1835 39.25C50.4085 39.475 50.9835 39.425 51.296 39.3375C51.5388 39.2616 51.7969 39.2487 52.046 39.3H52.796C53.021 39.3 53.596 39.1625 53.996 39.2125C54.4335 39.3 54.8335 39.2125 55.1085 39.2125C55.3939 39.1377 55.6914 39.1206 55.9835 39.1625C56.2002 39.0113 56.3589 38.7909 56.4335 38.5375C56.696 38.5 56.7835 38.45 56.8335 38.325L57.096 37.6125H57.1835V37.35L57.0085 37.075L57.096 36.6375L57.321 36.55L57.2335 36.1L53.3335 36.1875C53.1885 36.3188 53.0917 36.4948 53.0585 36.6875L51.9085 36.8625C51.7835 36.9 51.646 36.9 51.5085 37.075L50.9835 37.8875Z" fill="black" stroke="black" stroke-width="0.05"/>
<path id="Vector_39" d="M55.6332 36.1625L56.2082 33.9875C56.2957 33.7625 56.0832 33.725 55.9832 33.9875L55.4082 36.1625H55.6332Z" fill="black" stroke="black" stroke-width="0.05"/>
<path id="Vector_40" d="M57.8953 33.725C57.4078 33.9375 57.1453 34.075 56.9203 33.9875C56.6953 33.9 56.4203 33.8625 56.2578 33.9375C56.2597 33.9541 56.2597 33.9709 56.2578 33.9875C56.0934 34.5507 55.9267 35.1132 55.7578 35.675C56.1328 35.8 56.7453 35.8 56.8828 35.675C57.0578 35.5 57.4578 35.55 57.6703 35.55C57.7953 35.3625 57.8453 35.1375 57.7953 35.05C57.7578 34.9625 57.7953 34.7375 57.7953 34.6125C57.7953 34.475 57.9828 33.9875 57.8953 33.725Z" fill="#F5F5F5" stroke="black" stroke-width="0.05"/>
<path id="Vector_41" d="M54.3086 34.6375H53.7711M46.7211 29.55C45.8644 31.7885 44.6716 33.8834 43.1836 35.7625L46.7211 29.55ZM44.0586 36.2875C46.0271 34.7052 47.7353 32.824 49.1211 30.7125L44.0586 36.2875ZM46.0211 32.6125C45.8836 33.8125 45.5211 35.9375 45.3461 37.05L46.0211 32.6125ZM46.5086 35.275C46.0586 35.7125 45.4836 36.425 44.9961 36.825L46.5086 35.275ZM50.6211 32.875C50.2711 33.2375 49.8711 33.675 49.4711 33.7625L50.6211 32.875ZM50.8461 32.9625C51.1721 33.338 51.5837 33.6295 52.0461 33.8125L50.8461 32.9625ZM50.6211 31.0625C50.2352 31.4002 49.7843 31.6554 49.2961 31.8125L50.6211 31.0625ZM50.7961 31.1C51.0719 31.4135 51.4076 31.6685 51.7836 31.85L50.7961 31.1ZM49.3711 29.7C49.8155 29.5715 50.2255 29.3451 50.5711 29.0375L49.3711 29.7ZM50.6961 29.0375C51.0086 29.35 51.5836 29.6625 51.8961 29.7375L50.6961 29.0375ZM49.4586 28.275C49.8761 28.2003 50.253 27.9786 50.5211 27.65L49.4586 28.275ZM50.6461 27.575C50.9711 27.8375 51.5461 28.2 51.8586 28.2375L50.6461 27.575ZM53.2711 28.5875C53.0961 28.8125 52.6086 29.1625 52.2961 29.1625L53.2711 28.5875ZM53.4961 28.5875C53.6211 28.8125 53.9836 29.1625 54.2086 29.1625L53.4961 28.5875ZM52.0836 31.825C52.5566 31.6478 52.9808 31.3608 53.3211 30.9875L52.0836 31.825ZM53.5336 31.025C53.7495 31.3553 54.0408 31.6295 54.3836 31.825L53.5336 31.025ZM52.5711 34.125C52.7586 34.125 53.2461 33.85 53.3711 33.55L52.5711 34.125ZM53.6461 33.4125C53.8883 33.715 54.1851 33.9694 54.5211 34.1625L53.6461 33.4125ZM46.2336 34.5625C47.0952 34.2235 47.8688 33.6935 48.4961 33.0125L46.2336 34.5625ZM47.4336 33.85C47.8596 34.1837 48.3424 34.4377 48.8586 34.6L47.4336 33.85ZM46.1086 32.6125C46.4992 32.4564 46.859 32.2321 47.1711 31.95L46.1086 32.6125ZM47.3836 31.9C47.5211 32.075 48.4586 32.65 48.8586 32.65L47.3836 31.9ZM47.1711 30.0375C46.833 30.2994 46.4581 30.51 46.0586 30.6625L47.1711 30.0375ZM47.3836 30.0375C47.6961 30.2625 48.3586 30.6625 48.7586 30.6625L47.3836 30.0375ZM47.1711 28.2625C46.8677 28.6041 46.5084 28.8915 46.1086 29.1125L47.1711 28.2625ZM47.3836 28.3125C47.5711 28.625 48.0961 29.0625 48.4586 29.1125L47.3836 28.3125ZM51.9961 30.25C52.9655 31.9262 54.2825 33.3753 55.8586 34.5L51.9961 30.25ZM49.6086 28.6125C50.8586 30.3875 53.2336 34.2375 55.5461 35.6625L49.6086 28.6125ZM55.9836 34.1625C55.3923 34.9638 54.6594 35.6501 53.8211 36.1875L55.9836 34.1625ZM55.8211 34.6375C55.0586 33.3875 54.6586 31.85 54.0336 29.7625L55.8211 34.6375ZM47.8336 35.2625L48.7086 37.925L47.8336 35.2625ZM47.6586 35.2125L48.4961 37.875L47.6586 35.2125ZM47.4336 35.0875L48.2336 37.8375L47.4336 35.0875ZM47.3461 35.125L47.9711 37.8375L47.3461 35.125ZM47.9711 37.7375H48.7211H47.9711ZM48.6336 37.4875H47.9211H48.6336ZM48.5461 37.25H47.8336H48.5461ZM48.4586 37.0375H47.7461H48.4586ZM48.3211 36.7625H47.7461H48.3211ZM47.6961 36.55H48.2711H47.6961ZM47.6461 36.375H48.2336H47.6461ZM47.6086 36.15H48.1461H47.6086ZM47.5711 35.975H48.0586H47.5711ZM47.5211 35.75H47.9711H47.5211ZM47.4711 35.575H47.9211H47.4711ZM47.4336 35.4375H47.8711H47.4336ZM47.4336 35.2625H47.8336H47.4336ZM46.6836 35.2625L46.1461 37.475L46.6836 35.2625ZM46.8086 35.2625L46.3711 37.5625L46.8086 35.2625ZM46.9461 35.175L46.5961 37.6125L46.9461 35.175ZM47.1211 35.125L46.8586 37.7L47.1211 35.125ZM47.1711 37.525H46.2836H47.1711ZM47.1586 37.3H46.1586H47.1586ZM47.1586 37.0375H46.2461H47.1586ZM47.1336 36.8125H46.2961H47.1336ZM47.1711 36.5875H46.3336H47.1711ZM47.1836 36.325H46.4336H47.1836ZM47.1836 36.1H46.4336H47.1836ZM47.1336 35.875H46.4711H47.1336ZM47.1336 35.6625H46.5586H47.1336ZM47.1336 35.4375H46.6086H47.1336ZM47.1336 35.3125H46.6461H47.1336ZM47.0961 37.7375V35.125V37.7375ZM49.9711 34.25L48.1961 37.8375L49.9711 34.25ZM50.1086 34.2L48.6086 37.875L50.1086 34.2ZM50.1961 34.15L48.9961 37.875L50.1961 34.15ZM50.3336 34.25L49.3586 37.875L50.3336 34.25ZM49.3961 37.75H48.2836H49.3961ZM49.4836 37.3875H48.4211H49.4836ZM49.5336 37.125H48.6211H49.5336ZM49.6836 36.8625H48.7961H49.6836ZM49.7211 36.5875H48.8836H49.7211ZM49.8211 36.325H49.0211H49.8211ZM49.8961 36.0125H49.1961H49.8961ZM49.9461 35.7875H49.2836H49.9461ZM50.0336 35.5375H49.4086H50.0336ZM50.0836 35.35H49.5086H50.0836ZM50.1336 35.175H49.5086H50.1336ZM50.0836 35H49.6336H50.0836ZM50.0836 34.8625H49.6836H50.0836ZM50.1211 34.6875H49.7711H50.1211ZM50.2086 34.5125H49.8711H50.2086ZM50.2211 34.375H49.9211H50.2211ZM51.4211 34.325L52.1711 36.8125L51.4211 34.325ZM51.5461 34.375L52.4836 36.7625L51.5461 34.375ZM51.6836 34.375L52.8086 36.725L51.6836 34.375ZM53.0586 36.5L51.8211 34.325L53.0586 36.5ZM53.0711 36.55H52.1711H53.0711ZM52.9711 36.1875H52.0961H52.9711ZM52.8461 35.925H51.9961H52.8461ZM52.6586 35.6125H51.9086H52.6586ZM52.4836 35.35H51.8211H52.4836ZM52.3211 35.0375H51.7336H52.3211ZM52.1711 34.725H51.6461H52.1711ZM51.9961 34.4625H51.5586H51.9961ZM52.9711 34.5125L52.1711 36.8125L52.9711 34.5125ZM53.1961 34.4125L52.4836 36.7625L53.1961 34.4125ZM52.7961 36.725L53.3336 34.5125L52.7961 36.725ZM53.4586 34.6L53.0211 36.675L53.4586 34.6ZM52.2711 36.55H53.0211H52.2711ZM52.3586 36.275H53.1086H52.3586ZM52.4461 35.975H53.1586H52.4461ZM52.5711 35.7H53.2461H52.5711ZM52.6586 35.3875H53.2836H52.6586ZM52.7586 35.1375H53.3336H52.7586ZM52.8836 34.8125H53.4211H52.8836ZM52.9711 34.5625H53.4211H52.9711ZM53.8211 34.6L54.1711 36.1875L53.8211 34.6ZM53.9461 34.5125L54.4461 36.1375L53.9461 34.5125ZM54.1336 34.5125L54.6586 36.1375L54.1336 34.5125ZM54.3461 34.6L54.9211 36.15L54.3461 34.6ZM54.8836 36.025H54.1336H54.8836ZM54.7961 35.7875H54.0836H54.7961ZM54.7086 35.575H54.0336H54.7086ZM54.6211 35.3H53.9461H54.6211ZM54.4836 35.0875H53.8586H54.4836ZM54.3961 34.8625H53.8211H54.3961Z" stroke="black" stroke-width="0.05"/>
<path id="Vector_42" d="M47.0215 38.7125C47.2189 38.6055 47.4415 38.5537 47.6658 38.5625C47.8902 38.5713 48.108 38.6404 48.2965 38.7625C48.6715 38.55 49.334 38.6125 49.6465 38.8875C50.1215 38.5625 50.5215 38.5125 50.984 38.825C51.359 38.575 51.884 38.55 52.3215 38.85C52.734 38.65 53.1965 38.4875 53.5965 38.925C53.3465 38.75 52.8465 38.6 52.3215 39C51.909 38.6 51.209 38.75 50.984 39.025C50.9001 38.9334 50.7977 38.8608 50.6836 38.8118C50.5695 38.7629 50.4462 38.7388 50.3221 38.7412C50.1979 38.7435 50.0757 38.7723 49.9635 38.8255C49.8514 38.8788 49.7518 38.9553 49.6715 39.05C49.259 38.7 48.634 38.6875 48.2965 38.9625C48.034 38.75 47.6465 38.575 47.0215 38.7125Z" fill="#00B800"/>
<path id="Vector_43" d="M53.3088 38.225C51.0789 38.4599 48.8284 38.4179 46.6088 38.1C46.3213 38.0125 46.3963 37.9125 46.6463 37.975C48.0875 38.1718 49.545 38.2221 50.9963 38.125L51.7088 37.1625C51.8338 37.025 51.8588 37 52.0838 36.9625L53.0838 36.8V36.9375L53.0088 37.0125C53.0088 37.2375 53.0588 37.8125 53.0963 38.0375C53.1463 38.0375 53.2088 38 53.2213 38C53.3213 37.975 53.3963 38.1875 53.3213 38.2125L53.3088 38.225Z" fill="#CF6200"/>
<path id="Vector_44" d="M56.3213 38.3125H56.5588C56.6096 38.3097 56.6584 38.2915 56.6986 38.2602C56.7389 38.2289 56.7686 38.1861 56.7838 38.1375L57.0338 37.4125L56.8463 37.1375C56.8793 36.9381 56.9085 36.7381 56.9338 36.5375L57.1838 36.45C57.1838 36.4 57.1713 36.25 57.1088 36.2C56.3213 36.2375 53.9838 36.325 53.5338 36.325C53.4338 36.325 53.3838 36.325 53.3463 36.4625C53.1213 37.2875 53.4338 38.4375 54.2588 39.0875C54.3213 39.15 54.3838 39.1 54.2838 39.0125C54.0938 38.8272 53.9298 38.6169 53.7963 38.3875L54.3838 38.3625C54.4338 38.55 54.5713 38.9625 54.6088 39.025C54.6338 39.1 54.6963 39.125 54.6713 39.025C54.5838 38.775 54.5463 38.4875 54.5088 38.3625L55.1338 38.35L55.1588 38.9375C55.1588 39.025 55.2338 39.025 55.2338 38.9375V38.3375L55.7713 38.325L55.7213 38.9125C55.7213 39 55.7588 39.0625 55.7838 38.9125L55.8713 38.325H56.2463C56.2463 38.425 56.1213 38.8125 56.0838 38.9C56.0588 39 56.0963 39 56.1338 38.9C56.2186 38.712 56.2815 38.5149 56.3213 38.3125V38.3125Z" fill="#CF6200"/>
<path id="Vector_45" d="M53.6965 38.2125C53.6465 38.0875 53.4465 37.6375 53.434 37.3125L54.209 37.2875C54.2439 37.594 54.2939 37.8985 54.359 38.2L53.6965 38.2125ZM54.359 37.2875L54.484 38.2H55.109L55.084 37.275L54.359 37.2875ZM53.459 36.4875C53.434 36.65 53.4215 37 53.434 37.1625L54.1965 37.15L54.134 36.4625L53.459 36.4875ZM54.284 36.4625L54.334 37.1375L55.084 37.125L55.0465 36.4375L54.284 36.4625ZM55.1965 36.4375C55.1965 36.5875 55.2215 37.0125 55.209 37.125L55.8715 37.1C55.8715 36.95 55.8965 36.525 55.884 36.4125L55.1965 36.4375ZM56.009 36.4125L55.9965 37.1L56.6965 37.075C56.734 36.9375 56.7965 36.5375 56.7965 36.375L56.009 36.4125ZM56.734 37.225L55.984 37.25C55.9649 37.5546 55.9399 37.8588 55.909 38.1625L56.6215 38.1375C56.719 37.9095 56.8025 37.6757 56.8715 37.4375L56.734 37.225V37.225ZM55.234 37.2625L55.2465 38.175L55.784 38.1625L55.859 37.25L55.234 37.2625V37.2625ZM52.159 37.0875L51.8715 37.15C51.639 37.4858 51.3972 37.8151 51.1465 38.1375L52.1965 38.1125L52.159 37.1V37.0875ZM52.2965 37.0625L52.334 38.1L52.959 38.05L52.8715 36.9625L52.2965 37.0625Z" fill="black"/>
<path id="Vector_46" d="M49.2094 34.6125H45.7969V34.525L49.2094 34.5625V34.6125ZM51.8719 31.8625C51.9094 31.8625 51.9094 31.8625 51.8719 31.8625L49.2094 31.8125C49.1594 31.8125 49.1594 31.8125 49.2094 31.8125H51.8719V31.8625ZM49.0344 32.6125C49.0719 32.6125 49.0719 32.6625 49.0344 32.6625H46.0219C45.9719 32.6625 46.0219 32.6125 46.0219 32.6125H49.0344ZM49.1219 30.6625C49.1594 30.6625 49.1594 30.7125 49.1219 30.7125H45.9719C45.9219 30.7125 45.9219 30.6625 45.9719 30.6625H49.1219ZM48.8969 29.1125C48.9469 29.1125 48.9469 29.15 48.8969 29.15H45.8344C45.7969 29.15 45.8344 29.0625 45.8344 29.0625L48.9469 29.1125H48.8969Z" fill="black" stroke="black" stroke-width="0.05"/>
<path id="Vector_47" d="M52.0836 28.225L49.4336 28.2625L52.0836 28.225Z" fill="#F5F5F5" stroke="black" stroke-width="0.05"/>
<path id="Vector_48" d="M52.2211 29.725C52.2711 29.725 52.2711 29.725 52.2211 29.725H49.3461C49.2961 29.725 49.2961 29.725 49.3461 29.725H52.2211ZM55.0961 31.775V31.8125H51.9961C51.9086 31.8125 51.9086 31.8125 51.9961 31.8125H55.1211L55.0961 31.775ZM55.0961 29.15C55.1961 29.15 55.1961 29.2 55.0961 29.2H51.9586C51.9086 29.2 51.9086 29.15 51.9586 29.15H55.1461H55.0961ZM52.1711 33.775C52.2211 33.775 52.2211 33.8125 52.1711 33.8125H49.3461V33.7625L52.1711 33.775ZM54.9211 34.1625C54.9711 34.1625 54.9711 34.1625 54.9211 34.1625H52.4461H54.9211Z" fill="black" stroke="black" stroke-width="0.05"/>
<path id="Vector_49" d="M57.1832 34.6125C57.233 34.4071 57.233 34.1928 57.1832 33.9875C57.0974 34.0115 57.0066 34.0115 56.9207 33.9875C56.8808 33.9559 56.839 33.9267 56.7957 33.9C56.7957 34.075 56.6957 34.5625 56.6082 34.7375C56.4832 34.7375 56.1707 34.7375 56.0332 34.65L55.9082 35.1C56.1265 35.1477 56.3525 35.1477 56.5707 35.1C56.5707 35.35 56.5207 35.5875 56.3832 35.7625C56.6082 35.7625 56.8332 35.7625 56.8832 35.6375C57.0082 35.45 57.0082 35.1875 57.0582 35.05L57.2707 35.0125L57.4957 34.9125L57.8082 34.875V34.6125L57.8957 34.425L57.1832 34.65V34.6125Z" fill="#EF072D" stroke="black" stroke-width="0.05"/>
<path id="Vector_50" d="M46.1953 19.625C45.7476 19.6031 45.2988 19.6324 44.8578 19.7125C44.7328 19.8 44.6828 19.8375 44.9453 19.8875C45.2203 19.9375 45.6953 20.1125 45.9703 20.2375C46.1139 20.3348 46.2298 20.4678 46.3065 20.6234C46.3832 20.779 46.4181 20.9518 46.4078 21.125C46.3101 21.673 46.3865 22.2378 46.6264 22.74C46.8664 23.2422 47.2576 23.6567 47.7453 23.925C47.7828 23.9625 47.8328 24.0125 47.7828 24.1875L47.6578 24.6875C47.6578 24.7625 47.6078 24.85 47.7453 24.8125C47.6066 25.057 47.4565 25.2948 47.2953 25.525C46.5953 25.425 45.9703 25.525 45.9703 26.3125C45.9703 26.4 45.9703 26.5 46.0578 26.3125C46.1828 26.1375 46.3203 25.9625 46.6328 25.875C46.4578 26.1875 46.3703 26.45 46.4078 26.625C46.4078 26.75 46.5078 26.85 46.5953 26.625C46.6328 26.45 46.8078 26.275 46.9453 26.1375C47.0328 26.1 47.0328 26.1 46.9953 26.225C46.9453 26.35 47.0328 26.625 47.1203 26.725C47.2078 26.8 47.2453 26.7625 47.2078 26.625C47.2078 26.45 47.2078 26.1375 47.4328 26.05C47.6953 25.875 47.9703 25.9625 48.0578 26.1375C48.1828 26.3625 48.2703 26.1375 48.1453 25.9625C48.0203 25.7875 47.8703 25.5625 47.6953 25.5625L48.1453 24.8125C48.1453 24.725 48.2328 24.6875 48.3203 24.725C48.3203 24.7625 48.4078 24.7625 48.4453 24.6375L48.7578 24.0125L49.0328 23.925L49.4703 24.5875V24.85C49.4703 25.0375 49.2953 25.425 49.2453 25.5625C48.7203 25.5625 48.4578 25.5625 48.2703 25.875C48.1828 26 48.3203 26.05 48.4578 26C48.59 25.9205 48.741 25.8774 48.8953 25.875C48.9828 25.875 49.0203 25.9625 48.8953 26C48.5828 26.1375 48.3578 26.3625 48.3578 26.675C48.3578 26.7625 48.4578 26.8 48.4953 26.675C48.6203 26.45 48.8578 26.275 49.0703 26.225C49.0703 26.45 49.1203 26.8 49.2953 26.8875C49.4203 26.9875 49.4203 26.8875 49.3828 26.7625C49.2953 26.5375 49.3828 26.3125 49.5078 26.1875C49.7328 25.9125 50.2703 26.275 50.4078 26.3625C50.4953 26.45 50.5828 26.4875 50.4953 26.2375C50.4453 25.9125 49.9953 25.7875 49.6078 25.7L50.1328 23.825C50.3578 23.9625 50.5828 23.6125 50.9328 23.75C51.5578 24.0125 52.4828 24.5875 52.6203 24.725C52.7953 24.85 52.8453 24.8125 52.9328 24.725C53.0203 24.675 53.1578 24.725 53.2828 24.725C53.3703 24.7625 53.4578 24.8125 53.3328 24.55C53.0814 24.0797 52.7161 23.68 52.2703 23.3875C52.6203 23.3875 53.0578 23.3875 53.0578 23.3C53.0578 23.2125 52.5328 23.0375 52.3078 23.0375C52.573 22.9888 52.8196 22.8676 53.0203 22.6875C53.1078 22.5875 53.0203 22.55 52.6578 22.55C51.7328 22.55 51.2453 22.55 50.7578 22.2875C49.9578 21.8375 49.4703 21.3125 49.0703 21.125C48.8953 21 48.7578 20.725 48.6328 20.5C48.4078 19.85 48.4078 19.5 47.8328 19.2625C47.5513 19.181 47.2539 19.1715 46.9678 19.2348C46.6817 19.2982 46.416 19.4323 46.1953 19.625V19.625Z" fill="black" stroke="black" stroke-width="0.05"/>
<path id="Vector_51" d="M46.2467 19.8H45.4842C45.4842 19.8 45.3967 19.8 45.4842 19.8L46.1467 19.975C46.2717 19.975 46.2342 20.1 46.1467 20.0625C46.0592 20.025 45.9717 20.0625 46.0592 20.15C46.5092 20.4625 46.5967 20.6 46.5092 21.8L46.7217 21.975C46.8092 21.975 46.7717 22.0625 46.7217 22.0125C46.6842 21.975 46.5092 22.0125 46.6342 22.1C46.7592 22.2 46.8592 22.2 46.7217 22.2C46.5967 22.2 46.4592 22.2875 46.7217 22.2375C46.9467 22.2375 47.0842 22.325 46.7217 22.3625C46.4592 22.3625 46.5467 22.4625 46.7217 22.4625C47.0342 22.4625 46.9467 22.55 46.8467 22.55C46.7717 22.55 46.7217 22.6375 46.9467 22.6375H47.2592C47.2967 22.6375 47.3467 22.6375 47.2592 22.6875C47.1717 22.6875 47.1717 22.775 47.2967 22.775C47.4342 22.775 47.5217 22.775 47.3842 22.8125C47.3467 22.8125 47.2592 22.8625 47.3842 22.9C47.6967 22.9 47.7467 22.9875 47.6592 23.025C47.5717 23.075 47.5342 23.075 47.6592 23.075C47.7842 23.075 47.9217 23.125 47.7842 23.175C47.6967 23.175 47.6592 23.2625 47.7842 23.2625C47.9217 23.2625 48.0092 23.35 47.9217 23.3875C47.8342 23.4375 47.7967 23.475 47.9217 23.475C48.0467 23.475 48.0967 23.525 48.0092 23.5625C47.9217 23.6625 47.8842 23.6625 47.7842 23.5625C47.7842 23.475 47.6967 23.475 47.6967 23.5625L47.6092 23.4375C47.5717 23.3125 47.4842 23.3125 47.4842 23.4375C47.4842 23.5625 47.3842 23.475 47.2967 23.4375C47.5104 23.6865 47.8016 23.8564 48.1236 23.9199C48.4455 23.9834 48.7795 23.9367 49.0717 23.7875C49.1217 23.7875 49.1592 23.7875 49.1967 23.9125L49.4717 24.4125C49.5217 24.5 49.5967 24.4125 49.5967 24.325L49.8717 23.575C49.8717 23.4375 50.0467 23.35 49.9967 23.7C50.1342 23.6125 50.6717 23.575 51.1217 23.7C51.5438 23.87 51.9428 24.0926 52.3092 24.3625C52.3404 24.3874 52.3769 24.4048 52.4159 24.4135C52.4549 24.4222 52.4954 24.4218 52.5342 24.4125C52.6592 24.4125 52.7092 24.4125 52.4842 24.1875C52.2717 23.9625 52.3592 23.875 52.4842 23.9625C52.6217 24.0625 52.7092 24.0125 52.5717 23.875L52.1342 23.475C52.0842 23.475 52.0842 23.3875 51.8717 23.3875H51.1967C51.1092 23.3875 51.0217 23.3875 51.2967 23.475C51.5467 23.5625 52.0467 23.925 52.1717 24.0125C52.3092 24.1 52.3592 24.275 52.1342 24.1C51.6292 23.7592 51.0936 23.4663 50.5342 23.225C49.3467 23.35 48.3592 23.475 47.6592 22.725C47.2967 22.325 47.2967 21.475 47.8717 21.125C47.7842 21.0375 47.7842 20.95 47.8342 20.95V20.6875C47.7467 20.6375 47.6592 20.5625 47.6592 20.4625C47.5342 20.4625 47.4342 20.2375 47.2092 20.3375C46.9967 20.425 46.9467 20.3375 46.8592 20.2875C46.8092 20.2 46.7717 20.2 46.6342 20.2C46.5092 20.2 46.4092 20.2 46.4092 20.1125C46.4092 20.025 46.5092 20.025 46.6842 20.1125C46.9967 20.2375 47.2592 20.3375 47.4842 20.025C47.6592 19.75 47.3842 19.525 47.0342 19.45C46.6342 19.3625 46.3717 19.6625 46.1967 19.8H46.2467Z" fill="#F5F5F5" stroke="black" stroke-width="0.05"/>
<path id="Vector_52" d="M48.1834 19.6625C48.0561 19.5503 47.9072 19.4653 47.7459 19.4125C47.6209 19.4125 47.6209 19.4875 47.6584 19.5375V19.8C47.7459 19.85 47.7834 19.925 47.6584 19.925C47.5709 20.025 47.6584 20.3375 47.7834 20.2375H47.8709C47.8709 20.2375 47.8709 20.375 47.9709 20.375C48.0584 20.375 47.9709 20.4625 47.9709 20.5H48.0584C48.1459 20.5 48.0959 20.6875 48.0084 20.725C48.1334 20.725 48.1834 20.725 48.1834 20.825C48.2334 20.9125 48.3584 20.95 48.3584 21.075C48.3584 21.225 48.3584 21.225 48.1834 21.175C48.0084 21.125 48.0084 21.175 47.9709 21.2625C47.9209 21.35 47.8709 21.3875 47.9709 21.3875C48.0584 21.3875 48.1459 21.4375 48.0084 21.4875C47.8834 21.525 47.7459 21.4875 47.6959 21.6125C47.6959 21.75 47.6959 21.8 47.7834 21.75L48.0959 21.575L48.3209 21.6125C48.4084 21.6625 48.3209 21.8375 48.2334 21.75C48.1459 21.6625 48.0584 21.75 48.0084 21.8L47.7834 21.8875C47.6959 21.8875 47.6084 21.8875 47.6584 22.1C47.6584 22.725 48.1459 23.175 49.0334 23.175H50.4959C50.2209 22.9875 50.0459 22.9 49.9209 22.9H49.7834C49.8334 22.8625 49.7834 22.775 49.7334 22.775C49.6959 22.775 49.6084 22.6875 49.5209 22.775L49.0709 22.9875C48.9834 22.9875 48.8584 22.9875 48.9834 22.9L49.3834 22.725C49.4709 22.725 49.4334 22.6375 49.4334 22.6375C49.4334 22.6375 49.4334 22.5125 49.5584 22.55C49.8002 22.7281 50.0708 22.8634 50.3584 22.95C50.4834 22.95 50.5334 22.8625 50.4459 22.825C50.4118 22.8057 50.3828 22.7787 50.3611 22.7461C50.3394 22.7136 50.3256 22.6764 50.3209 22.6375C50.3209 22.5875 50.3584 22.55 50.5334 22.6375C50.7118 22.7516 50.9053 22.84 51.1084 22.9C51.2459 22.95 51.3334 22.95 51.1084 22.8125L50.0959 22.0625C49.9709 21.9375 49.9709 22.0625 50.0084 22.15C50.0459 22.2375 49.8834 22.275 49.7834 22.2C49.6959 22.1 49.6584 22.0625 49.7834 22.0125C49.9084 21.975 49.8709 21.925 49.7334 21.8C49.5584 21.6625 49.5209 21.6625 49.5584 21.8C49.6084 21.925 49.6084 22.0125 49.4709 21.975C49.3459 21.925 49.2084 21.85 49.3459 21.8C49.4334 21.7125 49.5584 21.6625 49.3459 21.525C49.1209 21.4 49.2459 21.525 49.2084 21.6125C49.1584 21.7125 49.0334 21.7125 48.9834 21.6125C48.9459 21.525 48.8584 21.4875 48.8959 21.4375C48.9459 21.4 48.9459 21.35 49.0209 21.4375C49.1209 21.525 49.2084 21.4375 49.0709 21.3125C48.9459 21.175 48.8959 21.225 48.9459 21.3125C48.9834 21.4 48.8584 21.4875 48.6709 21.3125C48.5834 21.2625 48.5834 21.175 48.6709 21.125C48.7584 21.125 48.7584 21.0875 48.6709 21C48.3584 20.4625 48.4959 20.0625 48.1459 19.6625H48.1834Z" fill="#F5F5F5" stroke="black" stroke-width="0.05"/>
<path id="Vector_53" d="M48.2087 19.75C48.1837 19.8 48.1712 19.8 48.1212 19.8375C48.0462 19.875 48.0337 20.0125 48.1462 19.9875C48.2337 19.9875 48.2712 19.925 48.2962 19.9C48.2715 19.8476 48.2422 19.7974 48.2087 19.75V19.75ZM47.8462 19.4625C47.7587 19.55 47.7462 19.5875 47.7837 19.5875C47.8462 19.5875 47.8212 19.5875 47.7837 19.65C47.7462 19.7125 47.8587 19.7375 47.9087 19.7125C47.9462 19.675 47.9587 19.65 47.9837 19.7125C48.0087 19.75 48.0712 19.7125 48.1337 19.6625C48.0475 19.5829 47.9508 19.5156 47.8462 19.4625V19.4625ZM47.6837 19.9625C47.5712 20.025 47.6212 20.3125 47.7837 20.2375C47.8462 20.2125 47.8962 20.2125 47.8837 20.2625V20.3375C47.96 20.3075 48.0284 20.2605 48.0837 20.2C48.1962 20.075 48.0837 20.075 47.9337 20.075C47.7712 20.075 47.7212 20.0625 47.8837 19.9625C48.0087 19.875 47.9212 19.825 47.7337 19.85C47.7587 19.8875 47.7337 19.9375 47.6837 19.9625V19.9625ZM48.3587 20.6375C48.2587 20.55 48.3212 20.5 48.4212 20.4625L48.4587 20.4125L48.3837 20.125C48.3337 20.125 48.2837 20.2375 48.2587 20.3C48.2462 20.375 48.2212 20.425 48.1462 20.3875C48.0712 20.375 48.0087 20.45 47.9962 20.5375H48.0337C48.0712 20.5375 48.0962 20.5875 48.0837 20.625C48.2962 20.625 48.3337 20.7625 48.3587 20.875C48.3962 20.975 48.4462 20.95 48.4837 20.9C48.5087 20.8375 48.4337 20.725 48.3587 20.625V20.6375Z" fill="#CF6200"/>
<path id="Vector_54" d="M48.4082 21.8375C48.3707 21.925 48.3707 21.925 48.2457 21.925C48.1207 21.925 47.9707 21.9625 47.9082 22.025C47.8707 22.0625 47.6582 22.075 47.6582 22.175C47.6582 22.2625 47.6582 22.3375 47.7457 22.35C47.8332 22.35 47.8457 22.375 47.8207 22.4375C47.7832 22.5 47.7582 22.625 47.9082 22.625C48.0707 22.6375 48.1957 22.6 48.2332 22.6875C48.2707 22.775 48.2332 22.9375 48.2582 22.975C48.2957 23.0375 48.4082 23.075 48.5707 23.125C48.6957 23.15 49.1082 23.175 49.2457 23.1625C49.3707 23.1375 49.3332 23.075 49.1957 23.05C49.0707 23.05 48.9582 23.025 48.9207 22.925C48.8957 22.8375 48.8707 22.7875 48.9582 22.7C49.0207 22.6125 49.0957 22.5625 49.0582 22.425C49.0082 22.3 48.9332 22.125 48.7832 22.0875C48.6332 22.05 48.6832 21.8375 48.5332 21.825L48.4082 21.8375V21.8375Z" fill="#FFFF00"/>
<path id="Vector_55" d="M47.6586 23.1C47.7961 23.1 47.9086 23.1375 47.8086 23.175C47.6836 23.2 47.6211 23.2625 47.7711 23.275C47.9086 23.2875 48.0211 23.3375 47.9211 23.375C47.8211 23.4125 47.7961 23.475 47.9211 23.4625C48.0461 23.4625 48.1086 23.5375 48.0211 23.5875C47.9336 23.6375 47.8711 23.675 47.8086 23.5875C47.7586 23.5 47.7211 23.4625 47.6961 23.5375C47.6836 23.6 47.6461 23.55 47.5961 23.45C47.5586 23.3375 47.4711 23.325 47.4961 23.4C47.5211 23.4875 47.4086 23.4875 47.3086 23.45C47.4108 23.5537 47.5239 23.6459 47.6461 23.725C47.7711 23.675 47.9461 23.725 47.9961 23.725C48.0461 23.725 48.2336 23.775 48.3211 23.8125C48.4211 23.8625 48.4836 23.775 48.4461 23.6875C48.4086 23.5625 48.3961 23.6125 48.3586 23.6625C48.2961 23.725 48.2961 23.6375 48.2961 23.5125C48.2961 23.425 48.2336 23.45 48.1961 23.5125C48.1711 23.575 48.1336 23.475 48.1586 23.4125C48.1836 23.35 48.1586 23.325 48.0961 23.3375C48.0461 23.3625 48.0461 23.3375 48.0336 23.2125C48.0336 23.1 47.9836 23.125 47.9711 23.1625C47.9461 23.2125 47.9086 23.15 47.8336 23.0625C47.7711 22.975 47.7086 23.025 47.5836 23.075L47.6711 23.1H47.6586Z" fill="#CF6200"/>
<path id="Vector_56" d="M49.0587 23.8C48.4337 24.0625 47.9837 23.95 47.6337 23.7125C47.7837 23.675 47.9462 23.7125 47.9962 23.7125C48.1096 23.7331 48.2192 23.7711 48.3212 23.825C48.4212 23.875 48.4837 23.775 48.4462 23.675C48.5462 23.7875 48.5962 23.8625 48.6962 23.8625C48.8212 23.85 48.9712 23.8375 49.0712 23.8H49.0587ZM47.7212 20.9125C47.6837 20.7875 47.6462 20.75 47.5712 20.75L47.3962 20.725C47.3212 20.6875 47.2087 20.725 47.2087 20.8625C47.2087 21.0125 47.1087 21.075 46.9962 21.15C46.8712 21.2375 46.8087 21.3125 46.8087 21.45C46.8087 21.575 46.7712 21.625 46.7087 21.7125L46.5712 21.8625L46.7212 21.9625C46.7962 21.9875 46.7712 22.05 46.6837 22.025C46.5962 22.0125 46.5212 22.05 46.6587 22.0875C46.7837 22.1125 46.8587 22.175 46.7337 22.175C46.5962 22.175 46.4462 22.275 46.7087 22.25C46.9587 22.225 47.0587 22.3375 46.7587 22.3375C46.4462 22.3625 46.5712 22.4625 46.7337 22.4625C47.0212 22.4625 46.9337 22.5375 46.8587 22.5375C46.7837 22.5375 46.7462 22.625 46.9337 22.6125H46.9462C46.9712 22.5875 46.9962 22.55 47.0087 22.5C47.0337 22.4125 47.0712 22.15 47.1837 22.0625C47.2837 21.9875 47.3462 21.8875 47.3462 21.8125C47.3897 21.6262 47.4801 21.4541 47.6087 21.3125C47.7212 21.225 47.7587 21.0375 47.7337 20.9125H47.7212Z" fill="#FFFF00"/>
<path id="Vector_57" d="M47.4956 20.9125C47.3831 20.8375 47.2706 20.8875 47.2706 21.0125C47.2706 21.15 47.2081 21.2 47.1206 21.2375C47.0714 21.2672 47.0292 21.3071 46.9969 21.3546C46.9645 21.402 46.9428 21.4559 46.9331 21.5125C46.9081 21.6125 46.9456 21.6875 46.8581 21.775C46.7956 21.8625 46.7706 21.925 46.8331 21.975C46.8956 22.025 46.8956 22.025 46.9081 22.1C46.9331 22.1625 47.0581 22.1 47.0581 22.0125C47.0581 21.925 47.0956 21.925 47.1831 21.8875C47.2706 21.8375 47.4081 21.6125 47.3706 21.55C47.3456 21.5 47.2706 21.45 47.3706 21.3625C47.4706 21.2625 47.5706 21.2625 47.5706 21.175C47.5706 21.0875 47.5956 21.075 47.6331 21.0375C47.6581 21.0125 47.5581 20.9625 47.4956 20.9125V20.9125Z" fill="#CF6200"/>
<path id="Vector_58" d="M47.4964 20.8C47.4214 20.775 47.3839 20.925 47.4839 20.95C47.5839 20.9625 47.5964 20.825 47.4839 20.8H47.4964ZM47.4714 21C47.4089 21 47.3089 21.1 47.4464 21.0875C47.5714 21.075 47.6214 20.975 47.4714 21ZM47.3339 21.175C47.2464 21.225 47.2714 21.325 47.3714 21.25C47.4839 21.1625 47.5214 21.0875 47.3339 21.1875V21.175ZM47.2089 21.35C47.1214 21.3875 47.1464 21.4875 47.2589 21.4125C47.3714 21.3375 47.4089 21.25 47.2089 21.35Z" fill="black"/>
<path id="Vector_59" d="M47.0451 21.4125C46.9576 21.45 47.0201 21.5625 47.1326 21.4875C47.2576 21.425 47.2451 21.3125 47.0451 21.425V21.4125ZM47.1326 21.5125C47.0576 21.55 47.1201 21.6625 47.2201 21.5875C47.3326 21.5125 47.3451 21.4125 47.1326 21.5125Z" fill="black"/>
<path id="Vector_60" d="M47.0089 21.55C46.9214 21.6 46.9714 21.7 47.0964 21.625C47.2214 21.55 47.1964 21.45 47.0089 21.55ZM47.0964 21.675C47.0089 21.7125 47.0589 21.8125 47.1839 21.7375C47.2964 21.6625 47.2839 21.575 47.0839 21.675H47.0964Z" fill="black"/>
<path id="Vector_61" d="M46.9588 21.7375C46.8713 21.775 46.9338 21.875 47.0588 21.8C47.1838 21.7375 47.1463 21.6375 46.9588 21.7375Z" fill="black"/>
<path id="Vector_62" d="M46.9718 21.8375C46.8843 21.875 46.9343 21.975 47.0593 21.9C47.1843 21.8375 47.1593 21.7375 46.9718 21.8375Z" fill="black"/>
<path id="Vector_63" d="M46.9096 22.8125C46.8221 22.8125 46.7846 22.9375 46.8721 22.95C46.9721 22.975 46.9971 22.975 46.9971 23.0625C46.9971 23.1375 47.0221 23.2375 47.1346 23.25C47.2471 23.25 47.3471 23.125 47.2471 23.1C47.1471 23.0625 47.0596 23.025 47.0596 22.95C47.0596 22.85 46.9721 22.8 46.9096 22.8125V22.8125Z" fill="#CF6200"/>
<path id="Vector_64" d="M49.7462 22.15L49.7837 22.2C49.8587 22.2625 50.0087 22.2 49.9837 22.15C49.9712 22.0875 49.8962 21.925 50.0712 22.0625L51.1337 22.8C51.3462 22.95 51.2087 22.975 51.1087 22.925L50.5462 22.6625C50.3712 22.5625 50.3587 22.6 50.3212 22.625C50.3087 22.6625 50.3212 22.725 50.3837 22.7875C50.2837 22.8 50.1212 22.7875 50.0712 22.6625C50.0087 22.5375 49.8712 22.375 49.7837 22.25C49.7462 22.2 49.7212 22.175 49.7337 22.15H49.7462Z" fill="#FFFF00"/>
<path id="Vector_65" d="M55.4578 41.025C55.3078 41.1125 55.1078 41.2875 55.2453 41.525L55.2828 41.5C55.8352 40.8297 56.3247 40.11 56.7453 39.35V39.2875C56.5947 39.4155 56.4263 39.5208 56.2453 39.6C56.3078 39.7875 55.9953 40.025 55.8078 40.1C55.8828 40.225 55.8578 40.3875 55.7078 40.425C55.7453 40.525 55.6203 40.525 55.4953 40.5875C55.3578 40.65 55.2828 40.675 55.2453 40.7625C55.3078 40.7125 55.4203 40.675 55.4703 40.7C55.5203 40.725 55.5453 40.8 55.4328 40.825C55.3328 40.85 55.2578 40.9 55.2328 40.95C55.3828 40.9 55.5953 40.925 55.4453 41.025H55.4578Z" fill="#00D860"/>
<path id="Vector_66" d="M48.6209 21.925C48.4584 21.8 48.4084 21.8875 48.4584 21.925C48.4959 21.975 48.4584 22.1 48.3209 22.15H47.8709C47.7834 22.15 47.6584 22.325 47.8709 22.275L48.5834 22.15C48.6709 22.15 48.7584 22.0625 48.5834 21.925H48.6209ZM48.9459 22.2C48.8084 22.0625 48.7584 22.1 48.8084 22.2C48.8584 22.2875 48.7584 22.325 48.6834 22.325L48.0584 22.5C47.8709 22.5 47.8709 22.6375 48.0959 22.6375C48.3209 22.6375 48.7584 22.4125 48.8084 22.4125C48.8584 22.4125 48.8959 22.2875 48.9334 22.325C48.9834 22.375 49.0709 22.325 48.9334 22.2H48.9459ZM49.0709 22.55L48.6334 22.775C48.5084 22.775 48.4084 22.9 48.6334 22.9C48.8584 22.9 49.0709 22.6875 49.1584 22.6375L49.3459 22.55C49.3459 22.55 49.5209 22.5 49.3459 22.375C49.1584 22.25 48.9834 22.375 49.0709 22.4125C49.1584 22.4625 49.0709 22.5375 49.0709 22.5375V22.55Z" fill="black" stroke="black" stroke-width="0.05"/>
<path id="Vector_67" d="M47.2591 19.6625C46.9841 19.4875 46.6591 19.8625 46.9716 20.075C47.2466 20.2625 47.5341 19.8375 47.2591 19.6625Z" fill="black"/>
<path id="Vector_68" d="M46.9084 19.8375H46.9959C46.9709 19.925 47.0584 20.05 47.1959 20.025C47.0834 20.1 46.8834 20.0125 46.9084 19.8375ZM48.0084 24.025C48.0959 24.05 48.3834 24.0875 48.4834 24.0875L48.3584 24.3375C48.3209 24.4125 48.3084 24.425 48.3084 24.3125C48.3084 24.1875 48.2334 24.1125 48.1834 24.2375L48.0584 24.45C48.0334 24.5 47.9834 24.525 47.9959 24.4V24.0375L48.0084 24.025Z" fill="#F5F5F5"/>
<path id="Vector_69" d="M59.1332 27.425C59.1332 34.65 57.9832 42.45 48.5832 46.175C39.2332 42.45 38.0832 34.65 38.0332 27.425H59.1332ZM59.1332 27.425C59.1332 24.675 59.0082 22.0125 59.0457 19.7125C55.7111 18.4172 52.1604 17.7681 48.5832 17.8C46.2332 17.8 41.6207 18.1625 38.1207 19.7125C38.2082 22.0125 38.0332 24.675 38.0332 27.425H59.1332Z" stroke="black" stroke-width="0.1375"/>
<path id="Vector_70" d="M0.246094 0H32.2461V32H0.246094V0Z" fill="#012169"/>
<path id="Vector_71" d="M32.2461 0V4L20.3711 16L32.2461 27.6875V32H28.0586L16.1211 20.25L4.49609 32H0.246094V27.75L11.8711 16.0625L0.246094 4.625V0H4.12109L16.1211 11.75L27.7461 0H32.2461Z" fill="#F5F5F5"/>
<path id="Vector_72" d="M11.7461 20.25L12.4336 22.375L2.87109 32H0.246094V31.8125L11.7461 20.25ZM19.4961 19.5L22.8711 20L32.2461 29.1875V32L19.4961 19.5ZM32.2461 0L20.2461 12.25L19.9961 9.5L29.3711 0H32.2461ZM0.246094 0.0625L12.3086 11.875L8.62109 11.375L0.246094 3.0625V0.0625Z" fill="#C8102E"/>
<path id="Vector_73" d="M11.2461 0V32H21.2461V0H11.2461ZM0.246094 11V21H32.2461V11H0.246094Z" fill="#F5F5F5"/>
<path id="Vector_74" d="M0.246094 13V19H32.2461V13H0.246094ZM13.2461 0V32H19.2461V0H13.2461Z" fill="#C8102E"/>
</g>
</g>
<defs>
<clipPath id="clip0_2909_185388">
<path d="M0.246094 32C0.246094 14.3269 14.573 0 32.2461 0V0C49.9192 0 64.2461 14.3269 64.2461 32V32C64.2461 49.6731 49.9192 64 32.2461 64V64C14.573 64 0.246094 49.6731 0.246094 32V32Z" fill="white"/>
</clipPath>
</defs>
</svg>
