<svg width="65" height="64" viewBox="0 0 65 64" fill="none" xmlns="http://www.w3.org/2000/svg">
<g id="Rounded=Tokelau (TK)">
<g clip-path="url(#clip0_2909_185333)">
<path id="Vector" d="M0.246094 0H64.2461V64H0.246094V0Z" fill="#00247D"/>
<path id="Vector_2" d="M11.5836 48.025C10.9211 48.025 17.8336 44.3375 23.6336 39.625C31.2211 33.4375 47.5711 23.5375 52.3836 21.9375C52.8836 21.775 51.3586 22.7875 51.1586 23.125C46.0211 29.2 50.1211 40.6625 56.5336 46.425C58.4586 47.9 58.3586 47.975 61.9336 48.125V48.4625L11.5836 48.025V48.025ZM11.1711 48.7C11.1711 48.7 10.6836 49.05 10.6836 49.3125C10.6836 49.6 11.2336 49.9875 11.2336 49.9875L60.8961 50.5375L61.8086 49.925L60.5336 49.1375L11.1711 48.7V48.7Z" fill="#FED100"/>
<path id="Vector_3" d="M13.4336 14.575L12.9336 16.0875L14.2336 15.15L15.5211 16.0875L15.0211 14.575L16.3211 13.6375H14.7211L14.2336 12.1125L13.7336 13.6375H12.1461L13.4336 14.575ZM23.1586 21.7125L24.2336 20.9375H22.9086L22.4961 19.675L22.0836 20.9375H20.7586L21.8336 21.7125L21.4211 22.975L22.4961 22.2L23.5711 22.975L23.1586 21.7125ZM5.07109 23.3375L4.58359 21.825L4.08359 23.3375H2.49609L3.78359 24.275L3.28359 25.7875L4.58359 24.85L5.87109 25.7875L5.38359 24.275L6.67109 23.3375H5.07109ZM14.8086 38.575L14.2336 36.8L13.6586 38.575H11.7961L13.2961 39.6625L12.7211 41.4375L14.2336 40.3375L15.7336 41.4375L15.1586 39.6625L16.6586 38.575H14.8086Z" fill="#F5F5F5"/>
</g>
</g>
<defs>
<clipPath id="clip0_2909_185333">
<path d="M0.246094 32C0.246094 14.3269 14.573 0 32.2461 0V0C49.9192 0 64.2461 14.3269 64.2461 32V32C64.2461 49.6731 49.9192 64 32.2461 64V64C14.573 64 0.246094 49.6731 0.246094 32V32Z" fill="white"/>
</clipPath>
</defs>
</svg>
