<svg width="65" height="64" viewBox="0 0 65 64" fill="none" xmlns="http://www.w3.org/2000/svg">
<g id="Rounded=Timor-Leste (TL)">
<g clip-path="url(#clip0_2909_185275)">
<g id="Group">
<path id="Vector" fill-rule="evenodd" clip-rule="evenodd" d="M0.246094 0H129.13V63.9902H0.246094V0Z" fill="#CB000F"/>
<path id="Vector_2" fill-rule="evenodd" clip-rule="evenodd" d="M0.246094 0C0.646032 0 64.2363 32.0854 64.2363 32.0854L0.246094 64.0031V0Z" fill="#F8C00C"/>
<path id="Vector_3" fill-rule="evenodd" clip-rule="evenodd" d="M0.246094 0C0.504119 0 42.8202 32.0854 42.8202 32.0854L0.246094 64.0031V0Z" fill="black"/>
<path id="Vector_4" fill-rule="evenodd" clip-rule="evenodd" d="M23.7139 37.2717L16.1021 35.5945L12.2447 42.1871L11.5996 34.7302L4.01367 33.053L10.8642 29.9567L10.4514 22.5385L15.4829 27.957L22.398 24.8091L18.7856 31.5436L23.6881 37.2717H23.7139Z" fill="#F5F5F5"/>
</g>
</g>
</g>
<defs>
<clipPath id="clip0_2909_185275">
<path d="M0.246094 32C0.246094 14.3269 14.573 0 32.2461 0V0C49.9192 0 64.2461 14.3269 64.2461 32V32C64.2461 49.6731 49.9192 64 32.2461 64V64C14.573 64 0.246094 49.6731 0.246094 32V32Z" fill="white"/>
</clipPath>
</defs>
</svg>
