<svg width="65" height="64" viewBox="0 0 65 64" fill="none" xmlns="http://www.w3.org/2000/svg">
<g id="Rounded=Turkey (TR)">
<g clip-path="url(#clip0_2909_185272)">
<g id="Group">
<path id="Vector" fill-rule="evenodd" clip-rule="evenodd" d="M0.246094 0H64.2461V64H0.246094V0Z" fill="#E30A17"/>
<path id="Vector_2" fill-rule="evenodd" clip-rule="evenodd" d="M43.8453 33C43.8453 41.825 36.5578 48.9875 27.5828 48.9875C18.6078 48.9875 11.3203 41.825 11.3203 32.9875C11.3203 24.15 18.5953 17.0125 27.5703 17.0125C36.5453 17.0125 43.8578 24.1625 43.8578 33H43.8453Z" fill="#F5F5F5"/>
<path id="Vector_3" fill-rule="evenodd" clip-rule="evenodd" d="M44.659 33C44.659 40.0625 38.834 45.7875 31.6465 45.7875C24.459 45.7875 18.6465 40.0625 18.6465 33C18.6465 25.9375 24.459 20.2125 31.6465 20.2125C38.834 20.2125 44.6465 25.9375 44.6465 33H44.659Z" fill="#E30A17"/>
<path id="Vector_4" fill-rule="evenodd" clip-rule="evenodd" d="M47.0094 25.525L46.8844 31.4375L41.3594 32.9375L46.7969 34.875L46.6719 40.2875L50.2094 36.0625L55.5719 37.9125L52.4719 33.375L56.2469 28.8625L50.4469 30.4625L47.0094 25.525V25.525Z" fill="#F5F5F5"/>
</g>
</g>
</g>
<defs>
<clipPath id="clip0_2909_185272">
<path d="M0.246094 32C0.246094 14.3269 14.573 0 32.2461 0V0C49.9192 0 64.2461 14.3269 64.2461 32V32C64.2461 49.6731 49.9192 64 32.2461 64V64C14.573 64 0.246094 49.6731 0.246094 32V32Z" fill="white"/>
</clipPath>
</defs>
</svg>
