<svg width="65" height="64" viewBox="0 0 65 64" fill="none" xmlns="http://www.w3.org/2000/svg">
<g id="Rounded=Trinidad and Tobago (TT)">
<g clip-path="url(#clip0_2909_185271)">
<path id="Vector" d="M0.246094 0H64.2461V64H0.246094V0Z" fill="#F5F5F5"/>
<g id="Group">
<path id="Vector_2" fill-rule="evenodd" clip-rule="evenodd" d="M46.6211 64L0.246094 0.125V63.9625L46.6211 64ZM17.8711 0L64.2461 63.875V0.025L17.8711 0Z" fill="#E00000"/>
<path id="Vector_3" fill-rule="evenodd" clip-rule="evenodd" d="M3.02148 0.0249939H14.884L61.6965 63.9375H49.459L3.02148 0.0249939Z" fill="black"/>
</g>
</g>
</g>
<defs>
<clipPath id="clip0_2909_185271">
<path d="M0.246094 32C0.246094 14.3269 14.573 0 32.2461 0V0C49.9192 0 64.2461 14.3269 64.2461 32V32C64.2461 49.6731 49.9192 64 32.2461 64V64C14.573 64 0.246094 49.6731 0.246094 32V32Z" fill="white"/>
</clipPath>
</defs>
</svg>
