<svg width="65" height="64" viewBox="0 0 65 64" fill="none" xmlns="http://www.w3.org/2000/svg">
<g id="Rounded=Tuvalu (TV)">
<g clip-path="url(#clip0_2909_185270)">
<path id="Vector" d="M0.246094 0H64.2461V64H0.246094V0Z" fill="#009FCA"/>
<path id="Vector_2" fill-rule="evenodd" clip-rule="evenodd" d="M59.9965 28.2875L60.884 30.8375L58.584 29.2625L56.2715 30.8375L57.159 28.2875L54.8465 26.7125H57.709L58.584 24.1625L59.459 26.7125H62.309L59.9965 28.2875ZM52.8465 48.6375L53.7215 51.1875L51.4215 49.6L49.1215 51.1875L49.9965 48.6375L47.6965 47.05H50.5465L51.4215 44.5L52.2965 47.0625H55.159L52.8465 48.6375ZM60.009 44.025L60.884 46.575L58.584 45L56.2715 46.575L57.159 44.025L54.8465 42.45H57.709L58.584 39.9L59.459 42.45H62.309L60.009 44.025ZM29.234 58.775L30.1215 61.3375L27.8215 59.75L25.509 61.3375L26.3965 58.7875L24.084 57.2125H26.934L27.809 54.6625L28.6965 57.2125H31.5465L29.234 58.775ZM34.6215 47.725L33.7465 45.175L36.0465 46.75L38.3465 45.175L37.4715 47.725L39.7715 49.3H36.9215L36.0465 51.85L35.1715 49.3H32.3215L34.6215 47.725ZM43.034 36.1L42.1465 33.55L44.4465 35.125L46.759 33.55L45.884 36.1L48.184 37.675H45.334L44.459 40.225L43.584 37.675H40.7215L43.034 36.1ZM50.0965 33.6875L49.2215 31.1375L51.5215 32.7125L53.8215 31.1375L52.9465 33.6875L55.2465 35.2625H52.3965L51.5215 37.8125L50.6465 35.2625H47.784L50.0965 33.6875ZM43.034 53.8125L42.1465 51.2625L44.4465 52.8375L46.759 51.2625L45.884 53.8125L48.184 55.3875H45.334L44.459 57.9375L43.584 55.3875H40.7215L43.034 53.8125ZM34.6215 55.8625L33.7465 53.3125L36.0465 54.8875L38.3465 53.3125L37.4715 55.8625L39.7715 57.4375H36.9215L36.0465 59.9875L35.1715 57.4375H32.3215L34.6215 55.8625Z" fill="#FFF40D"/>
<path id="Vector_3" d="M0.246094 0H32.2461V32H0.246094V0Z" fill="#012169"/>
<path id="Vector_4" d="M32.2461 0V4L20.3711 16L32.2461 27.6875V32H28.0586L16.1211 20.25L4.49609 32H0.246094V27.75L11.8711 16.0625L0.246094 4.625V0H4.12109L16.1211 11.75L27.7461 0H32.2461Z" fill="#F5F5F5"/>
<path id="Vector_5" d="M11.7461 20.25L12.4336 22.375L2.87109 32H0.246094V31.8125L11.7461 20.25ZM19.4961 19.5L22.8711 20L32.2461 29.1875V32L19.4961 19.5ZM32.2461 0L20.2461 12.25L19.9961 9.5L29.3711 0H32.2461ZM0.246094 0.0625L12.3086 11.875L8.62109 11.375L0.246094 3.0625V0.0625Z" fill="#C8102E"/>
<path id="Vector_6" d="M11.2461 0V32H21.2461V0H11.2461ZM0.246094 11V21H32.2461V11H0.246094Z" fill="#F5F5F5"/>
<path id="Vector_7" d="M0.246094 13V19H32.2461V13H0.246094ZM13.2461 0V32H19.2461V0H13.2461Z" fill="#C8102E"/>
</g>
</g>
<defs>
<clipPath id="clip0_2909_185270">
<path d="M0.246094 32C0.246094 14.3269 14.573 0 32.2461 0V0C49.9192 0 64.2461 14.3269 64.2461 32V32C64.2461 49.6731 49.9192 64 32.2461 64V64C14.573 64 0.246094 49.6731 0.246094 32V32Z" fill="white"/>
</clipPath>
</defs>
</svg>
