<svg width="65" height="64" viewBox="0 0 65 64" fill="none" xmlns="http://www.w3.org/2000/svg">
<g id="Rounded=United States Minor Outlying Islands (UM)">
<g clip-path="url(#clip0_2909_185421)">
<g id="Group">
<g id="Group_2">
<path id="Vector" fill-rule="evenodd" clip-rule="evenodd" d="M0.246094 0H121.847V4.92312H0.246094V0ZM0.246094 9.84625H121.847V14.7694H0.246094V9.84625ZM0.246094 19.6925H121.847V24.6156H0.246094V19.6925ZM0.246094 29.5387H121.847V34.4619H0.246094V29.5387ZM0.246094 39.385H121.847V44.3081H0.246094V39.385ZM0.246094 49.2312H121.847V54.1544H0.246094V49.2312ZM0.246094 59.0775H121.847V64.0006H0.246094V59.0775Z" fill="#BD3D44"/>
<path id="Vector_2" fill-rule="evenodd" clip-rule="evenodd" d="M0.246094 4.92313H121.847V9.84625H0.246094V4.92313ZM0.246094 14.7694H121.847V19.6925H0.246094V14.7694ZM0.246094 24.6156H121.847V29.5388H0.246094V24.6156ZM0.246094 34.4619H121.847V39.385H0.246094V34.4619ZM0.246094 44.3081H121.847V49.2313H0.246094V44.3081ZM0.246094 54.1544H121.847V59.0775H0.246094V54.1544Z" fill="#F5F5F5"/>
</g>
<path id="Vector_3" fill-rule="evenodd" clip-rule="evenodd" d="M0.246094 0H48.8866V34.4619H0.246094V0Z" fill="#192F5D"/>
<path id="Vector_4" fill-rule="evenodd" clip-rule="evenodd" d="M4.28249 1.47693L4.77481 2.8554H6.15328L5.02096 3.69234L5.46404 5.02158L4.28249 4.18465L3.19941 5.02158L3.64249 3.69234L2.46094 2.8554H3.93788L4.28249 1.47693ZM12.4057 1.47693L12.8487 2.8554H14.2764L13.0949 3.69234L13.5872 5.02158L12.4057 4.18465L11.2241 5.02158L11.7164 3.69234L10.5349 2.8554H11.9626L12.4057 1.47693ZM20.5288 1.47693L20.9719 2.8554H22.3996L21.218 3.69234L21.7104 5.02158L20.5288 4.18465L19.3473 5.02158L19.8396 3.69234L18.658 2.8554H20.0857L20.5288 1.47693ZM28.6027 1.47693L29.095 2.8554H30.4735L29.3412 3.69234L29.7843 5.02158L28.6027 4.18465L27.4704 5.02158L27.9135 3.69234L26.7319 2.8554H28.2089L28.6027 1.47693ZM36.7259 1.47693L37.169 2.8554H38.5967L37.4151 3.69234L37.9074 5.02158L36.6767 4.18465L35.5443 5.02158L35.9874 3.69234L34.8059 2.8554H36.2336L36.7259 1.47693ZM44.849 1.47693L45.2921 2.8554H46.7198L45.5383 3.69234L46.0306 5.02158L44.849 4.18465L43.6675 5.02158L44.1598 3.69234L42.9783 2.8554H44.406L44.849 1.47693ZM8.36869 4.92312L8.81177 6.30159H10.2395L9.05793 7.13852L9.55024 8.46777L8.36869 7.63084L7.18714 8.46777L7.67945 7.13852L6.4979 6.30159H7.92561L8.36869 4.92312ZM16.4426 4.92312L16.9349 6.30159H18.3134L17.1811 7.13852L17.6242 8.46777L16.4426 7.63084L15.3103 8.46777L15.7534 7.13852L14.5718 6.30159H16.0488L16.4426 4.92312ZM24.5658 4.92312L25.0089 6.30159H26.4366L25.255 7.13852L25.7473 8.46777L24.5658 7.63084L23.3842 8.46777L23.8765 7.13852L22.695 6.30159H24.1227L24.5658 4.92312ZM32.6889 4.92312L33.132 6.30159H34.5597L33.3782 7.13852L33.8705 8.46777L32.6889 7.63084L31.5074 8.46777L31.9997 7.13852L30.8181 6.30159H32.2458L32.6889 4.92312ZM40.7629 4.92312L41.2552 6.30159H42.5844L41.4521 7.13852L41.8952 8.46777L40.7136 7.63084L39.5813 8.46777L40.0244 7.13852L38.8428 6.30159H40.3198L40.7629 4.92312ZM4.33173 8.3693L4.72558 9.74778H6.20251L5.02096 10.5847L5.46404 11.914L4.28249 11.077L3.19941 11.914L3.64249 10.5847L2.46094 9.74778H3.93788L4.33173 8.3693ZM12.4057 8.3693L12.8487 9.74778H14.2764L13.1441 10.5847L13.5872 11.914L12.4057 11.077L11.2733 11.914L11.7164 10.5847L10.5349 9.74778H11.9626L12.4057 8.3693ZM20.5288 8.3693L20.9719 9.74778H22.3996L21.218 10.5847L21.7104 11.914L20.5288 11.077L19.3473 11.914L19.8396 10.5847L18.658 9.74778H20.0857L20.5288 8.3693ZM28.6027 8.3693L29.095 9.74778H30.4735L29.3412 10.5847L29.7843 11.914L28.6027 11.077L27.4704 11.914L27.9135 10.5847L26.7319 9.74778H28.2089L28.6027 8.3693ZM36.7259 8.3693L37.169 9.74778H38.5967L37.4644 10.5847L37.9074 11.914L36.7259 11.077L35.5936 11.914L36.0366 10.5847L34.8551 9.74778H36.2828L36.7259 8.3693ZM44.849 8.3693L45.2921 9.74778H46.7198L45.5383 10.5847L46.0306 11.914L44.849 11.077L43.6675 11.914L44.1598 10.5847L42.9783 9.74778H44.406L44.849 8.3693ZM8.36869 11.8155L8.81177 13.194H10.2395L9.05793 14.0309L9.55024 15.3601L8.36869 14.5232L7.18714 15.3601L7.67945 14.0309L6.4979 13.194H7.92561L8.36869 11.8155ZM16.4426 11.8155L16.9349 13.194H18.3134L17.1811 14.0309L17.6242 15.3601L16.4426 14.5232L15.3103 15.3601L15.7534 14.0309L14.5718 13.194H16.0488L16.4426 11.8155ZM24.5658 11.8155L25.0089 13.194H26.4366L25.3042 14.0309L25.7473 15.3601L24.5658 14.5232L23.4335 15.3601L23.8765 14.0309L22.695 13.194H24.1227L24.5658 11.8155ZM32.6889 11.8155L33.132 13.194H34.5597L33.3782 14.0309L33.8705 15.3601L32.6889 14.5232L31.5074 15.3601L31.9997 14.0309L30.8181 13.194H32.2458L32.6889 11.8155ZM40.7629 11.8155L41.2552 13.194H42.5844L41.4521 14.0309L41.8952 15.3601L40.7136 14.5232L39.5813 15.3601L40.0244 14.0309L38.8428 13.194H40.3198L40.7629 11.8155ZM4.33173 15.2617L4.72558 16.6402H6.20251L5.02096 17.4771L5.46404 18.8063L4.28249 17.9694L3.19941 18.8063L3.64249 17.4771L2.46094 16.6402H3.93788L4.33173 15.2617ZM12.4057 15.2617L12.8487 16.6402H14.2764L13.1441 17.4771L13.5872 18.8063L12.4057 17.9694L11.2733 18.8063L11.7164 17.4771L10.5349 16.6402H11.9626L12.4057 15.2617ZM20.5288 15.2617L20.9719 16.6402H22.3996L21.218 17.4771L21.7104 18.8063L20.5288 17.9694L19.3473 18.8063L19.8396 17.4771L18.658 16.6402H20.0857L20.5288 15.2617ZM28.6027 15.2617L29.095 16.6402H30.4735L29.3412 17.4771L29.7843 18.8063L28.6027 17.9694L27.4704 18.8063L27.9135 17.4771L26.7319 16.6402H28.2089L28.6027 15.2617ZM36.7259 15.2617L37.169 16.6402H38.5967L37.4644 17.4771L37.9074 18.8063L36.7259 17.9694L35.5936 18.8063L36.0366 17.4771L34.8551 16.6402H36.2828L36.7259 15.2617ZM44.849 15.2617L45.2921 16.6402H46.7198L45.5383 17.4771L46.0306 18.8063L44.849 17.9694L43.6675 18.8063L44.1598 17.4771L42.9783 16.6402H44.406L44.849 15.2617ZM8.36869 18.7079L8.81177 20.0863H10.2395L9.05793 20.9233L9.55024 22.2525L8.36869 21.4156L7.18714 22.2525L7.67945 20.9233L6.4979 20.0863H7.92561L8.36869 18.7079ZM16.4426 18.7079L16.9349 20.0863H18.3134L17.1811 20.9233L17.6242 22.2525L16.4426 21.4156L15.3103 22.2525L15.7534 20.9233L14.5718 20.0863H16.0488L16.4426 18.7079ZM24.5658 18.7079L25.0089 20.0863H26.4366L25.3042 20.9233L25.7473 22.2525L24.5658 21.4156L23.4335 22.2525L23.8765 20.9233L22.695 20.0863H24.1227L24.5658 18.7079ZM32.6889 18.7079L33.132 20.0863H34.5597L33.3782 20.9233L33.8705 22.2525L32.6889 21.4156L31.5074 22.2525L31.9997 20.9233L30.8181 20.0863H32.2458L32.6889 18.7079ZM40.7629 18.7079L41.2552 20.0863H42.5844L41.4521 20.9233L41.8952 22.2525L40.7136 21.4156L39.5813 22.2525L40.0244 20.9233L38.8428 20.0863H40.3198L40.7629 18.7079ZM4.33173 22.1541L4.72558 23.5325H6.20251L5.02096 24.3695L5.46404 25.6987L4.28249 24.8618L3.19941 25.6987L3.64249 24.3695L2.46094 23.5325H3.93788L4.33173 22.1541ZM12.4057 22.1541L12.8487 23.5325H14.2764L13.1441 24.3695L13.5872 25.6987L12.4057 24.8618L11.2733 25.6987L11.7164 24.3695L10.5349 23.5325H11.9626L12.4057 22.1541ZM20.5288 22.1541L20.9719 23.5325H22.3996L21.218 24.3695L21.7104 25.6987L20.5288 24.8618L19.3473 25.6987L19.8396 24.3695L18.658 23.5325H20.0857L20.5288 22.1541ZM28.6027 22.1541L29.095 23.5325H30.4735L29.3412 24.3695L29.7843 25.6987L28.6027 24.8618L27.4704 25.6987L27.9135 24.3695L26.7319 23.5325H28.2089L28.6027 22.1541ZM36.7259 22.1541L37.169 23.5325H38.5967L37.4644 24.3695L37.9074 25.6987L36.7259 24.8618L35.5936 25.6987L36.0366 24.3695L34.8551 23.5325H36.2828L36.7259 22.1541ZM44.849 22.1541L45.2921 23.5325H46.7198L45.5383 24.3695L46.0306 25.6987L44.849 24.8618L43.6675 25.6987L44.1598 24.3695L42.9783 23.5325H44.406L44.849 22.1541ZM8.36869 25.6002L8.81177 26.9787H10.2395L9.05793 27.8156L9.55024 29.1449L8.36869 28.308L7.18714 29.1449L7.67945 27.8156L6.4979 26.9787H7.92561L8.36869 25.6002ZM16.4426 25.6002L16.9349 26.9787H18.3134L17.1811 27.8156L17.6242 29.1449L16.4426 28.308L15.3103 29.1449L15.7534 27.8156L14.5718 26.9787H16.0488L16.4426 25.6002ZM24.5658 25.6002L25.0089 26.9787H26.4366L25.3042 27.8156L25.7473 29.1449L24.5658 28.308L23.4335 29.1449L23.8765 27.8156L22.695 26.9787H24.1227L24.5658 25.6002ZM32.6889 25.6002L33.132 26.9787H34.5597L33.3782 27.8156L33.8705 29.1449L32.6889 28.308L31.5074 29.1449L31.9997 27.8156L30.8181 26.9787H32.2458L32.6889 25.6002ZM40.7629 25.6002L41.2552 26.9787H42.5844L41.4521 27.8156L41.8952 29.1449L40.7136 28.308L39.5813 29.1449L40.0244 27.8156L38.8428 26.9787H40.3198L40.7629 25.6002ZM4.33173 29.0464L4.72558 30.4249H6.20251L5.02096 31.2618L5.46404 32.5911L4.28249 31.7541L3.19941 32.5911L3.64249 31.2618L2.46094 30.4249H3.93788L4.33173 29.0464ZM12.4057 29.0464L12.8487 30.4249H14.2764L13.1441 31.2618L13.5872 32.5911L12.4057 31.7541L11.2733 32.5911L11.7164 31.2618L10.5349 30.4249H11.9626L12.4057 29.0464ZM20.5288 29.0464L20.9719 30.4249H22.3996L21.218 31.2618L21.7104 32.5911L20.5288 31.7541L19.3473 32.5911L19.8396 31.2618L18.658 30.4249H20.0857L20.5288 29.0464ZM28.6027 29.0464L29.095 30.4249H30.4735L29.3412 31.2618L29.7843 32.5911L28.6027 31.7541L27.4704 32.5911L27.9135 31.2618L26.7319 30.4249H28.2089L28.6027 29.0464ZM36.7259 29.0464L37.169 30.4249H38.5967L37.4644 31.2618L37.9074 32.5911L36.7259 31.7541L35.5936 32.5911L36.0366 31.2618L34.8551 30.4249H36.2828L36.7259 29.0464ZM44.849 29.0464L45.2921 30.4249H46.7198L45.5383 31.2618L46.0306 32.5911L44.849 31.7541L43.6675 32.5911L44.1598 31.2618L42.9783 30.4249H44.406L44.849 29.0464Z" fill="#F5F5F5"/>
</g>
</g>
</g>
<defs>
<clipPath id="clip0_2909_185421">
<path d="M0.246094 32C0.246094 14.3269 14.573 0 32.2461 0V0C49.9192 0 64.2461 14.3269 64.2461 32V32C64.2461 49.6731 49.9192 64 32.2461 64V64C14.573 64 0.246094 49.6731 0.246094 32V32Z" fill="white"/>
</clipPath>
</defs>
</svg>
