<svg width="65" height="64" viewBox="0 0 65 64" fill="none" xmlns="http://www.w3.org/2000/svg">
<g id="Rounded=United States of America (US)">
<g clip-path="url(#clip0_2909_185375)">
<g id="Group">
<g id="Group_2">
<path id="Vector" fill-rule="evenodd" clip-rule="evenodd" d="M0.246094 0H121.847V4.92312H0.246094V0ZM0.246094 9.84625H121.847V14.7694H0.246094V9.84625ZM0.246094 19.6925H121.847V24.6156H0.246094V19.6925ZM0.246094 29.5387H121.847V34.4619H0.246094V29.5387ZM0.246094 39.385H121.847V44.3081H0.246094V39.385ZM0.246094 49.2313H121.847V54.1544H0.246094V49.2313ZM0.246094 59.0775H121.847V64.0006H0.246094V59.0775Z" fill="#BD3D44"/>
<path id="Vector_2" fill-rule="evenodd" clip-rule="evenodd" d="M0.246094 4.92313H121.847V9.84625H0.246094V4.92313ZM0.246094 14.7694H121.847V19.6925H0.246094V14.7694ZM0.246094 24.6156H121.847V29.5388H0.246094V24.6156ZM0.246094 34.4619H121.847V39.385H0.246094V34.4619ZM0.246094 44.3081H121.847V49.2313H0.246094V44.3081ZM0.246094 54.1544H121.847V59.0775H0.246094V54.1544Z" fill="#F5F5F5"/>
</g>
<path id="Vector_3" fill-rule="evenodd" clip-rule="evenodd" d="M0.246094 0H48.8866V34.4619H0.246094V0Z" fill="#192F5D"/>
<path id="Vector_4" fill-rule="evenodd" clip-rule="evenodd" d="M4.28256 1.47699L4.77481 2.85536H6.15331L5.02094 3.69236L5.46406 5.02161L4.28256 4.18461L3.19944 5.02161L3.64256 3.69236L2.46094 2.85536H3.93806L4.28256 1.47699ZM12.4057 1.47699L12.8488 2.85536H14.2764L13.0949 3.69236L13.5872 5.02161L12.4057 4.18461L11.2242 5.02161L11.7164 3.69236L10.5349 2.85536H11.9626L12.4057 1.47699ZM20.5288 1.47699L20.9719 2.85536H22.3996L21.2181 3.69236L21.7104 5.02161L20.5288 4.18461L19.3473 5.02161L19.8396 3.69236L18.6581 2.85536H20.0858L20.5288 1.47699ZM28.6028 1.47699L29.0951 2.85536H30.4736L29.3412 3.69236L29.7843 5.02161L28.6028 4.18461L27.4704 5.02161L27.9136 3.69236L26.7319 2.85536H28.2089L28.6028 1.47699ZM36.7259 1.47699L37.1689 2.85536H38.5967L37.4152 3.69236L37.9074 5.02161L36.6767 4.18461L35.5443 5.02161L35.9874 3.69236L34.8059 2.85536H36.2336L36.7259 1.47699ZM44.8491 1.47699L45.2922 2.85536H46.7198L45.5383 3.69236L46.0306 5.02161L44.8491 4.18461L43.6676 5.02161L44.1598 3.69236L42.9783 2.85536H44.4059L44.8491 1.47699ZM8.36869 4.92311L8.81181 6.30161H10.2396L9.05794 7.13849L9.55031 8.46774L8.36869 7.63087L7.18719 8.46774L7.67944 7.13849L6.49794 6.30161H7.92569L8.36869 4.92311ZM16.4427 4.92311L16.9349 6.30161H18.3134L17.1811 7.13849L17.6242 8.46774L16.4427 7.63087L15.3103 8.46774L15.7534 7.13849L14.5718 6.30161H16.0488L16.4427 4.92311ZM24.5658 4.92311L25.0089 6.30161H26.4366L25.2551 7.13849L25.7473 8.46774L24.5658 7.63087L23.3842 8.46774L23.8766 7.13849L22.6951 6.30161H24.1227L24.5658 4.92311ZM32.6889 4.92311L33.1321 6.30161H34.5597L33.3782 7.13849L33.8706 8.46774L32.6889 7.63087L31.5074 8.46774L31.9997 7.13849L30.8182 6.30161H32.2459L32.6889 4.92311ZM40.7629 4.92311L41.2552 6.30161H42.5844L41.4521 7.13849L41.8952 8.46774L40.7137 7.63087L39.5813 8.46774L40.0244 7.13849L38.8428 6.30161H40.3198L40.7629 4.92311ZM4.33169 8.36936L4.72556 9.74774H6.20256L5.02094 10.5847L5.46406 11.914L4.28256 11.077L3.19944 11.914L3.64256 10.5847L2.46094 9.74774H3.93806L4.33169 8.36936ZM12.4057 8.36936L12.8488 9.74774H14.2764L13.1442 10.5847L13.5872 11.914L12.4057 11.077L11.2733 11.914L11.7164 10.5847L10.5349 9.74774H11.9626L12.4057 8.36936ZM20.5288 8.36936L20.9719 9.74774H22.3996L21.2181 10.5847L21.7104 11.914L20.5288 11.077L19.3473 11.914L19.8396 10.5847L18.6581 9.74774H20.0858L20.5288 8.36936ZM28.6028 8.36936L29.0951 9.74774H30.4736L29.3412 10.5847L29.7843 11.914L28.6028 11.077L27.4704 11.914L27.9136 10.5847L26.7319 9.74774H28.2089L28.6028 8.36936ZM36.7259 8.36936L37.1689 9.74774H38.5967L37.4644 10.5847L37.9074 11.914L36.7259 11.077L35.5936 11.914L36.0367 10.5847L34.8552 9.74774H36.2828L36.7259 8.36936ZM44.8491 8.36936L45.2922 9.74774H46.7198L45.5383 10.5847L46.0306 11.914L44.8491 11.077L43.6676 11.914L44.1598 10.5847L42.9783 9.74774H44.4059L44.8491 8.36936ZM8.36869 11.8154L8.81181 13.1939H10.2396L9.05794 14.0307L9.55031 15.36L8.36869 14.5231L7.18719 15.36L7.67944 14.0307L6.49794 13.1939H7.92569L8.36869 11.8154ZM16.4427 11.8154L16.9349 13.1939H18.3134L17.1811 14.0307L17.6242 15.36L16.4427 14.5231L15.3103 15.36L15.7534 14.0307L14.5718 13.1939H16.0488L16.4427 11.8154ZM24.5658 11.8154L25.0089 13.1939H26.4366L25.3043 14.0307L25.7473 15.36L24.5658 14.5231L23.4334 15.36L23.8766 14.0307L22.6951 13.1939H24.1227L24.5658 11.8154ZM32.6889 11.8154L33.1321 13.1939H34.5597L33.3782 14.0307L33.8706 15.3601L32.6889 14.5232L31.5074 15.3601L31.9997 14.0309L30.8182 13.194H32.2459L32.6889 11.8154ZM40.7629 11.8154L41.2552 13.1939H42.5844L41.4521 14.0307L41.8952 15.36L40.7137 14.5231L39.5813 15.36L40.0244 14.0307L38.8428 13.1939H40.3198L40.7629 11.8154ZM4.33169 15.2616L4.72556 16.64H6.20256L5.02094 17.477L5.46406 18.8062L4.28256 17.9692L3.19944 18.8062L3.64256 17.477L2.46094 16.64H3.93806L4.33169 15.2616ZM12.4057 15.2616L12.8488 16.64H14.2764L13.1442 17.477L13.5872 18.8062L12.4057 17.9692L11.2733 18.8062L11.7164 17.477L10.5349 16.64H11.9626L12.4057 15.2616ZM20.5288 15.2616L20.9719 16.64H22.3996L21.2181 17.477L21.7104 18.8062L20.5288 17.9692L19.3473 18.8062L19.8396 17.477L18.6581 16.64H20.0858L20.5288 15.2616ZM28.6028 15.2616L29.0951 16.64H30.4736L29.3412 17.477L29.7843 18.8062L28.6028 17.9692L27.4704 18.8062L27.9136 17.477L26.7319 16.64H28.2089L28.6028 15.2616ZM36.7259 15.2616L37.1689 16.64H38.5967L37.4644 17.477L37.9074 18.8062L36.7259 17.9692L35.5936 18.8062L36.0367 17.477L34.8552 16.64H36.2828L36.7259 15.2616ZM44.8491 15.2616L45.2922 16.64H46.7198L45.5383 17.477L46.0306 18.8062L44.8491 17.9692L43.6676 18.8062L44.1598 17.477L42.9783 16.64H44.4059L44.8491 15.2616ZM8.36869 18.7077L8.81181 20.0862H10.2396L9.05794 20.9231L9.55031 22.2524L8.36869 21.4155L7.18719 22.2524L7.67944 20.9231L6.49794 20.0862H7.92569L8.36869 18.7077ZM16.4427 18.7077L16.9349 20.0862H18.3134L17.1811 20.9231L17.6242 22.2524L16.4427 21.4155L15.3103 22.2524L15.7534 20.9231L14.5718 20.0862H16.0488L16.4427 18.7077ZM24.5658 18.7077L25.0089 20.0862H26.4366L25.3043 20.9231L25.7473 22.2524L24.5658 21.4155L23.4334 22.2524L23.8766 20.9231L22.6951 20.0862H24.1227L24.5658 18.7077ZM32.6889 18.7077L33.1321 20.0862H34.5597L33.3782 20.9231L33.8706 22.2525L32.6889 21.4156L31.5074 22.2525L31.9997 20.9232L30.8182 20.0864H32.2459L32.6889 18.7077ZM40.7629 18.7077L41.2552 20.0862H42.5844L41.4521 20.9231L41.8952 22.2524L40.7137 21.4155L39.5813 22.2524L40.0244 20.9231L38.8428 20.0862H40.3198L40.7629 18.7077ZM4.33169 22.154L4.72556 23.5324H6.20256L5.02094 24.3694L5.46406 25.6986L4.28256 24.8616L3.19944 25.6986L3.64256 24.3694L2.46094 23.5324H3.93806L4.33169 22.154ZM12.4057 22.154L12.8488 23.5324H14.2764L13.1442 24.3694L13.5872 25.6986L12.4057 24.8616L11.2733 25.6986L11.7164 24.3694L10.5349 23.5324H11.9626L12.4057 22.154ZM20.5288 22.154L20.9719 23.5324H22.3996L21.2181 24.3694L21.7104 25.6986L20.5288 24.8616L19.3473 25.6986L19.8396 24.3694L18.6581 23.5324H20.0858L20.5288 22.154ZM28.6028 22.154L29.0951 23.5324H30.4736L29.3412 24.3694L29.7843 25.6986L28.6028 24.8616L27.4704 25.6986L27.9136 24.3694L26.7319 23.5324H28.2089L28.6028 22.154ZM36.7259 22.154L37.1689 23.5324H38.5967L37.4644 24.3694L37.9074 25.6986L36.7259 24.8616L35.5936 25.6986L36.0367 24.3694L34.8552 23.5324H36.2828L36.7259 22.154ZM44.8491 22.154L45.2922 23.5324H46.7198L45.5383 24.3694L46.0306 25.6986L44.8491 24.8616L43.6676 25.6986L44.1598 24.3694L42.9783 23.5324H44.4059L44.8491 22.154ZM8.36869 25.6002L8.81181 26.9787H10.2396L9.05794 27.8156L9.55031 29.1449L8.36869 28.308L7.18719 29.1449L7.67944 27.8156L6.49794 26.9787H7.92569L8.36869 25.6002ZM16.4427 25.6002L16.9349 26.9787H18.3134L17.1811 27.8156L17.6242 29.1449L16.4427 28.308L15.3103 29.1449L15.7534 27.8156L14.5718 26.9787H16.0488L16.4427 25.6002ZM24.5658 25.6002L25.0089 26.9787H26.4366L25.3043 27.8156L25.7473 29.1449L24.5658 28.308L23.4334 29.1449L23.8766 27.8156L22.6951 26.9787H24.1227L24.5658 25.6002ZM32.6889 25.6002L33.1321 26.9787H34.5597L33.3782 27.8156L33.8706 29.145L32.6889 28.3081L31.5074 29.145L31.9997 27.8157L30.8182 26.9789H32.2459L32.6889 25.6002ZM40.7629 25.6002L41.2552 26.9787H42.5844L41.4521 27.8156L41.8952 29.1449L40.7137 28.308L39.5813 29.1449L40.0244 27.8156L38.8428 26.9787H40.3198L40.7629 25.6002ZM4.33169 29.0465L4.72556 30.4249H6.20256L5.02094 31.2619L5.46406 32.5911L4.28256 31.7541L3.19944 32.5911L3.64256 31.2619L2.46094 30.4249H3.93806L4.33169 29.0465ZM12.4057 29.0465L12.8488 30.4249H14.2764L13.1442 31.2619L13.5872 32.5911L12.4057 31.7541L11.2733 32.5911L11.7164 31.2619L10.5349 30.4249H11.9626L12.4057 29.0465ZM20.5288 29.0465L20.9719 30.4249H22.3996L21.2181 31.2619L21.7104 32.5911L20.5288 31.7541L19.3473 32.5911L19.8396 31.2619L18.6581 30.4249H20.0858L20.5288 29.0465ZM28.6028 29.0465L29.0951 30.4249H30.4736L29.3412 31.2619L29.7843 32.5911L28.6028 31.7541L27.4704 32.5911L27.9136 31.2619L26.7319 30.4249H28.2089L28.6028 29.0465ZM36.7259 29.0465L37.1689 30.4249H38.5967L37.4644 31.2619L37.9074 32.5911L36.7259 31.7541L35.5936 32.5911L36.0367 31.2619L34.8552 30.4249H36.2828L36.7259 29.0465ZM44.8491 29.0465L45.2922 30.4249H46.7198L45.5383 31.2619L46.0306 32.5911L44.8491 31.7541L43.6676 32.5911L44.1598 31.2619L42.9783 30.4249H44.4059L44.8491 29.0465Z" fill="#F5F5F5"/>
</g>
</g>
</g>
<defs>
<clipPath id="clip0_2909_185375">
<path d="M0.246094 32C0.246094 14.3269 14.573 0 32.2461 0V0C49.9192 0 64.2461 14.3269 64.2461 32V32C64.2461 49.6731 49.9192 64 32.2461 64V64C14.573 64 0.246094 49.6731 0.246094 32V32Z" fill="white"/>
</clipPath>
</defs>
</svg>
