<svg width="65" height="64" viewBox="0 0 65 64" fill="none" xmlns="http://www.w3.org/2000/svg">
<g id="Rounded=Uzbekistan (UZ)">
<g clip-path="url(#clip0_2909_185264)">
<path id="Vector" d="M0.246094 42.6625H64.2461V64H0.246094V42.6625Z" fill="#1EB53A"/>
<path id="Vector_2" d="M0.246094 0H64.2461V21.3375H0.246094V0Z" fill="#0099B5"/>
<path id="Vector_3" d="M0.246094 20.475H64.2461V43.525H0.246094V20.475Z" fill="#CE1126"/>
<path id="Vector_4" d="M0.246094 21.75H64.2461V42.25H0.246094V21.75Z" fill="#F5F5F5"/>
<path id="Vector_5" d="M18.1711 17.9125C22.4099 17.9125 25.8461 14.4763 25.8461 10.2375C25.8461 5.99871 22.4099 2.5625 18.1711 2.5625C13.9323 2.5625 10.4961 5.99871 10.4961 10.2375C10.4961 14.4763 13.9323 17.9125 18.1711 17.9125Z" fill="#F5F5F5"/>
<path id="Vector_6" d="M20.7219 17.9125C24.9607 17.9125 28.3969 14.4763 28.3969 10.2375C28.3969 5.99871 24.9607 2.5625 20.7219 2.5625C16.4831 2.5625 13.0469 5.99871 13.0469 10.2375C13.0469 14.4763 16.4831 17.9125 20.7219 17.9125Z" fill="#0099B5"/>
<g id="Group">
<g id="e">
<g id="d">
<g id="c">
<g id="b">
<path id="a" d="M35.0587 14.839L34.5723 16.2982L35.3147 16.5542" fill="#F5F5F5"/>
<path id="Vector_7" d="M35.0585 14.839L35.5449 16.2982L34.8025 16.5542" fill="#F5F5F5"/>
</g>
<g id="Group_2">
<path id="a_2" d="M36.5194 15.9003L34.9814 15.8887L34.9673 16.6738" fill="#F5F5F5"/>
<path id="Vector_8" d="M36.5196 15.9004L35.2821 16.8139L34.8093 16.1869" fill="#F5F5F5"/>
</g>
</g>
<g id="Group_3">
<path id="a_3" d="M33.5976 15.9004L34.835 16.8139L35.3079 16.1869" fill="#F5F5F5"/>
<path id="Vector_9" d="M33.5977 15.9003L35.1358 15.8887L35.1499 16.6738" fill="#F5F5F5"/>
</g>
<g id="Group_4">
<g id="b_2">
<path id="a_4" d="M35.962 17.6176L35.4978 16.1512L34.7467 16.3805" fill="#F5F5F5"/>
<path id="Vector_10" d="M35.9619 17.6176L34.7107 16.723L35.1608 16.0795" fill="#F5F5F5"/>
</g>
<g id="Group_5">
<path id="a_5" d="M34.1553 17.6176L35.4065 16.723L34.9564 16.0795" fill="#F5F5F5"/>
<path id="Vector_11" d="M34.1552 17.6176L34.6194 16.1512L35.3705 16.3805" fill="#F5F5F5"/>
</g>
</g>
</g>
<g id="Group_6">
<g id="c_2">
<g id="b_3">
<path id="a_6" d="M35.0587 14.839L34.5723 16.2982L35.3147 16.5542" fill="#F5F5F5"/>
<path id="Vector_12" d="M35.0585 14.839L35.5449 16.2982L34.8025 16.5542" fill="#F5F5F5"/>
</g>
<g id="Group_7">
<path id="a_7" d="M36.5194 15.9003L34.9814 15.8887L34.9673 16.6738" fill="#F5F5F5"/>
<path id="Vector_13" d="M36.5196 15.9004L35.2821 16.8139L34.8093 16.1869" fill="#F5F5F5"/>
</g>
</g>
<g id="Group_8">
<path id="a_8" d="M33.5976 15.9004L34.835 16.8139L35.3079 16.1869" fill="#F5F5F5"/>
<path id="Vector_14" d="M33.5977 15.9003L35.1358 15.8887L35.1499 16.6738" fill="#F5F5F5"/>
</g>
<g id="Group_9">
<g id="b_4">
<path id="a_9" d="M35.962 17.6176L35.4978 16.1512L34.7467 16.3805" fill="#F5F5F5"/>
<path id="Vector_15" d="M35.9619 17.6176L34.7107 16.723L35.1608 16.0795" fill="#F5F5F5"/>
</g>
<g id="Group_10">
<path id="a_10" d="M34.1553 17.6176L35.4065 16.723L34.9564 16.0795" fill="#F5F5F5"/>
<path id="Vector_16" d="M34.1552 17.6176L34.6194 16.1512L35.3705 16.3805" fill="#F5F5F5"/>
</g>
</g>
</g>
<g id="Group_11">
<g id="c_3">
<g id="b_5">
<path id="a_11" d="M35.0587 14.839L34.5723 16.2982L35.3147 16.5542" fill="#F5F5F5"/>
<path id="Vector_17" d="M35.0585 14.839L35.5449 16.2982L34.8025 16.5542" fill="#F5F5F5"/>
</g>
<g id="Group_12">
<path id="a_12" d="M36.5194 15.9003L34.9814 15.8887L34.9673 16.6738" fill="#F5F5F5"/>
<path id="Vector_18" d="M36.5196 15.9004L35.2821 16.8139L34.8093 16.1869" fill="#F5F5F5"/>
</g>
</g>
<g id="Group_13">
<path id="a_13" d="M33.5976 15.9004L34.835 16.8139L35.3079 16.1869" fill="#F5F5F5"/>
<path id="Vector_19" d="M33.5977 15.9003L35.1358 15.8887L35.1499 16.6738" fill="#F5F5F5"/>
</g>
<g id="Group_14">
<g id="b_6">
<path id="a_14" d="M35.962 17.6176L35.4978 16.1512L34.7467 16.3805" fill="#F5F5F5"/>
<path id="Vector_20" d="M35.9619 17.6176L34.7107 16.723L35.1608 16.0795" fill="#F5F5F5"/>
</g>
<g id="Group_15">
<path id="a_15" d="M34.1553 17.6176L35.4065 16.723L34.9564 16.0795" fill="#F5F5F5"/>
<path id="Vector_21" d="M34.1552 17.6176L34.6194 16.1512L35.3705 16.3805" fill="#F5F5F5"/>
</g>
</g>
</g>
</g>
<g id="Group_16">
<g id="d_2">
<g id="c_4">
<g id="b_7">
<path id="a_16" d="M35.0587 14.839L34.5723 16.2982L35.3147 16.5542" fill="#F5F5F5"/>
<path id="Vector_22" d="M35.0585 14.839L35.5449 16.2982L34.8025 16.5542" fill="#F5F5F5"/>
</g>
<g id="Group_17">
<path id="a_17" d="M36.5194 15.9003L34.9814 15.8887L34.9673 16.6738" fill="#F5F5F5"/>
<path id="Vector_23" d="M36.5196 15.9004L35.2821 16.8139L34.8093 16.1869" fill="#F5F5F5"/>
</g>
</g>
<g id="Group_18">
<path id="a_18" d="M33.5976 15.9004L34.835 16.8139L35.3079 16.1869" fill="#F5F5F5"/>
<path id="Vector_24" d="M33.5977 15.9003L35.1358 15.8887L35.1499 16.6738" fill="#F5F5F5"/>
</g>
<g id="Group_19">
<g id="b_8">
<path id="a_19" d="M35.962 17.6176L35.4978 16.1512L34.7467 16.3805" fill="#F5F5F5"/>
<path id="Vector_25" d="M35.9619 17.6176L34.7107 16.723L35.1608 16.0795" fill="#F5F5F5"/>
</g>
<g id="Group_20">
<path id="a_20" d="M34.1553 17.6176L35.4065 16.723L34.9564 16.0795" fill="#F5F5F5"/>
<path id="Vector_26" d="M34.1552 17.6176L34.6194 16.1512L35.3705 16.3805" fill="#F5F5F5"/>
</g>
</g>
</g>
<g id="Group_21">
<g id="c_5">
<g id="b_9">
<path id="a_21" d="M35.0587 14.839L34.5723 16.2982L35.3147 16.5542" fill="#F5F5F5"/>
<path id="Vector_27" d="M35.0585 14.839L35.5449 16.2982L34.8025 16.5542" fill="#F5F5F5"/>
</g>
<g id="Group_22">
<path id="a_22" d="M36.5194 15.9003L34.9814 15.8887L34.9673 16.6738" fill="#F5F5F5"/>
<path id="Vector_28" d="M36.5196 15.9004L35.2821 16.8139L34.8093 16.1869" fill="#F5F5F5"/>
</g>
</g>
<g id="Group_23">
<path id="a_23" d="M33.5976 15.9004L34.835 16.8139L35.3079 16.1869" fill="#F5F5F5"/>
<path id="Vector_29" d="M33.5977 15.9003L35.1358 15.8887L35.1499 16.6738" fill="#F5F5F5"/>
</g>
<g id="Group_24">
<g id="b_10">
<path id="a_24" d="M35.962 17.6176L35.4978 16.1512L34.7467 16.3805" fill="#F5F5F5"/>
<path id="Vector_30" d="M35.9619 17.6176L34.7107 16.723L35.1608 16.0795" fill="#F5F5F5"/>
</g>
<g id="Group_25">
<path id="a_25" d="M34.1553 17.6176L35.4065 16.723L34.9564 16.0795" fill="#F5F5F5"/>
<path id="Vector_31" d="M34.1552 17.6176L34.6194 16.1512L35.3705 16.3805" fill="#F5F5F5"/>
</g>
</g>
</g>
<g id="Group_26">
<g id="c_6">
<g id="b_11">
<path id="a_26" d="M35.0587 14.839L34.5723 16.2982L35.3147 16.5542" fill="#F5F5F5"/>
<path id="Vector_32" d="M35.0585 14.839L35.5449 16.2982L34.8025 16.5542" fill="#F5F5F5"/>
</g>
<g id="Group_27">
<path id="a_27" d="M36.5194 15.9003L34.9814 15.8887L34.9673 16.6738" fill="#F5F5F5"/>
<path id="Vector_33" d="M36.5196 15.9004L35.2821 16.8139L34.8093 16.1869" fill="#F5F5F5"/>
</g>
</g>
<g id="Group_28">
<path id="a_28" d="M33.5976 15.9004L34.835 16.8139L35.3079 16.1869" fill="#F5F5F5"/>
<path id="Vector_34" d="M33.5977 15.9003L35.1358 15.8887L35.1499 16.6738" fill="#F5F5F5"/>
</g>
<g id="Group_29">
<g id="b_12">
<path id="a_29" d="M35.962 17.6176L35.4978 16.1512L34.7467 16.3805" fill="#F5F5F5"/>
<path id="Vector_35" d="M35.9619 17.6176L34.7107 16.723L35.1608 16.0795" fill="#F5F5F5"/>
</g>
<g id="Group_30">
<path id="a_30" d="M34.1553 17.6176L35.4065 16.723L34.9564 16.0795" fill="#F5F5F5"/>
<path id="Vector_36" d="M34.1552 17.6176L34.6194 16.1512L35.3705 16.3805" fill="#F5F5F5"/>
</g>
</g>
</g>
</g>
<g id="Group_31">
<g id="d_3">
<g id="c_7">
<g id="b_13">
<path id="a_31" d="M35.0587 14.839L34.5723 16.2982L35.3147 16.5542" fill="#F5F5F5"/>
<path id="Vector_37" d="M35.0585 14.839L35.5449 16.2982L34.8025 16.5542" fill="#F5F5F5"/>
</g>
<g id="Group_32">
<path id="a_32" d="M36.5194 15.9003L34.9814 15.8887L34.9673 16.6738" fill="#F5F5F5"/>
<path id="Vector_38" d="M36.5196 15.9004L35.2821 16.8139L34.8093 16.1869" fill="#F5F5F5"/>
</g>
</g>
<g id="Group_33">
<path id="a_33" d="M33.5976 15.9004L34.835 16.8139L35.3079 16.1869" fill="#F5F5F5"/>
<path id="Vector_39" d="M33.5977 15.9003L35.1358 15.8887L35.1499 16.6738" fill="#F5F5F5"/>
</g>
<g id="Group_34">
<g id="b_14">
<path id="a_34" d="M35.962 17.6176L35.4978 16.1512L34.7467 16.3805" fill="#F5F5F5"/>
<path id="Vector_40" d="M35.9619 17.6176L34.7107 16.723L35.1608 16.0795" fill="#F5F5F5"/>
</g>
<g id="Group_35">
<path id="a_35" d="M34.1553 17.6176L35.4065 16.723L34.9564 16.0795" fill="#F5F5F5"/>
<path id="Vector_41" d="M34.1552 17.6176L34.6194 16.1512L35.3705 16.3805" fill="#F5F5F5"/>
</g>
</g>
</g>
<g id="Group_36">
<g id="c_8">
<g id="b_15">
<path id="a_36" d="M35.0587 14.839L34.5723 16.2982L35.3147 16.5542" fill="#F5F5F5"/>
<path id="Vector_42" d="M35.0585 14.839L35.5449 16.2982L34.8025 16.5542" fill="#F5F5F5"/>
</g>
<g id="Group_37">
<path id="a_37" d="M36.5194 15.9003L34.9814 15.8887L34.9673 16.6738" fill="#F5F5F5"/>
<path id="Vector_43" d="M36.5196 15.9004L35.2821 16.8139L34.8093 16.1869" fill="#F5F5F5"/>
</g>
</g>
<g id="Group_38">
<path id="a_38" d="M33.5976 15.9004L34.835 16.8139L35.3079 16.1869" fill="#F5F5F5"/>
<path id="Vector_44" d="M33.5977 15.9003L35.1358 15.8887L35.1499 16.6738" fill="#F5F5F5"/>
</g>
<g id="Group_39">
<g id="b_16">
<path id="a_39" d="M35.962 17.6176L35.4978 16.1512L34.7467 16.3805" fill="#F5F5F5"/>
<path id="Vector_45" d="M35.9619 17.6176L34.7107 16.723L35.1608 16.0795" fill="#F5F5F5"/>
</g>
<g id="Group_40">
<path id="a_40" d="M34.1553 17.6176L35.4065 16.723L34.9564 16.0795" fill="#F5F5F5"/>
<path id="Vector_46" d="M34.1552 17.6176L34.6194 16.1512L35.3705 16.3805" fill="#F5F5F5"/>
</g>
</g>
</g>
<g id="Group_41">
<g id="c_9">
<g id="b_17">
<path id="a_41" d="M35.0587 14.839L34.5723 16.2982L35.3147 16.5542" fill="#F5F5F5"/>
<path id="Vector_47" d="M35.0585 14.839L35.5449 16.2982L34.8025 16.5542" fill="#F5F5F5"/>
</g>
<g id="Group_42">
<path id="a_42" d="M36.5194 15.9003L34.9814 15.8887L34.9673 16.6738" fill="#F5F5F5"/>
<path id="Vector_48" d="M36.5196 15.9004L35.2821 16.8139L34.8093 16.1869" fill="#F5F5F5"/>
</g>
</g>
<g id="Group_43">
<path id="a_43" d="M33.5976 15.9004L34.835 16.8139L35.3079 16.1869" fill="#F5F5F5"/>
<path id="Vector_49" d="M33.5977 15.9003L35.1358 15.8887L35.1499 16.6738" fill="#F5F5F5"/>
</g>
<g id="Group_44">
<g id="b_18">
<path id="a_44" d="M35.962 17.6176L35.4978 16.1512L34.7467 16.3805" fill="#F5F5F5"/>
<path id="Vector_50" d="M35.9619 17.6176L34.7107 16.723L35.1608 16.0795" fill="#F5F5F5"/>
</g>
<g id="Group_45">
<path id="a_45" d="M34.1553 17.6176L35.4065 16.723L34.9564 16.0795" fill="#F5F5F5"/>
<path id="Vector_51" d="M34.1552 17.6176L34.6194 16.1512L35.3705 16.3805" fill="#F5F5F5"/>
</g>
</g>
</g>
</g>
<g id="Group_46">
<g id="c_10">
<g id="b_19">
<path id="a_46" d="M35.0587 14.839L34.5723 16.2982L35.3147 16.5542" fill="#F5F5F5"/>
<path id="Vector_52" d="M35.0585 14.839L35.5449 16.2982L34.8025 16.5542" fill="#F5F5F5"/>
</g>
<g id="Group_47">
<path id="a_47" d="M36.5194 15.9003L34.9814 15.8887L34.9673 16.6738" fill="#F5F5F5"/>
<path id="Vector_53" d="M36.5196 15.9004L35.2821 16.8139L34.8093 16.1869" fill="#F5F5F5"/>
</g>
</g>
<g id="Group_48">
<path id="a_48" d="M33.5976 15.9004L34.835 16.8139L35.3079 16.1869" fill="#F5F5F5"/>
<path id="Vector_54" d="M33.5977 15.9003L35.1358 15.8887L35.1499 16.6738" fill="#F5F5F5"/>
</g>
<g id="Group_49">
<g id="b_20">
<path id="a_49" d="M35.962 17.6176L35.4978 16.1512L34.7467 16.3805" fill="#F5F5F5"/>
<path id="Vector_55" d="M35.9619 17.6176L34.7107 16.723L35.1608 16.0795" fill="#F5F5F5"/>
</g>
<g id="Group_50">
<path id="a_50" d="M34.1553 17.6176L35.4065 16.723L34.9564 16.0795" fill="#F5F5F5"/>
<path id="Vector_56" d="M34.1552 17.6176L34.6194 16.1512L35.3705 16.3805" fill="#F5F5F5"/>
</g>
</g>
</g>
<g id="Group_51">
<g id="c_11">
<g id="b_21">
<path id="a_51" d="M35.0587 14.839L34.5723 16.2982L35.3147 16.5542" fill="#F5F5F5"/>
<path id="Vector_57" d="M35.0585 14.839L35.5449 16.2982L34.8025 16.5542" fill="#F5F5F5"/>
</g>
<g id="Group_52">
<path id="a_52" d="M36.5194 15.9003L34.9814 15.8887L34.9673 16.6738" fill="#F5F5F5"/>
<path id="Vector_58" d="M36.5196 15.9004L35.2821 16.8139L34.8093 16.1869" fill="#F5F5F5"/>
</g>
</g>
<g id="Group_53">
<path id="a_53" d="M33.5976 15.9004L34.835 16.8139L35.3079 16.1869" fill="#F5F5F5"/>
<path id="Vector_59" d="M33.5977 15.9003L35.1358 15.8887L35.1499 16.6738" fill="#F5F5F5"/>
</g>
<g id="Group_54">
<g id="b_22">
<path id="a_54" d="M35.962 17.6176L35.4978 16.1512L34.7467 16.3805" fill="#F5F5F5"/>
<path id="Vector_60" d="M35.9619 17.6176L34.7107 16.723L35.1608 16.0795" fill="#F5F5F5"/>
</g>
<g id="Group_55">
<path id="a_55" d="M34.1553 17.6176L35.4065 16.723L34.9564 16.0795" fill="#F5F5F5"/>
<path id="Vector_61" d="M34.1552 17.6176L34.6194 16.1512L35.3705 16.3805" fill="#F5F5F5"/>
</g>
</g>
</g>
<g id="Group_56">
<g id="c_12">
<g id="b_23">
<path id="a_56" d="M35.0587 14.839L34.5723 16.2982L35.3147 16.5542" fill="#F5F5F5"/>
<path id="Vector_62" d="M35.0585 14.839L35.5449 16.2982L34.8025 16.5542" fill="#F5F5F5"/>
</g>
<g id="Group_57">
<path id="a_57" d="M36.5194 15.9003L34.9814 15.8887L34.9673 16.6738" fill="#F5F5F5"/>
<path id="Vector_63" d="M36.5196 15.9004L35.2821 16.8139L34.8093 16.1869" fill="#F5F5F5"/>
</g>
</g>
<g id="Group_58">
<path id="a_58" d="M33.5976 15.9004L34.835 16.8139L35.3079 16.1869" fill="#F5F5F5"/>
<path id="Vector_64" d="M33.5977 15.9003L35.1358 15.8887L35.1499 16.6738" fill="#F5F5F5"/>
</g>
<g id="Group_59">
<g id="b_24">
<path id="a_59" d="M35.962 17.6176L35.4978 16.1512L34.7467 16.3805" fill="#F5F5F5"/>
<path id="Vector_65" d="M35.9619 17.6176L34.7107 16.723L35.1608 16.0795" fill="#F5F5F5"/>
</g>
<g id="Group_60">
<path id="a_60" d="M34.1553 17.6176L35.4065 16.723L34.9564 16.0795" fill="#F5F5F5"/>
<path id="Vector_66" d="M34.1552 17.6176L34.6194 16.1512L35.3705 16.3805" fill="#F5F5F5"/>
</g>
</g>
</g>
</g>
</g>
</g>
<defs>
<clipPath id="clip0_2909_185264">
<path d="M0.246094 32C0.246094 14.3269 14.573 0 32.2461 0V0C49.9192 0 64.2461 14.3269 64.2461 32V32C64.2461 49.6731 49.9192 64 32.2461 64V64C14.573 64 0.246094 49.6731 0.246094 32V32Z" fill="white"/>
</clipPath>
</defs>
</svg>
