<svg width="65" height="64" viewBox="0 0 65 64" fill="none" xmlns="http://www.w3.org/2000/svg">
<g id="Rounded=Venezuela (Bolivarian Republic of) (VE)">
<g clip-path="url(#clip0_2909_185471)">
<path id="Vector" d="M0.246094 0H64.2461V64H0.246094V0Z" fill="#CF142B"/>
<path id="Vector_2" d="M0.246094 0H64.2461V42.6625H0.246094V0Z" fill="#00247D"/>
<path id="Vector_3" d="M0.246094 0H64.2461V21.3375H0.246094V0Z" fill="#FFCC00"/>
<g id="f">
<g id="e">
<g id="Group">
<g id="c">
<g id="b">
<path id="a" d="M36.0805 23.2739L34.8486 25.6552L36.2354 26.3869L36.0805 23.2739Z" fill="#F5F5F5"/>
<path id="Vector_4" d="M36.0796 23.2739L36.4228 25.9329L34.8694 26.1462L36.0796 23.2739Z" fill="#F5F5F5"/>
</g>
<g id="Group_2">
<path id="a_2" d="M38.2578 25.5281L35.6124 25.0923L35.345 26.6373L38.2578 25.5281Z" fill="#F5F5F5"/>
<path id="Vector_5" d="M38.2578 25.5281L35.835 26.6761L35.1522 25.2647L38.2578 25.5281Z" fill="#F5F5F5"/>
</g>
</g>
<g id="Group_3">
<path id="a_3" d="M33.2641 24.6476L35.1481 26.5551L36.2726 25.4623L33.2641 24.6476Z" fill="#F5F5F5"/>
<path id="Vector_6" d="M33.2632 24.6476L35.8981 25.1429L35.621 26.6862L33.2632 24.6476Z" fill="#F5F5F5"/>
</g>
<g id="Group_4">
<g id="b_2">
<path id="a_4" d="M36.7852 28.2949L36.3821 25.6444L34.8301 25.8675L36.7852 28.2949Z" fill="#F5F5F5"/>
<path id="Vector_7" d="M36.7852 28.2949L34.9446 26.3455L36.076 25.2598L36.7852 28.2949Z" fill="#F5F5F5"/>
</g>
<g id="Group_5">
<path id="a_5" d="M33.6984 27.7508L36.0947 26.5484L35.4029 25.1413L33.6984 27.7508Z" fill="#F5F5F5"/>
<path id="Vector_8" d="M33.6981 27.7508L34.9834 25.3979L36.3655 26.1384L33.6981 27.7508Z" fill="#F5F5F5"/>
</g>
</g>
</g>
<g id="Group_6">
<g id="c_2">
<g id="b_3">
<path id="a_6" d="M43.214 25.8703L41.242 27.6866L42.2948 28.8485L43.214 25.8703Z" fill="#F5F5F5"/>
<path id="Vector_9" d="M43.2137 25.8703L42.6267 28.4863L41.0941 28.1555L43.2137 25.8703Z" fill="#F5F5F5"/>
</g>
<g id="Group_7">
<path id="a_7" d="M44.488 28.733L42.1512 27.4188L41.3715 28.7791L44.488 28.733Z" fill="#F5F5F5"/>
<path id="Vector_10" d="M44.4885 28.733L41.8192 28.9832L41.6602 27.4233L44.4885 28.733Z" fill="#F5F5F5"/>
</g>
</g>
<g id="Group_8">
<path id="a_8" d="M40.0982 26.1978L41.2162 28.6346L42.6466 27.9924L40.0982 26.1978Z" fill="#F5F5F5"/>
<path id="Vector_11" d="M40.0991 26.1978L42.4057 27.5645L41.6174 28.9199L40.0991 26.1978Z" fill="#F5F5F5"/>
</g>
<g id="Group_9">
<g id="b_4">
<path id="a_9" d="M42.1598 30.8298L42.6876 28.2012L41.1529 27.8801L42.1598 30.8298Z" fill="#F5F5F5"/>
<path id="Vector_12" d="M42.1605 30.8298L41.0977 28.3684L42.5322 27.7352L42.1605 30.8298Z" fill="#F5F5F5"/>
</g>
<g id="Group_10">
<path id="a_10" d="M39.4462 29.263L42.1092 28.9527L41.9404 27.3938L39.4462 29.263Z" fill="#F5F5F5"/>
<path id="Vector_13" d="M39.4464 29.263L41.4589 27.4916L42.5043 28.6601L39.4464 29.263Z" fill="#F5F5F5"/>
</g>
</g>
</g>
</g>
<g id="Group_11">
<g id="Group_12">
<g id="c_3">
<g id="b_5">
<path id="a_11" d="M49.0277 30.7499L46.5534 31.7822L47.1453 33.2341L49.0277 30.7499Z" fill="#F5F5F5"/>
<path id="Vector_14" d="M49.027 30.7499L47.5807 33.0074L46.2536 32.1723L49.027 30.7499Z" fill="#F5F5F5"/>
</g>
<g id="Group_13">
<path id="a_12" d="M49.2462 33.8759L47.4998 31.8416L46.3018 32.8533L49.2462 33.8759Z" fill="#F5F5F5"/>
<path id="Vector_15" d="M49.246 33.8759L46.6521 33.198L47.0362 31.6778L49.246 33.8759Z" fill="#F5F5F5"/>
</g>
</g>
<g id="Group_14">
<path id="a_13" d="M45.9876 29.9918L46.2047 32.664L47.7685 32.5497L45.9876 29.9918Z" fill="#F5F5F5"/>
<path id="Vector_16" d="M45.9871 29.9918L47.6871 32.0649L46.4828 33.069L45.9871 29.9918Z" fill="#F5F5F5"/>
</g>
<g id="Group_15">
<g id="b_6">
<path id="a_14" d="M46.3413 35.0498L47.7363 32.7602L46.4039 31.9335L46.3413 35.0498Z" fill="#F5F5F5"/>
<path id="Vector_17" d="M46.3404 35.0498L46.1835 32.3733L47.748 32.2689L46.3404 35.0498Z" fill="#F5F5F5"/>
</g>
<g id="Group_16">
<path id="a_15" d="M44.327 32.6493L46.9356 33.2685L47.3101 31.7459L44.327 32.6493Z" fill="#F5F5F5"/>
<path id="Vector_18" d="M44.3273 32.6492L46.8243 31.673L47.407 33.1286L44.3273 32.6492Z" fill="#F5F5F5"/>
</g>
</g>
</g>
<g id="Group_17">
<g id="c_4">
<g id="b_7">
<path id="a_16" d="M52.8243 37.3241L50.1461 37.4479L50.2058 39.0147L52.8243 37.3241Z" fill="#F5F5F5"/>
<path id="Vector_19" d="M52.8241 37.3241L50.693 38.9508L49.7316 37.7122L52.8241 37.3241Z" fill="#F5F5F5"/>
</g>
<g id="Group_18">
<path id="a_17" d="M51.9597 40.3363L51.0144 37.8275L49.5427 38.3684L51.9597 40.3363Z" fill="#F5F5F5"/>
<path id="Vector_20" d="M51.9602 40.3363L49.7546 38.8122L50.6355 37.515L51.9602 40.3363Z" fill="#F5F5F5"/>
</g>
</g>
<g id="Group_19">
<path id="a_18" d="M50.2269 35.5718L49.517 38.1571L51.0256 38.5845L50.2269 35.5718Z" fill="#F5F5F5"/>
<path id="Vector_21" d="M50.2262 35.5718L51.1147 38.1013L49.6396 38.6329L50.2262 35.5718Z" fill="#F5F5F5"/>
</g>
<g id="Group_20">
<g id="b_8">
<path id="a_19" d="M48.8292 40.4457L50.9232 38.7713L49.9539 37.5388L48.8292 40.4457Z" fill="#F5F5F5"/>
<path id="Vector_22" d="M48.829 40.4457L49.597 37.877L51.1028 38.314L48.829 40.4457Z" fill="#F5F5F5"/>
</g>
<g id="Group_21">
<path id="a_20" d="M47.7575 37.501L49.997 38.9751L50.8697 37.6724L47.7575 37.501Z" fill="#F5F5F5"/>
<path id="Vector_23" d="M47.7581 37.501L50.4384 37.4377L50.4882 39.0049L47.7581 37.501Z" fill="#F5F5F5"/>
</g>
</g>
</g>
</g>
</g>
<g id="Group_22">
<g id="e_2">
<g id="Group_23">
<g id="c_5">
<g id="b_9">
<path id="a_21" d="M11.7442 37.3241L13.8754 38.9508L14.8368 37.7121L11.7442 37.3241Z" fill="#F5F5F5"/>
<path id="Vector_24" d="M11.7441 37.3241L14.4223 37.4478L14.3626 39.0147L11.7441 37.3241Z" fill="#F5F5F5"/>
</g>
<g id="Group_24">
<path id="a_22" d="M14.3422 35.5718L13.4537 38.1013L14.9288 38.6329L14.3422 35.5718Z" fill="#F5F5F5"/>
<path id="Vector_25" d="M14.3414 35.5718L15.0513 38.1571L13.5427 38.5845L14.3414 35.5718Z" fill="#F5F5F5"/>
</g>
</g>
<g id="Group_25">
<path id="a_23" d="M12.6081 40.3363L14.8138 38.8122L13.9329 37.515L12.6081 40.3363Z" fill="#F5F5F5"/>
<path id="Vector_26" d="M12.6087 40.3363L13.554 37.8275L15.0257 38.3684L12.6087 40.3363Z" fill="#F5F5F5"/>
</g>
<g id="Group_26">
<g id="b_10">
<path id="a_24" d="M16.8122 37.501L14.1319 37.4377L14.0822 39.0049L16.8122 37.501Z" fill="#F5F5F5"/>
<path id="Vector_27" d="M16.8128 37.501L14.5733 38.9751L13.7007 37.6724L16.8128 37.501Z" fill="#F5F5F5"/>
</g>
<g id="Group_27">
<path id="a_25" d="M15.7413 40.4457L14.9733 37.877L13.4675 38.314L15.7413 40.4457Z" fill="#F5F5F5"/>
<path id="Vector_28" d="M15.7411 40.4457L13.6472 38.7713L14.6164 37.5388L15.7411 40.4457Z" fill="#F5F5F5"/>
</g>
</g>
</g>
<g id="Group_28">
<g id="c_6">
<g id="b_11">
<path id="a_26" d="M15.5394 30.7499L16.9857 33.0074L18.3128 32.1723L15.5394 30.7499Z" fill="#F5F5F5"/>
<path id="Vector_29" d="M15.5387 30.7499L18.013 31.7822L17.4211 33.2341L15.5387 30.7499Z" fill="#F5F5F5"/>
</g>
<g id="Group_29">
<path id="a_27" d="M18.5793 29.9918L16.8793 32.0649L18.0836 33.069L18.5793 29.9918Z" fill="#F5F5F5"/>
<path id="Vector_30" d="M18.5789 29.9918L18.3617 32.664L16.7979 32.5497L18.5789 29.9918Z" fill="#F5F5F5"/>
</g>
</g>
<g id="Group_30">
<path id="a_28" d="M15.3223 33.8759L17.9162 33.198L17.5321 31.6778L15.3223 33.8759Z" fill="#F5F5F5"/>
<path id="Vector_31" d="M15.3222 33.8759L17.0686 31.8416L18.2665 32.8533L15.3222 33.8759Z" fill="#F5F5F5"/>
</g>
<g id="Group_31">
<g id="b_12">
<path id="a_29" d="M20.2411 32.6492L17.7441 31.673L17.1613 33.1286L20.2411 32.6492Z" fill="#F5F5F5"/>
<path id="Vector_32" d="M20.2413 32.6493L17.6328 33.2685L17.2583 31.7459L20.2413 32.6493Z" fill="#F5F5F5"/>
</g>
<g id="Group_32">
<path id="a_30" d="M18.226 35.0497L18.3829 32.3733L16.8184 32.2688L18.226 35.0497Z" fill="#F5F5F5"/>
<path id="Vector_33" d="M18.2252 35.0497L16.8301 32.7602L18.1625 31.9335L18.2252 35.0497Z" fill="#F5F5F5"/>
</g>
</g>
</g>
</g>
<g id="Group_33">
<g id="Group_34">
<g id="c_7">
<g id="b_13">
<path id="a_31" d="M21.3547 25.8703L21.9416 28.4863L23.4743 28.1555L21.3547 25.8703Z" fill="#F5F5F5"/>
<path id="Vector_34" d="M21.3543 25.8703L23.3264 27.6866L22.2735 28.8485L21.3543 25.8703Z" fill="#F5F5F5"/>
</g>
<g id="Group_35">
<path id="a_32" d="M24.4712 26.1978L22.1646 27.5645L22.9529 28.9199L24.4712 26.1978Z" fill="#F5F5F5"/>
<path id="Vector_35" d="M24.4721 26.1978L23.3541 28.6346L21.9237 27.9924L24.4721 26.1978Z" fill="#F5F5F5"/>
</g>
</g>
<g id="Group_36">
<path id="a_33" d="M20.0798 28.733L22.7492 28.9832L22.9081 27.4233L20.0798 28.733Z" fill="#F5F5F5"/>
<path id="Vector_36" d="M20.0803 28.733L22.4171 27.4188L23.1968 28.7791L20.0803 28.733Z" fill="#F5F5F5"/>
</g>
<g id="Group_37">
<g id="b_14">
<path id="a_34" d="M25.122 29.263L23.1095 27.4916L22.064 28.6602L25.122 29.263Z" fill="#F5F5F5"/>
<path id="Vector_37" d="M25.1221 29.263L22.4591 28.9527L22.6279 27.3939L25.1221 29.263Z" fill="#F5F5F5"/>
</g>
<g id="Group_38">
<path id="a_35" d="M22.4078 30.8298L23.4706 28.3684L22.0362 27.7352L22.4078 30.8298Z" fill="#F5F5F5"/>
<path id="Vector_38" d="M22.4086 30.8298L21.8808 28.2013L23.4155 27.8801L22.4086 30.8298Z" fill="#F5F5F5"/>
</g>
</g>
</g>
<g id="Group_39">
<g id="c_8">
<g id="b_15">
<path id="a_36" d="M28.4887 23.2739L28.1455 25.9329L29.6989 26.1462L28.4887 23.2739Z" fill="#F5F5F5"/>
<path id="Vector_39" d="M28.4879 23.2739L29.7198 25.6552L28.333 26.3869L28.4879 23.2739Z" fill="#F5F5F5"/>
</g>
<g id="Group_40">
<path id="a_37" d="M31.3051 24.6476L28.6702 25.1429L28.9474 26.6862L31.3051 24.6476Z" fill="#F5F5F5"/>
<path id="Vector_40" d="M31.3043 24.6476L29.4202 26.5551L28.2958 25.4623L31.3043 24.6476Z" fill="#F5F5F5"/>
</g>
</g>
<g id="Group_41">
<path id="a_38" d="M26.3105 25.5281L28.7333 26.6762L29.4162 25.2647L26.3105 25.5281Z" fill="#F5F5F5"/>
<path id="Vector_41" d="M26.3106 25.5281L28.956 25.0924L29.2234 26.6373L26.3106 25.5281Z" fill="#F5F5F5"/>
</g>
<g id="Group_42">
<g id="b_16">
<path id="a_39" d="M30.8683 27.7508L29.583 25.3979L28.2009 26.1384L30.8683 27.7508Z" fill="#F5F5F5"/>
<path id="Vector_42" d="M30.868 27.7507L28.4717 26.5484L29.1635 25.1413L30.868 27.7507Z" fill="#F5F5F5"/>
</g>
<g id="Group_43">
<path id="a_40" d="M27.7832 28.2949L29.6237 26.3455L28.4924 25.2598L27.7832 28.2949Z" fill="#F5F5F5"/>
<path id="Vector_43" d="M27.7832 28.2949L28.1862 25.6444L29.7383 25.8675L27.7832 28.2949Z" fill="#F5F5F5"/>
</g>
</g>
</g>
</g>
</g>
</g>
</g>
<defs>
<clipPath id="clip0_2909_185471">
<path d="M0.246094 32C0.246094 14.3269 14.573 0 32.2461 0V0C49.9192 0 64.2461 14.3269 64.2461 32V32C64.2461 49.6731 49.9192 64 32.2461 64V64C14.573 64 0.246094 49.6731 0.246094 32V32Z" fill="white"/>
</clipPath>
</defs>
</svg>
