<svg width="65" height="64" viewBox="0 0 65 64" fill="none" xmlns="http://www.w3.org/2000/svg">
<g id="Rounded=Vietnam (VN)">
<g clip-path="url(#clip0_2909_185517)">
<g id="Group">
<path id="Vector" fill-rule="evenodd" clip-rule="evenodd" d="M-15.7539 0H80.247V64.0036H-15.7539V0Z" fill="#EC0015"/>
<path id="Vector_2" fill-rule="evenodd" clip-rule="evenodd" d="M43.942 47.6392L32.7434 39.2764L21.608 47.7205L25.7533 33.9932L14.627 25.522L28.3904 25.4046L32.6531 11.7224L37.0151 25.3775L50.7785 25.3955L39.7154 33.948L43.942 47.6392Z" fill="#FFFF00"/>
</g>
</g>
</g>
<defs>
<clipPath id="clip0_2909_185517">
<path d="M0.246094 32C0.246094 14.3269 14.573 0 32.2461 0V0C49.9192 0 64.2461 14.3269 64.2461 32V32C64.2461 49.6731 49.9192 64 32.2461 64V64C14.573 64 0.246094 49.6731 0.246094 32V32Z" fill="white"/>
</clipPath>
</defs>
</svg>
