<svg width="65" height="64" viewBox="0 0 65 64" fill="none" xmlns="http://www.w3.org/2000/svg">
<g id="Rounded=Wales (GB-WLS)">
<g clip-path="url(#clip0_2909_185486)">
<path id="Vector" d="M0.246094 32H64.2461V64H0.246094V32Z" fill="#00AB39"/>
<path id="Vector_2" d="M0.246094 0H64.2461V32H0.246094V0Z" fill="#F5F5F5"/>
<g id="Group">
<path id="Vector_3" d="M42.6834 14.15C38.5027 16.3985 34.5508 19.0485 30.8834 22.0625C29.0959 23.6375 29.5959 24.8875 29.5334 26.2875C29.5834 27.2375 29.3209 28.1125 28.7459 28.6375L24.7459 29.45L24.3709 28.35C24.4959 27.7875 24.9584 27.5 25.9459 27.85C26.0209 27.1375 25.4459 26.85 24.7584 26.5875C24.5084 26.4 24.2334 26.2625 24.2584 25.6375C24.1459 24.2125 26.4334 25.7375 26.4459 25.7375C26.4709 25.7375 26.3709 24.3 25.3209 24.0125C24.7584 23.8125 24.5209 23.2125 24.7334 22.7625C25.1834 21.85 26.0459 22.8375 26.7084 22.875C26.6834 22.275 26.5084 21.85 25.9959 21.375C25.7209 21.2 25.0459 21.075 25.0334 20.7875C25.0209 20.4125 25.6584 20.2375 26.5584 20.35C26.3709 19.8 25.7709 19.45 24.9459 19.2L24.4584 18.35C24.2334 17.925 24.1209 17.9125 24.6584 17.1L26.2584 16.0375L25.7334 15.975C25.7959 15.4 25.8084 15.2 25.9459 14.2375C25.4209 14.9375 24.7834 14.8125 24.1959 15.1125C24.1959 15.1125 22.5459 15.4 22.0209 16.1125L17.8584 15.8875C16.9834 16.0125 16.2334 16.2625 16.0709 17.125C14.0709 17.325 11.9459 17.15 10.4084 19.075C11.4584 19.025 12.3709 18.775 13.5459 18.925C13.5459 18.925 14.5459 18.95 14.7584 20.0125C14.7834 20.05 15.0959 20.05 15.0959 20.05L15.4709 20.35L15.6334 19.9375L15.9709 20.1875L16.0709 19.7375L16.4084 19.9625L16.4334 19.4375L16.8834 19.75V19.05C16.8834 19.05 18.5209 19.05 19.0209 20.1C19.0459 20.1125 14.4209 20.95 9.9459 20.5625L11.2334 19.925C9.6084 19.5875 8.0709 19.3 6.6334 18.1625C7.1834 20.2125 9.9834 22.6125 10.5584 22.6L10.0084 21.6L14.8709 21.8125C15.0459 22.35 14.9709 22.95 15.3959 23.425C15.3959 23.425 15.1334 24.3125 15.7209 24.675C15.7459 24.725 16.4334 22.875 16.4334 22.875C16.4334 22.875 16.6459 23.375 16.8584 23.7C17.1709 22.1125 18.8959 21.85 18.8959 21.85L19.2709 22.7C18.7209 22.7875 18.0459 23.8875 18.4084 24.4875C18.0459 24.4875 17.4084 25.5625 17.6084 26.1375C17.2959 26.4375 16.5459 26.85 16.7334 28.1125C16.1334 28.2375 15.7834 29.3375 15.9709 30.4875C15.0459 31.35 15.2709 32.925 16.0959 33.5625C15.7584 33.875 15.5459 34.1 15.5459 34.475C15.2209 34.35 14.9209 34.4625 14.7834 34.675C14.3834 34.2625 13.8084 33.9 13.4084 34.2875C13.2959 33.8 12.6584 33.275 11.9834 33.3375C12.0209 32.825 11.7584 32.2 11.0209 31.975C11.0209 31.975 10.8834 29.5875 10.1459 28.8125C10.0834 28.375 10.1959 28.0875 10.7959 27.7375C11.3834 27.4125 11.5209 27.1625 11.4709 26.2625C11.7084 25.6625 11.8834 25.05 11.1584 24.6375C11.1709 25.35 10.9584 25.7 10.6584 26.0125C10.3209 25.9625 10.1959 26.3625 9.9709 26.55C9.6334 26.1 10.6584 25.425 9.8959 24.4375C9.8584 24.4 9.3709 23.1625 8.1834 23.1875C8.43639 23.3363 8.64437 23.5508 8.78522 23.8083C8.92608 24.0658 8.99456 24.3567 8.9834 24.65C8.5439 25.6256 8.47719 26.7285 8.7959 27.75C8.2959 27 8.0209 25.6 7.6084 25.35C7.2459 25.2875 7.0709 24.4375 5.6834 24.675C6.2834 24.8375 6.4709 25.3 6.6334 25.7125C6.2584 25.9125 6.4459 26.4125 6.7209 26.75C6.6709 27.575 7.1584 28.05 7.8834 28.35L7.5209 31.675C7.2334 31.6375 6.7834 32.775 6.6084 32.8C6.3334 32.975 5.8334 33.45 6.3959 33.5875C6.2334 34.2 6.0709 34.5625 5.1709 34.6875C5.1709 34.6875 6.1334 35.2625 6.9209 34.2875C7.7709 34.2625 7.4959 33.25 7.9084 32.8C7.9084 32.7875 8.1334 32.6375 8.4834 31.7375C8.6334 32.5375 9.4459 34.9875 11.2959 36.2C12.9209 37.925 14.2459 39.5625 14.2334 41.8625C14.8584 41.275 15.2334 40.35 15.5209 39.4625C16.3959 39.1625 17.6459 39.05 18.7709 39.0875C18.5834 39.5 18.3709 39.8875 18.6459 40.15C17.8584 40.4125 17.6959 40.975 18.0084 41.55C17.1834 42.1 17.1334 42.4625 17.1209 43.3875C15.5959 45.3375 14.6584 45.275 13.1459 44.7625C12.6459 44.475 11.8959 44.0625 11.5334 44.2875C10.8834 43.85 9.9459 43.7875 9.7834 44.775C10.2834 44.3625 10.5709 44.45 10.9584 44.8375C10.8834 45.0375 10.8209 45.225 11.1084 45.3375L10.7334 45.7625C10.0334 45.6625 9.0834 45.6625 8.8459 46.675C9.1959 46.3875 9.9959 46.3 10.6459 46.6L11.0084 46.725L11.0459 47.2125C11.0459 47.2125 10.0959 47.0625 9.8334 48.6125C10.7334 47.6625 11.3709 47.9125 11.3709 47.9125C11.7084 48.4125 12.9834 48.3375 13.8959 47.5125C15.1709 46.7875 15.5459 47.825 16.3709 47.1375C17.0584 46.6375 17.8709 46.975 18.4334 47.575C19.0709 47.8125 19.7459 48.0125 20.2834 47.575C20.2834 47.575 20.9209 47.1625 21.5709 47.825C21.5709 47.075 21.0459 46.675 20.3209 46.6625L20.1084 46.45C19.4334 46.3 18.6709 46.3625 18.0709 46.025C18.3041 44.9595 18.8176 43.9756 19.5584 43.175C20.5334 42.125 21.2584 41.65 22.5084 40.025C22.4584 40.9375 23.1584 41.95 23.5209 42.8875C23.5209 42.8875 24.2709 41.7 24.3709 40.7375C24.3959 40.7375 25.2959 40.2625 25.6834 39.8625C26.5084 40.3625 27.8334 39.4625 28.6959 38.7C29.1941 38.8951 29.7477 38.8951 30.2459 38.7C29.7459 39.7 30.5334 40.6375 31.7834 41.0375C31.8959 41.925 32.7834 42.1125 34.1584 42.1125C34.2084 42.6375 35.0334 42.7125 35.0334 42.7125C34.5084 42.9625 34.2459 43.1875 34.2584 43.7375C33.7334 43.7375 33.3334 43.8625 33.1959 44.475C32.4795 44.4393 31.7656 44.5855 31.1209 44.9C30.3759 44.8102 29.677 44.4913 29.1209 43.9875C28.8584 43.7625 28.7834 43.4375 28.3209 43.3125C28.0209 42.95 27.6709 43.0375 27.5584 43.375C27.2459 43.125 26.0959 43.0125 25.8959 44.1125C26.4334 43.7125 26.9209 43.5625 27.2709 44.05C27.0709 44.3875 27.7084 44.575 28.2584 44.7125C28.6334 44.7375 29.3334 45.0875 29.5459 45.6875C29.2507 45.7684 28.9415 45.7847 28.6395 45.735C28.3374 45.6854 28.0497 45.5711 27.7959 45.4C27.6055 45.2408 27.3687 45.1475 27.1209 45.1339C26.873 45.1204 26.6275 45.1874 26.4209 45.325C25.9459 45.025 24.8584 45.575 24.8209 46.4625C25.2709 46.0375 25.6959 45.8375 26.1084 46.1125C25.9084 46.1625 25.9834 46.175 26.0084 46.3L27.0709 46.9125C26.5459 47.05 26.0584 47.2625 26.2834 48.225C26.2834 48.225 26.7084 47.3875 27.6584 47.7C27.6834 47.675 27.7834 48 28.0584 47.7875C28.4709 47.3125 29.4334 47.1 30.2459 47.025C30.9209 46.9375 31.5834 46.75 32.1584 47.125C32.6709 46.8625 33.2459 46.675 33.8334 47.1C34.5334 47.325 35.0334 48.125 35.9209 47.7625C36.3584 47.4625 36.8959 47.4375 37.4459 48.0625C37.4459 47.2875 36.8709 47.025 36.0459 46.85L35.4709 46.5125C34.9459 46.425 34.4084 46.525 33.8709 46.275C35.1345 45.9731 36.3251 45.4217 37.3726 44.6533C38.4202 43.8848 39.3036 42.9147 39.9709 41.8L41.2834 42.2625C41.5959 42.2875 41.6209 42.3875 42.2584 42.5875C42.2834 41.6375 41.8834 40.6625 40.1834 40.575L37.9459 39.725C37.4834 39.225 37.2584 38.1625 37.8709 37.5375C38.4584 37.0125 38.5584 37.075 38.9459 36.4375C39.4209 36.3875 39.8709 36.875 40.3084 36.875C40.5209 37.5 41.7084 38.0375 42.4709 37.85C42.9459 38.275 43.8459 38.5125 44.8459 38.175C45.4084 38.675 46.1459 38.875 47.0084 38.4875C47.2459 38.7125 47.7209 38.9 48.2834 38.7875C48.3334 38.7875 48.5709 39.4 49.1834 39.6125C48.9084 39.8625 49.0709 40.9875 49.3459 41.4C49.1584 41.825 49.0959 42.275 49.2584 42.7375C48.6459 43.125 48.5209 43.425 48.7959 44.0875C47.9959 45.3875 47.0334 45.525 46.1209 45.125L45.1459 44.5125L44.1084 43.5C43.9334 43.325 43.5709 43.275 43.4834 43.65C43.4834 43.65 42.1584 43.35 42.0459 44.475C42.5959 43.9375 43.3834 44.4125 43.3834 44.425C43.3834 44.45 43.1959 44.575 43.3459 44.8C43.3709 44.7625 44.3209 45.15 45.1584 45.5C44.7907 45.3349 44.3976 45.2335 43.9959 45.2C43.5209 45.15 43.0209 45.0875 42.7959 45.45C42.2834 45.6625 41.4834 45.8375 41.5209 46.7875C41.8584 46.225 42.3334 46.25 42.9334 46.2875C42.9334 46.3375 42.9084 46.3875 42.8959 46.425C43.5459 46.725 43.4334 46.3375 44.0334 46.2875C44.5459 46.2375 45.2834 46.425 45.6584 46.55C45.1709 46.6875 44.5209 46.6375 44.2084 46.975C44.1584 47.1 43.9584 47.0375 44.0459 47.3125C44.0459 47.3125 43.1084 47.2875 42.8584 48.5875C43.8084 47.975 44.5334 48 44.5459 48L44.8459 48.0625C44.8459 48.0625 45.9959 47.2875 46.0209 47.2875C46.0334 47.2875 47.1209 46.8125 47.6334 47.3625C48.0584 47.575 48.5334 47.5875 48.9834 47.3125C49.8834 46.9375 50.7084 46.9 51.5334 47.4375L52.2834 47.8875L52.5959 47.675C52.5959 47.675 53.4334 47.4375 54.0459 48.175C53.7959 46.8875 52.8709 46.85 52.8709 46.85L52.6584 46.6625L51.3459 46.15C51.1459 45.675 50.6709 45.3 51.1459 44.725C51.6459 42.2875 52.2209 40.475 51.2709 38C52.1584 38.375 52.8209 39.5625 53.9334 39.15C53.9334 38.15 50.2834 36.275 47.4959 34.775C52.0584 34.525 57.5459 31.1625 55.4334 26.8875L56.4334 23.7875C56.9251 24.7015 57.7343 25.404 58.7084 25.7625C58.0084 24.4125 57.5959 20.3125 58.0084 17.4875C56.1415 19.7262 54.1288 21.8391 51.9834 23.8125C53.0334 24.0625 53.9709 23.8875 54.9834 23.7625L54.1334 25.55C51.3209 23.9 48.0334 25.1375 48.0084 27.325C48.1084 29.8875 51.2584 30.25 53.0834 29.3625C52.7209 31.6875 47.3709 30.825 47.3709 30.825C45.4709 30.175 43.6584 30.2875 41.6709 30.3C42.0834 29.025 44.3834 27.8875 46.1459 28.3875C43.6834 25.6375 46.4959 22.2125 49.8709 21.15C46.1834 19.9375 49.3709 17.125 52.1209 15.1125C52.1209 15.1125 44.1834 18.45 43.4584 18.4375C41.2084 18.275 41.8209 15.6 42.6709 14.1625L42.6834 14.15ZM17.7459 17.375C17.9334 17.375 18.1459 17.4 18.3209 17.4375C18.6834 17.525 19.1209 17.575 19.1084 17.6875C18.9459 17.9625 18.5334 18.3 18.1334 18.275C17.7334 18.2625 17.5084 18.025 17.3709 17.4125C17.4084 17.3875 17.5584 17.375 17.7459 17.375V17.375ZM51.1834 26.8C51.6959 26.8 52.3209 27.0125 52.9334 27.6625C52.6334 28.5 50.0959 28.9375 49.9334 27.6875C49.8834 27.3125 50.4209 26.8125 51.1834 26.8125V26.8Z" fill="#D21034" stroke="black" stroke-width="0.15"/>
<path id="Vector_4" d="M20.3711 24.7375L20.7461 25.3L20.3711 24.7375ZM20.7461 25.3125C20.7461 25.3125 20.7461 26.0625 20.8961 26.0875L20.7461 25.3125ZM20.5461 26.4875L20.9461 27.15L20.5461 26.4875ZM19.8461 27.325L20.3461 27.875L19.8461 27.325ZM20.7461 27.45C20.7461 27.475 21.1961 28.3125 21.2336 28.3125L20.7461 27.45ZM20.1586 28.025C20.1586 28.025 20.3211 29.05 20.4586 29.0125L20.1586 28.025ZM19.4961 29.8875L19.9461 30.575L19.4961 29.8875ZM20.3336 29.175C20.3336 29.175 20.5836 30.1375 20.7711 30.05L20.3336 29.175ZM20.9711 28.5875C20.9836 28.6125 21.4211 29.2375 21.5461 29.15L20.9711 28.5875ZM21.4461 29.4L21.8586 30.2375L21.4461 29.4ZM20.7336 30.05C20.7586 30.075 21.0836 31.05 21.0836 31.05L20.7336 30.05ZM19.9336 30.55C19.9336 30.55 20.2461 31.625 20.5336 31.45L19.9336 30.55ZM19.8086 31.975C19.8086 31.975 19.8336 32.5375 20.1086 32.5625L19.8086 31.975ZM20.2961 31.6875C20.2961 31.7125 20.5836 32.1 20.5836 32.1L20.2961 31.6875ZM21.0961 31.025L21.3336 31.4L21.0961 31.025ZM21.8336 30.35L22.1961 30.7875L21.8336 30.35ZM20.2211 25.325C20.2336 25.8 20.9836 25.15 21.2836 24.75L20.2211 25.325ZM19.9086 26.9625C19.9086 26.9625 20.7211 26.3875 21.3586 25.5125L19.9086 26.9625ZM19.6211 28.35C20.1961 28.1875 21.2586 26.9 21.4711 26.225L19.6211 28.35ZM19.5086 29.625C19.6711 29.7 21.6586 28.2625 21.7086 27.2125L19.5086 29.625ZM19.4586 30.725C19.4586 30.7125 21.2711 30.2625 22.0336 28.2625L19.4586 30.725ZM19.3586 32.25C19.3586 32.25 22.2586 30.5125 22.4211 29.2375L19.3586 32.25ZM41.9961 35.1625C41.9961 35.1625 41.8086 36.6625 40.3086 36.8875L41.9961 35.1625ZM42.4711 37.8375C42.4961 37.825 43.9086 36.2625 43.5461 35.7875L42.4711 37.8375ZM45.7711 36.3375C45.7711 36.3375 45.7461 37.425 44.8586 38.175L45.7711 36.3375ZM47.5336 36.65C47.5336 36.65 47.5711 37.9625 47.0086 38.4875L47.5336 36.65ZM49.1586 37.4375C49.1586 37.4375 48.5336 38.6625 48.3086 38.7875L49.1586 37.4375ZM49.1336 39.6125C49.1336 39.6125 49.9586 39.825 50.2211 39.275L49.1336 39.6125ZM49.3461 41.4C49.3461 41.4 50.1211 41.5375 50.4711 40.8L49.3461 41.4ZM49.2711 42.775C49.2711 42.775 49.8961 43.3 50.3086 42.6125L49.2711 42.775ZM40.3961 32.6625C40.3961 32.6625 40.3211 35.325 44.0711 35.8625C48.2586 37.025 50.2336 36.4125 50.4836 41.1C50.3211 42.8875 50.1086 44.9 48.8086 44.1375L40.3961 32.6625ZM36.4211 35.1125C36.4211 35.1125 37.0086 36.175 37.7336 36.1125C38.6711 35.825 39.0211 36.4125 39.0211 36.4125L36.4211 35.1125ZM33.8586 36.175C33.8586 36.175 35.4336 36.95 36.7836 35.7L33.8586 36.175ZM34.0336 35.075C34.1711 36.9125 31.9086 37.9625 31.0211 37.7875L34.0336 35.075ZM34.1461 42.125C34.1586 42.125 35.3711 41.4 35.1211 40.8875L34.1461 42.125ZM31.7461 41.05C31.7711 41.0125 33.7711 40.825 34.1336 40.1L31.7461 41.05ZM30.8086 38.1C30.8086 38.0875 33.6461 38.1125 33.8336 38.6375L30.8086 38.1ZM34.5836 36.425C34.5836 36.425 31.8086 41.15 36.9211 41.15L34.5836 36.425ZM31.6461 36.35C31.6461 36.35 31.0586 38.125 30.2086 38.725L31.6461 36.35ZM28.7086 35.7375C28.7086 35.7375 29.7336 37.7375 28.7086 38.7125V35.7375ZM26.0336 36.3C26.0461 36.3375 26.3586 39.125 25.6586 39.9125L26.0336 36.3ZM24.6961 36.3875C24.6961 36.3875 24.8086 38.1625 24.2836 38.7875C23.7586 39.4125 24.4086 40.725 24.4086 40.725L24.6961 36.3875ZM18.0211 41.575C18.0211 41.575 18.3961 42.2375 18.9211 42.0125L18.0211 41.575ZM18.6586 40.1375C18.6586 40.1375 19.4961 40.5125 19.7836 40.3625L18.6586 40.1375ZM19.5711 37.1625C19.5711 37.1625 18.3211 37.5125 18.7961 38.975C19.5086 39.5625 20.2211 39.475 20.2211 39.475L19.5711 37.1625ZM17.1211 43.4125C17.0961 43.4125 17.2461 44.5625 18.0586 43.6875C18.6211 42.5125 20.3961 39.2125 20.7961 38.0625L17.1211 43.4125ZM21.6211 37.525C21.6211 37.525 20.7586 36.8625 20.7961 37.7875C20.7711 38.3625 21.0461 38.5125 21.0461 38.5125C21.0961 38.925 21.4586 39.5125 21.7586 38.975C21.8836 38.4625 21.6711 38.225 21.6711 38.225L21.6211 37.525ZM22.1711 37.2875C21.3836 37.225 20.9711 38.925 22.4586 37.8625L22.1711 37.2875ZM22.9586 36.7C22.9586 36.7 22.7711 36.9625 22.4711 36.6875C22.3211 36.4125 21.7586 37.9375 22.7336 38C22.9086 37.55 23.4586 37.425 23.4586 37.425L22.9586 36.7ZM23.9086 35.975C23.9086 35.975 23.4711 36.175 23.3211 36.15C22.7961 36.275 22.8961 37.4875 23.5711 37.425C23.7836 37.1625 24.0336 36.8 24.0336 36.8L23.9086 35.975ZM19.7836 34.3625C19.7586 34.3625 18.0336 37.075 20.7461 37.7875L19.7836 34.3625ZM41.6211 30.2875C41.6211 30.2875 40.5711 31.1875 41.5461 32.625C38.2961 32.575 36.5461 34.075 36.3961 35.0875C32.2461 34.8 32.9961 36.025 31.6461 36.425C29.8461 34.925 27.1961 35.7625 27.3711 37.2625C26.1711 35.5625 24.3086 36.3875 24.0836 36.8125C23.8586 37.225 23.9461 34.725 23.9461 34.725C23.9461 34.725 22.7336 35.2625 21.8961 36.2625V34.1625C20.8961 34.3625 19.9086 34.375 18.8711 34.3625L41.6211 30.2875ZM16.1336 33.5875C16.1336 33.5875 17.6336 34.425 19.5086 33.2875L16.1336 33.5875ZM16.0086 30.55C16.0086 30.55 17.1836 31.6125 19.3836 31.275L16.0086 30.55ZM16.7461 28.125C16.7461 28.125 17.0086 28.9875 19.5336 29.0375L16.7461 28.125ZM17.5961 26.1375C17.5961 26.1375 18.5461 27.3 19.8336 27.1375L17.5961 26.1375ZM18.4086 24.475C18.4086 24.475 18.7836 25.1125 20.1836 25.225L18.4086 24.475ZM19.2336 22.6375C19.2336 22.6375 19.9711 23.45 20.8086 23.3125L19.2336 22.6375ZM23.6086 16.1C23.6086 16.1 23.9336 15.775 24.4836 15.9375L23.6086 16.1ZM23.3711 17.8125C23.3711 17.8125 22.3711 17.775 22.4336 17.375C22.5086 16.925 23.4961 16.6 23.4961 16.6C23.4961 16.6 24.8211 15.75 25.0211 15.4625L23.3711 17.8125ZM19.0461 20.0875L20.3336 22.55L20.9586 21.625L21.2711 22.2625L21.7961 21.3375L22.7086 21.925L22.3586 20.8L23.1211 20.75C23.1211 20.75 22.9211 20.2 22.2336 20.0875C22.4997 19.8973 22.7706 19.7139 23.0461 19.5375C23.0461 19.5375 22.6836 19.1125 22.1211 19.1C22.3086 18.9 22.5586 18.4125 22.5461 18.4125L21.9836 18.2875C21.9836 18.2875 23.2711 18.7 24.2586 18.125L19.0461 20.0875ZM21.7961 16.125C21.8211 16.15 21.7336 16.6375 21.4586 16.925L21.7961 16.125ZM16.8336 17.4875C16.8336 17.4875 17.6336 17.275 18.2336 17.3875C18.8211 17.5125 19.6086 17.725 19.6086 17.725C19.6086 17.725 20.5586 17.6 20.8586 17.375L16.8336 17.4875ZM14.8711 18.0125C14.8711 18.0125 14.7586 18.3875 14.7211 18.6375C14.7211 18.825 14.1461 19.0625 14.1461 19.0625L14.8711 18.0125ZM15.2461 17.25C15.2461 17.25 15.7461 17.875 15.7711 18.25C15.7836 18.6125 15.3961 18.875 15.3961 18.875L15.2461 17.25ZM10.0211 21.575L9.49609 20.725L9.95859 20.5625L10.0211 21.575ZM19.4961 33.3125C19.0711 32.7625 19.8086 24.4375 21.3711 22.25C20.8211 26.175 22.6211 30.1875 23.0836 30.175L19.4961 33.3125ZM14.7586 19.925C14.7586 19.925 15.4586 20.2 16.9336 19.0375L14.7586 19.925ZM18.9336 21.85L19.9836 21.8625L18.9336 21.85ZM51.6586 15.3125C51.6586 15.3125 34.0711 23.5375 33.8211 23.9625C36.7836 23.075 49.3711 20.9625 49.6836 21.15C48.9336 21.3375 33.6586 24.8375 32.9461 25.6875C36.7586 25.5625 44.7461 26.9125 45.9961 28.2125C43.2836 27.6 35.1711 26.4 32.6961 26.9375C34.5086 27.375 41.4711 31.875 41.4711 32.6C40.4211 31.6 32.0461 28.1375 31.7211 28.475C33.6336 29.625 36.3461 33.9 36.3461 34.95C35.7836 34.05 30.9461 28.85 30.6711 29.2C31.1711 29.9 32.1961 36.0375 31.6711 36.325C31.6711 35.575 29.7961 30.2125 29.6461 30.0625C29.2711 30.1625 26.8711 36.6125 27.3461 37.2125C27.0336 35.0625 27.3961 30.575 27.9711 30.75C26.9336 30.9 23.5836 35.3125 23.9461 36C24.0461 34.9125 24.1961 34.175 26.0836 30.525C23.9836 30.65 19.6336 33.3875 18.8961 34.3625C19.4836 32.6125 23.1711 29.675 24.7711 29.475L51.6586 15.3125ZM32.3711 23.0625C34.2336 22.0375 39.9711 19.9375 43.8086 18.3875L32.3711 23.0625ZM28.7461 28.6125C28.7461 28.6125 29.9961 28.6 31.2711 25.1625C32.5211 20.45 42.4211 15.2125 42.6211 14.225L28.7461 28.6125ZM11.9961 33.35C11.9961 33.35 11.6961 33.975 11.3336 34.15L11.9961 33.35ZM13.4086 34.3C13.4086 34.3 13.0086 35.05 12.9211 35.425L13.4086 34.3ZM14.7586 34.675C14.7586 34.675 15.0961 35.7125 14.8211 36.2L14.7586 34.675ZM10.9961 31.9625C9.99609 32.525 11.5586 36.075 16.2836 36.4125L10.9961 31.9625ZM15.5336 34.5C15.5336 34.5 15.3961 35.125 16.2836 36.4C16.0336 37.8125 17.3586 38.9125 17.8836 39.1L15.5336 34.5ZM15.1336 21.775L15.2836 21.4L15.4461 21.8125H15.6961L15.8711 21.3875L16.0211 21.8125H16.2711L16.4336 21.3375L16.6836 21.7875H16.8836L17.0461 21.25L17.3711 21.6375L17.4961 21.5875L17.5961 21.05L17.9211 21.425L18.0211 21.375L18.1711 20.85L18.4461 21.2375L18.5711 21.2L18.6961 20.75L18.9586 21.1625L15.1336 21.775ZM14.8461 21.825L16.8211 21.7875C17.4461 21.7875 18.4836 20.9125 19.6461 21.1875L14.8461 21.825ZM10.6836 26.05C10.6836 26.05 11.0086 26.75 11.4711 26.35L10.6836 26.05ZM9.93359 26.5125C9.93359 26.5125 9.29609 28.225 10.0586 28.6125L9.93359 26.5125ZM9.02109 24.6375C9.02109 24.6375 9.02109 25.0375 9.85859 24.4125L9.02109 24.6375ZM6.43359 33.575C6.43359 33.575 7.10859 33.775 6.99609 34.2875L6.43359 33.575ZM6.68359 25.75C6.68359 25.75 7.10859 25.9625 7.50859 25.3375L6.68359 25.75ZM11.1086 45.3375C11.7586 45.3 11.8961 45.5875 12.4836 45.5875C13.1711 45.6125 13.8336 45.3375 14.7086 45.1L11.1086 45.3375ZM20.2961 46.675C20.2836 46.675 19.9836 47.3 20.2461 47.6L20.2961 46.675ZM11.0086 46.725C11.0086 46.725 12.0461 45.8875 12.5836 46.4125C13.1086 46.5875 13.3961 46.55 13.3961 46.55L11.0086 46.725ZM11.5586 44.3C11.5586 44.3 11.8086 44.9625 10.9586 44.875L11.5586 44.3ZM10.7086 45.8125C10.7086 45.8125 11.2461 46.15 10.6336 46.6L10.7086 45.8125ZM11.0336 47.225C11.0336 47.225 11.7836 47.325 11.3461 47.925L11.0336 47.225ZM34.9961 42.7125C34.9961 42.7125 37.0086 42.925 37.1086 43.075C37.3336 42.825 39.1336 41.375 36.9211 41.1625C36.8183 41.5981 36.5732 41.9871 36.2245 42.2678C35.8759 42.5485 35.4436 42.705 34.9961 42.7125V42.7125ZM34.2836 43.7125C35.0336 44.325 34.7211 44.6875 37.0836 43.0875L34.2836 43.7125ZM33.2086 44.4625C33.2086 44.4625 34.3211 45.6625 35.1211 44.2125L33.2086 44.4625ZM31.0836 44.9L29.5836 45.6875L31.0836 44.9ZM26.8711 46.8C26.8711 46.8 27.7836 46.0125 28.2086 46.425C28.6461 46.85 30.4586 46.075 30.4586 46.075L26.8711 46.8ZM27.5586 43.375C27.5586 43.375 27.8711 44 27.2586 44.075L27.5586 43.375ZM26.3586 45.325C26.3586 45.325 26.6836 45.9125 26.0586 46.075L26.3586 45.325ZM27.0586 46.925C27.0586 46.925 28.0211 46.975 27.6836 47.6875L27.0586 46.925ZM35.9461 46.8C35.9461 46.8 35.4211 47.2375 35.8211 47.7375L35.9461 46.8ZM43.5086 43.6375C43.5086 43.6375 44.1086 43.925 43.3836 44.425L43.5086 43.6375ZM42.7961 45.4625C42.7961 45.4625 43.2461 45.9375 42.9461 46.3375L42.7961 45.4625ZM44.0586 47.2875C44.0586 47.2875 44.6836 47.4625 44.6086 47.975L44.0586 47.2875ZM52.8086 46.825C52.8086 46.825 52.2836 47.2 52.5586 47.7L52.8086 46.825ZM43.5461 31.625C44.7961 31.475 46.5836 34.25 47.4961 34.8L43.5461 31.625ZM52.9711 27.6875C52.9711 27.6875 53.5961 28.2375 53.0461 29.575L52.9711 27.6875ZM54.1461 25.5625C54.3211 25.7 55.0086 26.0625 55.4586 26.9L54.1461 25.5625ZM55.8836 21.4L55.0086 23.775L55.8836 21.4ZM56.8711 21.275C56.8711 21.275 56.6961 23.4 56.4461 23.825L56.8711 21.275ZM52.9461 27.6625C52.6586 28.5125 50.1086 28.9375 49.9461 27.6875C49.8586 27.0625 51.4461 26.0625 52.9461 27.6625Z" stroke="black" stroke-width="0.15" stroke-linejoin="round"/>
<path id="Vector_5" d="M17.7207 17.375L18.7082 17.55C18.7082 17.55 18.0207 18.475 17.7207 17.375Z" fill="black" stroke="black" stroke-width="0.15" stroke-linejoin="round"/>
</g>
</g>
</g>
<defs>
<clipPath id="clip0_2909_185486">
<path d="M0.246094 32C0.246094 14.3269 14.573 0 32.2461 0V0C49.9192 0 64.2461 14.3269 64.2461 32V32C64.2461 49.6731 49.9192 64 32.2461 64V64C14.573 64 0.246094 49.6731 0.246094 32V32Z" fill="white"/>
</clipPath>
</defs>
</svg>
