<svg width="65" height="64" viewBox="0 0 65 64" fill="none" xmlns="http://www.w3.org/2000/svg">
<g id="Rounded=Kosovo (XK)">
<g clip-path="url(#clip0_2909_185257)">
<path id="Vector" d="M0.246094 0H64.2461V64H0.246094V0Z" fill="#244AA5"/>
<path id="Vector_2" d="M25.5332 30.7125L25.6957 30.625L25.8957 30.5625C25.8957 30.5625 25.9957 30.5125 26.0457 30.5125C26.0957 30.5125 26.2082 30.575 26.2332 30.625C26.2707 30.675 26.4457 30.75 26.4457 30.75C26.4457 30.75 26.5707 30.8 26.5832 30.75C26.6082 30.725 26.6582 30.6875 26.7082 30.6875C26.7582 30.6875 26.7832 30.6375 26.7832 30.6C26.7832 30.5625 26.8082 30.5125 26.8457 30.4625C26.8832 30.4125 26.9707 30.3875 26.9707 30.3875C26.9707 30.3875 27.0957 30.3375 27.0957 30.2625C27.0957 30.1875 27.2332 30.1375 27.3082 30.1375C27.3707 30.125 27.3082 30.0875 27.4707 30.1125C27.6457 30.125 27.6707 30.075 27.6832 30.025C27.6832 29.9625 27.6832 29.9125 27.7957 29.925C27.8957 29.9375 27.9582 29.9375 27.9582 29.875C27.9582 29.825 28.0582 29.7875 27.8832 29.75C27.7082 29.6875 27.7207 29.725 27.7082 29.65C27.6957 29.5625 27.7082 29.575 27.5832 29.5625C27.4582 29.5625 27.5332 29.5 27.5207 29.4375C27.5207 29.375 27.4832 29.35 27.4582 29.3125C27.4332 29.2625 27.3707 29.2625 27.3707 29.2125C27.3707 29.15 27.3707 29.1125 27.2957 29.1125C27.2207 29.1125 27.2082 29.1125 27.2082 29.0625C27.2082 29 27.2207 28.95 27.2832 28.95C27.3457 28.95 27.3832 28.9 27.3707 28.8375V28.65L27.4457 28.55L27.7332 28.3C27.7582 28.2625 27.8457 28.225 27.8832 28.3C27.9207 28.3875 27.9457 28.4125 27.9832 28.45C28.0082 28.4875 28.1082 28.45 28.1332 28.425C28.1582 28.375 28.1582 28.2375 28.2207 28.15C28.2832 28.075 28.3207 28.025 28.3332 27.975C28.3457 27.925 28.3707 27.85 28.4457 27.85C28.5207 27.85 28.5582 27.7625 28.5582 27.7125C28.5582 27.6625 28.5832 27.6 28.6832 27.5875C28.7582 27.5875 28.8082 27.525 28.8332 27.6C28.8582 27.6875 28.8832 27.6875 28.9457 27.7125C28.9957 27.7375 29.0707 27.775 29.1207 27.7375C29.1707 27.7 29.1832 27.6375 29.2457 27.675C29.3082 27.7125 29.3582 27.675 29.3707 27.6L29.3957 27.4125C29.3957 27.4125 29.4082 27.3625 29.5207 27.3625C29.6332 27.3625 29.5457 27.3 29.5957 27.2625C29.6582 27.2125 29.6582 27.175 29.7207 27.2C29.7957 27.225 29.9082 27.175 29.8457 27.1125C29.7957 27.0375 29.6707 26.9375 29.7332 26.8625C29.8082 26.7875 29.8332 26.65 29.7707 26.6375C29.6957 26.625 29.5957 26.65 29.5832 26.575C29.5707 26.5 29.5457 26.45 29.6207 26.425C29.7082 26.425 29.8582 26.425 29.8957 26.375C29.9332 26.325 30.0832 26.3125 30.0832 26.2C30.0832 26.075 30.1207 26.075 30.1332 26C30.1457 25.9375 30.1457 25.8 30.0957 25.7375C30.0344 25.6769 29.98 25.6099 29.9332 25.5375C29.9179 25.5077 29.8967 25.4812 29.8709 25.4598C29.8451 25.4383 29.8153 25.4222 29.7832 25.4125C29.6957 25.3875 29.6207 25.375 29.6207 25.3125C29.6207 25.2375 29.6832 25.3125 29.6832 25.15C29.6832 24.9875 29.5582 24.95 29.5582 24.95L29.3957 24.85C29.3957 24.85 29.0957 24.775 29.0207 24.775C28.9457 24.775 28.8457 24.6875 28.9332 24.6375C29.0332 24.575 29.0582 24.4875 29.0207 24.4125C28.9832 24.3375 28.9582 24.2875 28.8332 24.25C28.7082 24.2125 28.6707 24.1875 28.7207 24.1125C28.7832 24.0375 28.7957 23.9875 28.8707 24.0375C28.9332 24.0875 29.0457 24.1125 29.1457 24.0625C29.2332 24.025 29.2707 23.9875 29.3207 24.0375C29.3582 24.075 29.4207 24.125 29.4957 24.0625C29.5582 23.9875 29.6832 23.9875 29.7457 24.0125C29.8082 24.05 29.9457 24.0375 29.9957 24.0125C30.0332 23.9875 30.1207 23.9125 30.1207 23.875C30.1207 23.8375 30.1832 23.75 30.2457 23.725C30.2957 23.6875 30.3707 23.5875 30.4332 23.5875C30.4957 23.5875 30.5082 23.525 30.5082 23.475C30.5082 23.425 30.5582 23.35 30.5707 23.325C30.5707 23.2875 30.6957 23.2375 30.7707 23.3125C30.8582 23.375 30.9582 23.4 30.9582 23.4H31.1332C31.1957 23.375 31.2707 23.35 31.3582 23.4C31.4332 23.4625 31.5582 23.4625 31.5582 23.4625L31.5707 23.3375C31.5707 23.2875 31.5957 23.2125 31.5582 23.1875C31.5082 23.15 31.4457 23.1125 31.5457 23.0375C31.6332 22.975 31.6332 22.9875 31.7207 22.9875L31.9457 23C32.0207 23 32.1332 23.0625 32.1332 23.125C32.1332 23.1875 32.1832 23.2375 32.2332 23.2625C32.2957 23.3 32.3582 23.325 32.3457 23.3875C32.3207 23.4375 32.3207 23.475 32.3832 23.475C32.4582 23.4625 32.4832 23.5 32.4832 23.55C32.4832 23.6 32.4957 23.6375 32.5707 23.6625C32.6457 23.6875 32.6707 23.725 32.6707 23.7875L32.6832 23.9125C32.6957 23.9625 32.7832 24.05 32.7832 24.05C32.7832 24.05 32.9082 24.2 32.7457 24.125C32.5832 24.05 32.5457 24.025 32.4957 24.0375C32.4332 24.0375 32.3957 24.075 32.3957 24.075L32.2707 24.1C32.1957 24.1 32.1457 24.225 32.2332 24.2375C32.3332 24.2625 32.3582 24.275 32.3582 24.3625C32.3582 24.45 32.3332 24.4125 32.2832 24.4625C32.2332 24.5125 32.1957 24.4875 32.1207 24.4875C32.0332 24.4875 32.0207 24.55 32.0207 24.6125C32.0207 24.675 32.0457 24.6625 32.0832 24.7125C32.1207 24.775 32.1832 24.775 32.2332 24.725C32.2957 24.675 32.3457 24.6375 32.3707 24.7375C32.3957 24.8375 32.4582 24.8375 32.5207 24.8375C32.5957 24.8375 32.6207 24.8375 32.6707 24.8C32.7332 24.775 32.7957 24.8 32.8207 24.8875C32.8207 24.975 32.8832 24.9875 32.9457 25.0125C32.9957 25.05 33.0332 25.075 33.0457 25.125C33.0582 25.175 33.0957 25.2 33.1457 25.1625C33.2082 25.1375 33.2957 25.1125 33.3332 25.1625L33.4332 25.2875V25.3875L33.6582 25.4625L33.6832 25.5625C33.6832 25.6125 33.7207 25.625 33.7707 25.6125H33.9332C33.9332 25.6125 34.0207 25.575 34.0207 25.5125C34.0207 25.45 34.0582 25.4375 34.1082 25.4375C34.1707 25.4375 34.2957 25.475 34.3332 25.4125C34.3707 25.35 34.4707 25.325 34.5457 25.3625L34.8457 25.475C34.8457 25.475 34.8207 25.475 34.8832 25.6C34.9582 25.7 35.0832 25.7 35.0832 25.7L35.1207 25.8375C35.1457 25.875 35.2457 25.9 35.3082 25.8625C35.3582 25.8125 35.4332 25.7625 35.5082 25.7625C35.5832 25.7625 35.6332 25.7625 35.6332 25.725C35.6332 25.6875 35.5582 25.65 35.5582 25.575C35.5582 25.5125 35.6332 25.5125 35.6457 25.45C35.6457 25.3875 35.7207 25.45 35.7707 25.4875C35.8082 25.5125 35.8707 25.575 35.8707 25.6125C35.8707 25.65 35.9707 25.8 36.0207 25.825C36.0832 25.85 36.2332 25.8625 36.2707 25.8C36.3207 25.75 36.4332 25.725 36.4332 25.8625C36.4207 25.9875 36.3957 25.9875 36.4707 26.0375C36.5582 26.0875 36.5707 26.2375 36.4957 26.275C36.4332 26.3125 36.4082 26.325 36.4082 26.4C36.4082 26.475 36.3832 26.5625 36.4332 26.6C36.4957 26.65 36.5332 26.675 36.5332 26.725C36.5332 26.775 36.5957 26.9625 36.5957 26.9625C36.5957 26.9625 36.6332 27.15 36.6207 27.1875C36.6082 27.225 36.5957 27.3125 36.6957 27.3C36.7957 27.2875 36.8207 27.2875 36.8207 27.375C36.8207 27.4625 36.8582 27.5 36.7957 27.525C36.7457 27.55 36.7082 27.65 36.7582 27.6875C36.8207 27.7 36.8707 27.7375 36.8832 27.775C36.8832 27.825 36.9832 27.9 37.0457 27.85C37.0957 27.8125 37.1082 27.7875 37.1582 27.775C37.2082 27.775 37.2332 27.7375 37.1957 27.6875C37.1457 27.625 37.1332 27.575 37.1832 27.5375C37.2332 27.5125 37.2457 27.4125 37.2457 27.4125C37.2457 27.4125 37.3207 27.3125 37.3957 27.4125C37.4832 27.5 37.4957 27.4625 37.5457 27.4625C37.6082 27.4625 37.6332 27.525 37.6332 27.575C37.6332 27.625 37.7582 27.6125 37.7582 27.7L37.7707 27.9875C37.7707 27.9875 37.7707 28.1125 37.8457 28.15C37.9082 28.2 37.8957 28.2 37.8582 28.2625C37.8332 28.3125 37.8457 28.3875 37.8457 28.4375C37.8457 28.4875 37.8582 28.5 37.8082 28.55C37.7457 28.5875 37.7207 28.6375 37.7582 28.7C37.7957 28.775 37.7832 28.8125 37.8832 28.8875C37.9707 28.9625 37.9582 29 37.9582 29.05C37.9582 29.1 38.0457 29.175 38.0457 29.225C38.0457 29.2875 38.1207 29.35 38.1707 29.35C38.2207 29.35 38.2957 29.4625 38.2957 29.5125L38.3207 29.7125C38.3207 29.7125 38.3082 29.7375 38.3707 29.7375C38.4457 29.7375 38.4957 29.8125 38.5082 29.7375C38.5332 29.65 38.6082 29.6375 38.6457 29.6125C38.6957 29.5875 38.7957 29.55 38.8332 29.575C38.8832 29.6125 38.9457 29.6125 38.9832 29.6125H39.2582C39.2582 29.6125 39.3082 29.6125 39.3457 29.7C39.3832 29.7875 39.4832 29.875 39.4332 29.925C39.3707 29.9625 39.3707 30.05 39.4332 30.05C39.5082 30.05 39.5832 30.05 39.5832 30.1C39.5832 30.1625 39.5832 30.2 39.6457 30.1625C39.7082 30.125 39.7457 30.125 39.7707 30.1625C39.7832 30.2125 39.8332 30.2125 39.8957 30.2375C39.9457 30.275 39.9707 30.25 40.0082 30.2125C40.0457 30.1625 40.1832 30.125 40.1832 30.125C40.1832 30.125 40.3707 30.0875 40.4332 30.1L40.5957 30.1625C40.5957 30.1625 40.6457 30.275 40.6207 30.3375C40.5957 30.4 40.5707 30.3875 40.5957 30.4875C40.6207 30.5875 40.5707 30.6 40.5332 30.5875C40.4832 30.575 40.4332 30.575 40.4332 30.6625C40.4332 30.75 40.3832 30.7625 40.3832 30.8375C40.3832 30.9125 40.3832 30.9 40.3457 30.9375C40.2957 30.9625 40.2832 31.025 40.3457 31.0375C40.4207 31.0375 40.3957 31.1125 40.3957 31.1625V31.2875C40.3957 31.2875 40.3957 31.35 40.3207 31.35C40.2332 31.35 40.1707 31.35 40.1582 31.4C40.1457 31.45 40.0582 31.525 40.1332 31.5875C40.2207 31.6375 40.1957 31.675 40.1457 31.6875C40.0957 31.7125 40.0707 31.8125 40.1457 31.85C40.2457 31.8875 40.2332 31.9125 40.1832 31.9625C40.1207 32 40.0082 32.0375 40.0082 32.0875C40.0082 32.1625 39.9832 32.1625 39.9082 32.175C39.8332 32.1875 39.8082 32.2625 39.8957 32.375C39.9707 32.4875 39.9957 32.4625 40.0582 32.4625C40.1082 32.4625 40.1082 32.375 40.1082 32.375H40.3582C40.4207 32.375 40.5082 32.375 40.5457 32.35C40.5957 32.325 40.7207 32.2625 40.7207 32.3625C40.7207 32.4625 40.7457 32.45 40.8082 32.4875C40.8582 32.5375 40.8707 32.5 40.9332 32.5625C40.9707 32.625 40.9832 32.575 41.0082 32.5C41.0457 32.425 41.1207 32.35 41.1707 32.4375C41.2207 32.525 41.2332 32.5 41.2957 32.5C41.3707 32.5 41.3957 32.5375 41.3957 32.5875C41.3957 32.6375 41.4707 32.6375 41.5457 32.625C41.6207 32.6125 41.6332 32.675 41.6707 32.725C41.7082 32.775 41.7207 32.775 41.7707 32.775C41.8082 32.775 41.8582 32.775 41.8957 32.725C41.9332 32.6875 41.9707 32.625 42.0207 32.7C42.0707 32.775 42.1582 32.75 42.1832 32.675C42.2082 32.6 42.3082 32.5375 42.3707 32.625C42.4207 32.7 42.4707 32.7 42.5332 32.7125C42.5832 32.725 42.6707 32.725 42.7082 32.775C42.7457 32.8375 42.8582 32.925 42.7707 32.9875C42.6957 33.05 42.5957 33.1375 42.6707 33.15C42.7457 33.175 42.7957 33.2 42.8332 33.25C42.8832 33.3 43.0332 33.325 43.0957 33.3375C43.1707 33.3375 43.2207 33.3625 43.3082 33.2875C43.3832 33.225 43.4707 33.225 43.4582 33.3125C43.4457 33.4 43.4957 33.5 43.4957 33.5C43.4957 33.5 43.5457 33.625 43.5457 33.6875C43.5457 33.7375 43.5457 33.75 43.6457 33.8125C43.7457 33.875 43.7332 33.925 43.8207 33.8625C43.8957 33.7875 43.9207 33.7625 43.9207 33.7125V33.5375C43.9207 33.5375 44.0457 33.5125 44.0832 33.4875C44.1207 33.4625 44.3207 33.3625 44.3582 33.4C44.3957 33.4375 44.4707 33.425 44.5082 33.4H44.6957C44.7457 33.4 44.8207 33.4 44.9207 33.325C45.0082 33.25 45.0082 33.275 45.0707 33.325C45.1332 33.375 45.1207 33.45 45.0957 33.4875C45.0582 33.525 45.0957 33.6125 45.1707 33.6125C45.2582 33.6125 45.2707 33.6625 45.2707 33.725L45.2957 33.8875C45.3082 33.9375 45.3082 33.95 45.4332 33.9875C45.5582 34.0125 45.5457 34.0875 45.5582 34.15C45.5832 34.2 45.5832 34.2375 45.5207 34.2375C45.4457 34.2375 45.4207 34.275 45.4207 34.325C45.4082 34.375 45.2957 34.4 45.2957 34.4L45.1957 34.375C45.1957 34.375 45.1207 34.375 45.0957 34.425C45.0582 34.4625 44.9832 34.55 45.0332 34.625C45.0832 34.7 45.0832 34.75 45.0332 34.775C44.9832 34.8125 44.9582 34.9625 44.9082 34.9375C44.8582 34.9125 44.8082 34.9375 44.7707 34.9625C44.7207 34.9875 44.7332 35.1375 44.8207 35.1875C44.9207 35.25 44.9457 35.3125 44.9457 35.3125L45.0457 35.475L44.9832 35.5625C44.9582 35.6125 44.8957 35.725 44.9582 35.75C45.0207 35.775 44.9957 35.875 44.9332 35.875C44.8582 35.875 44.7832 35.85 44.7707 35.9375C44.7582 36.025 44.7207 36 44.6457 35.9875C44.5832 35.9875 44.3957 35.9375 44.3582 36.025C44.3207 36.1125 44.3082 36.15 44.2332 36.125C44.1457 36.125 44.1707 36.25 44.1957 36.3125C44.2207 36.3625 44.3082 36.4375 44.3082 36.4375C44.3082 36.4375 44.3707 36.4875 44.3707 36.6C44.3707 36.7125 44.3207 36.7 44.2832 36.625C44.2457 36.55 44.1457 36.5625 44.1332 36.6375C44.1207 36.725 44.1082 36.85 44.0207 36.85C43.9457 36.85 43.9082 36.875 43.8707 36.925C43.8457 36.9625 43.7832 37.0375 43.7832 37.075C43.7832 37.1125 43.7707 37.1625 43.7082 37.175C43.6582 37.175 43.6457 37.3 43.6457 37.3C43.6457 37.3 43.5082 37.325 43.4957 37.375C43.4832 37.425 43.4957 37.5125 43.3832 37.525C43.2707 37.5375 43.2082 37.6125 43.1707 37.6625C43.1332 37.725 43.1207 37.7625 43.1707 37.8125C43.2207 37.8625 43.2457 38.0375 43.2957 38.0625C43.3707 38.1 43.4207 38.1125 43.3957 38.1875C43.3957 38.2875 43.3207 38.35 43.4082 38.35C43.5082 38.35 43.5582 38.375 43.5332 38.45C43.4957 38.525 43.4957 38.525 43.4207 38.5625C43.3582 38.6 43.3207 38.6 43.3207 38.6875C43.3207 38.775 43.3457 38.7625 43.2832 38.8C43.2207 38.825 43.2207 38.875 43.2207 38.925C43.2207 39 43.2082 38.975 43.1332 39.05C43.0582 39.125 42.9707 39.125 42.9082 39.1C42.8582 39.0875 42.8457 39.0875 42.8332 39.025C42.8207 38.95 42.7082 38.95 42.6582 38.9625C42.5957 38.975 42.5207 39.0375 42.5207 39.0375C42.5207 39.0375 42.4207 39.1 42.4582 39.1625C42.5082 39.2125 42.4832 39.2875 42.4082 39.2875C42.3207 39.2875 42.1332 39.375 42.0832 39.2875C42.0207 39.175 41.8582 39.1125 41.8332 39.25C41.8082 39.375 41.9082 39.3625 41.8957 39.5C41.8832 39.625 41.8582 39.625 41.8082 39.6625C41.7707 39.7 41.7707 39.7375 41.7582 39.7875C41.7457 39.8375 41.7332 39.9625 41.8082 40C41.8957 40.05 41.9332 40.1625 41.9332 40.225C41.9332 40.2875 41.9332 40.35 42.0082 40.35C42.0957 40.35 42.1582 40.35 42.1707 40.2625C42.1832 40.1875 42.3457 40.15 42.3582 40.3C42.3707 40.45 42.3582 40.525 42.4332 40.5875C42.4832 40.65 42.5332 40.7375 42.5832 40.775C42.6332 40.8125 42.7082 41.075 42.7082 41.075C42.5832 41.1 42.5582 41.25 42.4832 41.275C42.4457 41.2875 42.4082 41.275 42.3582 41.3C42.3332 41.325 42.3332 41.3625 42.2957 41.3875C42.2082 41.425 42.2332 41.2875 42.1207 41.3375C42.0332 41.375 42.0207 41.4875 41.8957 41.4375C41.8207 41.4125 41.7707 41.15 41.7582 41.0875C41.7582 41.05 41.6707 40.9375 41.6457 40.9C41.5707 40.775 41.4207 40.9 41.3707 40.8625C41.2832 40.8125 41.3207 40.7125 41.2082 40.7125C40.9582 40.6875 41.1332 40.85 41.0332 40.8875C40.8457 40.9625 40.8457 40.7125 40.6957 40.825C40.6457 40.8625 40.7832 40.9 40.7457 40.975C40.7207 41.025 40.5707 41.125 40.5832 41.2C40.5957 41.3 40.7082 41.325 40.7332 41.4125C40.8207 41.625 40.6832 41.7875 40.4582 41.6125C40.3332 41.5125 40.3207 41.3375 40.1332 41.35C40.0832 41.35 40.0707 41.3875 40.0207 41.4C39.9832 41.4 39.9457 41.3625 39.8957 41.375C39.8332 41.4 39.8957 41.45 39.8832 41.4875L39.7707 41.5875C39.7207 41.65 39.7332 41.7125 39.6582 41.775C39.5957 41.8125 39.5457 41.7875 39.4832 41.8625C39.4082 41.9375 39.3957 42.05 39.3082 42.125C39.2582 42.1625 39.2332 42.0125 39.1832 42.125C39.1582 42.125 39.1582 42.1375 39.1457 42.15V42.225C39.2707 42.475 39.0207 42.55 38.9332 42.725C38.8957 42.7875 38.9957 42.85 38.9582 42.9C38.9332 42.95 38.8207 43.05 38.8082 43.075C38.8082 43.1 38.7957 43.15 38.7707 43.175C38.7457 43.2 38.6832 43.175 38.6707 43.2125C38.6707 43.25 38.7457 43.2875 38.7707 43.3125C38.7957 43.3375 38.7582 43.375 38.7707 43.3875C38.8957 43.5125 38.8207 43.475 38.8832 43.5875C38.8832 43.6125 38.9332 43.5875 38.9457 43.625C38.9582 43.6625 38.9207 43.6625 38.9332 43.7L39.0332 43.8375C39.0332 43.875 38.8457 43.9625 38.8082 43.9625C38.6957 43.9625 38.9082 43.7375 38.7207 43.7375C38.6457 43.7375 38.6457 43.9125 38.6207 43.9375H38.5207C38.4082 43.9375 38.3332 44.075 38.2832 44.0875H38.1457C38.0957 44.0875 38.0457 44.1375 37.9957 44.1375C37.9707 44.1375 37.9582 44.1125 37.9332 44.1L37.7332 44.0375C37.6957 44.0375 37.6332 44.0875 37.6082 44.0625C37.5832 44.05 37.6457 43.975 37.5582 43.9375L37.4832 43.7625C37.5082 43.6625 37.5457 43.55 37.5332 43.45C37.5082 43.325 37.3457 43.2375 37.2832 43.15C37.2582 43.0875 37.2332 42.9 37.1582 42.8625C37.0848 42.8056 37.025 42.733 36.9832 42.65C36.9832 42.625 37.0082 42.5875 36.9832 42.55C36.9582 42.5125 36.8957 42.5 36.8832 42.45C36.8707 42.4 36.8832 42.2625 36.8332 42.2375C36.7832 42.2 36.4207 42.1625 36.3332 42.15C36.2957 42.15 36.2582 42.15 36.2207 42.1125L36.1707 42.05L36.0582 42.0625H35.9707C35.8457 42.1375 35.8332 42.2375 35.7207 42.3125C35.6082 42.4125 35.4957 42.4 35.3832 42.5C35.3082 42.5625 35.2582 42.7125 35.1957 42.775C35.1707 42.8125 35.1207 42.775 35.1082 42.7875L34.9082 42.975C34.9082 42.975 34.9082 43.0125 34.8832 43.025L34.7582 43.05H34.6332C34.5832 43.075 34.5832 43.1375 34.3832 43.175L34.3457 43.2L34.2707 43.2625H34.1957C34.1457 43.2625 34.1082 43.3 34.0707 43.3125C33.9582 43.3125 33.7957 43.2625 33.7207 43.3C33.6707 43.3125 33.5332 43.4625 33.4707 43.475H33.3957C33.3707 43.475 33.3332 43.65 33.3207 43.6875L33.0707 43.9L33.0082 44C32.9832 44.025 32.9457 44.05 32.9082 44.05C32.8582 44.05 32.7832 44.0125 32.7457 44C32.6582 44 32.4082 43.975 32.3332 44C32.2582 44 32.2832 44.2375 32.0832 44.25L31.7457 44.3C31.7457 44.3 31.6707 44.25 31.5957 44.275C31.5707 44.275 31.4957 44.3625 31.4957 44.4V44.4375L31.5082 44.475C31.4707 44.5375 31.3707 44.6 31.3332 44.675L31.3082 44.7125C31.2832 44.7375 31.1457 44.7875 31.1332 44.8125C31.0957 44.8875 31.2207 44.9625 31.2082 45C31.1832 45.1 31.0332 45.2 30.9957 45.3C30.9832 45.3375 31.0457 45.4625 31.0332 45.5125C31.0332 45.6375 30.9832 45.8 30.9832 45.925L31.0082 46.0875L31.0832 46.1375C31.0957 46.1625 31.2582 46.4625 31.2582 46.5C31.2832 46.7125 30.9707 46.6375 31.1582 46.8625L31.2332 46.9625L31.5207 47.1875C31.5207 47.225 31.3207 47.2625 31.2957 47.2875C31.1957 47.3875 31.1207 47.55 31.0332 47.65C30.9707 47.7 30.9207 47.65 30.8582 47.775C30.8332 47.825 30.8582 47.9375 30.8207 47.975C30.7707 48.025 30.7332 47.95 30.6957 47.975C30.6707 47.975 30.6582 48.05 30.6457 48.0625C30.5832 48.1 30.1207 48.35 30.0832 48.325C30.0582 48.325 30.0332 48.2375 30.0332 48.2125C30.0206 48.1747 29.9992 48.1404 29.9707 48.1125C29.8457 48.0125 29.6707 47.9875 29.5582 48.1125C29.5207 48.15 29.5207 48.2 29.4832 48.2375L29.2832 48.3875C29.2832 48.3875 29.2457 48.4375 29.2207 48.425C29.1832 48.425 29.0707 48.3 29.0332 48.2625C28.9832 48.2 28.8332 48.05 28.8207 47.9875C28.8207 47.7375 28.6332 47.5 28.5582 47.2625H28.6832C28.8082 47.1875 28.7707 46.9625 28.9957 47.05C29.0332 47.0125 29.0207 46.975 29.0832 46.9375C29.1082 46.9375 29.1457 46.9125 29.1457 46.9C29.2332 46.775 29.3207 46.325 29.2457 46.2C29.1707 46.1 29.0957 46.1 29.0332 45.925V45.775C29.0332 45.725 28.9457 45.475 28.9332 45.45C28.9207 45.4375 28.8707 45.4125 28.8707 45.3875C28.8707 45.375 28.8457 45.1 28.8582 45.075C28.7832 44.8625 28.5082 44.725 28.4957 44.7L28.3957 44.525C28.3582 44.4625 28.3582 44.425 28.3332 44.3625C28.3332 44.3375 28.2832 44.3125 28.2832 44.275C28.2832 44.225 28.4332 44.1 28.4332 44.0125C28.4332 43.975 28.3332 43.8875 28.3457 43.825C28.3707 43.775 28.4707 43.65 28.4707 43.575C28.4707 43.5 28.3082 43.325 28.2832 43.2375C28.2832 43.1875 28.3457 43.15 28.3332 43.125L28.1207 42.9C28.1082 42.8625 28.1832 42.825 28.1207 42.775C28.0707 42.7125 28.1207 42.7375 28.1082 42.6875L28.0082 42.5375L27.8457 41.9625C27.8207 41.925 27.7832 41.9 27.7707 41.8625L27.7207 41.7375C27.7207 41.7375 27.5582 41.6875 27.5332 41.6375C27.5082 41.6 27.5082 41.4875 27.4582 41.425C27.4457 41.3875 27.4082 41.4 27.3832 41.375L27.3582 41.3125C27.3082 41.25 27.2207 41.3125 27.1582 41.0625L26.9082 40.8875L26.8832 40.85C26.8207 40.825 26.7332 40.825 26.6832 40.775L26.4832 40.7625L26.4332 40.6875C26.3582 40.6625 26.2207 40.675 26.1582 40.6125C26.0957 40.5625 26.0832 40.3375 25.9957 40.3625H25.9457C25.8832 40.275 25.6707 40.2625 25.5707 40.2125C25.5457 40.2 25.4707 40.2125 25.4707 40.1875L25.4832 40.0625L25.3582 39.925C25.2832 39.9 25.3207 39.8875 25.2582 39.8625C25.1207 39.85 25.1082 39.8625 25.0082 39.9625L24.9082 40C24.8582 40.025 24.8457 40.125 24.7832 40.075L24.7207 40.025C24.6832 39.9875 24.6582 40.0125 24.6457 39.95C24.5207 39.8875 24.1957 40.1 24.1207 39.95C24.0582 39.9125 24.0207 39.95 23.9707 39.9125C23.9457 39.8875 24.0332 39.6125 23.7957 39.5125L23.9707 39.3875V39.2875C23.9707 39.25 23.9957 39.1625 23.9832 39.125L23.9332 39.025C23.9082 38.9875 23.9332 38.95 23.9082 38.9L23.8332 38.8625C23.7707 38.8125 23.7082 38.7875 23.6582 38.725L23.6207 38.675C23.5832 38.65 23.4332 38.6 23.4457 38.5375C23.4457 38.5125 23.4707 38.5125 23.4832 38.4875C23.4832 38.4625 23.4832 38.425 23.5082 38.4C23.5707 38.3125 23.7207 38.35 23.6957 38.1875C23.6957 38.1125 23.6332 38.05 23.6207 37.9625L23.5707 37.9C23.4207 37.8875 23.4457 37.7375 23.3957 37.7C23.2332 37.6 23.1207 37.6625 23.2957 37.45C23.3207 37.3875 23.1457 37.275 23.1082 37.25C23.0457 37.1875 23.0832 37.0625 23.0582 37C23.0457 36.9625 22.9332 36.9125 22.9082 36.875L22.8582 36.775V36.75C22.8957 36.725 22.8832 36.6875 22.8582 36.65C22.8582 36.625 22.8082 36.6375 22.7957 36.625C22.6457 36.5 22.4832 36.4375 22.2957 36.375C22.2457 36.35 22.2707 36.3125 22.2207 36.2875L21.9332 36.1625C21.8957 36.1625 21.8832 36.05 21.8582 36.025C21.8352 35.9867 21.8056 35.9529 21.7707 35.925C21.7707 35.825 21.7082 35.8125 21.6457 35.7625L21.6207 35.7L21.6832 35.4875C21.6957 35.45 21.7457 35.4125 21.7457 35.3625L21.6957 35.1375C21.6207 34.9375 21.5332 34.9625 21.5707 34.6875C21.5832 34.625 21.5707 34.6 21.6082 34.55L21.6332 34.5125L21.7582 34.425C21.7957 34.375 21.8207 34.2375 21.8832 34.2C21.9082 34.1625 22.0332 34.1 22.0457 34.075C22.0707 34.05 22.0957 33.9875 22.0832 33.95H21.9582C21.9457 33.95 21.8957 33.9 21.8457 33.9L21.8207 33.85L21.7957 33.825L21.6707 33.7875C21.6082 33.7625 21.5457 33.7625 21.4832 33.725C21.3957 33.675 21.2957 33.525 21.1957 33.5125C21.0707 33.4875 20.9957 33.5125 20.8832 33.5125C20.8082 33.525 20.8082 33.4875 20.7582 33.4625C20.6707 33.4375 20.7332 33.5125 20.5457 33.45C20.5207 33.425 20.5457 33.3625 20.5582 33.3375C20.5332 33.3375 20.4957 33.35 20.4582 33.3375C20.3082 33.3 20.3582 33.1625 20.3332 33.0875C20.3082 33.05 20.2457 33.0625 20.2082 33.0625V33.025C20.2457 32.9875 20.1582 32.8875 20.1582 32.875C20.1582 32.8375 20.3457 32.8125 20.3707 32.8125C20.3832 32.7875 20.3582 32.7625 20.3582 32.7375L20.3957 32.5625L20.2707 32.4375C20.2832 32.425 20.3207 32.4 20.3207 32.375C20.4082 32.125 20.5457 32.325 20.6707 32.1L20.7332 31.975H20.7582L20.8332 32C20.8457 31.975 20.8832 31.9625 20.9082 31.95L20.9582 31.9625C21.1832 31.9125 21.1332 31.8375 21.2582 31.7375C21.2957 31.7125 21.3957 31.7125 21.4457 31.6875C21.4957 31.7125 21.5707 31.7875 21.6582 31.825C21.7207 31.85 21.9457 31.9 21.9832 31.925C22.0332 31.95 22.0457 32.0125 22.0957 32.0375C22.2207 32.1 22.1457 31.9875 22.2707 32.0125C22.3957 32.0375 22.4957 32.1375 22.6207 32.1875H22.7082C22.7457 32.1875 22.9582 32.1375 22.9707 32.15L23.0582 32.1875C23.0832 32.1875 23.1082 32.125 23.1207 32.125C23.2082 32.1375 23.2207 32.175 23.3332 32.1625C23.3332 32.1625 23.3957 31.8375 23.4582 31.825C23.4832 31.825 23.5707 31.9 23.5832 31.9125C23.6332 31.9125 23.5832 31.8375 23.5832 31.8375C23.5832 31.8125 23.5082 31.6125 23.5207 31.5875C23.5207 31.5875 23.5707 31.6125 23.5957 31.5875C23.6707 31.5875 23.7457 31.5625 23.7957 31.5125L23.9082 31.3625C23.9082 31.3375 23.8832 31.275 23.8957 31.2625L23.9832 31.2C24.0207 31.1625 24.0332 31.1 24.0832 31.075C24.2957 31.05 24.3582 30.8875 24.5457 30.8625H24.6082L24.6457 30.925C24.6582 30.9375 24.7707 31.0125 24.8082 31.0125L24.8457 30.975C24.8832 30.975 24.9832 30.9125 24.9957 30.875C24.9957 30.875 24.9707 30.85 24.9957 30.825C24.9957 30.8125 25.1207 30.7 25.1457 30.7H25.2832L25.3457 30.7625H25.4582C25.4832 30.7625 25.4957 30.7125 25.5207 30.7L25.5332 30.7125V30.7125Z" fill="#D0A650"/>
<g id="Group">
<path id="Vector_3" d="M35.4211 15.5625L37.0336 20.525L32.8086 17.4625H38.0211L33.8086 20.525L35.4211 15.5625V15.5625ZM41.6961 16.675L43.3086 21.6375L39.0836 18.575H44.3086L40.0836 21.625L41.6961 16.6625V16.675ZM47.6836 18.85L49.3086 23.8125L45.0836 20.75H50.2961L46.0711 23.8125L47.6961 18.85H47.6836Z" fill="#F5F5F5"/>
</g>
<path id="Vector_4" d="M29.0453 15.5625L27.4203 20.525L31.6453 17.4625H26.4328L30.6578 20.525L29.0328 15.5625H29.0453ZM22.7703 16.675L21.1453 21.6375L25.3703 18.575H20.1578L24.3703 21.625L22.7453 16.6625L22.7703 16.675ZM16.8078 18.85L18.4203 23.8125L14.1953 20.75H19.4078L15.1953 23.8125L16.8078 18.85Z" fill="#F5F5F5"/>
</g>
</g>
<defs>
<clipPath id="clip0_2909_185257">
<path d="M0.246094 32C0.246094 14.3269 14.573 0 32.2461 0V0C49.9192 0 64.2461 14.3269 64.2461 32V32C64.2461 49.6731 49.9192 64 32.2461 64V64C14.573 64 0.246094 49.6731 0.246094 32V32Z" fill="white"/>
</clipPath>
</defs>
</svg>
