<svg width="65" height="64" viewBox="0 0 65 64" fill="none" xmlns="http://www.w3.org/2000/svg">
<g id="Rounded=Zambia (ZM)">
<g clip-path="url(#clip0_2909_185255)">
<g id="Group">
<path id="Vector" fill-rule="evenodd" clip-rule="evenodd" d="M-31.7539 0H64.2314V63.9902H-31.7539V0Z" fill="#198A00"/>
<path id="Vector_2" fill-rule="evenodd" clip-rule="evenodd" d="M52.9816 22.99H64.2315V63.9902H52.9688L52.9816 22.99Z" fill="#EF7D00"/>
<path id="Vector_3" fill-rule="evenodd" clip-rule="evenodd" d="M41.7324 22.9642H52.9823V63.9902H41.7324V22.9642Z" fill="black"/>
<path id="Vector_4" fill-rule="evenodd" clip-rule="evenodd" d="M30.2363 23.0029H41.7184V63.9902H30.2363V23.0029Z" fill="#DE2010"/>
<g id="Group_2">
<path id="Vector_5" fill-rule="evenodd" clip-rule="evenodd" d="M56.697 8.19227C56.697 8.19227 60.9415 6.3861 61.3414 6.01196C61.5349 6.23128 59.6514 8.51481 55.9874 9.36629C59.3159 8.56641 62.1542 6.10227 62.7219 6.17968C62.8896 6.21838 62.8509 8.59221 55.2391 10.6435C60.5029 9.26308 63.5733 6.72153 63.5346 7.00536C63.5733 7.05696 63.0186 9.00505 58.3999 10.5145C59.6901 10.2178 63.1734 8.08906 63.1347 8.5019C63.2508 8.66962 59.7546 13.1464 53.4459 11.6885C58.4774 13.0044 61.7543 9.84363 62.2187 9.89524C62.3219 9.92104 61.2898 12.6561 54.9424 12.8238C57.9871 12.5142 57.1098 12.8109 57.1098 12.8109C57.1098 12.8109 55.3036 14.2172 53.1491 13.2625C54.8521 13.7269 55.0327 13.7398 55.0714 13.8946C54.9553 14.0752 53.562 14.3591 52.2073 13.6366C53.2911 14.0752 54.2716 14.1527 54.2845 14.3204C54.0939 14.4556 53.8729 14.5416 53.6411 14.5709C53.4093 14.6001 53.1738 14.5717 52.9556 14.4881C52.3493 14.2172 46.6598 10.7209 46.6598 10.7209L56.3357 8.06326L56.697 8.19227V8.19227ZM45.3181 17.6489C45.2113 17.6363 45.103 17.6461 45.0001 17.6777C44.8973 17.7093 44.8022 17.762 44.7209 17.8324C44.6395 17.9028 44.5738 17.9894 44.5278 18.0866C44.4818 18.1839 44.4565 18.2896 44.4537 18.3972C44.4537 18.3972 44.3763 18.4617 44.4279 18.8229C44.4867 18.7093 44.5558 18.6013 44.6343 18.5004C44.7246 18.5004 45.1246 18.6294 45.7309 18.152C45.1762 18.7326 45.5116 18.9519 45.5116 18.9519C45.5116 18.9519 45.3826 19.4164 45.8083 19.5067C45.6793 19.3132 45.7567 19.1583 45.7567 19.1583C45.7567 19.1583 46.3502 19.0938 46.3115 18.3585C46.3373 19.0164 46.6985 19.1841 46.6985 19.1841C46.6985 19.1841 46.6985 19.5454 47.0855 19.5712C46.8791 19.3906 46.9178 19.1067 46.9178 19.1067C46.9178 19.1067 47.4339 18.7326 46.9952 18.1133C47.2533 17.9714 47.4726 17.5586 47.4726 17.5586C47.4726 17.5586 47.1114 17.4038 46.9565 17.2748C46.8791 17.1199 46.9565 16.2169 46.9565 16.2169L46.7372 15.0557L46.1309 16.8619C46.1567 16.6039 46.1696 17.636 45.3181 17.636V17.6489Z" fill="#EF7D00" stroke="black" stroke-width="0.116111" stroke-linejoin="round"/>
<path id="Vector_6" fill-rule="evenodd" clip-rule="evenodd" d="M49.5255 15.0299C49.5384 15.0557 50.1705 15.7395 50.764 15.7008C50.9833 15.5202 50.2867 15.1073 50.2867 15.017C50.5447 15.2364 51.5639 16.1136 52.2219 15.7911C52.4799 15.4299 51.7445 15.4815 50.9446 14.4752C51.4994 14.8493 52.9056 15.675 53.5636 15.3525C53.8345 15.0557 52.1057 14.1139 51.5252 13.3915L50.0286 12.6174L47.9902 14.2946L49.5255 15.0299Z" fill="#EF7D00" stroke="black" stroke-width="0.116111" stroke-linejoin="round"/>
<path id="Vector_7" fill-rule="evenodd" clip-rule="evenodd" d="M47.2285 9.3534C47.2285 9.3534 47.9252 8.94056 50.686 9.14698C50.9828 9.18568 52.5696 8.60512 53.0728 8.43741C53.8727 8.2955 56.4271 7.72784 57.1238 7.21179C57.614 7.14728 56.9948 8.11488 56.3755 8.3342C55.7304 8.63093 53.3566 9.45661 52.5051 9.3405C53.5243 9.3534 52.9567 10.1791 51.2795 9.77914C52.0794 10.2307 51.7956 10.3081 51.7956 10.3081C51.7956 10.3081 50.3764 10.3855 49.9894 10.063C50.9441 10.4242 50.557 10.5532 50.557 10.5532C50.557 10.5532 49.5765 10.6435 49.1379 10.4371C49.8217 10.6435 49.4733 10.7725 49.4733 10.7725C49.4733 10.7725 48.9057 10.8628 48.4412 10.6951C47.9768 10.5274 47.2672 9.3534 47.2285 9.3534V9.3534Z" fill="#EF7D00" stroke="black" stroke-width="0.116111" stroke-linecap="round" stroke-linejoin="round"/>
<path id="Vector_8" fill-rule="evenodd" clip-rule="evenodd" d="M48.3372 15.417L48.4404 17.249L48.3372 17.3909C48.2856 17.4554 47.0471 17.1974 47.2148 18.165C47.2148 18.552 47.2148 18.6423 47.4728 18.8616C47.4083 18.6036 47.4341 18.423 47.4341 18.423C47.4341 18.423 47.7825 18.6423 48.1308 18.0617C47.8986 18.6294 48.0663 18.8358 48.1179 18.8358C48.1695 18.9519 48.0276 19.4164 48.492 19.4035C48.3114 19.2358 48.4017 18.9777 48.4017 18.9777C48.4017 18.9777 48.892 18.9003 48.7114 18.0101C48.892 17.8295 48.9694 18.0101 48.9694 18.0101C48.9694 18.0101 49.021 18.5262 49.4467 18.423C49.6403 18.5391 49.4209 18.8229 49.4209 18.8229C49.4209 18.8229 49.7306 18.8229 49.8209 18.5649C49.9241 18.3069 50.0273 17.8295 49.5113 17.636C49.4467 17.4425 49.7177 17.4296 49.7177 17.4296C49.7177 17.4296 50.0402 17.5328 50.1434 17.7005C50.2337 17.8682 50.195 17.2748 49.7951 17.2103C49.2919 17.1974 49.2661 17.0813 49.2661 17.0684L49.1371 15.3654L48.3372 15.417V15.417Z" fill="#EF7D00" stroke="black" stroke-width="0.116111" stroke-linejoin="round"/>
<path id="Vector_9" fill-rule="evenodd" clip-rule="evenodd" d="M50.0793 16.978C50.0793 16.8877 49.2278 15.7395 49.4342 15.5847C49.6535 15.6363 50.0148 16.1653 50.2986 15.9846C50.2212 15.7782 49.9632 15.8943 49.6535 15.3783C49.3697 14.7848 49.331 13.8946 48.2989 12.927C48.9698 13.9591 50.4792 14.5526 50.5437 14.243C50.6082 13.9333 49.2149 12.8238 49.2794 12.54C49.5503 13.1077 50.9566 14.3462 51.9887 14.2559C52.0532 14.0107 51.1372 13.5205 50.905 13.069C50.2599 12.6303 48.4924 11.108 48.4537 10.7596C48.1484 10.2316 47.7298 9.77777 47.2281 9.43081C47.1507 9.3534 47.1378 9.26309 47.1249 9.21149C46.725 8.2826 47.2539 7.97297 47.5635 7.92136C47.8216 7.90846 47.8861 7.93426 48.0796 7.85685L47.4216 7.59883C47.7054 7.80525 48.4279 7.62463 48.2602 8.21809C48.5827 8.10198 49.2536 7.315 47.499 7.12148C46.9314 6.47642 44.5962 6.08938 44.0157 8.94056C44.0544 8.97926 44.0802 9.01797 44.235 9.13408C43.4867 8.77284 41.4999 8.48902 40.7775 8.38581C38.8423 7.81815 36.8297 6.47642 36.6362 6.63124C36.3781 6.76025 37.7973 8.08908 37.7328 8.11488C36.4814 7.39241 35.3589 6.87636 34.301 6.41191C33.5528 6.12809 32.8174 5.48302 32.7271 5.61204C32.4691 6.17969 33.9269 7.59883 34.1978 7.76655C34.4559 7.92136 36.6104 8.92766 36.5717 8.92766C33.3463 7.46982 32.8045 7.19889 32.6497 7.03117C32.3659 6.96667 31.6692 6.03778 31.4886 6.08938C31.3725 6.19259 31.5789 7.67624 33.127 8.3342C33.3851 8.51482 36.4169 9.62433 36.391 9.70173L32.7658 8.20519C32.0949 7.94716 31.2692 7.01827 31.1144 7.12148C30.9725 7.22469 31.5015 8.21809 32.1723 8.54062C32.5336 8.69544 33.8882 9.3663 35.1267 9.79204C35.2041 9.83075 32.9206 8.92766 31.8111 8.46321C31.3209 8.20519 31.0757 7.84395 31.0112 7.92136C30.8822 7.99877 31.1918 9.46951 34.7268 10.3081C34.8171 10.3468 35.9653 10.0372 35.9137 10.0759C35.2604 10.2382 34.5965 10.3546 33.9269 10.4242C33.8882 10.5274 34.1462 11.0564 35.9782 10.9403C36.2104 10.9403 37.4748 10.4887 37.3715 10.579C37.3199 10.6306 35.6428 11.1725 35.5138 11.1854C35.4106 11.1854 34.8171 11.2628 34.8042 11.3144C34.7784 11.4047 35.2299 11.7788 36.2233 11.8304C37.0877 11.882 38.7262 11.3144 38.7004 11.3531C38.6617 11.3918 37.1135 11.9207 37.0619 11.9466C37.0103 11.9853 36.4427 12.0111 36.4169 12.0627C36.3781 12.1659 37.2425 12.9787 39.8099 12.1143C39.5519 12.4626 38.3133 12.6948 38.3133 12.7593C38.3133 12.8109 38.5843 13.0819 39.0229 13.1722C39.2422 13.2238 39.5389 13.2109 39.797 13.1722C40.4342 13.0469 41.0188 12.7321 41.4741 12.2691C41.5386 12.4626 39.8357 13.3399 39.9131 13.4173C40.2872 13.7656 41.5128 13.3657 41.5903 13.327C42.4216 12.8876 43.2193 12.3874 43.977 11.8304C44.0157 12.024 41.0097 13.6624 41.0484 13.7269C41.2419 14.0237 42.274 13.7011 42.3127 13.6753L43.6545 12.9528C43.6932 12.927 42.1837 13.843 42.3127 13.9849C42.2482 14.5655 44.6737 13.5721 44.8672 13.4431C44.9575 13.3786 43.7061 13.9978 43.7061 14.2946C44.0931 14.9783 45.409 14.759 45.6025 14.6042C45.7057 14.5397 45.4735 15.1203 45.5509 15.0687C45.7068 14.9088 45.8373 14.7261 45.938 14.5268C45.9122 14.7203 45.7574 15.017 45.6799 15.3654C45.6025 15.7137 45.5767 16.1137 45.4606 16.5265C45.4348 16.7071 46.2605 16.1653 46.1444 14.8751C46.2089 15.546 45.8864 16.8103 45.9638 16.8619C46.1444 16.9909 46.6088 16.2427 46.6733 15.7266C46.8024 15.9846 47.112 16.5265 47.37 16.6555C47.3442 16.2685 47.37 16.2685 47.2539 15.8943C47.3184 15.3783 47.3313 14.6816 47.3442 13.8817C48.0538 15.2235 48.3247 15.7911 48.1312 16.8232C48.3376 16.9135 48.673 16.1008 48.6472 15.6879C48.9053 16.849 50.0664 17.0167 50.0922 16.978H50.0793Z" fill="#EF7D00" stroke="black" stroke-width="0.129012" stroke-linecap="round" stroke-linejoin="round"/>
<g id="Vector_10">
<path fill-rule="evenodd" clip-rule="evenodd" d="M38.4165 8.46323C38.4165 8.46323 37.9392 8.82446 37.3457 8.79866C37.4876 9.39212 38.7261 8.94057 38.7261 8.94057C38.7261 8.94057 38.1327 9.59854 37.694 9.71465C37.9521 9.90817 39.0229 9.84366 39.2035 9.74045C39.3841 9.62434 39.7066 9.2244 39.7066 9.2244C39.7066 9.2244 38.61 10.4887 38.4423 10.4758C38.4294 10.6177 39.6034 10.5661 39.8485 10.3468C40.0937 10.1275 40.7 9.79206 40.7 9.79206C40.7 9.79206 39.0874 10.9145 39.0229 10.9145C39.6163 11.0822 40.829 10.7338 41.6031 10.2565C40.4549 11.0177 40.3517 11.1596 39.7711 11.4176C40.2872 11.5208 40.5452 11.8692 42.3127 11.108C43.319 10.6306 43.8866 9.76625 43.8866 9.76625C43.1201 10.6656 42.2035 11.4251 41.1774 12.0111C41.1258 12.1401 42.3514 12.6561 43.9253 11.0306" fill="#EF7D00"/>
<path d="M38.4165 8.46323C38.4165 8.46323 37.9392 8.82446 37.3457 8.79866C37.4876 9.39212 38.7261 8.94057 38.7261 8.94057C38.7261 8.94057 38.1327 9.59854 37.694 9.71465C37.9521 9.90817 39.0229 9.84366 39.2035 9.74045C39.3841 9.62434 39.7066 9.2244 39.7066 9.2244C39.7066 9.2244 38.61 10.4887 38.4423 10.4758C38.4294 10.6177 39.6034 10.5661 39.8485 10.3468C40.0937 10.1275 40.7 9.79206 40.7 9.79206C40.7 9.79206 39.0874 10.9145 39.0229 10.9145C39.6163 11.0822 40.829 10.7338 41.6031 10.2565C40.4549 11.0177 40.3517 11.1596 39.7711 11.4176C40.2872 11.5208 40.5452 11.8692 42.3127 11.108C43.319 10.6306 43.8866 9.76625 43.8866 9.76625C43.1201 10.6656 42.2035 11.4251 41.1774 12.0111C41.1258 12.1401 42.3514 12.6561 43.9253 11.0306" stroke="black" stroke-width="0.129012" stroke-linecap="round" stroke-linejoin="round"/>
</g>
<g id="Vector_11">
<path fill-rule="evenodd" clip-rule="evenodd" d="M46.9322 11.9982C46.9322 11.9982 47.0354 12.5013 47.4482 12.8754C47.8739 13.2625 47.9126 13.6366 47.9126 13.6366L46.9322 11.9982ZM46.7128 8.75995C46.7128 8.75995 46.8676 9.21149 47.2934 9.49532C47.7588 9.86822 48.1523 10.3229 48.4545 10.837C48.5877 11.4069 48.6868 11.9842 48.7512 12.5658L46.7128 8.75995ZM44.0165 9.44371C44.0423 9.62433 43.3972 10.4758 44.2874 11.4821C43.4746 12.4755 43.4746 12.6045 43.4746 12.6045C43.4746 12.6045 43.9262 12.8625 44.7518 12.153C46.0936 13.8043 45.6549 14.5655 45.6549 14.5655" fill="#EF7D00"/>
<path d="M44.0165 9.44371C44.0423 9.62433 43.3972 10.4758 44.2874 11.4821C43.4746 12.4755 43.4746 12.6045 43.4746 12.6045C43.4746 12.6045 43.9262 12.8625 44.7518 12.153C46.0936 13.8043 45.6549 14.5655 45.6549 14.5655M46.9322 11.9982C46.9322 11.9982 47.0354 12.5013 47.4482 12.8754C47.8739 13.2625 47.9126 13.6366 47.9126 13.6366L46.9322 11.9982ZM46.7128 8.75995C46.7128 8.75995 46.8676 9.21149 47.2934 9.49532C47.7588 9.86822 48.1523 10.3229 48.4545 10.837C48.5877 11.4069 48.6868 11.9842 48.7512 12.5658L46.7128 8.75995Z" stroke="black" stroke-width="0.129012" stroke-linecap="round"/>
</g>
<g id="Vector_12">
<path fill-rule="evenodd" clip-rule="evenodd" d="M45.5249 13.4044C45.5249 13.4044 45.4087 13.2238 45.6281 12.5658C45.8345 12.798 46.0538 12.8496 46.1441 12.9528C46.2344 13.056 47.2665 13.198 47.331 13.8688" fill="#EF7D00"/>
<path d="M45.5249 13.4044C45.5249 13.4044 45.4087 13.2238 45.6281 12.5658C45.8345 12.798 46.0538 12.8496 46.1441 12.9528C46.2344 13.056 47.2665 13.198 47.331 13.8688" stroke="black" stroke-width="0.129012" stroke-linecap="round" stroke-linejoin="round"/>
</g>
<path id="Vector_13" fill-rule="evenodd" clip-rule="evenodd" d="M46.7254 7.18599C46.7254 7.13439 46.519 6.69575 45.7578 7.2376C46.1707 7.2634 46.5706 7.49562 46.7254 7.18599Z" fill="#EF7D00" stroke="black" stroke-width="0.129012"/>
<g id="Vector_14">
<path fill-rule="evenodd" clip-rule="evenodd" d="M54.0021 9.18567C54.0408 9.21147 56.2856 9.70172 57.0339 9.44369C56.0792 10.7209 54.1698 9.85653 54.1698 9.85653C55.1116 10.1404 55.1503 10.1146 55.447 10.3726C55.5373 10.6306 53.7311 10.5145 53.1248 10.1791C54.8019 10.6951 54.8277 10.6693 54.8793 10.8628C54.9568 11.1467 52.1701 10.7983 51.9121 10.4242C52.6603 11.0047 53.0732 11.108 53.486 11.3789C52.97 11.5982 52.0411 11.8175 50.3252 10.6048C52.5829 12.669 54.6213 12.54 54.9439 12.9012C54.1569 14.0623 51.1122 12.2175 49.7059 11.2757C48.3126 10.3468 52.7764 13.5334 53.1893 13.4818C52.9829 13.8043 51.5121 13.5205 51.4089 13.3657" fill="#EF7D00"/>
<path d="M54.0021 9.18567C54.0408 9.21147 56.2856 9.70172 57.0339 9.44369C56.0792 10.7209 54.1698 9.85653 54.1698 9.85653C55.1116 10.1404 55.1503 10.1146 55.447 10.3726C55.5373 10.6306 53.7311 10.5145 53.1248 10.1791C54.8019 10.6951 54.8277 10.6693 54.8793 10.8628C54.9568 11.1467 52.1701 10.7983 51.9121 10.4242C52.6603 11.0047 53.0732 11.108 53.486 11.3789C52.97 11.5982 52.0411 11.8175 50.3252 10.6048C52.5829 12.669 54.6213 12.54 54.9439 12.9012C54.1569 14.0623 51.1122 12.2175 49.7059 11.2757C48.3126 10.3468 52.7764 13.5334 53.1893 13.4818C52.9829 13.8043 51.5121 13.5205 51.4089 13.3657" stroke="black" stroke-width="0.129012" stroke-linejoin="round"/>
</g>
<g id="Vector_15">
<path fill-rule="evenodd" clip-rule="evenodd" d="M54.581 11.3402C54.323 11.3789 53.5489 11.3789 53.4199 11.3531Z" fill="#EF7D00"/>
<path d="M54.581 11.3402C54.323 11.3789 53.5489 11.3789 53.4199 11.3531" stroke="black" stroke-width="0.129012" stroke-linecap="round"/>
</g>
<g id="Vector_16">
<path fill-rule="evenodd" clip-rule="evenodd" d="M37.7578 8.12778C37.7578 8.12778 39.4608 9.03086 40.1832 8.96636C39.9897 9.14698 39.7059 9.22438 39.7059 9.22438C39.8865 9.28889 40.3768 9.55982 41.125 9.3792C40.9573 9.55982 40.7251 9.76624 40.7251 9.76624C40.7251 9.76624 41.3702 10.0114 42.0926 9.63722C41.9686 9.78594 41.8523 9.94096 41.7443 10.1017L42.2604 10.1404" fill="#EF7D00"/>
<path d="M37.7578 8.12778C37.7578 8.12778 39.4608 9.03086 40.1832 8.96636C39.9897 9.14698 39.7059 9.22438 39.7059 9.22438C39.8865 9.28889 40.3768 9.55982 41.125 9.3792C40.9573 9.55982 40.7251 9.76624 40.7251 9.76624C40.7251 9.76624 41.3702 10.0114 42.0926 9.63722C41.9686 9.78594 41.8523 9.94096 41.7443 10.1017L42.2604 10.1404" stroke="black" stroke-width="0.129012" stroke-linecap="round" stroke-linejoin="round"/>
</g>
</g>
</g>
</g>
</g>
<defs>
<clipPath id="clip0_2909_185255">
<path d="M0.246094 32C0.246094 14.3269 14.573 0 32.2461 0V0C49.9192 0 64.2461 14.3269 64.2461 32V32C64.2461 49.6731 49.9192 64 32.2461 64V64C14.573 64 0.246094 49.6731 0.246094 32V32Z" fill="white"/>
</clipPath>
</defs>
</svg>
