<svg width="65" height="64" viewBox="0 0 65 64" fill="none" xmlns="http://www.w3.org/2000/svg">
<g id="Rounded=Zimbabwe (ZW)">
<g clip-path="url(#clip0_2909_185365)">
<g id="Group">
<path id="Vector" d="M0.0585938 0.0125122H127.623V63.9785H0.0585938V0.0125122Z" fill="#006400"/>
<path id="Vector_2" d="M0.0585938 9.15051H127.623V54.8405H0.0585938V9.15051Z" fill="#FFD200"/>
<path id="Vector_3" d="M0.0585938 18.2885H127.623V45.7025H0.0585938V18.2885Z" fill="#D40000"/>
<path id="Vector_4" d="M0.0585938 27.4265H127.623V36.5645H0.0585938V27.4265Z" fill="black"/>
<path id="Vector_5" d="M0.0585938 0.0125122V63.9785L42.5801 31.9955L0.0585938 0.0125122Z" fill="black" stroke="black" stroke-width="3.04162"/>
<path id="Vector_6" d="M0.0585938 0.0125122V63.9785L42.5801 31.9955L0.0585938 0.0125122Z" fill="#F5F5F5"/>
<path id="Vector_7" d="M16.2314 15.9126L24.6598 41.9102L2.60938 25.8426H29.8687L7.80307 41.9102L16.2314 15.9126Z" fill="#D40000"/>
<path id="Vector_8" d="M12.6335 38.651L14.1218 38.3769L16.8705 38.2703L17.8879 38.3617L20.1659 38.7424L20.3329 38.514V36.8691L20.6063 35.4527L21.0619 34.0211L21.563 32.8789L22.2008 31.6909L23.2335 31.9498H23.5069L23.5372 31.7518L21.3504 29.8786L19.0725 28.1271L15.7771 25.6598L15.4733 25.5837L15.1241 22.9946L14.8659 22.2179L14.5166 21.9133L13.8636 21.7L13.1347 21.7305L12.8006 21.9133L12.102 22.0656L11.7375 22.1265L11.4945 22.4159L11.4642 22.7814L12.4816 22.8118L12.7398 22.9184L12.7094 23.0251L12.1324 23.1012L11.859 23.1926L12.1779 23.4363L12.512 23.5581L12.9372 23.7104L13.0283 24.015L13.0587 27.9443L12.8309 28.5535L12.755 29.6958L13.0891 31.0665L12.2387 32.0412L11.7527 32.9093L11.6616 33.4424L11.4034 33.9754L11.373 34.3105L11.5401 34.676L12.1931 36.8387L12.5272 38.6206L12.6335 38.651Z" fill="#FFCC00"/>
<path id="Vector_9" d="M13.4215 21.6391C13.1482 21.6391 13.0267 21.6696 12.7685 21.8066C12.5546 21.9294 12.3158 22.0023 12.07 22.0198C11.6903 22.0198 11.3866 22.294 11.3866 22.6443V22.8727L11.9333 22.8575C13.543 22.9032 12.0852 23.0555 11.9637 23.0707C11.5688 23.1469 12.0548 23.4667 12.5256 23.6342C13.0267 23.7865 12.9963 23.6952 12.9963 25.9187C12.9963 27.7311 12.9963 27.99 12.8445 28.4012C12.647 29.0104 12.647 29.9242 12.8445 30.5334C12.9356 30.7771 12.9963 30.9903 12.9963 31.036C12.9963 31.0665 12.7534 31.3558 12.4648 31.6909C11.9333 32.3001 11.6144 32.9245 11.6144 33.3662C11.5954 33.5083 11.5434 33.644 11.4625 33.7622C11.2651 34.0211 11.2651 34.4628 11.4473 34.6303C11.6448 34.8131 12.4496 37.9504 12.4648 38.5444C12.4648 38.7576 12.4952 38.7576 13.7253 38.5139C14.7276 38.316 17.0814 38.2703 18.2811 38.4226C18.8279 38.4987 19.4657 38.6206 19.6935 38.6662C20.4224 38.8642 20.392 38.8947 20.392 38.0114C20.3976 36.6195 20.6602 35.2408 21.1665 33.9449C21.4567 33.2065 21.8072 32.4933 22.2144 31.8127C22.2144 31.8127 22.4877 31.8432 22.8218 31.9346C23.4445 32.0869 23.6267 32.0717 23.6267 31.7823C23.6267 31.63 22.9737 31.0817 19.7694 28.584C18.477 27.5231 17.1447 26.5121 15.7754 25.5532C15.6843 25.5532 15.5932 25.5075 15.578 25.4466L15.3502 23.9997C15.2439 23.2535 15.092 22.5224 15.0313 22.3701C14.8187 21.9132 14.4087 21.6848 13.7253 21.6391C13.6241 21.6358 13.5228 21.6358 13.4215 21.6391V21.6391ZM13.4367 21.7914H13.7405C14.7428 21.8523 14.925 22.1265 15.1983 23.9236C15.2721 24.399 15.3329 24.8764 15.3806 25.3552C15.3806 25.4771 15.2439 25.6294 14.8946 25.8578C14.3199 26.2622 13.8082 26.7498 13.376 27.3047L13.1786 27.5788L13.133 26.9391V25.142C13.1786 23.817 13.133 23.6951 12.7078 23.5428C12.3585 23.421 11.9029 23.2992 12.0244 23.223C12.1763 23.1316 12.3281 23.1926 12.6926 23.0859C12.8445 23.0555 12.8293 23.0707 12.7989 22.9489C12.7685 22.7509 12.5559 22.6443 11.994 22.6747C11.5385 22.7052 11.4929 22.69 11.5233 22.5681C11.584 22.3245 11.827 22.1721 12.2066 22.1265C12.4391 22.0995 12.6651 22.0325 12.8748 21.9285C13.0444 21.8263 13.239 21.7735 13.4367 21.7762V21.7914ZM15.6995 25.7207H15.7602C16.0184 25.7664 23.4748 31.6148 23.4748 31.7823C23.4748 31.8432 23.4141 31.8889 23.323 31.8889C23.2622 31.8889 21.364 31.3558 19.1164 30.7009C15.5324 29.6348 15.0161 29.4825 14.8642 29.2846C14.7586 29.1507 14.6999 28.9857 14.6971 28.815C14.6944 28.6443 14.7478 28.4775 14.8491 28.3403C14.922 28.2516 14.9739 28.1474 15.0009 28.0357C15.0009 27.8529 14.6213 28.3098 14.5453 28.5687C14.4694 28.8733 14.6213 29.3912 14.8491 29.5587C14.9402 29.6348 15.6236 29.8633 16.3677 30.0917C17.6433 30.4573 17.7344 30.503 17.7952 30.7162C17.9471 31.2188 17.4155 31.8127 16.6562 31.9803C16.3715 32.0486 16.1031 32.1729 15.8665 32.3458C15.0786 33.0002 14.1984 33.534 13.2545 33.9297C13.1938 33.9754 13.1178 34.2191 13.0723 34.4475C12.9811 34.9501 12.9508 35.0263 12.7989 35.0263C12.723 35.0263 12.7078 34.9806 12.7685 34.8131C12.8748 34.5085 12.8597 34.1429 12.7534 34.1429C12.6774 34.1429 12.647 34.2495 12.647 34.4171C12.647 34.5694 12.6015 34.7521 12.5407 34.7978C12.4648 34.8892 12.4496 34.8283 12.48 34.4475C12.5104 34.1886 12.4952 33.9906 12.4648 33.9906C12.3889 33.9906 12.2522 34.3714 12.2066 34.7064C12.1763 34.9044 12.1763 34.9044 12.1155 34.6608C12.07 34.478 12.0852 34.3562 12.2218 34.1277C12.3081 33.9622 12.3598 33.7809 12.3737 33.5947C12.3737 33.3967 12.5256 33.1987 13.2393 32.4829C13.6949 32.0107 14.2568 31.4168 14.4542 31.1578C14.8035 30.7314 14.8187 30.701 14.8035 30.2593C14.8035 30.0156 14.7731 29.7872 14.7428 29.7567C14.6516 29.6653 14.5301 30.1527 14.5909 30.4116C14.6213 30.6553 14.5909 30.7314 14.0897 31.3254C13.7292 31.7393 13.3491 32.1358 12.9508 32.5133C12.3585 33.0616 12.1459 33.3662 12.1459 33.6403C12.1459 33.7317 12.0852 33.9449 11.994 34.1429C11.9029 34.3409 11.8726 34.5389 11.9029 34.5846C11.9333 34.6303 11.9029 34.6303 11.8574 34.5846C11.7814 34.5085 11.7814 34.3866 11.8422 34.1277C11.8769 33.9988 11.8872 33.8645 11.8726 33.7317C11.7966 33.5794 11.6903 33.7622 11.6448 34.1429C11.6144 34.3562 11.5688 34.5237 11.5233 34.4932C11.417 34.4323 11.4473 34.0363 11.584 33.8231C11.6599 33.7165 11.7359 33.4728 11.7814 33.2748C11.8877 32.7113 12.1307 32.2544 12.6622 31.6452C12.8325 31.4594 12.9946 31.2663 13.1482 31.0665L12.9963 30.5639C12.7927 29.8848 12.7821 29.1621 12.966 28.4774C13.1634 27.8986 13.5582 27.3199 14.1809 26.6955C14.7883 26.1015 15.3806 25.736 15.6995 25.7207V25.7207ZM17.9774 30.6248C17.9966 30.6234 18.016 30.6247 18.0344 30.6286C18.0528 30.6326 18.0697 30.6391 18.084 30.6477C18.0984 30.6563 18.1098 30.6669 18.1176 30.6787C18.1254 30.6905 18.1294 30.7033 18.1293 30.7162C18.12 30.7341 18.1025 30.7496 18.0794 30.7606C18.0563 30.7716 18.0286 30.7775 18.0002 30.7775C17.9718 30.7775 17.9441 30.7716 17.921 30.7606C17.8979 30.7496 17.8804 30.7341 17.8711 30.7162C17.8703 30.6951 17.8805 30.6745 17.8999 30.6578C17.9192 30.6411 17.9466 30.6295 17.9774 30.6248V30.6248ZM18.3571 30.6705C18.3763 30.6691 18.3957 30.6704 18.4141 30.6743C18.4324 30.6782 18.4494 30.6847 18.4637 30.6934C18.478 30.702 18.4895 30.7126 18.4973 30.7244C18.5051 30.7362 18.5091 30.749 18.5089 30.7619C18.4996 30.7798 18.4822 30.7953 18.459 30.8063C18.4359 30.8173 18.4082 30.8232 18.3799 30.8232C18.3515 30.8232 18.3238 30.8173 18.3007 30.8063C18.2775 30.7953 18.2601 30.7798 18.2508 30.7619C18.25 30.7408 18.2601 30.7201 18.2795 30.7035C18.2989 30.6868 18.3263 30.6752 18.3571 30.6705V30.6705ZM18.7519 30.7466C18.7711 30.7452 18.7905 30.7465 18.8089 30.7504C18.8273 30.7544 18.8442 30.7609 18.8585 30.7695C18.8729 30.7782 18.8843 30.7887 18.8921 30.8005C18.8999 30.8123 18.9039 30.8251 18.9038 30.838C18.8945 30.8559 18.877 30.8715 18.8539 30.8825C18.8308 30.8935 18.8031 30.8994 18.7747 30.8994C18.7463 30.8994 18.7186 30.8935 18.6955 30.8825C18.6724 30.8715 18.6549 30.8559 18.6456 30.838C18.6448 30.8169 18.655 30.7963 18.6744 30.7796C18.6937 30.763 18.7211 30.7513 18.7519 30.7466V30.7466ZM19.1164 30.8228C19.1356 30.8214 19.155 30.8227 19.1734 30.8266C19.1917 30.8305 19.2087 30.837 19.223 30.8457C19.2374 30.8543 19.2488 30.8649 19.2566 30.8767C19.2644 30.8885 19.2684 30.9013 19.2683 30.9142C19.2589 30.9321 19.2415 30.9476 19.2184 30.9586C19.1952 30.9696 19.1675 30.9755 19.1392 30.9755C19.1108 30.9755 19.0831 30.9696 19.06 30.9586C19.0369 30.9476 19.0194 30.9321 19.0101 30.9142C19.0093 30.8931 19.0195 30.8724 19.0388 30.8558C19.0582 30.8391 19.0856 30.8275 19.1164 30.8228ZM18.1597 30.9142C18.1788 30.9127 18.1983 30.914 18.2166 30.918C18.235 30.9219 18.2519 30.9284 18.2663 30.9371C18.2806 30.9457 18.2921 30.9563 18.2999 30.9681C18.3077 30.9799 18.3116 30.9926 18.3115 31.0055C18.3022 31.0235 18.2848 31.039 18.2616 31.05C18.2385 31.061 18.2108 31.0669 18.1824 31.0669C18.1541 31.0669 18.1264 31.061 18.1033 31.05C18.0801 31.039 18.0627 31.0235 18.0534 31.0055C18.0526 30.9845 18.0627 30.9638 18.0821 30.9472C18.1015 30.9305 18.1289 30.9189 18.1597 30.9142ZM18.5241 30.9751C18.5433 30.9737 18.5627 30.975 18.5811 30.9789C18.5995 30.9828 18.6164 30.9893 18.6307 30.998C18.6451 31.0066 18.6565 31.0172 18.6643 31.029C18.6721 31.0408 18.6761 31.0536 18.676 31.0665C18.6667 31.0844 18.6492 31.0999 18.6261 31.1109C18.603 31.1219 18.5753 31.1278 18.5469 31.1278C18.5185 31.1278 18.4909 31.1219 18.4677 31.1109C18.4446 31.0999 18.4272 31.0844 18.4178 31.0665C18.417 31.0454 18.4272 31.0247 18.4466 31.0081C18.4659 30.9914 18.4934 30.9798 18.5241 30.9751V30.9751ZM19.3138 31.0055C19.333 31.0041 19.3524 31.0054 19.3708 31.0094C19.3892 31.0133 19.4061 31.0198 19.4204 31.0284C19.4348 31.0371 19.4462 31.0476 19.454 31.0594C19.4618 31.0713 19.4658 31.084 19.4657 31.0969C19.4563 31.1149 19.4389 31.1304 19.4158 31.1414C19.3926 31.1524 19.365 31.1583 19.3366 31.1583C19.3082 31.1583 19.2805 31.1524 19.2574 31.1414C19.2343 31.1304 19.2168 31.1149 19.2075 31.0969C19.2067 31.0758 19.2169 31.0552 19.2363 31.0385C19.2556 31.0219 19.283 31.0102 19.3138 31.0055ZM18.9038 31.0055C18.923 31.0041 18.9424 31.0054 18.9608 31.0094C18.9791 31.0133 18.9961 31.0198 19.0104 31.0284C19.0248 31.0371 19.0362 31.0476 19.044 31.0594C19.0518 31.0713 19.0558 31.084 19.0556 31.0969C19.0463 31.1149 19.0289 31.1304 19.0057 31.1414C18.9826 31.1524 18.9549 31.1583 18.9266 31.1583C18.8982 31.1583 18.8705 31.1524 18.8474 31.1414C18.8242 31.1304 18.8068 31.1149 18.7975 31.0969C18.7967 31.0758 18.8069 31.0552 18.8262 31.0385C18.8456 31.0219 18.873 31.0102 18.9038 31.0055V31.0055ZM19.6631 31.0969C19.6783 31.0969 20.225 31.2188 20.878 31.4015L22.0777 31.7518L21.8499 32.163C21.7226 32.3832 21.6011 32.6066 21.4854 32.8332C21.3336 33.1378 21.3032 33.1377 20.5743 32.9702C19.7846 32.7875 18.5393 32.6199 17.2637 32.5133L16.0488 32.4067L16.5044 32.2392C16.7794 32.133 17.0482 32.0109 17.3092 31.8737C17.613 31.7061 17.7344 31.6757 18.2052 31.7214C18.8886 31.767 19.3442 31.63 19.5264 31.3558L19.6783 31.0969H19.6631ZM18.3267 31.1883C18.3459 31.1869 18.3653 31.1882 18.3837 31.1921C18.4021 31.1961 18.419 31.2026 18.4333 31.2112C18.4477 31.2198 18.4591 31.2304 18.4669 31.2422C18.4747 31.254 18.4787 31.2668 18.4786 31.2797C18.4692 31.2976 18.4518 31.3131 18.4287 31.3241C18.4055 31.3351 18.3779 31.341 18.3495 31.341C18.3211 31.341 18.2934 31.3351 18.2703 31.3241C18.2472 31.3131 18.2297 31.2976 18.2204 31.2797C18.2196 31.2586 18.2298 31.238 18.2492 31.2213C18.2685 31.2047 18.2959 31.193 18.3267 31.1883V31.1883ZM19.1771 31.1883C19.1963 31.1869 19.2157 31.1882 19.2341 31.1921C19.2525 31.1961 19.2694 31.2026 19.2838 31.2112C19.2981 31.2198 19.3096 31.2304 19.3174 31.2422C19.3251 31.254 19.3291 31.2668 19.329 31.2797C19.3175 31.2946 19.3001 31.3071 19.2787 31.3159C19.2572 31.3246 19.2326 31.3292 19.2075 31.3292C19.1824 31.3292 19.1578 31.3246 19.1364 31.3159C19.1149 31.3071 19.0975 31.2946 19.086 31.2797C19.0852 31.2586 19.0954 31.238 19.1148 31.2213C19.1341 31.2047 19.1615 31.193 19.1923 31.1883H19.1771ZM17.9622 31.1883C17.9814 31.1869 18.0008 31.1882 18.0192 31.1921C18.0376 31.1961 18.0545 31.2026 18.0689 31.2112C18.0832 31.2198 18.0947 31.2304 18.1025 31.2422C18.1102 31.254 18.1142 31.2668 18.1141 31.2797C18.1048 31.2976 18.0873 31.3131 18.0642 31.3241C18.0411 31.3351 18.0134 31.341 17.985 31.341C17.9566 31.341 17.929 31.3351 17.9058 31.3241C17.8827 31.3131 17.8653 31.2976 17.8559 31.2797C17.8599 31.2613 17.8723 31.2441 17.8913 31.2305C17.9103 31.2169 17.935 31.2075 17.9622 31.2035V31.1883ZM18.7671 31.2188C18.8022 31.2158 18.8377 31.2221 18.866 31.2363C18.8944 31.2505 18.9133 31.2715 18.919 31.2949C18.9096 31.3128 18.8922 31.3284 18.8691 31.3394C18.8459 31.3504 18.8183 31.3563 18.7899 31.3563C18.7615 31.3563 18.7338 31.3504 18.7107 31.3394C18.6876 31.3284 18.6701 31.3128 18.6608 31.2949C18.6648 31.2765 18.6771 31.2593 18.6961 31.2457C18.7151 31.2321 18.7399 31.2227 18.7671 31.2188ZM17.7648 31.3863C17.784 31.3849 17.8034 31.3862 17.8218 31.3901C17.8402 31.3941 17.8571 31.4006 17.8714 31.4092C17.8858 31.4178 17.8972 31.4284 17.905 31.4402C17.9128 31.452 17.9168 31.4648 17.9167 31.4777C17.9073 31.4956 17.8899 31.5111 17.8668 31.5221C17.8436 31.5331 17.816 31.539 17.7876 31.539C17.7592 31.539 17.7315 31.5331 17.7084 31.5221C17.6853 31.5111 17.6678 31.4956 17.6585 31.4777C17.6577 31.4566 17.6679 31.436 17.6873 31.4193C17.7066 31.4026 17.734 31.391 17.7648 31.3863V31.3863ZM18.1445 31.3863C18.1657 31.3845 18.1873 31.386 18.2075 31.3908C18.2277 31.3956 18.2459 31.4035 18.2607 31.4139C18.2755 31.4243 18.2864 31.4369 18.2926 31.4506C18.2988 31.4643 18.3001 31.4788 18.2963 31.4929C18.287 31.5108 18.2696 31.5264 18.2464 31.5374C18.2233 31.5483 18.1956 31.5543 18.1673 31.5543C18.1389 31.5543 18.1112 31.5483 18.0881 31.5374C18.0649 31.5264 18.0475 31.5108 18.0382 31.4929C18.0374 31.4718 18.0475 31.4512 18.0669 31.4345C18.0863 31.4179 18.1137 31.4062 18.1445 31.4015V31.3863ZM18.5393 31.4168C18.5744 31.4138 18.6099 31.4201 18.6382 31.4343C18.6666 31.4485 18.6855 31.4695 18.6912 31.4929C18.6818 31.5108 18.6644 31.5264 18.6413 31.5374C18.6181 31.5483 18.5905 31.5543 18.5621 31.5543C18.5337 31.5543 18.506 31.5483 18.4829 31.5374C18.4598 31.5264 18.4423 31.5108 18.433 31.4929C18.437 31.4745 18.4493 31.4573 18.4683 31.4437C18.4873 31.4301 18.5121 31.4207 18.5393 31.4168ZM18.9645 31.4168C18.9837 31.4153 19.0031 31.4166 19.0215 31.4206C19.0399 31.4245 19.0568 31.431 19.0711 31.4397C19.0855 31.4483 19.0969 31.4589 19.1047 31.4707C19.1125 31.4825 19.1165 31.4952 19.1164 31.5081C19.1071 31.5261 19.0896 31.5416 19.0665 31.5526C19.0434 31.5636 19.0157 31.5695 18.9873 31.5695C18.9589 31.5695 18.9313 31.5636 18.9081 31.5526C18.885 31.5416 18.8676 31.5261 18.8582 31.5081C18.8574 31.487 18.8676 31.4664 18.887 31.4498C18.9064 31.4331 18.9338 31.4214 18.9645 31.4168V31.4168ZM15.8817 32.6504C17.6744 32.6981 19.4588 32.9122 21.2121 33.2901C21.2273 33.3053 21.121 33.6708 20.9539 34.1125L20.6502 35.0263C20.635 35.1024 20.5287 35.1024 20.2705 35.072C19.0101 34.874 15.3654 34.8892 13.9683 35.1024C13.1634 35.2243 13.0571 35.209 13.1178 35.0415L13.2697 34.5085L13.3608 34.0972L14.1809 33.6708C14.7275 33.3911 15.2462 33.0596 15.7299 32.6809H15.8665L15.8817 32.6504ZM11.7814 34.8131C11.827 34.8131 11.9181 34.8587 12.0244 34.9349C12.1763 35.0263 12.3585 35.1024 12.4344 35.1024C12.8293 35.1024 13.0419 35.6659 13.376 37.5392L13.4975 38.2093C13.5279 38.3616 13.4975 38.3921 13.1482 38.4683C12.723 38.5596 12.6167 38.5749 12.6167 38.5139C12.6167 38.3616 12.1915 36.4274 12.0092 35.7421C11.9185 35.4402 11.8375 35.1354 11.7662 34.8283C11.7686 34.8269 11.7712 34.8262 11.7738 34.8262C11.7765 34.8262 11.7791 34.8269 11.7814 34.8283V34.8131ZM16.1247 35.1177H16.5651L16.4132 35.27C16.1551 35.5746 16.0336 35.5898 15.8513 35.3918C15.7873 35.3255 15.7359 35.2481 15.6995 35.1633C15.6995 35.1329 15.8969 35.1024 16.1247 35.1024V35.1177ZM17.0511 35.1177H17.8711L17.6889 35.3004C17.4763 35.5441 17.4611 35.5441 17.2333 35.3004L17.0511 35.1024V35.1177ZM18.2963 35.1177H18.4938C18.6001 35.1177 18.7975 35.1176 18.919 35.1481L19.1468 35.1938L18.9342 35.3918C18.8127 35.4984 18.7064 35.5898 18.6912 35.5746L18.4786 35.3309L18.2963 35.1024V35.1177ZM19.5872 35.1633L19.7694 35.209C19.8757 35.2395 20.1035 35.2547 20.2705 35.27H20.5743L20.3465 35.4679C20.264 35.5451 20.1721 35.6116 20.0731 35.6659C20.0579 35.6659 19.9213 35.5441 19.815 35.407L19.5872 35.1633V35.1633ZM15.0009 35.1786H15.0313C15.0465 35.209 14.9857 35.3309 14.8794 35.4375L14.7276 35.6507L14.4998 35.4679L14.272 35.27L14.6364 35.2243L15.0009 35.1786V35.1786ZM15.3502 35.209L15.5932 35.4223L15.8362 35.6507L15.3806 35.6812L14.925 35.6964L15.1376 35.4679L15.3502 35.209ZM18.0837 35.209C18.1293 35.209 18.1597 35.2243 18.2052 35.2547C18.2846 35.3297 18.3513 35.4171 18.4026 35.5136C18.4634 35.6355 18.4482 35.6659 18.2508 35.6659L17.8711 35.5898L17.6889 35.5441L17.8863 35.3461C17.9774 35.2547 18.0382 35.1938 18.0989 35.1938L18.0837 35.209ZM16.8233 35.209C16.8992 35.209 16.9751 35.2547 17.0662 35.407C17.1726 35.5745 17.1726 35.5746 16.7625 35.5746H16.3525L16.5651 35.3766C16.6714 35.2699 16.7625 35.2243 16.8233 35.2243V35.209ZM19.4049 35.2395L19.5872 35.4223C19.7998 35.6202 19.8301 35.7421 19.6783 35.7269L19.2531 35.6812L18.919 35.6507L19.162 35.4527L19.4049 35.2395V35.2395ZM14.0594 35.3461C14.0897 35.3461 14.2112 35.4222 14.3024 35.5289L14.4846 35.7269L14.1049 35.7878L13.5734 35.8639C13.4671 35.8944 13.4975 35.8182 13.7253 35.6202C13.8771 35.4679 14.029 35.3461 14.0594 35.3461ZM13.4975 35.3461H13.5582C13.6797 35.3766 13.6797 35.407 13.4671 35.6202L13.2393 35.8487L13.1634 35.6507C13.1026 35.4984 13.1178 35.4527 13.2545 35.3918C13.3323 35.3628 13.4145 35.3473 13.4975 35.3461V35.3461ZM20.4832 35.6202C20.5135 35.6202 20.5135 35.6507 20.4832 35.7116C20.4528 35.8335 20.3161 35.8639 20.3161 35.7421C20.3161 35.7116 20.3617 35.6659 20.4224 35.6355H20.468L20.4832 35.6202ZM17.2333 35.8639C18.4026 35.8639 19.5872 35.8944 19.8757 35.9248C20.3465 35.9858 20.392 36.001 20.392 36.1838C20.392 36.397 20.3313 36.4122 19.6935 36.3056C19.5112 36.2599 18.7367 36.199 17.9926 36.1381C16.5484 36.0505 15.0991 36.1015 13.6645 36.2904C13.376 36.3208 13.3001 36.2904 13.3001 36.199C13.3001 36.001 14.8491 35.8639 17.2333 35.8639V35.8639ZM15.6691 36.3056H16.4892L16.3069 36.5036C16.0791 36.7473 16.064 36.7473 15.8513 36.5036L15.6691 36.3056ZM16.7322 36.3056L16.9448 36.5188L17.1574 36.7625L16.717 36.7777H16.2766L16.5044 36.534L16.717 36.3056H16.7322ZM17.0511 36.3056H17.8711L17.6889 36.5036C17.4763 36.7473 17.4611 36.7473 17.2333 36.5036L17.0511 36.3056ZM15.1072 36.3056C15.1376 36.3056 15.1072 36.3817 15.0009 36.534C14.8946 36.6711 14.7883 36.7777 14.7731 36.7777C14.7428 36.7777 14.6364 36.6863 14.5453 36.5797L14.3631 36.3817H14.6364C14.7754 36.3825 14.9137 36.3619 15.0465 36.3208C15.0665 36.3167 15.0872 36.3167 15.1072 36.3208V36.3056ZM15.4109 36.3817L15.6084 36.5645L15.8362 36.7625L15.4413 36.793L15.0009 36.8234L15.2135 36.595L15.4109 36.3817V36.3817ZM18.0534 36.3817L18.266 36.6254C18.5089 36.8843 18.4938 36.8996 17.9471 36.793L17.6889 36.7473L17.8711 36.5645L18.0534 36.3817V36.3817ZM18.3571 36.3817H18.7215C19.1164 36.3817 19.162 36.4427 18.9342 36.6559C18.7519 36.8082 18.7519 36.8082 18.5393 36.5797L18.3571 36.3817V36.3817ZM13.7101 36.4579C13.8923 36.4579 13.8771 36.4731 13.6493 36.7016C13.4823 36.8691 13.4671 36.8691 13.4064 36.7473C13.3608 36.595 13.4975 36.4731 13.7101 36.4579ZM19.6024 36.4884C19.6631 36.4884 19.7846 36.4883 19.9061 36.5188L20.2554 36.5797L20.0579 36.7625L19.8757 36.9453L19.7087 36.732L19.5568 36.4884H19.6024V36.4884ZM14.1353 36.5645C14.1809 36.5645 14.2264 36.595 14.3024 36.6711C14.4542 36.8234 14.4542 36.8234 14.3327 36.8843C14.215 36.9232 14.0921 36.9437 13.9683 36.9453H13.7253L13.9227 36.732C14.029 36.6254 14.0746 36.5797 14.1201 36.5645H14.1353ZM19.3138 36.6102C19.3746 36.6102 19.4201 36.6407 19.496 36.7625L19.6327 36.9453H19.3138C19.1012 36.9453 19.0101 36.9148 19.0101 36.8539C19.0405 36.7929 19.1164 36.7016 19.2075 36.6559L19.3138 36.6102V36.6102ZM20.2857 36.8082C20.3161 36.8082 20.3161 36.8386 20.3161 36.8843C20.3161 37.0366 20.1794 37.1432 20.1187 37.0366C20.1035 36.9909 20.1339 36.9148 20.1946 36.8691L20.2857 36.8082V36.8082ZM16.3525 36.9909C17.6737 36.9909 19.1316 37.0823 19.9972 37.2346L20.2402 37.2803V37.9504C20.2402 38.453 20.2098 38.6206 20.1339 38.6206L19.3746 38.4683C17.6185 38.1696 15.8295 38.1184 14.0594 38.316L13.7101 38.3616L13.619 37.7981C13.5812 37.6075 13.5609 37.4138 13.5582 37.2194C13.5582 37.2194 13.9075 37.1432 14.3175 37.0976C14.8187 37.0214 15.5628 36.9909 16.3525 36.9909V36.9909Z" fill="black"/>
<path id="b" d="M19.0108 33.1834C18.5552 33.1834 18.2363 33.5033 18.2363 33.9754C18.2363 34.7064 19.0564 35.072 19.5423 34.5541C20.0283 34.0363 19.6942 33.1834 19.0108 33.1834V33.1834ZM19.0108 33.3662C19.0906 33.3662 19.1696 33.382 19.2433 33.4126C19.317 33.4432 19.384 33.4881 19.4404 33.5446C19.4968 33.6012 19.5415 33.6684 19.572 33.7423C19.6026 33.8162 19.6183 33.8954 19.6183 33.9754C19.6183 34.4323 19.1171 34.7369 18.7071 34.5389C18.2971 34.3105 18.3274 33.6099 18.7678 33.4271C18.8395 33.3931 18.9167 33.3725 18.9956 33.3662H19.0108Z" fill="black"/>
<path id="Vector_10" d="M19.0108 33.1834C18.5552 33.1834 18.2363 33.5033 18.2363 33.9754C18.2363 34.7064 19.0564 35.072 19.5423 34.5541C20.0283 34.0363 19.6942 33.1834 19.0108 33.1834V33.1834ZM19.0108 33.3662C19.0906 33.3662 19.1696 33.382 19.2433 33.4126C19.317 33.4432 19.384 33.4881 19.4404 33.5446C19.4968 33.6012 19.5415 33.6684 19.572 33.7423C19.6026 33.8162 19.6183 33.8954 19.6183 33.9754C19.6183 34.4323 19.1171 34.7369 18.7071 34.5389C18.2971 34.3105 18.3274 33.6099 18.7678 33.4271C18.8395 33.3931 18.9167 33.3725 18.9956 33.3662H19.0108Z" fill="black"/>
<path id="Vector_11" d="M13.4227 22.1417C13.3593 22.1456 13.2994 22.1741 13.2546 22.2219C13.2098 22.2697 13.1831 22.3333 13.1797 22.4006C13.1797 22.4755 13.2077 22.5472 13.2575 22.6002C13.3074 22.6531 13.375 22.6828 13.4454 22.6828C13.5159 22.6828 13.5835 22.6531 13.6334 22.6002C13.6832 22.5472 13.7112 22.4755 13.7112 22.4006C13.7095 22.363 13.7005 22.3262 13.6848 22.2925C13.6691 22.2588 13.647 22.2288 13.62 22.2045C13.5929 22.1802 13.5614 22.1621 13.5275 22.1513C13.4935 22.1405 13.4579 22.1372 13.4227 22.1417V22.1417ZM13.4379 22.2331C13.4862 22.2331 13.5325 22.2507 13.5667 22.2822C13.6009 22.3136 13.6201 22.3562 13.6201 22.4006C13.6201 22.4451 13.6009 22.4877 13.5667 22.5191C13.5325 22.5505 13.4862 22.5682 13.4379 22.5682C13.3895 22.5682 13.3432 22.5505 13.309 22.5191C13.2748 22.4877 13.2556 22.4451 13.2556 22.4006C13.2556 22.3786 13.2603 22.3568 13.2695 22.3365C13.2786 22.3162 13.2921 22.2977 13.309 22.2822C13.3259 22.2666 13.346 22.2543 13.3681 22.2458C13.3902 22.2374 13.4139 22.2331 13.4379 22.2331Z" fill="black"/>
</g>
</g>
</g>
<defs>
<clipPath id="clip0_2909_185365">
<path d="M0.246094 32C0.246094 14.3269 14.573 0 32.2461 0V0C49.9192 0 64.2461 14.3269 64.2461 32V32C64.2461 49.6731 49.9192 64 32.2461 64V64C14.573 64 0.246094 49.6731 0.246094 32V32Z" fill="white"/>
</clipPath>
</defs>
</svg>
