<svg width="65" height="64" viewBox="0 0 65 64" fill="none" xmlns="http://www.w3.org/2000/svg">
<g id="Rounded=Ascension Island (AC)">
<g clip-path="url(#clip0_2909_185390)">
<path id="Vector" d="M64.2461 64V0H0.246094V64H64.2461Z" fill="#000066"/>
<path id="Vector_2" d="M59.1336 27.425C59.1336 34.65 57.9836 42.45 48.5836 46.175C39.2336 42.45 38.0836 34.65 38.0336 27.425H59.1336Z" fill="#8FC5FF" stroke="#F5F5F5" stroke-width="0.443326"/>
<path id="Vector_3" d="M48.5836 46.125C52.1453 44.8799 55.1171 42.3537 56.9211 39.0375H56.0336C55.7711 39 47.0336 38.1625 45.9711 37.7125C45.0961 37.4 41.6211 38.025 40.0336 38.5875C41.7847 42.1269 44.8547 44.8378 48.5836 46.1375V46.125Z" fill="#366CC9" stroke="black" stroke-width="0.443326"/>
<path id="Vector_4" d="M42.0211 41.7H42.5586C42.6836 41.7 42.6836 41.7 42.7336 41.575C42.7836 41.4375 42.9086 41.475 42.9961 41.525C43.0836 41.5625 43.2711 41.525 43.3586 41.4375C43.4461 41.35 43.4461 41.35 43.5336 41.4375C43.6211 41.525 43.6586 41.475 43.7586 41.4375C43.7961 41.4375 43.9711 41.35 44.0086 41.2125C44.0586 41.0875 44.1961 41.0375 44.2461 41.125C44.2836 41.2125 44.3711 41.2125 44.4586 41.2125C44.5586 41.2125 44.5586 41.2625 44.5586 41.3875C44.5586 41.475 44.5586 41.5125 44.7711 41.35C44.9461 41.525 44.9961 41.4375 44.9961 41.2625C44.9961 41.075 44.9961 40.375 44.9086 40.325C44.8211 40.2875 44.7836 39.975 44.7336 39.75C44.7336 39.3125 44.7336 39.3125 44.2836 39.0875C44.2836 38.9625 44.1961 38.9125 43.8461 38.9125C43.8836 38.8625 43.8461 38.725 43.7586 38.6875C43.6711 38.6375 43.6711 38.6 43.7586 38.425C43.8461 38.425 44.0086 38.425 44.0586 38.2875C44.1586 38.2 44.4211 38.2 44.5961 38.2875C44.7711 38.375 44.9461 38.375 45.2586 38.2875L45.7961 38.025C46.0211 37.9 46.0586 37.85 46.0586 37.6625C46.0586 37.225 45.9336 36.7875 45.8336 36.5625C45.7086 36.3375 45.7086 36.1125 45.5336 35.7125C45.3461 35.3625 45.3461 35.275 45.1711 35.05C45.0836 34.9625 45.0461 34.925 45.0461 34.7875C45.0332 34.6137 44.9524 34.4521 44.8211 34.3375C44.4586 34.0375 44.3711 33.0125 44.1961 32.2625C44.1086 31.8125 44.1961 30.8 44.0211 30.6125C43.7086 30.4 43.5711 30.4375 43.3586 30.3625C43.1836 30.125 43.1336 29.7375 42.9586 29.3375C42.7336 29.375 42.5961 29.5875 42.4586 29.6875C42.3336 29.775 42.2961 29.775 42.2961 30C42.2961 30.175 42.1586 30.4375 41.9836 30.8C41.8086 31.15 41.4086 31.0125 41.0961 31.5C40.4711 30.75 40.4711 30.525 40.4336 30.3125C40.4336 30.0875 40.2961 30.0375 39.9336 29.725V29.0625C39.6336 28.85 39.4586 28.8875 39.3211 29.0625C39.1961 29.1875 39.0961 29.425 38.8836 29.5125C38.7836 29.6875 38.4336 30.0375 38.1711 30.525C38.4336 34.525 39.3211 38.5125 42.0211 41.7V41.7Z" fill="#5D3100" stroke="black" stroke-width="0.05"/>
<path id="Vector_5" d="M59.1336 27.425C59.1336 24.675 59.0086 22.0125 59.0461 19.7125C55.7114 18.4172 52.1608 17.7681 48.5836 17.8C46.2336 17.8 41.6211 18.1625 38.1211 19.7125C38.2086 22.0125 38.0336 24.675 38.0336 27.425H59.1336Z" fill="#FFFF00" stroke="#F5F5F5" stroke-width="0.443326"/>
<path id="Vector_6" d="M38.6211 30.5625C38.7336 30.75 38.9461 31.0625 38.9586 31.2375C39.0586 31.075 39.1086 30.9875 39.1211 30.9C39.1461 30.8 39.2711 30.5875 39.2211 30.4875C39.1586 30.375 39.1461 30.2875 39.2711 30.3625C39.3961 30.45 39.3711 30.5875 39.3461 30.7875C39.2711 31.35 39.0336 31.475 38.9961 31.8625C39.3336 32.65 39.0836 32.9375 39.4461 33.725C39.5086 33.7625 39.6586 33.7 39.7086 33.725C39.9086 33.575 40.0461 33.625 40.3336 33.675C40.5961 33.7375 40.7461 33.925 40.7461 34.1125C40.7461 34.2875 40.7461 34.325 40.8086 34.425C40.8711 34.55 40.9961 34.7 40.9586 34.8C40.9336 34.925 40.9836 34.9875 41.0211 35.05C41.0586 35.1125 41.0086 35.225 40.9711 35.3125C40.9336 35.4125 40.9461 35.5 41.0961 35.6875C41.2211 35.85 41.5461 36.5625 41.5461 37C41.5461 37.4125 41.5711 37.625 41.7461 37.7C41.9211 37.7875 41.9836 37.85 41.9461 38.0375C41.9571 38.4686 41.9947 38.8986 42.0586 39.325C42.0836 39.475 42.1336 39.45 42.1961 39.525C42.2711 39.6 42.3211 39.7 42.5461 39.7C42.7961 39.7 42.9961 39.6625 43.1586 39.7C43.3586 39.975 43.4836 40.3625 43.5336 40.6125C43.5711 40.8625 43.5711 41.1875 43.6586 41.1875C43.7336 41.1875 43.8211 41.1875 43.7836 40.9C43.7586 40.6 43.7461 40.55 43.6461 40.4C43.5336 40.25 43.4836 40.175 43.5336 40.0875C43.5961 40 43.6086 39.8375 43.5836 39.725C43.5586 39.6125 43.5336 39.4375 43.7211 39.6625L44.0461 40.0375C44.1086 40.125 44.1211 40.2625 44.1086 40.4125C44.0961 40.5375 44.1211 40.6 44.1961 40.5375C44.2836 40.4625 44.3836 40.5875 44.3336 40.7375C44.2961 40.8875 44.3336 40.9875 44.4836 41.025C44.6336 41.0625 44.6836 41.1 44.7086 41.2C44.7336 41.3 44.8711 41.35 44.8711 41.15C44.8711 40.9375 44.7836 40.5 44.7336 40.3625C44.6711 40.225 44.6211 39.925 44.6086 39.7375C44.6086 39.575 44.5711 39.5375 44.4836 39.4875C44.4086 39.4625 44.3336 39.4125 44.3211 39.3125C44.3211 39.225 44.2336 39.225 44.1961 39.225C44.1461 39.225 44.0961 39.175 44.0711 39.125C44.0461 39.0625 44.0086 39.0625 43.9461 39.05C43.8961 39.05 43.7961 39.075 43.7711 38.9875C43.7461 38.9 43.6961 38.7625 43.6461 38.6875C43.5961 38.6 43.5336 38.5875 43.5211 38.3125C43.5211 38.0625 43.5211 38.0375 43.4336 37.9375C43.329 37.8002 43.2369 37.6538 43.1586 37.5C43.1086 37.4125 43.0336 37.3 43.0336 37.5125C43.0336 37.725 43.0336 37.85 43.1836 37.925C43.3211 38.0125 43.3586 38.0125 43.2961 38.125C43.2336 38.2375 43.2961 38.325 43.3211 38.4C43.3461 38.4875 43.3961 38.5625 43.3211 38.65C43.2461 38.725 43.1836 38.7 43.1961 38.575C43.2019 38.4443 43.1716 38.3146 43.1086 38.2C43.0461 38.0875 42.9961 38.0125 42.9336 38.075C42.8586 38.1375 42.8086 38.075 42.8461 38.025C42.8961 37.9875 42.8836 37.9375 42.8461 37.9C42.8086 37.8875 42.8086 37.8375 42.8711 37.775C42.9336 37.7 42.9211 37.6625 42.8836 37.5C42.8461 37.35 42.5961 36.5375 42.4836 36.35C42.3586 36.1625 42.3836 36.025 42.5211 36.225C42.6711 36.4 42.8086 36.55 42.8086 36.7125C42.8336 36.8625 42.8711 36.9625 42.8961 37.0125C42.9336 37.075 42.9961 37.0375 43.0086 36.925C43.0211 36.8 43.1336 36.8375 42.9586 36.5875C42.8086 36.35 42.5086 35.95 42.3961 35.2125C42.2711 34.4875 42.2336 34.0125 42.1086 33.825C41.9961 33.625 41.9586 33.575 41.9461 33.3875C41.9461 33.2 41.9461 33.0125 41.8586 32.8875C41.7711 32.7625 41.7336 32.725 41.7211 32.9375C41.7058 33.1892 41.7268 33.4418 41.7836 33.6875C41.8461 33.7625 41.8211 33.9625 41.7961 34.0875C41.7836 34.2 41.6086 34.3125 41.9836 34.55C42.1336 34.6375 42.1086 34.7625 42.0836 34.8375C42.0711 34.925 42.0461 34.9125 41.9586 34.7875C41.8836 34.6625 41.7961 34.5625 41.7086 34.4875C41.6336 34.4125 41.6336 34.3625 41.6336 34.2125C41.6461 34.0625 41.6836 33.9375 41.6336 33.875C41.5961 33.825 41.5711 33.875 41.5461 33.9625C41.5211 34.05 41.5086 34.3 41.4586 34.3625C41.4086 34.425 41.3836 34.4 41.3461 34.2375C41.3086 34.0875 41.3586 33.8625 41.4336 33.6C41.5211 33.325 41.5711 33.0625 41.5086 32.7125C41.4336 32.3625 41.4711 32.2625 41.1961 31.9625C40.9336 31.6875 40.6461 31.4125 40.5086 31.05C40.3836 30.6875 40.3586 30.3875 40.2211 30.225C40.0917 30.0585 39.9354 29.9149 39.7586 29.8V29.25C39.7586 29.125 39.6961 29.05 39.5586 29.075C39.4086 29.1 39.3086 29.2125 39.2211 29.4C39.1336 29.5625 39.0586 29.4875 38.9336 29.775C38.7961 30.075 38.6211 30.225 38.6211 30.55V30.5625Z" fill="#CF6200"/>
<path id="Vector_7" d="M39.4586 33.95C39.5461 34.0125 39.6336 34.0375 39.7711 33.975C39.8961 33.9125 40.0711 33.7 40.2711 33.9C40.4475 34.1199 40.5444 34.393 40.5461 34.675C40.5461 34.925 40.5461 35.4 40.8336 35.6625C41.1211 35.925 41.2836 36.2 41.2836 36.55C41.2961 36.9 41.4211 37.425 41.4711 37.575C41.4961 37.7 41.5711 37.8625 41.6586 37.95C41.7586 38.05 41.8211 38.325 41.8461 38.575C41.8461 38.875 41.8086 39.075 41.8461 39.2C41.8836 39.325 41.8461 39.45 41.7336 39.375C41.6336 39.3125 41.6086 39.2875 41.5586 39.1625C41.5086 39.0375 41.4211 39.075 41.4836 39.25C41.5461 39.4375 41.7086 39.575 41.8586 39.575C42.0086 39.575 42.0586 39.6 42.1461 39.7C42.2336 39.7875 42.2586 39.8375 42.4211 39.8375C42.5836 39.8375 42.5961 39.8375 42.7461 39.8875C42.8961 39.925 42.8961 39.9 42.9836 39.8875C43.0586 39.8625 43.1461 39.925 43.1961 40.075C43.2461 40.2375 43.3961 40.65 43.3961 40.75C43.3961 40.8625 43.3961 40.9875 43.4711 41.1C43.5586 41.225 43.5336 41.3375 43.4336 41.2625C43.3461 41.1875 43.3461 41.225 43.2836 41.225C43.2086 41.2375 43.1586 41.2125 43.0711 41.15C42.9836 41.0875 43.0336 41.1 42.9461 40.9625C42.8586 40.8375 42.7961 40.775 42.7961 40.875C42.7961 40.975 42.7961 41.1125 42.7086 41.0625C42.6461 41 42.6086 41 42.5461 41.0625C42.4836 41.125 42.4711 41.1625 42.3961 41.05C42.3336 40.9375 42.2586 40.925 42.1836 40.9C42.1086 40.875 42.1086 40.8875 42.0836 40.775C42.0461 40.675 41.9461 40.65 41.8461 40.65C41.7586 40.65 41.7086 40.6125 41.6961 40.5375C41.6961 40.4625 41.6336 40.4125 41.5836 40.3875C41.5336 40.35 41.5711 40.2625 41.5461 40.1875C41.5336 40.1125 41.4711 40.1375 41.4211 40.125C41.3711 40.1125 41.3461 40.125 41.3461 40C41.3461 39.875 41.2961 39.85 41.2586 39.7625C41.2336 39.675 41.2586 39.6 41.2836 39.5125C41.2939 39.4737 41.2947 39.4331 41.286 39.3939C41.2773 39.3547 41.2593 39.3182 41.2336 39.2875C41.1586 39.2 41.2211 39.125 41.0336 38.9625C40.8586 38.8 40.7586 38.9375 40.6961 38.55C40.6519 38.112 40.5597 37.6803 40.4211 37.2625C40.3336 37.1375 40.2461 37.05 40.1461 37.0125C40.0461 36.975 39.9711 37.0125 39.9711 36.775C39.9461 36.5625 39.8836 36.2875 39.7461 36.15L39.4711 35.9C39.4086 35.8625 39.3836 35.75 39.4711 35.55C39.5711 35.35 39.5336 35.0875 39.5211 34.9625C39.5211 34.8375 39.4711 34.675 39.5086 34.5375C39.5336 34.4125 39.5086 34.225 39.4711 34.1375C39.4461 34.05 39.3961 34.0125 39.4586 33.95V33.95ZM42.2336 30.675C42.0819 30.8761 41.9007 31.0531 41.6961 31.2C41.4711 31.35 41.1961 31.4625 41.3461 31.7375C41.5086 31.9875 41.6336 32.025 41.6586 32.225C41.6961 32.425 41.7336 32.5875 41.8836 32.6375C42.0461 32.6875 42.1086 32.65 42.1086 32.975C42.1086 33.3 42.1086 33.425 42.2461 33.5375C42.3961 33.6625 42.3711 33.7875 42.4211 34.0875C42.4836 34.375 42.4836 35 42.6711 35.425C42.8711 35.85 43.2836 36.675 43.2336 36.8375C43.1836 37 43.1211 37.1375 43.3086 37.3375C43.4752 37.5246 43.5876 37.7537 43.6336 38C43.6461 38.175 43.6711 38.2375 43.8586 38.175C44.0461 38.1125 44.1336 38.05 44.1961 37.9625C44.2586 37.8875 44.3711 37.9125 44.5461 38C44.7211 38.0875 44.9836 38.175 45.1336 38.0875C45.2836 38 45.3711 37.8625 45.5086 37.8625C45.7211 37.7 45.7961 37.375 45.8461 37.2875C45.8836 37.2 45.8461 37.2 45.7586 37.1125C45.6711 37.025 45.7211 36.8625 45.6961 36.7125C45.6674 36.4553 45.582 36.2077 45.4461 35.9875C45.2586 35.65 45.1461 35.2375 45.0211 35.1125C44.8961 35.0125 44.8461 34.7625 44.8336 34.6375C44.8086 34.5125 44.6711 34.4 44.5836 34.3125C44.4836 34.225 44.3961 34.0875 44.2961 33.5375C44.1836 33 44.1086 32.625 44.1086 32.5375C44.1086 32.4375 44.0836 32.4125 43.9836 32.4C43.9086 32.3625 43.8586 32.2125 43.8836 32.125C43.9086 32.05 43.8586 31.975 43.8211 31.875C43.7836 31.8 43.8211 31.625 43.8836 31.525C43.9461 31.4375 43.9336 31.175 43.8711 30.9625C43.8086 30.75 43.7461 30.5625 43.5086 30.525C43.2586 30.5 43.2211 30.4375 43.1211 30.2375C43.0211 30.0375 42.9336 29.6875 42.8961 29.6125C42.8711 29.525 42.8336 29.525 42.6461 29.675C42.4586 29.825 42.3961 29.875 42.3961 30.1625C42.3961 30.3375 42.4211 30.4125 42.4836 30.525C42.5461 30.625 42.5711 30.65 42.6086 30.95C42.6586 31.25 42.9211 31.7 42.5836 31.9625C42.2336 32.2375 42.2961 32.2875 42.3086 32.4625C42.3086 32.65 42.2211 32.775 42.1586 32.5125C42.0961 32.2625 42.1586 32.1 42.3336 31.975C42.5211 31.85 42.6961 31.7 42.5711 31.525C42.4461 31.3625 42.3961 30.9625 42.3961 30.775C42.3836 30.6 42.3336 30.525 42.2336 30.675V30.675Z" fill="#CF6200"/>
<path id="Vector_8" d="M39.4961 34.5875L39.5211 34.9625C39.5211 35.0875 39.5711 35.35 39.4711 35.5375C39.3836 35.7375 39.4086 35.85 39.4711 35.9125C39.5087 35.9016 39.5436 35.8827 39.5733 35.8572C39.6031 35.8318 39.627 35.8002 39.6436 35.7647C39.6602 35.7292 39.669 35.6905 39.6694 35.6514C39.6698 35.6122 39.6619 35.5733 39.6461 35.5375C39.6214 35.4815 39.6107 35.4204 39.6151 35.3594C39.6195 35.2984 39.6387 35.2394 39.6711 35.1875C39.7211 35.0875 39.7211 35.025 39.6711 34.95C39.6211 34.875 39.6211 34.875 39.6711 34.65C39.7336 34.4625 39.5961 34.4625 39.4961 34.5875V34.5875ZM41.4711 37.575C41.4211 37.425 41.2961 36.9 41.2836 36.55C41.2733 36.3791 41.2281 36.2122 41.1507 36.0595C41.0733 35.9069 40.9653 35.7717 40.8336 35.6625C40.6086 35.4625 40.5711 35.125 40.5461 34.875C40.3836 34.7625 40.3086 34.8125 40.3336 35C40.3336 35.2125 40.5461 35.3125 40.5211 35.6C40.4836 35.9125 40.4836 35.825 40.6336 35.975C40.7711 36.1375 40.8336 36.2625 40.7586 36.325C40.6836 36.3875 40.6711 36.4875 40.7711 36.525C40.8836 36.575 40.8961 36.6875 40.8711 36.8C40.8711 36.9 40.9586 36.925 41.0211 37C41.054 37.057 41.0713 37.1217 41.0713 37.1875C41.0713 37.2533 41.054 37.318 41.0211 37.375C40.9711 37.475 40.9586 37.6375 41.0711 37.55C41.1836 37.4625 41.2211 37.55 41.3086 37.7C41.3711 37.825 41.4336 37.7875 41.5211 37.7375C41.4946 37.6813 41.4737 37.6227 41.4586 37.5625L41.4711 37.575ZM42.9586 40.25C42.8836 40.375 42.8086 40.3375 42.7461 40.2625C42.6711 40.2 42.5836 40.2 42.6211 40.075C42.6586 39.95 42.6461 39.925 42.5461 39.85C42.5377 39.8498 42.5294 39.8498 42.5211 39.85H42.4211C42.2586 39.85 42.2336 39.7875 42.1461 39.7C42.1305 39.6783 42.1138 39.6575 42.0961 39.6375V39.725C42.0961 39.85 42.0961 39.825 41.9711 39.8625C41.8461 39.9 41.8586 39.7375 41.8336 39.6375C41.8312 39.6163 41.827 39.5954 41.8211 39.575C41.6836 39.55 41.5336 39.4 41.4836 39.25C41.4211 39.0625 41.4836 39.05 41.5461 39.1625C41.5961 39.2625 41.6336 39.3125 41.7336 39.375C41.8336 39.4375 41.8586 39.3375 41.8336 39.2C41.8272 39.1502 41.8272 39.0998 41.8336 39.05C41.7961 39 41.7711 38.9625 41.7211 38.9375C41.5461 38.8625 41.5961 38.8375 41.6086 38.6875C41.6086 38.55 41.5836 38.55 41.4711 38.6125C41.3461 38.7125 41.3461 38.6125 41.3461 38.375C41.3461 38.15 41.1836 38.15 41.1586 38.3125C41.1211 38.475 41.0711 38.3625 40.9961 38.1375C40.9336 37.9 40.8336 37.85 40.8211 38.075C40.8211 38.25 40.7711 38.3 40.6461 38.2L40.6961 38.55C40.7586 38.925 40.8461 38.8 41.0336 38.9625C41.2211 39.125 41.1586 39.2125 41.2211 39.2875C41.2961 39.3625 41.3086 39.4125 41.2836 39.5125C41.2586 39.6 41.2211 39.6875 41.2586 39.7625C41.2961 39.85 41.3461 39.8875 41.3461 39.9875C41.3461 40.1 41.3711 40.1 41.4211 40.125L41.5086 40.1375L41.5961 40.0125C41.7461 39.8875 41.9711 40.025 42.0211 40.2C42.0836 40.3625 42.1711 40.425 42.2711 40.2875C42.3711 40.1625 42.3461 40.1625 42.4586 40.2875C42.5586 40.4125 42.6211 40.4 42.6211 40.4C42.6211 40.4 42.7461 40.35 42.8211 40.425C42.8961 40.4875 42.9461 40.475 43.0836 40.2625C43.2461 40.05 43.0211 40.1125 42.9586 40.2625V40.25ZM43.3711 33.925C43.4086 33.5875 43.3711 33.25 43.5211 33.125C43.6461 33 43.8211 32.7625 43.8086 33.2875C43.8086 33.8 43.7836 33.7875 43.6836 33.8875C43.5586 34.0125 43.4711 34.05 43.5836 34.2625C43.6961 34.45 43.7086 34.4625 43.6961 34.7625C43.6711 35.075 43.6711 35.2 43.7961 35.35C43.9211 35.5125 43.9461 35.525 43.9711 35.7C44.0162 35.892 44.1111 36.0687 44.2461 36.2125C44.3711 36.3375 44.5461 36.6875 44.5586 36.9375C44.5836 37.1875 44.7961 37.25 44.9961 37.4125C45.1836 37.5875 44.9461 37.7 44.7961 37.6375C44.6461 37.5375 44.7086 37.6375 44.6086 37.725C44.5211 37.85 44.4836 37.85 44.4086 37.675C44.3211 37.5 44.0711 37.3625 43.9461 37.3125C43.8336 37.275 43.7211 37.075 43.6086 36.875C43.5664 36.7889 43.5029 36.7149 43.4242 36.6603C43.3454 36.6056 43.254 36.5719 43.1586 36.5625C43.2211 36.6875 43.2461 36.8 43.2211 36.8375C43.1836 37.0125 43.1211 37.1375 43.3086 37.3375C43.4752 37.5246 43.5876 37.7537 43.6336 38C43.6336 38.1625 43.6711 38.225 43.8461 38.1625C44.0461 38.1 44.1336 38.0375 44.1961 37.9625C44.2586 37.8875 44.3711 37.9 44.5461 38C44.7086 38.0875 44.9711 38.175 45.1211 38.0875C45.2836 38 45.3586 37.8625 45.4961 37.8625C45.7211 37.7 45.7836 37.375 45.8336 37.2875C45.8836 37.2 45.8461 37.2 45.7586 37.1125C45.6711 37.025 45.7211 36.8625 45.6961 36.7125C45.6836 36.55 45.6211 36.325 45.4336 35.9875C45.2461 35.6375 45.1461 35.2375 45.0211 35.1125C44.8961 35.0125 44.8461 34.7625 44.8211 34.625C44.8211 34.5 44.6711 34.4 44.5711 34.3C44.4836 34.2125 44.3961 34.0875 44.2836 33.55L44.1086 32.625C44.0086 32.8125 43.9336 32.85 43.8836 32.725C43.8461 32.6 43.7836 32.5125 43.7211 32.6C43.6586 32.6875 43.6336 32.525 43.6336 32.45C43.6336 32.375 43.6336 32.3625 43.5461 32.3625C43.4711 32.3625 43.5336 32.2375 43.4961 32C43.4711 31.775 43.4211 31.75 43.3961 32.025C43.3711 32.3 43.2211 32.4625 43.2711 32.525C43.3336 32.5875 43.3086 32.7125 43.2461 32.9C43.1836 33.075 43.2086 33.1875 43.2586 33.3125C43.3086 33.4375 43.2211 33.675 43.1961 33.8625C43.1586 34.0625 43.3211 34.2625 43.3711 33.925V33.925ZM40.5586 31.175C40.4336 31.175 40.3586 31.275 40.4336 31.625C40.4711 31.8375 40.3086 31.8 40.2586 31.6875C40.1836 31.575 40.1336 31.35 40.0086 31.15C39.8961 30.95 39.9461 31.275 39.9461 31.475C39.9211 31.65 40.0461 31.65 40.1586 31.8125C40.2711 31.975 40.1586 32.025 40.0461 32.025C39.9336 32.025 39.9836 32.275 40.0086 32.4375C40.0461 32.6125 39.9836 32.6375 39.8961 32.5C39.8086 32.3625 39.8586 32.15 39.8836 31.875C39.8961 31.625 39.9086 31.6875 39.7336 31.625C39.5711 31.5625 39.6086 31.5375 39.6586 31.375C39.7211 31.225 39.7836 31.15 39.7086 31.0625C39.6336 31 39.6461 30.95 39.7711 30.9375C39.8961 30.9125 39.8461 30.825 39.9461 30.7875C40.0586 30.7625 40.1086 30.8125 40.1336 30.6125C40.1336 30.4375 40.1961 30.3375 40.3086 30.4C40.3961 30.65 40.4836 31.05 40.5586 31.1625V31.175ZM42.0961 32.975C42.0961 33.3 42.0961 33.425 42.2336 33.5375C42.3836 33.6625 42.3586 33.7875 42.4211 34.0875C42.4836 34.375 42.4836 35 42.6711 35.425L42.8711 35.8875C42.9657 35.8088 43.0424 35.7108 43.0961 35.6C43.1461 35.5 43.0086 35.2875 42.8961 35.1C42.7836 34.9125 42.9086 34.85 43.0211 34.625C43.1211 34.375 42.9961 34.375 42.8336 34.3125C42.6586 34.25 42.6586 34.1 42.5711 33.85C42.4836 33.6 42.4961 33.5 42.5711 33.3625C42.6086 33.225 42.5711 33.1125 42.4461 33.0875C42.3211 33.05 42.3586 32.9625 42.3961 32.8125C42.4586 32.65 42.4836 32.625 42.2961 32.6625C42.1586 32.7 42.1211 32.725 42.0711 32.7875C42.0961 32.825 42.0961 32.8875 42.0961 32.975Z" fill="#00B800"/>
<path id="Vector_9" d="M43.8711 33.625C43.8711 33.8 43.8711 33.8875 43.8211 33.95C43.7711 34.0125 43.7961 34.1125 43.8461 34.2C43.8836 34.3 43.9211 34.425 43.8836 34.575C43.8336 34.75 43.9086 34.9 43.9961 34.95C44.0836 34.9875 44.1336 34.95 44.1086 35.1625C44.0979 35.2604 44.1092 35.3594 44.1417 35.4524C44.1741 35.5454 44.2268 35.63 44.2961 35.7C44.4086 35.7875 44.4836 35.9375 44.4836 36.025C44.4586 36.1125 44.5461 36.2125 44.6586 36.2625C44.7711 36.3 44.7461 36.325 44.7461 36.3875C44.7461 36.45 44.7961 36.45 44.9211 36.475C45.0461 36.5 45.1336 36.5875 45.2836 36.75C45.4211 36.925 45.6086 37.025 45.5836 36.825C45.5586 36.625 45.5836 36.525 45.4086 36.425C45.2086 36.3375 45.0711 35.8875 44.9961 35.5875C44.9184 35.2797 44.7586 34.9989 44.5336 34.775C44.5211 34.575 44.5461 34.4625 44.4086 34.3625C44.3533 34.3198 44.3087 34.2648 44.2783 34.2019C44.2479 34.139 44.2326 34.0699 44.2336 34C44.2336 33.8875 44.1461 33.75 44.0961 33.7375C44.0336 33.7 44.0086 33.6125 44.0086 33.525C44.0086 33.4375 43.8836 33.45 43.8836 33.6125L43.8711 33.625Z" fill="#5D3100"/>
<path id="Vector_10" d="M43.0586 41.85C43.4408 41.7982 43.8147 41.6974 44.1711 41.55C44.3603 41.6934 44.5775 41.7956 44.8086 41.85C44.5461 41.9125 44.3711 41.875 44.3086 41.825C44.3336 41.9125 44.4336 42.0375 44.4836 42.05C44.2336 42.0375 43.9461 41.975 43.8586 41.8875C43.6336 41.975 43.2711 42 43.0586 41.8625V41.85ZM43.5586 42.225L44.2086 42.3125C44.0461 42.4625 44.1836 42.5875 44.4586 42.5625C44.3211 42.5875 44.1836 42.6375 44.2711 42.65C44.6135 42.654 44.9534 42.5902 45.2711 42.4625C45.0586 42.7375 43.9961 43 43.5586 42.2125V42.225ZM43.9961 42.9C44.1211 42.8375 44.4586 42.8625 44.6211 42.9375C44.4336 43 44.0961 43 43.9961 42.9Z" fill="#00D860"/>
<path id="Vector_11" d="M44.4961 42.9C44.7211 42.8625 45.3836 43.025 45.6211 42.875C45.5336 43.0875 45.1211 43.125 44.9836 43.075C44.8336 43.025 44.7086 42.9625 44.6086 42.975C44.6461 42.9375 44.5711 42.9375 44.4836 42.9H44.4961Z" fill="black"/>
<path id="Vector_12" d="M44.7336 43.225C44.9086 43.25 45.5461 43.175 45.7336 43.1C45.9461 43.1625 46.3586 43.2875 46.4461 43.2625C46.2586 43.3875 45.8836 43.3125 45.7586 43.2625C45.4086 43.3875 45.1336 43.4125 44.7336 43.225Z" fill="#00D860"/>
<path id="Vector_13" d="M45.0336 43.3375C45.2961 43.3875 45.5086 43.35 45.7586 43.2625C45.898 43.3163 46.0467 43.3418 46.1961 43.3375C46.3211 43.4 46.4711 43.4875 46.6211 43.5C46.341 43.5475 46.0535 43.526 45.7836 43.4375C45.4708 43.4342 45.1605 43.4937 44.8711 43.6125C44.8711 43.525 44.9211 43.4125 45.0336 43.3375Z" fill="#00D860"/>
<path id="Vector_14" d="M44.7336 42.0375C44.9336 42.1 45.6586 42.075 46.0211 41.9125C46.1711 41.825 46.2586 41.9375 46.0836 42C45.4961 42.2 45.0211 42.2875 44.6711 42.1125C44.5336 42.025 44.5211 41.9625 44.7336 42.0375V42.0375Z" fill="black"/>
<path id="Vector_15" d="M48.2586 41.05C47.3836 41.475 46.7961 41.6 45.5586 41.225C45.4461 41.1875 45.3711 41.225 45.4961 41.3C45.8037 41.4329 46.1272 41.5253 46.4586 41.575C46.6211 41.575 46.5586 41.6625 46.4586 41.6875C46.3586 41.7125 46.3336 41.7875 46.4586 41.725C46.6086 41.675 47.3336 41.6625 47.6461 41.825C47.7711 41.8875 47.8211 41.875 47.7961 41.825C47.7836 41.7625 47.8586 41.7375 47.9586 41.725C48.0586 41.725 48.1086 41.6875 48.0336 41.65C47.9711 41.6125 47.9461 41.6 48.0086 41.575C48.0711 41.55 48.0711 41.525 47.9836 41.5C47.8961 41.5 47.8461 41.4625 47.9211 41.4125C48.0086 41.375 48.1211 41.35 48.2211 41.35C48.2336 41.2875 48.1961 41.1 48.2586 41.0625V41.05Z" fill="#00D860"/>
<path id="Vector_16" d="M46.7961 41.1625C47.5012 41.1722 48.1872 40.9332 48.7336 40.4875C48.8961 40.5875 49.1461 40.7 49.2711 40.7375C49.3961 40.75 49.5211 40.8625 49.3086 40.8625C49.1211 40.8625 48.8336 40.775 48.7086 40.7375C48.1331 41.0848 47.4677 41.2544 46.7961 41.225C46.6711 41.2125 46.6211 41.15 46.7961 41.1625Z" fill="black"/>
<path id="Vector_17" d="M45.2961 38.4C45.545 38.5954 45.8547 38.6972 46.1711 38.6875C46.3624 38.8303 46.5785 38.9363 46.8086 39C46.5461 39.1125 46.2586 39.2 46.1836 39.2875C46.0586 39.175 45.9086 39.2 45.8586 39.1375C45.7586 39.225 45.7711 39.2875 45.8461 39.3375C45.9086 39.3875 46.4961 39.475 46.6461 39.4375C46.7836 39.3875 46.8211 39.525 46.7086 39.5625C46.3836 39.6625 45.7836 39.5625 45.5836 39.225C45.3711 38.9 45.2086 38.775 44.6336 39.075C44.5711 38.9125 44.5711 38.875 44.4586 38.875C44.3336 38.875 44.1461 38.725 44.2961 38.7375C44.4586 38.7375 44.9211 38.675 45.2961 38.4V38.4Z" fill="#00D860"/>
<path id="Vector_18" d="M45.4336 39.125C45.3461 39.1625 45.0586 39.3125 44.9586 39.3125C44.8711 39.325 44.6961 39.475 44.8711 39.475C45.0586 39.475 45.2836 39.2875 45.4086 39.2625C45.5461 39.2375 45.5461 39.1 45.4336 39.1375V39.125ZM45.9836 39.725C45.9211 39.725 45.6211 39.8 45.5336 39.7875C45.4461 39.7875 45.3836 39.8125 45.3961 39.8625C45.3961 39.925 45.4211 39.95 45.3086 39.95C45.1836 39.95 45.0711 39.9875 45.0336 40.0125C44.9961 40.05 44.9961 40.0875 45.1211 40.1125C45.2461 40.125 45.2961 40.125 45.4336 40.0625C45.5836 40 45.7086 39.9 45.8586 39.8875C46.0086 39.8875 46.1586 39.7 45.9836 39.7125V39.725Z" fill="#00D860"/>
<path id="Vector_19" d="M45.5711 40.075C45.6961 40.1625 46.3211 40.3625 46.5461 40.35C46.7711 40.3375 46.7336 40.4375 46.5586 40.475C46.2086 40.55 45.7836 40.4 45.4836 40.175C45.3586 40.05 45.4836 40.0125 45.5711 40.075Z" fill="black"/>
<path id="Vector_20" d="M48.5212 40.375C48.0462 40.525 47.5587 40.475 47.3712 40.425C47.1712 40.3875 46.9962 40.3625 47.1212 40.4875C47.2587 40.6125 47.6837 40.7 47.9337 40.6375C47.0712 40.8375 46.8462 40.8125 46.6337 40.775C46.3718 40.7499 46.108 40.7499 45.8461 40.775C45.7211 40.775 45.5461 40.775 45.4711 40.7125C45.4086 40.6625 45.3711 40.5875 45.5961 40.6125C45.8211 40.6375 45.8461 40.5875 45.6586 40.55C45.4586 40.525 45.1837 40.6125 45.4587 40.775C45.7212 40.95 46.2962 40.775 46.6712 40.875C47.0462 40.975 47.8212 41.05 48.5712 40.45C48.6087 40.425 48.6712 40.325 48.5212 40.375ZM46.1837 39.675V39.8375C46.1712 39.875 46.1712 39.925 46.2337 39.875C46.3087 39.825 46.3587 39.75 46.4337 39.7875C46.5514 39.8211 46.6749 39.8296 46.7962 39.8125C46.8837 39.8125 46.8962 39.7875 46.7712 39.725C46.6462 39.675 46.5212 39.6625 46.4462 39.6625C46.3837 39.675 46.2962 39.6625 46.2337 39.6375C46.1712 39.6 46.1712 39.625 46.1837 39.675V39.675Z" fill="#00D860"/>
<path id="Vector_21" d="M47.4086 39.9C47.2884 39.8879 47.1705 39.8584 47.0586 39.8125C46.9586 39.775 46.8086 39.7625 46.9211 39.8875C47.0211 40.025 47.4461 40.1 47.5961 40.0375C47.7586 39.975 47.6836 39.9125 47.8336 39.9875C47.9836 40.075 48.1336 40.15 48.2461 40.15C48.3586 40.15 48.3961 40.15 48.2711 40.075C48.1461 40.0125 48.0961 39.9875 48.0961 39.9375C48.0961 39.8875 48.0586 39.85 48.1711 39.8875C48.2711 39.925 48.3961 39.975 48.4836 39.925C48.5836 39.8875 48.7336 39.7875 48.8836 39.7875L48.9211 39.7C48.7086 39.675 48.5836 39.7375 48.5086 39.7625C48.425 39.7942 48.3343 39.8028 48.2461 39.7875C48.1336 39.7625 47.9961 39.75 47.9586 39.725C47.9211 39.7 47.9211 39.6625 48.0086 39.65C48.0961 39.6375 48.1336 39.575 48.0086 39.6C47.8836 39.625 47.5461 39.6 47.3711 39.55C47.1836 39.5 47.1211 39.4875 47.0336 39.5125C46.9586 39.5375 46.9711 39.625 47.0836 39.6375C47.1836 39.6375 47.4336 39.6625 47.5336 39.7375C47.6211 39.825 47.5961 39.825 47.4961 39.7875C47.4086 39.7375 47.2336 39.7625 47.4086 39.9125V39.9Z" fill="#00D860"/>
<path id="Vector_22" d="M48.9085 39.7L48.8835 39.7875C49.1896 39.7749 49.4952 39.8216 49.7835 39.925C49.946 39.8 49.9085 39.7625 50.0335 39.7875C50.1585 39.8 50.2835 39.85 50.3585 39.8125C50.421 39.775 50.4585 39.7875 50.5335 39.7875C50.596 39.8125 50.746 39.7875 50.8335 39.725C50.9085 39.675 51.096 39.6 51.2085 39.6C51.3085 39.6 51.4335 39.5875 51.246 39.55C51.0522 39.5388 50.8579 39.5599 50.671 39.6125C50.571 39.65 50.271 39.675 50.096 39.675C49.9335 39.675 49.6835 39.7625 49.496 39.7125C49.296 39.6625 49.021 39.7 48.9085 39.7V39.7Z" fill="#00D860"/>
<path id="Vector_23" d="M51.5836 39.6C51.2461 39.85 50.8211 39.9 50.3336 39.9375C50.1836 39.9375 50.2336 39.9875 50.3586 40C50.8586 40.05 51.4711 39.875 51.6586 39.65C51.7211 39.6 51.7211 39.5 51.5836 39.6V39.6Z" fill="black"/>
<path id="Vector_24" d="M49.2336 40.175C49.3711 40.175 49.8961 40.325 50.0711 40.375C50.1961 40.375 50.2336 40.3375 50.1961 40.2875C50.1711 40.2375 50.1586 40.2 50.3836 40.2H51.2586C51.3336 40.175 51.5086 40.0375 51.5961 40.025C51.3836 40.05 50.5086 40.0875 50.4086 40.075C50.3275 40.0611 50.244 40.0743 50.1711 40.1125C50.0961 40.15 50.0711 40.175 49.9711 40.1375C49.8836 40.1125 49.7336 40.05 49.6586 40.1125C49.5586 40.1625 49.3836 40.1125 49.2336 40.175V40.175Z" fill="#00D860"/>
<path id="Vector_25" d="M51.2461 40.2C51.3336 40.175 51.5086 40.025 51.5961 40.025C51.7461 40.025 51.9086 40.075 51.9961 40.0875C52.0711 40.0875 52.1586 40.0875 52.0961 40.025C52.0336 39.9625 52.0961 39.85 52.3461 39.8875C52.5711 39.9125 52.6961 39.95 52.9211 39.925C53.1461 39.9125 53.2586 40.075 53.6836 39.9C53.6586 40.075 53.7461 40.075 53.8211 40.05C53.9086 40.025 53.9961 40.025 54.1336 40.1375C54.2586 40.2375 55.1086 40.2625 55.3086 40.2125C55.4961 40.175 55.6087 40.275 55.4587 40.3375C55.3087 40.375 55.2711 40.4375 55.3086 40.4875C55.3336 40.5375 55.3711 40.5875 55.1836 40.575C55.0086 40.55 54.9711 40.6 54.8836 40.675C54.7961 40.75 54.7586 40.7625 54.5086 40.7125C54.2586 40.675 54.2086 40.7125 54.0711 40.7375C53.9211 40.7625 53.9086 40.75 53.7586 40.7125C53.5578 40.6424 53.3414 40.6294 53.1336 40.675C52.9461 40.725 52.8211 40.8 52.6586 40.75C52.4961 40.7 52.4837 40.7125 52.5837 40.625C52.6962 40.525 52.7086 40.525 52.9086 40.5C53.1086 40.475 53.2586 40.4125 53.1211 40.3375C52.9711 40.2625 52.9336 40.2625 52.7461 40.3625C52.5711 40.45 52.4711 40.5125 52.2586 40.4C52.0586 40.275 51.9586 40.3 51.8086 40.3375C51.6711 40.375 51.4461 40.3 51.2461 40.2125V40.2ZM51.9461 40.55C51.6711 40.5875 51.6086 40.425 51.3211 40.4625C51.2461 40.4625 51.0711 40.5875 51.2961 40.5625C51.5086 40.55 51.7461 40.6625 51.9461 40.65C52.1586 40.625 52.0711 40.5375 51.9461 40.55ZM51.6211 40.75C51.7711 40.7 52.0586 40.8 52.1711 40.775C52.2961 40.7625 52.4211 40.825 52.2836 40.875C52.1461 40.9125 51.8462 40.8 51.7087 40.8375C51.5837 40.875 51.4336 40.825 51.6211 40.75V40.75ZM48.8711 41.5C49.0586 41.5 49.7462 41.475 50.0212 40.9C50.0337 40.85 50.0587 40.8375 50.1462 40.9C50.2212 40.9625 50.5462 41.15 51.1462 41.1875C51.3087 41.2125 51.4837 41.2875 51.1462 41.2625C50.8087 41.2375 50.2836 41.1625 50.1086 41.0375C49.8086 41.5125 49.2711 41.575 48.8586 41.5625C48.6336 41.5625 48.6961 41.4875 48.8586 41.5H48.8711Z" fill="#00D860"/>
<path id="Vector_26" d="M50.3711 40.7125C50.271 40.8375 49.9586 41.0625 49.8211 41.0875C49.6586 41.0875 49.2336 41.0375 49.1211 41C49.0211 40.9625 48.871 40.975 49.0335 41.0875C49.2486 41.2004 49.4918 41.2481 49.7335 41.225C49.896 41.2 50.0711 41.1375 50.1836 41.225C50.3086 41.3125 50.546 41.4375 50.671 41.4125C50.8365 41.3791 51.0074 41.3834 51.171 41.425C51.246 41.4625 51.396 41.5875 51.171 41.5125C50.946 41.4375 50.771 41.5125 50.6585 41.45C50.7835 41.6125 51.0336 41.875 51.2586 41.875C51.3086 41.875 51.346 41.9625 51.2335 42.0125C51.3335 42.075 51.596 42.1125 51.7335 41.9875C51.696 42.0375 51.7211 42.075 51.7711 42.1C51.8211 42.125 51.896 42.175 51.796 42.175C51.696 42.1875 51.4586 42.2125 51.3836 42.1875C51.6086 42.325 52.196 42.5625 52.7835 42.4375C52.9085 42.4375 52.9585 42.375 52.7835 42.3875C52.3835 42.3875 52.371 42.3875 52.296 42.35C52.221 42.3125 52.246 42.275 52.3585 42.2375C52.4585 42.2 52.7335 42.175 52.8585 42.175C52.971 42.175 53.0835 42.1125 52.8585 42.1125C52.6335 42.1125 52.3211 42.1125 52.2086 42.075C52.0961 42.05 52.0086 41.9875 52.1211 41.9C52.2461 41.8125 52.3711 41.85 52.4336 41.775C52.0586 41.775 51.5835 41.575 51.846 41.375C51.9085 41.3375 51.8835 41.3375 51.7835 41.325C51.6835 41.325 51.4085 41.2375 51.2835 41.1625C51.1585 41.0875 51.2461 41.0375 51.3336 41.025C51.1211 41.0625 50.671 40.9375 50.3585 40.7125H50.3711ZM53.746 40.7C53.5167 40.8422 53.2533 40.92 52.9835 40.925C52.821 40.925 52.7835 40.975 52.921 41C53.046 41.0125 53.1835 41.025 53.246 41.0125C53.3085 41 53.3335 41 53.4335 41.025C53.5694 41.0787 53.7198 41.0831 53.8585 41.0375C54.0334 40.9889 54.2147 40.9678 54.3961 40.975C54.5086 40.975 54.6336 40.975 54.3961 40.925C54.1813 40.8844 53.9608 40.8844 53.746 40.925C53.671 40.9375 53.4335 40.925 53.5585 40.9C53.6638 40.8646 53.7614 40.8094 53.846 40.7375C53.8085 40.7375 53.7835 40.7125 53.746 40.7V40.7ZM53.6336 41.15C53.4296 41.3017 53.1869 41.3927 52.9336 41.4125C53.1836 41.5 53.3835 41.7625 53.5335 41.75C53.4585 41.7875 53.3586 41.85 53.2711 41.875C53.4211 41.9125 53.671 41.875 53.871 41.75C54.221 41.85 54.6711 41.7875 54.8211 41.6625C54.6026 41.6637 54.3889 41.5983 54.2086 41.475C54.3211 41.475 54.421 41.4125 54.4835 41.35C54.2085 41.3875 53.7586 41.25 53.6336 41.15Z" fill="#00D860"/>
<path id="Vector_27" d="M53.2711 41.875C53.3711 41.875 53.4586 41.7875 53.5336 41.75C53.0895 41.7824 52.6458 41.6824 52.2586 41.4625C52.0211 41.2375 52.0211 41.4125 52.1961 41.5625C52.3376 41.6963 52.5089 41.7944 52.6958 41.8487C52.8828 41.9031 53.08 41.9121 53.2711 41.875V41.875ZM53.8711 42.4C53.7711 42.4625 53.2711 42.4875 53.1211 42.4625C52.9586 42.425 52.8711 42.4375 52.9211 42.5C52.9711 42.5625 52.9836 42.625 52.8461 42.6125C52.691 42.5927 52.5335 42.6055 52.3836 42.65C52.2961 42.6875 52.1586 42.775 52.3836 42.7375C52.5711 42.7125 52.7586 42.6625 52.9211 42.7125C53.0711 42.75 53.6336 42.7625 53.7461 42.7125C53.8461 42.65 53.7836 42.6625 53.7211 42.6625C53.6711 42.6625 53.6586 42.6375 53.7211 42.6C53.7961 42.5625 53.8586 42.475 53.8711 42.4ZM49.0836 41.725C48.7353 41.8549 48.3753 41.9512 48.0086 42.0125C47.8413 42.1 47.6589 42.1552 47.4711 42.175C47.5586 42.25 47.8586 42.325 47.9836 42.2875C47.8984 42.3617 47.8011 42.4208 47.6961 42.4625C47.8836 42.45 48.0961 42.4875 48.1961 42.5C47.9666 42.6243 47.7065 42.6806 47.4461 42.6625C47.4961 42.75 47.5711 42.825 47.6961 42.825C47.4922 42.882 47.2771 42.8863 47.0711 42.8375C47.1211 42.9625 47.1836 43.025 47.2586 43.0375C47.0836 43.0625 46.8461 43.0875 46.6461 42.975C46.7961 43.175 47.1336 43.25 47.6461 43.1875C48.0091 43.1465 48.3566 43.0178 48.6586 42.8125C48.4461 42.8375 48.1711 42.85 48.0336 42.8125C48.382 42.7264 48.715 42.5873 49.0211 42.4C48.9105 42.4029 48.8016 42.3724 48.7086 42.3125C48.8586 42.325 49.4336 42.2625 49.5961 42.1875C49.4412 42.1533 49.3037 42.0646 49.2086 41.9375C49.8348 42.12 50.4969 42.1415 51.1336 42C51.2211 41.975 51.2461 41.85 51.0586 41.875C50.7336 41.8875 50.1086 41.8 49.9461 41.725C50.0836 41.825 50.2416 41.8934 50.4086 41.925C50.1086 42.0125 49.6836 42.075 49.0836 41.725V41.725Z" fill="#00D860"/>
<path id="Vector_28" d="M47.6961 42.475L47.9836 42.3C47.8057 42.3094 47.6287 42.2705 47.4711 42.1875C47.5836 42.1875 47.7711 42.125 48.0086 42.025C47.5836 42.0125 47.2961 42.0125 47.1336 41.9375C46.9651 41.8783 46.7838 41.8654 46.6086 41.9C46.5086 41.925 46.5461 42.0875 46.9836 42.05C46.7148 42.1761 46.4146 42.2196 46.1211 42.175C46.1711 42.325 46.2086 42.475 46.1586 42.55C46.4086 42.6875 47.0336 42.875 47.3461 42.8375C47.0711 42.7375 46.9211 42.625 47.1461 42.6C47.3711 42.575 47.4961 42.525 47.6961 42.475V42.475Z" fill="#00D860"/>
<path id="Vector_29" d="M46.9961 43.225C47.5336 43.175 48.2711 43.1625 48.8711 42.675C49.0211 42.5375 49.1211 42.5875 48.9711 42.7125C48.4444 43.1141 47.8077 43.3453 47.1461 43.375C46.8461 43.375 46.7086 43.25 46.9961 43.225V43.225Z" fill="black"/>
<path id="Vector_30" d="M51.1211 42.3C50.9836 42.3625 50.5961 42.425 50.4836 42.4125C50.3586 42.4 50.1961 42.3875 50.1086 42.4375C50.0086 42.4875 50.0086 42.525 50.1336 42.55L50.5086 42.5625C50.4299 42.6055 50.3617 42.6652 50.3086 42.7375C50.4836 42.6875 50.8336 42.775 50.9336 42.8375C50.8461 42.85 50.7711 42.825 50.7086 42.7875C51.0211 43.125 51.9461 43.125 52.0836 43.0625C52.0211 43.1125 51.9586 43.1625 51.8836 43.1875C52.1461 43.225 52.4461 43.225 52.7336 43.05C52.579 43.0554 52.4242 43.0471 52.2711 43.025C52.3352 42.9661 52.4123 42.9233 52.4961 42.9C52.3079 42.8774 52.1172 42.8901 51.9336 42.9375C51.9711 42.8625 52.0211 42.775 52.0961 42.75C51.6877 42.7796 51.2774 42.7373 50.8836 42.625C51.2086 42.6625 51.5586 42.475 51.7211 42.475C51.4711 42.475 51.1836 42.4125 51.1211 42.3V42.3ZM49.9586 42.5625C49.7377 42.6035 49.5203 42.6621 49.3086 42.7375C49.2086 42.7875 49.1211 42.8375 49.3086 42.8375C49.3336 42.8291 49.3586 42.8208 49.3836 42.8125C49.3086 42.8125 49.2086 42.8125 49.3586 42.7625C49.5086 42.7125 49.7086 42.6125 49.9586 42.5625V42.5625ZM49.5086 43.1C49.5836 43.1 49.9461 43.1 50.0711 42.975C50.2211 43.0875 50.4961 43.25 50.6711 43.25C50.8586 43.25 50.8336 43.2875 50.6711 43.3125C50.5211 43.325 50.2211 43.225 50.0711 43.1125C49.8586 43.1875 49.6836 43.125 49.4961 43.0875L49.5086 43.1ZM46.8336 44.65C47.1961 44.7875 47.6586 44.9 48.0086 44.775C48.2086 44.95 48.6086 44.9625 48.8336 44.9125C49.0461 44.875 49.2461 44.8375 49.4836 44.9125C49.7336 45 50.2211 45.0125 50.3586 45.125C50.2336 45.125 49.9711 45.125 49.8961 45.15C49.8336 45.1625 49.8711 45.2 49.9836 45.275C49.5379 45.2593 49.0966 45.3675 48.7086 45.5875C48.7659 45.4574 48.8608 45.3474 48.9811 45.2717C49.1014 45.1959 49.2415 45.1579 49.3836 45.1625C49.1836 45.0875 48.5086 45.0875 48.2961 45.2125C48.2336 45.15 48.1586 45.0375 48.1586 45C47.7961 45.1875 47.1211 44.9 46.8336 44.65V44.65ZM45.9211 44C46.3461 43.95 46.6461 43.8125 46.7711 43.675C46.8336 43.75 47.1461 43.825 47.4836 43.7125C47.4552 43.7362 47.435 43.7684 47.426 43.8043C47.417 43.8403 47.4197 43.8781 47.4336 43.9125C47.162 43.9358 46.896 44.0033 46.6461 44.1125C46.5086 44.175 46.0836 44.2375 45.9461 44.1625C45.8211 44.0875 45.8086 44.0125 45.9211 44Z" fill="#00D860"/>
<path id="Vector_31" d="M47.4336 43.9125C47.2086 43.9125 46.7961 44.0375 46.6461 44.1125L46.7086 44.325C47.2644 44.1644 47.8437 44.1009 48.4211 44.1375C48.2586 44.1375 47.9211 44.325 47.7461 44.35C48.1961 44.3125 48.6211 44.4125 48.7461 44.4375C48.8586 44.4625 48.8711 44.5625 48.7961 44.6375C48.7086 44.7125 48.6711 44.725 48.8586 44.725C49.0336 44.725 49.4211 44.725 49.5961 44.55C49.5211 44.475 49.3461 44.5 49.2961 44.45C49.4089 44.4107 49.5114 44.3466 49.5961 44.2625C49.4203 44.2706 49.244 44.258 49.0711 44.225C48.9711 44.2 48.8961 44.175 49.0211 44.1C49.1066 44.0566 49.183 43.9972 49.2461 43.925C49.0211 43.9875 48.6711 44.05 48.3711 43.8C48.4961 43.85 48.7461 43.825 48.8336 43.7875C48.7336 43.725 48.6586 43.7 48.5836 43.7C48.8086 43.575 49.2711 43.475 49.8586 43.7C50.1304 43.678 50.404 43.6949 50.6711 43.75C50.7711 43.6625 50.9586 43.4375 51.0586 43.3875C50.3836 43.4375 49.1711 43.3125 49.1836 42.9625C48.9711 43.25 48.4711 43.4125 48.2461 43.3625C48.2211 43.4625 48.3086 43.5875 48.3836 43.6625C48.1711 43.7 47.7711 43.75 47.5836 43.7C47.6836 43.8125 47.8836 43.9 48.0086 43.8875C47.7586 43.8875 47.6336 43.9375 47.4336 43.9125Z" fill="#00D860"/>
<path id="Vector_32" d="M48.8586 44.725C49.0336 44.725 49.4211 44.725 49.5961 44.55C49.5211 44.475 49.3461 44.5 49.2961 44.45C49.4087 44.4103 49.5111 44.3463 49.5961 44.2625C50.0836 44.2125 50.5086 44.2375 50.7211 44.175C50.9336 44.1125 51.4711 44.15 51.5586 44.1125C51.1086 44.2 51.0211 44.2375 50.9836 44.3125C50.9586 44.3875 51.1461 44.4375 51.2461 44.4375C51.0461 44.4375 50.7836 44.65 50.7461 44.7375C50.4961 44.5875 50.3586 44.775 50.3211 44.8375C50.2022 44.8082 50.0785 44.8042 49.9579 44.8257C49.8373 44.8472 49.7226 44.8938 49.6211 44.9625C49.3711 44.9 49.2086 44.85 48.9586 44.9C49.1211 44.8625 49.0836 44.75 48.8586 44.7375V44.725ZM51.0586 43.375C51.2211 43.375 51.5586 43.4 51.6836 43.375C51.6046 43.4122 51.5327 43.463 51.4711 43.525C51.8711 43.475 52.3961 43.45 52.5461 43.475C52.3711 43.4375 52.1711 43.5625 52.0711 43.6375C51.9711 43.7 52.0336 43.725 52.1586 43.75C52.2961 43.7625 52.4836 43.875 52.2336 43.8375C51.9555 43.8073 51.6751 43.8031 51.3961 43.825C51.2836 43.8375 51.2211 43.7875 51.3961 43.7625C51.5461 43.725 51.6711 43.675 51.7461 43.6375C51.5888 43.6627 51.4285 43.6627 51.2711 43.6375C51.1836 43.6125 51.1336 43.5625 51.2211 43.55C51.3086 43.5375 51.2586 43.4875 51.1586 43.5C51.0586 43.525 50.8086 43.625 50.6711 43.75C50.8211 43.6 50.9586 43.4625 51.0586 43.3875V43.375Z" fill="#00D860"/>
<path id="Vector_33" d="M49.3086 43.65C49.4048 43.7601 49.5242 43.8475 49.6582 43.9059C49.7922 43.9642 49.9375 43.9921 50.0836 43.9875C50.1586 43.9875 50.2961 44.0875 50.1086 44.1C49.6336 44.1125 49.3961 44.0125 49.1836 43.7C49.1336 43.625 49.2086 43.5375 49.3086 43.6375V43.65ZM52.1836 39.6125C52.5571 39.7613 52.9567 39.8336 53.3586 39.825C53.4336 39.825 53.5586 39.8875 53.3961 39.9125C52.969 39.9644 52.5363 39.8813 52.1586 39.675C52.0711 39.625 52.0961 39.575 52.1961 39.6125H52.1836Z" fill="black"/>
<path id="Vector_34" d="M52.4461 39.625C52.8461 39.6 53.1461 39.6 53.2586 39.725C53.4836 39.65 53.8836 39.6 53.9711 39.6375C54.0711 39.6625 54.1711 39.6 53.9586 39.55C53.7461 39.5 53.2461 39.475 53.0961 39.5125C52.9461 39.5375 52.4711 39.5625 52.2961 39.5375C52.3586 39.55 52.4086 39.5625 52.4461 39.6V39.625ZM53.9711 39.7625C54.1586 39.6625 54.6961 39.7625 54.8461 39.6875C54.7211 39.825 55.2211 39.8375 55.6336 39.725C55.4711 39.825 55.1336 39.85 54.9836 39.9125C54.8336 39.975 54.7461 39.925 54.6336 39.8875C54.5086 39.8375 54.2211 39.725 53.9711 39.7625Z" fill="#00D860"/>
<path id="Vector_35" d="M55.6336 39.725C55.2211 39.85 54.7336 39.825 54.8586 39.6875C54.6836 39.7625 54.1586 39.6625 53.9836 39.7625C54.1586 39.65 54.3086 39.7375 54.4461 39.5C54.5461 39.525 54.7336 39.5375 54.8211 39.4375C54.9542 39.4645 55.0812 39.5153 55.1961 39.5875C55.2711 39.65 55.3711 39.575 55.2836 39.4625C55.4586 39.4 55.3461 39.5625 55.7961 39.4375C55.8836 39.4125 56.1086 39.375 56.1961 39.375C56.0275 39.5133 55.8428 39.6308 55.6461 39.725H55.6336Z" fill="#00D860"/>
<path id="Vector_36" d="M47.4836 37.8L47.3836 27.9625C47.3836 27.5125 47.1711 27.6 47.1711 27.9625V37.7125L47.4836 37.8ZM50.6711 27.425L51.0211 37.8L50.9836 37.8875H50.7461L50.5211 27.425H50.6711ZM53.6836 36.2L53.5086 27.775C53.5086 27.525 53.2836 27.5625 53.2836 27.825L53.4586 36.2H53.6836Z" fill="#FFFF00" stroke="black" stroke-width="0.05"/>
<path id="Vector_37" d="M48.8961 29.15L45.7961 29.1125C45.6711 29.7375 46.4211 29.6875 46.6711 29.55C47.0461 29.775 47.2961 29.775 47.4836 29.55C47.7336 29.775 48.1086 29.725 48.2336 29.55C48.5836 29.8625 48.9836 29.55 48.8961 29.1125V29.15ZM49.1211 30.6625H46.0211C45.4336 31.2 46.1461 31.4625 46.7711 31.1C46.8586 31.2875 47.2086 31.375 47.4836 31.2375C47.7336 31.4125 48.1086 31.2875 48.2711 31.1125C48.5836 31.2375 48.9836 31.2875 49.1586 30.6625H49.1211ZM49.0336 32.6625H46.0211C45.9711 33.15 46.5961 33.1 46.8086 32.9625C47.0336 33.325 47.5586 33.2375 47.7461 33.0125C48.0586 33.2375 48.3211 33.1875 48.4586 33.0125C48.7586 33.275 49.0836 32.925 49.0336 32.6625V32.6625ZM49.2086 34.6125L45.7961 34.5625C45.6211 35.1375 46.1461 35.225 46.3711 35.1C46.4586 35.4 46.8961 35.3125 47.0336 35.1C47.2086 35.225 47.4336 35.1375 47.5336 35.0125C47.5711 35.3125 47.9711 35.3625 48.2836 35.1C48.9086 35.5375 49.4711 35.0125 49.1586 34.6L49.2086 34.6125ZM52.1711 33.8125H49.3836C49.5086 34.3375 49.7836 34.475 50.2211 34.1625C50.5836 34.525 51.1086 34.3875 51.2461 34.2125C51.8711 34.7 52.1711 34.125 52.1711 33.7625V33.8125ZM51.9211 31.8625L49.1711 31.775C49.2086 32.475 49.8711 32.4375 50.2211 32.175C50.4461 32.475 50.8961 32.3875 51.1086 32.175C51.4211 32.525 51.9961 32.3 51.9086 31.8625H51.9211ZM52.2711 29.6875H49.3461C49.3461 30.175 50.0086 30.4375 50.4961 30C50.6211 30.575 51.1586 30.4 51.3711 30.175C51.7336 30.6125 52.4961 30.0875 52.2711 29.725V29.6875ZM52.0836 28.225L49.4336 28.2625C49.4336 28.7125 50.0586 28.8875 50.2711 28.5375C50.3961 28.75 50.8461 28.7125 50.9836 28.5375C51.1586 28.85 51.4211 28.625 51.5086 28.5375C51.8211 28.75 52.1336 28.625 52.0836 28.225ZM55.1461 29.2L51.9586 29.15C51.9586 29.4625 52.2711 29.6 52.4836 29.4625C52.4836 29.825 52.9336 29.9125 53.2336 29.6375C53.4211 29.95 53.9836 30 54.2211 29.6375C54.6586 30.0375 55.1961 29.725 55.0961 29.2H55.1461ZM55.1086 31.825H51.9961C51.9961 32.2625 52.4961 32.3875 52.7961 32.175C52.8461 32.525 53.2461 32.5625 53.4586 32.35C53.7711 32.6625 54.2086 32.7 54.4836 32.35C54.8336 32.475 55.1461 32.175 55.1086 31.8125V31.825ZM54.9211 34.1625H52.4461C52.4461 34.6125 52.9711 34.6125 53.1961 34.3875C53.4586 34.7 53.8211 34.7 54.0336 34.475C54.3461 34.7375 54.8836 34.65 54.9211 34.1625Z" fill="#F5F5F5" stroke="black" stroke-width="0.05"/>
<path id="Vector_38" d="M50.9836 37.8875C49.6461 37.8875 48.2711 37.8875 47.3461 37.8C46.4086 37.7125 46.1461 37.5375 45.4836 37.1375L42.9961 35.625C42.7836 35.525 42.5586 35.6625 42.8711 35.8375L45.3461 37.475C46.0211 37.925 46.4586 38.325 46.8461 38.8125C47.3836 39.3875 47.7461 39.3875 48.0086 39.3C48.2711 39.2125 48.6336 39.075 49.0336 39.1625C49.3836 39.25 49.9086 39.2875 50.1836 39.25C50.4086 39.475 50.9836 39.425 51.2961 39.3375C51.5389 39.2616 51.797 39.2487 52.0461 39.3H52.7961C53.0211 39.3 53.5961 39.1625 53.9961 39.2125C54.4336 39.3 54.8336 39.2125 55.1086 39.2125C55.394 39.1377 55.6915 39.1206 55.9836 39.1625C56.2003 39.0113 56.359 38.7909 56.4336 38.5375C56.6961 38.5 56.7836 38.45 56.8336 38.325L57.0961 37.6125H57.1836V37.35L57.0086 37.075L57.0961 36.6375L57.3211 36.55L57.2336 36.1L53.3336 36.1875C53.1887 36.3188 53.0918 36.4948 53.0586 36.6875L51.9086 36.8625C51.7836 36.9 51.6461 36.9 51.5086 37.075L50.9836 37.8875Z" fill="black" stroke="black" stroke-width="0.05"/>
<path id="Vector_39" d="M55.6336 36.1625L56.2086 33.9875C56.2961 33.7625 56.0836 33.725 55.9836 33.9875L55.4086 36.1625H55.6336Z" fill="black" stroke="black" stroke-width="0.05"/>
<path id="Vector_40" d="M57.896 33.725C57.4085 33.9375 57.146 34.075 56.921 33.9875C56.696 33.9 56.421 33.8625 56.2585 33.9375C56.2604 33.9541 56.2604 33.9709 56.2585 33.9875C56.0941 34.5507 55.9275 35.1132 55.7585 35.675C56.1335 35.8 56.746 35.8 56.8835 35.675C57.0585 35.5 57.4585 35.55 57.671 35.55C57.796 35.3625 57.846 35.1375 57.796 35.05C57.7585 34.9625 57.796 34.7375 57.796 34.6125C57.796 34.475 57.9835 33.9875 57.896 33.725Z" fill="#F5F5F5" stroke="black" stroke-width="0.05"/>
<path id="Vector_41" d="M54.3086 34.6375H53.7711M46.7211 29.55C45.8644 31.7885 44.6716 33.8834 43.1836 35.7625L46.7211 29.55ZM44.0586 36.2875C46.0271 34.7052 47.7353 32.824 49.1211 30.7125L44.0586 36.2875ZM46.0211 32.6125C45.8836 33.8125 45.5211 35.9375 45.3461 37.05L46.0211 32.6125ZM46.5086 35.275C46.0586 35.7125 45.4836 36.425 44.9961 36.825L46.5086 35.275ZM50.6211 32.875C50.2711 33.2375 49.8711 33.675 49.4711 33.7625L50.6211 32.875ZM50.8461 32.9625C51.1721 33.338 51.5837 33.6295 52.0461 33.8125L50.8461 32.9625ZM50.6211 31.0625C50.2352 31.4002 49.7843 31.6554 49.2961 31.8125L50.6211 31.0625ZM50.7961 31.1C51.0719 31.4135 51.4076 31.6685 51.7836 31.85L50.7961 31.1ZM49.3711 29.7C49.8155 29.5715 50.2255 29.3451 50.5711 29.0375L49.3711 29.7ZM50.6961 29.0375C51.0086 29.35 51.5836 29.6625 51.8961 29.7375L50.6961 29.0375ZM49.4586 28.275C49.8761 28.2003 50.253 27.9786 50.5211 27.65L49.4586 28.275ZM50.6461 27.575C50.9711 27.8375 51.5461 28.2 51.8586 28.2375L50.6461 27.575ZM53.2711 28.5875C53.0961 28.8125 52.6086 29.1625 52.2961 29.1625L53.2711 28.5875ZM53.4961 28.5875C53.6211 28.8125 53.9836 29.1625 54.2086 29.1625L53.4961 28.5875ZM52.0836 31.825C52.5566 31.6478 52.9808 31.3608 53.3211 30.9875L52.0836 31.825ZM53.5336 31.025C53.7495 31.3553 54.0408 31.6295 54.3836 31.825L53.5336 31.025ZM52.5711 34.125C52.7586 34.125 53.2461 33.85 53.3711 33.55L52.5711 34.125ZM53.6461 33.4125C53.8883 33.715 54.1851 33.9694 54.5211 34.1625L53.6461 33.4125ZM46.2336 34.5625C47.0952 34.2235 47.8688 33.6935 48.4961 33.0125L46.2336 34.5625ZM47.4336 33.85C47.8596 34.1837 48.3424 34.4377 48.8586 34.6L47.4336 33.85ZM46.1086 32.6125C46.4992 32.4564 46.859 32.2321 47.1711 31.95L46.1086 32.6125ZM47.3836 31.9C47.5211 32.075 48.4586 32.65 48.8586 32.65L47.3836 31.9ZM47.1711 30.0375C46.833 30.2994 46.4581 30.51 46.0586 30.6625L47.1711 30.0375ZM47.3836 30.0375C47.6961 30.2625 48.3586 30.6625 48.7586 30.6625L47.3836 30.0375ZM47.1711 28.2625C46.8677 28.6041 46.5084 28.8915 46.1086 29.1125L47.1711 28.2625ZM47.3836 28.3125C47.5711 28.625 48.0961 29.0625 48.4586 29.1125L47.3836 28.3125ZM51.9961 30.25C52.9655 31.9262 54.2825 33.3753 55.8586 34.5L51.9961 30.25ZM49.6086 28.6125C50.8586 30.3875 53.2336 34.2375 55.5461 35.6625L49.6086 28.6125ZM55.9836 34.1625C55.3923 34.9638 54.6594 35.6501 53.8211 36.1875L55.9836 34.1625ZM55.8211 34.6375C55.0586 33.3875 54.6586 31.85 54.0336 29.7625L55.8211 34.6375ZM47.8336 35.2625L48.7086 37.925L47.8336 35.2625ZM47.6586 35.2125L48.4961 37.875L47.6586 35.2125ZM47.4336 35.0875L48.2336 37.8375L47.4336 35.0875ZM47.3461 35.125L47.9711 37.8375L47.3461 35.125ZM47.9711 37.7375H48.7211H47.9711ZM48.6336 37.4875H47.9211H48.6336ZM48.5461 37.25H47.8336H48.5461ZM48.4586 37.0375H47.7461H48.4586ZM48.3211 36.7625H47.7461H48.3211ZM47.6961 36.55H48.2711H47.6961ZM47.6461 36.375H48.2336H47.6461ZM47.6086 36.15H48.1461H47.6086ZM47.5711 35.975H48.0586H47.5711ZM47.5211 35.75H47.9711H47.5211ZM47.4711 35.575H47.9211H47.4711ZM47.4336 35.4375H47.8711H47.4336ZM47.4336 35.2625H47.8336H47.4336ZM46.6836 35.2625L46.1461 37.475L46.6836 35.2625ZM46.8086 35.2625L46.3711 37.5625L46.8086 35.2625ZM46.9461 35.175L46.5961 37.6125L46.9461 35.175ZM47.1211 35.125L46.8586 37.7L47.1211 35.125ZM47.1711 37.525H46.2836H47.1711ZM47.1586 37.3H46.1586H47.1586ZM47.1586 37.0375H46.2461H47.1586ZM47.1336 36.8125H46.2961H47.1336ZM47.1711 36.5875H46.3336H47.1711ZM47.1836 36.325H46.4336H47.1836ZM47.1836 36.1H46.4336H47.1836ZM47.1336 35.875H46.4711H47.1336ZM47.1336 35.6625H46.5586H47.1336ZM47.1336 35.4375H46.6086H47.1336ZM47.1336 35.3125H46.6461H47.1336ZM47.0961 37.7375V35.125V37.7375ZM49.9711 34.25L48.1961 37.8375L49.9711 34.25ZM50.1086 34.2L48.6086 37.875L50.1086 34.2ZM50.1961 34.15L48.9961 37.875L50.1961 34.15ZM50.3336 34.25L49.3586 37.875L50.3336 34.25ZM49.3961 37.75H48.2836H49.3961ZM49.4836 37.3875H48.4211H49.4836ZM49.5336 37.125H48.6211H49.5336ZM49.6836 36.8625H48.7961H49.6836ZM49.7211 36.5875H48.8836H49.7211ZM49.8211 36.325H49.0211H49.8211ZM49.8961 36.0125H49.1961H49.8961ZM49.9461 35.7875H49.2836H49.9461ZM50.0336 35.5375H49.4086H50.0336ZM50.0836 35.35H49.5086H50.0836ZM50.1336 35.175H49.5086H50.1336ZM50.0836 35H49.6336H50.0836ZM50.0836 34.8625H49.6836H50.0836ZM50.1211 34.6875H49.7711H50.1211ZM50.2086 34.5125H49.8711H50.2086ZM50.2211 34.375H49.9211H50.2211ZM51.4211 34.325L52.1711 36.8125L51.4211 34.325ZM51.5461 34.375L52.4836 36.7625L51.5461 34.375ZM51.6836 34.375L52.8086 36.725L51.6836 34.375ZM53.0586 36.5L51.8211 34.325L53.0586 36.5ZM53.0711 36.55H52.1711H53.0711ZM52.9711 36.1875H52.0961H52.9711ZM52.8461 35.925H51.9961H52.8461ZM52.6586 35.6125H51.9086H52.6586ZM52.4836 35.35H51.8211H52.4836ZM52.3211 35.0375H51.7336H52.3211ZM52.1711 34.725H51.6461H52.1711ZM51.9961 34.4625H51.5586H51.9961ZM52.9711 34.5125L52.1711 36.8125L52.9711 34.5125ZM53.1961 34.4125L52.4836 36.7625L53.1961 34.4125ZM52.7961 36.725L53.3336 34.5125L52.7961 36.725ZM53.4586 34.6L53.0211 36.675L53.4586 34.6ZM52.2711 36.55H53.0211H52.2711ZM52.3586 36.275H53.1086H52.3586ZM52.4461 35.975H53.1586H52.4461ZM52.5711 35.7H53.2461H52.5711ZM52.6586 35.3875H53.2836H52.6586ZM52.7586 35.1375H53.3336H52.7586ZM52.8836 34.8125H53.4211H52.8836ZM52.9711 34.5625H53.4211H52.9711ZM53.8211 34.6L54.1711 36.1875L53.8211 34.6ZM53.9461 34.5125L54.4461 36.1375L53.9461 34.5125ZM54.1336 34.5125L54.6586 36.1375L54.1336 34.5125ZM54.3461 34.6L54.9211 36.15L54.3461 34.6ZM54.8836 36.025H54.1336H54.8836ZM54.7961 35.7875H54.0836H54.7961ZM54.7086 35.575H54.0336H54.7086ZM54.6211 35.3H53.9461H54.6211ZM54.4836 35.0875H53.8586H54.4836ZM54.3961 34.8625H53.8211H54.3961Z" stroke="black" stroke-width="0.05"/>
<path id="Vector_42" d="M47.0211 38.7125C47.2185 38.6055 47.4411 38.5537 47.6655 38.5625C47.8898 38.5713 48.1077 38.6404 48.2961 38.7625C48.6711 38.55 49.3336 38.6125 49.6461 38.8875C50.1211 38.5625 50.5211 38.5125 50.9836 38.825C51.3586 38.575 51.8836 38.55 52.3211 38.85C52.7336 38.65 53.1961 38.4875 53.5961 38.925C53.3461 38.75 52.8461 38.6 52.3211 39C51.9086 38.6 51.2086 38.75 50.9836 39.025C50.8997 38.9334 50.7973 38.8608 50.6832 38.8118C50.5691 38.7629 50.4459 38.7388 50.3217 38.7412C50.1976 38.7435 50.0753 38.7723 49.9632 38.8255C49.851 38.8788 49.7514 38.9553 49.6711 39.05C49.2586 38.7 48.6336 38.6875 48.2961 38.9625C48.0336 38.75 47.6461 38.575 47.0211 38.7125Z" fill="#00B800"/>
<path id="Vector_43" d="M53.3086 38.225C51.0786 38.4599 48.8282 38.4179 46.6086 38.1C46.3211 38.0125 46.3961 37.9125 46.6461 37.975C48.0873 38.1718 49.5447 38.2221 50.9961 38.125L51.7086 37.1625C51.8336 37.025 51.8586 37 52.0836 36.9625L53.0836 36.8V36.9375L53.0086 37.0125C53.0086 37.2375 53.0586 37.8125 53.0961 38.0375C53.1461 38.0375 53.2086 38 53.2211 38C53.3211 37.975 53.3961 38.1875 53.3211 38.2125L53.3086 38.225Z" fill="#CF6200"/>
<path id="Vector_44" d="M56.3211 38.3125H56.5586C56.6095 38.3097 56.6583 38.2915 56.6985 38.2602C56.7387 38.2289 56.7684 38.1861 56.7836 38.1375L57.0336 37.4125L56.8461 37.1375C56.8792 36.9381 56.9084 36.7381 56.9336 36.5375L57.1836 36.45C57.1836 36.4 57.1711 36.25 57.1086 36.2C56.3211 36.2375 53.9836 36.325 53.5336 36.325C53.4336 36.325 53.3836 36.325 53.3461 36.4625C53.1211 37.2875 53.4336 38.4375 54.2586 39.0875C54.3211 39.15 54.3836 39.1 54.2836 39.0125C54.0936 38.8272 53.9297 38.6169 53.7961 38.3875L54.3836 38.3625C54.4336 38.55 54.5711 38.9625 54.6086 39.025C54.6336 39.1 54.6961 39.125 54.6711 39.025C54.5836 38.775 54.5461 38.4875 54.5086 38.3625L55.1336 38.35L55.1586 38.9375C55.1586 39.025 55.2336 39.025 55.2336 38.9375V38.3375L55.7711 38.325L55.7211 38.9125C55.7211 39 55.7586 39.0625 55.7836 38.9125L55.8711 38.325H56.2461C56.2461 38.425 56.1211 38.8125 56.0836 38.9C56.0586 39 56.0961 39 56.1336 38.9C56.2185 38.712 56.2814 38.5149 56.3211 38.3125V38.3125Z" fill="#CF6200"/>
<path id="Vector_45" d="M53.6961 38.2125C53.6461 38.0875 53.4461 37.6375 53.4336 37.3125L54.2086 37.2875C54.2435 37.594 54.2936 37.8985 54.3586 38.2L53.6961 38.2125ZM54.3586 37.2875L54.4836 38.2H55.1086L55.0836 37.275L54.3586 37.2875ZM53.4586 36.4875C53.4336 36.65 53.4211 37 53.4336 37.1625L54.1961 37.15L54.1336 36.4625L53.4586 36.4875ZM54.2836 36.4625L54.3336 37.1375L55.0836 37.125L55.0461 36.4375L54.2836 36.4625ZM55.1961 36.4375C55.1961 36.5875 55.2211 37.0125 55.2086 37.125L55.8711 37.1C55.8711 36.95 55.8961 36.525 55.8836 36.4125L55.1961 36.4375ZM56.0086 36.4125L55.9961 37.1L56.6961 37.075C56.7336 36.9375 56.7961 36.5375 56.7961 36.375L56.0086 36.4125ZM56.7336 37.225L55.9836 37.25C55.9645 37.5546 55.9395 37.8588 55.9086 38.1625L56.6211 38.1375C56.7186 37.9095 56.8021 37.6757 56.8711 37.4375L56.7336 37.225V37.225ZM55.2336 37.2625L55.2461 38.175L55.7836 38.1625L55.8586 37.25L55.2336 37.2625V37.2625ZM52.1586 37.0875L51.8711 37.15C51.6386 37.4858 51.3968 37.8151 51.1461 38.1375L52.1961 38.1125L52.1586 37.1V37.0875ZM52.2961 37.0625L52.3336 38.1L52.9586 38.05L52.8711 36.9625L52.2961 37.0625Z" fill="black"/>
<path id="Vector_46" d="M49.2086 34.6125H45.7961V34.525L49.2086 34.5625V34.6125ZM51.8711 31.8625C51.9086 31.8625 51.9086 31.8625 51.8711 31.8625L49.2086 31.8125C49.1586 31.8125 49.1586 31.8125 49.2086 31.8125H51.8711V31.8625ZM49.0336 32.6125C49.0711 32.6125 49.0711 32.6625 49.0336 32.6625H46.0211C45.9711 32.6625 46.0211 32.6125 46.0211 32.6125H49.0336ZM49.1211 30.6625C49.1586 30.6625 49.1586 30.7125 49.1211 30.7125H45.9711C45.9211 30.7125 45.9211 30.6625 45.9711 30.6625H49.1211ZM48.8961 29.1125C48.9461 29.1125 48.9461 29.15 48.8961 29.15H45.8336C45.7961 29.15 45.8336 29.0625 45.8336 29.0625L48.9461 29.1125H48.8961Z" fill="black" stroke="black" stroke-width="0.05"/>
<path id="Vector_47" d="M52.0836 28.225L49.4336 28.2625L52.0836 28.225Z" fill="#F5F5F5" stroke="black" stroke-width="0.05"/>
<path id="Vector_48" d="M52.2211 29.725C52.2711 29.725 52.2711 29.725 52.2211 29.725H49.3461C49.2961 29.725 49.2961 29.725 49.3461 29.725H52.2211ZM55.0961 31.775V31.8125H51.9961C51.9086 31.8125 51.9086 31.8125 51.9961 31.8125H55.1211L55.0961 31.775ZM55.0961 29.15C55.1961 29.15 55.1961 29.2 55.0961 29.2H51.9586C51.9086 29.2 51.9086 29.15 51.9586 29.15H55.1461H55.0961ZM52.1711 33.775C52.2211 33.775 52.2211 33.8125 52.1711 33.8125H49.3461V33.7625L52.1711 33.775ZM54.9211 34.1625C54.9711 34.1625 54.9711 34.1625 54.9211 34.1625H52.4461H54.9211Z" fill="black" stroke="black" stroke-width="0.05"/>
<path id="Vector_49" d="M57.1836 34.6125C57.2334 34.4071 57.2334 34.1928 57.1836 33.9875C57.0977 34.0115 57.0069 34.0115 56.9211 33.9875C56.8811 33.9559 56.8394 33.9267 56.7961 33.9C56.7961 34.075 56.6961 34.5625 56.6086 34.7375C56.4836 34.7375 56.1711 34.7375 56.0336 34.65L55.9086 35.1C56.1268 35.1477 56.3528 35.1477 56.5711 35.1C56.5711 35.35 56.5211 35.5875 56.3836 35.7625C56.6086 35.7625 56.8336 35.7625 56.8836 35.6375C57.0086 35.45 57.0086 35.1875 57.0586 35.05L57.2711 35.0125L57.4961 34.9125L57.8086 34.875V34.6125L57.8961 34.425L57.1836 34.65V34.6125Z" fill="#EF072D" stroke="black" stroke-width="0.05"/>
<path id="Vector_50" d="M46.1961 19.625C45.7484 19.6031 45.2997 19.6324 44.8586 19.7125C44.7336 19.8 44.6836 19.8375 44.9461 19.8875C45.2211 19.9375 45.6961 20.1125 45.9711 20.2375C46.1148 20.3348 46.2306 20.4678 46.3073 20.6234C46.384 20.779 46.4189 20.9518 46.4086 21.125C46.3109 21.673 46.3874 22.2378 46.6273 22.74C46.8672 23.2422 47.2585 23.6567 47.7461 23.925C47.7836 23.9625 47.8336 24.0125 47.7836 24.1875L47.6586 24.6875C47.6586 24.7625 47.6086 24.85 47.7461 24.8125C47.6075 25.057 47.4573 25.2948 47.2961 25.525C46.5961 25.425 45.9711 25.525 45.9711 26.3125C45.9711 26.4 45.9711 26.5 46.0586 26.3125C46.1836 26.1375 46.3211 25.9625 46.6336 25.875C46.4586 26.1875 46.3711 26.45 46.4086 26.625C46.4086 26.75 46.5086 26.85 46.5961 26.625C46.6336 26.45 46.8086 26.275 46.9461 26.1375C47.0336 26.1 47.0336 26.1 46.9961 26.225C46.9461 26.35 47.0336 26.625 47.1211 26.725C47.2086 26.8 47.2461 26.7625 47.2086 26.625C47.2086 26.45 47.2086 26.1375 47.4336 26.05C47.6961 25.875 47.9711 25.9625 48.0586 26.1375C48.1836 26.3625 48.2711 26.1375 48.1461 25.9625C48.0211 25.7875 47.8711 25.5625 47.6961 25.5625L48.1461 24.8125C48.1461 24.725 48.2336 24.6875 48.3211 24.725C48.3211 24.7625 48.4086 24.7625 48.4461 24.6375L48.7586 24.0125L49.0336 23.925L49.4711 24.5875V24.85C49.4711 25.0375 49.2961 25.425 49.2461 25.5625C48.7211 25.5625 48.4586 25.5625 48.2711 25.875C48.1836 26 48.3211 26.05 48.4586 26C48.5909 25.9205 48.7418 25.8774 48.8961 25.875C48.9836 25.875 49.0211 25.9625 48.8961 26C48.5836 26.1375 48.3586 26.3625 48.3586 26.675C48.3586 26.7625 48.4586 26.8 48.4961 26.675C48.6211 26.45 48.8586 26.275 49.0711 26.225C49.0711 26.45 49.1211 26.8 49.2961 26.8875C49.4211 26.9875 49.4211 26.8875 49.3836 26.7625C49.2961 26.5375 49.3836 26.3125 49.5086 26.1875C49.7336 25.9125 50.2711 26.275 50.4086 26.3625C50.4961 26.45 50.5836 26.4875 50.4961 26.2375C50.4461 25.9125 49.9961 25.7875 49.6086 25.7L50.1336 23.825C50.3586 23.9625 50.5836 23.6125 50.9336 23.75C51.5586 24.0125 52.4836 24.5875 52.6211 24.725C52.7961 24.85 52.8461 24.8125 52.9336 24.725C53.0211 24.675 53.1586 24.725 53.2836 24.725C53.3711 24.7625 53.4586 24.8125 53.3336 24.55C53.0823 24.0797 52.7169 23.68 52.2711 23.3875C52.6211 23.3875 53.0586 23.3875 53.0586 23.3C53.0586 23.2125 52.5336 23.0375 52.3086 23.0375C52.5738 22.9888 52.8204 22.8676 53.0211 22.6875C53.1086 22.5875 53.0211 22.55 52.6586 22.55C51.7336 22.55 51.2461 22.55 50.7586 22.2875C49.9586 21.8375 49.4711 21.3125 49.0711 21.125C48.8961 21 48.7586 20.725 48.6336 20.5C48.4086 19.85 48.4086 19.5 47.8336 19.2625C47.5522 19.181 47.2547 19.1715 46.9686 19.2348C46.6825 19.2982 46.4169 19.4323 46.1961 19.625V19.625Z" fill="black" stroke="black" stroke-width="0.05"/>
<path id="Vector_51" d="M46.2461 19.8H45.4836C45.4836 19.8 45.3961 19.8 45.4836 19.8L46.1461 19.975C46.2711 19.975 46.2336 20.1 46.1461 20.0625C46.0586 20.025 45.9711 20.0625 46.0586 20.15C46.5086 20.4625 46.5961 20.6 46.5086 21.8L46.7211 21.975C46.8086 21.975 46.7711 22.0625 46.7211 22.0125C46.6836 21.975 46.5086 22.0125 46.6336 22.1C46.7586 22.2 46.8586 22.2 46.7211 22.2C46.5961 22.2 46.4586 22.2875 46.7211 22.2375C46.9461 22.2375 47.0836 22.325 46.7211 22.3625C46.4586 22.3625 46.5461 22.4625 46.7211 22.4625C47.0336 22.4625 46.9461 22.55 46.8461 22.55C46.7711 22.55 46.7211 22.6375 46.9461 22.6375H47.2586C47.2961 22.6375 47.3461 22.6375 47.2586 22.6875C47.1711 22.6875 47.1711 22.775 47.2961 22.775C47.4336 22.775 47.5211 22.775 47.3836 22.8125C47.3461 22.8125 47.2586 22.8625 47.3836 22.9C47.6961 22.9 47.7461 22.9875 47.6586 23.025C47.5711 23.075 47.5336 23.075 47.6586 23.075C47.7836 23.075 47.9211 23.125 47.7836 23.175C47.6961 23.175 47.6586 23.2625 47.7836 23.2625C47.9211 23.2625 48.0086 23.35 47.9211 23.3875C47.8336 23.4375 47.7961 23.475 47.9211 23.475C48.0461 23.475 48.0961 23.525 48.0086 23.5625C47.9211 23.6625 47.8836 23.6625 47.7836 23.5625C47.7836 23.475 47.6961 23.475 47.6961 23.5625L47.6086 23.4375C47.5711 23.3125 47.4836 23.3125 47.4836 23.4375C47.4836 23.5625 47.3836 23.475 47.2961 23.4375C47.5098 23.6865 47.801 23.8564 48.123 23.9199C48.4449 23.9834 48.7789 23.9367 49.0711 23.7875C49.1211 23.7875 49.1586 23.7875 49.1961 23.9125L49.4711 24.4125C49.5211 24.5 49.5961 24.4125 49.5961 24.325L49.8711 23.575C49.8711 23.4375 50.0461 23.35 49.9961 23.7C50.1336 23.6125 50.6711 23.575 51.1211 23.7C51.5432 23.87 51.9422 24.0926 52.3086 24.3625C52.3398 24.3874 52.3763 24.4048 52.4153 24.4135C52.4543 24.4222 52.4948 24.4218 52.5336 24.4125C52.6586 24.4125 52.7086 24.4125 52.4836 24.1875C52.2711 23.9625 52.3586 23.875 52.4836 23.9625C52.6211 24.0625 52.7086 24.0125 52.5711 23.875L52.1336 23.475C52.0836 23.475 52.0836 23.3875 51.8711 23.3875H51.1961C51.1086 23.3875 51.0211 23.3875 51.2961 23.475C51.5461 23.5625 52.0461 23.925 52.1711 24.0125C52.3086 24.1 52.3586 24.275 52.1336 24.1C51.6286 23.7592 51.093 23.4663 50.5336 23.225C49.3461 23.35 48.3586 23.475 47.6586 22.725C47.2961 22.325 47.2961 21.475 47.8711 21.125C47.7836 21.0375 47.7836 20.95 47.8336 20.95V20.6875C47.7461 20.6375 47.6586 20.5625 47.6586 20.4625C47.5336 20.4625 47.4336 20.2375 47.2086 20.3375C46.9961 20.425 46.9461 20.3375 46.8586 20.2875C46.8086 20.2 46.7711 20.2 46.6336 20.2C46.5086 20.2 46.4086 20.2 46.4086 20.1125C46.4086 20.025 46.5086 20.025 46.6836 20.1125C46.9961 20.2375 47.2586 20.3375 47.4836 20.025C47.6586 19.75 47.3836 19.525 47.0336 19.45C46.6336 19.3625 46.3711 19.6625 46.1961 19.8H46.2461Z" fill="#F5F5F5" stroke="black" stroke-width="0.05"/>
<path id="Vector_52" d="M48.1837 19.6625C48.0563 19.5503 47.9074 19.4653 47.7462 19.4125C47.6212 19.4125 47.6211 19.4875 47.6586 19.5375V19.8C47.7461 19.85 47.7836 19.925 47.6586 19.925C47.5711 20.025 47.6586 20.3375 47.7836 20.2375H47.8712C47.8712 20.2375 47.8711 20.375 47.9711 20.375C48.0586 20.375 47.9711 20.4625 47.9711 20.5H48.0587C48.1462 20.5 48.0962 20.6875 48.0087 20.725C48.1337 20.725 48.1837 20.725 48.1837 20.825C48.2337 20.9125 48.3587 20.95 48.3587 21.075C48.3587 21.225 48.3587 21.225 48.1837 21.175C48.0087 21.125 48.0086 21.175 47.9711 21.2625C47.9211 21.35 47.8711 21.3875 47.9711 21.3875C48.0586 21.3875 48.1462 21.4375 48.0087 21.4875C47.8837 21.525 47.7462 21.4875 47.6962 21.6125C47.6962 21.75 47.6961 21.8 47.7836 21.75L48.0961 21.575L48.3212 21.6125C48.4087 21.6625 48.3212 21.8375 48.2337 21.75C48.1462 21.6625 48.0587 21.75 48.0087 21.8L47.7836 21.8875C47.6961 21.8875 47.6086 21.8875 47.6586 22.1C47.6586 22.725 48.1461 23.175 49.0336 23.175H50.4962C50.2212 22.9875 50.0462 22.9 49.9212 22.9H49.7836C49.8336 22.8625 49.7837 22.775 49.7337 22.775C49.6962 22.775 49.6087 22.6875 49.5212 22.775L49.0712 22.9875C48.9837 22.9875 48.8587 22.9875 48.9837 22.9L49.3837 22.725C49.4712 22.725 49.4337 22.6375 49.4337 22.6375C49.4337 22.6375 49.4337 22.5125 49.5587 22.55C49.8005 22.7281 50.0711 22.8634 50.3587 22.95C50.4837 22.95 50.5337 22.8625 50.4462 22.825C50.4121 22.8057 50.383 22.7787 50.3613 22.7461C50.3396 22.7136 50.3259 22.6764 50.3212 22.6375C50.3212 22.5875 50.3586 22.55 50.5336 22.6375C50.712 22.7516 50.9056 22.84 51.1087 22.9C51.2462 22.95 51.3337 22.95 51.1087 22.8125L50.0961 22.0625C49.9711 21.9375 49.9712 22.0625 50.0087 22.15C50.0462 22.2375 49.8836 22.275 49.7836 22.2C49.6961 22.1 49.6586 22.0625 49.7836 22.0125C49.9086 21.975 49.8712 21.925 49.7337 21.8C49.5587 21.6625 49.5212 21.6625 49.5587 21.8C49.6087 21.925 49.6086 22.0125 49.4711 21.975C49.3461 21.925 49.2086 21.85 49.3461 21.8C49.4336 21.7125 49.5586 21.6625 49.3461 21.525C49.1211 21.4 49.2462 21.525 49.2087 21.6125C49.1587 21.7125 49.0337 21.7125 48.9837 21.6125C48.9462 21.525 48.8587 21.4875 48.8962 21.4375C48.9462 21.4 48.9462 21.35 49.0212 21.4375C49.1212 21.525 49.2087 21.4375 49.0712 21.3125C48.9462 21.175 48.8962 21.225 48.9462 21.3125C48.9837 21.4 48.8587 21.4875 48.6712 21.3125C48.5837 21.2625 48.5837 21.175 48.6712 21.125C48.7587 21.125 48.7587 21.0875 48.6712 21C48.3587 20.4625 48.4962 20.0625 48.1462 19.6625H48.1837Z" fill="#F5F5F5" stroke="black" stroke-width="0.05"/>
<path id="Vector_53" d="M48.2086 19.75C48.1836 19.8 48.1711 19.8 48.1211 19.8375C48.0461 19.875 48.0336 20.0125 48.1461 19.9875C48.2336 19.9875 48.2711 19.925 48.2961 19.9C48.2713 19.8476 48.2421 19.7974 48.2086 19.75V19.75ZM47.8461 19.4625C47.7586 19.55 47.7461 19.5875 47.7836 19.5875C47.8461 19.5875 47.8211 19.5875 47.7836 19.65C47.7461 19.7125 47.8586 19.7375 47.9086 19.7125C47.9461 19.675 47.9586 19.65 47.9836 19.7125C48.0086 19.75 48.0711 19.7125 48.1336 19.6625C48.0474 19.5829 47.9507 19.5156 47.8461 19.4625V19.4625ZM47.6836 19.9625C47.5711 20.025 47.6211 20.3125 47.7836 20.2375C47.8461 20.2125 47.8961 20.2125 47.8836 20.2625V20.3375C47.9599 20.3075 48.0283 20.2605 48.0836 20.2C48.1961 20.075 48.0836 20.075 47.9336 20.075C47.7711 20.075 47.7211 20.0625 47.8836 19.9625C48.0086 19.875 47.9211 19.825 47.7336 19.85C47.7586 19.8875 47.7336 19.9375 47.6836 19.9625V19.9625ZM48.3586 20.6375C48.2586 20.55 48.3211 20.5 48.4211 20.4625L48.4586 20.4125L48.3836 20.125C48.3336 20.125 48.2836 20.2375 48.2586 20.3C48.2461 20.375 48.2211 20.425 48.1461 20.3875C48.0711 20.375 48.0086 20.45 47.9961 20.5375H48.0336C48.0711 20.5375 48.0961 20.5875 48.0836 20.625C48.2961 20.625 48.3336 20.7625 48.3586 20.875C48.3961 20.975 48.4461 20.95 48.4836 20.9C48.5086 20.8375 48.4336 20.725 48.3586 20.625V20.6375Z" fill="#CF6200"/>
<path id="Vector_54" d="M48.4086 21.8375C48.3711 21.925 48.3711 21.925 48.2461 21.925C48.1211 21.925 47.9711 21.9625 47.9086 22.025C47.8711 22.0625 47.6586 22.075 47.6586 22.175C47.6586 22.2625 47.6586 22.3375 47.7461 22.35C47.8336 22.35 47.8461 22.375 47.8211 22.4375C47.7836 22.5 47.7586 22.625 47.9086 22.625C48.0711 22.6375 48.1961 22.6 48.2336 22.6875C48.2711 22.775 48.2336 22.9375 48.2586 22.975C48.2961 23.0375 48.4086 23.075 48.5711 23.125C48.6961 23.15 49.1086 23.175 49.2461 23.1625C49.3711 23.1375 49.3336 23.075 49.1961 23.05C49.0711 23.05 48.9586 23.025 48.9211 22.925C48.8961 22.8375 48.8711 22.7875 48.9586 22.7C49.0211 22.6125 49.0961 22.5625 49.0586 22.425C49.0086 22.3 48.9336 22.125 48.7836 22.0875C48.6336 22.05 48.6836 21.8375 48.5336 21.825L48.4086 21.8375V21.8375Z" fill="#FFFF00"/>
<path id="Vector_55" d="M47.6586 23.1C47.7961 23.1 47.9086 23.1375 47.8086 23.175C47.6836 23.2 47.6211 23.2625 47.7711 23.275C47.9086 23.2875 48.0211 23.3375 47.9211 23.375C47.8211 23.4125 47.7961 23.475 47.9211 23.4625C48.0461 23.4625 48.1086 23.5375 48.0211 23.5875C47.9336 23.6375 47.8711 23.675 47.8086 23.5875C47.7586 23.5 47.7211 23.4625 47.6961 23.5375C47.6836 23.6 47.6461 23.55 47.5961 23.45C47.5586 23.3375 47.4711 23.325 47.4961 23.4C47.5211 23.4875 47.4086 23.4875 47.3086 23.45C47.4108 23.5537 47.5239 23.6459 47.6461 23.725C47.7711 23.675 47.9461 23.725 47.9961 23.725C48.0461 23.725 48.2336 23.775 48.3211 23.8125C48.4211 23.8625 48.4836 23.775 48.4461 23.6875C48.4086 23.5625 48.3961 23.6125 48.3586 23.6625C48.2961 23.725 48.2961 23.6375 48.2961 23.5125C48.2961 23.425 48.2336 23.45 48.1961 23.5125C48.1711 23.575 48.1336 23.475 48.1586 23.4125C48.1836 23.35 48.1586 23.325 48.0961 23.3375C48.0461 23.3625 48.0461 23.3375 48.0336 23.2125C48.0336 23.1 47.9836 23.125 47.9711 23.1625C47.9461 23.2125 47.9086 23.15 47.8336 23.0625C47.7711 22.975 47.7086 23.025 47.5836 23.075L47.6711 23.1H47.6586Z" fill="#CF6200"/>
<path id="Vector_56" d="M49.0587 23.8C48.4337 24.0625 47.9837 23.95 47.6337 23.7125C47.7837 23.675 47.9462 23.7125 47.9962 23.7125C48.1096 23.7331 48.2192 23.7711 48.3212 23.825C48.4212 23.875 48.4837 23.775 48.4462 23.675C48.5462 23.7875 48.5962 23.8625 48.6962 23.8625C48.8212 23.85 48.9712 23.8375 49.0712 23.8H49.0587ZM47.7212 20.9125C47.6837 20.7875 47.6462 20.75 47.5712 20.75L47.3962 20.725C47.3212 20.6875 47.2087 20.725 47.2087 20.8625C47.2087 21.0125 47.1087 21.075 46.9962 21.15C46.8712 21.2375 46.8087 21.3125 46.8087 21.45C46.8087 21.575 46.7712 21.625 46.7087 21.7125L46.5712 21.8625L46.7212 21.9625C46.7962 21.9875 46.7712 22.05 46.6837 22.025C46.5962 22.0125 46.5212 22.05 46.6587 22.0875C46.7837 22.1125 46.8587 22.175 46.7337 22.175C46.5962 22.175 46.4462 22.275 46.7087 22.25C46.9587 22.225 47.0587 22.3375 46.7587 22.3375C46.4462 22.3625 46.5712 22.4625 46.7337 22.4625C47.0212 22.4625 46.9337 22.5375 46.8587 22.5375C46.7837 22.5375 46.7462 22.625 46.9337 22.6125H46.9462C46.9712 22.5875 46.9962 22.55 47.0087 22.5C47.0337 22.4125 47.0712 22.15 47.1837 22.0625C47.2837 21.9875 47.3462 21.8875 47.3462 21.8125C47.3897 21.6262 47.4801 21.4541 47.6087 21.3125C47.7212 21.225 47.7587 21.0375 47.7337 20.9125H47.7212Z" fill="#FFFF00"/>
<path id="Vector_57" d="M47.4961 20.9125C47.3836 20.8375 47.2711 20.8875 47.2711 21.0125C47.2711 21.15 47.2086 21.2 47.1211 21.2375C47.0719 21.2672 47.0297 21.3071 46.9974 21.3546C46.965 21.402 46.9432 21.4559 46.9336 21.5125C46.9086 21.6125 46.9461 21.6875 46.8586 21.775C46.7961 21.8625 46.7711 21.925 46.8336 21.975C46.8961 22.025 46.8961 22.025 46.9086 22.1C46.9336 22.1625 47.0586 22.1 47.0586 22.0125C47.0586 21.925 47.0961 21.925 47.1836 21.8875C47.2711 21.8375 47.4086 21.6125 47.3711 21.55C47.3461 21.5 47.2711 21.45 47.3711 21.3625C47.4711 21.2625 47.5711 21.2625 47.5711 21.175C47.5711 21.0875 47.5961 21.075 47.6336 21.0375C47.6586 21.0125 47.5586 20.9625 47.4961 20.9125V20.9125Z" fill="#CF6200"/>
<path id="Vector_58" d="M47.4961 20.8C47.4211 20.775 47.3836 20.925 47.4836 20.95C47.5836 20.9625 47.5961 20.825 47.4836 20.8H47.4961ZM47.4711 21C47.4086 21 47.3086 21.1 47.4461 21.0875C47.5711 21.075 47.6211 20.975 47.4711 21ZM47.3336 21.175C47.2461 21.225 47.2711 21.325 47.3711 21.25C47.4836 21.1625 47.5211 21.0875 47.3336 21.1875V21.175ZM47.2086 21.35C47.1211 21.3875 47.1461 21.4875 47.2586 21.4125C47.3711 21.3375 47.4086 21.25 47.2086 21.35Z" fill="black"/>
<path id="Vector_59" d="M47.0461 21.4125C46.9586 21.45 47.0211 21.5625 47.1336 21.4875C47.2586 21.425 47.2461 21.3125 47.0461 21.425V21.4125ZM47.1336 21.5125C47.0586 21.55 47.1211 21.6625 47.2211 21.5875C47.3336 21.5125 47.3461 21.4125 47.1336 21.5125Z" fill="black"/>
<path id="Vector_60" d="M47.0086 21.55C46.9211 21.6 46.9711 21.7 47.0961 21.625C47.2211 21.55 47.1961 21.45 47.0086 21.55ZM47.0961 21.675C47.0086 21.7125 47.0586 21.8125 47.1836 21.7375C47.2961 21.6625 47.2836 21.575 47.0836 21.675H47.0961Z" fill="black"/>
<path id="Vector_61" d="M46.9586 21.7375C46.8711 21.775 46.9336 21.875 47.0586 21.8C47.1836 21.7375 47.1461 21.6375 46.9586 21.7375Z" fill="black"/>
<path id="Vector_62" d="M46.971 21.8375C46.8835 21.875 46.9335 21.975 47.0585 21.9C47.1835 21.8375 47.1585 21.7375 46.971 21.8375Z" fill="black"/>
<path id="Vector_63" d="M46.9086 22.8125C46.8211 22.8125 46.7836 22.9375 46.8711 22.95C46.9711 22.975 46.9961 22.975 46.9961 23.0625C46.9961 23.1375 47.0211 23.2375 47.1336 23.25C47.2461 23.25 47.3461 23.125 47.2461 23.1C47.1461 23.0625 47.0586 23.025 47.0586 22.95C47.0586 22.85 46.9711 22.8 46.9086 22.8125V22.8125Z" fill="#CF6200"/>
<path id="Vector_64" d="M49.7461 22.15L49.7836 22.2C49.8586 22.2625 50.0086 22.2 49.9836 22.15C49.9711 22.0875 49.8961 21.925 50.0711 22.0625L51.1336 22.8C51.3461 22.95 51.2086 22.975 51.1086 22.925L50.5461 22.6625C50.3711 22.5625 50.3586 22.6 50.3211 22.625C50.3086 22.6625 50.3211 22.725 50.3836 22.7875C50.2836 22.8 50.1211 22.7875 50.0711 22.6625C50.0086 22.5375 49.8711 22.375 49.7836 22.25C49.7461 22.2 49.7211 22.175 49.7336 22.15H49.7461Z" fill="#FFFF00"/>
<path id="Vector_65" d="M55.4586 41.025C55.3086 41.1125 55.1086 41.2875 55.2461 41.525L55.2836 41.5C55.836 40.8297 56.3256 40.11 56.7461 39.35V39.2875C56.5956 39.4155 56.4271 39.5208 56.2461 39.6C56.3086 39.7875 55.9961 40.025 55.8086 40.1C55.8836 40.225 55.8586 40.3875 55.7086 40.425C55.7461 40.525 55.6211 40.525 55.4961 40.5875C55.3586 40.65 55.2836 40.675 55.2461 40.7625C55.3086 40.7125 55.4211 40.675 55.4711 40.7C55.5211 40.725 55.5461 40.8 55.4336 40.825C55.3336 40.85 55.2586 40.9 55.2336 40.95C55.3836 40.9 55.5961 40.925 55.4461 41.025H55.4586Z" fill="#00D860"/>
<path id="Vector_66" d="M48.6211 21.925C48.4586 21.8 48.4086 21.8875 48.4586 21.925C48.4961 21.975 48.4586 22.1 48.3211 22.15H47.8711C47.7836 22.15 47.6586 22.325 47.8711 22.275L48.5836 22.15C48.6711 22.15 48.7586 22.0625 48.5836 21.925H48.6211ZM48.9461 22.2C48.8086 22.0625 48.7586 22.1 48.8086 22.2C48.8586 22.2875 48.7586 22.325 48.6836 22.325L48.0586 22.5C47.8711 22.5 47.8711 22.6375 48.0961 22.6375C48.3211 22.6375 48.7586 22.4125 48.8086 22.4125C48.8586 22.4125 48.8961 22.2875 48.9336 22.325C48.9836 22.375 49.0711 22.325 48.9336 22.2H48.9461ZM49.0711 22.55L48.6336 22.775C48.5086 22.775 48.4086 22.9 48.6336 22.9C48.8586 22.9 49.0711 22.6875 49.1586 22.6375L49.3461 22.55C49.3461 22.55 49.5211 22.5 49.3461 22.375C49.1586 22.25 48.9836 22.375 49.0711 22.4125C49.1586 22.4625 49.0711 22.5375 49.0711 22.5375V22.55Z" fill="black" stroke="black" stroke-width="0.05"/>
<path id="Vector_67" d="M47.2586 19.6625C46.9836 19.4875 46.6586 19.8625 46.9711 20.075C47.2461 20.2625 47.5336 19.8375 47.2586 19.6625Z" fill="black"/>
<path id="Vector_68" d="M46.9086 19.8375H46.9961C46.9711 19.925 47.0586 20.05 47.1961 20.025C47.0836 20.1 46.8836 20.0125 46.9086 19.8375ZM48.0086 24.025C48.0961 24.05 48.3836 24.0875 48.4836 24.0875L48.3586 24.3375C48.3211 24.4125 48.3086 24.425 48.3086 24.3125C48.3086 24.1875 48.2336 24.1125 48.1836 24.2375L48.0586 24.45C48.0336 24.5 47.9836 24.525 47.9961 24.4V24.0375L48.0086 24.025Z" fill="#F5F5F5"/>
<path id="Vector_69" d="M59.1336 27.425C59.1336 34.65 57.9836 42.45 48.5836 46.175C39.2336 42.45 38.0836 34.65 38.0336 27.425H59.1336ZM59.1336 27.425C59.1336 24.675 59.0086 22.0125 59.0461 19.7125C55.7114 18.4172 52.1608 17.7681 48.5836 17.8C46.2336 17.8 41.6211 18.1625 38.1211 19.7125C38.2086 22.0125 38.0336 24.675 38.0336 27.425H59.1336Z" stroke="black" stroke-width="0.1375"/>
<path id="Vector_70" d="M0.246094 0H32.2461V32H0.246094V0Z" fill="#012169"/>
<path id="Vector_71" d="M32.2461 0V4L20.3711 16L32.2461 27.6875V32H28.0586L16.1211 20.25L4.49609 32H0.246094V27.75L11.8711 16.0625L0.246094 4.625V0H4.12109L16.1211 11.75L27.7461 0H32.2461Z" fill="#F5F5F5"/>
<path id="Vector_72" d="M11.7461 20.25L12.4336 22.375L2.87109 32H0.246094V31.8125L11.7461 20.25ZM19.4961 19.5L22.8711 20L32.2461 29.1875V32L19.4961 19.5ZM32.2461 0L20.2461 12.25L19.9961 9.5L29.3711 0H32.2461ZM0.246094 0.0625L12.3086 11.875L8.62109 11.375L0.246094 3.0625V0.0625Z" fill="#C8102E"/>
<path id="Vector_73" d="M11.2461 0V32H21.2461V0H11.2461ZM0.246094 11V21H32.2461V11H0.246094Z" fill="#F5F5F5"/>
<path id="Vector_74" d="M0.246094 13V19H32.2461V13H0.246094ZM13.2461 0V32H19.2461V0H13.2461Z" fill="#C8102E"/>
</g>
</g>
<defs>
<clipPath id="clip0_2909_185390">
<path d="M0.246094 32C0.246094 14.3269 14.573 0 32.2461 0V0C49.9192 0 64.2461 14.3269 64.2461 32V32C64.2461 49.6731 49.9192 64 32.2461 64V64C14.573 64 0.246094 49.6731 0.246094 32V32Z" fill="white"/>
</clipPath>
</defs>
</svg>
