<svg width="65" height="64" viewBox="0 0 65 64" fill="none" xmlns="http://www.w3.org/2000/svg">
<g id="Rounded=Andorra (AD)">
<g clip-path="url(#clip0_2909_185458)">
<path id="Vector" d="M0.246094 0H64.2461V64H0.246094V0Z" fill="#D0103A"/>
<path id="Vector_2" d="M0.246094 0H43.7711V64H0.246094V0Z" fill="#FEDF00"/>
<path id="Vector_3" d="M0.246094 0H20.7211V64H0.246094V0Z" fill="#0018A8"/>
<path id="Vector_4" d="M30.2836 21.6625C31.0586 21.6625 31.3711 22.325 32.1461 22.325C32.6211 22.325 32.8961 22.175 33.3086 21.9375C33.6086 21.775 33.7836 21.6875 34.1211 21.6875C34.4586 21.6875 34.6711 21.7875 34.8461 22.075C34.9571 22.2815 35.0008 22.5175 34.9711 22.75C34.9146 23.038 34.8266 23.3188 34.7086 23.5875C34.6461 23.7375 34.5836 23.8375 34.5836 24C34.5836 24.4125 35.1336 24.55 35.5086 24.5625C35.5961 24.5625 36.2961 24.5625 36.7211 24.1375C36.4836 24.1375 36.2211 23.95 36.2211 23.7125C36.2211 23.4625 36.4086 23.275 36.6586 23.2C36.7086 23.1875 36.7836 23.225 36.8336 23.2C36.8961 23.175 36.8586 23.1 36.9211 23.0625C37.0461 22.9625 37.1211 22.9 37.2836 22.9C37.3732 22.8943 37.462 22.9209 37.5336 22.975C37.5711 23 37.5961 23.05 37.6461 23.05C37.7711 23.05 37.8211 22.975 37.9336 22.975C38.0211 22.975 38.0836 22.975 38.1586 23.025C38.2336 23.0625 38.2336 23.175 38.3086 23.175C38.3461 23.175 38.5461 23.1 38.6586 23.1C38.8711 23.1 38.9961 23.175 39.1336 23.35C39.1711 23.3875 39.1961 23.475 39.2336 23.475C39.3329 23.4826 39.4289 23.5137 39.5137 23.5659C39.5985 23.6181 39.6696 23.6898 39.7211 23.775C39.7461 23.8125 39.7836 23.9125 39.8336 23.9375C39.8836 23.95 39.9211 23.95 39.9961 24C40.0804 24.0513 40.1508 24.1227 40.201 24.2077C40.2511 24.2928 40.2795 24.3889 40.2836 24.4875C40.2836 24.55 40.2461 24.6375 40.2336 24.7C40.0461 25.35 39.5961 25.575 39.1461 26.125C38.9461 26.375 38.7961 26.5625 38.7961 26.875C38.7961 26.95 38.8961 27.0875 38.9211 27.15C38.9086 27 38.9711 26.825 39.1211 26.8125C39.3336 26.8125 39.4961 26.9625 39.5211 27.1625C39.5211 27.2125 39.5211 27.3 39.4961 27.35C39.6086 27.275 39.7461 27.225 39.8961 27.2125C39.9585 27.2078 40.0212 27.2078 40.0836 27.2125C40.4237 27.2374 40.7473 27.3686 41.0086 27.5875C41.2493 27.7935 41.4405 28.0511 41.5682 28.341C41.6958 28.6309 41.7567 28.9459 41.7461 29.2625C41.6586 29.8 41.7086 30.75 40.3711 31.1375C40.6211 31.2375 40.7836 31.425 40.7836 31.65C40.7836 31.9 40.5961 32.125 40.3461 32.125C40.2812 32.1295 40.2161 32.1196 40.1556 32.0958C40.095 32.072 40.0406 32.035 39.9961 31.9875C39.7211 32.2625 39.6586 32.55 39.6586 32.95C39.6586 33.1875 39.7086 33.325 39.8086 33.5375C39.8797 33.7454 40.01 33.9279 40.1836 34.0625C40.2836 33.9125 40.3836 33.8125 40.5586 33.8125C40.7461 33.8125 40.8961 33.8625 40.9711 34.025C40.9836 34.0625 40.9711 34.1125 40.9961 34.15C41.0211 34.2125 41.0836 34.225 41.1211 34.2875C41.1586 34.3875 41.1211 34.4625 41.1586 34.5625C41.1836 34.625 41.2461 34.6375 41.2836 34.6875C41.3211 34.8 41.3336 34.8625 41.3336 34.975C41.3336 35.275 41.0586 35.475 40.7586 35.475C40.6586 35.475 40.6086 35.45 40.5211 35.4625C40.6961 35.625 40.8211 35.7125 40.9586 35.9125C41.1578 36.2164 41.2582 36.5744 41.2461 36.9375C41.2461 37.3875 41.1711 37.6625 40.9711 38.0625C40.8219 38.4058 40.5794 38.7003 40.2711 38.9125C39.798 39.2505 39.2481 39.4653 38.6711 39.5375C38.2461 39.625 38.0086 39.6625 37.5711 39.6875L36.1586 39.7625C35.4461 39.8125 34.9461 39.9125 34.4336 40.425C34.6836 40.6 34.8461 40.775 34.8461 41.075C34.8461 41.375 34.6586 41.6 34.3586 41.7C34.2961 41.7125 34.2336 41.7 34.1836 41.725C34.1086 41.7625 34.1086 41.85 34.0336 41.9C33.9224 41.9723 33.7911 42.0073 33.6586 42C33.3836 42 33.2086 41.9375 33.0086 41.75C32.7961 41.925 32.7211 42.0875 32.4711 42.2375C32.3836 42.275 32.3461 42.3375 32.2586 42.3375C32.1086 42.3375 32.0336 42.25 31.9211 42.1625C31.7535 42.0456 31.6021 41.9069 31.4711 41.75C31.2461 41.8875 31.1086 42 30.8461 42C30.7083 42.0046 30.5726 41.9652 30.4586 41.8875C30.3836 41.85 30.3711 41.775 30.2961 41.7375C30.2211 41.6875 30.1711 41.7125 30.0836 41.675C29.7836 41.55 29.5836 41.325 29.5836 40.9875C29.5836 40.7 29.7711 40.5125 30.0336 40.4C29.5336 39.9 29.0336 39.8125 28.3336 39.775C27.7836 39.725 27.4586 39.725 26.9211 39.6875C26.4961 39.6625 26.2461 39.6125 25.8211 39.55C25.4961 39.5 25.3086 39.475 25.0086 39.3375C23.9836 38.8625 23.3336 38.2125 23.1961 37.0875V36.8375C23.1961 36.25 23.4211 35.9 23.8211 35.4875C23.7211 35.4625 23.6586 35.4875 23.5461 35.4625C23.2961 35.3625 23.1086 35.1875 23.1086 34.9125C23.1086 34.8125 23.1086 34.7375 23.1586 34.6625C23.1961 34.5875 23.2586 34.575 23.2836 34.5125C23.2961 34.4125 23.2836 34.35 23.3211 34.2625C23.3461 34.2 23.3961 34.2 23.4211 34.1375C23.5086 33.95 23.6211 33.8 23.8336 33.8C24.0086 33.8 24.1211 33.9 24.2086 34.05C24.3836 33.9625 24.4336 33.8375 24.5336 33.675C24.6961 33.4 24.7586 33.2125 24.7586 32.9C24.7673 32.7126 24.7375 32.5254 24.6711 32.35C24.6211 32.2 24.6086 32.1 24.4961 31.975C24.4529 32.0248 24.3989 32.0641 24.3383 32.0901C24.2777 32.1161 24.212 32.128 24.1461 32.125C23.8586 32.125 23.6461 31.875 23.6461 31.5875C23.6461 31.375 23.7461 31.2125 23.9461 31.125C23.7836 31 23.6461 30.975 23.4836 30.875C23.2211 30.7 23.1211 30.5375 22.9586 30.275C22.8336 30.1 22.8086 29.9875 22.7586 29.8C22.6859 29.5996 22.6478 29.3882 22.6461 29.175V29.0125C22.7211 28.525 22.8086 28.2125 23.1211 27.825C23.2636 27.6121 23.4628 27.4433 23.6961 27.3375C23.9454 27.2055 24.2277 27.149 24.5086 27.175C24.6336 27.2 24.6961 27.2 24.7961 27.2625C24.8336 27.2875 24.9086 27.35 24.9086 27.3L24.8836 27.175C24.8836 26.9625 25.0336 26.775 25.2336 26.775C25.3836 26.775 25.4461 26.9 25.5211 27.025C25.5711 26.95 25.5961 26.9 25.5961 26.8125C25.5961 26.4625 25.4086 26.2875 25.1961 26.025C24.7336 25.4375 24.1461 25.1625 24.1461 24.425C24.1461 24.2 24.2586 24.05 24.4461 23.925C24.4961 23.9 24.5711 23.925 24.6336 23.9C24.6711 23.8625 24.6711 23.8125 24.6961 23.7625C24.7369 23.6965 24.7926 23.6408 24.8586 23.6C24.9586 23.5 25.0586 23.5375 25.1711 23.45C25.2336 23.4125 25.2461 23.3625 25.2961 23.3C25.4211 23.15 25.5461 23.075 25.7461 23.075C25.8461 23.075 25.9086 23.075 25.9961 23.1125C26.0336 23.1125 26.0961 23.175 26.1086 23.1625C26.1211 23.1375 26.1836 23.075 26.2461 23.0375C26.3336 23 26.3711 22.9875 26.4711 22.9875C26.5836 22.9875 26.6461 23.05 26.7586 23.05C26.8086 23.05 26.8086 23.0125 26.8461 22.9875C26.9461 22.925 26.9961 22.8875 27.1211 22.8875C27.2461 22.8875 27.2961 22.925 27.3961 22.9875C27.4836 23.0375 27.4961 23.1125 27.5961 23.175L27.7461 23.2125C27.9961 23.2875 28.1961 23.4625 28.1961 23.7375C28.1961 23.8875 28.1711 23.9875 28.0586 24.0875C27.9711 24.1625 27.8836 24.15 27.7711 24.1875C28.0891 24.4408 28.4905 24.5657 28.8961 24.5375C29.3336 24.5375 29.8461 24.375 29.8461 23.95C29.8461 23.75 29.7336 23.65 29.6586 23.475C29.5197 23.2087 29.4468 22.9129 29.4461 22.6125C29.4461 22.3375 29.4711 22.175 29.6336 21.95C29.7961 21.7125 30.0086 21.6625 30.2836 21.6625V21.6625Z" fill="#C7B37F"/>
<g id="Group">
<path id="Vector_5" d="M27.4836 23.9C27.5086 24.0125 27.5961 24.1 27.7336 24.15C27.8028 24.1647 27.8746 24.1597 27.941 24.1353C28.0073 24.111 28.0654 24.0684 28.1086 24.0125C28.2086 23.8875 28.1961 23.725 28.1711 23.6C28.1372 23.5089 28.0761 23.4303 27.9961 23.375L27.4836 23.9V23.9Z" stroke="#703D29" stroke-width="0.0625" stroke-linejoin="round"/>
<path id="Vector_6" d="M40.3462 31.6125C40.2212 31.325 39.9212 31.45 39.8962 31.6125C39.8587 31.9875 40.1837 32.0875 40.4087 32.025C40.5212 32 40.6087 31.925 40.6587 31.8375C40.7212 31.7375 40.7337 31.5875 40.6962 31.4625C40.6773 31.4034 40.6476 31.3483 40.6087 31.3C40.5747 31.2512 40.5324 31.2089 40.4837 31.175C40.3962 31.125 40.2962 31.1125 40.1462 31.1125C39.5962 31.1125 39.1087 31.775 38.9462 32.4625C38.8557 32.8566 38.8472 33.265 38.9212 33.6625C39.005 34.0861 39.2089 34.4766 39.5087 34.7875C39.7877 35.0573 40.1258 35.2585 40.4962 35.375C40.6337 35.4125 40.7712 35.4125 40.8837 35.375C41.2212 35.3125 41.3712 35 41.2087 34.6875C41.0712 34.4375 40.6712 34.2875 40.4837 34.6125C40.4529 34.6613 40.4356 34.7173 40.4337 34.775C40.4337 34.8625 40.4712 34.9625 40.5337 35C40.6837 35.1 40.9087 35.075 40.9087 34.8125" stroke="#703D29" stroke-width="0.0625" stroke-linecap="round"/>
<path id="Vector_7" d="M38.6211 35.4C38.7917 35.2018 39.0259 35.0692 39.2836 35.025C39.5836 35 39.8461 35.0875 40.1086 35.225C40.4317 35.3758 40.7048 35.6161 40.8953 35.9174C41.0859 36.2188 41.1859 36.5685 41.1836 36.925C41.1836 37.3 41.0836 37.675 40.9961 37.875C40.9086 38.0375 40.6836 38.7625 39.4586 39.275C38.6289 39.5313 37.7645 39.6578 36.8961 39.65C35.8461 39.7 34.8961 39.7375 34.3336 40.425" stroke="#703D29" stroke-width="0.0875"/>
<g id="Group_2">
<path id="Vector_8" d="M33.2961 24.2625C33.3711 24.4125 33.4211 24.5125 33.3711 24.65C33.3211 24.825 33.1961 24.9375 33.0211 24.9375C32.6211 24.9375 32.3961 24.4625 32.5711 24.1625C32.8836 23.625 33.4961 23.925 34.0711 24.1875C34.0336 24.0625 33.9836 24.0125 33.9961 23.8375C33.9961 23.425 34.3211 23.2375 34.4461 22.8375C34.5211 22.6125 34.5461 22.4125 34.3711 22.25C34.2336 22.1 34.0586 22.1125 33.8711 22.1875C33.4836 22.3375 33.0211 22.7625 32.2086 22.775C31.3961 22.775 30.9211 22.3375 30.5336 22.1875C30.3461 22.1125 30.1711 22.1 30.0336 22.25C29.8586 22.4125 29.8836 22.625 29.9586 22.85C30.0836 23.225 30.3961 23.425 30.4086 23.85C30.4086 24.0125 30.3711 24.05 30.3336 24.1875C30.9086 23.9375 31.5461 23.6 31.8336 24.1625C31.9961 24.475 31.7836 24.9375 31.3836 24.9375C31.2086 24.9375 31.0836 24.8125 31.0336 24.65C30.9836 24.5125 31.0336 24.375 31.1086 24.2625M38.8836 36.575C38.8586 36.4625 38.8836 36.3625 38.9711 36.2375C39.0961 36.075 39.3336 36.025 39.5586 36.15C39.6336 36.1875 39.7211 36.25 39.8086 36.3625L39.9336 36.5125L40.0336 36.7625C40.2836 37.4625 39.8836 38.225 39.3836 38.525C38.9836 38.775 38.5086 38.875 37.9461 38.9375L37.2836 38.975H36.3336C36.0921 38.9625 35.8501 38.9625 35.6086 38.975L34.8586 39.05L34.3086 39.15L34.1211 39.2L33.9961 39.2375C33.6585 39.3321 33.3349 39.4708 33.0336 39.65C32.9461 39.7 32.8461 39.7625 32.7836 39.825L32.6461 39.95C32.4586 40.125 32.2586 40.325 32.2086 40.6125V40.775C32.2086 40.95 32.3461 41.2 32.7461 41.275L38.8836 36.575Z" stroke="#703D29" stroke-width="0.075"/>
<path id="Vector_9" d="M31.9085 24.5625C31.896 24.7125 31.8335 24.8125 31.6835 24.875M31.7085 23.9875C31.8585 24.1125 31.9585 24.25 31.946 24.4875C31.9335 24.7375 31.8585 24.8 31.671 24.9375L31.7085 23.9875Z" stroke="#703D29" stroke-width="0.075" stroke-linecap="round"/>
</g>
<path id="Vector_10" d="M27.9211 23.325L27.9836 23.375L28.0586 23.4625L28.1086 23.5625L28.1336 23.6375V23.825L28.1086 23.9125L28.0586 23.975L28.0086 24.0375L27.9211 24.075L27.8086 24.1L27.7211 24.125L27.6211 24.075L27.5211 24.0125L27.4711 23.925L27.4336 23.825V23.7875L27.9211 23.325V23.325Z" fill="#C7B37F"/>
<path id="Vector_11" d="M27.7711 23.7125C27.7336 23.55 27.5461 23.5125 27.4711 23.6125C27.3461 23.7625 27.4336 24.0125 27.6711 24.0875C27.7402 24.1023 27.8121 24.0972 27.8785 24.0728C27.9448 24.0485 28.0029 24.0059 28.0461 23.95C28.1461 23.825 28.1461 23.6625 28.1086 23.55C28.0836 23.4625 28.0211 23.4 27.9336 23.3375C27.6586 23.125 27.2211 23.175 27.0836 23.525C26.8961 23.975 27.2961 24.3125 27.6711 24.5625C28.1461 24.875 28.6711 24.9375 29.0836 24.9375C29.9961 24.925 30.6961 24.4875 31.1461 24.2375C31.2461 24.175 31.3586 24.1875 31.4086 24.2625C31.4711 24.3375 31.4711 24.45 31.3836 24.5375" stroke="#703D29" stroke-width="0.0625" stroke-linecap="round"/>
<path id="Vector_12" d="M26.2212 36.1375V36.3125L26.1837 36.4375L26.0962 36.65L25.9587 36.8375L25.8087 36.9625L25.6837 37.0125L25.5337 37.05M25.0462 36.125L24.8462 36.1875L24.6337 36.35L24.5462 36.475L24.4337 36.675L24.3837 36.825L24.3462 37.0125L24.3212 37.1375L25.0462 36.125Z" stroke="#703D29" stroke-width="0.0625"/>
<path id="Vector_13" d="M32.2211 40.9125C32.1836 41.075 32.0336 41.2625 31.6836 41.3375H31.6211" stroke="#703D29" stroke-width="0.075"/>
<path id="Vector_14" d="M40.6711 35.625C40.8529 35.7991 40.9967 36.0089 41.0935 36.2412C41.1903 36.4735 41.238 36.7234 41.2336 36.975C41.2211 37.325 41.1336 37.725 41.0336 37.9125C40.9461 38.075 40.7211 38.8125 39.4961 39.3125C38.6669 39.5725 37.8026 39.7032 36.9336 39.7C35.9086 39.75 34.9586 39.7875 34.3961 40.45" stroke="#703D29" stroke-width="0.0875"/>
<path id="Vector_15" d="M38.9961 36.2875C39.0711 36.175 39.3461 36.05 39.5711 36.1625C39.6719 36.2098 39.7582 36.2831 39.8211 36.375" stroke="#703D29" stroke-width="0.0625"/>
<path id="Vector_16" d="M40.4087 35.375L40.5462 35.425C40.6767 35.4639 40.8157 35.4639 40.9462 35.425C41.2212 35.35 41.4087 35.0875 41.2587 34.7375C41.2189 34.6533 41.1587 34.5802 41.0837 34.525" stroke="#703D29" stroke-width="0.0875"/>
<path id="Vector_17" d="M28.1462 23.8C28.1462 23.975 28.0212 24.0875 27.8462 24.125M24.2712 27.975C24.0837 28.1 23.9462 28.125 23.7962 28.2875C23.679 28.5042 23.5907 28.7353 23.5337 28.975L24.2712 27.975Z" stroke="#703D29" stroke-width="0.0625" stroke-linecap="round"/>
<path id="Vector_18" d="M39.9586 27.2C40.4336 27.2 41.8086 27.5625 41.8211 29.175C41.8211 30.775 40.8211 31.0375 40.4336 31.1375" stroke="#703D29" stroke-width="0.0625"/>
<path id="Vector_19" d="M25.4961 27.05V27.15M40.0836 27.2C40.8961 27.1625 41.7336 27.7625 41.7711 29.2625C41.8086 30.4375 40.9711 30.9625 40.5711 31.075L40.0836 27.2ZM39.6211 32.8375L39.6461 32.6875L39.6961 32.4375L39.7711 32.225L39.8586 32.0625L39.9586 31.9375L39.6211 32.8375ZM40.7461 31.6L40.7336 31.75L40.6836 31.8625L40.6211 31.9625L40.5336 32.025L40.4086 32.0625H40.2211L40.7461 31.6ZM38.7961 26.775L38.8336 26.6125L38.9086 26.45L38.9961 26.3L39.1711 26.0875L39.2961 25.9375L39.5086 25.725L39.6961 25.5375L39.8211 25.4L39.9711 25.2125L40.0961 25L40.1836 24.8375L40.2336 24.6125L40.2461 24.35L40.2211 24.2625L38.7961 26.775ZM38.9961 37.0875L39.1586 37.05L39.2836 36.9875L39.3461 36.925L39.3961 36.8375L39.4211 36.7125V36.6375L38.9961 37.0875ZM23.6211 35.4125L23.7336 35.425H23.8836L24.0461 35.3625L23.6211 35.4125ZM24.5461 31.7L24.5211 31.85L24.4961 31.9L24.4461 31.9625L24.3836 32.0125L24.3086 32.05L24.2086 32.0625H24.1461L24.5461 31.7ZM25.1461 30.5L25.1086 30.725L25.0586 30.8125L24.9711 30.9375L24.8461 31.025L24.7336 31.0875L24.5086 31.1375L25.1461 30.5ZM26.0336 27.1625L25.9961 27.2875L25.9336 27.3875L25.8586 27.5L25.7586 27.5875L25.6336 27.65L25.5336 27.675H25.4586L26.0336 27.1625Z" stroke="#703D29" stroke-width="0.0625"/>
<g id="Group_3">
<path id="Vector_20" d="M40.5212 35L40.5712 35.025C40.6962 35.1125 40.9837 35 40.9087 34.775M25.6712 30.4125C25.6122 30.4654 25.5446 30.5077 25.4712 30.5375L25.6712 30.4125Z" stroke="#703D29" stroke-width="0.0625" stroke-linecap="round"/>
<path id="Vector_21" d="M32.9962 41.675C32.8067 41.9516 32.5421 42.1684 32.2337 42.3C31.9252 42.1684 31.6607 41.9516 31.4712 41.675M40.0212 31.9625C40.1212 32.0875 40.3212 32.125 40.4712 32.0875C40.5837 32.0625 40.6587 31.9875 40.7212 31.8875C40.7712 31.7875 40.7962 31.65 40.7587 31.5125C40.7399 31.4534 40.7102 31.3983 40.6712 31.35C40.6322 31.2978 40.5859 31.2515 40.5337 31.2125L40.4962 31.1875L40.0212 31.9625ZM41.1462 34.5875C41.1486 34.5626 41.1486 34.5374 41.1462 34.5125C41.1462 34.4 41.0962 34.3 41.0212 34.225C40.9962 34.2 40.9712 34.1625 40.9337 34.15L41.1462 34.5875ZM40.9837 34.1875C40.9837 34 40.8212 33.875 40.6337 33.8375L40.9837 34.1875ZM40.2212 34.125C40.1712 34.0875 40.1212 34.0625 40.0962 34.0125C39.8218 33.7261 39.6655 33.3466 39.6587 32.95C39.6587 32.5375 39.8212 32.1125 40.0087 31.95L40.2212 34.125ZM34.3712 40.4125L34.5587 40.25L34.6837 40.15L34.9087 40.0125L35.1337 39.9L35.2837 39.8625L35.5962 39.8L35.9587 39.7375L34.3712 40.4125Z" stroke="#703D29" stroke-width="0.0625"/>
<path id="Vector_22" d="M31.6837 41.2625C31.6462 41.4147 31.5734 41.556 31.4712 41.675" stroke="#703D29" stroke-width="0.0625" stroke-linecap="round"/>
<path id="Vector_23" d="M32.9586 41.6375C32.7725 41.9123 32.5125 42.1289 32.2086 42.2625C31.8952 42.1336 31.626 41.9165 31.4336 41.6375M31.7211 41.05L31.6711 41.275L31.7211 41.05ZM31.4461 41.6875L31.3461 41.7875L31.1711 41.875L30.9836 41.9375L31.4461 41.6875ZM30.4211 24.1625C30.4461 24.0875 30.4711 24.025 30.4586 23.9C30.4586 23.475 30.1461 23.2875 30.0211 22.9C29.9461 22.675 29.9086 22.475 30.0836 22.3C30.2336 22.1625 30.3961 22.175 30.5836 22.2375C30.9836 22.3875 31.4461 22.825 32.2586 22.8375C31.4461 22.825 30.9836 22.3875 30.5961 22.2375C30.3961 22.1625 30.2211 22.1375 30.0711 22.2875C29.8961 22.45 29.9461 22.6625 30.0211 22.9125C30.1461 23.2875 30.4336 23.475 30.4461 23.9C30.4461 24.025 30.4211 24.0875 30.3961 24.15L30.4211 24.1625ZM32.2586 22.8125C33.0586 22.7625 33.7461 22.225 33.9711 22.1875C34.1711 22.15 34.2711 22.1625 34.4211 22.3C34.2711 22.1625 34.1086 22.175 33.9211 22.2375C33.5461 22.3875 33.0711 22.825 32.2586 22.8375V22.8125ZM40.2211 34.125C40.0281 33.9814 39.8711 33.7948 39.7626 33.58C39.6541 33.3652 39.5971 33.1281 39.5961 32.8875C39.5961 32.475 39.7586 32.05 39.9586 31.8875L40.2211 34.125Z" stroke="#703D29" stroke-width="0.0625"/>
<path id="Vector_24" d="M30.9087 24.375L31.1462 24.25C31.2462 24.175 31.3837 24.1875 31.4337 24.25C31.4962 24.3375 31.5087 24.4625 31.4212 24.5375" stroke="#703D29" stroke-width="0.0625" stroke-linecap="round"/>
<path id="Vector_25" d="M25.7712 27.5125C25.8562 27.5817 25.9241 27.6696 25.9697 27.7693C26.0152 27.869 26.0371 27.9779 26.0337 28.0875C26.0337 28.4 25.7837 28.9 25.1337 29.0875C24.8837 29.15 24.6587 29.0875 24.5087 29M29.7212 24.925C30.2712 24.8125 30.7212 24.5625 31.0462 24.375L29.7212 24.925ZM34.2837 40.8L34.3587 40.8875L34.3837 40.975C34.4087 41.125 34.3087 41.225 34.1962 41.2375C34.1241 41.2463 34.0511 41.2315 33.988 41.1955C33.925 41.1595 33.8752 41.1041 33.8462 41.0375L34.2837 40.8ZM29.6837 24.9C30.2337 24.775 30.6837 24.5375 31.0212 24.35L29.6837 24.9ZM40.7712 35.0375C40.6837 35.075 40.6212 35.075 40.4962 35.0125L40.3087 34.9125C40.0587 34.775 39.7462 34.5375 39.4587 34.0125C39.3855 33.8701 39.3309 33.7188 39.2962 33.5625C39.2712 33.45 39.2462 33.3375 39.2462 33.225C39.2413 33.0149 39.2623 32.805 39.3087 32.6C39.3659 32.2717 39.5033 31.9625 39.7087 31.7C39.8337 31.5375 39.9212 31.45 40.1462 31.45L40.7712 35.0375Z" stroke="#703D29" stroke-width="0.0625"/>
<path id="Vector_26" d="M25.8711 28.5625C25.9961 28.6375 26.0336 28.7375 26.0336 28.8875C26.0336 28.9875 25.9711 29.1375 25.8461 29.2625C25.7343 29.3842 25.5993 29.4823 25.4491 29.551C25.2988 29.6197 25.1363 29.6576 24.9711 29.6625C24.7578 29.6681 24.548 29.6069 24.3711 29.4875C24.1838 29.361 24.0502 29.1694 23.9961 28.95" stroke="#703D29" stroke-width="0.0625"/>
<path id="Vector_27" d="M26.0337 27.2625C26.0041 27.3525 25.9552 27.4349 25.8904 27.504C25.8257 27.5731 25.7466 27.6272 25.6587 27.6625C25.4837 27.75 25.2587 27.6625 25.1587 27.5875M25.8712 29.225C25.9962 29.35 26.0337 29.5 26.0337 29.6875C26.0337 29.9625 25.9212 30.175 25.6587 30.4C25.6043 30.4527 25.5407 30.495 25.4712 30.525L25.8712 29.225ZM38.4212 28.325V28.6875V28.325ZM38.3837 28.2375V28.7375V28.2375ZM38.4212 27.1625V27.8125V27.1625ZM38.3837 27.025V27.9V27.025ZM38.1962 36.1125C38.0712 36.3625 37.9712 36.4875 37.7837 36.675C37.6149 36.8475 37.4157 36.9873 37.1962 37.0875C36.9905 37.1882 36.7717 37.2597 36.5462 37.3C36.2837 37.3625 36.1212 37.375 35.8587 37.3875C35.6087 37.3875 35.4712 37.3875 35.2212 37.3625C34.9587 37.3625 34.8087 37.3125 34.5462 37.2875C34.3337 37.275 34.2087 37.25 33.9837 37.25C33.6124 37.2411 33.243 37.3047 32.8962 37.4375C32.6212 37.55 32.3212 37.7375 32.2587 37.8125C32.1962 37.7375 31.8837 37.55 31.6212 37.4375C31.2705 37.3031 30.8966 37.2394 30.5212 37.25C30.3087 37.25 30.1837 37.275 29.9712 37.2875C29.7087 37.3125 29.5587 37.35 29.2962 37.3625C28.8538 37.4049 28.4076 37.3839 27.9712 37.3C27.7087 37.2375 27.5587 37.2 27.3087 37.075C27.0716 36.9641 26.8591 36.8068 26.6837 36.6125L38.1962 36.1125ZM30.8837 41.95L31.0712 41.925L30.8837 41.95ZM34.0962 41.6875L34.2712 41.675L34.4462 41.6L34.5712 41.5375L34.7337 41.3375L34.7712 41.2625L34.7962 41.1V41.025L34.0962 41.6875ZM39.4962 27.35C39.5712 27.0875 39.4712 26.8125 39.2212 26.8125L39.4962 27.35ZM26.0212 31.475C25.9623 31.669 25.833 31.834 25.6587 31.9375L26.0212 31.475Z" stroke="#703D29" stroke-width="0.0625"/>
<path id="Vector_28" d="M24.6211 28.2375C24.7836 28.3125 24.9336 28.2 24.9086 28C24.8958 27.941 24.8648 27.8875 24.8199 27.8471C24.7751 27.8067 24.7186 27.7815 24.6586 27.775" stroke="#703D29" stroke-width="0.0625" stroke-linecap="round"/>
<path id="Vector_29" d="M25.2586 36.6625C25.2961 36.7 25.3086 36.7375 25.3461 36.7375C25.4086 36.75 25.4711 36.775 25.5336 36.6875C25.6211 36.575 25.5711 36.4125 25.4836 36.3C25.4079 36.2245 25.31 36.1753 25.2042 36.1595C25.0985 36.1438 24.9905 36.1623 24.8961 36.2125C24.8336 36.25 24.7336 36.3 24.6461 36.4125L24.5336 36.575L24.4211 36.825C24.2211 37.4 24.4586 38.0125 24.8461 38.3875" stroke="#703D29" stroke-width="0.0625"/>
<path id="Vector_30" d="M34.2712 40.7875L34.3337 40.8625L34.3587 40.95C34.3837 41.1 34.2837 41.2 34.1587 41.2C33.9962 41.225 33.8837 41.125 33.8212 41" stroke="#703D29" stroke-width="0.0625" stroke-linecap="round"/>
<path id="Vector_31" d="M40.9336 34.15C40.919 34.0638 40.8749 33.9855 40.8087 33.9284C40.7425 33.8714 40.6585 33.8392 40.5711 33.8375C40.4716 33.8375 40.3763 33.877 40.3059 33.9473C40.2356 34.0177 40.1961 34.1131 40.1961 34.2125C40.1961 34.3125 40.2461 34.4 40.3086 34.4625M39.1961 23.475C39.3644 23.5032 39.518 23.5879 39.6316 23.7152C39.7452 23.8424 39.8121 24.0046 39.8211 24.175C39.8211 24.625 39.6711 24.7875 39.4336 25.1C39.1836 25.4375 38.3711 26.0625 38.3711 26.775C38.3711 27.2 38.4961 27.475 38.7961 27.6125C38.9961 27.7 39.2336 27.6125 39.3336 27.5125C39.5836 27.275 39.4961 26.8625 39.2086 26.8125C38.8961 26.7625 38.8336 27.275 39.1461 27.2375L39.1961 23.475Z" stroke="#703D29" stroke-width="0.0625"/>
<path id="Vector_32" d="M25.6461 30.425C25.7723 30.5035 25.8749 30.6147 25.9431 30.7467C26.0113 30.8787 26.0426 31.0267 26.0336 31.175C26.0336 31.55 25.8461 31.775 25.6336 31.9125M38.6336 27.5125C38.5486 27.5817 38.4807 27.6695 38.4351 27.7693C38.3896 27.869 38.3677 27.9779 38.3711 28.0875C38.3711 28.4 38.6211 28.9 39.2711 29.0875C39.5086 29.15 39.7461 29.1375 39.8961 29.05L38.6336 27.5125ZM24.2836 28.025C24.0935 28.0842 23.9271 28.2024 23.8086 28.3625C23.6901 28.5491 23.6094 28.7572 23.5711 28.975C23.5586 29.0625 23.5336 29.35 23.5836 29.6375C23.6256 29.8386 23.7063 30.0296 23.8211 30.2L23.9211 30.325L24.0336 30.4125L24.2836 28.025ZM30.4336 39.6125C30.9211 39.8375 31.2711 39.9875 31.5836 40.475C31.6936 40.677 31.7324 40.9101 31.6938 41.1368C31.6553 41.3635 31.5416 41.5707 31.3711 41.725C31.2803 41.806 31.1727 41.866 31.056 41.9006C30.9393 41.9352 30.8164 41.9435 30.6961 41.925C30.5086 41.9 30.3211 41.7625 30.2961 41.675L30.4336 39.6125Z" stroke="#703D29" stroke-width="0.0625"/>
<path id="Vector_33" d="M25.3961 31.6375C25.8086 32.15 26.0211 32.45 26.0336 33.05C26.0461 33.625 25.8586 34.0125 25.5336 34.425" stroke="#703D29" stroke-width="0.0625" stroke-linecap="round"/>
<path id="Vector_34" d="M26.2586 36.0375C26.277 36.1752 26.2665 36.3152 26.2278 36.4487C26.189 36.5821 26.1229 36.706 26.0336 36.8125C25.9461 36.9 25.7586 37.0625 25.5336 37.0625C25.1586 37.075 25.0336 36.8125 25.0211 36.75M33.2211 24.9375C33.2996 24.8835 33.3571 24.804 33.3836 24.7125C33.4336 24.5625 33.4336 24.4375 33.3461 24.325C33.4461 24.45 33.4586 24.5625 33.4336 24.7125C33.4086 24.8125 33.3461 24.8625 33.2711 24.9375H33.2211ZM38.4211 33.5625V35.1625C38.421 35.305 38.4085 35.4472 38.3836 35.5875L38.4211 33.5625ZM38.3836 33.4V35.375L38.3336 35.6375L38.3836 33.4ZM38.3836 31.35V32.8V31.35ZM38.4211 31.4625V32.6375V31.4625ZM38.4211 29.95V30.8375V29.95ZM38.3836 29.85V30.95V29.85ZM38.4211 29.05V29.4V29.05ZM38.3836 28.975V29.475V28.975ZM38.2086 36L38.1711 36.0625C38.0676 36.2796 37.9234 36.4749 37.7461 36.6375C37.58 36.8042 37.3852 36.9397 37.1711 37.0375C36.9621 37.1436 36.739 37.2194 36.5086 37.2625C36.2586 37.325 36.0961 37.3375 35.8211 37.35C35.5711 37.35 35.4461 37.35 35.1961 37.325C34.9211 37.3125 34.7836 37.275 34.5211 37.25C34.2961 37.2375 34.1711 37.2125 33.9586 37.2125C33.5832 37.2022 33.2094 37.2659 32.8586 37.4C32.5961 37.5125 32.2961 37.7 32.2336 37.775C32.0447 37.6137 31.8289 37.4868 31.5961 37.4C31.2453 37.2659 30.8715 37.2022 30.4961 37.2125C30.2836 37.2125 30.1586 37.2375 29.9336 37.25C29.6836 37.275 29.5336 37.3125 29.2586 37.325C28.8204 37.3662 28.3785 37.3452 27.9461 37.2625C27.4781 37.1786 27.0441 36.9616 26.6961 36.6375C26.609 36.5485 26.5295 36.4524 26.4586 36.35L38.2086 36Z" stroke="#703D29" stroke-width="0.0625"/>
<path id="Vector_35" d="M33.0211 41.7L33.0961 41.775C33.1854 41.8543 33.291 41.9133 33.4054 41.9478C33.5197 41.9824 33.6403 41.9916 33.7586 41.975C33.8418 41.9674 33.9222 41.941 33.9937 41.8976C34.0652 41.8543 34.1259 41.7953 34.1711 41.725L34.2211 41.65M25.8086 35.875C25.8846 35.9521 25.9478 36.0407 25.9961 36.1375C26.0836 36.3125 26.0586 36.6125 25.9836 36.7625C25.9718 36.7757 25.9593 36.7882 25.9461 36.8L25.8086 35.875ZM23.9336 38.6C24.1586 38.85 24.4961 39.1 25.0211 39.3125C25.8502 39.5731 26.7146 39.7038 27.5836 39.7C28.5836 39.7375 29.5211 39.7875 30.0836 40.4125L23.9336 38.6ZM31.8211 40C31.9963 40.1539 32.1333 40.3465 32.2211 40.5625L31.8211 40ZM31.4836 41.7125C31.4638 41.7344 31.443 41.7552 31.4211 41.775C31.3317 41.8543 31.2262 41.9133 31.1118 41.9478C30.9974 41.9824 30.8769 41.9916 30.7586 41.975C30.6723 41.966 30.5889 41.9391 30.5135 41.896C30.4382 41.853 30.3727 41.7948 30.3211 41.725L31.4836 41.7125ZM29.7836 41.425L29.8211 41.4625C29.9493 41.6072 30.1284 41.6967 30.3211 41.7125L29.7836 41.425ZM33.0211 41.7125C32.8298 41.9845 32.5655 42.1969 32.2586 42.325C31.9501 42.1934 31.6856 41.9766 31.4961 41.7L31.4711 41.6625L33.0211 41.7125Z" stroke="#703D29" stroke-width="0.0625"/>
<path id="Vector_36" d="M34.1461 41.6625L34.0711 41.7875L33.9586 41.875L33.7961 41.95H33.6211" stroke="#703D29" stroke-width="0.0625"/>
<path id="Vector_37" d="M37.1336 23.2875C37.2328 23.351 37.311 23.4423 37.3586 23.55C37.5336 24 37.1336 24.3375 36.7586 24.5875C36.5096 24.7526 36.2284 24.8634 35.9336 24.9125M34.5461 40.525C34.6479 40.5997 34.7295 40.6985 34.7836 40.8125C34.8086 40.8875 34.8336 40.975 34.8336 41.0625C34.8391 41.2083 34.79 41.3509 34.6961 41.4625C34.6268 41.54 34.5421 41.6023 34.4474 41.6453C34.3527 41.6884 34.2501 41.7113 34.1461 41.7125C34.1336 41.7129 34.1211 41.7129 34.1086 41.7125L34.5461 40.525ZM34.1211 41.6875C34.0256 41.6896 33.9307 41.6718 33.8425 41.6352C33.7543 41.5987 33.6746 41.5441 33.6086 41.475L34.1211 41.6875ZM39.9836 34.6875C39.7805 34.5015 39.6114 34.2815 39.4836 34.0375C39.4105 33.8951 39.3559 33.7438 39.3211 33.5875C39.2961 33.475 39.2711 33.375 39.2711 33.2625C39.2711 33.0625 39.2836 32.8625 39.3336 32.6375C39.3951 32.3044 39.5366 31.9912 39.7461 31.725C39.8086 31.65 39.8711 31.55 39.9461 31.5L39.9836 34.6875ZM39.8211 23.925C40.0711 23.95 40.2961 24.2125 40.2961 24.4875C40.2961 24.875 40.1711 25.0375 39.8586 25.4125C39.5961 25.75 38.7961 26.325 38.8211 26.875C38.8211 26.975 38.8836 27.075 38.9461 27.15L39.8211 23.925ZM38.6211 27.5C38.6711 27.5625 38.7461 27.6 38.8211 27.6375C38.8895 27.6649 38.963 27.6768 39.0364 27.6725C39.1099 27.6682 39.1815 27.6477 39.2461 27.6125L38.6211 27.5Z" stroke="#703D29" stroke-width="0.0625"/>
<path id="Vector_38" d="M34.8337 24.4C34.7865 24.3742 34.7442 24.3403 34.7087 24.3C34.6212 24.2 34.5587 24.0625 34.6212 23.8625C34.6837 23.675 34.9962 23.1375 34.9962 22.775C35.0337 22.2125 34.8087 21.875 34.4712 21.75M36.7087 24.15C36.6212 24.15 36.5087 24.125 36.3962 24C36.3664 23.9753 36.341 23.9458 36.3212 23.9125L36.7087 24.15Z" stroke="#703D29" stroke-width="0.0625"/>
<path id="Vector_39" d="M38.3836 36.7C38.3836 36.7375 38.4336 36.775 38.4336 36.775C38.4981 36.8628 38.5805 36.9361 38.6753 36.9899C38.77 37.0438 38.8751 37.077 38.9836 37.0875C39.3586 37.0875 39.4461 36.825 39.4586 36.7625C39.5086 36.475 39.4086 36.3875 39.2586 36.3125C39.2586 36.3125 39.1711 36.275 39.0711 36.2875M34.9836 22.65L34.9711 22.8625L34.9086 23.075L34.7961 23.3625L34.7086 23.5625L34.6211 23.75L34.5836 23.875L34.5586 23.975L34.5711 24.075L34.9836 22.65Z" stroke="#703D29" stroke-width="0.0625" stroke-linecap="round"/>
<path id="Vector_40" d="M25.8961 28.5875C25.9586 28.625 25.9961 28.6625 26.0211 28.7125M23.9461 35.4375C23.8235 35.4722 23.6937 35.4722 23.5711 35.4375C23.2836 35.35 23.0711 35.075 23.1836 34.75L23.9461 35.4375ZM24.5211 31.5625C24.5461 31.5875 24.5586 31.6375 24.5586 31.6625C24.5961 32.0375 24.2836 32.1375 24.0586 32.0875C23.9293 32.0484 23.8184 31.9641 23.7461 31.85C23.7069 31.7814 23.6854 31.704 23.6836 31.625L24.5211 31.5625ZM25.8961 29.25C25.9461 29.3125 25.9961 29.375 26.0211 29.4375L25.8961 29.25Z" stroke="#703D29" stroke-width="0.0625"/>
<path id="Vector_41" d="M26.0336 29.05C25.9946 29.1423 25.9396 29.2269 25.8711 29.3C25.7583 29.4194 25.6228 29.5152 25.4726 29.5817C25.3224 29.6483 25.1604 29.6842 24.9961 29.6875C24.7828 29.693 24.573 29.6319 24.3961 29.5125C24.1948 29.3871 24.0477 29.1909 23.9836 28.9625" stroke="#703D29" stroke-width="0.0625" stroke-linecap="round"/>
<path id="Vector_42" d="M25.7837 27.525C25.8965 27.6123 25.983 27.7291 26.0337 27.8625" stroke="#703D29" stroke-width="0.0625"/>
<path id="Vector_43" d="M26.0337 28.325C25.97 28.5216 25.8555 28.6979 25.7019 28.8362C25.5483 28.9745 25.3609 29.0698 25.1587 29.1125C24.9356 29.1612 24.7024 29.1208 24.5087 29" stroke="#703D29" stroke-width="0.0625" stroke-linecap="round"/>
<path id="Vector_44" d="M24.2461 28.25C24.2711 28.5125 24.4586 28.7125 24.7836 28.725C25.2586 28.725 25.5336 28.05 25.1211 27.5625" stroke="#703D29" stroke-width="0.0625"/>
<path id="Vector_45" d="M24.5462 31.1625C24.9712 31.1125 25.2087 30.8 25.1587 30.4375C25.1212 30.15 24.8587 29.9375 24.6837 29.9375M23.1962 30.55C23.2587 30.6375 23.3462 30.7125 23.4212 30.7875C23.5967 30.9359 23.801 31.0465 24.0212 31.1125L23.1962 30.55Z" stroke="#703D29" stroke-width="0.0625" stroke-linecap="round"/>
<path id="Vector_46" d="M25.2336 26.8125C25.4086 26.8125 25.5211 26.975 25.5086 27.1125" stroke="#703D29" stroke-width="0.0625"/>
<path id="Vector_47" d="M40.1211 28C40.1672 28.0715 40.1927 28.1544 40.1947 28.2395C40.1968 28.3247 40.1753 28.4087 40.1326 28.4823C40.09 28.556 40.0278 28.6165 39.953 28.6571C39.8782 28.6977 39.7936 28.7169 39.7086 28.7125C39.6206 28.7109 39.5343 28.6871 39.4579 28.6434C39.3814 28.5997 39.3172 28.5375 39.2711 28.4625M25.1836 24.3125C25.2801 24.5554 25.4564 24.7582 25.6836 24.8875L25.1836 24.3125Z" stroke="#703D29" stroke-width="0.0625" stroke-linecap="round"/>
<path id="Vector_48" d="M38.4211 24.9125V26.4875" stroke="#703D29" stroke-width="0.0625"/>
<path id="Vector_49" d="M37.6461 23.0875C37.9211 22.9375 38.1211 22.9625 38.2711 23.175C38.4176 23.3863 38.4759 23.6464 38.4336 23.9C38.3836 24.175 38.3086 24.275 38.0836 24.475M24.6211 28.2375C24.7711 28.3375 24.9461 28.1625 24.8711 27.975C24.8336 27.85 24.6461 27.7125 24.3961 27.875C24.1336 28.0625 24.2086 28.6625 24.7336 28.6625C25.1961 28.675 25.4836 27.9875 25.0711 27.5125C24.6711 27.05 23.9461 27.15 23.4461 27.5375C23.0927 27.8387 22.847 28.2468 22.7461 28.7C22.6782 29.0046 22.6782 29.3204 22.7461 29.625C22.7963 29.8921 22.8983 30.1469 23.0461 30.375L23.1711 30.5375L23.3711 30.7375C23.6568 30.9898 24.0277 31.1238 24.4086 31.1125C24.8836 31.1 25.1586 30.7625 25.0961 30.375C25.0461 30 24.6711 29.8125 24.4211 30C24.2586 30.1125 24.1961 30.475 24.4961 30.5625C24.6586 30.6125 24.8086 30.4 24.6961 30.275L24.6211 28.2375Z" stroke="#703D29" stroke-width="0.0625" stroke-linecap="round"/>
<path id="Vector_50" d="M38.2961 23.2C38.6086 23 38.9461 23.075 39.1211 23.3625C39.2467 23.5407 39.3044 23.758 39.2836 23.975C39.2719 24.1631 39.2131 24.3452 39.1126 24.5047C39.0122 24.6641 38.8732 24.7957 38.7086 24.8875" stroke="#703D29" stroke-width="0.0625" stroke-linecap="round"/>
<path id="Vector_51" d="M39.7462 23.9125C39.9962 23.9375 40.2087 24.1625 40.2087 24.4375C40.2087 24.8125 40.1087 24.9875 39.7962 25.3625C39.5337 25.6875 38.7462 26.2625 38.7587 26.825C38.7587 27.025 38.9462 27.225 39.0962 27.2375" stroke="#703D29" stroke-width="0.0625"/>
<path id="Vector_52" d="M39.7836 28.2375C39.6336 28.3375 39.4586 28.175 39.5336 27.9875C39.5836 27.8625 39.7586 27.7125 39.9961 27.875C40.2711 28.0625 40.1961 28.6625 39.6711 28.6625C39.2086 28.675 38.8836 28.0125 39.3336 27.5125C39.7461 27.05 40.5086 27.1375 40.9836 27.5125C41.1836 27.6875 41.6086 28.1375 41.6836 28.7125C41.7961 29.4125 41.7711 30.2875 41.0586 30.8125C40.7468 31.0262 40.3736 31.1316 39.9961 31.1125C39.5211 31.1 39.2461 30.7625 39.3086 30.375C39.3586 30 39.7211 29.8375 39.9836 30C40.2586 30.1375 40.2086 30.5375 39.9086 30.5625C39.7336 30.5875 39.5961 30.4 39.7086 30.275" stroke="#703D29" stroke-width="0.0625" stroke-linecap="round"/>
<path id="Vector_53" d="M39.5337 28C39.6087 27.6375 39.9087 27.6125 40.1587 27.6125C40.8087 27.6125 41.2712 28.4 41.2837 29.1625C41.2837 30.1125 40.8712 30.675 40.1587 30.7C39.9962 30.7125 39.6837 30.625 39.6712 30.4125" stroke="#703D29" stroke-width="0.0625"/>
<path id="Vector_54" d="M39.9337 27.8375C40.6337 27.9875 40.8837 28.6125 40.8837 29.2125C40.8837 29.7 40.8337 30.3625 39.8837 30.5875" stroke="#703D29" stroke-width="0.0625" stroke-linecap="square"/>
<path id="Vector_55" d="M41.0837 34.5375C41.097 34.4702 41.0922 34.4006 41.0698 34.3357C41.0474 34.2709 41.0083 34.2132 40.9562 34.1684C40.9042 34.1237 40.8413 34.0936 40.7738 34.0811C40.7064 34.0687 40.6368 34.0743 40.5723 34.0976C40.5077 34.1208 40.4505 34.1608 40.4065 34.2134C40.3624 34.2659 40.3331 34.3293 40.3216 34.3969C40.31 34.4645 40.3166 34.534 40.3407 34.5982C40.3648 34.6625 40.4055 34.7191 40.4587 34.7625" stroke="#703D29" stroke-width="0.0625"/>
<path id="Vector_56" d="M40.1961 35.5875C39.8586 35.375 39.2336 35.0875 38.6711 35.3625C38.5747 35.4035 38.4875 35.4633 38.4145 35.5384C38.3415 35.6136 38.2843 35.7025 38.2461 35.8C38.1921 35.963 38.1809 36.1372 38.2138 36.3058C38.2466 36.4744 38.3223 36.6317 38.4336 36.7625C38.5597 36.9118 38.7391 37.006 38.9336 37.025C39.3086 37.025 39.3961 36.775 39.4086 36.7125C39.4461 36.4375 39.2836 36.325 39.2086 36.3C39.1336 36.275 38.9336 36.275 38.8836 36.425C38.8711 36.475 38.8711 36.5625 38.9086 36.625M39.6961 33.9375C39.8477 34.1892 40.0634 34.3963 40.3211 34.5375L39.6961 33.9375Z" stroke="#703D29" stroke-width="0.0625" stroke-linecap="round"/>
<path id="Vector_57" d="M34.2962 40.8375C34.3962 41.0625 34.2837 41.1625 34.1337 41.175C33.9212 41.2 33.8087 41.0375 33.7962 40.8875C33.7712 40.6375 33.9837 40.4 34.2337 40.4125C34.3423 40.415 34.4477 40.4495 34.5367 40.5118C34.6257 40.5741 34.6942 40.6613 34.7337 40.7625C34.7587 40.8375 34.7712 40.9125 34.7712 41C34.7798 41.15 34.7306 41.2976 34.6337 41.4125C34.5658 41.4885 34.4831 41.5499 34.3907 41.5929C34.2983 41.6358 34.1981 41.6595 34.0962 41.6625C33.6712 41.675 33.3462 41.2875 33.3462 40.875C33.3462 40.1125 34.4837 39.6875 34.9462 39.575C35.5322 39.436 36.1315 39.3605 36.7337 39.35C37.0962 39.325 37.3587 39.3375 37.7462 39.3C38.0962 39.2625 38.2837 39.2375 38.6462 39.1625C39.1122 39.0581 39.543 38.834 39.8962 38.5125C40.2288 38.2628 40.4592 37.9005 40.5443 37.4934C40.6294 37.0863 40.5634 36.6621 40.3587 36.3C40.2469 36.1211 40.0971 35.9691 39.92 35.8546C39.7428 35.7401 39.5427 35.666 39.3337 35.6375C38.9587 35.575 38.6337 35.7375 38.4337 36.1125C38.3923 36.2118 38.372 36.3187 38.3741 36.4263C38.3763 36.5339 38.4008 36.6399 38.4462 36.7375C38.5087 36.85 38.6962 37.025 38.9212 37.025C39.2962 37.025 39.3962 36.775 39.4087 36.7125C39.4462 36.4375 39.2837 36.325 39.2087 36.3C39.1337 36.275 38.9337 36.275 38.8837 36.425C38.8712 36.475 38.8712 36.5625 38.9087 36.625" stroke="#703D29" stroke-width="0.0625" stroke-linecap="round"/>
<path id="Vector_58" d="M33.9711 39.625C33.4711 39.8375 33.1211 40 32.8211 40.4625C32.7359 40.6152 32.6928 40.7877 32.6961 40.9625C32.6961 41.225 32.8211 41.525 33.0336 41.7125C33.1233 41.7958 33.2304 41.858 33.3472 41.8948C33.4639 41.9316 33.5874 41.9419 33.7086 41.925C33.8961 41.9 34.0836 41.7625 34.1086 41.675" stroke="#703D29" stroke-width="0.0625" stroke-linecap="round"/>
<path id="Vector_59" d="M38.7461 30.4125C38.5336 30.4875 38.3711 30.8375 38.3711 31.1625C38.3711 31.5375 38.5461 31.7875 38.7711 31.9125" stroke="#703D29" stroke-width="0.0625"/>
<path id="Vector_60" d="M38.9961 31.6375C38.5961 32.15 38.3711 32.45 38.3711 33.05C38.3586 33.625 38.5336 34.0125 38.8711 34.425" stroke="#703D29" stroke-width="0.0625" stroke-linecap="round"/>
<path id="Vector_61" d="M36.8336 23.2L36.8711 23.15C37.0336 22.9 37.3336 22.8375 37.5586 23C37.8086 23.2 37.8836 23.5375 37.8086 23.9C37.782 24.0137 37.7329 24.121 37.6642 24.2154C37.5955 24.3099 37.5086 24.3897 37.4086 24.45" stroke="#703D29" stroke-width="0.0625"/>
<path id="Vector_62" d="M26.7462 23.0875C26.4962 22.9625 26.2837 22.9875 26.1212 23.175C26.0483 23.2793 25.9974 23.3974 25.9716 23.5221C25.9458 23.6467 25.9457 23.7753 25.9712 23.9C26.0212 24.1625 26.0962 24.275 26.3212 24.475" stroke="#703D29" stroke-width="0.0625" stroke-linecap="round"/>
<path id="Vector_63" d="M26.1086 23.2C25.7961 23 25.4586 23.075 25.2836 23.3625C25.158 23.5407 25.1003 23.758 25.1211 23.975C25.1328 24.1631 25.1916 24.3452 25.2921 24.5047C25.3926 24.6641 25.5315 24.7957 25.6961 24.8875" stroke="#703D29" stroke-width="0.0625"/>
<path id="Vector_64" d="M25.2086 23.475C25.0461 23.4958 24.8963 23.574 24.7863 23.6954C24.6763 23.8169 24.6133 23.9737 24.6086 24.1375C24.6086 24.5875 24.7211 24.7625 24.9711 25.1C25.2211 25.4375 26.0336 26.0625 26.0336 26.775C26.0336 27.2 25.9086 27.475 25.6086 27.6125C25.4086 27.7 25.1711 27.6125 25.0711 27.5125C24.8211 27.275 24.9211 26.8625 25.1836 26.8125C25.5086 26.7625 25.5711 27.275 25.2586 27.2375" stroke="#703D29" stroke-width="0.0625"/>
<path id="Vector_65" d="M24.6461 23.9125C24.3961 23.9375 24.1461 24.1625 24.1461 24.4125C24.1461 24.8 24.2961 24.975 24.6086 25.3625C24.8586 25.6875 25.6086 26.2625 25.5961 26.8125C25.5961 27.0125 25.4461 27.275 25.3086 27.2375" stroke="#703D29" stroke-width="0.0625"/>
<path id="Vector_66" d="M24.0586 31.6125C24.1836 31.325 24.4836 31.45 24.4961 31.6125C24.5461 31.9875 24.2211 32.0875 23.9961 32.025C23.8711 32 23.7961 31.925 23.7461 31.8375C23.7006 31.7529 23.681 31.6568 23.6899 31.5612C23.6988 31.4656 23.7357 31.3747 23.7961 31.3C23.83 31.2512 23.8723 31.2089 23.9211 31.175C24.0086 31.125 24.1086 31.1125 24.2586 31.1125C24.8086 31.1125 25.2961 31.775 25.4586 32.4625C25.5491 32.8566 25.5576 33.265 25.4836 33.6625C25.3998 34.0861 25.1958 34.4766 24.8961 34.7875C24.6167 35.057 24.2787 35.2581 23.9086 35.375C23.7781 35.4139 23.6391 35.4139 23.5086 35.375C23.2336 35.3 23.0461 35.025 23.1961 34.6875C23.3211 34.425 23.7336 34.2875 23.9211 34.6125C23.9336 34.65 23.9586 34.7 23.9586 34.775C23.9586 34.8625 23.9211 34.9625 23.8586 35C23.7211 35.1 23.4836 35.075 23.4961 34.8125" stroke="#703D29" stroke-width="0.0625" stroke-linecap="round"/>
<path id="Vector_67" d="M23.3211 34.5375C23.3078 34.4702 23.3125 34.4006 23.3349 34.3357C23.3573 34.2709 23.3965 34.2131 23.4485 34.1684C23.5005 34.1237 23.5635 34.0935 23.6309 34.0811C23.6984 34.0687 23.7679 34.0743 23.8325 34.0976C23.897 34.1208 23.9542 34.1608 23.9983 34.2134C24.0423 34.2659 24.0716 34.3293 24.0832 34.3969C24.0947 34.4645 24.0881 34.534 24.0641 34.5982C24.04 34.6624 23.9993 34.7191 23.9461 34.7625M23.6211 35.0375C23.7211 35.075 23.7836 35.075 23.9086 35.0125L24.0961 34.9125C24.3461 34.775 24.6586 34.5375 24.9336 34.0125C25.011 33.8706 25.0698 33.7194 25.1086 33.5625C25.1336 33.45 25.1586 33.3375 25.1586 33.225C25.1635 33.0149 25.1425 32.805 25.0961 32.6C25.0389 32.2716 24.9015 31.9625 24.6961 31.7C24.5711 31.5375 24.4836 31.45 24.2586 31.45L23.6211 35.0375Z" stroke="#703D29" stroke-width="0.0625"/>
<path id="Vector_68" d="M23.4712 34.15C23.4857 34.0638 23.5299 33.9855 23.5961 33.9284C23.6623 33.8713 23.7463 33.8392 23.8337 33.8375C23.9331 33.8375 24.0285 33.877 24.0989 33.9473C24.1692 34.0177 24.2087 34.113 24.2087 34.2125C24.2008 34.3088 24.156 34.3984 24.0837 34.4625" stroke="#703D29" stroke-width="0.0625"/>
<path id="Vector_69" d="M24.1836 34.125C24.3767 33.9814 24.5337 33.7948 24.6422 33.58C24.7506 33.3652 24.8076 33.1281 24.8086 32.8875C24.8086 32.475 24.6461 32.05 24.4461 31.8875" stroke="#703D29" stroke-width="0.0625"/>
<path id="Vector_70" d="M24.7086 33.9375C24.5574 34.1896 24.3417 34.3967 24.0836 34.5375" stroke="#703D29" stroke-width="0.0625" stroke-linecap="round"/>
<path id="Vector_71" d="M25.7086 35.375C25.6086 35.15 25.4336 35.05 25.1336 35.0125C24.8444 34.9905 24.5556 35.0605 24.3086 35.2125C24.0724 35.3194 23.8613 35.4749 23.689 35.6687C23.5167 35.8625 23.3871 36.0904 23.3086 36.3375C23.2511 36.5235 23.2257 36.7179 23.2336 36.9125C23.2336 37.275 23.3336 37.6625 23.4336 37.85C23.5086 38.025 23.7336 38.75 24.9586 39.25C25.7911 39.5155 26.6597 39.6504 27.5336 39.65C28.5711 39.6875 29.5336 39.725 30.0836 40.4125" stroke="#703D29" stroke-width="0.0625"/>
<path id="Vector_72" d="M24.2086 35.5875C24.5461 35.375 25.1586 35.0875 25.7211 35.3625C25.9154 35.4502 26.0709 35.6057 26.1586 35.8C26.2127 35.963 26.2238 36.1372 26.1909 36.3058C26.1581 36.4744 26.0824 36.6317 25.9711 36.7625C25.8836 36.85 25.7086 37.0125 25.4711 37.025C25.0961 37.025 25.0086 36.775 24.9961 36.7125C24.9586 36.4375 25.1211 36.325 25.1961 36.3C25.2586 36.275 25.4711 36.275 25.5211 36.425C25.5336 36.475 25.5336 36.5625 25.4961 36.625" stroke="#703D29" stroke-width="0.0625" stroke-linecap="round"/>
<path id="Vector_73" d="M25.5212 36.575C25.5387 36.5161 25.5398 36.4535 25.5244 36.3941C25.5089 36.3346 25.4776 36.2805 25.4337 36.2375C25.3569 36.1637 25.2592 36.1156 25.1539 36.1C25.0486 36.0843 24.941 36.1018 24.8462 36.15C24.7454 36.1973 24.6591 36.2707 24.5962 36.3625L24.4712 36.5125L24.3712 36.7625C24.1212 37.4625 24.5212 38.2125 25.0212 38.525C25.4578 38.7816 25.9524 38.9235 26.4587 38.9375L27.1212 38.975H28.7962L29.5462 39.05L30.0962 39.15L30.2837 39.2L30.4087 39.2375C30.7462 39.3321 31.0699 39.4708 31.3712 39.65C31.4587 39.7 31.5587 39.75 31.6212 39.825L31.7587 39.95C31.9462 40.125 32.1462 40.325 32.1962 40.6125V40.775C32.1962 40.95 32.0587 41.2 31.6587 41.275" stroke="#703D29" stroke-width="0.0625"/>
<path id="Vector_74" d="M30.1211 40.8375C29.9961 41.0625 30.1211 41.1625 30.2711 41.175C30.4836 41.2 30.5961 41.0375 30.6086 40.8875C30.6336 40.6375 30.4211 40.4 30.1711 40.4125C30.0625 40.415 29.9571 40.4495 29.8681 40.5118C29.7791 40.5741 29.7105 40.6613 29.6711 40.7625C29.6447 40.8389 29.632 40.9192 29.6336 41C29.6215 41.1484 29.6662 41.2958 29.7586 41.4125C29.8279 41.49 29.9126 41.5523 30.0073 41.5953C30.102 41.6384 30.2046 41.6612 30.3086 41.6625C30.7336 41.675 31.0586 41.2875 31.0586 40.875C31.0586 40.1125 29.9211 39.6875 29.4586 39.575C28.8726 39.436 28.2733 39.3605 27.6711 39.35C27.3086 39.325 27.0461 39.3375 26.6586 39.3C26.3086 39.2625 26.1211 39.2375 25.7586 39.1625C25.2925 39.0581 24.8617 38.834 24.5086 38.5125C24.1759 38.2628 23.9456 37.9005 23.8605 37.4934C23.7753 37.0863 23.8413 36.6621 24.0461 36.3C24.1579 36.1211 24.3076 35.9691 24.4848 35.8546C24.6619 35.7401 24.8621 35.666 25.0711 35.6375C25.4461 35.575 25.7711 35.7375 25.9586 36.1125C26.0586 36.2875 26.0336 36.5875 25.9586 36.7375C25.9072 36.8218 25.8359 36.8922 25.7509 36.9423C25.6658 36.9925 25.5697 37.0209 25.4711 37.025C25.0961 37.025 25.0086 36.775 24.9961 36.7125C24.9586 36.4375 25.1211 36.325 25.1961 36.3C25.2586 36.275 25.4711 36.275 25.5211 36.425C25.5336 36.475 25.5336 36.5625 25.4961 36.625" stroke="#703D29" stroke-width="0.0625"/>
<path id="Vector_75" d="M27.5711 23.2C27.5586 23.1833 27.5461 23.1666 27.5336 23.15C27.3711 22.9 27.0711 22.8375 26.8461 23C26.5961 23.2 26.5211 23.5375 26.5961 23.9C26.6227 24.0137 26.6718 24.121 26.7405 24.2154C26.8092 24.3099 26.8961 24.3897 26.9961 24.45" stroke="#703D29" stroke-width="0.0625" stroke-linecap="round"/>
<path id="Vector_76" d="M36.9211 23.9625C36.5211 24.4 36.1086 24.5375 35.5086 24.5625C35.3211 24.5625 34.9586 24.5 34.7586 24.35C34.6336 24.25 34.4711 24.1 34.5711 23.8C34.6336 23.6125 34.9461 23.0875 34.9461 22.7125C34.9711 22.15 34.7586 21.8375 34.4211 21.725C33.7961 21.5 33.1211 22.125 32.7211 22.2625C32.5566 22.3197 32.3827 22.3452 32.2086 22.3375C32.0086 22.3375 31.8961 22.3375 31.6836 22.2625C31.2836 22.125 30.6086 21.5125 29.9836 21.725C29.6461 21.85 29.4336 22.15 29.4586 22.725C29.4586 23.0875 29.7711 23.6125 29.8336 23.8C29.9336 24.0875 29.7836 24.25 29.6461 24.35C29.4202 24.488 29.1609 24.5614 28.8961 24.5625C28.2836 24.5375 27.8961 24.4 27.4836 23.9625" stroke="#703D29" stroke-width="0.0625"/>
<path id="Vector_77" d="M29.9836 39.4375C30.0586 39.475 29.9961 39.425 30.5086 39.65C30.9836 39.8625 31.3336 40.05 31.6336 40.525C31.7506 40.7523 31.7816 41.0141 31.7211 41.2625" stroke="#703D29" stroke-width="0.0625" stroke-linecap="round"/>
<path id="Vector_78" d="M30.0087 41.6C30.1096 41.6519 30.2204 41.6817 30.3337 41.6875C30.7587 41.7 31.0837 41.3125 31.0837 40.9C31.0837 40.625 30.9337 40.4 30.7212 40.2" stroke="#703D29" stroke-width="0.0625"/>
<path id="Vector_79" d="M30.1086 40.8375C29.9961 41.075 30.1461 41.1875 30.2961 41.2125C30.5086 41.2375 30.6211 41.0625 30.6461 40.9125C30.6515 40.8309 30.6346 40.7494 30.5971 40.6768C30.5597 40.6041 30.5032 40.543 30.4336 40.5" stroke="#703D29" stroke-width="0.0625" stroke-linecap="round"/>
<path id="Vector_80" d="M39.2461 23.475C39.5711 23.475 39.8586 23.8375 39.8586 24.2C39.8586 24.625 39.6336 24.8875 39.4711 25.075C39.3461 25.2375 39.1961 25.375 39.0211 25.55" stroke="#703D29" stroke-width="0.0625"/>
<path id="Vector_81" d="M23.6211 34.425C23.7461 34.425 23.8711 34.5 23.9586 34.65C23.983 34.6963 23.9959 34.7477 23.9961 34.8C23.9961 34.8875 23.9586 34.975 23.8961 35.025C23.7461 35.1125 23.4961 35.075 23.5086 34.8125M38.8711 23.1375C38.9906 23.1889 39.0911 23.2763 39.1586 23.3875C39.2798 23.5673 39.333 23.7845 39.3086 24C39.2961 24.425 38.9961 24.7125 38.7211 24.8875L38.8711 23.1375ZM38.2461 23.1375L38.3086 23.2125C38.3833 23.3135 38.4354 23.4295 38.4613 23.5524C38.4871 23.6753 38.4862 23.8024 38.4586 23.925C38.4385 24.0379 38.3947 24.1454 38.33 24.2402C38.2654 24.335 38.1814 24.415 38.0836 24.475L38.2461 23.1375ZM37.5836 23.025C37.8336 23.225 37.9211 23.575 37.8336 23.925C37.7711 24.175 37.6086 24.3375 37.4211 24.45L37.5836 23.025ZM38.5336 28.5625C38.5586 28.65 38.6086 28.6875 38.6836 28.75C38.8517 28.9234 39.0632 29.0486 39.2961 29.1125C39.4006 29.1426 39.5103 29.1503 39.6179 29.1352C39.7256 29.1202 39.8289 29.0826 39.9211 29.025L38.5336 28.5625Z" stroke="#703D29" stroke-width="0.0625" stroke-linecap="round"/>
<path id="Vector_82" d="M23.8462 33.8375C24.0462 33.8375 24.2212 34.025 24.2212 34.2375C24.22 34.3303 24.1843 34.4194 24.1212 34.4875M24.3962 31.125C24.8962 31.225 25.3587 31.8125 25.5212 32.4625C25.6117 32.8566 25.6202 33.265 25.5462 33.6625C25.4624 34.0861 25.2584 34.4766 24.9587 34.7875C24.8962 34.8625 24.8337 34.9125 24.7462 34.975L24.6337 35.05L24.3962 31.125Z" stroke="#703D29" stroke-width="0.0625"/>
<path id="Vector_83" d="M23.7086 34.075C23.9211 34.075 24.1211 34.275 24.1211 34.4875C24.1221 34.5476 24.109 34.6072 24.083 34.6614C24.057 34.7157 24.0187 34.7631 23.9711 34.8" stroke="#703D29" stroke-width="0.0625"/>
<path id="Vector_84" d="M26.0211 33.575C25.9879 33.714 25.9375 33.8484 25.8711 33.975C25.7806 34.1473 25.6624 34.3035 25.5211 34.4375M25.6461 31.95C25.8336 32.2 25.9711 32.4375 26.0211 32.725L25.6461 31.95Z" stroke="#703D29" stroke-width="0.0625" stroke-linecap="round"/>
<path id="Vector_85" d="M25.6711 30.4375C25.8359 30.554 25.9586 30.7206 26.0211 30.9125" stroke="#703D29" stroke-width="0.0625"/>
<path id="Vector_86" d="M24.7837 28.6875L24.9962 28.6375L25.1212 28.5375L25.2087 28.4125L25.2712 28.2375L25.3087 28.0875M26.0337 29.95C25.9645 30.1315 25.848 30.2912 25.6962 30.4125L26.0337 29.95Z" stroke="#703D29" stroke-width="0.0625" stroke-linecap="round"/>
<path id="Vector_87" d="M24.3462 27.925L24.0962 28.0125C23.9548 28.0794 23.8339 28.183 23.7462 28.3125C23.6335 28.4963 23.5572 28.7 23.5212 28.9125C23.4962 29 23.4712 29.2875 23.5212 29.575C23.5651 29.7815 23.6501 29.977 23.7712 30.15L23.8712 30.275C23.9962 30.4 24.1212 30.4875 24.3087 30.45" stroke="#703D29" stroke-width="0.0625"/>
<path id="Vector_88" d="M25.5461 26.975C25.5211 27.1 25.4461 27.2625 25.2461 27.25" stroke="#703D29" stroke-width="0.0625" stroke-linecap="round"/>
<path id="Vector_89" d="M24.8087 27.85C24.6212 27.6625 24.2087 27.6125 23.8087 27.875C23.7462 27.9 23.6962 27.95 23.6462 28C23.5947 28.0445 23.5485 28.0948 23.5087 28.15L23.3587 28.4C23.3207 28.48 23.2914 28.5638 23.2712 28.65C23.1962 28.9375 23.1962 29.2125 23.1962 29.275L23.2337 29.55C23.2709 29.77 23.3471 29.9817 23.4587 30.175C23.5354 30.3201 23.6458 30.4446 23.7807 30.5382C23.9155 30.6317 24.0709 30.6915 24.2337 30.7125C24.4087 30.725 24.7212 30.6375 24.7337 30.4125" stroke="#703D29" stroke-width="0.0625"/>
<path id="Vector_90" d="M36.6212 23.7125C36.6462 23.5375 36.8462 23.5125 36.9212 23.6125C37.0462 23.7625 36.9712 24.0125 36.7337 24.0875C36.6646 24.1023 36.5927 24.0972 36.5263 24.0728C36.46 24.0485 36.4019 24.0059 36.3587 23.95C36.2462 23.825 36.2587 23.675 36.2962 23.55C36.3212 23.4625 36.3837 23.4 36.4712 23.3375C36.7337 23.125 37.1837 23.175 37.3212 23.525C37.5087 23.975 37.1087 24.3125 36.7337 24.5625C36.2587 24.875 35.7337 24.9375 35.3212 24.9375C34.4087 24.925 33.7087 24.4875 33.2587 24.2375C33.1587 24.175 33.0462 24.1875 32.9962 24.2625C32.9337 24.3375 32.9337 24.45 33.0212 24.525" stroke="#703D29" stroke-width="0.0625" stroke-linecap="round"/>
<path id="Vector_91" d="M38.5462 29.2625C38.1962 29.6375 38.5087 30.3 38.7712 30.45C38.8587 30.5125 38.8962 30.475 38.9712 30.525M36.8087 23.55C36.9087 23.55 36.9337 23.6 36.9587 23.6375C37.0837 23.7875 36.9962 24.0375 36.7587 24.1125L36.8087 23.55Z" stroke="#703D29" stroke-width="0.0625" stroke-linecap="round"/>
<path id="Vector_92" d="M38.5586 28.5375C38.4336 28.625 38.4086 28.7125 38.3961 28.8625C38.3917 28.9359 38.4027 29.0095 38.4286 29.0784C38.4544 29.1473 38.4945 29.21 38.5461 29.2625C38.7947 29.4941 39.119 29.6273 39.4586 29.6375C39.6762 29.6457 39.8907 29.5844 40.0711 29.4625C40.2583 29.3359 40.392 29.1444 40.4461 28.925L38.5586 28.5375ZM38.3711 35.125V35.375C38.3211 35.65 38.2836 35.8125 38.1586 36.0625C38.0538 36.2752 37.9096 36.466 37.7336 36.625C37.5648 36.7974 37.3656 36.9373 37.1461 37.0375C36.941 37.1425 36.7222 37.2183 36.4961 37.2625C36.2694 37.3067 36.0395 37.3318 35.8086 37.3375H35.1836L34.4961 37.25C34.2836 37.225 34.1586 37.2125 33.9461 37.2125C33.5707 37.2019 33.1968 37.2656 32.8461 37.4C32.6177 37.4881 32.4063 37.6149 32.2211 37.775C32.1461 37.7 31.8461 37.5 31.5711 37.4C31.407 37.3294 31.2349 37.279 31.0586 37.25C30.8336 37.2125 30.7086 37.2125 30.4836 37.2125C30.2586 37.2125 30.1461 37.225 29.9211 37.25C29.6711 37.275 29.5086 37.3125 29.2461 37.325C28.9961 37.3375 28.8711 37.35 28.6211 37.3375C28.3461 37.3375 28.1961 37.3125 27.9211 37.2625C27.695 37.2183 27.4762 37.1425 27.2711 37.0375C27.0211 36.9125 26.8961 36.825 26.6836 36.625C26.5121 36.4649 26.3722 36.2741 26.2711 36.0625C26.1568 35.8491 26.0847 35.6157 26.0586 35.375V24.95H38.3711V35.125Z" stroke="#703D29" stroke-width="0.0625"/>
</g>
<g id="Group_4">
<path id="Vector_93" d="M25.0337 36.5625C25.0337 36.4962 25.06 36.4326 25.1069 36.3857C25.1538 36.3389 25.2174 36.3125 25.2837 36.3125C25.35 36.3125 25.4136 36.3389 25.4604 36.3857C25.5073 36.4326 25.5337 36.4962 25.5337 36.5625C25.5337 36.6288 25.5073 36.6924 25.4604 36.7393C25.4136 36.7862 25.35 36.8125 25.2837 36.8125C25.2174 36.8125 25.1538 36.7862 25.1069 36.7393C25.06 36.6924 25.0337 36.6288 25.0337 36.5625ZM23.5087 34.8C23.5087 34.675 23.5837 34.575 23.6837 34.575C23.7837 34.575 23.8587 34.675 23.8587 34.8C23.8587 34.925 23.7837 35.025 23.6837 35.025C23.5837 35.025 23.5087 34.925 23.5087 34.8Z" fill="#C7B37F" stroke="#C7B37F" stroke-width="0.0375"/>
<path id="Vector_94" d="M24.3712 30.3625C24.3712 30.2625 24.4587 30.175 24.5462 30.175C24.6462 30.175 24.7212 30.2625 24.7212 30.3625C24.7212 30.4625 24.6462 30.5375 24.5462 30.5375C24.4587 30.5375 24.3837 30.4625 24.3837 30.3625H24.3712ZM27.4462 23.8C27.4337 23.6875 27.4962 23.6 27.5712 23.6C27.6587 23.5875 27.7462 23.6625 27.7587 23.7625C27.7587 23.8625 27.7087 23.95 27.6212 23.9625C27.5337 23.9625 27.4462 23.9 27.4462 23.8Z" fill="#C7B37F"/>
</g>
<g id="Group_5">
<path id="Vector_95" d="M25.621 31.825L25.546 31.7375L25.4585 31.65L25.3585 31.5875M24.171 31.4C24.1429 31.4114 24.1174 31.4284 24.096 31.45L24.0335 31.5375L24.0085 31.6625L24.171 31.4ZM24.4835 34.325L24.571 34.225L24.646 34.125L24.696 34.0375L24.7585 33.9125L24.4835 34.325ZM24.6335 35.2875L24.4835 35.3625L24.371 35.425C24.3281 35.4523 24.2864 35.4815 24.246 35.5125L24.121 35.6125L24.6335 35.2875Z" stroke="#C7B37F" stroke-width="0.0625" stroke-linecap="round"/>
<path id="Vector_96" d="M25.6586 30.5L25.5336 30.55C25.4892 30.5647 25.4429 30.5731 25.3961 30.575" stroke="#C7B37F" stroke-width="0.0625"/>
<path id="Vector_97" d="M26.5461 23.975L26.6086 24.125L26.6961 24.25L26.8211 24.375C26.8961 24.4375 26.9461 24.45 27.0211 24.5M23.9961 28.85C23.9961 28.9 24.0086 28.9375 24.0336 28.9875L24.1211 29.1625C24.1918 29.2696 24.2858 29.3594 24.3961 29.425L24.5461 29.5125L23.9961 28.85ZM24.4336 28.925L24.5586 28.9875C24.6532 29.0288 24.7554 29.05 24.8586 29.05L25.0461 29.0375L24.4336 28.925ZM25.7586 24.975L25.5586 24.85C25.4426 24.7723 25.3411 24.6751 25.2586 24.5625L25.1711 24.4375L25.7586 24.975ZM25.9211 23.9875L25.9836 24.15L26.1336 24.3625C26.2211 24.4625 26.2961 24.4875 26.4086 24.5625L25.9211 23.9875Z" stroke="#C7B37F" stroke-width="0.0625" stroke-linecap="round"/>
</g>
<path id="Vector_98" d="M33.5711 23.1625C33.5711 22.9875 33.4086 22.975 33.3336 22.975C33.1586 22.975 33.1086 23.1 32.8711 23.225C32.6722 23.3472 32.4418 23.408 32.2086 23.4C31.9694 23.4109 31.7329 23.3453 31.5336 23.2125C31.2961 23.0875 31.2586 22.975 31.0836 22.975C30.9836 22.975 30.8461 23.0625 30.8586 23.225V23.3125C30.8586 23.3125 30.8836 23.3125 30.8836 23.3375C30.8836 23.25 30.8961 23.2125 30.9336 23.1625C30.9529 23.1373 30.9774 23.1164 31.0054 23.1013C31.0335 23.0862 31.0644 23.0773 31.0961 23.075C31.2836 23.075 31.3461 23.2 31.5836 23.325C31.7811 23.4516 32.0116 23.5168 32.2461 23.5125C32.4961 23.5125 32.6336 23.475 32.9211 23.325C33.1586 23.2 33.2211 23.075 33.4086 23.075C33.4711 23.075 33.5086 23.1125 33.5336 23.175V23.2625H33.5586C33.5586 23.25 33.5836 23.2375 33.5711 23.1625V23.1625Z" fill="#703D29" stroke="#703D29" stroke-width="0.0125"/>
</g>
<g id="Group_6">
<path id="Vector_99" d="M26.6836 37.4C26.7336 37.35 26.7836 37.3625 26.7836 37.3375L26.7586 37.3125L26.6711 37.2875L26.5836 37.25C26.5836 37.25 26.5461 37.225 26.5336 37.25C26.5336 37.2875 26.6461 37.2875 26.5961 37.3875C26.5961 37.4125 26.5836 37.45 26.5211 37.5125L26.2586 37.8L26.2336 37.825V37.375L26.2461 37.2C26.2711 37.15 26.3211 37.2 26.3336 37.1625C26.3336 37.1375 26.3336 37.1375 26.3086 37.125C26.2836 37.125 26.2586 37.125 26.1836 37.0875L26.0961 37.05C26.0836 37.05 26.0461 37.025 26.0336 37.05L26.0461 37.075C26.0836 37.1 26.0961 37.1125 26.0961 37.1625V37.9125C26.0961 37.9625 26.1086 37.9875 26.1211 37.9875L26.1586 37.9625L26.6836 37.3875V37.4Z" fill="#703D29"/>
<path id="Vector_100" d="M26.9961 37.5125C27.0336 37.4125 27.0961 37.475 27.1086 37.4375L27.0711 37.4125L26.9461 37.375L26.8211 37.325H26.7836C26.7836 37.375 26.9086 37.375 26.8711 37.4875L26.6961 38.0375C26.6586 38.1375 26.5961 38.0875 26.5836 38.125V38.1375L26.7086 38.175L26.8586 38.225H26.8961C26.9086 38.1875 26.7711 38.2 26.8211 38.0625L26.9961 37.525V37.5125ZM27.3711 37.6375C27.3836 37.5625 27.4211 37.5625 27.4586 37.575C27.5586 37.6125 27.5836 37.7125 27.5586 37.825C27.5336 37.8875 27.5086 37.95 27.3586 37.9125C27.3211 37.9 27.2836 37.8875 27.2961 37.8625L27.3711 37.625V37.6375ZM27.0836 38.125C27.0336 38.2625 26.9586 38.2 26.9586 38.25L26.9836 38.2625L27.1461 38.3125L27.2336 38.3375H27.2711C27.2711 38.2875 27.1586 38.3125 27.1961 38.1875L27.2586 37.9875C27.2586 37.95 27.2586 37.9375 27.3211 37.95C27.3711 37.975 27.3836 37.9875 27.3961 38.0375L27.4336 38.25C27.4336 38.325 27.4586 38.4125 27.5336 38.425C27.5711 38.45 27.6586 38.4375 27.6586 38.4V38.3875H27.6211L27.5836 38.35L27.5211 37.975L27.5961 37.95C27.6336 37.925 27.6711 37.9 27.6961 37.825C27.7086 37.775 27.7336 37.6125 27.5086 37.5375L27.3086 37.4875L27.1836 37.45H27.1586C27.1461 37.5 27.2711 37.4875 27.2336 37.6125L27.0836 38.1125V38.125ZM27.9211 38.375C27.8961 38.5 27.7961 38.425 27.7711 38.4625C27.7711 38.4875 27.7836 38.5 27.8086 38.5L27.9586 38.525L28.0961 38.575L28.1586 38.5625C28.1586 38.525 28.0211 38.525 28.0586 38.3875L28.1836 37.8625C28.1836 37.8 28.2086 37.8 28.2461 37.8125L28.3336 37.8375C28.4586 37.8625 28.3961 37.975 28.4336 37.9875C28.4711 37.9875 28.4586 37.95 28.4711 37.925V37.7875L28.1461 37.7125L27.8336 37.6375C27.8086 37.6375 27.8086 37.6375 27.8086 37.6625L27.7461 37.8125V37.85C27.8086 37.8625 27.8086 37.7 27.9211 37.725L28.0086 37.75C28.0586 37.7625 28.0711 37.775 28.0586 37.825L27.9336 38.3625L27.9211 38.375ZM29.1961 38.0375C29.2336 37.975 29.2836 37.9875 29.2836 37.9625L29.2461 37.9375H29.1586L29.0711 37.9125C29.0586 37.9125 29.0211 37.9 29.0211 37.9125C29.0211 37.9625 29.1336 37.9375 29.1086 38.0375C29.1086 38.0625 29.0961 38.1125 29.0461 38.175L28.8336 38.5125L28.8211 38.5375V38.5L28.7461 38.1C28.7337 38.0468 28.7295 37.992 28.7336 37.9375C28.7336 37.8875 28.7961 37.9125 28.8086 37.875L28.7711 37.85L28.6461 37.8375L28.5461 37.8125C28.5336 37.8125 28.4961 37.8 28.4961 37.8125L28.5086 37.8375C28.5586 37.8625 28.5711 37.875 28.5711 37.925L28.7086 38.6625C28.7211 38.7125 28.7336 38.725 28.7461 38.725L28.7711 38.7L29.1961 38.0375V38.0375ZM29.2586 38.7125L29.2711 38.7625L29.4461 38.8375C29.5836 38.8625 29.6961 38.775 29.7336 38.625C29.7586 38.475 29.6961 38.4125 29.5836 38.3375C29.4586 38.2375 29.3961 38.2125 29.4211 38.1375C29.4211 38.0625 29.4836 38.0125 29.5461 38.0375C29.7336 38.0625 29.7211 38.2875 29.7461 38.2875C29.7586 38.2875 29.7711 38.2875 29.7711 38.25L29.7836 38.0875V38.05H29.7211C29.6836 38.05 29.6586 38 29.5711 37.9875C29.4461 37.9625 29.3461 38.05 29.3211 38.1875C29.2961 38.3125 29.3461 38.3625 29.4461 38.425C29.5961 38.5375 29.6586 38.55 29.6461 38.6625C29.6211 38.75 29.5461 38.8 29.4711 38.7875C29.3461 38.7625 29.3086 38.65 29.2836 38.5375L29.2711 38.5C29.2461 38.5 29.2461 38.5375 29.2461 38.55V38.7125H29.2586ZM30.8336 38.275C30.8711 38.2 30.9086 38.2125 30.9211 38.1875C30.9211 38.1625 30.8961 38.1625 30.8836 38.1625H30.7836L30.6961 38.15L30.6461 38.1625C30.6461 38.2125 30.7711 38.1625 30.7461 38.2875C30.7461 38.3 30.7461 38.35 30.7086 38.4125L30.5336 38.775L30.5086 38.8V38.775L30.3836 38.375C30.367 38.3224 30.3586 38.2676 30.3586 38.2125C30.3586 38.1625 30.4336 38.175 30.4336 38.15C30.4336 38.125 30.4336 38.125 30.3961 38.125H30.2711L30.1711 38.1125C30.1586 38.1125 30.1211 38.1 30.1211 38.1125L30.1336 38.1375C30.1836 38.1625 30.1961 38.175 30.2086 38.2125L30.4211 38.9375C30.4336 38.9875 30.4461 39 30.4586 39L30.4836 38.9625L30.8336 38.275V38.275Z" fill="#703D29"/>
<path id="Vector_101" d="M30.9961 38.85C30.9961 38.975 30.8961 38.95 30.8961 39H31.0211L31.1461 39.0125L31.1961 39C31.1961 38.9375 31.0586 39.025 31.0586 38.7875V38.3625C31.0586 38.3625 31.0836 38.3625 31.0961 38.3875L31.5961 39.0125H31.6336V38.9875L31.6461 38.325C31.6461 38.2 31.7461 38.225 31.7461 38.1875L31.7211 38.175H31.4711V38.1875C31.4711 38.225 31.5961 38.2125 31.5961 38.3125V38.7125L31.5836 38.7625L31.5461 38.725L31.1211 38.2C31.1086 38.175 31.1211 38.1625 31.0836 38.1625H30.9086L30.8961 38.1875C30.8961 38.2375 31.0211 38.1625 31.0086 38.4V38.85H30.9961ZM32.0461 38.3125C32.0461 38.1875 32.1211 38.2375 32.1211 38.2L32.0836 38.1875H31.7961C31.7961 38.2375 31.9086 38.2 31.9086 38.3125V38.8875C31.9086 39.0125 31.8336 38.975 31.8336 39.0125V39.025H32.1211L32.1586 39.0125C32.1586 38.975 32.0336 39.025 32.0336 38.8875V38.3125H32.0461ZM32.4961 38.8625C32.4961 39.0125 32.3711 38.95 32.3711 38.9875C32.3711 39.025 32.3961 39.025 32.4086 39.025H32.7086C32.7461 39.025 32.7711 39.025 32.7711 39C32.7711 38.9625 32.6336 39 32.6336 38.85V38.3125C32.6336 38.25 32.6336 38.25 32.6711 38.25H32.7711C32.8961 38.25 32.8586 38.375 32.8961 38.375C32.9336 38.375 32.9211 38.325 32.9211 38.3125L32.9086 38.2C32.9086 38.2 32.9086 38.175 32.8836 38.175H32.2461C32.2211 38.175 32.2211 38.2 32.2211 38.2125L32.2086 38.3625L32.2211 38.4125C32.2711 38.4125 32.2336 38.25 32.3586 38.25H32.4461C32.4961 38.25 32.5086 38.25 32.5086 38.3125V38.8625H32.4961ZM33.1211 38.6375H33.0836V38.5875L33.1586 38.3625H33.1711L33.2961 38.575V38.6125L33.2711 38.625L33.1211 38.6375V38.6375ZM33.3086 38.6875C33.3336 38.6875 33.3461 38.6875 33.3836 38.7875L33.4086 38.8625C33.4086 38.9375 33.3336 38.9375 33.3336 38.9625C33.3336 38.9875 33.3586 38.975 33.3711 38.975H33.4961L33.6211 38.9625C33.6586 38.9625 33.6711 38.9625 33.6711 38.9375C33.6711 38.9 33.6086 38.95 33.5711 38.8625L33.2211 38.1625L33.1961 38.125L33.1711 38.175L32.9336 38.9125C32.9086 38.975 32.8586 38.975 32.8586 39C32.8586 39.025 32.8836 39.0125 32.8961 39.0125H33.0836C33.1086 39 33.1461 39.0125 33.1461 38.975C33.1461 38.95 33.0211 38.975 33.0211 38.8875L33.0336 38.8C33.0586 38.7125 33.0711 38.7125 33.0961 38.7125L33.3086 38.6875ZM34.1336 38.1875C34.1336 38.1125 34.1336 38.1125 34.2586 38.1C34.4586 38.0625 34.3961 38.225 34.4461 38.2125C34.4711 38.2125 34.4586 38.1625 34.4586 38.15L34.4461 38.025H34.4211L34.1711 38.05L33.8961 38.0875C33.8711 38.0875 33.8711 38.0875 33.8711 38.1125C33.8711 38.15 33.9961 38.1125 33.9961 38.2125L34.0711 38.7625C34.0961 38.9125 34.0086 38.85 34.0086 38.9125H34.0336L34.1711 38.9L34.2961 38.8875C34.3211 38.8875 34.3461 38.8875 34.3461 38.8625C34.3461 38.825 34.2211 38.8625 34.2086 38.7375L34.1836 38.5625C34.1836 38.5 34.1711 38.4875 34.2211 38.475H34.2961C34.4086 38.45 34.3961 38.5875 34.4211 38.575C34.4586 38.575 34.4461 38.5375 34.4336 38.5125L34.4086 38.3125C34.4086 38.275 34.3836 38.275 34.3836 38.275C34.3586 38.275 34.3711 38.4 34.2836 38.4L34.2086 38.4125C34.1586 38.4125 34.1586 38.4125 34.1586 38.3625L34.1336 38.2V38.1875ZM34.5336 38.4625C34.5711 38.7125 34.7461 38.8375 34.9586 38.8C35.2961 38.7375 35.3086 38.425 35.2711 38.275C35.2336 38.025 35.0461 37.9 34.8336 37.9375C34.5836 37.9875 34.4836 38.2125 34.5336 38.4625ZM34.6461 38.375C34.6086 38.2 34.6461 38.0375 34.8211 38C34.9461 37.9625 35.1086 38.075 35.1586 38.3375C35.1961 38.5375 35.1586 38.7125 34.9836 38.7375C34.7961 38.775 34.6836 38.55 34.6461 38.375ZM35.4836 37.9625C35.4586 37.8875 35.4961 37.875 35.5336 37.875C35.6336 37.85 35.7211 37.9125 35.7461 38.0375C35.7586 38.1 35.7711 38.1625 35.6211 38.2C35.5836 38.2125 35.5461 38.225 35.5336 38.2L35.4836 37.95V37.9625ZM35.4836 38.525C35.5211 38.675 35.4211 38.65 35.4336 38.6875C35.4336 38.7125 35.4586 38.7125 35.4711 38.7L35.6336 38.6625L35.7211 38.65C35.7461 38.65 35.7461 38.625 35.7461 38.625C35.7461 38.575 35.6461 38.65 35.6211 38.525L35.5711 38.325C35.5586 38.2875 35.5461 38.275 35.6086 38.2625C35.6586 38.2625 35.6836 38.2625 35.7211 38.3L35.8461 38.4625C35.8961 38.525 35.9461 38.5875 36.0336 38.575C36.0711 38.5625 36.1336 38.5125 36.1211 38.4875C36.1211 38.475 36.1211 38.4625 36.1086 38.475H36.0336L35.7836 38.1875L35.8461 38.125C35.8586 38.0875 35.8836 38.0375 35.8711 37.9625C35.8586 37.9125 35.7961 37.75 35.5586 37.8125L35.3586 37.8625L35.2336 37.8875L35.2086 37.9125C35.2211 37.9625 35.3336 37.8875 35.3586 38.0125L35.4836 38.525V38.525ZM36.3461 38.3375C36.3836 38.4625 36.2461 38.45 36.2586 38.4875C36.2586 38.5125 36.2836 38.5125 36.2961 38.5125L36.4461 38.4625L36.5961 38.425C36.6211 38.425 36.6461 38.425 36.6336 38.4C36.6336 38.3625 36.5086 38.425 36.4711 38.2875L36.3336 37.7625C36.3211 37.7125 36.3336 37.7 36.3711 37.6875L36.4586 37.6625C36.5836 37.625 36.5836 37.7625 36.6211 37.7625C36.6461 37.7625 36.6211 37.7125 36.6211 37.7L36.5711 37.5875C36.5711 37.5875 36.5711 37.5625 36.5461 37.5625L36.2336 37.65L35.9211 37.7375C35.8961 37.7375 35.9086 37.75 35.9086 37.7625L35.9336 37.925C35.9336 37.9375 35.9336 37.9625 35.9586 37.9625C35.9961 37.95 35.9336 37.8 36.0461 37.775L36.1336 37.75C36.1711 37.75 36.1836 37.75 36.2086 37.8L36.3336 38.3375H36.3461ZM36.8961 37.6C36.8586 37.4875 36.9461 37.5125 36.9336 37.475H36.8961C36.8461 37.475 36.8086 37.5 36.7711 37.5125L36.6461 37.5375C36.6461 37.5375 36.6086 37.5375 36.6211 37.5625C36.6211 37.6 36.7461 37.5375 36.7711 37.6375L36.9211 38.1875C36.9461 38.3125 36.8711 38.2875 36.8836 38.3375L37.0086 38.3125L37.1711 38.275C37.1961 38.2625 37.1961 38.25 37.1961 38.2375C37.1961 38.2 37.0836 38.2875 37.0461 38.15L36.8961 37.6ZM37.1211 37.8625C37.1961 38.1 37.3836 38.2 37.5961 38.1375C37.9211 38.025 37.8836 37.725 37.8336 37.575C37.7586 37.325 37.5461 37.2375 37.3586 37.3C37.1086 37.3875 37.0336 37.625 37.1211 37.8625ZM37.2211 37.7625C37.1711 37.6 37.1711 37.425 37.3461 37.3625C37.4711 37.3125 37.6336 37.4 37.7211 37.6625C37.7836 37.85 37.7836 38.0125 37.5961 38.075C37.4211 38.1375 37.2836 37.925 37.2211 37.7625ZM37.9836 37.225C37.9586 37.15 37.9836 37.1375 38.0336 37.125C38.1336 37.0875 38.2211 37.15 38.2586 37.25C38.2836 37.325 38.3086 37.375 38.1586 37.45C38.1211 37.45 38.0836 37.475 38.0711 37.45L37.9836 37.225ZM38.0711 37.7875C38.1211 37.9125 38.0211 37.9125 38.0461 37.95C38.0461 37.975 38.0711 37.9625 38.0836 37.95C38.1336 37.95 38.1836 37.9125 38.2336 37.9L38.3211 37.8625C38.3461 37.8625 38.3461 37.85 38.3461 37.8375C38.3336 37.8 38.2461 37.875 38.1961 37.7625L38.1211 37.575C38.1211 37.525 38.0961 37.525 38.1586 37.5C38.2086 37.4875 38.2211 37.4875 38.2711 37.525L38.4211 37.675C38.4836 37.725 38.5461 37.775 38.6211 37.75C38.6586 37.7375 38.7086 37.6875 38.6961 37.65C38.6961 37.65 38.6961 37.6375 38.6836 37.65H38.6086L38.3336 37.4L38.3711 37.3375C38.3836 37.3 38.3961 37.25 38.3711 37.175C38.3461 37.125 38.2711 36.975 38.0461 37.0625L37.8461 37.15L37.7211 37.1875V37.2125C37.7336 37.25 37.8211 37.1625 37.8711 37.2875L38.0711 37.7875V37.7875Z" fill="#703D29"/>
</g>
<g id="Group_7">
<path id="Vector_102" d="M26.6589 25.5552H31.9133V30.8032H26.6589V25.5552Z" fill="#D52B1E"/>
<path id="a" d="M29.123 29.6832C29.123 29.6832 29.123 29.8752 29.0718 30.0224C29.0078 30.1952 29.0078 30.1952 28.9502 30.2784C28.888 30.3799 28.8052 30.4672 28.707 30.5344C28.579 30.6112 28.451 30.6496 28.323 30.6368C27.9774 30.6112 27.811 30.2272 27.7342 29.92C27.651 29.5936 27.4142 29.408 27.2542 29.536C27.1646 29.6 27.1646 29.7152 27.235 29.8304C27.3039 29.9136 27.3948 29.9757 27.4974 30.0096L27.3118 30.2464C27.3118 30.2464 26.9086 30.1952 26.8318 29.7728C26.7998 29.6128 26.8766 29.3184 27.1454 29.2288C27.4846 29.1136 27.6958 29.3568 27.8046 29.5616C27.9454 29.8432 28.0094 30.3552 28.4062 30.2784C28.6238 30.2336 28.7262 29.92 28.7262 29.7728L28.8798 29.6064L29.1166 29.6832H29.123V29.6832Z" fill="#F5F5F5"/>
<path id="Vector_103" d="M29.4493 29.6832C29.4493 29.6832 29.4493 29.8752 29.5005 30.0224C29.5645 30.1952 29.5645 30.1952 29.6221 30.2784C29.6842 30.3799 29.7671 30.4672 29.8653 30.5344C29.9933 30.6112 30.1213 30.6496 30.2493 30.6368C30.5949 30.6112 30.7613 30.2272 30.8381 29.92C30.9213 29.5936 31.1581 29.408 31.3181 29.536C31.4077 29.6 31.4077 29.7152 31.3373 29.8304C31.2684 29.9136 31.1774 29.9757 31.0749 30.0096L31.2605 30.2464C31.2605 30.2464 31.6637 30.1952 31.7405 29.7728C31.7725 29.6128 31.6957 29.3184 31.4269 29.2288C31.0877 29.1136 30.8765 29.3568 30.7677 29.5616C30.6269 29.8432 30.5629 30.3552 30.1661 30.2784C29.9485 30.2336 29.8461 29.92 29.8461 29.7728L29.6925 29.6064L29.4557 29.6832H29.4493V29.6832Z" fill="#F5F5F5"/>
<path id="Vector_104" d="M29.7565 27.456L30.4477 26.7072C30.4477 26.7072 30.5501 26.624 30.5501 26.4896L30.4093 26.5152L30.3773 26.4384L30.3709 26.368L30.5629 26.3232V26.24L30.5821 26.1568L30.3773 26.1696L30.3965 26.08L30.4285 26.016L30.5501 25.9904H30.6717C30.7869 25.7728 31.2605 25.5808 31.5933 25.9264C31.8365 26.1824 31.7853 26.6432 31.4653 26.7712C31.3938 26.803 31.3145 26.8132 31.2372 26.8007C31.1599 26.7882 31.088 26.7535 31.0301 26.7008L31.1581 26.4448C31.3309 26.5536 31.4781 26.4256 31.4653 26.2912C31.4525 26.1184 31.3373 26.016 31.1901 26.0032C31.0429 25.9904 30.9341 26.0672 30.8701 26.1952C30.8317 26.2784 30.8509 26.336 30.8381 26.4256C30.8253 26.5216 30.8381 26.5728 30.8061 26.6688C30.7749 26.7572 30.7221 26.8364 30.6525 26.8992L29.9485 27.6672L27.1965 30.6368L26.9917 30.4448L29.7565 27.456V27.456Z" fill="#FEDF00"/>
<path id="Vector_105" d="M27.7342 27.712C27.7342 27.712 27.907 28.5696 28.4958 29.856C28.7966 29.7472 28.9694 29.6768 29.2894 29.6768C29.603 29.6768 29.7758 29.7408 30.0766 29.856C30.4043 29.1697 30.6595 28.4512 30.8382 27.712L29.2894 25.728L27.7278 27.712H27.7342Z" fill="#F5F5F5"/>
<path id="Vector_106" d="M29.4365 26.3936L30.5117 27.7824C30.5117 27.7824 30.3709 28.4544 29.9357 29.4656C29.7629 29.4272 29.6157 29.3952 29.4365 29.3824V26.3936ZM29.1357 26.3936L28.0605 27.7824C28.0605 27.7824 28.2013 28.4544 28.6365 29.4656C28.8093 29.4272 28.9565 29.3952 29.1357 29.3824V26.3936Z" fill="#FEDF00"/>
</g>
<g id="Group_8">
<path id="Vector_107" d="M32.4711 25.55H37.7461V30.8H32.4961L32.4711 25.55Z" fill="#FEDF00"/>
<path id="Vector_108" d="M33.2086 25.55H33.9961V30.8H33.2086V25.55ZM34.7086 25.55H35.4961V30.8H34.7211L34.7086 25.55ZM36.2086 25.55H36.9961V30.8H36.2211L36.2086 25.55Z" fill="#D52B1E"/>
</g>
<g id="Group_9">
<path id="Vector_109" d="M26.6711 35.35C26.6961 35.45 26.7211 35.6 26.8086 35.775C26.9086 35.925 26.8711 35.925 27.0836 36.15C27.3151 36.3755 27.6053 36.5314 27.9211 36.6C28.3461 36.725 28.6336 36.725 28.9836 36.7125C29.2586 36.7 29.4711 36.6625 29.6461 36.6375C29.8961 36.6125 30.0711 36.5875 30.3586 36.575C30.4877 36.5688 30.617 36.5688 30.7461 36.575C30.8961 36.575 31.0461 36.6125 31.2086 36.6375C31.5586 36.7125 31.9086 36.85 31.9086 36.85V31.3625H26.6586V35.1125L26.6711 35.3625V35.35Z" fill="#FEDF00"/>
<path id="Vector_110" d="M27.2836 36.3125L27.5336 36.4625L27.8711 36.5875V31.3625H27.2836V36.3125ZM30.2086 36.5625V31.3625H29.6211V36.6375L30.2086 36.575V36.5625ZM31.3711 31.3625H30.7961V36.575C30.99 36.5938 31.1822 36.6272 31.3711 36.675V31.375V31.3625ZM29.0461 31.3625V36.7H28.4586V31.3625H29.0461Z" fill="#D52B1E" stroke="#D52B1E" stroke-width="0.0375"/>
</g>
<g id="Group_10">
<path id="Vector_111" d="M37.718 35.3536C37.6952 35.5013 37.6476 35.6441 37.5772 35.776C37.4812 35.9232 37.5132 35.9232 37.302 36.16C37.0732 36.3857 36.7845 36.5412 36.47 36.608C36.1238 36.6993 35.765 36.7339 35.4076 36.7104C35.1324 36.6976 34.9276 36.6656 34.7484 36.6464C34.5052 36.608 34.3196 36.5888 34.0444 36.5824C33.9123 36.5759 33.7798 36.5759 33.6476 36.5824C33.2484 36.6276 32.8555 36.7177 32.4764 36.8512V31.36H37.7372V35.104L37.718 35.3472V35.3536Z" fill="#FEDF00"/>
<g id="b">
<path id="Vector_112" d="M33.8205 31.808L33.7821 31.8208L33.7309 31.872C33.7053 31.8976 33.6861 31.904 33.6541 31.9232L33.6157 31.9552C33.5965 31.9744 33.6157 31.9936 33.5965 32.0192C33.5901 32.0448 33.5773 32.0576 33.5581 32.0832C33.5325 32.1088 33.5133 32.1152 33.4941 32.1472L33.4173 32.2112L33.3981 32.2176H33.3597C33.3341 32.2304 33.3277 32.256 33.3085 32.2688L33.3277 32.3072L33.3789 32.3968C33.3917 32.416 33.3917 32.4416 33.4109 32.448C33.4429 32.4608 33.4685 32.4608 33.4941 32.4544C33.5453 32.4672 33.5773 32.4672 33.6221 32.4864L33.7181 32.5376C33.7501 32.5568 33.7693 32.5632 33.8013 32.5696H33.9165V32.5888L34.0445 32.6528C34.0413 32.661 34.0392 32.6696 34.0381 32.6784C34.0317 32.6976 34.0253 32.7232 34.0317 32.7296C34.0701 32.8512 34.1085 32.9216 34.1277 32.9344C34.1661 32.9472 34.1789 32.992 34.1981 33.0304L34.1789 33.0496C34.1405 33.088 34.1021 33.1136 34.0701 33.1648C34.0253 33.2416 33.9933 33.2416 34.0509 33.344L34.1469 33.4976C34.1725 33.5424 34.1853 33.5744 34.1981 33.6256C34.2109 33.6704 34.2173 33.7024 34.2173 33.7536L34.2813 33.7728L34.3261 33.7344L34.3645 33.6576V33.5936C34.3517 33.5872 34.3453 33.568 34.3517 33.5488C34.3517 33.5232 34.3837 33.5296 34.3965 33.5104C34.4157 33.4784 34.3709 33.4592 34.3517 33.44C34.3133 33.3952 34.2621 33.3824 34.2493 33.3184C34.2493 33.3056 34.2493 33.2928 34.2749 33.2736L34.4029 33.1584C34.4157 33.1648 34.4413 33.1712 34.4669 33.1648L34.5501 33.1904C34.5885 33.2032 34.6077 33.1904 34.6269 33.1904H34.6525L34.6589 33.2288C34.6653 33.2928 34.6525 33.4208 34.6717 33.4528L34.6909 33.4912L34.7037 33.5296V33.6576L34.6909 33.7664C34.6909 33.792 34.6781 33.8112 34.6589 33.8304C34.6461 33.856 34.6205 33.856 34.5949 33.8752V33.9392L34.6653 33.9712L34.7485 33.9904L34.7933 33.9712L34.7997 33.9328L34.8317 33.9008C34.8573 33.888 34.8829 33.9008 34.8893 33.8944C34.9021 33.8752 34.8893 33.8688 34.8893 33.8432C34.8893 33.8048 34.8765 33.7792 34.8701 33.7408C34.8608 33.6815 34.8587 33.6214 34.8637 33.5616C34.8637 33.5232 34.8637 33.4976 34.8765 33.4656C34.8829 33.4016 34.9021 33.376 34.9149 33.3248C34.9341 33.2608 34.9341 33.2224 34.9405 33.1648C35.1563 33.1973 35.3765 33.1842 35.5869 33.1264C35.6381 33.1712 35.6957 33.2032 35.7597 33.2288V33.2928C35.7597 33.312 35.7597 33.3184 35.7725 33.3376L35.7917 33.3568C35.8109 33.3568 35.8237 33.3568 35.8365 33.344C35.8493 33.3312 35.8493 33.3184 35.8493 33.2992V33.2544H35.9645V33.3248C35.9709 33.344 35.9837 33.3504 35.9965 33.3504C36.0025 33.3532 36.009 33.3547 36.0157 33.3547C36.0223 33.3547 36.0289 33.3532 36.0349 33.3504C36.0541 33.3376 36.0477 33.312 36.0541 33.2864V33.2416L36.1181 33.216C36.1198 33.2352 36.1198 33.2544 36.1181 33.2736L36.0989 33.3312C36.0861 33.3696 36.0669 33.3824 36.0477 33.4208C36.0221 33.4592 36.0157 33.4848 35.9837 33.5168L35.9453 33.5616L35.9069 33.6192L35.8493 33.6832C35.8045 33.7216 35.7725 33.696 35.7213 33.7408L35.7021 33.8048L35.7917 33.8432L35.8749 33.856L35.9005 33.8432C35.9005 33.824 35.9005 33.8048 35.9197 33.792C35.9325 33.7728 35.9453 33.7728 35.9645 33.7664C35.9901 33.7664 36.0157 33.7664 36.0285 33.7536C36.0541 33.7344 36.0541 33.6896 36.0733 33.6576C36.1204 33.5627 36.1856 33.4779 36.2653 33.408L36.3741 33.3184C36.3869 33.2928 36.4061 33.2864 36.4061 33.2544L36.3933 33.216L36.3805 33.152C36.4765 33.1968 36.4445 33.1968 36.4573 33.2416C36.4765 33.28 36.4573 33.3056 36.4637 33.3504C36.4701 33.4016 36.4957 33.4208 36.4957 33.472C36.5021 33.5296 36.4893 33.5616 36.4765 33.6192C36.4701 33.6704 36.4701 33.7024 36.4445 33.7472C36.4293 33.7845 36.4051 33.8175 36.3741 33.8432L36.3357 33.8752L36.3293 33.9392L36.3997 33.9648L36.5021 33.9904L36.5277 33.9712C36.5405 33.9264 36.5277 33.8624 36.5533 33.8624C36.5789 33.856 36.5981 33.8624 36.6045 33.8432V33.7984L36.6493 33.5104L36.6749 33.3888L36.7005 33.28C36.7453 33.152 36.6877 33.1328 36.6365 33.0496C36.6045 33.0048 36.5917 32.9856 36.5917 32.9536V32.768C36.5897 32.7083 36.5897 32.6485 36.5917 32.5888L36.6173 32.576C36.6941 32.5312 36.7261 32.5184 36.7709 32.416C36.7845 32.3859 36.791 32.353 36.7901 32.32V32.256L36.7645 32.192C36.7544 32.173 36.7415 32.1557 36.7261 32.1408C36.6813 32.0768 36.6173 32.0704 36.5533 32.0448C36.4573 32.0128 36.3933 32.0192 36.2973 32.0128C36.1821 32 36.1245 32 36.0157 32.0128C35.8877 32.0128 35.8173 32.0384 35.6893 32.0576L35.3757 32.0832C35.2285 32.0832 35.0941 32.0512 35.0045 32.0576C34.8509 32.0704 34.8445 32.1088 34.6077 32.128C34.5267 32.1346 34.4456 32.1388 34.3645 32.1408L34.2237 32.096C34.2813 32.0768 34.2941 32.064 34.3197 32.032C34.3389 32.0064 34.3325 31.9872 34.3581 31.9616L34.4029 31.8976C34.3859 31.8848 34.3662 31.8761 34.3453 31.872H34.2813C34.2546 31.873 34.2285 31.8795 34.2045 31.8912L34.1533 31.9296L34.0125 31.8528C33.9524 31.8223 33.8874 31.8028 33.8205 31.7952V31.808Z" fill="#D52B1E"/>
<g id="Group_11">
<path id="Vector_113" d="M36.6493 32.608L36.5981 32.6272C36.5405 32.6528 36.4957 32.6528 36.4317 32.6592C36.2653 32.672 36.1565 32.5888 35.9837 32.6016C35.8941 32.608 35.8557 32.6784 35.7597 32.704C35.7239 32.7116 35.6874 32.7159 35.6509 32.7168L35.6829 32.6528C35.6829 32.6528 35.6061 32.672 35.5549 32.672C35.5204 32.6714 35.486 32.6671 35.4525 32.6592L35.5165 32.5952L35.4333 32.5824C35.4098 32.5708 35.3882 32.5557 35.3693 32.5376C35.4058 32.5327 35.4421 32.5263 35.4781 32.5184C35.5741 32.4928 35.6061 32.4416 35.7277 32.4288C35.7981 32.4288 35.9197 32.4288 36.2141 32.48C36.4061 32.512 36.4957 32.4928 36.5661 32.4608C36.6173 32.4416 36.6301 32.3968 36.6365 32.3456C36.6429 32.2944 36.6109 32.256 36.5853 32.2304C36.5789 32.2304 36.5533 32.2112 36.5149 32.2048" stroke="#FEDF00" stroke-width="0.064" stroke-linecap="round"/>
<path id="Vector_114" d="M33.8334 32.0384C33.8014 32.0384 33.7758 32.0384 33.7502 32.0576C33.7182 32.0768 33.7118 32.1024 33.6862 32.128C33.7182 32.1344 33.7374 32.1536 33.763 32.1472C33.7886 32.1472 33.795 32.1344 33.8142 32.1152C33.8334 32.0896 33.8398 32.0704 33.8398 32.0384H33.8334V32.0384Z" fill="#FCD900" stroke="#FEDF00" stroke-width="0.032"/>
<path id="Vector_115" d="M34.2749 32.9088C34.3325 32.9216 34.3133 33.12 34.3965 33.1648M34.5501 32.8832C34.5669 32.9341 34.5883 32.9834 34.6141 33.0304C34.6269 33.0816 34.6141 33.1072 34.6269 33.1584V33.2608L34.5501 32.8832ZM35.0621 32.8128L35.0429 32.896L34.9789 33.12V33.1648L35.0621 32.8128Z" stroke="#FEDF00" stroke-width="0.064" stroke-linecap="round"/>
<path id="Vector_116" d="M36.0925 33.2672L36.1181 33.248C36.1828 33.2215 36.2416 33.1823 36.2909 33.1328" stroke="#FEDF00" stroke-width="0.064"/>
<path id="Vector_117" d="M35.8301 32.8704H35.8813C35.9773 32.8512 35.9901 32.9088 36.0541 32.9472C36.1757 33.0112 36.1885 33.0944 36.3293 33.1648L36.3549 33.1712L36.4061 33.1968M35.5997 33.152C35.8237 33.0944 35.9773 32.9856 36.0861 32.9664L35.5997 33.152Z" stroke="#FEDF00" stroke-width="0.064" stroke-linecap="round"/>
<path id="Vector_118" d="M33.3789 32.288H33.4237L33.4749 32.2752C33.4941 32.2752 33.5069 32.2752 33.5197 32.288C33.5325 32.288 33.5325 32.2944 33.5389 32.3072C33.5389 32.32 33.5517 32.3264 33.5453 32.3392C33.5453 32.352 33.5261 32.3648 33.5069 32.3648C33.4941 32.3648 33.4813 32.3648 33.4749 32.3456C33.4731 32.3416 33.4722 32.3372 33.4722 32.3328C33.4722 32.3284 33.4731 32.324 33.4749 32.32C33.466 32.3245 33.4561 32.3269 33.4461 32.3269C33.4361 32.3269 33.4262 32.3245 33.4173 32.32C33.4091 32.3175 33.4014 32.3134 33.3949 32.3079C33.3883 32.3024 33.3828 32.2956 33.3789 32.288V32.288Z" fill="#FCD900" stroke="#FEDF00" stroke-width="0.032"/>
</g>
<path id="Vector_119" d="M33.8525 32.9088L33.7245 32.8512C33.7501 32.8384 33.7693 32.8384 33.7885 32.8192C33.8077 32.7936 33.8077 32.768 33.8205 32.736C33.8333 32.704 33.8333 32.672 33.8653 32.6464C33.8845 32.6336 33.9165 32.6336 33.9357 32.64C33.9613 32.64 33.9869 32.6656 33.9933 32.6848C33.9933 32.7232 33.9805 32.7488 33.9741 32.7808C33.9741 32.8192 33.9549 32.8384 33.9613 32.8704C33.9613 32.896 33.9741 32.9088 33.9869 32.9344L33.8589 32.9088H33.8525ZM33.7885 32.9728C33.7874 32.9653 33.7885 32.9577 33.7916 32.9508C33.7948 32.944 33.8 32.9382 33.8064 32.9343C33.8128 32.9303 33.8203 32.9284 33.8278 32.9286C33.8354 32.9289 33.8427 32.9314 33.8488 32.9358C33.8549 32.9401 33.8597 32.9462 33.8624 32.9533C33.865 32.9603 33.8656 32.968 33.864 32.9754C33.8623 32.9828 33.8585 32.9895 33.8531 32.9947C33.8476 32.9999 33.8407 33.0034 33.8333 33.0048C33.8278 33.0057 33.8221 33.0054 33.8167 33.0039C33.8112 33.0024 33.8062 32.9997 33.8019 32.9961C33.7977 32.9924 33.7942 32.9879 33.7919 32.9827C33.7896 32.9776 33.7884 32.972 33.7885 32.9664V32.9728ZM33.6797 31.9104H33.6669C33.6413 31.8848 33.6413 31.8592 33.6285 31.8336C33.6182 31.8091 33.6117 31.7832 33.6093 31.7568V31.6288C33.6093 31.6096 33.6093 31.5904 33.5965 31.5712C33.5965 31.5584 33.5709 31.552 33.5773 31.5456C33.5773 31.5392 33.5965 31.5456 33.6029 31.5456C33.6285 31.5456 33.6413 31.552 33.6669 31.5712C33.6861 31.5904 33.6989 31.6096 33.7053 31.6352L33.7309 31.7312L33.7501 31.7824L33.7821 31.8208L33.7373 31.872L33.6797 31.9104V31.9104ZM33.9101 32.5888L34.0509 32.6528C34.1473 32.5948 34.225 32.5104 34.2749 32.4096C34.3325 32.2944 34.3389 32.2368 34.3645 32.128L34.2493 32.096H34.2237C34.1917 32.2112 34.1789 32.2688 34.1213 32.3648C34.0701 32.448 34.0125 32.512 33.9549 32.5568L33.9101 32.5888ZM34.2301 33.7536L34.2813 33.6704L34.3709 33.6H34.3965C34.3958 33.6611 34.3849 33.7216 34.3645 33.7792L34.3389 33.8432L34.3069 33.8752C34.2749 33.824 34.2237 33.792 34.2237 33.7472L34.2301 33.7536ZM36.3421 33.8688L36.4317 33.9072L36.5277 33.9648V33.9968L36.4317 34.0096C36.404 34.0117 36.3762 34.0117 36.3485 34.0096H36.2845L36.2461 33.984C36.2781 33.9392 36.2973 33.8816 36.3357 33.8688H36.3421ZM35.7149 33.7408L35.8045 33.7728L35.9005 33.8368C35.9005 33.8432 35.9069 33.856 35.9005 33.8624C35.8442 33.8775 35.786 33.884 35.7277 33.8816L35.6637 33.8752L35.6189 33.856C35.6573 33.8112 35.6765 33.7472 35.7149 33.7408V33.7408ZM34.6013 33.8752L34.6973 33.9072L34.7933 33.9712V34.0032C34.7346 34.0168 34.6742 34.0211 34.6141 34.016H34.5501L34.5117 33.9904C34.5437 33.9456 34.5629 33.888 34.6013 33.8752ZM34.0253 31.968C33.9869 31.9488 33.9613 31.904 33.9869 31.8656C33.9933 31.8528 34.0125 31.8528 34.0253 31.84C34.0381 31.8208 34.0317 31.808 34.0253 31.7888L34.0189 31.7248L34.0061 31.6608C34.0061 31.6224 34.0061 31.5968 34.0317 31.5584C34.0445 31.5392 34.0765 31.52 34.0829 31.52C34.0957 31.5264 34.0829 31.552 34.0829 31.5712C34.0829 31.6032 34.0893 31.616 34.1021 31.648L34.1469 31.7312C34.1597 31.7696 34.1725 31.7824 34.1725 31.8208C34.1725 31.8528 34.1725 31.8656 34.1597 31.8976C34.1515 31.9176 34.1383 31.9353 34.1213 31.9488C34.1064 31.9611 34.0889 31.9698 34.0701 31.9744C34.0576 31.9779 34.0443 31.9779 34.0317 31.9744L34.0253 31.968Z" fill="#0065BD"/>
</g>
<g id="Group_12">
<path id="Vector_120" d="M33.8205 31.808L33.7821 31.8208L33.7309 31.872C33.7053 31.8976 33.6861 31.904 33.6541 31.9232L33.6157 31.9552C33.5965 31.9744 33.6157 31.9936 33.5965 32.0192C33.5901 32.0448 33.5773 32.0576 33.5581 32.0832C33.5325 32.1088 33.5133 32.1152 33.4941 32.1472L33.4173 32.2112L33.3981 32.2176H33.3597C33.3341 32.2304 33.3277 32.256 33.3085 32.2688L33.3277 32.3072L33.3789 32.3968C33.3917 32.416 33.3917 32.4416 33.4109 32.448C33.4429 32.4608 33.4685 32.4608 33.4941 32.4544C33.5453 32.4672 33.5773 32.4672 33.6221 32.4864L33.7181 32.5376C33.7501 32.5568 33.7693 32.5632 33.8013 32.5696H33.9165V32.5888L34.0445 32.6528C34.0413 32.661 34.0392 32.6696 34.0381 32.6784C34.0317 32.6976 34.0253 32.7232 34.0317 32.7296C34.0701 32.8512 34.1085 32.9216 34.1277 32.9344C34.1661 32.9472 34.1789 32.992 34.1981 33.0304L34.1789 33.0496C34.1405 33.088 34.1021 33.1136 34.0701 33.1648C34.0253 33.2416 33.9933 33.2416 34.0509 33.344L34.1469 33.4976C34.1725 33.5424 34.1853 33.5744 34.1981 33.6256C34.2109 33.6704 34.2173 33.7024 34.2173 33.7536L34.2813 33.7728L34.3261 33.7344L34.3645 33.6576V33.5936C34.3517 33.5872 34.3453 33.568 34.3517 33.5488C34.3517 33.5232 34.3837 33.5296 34.3965 33.5104C34.4157 33.4784 34.3709 33.4592 34.3517 33.44C34.3133 33.3952 34.2621 33.3824 34.2493 33.3184C34.2493 33.3056 34.2493 33.2928 34.2749 33.2736L34.4029 33.1584C34.4157 33.1648 34.4413 33.1712 34.4669 33.1648L34.5501 33.1904C34.5885 33.2032 34.6077 33.1904 34.6269 33.1904H34.6525L34.6589 33.2288C34.6653 33.2928 34.6525 33.4208 34.6717 33.4528L34.6909 33.4912L34.7037 33.5296V33.6576L34.6909 33.7664C34.6909 33.792 34.6781 33.8112 34.6589 33.8304C34.6461 33.856 34.6205 33.856 34.5949 33.8752V33.9392L34.6653 33.9712L34.7485 33.9904L34.7933 33.9712L34.7997 33.9328L34.8317 33.9008C34.8573 33.888 34.8829 33.9008 34.8893 33.8944C34.9021 33.8752 34.8893 33.8688 34.8893 33.8432C34.8893 33.8048 34.8765 33.7792 34.8701 33.7408C34.8608 33.6815 34.8587 33.6214 34.8637 33.5616C34.8637 33.5232 34.8637 33.4976 34.8765 33.4656C34.8829 33.4016 34.9021 33.376 34.9149 33.3248C34.9341 33.2608 34.9341 33.2224 34.9405 33.1648C35.1563 33.1973 35.3765 33.1842 35.5869 33.1264C35.6381 33.1712 35.6957 33.2032 35.7597 33.2288V33.2928C35.7597 33.312 35.7597 33.3184 35.7725 33.3376L35.7917 33.3568C35.8109 33.3568 35.8237 33.3568 35.8365 33.344C35.8493 33.3312 35.8493 33.3184 35.8493 33.2992V33.2544H35.9645V33.3248C35.9709 33.344 35.9837 33.3504 35.9965 33.3504C36.0025 33.3532 36.009 33.3547 36.0157 33.3547C36.0223 33.3547 36.0289 33.3532 36.0349 33.3504C36.0541 33.3376 36.0477 33.312 36.0541 33.2864V33.2416L36.1181 33.216C36.1198 33.2352 36.1198 33.2544 36.1181 33.2736L36.0989 33.3312C36.0861 33.3696 36.0669 33.3824 36.0477 33.4208C36.0221 33.4592 36.0157 33.4848 35.9837 33.5168L35.9453 33.5616L35.9069 33.6192L35.8493 33.6832C35.8045 33.7216 35.7725 33.696 35.7213 33.7408L35.7021 33.8048L35.7917 33.8432L35.8749 33.856L35.9005 33.8432C35.9005 33.824 35.9005 33.8048 35.9197 33.792C35.9325 33.7728 35.9453 33.7728 35.9645 33.7664C35.9901 33.7664 36.0157 33.7664 36.0285 33.7536C36.0541 33.7344 36.0541 33.6896 36.0733 33.6576C36.1204 33.5627 36.1856 33.4779 36.2653 33.408L36.3741 33.3184C36.3869 33.2928 36.4061 33.2864 36.4061 33.2544L36.3933 33.216L36.3805 33.152C36.4765 33.1968 36.4445 33.1968 36.4573 33.2416C36.4765 33.28 36.4573 33.3056 36.4637 33.3504C36.4701 33.4016 36.4957 33.4208 36.4957 33.472C36.5021 33.5296 36.4893 33.5616 36.4765 33.6192C36.4701 33.6704 36.4701 33.7024 36.4445 33.7472C36.4293 33.7845 36.4051 33.8175 36.3741 33.8432L36.3357 33.8752L36.3293 33.9392L36.3997 33.9648L36.5021 33.9904L36.5277 33.9712C36.5405 33.9264 36.5277 33.8624 36.5533 33.8624C36.5789 33.856 36.5981 33.8624 36.6045 33.8432V33.7984L36.6493 33.5104L36.6749 33.3888L36.7005 33.28C36.7453 33.152 36.6877 33.1328 36.6365 33.0496C36.6045 33.0048 36.5917 32.9856 36.5917 32.9536V32.768C36.5897 32.7083 36.5897 32.6485 36.5917 32.5888L36.6173 32.576C36.6941 32.5312 36.7261 32.5184 36.7709 32.416C36.7845 32.3859 36.791 32.353 36.7901 32.32V32.256L36.7645 32.192C36.7544 32.173 36.7415 32.1557 36.7261 32.1408C36.6813 32.0768 36.6173 32.0704 36.5533 32.0448C36.4573 32.0128 36.3933 32.0192 36.2973 32.0128C36.1821 32 36.1245 32 36.0157 32.0128C35.8877 32.0128 35.8173 32.0384 35.6893 32.0576L35.3757 32.0832C35.2285 32.0832 35.0941 32.0512 35.0045 32.0576C34.8509 32.0704 34.8445 32.1088 34.6077 32.128C34.5267 32.1346 34.4456 32.1388 34.3645 32.1408L34.2237 32.096C34.2813 32.0768 34.2941 32.064 34.3197 32.032C34.3389 32.0064 34.3325 31.9872 34.3581 31.9616L34.4029 31.8976C34.3859 31.8848 34.3662 31.8761 34.3453 31.872H34.2813C34.2546 31.873 34.2285 31.8795 34.2045 31.8912L34.1533 31.9296L34.0125 31.8528C33.9524 31.8223 33.8874 31.8028 33.8205 31.7952V31.808Z" fill="#D52B1E"/>
<g id="Group_13">
<path id="Vector_121" d="M36.6493 32.608L36.5981 32.6272C36.5405 32.6528 36.4957 32.6528 36.4317 32.6592C36.2653 32.672 36.1565 32.5888 35.9837 32.6016C35.8941 32.608 35.8557 32.6784 35.7597 32.704C35.7239 32.7116 35.6874 32.7159 35.6509 32.7168L35.6829 32.6528C35.6829 32.6528 35.6061 32.672 35.5549 32.672C35.5204 32.6714 35.486 32.6671 35.4525 32.6592L35.5165 32.5952L35.4333 32.5824C35.4098 32.5708 35.3882 32.5557 35.3693 32.5376C35.4058 32.5327 35.4421 32.5263 35.4781 32.5184C35.5741 32.4928 35.6061 32.4416 35.7277 32.4288C35.7981 32.4288 35.9197 32.4288 36.2141 32.48C36.4061 32.512 36.4957 32.4928 36.5661 32.4608C36.6173 32.4416 36.6301 32.3968 36.6365 32.3456C36.6429 32.2944 36.6109 32.256 36.5853 32.2304C36.5789 32.2304 36.5533 32.2112 36.5149 32.2048" stroke="#FEDF00" stroke-width="0.064" stroke-linecap="round"/>
<path id="Vector_122" d="M33.8334 32.0384C33.8014 32.0384 33.7758 32.0384 33.7502 32.0576C33.7182 32.0768 33.7118 32.1024 33.6862 32.128C33.7182 32.1344 33.7374 32.1536 33.763 32.1472C33.7886 32.1472 33.795 32.1344 33.8142 32.1152C33.8334 32.0896 33.8398 32.0704 33.8398 32.0384H33.8334V32.0384Z" fill="#FCD900" stroke="#FEDF00" stroke-width="0.032"/>
<path id="Vector_123" d="M34.2749 32.9088C34.3325 32.9216 34.3133 33.12 34.3965 33.1648M34.5501 32.8832C34.5669 32.9341 34.5883 32.9834 34.6141 33.0304C34.6269 33.0816 34.6141 33.1072 34.6269 33.1584V33.2608L34.5501 32.8832ZM35.0621 32.8128L35.0429 32.896L34.9789 33.12V33.1648L35.0621 32.8128Z" stroke="#FEDF00" stroke-width="0.064" stroke-linecap="round"/>
<path id="Vector_124" d="M36.0925 33.2672L36.1181 33.248C36.1828 33.2215 36.2416 33.1823 36.2909 33.1328" stroke="#FEDF00" stroke-width="0.064"/>
<path id="Vector_125" d="M35.8301 32.8704H35.8813C35.9773 32.8512 35.9901 32.9088 36.0541 32.9472C36.1757 33.0112 36.1885 33.0944 36.3293 33.1648L36.3549 33.1712L36.4061 33.1968M35.5997 33.152C35.8237 33.0944 35.9773 32.9856 36.0861 32.9664L35.5997 33.152Z" stroke="#FEDF00" stroke-width="0.064" stroke-linecap="round"/>
<path id="Vector_126" d="M33.3789 32.288H33.4237L33.4749 32.2752C33.4941 32.2752 33.5069 32.2752 33.5197 32.288C33.5325 32.288 33.5325 32.2944 33.5389 32.3072C33.5389 32.32 33.5517 32.3264 33.5453 32.3392C33.5453 32.352 33.5261 32.3648 33.5069 32.3648C33.4941 32.3648 33.4813 32.3648 33.4749 32.3456C33.4731 32.3416 33.4722 32.3372 33.4722 32.3328C33.4722 32.3284 33.4731 32.324 33.4749 32.32C33.466 32.3245 33.4561 32.3269 33.4461 32.3269C33.4361 32.3269 33.4262 32.3245 33.4173 32.32C33.4091 32.3175 33.4014 32.3134 33.3949 32.3079C33.3883 32.3024 33.3828 32.2956 33.3789 32.288V32.288Z" fill="#FCD900" stroke="#FEDF00" stroke-width="0.032"/>
</g>
<path id="Vector_127" d="M33.8525 32.9088L33.7245 32.8512C33.7501 32.8384 33.7693 32.8384 33.7885 32.8192C33.8077 32.7936 33.8077 32.768 33.8205 32.736C33.8333 32.704 33.8333 32.672 33.8653 32.6464C33.8845 32.6336 33.9165 32.6336 33.9357 32.64C33.9613 32.64 33.9869 32.6656 33.9933 32.6848C33.9933 32.7232 33.9805 32.7488 33.9741 32.7808C33.9741 32.8192 33.9549 32.8384 33.9613 32.8704C33.9613 32.896 33.9741 32.9088 33.9869 32.9344L33.8589 32.9088H33.8525ZM33.7885 32.9728C33.7874 32.9653 33.7885 32.9577 33.7916 32.9508C33.7948 32.944 33.8 32.9382 33.8064 32.9343C33.8128 32.9303 33.8203 32.9284 33.8278 32.9286C33.8354 32.9289 33.8427 32.9314 33.8488 32.9358C33.8549 32.9401 33.8597 32.9462 33.8624 32.9533C33.865 32.9603 33.8656 32.968 33.864 32.9754C33.8623 32.9828 33.8585 32.9895 33.8531 32.9947C33.8476 32.9999 33.8407 33.0034 33.8333 33.0048C33.8278 33.0057 33.8221 33.0054 33.8167 33.0039C33.8112 33.0024 33.8062 32.9997 33.8019 32.9961C33.7977 32.9924 33.7942 32.9879 33.7919 32.9827C33.7896 32.9776 33.7884 32.972 33.7885 32.9664V32.9728ZM33.6797 31.9104H33.6669C33.6413 31.8848 33.6413 31.8592 33.6285 31.8336C33.6182 31.8091 33.6117 31.7832 33.6093 31.7568V31.6288C33.6093 31.6096 33.6093 31.5904 33.5965 31.5712C33.5965 31.5584 33.5709 31.552 33.5773 31.5456C33.5773 31.5392 33.5965 31.5456 33.6029 31.5456C33.6285 31.5456 33.6413 31.552 33.6669 31.5712C33.6861 31.5904 33.6989 31.6096 33.7053 31.6352L33.7309 31.7312L33.7501 31.7824L33.7821 31.8208L33.7373 31.872L33.6797 31.9104V31.9104ZM33.9101 32.5888L34.0509 32.6528C34.1473 32.5948 34.225 32.5104 34.2749 32.4096C34.3325 32.2944 34.3389 32.2368 34.3645 32.128L34.2493 32.096H34.2237C34.1917 32.2112 34.1789 32.2688 34.1213 32.3648C34.0701 32.448 34.0125 32.512 33.9549 32.5568L33.9101 32.5888ZM34.2301 33.7536L34.2813 33.6704L34.3709 33.6H34.3965C34.3958 33.6611 34.3849 33.7216 34.3645 33.7792L34.3389 33.8432L34.3069 33.8752C34.2749 33.824 34.2237 33.792 34.2237 33.7472L34.2301 33.7536ZM36.3421 33.8688L36.4317 33.9072L36.5277 33.9648V33.9968L36.4317 34.0096C36.404 34.0117 36.3762 34.0117 36.3485 34.0096H36.2845L36.2461 33.984C36.2781 33.9392 36.2973 33.8816 36.3357 33.8688H36.3421ZM35.7149 33.7408L35.8045 33.7728L35.9005 33.8368C35.9005 33.8432 35.9069 33.856 35.9005 33.8624C35.8442 33.8775 35.786 33.884 35.7277 33.8816L35.6637 33.8752L35.6189 33.856C35.6573 33.8112 35.6765 33.7472 35.7149 33.7408V33.7408ZM34.6013 33.8752L34.6973 33.9072L34.7933 33.9712V34.0032C34.7346 34.0168 34.6742 34.0211 34.6141 34.016H34.5501L34.5117 33.9904C34.5437 33.9456 34.5629 33.888 34.6013 33.8752ZM34.0253 31.968C33.9869 31.9488 33.9613 31.904 33.9869 31.8656C33.9933 31.8528 34.0125 31.8528 34.0253 31.84C34.0381 31.8208 34.0317 31.808 34.0253 31.7888L34.0189 31.7248L34.0061 31.6608C34.0061 31.6224 34.0061 31.5968 34.0317 31.5584C34.0445 31.5392 34.0765 31.52 34.0829 31.52C34.0957 31.5264 34.0829 31.552 34.0829 31.5712C34.0829 31.6032 34.0893 31.616 34.1021 31.648L34.1469 31.7312C34.1597 31.7696 34.1725 31.7824 34.1725 31.8208C34.1725 31.8528 34.1725 31.8656 34.1597 31.8976C34.1515 31.9176 34.1383 31.9353 34.1213 31.9488C34.1064 31.9611 34.0889 31.9698 34.0701 31.9744C34.0576 31.9779 34.0443 31.9779 34.0317 31.9744L34.0253 31.968Z" fill="#0065BD"/>
</g>
</g>
<path id="Vector_128" d="M26.6586 25.55H31.9086V30.8H26.6586V25.55ZM32.4711 25.55H37.7461V30.8H32.4961L32.4711 25.55ZM26.6711 35.35C26.6961 35.45 26.7211 35.6 26.8086 35.775C26.9086 35.925 26.8711 35.925 27.0836 36.15C27.3151 36.3755 27.6053 36.5314 27.9211 36.6C28.3461 36.725 28.6336 36.725 28.9836 36.7125C29.2586 36.7 29.4711 36.6625 29.6461 36.6375C29.8961 36.6125 30.0711 36.5875 30.3586 36.575C30.4877 36.5688 30.617 36.5688 30.7461 36.575C30.8961 36.575 31.0461 36.6125 31.2086 36.6375C31.5586 36.7125 31.9086 36.85 31.9086 36.85V31.3625H26.6586V35.1125L26.6711 35.3625V35.35ZM37.7211 35.35C37.7086 35.45 37.6711 35.6 37.5836 35.775C37.4836 35.925 37.5211 35.925 37.3086 36.15C37.0771 36.3755 36.7869 36.5314 36.4711 36.6C36.1255 36.6956 35.7665 36.7336 35.4086 36.7125C35.1336 36.7 34.9211 36.6625 34.7461 36.6375C34.5139 36.6049 34.2803 36.584 34.0461 36.575C33.9128 36.5684 33.7793 36.5684 33.6461 36.575C33.4961 36.575 33.3461 36.6125 33.1836 36.6375C32.8336 36.7125 32.4711 36.85 32.4711 36.85V31.3625H37.7461V35.1125L37.7336 35.3625L37.7211 35.35Z" stroke="#703D29" stroke-width="0.05"/>
</g>
</g>
<defs>
<clipPath id="clip0_2909_185458">
<path d="M0.246094 32C0.246094 14.3269 14.573 0 32.2461 0V0C49.9192 0 64.2461 14.3269 64.2461 32V32C64.2461 49.6731 49.9192 64 32.2461 64V64C14.573 64 0.246094 49.6731 0.246094 32V32Z" fill="white"/>
</clipPath>
</defs>
</svg>
