<svg width="65" height="64" viewBox="0 0 65 64" fill="none" xmlns="http://www.w3.org/2000/svg">
<g id="Rounded=Afghanistan (AF)">
<g clip-path="url(#clip0_2909_185492)">
<g id="Group">
<path id="Vector" fill-rule="evenodd" clip-rule="evenodd" d="M0.246094 0H64.2461V64H0.246094V0Z" fill="black"/>
<path id="Vector_2" fill-rule="evenodd" clip-rule="evenodd" d="M42.9086 0H64.2461V64H42.9086V0Z" fill="#009900"/>
<path id="Vector_3" fill-rule="evenodd" clip-rule="evenodd" d="M21.5836 0H42.9086V64H21.5836V0Z" fill="#BF0000"/>
</g>
<g id="Group_2">
<path id="Vector_4" fill-rule="evenodd" clip-rule="evenodd" d="M34.3126 34.7314H35.1904C35.1904 35.0699 35.4019 35.4295 35.6663 35.6304H33.9741C34.2385 35.3978 34.3126 35.1016 34.3126 34.7314Z" fill="#F5F5F5" stroke="#BD6B00" stroke-width="0.0528819"/>
<path id="Vector_5" fill-rule="evenodd" clip-rule="evenodd" d="M28.7283 29.7288L29.2148 30.2576L35.2433 30.2788L35.7298 29.75L34.1857 29.7182L33.4453 29.1894H31.0128L30.3147 29.7288H28.7283V29.7288Z" fill="#F5F5F5"/>
<path id="Vector_6" fill-rule="evenodd" clip-rule="evenodd" d="M31.1925 29.1154H33.2761C33.5511 28.9673 33.6463 28.4914 33.6463 28.227C33.6463 27.4443 33.0857 27.0636 32.5357 27.0424C32.4511 27.0424 32.3559 26.979 32.3348 26.9049C32.2819 26.7357 32.2925 26.6194 32.229 26.6299C32.1867 26.6299 32.1973 26.7357 32.155 26.8838C32.1233 26.9684 32.0387 27.0424 31.9435 27.053C31.2666 27.0847 30.8224 27.5818 30.8329 28.227C30.8435 28.65 30.8964 28.9039 31.1925 29.1154Z" fill="#F5F5F5" stroke="#BD6B00" stroke-width="0.0528819"/>
<path id="Vector_7" fill-rule="evenodd" clip-rule="evenodd" d="M27.7764 36.5294H36.6923L35.8991 35.8843H28.5591L27.7659 36.5294H27.7764Z" fill="#F5F5F5"/>
<path id="Vector_8" fill-rule="evenodd" clip-rule="evenodd" d="M31.8694 34.0863L32.0281 34.5728H32.3982L32.1021 34.0863H31.8694ZM31.6579 34.5728L31.7637 35.0593H32.1867L32.0281 34.5728H31.6579ZM32.3982 34.5728L32.6944 35.0593H33.3184L32.8319 34.5728H32.3982V34.5728ZM28.7494 35.6728C29.0773 35.366 29.2888 35.1122 29.2888 34.742H30.0926C30.0926 34.9536 30.1666 35.0699 30.283 35.0593H31.0973V34.5834H30.5051V31.971C30.4839 31.0403 31.6262 30.5115 32.0915 30.5115H29.3099V30.4269H35.1587V30.5115H32.3559C33.1915 30.5115 33.9953 31.3047 34.0058 31.971V32.7114H33.9001L33.8895 31.9816C33.8895 31.2518 32.9694 30.5749 32.229 30.5961C31.5944 30.6067 30.6003 31.2201 30.6108 31.971V32.2037L32.1233 32.2143L32.1127 32.4787L32.3454 32.6268L32.8213 32.7748V33.1767L33.1597 33.2719V33.6632L33.5616 33.843V34.245L33.826 34.4036L33.8155 34.8161L34.1645 35.0593H33.3395L33.8578 35.641H33.0857L32.705 35.0593H32.2079L32.43 35.6305H31.9012L31.7637 35.0593H31.1079V35.6728H28.76H28.7494ZM31.0973 34.0863V34.5728H31.6579L31.5521 34.0863H31.0868H31.0973Z" fill="#F5F5F5" stroke="#BD6B00" stroke-width="0.0528819"/>
<path id="Vector_9" fill-rule="evenodd" clip-rule="evenodd" d="M31.1292 33.2402H31.4782V34.044H31.1292V33.2402Z" stroke="#BD6B00" stroke-width="0.0528819"/>
<path id="Vector_10" fill-rule="evenodd" clip-rule="evenodd" d="M30.6321 34.0969H30.9705V33.5046C30.9705 33.2508 31.2032 32.9864 31.309 32.9758C31.4359 32.9758 31.6157 33.219 31.6263 33.4835V34.0969H31.9859V32.5739H30.6321V34.0969V34.0969ZM33.3396 34.4459H33.7627V34.7843H33.3396V34.4459ZM33.0858 33.8854H33.5089V34.2132H33.0858V33.8854ZM32.6733 33.3142H33.0964V33.6421H32.6733V33.3142ZM32.3243 32.8383H32.7474V33.1662H32.3243V32.8383Z" stroke="#BD6B00" stroke-width="0.0528819"/>
<path id="Vector_11" fill-rule="evenodd" clip-rule="evenodd" d="M32.0387 34.0969L32.4829 34.118L33.255 34.7949V34.393L32.9906 34.2026V33.8853L32.6098 33.6738V33.3248L32.2396 33.1979V32.7431L32.0599 32.5844L32.0493 34.1074L32.0387 34.0969Z" stroke="#BD6B00" stroke-width="0.0528819"/>
<path id="Vector_12" fill-rule="evenodd" clip-rule="evenodd" d="M33.879 33.0921H33.9848V33.843H33.879V33.0921Z" fill="#F5F5F5" stroke="#BD6B00" stroke-width="0.0528819"/>
<g id="a">
<path id="Vector_13" fill-rule="evenodd" clip-rule="evenodd" d="M27.7342 30.5749C27.6073 30.3634 27.4486 30.8711 26.9092 31.2413C26.666 31.4105 26.4862 31.8653 26.4862 32.1614C26.4862 32.3729 26.5073 32.5739 26.4862 32.7748C26.4756 32.8912 26.3381 33.1767 26.4333 33.2508C26.666 33.42 26.9727 33.8219 27.1102 33.9594C27.2371 34.0651 27.3429 33.3988 27.4275 33.1133C27.5332 32.796 27.4909 32.4047 27.7659 32.1191C27.9563 31.9076 28.4428 31.7172 28.4005 31.6326L27.7342 30.5749Z" fill="#F5F5F5" stroke="#BD6B00" stroke-width="0.0528819"/>
<path id="Vector_14" fill-rule="evenodd" clip-rule="evenodd" d="M27.7024 32.2037C27.6604 32.1039 27.6033 32.0112 27.5332 31.9287C27.4657 31.8451 27.3785 31.7797 27.2793 31.7384C27.1819 31.7095 27.0942 31.6546 27.0255 31.5797C26.985 31.5343 26.956 31.4799 26.9409 31.4211C26.9288 31.3511 26.9288 31.2795 26.9409 31.2095L26.9092 31.2413C26.6659 31.4105 26.4861 31.8653 26.4861 32.1614C26.4828 32.2425 26.4828 32.3236 26.4861 32.4047C26.5073 32.4575 26.5178 32.5104 26.5496 32.5422L26.6659 32.6268L26.9515 32.7008C27.0584 32.7489 27.1525 32.8213 27.2264 32.9123C27.3034 32.9939 27.3676 33.0866 27.4168 33.1873L27.438 33.1027C27.5226 32.8171 27.512 32.4787 27.713 32.2037H27.7024Z" fill="#BF0000" stroke="#BD6B00" stroke-width="0.0528819"/>
<path id="Vector_15" d="M26.465 32.3623C26.5496 32.6796 26.7611 32.6373 26.9515 32.7008C27.1419 32.7748 27.3428 33.0181 27.4274 33.2085M26.9409 31.1989C26.888 31.548 27.089 31.6749 27.2793 31.7383C27.4697 31.8124 27.6284 32.0133 27.7024 32.2037L26.9409 31.1989Z" stroke="#BD6B00" stroke-width="0.0528819"/>
<path id="Vector_16" fill-rule="evenodd" clip-rule="evenodd" d="M27.5543 30.3634L27.6601 30.3L29.5321 33.4623L29.4263 33.5258L27.5543 30.3528V30.3634Z" fill="#F5F5F5" stroke="#BD6B00" stroke-width="0.0528819"/>
<path id="Vector_17" fill-rule="evenodd" clip-rule="evenodd" d="M27.7553 30.2365C27.7553 30.2926 27.733 30.3464 27.6934 30.3861C27.6537 30.4257 27.5999 30.448 27.5438 30.448C27.4877 30.448 27.4339 30.4257 27.3942 30.3861C27.3546 30.3464 27.3323 30.2926 27.3323 30.2365C27.3323 30.1804 27.3546 30.1266 27.3942 30.0869C27.4339 30.0473 27.4877 30.025 27.5438 30.025C27.5999 30.025 27.6537 30.0473 27.6934 30.0869C27.733 30.1266 27.7553 30.1804 27.7553 30.2365ZM29.3629 27.6982H30.1244V27.8674H29.3629V27.6982ZM29.3629 28.026H30.1244V29.4856H29.3629V28.026ZM29.3206 27.4972H30.1667C30.1879 27.2117 29.9023 26.9049 29.7437 26.9049C29.5745 26.9155 29.3101 27.2222 29.3206 27.4972Z" fill="#F5F5F5" stroke="#BD6B00" stroke-width="0.0528819"/>
<path id="Vector_18" fill-rule="evenodd" clip-rule="evenodd" d="M31.4676 27.328C31.309 27.3915 31.1821 27.5713 31.108 27.7828C31.034 27.9943 31.0023 28.2376 31.0446 28.4279C31.0446 28.502 31.0763 28.5443 31.0975 28.5866C31.1186 28.6183 31.1398 28.6395 31.1609 28.6395C31.1927 28.6395 31.2244 28.6395 31.235 28.6077L31.2561 28.5231C31.2455 28.3116 31.2455 28.1212 31.2878 27.952C31.3349 27.7641 31.4474 27.5991 31.6051 27.4866C31.6369 27.4655 31.6474 27.4338 31.658 27.4126C31.6576 27.3847 31.6462 27.3581 31.6263 27.3386C31.584 27.3068 31.5205 27.2963 31.4676 27.328ZM31.4888 27.3703C31.5311 27.3491 31.5734 27.3703 31.5946 27.3809L31.6051 27.402C31.6051 27.4126 31.6051 27.4232 31.5734 27.4443C31.4109 27.5635 31.295 27.7355 31.2455 27.9308C31.2016 28.1251 31.1909 28.3253 31.2138 28.5231C31.2138 28.546 31.2064 28.5683 31.1927 28.5866C31.1927 28.5866 31.1927 28.5972 31.1715 28.5866C31.1715 28.5866 31.1503 28.5866 31.1292 28.5549C31.1083 28.5151 31.094 28.4723 31.0869 28.4279C31.0552 28.2376 31.0869 28.0049 31.1609 27.7934C31.235 27.603 31.3513 27.4338 31.4782 27.3703H31.4888Z" fill="#BD6B00"/>
<path id="Vector_19" fill-rule="evenodd" clip-rule="evenodd" d="M31.7426 27.5289C31.5839 27.603 31.4782 27.7722 31.4253 27.9732C31.3691 28.1763 31.3583 28.3893 31.3936 28.5972C31.4147 28.7347 31.4993 28.8087 31.5628 28.8087C31.5945 28.8193 31.6263 28.8087 31.6474 28.777C31.6686 28.7452 31.6791 28.7135 31.6686 28.6712C31.6263 28.502 31.6157 28.3116 31.6368 28.1318C31.6686 27.952 31.7426 27.7934 31.8695 27.6982C31.9012 27.6664 31.9224 27.6453 31.9224 27.6136C31.9234 27.6021 31.922 27.5906 31.9184 27.5797C31.9147 27.5687 31.9089 27.5587 31.9012 27.5501C31.8589 27.5184 31.7955 27.5078 31.7426 27.5289ZM31.7637 27.5818C31.8061 27.5607 31.8484 27.5713 31.8695 27.5818L31.8801 27.6136L31.8484 27.6559C31.7774 27.7128 31.7184 27.7832 31.6748 27.8631C31.6312 27.943 31.6039 28.0307 31.5945 28.1212C31.5628 28.3116 31.5839 28.5126 31.6157 28.6712C31.6263 28.7135 31.6157 28.7347 31.6157 28.7558L31.5628 28.7664C31.5311 28.7664 31.457 28.7135 31.4359 28.5866C31.4041 28.4068 31.4147 28.1741 31.4676 27.9837C31.5205 27.7934 31.6263 27.6347 31.7637 27.5818V27.5818Z" fill="#BD6B00"/>
<path id="Vector_20" fill-rule="evenodd" clip-rule="evenodd" d="M29.3206 30.6701H30.1667V31.8335H29.3206V30.6701ZM29.3735 32.5104H30.1879V32.7643H29.3735V32.5104ZM29.3524 32.9441H30.1985V33.8642H29.3524V32.9441ZM29.2889 34.0546H30.209V34.5728H29.2889V34.0546ZM29.4052 32.2989H30.1456L30.2937 32.0451H29.2783L29.4052 32.2989V32.2989ZM30.3994 31.3893L30.41 30.7547H30.9177C30.6994 30.9246 30.5223 31.1415 30.3994 31.3893V31.3893Z" fill="#F5F5F5" stroke="#BD6B00" stroke-width="0.0528819"/>
<path id="Vector_21" fill-rule="evenodd" clip-rule="evenodd" d="M29.4581 31.6538C29.4581 31.7912 29.6168 31.7384 29.6168 31.6643V31.072C29.6168 30.9663 29.8706 30.9874 29.8706 31.0615V31.6961C29.8706 31.8018 30.0504 31.7912 30.0398 31.6961V30.9557C30.0398 30.723 29.4581 30.7336 29.4581 30.9451V31.6538ZM29.4581 33.0604H30.061V33.8008H29.4581V33.0604Z" stroke="#BD6B00" stroke-width="0.0528819"/>
<path id="Vector_22" fill-rule="evenodd" clip-rule="evenodd" d="M29.8389 33.3777H30.0504V33.4835H29.8389V33.3777ZM29.4687 33.3777H29.6802V33.4835H29.4687V33.3777ZM29.6802 33.0604H29.8389V33.3777H29.6802V33.0604ZM29.6802 33.4835H29.8389V33.8113H29.6802V33.4835ZM26.3275 25.5512C26.3698 26.1329 26.1794 26.4607 25.8727 26.4079C25.7881 26.0906 25.9785 25.8685 26.3275 25.5512ZM25.64 26.8521C25.3651 26.7146 25.566 25.6358 25.6718 25.181C25.7458 25.7627 25.8833 26.5877 25.64 26.8521Z" fill="#F5F5F5" stroke="#BD6B00" stroke-width="0.0528819"/>
<path id="Vector_23" fill-rule="evenodd" clip-rule="evenodd" d="M25.7352 26.905C26.2006 27.0636 26.5814 26.5665 26.6977 25.9848C26.3169 26.5136 25.6929 26.5136 25.7458 26.905H25.7352ZM25.3862 27.4444C25.0266 27.3492 25.2382 26.2069 25.3122 25.7521C25.3862 26.2281 25.6401 27.2857 25.3862 27.4444ZM25.5131 27.4126C25.5343 27.0213 25.9256 27.1271 26.2006 26.9155C26.1477 27.1271 25.9891 27.4655 25.5131 27.4126ZM25.0689 27.9414C24.7093 27.8357 24.9209 26.6088 24.8997 26.1012C25.0055 26.5454 25.3439 27.8251 25.0689 27.9414ZM25.2382 27.8886C25.5343 27.9838 25.9256 27.7828 25.9573 27.4338C25.6929 27.6136 25.291 27.4761 25.2382 27.8886Z" fill="#F5F5F5" stroke="#BD6B00" stroke-width="0.0528819"/>
<path id="Vector_24" fill-rule="evenodd" clip-rule="evenodd" d="M24.7939 28.4808C24.4555 28.5126 24.6035 27.4655 24.6035 26.4925C24.7305 27.402 25.0795 28.2376 24.7939 28.4808Z" fill="#F5F5F5" stroke="#BD6B00" stroke-width="0.0528819"/>
<path id="Vector_25" fill-rule="evenodd" clip-rule="evenodd" d="M24.9208 28.4385C25.1535 28.5443 25.5659 28.3645 25.6823 27.9732C25.2592 28.153 24.9842 27.9732 24.9208 28.4385ZM27.6283 26.0906C27.5649 26.6088 27.3533 26.905 27.0466 26.8521C26.962 26.5348 27.2158 26.3233 27.6283 26.0906ZM26.8034 27.402C27.3216 27.4761 27.5014 27.0848 27.861 26.5665C27.3639 26.9261 26.7822 26.9896 26.8034 27.4126V27.402Z" fill="#F5F5F5" stroke="#BD6B00" stroke-width="0.0528819"/>
<path id="Vector_26" fill-rule="evenodd" clip-rule="evenodd" d="M26.6448 27.3491C26.3698 27.0107 26.6448 26.5771 26.8563 26.2175C26.814 26.7569 26.9938 27.0636 26.6448 27.3491ZM26.539 27.9097C26.4967 27.5712 27.0678 27.4972 27.3217 27.3174C27.2265 27.5078 27.1101 28.026 26.5284 27.9097H26.539Z" fill="#F5F5F5" stroke="#BD6B00" stroke-width="0.0528819"/>
<path id="Vector_27" fill-rule="evenodd" clip-rule="evenodd" d="M26.4121 27.9097C26.0208 27.8674 26.1794 27.2011 26.465 26.8415C26.3487 27.3492 26.6765 27.6982 26.4121 27.9097Z" fill="#F5F5F5" stroke="#BD6B00" stroke-width="0.0528819"/>
<path id="Vector_28" fill-rule="evenodd" clip-rule="evenodd" d="M26.116 28.4703C25.6718 28.2587 25.9574 27.7088 26.116 27.3809C26.0526 27.8145 26.4122 28.1424 26.116 28.4597V28.4703Z" fill="#F5F5F5" stroke="#BD6B00" stroke-width="0.0528819"/>
<path id="Vector_29" fill-rule="evenodd" clip-rule="evenodd" d="M26.2005 28.4068C26.4332 28.7241 26.888 28.3222 26.9832 27.8568C26.5919 28.1847 26.2957 28.1318 26.2005 28.4174V28.4068ZM25.1852 30.5538C25.1429 30.099 25.4813 29.2846 25.2381 28.8404C25.2063 28.777 25.3121 28.6183 25.3861 28.7135C25.4919 28.8721 25.5977 29.3164 25.6506 29.1471C25.6929 28.9673 25.7034 28.6606 25.8621 28.5972C25.9678 28.5654 26.1053 28.5337 26.063 28.7029C26.0207 28.851 25.9361 29.0625 26.0313 29.0731C26.0842 29.0731 26.2428 28.8616 26.3803 28.7558C26.4861 28.6712 26.6553 28.8193 26.4861 28.9462C25.9784 29.3692 25.4813 29.5702 25.1852 30.5538V30.5538ZM24.2651 37.3755C24.2016 37.3755 24.1276 37.3438 24.2016 37.439C24.8044 38.1794 24.9737 38.3909 25.8515 38.2851C26.7293 38.1688 26.9409 37.9255 27.5649 37.5765C27.7455 37.4814 27.9432 37.4232 28.1466 37.405C28.3499 37.3869 28.5548 37.4092 28.7494 37.4707C28.9187 37.5236 29.0244 37.5236 28.8975 37.3967C28.7706 37.2804 28.6331 37.1111 28.4744 36.9948C28.0799 36.7309 27.599 36.6287 27.1312 36.7092C26.4967 36.815 25.9573 37.2275 25.3121 37.3861C24.9666 37.4559 24.6106 37.4559 24.2651 37.3861V37.3755ZM29.3206 38.6976C29.4263 38.7187 29.5004 38.9303 29.5638 38.7928C29.6484 38.5495 29.585 38.3697 29.4792 38.3803C29.3523 38.412 29.1513 38.6976 29.3206 38.6976Z" fill="#F5F5F5" stroke="#BD6B00" stroke-width="0.0528819"/>
<path id="Vector_30" fill-rule="evenodd" clip-rule="evenodd" d="M23.8526 30.2048C23.7257 30.0567 23.7574 30.0144 23.9583 30.0038C24.1064 30.0038 24.4026 30.1096 24.5189 30.0144C24.6247 29.9404 24.5718 29.6231 24.6247 29.4856C24.6458 29.3904 24.6987 29.274 24.8362 29.4644C25.2169 30.0778 25.6823 30.8182 25.8938 31.5374C25.9996 31.9393 25.8938 32.5739 25.5342 32.9969C25.5342 32.6373 25.4073 32.3941 25.2487 32.0874C25.0371 31.696 24.2862 30.6067 23.8526 30.1942V30.2048Z" fill="#F5F5F5"/>
<path id="Vector_31" fill-rule="evenodd" clip-rule="evenodd" d="M25.4285 33.42C25.8516 33.42 25.9256 32.8595 25.9256 32.7008C25.7141 32.7431 25.3545 33.0921 25.4285 33.42ZM29.0774 38.9091C29.3735 38.9726 29.3629 38.2534 29.0562 37.9467C29.1937 38.412 28.8447 38.8351 29.0668 38.8986L29.0774 38.9091ZM28.9504 38.8986C28.9716 39.237 28.1043 38.8563 27.8928 38.5813C28.4005 38.8034 28.9293 38.6236 28.9504 38.8986ZM28.5803 38.412C28.612 38.7399 27.8399 38.4438 27.5967 38.1899C28.1149 38.3592 28.5485 38.1371 28.5803 38.4015V38.412ZM28.7178 38.4544C29.0245 38.5284 28.9716 37.7775 28.6755 37.5236C28.8235 38.0207 28.4851 38.3803 28.7178 38.4544ZM28.4005 37.9996C28.7072 38.0736 28.5274 37.4284 28.3053 37.1746C28.3476 37.64 28.1995 37.9678 28.411 37.9996H28.4005ZM28.2418 37.9996C28.2736 38.338 27.6707 38.0842 27.438 37.7563C27.9457 37.915 28.2101 37.7246 28.2418 37.9996ZM28.0832 37.7352C28.2736 37.5977 28.0726 37.2275 27.6918 37.2486C27.7342 37.4708 27.8611 37.8727 28.0832 37.7352ZM29.5639 39.2899C29.5744 39.6283 28.7178 39.4591 28.4428 39.0995C28.9927 39.2053 29.5321 39.0149 29.5533 39.2899H29.5639ZM26.1371 38.6765C26.1689 39.0149 25.2276 38.6342 24.9949 38.3169C25.492 38.4861 26.1054 38.4015 26.1371 38.6765ZM26.7082 38.8139C26.9092 38.6765 26.5073 38.3169 26.1794 38.2322C26.2217 38.4544 26.4967 38.9514 26.7082 38.8245V38.8139ZM26.7717 39.0572C26.7929 39.3639 25.7669 39.1947 25.5025 38.9091C26.3804 39.0678 26.74 38.7928 26.7717 39.0572Z" fill="#F5F5F5" stroke="#BD6B00" stroke-width="0.0528819"/>
<path id="Vector_32" fill-rule="evenodd" clip-rule="evenodd" d="M27.2582 39.2582C27.364 39.5437 26.3804 39.4697 26.0314 39.311C26.5919 39.311 27.1736 39.0572 27.2582 39.2582Z" fill="#F5F5F5" stroke="#BD6B00" stroke-width="0.0528819"/>
<path id="Vector_33" fill-rule="evenodd" clip-rule="evenodd" d="M27.713 39.4697C27.8187 39.7235 26.9092 39.7235 26.465 39.5755C27.0572 39.5755 27.6072 39.2159 27.713 39.4697ZM28.3793 39.6072C28.5485 39.9139 27.5755 39.935 27.2688 39.787C27.8187 39.7129 28.2418 39.3639 28.3793 39.6072ZM27.2476 39.0889C26.9409 39.2793 26.9621 38.7082 26.7188 38.3169C27.0995 38.6659 27.4591 38.9091 27.2476 39.0889Z" fill="#F5F5F5" stroke="#BD6B00" stroke-width="0.0528819"/>
<path id="Vector_34" fill-rule="evenodd" clip-rule="evenodd" d="M27.7977 39.3005C27.5438 39.5226 27.3323 38.7399 27.0996 38.2957C27.4804 38.7188 28.0303 39.1101 27.7977 39.2899V39.3005ZM28.5169 39.512C28.3053 39.7658 27.6707 38.7716 27.4381 38.2428C27.7871 38.6553 28.6861 39.3005 28.5169 39.512ZM27.9034 40.2735C27.7977 40.6542 26.1901 39.9139 25.9997 39.5226C26.9304 40.0091 27.9246 39.9033 27.9034 40.2629V40.2735ZM22.7527 32.4681C22.7104 32.4152 22.6047 32.4681 22.6258 32.5845C22.6575 32.7431 22.8902 33.5575 23.2921 33.8325C23.5777 34.044 25.0901 34.3719 25.767 34.5199C26.1477 34.594 26.4545 34.7843 26.7083 35.0805C26.6214 34.7295 26.5155 34.3835 26.391 34.044C26.2641 33.7267 25.9256 33.3883 25.566 33.3777C24.9209 33.346 24.0748 33.2931 23.4508 33.0287C23.1681 32.9095 22.9232 32.7157 22.7422 32.4681H22.7527Z" fill="#F5F5F5" stroke="#BD6B00" stroke-width="0.0528819"/>
<path id="Vector_35" fill-rule="evenodd" clip-rule="evenodd" d="M26.4862 35.6939C26.6977 35.842 26.9198 35.3026 26.666 34.7844C26.6554 35.2815 26.2641 35.4507 26.4862 35.6939Z" fill="#F5F5F5" stroke="#BD6B00" stroke-width="0.0528819"/>
<path id="Vector_36" fill-rule="evenodd" clip-rule="evenodd" d="M26.6871 36.191C26.9726 36.2756 27.0572 35.768 26.8774 35.3661C26.9092 35.7997 26.4226 36.0641 26.6871 36.191Z" fill="#F5F5F5" stroke="#BD6B00" stroke-width="0.0528819"/>
<path id="Vector_37" fill-rule="evenodd" clip-rule="evenodd" d="M26.9092 36.5929C27.1841 36.7304 27.2793 36.2122 27.089 35.842C27.1101 36.3179 26.6976 36.466 26.9092 36.5823V36.5929Z" fill="#F5F5F5" stroke="#BD6B00" stroke-width="0.0528819"/>
<path id="Vector_38" fill-rule="evenodd" clip-rule="evenodd" d="M26.7929 36.6246C26.6871 36.9419 26.0525 36.3391 25.9468 36.0112C26.3381 36.4025 26.8669 36.3496 26.7929 36.6141V36.6246Z" fill="#F5F5F5" stroke="#BD6B00" stroke-width="0.0528819"/>
<path id="Vector_39" fill-rule="evenodd" clip-rule="evenodd" d="M26.5073 36.1275C26.3804 36.4448 25.5871 35.5987 25.4073 35.2074C25.7987 35.5987 26.5919 35.8949 26.5073 36.117V36.1275Z" fill="#F5F5F5" stroke="#BD6B00" stroke-width="0.0528819"/>
<path id="Vector_40" fill-rule="evenodd" clip-rule="evenodd" d="M26.3486 35.6304C26.2217 36.0006 25.365 35.017 25.1112 34.668C25.5343 35.0487 26.4438 35.366 26.3486 35.6304ZM26.3169 35.2708C26.6342 35.2074 26.3063 34.9536 25.9256 34.5411C25.915 34.9747 25.9785 35.2814 26.3169 35.2708Z" fill="#F5F5F5" stroke="#BD6B00" stroke-width="0.0528819"/>
<path id="Vector_41" fill-rule="evenodd" clip-rule="evenodd" d="M25.7987 35.017C25.9362 34.8795 25.6823 34.8161 25.365 34.4565C25.3122 34.6997 25.6612 35.1439 25.8093 35.017H25.7987ZM27.2794 36.6246C27.4486 36.7304 27.5544 36.3814 27.3534 36.0747C27.3005 36.4131 27.1313 36.4977 27.2794 36.6246ZM23.6623 34.4776C23.3132 34.6891 22.7527 33.843 22.6046 33.494C22.9113 33.8959 23.7257 34.2555 23.6623 34.4776Z" fill="#F5F5F5" stroke="#BD6B00" stroke-width="0.0528819"/>
<path id="Vector_42" fill-rule="evenodd" clip-rule="evenodd" d="M23.9689 34.9641C23.768 35.1757 23.1545 34.594 22.943 34.2978C23.2603 34.5834 24.0535 34.6151 23.9689 34.9641Z" fill="#F5F5F5" stroke="#BD6B00" stroke-width="0.0528819"/>
<path id="Vector_43" fill-rule="evenodd" clip-rule="evenodd" d="M24.2968 35.4084C24.2334 35.7045 23.345 35.0382 23.1334 34.7209C23.5142 35.0911 24.3603 35.0593 24.2968 35.4084Z" fill="#F5F5F5" stroke="#BD6B00" stroke-width="0.0528819"/>
<path id="Vector_44" fill-rule="evenodd" clip-rule="evenodd" d="M24.1594 35.7362C24.0219 36.0006 23.2921 35.3343 23.1123 34.9959C23.5671 35.3766 24.2757 35.4718 24.1699 35.7362H24.1594ZM23.7892 34.4353C24.0113 34.1921 23.9161 34.0757 23.7469 33.695C23.6623 34.0863 23.5248 34.2449 23.7892 34.4353ZM24.0959 34.8901C24.519 34.9113 24.0959 34.4036 23.9901 33.97C24.0324 34.4565 23.8844 34.8478 24.0959 34.8901Z" fill="#F5F5F5" stroke="#BD6B00" stroke-width="0.0528819"/>
<path id="Vector_45" fill-rule="evenodd" clip-rule="evenodd" d="M24.3603 35.292C24.6459 35.2286 24.5718 34.8161 24.3391 34.319C24.392 34.8584 24.0959 35.1651 24.3603 35.292ZM24.2545 36.1064C24.1488 36.4237 23.3238 35.6834 23.1969 35.3872C23.62 35.7468 24.3286 35.8632 24.2545 36.1064Z" fill="#F5F5F5" stroke="#BD6B00" stroke-width="0.0528819"/>
<path id="Vector_46" fill-rule="evenodd" clip-rule="evenodd" d="M24.7517 36.6141C24.6353 36.9313 23.7681 36.2756 23.5037 35.916C24.0219 36.3391 24.8151 36.2968 24.7517 36.6141Z" fill="#F5F5F5" stroke="#BD6B00" stroke-width="0.0528819"/>
<path id="Vector_47" fill-rule="evenodd" clip-rule="evenodd" d="M25.2592 37.1323C25.1217 37.5871 24.2122 36.8573 23.9478 36.4977C24.5189 36.9419 25.3227 36.815 25.2592 37.1323ZM24.4131 35.9689C24.6564 36.0853 24.7516 35.3978 24.6141 34.9007C24.6141 35.4295 24.117 35.8314 24.4025 35.9583L24.4131 35.9689Z" fill="#F5F5F5" stroke="#BD6B00" stroke-width="0.0528819"/>
<path id="Vector_48" fill-rule="evenodd" clip-rule="evenodd" d="M24.8257 36.5189C25.1218 36.6035 25.0372 35.8526 24.7728 35.3555C24.7411 35.8526 24.5296 36.3074 24.8257 36.5189ZM25.3545 37.0371C25.6718 37.0477 25.4603 36.392 25.1853 36.0218C25.2276 36.4977 25.0795 36.9737 25.3545 37.0371ZM24.7728 37.3121C24.6671 37.4813 24.4344 37.1746 24.0325 36.9419C24.3921 37.0477 24.8151 37.1535 24.7728 37.3121ZM24.5824 31.7384C24.8997 31.5057 24.6565 31.0826 24.5824 30.6807C24.4767 31.0615 24.2228 31.5691 24.5824 31.7384ZM24.5824 32.2989C24.1065 32.246 24.1805 31.6538 24.1594 31.273C24.3075 31.7912 24.6882 31.8759 24.5824 32.3095V32.2989ZM24.6459 32.2249C25.0372 32.2037 25.0161 31.7595 25.0372 31.3153C24.8363 31.7278 24.6142 31.7912 24.6459 32.2249Z" fill="#F5F5F5" stroke="#BD6B00" stroke-width="0.0528819"/>
<path id="Vector_49" fill-rule="evenodd" clip-rule="evenodd" d="M24.6353 32.7748C24.318 32.8066 24.1699 32.4998 24.1064 32.0345C24.392 32.4681 24.6458 32.3306 24.6353 32.7748ZM24.741 32.7431C25.1324 32.796 25.0583 32.3412 25.0583 32.0027C24.9314 32.32 24.6141 32.4258 24.741 32.7431Z" fill="#F5F5F5" stroke="#BD6B00" stroke-width="0.0528819"/>
<path id="Vector_50" fill-rule="evenodd" clip-rule="evenodd" d="M24.1276 32.5527C24.1593 32.8489 24.3497 33.3565 24.6564 33.2402C24.7727 32.8806 24.3814 32.8066 24.1276 32.5527Z" fill="#F5F5F5" stroke="#BD6B00" stroke-width="0.0528819"/>
<path id="Vector_51" fill-rule="evenodd" clip-rule="evenodd" d="M24.741 33.2719C24.6141 33.0181 25.0583 32.8806 25.1429 32.5421C25.1958 33.0287 25.1535 33.346 24.741 33.2825V33.2719ZM23.4825 30.1836C23.7257 29.9298 23.5142 29.5067 23.4402 29.1048C23.3344 29.4856 23.1757 29.9932 23.4825 30.1836ZM23.4825 30.6701C23.0594 30.723 22.9536 29.8558 22.9008 29.475C23.0488 29.9932 23.5353 30.2153 23.4825 30.6807V30.6701ZM23.5671 30.6701C23.8632 30.5115 23.7997 30.173 23.8844 29.9298C23.694 30.2365 23.5036 30.2788 23.5671 30.6701Z" fill="#F5F5F5" stroke="#BD6B00" stroke-width="0.0528819"/>
<path id="Vector_52" fill-rule="evenodd" clip-rule="evenodd" d="M23.4719 31.2413C23.0382 31.273 22.7738 30.3105 22.7527 29.9298C22.8902 30.448 23.5353 30.723 23.4825 31.2413H23.4719ZM23.5671 31.2201C23.9901 31.1249 23.9372 30.8499 23.8738 30.4163C23.7363 30.8605 23.5036 30.7653 23.5671 31.2201Z" fill="#F5F5F5" stroke="#BD6B00" stroke-width="0.0528819"/>
<path id="Vector_53" fill-rule="evenodd" clip-rule="evenodd" d="M23.4718 31.7912C22.9853 31.8759 23.0171 31.0932 22.6257 30.5327C22.9642 30.9557 23.5776 31.4845 23.4718 31.7912ZM23.5776 31.7595C23.9584 31.7807 24.0007 31.2201 23.9795 30.9874C23.8843 31.2201 23.4507 31.4316 23.5882 31.7701L23.5776 31.7595Z" fill="#F5F5F5" stroke="#BD6B00" stroke-width="0.0528819"/>
<path id="Vector_54" fill-rule="evenodd" clip-rule="evenodd" d="M22.7103 31.1884C22.8901 31.7912 23.1545 32.3941 23.4718 32.3518C23.6305 32.0028 23.1651 31.9605 22.7103 31.1884Z" fill="#F5F5F5" stroke="#BD6B00" stroke-width="0.0528819"/>
<path id="Vector_55" fill-rule="evenodd" clip-rule="evenodd" d="M23.5882 32.2566C23.4613 31.9922 23.9055 31.8653 23.9901 31.5268C24.043 32.0133 24.0007 32.3306 23.5882 32.2566ZM22.8373 31.8758C23.1017 32.4152 23.218 33.0392 23.5776 32.9441C23.7151 32.521 23.1757 32.4364 22.8373 31.8758Z" fill="#F5F5F5" stroke="#BD6B00" stroke-width="0.0528819"/>
<path id="Vector_56" fill-rule="evenodd" clip-rule="evenodd" d="M23.6517 32.8489C23.493 32.5527 23.9372 32.4575 24.0536 32.0662C24.1065 32.5739 24.0536 32.944 23.6517 32.8383V32.8489ZM24.4132 29.2C24.667 29.2635 24.942 28.9779 24.8468 28.5443C24.5507 28.6077 24.4237 28.8827 24.4132 29.2ZM23.5776 28.9779C23.5988 29.1048 23.7574 29.1154 23.7045 28.9356C23.6651 28.819 23.6651 28.6926 23.7045 28.576C23.7555 28.4178 23.7555 28.2477 23.7045 28.0895C23.6622 27.9837 23.5142 28.0472 23.5776 28.1318C23.6411 28.227 23.6517 28.4279 23.5988 28.5231C23.5353 28.6606 23.5565 28.8404 23.5776 28.9779ZM25.9996 30.6701C25.8939 30.8076 25.6929 30.7124 25.8516 30.5115C25.9785 30.3528 26.1688 30.2153 26.1688 30.0461C26.19 29.8346 26.3063 29.5173 26.4227 29.401C26.539 29.2846 26.6765 29.4433 26.5496 29.5279C26.4121 29.6125 26.3169 29.9932 26.3275 30.1413C26.3169 30.3528 26.116 30.5115 25.9996 30.6701ZM25.6823 30.4269C25.5766 30.5749 25.4285 30.4798 25.5131 30.2471C25.5871 30.0884 25.5977 29.8769 25.6823 29.7606C25.8092 29.5808 25.9996 29.4327 26.116 29.3164C26.2429 29.2106 26.3275 29.3164 26.2217 29.4221C26.0921 29.5516 25.9752 29.6933 25.8727 29.8452C25.7246 30.0779 25.7881 30.2682 25.6823 30.4269V30.4269ZM24.0218 29.6654C24.0113 29.8769 24.1805 29.9192 24.1699 29.6231C24.1699 29.3058 23.9372 29.0096 24.0641 28.5337C24.1488 28.301 24.1488 27.8674 24.1065 27.6453C24.0641 27.4126 23.8949 27.5607 23.969 27.7405C24.0324 27.952 23.9584 28.3327 23.9055 28.5337C23.7469 29.1048 24.0324 29.3798 24.0113 29.6654H24.0218ZM24.4766 28.502C24.4555 28.7029 24.2863 28.7135 24.3391 28.4491C24.3814 28.2376 24.3814 28.0683 24.3391 27.8885C24.2757 27.6664 24.2968 27.2857 24.3391 27.127C24.392 26.9578 24.5507 27.053 24.4872 27.1799C24.4134 27.3798 24.4023 27.5975 24.4555 27.8039C24.5189 28.0155 24.5084 28.3116 24.4766 28.5125V28.502ZM22.8267 32.4258C22.9113 32.521 23.0382 32.4575 22.9325 32.32C22.8267 32.2143 22.8584 32.1931 22.795 32.0662C22.7315 31.9181 22.7421 31.8441 22.6681 31.7489C22.594 31.6432 22.4988 31.7489 22.5623 31.823C22.6469 31.9287 22.6258 31.9922 22.6681 32.0874C22.7738 32.246 22.7421 32.3306 22.8267 32.4258V32.4258ZM24.9843 35.0276C25.1136 35.099 25.2235 35.2009 25.3046 35.3244C25.3857 35.4478 25.4355 35.5892 25.4497 35.7362C25.4607 35.9996 25.5331 36.2567 25.6612 36.4871C25.4497 36.4343 25.3439 36.0958 25.3122 35.7679C25.2804 35.4295 25.1006 35.292 24.9949 35.0276H24.9843ZM25.5237 35.6516C25.7035 35.9795 25.9467 36.1064 25.9679 36.3496C25.989 36.6352 26.0102 36.6458 26.0842 36.9208C25.8727 36.8679 25.8198 36.8467 25.7669 36.4237C25.7352 36.1275 25.492 35.9266 25.5237 35.6516V35.6516Z" fill="#F5F5F5" stroke="#BD6B00" stroke-width="0.0528819"/>
<path id="Vector_57" fill-rule="evenodd" clip-rule="evenodd" d="M31.0869 38.6976C31.1927 38.888 31.2984 39.1736 31.51 39.1207C31.51 38.9832 31.2879 38.8774 31.0869 38.6976ZM31.4042 38.7611C31.7955 38.9303 32.1446 38.888 32.1974 39.1418C31.8167 39.1841 31.6686 39.0361 31.3936 38.7611H31.4042ZM29.7014 37.4179C29.9642 37.6222 30.1505 37.9091 30.2302 38.2323C30.3155 38.5246 30.4438 38.8027 30.611 39.0572C30.3359 38.8724 30.1369 38.5945 30.0504 38.2746C29.9764 37.9573 29.8812 37.714 29.7014 37.4285V37.4179ZM30.0293 37.4179C30.3254 37.6506 30.6004 37.9255 30.685 38.2534C30.7696 38.5601 30.8225 38.7928 31.0235 39.0995C30.7062 38.8986 30.5898 38.6024 30.4946 38.2746C30.4206 37.9573 30.2302 37.7246 30.0293 37.4285V37.4179ZM31.0023 38.19C30.9982 38.1635 31.0033 38.1364 31.0168 38.1133C31.0302 38.0902 31.0513 38.0724 31.0763 38.063C31.1668 38.0311 31.2586 38.0029 31.3513 37.9784C31.4571 37.9467 31.5206 38.0207 31.5206 38.0736V38.2851C31.5206 38.3592 31.4994 38.3697 31.4465 38.3803C31.3725 38.3909 31.2667 38.4015 31.1927 38.4544C31.1292 38.4967 31.0658 38.4649 31.034 38.4015L31.0023 38.19V38.19ZM32.1234 38.19C32.1234 38.1265 32.1023 38.0736 32.0599 38.063C31.9797 38.0298 31.8928 38.0153 31.8061 38.0207C31.7004 38.0207 31.6898 38.0419 31.6898 38.0842V38.3063C31.6898 38.3909 31.6898 38.3909 31.7321 38.4121C31.8061 38.4121 31.9225 38.4121 31.9965 38.4755C32.0494 38.5072 32.1023 38.4755 32.1128 38.4121L32.1234 38.19V38.19Z" fill="#F5F5F5"/>
</g>
<g id="Group_3">
<path id="Vector_58" fill-rule="evenodd" clip-rule="evenodd" d="M35.2645 41.1619C35.2645 41.2888 35.2856 41.3946 35.3702 41.4898C34.8864 41.3436 34.3653 41.3852 33.9107 41.6061C33.7203 41.6907 33.4876 41.5003 33.7097 41.3206C34.027 41.0773 34.7356 41.2148 35.2645 41.1619V41.1619ZM29.183 41.1619C29.1923 41.2695 29.1778 41.3778 29.1407 41.4792C29.6061 41.2994 30.1032 41.458 30.5791 41.6484C30.8964 41.7859 30.9281 41.5427 30.8753 41.4686C30.8168 41.3802 30.7386 41.3065 30.6468 41.2532C30.5551 41.2 30.4523 41.1688 30.3464 41.1619H29.183V41.1619ZM29.5849 38.8668C29.4475 38.8139 29.2994 38.8668 29.1619 39.0149C28.7071 39.4591 28.1677 39.8927 27.7341 40.2418C27.5754 40.3793 27.4168 40.6331 28.0937 40.8763C28.1254 40.8975 28.6225 41.0879 28.9398 41.0879C29.0773 41.0879 29.0773 41.2782 29.0456 41.3311C28.9927 41.4369 29.035 41.4792 28.9292 41.5744C28.8129 41.6801 28.9292 41.7965 29.035 41.7119C29.4157 41.3734 30.0503 41.5955 30.6532 41.7859C30.8012 41.8282 31.0551 41.8176 31.0551 41.6167C31.0551 41.4052 31.2137 41.2571 31.3089 41.2465C31.5627 41.2888 32.7896 41.2994 33.1598 41.2571C33.3713 41.2254 33.3924 41.5638 33.5088 41.6801C33.5934 41.7753 33.9001 41.7965 34.1222 41.7013C34.5453 41.5109 35.1799 41.5109 35.4443 41.7013C35.55 41.7753 35.6452 41.7013 35.5818 41.6273C35.4971 41.5215 35.5077 41.458 35.4654 41.3734C35.3596 41.1619 35.4443 41.1196 35.55 41.109C36.7134 40.9504 37.0942 40.559 36.7346 40.2312C36.2692 39.8293 35.7616 39.4168 35.3173 38.9409C35.1904 38.8139 35.1058 38.7611 34.8626 38.8668C34.0203 39.2487 33.111 39.4608 32.1867 39.4908C31.2913 39.433 30.4119 39.2257 29.5849 38.8774V38.8668Z" fill="#F5F5F5"/>
<path id="Vector_59" fill-rule="evenodd" clip-rule="evenodd" d="M35.0635 38.9303L34.8943 38.9726C33.9424 39.311 33.0751 39.5437 32.1762 39.5437C31.2983 39.5437 30.3782 39.2899 29.5426 38.9514C29.4912 38.9337 29.4354 38.9337 29.384 38.9514C29.3311 38.962 29.2782 38.9937 29.2465 39.0255C28.8556 39.4164 28.4387 39.7804 27.9985 40.1148C27.9244 40.1677 27.935 40.3052 28.0514 40.3475C28.9292 40.6648 29.7859 41.2465 32.2396 41.2253C34.7251 41.2042 35.6029 40.6331 36.3856 40.3687C36.4384 40.3475 36.4913 40.3158 36.523 40.2629C36.5306 40.2503 36.5354 40.2363 36.5372 40.2217C36.5391 40.2071 36.5378 40.1923 36.5336 40.1783C36.52 40.1452 36.4981 40.116 36.4702 40.0937C36.0154 39.7235 35.5394 39.4274 35.2221 38.9937C35.1904 38.9408 35.127 38.9303 35.0635 38.9408V38.9303ZM35.0635 38.9831C35.1164 38.9831 35.1693 38.9831 35.1798 39.0149C35.4971 39.4697 35.9942 39.7552 36.4384 40.1254L36.4807 40.1994C36.4836 40.2061 36.4852 40.2133 36.4852 40.2206C36.4852 40.2279 36.4836 40.2351 36.4807 40.2417C36.4702 40.2735 36.4173 40.3052 36.375 40.3158C35.5712 40.5908 34.7145 41.1619 32.2502 41.183C29.7965 41.2042 28.9504 40.6225 28.0725 40.3052C27.9879 40.2629 27.9985 40.1783 28.0302 40.1571C28.4744 39.8187 28.8975 39.4379 29.2782 39.0572C29.311 39.0265 29.351 39.0047 29.3946 38.9937H29.5215C30.3574 39.3569 31.2546 39.5579 32.1656 39.586C33.0857 39.586 33.9636 39.3533 34.9154 39.0255C34.9665 39.0053 35.0197 38.9911 35.0741 38.9831H35.0635Z" fill="#BD6B00"/>
<path id="Vector_60" fill-rule="evenodd" clip-rule="evenodd" d="M29.0456 22.9705C29.0456 22.8225 29.2571 22.8119 29.236 23.0128C29.2042 23.2561 29.7119 23.8907 29.7542 24.282C29.7859 24.5464 29.5956 24.7685 29.4158 24.9166C29.3121 24.99 29.1903 25.0338 29.0635 25.0431C28.9368 25.0524 28.8099 25.0269 28.6966 24.9695C28.6014 24.8848 28.5168 24.6204 28.5908 24.5147C28.612 24.4829 28.7283 24.906 28.9821 24.906C29.3312 24.906 29.6167 24.6416 29.6167 24.4089C29.6379 24.007 29.0562 23.3724 29.0456 22.9705ZM30.0504 23.9647C30.1138 23.9224 30.1984 24.1022 30.135 24.1445C30.0821 24.1762 29.9763 24.007 30.0504 23.9541V23.9647ZM30.209 23.5945C30.1773 23.6157 30.1244 23.5945 30.135 23.5734C30.2366 23.4322 30.3662 23.3134 30.5157 23.2244C30.558 23.2032 30.6215 23.2667 30.6003 23.2984C30.4924 23.4238 30.359 23.5248 30.209 23.5945V23.5945ZM31.5416 22.5369C31.5734 22.4734 31.7637 22.3994 31.8166 22.3571C31.8589 22.3042 31.8801 22.3994 31.8589 22.4311C31.8272 22.5052 31.658 22.6109 31.5839 22.6215C31.5522 22.6215 31.5205 22.5792 31.5416 22.5475V22.5369ZM31.9964 22.5686C32.0521 22.428 32.1432 22.3041 32.2608 22.209C32.3137 22.1773 32.3983 22.209 32.3772 22.2513C32.3053 22.3912 32.1999 22.5111 32.0704 22.6004C32.0387 22.6321 31.9858 22.6004 31.9964 22.5686V22.5686ZM31.6051 22.8542C31.5734 22.8753 31.5945 22.9282 31.6157 22.9388C31.6791 22.9599 31.7743 22.9599 31.8272 22.9388C31.8906 22.8965 31.8589 22.6321 31.7743 22.7696C31.7108 22.8542 31.6685 22.833 31.6051 22.8542ZM30.833 23.4465C30.6955 23.3407 30.8753 23.1926 31.0128 23.2984C31.2984 23.5099 30.5897 24.3349 30.209 24.7156C30.135 24.7897 30.0715 24.6099 30.1667 24.5147C30.4421 24.284 30.681 24.013 30.8753 23.7109C30.9176 23.658 30.9493 23.5416 30.833 23.4465ZM32.4512 22.7484C32.4618 22.6427 32.282 22.7484 32.282 22.6109C32.282 22.5369 32.4829 22.484 32.5675 22.5686C32.705 22.7167 32.5993 22.9599 32.356 22.9811C32.1656 22.9811 31.8272 23.2667 31.8801 23.3195C31.9329 23.3936 32.4512 23.4359 32.7579 23.3936C32.9483 23.3619 32.906 23.5311 32.7156 23.5522C32.5252 23.5734 32.3772 23.5522 32.2079 23.6157C31.9964 23.6686 31.9118 23.933 31.7955 24.0387C31.7743 24.0599 31.7108 23.9541 31.732 23.9118C31.8166 23.7849 31.9435 23.5945 32.0916 23.5311C32.1762 23.4993 31.8378 23.4888 31.732 23.457C31.6474 23.4359 31.6685 23.3195 31.7003 23.2561C31.7426 23.1715 32.0599 22.8436 32.1974 22.8542C32.3137 22.8542 32.4406 22.8225 32.4512 22.7484V22.7484ZM32.98 22.7696C33.0435 22.7167 33.0858 22.6321 33.1387 22.5792C33.1704 22.5475 33.2338 22.5792 33.2233 22.6638C33.2127 22.7378 33.1175 22.7907 33.0646 22.8436C33.0117 22.8753 32.9589 22.8013 32.9906 22.7696H32.98ZM33.6675 22.5263C33.7627 22.5263 33.7732 22.6955 33.6886 22.7167C33.6252 22.7378 33.5829 22.5369 33.6675 22.5263ZM33.4454 23.0551C33.4454 23.2138 33.5194 23.2032 33.6569 23.1926C33.7944 23.1926 33.9107 23.1926 33.9107 23.0657C33.9107 22.9282 33.8367 22.8013 33.805 22.8965C33.7944 22.9811 33.7732 23.1292 33.7204 23.0657C33.678 23.0128 33.6992 23.0023 33.6146 23.0869C33.5617 23.1397 33.5617 23.0657 33.53 23.0234C33.5088 22.9917 33.4454 23.0446 33.4454 23.0657V23.0551ZM32.4723 23.8166C32.4406 24.0176 32.4723 24.2926 32.5675 24.2926C32.6944 24.2926 32.9483 23.8695 33.0752 23.6368C33.1492 23.5099 33.2656 23.4888 33.2127 23.6263C33.1387 23.8272 33.1492 24.2608 33.2127 24.3878C33.255 24.4512 33.53 24.3243 33.5723 24.2291C33.6569 24.0493 33.5829 23.7214 33.6146 23.5205C33.6252 23.3936 33.7521 23.3619 33.7415 23.4888C33.7249 23.7528 33.7213 24.0176 33.7309 24.282C33.7309 24.3878 34.0376 24.5358 34.08 24.2185C34.1011 24.0282 34.2069 23.8272 34.08 23.6157C33.9953 23.4782 34.1963 23.4888 34.3021 23.6791C34.3761 23.8061 34.2386 24.0176 34.2492 24.1762C34.2492 24.4301 34.0588 24.5781 33.9213 24.5781C33.7944 24.5781 33.7098 24.4195 33.604 24.4195C33.4983 24.4195 33.3713 24.5993 33.2867 24.5887C32.906 24.5676 33.1069 24.0282 32.9906 24.0176C32.8637 24.0176 32.7262 24.5464 32.5675 24.5358C32.4195 24.5147 32.2502 24.0916 32.3243 23.9224C32.3772 23.7532 32.4829 23.7109 32.4723 23.8166V23.8166ZM34.2598 22.9705C34.08 22.8648 34.2598 22.5792 34.3549 22.6744C34.5242 22.8859 34.6934 23.3619 34.8203 23.4042C34.8943 23.4253 34.8838 23.0446 34.9366 22.8753C34.9789 22.7378 35.127 22.7802 35.1059 22.9494C35.0953 23.0023 34.8943 23.6263 34.9155 23.6474C35.0564 23.9114 35.1732 24.1875 35.2645 24.4724C35.2962 24.5993 35.1482 24.5147 35.127 24.4935C35.0318 24.3455 34.8732 23.8061 34.8732 23.8378L34.6934 24.6522C34.6722 24.7579 34.5136 24.7368 34.5559 24.5464C34.5876 24.3983 34.7991 23.6686 34.7886 23.6368C34.6674 23.3761 34.4862 23.1477 34.2598 22.9705V22.9705Z" fill="#F5F5F5"/>
<path id="Vector_61" fill-rule="evenodd" clip-rule="evenodd" d="M34.577 24.7262C34.5347 24.7262 34.4501 24.832 34.7039 24.8849C35.0318 24.9483 35.4019 24.832 35.5077 24.5041C35.6452 24.1128 35.7192 23.7426 35.7933 23.6051C35.8779 23.4465 35.9836 23.457 35.899 23.2244C35.8462 23.0446 35.7404 23.0974 35.7192 23.1926C35.6664 23.4359 35.4442 24.2503 35.3702 24.3878C35.2433 24.6627 34.9789 24.7685 34.577 24.7262Z" fill="#F5F5F5"/>
<path id="Vector_62" fill-rule="evenodd" clip-rule="evenodd" d="M35.2539 23.4359C35.2116 23.3618 35.127 23.4359 35.1481 23.5099C35.1532 23.5398 35.1687 23.5669 35.192 23.5863C35.2153 23.6057 35.2447 23.6161 35.275 23.6157C35.3491 23.6157 35.5077 23.6263 35.5077 23.5099C35.5077 23.4253 35.4337 23.3513 35.3914 23.4465C35.3385 23.5311 35.2856 23.5205 35.2539 23.4465V23.4359ZM35.3279 23.1186C35.3068 23.1397 35.3279 23.2349 35.3596 23.2243C35.4812 23.2252 35.601 23.1962 35.7087 23.1397C35.7298 23.1186 35.7192 23.0657 35.6875 23.0657C35.5817 23.0657 35.4125 23.0657 35.3279 23.1186V23.1186ZM36.2586 23.3618C36.3432 23.2349 36.5548 23.2243 36.4702 23.4041C36.2529 23.8403 36.0308 24.2739 35.8039 24.705C35.7192 24.8531 35.6558 24.7791 35.7192 24.6627C35.7933 24.5147 36.2375 23.3936 36.2586 23.3618Z" fill="#F5F5F5"/>
<path id="Vector_63" fill-rule="evenodd" clip-rule="evenodd" d="M35.4443 24.9166C35.4231 24.832 35.2856 24.7051 35.3068 24.9377C35.3279 25.3396 35.8885 25.2127 36.0471 25.0752C36.2058 24.9377 36.0788 25.53 36.2798 25.5935C36.3856 25.6252 36.5971 25.4771 36.7029 25.3396C36.9884 24.9695 37.1788 24.4301 37.4432 24.0705C37.549 23.9224 37.3903 23.8166 37.3374 23.933C37.0836 24.3349 36.7875 25.1598 36.4596 25.3714C36.1952 25.5406 36.2798 25.1598 36.2692 25.0329C36.2586 24.9483 36.1529 24.8214 36.0154 24.9377C35.9048 25.0263 35.7656 25.0714 35.6241 25.0647C35.55 25.0647 35.476 25.0647 35.4443 24.9166Z" fill="#F5F5F5"/>
<path id="Vector_64" fill-rule="evenodd" clip-rule="evenodd" d="M36.4385 24.1762C36.4385 24.1445 36.3221 24.1339 36.3327 24.2503C36.3327 24.3349 36.4385 24.356 36.4491 24.356C36.6077 24.2291 36.4173 24.2926 36.4385 24.1657V24.1762ZM36.1952 24.6416C36.1635 24.6416 36.1318 24.7474 36.2164 24.7579L36.6289 24.7368C36.6712 24.7368 36.6923 24.6416 36.5866 24.6522C36.4596 24.6522 36.301 24.6205 36.1952 24.6522V24.6416ZM29.6379 22.8859C29.6908 22.8859 29.8071 23.034 29.7965 23.0869C29.7965 23.108 29.6696 23.0869 29.6379 23.0551C29.6061 23.0234 29.6167 22.8859 29.6379 22.8859V22.8859ZM29.0773 23.9859C28.9716 24.0493 29.0985 24.1657 29.1831 24.1128C29.4792 23.9118 29.9234 23.7109 30.0292 23.3196C30.0609 23.1926 30.1773 22.9917 30.2936 22.9494C30.3994 22.8965 30.5686 23.1503 30.6744 22.9494C30.7378 22.8436 30.9599 23.0234 31.0128 22.9071C31.0763 22.7696 31.0445 22.6956 31.0445 22.5475C31.0445 22.4629 30.9705 22.4417 30.9176 22.5792C30.8965 22.6427 30.9176 22.7061 30.907 22.7484C30.8859 22.7696 30.8436 22.7907 30.8013 22.7696C30.7801 22.7484 30.8013 22.6956 30.7378 22.6638C30.7167 22.6638 30.6744 22.6532 30.6532 22.685C30.5792 22.8225 30.5474 22.9494 30.4311 22.7907C30.3359 22.685 30.283 22.4629 30.2196 22.759C30.1984 22.8648 30.0398 23.0128 29.9446 23.0128C29.8282 23.0128 29.86 22.6956 29.6061 22.7484C29.4687 22.7802 29.4792 23.034 29.5004 23.1186C29.5321 23.2561 29.9234 23.1609 29.8917 23.2455C29.8282 23.5311 29.4263 23.8166 29.0773 23.9859V23.9859ZM26.6765 25.382C26.6659 25.4348 26.7294 25.5617 26.7928 25.5723C26.8563 25.5723 26.8986 25.4348 26.8774 25.382C26.8563 25.3502 26.6871 25.3502 26.6765 25.382ZM27.0255 25.9002C26.9832 25.8579 26.8563 25.9742 26.962 26.0588C27.0149 26.1117 27.2265 26.1752 27.2793 26.08C27.364 25.9531 27.2053 25.4983 27.2793 25.4454C27.3322 25.3925 27.5755 25.7415 27.7024 25.7627C27.988 25.805 27.9139 25.2762 28.2312 25.3185C28.4322 25.3396 28.4533 25.0858 28.4216 24.9166C28.4004 24.7579 28.1466 24.5358 28.0303 24.4301C27.8822 24.3032 27.8082 24.5358 27.9033 24.5993C28.0303 24.7051 28.2524 24.906 28.2841 25.0329C28.2947 25.0964 28.136 25.2233 28.0726 25.1916C27.9245 25.107 27.7976 24.7685 27.6707 24.6945C27.6284 24.6733 27.5226 24.7262 27.5649 24.832C27.6284 24.9483 27.8822 25.1175 27.8928 25.2445C27.9033 25.3502 27.787 25.5829 27.7024 25.5829C27.6072 25.5829 27.3851 25.2973 27.3111 25.1598C27.2688 25.107 27.1524 25.107 27.1313 25.2022C27.1244 25.3975 27.1422 25.5929 27.1842 25.7839C27.2053 25.9531 27.089 25.9637 27.0255 25.9002V25.9002ZM26.6025 24.9906C26.5601 25.0329 26.6871 25.1175 26.7082 25.0964C26.7505 25.0541 26.9303 24.8531 26.8986 24.7791C26.8669 24.7156 26.6236 24.5676 26.5813 24.6416C26.5073 24.7579 26.814 24.8214 26.7611 24.8531C26.702 24.8912 26.6485 24.9375 26.6025 24.9906V24.9906ZM27.0361 24.1022C27.0361 24.1022 27.1207 24.3666 27.1842 24.2503C27.2265 24.1762 27.0361 24.1022 27.0361 24.1022ZM27.163 24.5253C27.1418 24.5253 27.0572 24.5993 27.1101 24.631C27.1947 24.6733 27.4168 24.7156 27.364 24.557C27.3322 24.4618 27.7024 24.557 27.6072 24.3032C27.569 24.2249 27.5057 24.1616 27.4274 24.1234C27.3851 24.1234 27.2688 24.1762 27.3428 24.2186C27.3957 24.2397 27.5543 24.3349 27.5014 24.3983C27.4274 24.4618 27.3851 24.3666 27.3005 24.3878C27.2582 24.3878 27.2899 24.5147 27.2582 24.5464C27.2582 24.5676 27.1842 24.5041 27.163 24.5147V24.5253ZM27.7447 23.5205C27.6795 23.5744 27.6347 23.6491 27.6178 23.732C27.6178 23.7532 27.6495 23.7955 27.6707 23.7849C27.7359 23.7355 27.781 23.6641 27.7976 23.584C27.7976 23.5522 27.7764 23.4994 27.7447 23.5205ZM28.0408 23.4888C27.9562 23.383 28.1466 23.2138 28.2206 23.4359C28.2735 23.5734 28.8023 24.2714 28.9081 24.5041C28.9927 24.6628 28.9081 24.7262 28.8129 24.6099C28.5485 24.2714 28.3264 23.8484 28.0408 23.4888V23.4888ZM28.5908 23.4994C28.686 23.3936 28.8764 23.1821 28.8235 23.0763C28.7812 22.9705 28.6648 22.9705 28.6437 23.0023C28.5379 23.1398 28.7283 23.108 28.6966 23.1503C28.6437 23.2561 28.5908 23.3196 28.5591 23.4253C28.5485 23.4571 28.5697 23.5205 28.5908 23.4994ZM36.8192 23.8378C36.7452 23.7849 36.8827 23.5205 36.9779 23.6263C37.2211 23.9118 37.3375 24.8531 37.4115 25.5618C37.4115 25.5618 37.3057 25.6569 37.3057 25.6358C37.3057 25.2656 37.1471 24.1128 36.8192 23.8378ZM31.2032 22.9282C31.1186 22.7379 31.3195 22.6744 31.3512 22.8013C31.4887 23.4147 31.8272 23.8801 32.0916 24.2926C32.1656 24.4195 32.0916 24.5041 31.9118 24.3772C31.7849 24.2926 31.6474 23.9647 31.5945 23.9541C31.4676 23.933 31.1926 24.483 30.6321 24.3243C30.484 24.282 30.4946 23.8484 30.484 23.658C30.484 23.5628 30.5897 23.5522 30.5897 23.658C30.5897 23.8378 30.5897 24.208 30.8118 24.2291C31.0022 24.2291 31.4041 23.9753 31.4887 23.7638C31.5733 23.5522 31.2878 23.1398 31.2032 22.9177V22.9282Z" fill="#F5F5F5"/>
<path id="Vector_65" fill-rule="evenodd" clip-rule="evenodd" d="M36.9673 25.4877C37.0096 25.3608 37.6125 24.3454 37.6971 24.1233C37.7394 24.0176 37.9086 24.3137 37.7394 24.4724C37.5913 24.5993 37.1577 25.3185 37.0731 25.5723C37.0308 25.6781 36.925 25.6252 36.9673 25.4877V25.4877Z" fill="#F5F5F5"/>
<path id="Vector_66" fill-rule="evenodd" clip-rule="evenodd" d="M37.9932 24.5253C38.099 24.1022 38.374 24.5887 38.1307 24.8214C37.7711 25.181 37.6548 25.8685 37.0731 25.9742C36.925 26.0059 36.65 25.9002 36.5654 25.8367C36.5337 25.8156 36.5866 25.6675 36.6818 25.7415C36.8193 25.8473 37.1154 25.879 37.274 25.7521C37.6196 25.4152 37.8681 24.9914 37.9932 24.5253V24.5253ZM31.9647 25.8685C31.933 25.9002 31.8589 25.9002 31.8484 25.9425C31.8166 26.0906 31.8484 26.1752 31.8166 26.3232C31.7849 26.4713 31.6791 26.4713 31.6897 26.355C31.6897 26.2069 31.8272 25.9848 31.732 25.9742C31.6686 25.9636 31.6263 25.879 31.6897 25.8367C31.8061 25.7627 31.8695 25.7733 31.9435 25.7944C31.9753 25.805 31.9859 25.8473 31.9647 25.8685V25.8685Z" fill="#F5F5F5"/>
<path id="Vector_67" fill-rule="evenodd" clip-rule="evenodd" d="M31.8801 25.6569C31.732 25.805 31.5839 25.8579 31.4465 26.0271C31.383 26.0906 31.3936 26.1857 31.3513 26.2809C31.3195 26.3761 31.2032 26.3867 31.1715 26.3761C31.1186 26.3338 31.1292 26.1646 31.0657 26.2492C31.0022 26.3444 30.9705 26.4607 30.8859 26.4607C30.8119 26.4607 30.6744 26.3021 30.7484 26.3021C30.9917 26.2704 30.9811 26.0906 31.0657 26.0694C31.1715 26.0588 31.1715 26.2281 31.2455 26.1963C31.2878 26.1752 31.3195 25.9742 31.3724 25.9213C31.5311 25.7521 31.658 25.6675 31.8272 25.5406C31.9012 25.4771 31.9647 25.5935 31.8801 25.6675V25.6569ZM32.4406 26.1857C32.3137 26.2069 32.3349 26.3655 32.3772 26.3761C32.4301 26.4078 32.5252 26.4184 32.557 26.2386C32.5781 26.1646 32.5887 26.6088 32.7473 26.4396C32.8531 26.3338 33.0752 26.4607 33.1704 26.3338C33.2444 26.2386 33.2762 26.1752 33.2127 26.0483C33.1916 26.0165 33.1069 26.0271 33.1069 26.1223C33.1069 26.2069 33.0541 26.3021 32.9694 26.2915C32.9271 26.2809 32.9906 26.0906 32.9483 26.0377C32.9384 26.028 32.9251 26.0226 32.9113 26.0226C32.8974 26.0226 32.8841 26.028 32.8743 26.0377C32.8425 26.08 32.906 26.2704 32.8108 26.2915C32.6839 26.3127 32.7473 26.1646 32.705 26.1434C32.5252 26.0588 32.5147 26.1646 32.4406 26.1752V26.1857ZM33.3925 25.8685C33.4877 25.8473 33.456 25.8473 33.604 25.731C33.6569 25.6887 33.6675 25.8156 33.6569 25.8685C33.6569 25.9425 33.5512 25.8896 33.5194 25.9636C33.4771 26.0588 33.4983 26.2809 33.4771 26.3655C33.4771 26.4078 33.3925 26.4078 33.3925 26.3655C33.3714 26.2598 33.4031 26.154 33.3925 26.0165C33.3925 25.9742 33.3396 25.9002 33.3925 25.879V25.8685ZM32.8637 25.604C32.8425 25.6992 32.8425 25.7733 32.8425 25.8473C32.8425 25.9002 32.9483 25.8685 32.9483 25.8579C32.9483 25.7733 32.9695 25.6464 32.9483 25.6146C32.9271 25.604 32.8743 25.5829 32.8637 25.604Z" fill="#F5F5F5"/>
<path id="Vector_68" fill-rule="evenodd" clip-rule="evenodd" d="M32.1973 24.6204L32.0493 25.2127L31.8378 24.8108V25.2233L31.3724 24.6733L31.531 25.2656L31.108 24.906L31.3407 25.3079L30.6003 24.8319L31.0657 25.3819L30.4734 25.0858L30.8965 25.4454L29.9446 25.0858L30.8647 25.5406C31.2827 25.3503 31.7382 25.2563 32.1973 25.2656C32.7156 25.2656 33.1809 25.3713 33.5194 25.5406L34.4501 25.0858L33.4982 25.4454L33.9213 25.0858L33.3396 25.3819L33.7944 24.8319L33.054 25.3079L33.2867 24.906L32.8637 25.255L33.0223 24.6733L32.5675 25.2233V24.8108L32.356 25.2127L32.1973 24.6204V24.6204Z" fill="#F5F5F5"/>
</g>
</g>
<path id="Vector_69" d="M31.3711 37.4625L31.3586 37.7375H31.3086V37.55C31.2969 37.4944 31.2802 37.44 31.2586 37.3875C31.2418 37.3439 31.2209 37.302 31.1961 37.2625C31.1655 37.2147 31.1321 37.1688 31.0961 37.125L31.1836 36.9C31.247 36.9724 31.2939 37.0577 31.3211 37.15C31.3596 37.2498 31.3807 37.3555 31.3836 37.4625H31.3711ZM32.0711 37.0375C32.0711 37.1125 32.0586 37.1625 32.0336 37.1875C32.0086 37.225 31.9586 37.25 31.9086 37.2625L31.9336 37.4C31.945 37.4704 31.945 37.5421 31.9336 37.6125V37.7375H31.8836V37.6125C31.8784 37.5784 31.87 37.545 31.8586 37.5125C31.8466 37.479 31.8341 37.4456 31.8211 37.4125C31.8001 37.3606 31.775 37.3104 31.7461 37.2625L31.6461 37.1L31.7086 36.9L31.8086 37.0125L31.8961 37.0375C31.9836 37.0375 32.0211 37 32.0211 36.9125H32.0586C32.0579 36.9333 32.0579 36.9542 32.0586 36.975V37.0375H32.0711ZM32.6961 37.525L32.6461 37.7375L32.5711 37.6625C32.5524 37.6229 32.5397 37.5808 32.5336 37.5375C32.5294 37.4792 32.5294 37.4208 32.5336 37.3625C32.4969 37.3723 32.459 37.3765 32.4211 37.375C32.3711 37.375 32.3336 37.375 32.2961 37.3375C32.2805 37.3259 32.2679 37.3107 32.2593 37.2934C32.2506 37.276 32.2461 37.2569 32.2461 37.2375C32.2461 37.15 32.2711 37.075 32.3211 37.0125C32.3586 36.9375 32.4086 36.9 32.4711 36.9C32.5086 36.9 32.5461 36.9125 32.5586 36.9375L32.5961 37.0375V37.2375C32.5961 37.325 32.5961 37.3875 32.6211 37.4125C32.6211 37.45 32.6586 37.475 32.6961 37.525ZM32.5086 37.1625C32.5086 37.1125 32.4711 37.0875 32.4211 37.0875C32.4036 37.0872 32.3864 37.0915 32.3711 37.1C32.3461 37.1125 32.3461 37.125 32.3461 37.1375C32.3461 37.1625 32.3711 37.175 32.4461 37.175C32.4668 37.1774 32.4878 37.1774 32.5086 37.175V37.1625ZM33.3711 37.4625L33.3461 37.725C33.2961 37.6875 33.2461 37.625 33.2086 37.5375C33.1508 37.4042 33.1048 37.2662 33.0711 37.125C33.0424 37.2512 33.0091 37.3763 32.9711 37.5L32.8961 37.6625C32.8767 37.6926 32.8511 37.7181 32.8211 37.7375V37.4875L32.9211 37.3375C32.9534 37.2826 32.9786 37.2238 32.9961 37.1625C33.0138 37.08 33.0264 36.9965 33.0336 36.9125H33.0836L33.1711 37.1625C33.2152 37.2758 33.2834 37.3782 33.3711 37.4625" fill="#F5F5F5"/>
<path id="Vector_70" d="M35.3086 39.9C35.3461 39.9375 35.3711 39.975 35.3836 40.025L35.4086 40.175H35.3336C35.3093 40.1262 35.28 40.0801 35.2461 40.0375C35.2064 39.9939 35.1647 39.9522 35.1211 39.9125L34.9586 39.7625C34.894 39.7058 34.8273 39.6516 34.7586 39.6L34.6961 39.55L34.6711 39.475C34.663 39.4212 34.6588 39.3669 34.6586 39.3125L34.9211 39.525C35.0073 39.5968 35.0906 39.6719 35.1711 39.75L35.3086 39.9V39.9ZM34.3586 39.325L34.3461 39.525L34.0336 39.5125L34.0586 39.3125H34.3586V39.325ZM35.1961 40.2L34.4461 40.4375L34.2961 40.2375L34.9461 40.05C34.9273 40.0194 34.9064 39.9902 34.8836 39.9625L34.7961 39.9C34.7952 39.9192 34.7903 39.9381 34.7817 39.9553C34.7731 39.9725 34.761 39.9878 34.7461 40C34.7182 40.0285 34.6839 40.0499 34.6461 40.0625C34.5888 40.0779 34.5284 40.0779 34.4711 40.0625C34.4086 40.0625 34.3711 40.025 34.3461 39.9875C34.305 39.9243 34.2833 39.8504 34.2836 39.775C34.2836 39.675 34.3086 39.6125 34.3586 39.5875C34.4336 39.5625 34.5336 39.5875 34.6711 39.65C34.7899 39.7077 34.8929 39.7935 34.9711 39.9L35.1961 40.2V40.2ZM34.6086 39.8C34.5845 39.7891 34.5594 39.7808 34.5336 39.775C34.5132 39.7691 34.4915 39.7691 34.4711 39.775C34.4602 39.7763 34.4498 39.7805 34.4411 39.7871C34.4323 39.7936 34.4254 39.8024 34.4211 39.8125C34.4167 39.8201 34.4144 39.8287 34.4144 39.8375C34.4144 39.8463 34.4167 39.8549 34.4211 39.8625L34.4711 39.8875H34.5336C34.5489 39.8782 34.5618 39.8653 34.5711 39.85L34.6086 39.8ZM33.8086 39.65L33.7586 39.85L33.4461 39.8125L33.4961 39.625L33.8086 39.65ZM34.5586 40.4L34.3836 40.45C34.3257 40.4598 34.2665 40.4598 34.2086 40.45C34.1564 40.4488 34.1052 40.436 34.0586 40.4125C34.0336 40.4625 33.9836 40.5 33.9211 40.5375C33.869 40.5604 33.8145 40.5772 33.7586 40.5875L33.6336 40.625L33.5336 40.425L33.6586 40.4L33.7836 40.3625L33.8586 40.3125C33.8309 40.2934 33.8016 40.2766 33.7711 40.2625C33.748 40.2506 33.7218 40.2463 33.6961 40.25C33.688 40.2471 33.6792 40.2471 33.6711 40.25C33.6673 40.2622 33.6673 40.2753 33.6711 40.2875H33.6086C33.5586 40.2 33.5461 40.1375 33.5711 40.0875C33.6086 40.0375 33.6711 40 33.7711 39.975C33.8711 39.95 33.9586 39.95 34.0336 39.975C34.1086 39.975 34.1586 40.0125 34.1836 40.05C34.1961 40.075 34.2086 40.1 34.1961 40.125C34.1961 40.15 34.1961 40.1875 34.1586 40.25C34.1992 40.2634 34.243 40.2634 34.2836 40.25L34.4461 40.2125L34.5461 40.4125L34.5586 40.4ZM33.7461 40.6L33.5836 40.625C33.4961 40.625 33.4211 40.625 33.3586 40.575C33.2819 40.5087 33.2256 40.422 33.1961 40.325L33.1211 40.1125C33.1091 40.0643 33.083 40.0208 33.0461 39.9875L32.9461 39.95L33.0086 39.7375L33.1461 39.85L33.2461 40.0125L33.2961 40.1625C33.3232 40.2409 33.3657 40.3132 33.4211 40.375C33.4461 40.4125 33.4711 40.425 33.5086 40.4125L33.6711 40.3875L33.7461 40.6V40.6ZM33.0586 39.85L32.9461 40.0375L32.6586 39.9625L32.7586 39.775L33.0586 39.85ZM33.2336 40.6875L32.4836 40.75L32.4461 40.55L33.0711 40.4875C33.0537 40.4526 33.0279 40.4226 32.9961 40.4C32.9645 40.3766 32.931 40.3557 32.8961 40.3375L32.9586 40.15C33.0211 40.1875 33.0836 40.225 33.1086 40.275C33.1336 40.325 33.1711 40.4 33.1836 40.4875L33.2336 40.6875V40.6875ZM32.6336 40.7875C32.5581 40.7844 32.4829 40.7761 32.4086 40.7625C32.3531 40.7503 32.2988 40.7336 32.2461 40.7125C32.206 40.7298 32.1641 40.7424 32.1211 40.75H31.7461C31.6836 40.75 31.6461 40.75 31.6211 40.725L31.5461 40.625C31.4992 40.6661 31.4437 40.696 31.3836 40.7125C31.3312 40.7297 31.2763 40.7382 31.2211 40.7375H31.0461L31.0711 40.5125L31.2336 40.525C31.3211 40.525 31.3961 40.525 31.4461 40.4875C31.5211 40.45 31.5711 40.3875 31.5711 40.3125H31.6461C31.641 40.3541 31.6368 40.3957 31.6336 40.4375C31.6336 40.475 31.6336 40.5 31.6711 40.5125L31.7586 40.5375H32.1211C32.1711 40.5125 32.1961 40.475 32.2086 40.4125L32.2211 40.375C32.237 40.3652 32.2537 40.3569 32.2711 40.35L32.3211 40.3375V40.4125L32.2836 40.5125C32.3518 40.5388 32.4233 40.5556 32.4961 40.5625C32.4961 40.55 32.4961 40.525 32.4711 40.5C32.4711 40.4625 32.4461 40.45 32.4461 40.4375C32.4478 40.4281 32.4521 40.4195 32.4586 40.4125L32.4961 40.3875L32.5961 40.3L32.6336 40.3875C32.6336 40.4125 32.6461 40.45 32.6336 40.4875L32.6211 40.7875H32.6336ZM31.4961 39.9125L31.3086 40.0375L31.1711 39.9625L31.0336 40.0625L30.8461 39.95L31.0211 39.825L31.1711 39.9125L31.3086 39.8L31.4961 39.925V39.9125ZM31.1961 40.725L30.4711 40.6L30.5586 40.4L31.1586 40.5C31.1691 40.4675 31.1691 40.4325 31.1586 40.4C31.1403 40.373 31.1193 40.3479 31.0961 40.325L31.2586 40.1625C31.2961 40.2125 31.3211 40.2625 31.3211 40.3125C31.3211 40.3625 31.3211 40.4375 31.2711 40.525L31.1961 40.725V40.725ZM30.5836 40.625L30.4336 40.5875C30.3461 40.575 30.2961 40.5375 30.2836 40.475C30.2711 40.4125 30.2961 40.325 30.3711 40.2L30.4961 39.9875L30.5211 39.875L30.4836 39.8L30.7086 39.65L30.7336 39.7875C30.7336 39.8375 30.7086 39.9 30.6586 39.9625L30.5836 40.1125C30.5383 40.1756 30.5084 40.2483 30.4961 40.325C30.4961 40.3625 30.5086 40.3875 30.5461 40.3875L30.6961 40.425L30.5836 40.625V40.625ZM30.2086 39.8375L29.9586 39.95L29.7836 39.775L30.0336 39.675L30.2211 39.8375H30.2086ZM30.1086 40.5C30.0685 40.5556 30.0175 40.6024 29.9586 40.6375C29.9086 40.675 29.8461 40.6875 29.7836 40.7C29.7048 40.7108 29.6249 40.7108 29.5461 40.7C29.4522 40.6839 29.3601 40.6588 29.2711 40.625C29.1428 40.5895 29.0264 40.5204 28.9336 40.425C28.8711 40.35 28.8711 40.275 28.9336 40.2C28.9859 40.1351 29.0494 40.0801 29.1211 40.0375C29.2416 39.9768 29.367 39.9266 29.4961 39.8875L29.5461 39.9375C29.4211 39.9875 29.3211 40.025 29.2711 40.0625C29.2243 40.0836 29.182 40.1133 29.1461 40.15C29.1086 40.2 29.1086 40.25 29.1586 40.3125C29.3371 40.4532 29.5564 40.5321 29.7836 40.5375C29.9086 40.5375 29.9836 40.5 30.0211 40.4625L30.0711 40.375L30.0836 40.2L30.3336 40.05L30.3211 40.2C30.3086 40.25 30.2711 40.3 30.2211 40.3625L30.1086 40.5" fill="#BF0000"/>
</g>
</g>
<defs>
<clipPath id="clip0_2909_185492">
<path d="M0.246094 32C0.246094 14.3269 14.573 0 32.2461 0V0C49.9192 0 64.2461 14.3269 64.2461 32V32C64.2461 49.6731 49.9192 64 32.2461 64V64C14.573 64 0.246094 49.6731 0.246094 32V32Z" fill="white"/>
</clipPath>
</defs>
</svg>
