<svg width="65" height="64" viewBox="0 0 65 64" fill="none" xmlns="http://www.w3.org/2000/svg">
<g id="Rounded=Antigua and Barbuda (AG)">
<g clip-path="url(#clip0_2909_185507)">
<g id="Group">
<path id="Vector" fill-rule="evenodd" clip-rule="evenodd" d="M-14.7539 0.00332642H80.6549V63.9396H-14.7539V0.00332642Z" fill="#F5F5F5"/>
<path id="Vector_2" fill-rule="evenodd" clip-rule="evenodd" d="M-14.5474 0.0859375H80.5723V27.0978H-14.5474V0.0859375Z" fill="black"/>
<path id="Vector_3" fill-rule="evenodd" clip-rule="evenodd" d="M2.90979 25.4044H66.0338V39.64H2.90979V25.4044Z" fill="#0061FF"/>
<path id="Vector_4" fill-rule="evenodd" clip-rule="evenodd" d="M80.586 0.223602V64.0084H33.0193L80.586 0.223602ZM-14.5887 0.223602V64.0084H33.0055L-14.5887 0.223602V0.223602Z" fill="#E20000"/>
<path id="Vector_5" fill-rule="evenodd" clip-rule="evenodd" d="M55.2951 25.4181L45.7542 22.995L53.877 16.8823L43.8956 18.3003L49.0309 9.6268L40.2059 14.7483L41.7616 4.62919L35.7865 12.6143L33.3635 3.34882L30.665 12.8897L24.6899 4.76687L26.3971 15.1751L17.5721 9.76447L22.6936 18.438L13.0151 16.8823L20.9865 22.8574L11.0188 25.4181H55.2951V25.4181Z" fill="#FFD600"/>
</g>
</g>
</g>
<defs>
<clipPath id="clip0_2909_185507">
<path d="M0.246094 32C0.246094 14.3269 14.573 0 32.2461 0V0C49.9192 0 64.2461 14.3269 64.2461 32V32C64.2461 49.6731 49.9192 64 32.2461 64V64C14.573 64 0.246094 49.6731 0.246094 32V32Z" fill="white"/>
</clipPath>
</defs>
</svg>
