<svg width="65" height="64" viewBox="0 0 65 64" fill="none" xmlns="http://www.w3.org/2000/svg">
<g id="Rounded=Angola (AO)">
<g clip-path="url(#clip0_2909_185426)">
<g id="Group">
<path id="Vector" fill-rule="evenodd" clip-rule="evenodd" d="M0.246094 0H64.2461V32.475H0.246094V0Z" fill="#FF0000"/>
<path id="Vector_2" fill-rule="evenodd" clip-rule="evenodd" d="M0.246094 31.525H64.2461V64H0.246094V31.525Z" fill="black"/>
</g>
<path id="Vector_3" fill-rule="evenodd" clip-rule="evenodd" d="M28.8335 18.525C49.4835 23.9375 36.2085 50.475 19.921 39.425L18.821 41.125C28.4085 47.95 37.896 42.45 40.571 35.325C43.346 27.975 39.621 17.6375 28.996 16.575L28.8335 18.525V18.525Z" fill="#FFEC00"/>
<path id="Vector_4" fill-rule="evenodd" clip-rule="evenodd" d="M21.4962 41.35L24.2087 42.6125L22.9337 45.3375L20.2212 44.0625L21.4962 41.35ZM40.1212 28.9125H43.1212V31.9125H40.1212V28.9125ZM38.6587 24.05L41.4462 22.975L42.5337 25.7625L39.7462 26.85L38.6587 24.05ZM35.4087 20.4125L37.5462 18.3L39.6587 20.425L37.5337 22.5375L35.4087 20.4125ZM32.1337 15.4375L34.9337 16.4875L33.8712 19.2875L31.0712 18.2375L32.1337 15.4375ZM39.7462 33.75L42.5337 34.8625L41.4087 37.6375L38.6337 36.525L39.7462 33.75ZM31.0087 42.5L33.7587 41.3375L34.9462 44.0875L32.1962 45.2625L31.0087 42.5ZM26.0712 42.85H29.0712V45.85H26.0712V42.85ZM31.2337 28.35L28.6962 26.475L26.1587 28.3L27.1587 25.425L24.6212 23.55H27.6837L28.7462 20.725L29.7212 23.5625L32.8087 23.525L30.3587 25.4375L31.2337 28.3625V28.35Z" fill="#FFEC00"/>
<path id="Vector_5" fill-rule="evenodd" clip-rule="evenodd" d="M42.2462 43.3C42.0962 43.35 41.4712 44.85 41.0337 45.575L41.4962 45.7C43.1962 46.3 44.0462 46.85 44.7712 47.8875C44.9389 48.0508 45.1591 48.1493 45.3926 48.1653C45.6262 48.1813 45.8578 48.1139 46.0462 47.975C46.0462 47.975 46.3962 47.85 46.8462 47.35C47.2212 46.7875 47.1212 46.35 46.6712 45.9625C45.2962 44.9625 43.8087 44.2125 42.2462 43.3V43.3Z" fill="#FFEE00"/>
<path id="Vector_6" fill-rule="evenodd" clip-rule="evenodd" d="M45.9085 46.6C45.9085 46.7442 45.8512 46.8825 45.7492 46.9845C45.6473 47.0865 45.509 47.1438 45.3647 47.1438C45.2205 47.1438 45.0822 47.0865 44.9803 46.9845C44.8783 46.8825 44.821 46.7442 44.821 46.6C44.821 46.4575 44.8776 46.3207 44.9784 46.2199C45.0792 46.1191 45.2159 46.0625 45.3585 46.0625C45.501 46.0625 45.6378 46.1191 45.7386 46.2199C45.8394 46.3207 45.896 46.4575 45.896 46.6H45.9085ZM43.2335 44.9C43.2335 45.0442 43.1762 45.1825 43.0742 45.2845C42.9723 45.3865 42.834 45.4438 42.6897 45.4438C42.5455 45.4438 42.4072 45.3865 42.3053 45.2845C42.2033 45.1825 42.146 45.0442 42.146 44.9C42.146 44.7558 42.2033 44.6175 42.3053 44.5155C42.4072 44.4135 42.5455 44.3563 42.6897 44.3563C42.834 44.3563 42.9723 44.4135 43.0742 44.5155C43.1762 44.6175 43.2335 44.7558 43.2335 44.9ZM44.596 45.775C44.596 45.9192 44.5387 46.0575 44.4367 46.1595C44.3348 46.2615 44.1965 46.3188 44.0522 46.3188C43.908 46.3188 43.7697 46.2615 43.6678 46.1595C43.5658 46.0575 43.5085 45.9192 43.5085 45.775C43.5085 45.6308 43.5658 45.4925 43.6678 45.3905C43.7697 45.2885 43.908 45.2313 44.0522 45.2313C44.1965 45.2313 44.3348 45.2885 44.4367 45.3905C44.5387 45.4925 44.596 45.6308 44.596 45.775V45.775Z" fill="black"/>
<path id="Vector_7" fill-rule="evenodd" clip-rule="evenodd" d="M40.8086 45.4625C35.4836 42.425 29.8961 39.15 24.5586 36.1125C22.2211 34.65 22.1086 31.9375 23.6836 29.875C23.8336 29.5875 24.0336 29.65 24.1086 29.8125C24.2961 30.8125 24.8586 31.85 25.5336 32.5C31.0737 35.985 36.5618 39.552 41.9961 43.2C41.5711 43.925 41.2461 44.7375 40.8086 45.45V45.4625Z" fill="#FFEE00"/>
<path id="Vector_8" fill-rule="evenodd" clip-rule="evenodd" d="M37.396 38.1875L39.621 40.1875L37.621 42.4125L35.396 40.4125L37.396 38.1875Z" fill="#FFEC00"/>
<path id="Vector_9" d="M36.7711 43.35L31.4086 40.25M41.6836 43.6L26.0586 34.1625L41.6836 43.6ZM39.7586 41.425L34.4961 38.0125L39.7586 41.425Z" stroke="black" stroke-width="0.375"/>
</g>
</g>
<defs>
<clipPath id="clip0_2909_185426">
<path d="M0.246094 32C0.246094 14.3269 14.573 0 32.2461 0V0C49.9192 0 64.2461 14.3269 64.2461 32V32C64.2461 49.6731 49.9192 64 32.2461 64V64C14.573 64 0.246094 49.6731 0.246094 32V32Z" fill="white"/>
</clipPath>
</defs>
</svg>
