<svg width="65" height="64" viewBox="0 0 65 64" fill="none" xmlns="http://www.w3.org/2000/svg">
<g id="Rounded=Antarctica (AQ)">
<g clip-path="url(#clip0_2909_185335)">
<path id="Vector" d="M0.246094 0H64.2461V64H0.246094V0Z" fill="#3A7DCE"/>
<path id="Vector_2" d="M13.7085 30.1125C13.271 29.125 13.271 29.125 13.271 28.15C13.046 28.15 13.0085 28.2 12.8835 28.15C12.7585 28.1125 12.7085 29.0625 12.296 28.875C12.2335 28.7875 12.596 28.1 12.196 27.825C12.071 27.725 12.2335 27.1625 12.171 26.925C12.171 26.925 11.671 27.2125 11.296 26.1875C11.121 25.925 10.871 26.4375 10.871 26.4375C10.871 26.4375 10.9835 26.75 10.7835 26.8125C10.496 26.5875 10.296 26.7125 9.94604 26.4C9.58354 26.0875 10.021 25.725 9.34605 25.45C9.78355 24.225 9.78355 24.475 10.871 23.975C10.221 23.4875 10.221 23.4875 9.78355 22.75C9.12105 22.5 8.90854 22.2625 8.25854 21.775C7.38354 20.55 6.94604 18.1 6.94604 16.375C7.49604 15.8 8.25855 18.3375 9.34605 19.075L10.871 19.8125C11.746 20.3125 11.9585 20.7875 12.621 21.2875L14.571 22.025C15.446 22.75 15.8835 23.7375 16.5335 23.975C17.246 23.975 17.3835 23.525 17.6085 23.4875C18.8835 23.425 19.546 23.2375 19.796 22.8C20.046 22.45 20.671 23 22.421 22.2625L22.196 21.2875C22.196 21.2875 22.671 20.85 23.296 21.0375C23.271 20.5875 23.2335 19.4 23.846 18.85C23.471 18.4125 23.721 18.1 23.721 18.1C23.721 18.1 24.071 17.725 24.121 17.525C23.9335 16.4375 24.271 16.425 24.3585 16.1125C24.4335 15.7875 24.0585 15.9 24.1585 15.4625C24.271 15.025 24.9085 14.9125 24.9835 14.55C25.071 14.2 24.796 14.0125 24.821 13.925C24.946 13.5875 24.8335 12.775 24.821 12.4625C25.9835 12.1 26.371 11.0375 26.7835 11.475C26.996 9.99999 27.221 9.51249 28.5335 9.51249C28.7085 9.06249 28.046 8.67499 28.3085 8.53749C28.746 8.47499 29.071 8.49999 29.5835 9.24999C29.746 9.48749 29.771 8.89999 29.9335 8.83749C30.1085 8.77499 30.496 8.77499 30.5585 8.48749C30.6085 8.18749 30.696 7.79999 30.921 7.31249C31.1085 6.91249 31.246 7.46249 31.421 8.23749C32.3335 8.27499 34.4085 8.51249 35.2835 8.77499C35.9335 8.97499 36.371 8.58749 36.996 8.51249C37.4585 9.03749 37.896 8.63749 38.1335 9.76249C38.4835 10.35 39.046 9.79999 39.171 9.98749C39.9085 12.2375 42.421 10.7125 42.596 10.75C42.921 10.75 43.3085 11.7625 43.5585 11.75C43.971 11.6625 43.8585 11.35 44.2085 11.475C44.121 12.325 44.921 13.3125 44.921 13.9375C44.921 13.9375 45.1085 14.05 45.296 13.8625C45.471 13.675 45.6335 13.1875 45.796 13.2C46.171 13.2625 46.3335 13.325 46.771 13.4C47.946 13.8625 48.5585 13.9625 49.021 14.1875C49.221 14.6375 49.4335 14.8625 49.871 14.775C50.221 15.05 49.9585 15.4 50.171 15.425C50.6085 15.175 50.7585 14.9125 51.1835 15.15C51.621 15.4 52.0585 15.9 52.2835 16.375C52.2835 16.625 52.0585 17.6 52.2835 19.075C52.3835 19.575 52.446 19.95 52.9085 20.8C52.7835 21.6625 53.496 23.1125 53.496 23.4875C53.496 23.975 53.146 24.2375 52.9335 24.7125C53.8085 25.4625 52.9335 26.675 52.496 27.4125C55.771 28.15 54.246 29.625 56.8585 28.8875C56.196 30.6 56.4335 30.4625 57.0835 32.175C55.7835 33.1625 57.0585 33.4625 56.1835 34.675C56.1335 34.7625 56.7085 35.75 57.5085 35.75C57.296 37.7125 56.6335 36.975 56.8585 39.9125C55.1335 39.875 55.8335 42.1125 54.671 41.875C54.746 43.2875 55.3335 43.4 55.1085 44.825C54.2335 45.075 54.2335 45.075 53.8085 45.8L53.146 45.55C52.9335 46.7875 52.496 47.025 53.146 48.25C53.146 48.25 52.3085 48.2875 52.0585 48.25C52.046 48.675 52.4335 48.7875 52.496 49.2375C52.4585 49.4125 51.246 50.1875 50.321 50.2125C50.071 50.825 50.971 51.4625 50.921 51.775C49.896 51.9875 49.446 53.4 49.446 53.4C49.446 53.4 49.971 53.65 49.8835 53.9C49.596 53.6625 49.446 53.65 49.0085 53.65C48.796 53.7125 48.2585 53.6375 47.7585 54.6C47.196 54.8125 46.9335 54.725 46.5085 55.3625C46.321 54.7625 46.046 55.3625 45.721 55.6125C45.3835 55.8375 44.946 56.4125 44.8835 56.3875C44.896 56.225 45.0835 55.6125 45.0835 55.6125L43.996 55.8625H43.871C43.771 55.875 43.796 55.15 43.596 55.175C43.3835 55.2125 42.796 56.0875 42.596 56.125C42.396 56.15 42.3335 55.8375 42.1585 55.875C41.9835 55.8875 41.646 56.8 41.5335 56.825C41.4085 56.85 40.9085 56.275 40.496 56.35C38.346 57.2 38.0085 54.675 37.671 56.1C37.221 55.8375 37.296 55.9875 36.846 56.125C36.5585 56.2125 36.5335 55.6875 36.271 55.7C35.746 55.7125 35.771 56.2625 35.496 56.1C35.271 54.95 33.871 55.1625 33.7335 54.6625C33.621 54.1625 34.3335 54.1625 34.571 53.8125C34.746 53.3125 34.3835 53.125 35.1085 52.6375C36.0335 51.925 35.496 51.6625 35.6585 51.125C35.9585 50.35 35.9585 50.1625 35.7085 49.475C35.7085 49.475 34.9835 47.275 34.8335 47.275C34.4085 47.1375 34.4085 48.0875 33.771 48.35C32.4585 48.8375 30.146 47.1 29.746 47.1C29.371 47.1125 27.6835 47.5625 27.746 46.6C27.496 47.5375 26.546 46.825 26.496 46.825C25.621 46.825 25.9585 47.575 25.371 47.55C25.1085 47.45 22.421 47.275 22.421 47.275V47.775L20.671 46.775L19.146 46.2875C17.846 45.8 18.496 44.575 16.321 45.3125V43.8375H15.2335C15.6585 40.9 15.2335 42.375 15.0085 39.675L14.1335 39.925C13.2585 38.5875 15.346 38.85 13.4835 37.95C13.4835 37.95 13.521 36.4875 13.046 36.975C12.9585 37.0375 13.271 37.7125 13.271 37.7125C11.521 37.4625 11.0835 36.975 11.0835 35.0125C11.0835 35.0125 12.521 35.25 12.396 35.0125C12.196 34.6375 11.921 32.2625 11.971 32.1C11.946 31.775 13.3085 30.9625 13.046 30.1875C13.2085 30.1125 13.7085 30.1125 13.7085 30.1125" fill="#F5F5F5"/>
<path id="Vector_3" d="M58.0279 37.2499C57.9634 37.4072 57.9741 37.5645 58.0386 37.6854C58.1569 37.4798 58.0601 37.3951 58.0386 37.2499H58.0279ZM6.84538 19.1774C6.84538 19.1774 6.5228 19.129 6.58731 19.4556C6.69484 19.2137 6.83462 19.1895 6.84538 19.1774ZM6.81312 18.4032C6.63032 18.4032 6.40452 18.379 6.49054 18.7056C6.59807 18.4516 6.81312 18.4153 6.81312 18.4032ZM8.1787 22.7943C8.1787 22.7943 8.45827 22.7701 8.39375 23.0967C8.28623 22.8548 8.1787 22.8064 8.1787 22.7943Z" stroke="#F5F5F5" stroke-width="0.285123" stroke-linejoin="round"/>
</g>
</g>
<defs>
<clipPath id="clip0_2909_185335">
<path d="M0.246094 32C0.246094 14.3269 14.573 0 32.2461 0V0C49.9192 0 64.2461 14.3269 64.2461 32V32C64.2461 49.6731 49.9192 64 32.2461 64V64C14.573 64 0.246094 49.6731 0.246094 32V32Z" fill="white"/>
</clipPath>
</defs>
</svg>
