<svg width="65" height="64" viewBox="0 0 65 64" fill="none" xmlns="http://www.w3.org/2000/svg">
<g id="Rounded=American Samoa (AS)">
<g clip-path="url(#clip0_2909_185405)">
<path id="Vector" d="M0.246094 0H64.2461V64H0.246094V0Z" fill="#000066"/>
<path id="Vector_2" d="M0.246094 32L64.2461 0V64L0.246094 32Z" fill="#BD1021"/>
<path id="Vector_3" d="M5.42114 32L64.1711 3.42499V60.575" fill="#F5F5F5"/>
<path id="Vector_4" d="M42.1076 36.064C42.7816 36.1049 42.7612 36.7789 42.7612 36.7789L45.1712 36.8401C45.4774 35.9926 45.8043 36.0946 46.3863 36.5134C46.7445 36.7571 47.1369 36.9464 47.5506 37.075C47.7854 35.87 49.4908 36.115 49.4908 36.115C50.2261 34.379 50.2873 34.3995 49.8482 34.1749C49.5885 34.0443 49.3747 33.8377 49.2354 33.5825C48.8269 33.0821 48.6126 32.3674 48.5614 31.9282C48.5104 31.4891 47.9998 32.1426 47.9079 32.0099C47.8161 31.8669 47.0604 31.9486 47.0604 31.9486C47.2442 32.1529 46.6111 32.0304 46.6111 32.0304C46.6723 32.0814 46.6111 32.2652 46.6111 32.2652C46.5498 32.1835 46.0596 32.1017 46.0596 32.1017C46.0187 32.2039 45.9064 32.3162 45.9064 32.3162C45.6409 32.2141 45.1202 32.2244 45.1202 32.2244C44.6083 32.2045 44.1014 32.3321 43.6598 32.5919C43.4453 32.7145 42.6692 33.1026 42.0259 33.7255C41.3928 34.3382 41.0353 34.2667 41.0353 34.2667C40.8516 34.9611 39.3299 35.7985 39.3299 35.7985C39.0849 36.013 38.3189 36.1151 37.9309 35.7985C37.5429 35.4717 37.9309 34.8794 37.9309 34.8794C38.0841 34.6139 38.2168 34.6241 38.2372 33.6846C38.2474 33.0515 38.9009 32.5409 39.5751 31.8056C40.4022 30.8969 41.5562 29.4059 41.5562 29.4059C41.5562 29.8654 41.8114 29.9369 41.8114 29.9369C42.0361 29.4774 42.3629 29.0995 42.3629 29.0995C42.3833 29.1404 42.4343 29.1607 42.4343 29.1607C42.6897 28.8136 42.8428 28.6807 42.8428 28.6807C42.7612 28.64 42.0361 28.6807 41.3723 29.2629C40.6983 29.845 40.2491 29.651 40.2491 29.651C39.7793 29.4977 39.7384 29.1404 39.7384 29.1404C39.4014 27.6801 40.7289 26.6385 40.7289 26.6385C38.9419 26.2095 40.2286 23.9322 42.4548 22.9622C44.6708 22.0022 44.6503 21.5631 44.6503 21.5631C44.7831 21.7164 44.8853 21.9716 44.8853 21.9716C44.9057 21.9614 45.0691 21.7164 46.3557 21.1546C47.6322 20.5827 48.2449 20.0926 48.2449 20.0926C48.4083 20.4092 48.3777 20.6339 48.3777 20.6339C51.8803 19.4085 55.3218 16.59 55.3218 16.59C55.4238 16.8249 55.3728 17.1822 55.3728 17.1822C55.9447 16.6512 58.0074 15.4259 58.0074 15.4259C58.0381 16.2121 57.3948 16.5084 57.3948 16.5084C57.4662 16.6206 57.4969 16.8249 57.4969 16.8249C58.147 16.4148 58.7871 15.9892 59.4167 15.5484C59.9988 16.0487 59.4779 16.8555 59.4779 16.8555C59.6822 16.8249 59.8252 16.6512 59.8252 16.6512C59.9783 17.4987 59.0389 18.2442 59.0389 18.2442C59.2023 18.2442 59.4779 18.0809 59.4779 18.0809C59.2942 19 57.5479 20.0211 57.5479 20.0211C57.8032 20.2561 57.5582 20.5521 57.3437 20.6951C57.1394 20.8279 56.7718 21.124 56.8842 21.2466C56.9964 21.3691 57.7726 20.8176 57.7726 20.8176C57.9053 21.2057 56.9148 21.9716 56.9148 21.9716C57.6092 22.0635 59.5291 21.1854 59.5291 21.1854C59.3758 21.9307 58.6508 22.5129 57.7522 22.8499C56.8534 23.1869 56.9047 23.2379 56.9047 23.2379C57.0578 23.3604 58.2934 23.003 58.2934 23.003C57.9258 23.8301 56.6391 24.402 56.6391 24.402C56.9863 24.7084 57.4766 24.351 57.9564 24.0242C58.5386 23.6567 59.167 23.3682 59.8252 23.1664C60.5401 22.9214 61.0608 23.1051 61.0608 23.1051C61.6736 22.9111 62.1842 23.1869 62.1842 23.1869C63.3381 23.2787 63.4606 23.6974 63.4606 23.6974C63.5831 23.7281 63.6853 23.7791 63.9814 24.0037C64.2776 24.2182 64.2572 24.8922 64.2469 25.2292C64.2367 25.556 64.1448 25.556 64.0836 25.6377C64.0324 25.7397 64.0223 25.8419 64.0223 25.9645C64.0223 26.0972 63.7261 26.8835 61.9288 26.8835H59.2126C59.0593 26.8835 58.8857 26.9755 58.8857 26.9755C58.1301 27.3532 58.5282 26.7201 57.6297 27.4555C56.7309 28.2009 56.2714 28.068 56.2714 28.068C55.7702 28.5858 55.2233 29.0575 54.6376 29.4774C54.1066 29.8245 54.1984 29.7836 54.6682 29.988C55.1379 30.1924 55.8426 29.988 55.8426 29.988C55.3932 30.2942 55.7098 30.4372 55.7098 30.4372C56.3021 30.0697 56.6698 30.2024 56.6698 30.2024C56.8536 30.7232 56.1693 31.5504 56.1693 31.5504C56.4348 31.581 56.9352 31.5504 56.9352 31.5504C56.8127 31.8976 56.3226 32.2856 55.9549 32.3979C55.5873 32.5204 55.6486 32.5716 55.7608 32.786C55.8629 33.0106 55.7813 33.2354 55.7813 33.2354C55.1379 32.7962 55.1176 33.1842 55.1176 33.1842C55.0461 33.7051 55.0563 34.4607 55.0563 34.4607C54.6069 34.2361 54.5864 34.5322 54.5864 34.5322C54.4639 35.0122 53.9126 35.5535 53.9126 35.5535C53.8921 35.2675 53.6163 35.1857 53.6163 35.1857C53.3304 35.7372 52.7994 36.0742 52.7994 36.0742C52.7382 36.544 52.8709 37.218 52.8709 37.218C52.5237 37.1465 52.4012 37.1465 52.3501 37.2281C52.2991 37.3099 52.4216 37.3506 52.4216 37.3506L56.8741 37.4631C56.9353 37.4631 57.2007 37.5039 57.2007 37.9736C57.2109 38.4637 56.8127 38.4842 56.8127 38.4842L51.9518 38.3719C51.9518 38.3719 51.9723 38.5046 51.7169 38.6374C51.4616 38.7701 51.5536 38.4842 51.4821 39.0867C51.4106 39.679 50.4404 39.0356 50.4404 39.0356C50.2873 39.2706 49.9094 39.5769 49.9094 39.5769C49.6848 38.9131 49.4602 38.7089 49.1129 39.2807C48.7657 39.8526 49.7461 39.7505 49.7461 39.7505C49.7461 39.7505 55.4546 38.9131 55.7711 38.8825C56.0773 38.8519 56.4144 38.8722 56.5573 39.3012C56.6902 39.7402 55.8629 39.8117 55.8629 39.8117L50.0013 40.4449C49.8788 40.7921 49.3887 40.7716 49.3887 40.7716C49.4294 41.0985 49.0823 41.3129 48.9087 41.4252C48.7249 41.5477 48.1632 41.4967 48.1632 41.4967C47.4892 41.9562 47.1523 41.5989 47.1523 41.5989C46.7132 41.7826 46.4373 41.701 46.0698 41.5477C45.7022 41.3844 45.7328 40.9452 45.7328 40.9452L42.0361 41.3334C41.9271 41.3717 41.8266 41.4306 41.7399 41.507C41.8727 41.6805 41.4744 42.0686 41.4744 42.0686C41.5868 42.1401 41.8012 42.3545 41.8319 42.814C41.8624 43.3042 41.2294 43.3859 41.5459 43.7331C41.8522 44.0701 42.4343 43.7842 43.0777 43.4779C43.7108 43.1715 44.3439 43.2124 44.6094 43.2124C44.8852 43.2124 45.6511 43.4165 46.1208 43.5799C46.6008 43.7434 46.7642 43.6411 46.7948 43.3961C46.8254 43.1612 47.0398 43.0899 47.0398 43.0899C46.9786 43.3246 47.1114 43.437 47.1114 43.437C47.2952 43.437 47.6118 43.2634 47.6118 43.2634C47.5812 43.4471 47.3463 43.5596 47.3463 43.5596C46.8867 43.8659 47.5199 43.7535 47.5199 43.7535C48.7963 43.488 49.2559 43.5186 49.5827 43.5494C50.2298 43.7447 50.8641 43.98 51.4821 44.2539C51.5332 44.0905 51.5026 43.7025 51.5026 43.7025C51.9008 43.8149 52.0642 44.0497 52.0642 44.0497C52.2173 43.8862 52.1152 43.6004 52.1152 43.6004C53.4019 44.3254 51.8497 44.6522 51.4311 44.7951C51.0226 44.9279 51.0226 45.1015 51.0226 45.1015C51.3698 44.9994 51.6047 44.9484 51.8906 44.9279C52.1764 44.9075 52.0743 44.9279 52.7586 44.7951C53.4428 44.6522 53.7899 44.9484 53.7899 44.9484C53.2181 44.979 53.0547 45.1526 53.0547 45.1526C53.4122 45.3875 53.0649 45.6019 53.0649 45.6019C52.5543 44.9484 52.1049 45.6224 52.1049 45.6224C52.3974 45.6222 52.6864 45.6849 52.9526 45.8061C53.0649 45.8776 53.3407 46.0104 53.6674 46.1636C54.1474 46.378 54.0554 46.2452 54.4231 46.378C54.7907 46.521 54.6478 46.8681 54.6478 46.8681C54.4946 46.5822 54.1576 46.4801 54.1576 46.4801C54.1269 46.8681 53.7388 46.9396 53.7388 46.9396C54.2188 46.4086 53.1876 46.1737 52.6973 46.184C52.2173 46.184 51.8598 46.5005 51.8598 46.5005C52.8301 47.4196 53.5041 47.1132 53.5041 47.1132C53.3816 47.4502 52.5849 47.3175 52.5849 47.3175C52.9526 47.6034 52.9117 47.7975 52.9117 47.7975C52.7076 47.6034 52.3909 47.6954 51.6863 47.2562C50.9919 46.7967 50.3689 46.9499 50.3689 46.9499C51.0532 47.6647 50.1239 48.1039 50.1239 48.1039C49.7767 48.308 50.2668 48.5634 50.2668 48.5634C49.8381 48.645 49.7768 48.2161 49.7768 48.2161C49.5521 48.1651 49.2253 48.4408 49.2253 48.4408C49.2457 48.0018 49.8278 48.2264 49.8379 47.7566C49.8584 47.2971 49.3069 46.9396 47.6629 47.1644C46.0086 47.3992 45.5286 46.8681 45.5286 46.8681C45.3856 46.8681 45.3652 47.0111 45.3652 47.0111C45.6307 47.2766 45.7532 47.3787 45.7124 47.5626C45.6613 47.7464 45.7941 47.8076 45.7941 47.8076C45.4878 47.7872 45.4673 47.4299 45.4673 47.4299C45.4673 47.583 45.4061 47.5933 45.3039 47.7464C45.2018 47.8995 45.3039 48.1039 45.3039 48.1039C45.1712 47.9914 44.9363 47.8587 45.1609 47.532C45.3243 47.2869 44.8034 46.9702 44.8034 46.9702C44.5993 46.766 44.0581 46.9601 44.0581 46.9601C42.9347 47.1745 42.2812 46.4699 42.2812 46.4699C42.1484 46.4699 41.9033 46.3984 41.9033 46.3984C40.7188 46.9295 39.6771 45.7857 39.6771 45.7857C38.7786 45.9491 38.3701 45.5202 38.1046 45.0912C37.952 44.7975 37.7083 44.561 37.4101 44.4174C37.0527 44.2131 36.7157 43.5901 37.0527 43.2634C37.3387 42.9775 37.2569 42.9161 37.2569 42.9161C36.7872 42.1299 38.0739 41.8849 38.1044 41.6907C38.1352 41.4252 38.4109 41.2516 38.6968 41.2312C38.9931 41.2107 38.9931 41.2312 39.1869 41.0475C39.3707 40.8431 39.7384 41.0882 39.7384 41.0882C39.8201 41.0372 40.4533 40.5369 41.0252 40.792C41.5969 41.0474 42.0667 40.8737 42.0667 40.8737C42.4752 40.7819 45.8042 40.3325 45.8042 40.3325C46.0086 40.0057 46.1719 39.6177 47.0909 39.4135C48.0099 39.2092 48.6942 38.617 48.6942 38.617C48.5308 38.4434 48.2552 38.4536 48.1224 38.4332C47.9794 38.423 47.6934 38.1676 47.6934 38.1676C47.5199 38.2494 47.4382 38.2085 46.2332 38.9439C45.1507 39.5974 45.1201 38.3004 45.1201 38.3004H42.7713C42.7306 38.8007 42.3629 38.9949 42.3629 38.9949L41.4948 39.0356C41.0252 38.7906 41.0148 37.943 41.0148 37.943C38.4313 37.9839 37.0017 38.903 37.0017 38.903C34.0708 37.412 31.7834 37.0647 31.7834 37.0647C35.3372 36.6869 37.2161 35.6964 37.2161 35.6964C38.3679 36.3957 39.6705 36.8089 41.0148 36.9014C41.0864 36.1865 41.5663 36.013 41.5663 36.013L42.1076 36.064Z" fill="black"/>
<path id="Vector_5" d="M37.8698 41.9563C37.1346 42.3851 37.2673 42.6303 37.3388 42.763C37.4 42.8958 37.4102 43.0285 37.206 43.2328C37.0018 43.437 37.0223 43.5085 37.0223 43.5085C37.0528 44.2233 37.5634 44.3765 37.7778 44.5603C37.9617 44.7033 38.2578 45.173 38.2578 45.173C38.6459 45.7143 39.044 45.7245 39.3403 45.7245C39.6465 45.7245 39.6161 45.6938 39.4628 45.561L39.0237 45.1935C39.3174 45.3224 39.5815 45.51 39.7999 45.7449C40.5555 46.572 41.2499 46.4598 41.5562 46.4291C41.8626 46.3883 41.8116 46.2044 41.8116 46.2044C41.7912 46.1738 41.5053 46.1534 41.5053 46.1534C40.3615 46.0513 40.0244 45.3059 40.0244 45.3059C40.6017 45.8113 41.3405 46.0937 42.1077 46.1023C42.4344 46.0819 42.4141 46.184 42.3427 46.2044C42.2711 46.2146 42.1792 46.2044 42.0261 46.184C41.8728 46.184 41.8728 46.2146 41.9036 46.2861C41.9443 46.3371 42.0873 46.3474 42.2609 46.3371C42.4447 46.3371 42.3017 46.3576 42.7714 46.715C43.2412 47.0826 44.4054 46.7865 44.4054 46.7865C43.6497 46.6028 43.5476 46.2555 43.5476 46.2555C42.5263 46.378 42.1077 45.7653 42.1077 45.7653C41.9239 45.5815 41.3724 45.2955 41.3724 45.2955C40.8006 45.0505 40.7087 44.5296 40.7087 44.5296C40.8721 44.7646 41.1887 45.03 41.5869 45.1424C41.9954 45.2445 42.0974 45.3058 42.0974 45.3058C41.9946 45.3273 41.8877 45.3166 41.7912 45.2751C41.3929 45.1526 41.6174 45.316 41.6174 45.316C42.0668 45.6735 42.1894 45.6428 42.1894 45.6428C43.3433 45.7653 42.7714 45.2955 42.7714 45.2955C43.5884 45.4998 43.7314 45.1934 43.7314 45.1934C43.9049 45.5509 44.5279 45.4181 44.5279 45.4181C43.7008 45.8266 44.3237 45.704 44.3237 45.704C45.1712 45.5509 45.3449 45.7653 45.3449 45.7653C45.5593 45.9695 45.7942 45.949 45.7942 45.949C45.7942 45.949 45.9473 45.949 46.2639 46.0104C46.5805 46.0716 47.0809 46.3474 47.5404 46.2963C47.9999 46.235 48.0817 46.378 48.0817 46.378C47.9897 46.3474 47.7854 46.3168 47.428 46.4801C47.0705 46.6435 46.4478 46.6844 45.5389 46.4801C44.6301 46.2759 44.5585 46.2964 44.5585 46.2964C44.773 46.4495 44.967 46.6844 45.0079 46.8376C45.0487 46.9908 45.212 47.0009 45.212 47.0009C45.2733 46.7968 45.5389 46.715 45.5389 46.715C45.7227 46.8784 46.2027 47.0929 46.2027 47.0929C46.2537 46.9908 46.2027 46.9091 46.2027 46.9091C46.5498 47.246 46.9583 47.1439 46.9583 47.1439C47.0604 47.0724 47.0298 46.8784 47.0298 46.8784C47.1728 46.8784 47.1932 46.9601 47.2953 47.0316C47.3974 47.0929 47.7038 47.052 47.7038 47.052C47.5914 47.0009 47.4996 46.8274 47.4996 46.8274C47.9693 46.5108 48.9599 46.6436 48.9599 46.6436C49.6747 46.7763 49.593 47.2461 49.593 47.2461C49.7359 47.3074 49.9301 47.532 49.9301 47.532C49.9913 47.3685 49.9301 47.195 49.9301 47.195C50.2669 47.3481 50.3384 47.7363 50.3384 47.7363C50.7163 47.2971 49.9709 46.8171 49.9709 46.8171C50.3283 46.766 50.7266 46.7968 50.9716 46.8274C51.2167 46.8681 51.5537 46.9908 51.8397 47.2358C52.1255 47.4605 52.6259 47.5728 52.6259 47.5728C52.6157 47.4706 52.3401 47.3073 52.2787 47.2766C52.2174 47.246 52.197 47.1541 52.197 47.1541C52.442 47.2051 52.6055 47.1745 52.6055 47.1745C51.7477 46.6435 51.523 46.3984 51.523 46.3984C51.8498 46.4393 52.0337 46.235 52.0337 46.235C51.3494 46.2453 51.3188 46.0716 51.3188 46.0716C51.4107 46.0921 51.7273 46.1738 52.1358 46.0921C52.5443 46.0105 53.1058 46.0921 53.1058 46.0921C52.8098 45.6121 51.666 45.6938 51.2983 45.7143C50.9308 45.7346 50.7878 45.6836 50.7878 45.6836C50.8491 45.6631 50.9103 45.6019 51.1963 45.5918C51.4822 45.5918 51.7682 45.6224 52.0949 45.3875C52.4114 45.173 52.8608 45.2445 52.8608 45.2445C52.7587 45.03 52.2379 44.9483 51.7885 45.2445C51.329 45.5304 50.9205 45.4488 50.9205 45.4488C51.6354 45.3466 51.8397 45.0913 51.8397 45.0913C51.6354 45.03 51.5128 45.1015 51.0737 45.1934C50.6449 45.2751 50.5324 45.122 50.5324 45.122C51.0023 44.8463 51.3392 44.7339 51.3392 44.7339C50.9308 44.642 50.5632 44.4684 50.5632 44.4684C50.1444 44.8666 49.8177 45.0811 49.0109 44.6726C48.2042 44.2438 47.7856 44.2948 47.7856 44.2948C48.5003 43.8863 49.2152 44.0599 49.7462 44.3765C50.2772 44.6828 50.4304 44.4378 50.4304 44.4378C50.2567 44.3356 50.2874 44.2335 50.2874 44.2335C51.5639 44.8871 52.1255 44.4888 52.4012 44.2948C52.6872 44.1008 52.2685 43.8455 52.2685 43.8455C52.248 44.2539 51.7273 44.4581 51.3085 44.3153C50.9002 44.1723 50.5223 43.9986 49.9301 43.7434C49.3377 43.4984 48.6026 43.631 47.9081 43.774C47.2137 43.917 47.1319 43.8455 47.0606 43.7944C46.9993 43.7434 46.9686 43.5698 46.6112 43.7128C46.2639 43.8659 45.4368 43.4778 44.9262 43.3553C44.4156 43.2328 43.5782 43.294 42.8532 43.6923C42.1383 44.1008 41.7707 43.9986 41.5563 43.8965C41.3418 43.7944 41.1988 43.529 41.4338 43.2838C41.6688 43.0385 41.689 42.9775 41.6685 42.62C41.6482 42.2729 41.301 42.0584 41.301 42.0584C41.6175 41.7316 41.6992 41.6499 41.5869 41.5171C41.4848 41.3743 41.6482 41.3743 41.8319 41.2925C42.0157 41.2108 41.934 41.2006 41.8932 41.0883C41.8524 40.9861 41.74 41.0065 41.74 41.0065C41.3213 41.027 41.0865 40.9045 41.0865 40.9045C40.392 40.5879 39.7385 41.2108 39.7385 41.2108C39.3403 40.9045 39.2484 41.1086 39.1769 41.1801C39.1157 41.2516 38.9727 41.3026 38.7888 41.3231C38.6152 41.3435 38.36 41.4049 38.2783 41.5681C38.2783 41.5681 38.1966 41.6908 38.2884 41.8338C38.2884 41.8338 38.3905 41.9971 38.2068 42.1913C38.0025 42.3954 37.931 42.4363 38.0025 42.6303C38.0535 42.814 38.0434 42.957 37.9617 43.0796C37.9617 43.0796 37.8698 42.9775 37.9004 42.8446C37.9208 42.7221 37.9208 42.6405 37.8902 42.5793C37.8902 42.5793 37.6962 42.763 37.6656 42.906C37.6656 42.906 37.5838 42.6915 37.8698 42.4056C38.1456 42.1299 38.2783 41.9869 38.1965 41.8746C38.1353 41.7929 37.9311 41.9256 37.8799 41.9563H37.8698Z" fill="#FFC221"/>
<path id="Vector_6" d="M38.6865 45.0709C38.6865 45.0709 38.3291 44.8054 38.37 44.4275C38.4109 44.06 38.4109 44.0191 38.37 43.9271C38.37 43.9271 38.2985 43.968 38.3088 44.1109C38.3088 44.2539 38.2883 44.3969 38.2781 44.4174C38.2781 44.4174 38.0943 44.111 38.0125 44.0497C38.0125 44.0497 38.084 43.7229 37.9819 43.5901C37.8798 43.4472 37.7776 43.437 37.6654 43.488C37.502 43.5391 37.3794 43.6922 37.9206 44.1314C37.9206 44.1314 38.1249 44.2947 38.2576 44.642C38.4006 44.9995 38.6355 45.0505 38.6764 45.0709H38.6865ZM40.4225 44.0395C40.4225 44.0395 40.4021 43.8352 40.5963 43.4574C40.6602 43.3445 40.6962 43.218 40.7016 43.0884C40.7069 42.9587 40.6812 42.8297 40.6268 42.712C40.586 42.6099 40.5554 42.6507 40.7493 42.4872C40.9843 42.283 40.6574 42.038 41.0558 41.6907C41.0558 41.6907 41.3008 41.4762 41.362 41.3845C41.362 41.3845 40.9536 41.5989 40.6779 41.7111C40.4124 41.8236 39.3911 42.3239 39.6159 42.6609C39.8405 42.9979 39.82 43.0184 39.7793 43.1612C39.7793 43.1612 39.1665 42.8345 39.3911 42.3137C39.3911 42.3137 39.4831 42.1095 39.7384 41.8644C39.9733 41.6499 39.8405 41.9154 40.3103 41.6397C40.3103 41.6397 40.6778 41.415 40.8821 41.1189C40.8821 41.1189 40.6268 41.2721 40.5451 41.3026C40.5451 41.3026 39.9936 41.4049 39.769 41.6295C39.5545 41.8644 39.0848 42.2626 39.238 42.712C39.238 42.712 38.6968 42.6507 38.5743 42.0787C38.5743 42.0787 37.553 43.3246 39.6873 43.917C39.6873 43.917 40.0754 44.0191 40.4328 44.0395H40.4225Z" fill="black"/>
<path id="Vector_7" d="M49.7768 39.8629C50.5733 39.7505 55.1687 39.0459 55.5976 39.005C56.0469 38.9641 56.2206 38.9029 56.3738 39.2705C56.5473 39.679 55.7406 39.6892 55.7406 39.6892L50.2568 40.3121C49.9913 40.3427 49.9301 40.2406 49.9301 40.2406L49.7258 39.965C49.7258 39.965 49.6543 39.8832 49.7768 39.8629V39.8629Z" fill="#FFC221"/>
<path id="Vector_8" d="M38.5437 42.3647C38.5437 42.3647 37.9514 43.6106 40.2798 43.917C40.2798 43.917 40.2899 43.7842 40.3819 43.58C40.484 43.3859 40.6882 42.9876 40.484 42.7324C40.3003 42.4771 40.6474 42.6099 40.6883 42.2729C40.7495 41.946 40.6575 41.9869 40.821 41.7725C40.821 41.7725 40.096 42.038 39.81 42.3647C39.5343 42.6812 40.1879 42.9264 39.81 43.2837C39.81 43.2837 39.473 43.1612 39.279 42.8037C39.279 42.8037 38.8297 42.814 38.5438 42.3647H38.5437Z" fill="#5A3719"/>
<path id="Vector_9" d="M40.831 43.8965C40.831 43.8965 41.4029 44.3969 42.0872 44.3765C42.7713 44.3459 43.0675 44.1722 43.241 43.8965C43.241 43.8965 43.3738 44.1007 43.3738 44.2437C43.3738 44.2437 43.9662 43.7535 44.9873 44.1825C46.0084 44.6115 45.7022 44.4887 45.9268 44.5195C45.9268 44.5195 45.4877 44.448 44.4972 44.8972C43.4759 45.367 40.8004 45.2036 40.8209 43.8965H40.831Z" fill="black"/>
<path id="Vector_10" d="M39.8713 41.6907C39.8713 41.6907 40.1265 41.7316 40.3819 41.4355C40.3819 41.4355 40.0347 41.507 39.8713 41.6907ZM37.9107 44.0089C37.9107 44.0089 37.4307 43.631 37.7369 43.5595C37.7369 43.5595 37.9617 43.5186 37.9107 44.0089Z" fill="#5A3719"/>
<path id="Vector_11" d="M48.3879 46.378C48.3879 46.378 48.6534 45.9185 49.3887 45.9185C50.1239 45.9185 50.2056 46.2656 51.1451 46.327C51.1451 46.327 50.0218 46.6332 49.2457 46.3576C48.8372 46.2044 48.4696 46.327 48.3879 46.378V46.378Z" fill="black"/>
<path id="Vector_12" d="M41.0762 44.2335C41.0762 44.2335 42.1893 44.8972 43.1695 44.1722C43.1695 44.1722 43.2513 44.2539 43.3228 44.4275C43.3228 44.4275 44.0683 43.7127 45.3958 44.4887C45.3958 44.4887 45.2324 44.4684 44.6095 44.7339C43.7925 45.0914 41.7502 45.3261 41.0762 44.2232V44.2335Z" fill="#5A3719"/>
<path id="Vector_13" d="M45.3449 44.9075C45.3449 44.9075 46.4069 45.03 47.2952 44.979C47.8467 44.9484 48.4492 44.8462 48.1531 45.03C47.8467 45.2137 47.9999 45.2343 49.2661 45.122C50.5324 44.9995 49.256 45.3569 50.124 45.4691C50.124 45.4691 48.0101 46.5516 45.3447 44.9075H45.3449Z" fill="black"/>
<path id="Vector_14" d="M48.1224 44.2335C48.1224 44.2335 48.7454 44.0089 49.3274 44.2744C49.8993 44.5501 49.8074 44.5705 50.1956 44.6114C50.1956 44.6114 49.9301 44.9893 49.2968 44.6829C48.6637 44.3765 48.4902 44.3153 48.1226 44.2335H48.1224ZM48.8169 46.1431C48.8169 46.1431 49.4296 45.8369 50.1036 46.1534C50.1853 46.1943 50.3691 46.2759 50.5427 46.3065C50.5427 46.3065 50.0321 46.4699 49.5011 46.3065C49.2764 46.235 49.1028 46.184 48.8169 46.1431V46.1431ZM45.7942 45.0505C45.7942 45.0505 47.1626 45.173 47.8979 45.03C47.8979 45.03 47.0401 45.4385 49.1948 45.2548C49.1948 45.2548 49.6644 45.2036 49.6032 45.2751C49.5522 45.3466 49.5113 45.4079 49.7462 45.4794C49.7462 45.4794 48.1532 46.1943 45.7942 45.0505V45.0505Z" fill="#5A3719"/>
<path id="Vector_15" d="M38.9929 43.8965C38.9929 43.8965 39.0134 43.9986 39.3096 44.1315C39.6158 44.2744 39.7793 44.5092 39.8406 44.642C39.8871 44.7361 39.953 44.8193 40.034 44.8862C40.115 44.953 40.2091 45.002 40.3103 45.03C40.3103 45.03 39.2381 45.2547 38.7683 44.693C38.7683 44.693 38.4007 44.2947 38.9828 43.8965" fill="black"/>
<path id="Vector_16" d="M47.3973 46.3575C47.3973 46.3575 46.9786 46.327 46.3966 46.1329C45.8247 45.9286 45.6716 46.1022 45.3447 45.8572C45.0179 45.6121 44.3644 45.7652 44.2418 45.7857C44.1193 45.7959 43.7721 45.7857 44.2011 45.4997C44.2011 45.4997 43.8538 45.4997 43.7211 45.316C43.7211 45.316 43.5679 45.4691 42.9756 45.4181C42.9756 45.4181 43.2411 45.8266 42.1893 45.704C42.3661 45.9104 42.6004 46.0595 42.8623 46.1323C43.1242 46.205 43.4018 46.1982 43.6598 46.1125C43.6598 46.1227 43.5883 46.4392 44.0683 46.5619C44.5687 46.6844 44.6606 46.7762 44.9158 46.8784C44.9158 46.8784 44.9464 46.6741 44.3032 46.2044C44.3032 46.2044 44.6503 46.184 45.1507 46.3065C45.6511 46.429 46.7846 46.715 47.3973 46.3576V46.3575ZM47.6628 46.8477C47.6628 46.8477 47.7649 47.0927 48.0917 47.0315C48.4083 46.9805 48.9393 46.8886 49.4499 47.144C49.4499 47.144 49.5418 46.715 48.5104 46.6844C48.5104 46.6844 47.8671 46.715 47.6629 46.8477H47.6628ZM38.9623 44.0497C38.9623 44.0497 38.5641 44.3765 38.9214 44.7135C39.2483 45.0197 39.7589 44.9994 40.0039 44.9892C40.0039 44.9892 39.8508 44.9075 39.7282 44.7135C39.5954 44.5195 39.5954 44.3867 39.3197 44.2641C39.0441 44.1416 39.0134 44.111 38.9623 44.0497V44.0497ZM38.5538 42.3647C38.5538 42.3647 37.9513 43.6106 40.2898 43.917C40.2898 43.917 40.2898 43.7842 40.3919 43.58C40.4737 43.3859 40.6779 42.9876 40.4941 42.7324C40.2898 42.4771 40.6473 42.6099 40.6983 42.2729C40.7494 41.946 40.6574 41.9869 40.8208 41.7725C40.8208 41.7725 40.0958 42.038 39.8099 42.3647C39.5342 42.6812 40.1878 42.9264 39.8099 43.2837C39.8099 43.2837 39.4729 43.1612 39.2789 42.814C39.2789 42.814 38.8296 42.814 38.5437 42.3647H38.5538Z" fill="#5A3719"/>
<path id="Vector_17" d="M44.6709 45.2445C44.6709 45.2445 45.161 45.1627 46.4069 45.6325C47.6528 46.0921 48.1735 45.9797 48.3574 45.9695C48.3574 45.9695 47.6528 46.3371 46.5703 45.8572C45.6103 45.4282 45.549 45.5917 44.6709 45.2445V45.2445Z" fill="black"/>
<path id="Vector_18" d="M52.4726 44.9688C52.4726 44.9688 52.7483 44.9585 52.9219 45.03C52.9219 45.03 53.024 44.9381 53.2895 44.9075C53.2895 44.9075 53.1159 44.7441 52.4726 44.9688V44.9688ZM51.6148 44.2744C51.6148 44.2744 51.9008 44.2641 51.9926 44.1211C51.9926 44.1211 51.8395 43.9476 51.625 43.8556C51.625 43.8556 51.6659 44.0599 51.625 44.2744H51.6148ZM42.0565 41.0985C42.0565 41.0985 41.9953 40.9555 42.3015 40.9148L46.468 40.3123C46.468 40.3123 46.6723 40.3123 46.7029 40.4449C46.7335 40.5981 46.6825 40.7003 45.7429 40.8125C44.8136 40.9146 42.3321 41.2313 42.3321 41.2313C42.3321 41.2313 42.0769 41.2721 42.0565 41.0985V41.0985Z" fill="#FFC221"/>
<path id="Vector_19" d="M45.835 40.9249C45.835 40.9249 45.835 41.4762 46.3967 41.558C46.938 41.6397 47.1217 41.5274 47.2647 41.2414C47.3056 41.1597 47.469 40.5879 47.2341 40.547C47.132 40.5266 46.9686 40.547 46.8461 40.5879C46.6623 40.6696 46.4886 40.7615 46.5397 40.8534C46.6827 41.0576 46.7031 41.1086 46.6622 41.1189C46.5192 41.1597 46.4273 41.0372 46.3967 40.9555C46.3661 40.8534 46.4682 40.7921 46.1108 40.8534C45.9576 40.8636 45.8351 40.8636 45.8351 40.9249H45.835Z" fill="#FFC221"/>
<path id="Vector_20" d="M48.1633 40.5062C48.4391 40.5369 48.4187 41.1394 48.0817 41.415C47.7141 41.7112 47.3668 41.5987 47.3668 41.5987C47.1728 41.5274 47.2034 41.5477 47.3464 41.3334C47.4792 41.1291 47.5507 40.8534 47.4689 40.6594C47.4486 40.5981 47.5098 40.547 47.6017 40.5266C47.6017 40.5266 47.8672 40.4755 48.1633 40.5061V40.5062Z" fill="#FFC221"/>
<path id="Vector_21" d="M48.4084 40.5572C48.4084 40.5572 48.6127 40.8125 48.3574 41.2822C48.3574 41.2822 48.2449 41.4252 48.5003 41.4047C48.7453 41.3844 49.3173 41.1189 49.2561 40.7716C49.2561 40.7716 49.2356 40.69 49.0823 40.69C48.9394 40.7002 49.0619 40.6185 49.1233 40.5879C49.1846 40.5879 49.3786 40.5061 48.8782 40.1794C48.8782 40.1794 48.7964 40.1079 48.6944 40.1385C48.6229 40.1691 48.3574 40.2712 48.3574 40.4347C48.3574 40.496 48.4084 40.5572 48.4084 40.5572V40.5572Z" fill="#FFC221"/>
<path id="Vector_22" d="M48.9495 40.1284C48.9495 40.1284 49.358 40.4143 49.3478 40.4959C49.3478 40.5776 49.3069 40.7003 49.4193 40.6798C49.5214 40.6798 49.9503 40.5776 49.8278 40.302C49.7153 40.016 49.5928 39.9139 49.3988 39.8424C49.1947 39.7709 49.1435 39.8629 48.97 39.9956C48.97 39.9956 48.8474 40.0773 48.9495 40.1284V40.1284ZM46.805 40.5266C46.805 40.5266 46.8663 40.3224 46.5088 40.2406C46.5088 40.2406 46.662 40.1079 46.9684 40.1794C47.2647 40.2406 47.2339 40.4449 47.2339 40.4654C47.2339 40.4654 46.999 40.4654 46.805 40.5266V40.5266ZM47.5812 40.4755C47.5812 40.4755 47.9895 40.404 48.1734 40.4245C48.1734 40.4245 47.9692 39.9751 47.4178 40.1181C47.4178 40.1181 47.6219 40.353 47.5812 40.4756V40.4755ZM48.2858 40.3734C48.2858 40.3734 48.2858 40.2203 48.6329 40.0875C48.6329 40.0875 48.4695 39.9241 48.2244 39.9445C47.9589 39.9548 47.8977 40.0466 47.8977 40.0466C47.8977 40.0466 48.204 40.159 48.2858 40.3633V40.3734ZM48.4185 39.8833C48.4185 39.8833 48.6432 39.9445 48.7759 40.0569C48.7759 40.0569 48.9802 39.8323 49.1538 39.7914C49.1538 39.7914 48.8168 39.6076 48.4185 39.8935V39.8833Z" fill="#FFC221"/>
<path id="Vector_23" d="M37.0018 38.7906C37.0018 38.7906 37.9617 37.9736 38.5029 38.0758C39.0339 38.1779 38.7684 38.1064 39.3504 38.0145C39.9428 37.9226 40.5453 37.8613 40.7904 37.892C40.7904 37.892 40.0754 37.3814 38.8092 37.3915C38.8092 37.3915 37.9208 37.6979 37.2979 38.1065C37.2979 38.1065 36.1133 37.4528 34.8879 37.8409C34.8879 37.8409 36.2154 38.331 37.0017 38.7906H37.0018Z" fill="#5A3719"/>
<path id="Vector_24" d="M47.1932 40.1999L47.3565 40.1691C47.3565 40.1691 47.622 40.5061 47.428 40.5061C47.2749 40.5061 47.3259 40.4654 47.3055 40.3632C47.2872 40.2978 47.2477 40.2404 47.1932 40.1999V40.1999ZM45.9882 40.2202C45.9882 40.2202 45.886 40.3427 46.0699 40.3224C46.2945 40.2815 46.2537 40.3224 46.4887 40.159C46.4887 40.159 46.6418 40.0057 46.9174 40.0977C46.9174 40.0977 47.1524 40.1794 47.3362 40.0875C47.5302 39.9854 47.571 39.9956 47.6732 40.0057C47.7753 40.016 47.7753 40.0364 47.8978 39.9344C48.0408 39.8322 48.2757 39.9139 48.4187 39.7914C48.5718 39.6689 48.7557 39.7709 48.4187 39.536C48.4187 39.536 48.3472 39.4646 48.3574 39.4032C48.3574 39.4032 48.4902 39.4441 48.5922 39.536C48.6943 39.628 48.8578 39.5972 48.8884 39.5769C48.8884 39.5769 48.9088 39.2807 49.1947 39.005C49.501 38.7292 49.501 38.7089 49.3275 38.7089C49.154 38.7089 48.8578 38.6374 48.7557 38.7089C48.6535 38.7804 47.7957 39.3522 47.2852 39.4441C46.7745 39.5462 46.315 39.6891 45.9882 40.2202V40.2202ZM32.4882 37.1056C32.4882 37.1056 34.0403 37.5039 34.3875 37.6672C34.3875 37.6672 34.4692 37.412 33.7645 37.2077C33.7645 37.2077 35.4802 37.1566 37.2877 37.9839C37.2877 37.9839 38.1659 37.2281 40.9844 37.463C40.9844 37.463 40.9844 37.218 41.0048 37.0239C41.0048 37.0239 39.0339 36.9626 37.2162 35.8597C37.2162 35.8597 35.5824 36.6665 32.488 37.1056H32.4882ZM41.1172 37.8511C41.015 36.2682 41.6175 36.1151 41.6175 36.1151C41.6175 36.1151 41.9034 36.1252 42.2098 36.1764C42.2098 36.1764 41.7298 36.7482 41.8625 37.8817C41.8625 37.8817 41.9137 38.0655 41.5052 38.0655C41.0967 38.0655 41.1172 37.8612 41.1172 37.8612V37.8511Z" fill="#FFC221"/>
<path id="Vector_25" d="M41.5358 38.9029C41.5358 38.9029 41.2295 38.5966 41.209 38.2494C41.209 38.2494 41.1988 38.1676 41.4949 38.1676C41.8013 38.1779 41.8319 38.1473 41.9034 38.3209C41.9749 38.4843 42.1689 38.8416 42.2098 38.8825L41.5358 38.9029Z" fill="#5A3719"/>
<path id="Vector_26" d="M42.1689 38.1064C42.1427 37.9067 42.1324 37.7052 42.1383 37.5039C42.1588 36.6256 42.3017 36.6971 42.363 36.8095H42.6693C42.6693 36.8095 42.4447 35.8189 42.1792 36.401C41.9802 36.8386 41.9094 37.3237 41.9749 37.8C41.9954 38.0655 42.026 38.2289 42.0567 38.3209L42.1689 38.1064Z" fill="#FFC221"/>
<path id="Vector_27" d="M45.5898 38.1064C45.5898 38.1064 46.1719 38.2085 45.2835 38.4126C45.2835 38.4126 45.3243 39.4951 46.376 38.7395C46.376 38.7395 47.0093 38.3413 47.4381 38.1779C47.4381 38.1779 47.6526 38.1064 47.6321 37.943C47.6321 37.943 47.6526 37.7388 47.4279 37.7899C47.4279 37.7899 47.2442 37.7899 47.1217 37.749C47.1217 37.749 46.9992 37.5958 46.9174 37.6469C46.8357 37.7081 46.6314 37.6775 46.7949 37.8715C46.948 38.0553 46.999 38.0043 47.0705 37.9533C47.142 37.9021 47.479 37.7695 47.1726 38.0451C46.8663 38.3208 46.6211 37.892 46.519 37.8101L45.5898 38.1064ZM42.659 38.2391H42.4036C42.4036 38.2391 42.2608 38.4434 42.1688 38.1064L42.0667 38.3209C42.0667 38.3209 42.373 39.485 42.659 38.2391V38.2391Z" fill="#5A3719"/>
<path id="Vector_28" d="M42.2915 36.8912C42.2915 36.8912 42.1587 37.6571 42.3322 38.1166L45.1406 38.1779C45.1406 38.1779 45.11 37.6366 45.1406 36.8911H44.7525C44.7525 36.8911 44.6912 37.5039 44.7525 37.8817H44.681C44.681 37.8817 44.63 37.3609 44.681 36.8911H44.3542C44.3542 36.8911 44.3032 37.463 44.344 37.892H44.2827C44.2827 37.892 44.2317 37.3915 44.2827 36.8911H43.9662C43.9662 36.8911 43.905 37.4017 43.9662 37.8817H43.8845C43.8845 37.8817 43.8232 37.3711 43.8845 36.8911H43.527C43.527 36.8911 43.4454 37.3711 43.527 37.892H43.4556C43.4556 37.892 43.3738 37.4017 43.4556 36.8911H43.0981C43.0981 36.8911 43.0165 37.4426 43.0981 37.892H43.0165C43.0165 37.892 42.9655 37.3609 43.0368 36.8911H42.6999C42.6999 36.8911 42.608 37.3507 42.6897 37.892H42.608C42.608 37.892 42.557 37.4835 42.6285 36.8911H42.2915V36.8912ZM45.2631 38.28C45.2631 38.28 45.1916 36.9116 45.4468 36.544C45.7125 36.1967 45.7737 36.2682 46.2231 36.544C46.6724 36.8401 47.2442 37.1465 47.3464 37.1771C47.4382 37.218 47.571 37.2486 47.571 37.5039C47.571 37.7489 47.6119 37.8205 47.2237 37.5039C47.1727 37.463 46.9889 37.2996 46.8562 37.2589C46.509 37.1464 46.9379 37.3302 47.0604 37.5141C47.1625 37.6571 47.2543 37.6469 46.9787 37.7184C46.4012 37.8879 45.829 38.0751 45.2631 38.28V38.28Z" fill="#FFC221"/>
<path id="Vector_29" d="M46.2436 37.2894C46.2436 37.2894 46.0393 37.0444 46.3048 36.9831C46.5601 36.9219 46.5806 37.3915 46.6316 37.6672C46.6724 37.9532 46.3048 37.3814 46.2537 37.2997L46.2436 37.2894ZM45.8759 38.4944C45.8759 38.4944 45.5696 38.6069 45.7738 38.6986C45.9678 38.8007 46.5192 38.3412 46.3354 38.3719C46.1312 38.4025 45.8759 38.4944 45.8759 38.4944V38.4944ZM46.2843 38.0757C46.2843 38.0757 46.5498 38.0451 46.4886 38.1575C46.4478 38.28 46.3457 38.2085 46.3048 38.1779C46.2639 38.1575 46.0802 38.086 46.2843 38.0757Z" fill="black"/>
<path id="Vector_30" d="M47.7037 37.7081C47.7037 37.7081 47.7752 38.2391 48.2244 38.3719C48.2244 38.3719 48.4901 38.4331 48.4287 38.2085C48.4287 38.2085 48.3879 38.0042 48.3573 37.9327C48.3164 37.8511 48.1326 37.8 48.1122 37.7899C48.0917 37.7899 48.0713 37.7286 48.1938 37.7694C48.3163 37.8102 48.3368 37.8205 48.3266 37.7285C48.3266 37.6366 48.2449 37.6775 48.1326 37.6264C48.0917 37.5957 48.1326 37.5651 48.1837 37.5754C48.2347 37.5856 48.3471 37.6264 48.3471 37.4426C48.3471 37.4426 48.3674 37.3405 48.2347 37.3405C48.0816 37.3302 48.0917 37.2588 48.1326 37.2486C48.1837 37.2486 48.3368 37.3507 48.3879 37.1669C48.4287 36.9932 48.1734 37.0954 48.2042 37.0035C48.2449 36.9014 48.4287 37.0546 48.4389 36.9422C48.4593 36.8401 48.6023 36.789 48.3471 36.7482C48.2347 36.738 48.3471 36.6767 48.4798 36.6971C48.6228 36.7176 48.7044 36.544 48.7861 36.4827C48.8781 36.4215 49.3478 36.1457 48.7147 36.2376C48.0917 36.3295 47.8977 36.6359 47.8672 36.6971C47.7102 37.013 47.6532 37.3693 47.7037 37.7184V37.7081Z" fill="#FFC221"/>
<path id="Vector_31" d="M49.1742 38.1166C49.256 38.1064 49.3275 38.1166 49.358 38.1779C49.4602 38.3924 49.2254 38.3209 49.0926 38.4741C48.9599 38.6274 48.9496 38.5966 48.7657 38.5455C48.582 38.4842 48.5105 38.2085 48.5105 38.2085C48.4901 38.1166 48.5717 38.1064 48.6636 38.1267C48.6636 38.1267 48.97 38.1575 49.1742 38.1267V38.1166ZM48.4901 38.0145C48.4901 38.0145 48.5002 38.0655 48.6126 38.0757C48.7147 38.086 49.0211 38.1166 49.2151 38.0554C49.2151 38.0554 49.2764 38.0451 49.2457 37.9226C49.2457 37.9226 49.2457 37.8409 49.0824 37.8715C48.9087 37.9021 48.6739 37.8715 48.5921 37.8612C48.5105 37.8409 48.4492 37.8612 48.4901 38.0042V38.0145ZM48.4696 37.6264C48.4696 37.6264 48.4594 37.7899 48.6229 37.8101C48.7964 37.8306 49.0006 37.8306 49.0824 37.8101C49.1539 37.8101 49.2764 37.7796 49.2866 37.6775C49.2866 37.5754 49.3172 37.5141 49.1129 37.5651C48.9085 37.6161 48.6636 37.5754 48.633 37.5651C48.6126 37.5651 48.4696 37.5242 48.4696 37.6264V37.6264ZM48.5411 37.2894C48.5411 37.2894 48.5002 37.3711 48.5105 37.4426C48.5105 37.5141 48.633 37.5447 48.8475 37.5447C49.0619 37.5447 49.256 37.5141 49.2764 37.4426C49.2866 37.3609 49.3376 37.2792 49.1742 37.3099C49.0006 37.3302 48.7862 37.3405 48.6942 37.3099C48.6126 37.269 48.5514 37.2587 48.5411 37.2894Z" fill="#FFC221"/>
<path id="Vector_32" d="M56.5165 38.137C56.5165 38.137 56.5165 38.28 56.6288 38.4333L50.6038 38.2595C50.6038 38.2595 50.6855 38.2085 50.7059 37.9736L56.5165 38.137Z" fill="#5A3719"/>
<path id="Vector_33" d="M48.5921 37.0444C48.5921 37.0444 48.5411 37.1975 48.6432 37.2281C48.7453 37.2587 48.9395 37.2894 49.1845 37.2486C49.1845 37.2486 49.307 37.2486 49.3478 37.1261C49.3988 36.9932 49.3887 37.0649 49.0416 37.0035C49.0416 37.0035 48.9393 36.9626 49.2457 36.9626C49.2457 36.9626 49.4295 36.9626 49.45 36.9422C49.4806 36.9116 49.7155 36.7176 49.4091 36.738C49.1028 36.738 49.256 36.6767 49.4091 36.6767C49.5725 36.6767 49.6133 36.7176 49.6643 36.6665C49.7153 36.6154 49.6643 36.6461 49.5827 36.5644C49.5011 36.4826 49.5623 36.5031 49.6236 36.5541C49.6848 36.595 49.7257 36.6154 49.787 36.5541C49.8585 36.4929 49.7358 36.401 49.787 36.4112C49.838 36.4214 49.8686 36.5235 50.0627 36.4316C50.2668 36.3295 50.5325 36.3806 50.604 36.4316C50.6753 36.4929 50.8796 36.5644 51.0123 36.4316C51.1348 36.3091 50.8592 36.1967 50.9715 36.1866C51.094 36.1661 51.1757 36.207 51.2166 36.1151C51.2677 36.013 51.0328 35.9314 51.2575 35.87C51.4718 35.8087 51.2881 35.196 51.2166 35.145C51.2166 35.145 50.9716 35.2879 50.706 35.7167C50.4303 36.1559 50.2772 36.4112 49.9095 36.2785C49.3988 36.0742 49.1232 36.3601 49.0415 36.4112C48.919 36.4827 49.307 36.5134 49.0721 36.5235C48.8475 36.5235 48.8475 36.5541 48.8271 36.5847C48.8066 36.6155 48.8271 36.646 48.8678 36.6562C48.9087 36.6562 48.9903 36.738 48.8577 36.738C48.7147 36.738 48.6126 36.7074 48.6535 36.8605C48.6535 36.8605 48.6535 36.8911 48.7351 36.9014C48.8168 36.9014 48.8475 37.0035 48.6942 37.0035C48.5922 37.0035 48.5922 37.0341 48.5922 37.0444H48.5921ZM49.1436 38.5556C49.1436 38.5556 49.0415 38.6272 49.1845 38.6374C49.3376 38.6374 49.4091 38.6782 49.4602 38.5965C49.5113 38.5147 49.7052 38.5455 49.5725 38.4331C49.4397 38.331 49.3478 38.3924 49.1436 38.5556V38.5556Z" fill="#FFC221"/>
<path id="Vector_34" d="M49.7665 36.738C49.7665 36.738 50.2771 36.2683 50.6856 36.5849C51.1145 36.9116 51.1451 36.9524 51.1553 36.9626C51.1553 36.9626 51.2063 37.0035 51.0941 37.1056C50.9817 37.2078 51.0941 37.2078 51.2166 37.1363C51.3391 37.075 51.3493 37.1363 51.4106 37.2078C51.4718 37.269 51.5536 37.3099 51.3596 37.3099H50.7468C50.7468 37.3099 50.4711 37.3405 50.6141 37.218C50.7468 37.1056 50.7265 36.9729 50.655 36.9626C50.5835 36.9525 50.655 37.0341 50.6141 37.0851C50.5631 37.1364 50.4711 37.1874 50.3691 37.1874C50.2671 37.1874 50.1852 37.2588 50.3383 37.3099C50.4916 37.3711 50.318 37.412 50.2362 37.412C50.1545 37.412 49.7665 37.4324 50.1648 37.4835C50.5631 37.5345 50.124 37.5243 50.4201 37.6878C50.7468 37.8715 50.512 38.2596 50.3895 38.3004C50.3895 38.3004 50.2567 38.3719 50.4201 38.3515C50.5937 38.331 50.6856 38.3106 50.5631 38.4025C50.4507 38.4945 50.2056 38.7906 49.8788 38.5659C49.8788 38.5659 49.7257 38.4945 49.9912 38.474C50.2668 38.4638 49.7767 38.4025 49.6848 38.3515C49.6133 38.3004 49.2967 37.9839 49.4908 38.0145C49.6951 38.0554 49.6236 37.943 49.501 37.9021C49.3887 37.8613 49.3682 37.6878 49.501 37.7184C49.6235 37.7591 49.7767 37.8306 49.8891 37.8205C49.9912 37.8205 49.9606 37.7796 49.7358 37.7184C49.5112 37.6366 49.4193 37.6264 49.4703 37.4426C49.5215 37.2486 49.7767 37.5141 49.7153 37.3711C49.6541 37.2281 49.4397 37.2996 49.5521 37.1159C49.6645 36.9321 49.6951 37.0138 49.7461 37.0341C49.7972 37.0546 49.8788 37.0341 49.7358 36.932C49.6337 36.8605 49.7358 36.7584 49.7665 36.738V36.738Z" fill="#FFC221"/>
<path id="Vector_35" d="M50.124 36.8707C50.124 36.8707 50.124 36.8095 50.2261 36.8197C50.3078 36.8197 50.2874 36.789 50.3078 36.7686C50.3384 36.7686 50.5631 36.8401 50.3486 36.9116C50.2771 36.9422 50.1444 36.9217 50.1341 36.8707H50.124Z" fill="black"/>
<path id="Vector_36" d="M50.6141 37.4017C50.6141 37.4017 50.4405 37.4936 50.5937 37.6672C50.7265 37.8205 50.7265 37.8715 50.7162 37.9736C50.706 38.0757 56.5166 38.137 56.5166 38.137C56.5166 38.137 56.5063 37.7591 56.7515 37.5447L50.6141 37.4017V37.4017Z" fill="#FFC221"/>
<path id="Vector_37" d="M56.6086 38.035C56.6086 38.035 56.6391 37.7184 56.8128 37.6163C56.9149 37.555 57.0374 37.5856 57.0885 37.8409C57.1701 38.1984 56.8638 38.5149 56.7209 38.3719C56.5881 38.2391 56.6188 38.0349 56.6188 38.0349L56.6086 38.035Z" fill="#5A3719"/>
<path id="Vector_38" d="M49.9504 39.3931C49.9504 39.3931 50.3384 39.0561 50.3998 38.9131C50.3998 38.9131 51.4413 39.6586 51.38 38.9744C51.38 38.9744 51.38 38.7906 51.4107 38.6169C51.4107 38.6169 51.7885 38.6579 51.8498 38.3515L50.8694 38.3209C50.8694 38.3209 50.7674 38.3004 50.6142 38.4637C50.4712 38.6272 50.1547 38.8007 49.8687 38.6475C49.8687 38.6475 49.7462 38.5455 49.6237 38.6375C49.4909 38.7191 49.4909 38.7395 49.593 38.8416C49.6952 38.9437 49.9095 39.2297 49.9504 39.3931ZM52.197 37.3405L51.6252 37.3201C51.6252 37.3201 51.4209 37.0239 51.0124 36.7074C51.0124 36.7074 50.8899 36.6461 51.1145 36.4624C51.3495 36.2785 51.4209 36.0844 51.4209 35.9925C51.4312 35.9109 51.4209 35.7679 51.5027 35.87C51.5843 35.9721 52.1765 36.5134 52.2685 36.3601C52.3502 36.1967 52.3707 36.1252 52.3707 36.0742C52.391 36.0231 52.4114 35.8802 52.4932 36.0334C52.585 36.1865 52.6362 36.1457 52.6463 36.544C52.6463 36.544 52.6565 36.9525 52.7178 37.0852C52.7178 37.0852 51.9724 36.8502 52.2073 37.3405H52.197ZM49.7155 36.1151C49.7155 36.1151 50.1547 36.3704 50.369 36.0334C50.5733 35.7066 50.7265 35.6555 50.5632 35.3287C50.3998 35.0225 50.5632 34.8692 50.6857 34.7365C50.8184 34.6037 50.9205 34.6344 50.9307 34.1237C50.9512 33.6131 51.2984 33.4497 51.4618 33.2864C51.6149 33.1332 52.0132 32.8984 51.4107 32.7962C50.8184 32.6941 49.6237 32.3877 49.3173 31.9282C49.0109 31.4585 48.8679 31.7341 48.8679 31.7545C48.8679 31.775 48.7658 32.112 49.0722 32.7247C49.3785 33.3375 49.6338 33.7357 49.9402 33.9297C50.2364 34.134 50.5018 34.236 50.3487 34.6445C50.1955 35.053 49.9402 35.7882 49.7155 36.1252V36.1151Z" fill="#7B3C20"/>
<path id="Vector_39" d="M51.3291 34.8181C51.3291 34.8181 51.4006 35.87 52.1664 36.2479C52.1664 36.2479 52.3401 35.8394 52.2686 35.4309C52.2686 35.4309 52.5238 35.4513 52.5953 35.5636C52.5953 35.5636 52.5953 35.2574 52.2481 35.1449C51.8806 35.0429 52.0541 34.3484 52.1868 34.2769C52.3093 34.1953 52.2686 34.0523 52.1868 33.9298C52.0949 33.8073 52.0847 33.6234 52.3808 33.7051C52.6872 33.7765 52.6362 33.6234 52.4523 33.4701C52.2686 33.3273 52.2787 33.1434 52.5341 33.1434C52.7894 33.1434 53.2182 32.8881 52.9629 32.8166C52.7077 32.735 52.6259 32.6533 52.9629 32.5511C53.3204 32.449 53.4939 32.3265 53.2284 32.2959C52.9629 32.2653 52.7893 32.1734 53.0447 32.1325C53.2999 32.0814 53.0038 31.8261 52.7077 31.8159C52.4013 31.7955 51.7682 31.918 52.2686 31.5096C52.7791 31.1113 51.5537 31.4074 52.0541 31.1419C52.5647 30.8764 51.8804 30.9888 51.7886 30.9888C51.6967 30.9888 51.6967 30.9888 51.7376 30.856C51.7682 30.7233 51.6661 30.6518 51.5128 30.7436C51.3699 30.8254 51.3699 30.8254 51.3801 30.6415C51.3801 30.4475 51.2064 30.5905 51.0942 30.6415C50.9818 30.6824 50.7061 30.8968 50.5836 30.7845C50.4814 30.662 50.4202 30.5495 50.0729 30.7539C49.7258 30.9581 49.8074 30.7845 49.8177 30.6926C49.8177 30.5905 49.9504 30.233 49.4807 30.6211C49.0109 31.0093 49.3888 30.2126 49.0212 30.4781C48.6536 30.7539 48.6127 30.8049 48.5514 30.6824C48.4902 30.5599 48.4187 30.4578 48.0102 30.7233C47.6017 30.9785 47.9081 30.5598 47.9591 30.4679C48.0203 30.376 48.1941 29.7838 47.8366 30.2535C47.8366 30.2535 47.6629 30.57 47.2749 29.9981C47.2749 29.9981 46.8664 30.57 46.7541 30.3148C46.6519 30.0594 46.5499 30.039 46.4069 30.2024C46.2742 30.3658 46.3763 30.1921 46.3151 30.0493C46.2538 29.9165 46.2231 29.6611 45.5388 30.1514C44.8547 30.6619 45.7738 30.2943 45.2529 30.5189C44.7321 30.7435 43.4659 31.4585 44.6198 31.2951C45.7839 31.1316 44.0582 31.7444 44.4564 31.8568C44.8649 31.969 44.7322 32.3265 46.2436 31.9078C47.7447 31.4993 47.4996 31.8465 48.2757 31.5095C49.0416 31.1828 48.0919 31.6219 49.1232 31.6116C50.1547 31.581 49.2969 31.6116 49.5011 31.8159C49.7053 32.0304 50.5733 32.5308 51.3801 32.6226C52.1971 32.7043 52.4013 32.398 52.1663 32.7554C51.9316 33.1026 51.8498 33.2354 51.7068 33.3681C51.5741 33.4804 51.1861 33.7664 51.1758 34.2463C51.1758 34.7365 50.5427 34.8181 50.7674 35.3594L51.3291 34.8181V34.8181Z" fill="#5A3719"/>
<path id="Vector_40" d="M52.6667 35.9925C52.6667 35.9925 52.483 35.8598 52.483 35.625C52.483 35.625 52.6156 35.6454 52.6667 35.727C52.6667 35.727 53.1365 35.2063 52.5646 35.0123C52.0131 34.8181 52.2889 34.3076 52.4829 34.3076C52.6769 34.3076 52.7076 34.2565 52.5441 34.042C52.3807 33.8379 52.4012 33.8174 52.7179 33.7664C53.0241 33.7153 52.9935 33.6439 52.8505 33.5621C52.755 33.5082 52.6688 33.4392 52.5952 33.3579C52.5952 33.3579 53.494 32.9699 53.208 32.786C52.9117 32.6124 53.208 32.6533 53.4632 32.4694C53.7287 32.2856 53.7695 32.2448 53.8002 32.1733C53.8002 32.1733 53.545 32.2039 53.3509 32.1733C53.3509 32.1733 53.5756 32.0508 53.3509 31.867C53.1261 31.6833 53.0446 31.5198 52.6769 31.6014C52.3195 31.6934 52.4421 31.5708 52.5749 31.4279C52.7177 31.2746 52.6565 31.1929 52.4011 31.1521C52.4011 31.1521 52.4319 30.9989 52.6259 30.8151C52.6259 30.8151 52.1357 30.8458 51.9724 30.764C51.9724 30.764 52.1765 30.6313 52.1765 30.4679C52.1765 30.4679 51.911 30.5598 51.574 30.5291C51.574 30.5291 51.7782 30.3556 51.7782 30.2024C51.7782 30.2024 51.186 30.3351 50.9205 30.5394C50.9205 30.5394 50.8592 30.5291 50.8184 30.4679C50.7674 30.4066 50.7366 30.3351 50.0831 30.5394C50.0831 30.5394 50.1546 30.2535 50.318 30.1309C50.4711 30.0288 50.4507 29.7939 49.4397 30.4271C49.4397 30.4271 49.307 30.3454 49.1947 30.039C49.1947 30.039 48.97 30.3453 48.8066 30.4475C48.8066 30.4475 48.6636 30.5088 48.6841 30.3148C48.7045 30.1105 48.582 30.2535 48.4799 30.3148C48.3777 30.3658 48.3062 30.5088 48.3574 30.1105C48.4085 29.7123 48.2144 29.6305 48.2144 29.6305C48.2144 29.6305 47.908 30.0799 47.7241 30.1309C47.7241 30.1309 47.3974 29.8041 47.2749 29.5896C47.1625 29.3855 47.1625 29.3038 47.0399 29.6714C46.9276 30.039 46.7846 30.0696 46.7846 30.0696C46.7846 30.0696 46.5805 29.896 46.56 29.8041C46.56 29.8041 46.5294 29.9063 46.4579 29.9471C46.4579 29.9471 46.2842 29.7429 46.2945 29.4468C46.2945 29.4468 45.212 30.0493 45.0691 30.4068C45.0691 30.4068 44.0479 30.3454 43.6291 30.427C43.6291 30.427 43.7314 30.1003 43.9969 29.9266C43.9969 29.9266 43.7314 29.896 43.7211 29.6204C43.7211 29.6204 43.9356 29.651 44.0684 29.6204C44.2011 29.5896 43.8846 29.2016 44.2215 29.1914C44.5585 29.1813 44.773 29.3548 44.63 28.9055C44.4767 28.4561 44.5381 28.4561 44.5381 28.4561C44.5381 28.4561 45.1304 28.8034 45.2222 28.7115C45.3244 28.6298 45.1507 28.446 45.6716 28.5278C46.1924 28.6195 46.0494 28.3234 46.2536 28.303C46.4579 28.2928 46.56 28.4358 46.4374 27.486C46.3147 26.5363 47.0706 27.9558 46.5499 26.5261C46.5499 26.5261 46.4274 26.087 46.1107 25.9033C46.1107 25.9033 46.0392 26.2095 45.692 25.944C45.3345 25.6684 44.6504 25.5663 44.9364 25.3518C45.2325 25.1271 45.3651 24.8411 45.2835 24.6574C45.2835 24.6574 44.9364 25.0149 44.344 24.7595C43.8742 24.5553 43.7721 24.9229 43.2922 24.8208C43.2922 24.8208 43.2922 24.6983 43.7007 24.3714C44.1091 24.0549 43.4657 24.4735 43.2207 24.5348C42.9655 24.596 42.894 24.545 43.425 24.1264C43.956 23.7179 45.018 22.9928 44.875 22.3903C44.875 22.3903 45.1201 22.7069 45.7839 22.472C46.4375 22.2474 46.9276 22.1658 47.1216 21.8185C47.3259 21.4815 47.8366 21.1445 47.9692 21.0628C48.1122 20.9913 48.2859 20.9403 48.0816 21.267C47.8774 21.5836 47.5506 22.135 46.6416 22.5129C45.7329 22.8908 45.3856 23.1563 45.2222 23.3604C45.0589 23.5545 44.2317 23.9936 44.773 23.9221C45.304 23.8404 46.2332 23.9221 45.7942 23.7996C45.3652 23.6771 44.8751 23.8813 45.2734 23.5136C45.6716 23.1561 45.7431 23.0336 46.3251 22.7886C46.9072 22.5435 47.5506 21.9819 47.4892 22.5844C47.4179 23.1664 46.3354 23.7995 46.0699 23.9936C45.8044 24.1876 45.9065 24.157 45.9065 24.2285C45.9065 24.3101 45.8656 24.4735 45.7532 24.5348C45.6511 24.6165 45.6817 24.6983 45.7125 24.8616C45.7431 25.0351 45.6817 25.0965 45.7635 25.1271C45.8452 25.1475 45.9269 25.1578 45.9472 25.2803C45.978 25.4028 46.0392 25.413 46.1924 25.4028C46.3456 25.3824 46.4477 25.4028 46.4579 25.4948C46.4681 25.5866 46.6212 25.7091 46.6316 25.4335C46.6519 25.1475 46.7541 25.0965 46.4681 25.2293C46.1821 25.3518 46.1209 25.3109 46.1311 25.1781C46.1311 25.0454 46.1005 25.076 45.9881 25.0659C45.8656 25.0556 45.8247 24.8821 46.0392 24.7696C46.2435 24.6675 46.2435 24.7696 46.509 24.5553C46.7745 24.3306 46.7745 24.2795 46.8152 24.1671C46.8561 24.065 46.4375 24.4735 46.2332 24.5655C46.029 24.6574 46.0902 24.494 46.1311 24.2693C46.1617 24.0446 46.6621 23.7383 46.8867 23.7383C47.1217 23.7383 47.6322 23.871 47.4179 24.1876C47.1931 24.4939 46.56 24.8718 46.8255 24.9024C47.1012 24.9229 47.1421 24.8208 47.3055 24.9535C47.4586 25.0965 47.3055 25.3824 47.2442 25.5356C47.1726 25.6777 47.0716 25.803 46.948 25.9031C46.948 25.9031 46.6621 25.3926 46.6724 25.8011C46.6724 26.2095 46.6111 26.3525 46.6724 26.3628C46.7336 26.3831 47.0502 26.5976 47.1524 26.5976C47.2545 26.5976 46.6009 26.9039 46.8766 26.9244C47.1524 26.9448 47.5914 26.8019 47.7344 26.5159C47.7344 26.5159 47.1727 26.3831 46.9582 26.1789C46.9582 26.1789 47.6016 26.0258 47.4179 25.4029C47.4179 25.4029 48.0714 25.5764 47.7854 25.8725C47.5097 26.1585 47.3361 26.1176 47.5812 26.1994C47.8262 26.281 47.9386 26.3525 47.9386 26.3525C47.9386 26.3525 48.1122 26.4343 48.0101 26.567C47.908 26.7099 47.908 26.9141 47.9999 26.904C48.0714 26.904 48.3471 26.7713 48.1224 26.6385C47.8876 26.4955 48.3777 26.5261 48.1735 26.4035C47.9692 26.281 47.908 26.2606 47.8569 26.1994C47.7956 26.1483 50.4814 24.5655 49.1231 25.1578C49.1231 25.1578 49.4091 24.545 49.8074 24.545C50.1955 24.545 50.2261 24.8514 50.0116 25.0965C49.7767 25.3314 49.6337 25.7091 49.1129 25.7909C49.1129 25.7909 49.8585 26.1584 48.97 26.761C48.97 26.761 48.776 26.8529 48.8475 26.9141C48.919 26.9856 49.45 26.6895 49.5215 26.5159C49.593 26.3525 49.7052 26.2096 49.9095 26.1176C50.1137 26.0155 51.1042 25.3415 51.4005 24.831C51.7067 24.3204 51.7782 24.3101 52.3604 23.8404C52.9425 23.3706 52.8404 23.4625 52.922 23.3503C52.9935 23.2379 53.0241 23.0439 53.2896 22.9009C53.5551 22.7478 54.5967 22.1759 54.9235 21.9409C55.2504 21.7061 55.9141 21.267 56.2 20.8994C56.486 20.5419 57.2621 20.0723 57.4561 20.1539C57.6501 20.2459 57.4356 20.5215 56.9864 20.8688C56.5269 21.2058 55.4035 22.1146 55.2197 22.2575C54.7681 22.6212 54.2658 22.9171 53.7287 23.1358C53.3712 23.1869 53.4122 23.3094 53.1977 23.5443C52.9832 23.7791 52.4829 24.2591 52.3195 24.3918C52.1561 24.5348 51.7579 24.8004 51.7375 24.9943C51.717 25.1884 51.8089 25.2088 51.4924 25.5049C51.1757 25.8113 50.2465 26.4853 49.8992 26.5874C49.8992 26.5874 50.5017 26.7916 50.1444 27.2001C49.7869 27.5984 49.8074 27.5371 49.7869 27.5676C49.7869 27.5676 50.6856 27.4248 50.0525 28.1396C50.0525 28.1396 49.9197 28.3439 50.2056 28.1294C50.512 27.8945 50.3894 27.5881 50.3486 27.5473C50.3486 27.5473 50.8286 27.241 51.3902 27.241C51.9416 27.2308 51.9212 27.1899 51.4209 27.0469C51.4209 27.0469 51.7784 26.6181 52.0744 26.8325C52.3807 27.0368 52.2786 27.1695 51.9724 27.3431C51.6455 27.5065 51.186 27.5678 50.8387 27.7619C50.8387 27.7619 51.4924 27.8945 51.8497 27.6188C52.197 27.3533 52.2174 27.486 52.2582 27.5371C52.3092 27.5881 52.3501 27.6699 52.197 27.8946C52.0336 28.1191 52.0234 28.1294 52.0336 28.1805C52.0336 28.2315 52.0131 28.3846 51.6966 28.4358C51.3902 28.4868 51.2371 28.6195 51.3494 28.7728C51.4515 28.9259 51.4515 29.2935 51.186 29.2629C50.9205 29.222 50.9817 29.0076 50.8797 28.9259C50.7775 28.8443 50.6345 28.7216 50.1647 28.9565C49.6847 29.2016 49.6542 28.9158 49.6747 28.7523C49.6747 28.7523 49.3682 29.028 49.113 28.783C48.8577 28.5276 49.0824 28.4358 49.2355 28.3133C49.3785 28.1908 49.981 27.9251 49.6236 27.9763C49.256 28.017 48.7249 28.0375 48.6024 27.772C48.4696 27.486 48.8679 27.5166 48.9291 27.5473C48.9904 27.5678 49.2355 27.772 49.256 27.5065C49.256 27.2308 49.6644 27.2001 49.5215 27.149C49.3887 27.098 49.1947 27.2715 49.1436 27.3328C49.1436 27.3328 48.8679 26.9448 48.4186 27.0674C47.9692 27.2001 48.5615 27.149 48.6739 27.1695C48.7964 27.1899 48.725 27.4145 48.3266 27.7821C47.9182 28.1396 48.102 28.0273 48.3981 28.0273C48.7045 28.0273 49.4397 28.0273 49.0109 28.3745C48.582 28.732 48.4084 28.9055 48.1939 28.8443C47.9692 28.783 48.2144 28.64 48.3164 28.5685C48.4186 28.5073 48.4696 28.4051 48.2551 28.4868C48.051 28.5583 47.9795 28.5788 47.8059 28.2826C47.6425 27.9763 47.7037 28.0784 47.7855 27.8741C47.8569 27.6801 48.0204 27.4759 47.8262 27.5473C47.622 27.6188 47.6425 27.629 47.6629 27.4044C47.6731 27.1796 47.4382 27.1286 47.4382 27.1286C47.4382 27.1286 47.5404 27.3533 47.4485 27.4963C47.3667 27.6393 47.3565 27.6903 47.4995 27.7209C47.6425 27.7618 47.7752 27.8843 47.5812 28.0171C47.3871 28.1396 47.4179 28.1191 47.5301 28.2009C47.6526 28.2826 47.8365 28.3745 47.6425 28.5584C47.4587 28.7421 47.6119 28.6809 47.7037 28.6809C47.8059 28.6809 48.01 28.7625 48.01 28.9464C48.01 29.1199 48 29.1608 48.3062 28.9974C48.6125 28.8238 49.205 28.8443 49.205 29.0791C49.1947 29.314 49.1232 29.3854 49.45 29.1813C49.7665 28.977 49.9095 29.365 50.1341 29.1813C50.3486 28.9871 50.4916 28.8034 50.7469 29.1301C51.0022 29.4468 50.9205 29.5386 50.6141 29.7735C50.3079 29.9981 50.7674 29.8245 51.0022 29.702C51.2371 29.5795 51.9009 29.4978 52.2786 29.6714C52.6565 29.8348 52.7689 29.8041 53.0446 29.6816C53.3305 29.5693 53.4734 29.5386 53.8921 29.8245C54.321 30.1105 54.6479 30.1615 54.8725 30.1514C54.8725 30.1514 54.4027 30.3351 53.8717 30.3658C53.3407 30.4066 53.0752 30.4985 52.973 30.5803C52.973 30.5803 53.2896 30.7845 53.3509 31.0091C53.3509 31.0091 53.6981 30.9683 53.8615 31.0295C53.8615 31.0295 53.7799 31.2849 53.9942 31.4176C54.2087 31.5504 54.3517 31.6014 54.1985 31.7851C54.0351 31.969 54.4435 31.8874 54.2087 32.1426C53.984 32.4081 53.9227 32.5308 53.9125 32.7451C53.9125 32.9494 53.9637 32.9801 53.7594 33.0005C53.5551 33.0209 53.79 33.2558 53.6981 33.5315C53.6062 33.797 53.0344 33.7664 53.0547 34.5015C53.0547 34.5015 53.2181 34.1441 53.5654 33.8276C53.9024 33.5213 53.9126 33.4906 53.9024 33.2966C53.9024 33.1129 53.882 33.1536 54.0657 33.0106C54.2394 32.8678 53.984 32.735 54.1679 32.5306C54.3415 32.3265 54.1882 32.3674 54.4027 32.1631C54.607 31.9589 54.2087 31.9384 54.4334 31.724C54.6376 31.5198 53.9024 31.2644 54.1271 31.1316C54.3312 30.9989 54.6989 30.8049 53.4632 30.8254C53.4632 30.8254 53.7595 30.3351 54.801 30.4373C54.801 30.4373 54.5355 30.6415 54.5047 30.8254C54.5047 30.8254 54.6274 30.8866 54.7091 30.907C54.7091 30.907 54.658 31.05 54.4641 31.2134C54.4641 31.2134 55.0154 31.5196 55.1074 31.7138C55.1074 31.7138 54.7704 31.8159 54.6785 31.9588C54.6785 31.9588 54.8316 32.1325 54.8827 32.3469C54.8827 32.3469 54.5049 32.306 54.4537 32.5819C54.4027 32.8678 54.2904 32.6736 54.2904 32.837C54.2904 33.0004 54.3006 33.072 54.1679 33.1026C54.0351 33.123 54.1475 33.266 54.1679 33.3579C54.1882 33.4498 54.2394 33.6641 54.2189 33.7254C54.2189 33.7254 54.0249 33.7254 53.933 33.7561C53.933 33.7561 53.9942 34.1646 53.7696 34.2156C53.545 34.2769 53.8921 34.3586 53.6471 34.3994C53.4121 34.4404 53.4429 34.4608 53.1466 34.9919C53.1466 34.9919 53.402 34.8488 53.6572 34.6753C53.9227 34.5015 53.6369 34.5528 54.0657 34.134C54.4946 33.7051 54.4232 33.6744 54.3824 33.46C54.3516 33.2455 54.3415 33.0719 54.4946 32.8678C54.658 32.6635 54.6989 32.4286 55.2605 32.4593C55.2605 32.4593 55.0971 32.0916 54.893 31.9996C54.893 31.9996 55.1584 31.8159 55.4342 31.7955C55.4342 31.7955 55.189 31.4891 54.6886 31.2134C54.6886 31.2134 55.0971 30.8559 55.1992 30.6926C55.1992 30.6926 55.0052 30.7233 54.8521 30.6926C54.8521 30.6926 54.9235 30.5189 55.3014 30.2739C55.3014 30.2739 55.5056 30.4679 55.4851 30.6619C55.4851 30.6619 56.1285 30.3045 56.486 30.3454C56.486 30.3454 56.6697 30.7946 55.7814 31.6628C55.7814 31.6628 56.3327 31.7138 56.5676 31.6831C56.5676 31.6831 56.4349 32.1019 55.7711 32.3469C55.1074 32.6021 55.9141 32.8984 55.2299 32.8473C54.5559 32.7963 54.7601 33.0209 54.7806 33.3681C54.801 33.7153 54.8214 34.0728 54.8112 34.1646C54.8112 34.1646 54.27 33.991 54.2802 34.5118C54.2904 35.0429 53.9942 35.1551 53.9432 35.196C53.9432 35.196 53.7799 35.0633 53.545 34.9714C53.545 34.9714 53.208 35.6148 52.6667 35.9926V35.9925Z" fill="#5A3719"/>
<path id="Vector_41" d="M51.8905 29.4059C51.8905 29.4059 52.0742 29.3752 52.3909 29.5692C52.6971 29.7735 53.0036 29.365 52.6666 29.263C52.3091 29.1607 52.6666 29.028 52.9729 29.2834C53.2997 29.5386 53.4222 29.4059 53.5346 29.3241C53.647 29.2322 53.7899 29.1812 53.5755 29.0382C53.361 28.8851 53.7184 28.9565 53.8817 29.0689C54.0452 29.171 53.9839 29.2731 53.9635 29.3037C53.9329 29.3344 53.9226 29.6816 54.2392 29.365C54.5557 29.0382 54.7192 28.7216 54.709 28.5685C54.709 28.5685 54.8826 28.6706 54.9132 28.8747C54.9336 29.0791 55.1787 28.7727 55.2604 28.6604C55.3421 28.5582 55.4749 28.2724 55.4646 28.0681C55.4646 28.0681 55.6689 28.4051 55.9956 28.0681C56.3122 27.7414 56.1794 27.9456 56.5574 27.8435C56.9454 27.7414 57.4254 27.4656 57.6806 27.149C57.9461 26.8222 57.9666 27.0469 58.3035 26.9652C58.6404 26.8836 59.3247 26.4137 59.386 26.1482C59.4472 25.9032 59.4371 25.7397 59.3451 25.8317C59.243 25.9134 59.2839 25.8419 59.1409 25.7602C58.9877 25.6581 58.7734 25.8725 58.7734 25.8725C58.7734 25.8725 58.9877 26.036 58.8244 26.1075C58.661 26.1789 58.518 26.4137 58.2014 26.3116C57.8951 26.23 57.5682 26.6079 57.5682 26.6079C57.5682 26.6079 57.844 26.8222 57.4764 26.9652C57.1189 27.1082 57.1701 27.149 56.9556 26.9959C56.9556 26.9959 56.5675 27.486 56.3429 27.5881C56.3429 27.5881 56.2407 27.5881 56.1795 27.486C56.1795 27.486 55.9242 27.772 55.8016 27.823C55.8016 27.823 55.6382 27.6801 55.4954 27.6187C55.4954 27.6187 55.1889 28.0069 54.9336 28.1191C54.9336 28.1191 54.8621 27.9762 54.6987 27.8842C54.6987 27.8842 54.6171 28.3745 54.086 28.6605C54.086 28.6605 54.1166 28.5379 53.8511 28.354C53.8511 28.354 53.1874 28.9259 52.9321 28.9871C52.6666 29.0382 52.9015 28.8646 52.9321 28.783C52.973 28.7115 53.1364 28.4766 52.8197 28.3745C52.5031 28.2724 52.5542 28.446 52.4827 28.4766C52.4112 28.5072 52.4112 28.4154 52.1866 28.446C51.9824 28.4766 52.013 28.5685 51.9211 28.6094C51.819 28.64 51.4514 28.5481 51.4717 28.7931C51.4922 29.0381 51.6659 29.2119 51.339 29.3547C51.0122 29.4977 51.4615 29.4672 51.8905 29.4059V29.4059Z" fill="#7B3C20"/>
<path id="Vector_42" d="M53.2284 28.7115C53.2284 28.7115 53.3102 28.3846 53.0344 28.2417C53.0344 28.2417 54.7908 27.966 53.4633 27.292C53.4633 27.292 55.0462 26.9755 54.6683 26.475C54.3007 25.9645 53.933 26.0666 53.882 26.087C53.8309 26.087 54.2189 25.7907 54.321 25.8317C54.4232 25.8725 55.6895 26.3525 55.3627 25.9339C55.0462 25.5254 55.0665 25.5457 55.0155 25.4232C55.0155 25.4232 55.4343 25.4232 56.0673 26.036C56.0673 26.036 56.2001 25.9032 56.1898 25.6479C56.1898 25.6479 56.6392 25.7806 56.7822 25.9134C56.7822 25.9134 56.8537 25.7602 56.823 25.6684C56.823 25.6684 57.2213 25.8725 57.354 26.0971C57.354 26.0971 57.5277 25.944 57.5583 25.7602C57.5583 25.7602 57.9463 25.9236 58.0484 26.0461C58.0484 26.0461 58.1812 25.8725 58.1302 25.6377C58.1302 25.6377 58.7734 25.8215 58.8654 25.4335C58.8654 25.4335 59.5087 25.5662 59.09 25.8215C58.5488 26.1482 59.0389 25.7397 58.4773 26.1277C58.0485 26.4342 57.8033 26.7815 57.599 26.7099C57.4459 26.6486 57.2622 27.098 57.0578 26.8836C56.8537 26.6589 56.8537 26.761 56.7004 26.9856C56.5575 27.2104 56.3227 27.4452 56.3227 27.4452C56.3227 27.4452 56.2205 27.384 56.1184 27.292C56.1184 27.292 56.006 27.4962 55.8427 27.6596C55.8427 27.6596 55.7099 27.486 55.5057 27.3839C55.5057 27.3839 55.189 27.7515 54.995 27.8842C54.995 27.8842 54.801 27.7005 54.607 27.6392C54.607 27.6392 54.5764 28.1396 54.1883 28.3949C54.1883 28.3949 54.1067 28.2315 53.8513 28.1294C53.8513 28.1294 53.6573 28.4356 53.2387 28.7012L53.2284 28.7115Z" fill="#5A3719"/>
<path id="Vector_43" d="M52.3093 27.9354C52.3093 27.9354 52.0949 28.0988 52.2276 28.2724C52.3706 28.4561 52.3808 28.2418 52.5544 28.2315C52.728 28.2111 54.8828 27.8435 52.9323 27.2614C52.9323 27.2614 53.0139 27.1796 53.3408 27.1593C53.6879 27.1184 54.9133 26.7916 54.3415 26.3525C53.7696 25.9236 53.2896 26.5058 53.7696 25.985C54.1576 25.5663 53.8513 25.362 53.8513 25.362C53.8513 25.362 52.7178 26.1176 52.4625 26.2606C52.2175 26.3934 51.8498 26.6691 52.2788 26.8019C52.7075 26.9346 52.9935 26.3423 53.0344 26.475C53.0753 26.6079 52.1765 27.1082 52.3094 27.3329C52.4319 27.5677 52.4114 27.7618 52.6259 27.7108C52.8505 27.6699 53.4429 27.823 52.9629 27.8129C52.4728 27.7924 52.3093 27.9354 52.3093 27.9354V27.9354Z" fill="#5A3719"/>
<path id="Vector_44" d="M53.0853 26.8529C53.0853 26.8529 52.881 26.9959 53.1465 26.9244C53.412 26.8529 53.9329 26.7406 53.841 26.6079C53.7389 26.4649 53.3917 26.6283 53.0853 26.8529Z" fill="black"/>
<path id="Vector_45" d="M56.5471 24.6063C56.5471 24.6063 57.5479 24.5756 57.9564 24.8616C58.3649 25.1373 58.5691 25.3211 58.6916 25.362C58.6916 25.362 58.6711 25.7398 58.0279 25.4641C58.0279 25.4641 58.0686 25.6479 57.9973 25.8316C57.9973 25.8316 57.7623 25.6684 57.4866 25.607C57.4866 25.607 57.4355 25.75 57.3539 25.8318C57.3539 25.8318 57.0679 25.5458 56.7411 25.4539C56.7411 25.4539 56.6799 25.5969 56.6288 25.6581C56.6288 25.6581 56.2816 25.4539 56.0161 25.4539C56.0161 25.4539 56.0671 25.6684 56.0161 25.7601C56.0161 25.7601 55.3013 25.1781 54.6478 25.2496C54.6478 25.2496 54.954 25.7091 55.1583 25.9339C55.1583 25.9339 53.8511 25.8318 54.0758 25.1271C54.2801 24.4225 54.0554 24.5961 54.9133 24.6063H56.547H56.5471Z" fill="#7B3C20"/>
<path id="Vector_46" d="M50.4099 26.5567C50.4099 26.5567 50.2567 26.6793 50.4099 26.7814C50.5529 26.8835 51.0736 26.5159 51.1451 26.4649C51.2166 26.4036 51.4005 26.4138 51.1451 26.6079C50.8897 26.802 50.6345 27.0163 50.461 27.2205C50.461 27.2205 51.329 26.9856 51.8906 26.4955C52.4625 26.0054 51.8702 26.3219 52.8301 25.8624C53.7901 25.3926 54.3006 24.6471 53.7799 24.7289C53.2692 24.8105 52.7995 25.4029 52.391 25.6275C51.9927 25.8521 51.7681 25.8828 51.8294 25.75C51.8906 25.6172 52.1869 25.6684 52.7484 25.2292C53.2999 24.7799 53.1774 24.8208 53.1774 24.6574C53.1774 24.5041 52.9731 24.1161 53.8002 23.677C54.6376 23.2379 57.2212 21.7367 57.4459 21.2057C57.4459 21.2057 56.6902 21.2874 55.6895 22.0226C55.1409 22.4815 54.5413 22.8756 53.9024 23.197C53.6266 23.2991 53.6574 23.2276 53.4836 23.4421C53.2999 23.6566 52.3195 24.6063 52.1357 24.7493C51.962 24.882 51.9007 24.9739 51.8906 25.2599C51.8906 25.3926 50.7674 26.2402 50.4201 26.5567H50.4099Z" fill="#5A3719"/>
<path id="Vector_47" d="M53.8308 24.5859C53.8308 24.5859 53.6265 24.6675 53.4428 24.5859C53.259 24.4837 53.3203 24.0957 53.7695 23.8506C54.2962 23.5616 54.8596 23.3452 55.4443 23.2072C55.4443 23.2072 55.383 23.7179 54.0963 24.157C54.0963 24.157 54.178 24.4225 53.8308 24.5857V24.5859Z" fill="#5A3719"/>
<path id="Vector_48" d="M54.2803 24.2489C54.2803 24.2489 54.321 24.3714 54.2803 24.4837C54.2803 24.4837 56.6698 24.7186 57.9054 23.2584C57.9054 23.2584 56.2103 23.4217 55.5363 23.8301C55.5363 23.8301 55.9651 23.2991 57.2314 22.8601C58.4976 22.421 59.0185 21.8695 59.1309 21.5734C59.1309 21.5734 57.5174 22.135 56.7618 22.135C56.7618 22.135 56.6085 22.135 56.4554 22.2065C56.3124 22.2984 55.2911 23.0336 55.0256 23.1665C55.0256 23.1665 55.5975 23.1152 55.8019 22.9315C55.8019 22.9315 55.3933 24.0037 54.2803 24.2489Z" fill="#AA5323"/>
<path id="Vector_49" d="M49.7053 25.607C49.7053 25.607 49.3991 25.8318 49.5216 25.9339C49.6543 26.0461 49.8687 26.0666 50.3384 25.6785C50.8082 25.2803 51.9417 24.3101 51.2269 24.2693C51.2269 24.2693 50.3078 24.2183 50.3384 24.7799C50.3691 25.3415 49.7462 25.5764 49.7053 25.607ZM47.5813 25.2803C47.5813 25.2803 48.1939 25.6378 47.9591 25.9236C47.9591 25.9236 49.8177 24.351 49.2866 24.0038C48.7761 23.6668 48.3676 24.3101 48.4902 24.3714C48.6127 24.4429 48.8884 24.3204 48.7964 24.4429C48.6943 24.5654 47.7038 25.2291 47.5813 25.2804V25.2803ZM47.1013 24.7696C47.1013 24.7696 47.5098 24.8921 47.5302 25.076C47.5404 25.2394 48.7557 24.2183 48.4391 23.7791C48.2859 23.5851 47.6221 23.5034 47.5813 23.8915C47.5507 24.2795 48.1939 23.8506 47.9693 24.1264C47.6834 24.4939 47.1932 24.7084 47.1013 24.7696V24.7696ZM51.4516 23.9119C51.4516 23.9119 51.1963 24.0956 51.4312 24.2181C51.6661 24.3204 51.8089 24.1468 51.9316 24.0446C52.0438 23.9425 52.6259 23.5136 52.7484 23.2481C52.8914 22.9724 53.0854 22.8906 53.2999 22.758C53.5042 22.615 54.9849 21.8798 55.8937 21.0628C56.8026 20.2459 56.4248 20.4603 57.3643 19.9395C58.3038 19.4188 58.9267 18.9388 59.1207 18.3669C59.1207 18.3669 58.6816 18.5098 58.3037 18.7651C57.9157 19.0101 57.0477 19.5514 56.8741 19.6331C56.7004 19.7046 56.4656 19.7148 56.3328 19.8475C56.2001 19.9905 56.2103 20.1539 55.7609 20.5215C55.3014 20.8994 52.9629 22.5538 52.6769 22.7886C52.3911 23.0235 51.4516 23.9119 51.4516 23.9119V23.9119Z" fill="#5A3719"/>
<path id="Vector_50" d="M49.5725 24.4634C49.5725 24.4634 49.8279 24.3204 50.3078 24.3612C50.7878 24.3816 52.6871 22.5435 53.2386 22.1759C53.79 21.798 55.5159 20.5624 55.7405 20.3377C55.9754 20.1027 56.0163 19.8577 56.2205 19.725C56.4248 19.5922 56.6085 19.6126 57.068 19.3471C57.5378 19.0816 59.7743 17.7439 59.6414 16.9677C59.6414 16.9677 56.3124 18.9591 55.5464 19.6127C54.4826 20.4431 53.3857 21.23 52.2583 21.9716C51.8804 22.2166 51.5843 22.6251 50.9409 23.146C50.3078 23.6566 49.6746 24.0957 49.5725 24.4634V24.4634Z" fill="#AA5323"/>
<path id="Vector_51" d="M48.8679 23.7485C48.8679 23.7485 49.4807 23.6873 49.5725 23.9935C49.5725 23.9935 50.8899 23.0848 51.186 22.7171C51.4923 22.3393 51.0839 22.5538 51.8397 22.0635C53.0647 21.2462 54.2668 20.3949 55.4444 19.5106C55.8019 19.2043 56.486 18.7856 57.0273 18.4179C57.5685 18.0504 59.6823 17.0086 59.4474 16.1611L57.548 17.4274C57.1905 17.6623 57.0374 17.5295 56.6903 17.8051C56.3328 18.0911 55.5465 18.6426 55.4138 18.8264C55.2708 18.9898 54.076 19.9089 53.4939 20.2969C52.9118 20.6849 51.6149 21.4406 50.9818 21.992C50.3487 22.5333 49.1437 23.5443 48.868 23.7485H48.8679Z" fill="#AA5323"/>
<path id="Vector_52" d="M46.9581 23.575C46.9581 23.575 47.2645 23.575 47.3666 23.6975C47.3666 23.6975 47.9385 23.1869 48.5512 23.6975C48.5512 23.6975 50.7979 22.1656 51.0225 21.7878C51.2471 21.41 51.6147 21.3998 52.4827 20.7666C53.361 20.1233 53.9125 19.8475 54.4945 19.4085C55.0766 18.9489 55.5667 18.4384 55.9855 18.1728C56.3939 17.8971 57.456 17.2028 57.2824 16.6104C57.2824 16.6104 56.4246 17.0904 55.8731 17.703C55.3115 18.3158 55.3625 17.795 54.7906 18.3055C54.1318 18.9128 53.4014 19.4375 52.6156 19.868C51.8905 20.2255 52.3296 20.1845 51.7986 20.5215C51.2777 20.8585 51.3186 20.8075 51.1246 20.8585C50.9204 20.8994 50.6345 21.0423 50.4404 21.267C50.2361 21.4916 49.7256 21.798 49.1639 22.1248C48.3817 22.538 47.6398 23.0235 46.948 23.5749L46.9581 23.575Z" fill="#AA5323"/>
<path id="Vector_53" d="M47.6323 22.4108C47.6323 22.4108 47.5097 22.1555 47.7241 21.9716C47.9386 21.798 48.3368 21.3283 48.3981 21.0321C48.4593 20.7259 48.4083 20.7871 49.0312 20.5215C50.8363 19.7637 52.5465 18.7972 54.1269 17.6418C54.3719 17.4478 54.9848 17.0291 55.2298 16.8249C55.2298 16.8249 55.3422 17.1516 55.0767 17.3865C54.1599 18.1027 53.2018 18.7642 52.2072 19.3676C51.9109 19.5208 51.1859 19.8884 50.9307 20.1029C50.6753 20.3173 50.7162 20.3786 49.5724 20.9403C48.4287 21.4916 48.3777 21.553 48.4083 21.5938C48.4492 21.6449 48.9598 21.4201 49.2048 21.2773C49.4498 21.1343 50.3792 20.7054 50.6652 20.4808C50.9408 20.256 51.4106 19.9089 51.6148 19.7965C51.8191 19.6944 53.5041 18.6733 53.9942 18.3158C54.4742 17.9583 54.607 17.846 54.7091 17.9073C54.8112 17.9685 54.9848 17.9685 54.7703 18.1728C54.5558 18.377 53.8716 18.9898 53.6062 19.1531C53.3407 19.3268 52.5237 19.8169 52.2991 19.9293C52.0743 20.0518 51.9825 20.2663 51.8497 20.3581C51.7272 20.4603 51.3493 20.7156 50.9001 20.8176C50.4508 20.9196 50.369 21.267 50.0728 21.461C49.7666 21.6448 47.6628 22.7885 47.6016 22.8398C47.6016 22.8398 47.7241 22.7069 47.6322 22.4108H47.6323Z" fill="#AA5323"/>
<path id="Vector_54" d="M54.9336 17.6623C54.9336 17.6623 54.8212 17.7644 54.8826 17.8256C54.9642 17.9073 55.2603 18.1115 55.628 17.7439C56.1517 17.2564 56.7116 16.8092 57.3027 16.4061C57.6091 16.2121 57.7725 16.0386 57.7623 15.7833C57.7623 15.7833 56.2407 16.59 54.9336 17.6623V17.6623ZM57.0168 17.5295C57.0168 17.5295 57.2517 17.1414 57.8236 16.7738C58.3955 16.4063 59.2532 15.8751 59.3553 15.7525C59.3553 15.7525 59.5596 15.9773 59.1205 16.2631C58.6375 16.5665 58.1609 16.8797 57.6908 17.2026C57.5887 17.2844 57.4151 17.4069 57.0168 17.5295Z" fill="#AA5323"/>
<path id="Vector_55" d="M45.4265 21.747C45.4265 21.747 44.7934 22.084 45.018 22.2984C45.2428 22.5026 45.5797 22.4414 45.7329 22.3801C45.8657 22.329 46.1312 22.2576 46.172 22.2474C46.2129 22.2371 46.7643 22.0736 46.9073 21.8185C47.04 21.5631 47.4179 21.267 47.714 21.0525C48.0102 20.8484 48.1225 20.6237 48.0715 20.4705C48.0715 20.4705 45.5797 21.655 45.4265 21.747V21.747ZM41.6482 24.6777C41.6482 24.6777 42.0974 24.4122 42.7102 24.5756C42.7102 24.5756 42.6795 24.4326 42.5877 24.351C42.5877 24.351 43.3332 24.157 43.4964 23.8301C43.6599 23.4932 43.7008 23.5646 43.8335 23.4727C43.9867 23.3706 44.9874 22.564 44.8752 22.3902C44.7527 22.2167 44.7322 21.9819 44.6504 21.9002C44.6504 21.9002 44.4462 22.1861 43.4557 22.6559C42.4855 23.1359 41.3929 23.4932 40.5963 24.5552C39.81 25.6275 39.8917 26.2402 40.8618 26.5159C40.8618 26.5159 41.5358 26.0871 43.2004 26.23C44.8547 26.3831 45.4163 27.0061 45.5287 27.1184C45.6308 27.2307 45.9678 27.6392 45.641 28.3336C45.641 28.3336 45.978 28.4766 45.9984 28.16C46.029 27.8435 46.0494 27.915 46.1209 27.9557C46.2027 28.0069 46.2947 28.017 46.2537 27.772C46.223 27.527 46.1108 26.9857 45.9474 26.8019C45.8044 26.6079 45.978 26.6997 46.0699 26.7304C46.172 26.7712 46.5192 27.0571 46.3149 26.5261C46.1108 26.0155 46.0494 26.2709 46.0393 26.2912C46.0393 26.3219 45.9984 26.4546 45.5389 26.1075C45.1875 25.8391 44.7893 25.6382 44.3645 25.5151C44.0582 25.4335 44.2727 25.4335 44.4564 25.3721C44.6402 25.3007 44.8752 25.27 44.967 25.0659C44.967 25.0659 44.7833 25.1066 44.4564 24.9841C44.1971 24.9093 43.924 24.8953 43.6583 24.9431C43.3927 24.9909 43.1416 25.0993 42.9247 25.2599C42.9247 25.2599 43.088 24.6471 42.5979 24.6777C42.1077 24.7084 41.7707 24.6982 41.2499 25.1066C41.2499 25.1066 41.2193 24.4837 41.7094 24.157C42.1995 23.8404 42.1383 24.0345 42.4038 23.9527C42.6795 23.871 42.7102 23.5952 42.5875 23.5034C42.5875 23.5034 43.231 23.6157 44.3033 22.7272C44.3033 22.7272 43.7212 23.483 43.0268 23.6361C43.0268 23.6361 42.9144 24.0446 42.271 24.1264C41.6379 24.2182 41.6584 24.5859 41.6584 24.6777H41.6482Z" fill="#7B3C20"/>
<path id="Vector_56" d="M39.8201 28.3643C39.8201 28.3643 40.1265 26.4853 41.8932 26.3525C43.425 26.23 43.9151 26.424 44.2215 26.5261C44.5279 26.6283 45.2835 26.8428 44.9874 27.0878C44.7015 27.3228 44.5279 27.2818 44.5279 27.2818C44.5279 27.2818 44.8649 26.904 44.5585 26.8428C44.2522 26.7815 44.2317 26.9653 44.1909 27.1184C44.1397 27.2818 44.1296 27.4656 43.9764 27.5881C43.9764 27.5881 43.8232 27.4145 43.5986 27.5678C43.374 27.721 43.568 27.7311 43.6599 27.7005C43.7415 27.6801 43.8641 27.629 43.8335 27.772C43.813 27.9048 43.6905 28.1395 43.3229 28.3336C42.9654 28.5174 42.9756 28.5073 42.5467 28.5786C42.1076 28.6503 41.7094 28.8238 41.158 29.2936C40.5962 29.7735 39.9937 29.6101 39.8712 29.0893C39.7691 28.6298 39.8201 28.3745 39.8201 28.3745V28.3643Z" fill="#5A3719"/>
<path id="Vector_57" d="M41.8319 28.303C41.8319 28.303 41.9954 27.9354 41.6991 27.7618C41.6991 27.7618 40.7801 27.9251 40.4941 27.6494C40.4941 27.6494 41.5051 27.5881 42.1281 27.3431C42.7408 27.1081 42.5671 26.9346 42.3528 26.8938C42.1383 26.8529 41.74 26.955 41.6991 27.149C41.6991 27.149 41.5766 26.9448 41.7298 26.8019C41.8933 26.6589 42.1383 26.6385 42.3528 26.6998C42.5774 26.761 42.7715 26.8631 43.4965 26.4853C43.4965 26.4853 43.9153 26.5874 43.9356 26.8631C43.9356 27.149 43.9049 27.2614 43.8641 27.3023C43.8335 27.3533 43.7824 27.435 43.6904 27.4248C43.6088 27.4145 43.4863 27.3941 43.3841 27.5881C43.282 27.7924 43.2105 27.9558 43.0266 28.0885C43.0266 28.0885 43.231 27.4759 42.6999 27.3329C42.6999 27.3329 42.2609 27.5881 41.9239 27.6086C41.9239 27.6086 42.3526 28.0069 41.8218 28.303H41.8319Z" fill="black"/>
<path id="Vector_58" d="M42.802 27.1796C42.802 27.1796 42.5979 26.9653 42.8633 26.9346C43.1289 26.9141 43.476 27.1083 43.4148 27.2818C43.3433 27.4453 43.0268 27.435 42.802 27.1796V27.1796Z" fill="#5A3719"/>
<path id="Vector_59" d="M57.9157 24.2182C57.9157 24.2182 57.4256 24.351 57.8851 24.6574C58.3344 24.9636 58.5591 25.219 58.8858 25.3007C59.2228 25.3926 59.5598 25.5049 59.5598 25.842C59.5598 26.1687 59.4883 26.3015 59.3046 26.5261C59.1207 26.761 59.4067 26.8529 59.6414 26.7304C59.8866 26.5976 60.0806 26.5261 60.2439 26.4341C60.3972 26.3422 60.6524 26.3525 60.4278 26.475C60.1828 26.5975 59.9377 26.6792 60.2441 26.6792C60.5503 26.6895 62.4089 26.7304 62.7969 26.5976C63.1851 26.4751 63.6957 26.4342 63.7364 25.9339C63.7364 25.9339 63.7569 25.7091 63.8998 25.607C64.0428 25.5151 64.1449 25.3007 63.9304 25.4436C63.7262 25.5969 63.5629 25.6684 63.5221 25.6274C63.4812 25.5764 63.4608 25.5457 63.6242 25.4742C63.7773 25.4029 63.8591 25.4742 64.0019 25.27C64.1449 25.0556 64.1347 25.0862 64.0531 25.0045C63.9816 24.9229 63.8181 24.8717 63.8998 24.7696C63.9816 24.6675 64.0531 24.3612 63.7161 24.5347C63.3791 24.7186 62.7051 25.1781 62.3886 25.2497C62.0822 25.3211 61.8473 25.413 61.4286 25.4947C61.0201 25.5866 60.7546 25.6785 60.3053 25.9236C59.8559 26.1686 59.8968 25.7806 59.9683 25.7296C59.9683 25.7296 60.1419 26.0359 60.5912 25.6377C61.0406 25.2496 60.8976 25.6172 62.0107 25.2496C63.1136 24.8921 62.8481 24.8309 63.2769 24.6062C63.7161 24.3816 64.1244 24.3714 63.8182 24.065C63.5118 23.7587 63.4812 23.7382 63.0932 24.065C62.4699 24.5293 61.7391 24.828 60.9691 24.9331C60.9691 24.9331 63.4709 23.8609 63.2157 23.7076C62.9979 23.5625 62.7607 23.4491 62.5111 23.3706C62.3374 23.3297 62.2863 23.289 61.8881 23.4727C61.4797 23.6464 61.4183 23.6872 61.3061 23.6974C61.1836 23.7076 60.8464 23.7791 60.3666 24.0242C59.8968 24.2692 59.6416 24.3714 59.3147 24.5655C59.3147 24.5655 59.5394 24.1161 60.5299 23.82C61.5103 23.5237 62.0107 23.2584 61.9086 23.2072C61.8064 23.1561 61.5511 23.1051 61.3673 23.146C61.1836 23.1766 61.2346 23.1256 60.6321 23.3706C60.0296 23.6056 60.2848 23.5544 59.8049 23.6566C59.3147 23.7587 59.1207 23.8609 58.8858 23.9629C58.8858 23.9629 58.9879 23.8404 59.3046 23.7179C59.4781 23.6566 59.1207 23.5954 59.5904 23.5749H59.7232C60.1265 23.4881 60.5151 23.3437 60.8772 23.146C60.7751 23.1256 60.1929 23.0642 59.6007 23.3502C59.0083 23.6157 59.2738 23.5239 59.0697 23.5545C58.8654 23.6055 58.4161 23.8812 58.2731 24.0037C58.1199 24.1262 57.9157 24.208 57.9157 24.208V24.2182Z" fill="#F5F5F5"/>
<path id="Vector_60" d="M43.2615 26.9141C43.2615 26.9141 43.4964 26.9856 43.5576 27.1491C43.6189 27.3124 43.7619 27.0775 43.7619 27.0061C43.7516 26.9346 43.6086 26.5976 43.3534 26.761C43.0981 26.904 43.2309 26.904 43.2615 26.9141V26.9141Z" fill="#5A3719"/>
<path id="Vector_61" d="M42.6182 30.1411C42.6182 30.1411 43.1083 29.9063 43.5372 29.9369C43.5372 29.9369 43.3637 29.3548 43.6597 29.4468C43.9457 29.5489 43.8641 29.508 43.9253 29.508C43.9253 29.508 43.9457 29.12 43.8641 28.9668C43.8641 28.9668 44.1703 29.0383 44.4666 29.0383C44.4666 29.0383 44.1806 28.4868 44.4972 28.0988C44.4972 28.0988 44.6708 28.4664 45.0588 28.5583V28.2418C45.0588 28.2418 45.2834 28.2111 45.4673 28.303C45.6511 28.4051 45.7941 27.292 45.2631 27.0571C45.2631 27.0571 45.1303 27.2614 44.63 27.3635C44.1296 27.4656 44.1397 27.5678 43.9356 27.9456C43.7314 28.3235 43.5475 28.3234 43.1186 28.5991C42.7101 28.8646 42.4548 29.4161 42.4343 29.4671C42.4343 29.4671 42.6488 29.7326 42.6181 30.1411H42.6182Z" fill="#7B3C20"/>
<path id="Vector_62" d="M59.3147 23.7179C59.4884 23.6873 59.1207 23.5954 59.5904 23.5749H59.7232C60.1265 23.4882 60.5151 23.3437 60.8772 23.146C60.7751 23.1256 60.1929 23.0643 59.6007 23.34C59.0084 23.6158 59.2738 23.5238 59.0697 23.5646C58.8654 23.6055 58.4161 23.8813 58.2731 24.0038C58.1199 24.1263 57.9157 24.208 57.9157 24.208C57.9157 24.208 57.4256 24.351 57.8851 24.6574C58.3344 24.9636 58.5591 25.219 58.8858 25.3008C59.2228 25.3926 59.5598 25.5049 59.5598 25.842C59.5496 26.1688 59.4883 26.3015 59.3046 26.5261C59.1207 26.761 59.4067 26.8529 59.6414 26.7304C59.8866 26.5976 60.0806 26.5261 60.2439 26.4341C60.3972 26.3423 60.6524 26.3525 60.4177 26.475C60.1827 26.5975 59.9377 26.6793 60.2439 26.6793C60.5503 26.6895 62.4089 26.7304 62.7969 26.5976C63.1851 26.4751 63.6957 26.4343 63.7364 25.9339C63.7364 25.9339 63.7569 25.7091 63.8998 25.607C64.0428 25.5151 64.1449 25.3008 63.9304 25.4436C63.7262 25.5969 63.5527 25.6684 63.5221 25.6274C63.4812 25.5764 63.4608 25.5458 63.6242 25.4743C63.7773 25.4029 63.8591 25.4743 64.0019 25.27C64.1449 25.0556 64.1347 25.0863 64.0531 25.0045C64.0122 24.9638 63.9509 24.9331 63.9203 24.8923C63.9203 24.8923 63.8079 24.7901 63.6752 24.8718C63.5424 24.9638 62.9705 25.1986 62.7459 25.2293C62.5212 25.2496 62.2762 25.3518 61.8677 25.556C61.4592 25.7603 60.7751 26.1688 60.6627 25.7806C60.6627 25.7806 60.3664 25.8828 60.3052 25.9236C59.8457 26.1585 59.8866 25.8215 59.9683 25.7296C59.9683 25.7296 59.7232 26.0054 59.7333 25.7603C59.7436 25.5153 59.8968 25.556 60.1726 25.4743C60.4381 25.3926 60.8567 25.219 60.6831 25.076C60.5096 24.9331 60.3257 25.219 60.1317 25.311C59.9377 25.4029 59.5496 25.4743 59.4883 25.1985C59.4271 24.9126 59.4271 24.7186 58.9062 24.688C58.3854 24.6574 58.3957 24.3305 58.5387 24.1876C58.6918 24.0446 58.8143 23.8098 59.3046 23.7179H59.3147Z" fill="#999999"/>
<path id="Vector_63" d="M60.9793 26.2606C60.9793 26.2606 61.7962 25.893 62.5417 25.7091C63.2973 25.5356 62.7051 25.7398 62.5826 25.7704C62.4498 25.8113 61.2856 26.1994 61.01 26.3321C60.7342 26.4546 60.7852 26.3525 60.9793 26.2709V26.2606ZM61.1631 26.4343C61.1631 26.4343 62.0822 26.1279 62.2557 26.2505C62.4295 26.3831 62.2863 26.3219 62.0822 26.3525C61.878 26.373 61.3265 26.4649 61.1835 26.4649C61.0303 26.4649 61.1631 26.4343 61.1631 26.4343ZM62.6438 26.1074C62.6438 26.1074 62.8175 26.0768 62.8378 26.1483C62.8481 26.2095 62.7561 26.2198 62.6541 26.2095C62.5621 26.1891 62.4803 26.1381 62.6438 26.1074Z" fill="black"/>
<path id="Vector_64" d="M38.3599 34.1237C38.3599 34.1237 38.3293 33.3067 38.7378 32.8984C39.1463 32.49 41.1171 30.4372 41.4235 29.8654C41.4235 29.8654 41.6788 30.039 41.689 30.3657C41.689 30.3657 42.026 29.7939 42.2813 29.5795C42.2813 29.5795 42.5161 29.8144 42.4855 30.2942C42.4855 30.2942 42.9553 30.039 43.6905 30.039C43.6905 30.039 43.4148 30.3556 43.4045 30.5496C43.4045 30.5496 44.4258 30.4271 44.967 30.519C44.967 30.519 43.5578 31.3052 43.9458 31.3767C44.3543 31.4482 44.7628 31.3767 44.7628 31.3767C44.7628 31.3767 44.3134 31.8261 43.5986 31.918C43.5986 31.918 44.5074 31.9077 44.6913 32.112C44.6913 32.112 43.8029 32.2447 43.0983 32.786C43.0983 32.786 43.0268 32.7554 43.0268 32.5511C43.0268 32.5511 42.9961 32.7349 42.7918 32.9086C42.5876 33.0719 42.1076 33.4395 41.9239 33.6234C41.7401 33.797 41.4133 34.1646 41.0456 34.1441C41.0456 34.1441 41.1273 33.8685 40.8619 33.7766C40.7236 33.7301 40.5747 33.7246 40.4334 33.7608C40.292 33.797 40.1642 33.8734 40.0653 33.9807C40.0653 33.9807 39.1156 34.0012 38.8093 34.042C38.8093 34.042 39.0236 33.6949 39.2176 33.7051C39.4219 33.7051 40.2185 33.8276 40.2899 33.2761C40.3614 32.7349 39.7794 32.8779 39.9938 32.5614C40.2185 32.2345 40.1675 32.255 40.1775 32.2141C40.1775 32.2141 39.9938 32.3162 39.8916 32.6021C39.7895 32.8881 39.7079 33.1127 39.33 33.3987C39.0669 33.5671 38.8467 33.7943 38.6866 34.0625C38.6866 34.0625 38.5131 34.0829 38.3599 34.1237V34.1237Z" fill="#F5F5F5"/>
<path id="Vector_65" d="M39.2791 33.6336C39.2791 33.6336 39.3097 33.5315 39.5853 33.4804C39.8713 33.4294 39.8917 33.2966 39.8509 33.2354C39.8101 33.1842 39.6467 33.1842 39.9122 32.8677C39.9122 32.8677 40.0143 32.8984 40.0756 32.9699C40.1471 33.0515 40.4534 33.7051 39.2791 33.6336V33.6336Z" fill="#F5F5F5"/>
<path id="Vector_66" d="M38.6151 33.0617C38.6254 33.603 39.3301 33.3987 39.3301 33.3987C39.1415 33.534 38.9699 33.6918 38.8194 33.8685C38.8705 33.603 38.4211 33.5416 38.4211 33.5416C38.462 33.3782 38.5233 33.2046 38.6151 33.0616V33.0617ZM41.1989 30.1921C41.3009 30.0594 41.3826 29.9471 41.4235 29.8654C41.4235 29.8654 41.6788 30.039 41.689 30.3657C41.689 30.3657 42.026 29.7939 42.2813 29.5795C42.2813 29.5795 42.5161 29.8144 42.4855 30.2942C42.4855 30.2942 42.9553 30.039 43.6905 30.039C43.6905 30.039 43.4148 30.3556 43.4045 30.5496C43.4045 30.5496 44.4258 30.4271 44.967 30.519C44.967 30.519 43.5578 31.3052 43.9458 31.3767C44.3543 31.4482 44.7628 31.3767 44.7628 31.3767C44.7628 31.3767 44.3134 31.8261 43.5986 31.918C43.5986 31.918 44.5074 31.9077 44.6913 32.112C44.6913 32.112 44.4258 32.1529 44.0785 32.2754C44.0785 32.2754 43.8233 32.0304 43.0573 32.0711C43.0573 32.0711 43.6498 31.7341 44.1194 31.6219C44.1194 31.6219 43.9151 31.3564 43.5884 31.6014C43.5884 31.6014 42.945 31.1624 43.4863 30.7845C43.4863 30.7845 43.1084 30.713 42.8634 30.8866C42.8634 30.8866 42.8634 30.5802 43.139 30.4475C43.139 30.4475 42.4243 30.325 42.2506 30.856C42.2506 30.856 42.1076 30.6415 42.1791 30.3964C42.1791 30.3964 41.74 30.6415 41.546 30.9275C41.546 30.9275 41.4745 30.3862 41.1988 30.1921H41.1989ZM39.81 33.603C39.6875 33.6336 39.5036 33.6437 39.279 33.6336C39.279 33.6336 39.2994 33.5621 39.4525 33.5111C39.4525 33.5111 39.4934 33.603 39.81 33.603Z" fill="#999999"/>
<path id="Vector_67" d="M41.1172 31.5707C41.1172 31.5707 41.4439 31.8261 41.5563 31.9792C41.5563 31.9792 41.8626 31.775 41.9647 31.6014C41.9647 31.6014 42.1997 31.7546 42.2711 31.9792C42.2711 31.9792 42.4448 31.8771 42.4753 31.7137C42.4753 31.7137 42.8838 31.7955 43.0268 31.9282C43.0268 31.9282 43.0881 31.5401 43.0268 31.2849C43.0268 31.2849 43.3127 31.3155 43.4863 31.387C43.4863 31.387 43.3229 31.1215 44.1501 30.7845C44.1501 30.7845 43.5272 30.9275 43.2821 31.193C43.2821 31.193 43.0166 31.2134 42.9042 31.1317V31.724C42.9042 31.724 42.7408 31.6525 42.4344 31.581C42.4344 31.581 42.3528 31.7137 42.3017 31.7444C42.3017 31.7444 42.0974 31.581 42.0158 31.3869C42.0158 31.3869 41.7096 31.6627 41.6073 31.775C41.6073 31.775 41.3112 31.5707 41.1172 31.5707Z" fill="black"/>
<path id="Vector_68" d="M39.238 35.6454C39.238 35.6454 39.3708 35.7066 39.6772 35.4616C39.9835 35.2166 40.831 34.6753 40.9025 34.2361C40.9944 33.797 40.637 33.7765 40.3613 33.8991C40.0754 34.0319 40.1979 34.2666 40.2082 34.3484C40.2184 34.4301 40.2285 34.7365 39.769 35.1551L39.238 35.6454Z" fill="#FFC221"/>
<path id="Vector_69" d="M39.1462 35.7781C39.1462 35.7781 38.4621 35.4921 39.0748 35.1858C39.6876 34.8794 39.9632 34.7978 40.0348 34.5323C40.1062 34.2769 40.0653 34.328 39.8305 34.4301C39.6058 34.5323 38.7378 34.9408 38.6051 34.5629C38.6051 34.5629 38.9626 34.7059 39.4118 34.4914C39.8611 34.2668 40.2287 34.2055 39.9428 34.1135C39.6568 34.0216 38.6255 34.134 38.4621 34.185C38.2885 34.2361 38.3293 34.2259 38.2987 34.3893C38.2681 34.5629 38.0842 34.9203 38.0127 35.0224C37.9413 35.1245 37.7677 35.5636 38.0842 35.7576C38.3906 35.9516 38.9012 35.9314 39.1463 35.7781H39.1462Z" fill="#FFC221"/>
<path id="Vector_70" d="M38.8807 34.2871C38.8807 34.2871 38.7172 34.3076 38.748 34.3689C38.7786 34.4301 38.8194 34.4199 38.8807 34.4199C38.9317 34.4199 39.0236 34.3893 39.0339 34.3586C39.0441 34.3178 38.9317 34.2668 38.8807 34.2871Z" fill="black"/>
<path id="Vector_71" d="M39.0952 35.625C39.0952 35.625 38.7787 35.4718 39.1463 35.2778C39.5138 35.0735 39.9019 34.8794 39.9632 34.7978C39.9632 34.7978 39.7794 35.0428 39.1054 35.6249L39.0952 35.625Z" fill="#F5F5F5"/>
</g>
</g>
<defs>
<clipPath id="clip0_2909_185405">
<path d="M0.246094 32C0.246094 14.3269 14.573 0 32.2461 0V0C49.9192 0 64.2461 14.3269 64.2461 32V32C64.2461 49.6731 49.9192 64 32.2461 64V64C14.573 64 0.246094 49.6731 0.246094 32V32Z" fill="white"/>
</clipPath>
</defs>
</svg>
