<svg width="65" height="64" viewBox="0 0 65 64" fill="none" xmlns="http://www.w3.org/2000/svg">
<g id="Rounded=Azerbaijan (AZ)">
<g clip-path="url(#clip0_2909_185497)">
<path id="Vector" d="M0.246094 0H64.2461V64H0.246094V0Z" fill="#3F9C35"/>
<path id="Vector_2" d="M0.246094 0H64.2461V42.6625H0.246094V0Z" fill="#ED2939"/>
<path id="Vector_3" d="M0.246094 0H64.2461V21.3375H0.246094V0Z" fill="#00B9E4"/>
<path id="Vector_4" d="M30.0961 41.6C35.398 41.6 39.6961 37.3019 39.6961 32C39.6961 26.6981 35.398 22.4 30.0961 22.4C24.7942 22.4 20.4961 26.6981 20.4961 32C20.4961 37.3019 24.7942 41.6 30.0961 41.6Z" fill="#F5F5F5"/>
<path id="Vector_5" d="M32.2336 40C36.6519 40 40.2336 36.4183 40.2336 32C40.2336 27.5817 36.6519 24 32.2336 24C27.8154 24 24.2336 27.5817 24.2336 32C24.2336 36.4183 27.8154 40 32.2336 40Z" fill="#ED2939"/>
<path id="Vector_6" d="M40.7711 26.6625L41.7836 29.5375L44.5336 28.225L43.2336 30.975L46.1086 32L43.2336 33.025L44.5336 35.775L41.7836 34.4625L40.7711 37.3375L39.7461 34.4625L36.9961 35.775L38.3086 33.025L35.4336 32L38.3086 30.975L36.9961 28.225L39.7461 29.5375L40.7711 26.6625Z" fill="#F5F5F5"/>
</g>
</g>
<defs>
<clipPath id="clip0_2909_185497">
<path d="M0.246094 32C0.246094 14.3269 14.573 0 32.2461 0V0C49.9192 0 64.2461 14.3269 64.2461 32V32C64.2461 49.6731 49.9192 64 32.2461 64V64C14.573 64 0.246094 49.6731 0.246094 32V32Z" fill="white"/>
</clipPath>
</defs>
</svg>
