<svg width="65" height="64" viewBox="0 0 65 64" fill="none" xmlns="http://www.w3.org/2000/svg">
<g id="Rounded=Bosnia and Herzegovina (BA)">
<g clip-path="url(#clip0_2909_185512)">
<g id="Group">
<path id="Vector" fill-rule="evenodd" clip-rule="evenodd" d="M0.246094 0H64.2461V64H0.246094V0Z" fill="#000099"/>
<path id="Vector_2" fill-rule="evenodd" clip-rule="evenodd" d="M9.87109 0L64.4961 54.625V0H9.87109Z" fill="#FFCC00"/>
<path id="Vector_3" fill-rule="evenodd" clip-rule="evenodd" d="M57.921 58.8L54.6585 56.4125L51.296 58.7875L52.571 54.8875L49.271 52.4875H53.3585L54.6335 48.6125L55.8835 52.5L59.9835 52.5125L56.7085 54.9375L57.921 58.8ZM67.5085 60.1H63.421L62.171 56.2L60.896 60.0875H56.796L60.096 62.4875L58.8335 66.3875L62.1835 64.0125L65.4585 66.3875L64.2335 62.525L67.5085 60.1V60.1ZM49.221 47.45L52.496 45.025H48.4085L47.146 41.125L45.871 45H41.7835L45.0835 47.4125L43.821 51.3L47.171 48.925L50.4335 51.3125L49.221 47.4375V47.45ZM41.6835 39.9L44.9585 37.475L40.8585 37.4625L39.6085 33.5625L38.3335 37.4625L34.246 37.45L37.546 39.85L36.271 43.75L39.6335 41.375L42.896 43.7625L41.6835 39.8875V39.9ZM34.221 32.4375L37.496 30.0125H33.4085L32.146 26.1125L30.871 30H26.7835L30.0835 32.4L28.821 36.3L32.171 33.925L35.4335 36.3L34.221 32.4375V32.4375ZM26.671 24.9L29.946 22.4875L25.846 22.475L24.596 18.575L23.321 22.475L19.2335 22.4625L22.5335 24.8625L21.2585 28.7625L24.621 26.3875L27.8835 28.7625L26.671 24.9125V24.9ZM19.2085 17.4125L22.496 15L18.4085 14.9875L17.1585 11.0875L15.871 14.975H11.771L15.071 17.375L13.8085 21.275L17.1585 18.9L20.421 21.275L19.2085 17.4125V17.4125ZM11.7085 9.91249L14.996 7.49999L10.9085 7.48749L9.65855 3.58749L8.37105 7.47499H4.27104L7.57104 9.87499L6.30855 13.775L9.65855 11.4L12.9335 13.775L11.7085 9.91249V9.91249ZM4.20854 2.41249L7.49605 -6.19888e-06L3.39604 -0.0125062L2.14604 -3.91251L0.846045 -0.0250063H-3.24146L0.0710449 2.37499L-1.19146 6.27499L2.15855 3.89999L5.42105 6.27499L4.20854 2.41249V2.41249Z" fill="#F5F5F5"/>
</g>
</g>
</g>
<defs>
<clipPath id="clip0_2909_185512">
<path d="M0.246094 32C0.246094 14.3269 14.573 0 32.2461 0V0C49.9192 0 64.2461 14.3269 64.2461 32V32C64.2461 49.6731 49.9192 64 32.2461 64V64C14.573 64 0.246094 49.6731 0.246094 32V32Z" fill="white"/>
</clipPath>
</defs>
</svg>
