<svg width="65" height="64" viewBox="0 0 65 64" fill="none" xmlns="http://www.w3.org/2000/svg">
<g id="Rounded=Burkina Faso (BF)">
<g clip-path="url(#clip0_2909_185354)">
<g id="Group">
<path id="Vector" fill-rule="evenodd" clip-rule="evenodd" d="M64.2461 63.95H0.308594V0H64.2461V63.95Z" fill="#DE0000"/>
<path id="Vector_2" fill-rule="evenodd" clip-rule="evenodd" d="M64.2211 64H0.246094V32.025H64.2086L64.2211 64Z" fill="#35A100"/>
</g>
<path id="Vector_3" fill-rule="evenodd" clip-rule="evenodd" d="M48.871 27.975L38.5085 35.0375L42.471 46.4875L32.1335 39.4L21.7835 46.4875L25.746 35.0375L15.396 27.9625L28.1835 27.9875L32.1335 16.525L36.071 27.975" fill="#FFF300"/>
</g>
</g>
<defs>
<clipPath id="clip0_2909_185354">
<path d="M0.246094 32C0.246094 14.3269 14.573 0 32.2461 0V0C49.9192 0 64.2461 14.3269 64.2461 32V32C64.2461 49.6731 49.9192 64 32.2461 64V64C14.573 64 0.246094 49.6731 0.246094 32V32Z" fill="white"/>
</clipPath>
</defs>
</svg>
