<svg width="65" height="64" viewBox="0 0 65 64" fill="none" xmlns="http://www.w3.org/2000/svg">
<g id="Rounded=Bahrain (BH)">
<g clip-path="url(#clip0_2909_185489)">
<path id="Vector" d="M0.246094 0H64.2461V64H0.246094" fill="#F5F5F5"/>
<path id="Vector_2" d="M64.2461 0H13.0461L23.4711 6.4L13.0461 12.8L23.4711 19.2L13.0461 25.6L23.4711 32L13.0461 38.4L23.4711 44.8L13.0461 51.2L23.4711 57.6L13.0461 64H64.2461" fill="#CE1126"/>
</g>
</g>
<defs>
<clipPath id="clip0_2909_185489">
<path d="M0.246094 32C0.246094 14.3269 14.573 0 32.2461 0V0C49.9192 0 64.2461 14.3269 64.2461 32V32C64.2461 49.6731 49.9192 64 32.2461 64V64C14.573 64 0.246094 49.6731 0.246094 32V32Z" fill="white"/>
</clipPath>
</defs>
</svg>
