<svg width="65" height="64" viewBox="0 0 65 64" fill="none" xmlns="http://www.w3.org/2000/svg">
<g id="Rounded=Belarus (BY)">
<g clip-path="url(#clip0_2909_185499)">
<g id="Group">
<path id="Vector" fill-rule="evenodd" clip-rule="evenodd" d="M0.246094 0H128.227V42.5055H0.246094V0Z" fill="#B20000"/>
<path id="Vector_2" fill-rule="evenodd" clip-rule="evenodd" d="M0.246094 42.5055H128.227V63.9969H0.246094V42.5055Z" fill="#429F00"/>
<path id="Vector_3" fill-rule="evenodd" clip-rule="evenodd" d="M0.246094 0H14.4103V63.984H0.246094V0Z" fill="#F5F5F5"/>
<g id="Group_2">
<path id="Vector_4" fill-rule="evenodd" clip-rule="evenodd" d="M0.916894 1.0836H1.60059V2.1672H0.916894V1.0836ZM2.94219 1.0836H4.96749V2.1672H2.95509L2.94219 1.0836ZM3.61299 0H4.29669V1.0836H3.60009L3.61299 0ZM6.99279 0H7.66359V1.0836H6.99279V0ZM9.70179 1.0836H11.7142V2.1672H9.68889L9.70179 1.0836ZM10.3597 0H11.0305V1.0836H10.3597V0ZM2.27139 2.1672H3.62589V3.2508H2.27139V2.1672ZM4.29669 2.1672H5.65119V3.2508H4.29669V2.1672ZM9.01809 2.1672H10.3726V3.2508H9.01809V2.1672ZM11.0434 2.1672H12.3721V3.2508H11.0563L11.0434 2.1672ZM1.60059 3.2508H2.94219V4.3344H1.60059V3.2508ZM4.96749 3.2508H6.32199V4.3344H4.96749V3.2508ZM8.34729 3.2508H9.68889V4.3344H8.34729V3.2508ZM11.7142 3.2508H13.0687V4.3344H11.7142V3.2508ZM13.0687 1.0836H13.7395V2.1672H13.0687V1.0836ZM0.916894 4.3344H2.27139V5.418H0.916894V4.3344ZM5.63829 4.3344H6.99279V5.418H5.63829V4.3344ZM12.3979 4.3344H13.7395V5.418H12.3979V4.3344ZM1.60059 7.611H2.94219V8.6946H1.60059V7.611ZM2.27139 8.6946H3.62589V9.7782H2.27139V8.6946ZM4.98039 7.611H6.30909V8.6946H4.96749L4.98039 7.611ZM4.29669 8.6946H5.63829V9.7782H4.29669V8.6946ZM2.94219 9.7782H4.96749V10.836H2.95509L2.94219 9.7782ZM3.61299 10.836H4.29669V11.9325H3.60009L3.61299 10.836ZM8.34729 7.5852H9.68889V8.6817H8.34729V7.5852ZM9.01809 8.6817H10.3726V9.7653H9.01809V8.6817ZM11.7271 7.5981H13.0687V8.6817H11.7142L11.7271 7.5981ZM11.0434 8.6817H12.3721V9.7653H11.0563L11.0434 8.6817ZM9.68889 9.7653H11.7271V10.836H9.68889V9.7653ZM10.3726 10.836H11.0434V11.9325H10.3726V10.836ZM6.99279 9.7653H7.66359V10.836H6.99279V9.7653ZM0.246094 9.7653H0.916894V10.836H0.246094V9.7653ZM13.7395 9.7653H14.4103V10.836H13.7395V9.7653ZM3.61299 15.1833H4.29669V16.2669H3.60009L3.61299 15.1833ZM2.94219 16.2669H4.96749V17.3505H2.95509L2.94219 16.2669ZM2.27139 17.3505H5.65119V18.4341H2.27139V17.3505ZM10.3726 15.1833H11.0434V16.2669H10.3726V15.1833Z" fill="#B20000"/>
<path id="Vector_5" fill-rule="evenodd" clip-rule="evenodd" d="M9.68889 16.2669H11.7271V17.3505H9.68889V16.2669ZM9.01809 17.3505H12.385V18.4341H9.01809V17.3505ZM9.68889 22.7685H13.0687V23.865H9.68889V22.7685ZM8.34729 18.447H13.0687V19.5306H8.34729V18.447ZM1.60059 18.447H6.30909V19.5306H1.60059V18.447ZM2.27139 23.865H4.29669V24.9615H2.27139V23.865ZM1.60059 22.7943H4.96749V23.8779H1.60059V22.7943ZM11.0434 20.6142H14.4103V21.7107H11.0563L11.0434 20.6142ZM10.3726 23.865H12.3979V24.9486H10.3726V23.865ZM2.94219 24.9486H3.62589V26.0322H2.94219V24.9486ZM11.0434 24.9486H11.7142V26.0322H11.0434V24.9486ZM0.246094 20.6013H3.62589V21.6978H0.246094V20.6013ZM6.30909 22.7814H8.34729V23.865H6.30909V22.7814ZM6.99279 23.865H7.66359V24.9486H6.99279V23.865ZM4.96749 20.6013H9.68889V21.6978H4.96749V20.6013ZM7.67649 4.34729H9.01809V5.41799H7.66359L7.67649 4.34729ZM6.30909 5.41799H8.33439V6.50159H6.30909V5.41799ZM5.62539 6.50159H6.97989V7.58519H5.63829L5.62539 6.50159ZM7.65069 6.50159H9.01809V7.58519H7.66359L7.65069 6.50159ZM0.246094 5.41799H1.60059V6.50159H0.246094V5.41799ZM0.916894 6.50159H2.27139V7.58519H0.916894V6.50159ZM13.0687 5.41799H14.4103V6.50159H13.0687V5.41799ZM12.3721 6.50159H13.7266V7.58519H12.3979L12.3721 6.50159ZM0.246094 16.2669H0.916894V17.3505H0.246094V16.2669ZM13.7395 16.2669H14.4103V17.3505H13.7395V16.2669ZM6.32199 24.9486H8.34729V26.0322H6.30909L6.32199 24.9486ZM5.63829 26.0322H6.99279V27.1158H5.63829V26.0322ZM7.66359 26.0322H9.01809V27.1158H7.66359V26.0322ZM4.96749 27.1158H6.32199V28.1994H4.96749V27.1158ZM8.34729 27.1158H9.68889V28.1994H8.34729V27.1158ZM4.29669 28.1994H5.65119V29.283H4.29669V28.1994ZM9.01809 28.1994H10.3726V29.283H9.01809V28.1994ZM3.61299 29.283H4.96749V30.3666H3.61299V29.283ZM9.68889 29.283H11.0434V30.3666H9.68889V29.283ZM2.27139 30.3666H4.29669V31.4502H2.27139V30.3666ZM10.3726 30.3666H12.3979V31.4502H10.3726V30.3666ZM11.7142 29.283H13.0687V30.3666H11.7142V29.283ZM12.3979 28.1994H13.7395V29.283H12.3979V28.1994ZM13.0687 27.1158H14.4103V28.1994H13.0687V27.1158ZM1.58769 29.283H2.95509V30.3666H1.60059L1.58769 29.283ZM0.916894 28.1994H2.27139V29.283H0.916894V28.1994Z" fill="#B20000"/>
<path id="Vector_6" fill-rule="evenodd" clip-rule="evenodd" d="M0.246094 27.1158H1.60059V28.1994H0.246094V27.1158ZM2.95509 31.4502H3.62589V32.5338H2.94219L2.95509 31.4502ZM11.0434 31.4502H11.7142V32.5338H11.0434V31.4502ZM6.99279 28.1994H7.66359V29.283H6.99279V28.1994ZM4.96749 31.4502H5.63829V32.5338H4.96749V31.4502ZM9.01809 31.4502H9.68889V32.5338H9.01809V31.4502ZM6.99279 31.4502H7.66359V32.5338H6.99279V31.4502ZM0.246094 31.4502H0.916894V32.5338H0.246094V31.4502ZM13.7395 31.4502H14.4103V32.5338H13.7395V31.4502ZM6.99279 16.2669H7.66359V17.3505H6.99279V16.2669ZM3.62589 5.43091H4.29669V6.50161H3.62589V5.43091ZM10.3726 5.43091H11.0434V6.50161H10.3726V5.43091ZM6.30909 13.0032H8.33439V14.0868H6.30909V13.0032ZM4.96749 14.0997H6.99279V15.1833H4.96749V14.0997Z" fill="#B20000"/>
<path id="Vector_7" fill-rule="evenodd" clip-rule="evenodd" d="M5.63847 15.1833H6.32217V16.2669H5.63847V15.1833ZM4.29688 13.0161H5.65138V14.0997H4.29688V13.0161ZM4.96767 11.9325H6.99297V13.0161H4.96767V11.9325ZM5.63847 10.8489H6.32217V11.9325H5.63847V10.8489ZM7.66377 11.9325H9.68907V13.0161H7.66377V11.9325ZM8.34747 10.8489H9.01827V11.9325H8.34747V10.8489ZM9.01827 13.0161H10.3728V14.0997H9.01827V13.0161ZM7.66377 14.0997H9.68907V15.1833H7.66377V14.0997ZM8.34747 15.1833H9.01827V16.2669H8.34747V15.1833ZM11.0436 13.0161H12.3981V14.0997H11.0436V13.0161ZM11.7144 11.9325H13.7397V13.0161H11.7273L11.7144 11.9325ZM13.0689 13.0161H14.4105V14.0997H13.0689V13.0161Z" fill="#B20000"/>
<path id="Vector_8" fill-rule="evenodd" clip-rule="evenodd" d="M11.7271 14.0997H13.7395V15.1833H11.7271V14.0997ZM12.3979 15.1833H13.0687V16.2669H12.3979V15.1833ZM12.3979 10.8489H13.0687V11.9325H12.3979V10.8489ZM0.246094 13.0161H1.60059V14.0997H0.246094V13.0161ZM0.916894 11.9325H2.95509V13.0161H0.916894V11.9325ZM2.27139 13.0161H3.62589V14.0997H2.27139V13.0161Z" fill="#B20000"/>
<path id="Vector_9" fill-rule="evenodd" clip-rule="evenodd" d="M0.916894 14.0997H2.95509V15.1833H0.916894V14.0997ZM1.60059 15.1833H2.27139V16.2669H1.60059V15.1833ZM1.60059 10.8489H2.27139V11.9325H1.60059V10.8489ZM0.916894 19.5177H3.62589V20.6013H0.916894V19.5177ZM4.29669 19.5177H7.00569V20.6013H4.29669V19.5177ZM7.66359 19.5177H10.3726V20.6013H7.66359V19.5177ZM11.0434 19.5177H13.7524V20.6013H11.0434V19.5177ZM5.63829 21.6849H9.01809V22.7814H5.63829V21.6849ZM0.916894 21.6849H4.29669V22.7814H0.916894V21.6849ZM10.3726 21.6849H13.7395V22.7814H10.3726V21.6849ZM13.7395 26.0322H14.4103V27.1158H13.7395V26.0322ZM0.246094 26.0322H0.916894V27.1158H0.246094V26.0322ZM0.916894 62.9133H1.60059V61.8168H0.916894V62.9133ZM2.94219 62.9133H4.96749V61.8168H2.95509L2.94219 62.9133ZM3.61299 63.984H4.29669V62.9133H3.60009L3.61299 63.984ZM6.99279 63.984H7.66359V62.9133H6.99279V63.984ZM9.70179 62.9133H11.7142V61.8297H9.68889L9.70179 62.9133ZM10.3726 63.984H11.0434V62.9133H10.3726V63.984ZM2.27139 61.8168H3.62589V60.7332H2.27139V61.8168ZM4.29669 61.8168H5.65119V60.7332H4.29669V61.8168ZM9.01809 61.8168H10.3726V60.7332H9.01809V61.8168ZM11.0434 61.8168H12.3721V60.7332H11.0563L11.0434 61.8168ZM4.98039 60.7332H6.30909V59.6496H4.96749L4.98039 60.7332ZM8.33439 60.7332H9.68889V59.6496H8.34729L8.33439 60.7332ZM11.7142 60.7332H13.0687V59.6496H11.7142V60.7332ZM13.0687 62.9133H13.7395V61.8168H13.0687V62.9133ZM0.916894 59.6496H2.27139V58.566H0.916894V59.6496ZM5.63829 59.6496H6.99279V58.566H5.63829V59.6496ZM12.3979 59.6496H13.7395V58.566H12.3979V59.6496ZM1.60059 56.3988H2.94219V55.3152H1.60059V56.3988ZM2.27139 55.3152H3.62589V54.2316H2.27139V55.3152ZM4.98039 56.3988H6.30909V55.3152H4.96749L4.98039 56.3988ZM4.29669 55.3152H5.63829V54.2316H4.29669V55.3152ZM2.94219 54.2316H4.96749V53.148H2.95509L2.94219 54.2316ZM3.61299 53.148H4.29669V52.0644H3.60009L3.61299 53.148ZM8.34729 56.3988H9.68889V55.3152H8.34729V56.3988ZM9.01809 55.3152H10.3726V54.2316H9.01809V55.3152ZM11.7271 56.3988H13.0687V55.3152H11.7142L11.7271 56.3988ZM11.0434 55.3152H12.3721V54.2316H11.0563L11.0434 55.3152ZM9.68889 54.2316H11.7271V53.148H9.68889V54.2316ZM10.3726 53.148H11.0434V52.0644H10.3726V53.148ZM6.99279 54.2316H7.66359V53.148H6.99279V54.2316ZM0.246094 54.2316H0.916894V53.148H0.246094V54.2316ZM13.7395 54.2316H14.4103V53.148H13.7395V54.2316ZM3.62589 48.8136H4.29669V47.7171H3.62589V48.8136Z" fill="#B20000"/>
<path id="Vector_10" fill-rule="evenodd" clip-rule="evenodd" d="M2.95509 47.73H4.96749V46.6335H2.95509V47.73ZM2.27139 46.6335H5.65119V45.5499H2.27139V46.6335ZM10.3726 48.8007H11.0434V47.73H10.3726V48.8007ZM9.68889 47.73H11.7271V46.6335H9.68889V47.73ZM9.01809 46.6335H12.385V45.5499H9.01809V46.6335ZM9.68889 41.2155H13.0687V40.1319H9.68889V41.2155ZM8.34729 45.5499H13.0687V44.4663H8.34729V45.5499ZM1.60059 45.5499H6.30909V44.4663H1.60059V45.5499ZM2.27139 40.1319H4.29669V39.0483H2.27139V40.1319ZM1.60059 41.2155H4.96749V40.1319H1.60059V41.2155ZM11.0434 43.3827H14.4103V42.312H11.0563L11.0434 43.3827ZM10.3726 40.1319H12.3979V39.0483H10.3726V40.1319ZM0.246094 43.3827H3.62589V42.312H0.246094V43.3827ZM6.30909 41.2155H8.34729V40.1319H6.30909V41.2155ZM6.99279 40.1319H7.66359V39.0483H6.99279V40.1319ZM4.96749 43.3827H9.68889V42.312H4.96749V43.3827ZM7.67649 59.6496H9.01809V58.566H7.66359L7.67649 59.6496ZM6.30909 58.566H8.33439V57.4824H6.30909V58.566ZM5.62539 57.4824H6.97989V56.3988H5.63829L5.62539 57.4824ZM7.65069 57.4824H9.01809V56.3988H7.66359L7.65069 57.4824ZM0.246094 58.566H1.60059V57.4824H0.246094V58.566ZM0.916894 57.4824H2.27139V56.3988H0.916894V57.4824ZM13.0687 58.566H14.4103V57.4824H13.0687V58.566ZM12.385 57.4824H13.7395V56.3988H12.3979L12.385 57.4824ZM0.246094 47.73H0.916894V46.6464H0.246094V47.73ZM13.7395 47.73H14.4103V46.6464H13.7395V47.73ZM5.63829 37.9776H6.99279V36.894H5.63829V37.9776ZM7.66359 37.9776H9.01809V36.894H7.66359V37.9776ZM4.96749 36.894H6.32199V35.8104H4.96749V36.894ZM8.34729 36.894H9.68889V35.8104H8.34729V36.894ZM4.29669 35.7975H5.63829V34.701H4.29669V35.7975ZM9.01809 35.7975H10.3726V34.701H9.01809V35.7975ZM3.61299 34.701H4.96749V33.6303H3.61299V34.701ZM9.68889 34.701H11.0434V33.6303H9.68889V34.701ZM2.27139 33.6303H4.29669V32.5338H2.27139V33.6303ZM10.3726 33.6303H12.3979V32.5338H10.3726V33.6303ZM11.7142 34.7139H13.0687V33.6174H11.7142V34.7139ZM12.3979 35.7846H13.7395V34.7139H12.3979V35.7846ZM13.0687 36.8811H14.4103V35.7975H13.0687V36.8811ZM1.58769 34.7139H2.95509V33.6174H1.60059L1.58769 34.7139ZM0.916894 35.7846H2.27139V34.7139H0.916894V35.7846ZM0.246094 36.894H1.60059V35.8104H0.246094V36.894ZM2.95509 32.5467H3.62589V31.4631H2.94219L2.95509 32.5467ZM6.99279 35.8104H7.66359V34.701H6.99279V35.8104ZM6.99279 47.7429H7.66359V46.6464H6.99279V47.7429ZM3.62589 58.5789H4.29669V57.4953H3.62589V58.5789ZM10.3726 58.5789H11.0434V57.4953H10.3726V58.5789ZM6.30909 50.9808H8.33439V49.8972H6.30909V50.9808ZM4.95459 49.8972H6.97989V48.8136H4.96749L4.95459 49.8972ZM5.62539 48.8007H6.30909V47.73H5.62539V48.8007ZM4.28379 50.9808H5.62539V49.8972H4.29669L4.28379 50.9808ZM4.96749 52.0644H6.99279V50.9808H4.96749V52.0644ZM5.63829 53.148H6.32199V52.0644H5.63829V53.148ZM7.66359 52.0644H9.68889V50.9808H7.66359V52.0644ZM8.34729 53.148H9.01809V52.0644H8.34729V53.148ZM9.01809 50.9808H10.3726V49.8972H9.01809V50.9808ZM7.66359 49.8972H9.68889V48.8136H7.66359V49.8972ZM8.34729 48.8007H9.01809V47.73H8.34729V48.8007ZM11.0434 50.9808H12.3721V49.8972H11.0563L11.0434 50.9808ZM11.7142 52.0644H13.7395V50.9808H11.7271L11.7142 52.0644ZM13.0687 50.9808H14.4103V49.8972H13.0687V50.9808ZM11.7142 49.8972H13.7395V48.8136H11.7271L11.7142 49.8972ZM12.3979 48.8007H13.0687V47.73H12.3979V48.8007ZM12.3979 53.148H13.0687V52.0644H12.3979V53.148ZM0.246094 50.9808H1.60059V49.8972H0.246094V50.9808Z" fill="#B20000"/>
<path id="Vector_11" fill-rule="evenodd" clip-rule="evenodd" d="M0.916894 52.0644H2.95509V50.9808H0.916894V52.0644ZM2.27139 50.9808H3.62589V49.8972H2.27139V50.9808ZM0.916894 49.8972H2.95509V48.8136H0.916894V49.8972ZM1.60059 48.8007H2.27139V47.73H1.60059V48.8007ZM1.60059 53.148H2.27139V52.0644H1.60059V53.148ZM0.916894 44.4663H3.62589V43.3827H0.916894V44.4663ZM4.29669 44.4663H7.00569V43.3827H4.29669V44.4663ZM7.66359 44.4663H10.3726V43.3827H7.66359V44.4663ZM11.0434 44.4663H13.7524V43.3827H11.0434V44.4663ZM5.63829 42.312H9.01809V41.2284H5.63829V42.312ZM0.916894 42.312H4.29669V41.2284H0.916894V42.312ZM10.3726 42.312H13.7395V41.2284H10.3726V42.312ZM13.7395 37.9776H14.4103V36.894H13.7395V37.9776ZM0.246094 37.9647H0.916894V36.8811H0.246094V37.9647ZM6.30909 32.5467H6.99279V33.6174H6.32199L6.30909 32.5467ZM7.66359 32.5467H8.34729V33.6174H7.66359V32.5467ZM7.66359 30.3666H8.34729V31.4502H7.66359V30.3666ZM6.32199 30.3666H6.99279V31.4502H6.32199V30.3666ZM1.60059 59.6496H2.94219V60.7332H1.60059V59.6496ZM11.0434 39.0483H11.7142V37.9647H11.0434V39.0483ZM2.94219 39.0483H3.61299V37.9647H2.95509L2.94219 39.0483ZM6.32199 37.9647H8.34729V39.0483H6.30909L6.32199 37.9647Z" fill="#B20000"/>
</g>
</g>
</g>
</g>
<defs>
<clipPath id="clip0_2909_185499">
<path d="M0.246094 32C0.246094 14.3269 14.573 0 32.2461 0V0C49.9192 0 64.2461 14.3269 64.2461 32V32C64.2461 49.6731 49.9192 64 32.2461 64V64C14.573 64 0.246094 49.6731 0.246094 32V32Z" fill="white"/>
</clipPath>
</defs>
</svg>
