<svg width="65" height="64" viewBox="0 0 65 64" fill="none" xmlns="http://www.w3.org/2000/svg">
<g id="Rounded=Canada (CA)">
<g clip-path="url(#clip0_2909_185474)">
<path id="Vector" d="M10.3838 0H55.6713V64H10.3838V0Z" fill="#F5F5F5"/>
<path id="Vector_2" d="M-12.2539 0H10.3836V64H-12.2539V0ZM55.6711 0H78.3086V64H55.6711V0ZM17.1586 30.925L15.4086 31.525L23.5836 38.7125C24.2086 40.5625 23.3711 41.1 22.8336 42.075L31.7086 40.95L31.4836 49.8875L33.3336 49.825L32.9211 40.9625L41.8211 42.0125C41.2711 40.85 40.7836 40.2375 41.2836 38.3875L49.4586 31.575L48.0336 31.0625C46.8586 30.15 48.5336 26.7125 48.7836 24.5375C48.7836 24.5375 44.0211 26.175 43.7086 25.3125L42.4711 23L38.1461 27.75C37.6711 27.875 37.4711 27.675 37.3586 27.275L39.3586 17.3125L36.1836 19.1C35.9211 19.2125 35.6586 19.1 35.4836 18.8L32.4211 12.675L29.2711 19.0375C29.0336 19.2625 28.7961 19.2875 28.5961 19.1375L25.5711 17.4375L27.3836 27.3375C27.2461 27.7125 26.8961 27.8375 26.4961 27.625L22.3336 22.9C21.7961 23.775 21.4211 25.2 20.7086 25.525C19.9961 25.8125 17.5836 24.9125 15.9711 24.5625C16.5211 26.55 18.2461 29.85 17.1586 30.9375V30.925Z" fill="#D52B1E"/>
</g>
</g>
<defs>
<clipPath id="clip0_2909_185474">
<path d="M0.246094 32C0.246094 14.3269 14.573 0 32.2461 0V0C49.9192 0 64.2461 14.3269 64.2461 32V32C64.2461 49.6731 49.9192 64 32.2461 64V64C14.573 64 0.246094 49.6731 0.246094 32V32Z" fill="white"/>
</clipPath>
</defs>
</svg>
