<svg width="65" height="64" viewBox="0 0 65 64" fill="none" xmlns="http://www.w3.org/2000/svg">
<g id="Rounded=Cook Islands (CK)">
<g clip-path="url(#clip0_2909_185490)">
<path id="Vector" d="M0.246094 0H64.2461V64H0.246094V0Z" fill="#000066"/>
<path id="Vector_2" fill-rule="evenodd" clip-rule="evenodd" d="M43.3462 31.2625L44.0587 28.975L42.1337 27.5125L44.5587 27.4875L45.3712 25.225L46.1587 27.4875L48.5837 27.5625L46.6337 28.9875L47.3337 31.2875L45.3462 29.9125L43.3462 31.2625ZM49.0587 31.7125L50.4837 29.8L49.1587 27.7625L51.4587 28.5625L52.9587 26.7125V29.125L55.2087 30.0125L52.9087 30.7L52.7962 33.1L51.3837 31.125L49.0587 31.7125ZM37.8837 33.1875L37.7837 30.7875L35.4837 30.075L37.7587 29.2V26.8125L39.2587 28.675L41.5587 27.9L40.2087 29.9125L41.6337 31.8375L39.3087 31.2125L37.8837 33.1875ZM33.8587 36.8375L32.8587 34.6625L30.4587 34.9125L32.2087 33.225L31.3087 31.0125L33.3962 32.1375L35.2212 30.5125L34.7587 32.9L36.7962 34.1125L34.4212 34.4625L33.8587 36.8375ZM32.0212 42.0875L30.1962 40.575L28.1337 41.825L29.0087 39.5375L27.2587 37.9375L29.6212 38.05L30.5837 35.8L31.1712 38.15L33.5337 38.3625L31.5337 39.7125L32.0212 42.0875ZM31.9712 48L29.6962 47.3375L28.3212 49.3375L28.2212 46.875L25.9712 46.125L28.1837 45.2625V42.8L29.6462 44.7375L31.8962 43.975L30.5837 46.0125L31.9712 48ZM34.6337 53L32.2962 53.325L31.8212 55.7125L30.7462 53.5L28.3962 53.725L30.0837 52.0375L29.0962 49.7875L31.2087 50.95L32.9587 49.325L32.5837 51.7375L34.6337 53ZM38.7587 56.95L36.6712 58.075L37.0462 60.4875L35.2837 58.7875L33.1587 59.825L34.1587 57.65L32.4712 55.8875L34.8462 56.2375L35.9337 54.1125L36.3962 56.4875L38.7587 56.95ZM43.7837 57.7375L42.6587 59.8375L44.2587 61.65L41.8712 61.2L40.6462 63.25L40.3087 60.875L37.9462 60.325L40.1212 59.3L39.8837 56.925L41.5712 58.6625L43.7837 57.7375ZM49.4462 56.8625L49.3587 59.2625L51.6087 60.1375L49.2837 60.8375L49.1212 63.225L47.7462 61.2625L45.3962 61.875L46.8837 59.95L45.5962 57.9375L47.8837 58.7125L49.4462 56.8625ZM55.3587 30.8125L56.9962 32.55L59.1837 31.5375L58.0587 33.7125L59.6212 35.5L57.2837 35.125L56.0587 37.25L55.7462 34.8375L53.4212 34.3375L55.5712 33.25L55.3587 30.8125ZM60.2712 36.1375L61.0212 38.425L63.4087 38.4625L61.4712 39.925L62.1212 42.25L60.1712 40.875L58.1712 42.2625L58.9212 39.95L57.0212 38.5L59.4337 38.4375L60.2712 36.1375ZM62.1087 43L61.8337 45.375L63.9962 46.45L61.6212 46.95L61.2462 49.325L60.0587 47.2375L57.6712 47.6375L59.2962 45.85L58.1962 43.725L60.4087 44.7125L62.1087 43ZM60.8087 50.175L59.7462 52.3125L61.4087 54.0625L59.0212 53.7125L57.8587 55.8L57.4462 53.4375L55.0712 52.975L57.1962 51.875L56.8837 49.5L58.6337 51.1875L60.8087 50.175ZM57.2712 56.5625L55.2587 57.8125L55.7712 60.1875L53.9212 58.6125L51.8587 59.7875L52.7337 57.5375L50.9337 55.8875L53.3212 56.0875L54.2837 53.8875L54.8962 56.2625" fill="#F5F5F5"/>
<path id="Vector_3" d="M0.246094 -0.0625H32.2461V31.9375H0.246094V-0.0625Z" fill="#000066"/>
<path id="Vector_4" d="M32.2461 -0.0625V3.9375L20.3711 15.9375L32.2461 27.625V31.9375H28.0586L16.1211 20.1875L4.49609 31.9375H0.246094V27.6875L11.8711 16L0.246094 4.5625V-0.0625H4.12109L16.1211 11.6875L27.7461 -0.0625H32.2461Z" fill="#F5F5F5"/>
<path id="Vector_5" d="M11.7461 20.1875L12.4336 22.3125L2.87109 31.9375H0.246094V31.75L11.7461 20.1875ZM19.4961 19.4375L22.8711 19.9375L32.2461 29.125V31.9375L19.4961 19.4375ZM32.2461 -0.0625L20.2461 12.1875L19.9961 9.4375L29.3711 -0.0625H32.2461ZM0.246094 0L12.3086 11.8125L8.62109 11.3125L0.246094 3V0Z" fill="#C8102E"/>
<path id="Vector_6" d="M11.2461 -0.0625V31.9375H21.2461V-0.0625H11.2461ZM0.246094 10.9375V20.9375H32.2461V10.9375H0.246094Z" fill="#F5F5F5"/>
<path id="Vector_7" d="M0.246094 12.9375V18.9375H32.2461V12.9375H0.246094ZM13.2461 -0.0625V31.9375H19.2461V-0.0625H13.2461Z" fill="#C8102E"/>
</g>
</g>
<defs>
<clipPath id="clip0_2909_185490">
<path d="M0.246094 32C0.246094 14.3269 14.573 0 32.2461 0V0C49.9192 0 64.2461 14.3269 64.2461 32V32C64.2461 49.6731 49.9192 64 32.2461 64V64C14.573 64 0.246094 49.6731 0.246094 32V32Z" fill="white"/>
</clipPath>
</defs>
</svg>
