<svg width="65" height="64" viewBox="0 0 65 64" fill="none" xmlns="http://www.w3.org/2000/svg">
<g id="Rounded=Chile (CL)">
<g clip-path="url(#clip0_2909_185377)">
<g id="Group">
<path id="Vector" fill-rule="evenodd" clip-rule="evenodd" d="M32.2217 0H96.1819V31.9756H32.2217V0Z" fill="#F5F5F5"/>
<path id="Vector_2" fill-rule="evenodd" clip-rule="evenodd" d="M0.246094 0H32.2217V31.9756H0.246094V0Z" fill="#0039A6"/>
<path id="Vector_3" fill-rule="evenodd" clip-rule="evenodd" d="M21.2111 23.9433L16.2474 20.2341L11.3287 23.9794L13.1608 17.8876L8.24219 14.1241L14.325 14.07L16.2203 7.99615L18.1426 14.061H24.2345L19.3249 17.8695L21.2021 23.9524L21.2111 23.9433Z" fill="#F5F5F5"/>
<path id="Vector_4" fill-rule="evenodd" clip-rule="evenodd" d="M0.246094 31.9756H96.1818V63.9602H0.246094V31.9756Z" fill="#D52B1E"/>
</g>
</g>
</g>
<defs>
<clipPath id="clip0_2909_185377">
<path d="M0.246094 32C0.246094 14.3269 14.573 0 32.2461 0V0C49.9192 0 64.2461 14.3269 64.2461 32V32C64.2461 49.6731 49.9192 64 32.2461 64V64C14.573 64 0.246094 49.6731 0.246094 32V32Z" fill="white"/>
</clipPath>
</defs>
</svg>
