<svg width="65" height="64" viewBox="0 0 65 64" fill="none" xmlns="http://www.w3.org/2000/svg">
<g id="Rounded=China (CN)">
<g clip-path="url(#clip0_2909_185336)">
<path id="Vector" d="M0.246094 0H64.2461V64H0.246094V0Z" fill="#DE2910"/>
<path id="Vector_2" d="M25.846 13.12L9.526 23.68L16.246 6.39999L22.006 23.68L6.646 13.12H25.846Z" fill="#FFDE00"/>
<path id="Vector_3" d="M29.8181 4.13117L35.6332 6.9793L29.5464 8.02515L33.4921 3.41589L33.1121 9.61333L29.8181 4.13117Z" fill="#FFDE00"/>
<path id="Vector_4" d="M37.2299 9.77603L41.4813 14.6658L35.4632 13.2597L40.8952 10.5473L38.1317 16.1122L37.2299 9.77603Z" fill="#FFDE00"/>
<path id="Vector_5" d="M38.5678 19.0664L40.453 25.2692L35.5309 21.5263L41.6003 21.2682L36.8028 25.2217L38.5678 19.0664Z" fill="#FFDE00"/>
<path id="Vector_6" d="M33.4972 25.704L32.8428 32.1472L29.75 26.8L35.4428 28.9024L29.4972 30.696L33.4972 25.704Z" fill="#FFDE00"/>
</g>
</g>
<defs>
<clipPath id="clip0_2909_185336">
<path d="M0.246094 32C0.246094 14.3269 14.573 0 32.2461 0V0C49.9192 0 64.2461 14.3269 64.2461 32V32C64.2461 49.6731 49.9192 64 32.2461 64V64C14.573 64 0.246094 49.6731 0.246094 32V32Z" fill="white"/>
</clipPath>
</defs>
</svg>
