<svg width="65" height="64" viewBox="0 0 65 64" fill="none" xmlns="http://www.w3.org/2000/svg">
<g id="Rounded=Cabo Verde (CV)">
<g clip-path="url(#clip0_2909_185515)">
<g id="Group">
<path id="Vector" fill-rule="evenodd" clip-rule="evenodd" d="M-15.1789 29.125H90.6211V54.875H-15.1914L-15.1789 29.125Z" fill="#F5F5F5"/>
<path id="Vector_2" fill-rule="evenodd" clip-rule="evenodd" d="M-15.104 0H90.646V32.075H-15.104V0ZM-15.0665 48.2375H91.446V64H-15.0665V48.2375Z" fill="#081873"/>
<path id="Vector_3" fill-rule="evenodd" clip-rule="evenodd" d="M-15.0664 37.825H90.6836V42.775H-15.0664V37.825Z" fill="#DE3929"/>
<path id="Vector_4" fill-rule="evenodd" clip-rule="evenodd" d="M16.6211 49.9L17.4461 52.45H20.1211L17.9461 54.0375L18.7711 56.6L16.6211 55L14.4461 56.5875L15.2836 54.025L13.1086 52.4375H15.7961L16.6211 49.9ZM39.8711 31.3L40.7086 33.8625H43.3711L41.1961 35.4375L42.0211 38L39.8461 36.4125L37.6711 38L38.4961 35.4375L36.3211 33.8625H39.0211L39.8711 31.3ZM11.2711 41.9125L12.0961 44.475H14.7836L12.6211 46.075L13.4586 48.625L11.2836 47.05L9.10859 48.625L9.93359 46.075L7.75859 44.4875H10.4461L11.2711 41.9125ZM39.8711 41.1875L40.7086 43.7375H43.3711L41.1961 45.325L42.0211 47.875L39.8461 46.3L37.6711 47.8875L38.4961 45.325L36.3211 43.7375H39.0211L39.8711 41.1875ZM33.9586 23.525L34.7961 26.075H37.4961L35.3211 27.6625L36.1461 30.225L33.9711 28.6375L31.7961 30.225L32.6336 27.6625L30.4461 26.075H33.1461L33.9586 23.525ZM25.0836 20.425L25.9211 22.9875H28.6086L26.4336 24.5625L27.2586 27.125L25.0836 25.55L22.9086 27.125L23.7461 24.5625L21.5711 22.9875H24.2461L25.0836 20.425ZM16.1836 23.35L17.0211 25.9125H19.7086L17.5336 27.4875L18.3711 30.05L16.1836 28.4625L14.0086 30.05L14.8461 27.4875L12.6711 25.9125H15.3711L16.1836 23.35ZM11.0211 31.3125L11.8461 33.875H14.5461L12.3586 35.45L13.1961 38.0125L11.0211 36.425L8.84609 38.0125L9.67109 35.45L7.49609 33.875H10.1836L11.0211 31.3125ZM25.0836 52.55L25.9211 55.1125H28.6086L26.4336 56.6875L27.2711 59.25L25.0836 57.6625L22.9086 59.25L23.7461 56.6875L21.5711 55.1125H24.2461L25.0836 52.55ZM34.5211 49.9L35.3461 52.45H38.0336L35.8711 54.0375L36.7086 56.6L34.5336 55.0125L32.3461 56.6L33.1836 54.0375L31.0086 52.45H33.6961" fill="#FFCE08"/>
</g>
</g>
</g>
<defs>
<clipPath id="clip0_2909_185515">
<path d="M0.246094 32C0.246094 14.3269 14.573 0 32.2461 0V0C49.9192 0 64.2461 14.3269 64.2461 32V32C64.2461 49.6731 49.9192 64 32.2461 64V64C14.573 64 0.246094 49.6731 0.246094 32V32Z" fill="white"/>
</clipPath>
</defs>
</svg>
