<svg width="65" height="64" viewBox="0 0 65 64" fill="none" xmlns="http://www.w3.org/2000/svg">
<g id="Rounded=Dominica (DM)">
<g clip-path="url(#clip0_2909_185436)">
<g id="Group">
<path id="Vector" fill-rule="evenodd" clip-rule="evenodd" d="M-32.0415 0H96.396V64H-32.0415V0Z" fill="#108C00"/>
<path id="Vector_2" fill-rule="evenodd" clip-rule="evenodd" d="M-32.2539 22.275H96.8211V28.5375H-32.2539V22.275Z" fill="#FFD600"/>
<path id="Vector_3" fill-rule="evenodd" clip-rule="evenodd" d="M22.8711 0H28.9336V64H22.8836L22.8711 0Z" fill="#FFD600"/>
<path id="Vector_4" fill-rule="evenodd" clip-rule="evenodd" d="M28.7212 0H34.7712V64H28.7212V0Z" fill="black"/>
<path id="Vector_5" fill-rule="evenodd" clip-rule="evenodd" d="M-32.2539 28.325H96.8211V34.6H-32.2539V28.325Z" fill="black"/>
<path id="Vector_6" fill-rule="evenodd" clip-rule="evenodd" d="M-32.2539 34.6H96.8211V40.8625H-32.2539V34.6Z" fill="#F5F5F5"/>
<path id="Vector_7" fill-rule="evenodd" clip-rule="evenodd" d="M34.771 0H40.8335V64H34.771V0Z" fill="#F5F5F5"/>
<path id="Vector_8" d="M15.3463 32.05C15.3463 41.5424 23.0078 49.2375 32.4588 49.2375C41.9098 49.2375 49.5713 41.5424 49.5713 32.05C49.5713 22.5576 41.9098 14.8625 32.4588 14.8625C23.0078 14.8625 15.3463 22.5576 15.3463 32.05Z" fill="#E72910"/>
<g id="Group_2">
<path id="Vector_9" fill-rule="evenodd" clip-rule="evenodd" d="M31.5584 17.125L32.2584 15.125L32.8959 17.0875C32.8959 17.0875 35.0334 17.15 35.0334 17.1125C35.0334 17.075 33.3459 18.4 33.3459 18.4L34.1084 20.6C34.0834 20.5375 32.2584 19.2375 32.2584 19.2375C32.2584 19.2375 30.4084 20.5375 30.4459 20.5375C30.4834 20.5375 31.1459 18.4125 31.1459 18.4125L29.4834 17.15L31.5584 17.1125V17.125Z" fill="black"/>
<path id="Vector_10" fill-rule="evenodd" clip-rule="evenodd" d="M31.6582 17.2125L32.2457 15.5L32.7957 17.2C32.7957 17.2 34.6582 17.25 34.6582 17.225C34.6582 17.2 33.1957 18.35 33.1957 18.35L33.8457 20.25C33.8207 20.1875 32.2457 19.075 32.2457 19.075C32.2457 19.075 30.6457 20.2 30.6707 20.2C30.6957 20.2 31.2957 18.35 31.2957 18.35L29.8457 17.25L31.6457 17.225L31.6582 17.2125Z" fill="#FFE700"/>
<path id="Vector_11" fill-rule="evenodd" clip-rule="evenodd" d="M31.9083 17.5L32.2583 16.5L32.5833 17.4875C32.5833 17.4875 33.6458 17.5125 33.6458 17.4875C33.6458 17.4625 32.8083 18.1375 32.8083 18.1375L33.1833 19.2375C33.1708 19.2 32.2583 18.5625 32.2583 18.5625L31.3583 19.2125C31.3833 19.2125 31.7083 18.15 31.7083 18.15L30.8833 17.525L31.9083 17.5V17.5Z" fill="#108C00"/>
</g>
<g id="Group_3">
<path id="Vector_12" fill-rule="evenodd" clip-rule="evenodd" d="M44.8587 26.475L45.5587 24.475L46.1837 26.4375C46.1837 26.4375 48.3337 26.5125 48.3337 26.475C48.3337 26.4375 46.6462 27.7625 46.6462 27.7625L47.3962 29.9625C47.3712 29.9 45.5587 28.6 45.5587 28.6C45.5587 28.6 43.7087 29.9 43.7462 29.9C43.7837 29.9 44.4462 27.775 44.4462 27.775L42.7837 26.5L44.8587 26.4625V26.475Z" fill="black"/>
<path id="Vector_13" fill-rule="evenodd" clip-rule="evenodd" d="M44.9462 26.575L45.5587 24.8375L46.1087 26.55C46.1087 26.55 47.9587 26.6 47.9587 26.575C47.9587 26.55 46.4962 27.7 46.4962 27.7L47.1587 29.5875C47.1337 29.5375 45.5587 28.4125 45.5587 28.4125C45.5587 28.4125 43.9587 29.5375 43.9837 29.5375C44.0087 29.5375 44.5962 27.6875 44.5962 27.6875L43.1587 26.6L44.9462 26.575V26.575Z" fill="#FFE700"/>
<path id="Vector_14" fill-rule="evenodd" clip-rule="evenodd" d="M45.2089 26.8625L45.5589 25.8625L45.8714 26.8375L46.9464 26.8625L46.0964 27.5C46.0964 27.5 46.4964 28.625 46.4714 28.6C46.4714 28.5625 45.5589 27.925 45.5589 27.925L44.6464 28.5625L44.9964 27.5L44.1714 26.875L45.2089 26.8625Z" fill="#108C00"/>
</g>
<g id="Group_4">
<path id="Vector_15" fill-rule="evenodd" clip-rule="evenodd" d="M40.9837 41.325L41.6837 39.325L42.3087 41.3C42.3087 41.3 44.4587 41.3625 44.4587 41.3375C44.4587 41.3125 42.7712 42.625 42.7712 42.625L43.5212 44.8125C43.4962 44.75 41.6837 43.4625 41.6837 43.4625C41.6837 43.4625 39.8337 44.75 39.8587 44.75C39.8837 44.75 40.5712 42.625 40.5712 42.625L38.9087 41.375L40.9837 41.3375V41.325Z" fill="black"/>
<path id="Vector_16" fill-rule="evenodd" clip-rule="evenodd" d="M41.0712 41.425L41.6837 39.7L42.2337 41.4C42.2337 41.4 44.0837 41.4625 44.0837 41.425C44.0837 41.3875 42.6212 42.55 42.6212 42.55L43.2837 44.45C43.2587 44.3875 41.6837 43.275 41.6837 43.275C41.6837 43.275 40.0837 44.4 40.1087 44.4C40.1337 44.4 40.7212 42.55 40.7212 42.55L39.2837 41.4625L41.0712 41.425V41.425Z" fill="#FFE700"/>
<path id="Vector_17" fill-rule="evenodd" clip-rule="evenodd" d="M41.3339 41.7125L41.6839 40.7125L41.9964 41.7C41.9964 41.7 43.0714 41.7375 43.0714 41.7125C43.0714 41.6875 42.2214 42.3625 42.2214 42.3625L42.5964 43.45C42.5964 43.425 41.6839 42.775 41.6839 42.775L40.7714 43.425L41.1214 42.3625L40.2964 41.7375L41.3339 41.7125Z" fill="#108C00"/>
</g>
<g id="Group_5">
<path id="Vector_18" fill-rule="evenodd" clip-rule="evenodd" d="M22.3963 41.325L23.0963 39.325L23.7213 41.3C23.7213 41.3 25.8588 41.3625 25.8588 41.3375C25.8588 41.3125 24.1713 42.625 24.1713 42.625L24.9463 44.8125C24.9088 44.75 23.0963 43.4625 23.0963 43.4625C23.0963 43.4625 21.2463 44.75 21.2713 44.75C21.2963 44.75 21.9838 42.625 21.9838 42.625L20.3213 41.375L22.3963 41.3375V41.325Z" fill="black"/>
<path id="Vector_19" fill-rule="evenodd" clip-rule="evenodd" d="M22.4963 41.425L23.0963 39.7L23.6463 41.4C23.6463 41.4 25.4963 41.4625 25.4963 41.425C25.4963 41.3875 24.0338 42.55 24.0338 42.55L24.6963 44.45C24.6713 44.3875 23.0963 43.275 23.0963 43.275C23.0963 43.275 21.4963 44.4 21.5213 44.4C21.5463 44.4 22.1338 42.55 22.1338 42.55L20.6963 41.4625L22.4838 41.425H22.4963Z" fill="#FFE700"/>
<path id="Vector_20" fill-rule="evenodd" clip-rule="evenodd" d="M22.7465 41.7125L23.0965 40.7125L23.409 41.7C23.409 41.7 24.484 41.7375 24.484 41.7125C24.484 41.6875 23.634 42.3625 23.634 42.3625L24.009 43.45C24.009 43.425 23.0965 42.775 23.0965 42.775L22.184 43.425L22.534 42.3625L21.709 41.7375L22.7465 41.7125Z" fill="#108C00"/>
</g>
<g id="Group_6">
<path id="Vector_21" fill-rule="evenodd" clip-rule="evenodd" d="M18.9959 26.0875L19.6959 24.0875L20.3334 26.0625C20.3334 26.0625 22.4709 26.125 22.4709 26.0875C22.4709 26.05 20.7834 27.3875 20.7834 27.3875L21.5459 29.575C21.5084 29.5125 19.6959 28.225 19.6959 28.225C19.6959 28.225 17.8459 29.5 17.8834 29.5C17.9209 29.5 18.5834 27.375 18.5834 27.375L16.9209 26.125L18.9959 26.0875V26.0875Z" fill="black"/>
<path id="Vector_22" fill-rule="evenodd" clip-rule="evenodd" d="M19.0959 26.1875L19.6959 24.4625L20.2584 26.1625C20.2584 26.1625 22.0959 26.225 22.0959 26.1875C22.0959 26.15 20.6334 27.3125 20.6334 27.3125L21.2959 29.2125C21.2709 29.15 19.6959 28.0375 19.6959 28.0375C19.6959 28.0375 18.0959 29.1625 18.1334 29.1625C18.1709 29.1625 18.7334 27.3125 18.7334 27.3125L17.2959 26.225L19.0959 26.1875V26.1875Z" fill="#FFE700"/>
<path id="Vector_23" fill-rule="evenodd" clip-rule="evenodd" d="M19.3458 26.475L19.6958 25.475L20.0208 26.4625L21.0833 26.475L20.2458 27.125L20.6208 28.2125C20.6083 28.1875 19.6958 27.5375 19.6958 27.5375L18.7958 28.1875C18.8208 28.1875 19.1458 27.125 19.1458 27.125L18.3208 26.5L19.3458 26.475V26.475Z" fill="#108C00"/>
</g>
<g id="Group_7">
<path id="Vector_24" fill-rule="evenodd" clip-rule="evenodd" d="M40.8212 21.7625L40.1212 23.7625L39.4962 21.8C39.4962 21.8 37.3462 21.7375 37.3462 21.7625C37.3462 21.7875 39.0337 20.475 39.0337 20.475L38.2837 18.2875C38.3087 18.35 40.1212 19.6375 40.1212 19.6375C40.1212 19.6375 41.9712 18.35 41.9337 18.35C41.8962 18.35 41.2337 20.475 41.2337 20.475L42.8962 21.725L40.8212 21.7625V21.7625Z" fill="black"/>
<path id="Vector_25" fill-rule="evenodd" clip-rule="evenodd" d="M40.7337 21.6625C40.7337 21.7 40.1087 23.4 40.1087 23.4L39.5712 21.7C39.5712 21.7 37.7212 21.6375 37.7212 21.6625C37.7212 21.6875 39.1837 20.55 39.1837 20.55L38.5212 18.65C38.5462 18.7125 40.1212 19.825 40.1212 19.825C40.1212 19.825 41.7212 18.7 41.6962 18.7C41.6712 18.7 41.0837 20.55 41.0837 20.55L42.5212 21.6375L40.7212 21.6625H40.7337Z" fill="#FFE700"/>
<path id="Vector_26" fill-rule="evenodd" clip-rule="evenodd" d="M40.4714 21.375L40.1214 22.375L39.8089 21.4C39.8089 21.4 38.7339 21.3625 38.7339 21.3875C38.7339 21.4125 39.5839 20.7375 39.5839 20.7375L39.2089 19.65C39.2089 19.675 40.1214 20.325 40.1214 20.325L41.0339 19.675C41.0089 19.675 40.6714 20.7375 40.6714 20.7375L41.5089 21.3625L40.4714 21.3875V21.375Z" fill="#108C00"/>
</g>
<g id="Group_8">
<path id="Vector_27" fill-rule="evenodd" clip-rule="evenodd" d="M46.1586 36.2875L45.4586 38.2875L44.8336 36.3125C44.8336 36.3125 42.6836 36.25 42.6836 36.2875C42.6836 36.325 44.3711 35 44.3711 35L43.6211 32.8C43.6461 32.8625 45.4586 34.15 45.4586 34.15C45.4586 34.15 47.3086 32.8625 47.2711 32.8625C47.2336 32.8625 46.5711 34.9875 46.5711 34.9875L48.2461 36.25L46.1711 36.2875H46.1586Z" fill="black"/>
<path id="Vector_28" fill-rule="evenodd" clip-rule="evenodd" d="M46.0711 36.1875L45.4586 37.9125L44.9086 36.2125C44.9086 36.2125 43.0586 36.1625 43.0586 36.1875C43.0586 36.2125 44.5211 35.0625 44.5211 35.0625L43.8586 33.1625C43.8836 33.225 45.4586 34.3375 45.4586 34.3375C45.4586 34.3375 47.0586 33.2125 47.0336 33.2125C47.0086 33.2125 46.4211 35.0625 46.4211 35.0625L47.8586 36.1625L46.0586 36.1875H46.0711Z" fill="#FFE700"/>
<path id="Vector_29" fill-rule="evenodd" clip-rule="evenodd" d="M45.8088 35.9L45.4588 36.9L45.1463 35.9125C45.1463 35.9125 44.0713 35.8875 44.0713 35.9125C44.0713 35.9375 44.9213 35.2625 44.9213 35.2625L44.5463 34.1625C44.5463 34.2 45.4588 34.8375 45.4588 34.8375L46.3713 34.1875C46.3463 34.1875 46.0088 35.2625 46.0088 35.2625L46.8463 35.8875L45.8088 35.9V35.9Z" fill="#108C00"/>
</g>
<g id="Group_9">
<path id="Vector_30" fill-rule="evenodd" clip-rule="evenodd" d="M32.9213 46.9125L32.2213 48.9125L31.5963 46.9375C31.5963 46.9375 29.4463 46.875 29.4463 46.9C29.4463 46.925 31.1338 45.6125 31.1338 45.6125L30.3838 43.425C30.4088 43.4875 32.2213 44.775 32.2213 44.775C32.2213 44.775 34.0713 43.4875 34.0338 43.4875C33.9963 43.4875 33.3338 45.6125 33.3338 45.6125L34.9963 46.875L32.9213 46.9125Z" fill="black"/>
<path id="Vector_31" fill-rule="evenodd" clip-rule="evenodd" d="M32.8338 46.8L32.2213 48.55L31.6713 46.8375C31.6713 46.8375 29.8213 46.775 29.8213 46.8125C29.8213 46.85 31.2838 45.6875 31.2838 45.6875L30.6213 43.7875C30.6463 43.85 32.2213 44.9625 32.2213 44.9625C32.2213 44.9625 33.8213 43.8375 33.7963 43.8375C33.7713 43.8375 33.1838 45.6875 33.1838 45.6875L34.6213 46.775L32.8338 46.8125V46.8Z" fill="#FFE700"/>
<path id="Vector_32" fill-rule="evenodd" clip-rule="evenodd" d="M32.5715 46.525L32.2215 47.525L31.909 46.5375C31.909 46.5375 30.834 46.5 30.834 46.525C30.834 46.55 31.684 45.875 31.684 45.875L31.309 44.7875C31.309 44.8125 32.2215 45.4625 32.2215 45.4625L33.134 44.8125L32.784 45.875L33.609 46.5L32.5715 46.525Z" fill="#108C00"/>
</g>
<g id="Group_10">
<path id="Vector_33" fill-rule="evenodd" clip-rule="evenodd" d="M20.4963 36.2875L19.7838 38.2875L19.1588 36.3125C19.1588 36.3125 17.0088 36.25 17.0088 36.2875C17.0088 36.325 18.6963 35 18.6963 35L17.9463 32.8C17.9713 32.8625 19.7838 34.15 19.7838 34.15L21.6213 32.875L20.9088 35L22.5713 36.2625L20.4963 36.3V36.2875Z" fill="black"/>
<path id="Vector_34" fill-rule="evenodd" clip-rule="evenodd" d="M20.3963 36.1875L19.7838 37.9125L19.2338 36.2125C19.2338 36.2125 17.3838 36.1625 17.3838 36.1875C17.3838 36.2125 18.8463 35.0625 18.8463 35.0625L18.1838 33.1625C18.2088 33.225 19.7838 34.3375 19.7838 34.3375C19.7838 34.3375 21.3838 33.2125 21.3588 33.2125C21.3338 33.2125 20.7463 35.0625 20.7463 35.0625L22.1838 36.1625L20.3963 36.1875V36.1875Z" fill="#FFE700"/>
<path id="Vector_35" fill-rule="evenodd" clip-rule="evenodd" d="M20.134 35.9L19.784 36.9L19.4715 35.9125C19.4715 35.9125 18.3965 35.8875 18.3965 35.9125C18.3965 35.9375 19.2465 35.2625 19.2465 35.2625L18.8715 34.1625C18.8715 34.2 19.784 34.8375 19.784 34.8375L20.6965 34.1875L20.3465 35.2625L21.1715 35.8875L20.134 35.9V35.9Z" fill="#108C00"/>
</g>
<g id="Group_11">
<path id="Vector_36" fill-rule="evenodd" clip-rule="evenodd" d="M25.0834 21.975L24.3834 23.975L23.7334 22.0125C23.7334 22.0125 21.6084 21.95 21.6084 21.975C21.6084 22 23.2959 20.6875 23.2959 20.6875L22.5334 18.5C22.5584 18.5625 24.3709 19.85 24.3709 19.85C24.3709 19.85 26.2209 18.5625 26.1959 18.5625C26.1709 18.5625 25.4959 20.6875 25.4959 20.6875L27.1459 21.9375L25.0834 21.9875V21.975Z" fill="black"/>
<path id="Vector_37" fill-rule="evenodd" clip-rule="evenodd" d="M24.9832 21.875L24.3707 23.625L23.8207 21.9125C23.8207 21.9125 21.9707 21.85 21.9707 21.8875C21.9707 21.925 23.4332 20.7625 23.4332 20.7625L22.7707 18.8625C22.7957 18.925 24.3707 20.0375 24.3707 20.0375C24.3707 20.0375 25.9707 18.9125 25.9457 18.9125C25.9207 18.9125 25.3457 20.7625 25.3457 20.7625L26.7707 21.85L24.9832 21.8875V21.875Z" fill="#FFE700"/>
<path id="Vector_38" fill-rule="evenodd" clip-rule="evenodd" d="M24.7211 21.6L24.3711 22.6L24.0586 21.6125C24.0586 21.6125 22.9961 21.575 22.9961 21.6C22.9961 21.625 23.8336 20.95 23.8336 20.95L23.4586 19.8625C23.4586 19.8875 24.3711 20.5375 24.3711 20.5375L25.2836 19.8875L24.9336 20.95L25.7586 21.575L24.7211 21.6V21.6Z" fill="#108C00"/>
</g>
<g id="Group_12">
<g id="Group_13">
<path id="Vector_39" d="M35.2709 40.7932C35.7783 40.7412 36.0432 38.6757 35.8625 36.1797C35.6818 33.6837 35.1239 31.7024 34.6165 31.7544C34.1091 31.8063 33.8442 33.8718 34.025 36.3678C34.2057 38.8638 34.7635 40.8451 35.2709 40.7932Z" fill="#009200" stroke="black" stroke-width="0.0668923"/>
<path id="Vector_40" d="M36.2048 40.7811C36.7415 40.7263 37.0264 38.6589 36.8413 36.1633C36.6561 33.6677 36.0709 31.6891 35.5343 31.7439C34.9976 31.7987 34.7126 33.8662 34.8978 36.3618C35.0829 38.8573 35.6681 40.836 36.2048 40.7811Z" fill="#009200" stroke="black" stroke-width="0.068794"/>
<path id="Vector_41" d="M35.7935 41.5064C36.2233 41.462 36.4131 39.1898 36.2175 36.4314C36.0219 33.6729 35.515 31.4727 35.0853 31.517C34.6555 31.5614 34.4657 33.8336 34.6613 36.5921C34.8568 39.3505 35.3638 41.5507 35.7935 41.5064Z" fill="#009200" stroke="black" stroke-width="0.064713"/>
</g>
<g id="Group_14">
<path id="Vector_42" fill-rule="evenodd" clip-rule="evenodd" d="M28.2388 38.6546C29.0244 38.6192 28.6843 38.1983 29.081 37.9741C29.4777 37.7499 30.0401 37.8969 30.2102 38.1766C30.3777 38.4563 30.2417 38.7315 30.4614 38.7347C30.6785 38.738 36.6023 38.4739 36.8151 38.7071C37.0305 38.9404 37.0637 39.4038 36.8432 39.5835C36.6227 39.7632 29.1319 39.8682 28.8738 39.6786C28.6156 39.4918 28.238 38.6989 28.2388 38.6546V38.6546Z" fill="#A95600" stroke="black" stroke-width="0.0673216"/>
<path id="Vector_43" fill-rule="evenodd" clip-rule="evenodd" d="M32.4362 39.2518C32.4207 39.8475 33.2994 39.6776 33.3094 40.1753C33.2823 40.7024 31.838 40.2076 31.8268 39.2436C31.8883 38.279 33.3023 37.8035 33.3205 38.355C33.3316 38.811 32.4499 38.6561 32.4343 39.2518L32.4362 39.2518Z" fill="#FFFF00" stroke="black" stroke-width="0.0659034"/>
<path id="Vector_44" fill-rule="evenodd" clip-rule="evenodd" d="M32.9543 39.2648C32.9388 39.8605 33.8175 39.6906 33.8275 40.1883C33.8003 40.7153 32.3561 40.2206 32.3448 39.2565C32.4064 38.292 33.8203 37.8165 33.8386 38.368C33.8497 38.824 32.9679 38.669 32.9524 39.2647L32.9543 39.2648Z" fill="#FFFF00" stroke="black" stroke-width="0.0659034"/>
<path id="Vector_45" fill-rule="evenodd" clip-rule="evenodd" d="M33.5109 39.2389C33.4954 39.8346 34.3741 39.6647 34.3841 40.1624C34.357 40.6894 32.9127 40.1947 32.9015 39.2306C32.9631 38.2661 34.377 37.7906 34.3952 38.342C34.4063 38.7981 33.5246 38.6431 33.509 39.2388L33.5109 39.2389Z" fill="#FFFF00" stroke="black" stroke-width="0.0659034"/>
<path id="Vector_46" fill-rule="evenodd" clip-rule="evenodd" d="M34.029 39.2389C34.0135 39.8346 34.8922 39.6647 34.9022 40.1624C34.875 40.6894 33.4308 40.1947 33.4195 39.2306C33.4811 38.2661 34.8951 37.7906 34.9133 38.342C34.9244 38.7981 34.0426 38.6431 34.0271 39.2388L34.029 39.2389Z" fill="#FFFF00" stroke="black" stroke-width="0.0659034"/>
<path id="Vector_47" d="M36.5269 39.6218C36.801 39.6258 37.028 39.4016 37.0338 39.1209C37.0396 38.8403 36.8222 38.6096 36.5481 38.6056C36.274 38.6016 36.047 38.8258 36.0412 39.1064C36.0354 39.3871 36.2528 39.6178 36.5269 39.6218Z" fill="#A95600" stroke="black" stroke-width="0.0582385"/>
</g>
<g id="Group_15">
<path id="Vector_48" d="M33.6299 38.4064C33.8743 38.3696 34.0253 37.9022 33.967 37.3624C33.9087 36.8226 33.6632 36.4148 33.4187 36.4516C33.1743 36.4884 33.0233 36.9558 33.0816 37.4956C33.1399 38.0354 33.3854 38.4432 33.6299 38.4064Z" fill="#009200" stroke="black" stroke-width="0.0740756"/>
<path id="Vector_49" d="M32.8686 38.3406C33.1131 38.3038 33.264 37.8364 33.2057 37.2965C33.1474 36.7567 32.902 36.3489 32.6575 36.3857C32.413 36.4225 32.2621 36.89 32.3204 37.4298C32.3787 37.9696 32.6242 38.3774 32.8686 38.3406Z" fill="#009200" stroke="black" stroke-width="0.0740756"/>
<path id="Vector_50" d="M32.3271 37.3673C32.5716 37.3305 32.7225 36.863 32.6642 36.3232C32.6059 35.7834 32.3605 35.3756 32.116 35.4124C31.8715 35.4492 31.7206 35.9166 31.7789 36.4565C31.8372 36.9963 32.0826 37.4041 32.3271 37.3673Z" fill="#009200" stroke="black" stroke-width="0.0740756"/>
<path id="Vector_51" d="M33.1311 37.4166C33.3664 37.3777 33.5053 36.8628 33.4412 36.2663C33.3772 35.6699 33.1345 35.2179 32.8992 35.2568C32.6639 35.2957 32.5251 35.8106 32.5891 36.407C32.6532 37.0035 32.8958 37.4554 33.1311 37.4166Z" fill="#009200" stroke="black" stroke-width="0.0764691"/>
<path id="Vector_52" d="M34.1852 37.4155C34.4208 37.3796 34.563 36.8976 34.5027 36.3389C34.4425 35.7802 34.2027 35.3564 33.9671 35.3923C33.7315 35.4282 33.5893 35.9102 33.6496 36.4689C33.7098 37.0276 33.9496 37.4514 34.1852 37.4155Z" fill="#009200" stroke="black" stroke-width="0.0739867"/>
<path id="Vector_53" d="M33.6022 37.0582C33.8378 37.0223 33.9799 36.5403 33.9197 35.9816C33.8595 35.4229 33.6197 34.9991 33.3841 35.035C33.1485 35.0709 33.0063 35.5529 33.0665 36.1116C33.1268 36.6703 33.3666 37.0941 33.6022 37.0582Z" fill="#009200" stroke="black" stroke-width="0.0739867"/>
<path id="Vector_54" d="M32.8732 36.5464C33.1088 36.5106 33.2509 36.0285 33.1907 35.4699C33.1305 34.9112 32.8907 34.4874 32.6551 34.5233C32.4195 34.5592 32.2773 35.0412 32.3375 35.5998C32.3978 36.1585 32.6376 36.5823 32.8732 36.5464Z" fill="#009200" stroke="black" stroke-width="0.0739867"/>
<path id="Vector_55" d="M32.1925 36.2511C32.4281 36.2152 32.5703 35.7332 32.5101 35.1745C32.4498 34.6159 32.21 34.1921 31.9744 34.2279C31.7388 34.2638 31.5967 34.7458 31.6569 35.3045C31.7171 35.8632 31.9569 36.287 32.1925 36.2511Z" fill="#009200" stroke="black" stroke-width="0.0739867"/>
</g>
<path id="Vector_56" fill-rule="evenodd" clip-rule="evenodd" d="M31.3484 26.7933C31.3484 26.7933 29.8539 28.0983 30.0489 31.6263C30.2688 35.1756 33.4168 36.8418 33.4168 36.8418C33.4168 36.8418 34.2088 35.8321 34.0929 32.9836C33.8365 28.8111 32.3431 26.9732 32.3431 26.9732L31.3506 26.7937L31.3484 26.7933Z" fill="#804BFF" stroke="black" stroke-width="0.0589705"/>
<g id="Group_16">
<path id="Vector_57" d="M34.6855 38.5494C34.9326 38.5569 35.1647 38.124 35.2039 37.5824C35.243 37.0409 35.0745 36.5958 34.8273 36.5883C34.5802 36.5808 34.3481 37.0137 34.309 37.5552C34.2698 38.0968 34.4384 38.5419 34.6855 38.5494Z" fill="#009200" stroke="black" stroke-width="0.0740756"/>
<path id="Vector_58" d="M33.9477 38.3484C34.1948 38.3559 34.4269 37.923 34.4661 37.3815C34.5052 36.8399 34.3367 36.3948 34.0895 36.3873C33.8424 36.3798 33.6103 36.8127 33.5712 37.3543C33.532 37.8958 33.7006 38.3409 33.9477 38.3484Z" fill="#009200" stroke="black" stroke-width="0.0740756"/>
<path id="Vector_59" d="M33.5888 37.294C33.836 37.3015 34.068 36.8686 34.1072 36.3271C34.1464 35.7855 33.9778 35.3404 33.7307 35.3329C33.4835 35.3254 33.2515 35.7583 33.2123 36.2999C33.1731 36.8414 33.3417 37.2865 33.5888 37.294Z" fill="#009200" stroke="black" stroke-width="0.0740756"/>
<path id="Vector_60" d="M34.3709 37.4863C34.6094 37.4901 34.8381 37.0082 34.8817 36.41C34.9253 35.8117 34.7674 35.3236 34.5289 35.3198C34.2905 35.316 34.0618 35.7978 34.0182 36.3961C33.9746 36.9943 34.1325 37.4824 34.3709 37.4863Z" fill="#009200" stroke="black" stroke-width="0.0764691"/>
<path id="Vector_61" d="M35.4086 37.6736C35.6469 37.6805 35.8729 37.2316 35.9136 36.6712C35.9542 36.1107 35.7941 35.6509 35.5559 35.6441C35.3176 35.6373 35.0916 36.0861 35.0509 36.6465C35.0103 37.207 35.1704 37.6668 35.4086 37.6736Z" fill="#009200" stroke="black" stroke-width="0.0739867"/>
<path id="Vector_62" d="M34.8989 37.2179C35.1371 37.2247 35.3632 36.7759 35.4038 36.2154C35.4445 35.655 35.2843 35.1951 35.0461 35.1883C34.8079 35.1815 34.5818 35.6303 34.5411 36.1907C34.5005 36.7512 34.6607 37.211 34.8989 37.2179Z" fill="#009200" stroke="black" stroke-width="0.0739867"/>
<path id="Vector_63" d="M34.2734 36.5841C34.5116 36.5909 34.7377 36.1421 34.7783 35.5816C34.819 35.0212 34.6588 34.5613 34.4206 34.5545C34.1824 34.5477 33.9563 34.9965 33.9157 35.557C33.875 36.1174 34.0352 36.5773 34.2734 36.5841Z" fill="#009200" stroke="black" stroke-width="0.0739867"/>
<path id="Vector_64" d="M33.6562 36.1718C33.8944 36.1786 34.1205 35.7298 34.1611 35.1693C34.2018 34.6089 34.0416 34.149 33.8034 34.1422C33.5652 34.1354 33.3391 34.5842 33.2985 35.1447C33.2578 35.7051 33.418 36.165 33.6562 36.1718Z" fill="#009200" stroke="black" stroke-width="0.0739867"/>
</g>
<path id="Vector_65" d="M36.0482 36.4869C36.7029 36.2367 36.5415 34.4336 35.6878 32.4594C34.8342 30.4853 33.6114 29.0878 32.9568 29.338C32.3022 29.5881 32.4635 31.3913 33.3172 33.3654C34.1709 35.3395 35.3936 36.7371 36.0482 36.4869Z" fill="#C90000" stroke="black" stroke-width="0.0213189"/>
<g id="Group_17">
<path id="Vector_66" d="M33.5504 29.7194C33.8555 29.7247 34.1066 29.5099 34.1113 29.2396C34.116 28.9693 33.8726 28.7459 33.5675 28.7406C33.2624 28.7352 33.0113 28.95 33.0066 29.2203C33.0019 29.4906 33.2454 29.714 33.5504 29.7194Z" fill="#009200" stroke="black" stroke-width="0.0660836"/>
<path id="Vector_67" d="M33.9848 29.0146C34.2582 29.0194 34.4836 28.8041 34.4884 28.5338C34.4931 28.2636 34.2753 28.0406 34.0019 28.0358C33.7285 28.031 33.503 28.2463 33.4983 28.5166C33.4936 28.7868 33.7114 29.0098 33.9848 29.0146Z" fill="#009200" stroke="black" stroke-width="0.0667306"/>
<path id="Vector_68" d="M33.3114 29.0028C33.5848 29.0076 33.8103 28.7923 33.815 28.5221C33.8197 28.2518 33.6019 28.0288 33.3285 28.024C33.0551 28.0192 32.8297 28.2345 32.825 28.5048C32.8202 28.7751 33.038 28.998 33.3114 29.0028Z" fill="#009200" stroke="black" stroke-width="0.0667306"/>
<path id="Vector_69" d="M33.4491 28.4671C33.7349 28.4721 33.9701 28.2705 33.9745 28.0168C33.979 27.7631 33.7509 27.5534 33.4652 27.5485C33.1794 27.5435 32.9442 27.7451 32.9397 27.9988C32.9353 28.2524 33.1634 28.4621 33.4491 28.4671Z" fill="#009200" stroke="black" stroke-width="0.0660932"/>
<path id="Vector_70" d="M33.3944 27.8833C33.6802 27.8883 33.9154 27.6867 33.9199 27.433C33.9243 27.1793 33.6962 26.9696 33.4105 26.9647C33.1247 26.9597 32.8895 27.1613 32.885 27.415C32.8806 27.6686 33.1087 27.8783 33.3944 27.8833Z" fill="#009200" stroke="black" stroke-width="0.0660932"/>
<path id="Vector_71" d="M32.6703 28.629C32.9437 28.6337 33.1692 28.4185 33.1739 28.1482C33.1786 27.8779 32.9608 27.655 32.6874 27.6502C32.414 27.6454 32.1886 27.8607 32.1838 28.1309C32.1791 28.4012 32.3969 28.6242 32.6703 28.629Z" fill="#009200" stroke="black" stroke-width="0.0667306"/>
<path id="Vector_72" d="M32.8113 27.9815C33.0847 27.9863 33.3101 27.7755 33.3147 27.5108C33.3193 27.246 33.1014 27.0275 32.828 27.0227C32.5546 27.018 32.3293 27.2287 32.3246 27.4935C32.32 27.7582 32.5379 27.9767 32.8113 27.9815Z" fill="#009200" stroke="black" stroke-width="0.0660438"/>
<path id="Vector_73" d="M32.0001 28.0085C32.3052 28.0139 32.5563 27.7991 32.561 27.5288C32.5657 27.2585 32.3223 27.0351 32.0172 27.0298C31.7121 27.0244 31.461 27.2392 31.4563 27.5095C31.4516 27.7798 31.6951 28.0032 32.0001 28.0085Z" fill="#009200" stroke="black" stroke-width="0.0660836"/>
<path id="Vector_74" d="M33.0185 27.1644C33.3042 27.1694 33.5395 26.9678 33.5439 26.7141C33.5483 26.4604 33.3202 26.2507 33.0345 26.2458C32.7487 26.2408 32.5135 26.4424 32.5091 26.6961C32.5046 26.9497 32.7327 27.1594 33.0185 27.1644Z" fill="#009200" stroke="black" stroke-width="0.0660932"/>
<path id="Vector_75" d="M32.3313 27.2737C32.6047 27.2785 32.8301 27.0677 32.8347 26.803C32.8393 26.5382 32.6215 26.3197 32.3481 26.3149C32.0747 26.3102 31.8493 26.5209 31.8447 26.7857C31.84 27.0504 32.0579 27.2689 32.3313 27.2737Z" fill="#009200" stroke="black" stroke-width="0.0660438"/>
<path id="Vector_76" d="M31.269 28.0346C31.5424 28.0394 31.7678 27.8242 31.7725 27.5539C31.7772 27.2836 31.5594 27.0606 31.286 27.0559C31.0126 27.0511 30.7872 27.2663 30.7825 27.5366C30.7778 27.8069 30.9956 28.0299 31.269 28.0346Z" fill="#009200" stroke="black" stroke-width="0.0667306"/>
<path id="Vector_77" d="M31.4436 27.6597C31.717 27.6645 31.9424 27.4537 31.947 27.189C31.9516 26.9242 31.7338 26.7057 31.4604 26.701C31.187 26.6962 30.9616 26.9069 30.957 27.1717C30.9523 27.4364 31.1702 27.6549 31.4436 27.6597Z" fill="#009200" stroke="black" stroke-width="0.0660438"/>
<path id="Vector_78" d="M31.658 27.2619C31.9314 27.2667 32.1568 27.056 32.1614 26.7912C32.166 26.5265 31.9481 26.308 31.6747 26.3032C31.4013 26.2984 31.1759 26.5092 31.1713 26.7739C31.1667 27.0387 31.3846 27.2572 31.658 27.2619Z" fill="#009200" stroke="black" stroke-width="0.0660438"/>
</g>
<g id="Group_18">
<path id="Vector_79" d="M36.6877 36.489C37.5286 36.1908 37.3898 34.0433 36.3776 31.6924C35.3653 29.3415 33.8631 27.6774 33.0221 27.9756C32.1812 28.2738 32.3201 30.4214 33.3323 32.7723C34.3445 35.1232 35.8468 36.7872 36.6877 36.489Z" fill="#009200" stroke="black" stroke-width="0.0581208"/>
<path id="Vector_80" d="M36.576 33.8687C36.7316 33.7945 36.68 33.3373 36.4607 32.8477C36.2414 32.3581 35.9374 32.0213 35.7818 32.0956C35.6262 32.1698 35.6778 32.6269 35.8971 33.1166C36.1164 33.6062 36.4204 33.943 36.576 33.8687Z" fill="#009200" stroke="black" stroke-width="0.059103"/>
<path id="Vector_81" fill-rule="evenodd" clip-rule="evenodd" d="M36.0312 32.9783C37.3483 34.5766 37.1781 35.5944 37.0385 36.4538C36.624 35.4625 36.4053 34.8389 35.0882 33.2406C33.7711 31.6422 34.429 30.5195 34.5193 29.9257C34.7171 30.4393 34.7141 31.3799 36.0312 32.9783V32.9783Z" fill="#009200" stroke="black" stroke-width="0.0605421"/>
<path id="Vector_82" fill-rule="evenodd" clip-rule="evenodd" d="M36.1499 34.2694C37.467 35.8678 37.2968 36.8855 37.1571 37.745C36.7427 36.7536 36.524 36.1301 35.2069 34.5317C33.8898 32.9334 34.5476 31.8106 34.6379 31.2169C34.8358 31.7305 34.8328 32.6711 36.1499 34.2694V34.2694Z" fill="#009200" stroke="black" stroke-width="0.0605421"/>
<path id="Vector_83" fill-rule="evenodd" clip-rule="evenodd" d="M36.198 35.31C37.5482 36.8797 37.3991 37.9009 37.2772 38.763C36.8423 37.7808 36.6106 37.1621 35.2605 35.5923C33.9104 34.0226 34.545 32.8861 34.623 32.2906C34.8314 32.7998 34.8479 33.7403 36.198 35.31V35.31Z" fill="#009200" stroke="black" stroke-width="0.0605408"/>
<path id="Vector_84" d="M35.9702 33.0564C36.2786 32.9774 36.215 32.2061 35.8283 31.3337C35.4415 30.4613 34.878 29.8181 34.5696 29.8971C34.2612 29.9761 34.3248 30.7473 34.7115 31.6198C35.0983 32.4922 35.6618 33.1354 35.9702 33.0564Z" fill="#009200" stroke="black" stroke-width="0.0600054"/>
<path id="Vector_85" d="M35.2908 33.6835C35.5684 33.6353 35.5498 33.0105 35.2493 32.288C34.9488 31.5655 34.4802 31.0189 34.2027 31.0671C33.9252 31.1153 33.9438 31.7401 34.2443 32.4626C34.5447 33.1851 35.0133 33.7317 35.2908 33.6835Z" fill="#009200" stroke="black" stroke-width="0.0584232"/>
<path id="Vector_86" d="M34.6297 34.2848C34.908 34.2423 34.9023 33.6175 34.6169 32.8892C34.3316 32.1609 33.8746 31.6049 33.5963 31.6473C33.3179 31.6897 33.3236 32.3145 33.609 33.0428C33.8943 33.7711 34.3513 34.3272 34.6297 34.2848Z" fill="#009200" stroke="black" stroke-width="0.0584006"/>
<path id="Vector_87" d="M35.1112 31.7624C35.3354 31.721 35.3075 31.2509 35.0489 30.7126C34.7902 30.1742 34.3988 29.7713 34.1745 29.8128C33.9503 29.8542 33.9782 30.3243 34.2369 30.8626C34.4955 31.401 34.887 31.8039 35.1112 31.7624Z" fill="#009200" stroke="black" stroke-width="0.060281"/>
<path id="Vector_88" d="M34.5007 32.1967C34.7272 32.1675 34.7295 31.6965 34.5058 31.1448C34.282 30.593 33.917 30.1693 33.6905 30.1985C33.4639 30.2277 33.4616 30.6987 33.6854 31.2504C33.9091 31.8022 34.2741 32.2259 34.5007 32.1967Z" fill="#009200" stroke="black" stroke-width="0.0602397"/>
<g id="Vector_89">
<path fill-rule="evenodd" clip-rule="evenodd" d="M33.6823 30.5638C34.0707 31.5123 34.2277 32.3659 34.0315 32.4694C33.8353 32.573 33.3616 31.8866 32.9731 30.938" fill="#009200"/>
<path d="M33.6823 30.5638C34.0707 31.5123 34.2277 32.3659 34.0315 32.4694C33.8353 32.573 33.3616 31.8866 32.9731 30.938" stroke="black" stroke-width="0.0595982"/>
</g>
<path id="Vector_90" d="M34.4396 31.0813C34.6662 31.0521 34.6685 30.5812 34.4447 30.0294C34.221 29.4776 33.856 29.054 33.6294 29.0831C33.4029 29.1123 33.4006 29.5833 33.6243 30.1351C33.8481 30.6868 34.2131 31.1105 34.4396 31.0813Z" fill="#009200" stroke="black" stroke-width="0.0602397"/>
<path id="Vector_91" d="M33.7887 31.3948C34.016 31.37 34.0287 30.8993 33.8169 30.3434C33.6052 29.7875 33.2493 29.357 33.022 29.3818C32.7946 29.4066 32.782 29.8773 32.9937 30.4332C33.2055 30.9891 33.5614 31.4196 33.7887 31.3948Z" fill="#009200" stroke="black" stroke-width="0.0602457"/>
<g id="Vector_92">
<path fill-rule="evenodd" clip-rule="evenodd" d="M33.0246 29.2914C33.4033 29.9329 33.6073 30.5323 33.4793 30.6298C33.3514 30.7273 32.9407 30.2852 32.562 29.6437" fill="#009200"/>
<path d="M33.0246 29.2914C33.4033 29.9329 33.6073 30.5323 33.4793 30.6298C33.3514 30.7273 32.9407 30.2852 32.562 29.6437" stroke="black" stroke-width="0.0597527"/>
</g>
<g id="Vector_93">
<path fill-rule="evenodd" clip-rule="evenodd" d="M33.2858 28.8646C33.6645 29.5061 33.8686 30.1056 33.7406 30.2031C33.6126 30.3005 33.2019 29.8584 32.8232 29.2169" fill="#009200"/>
<path d="M33.2858 28.8646C33.6645 29.5061 33.8686 30.1056 33.7406 30.2031C33.6126 30.3005 33.2019 29.8584 32.8232 29.2169" stroke="black" stroke-width="0.0597527"/>
</g>
<g id="Vector_94">
<path fill-rule="evenodd" clip-rule="evenodd" d="M34.4499 28.9423C34.9764 29.8177 35.2596 30.6359 35.0811 30.7692C34.9026 30.9025 34.3311 30.2994 33.8047 29.424" fill="#009200"/>
<path d="M34.4499 28.9423C34.9764 29.8177 35.2596 30.6359 35.0811 30.7692C34.9026 30.9025 34.3311 30.2994 33.8047 29.424" stroke="black" stroke-width="0.0596285"/>
</g>
<g id="Vector_95">
<path fill-rule="evenodd" clip-rule="evenodd" d="M33.6855 28.4692C34.0655 29.1758 34.2709 29.8359 34.1431 29.9429C34.0154 30.0499 33.6037 29.5626 33.2236 28.856" fill="#009200"/>
<path d="M33.6855 28.4692C34.0655 29.1758 34.2709 29.8359 34.1431 29.9429C34.0154 30.0499 33.6037 29.5626 33.2236 28.856" stroke="black" stroke-width="0.0587628"/>
</g>
</g>
<g id="Group_19">
<path id="Vector_96" fill-rule="evenodd" clip-rule="evenodd" d="M33.6352 27.4877C33.3819 27.7446 33.6302 28.2223 33.8617 28.3931C34.1203 28.6292 35.581 30.1674 36.609 28.8663C35.7843 28.8526 34.2438 26.9172 33.6352 27.4877Z" fill="#804BFF" stroke="black" stroke-width="0.0606898"/>
<path id="Vector_97" fill-rule="evenodd" clip-rule="evenodd" d="M33.454 26.7236C33.2008 26.9805 33.449 27.4583 33.6805 27.629C33.9392 27.8652 35.3999 29.4033 36.4278 28.1022C35.6032 28.0886 34.0626 26.1531 33.454 26.7236Z" fill="#804BFF" stroke="black" stroke-width="0.0606898"/>
<path id="Vector_98" fill-rule="evenodd" clip-rule="evenodd" d="M33.2206 25.9984C32.9674 26.2554 33.2156 26.7331 33.4471 26.9038C33.7058 27.14 35.1665 28.6781 36.1945 27.377C35.3698 27.3634 33.8292 25.428 33.2206 25.9984Z" fill="#804BFF" stroke="black" stroke-width="0.0606898"/>
<path id="Vector_99" fill-rule="evenodd" clip-rule="evenodd" d="M32.7157 25.1696C32.4625 25.4266 32.7108 25.9043 32.9423 26.075C33.2009 26.3112 34.6616 27.8493 35.6896 26.5482C34.8649 26.5346 33.3243 24.5992 32.7157 25.1696Z" fill="#804BFF" stroke="black" stroke-width="0.0606898"/>
</g>
<g id="Group_20">
<path id="Vector_100" fill-rule="evenodd" clip-rule="evenodd" d="M30.9012 24.332C31.4251 23.949 32.3897 23.8363 33.1392 24.2193C33.7649 24.526 34.802 25.7668 35.584 26.0612C35.3765 26.1071 35.1601 26.1168 34.9475 26.0897C34.735 26.0627 34.5306 25.9995 34.3464 25.9039C33.6487 26.4023 33.4018 26.4741 32.6896 26.5726C31.705 26.7082 30.8867 26.4517 30.6039 25.9419C30.3082 25.4612 30.4367 24.6902 30.9012 24.332V24.332Z" fill="#804BFF" stroke="black" stroke-width="0.0645634"/>
<path id="Vector_101" d="M31.9702 25.3384C32.219 25.3427 32.4227 25.2297 32.4252 25.086C32.4277 24.9422 32.2281 24.8222 31.9793 24.8179C31.7305 24.8135 31.5268 24.9265 31.5243 25.0703C31.5218 25.214 31.7214 25.334 31.9702 25.3384Z" fill="#FF0000" stroke="black" stroke-width="0.0586604"/>
<path id="Vector_102" d="M30.7826 26.5306C31.1081 26.4096 31.312 26.151 31.2381 25.9529C31.1642 25.7549 30.8405 25.6924 30.5151 25.8134C30.1896 25.9344 29.9857 26.193 30.0596 26.3911C30.1334 26.5891 30.4572 26.6516 30.7826 26.5306Z" fill="#FFFF00" stroke="black" stroke-width="0.0637138"/>
<path id="Vector_103" d="M31.9581 25.2155C32.0469 25.217 32.1199 25.1561 32.1212 25.0793C32.1226 25.0026 32.0517 24.9391 31.963 24.9376C31.8742 24.936 31.8012 24.997 31.7998 25.0737C31.7985 25.1504 31.8693 25.2139 31.9581 25.2155Z" fill="black"/>
<path id="Vector_104" fill-rule="evenodd" clip-rule="evenodd" d="M30.9977 25.3905C31.0396 25.5894 30.8929 25.8621 30.5729 25.9622C30.2459 26.1018 29.9994 26.4124 29.8583 26.9185C29.3559 25.7736 29.6704 25.2826 30.1967 25.1597C30.6506 25.009 30.924 25.0248 30.9977 25.3905Z" fill="#FFFF00" stroke="black" stroke-width="0.0756053"/>
<path id="Vector_105" d="M30.5264 25.5813C30.5893 25.578 30.6374 25.5235 30.6338 25.4596C30.6302 25.3956 30.5763 25.3465 30.5134 25.3497C30.4504 25.353 30.4023 25.4075 30.4059 25.4714C30.4095 25.5354 30.4634 25.5845 30.5264 25.5813Z" fill="black"/>
</g>
</g>
</g>
</g>
</g>
<defs>
<clipPath id="clip0_2909_185436">
<path d="M0.246094 32C0.246094 14.3269 14.573 0 32.2461 0V0C49.9192 0 64.2461 14.3269 64.2461 32V32C64.2461 49.6731 49.9192 64 32.2461 64V64C14.573 64 0.246094 49.6731 0.246094 32V32Z" fill="white"/>
</clipPath>
</defs>
</svg>
