<svg width="65" height="64" viewBox="0 0 65 64" fill="none" xmlns="http://www.w3.org/2000/svg">
<g id="Rounded=Ecuador (EC)">
<g clip-path="url(#clip0_2909_185432)">
<g id="Group">
<path id="Vector" fill-rule="evenodd" clip-rule="evenodd" d="M0.246094 0H64.2461V64H0.246094V0Z" fill="#FFE800"/>
<path id="Vector_2" fill-rule="evenodd" clip-rule="evenodd" d="M0.246094 32H64.2461V64H0.246094V32Z" fill="#00148E"/>
<path id="Vector_3" fill-rule="evenodd" clip-rule="evenodd" d="M0.246094 48H64.2461V64H0.246094V48Z" fill="#DA0010"/>
</g>
<g id="Group_2">
<path id="Vector_4" fill-rule="evenodd" clip-rule="evenodd" d="M26.9337 30.525L20.0962 37.7375L19.9712 37.5875L26.8087 30.3625L26.9337 30.525ZM31.6837 31.7L22.7462 41.125L22.5962 40.975L31.5337 31.55L31.6962 31.7H31.6837Z" fill="black"/>
<path id="Vector_5" fill-rule="evenodd" clip-rule="evenodd" d="M22.8823 41.1342L22.1403 41.8873L21.2832 42.5298L21.9102 41.666L22.6522 40.9129L22.8823 41.1342Z" fill="#808080" stroke="black" stroke-width="0.0425298"/>
<path id="Vector_6" fill-rule="evenodd" clip-rule="evenodd" d="M20.5825 37.4467L19.8405 38.1998L18.9834 38.8423L19.6104 37.9785L20.3524 37.2254L20.5825 37.4467Z" fill="#808080" stroke="black" stroke-width="0.0425298"/>
</g>
<path id="Vector_7" fill-rule="evenodd" clip-rule="evenodd" d="M21.1344 14.0101C21.1344 14.0101 20.3821 34.4586 23.3911 34.4586C26.4001 34.4586 27.9089 32.308 27.9089 32.308L27.8749 21.0693L21.1344 14.0101V14.0101Z" fill="#FFDF00" stroke="black" stroke-width="0.0508122"/>
<path id="Vector_8" fill-rule="evenodd" clip-rule="evenodd" d="M22.9748 15.9177C22.9748 16.9929 22.6391 32.308 24.1436 32.308C25.6481 32.308 27.9091 31.2327 27.9091 31.2327L27.8751 21.0693L22.9748 15.9177V15.9177Z" fill="#0000C4" stroke="black" stroke-width="0.0508122"/>
<path id="Vector_9" fill-rule="evenodd" clip-rule="evenodd" d="M23.9521 16.9504C23.9521 18.0257 24.1434 30.1575 25.6521 30.1575H27.9089L27.8749 21.0693L23.9521 16.9504Z" fill="#E10000" stroke="black" stroke-width="0.0508122"/>
<path id="Vector_10" fill-rule="evenodd" clip-rule="evenodd" d="M20.9588 14.025L27.7838 21.2375L27.9088 21.0875L21.0713 13.875L20.9463 14.025H20.9588Z" fill="black"/>
<path id="Vector_11" fill-rule="evenodd" clip-rule="evenodd" d="M18.9746 17.9815C18.9746 17.9815 17.0276 37.5464 22.8686 37.5464C27.7361 37.5464 27.7361 34.4599 28.7096 34.4599L27.7361 27.2524L18.9691 17.9815H18.9746Z" fill="#FFDF00" stroke="black" stroke-width="0.0565409"/>
<g id="Group_3">
<path id="Vector_12" d="M23.2818 21.4545C23.3216 21.4517 24.7541 18.27 28.2947 16.281" stroke="black" stroke-width="0.0802019"/>
<path id="Vector_13" fill-rule="evenodd" clip-rule="evenodd" d="M23.0684 18.352C23.5662 18.5896 23.8798 18.8635 24.1646 19.1831C23.5933 19.0618 23.2984 19.0129 22.8007 18.7753C22.3029 18.5378 21.9247 18.1735 21.6242 17.8788C21.9954 17.9939 22.5679 18.1132 23.0684 18.352V18.352Z" fill="#005B00" stroke="black" stroke-width="0.0273524"/>
<path id="Vector_14" fill-rule="evenodd" clip-rule="evenodd" d="M24.6062 20.1916C24.6397 20.2576 24.6031 20.3498 24.5226 20.3945C24.4421 20.4391 24.3494 20.4208 24.315 20.3531C24.2807 20.2855 24.319 20.1966 24.3995 20.1519C24.48 20.1073 24.5727 20.1256 24.6062 20.1916Z" fill="#FF0000" stroke="black" stroke-width="0.019036"/>
<path id="Vector_15" fill-rule="evenodd" clip-rule="evenodd" d="M25.8202 16.2814C25.603 16.847 25.3633 17.2202 25.0871 17.5687C25.2112 16.9401 25.2638 16.6175 25.481 16.0519C25.6982 15.4862 26.0153 15.0315 26.2716 14.6695C26.161 15.0829 26.0386 15.7126 25.8202 16.2814V16.2814Z" fill="#005B00" stroke="black" stroke-width="0.0259222"/>
<path id="Vector_16" fill-rule="evenodd" clip-rule="evenodd" d="M25.4324 16.2793C25.3804 16.8336 25.2654 17.2633 25.1141 17.6994C25.0737 17.1612 25.0438 16.8922 25.0958 16.3379C25.1479 15.7836 25.3089 15.2434 25.4404 14.8108C25.4427 15.184 25.4848 15.7219 25.4324 16.2793V16.2793Z" fill="#005B00" stroke="black" stroke-width="0.0226976"/>
<path id="Vector_17" fill-rule="evenodd" clip-rule="evenodd" d="M25.8667 17.0128C25.5725 17.3431 25.3239 17.482 25.0621 17.5687C25.3227 17.1054 25.4501 16.8586 25.7443 16.5283C26.0384 16.1979 26.3554 16.0492 26.61 15.934C26.4223 16.2149 26.1624 16.6806 25.8667 17.0128V17.0128Z" fill="#005B00" stroke="black" stroke-width="0.0244661"/>
<path id="Vector_18" fill-rule="evenodd" clip-rule="evenodd" d="M23.5333 17.9988C23.85 18.4015 23.9983 18.7846 24.1037 19.2062C23.6778 18.9015 23.4522 18.7585 23.1355 18.3558C22.8187 17.9531 22.6538 17.4558 22.525 17.0552C22.7869 17.2909 23.2148 17.5939 23.5333 17.9988V17.9988Z" fill="#005B00" stroke="black" stroke-width="0.0272339"/>
<path id="Vector_19" fill-rule="evenodd" clip-rule="evenodd" d="M22.4401 20.357C22.8699 20.7032 23.0986 21.061 23.2822 21.4656C22.7376 21.2385 22.4517 21.1367 22.0219 20.7905C21.592 20.4444 21.3276 19.9747 21.1194 19.5956C21.4611 19.7839 22.0078 20.0089 22.4401 20.357V20.357Z" fill="#005B00" stroke="black" stroke-width="0.0300059"/>
<path id="Vector_20" fill-rule="evenodd" clip-rule="evenodd" d="M24.4206 20.1961C24.0925 20.7391 23.7345 21.1057 23.3231 21.4525C23.5154 20.8591 23.5978 20.5555 23.9259 20.0125C24.254 19.4695 24.727 19.0207 25.1093 18.6631C24.9403 19.0558 24.7505 19.6501 24.4206 20.1961V20.1961Z" fill="#005B00" stroke="black" stroke-width="0.0301101"/>
<path id="Vector_21" fill-rule="evenodd" clip-rule="evenodd" d="M24.965 20.7364C24.4175 21.1142 23.9405 21.3073 23.4322 21.4569C23.8999 20.9684 24.1268 20.7113 24.6743 20.3335C25.2218 19.9556 25.833 19.7351 26.3242 19.5618C25.9818 19.866 25.5155 20.3565 24.965 20.7364V20.7364Z" fill="#005B00" stroke="black" stroke-width="0.0299183"/>
<path id="Vector_22" fill-rule="evenodd" clip-rule="evenodd" d="M28.5653 15.927C28.3345 16.2052 28.1266 16.3764 27.9022 16.5294C28.091 16.2049 28.1815 16.0369 28.4123 15.7587C28.6431 15.4804 28.9108 15.2751 29.1262 15.1122C28.9854 15.3218 28.7973 15.6471 28.5653 15.927V15.927Z" fill="#005B00" stroke="black" stroke-width="0.0149231"/>
<path id="Vector_23" fill-rule="evenodd" clip-rule="evenodd" d="M28.3246 15.8308C28.1888 16.1249 28.0408 16.3436 27.8708 16.5612C27.9506 16.2643 27.9848 16.1147 28.1206 15.8206C28.2563 15.5265 28.4518 15.2536 28.6098 15.0354C28.5398 15.2381 28.4611 15.5351 28.3246 15.8308V15.8308Z" fill="#005B00" stroke="black" stroke-width="0.0133864"/>
<path id="Vector_24" fill-rule="evenodd" clip-rule="evenodd" d="M28.5138 16.3744C28.2808 16.5147 28.1097 16.5568 27.9406 16.5687C28.1785 16.3515 28.2986 16.2342 28.5317 16.0939C28.7647 15.9536 28.9776 15.9154 29.1478 15.887C28.9862 16.0147 28.7482 16.2334 28.5138 16.3744V16.3744Z" fill="#005B00" stroke="black" stroke-width="0.0143891"/>
<path id="Vector_25" fill-rule="evenodd" clip-rule="evenodd" d="M25.4367 18.2784C25.0068 18.5386 24.6551 18.6841 24.2896 18.8056C24.6844 18.4845 24.8793 18.3168 25.3092 18.0566C25.7391 17.7964 26.1853 17.626 26.5433 17.4914C26.2632 17.6946 25.8689 18.0168 25.4367 18.2784V18.2784Z" fill="#005B00" stroke="black" stroke-width="0.0186605"/>
<path id="Vector_26" fill-rule="evenodd" clip-rule="evenodd" d="M26.835 18.1688C26.2648 18.5081 25.7801 18.6665 25.2684 18.7787C25.7699 18.3218 26.0149 18.0797 26.5851 17.7404C27.1552 17.401 27.774 17.225 28.271 17.0876C27.9086 17.3684 27.4083 17.8275 26.835 18.1688V18.1688Z" fill="#005B00" stroke="black" stroke-width="0.0298533"/>
<path id="Vector_27" d="M23.086 23.6614C23.1226 23.641 22.7697 20.6703 25.0739 17.5959" stroke="black" stroke-width="0.0803551"/>
<path id="Vector_28" fill-rule="evenodd" clip-rule="evenodd" d="M26.7561 17.1667C26.7896 17.2327 26.753 17.3249 26.6725 17.3695C26.592 17.4142 26.4993 17.3958 26.4649 17.3282C26.4306 17.2605 26.4689 17.1716 26.5494 17.127C26.6299 17.0823 26.7226 17.1007 26.7561 17.1667Z" fill="#FF0000" stroke="black" stroke-width="0.019036"/>
<path id="Vector_29" fill-rule="evenodd" clip-rule="evenodd" d="M27.7815 16.5666C27.815 16.6326 27.7784 16.7248 27.6979 16.7695C27.6174 16.8141 27.5247 16.7958 27.4903 16.7281C27.456 16.6605 27.4943 16.5716 27.5748 16.5269C27.6552 16.4823 27.748 16.5006 27.7815 16.5666Z" fill="#FF0000" stroke="black" stroke-width="0.019036"/>
<path id="Vector_30" fill-rule="evenodd" clip-rule="evenodd" d="M24.1366 18.3793C24.1616 18.4293 24.1163 18.5098 24.0341 18.5568C23.9518 18.6038 23.8647 18.6005 23.8391 18.5493C23.8135 18.498 23.86 18.42 23.9422 18.373C24.0245 18.326 24.1116 18.3293 24.1366 18.3793Z" fill="#FF0000" stroke="black" stroke-width="0.0167834"/>
<path id="Vector_31" fill-rule="evenodd" clip-rule="evenodd" d="M24.4237 18.2543C24.4487 18.3043 24.4034 18.3848 24.3212 18.4318C24.2389 18.4788 24.1518 18.4755 24.1262 18.4243C24.1006 18.373 24.1471 18.295 24.2293 18.248C24.3116 18.201 24.3987 18.2043 24.4237 18.2543Z" fill="#FF0000" stroke="black" stroke-width="0.0167834"/>
<path id="Vector_32" fill-rule="evenodd" clip-rule="evenodd" d="M24.2616 18.5167C24.2866 18.5667 24.2413 18.6472 24.1591 18.6942C24.0768 18.7412 23.9897 18.738 23.9641 18.6867C23.9385 18.6355 23.985 18.5575 24.0672 18.5105C24.1495 18.4635 24.2366 18.4667 24.2616 18.5167Z" fill="#FF0000" stroke="black" stroke-width="0.0167834"/>
<path id="Vector_33" fill-rule="evenodd" clip-rule="evenodd" d="M25.435 18.4575C25.472 18.531 25.4312 18.6334 25.3419 18.6827C25.2526 18.7321 25.1499 18.7113 25.112 18.636C25.074 18.5607 25.1166 18.462 25.2059 18.4126C25.2952 18.3633 25.398 18.384 25.435 18.4575Z" fill="#FF0000" stroke="black" stroke-width="0.0211325"/>
<path id="Vector_34" fill-rule="evenodd" clip-rule="evenodd" d="M25.6474 18.245C25.6844 18.3185 25.6436 18.4209 25.5543 18.4702C25.465 18.5196 25.3623 18.4988 25.3244 18.4235C25.2864 18.3482 25.329 18.2495 25.4183 18.2001C25.5076 18.1508 25.6104 18.1715 25.6474 18.245Z" fill="#FF0000" stroke="black" stroke-width="0.0211325"/>
<path id="Vector_35" fill-rule="evenodd" clip-rule="evenodd" d="M25.6972 18.345C25.7342 18.4185 25.6934 18.5209 25.6041 18.5702C25.5148 18.6196 25.4121 18.5988 25.3742 18.5235C25.3362 18.4482 25.3788 18.3495 25.4681 18.3001C25.5574 18.2508 25.6602 18.2715 25.6972 18.345Z" fill="#FF0000" stroke="black" stroke-width="0.0211325"/>
</g>
<path id="Vector_36" fill-rule="evenodd" clip-rule="evenodd" d="M20.9217 20.0449C20.9217 21.0737 18.9747 32.4023 23.8477 35.4887C25.7947 36.5175 28.7152 34.4599 28.7152 35.4887L27.7417 27.2524L20.9217 20.0449Z" fill="#0000C4" stroke="black" stroke-width="0.0565409"/>
<path id="Vector_37" fill-rule="evenodd" clip-rule="evenodd" d="M22.8688 22.1026C22.8688 23.1314 21.8953 31.3677 24.8213 33.4311C26.7683 35.4888 31.6413 34.9308 31.6413 34.9308L27.7418 27.2524L22.8688 22.1026V22.1026Z" fill="#E10000" stroke="black" stroke-width="0.0565409"/>
<path id="Vector_38" fill-rule="evenodd" clip-rule="evenodd" d="M18.8462 18L27.7837 27.425L27.9462 27.275L18.9962 17.85L18.8462 18V18Z" fill="black"/>
<path id="Vector_39" fill-rule="evenodd" clip-rule="evenodd" d="M17.362 16.9411L17.9416 17.0672L18.1186 17.2486C18.0954 17.246 18.2956 17.43 18.07 17.6668C17.8443 17.9035 17.4916 17.5393 17.4916 17.5393C17.4916 17.5393 17.6199 18.1389 17.9749 18.5028C18.3299 18.8666 18.7316 18.8103 18.7316 18.8103C18.7316 18.8103 18.3314 18.4689 18.6032 18.2107C18.8753 17.9502 19.0059 18.1554 19.0059 18.1554L19.3599 18.5183L19.5869 18.2802L18.1699 16.8278L18.0415 16.2282L17.1627 16.0467L17.3622 16.9387L17.362 16.9411Z" fill="#CECECC" stroke="black" stroke-width="0.0162669"/>
<path id="Vector_40" fill-rule="evenodd" clip-rule="evenodd" d="M19.08 12.8954L19.7462 13.9094L20.6215 14.1094L20.0352 14.4855L21.0861 14.4191L21.552 14.7298L21.73 14.4628L21.2628 14.1513L20.9209 13.1541L20.7982 13.8415L20.2779 13.109L19.0797 12.893L19.08 12.8954Z" fill="#CECECC" stroke="black" stroke-width="0.0168634"/>
<path id="Vector_41" fill-rule="evenodd" clip-rule="evenodd" d="M21.6231 13.6697C21.6231 13.7282 21.5473 13.778 21.4602 13.778C21.3731 13.778 21.2936 13.7282 21.2936 13.6697C21.2936 13.6112 21.3693 13.5586 21.4602 13.5586C21.5511 13.5586 21.6231 13.6083 21.6231 13.6697ZM21.3882 13.9008C21.3882 14.948 22.1798 19.394 22.2442 19.5022C22.248 19.6338 22.0624 19.6894 21.9753 19.5285C21.7253 19.0196 21.1875 14.8485 21.1686 13.8745C21.1572 13.4738 21.3087 13.4416 21.4829 13.4504C21.6231 13.4562 21.7973 13.5586 21.7973 13.6814C21.7973 13.8277 21.5776 13.9359 21.3882 13.9008V13.9008Z" fill="#E10000" stroke="black" stroke-width="0.0332843"/>
<path id="Vector_42" fill-rule="evenodd" clip-rule="evenodd" d="M21.7703 14.1519C21.7418 14.2069 21.6464 14.2361 21.5644 14.216C21.4825 14.1959 21.4319 14.1308 21.4604 14.0758C21.4889 14.0208 21.5858 13.9888 21.6713 14.0098C21.7568 14.0308 21.8003 14.0941 21.7703 14.1519ZM21.4369 14.3149C21.6841 16.279 20.7963 19.3253 20.8028 19.4446C20.7436 19.5665 20.5406 19.5786 20.5384 19.4045C20.4964 19.2919 21.5138 16.5379 21.2431 14.2394C21.4276 13.86 21.5858 13.8648 21.7454 13.9133C21.8744 13.9511 21.9884 14.0876 21.9285 14.2031C21.8573 14.3406 21.5979 14.3916 21.4369 14.3149V14.3149Z" fill="#0000C4" stroke="black" stroke-width="0.0337076"/>
<path id="Vector_43" fill-rule="evenodd" clip-rule="evenodd" d="M19.6096 17.42C19.6096 17.515 19.5128 17.5958 19.4016 17.5958C19.2903 17.5958 19.1887 17.515 19.1887 17.42C19.1887 17.325 19.2855 17.2395 19.4016 17.2395C19.5177 17.2395 19.6096 17.3203 19.6096 17.42ZM19.3097 17.7953C19.3097 19.4958 20.3207 26.7158 20.4029 26.8915C20.4078 27.1053 20.1707 27.1955 20.0595 26.9343C19.7402 26.1078 19.0533 19.3343 19.0291 17.7525C19.0146 17.1018 19.2081 17.0495 19.4306 17.0638C19.6096 17.0733 19.8321 17.2395 19.8321 17.439C19.8321 17.6765 19.5515 17.8523 19.3097 17.7953V17.7953Z" fill="#E10000" stroke="black" stroke-width="0.0479355"/>
<path id="Vector_44" fill-rule="evenodd" clip-rule="evenodd" d="M19.8647 18.1425C19.8284 18.2325 19.7064 18.281 19.6014 18.2488C19.4965 18.2166 19.4315 18.1107 19.4678 18.0207C19.504 17.9307 19.6279 17.8777 19.7374 17.9113C19.8469 17.9449 19.9028 18.048 19.8647 18.1425ZM19.4386 18.4112C19.7629 21.6152 18.6391 26.5945 18.6478 26.7893C18.5726 26.9887 18.3128 27.0101 18.3094 26.7259C18.2551 26.5424 19.5461 22.0391 19.1903 18.2895C19.4249 17.6688 19.6274 17.6753 19.8318 17.7532C19.997 17.814 20.1434 18.0359 20.0673 18.2249C19.9767 18.4499 19.645 18.5352 19.4386 18.4112V18.4112Z" fill="#0000C4" stroke="black" stroke-width="0.0481172"/>
<g id="Group_4">
<path id="Vector_45" fill-rule="evenodd" clip-rule="evenodd" d="M36.4459 30.525L43.2834 37.7375L43.4084 37.5875L36.5709 30.3625L36.4459 30.525ZM31.6959 31.7L40.6209 41.125L40.7709 40.975L31.8334 31.55L31.6709 31.7H31.6959Z" fill="black"/>
<path id="Vector_46" fill-rule="evenodd" clip-rule="evenodd" d="M40.4849 41.1342L41.2269 41.8873L42.084 42.5298L41.457 41.666L40.715 40.9129L40.4849 41.1342Z" fill="#808080" stroke="black" stroke-width="0.0425298"/>
<path id="Vector_47" fill-rule="evenodd" clip-rule="evenodd" d="M42.7974 37.4467L43.5394 38.1998L44.3965 38.8423L43.7695 37.9785L43.0275 37.2254L42.7974 37.4467Z" fill="#808080" stroke="black" stroke-width="0.0425298"/>
</g>
<g id="Group_5">
<path id="Vector_48" fill-rule="evenodd" clip-rule="evenodd" d="M42.2577 14.0101C42.2577 14.0101 43.01 34.4586 40.001 34.4586C36.992 34.4586 35.4832 32.308 35.4832 32.308L35.5172 21.0693L42.2577 14.0101V14.0101Z" fill="#FFDF00" stroke="black" stroke-width="0.0508122"/>
<path id="Vector_49" fill-rule="evenodd" clip-rule="evenodd" d="M40.4177 15.9177C40.4177 16.9929 40.7535 32.308 39.249 32.308C37.7445 32.308 35.4835 31.2327 35.4835 31.2327L35.5175 21.0693L40.4177 15.9177V15.9177Z" fill="#0000C4" stroke="black" stroke-width="0.0508122"/>
<path id="Vector_50" fill-rule="evenodd" clip-rule="evenodd" d="M39.4399 16.9504C39.4399 18.0257 39.2487 30.1575 37.7399 30.1575H35.4832L35.5172 21.0693L39.4399 16.9504Z" fill="#E10000" stroke="black" stroke-width="0.0508122"/>
<path id="Vector_51" fill-rule="evenodd" clip-rule="evenodd" d="M42.4212 14.025L35.5962 21.25L35.4712 21.1L42.3087 13.8875L42.4337 14.0375L42.4212 14.025Z" fill="black"/>
<g id="Group_6">
<path id="Vector_52" fill-rule="evenodd" clip-rule="evenodd" d="M37.2058 19.4248C37.2058 19.4248 39.1493 21.8701 40.0821 23.7717C41.014 25.6772 42.0975 28.5878 42.0975 28.5878C42.0975 28.5878 41.4866 25.7129 40.3124 23.4222C38.7728 20.5417 37.2039 19.5906 37.2058 19.4248Z" fill="#005B00" stroke="black" stroke-width="0.024077"/>
<path id="Vector_53" fill-rule="evenodd" clip-rule="evenodd" d="M36.8075 17.5342C36.8075 17.5342 38.9048 20.46 39.8627 22.6424C40.8193 24.829 41.885 28.1144 41.885 28.1144C41.885 28.1144 41.3667 24.9429 40.154 22.3057C38.5557 18.9794 36.7942 17.7111 36.8075 17.5342Z" fill="#005B00" stroke="black" stroke-width="0.0267432"/>
<path id="Vector_54" fill-rule="evenodd" clip-rule="evenodd" d="M38.8849 14.7147C38.8849 14.7147 40.4182 19.206 40.8892 21.978C41.3577 24.7525 41.6494 28.5669 41.6494 28.5669C41.6494 28.5669 41.934 25.3713 41.3036 21.9689C40.4323 17.612 38.8222 14.8527 38.8849 14.7147Z" fill="#005B00" stroke="black" stroke-width="0.0310496"/>
<path id="Vector_55" fill-rule="evenodd" clip-rule="evenodd" d="M37.3141 14.4484C37.3141 14.4484 39.3451 18.4581 40.126 21.182C40.9048 23.9097 41.6253 27.8444 41.6253 27.8444C41.6253 27.8444 41.5474 24.2709 40.5368 20.9551C39.1791 16.7427 37.2674 14.6291 37.3141 14.4484Z" fill="#005B00" stroke="black" stroke-width="0.0312376"/>
<path id="Vector_56" fill-rule="evenodd" clip-rule="evenodd" d="M39.9603 15.5747C39.9603 15.5747 41.0284 19.8967 41.308 22.4853C41.5855 25.0756 41.6857 28.5781 41.6857 28.5781C41.6857 28.5781 42.0241 25.7318 41.6391 22.5459C41.095 18.4557 39.9055 15.6892 39.9603 15.5747Z" fill="#005B00" stroke="black" stroke-width="0.0279388"/>
<path id="Vector_57" fill-rule="evenodd" clip-rule="evenodd" d="M37.0152 15.8165C37.0152 15.8165 39.0418 19.2631 39.8748 21.6723C40.7059 24.0853 41.5387 27.6117 41.5387 27.6117C41.5387 27.6117 41.306 24.3437 40.2376 21.4177C38.8133 17.7089 36.9809 15.9875 37.0152 15.8165Z" fill="#005B00" stroke="black" stroke-width="0.0284684"/>
<path id="Vector_58" fill-rule="evenodd" clip-rule="evenodd" d="M36.7939 18.1434C36.7939 18.1434 38.8889 20.8812 39.8383 22.9803C40.7864 25.0837 41.8351 28.279 41.8351 28.279C41.8351 28.279 41.3389 25.1466 40.1358 22.6152C38.5489 19.4289 36.7789 18.3221 36.7939 18.1434Z" fill="#005B00" stroke="black" stroke-width="0.0270749"/>
<path id="Vector_59" fill-rule="evenodd" clip-rule="evenodd" d="M37.0693 16.8411C37.0693 16.8411 39.0282 19.965 39.8825 22.2345C40.7354 24.508 41.6449 27.8866 41.6449 27.8866C41.6449 27.8866 41.2777 24.6763 40.1901 21.9283C38.7496 18.4556 37.0475 17.0159 37.0693 16.8411Z" fill="#005B00" stroke="black" stroke-width="0.0267171"/>
<path id="Vector_60" fill-rule="evenodd" clip-rule="evenodd" d="M39.357 14.8123C39.357 14.8123 40.6377 19.215 40.956 21.8977C41.2718 24.5825 41.356 28.2479 41.356 28.2479C41.356 28.2479 41.8107 25.2158 41.3679 21.9192C40.7374 17.6933 39.2873 14.9395 39.357 14.8123Z" fill="#005B00" stroke="black" stroke-width="0.030243"/>
<path id="Vector_61" fill-rule="evenodd" clip-rule="evenodd" d="M37.6662 13.7334C37.6662 13.7334 39.4953 17.9163 40.1421 20.7028C40.7866 23.493 41.3152 27.4808 41.3152 27.4808C41.3152 27.4808 41.4088 23.912 40.5618 20.5144C39.4123 16.1913 37.611 13.9092 37.6662 13.7334Z" fill="#005B00" stroke="black" stroke-width="0.0313019"/>
<path id="Vector_62" fill-rule="evenodd" clip-rule="evenodd" d="M40.4266 16.0074C40.4266 16.0074 41.2431 20.1458 41.3743 22.5991C41.5034 25.0538 41.4046 28.3538 41.4046 28.3538C41.4046 28.3538 41.902 25.7015 41.6999 22.6793C41.3909 18.7957 40.3656 16.1113 40.4266 16.0074Z" fill="#005B00" stroke="black" stroke-width="0.026786"/>
<path id="Vector_63" fill-rule="evenodd" clip-rule="evenodd" d="M37.2057 15.039C37.2057 15.039 39.1075 18.6555 39.8188 21.1491C40.5279 23.6465 41.16 27.2738 41.16 27.2738C41.16 27.2738 41.145 23.944 40.221 20.9121C38.9755 17.065 37.1573 15.2105 37.2057 15.039Z" fill="#005B00" stroke="black" stroke-width="0.0295531"/>
</g>
<path id="Vector_64" fill-rule="evenodd" clip-rule="evenodd" d="M44.4053 17.9815C44.4053 17.9815 46.3523 37.5464 40.5113 37.5464C35.6438 37.5464 35.6438 34.4599 34.6703 34.4599L35.6438 27.2524L44.4108 17.9815H44.4053Z" fill="#FFDF00" stroke="black" stroke-width="0.0565409"/>
<path id="Vector_65" fill-rule="evenodd" clip-rule="evenodd" d="M42.4582 20.0449C42.4582 21.0737 44.4052 32.4023 39.5322 35.4887C37.5852 36.5175 34.6647 34.4599 34.6647 35.4887L35.6382 27.2524L42.4582 20.0449Z" fill="#0000C4" stroke="black" stroke-width="0.0565409"/>
<path id="Vector_66" fill-rule="evenodd" clip-rule="evenodd" d="M40.5111 22.1026C40.5111 23.1314 41.4846 31.3677 38.5586 33.4311C36.6116 35.4888 31.7386 34.9308 31.7386 34.9308L35.6381 27.2524L40.5111 22.1026V22.1026Z" fill="#E10000" stroke="black" stroke-width="0.0565409"/>
<path id="Vector_67" fill-rule="evenodd" clip-rule="evenodd" d="M44.5336 18L35.5961 27.425L35.4336 27.275L44.3836 17.85L44.5336 18Z" fill="black"/>
<path id="Vector_68" fill-rule="evenodd" clip-rule="evenodd" d="M46.0306 16.9411L45.4509 17.0672L45.2739 17.2486C45.2971 17.246 45.0969 17.43 45.3226 17.6668C45.5483 17.9035 45.901 17.5393 45.901 17.5393C45.901 17.5393 45.7727 18.1389 45.4177 18.5028C45.0627 18.8666 44.661 18.8103 44.661 18.8103C44.661 18.8103 45.0612 18.4689 44.7893 18.2107C44.5172 17.9502 44.3867 18.1554 44.3867 18.1554L44.0327 18.5183L43.8057 18.2802L45.2227 16.8278L45.351 16.2282L46.2298 16.0467L46.0303 16.9387L46.0306 16.9411Z" fill="#CECECC" stroke="black" stroke-width="0.0162669"/>
<path id="Vector_69" fill-rule="evenodd" clip-rule="evenodd" d="M44.2872 12.8954L43.621 13.9094L42.7457 14.1094L43.332 14.4855L42.2811 14.4191L41.8151 14.7298L41.6371 14.4628L42.1044 14.1513L42.4463 13.1541L42.569 13.8415L43.0893 13.109L44.2875 12.893L44.2872 12.8954Z" fill="#CECECC" stroke="black" stroke-width="0.0168634"/>
<path id="Vector_70" fill-rule="evenodd" clip-rule="evenodd" d="M41.7441 13.6697C41.7441 13.7282 41.8199 13.778 41.907 13.778C41.9941 13.778 42.0736 13.7282 42.0736 13.6697C42.0736 13.6112 41.9979 13.5586 41.907 13.5586C41.8161 13.5586 41.7441 13.6083 41.7441 13.6697ZM41.9789 13.9008C41.9789 14.948 41.1874 19.394 41.123 19.5022C41.1192 19.6338 41.3048 19.6894 41.3919 19.5285C41.6419 19.0196 42.1797 14.8485 42.1986 13.8745C42.21 13.4738 42.0585 13.4416 41.8843 13.4504C41.7441 13.4562 41.5699 13.5586 41.5699 13.6814C41.5699 13.8277 41.7896 13.9359 41.9789 13.9008V13.9008Z" fill="#E10000" stroke="black" stroke-width="0.0332843"/>
<path id="Vector_71" fill-rule="evenodd" clip-rule="evenodd" d="M41.6095 14.1519C41.638 14.2069 41.7335 14.2361 41.8155 14.216C41.8974 14.1959 41.948 14.1308 41.9195 14.0758C41.891 14.0208 41.7941 13.9888 41.7086 14.0098C41.6231 14.0308 41.5796 14.0941 41.6095 14.1519ZM41.943 14.3149C41.6958 16.279 42.5835 19.3253 42.5771 19.4446C42.6363 19.5665 42.8393 19.5786 42.8415 19.4045C42.8835 19.2919 41.866 16.5379 42.1368 14.2394C41.9523 13.86 41.7941 13.8648 41.6345 13.9133C41.5055 13.9511 41.3915 14.0876 41.4514 14.2031C41.5226 14.3406 41.782 14.3916 41.943 14.3149V14.3149Z" fill="#0000C4" stroke="black" stroke-width="0.0337076"/>
<path id="Vector_72" fill-rule="evenodd" clip-rule="evenodd" d="M43.7576 17.42C43.7576 17.515 43.8543 17.5958 43.9656 17.5958C44.0769 17.5958 44.1785 17.515 44.1785 17.42C44.1785 17.325 44.0817 17.2395 43.9656 17.2395C43.8495 17.2395 43.7576 17.3203 43.7576 17.42ZM44.0575 17.7953C44.0575 19.4958 43.0465 26.7158 42.9643 26.8915C42.9594 27.1053 43.1965 27.1955 43.3077 26.9343C43.627 26.1078 44.3139 19.3343 44.3381 17.7525C44.3526 17.1018 44.1591 17.0495 43.9366 17.0638C43.7576 17.0733 43.5351 17.2395 43.5351 17.439C43.5351 17.6765 43.8157 17.8523 44.0575 17.7953V17.7953Z" fill="#E10000" stroke="black" stroke-width="0.0479355"/>
<path id="Vector_73" fill-rule="evenodd" clip-rule="evenodd" d="M43.5152 18.1425C43.5514 18.2325 43.6735 18.281 43.7784 18.2488C43.8834 18.2166 43.9484 18.1107 43.9121 18.0207C43.8759 17.9307 43.752 17.8777 43.6425 17.9113C43.533 17.9449 43.4771 18.048 43.5152 18.1425ZM43.9412 18.4112C43.6169 21.6152 44.7407 26.5945 44.7321 26.7893C44.8072 26.9887 45.0671 27.0101 45.0705 26.7259C45.1247 26.5424 43.8338 22.0391 44.1896 18.2895C43.9549 17.6688 43.7525 17.6753 43.5481 17.7532C43.3829 17.814 43.2364 18.0359 43.3126 18.2249C43.4032 18.4499 43.7349 18.5352 43.9412 18.4112V18.4112Z" fill="#0000C4" stroke="black" stroke-width="0.0481172"/>
</g>
<g id="Group_7">
<path id="Vector_74" fill-rule="evenodd" clip-rule="evenodd" d="M28.7203 42.6962C29.1647 42.966 29.6682 43.108 30.1806 43.108C30.693 43.108 31.1965 42.966 31.6408 42.6962V34.4599H29.6938C30.6673 37.5464 30.6673 40.6386 28.7148 42.6962H28.7203Z" fill="#E10000" stroke="black" stroke-width="0.0565409"/>
<path id="Vector_75" fill-rule="evenodd" clip-rule="evenodd" d="M30.1656 34.5222C30.1656 40.319 28.7578 41.6093 28.7578 42.7752C29.3441 42.7752 29.735 42.2316 30.1656 41.4849C30.7519 40.319 30.8083 34.4305 30.7519 34.5222H30.1656Z" fill="#0000C4" stroke="black" stroke-width="0.0465799"/>
<path id="Vector_76" fill-rule="evenodd" clip-rule="evenodd" d="M28.9931 34.5222C28.9633 37.9086 27.5091 41.046 27.7841 41.7403C28.0955 42.3626 28.9931 40.319 30.1658 41.4783C30.7521 40.319 30.8084 34.4305 30.7521 34.5157H28.9931V34.5222Z" fill="#0000C4" stroke="black" stroke-width="0.0465799"/>
<path id="Vector_77" fill-rule="evenodd" clip-rule="evenodd" d="M29.1407 34.5531C29.1407 38.425 27.7925 38.6831 27.7925 39.7156C28.3788 39.7156 29.1374 39.1512 29.1407 39.2037C29.727 38.425 29.7833 34.4919 29.727 34.5531H29.1407Z" fill="#FFDF00" stroke="black" stroke-width="0.0380686"/>
<path id="Vector_78" fill-rule="evenodd" clip-rule="evenodd" d="M27.9681 34.5531C27.9382 36.815 26.5172 38.74 26.7921 39.2037C27.1068 39.615 27.9681 38.425 29.1407 39.2037C29.727 38.425 29.7833 34.4919 29.727 34.5531H27.9681Z" fill="#FFDF00" stroke="black" stroke-width="0.0380686"/>
<path id="Vector_79" fill-rule="evenodd" clip-rule="evenodd" d="M34.6591 42.6962C34.2147 42.966 33.7112 43.108 33.1988 43.108C32.6864 43.108 32.1829 42.966 31.7386 42.6962V34.4599H33.6855C32.712 37.5464 32.7121 40.6386 34.6646 42.6962H34.6591Z" fill="#E10000" stroke="black" stroke-width="0.0565409"/>
<path id="Vector_80" fill-rule="evenodd" clip-rule="evenodd" d="M33.2138 34.5222C33.2138 40.319 34.6216 41.6093 34.6216 42.7752C34.0353 42.7752 33.6444 42.2316 33.2138 41.4849C32.6275 40.319 32.5711 34.4305 32.6275 34.5222H33.2138Z" fill="#0000C4" stroke="black" stroke-width="0.0465799"/>
<path id="Vector_81" fill-rule="evenodd" clip-rule="evenodd" d="M34.3867 34.5222C34.4165 37.9086 35.8707 41.046 35.5958 41.7403C35.2844 42.3626 34.3867 40.319 33.2141 41.4783C32.6278 40.319 32.5715 34.4305 32.6278 34.5157H34.3867V34.5222Z" fill="#0000C4" stroke="black" stroke-width="0.0465799"/>
<path id="Vector_82" fill-rule="evenodd" clip-rule="evenodd" d="M34.2514 34.5531C34.2514 38.425 35.5996 38.6831 35.5996 39.7156C35.0133 39.7156 34.2547 39.1512 34.2514 39.2037C33.6651 38.425 33.6088 34.4919 33.6651 34.5531H34.2514Z" fill="#FFDF00" stroke="black" stroke-width="0.0380686"/>
<path id="Vector_83" fill-rule="evenodd" clip-rule="evenodd" d="M35.424 34.5531C35.4538 36.815 36.8749 38.74 36.6 39.2037C36.2853 39.615 35.424 38.425 34.2514 39.2037C33.6651 38.425 33.6088 34.4919 33.6651 34.5531H35.424Z" fill="#FFDF00" stroke="black" stroke-width="0.0380686"/>
</g>
<g id="Group_8">
<path id="Vector_84" fill-rule="evenodd" clip-rule="evenodd" d="M24.2801 35.345L23.271 36.0972L24.2801 36.8495L24.7841 36.4734L25.0361 36.8495L25.2881 37.6017L25.5412 36.8495L25.7932 36.4734H39.3146V35.7211H25.7921L25.5401 35.3429C25.5401 34.9667 25.593 34.5906 25.7932 34.5906H26.8012C26.8012 34.2145 26.2972 33.4622 25.2881 33.4622C24.2801 33.4622 23.775 34.2145 23.775 34.5906H24.7841C24.9832 34.5906 25.0361 34.9667 25.0361 35.345L24.7841 35.7211L24.279 35.3429L24.2801 35.345Z" fill="#908F8A" stroke="black" stroke-width="0.0695774"/>
<path id="Vector_85" fill-rule="evenodd" clip-rule="evenodd" d="M27.2461 37.1262H36.0845V37.5842H27.2487L27.2461 37.1262ZM27.2461 36.6657H36.0845V37.1262H27.2487L27.2461 36.6657ZM27.2461 36.2077H36.0845V36.6683H27.2487L27.2461 36.2077ZM27.2461 35.7497H36.0845V36.2077H27.2487L27.2461 35.7497ZM27.2461 35.2917H36.0845V35.7497H27.2487L27.2461 35.2917ZM27.2461 34.8311H36.0845V35.2917H27.2487L27.2461 34.8311ZM27.2461 34.3757H36.0845V34.8311H27.2487L27.2461 34.3757Z" fill="#B74D00" stroke="black" stroke-width="0.0469113"/>
<path id="Vector_86" fill-rule="evenodd" clip-rule="evenodd" d="M27.772 34.3702L31.0447 37.5787H31.5126L28.2422 34.3728H27.7743L27.772 34.3702Z" fill="#908F8A" stroke="black" stroke-width="0.0818061"/>
<path id="Vector_87" fill-rule="evenodd" clip-rule="evenodd" d="M27.772 37.5798L31.0447 34.3713H31.5126L28.2422 37.5772H27.7743L27.772 37.5798Z" fill="#908F8A" stroke="black" stroke-width="0.0818061"/>
<path id="Vector_88" fill-rule="evenodd" clip-rule="evenodd" d="M27.7197 34.3702V37.5787H28.1844V34.3702H27.7197V34.3702Z" fill="#908F8A" stroke="black" stroke-width="0.0807917"/>
<path id="Vector_89" fill-rule="evenodd" clip-rule="evenodd" d="M31.9468 34.3702L35.2195 37.5787H35.6874L32.417 34.3728H31.9492L31.9468 34.3702Z" fill="#908F8A" stroke="black" stroke-width="0.0818061"/>
<path id="Vector_90" fill-rule="evenodd" clip-rule="evenodd" d="M31.9468 37.5798L35.2195 34.3713H35.6874L32.417 37.5772H31.9492L31.9468 37.5798Z" fill="#908F8A" stroke="black" stroke-width="0.0818061"/>
<path id="Vector_91" fill-rule="evenodd" clip-rule="evenodd" d="M35.1572 34.3702V37.5787H35.6219V34.3702H35.1572V34.3702Z" fill="#908F8A" stroke="black" stroke-width="0.0807917"/>
<path id="Vector_92" fill-rule="evenodd" clip-rule="evenodd" d="M31.9072 34.3702V37.5787H32.3719V34.3702H31.9072V34.3702Z" fill="#908F8A" stroke="black" stroke-width="0.0807917"/>
<path id="Vector_93" fill-rule="evenodd" clip-rule="evenodd" d="M30.9697 34.3702V37.5787H31.4344V34.3702H30.9697V34.3702Z" fill="#908F8A" stroke="black" stroke-width="0.0807917"/>
</g>
<g id="Group_9">
<path id="Vector_94" fill-rule="evenodd" clip-rule="evenodd" d="M38.4613 25.1948C38.4613 30.3098 35.4033 34.46 31.6413 34.46C27.8793 34.46 24.8213 30.3098 24.8213 25.1948C24.8213 20.0798 27.8738 15.9239 31.6413 15.9239C35.4088 15.9239 38.4613 20.074 38.4613 25.189V25.1948ZM37.4878 25.1948C37.4878 29.7402 34.8698 33.4311 31.6413 33.4311C28.4128 33.4311 25.7948 29.7402 25.7948 25.1948C25.7948 20.6436 28.4128 16.9527 31.6413 16.9527C34.8698 16.9527 37.4878 20.6436 37.4878 25.1948V25.1948Z" fill="#FFDF00" stroke="black" stroke-width="0.0565409"/>
<path id="Vector_95" fill-rule="evenodd" clip-rule="evenodd" d="M34.2979 16.6563C33.4784 16.1855 32.5819 15.9239 31.6414 15.9239C30.7009 15.9239 29.8044 16.1855 28.9849 16.6505L29.3699 17.6037C30.0615 17.1824 30.8458 16.9606 31.6441 16.9606C32.4424 16.9606 33.2267 17.1824 33.9184 17.6037L34.2979 16.6505V16.6563Z" fill="#FFDF00" stroke="black" stroke-width="0.0565409"/>
<path id="Vector_96" fill-rule="evenodd" clip-rule="evenodd" d="M34.3101 33.7688C33.4906 34.2396 32.5941 34.5011 31.6536 34.5011C30.7131 34.5011 29.8166 34.2396 28.9971 33.7746L29.3821 32.8213C30.0737 33.2426 30.858 33.4644 31.6563 33.4644C32.4546 33.4644 33.2389 33.2426 33.9306 32.8213L34.3101 33.7746V33.7688Z" fill="#FFDF00" stroke="black" stroke-width="0.0565409"/>
</g>
<path id="Vector_97" fill-rule="evenodd" clip-rule="evenodd" d="M37.4959 25.1875C37.4959 29.7375 34.8709 33.425 31.6459 33.425C28.4084 33.425 25.7959 29.7375 25.7959 25.1875C25.7959 20.6375 28.4209 16.95 31.6459 16.95C34.8709 16.95 37.4834 20.6375 37.4834 25.1875H37.4959Z" fill="#A7CFFF"/>
<path id="Vector_98" fill-rule="evenodd" clip-rule="evenodd" d="M37.4878 25.1948C37.5483 26.7409 37.2348 27.4966 36.8333 29.1066C36.7288 29.281 36.2283 28.7288 35.9313 28.4556C35.6343 28.1824 35.5023 28.6998 35.1283 28.2813C34.7598 27.8511 34.5233 28.3975 34.2483 28.0371C33.9733 27.6768 31.4268 27.6303 31.4268 27.5954C31.6798 27.4675 32.9778 27.607 32.7688 26.9502C32.5323 26.2643 31.0638 26.927 30.8658 26.0551C30.7283 25.1832 27.9178 25.1483 27.7143 24.9391C27.7968 25.2646 29.9033 25.4041 29.8538 26.2469C29.8043 26.5956 27.7803 26.6945 27.5823 26.9851C27.4173 27.3513 29.1773 26.8863 29.2378 27.3338C29.2378 27.5198 28.9793 27.3338 28.0663 27.6245C27.6043 27.7698 28.9133 28.2231 28.4183 28.4731C27.9233 28.723 26.8618 28.8334 26.9058 28.9381C27.0708 29.4612 29.3643 30.0773 29.1388 30.1645C28.3248 30.5481 27.8958 30.7981 27.5053 31.0189C26.3611 29.3205 25.7616 27.2795 25.7948 25.1948C27.5383 24.5322 27.1698 24.3927 30.3928 24.3927C33.6158 24.3927 34.6828 24.5264 37.4878 25.1948V25.1948Z" fill="#AFFF7B" stroke="black" stroke-width="0.0565409"/>
<path id="Vector_99" fill-rule="evenodd" clip-rule="evenodd" d="M37.4874 25.1948C37.0474 25.1948 36.5854 25.3924 36.1124 25.3924C35.6339 25.3924 35.1499 25.189 34.6549 25.189C34.1599 25.189 33.5934 25.4564 33.0874 25.4564C32.5759 25.4564 32.1304 25.1948 31.6189 25.1948C31.1074 25.1948 30.5959 25.3924 30.0899 25.3924C29.5839 25.3924 29.0834 25.189 28.5939 25.189C28.1044 25.189 27.6204 25.3924 27.1529 25.3924C26.6854 25.3924 26.2289 25.189 25.7944 25.189C25.7944 24.0555 25.9594 22.9744 26.2564 21.9863C27.7414 22.1025 26.8614 21.0737 27.7414 21.0737C27.9983 21.059 28.2552 21.1022 28.4951 21.2004C28.735 21.2986 28.9524 21.4496 29.1329 21.6434C29.2649 21.6434 29.9249 20.9807 30.6674 21.0737C31.4044 21.1667 31.1349 22.6605 32.1194 22.7361C32.6144 23.1314 32.9059 23.3813 33.5879 23.544C34.5614 23.637 37.3499 23.3987 37.3664 23.5324C37.4467 24.0825 37.4872 24.6382 37.4874 25.1948V25.1948Z" fill="#F5F5F5" stroke="black" stroke-width="0.0565409"/>
<path id="Vector_100" fill-rule="evenodd" clip-rule="evenodd" d="M32.6504 30.2078C32.6504 29.9491 32.9119 29.7767 32.9119 29.3638C32.9119 28.9509 32.6794 28.9418 32.6717 28.5561C32.6678 28.3973 32.8713 28.2385 32.9604 28.2203C33.0495 28.2022 33.1251 28.5561 33.1251 28.6333C33.1251 28.7104 33.034 28.4427 32.9584 28.4381C32.8829 28.4336 32.7201 28.4654 32.7201 28.5425C32.7201 28.6968 33.0069 28.8874 32.9856 29.4046C32.9643 29.9128 32.7395 30.0671 32.7395 30.2214C32.7395 30.3757 32.8364 30.8022 32.8364 30.8022C32.8364 30.8022 32.6484 30.4619 32.6484 30.2032L32.6504 30.2078Z" fill="black" stroke="black" stroke-width="0.0296503"/>
<path id="Vector_101" fill-rule="evenodd" clip-rule="evenodd" d="M32.9043 30.1702C32.9043 29.9116 32.6427 29.7392 32.6427 29.3263C32.6427 28.9133 32.8752 28.9043 32.883 28.5186C32.9024 28.3371 32.6544 28.2191 32.5652 28.2055C32.4761 28.1919 32.3715 28.5685 32.3715 28.6411C32.3715 28.7137 32.4761 28.4051 32.5517 28.4006C32.6273 28.3961 32.8346 28.4278 32.8346 28.505C32.8346 28.6592 32.5478 28.8498 32.5691 29.3671C32.5904 29.8753 32.8152 30.0296 32.8152 30.1838C32.8152 30.3381 32.7183 30.7646 32.7183 30.7646C32.7183 30.7646 32.9062 30.4243 32.9062 30.1657L32.9043 30.1702Z" fill="black" stroke="black" stroke-width="0.0296503"/>
<path id="Vector_102" fill-rule="evenodd" clip-rule="evenodd" d="M32.9088 28.0625C32.9088 28.1875 32.8463 28.3 32.7838 28.3C32.6963 28.3 32.6338 28.2 32.6338 28.0625C32.6338 27.925 32.6963 27.8375 32.7713 27.8375C32.8463 27.8375 32.9088 27.9375 32.9088 28.0625V28.0625ZM34.6713 28.75H34.7213V30.5875H34.6713V28.75ZM35.0713 28.6H35.1213V30.45H35.0713V28.6Z" fill="black"/>
<path id="Vector_103" fill-rule="evenodd" clip-rule="evenodd" d="M34.7588 29.625V29.5625L35.1338 29.6375V29.675L34.7588 29.625Z" fill="black"/>
<path id="Vector_104" fill-rule="evenodd" clip-rule="evenodd" d="M29.5099 29.9712C29.5099 29.9712 30.9399 30.6339 31.2534 31.0291C31.5614 31.4244 31.4404 31.4244 31.4404 31.4244L34.6139 31.5581C34.6139 31.3604 35.1749 31.3604 35.3014 30.8954C35.4279 30.4362 35.4279 30.3026 35.4279 30.3026L34.4324 30.6339L34.4874 30.041H33.6184L33.4919 30.6339L31.6219 30.5699L31.7484 28.9831L31.3744 29.0471L31.3194 30.5583C31.2534 30.5583 29.5704 30.0991 29.5044 29.9712H29.5099Z" fill="#B74D00" stroke="black" stroke-width="0.0565409"/>
<path id="Vector_105" fill-rule="evenodd" clip-rule="evenodd" d="M26.6362 20.5099C26.6362 20.5099 28.7097 19.8589 31.7017 19.9054C34.6937 19.9519 36.7672 20.6494 36.7232 20.6494C36.6792 20.6494 36.1512 19.5799 36.1512 19.5799C36.1512 19.5799 34.0392 18.9696 31.6577 18.9231C29.2817 18.8766 27.2082 19.3881 27.2577 19.4346L26.6362 20.5099V20.5099Z" fill="#FEDE00" stroke="#FEDE00" stroke-width="0.0565409"/>
<path id="Vector_106" fill-rule="evenodd" clip-rule="evenodd" d="M30.3712 19.1L31.6587 19.075V19.825L30.3837 19.85L30.3712 19.1ZM27.4212 19.5125L26.9712 20.25L28.4962 20.0625L28.3712 19.3125L27.4212 19.5125ZM28.7212 19.225L29.9962 19.1125L30.0587 19.8625L28.7837 19.975L28.7212 19.225ZM33.3337 19.15L32.0587 19.0625L32.0087 19.8125L33.2837 19.9L33.3337 19.15ZM36.0837 19.625L36.5462 20.5375L35.1712 20.1875L35.3212 19.4625L36.0837 19.625ZM34.9712 19.35L33.7087 19.1875L33.6212 19.925L34.8837 20.0875L34.9712 19.35Z" fill="#38A9F9"/>
<path id="Vector_107" fill-rule="evenodd" clip-rule="evenodd" d="M31.7015 20.9284L31.564 20.1438L31.146 20.8122L31.3 20.0275L30.6785 20.4751L31.0965 19.8183L30.3595 19.981L30.992 19.5393L30.2495 19.394L30.992 19.2428L30.3595 18.8011L31.0965 18.9638L30.673 18.307L31.3 18.7546L31.146 17.9699L31.564 18.6383L31.7015 17.8536L31.8445 18.6383L32.257 17.9699L32.1085 18.7546L32.73 18.307L32.3065 18.9638L33.049 18.8011L32.4165 19.2428L33.159 19.394L32.4165 19.5393L33.049 19.981L32.3065 19.8183L32.73 20.4751L32.1085 20.0275L32.2625 20.8122L31.8445 20.1438L31.7015 20.9284Z" fill="#FFDF00" stroke="black" stroke-width="0.0565409"/>
<path id="Vector_108" fill-rule="evenodd" clip-rule="evenodd" d="M32.6222 19.3792C32.6222 19.8302 32.2675 20.194 31.8267 20.194C31.386 20.194 31.0312 19.8302 31.0312 19.3792C31.0312 18.9281 31.386 18.5595 31.8267 18.5595C32.2675 18.5595 32.6222 18.9281 32.6222 19.384V19.3792Z" fill="#FFDF00" stroke="black" stroke-width="0.0510576"/>
<path id="Vector_109" fill-rule="evenodd" clip-rule="evenodd" d="M31.7462 19.175C31.7462 19.225 31.6337 19.2625 31.4962 19.2625C31.3587 19.2625 31.2212 19.225 31.2212 19.175C31.2212 19.125 31.3462 19.075 31.4837 19.075C31.6212 19.075 31.7587 19.125 31.7587 19.175H31.7462ZM32.3337 19.175C32.3337 19.225 32.2337 19.2625 32.1337 19.2625C32.0337 19.2625 31.9337 19.225 31.9337 19.175C31.9337 19.125 32.0212 19.075 32.1337 19.075C32.2462 19.075 32.3212 19.125 32.3212 19.175H32.3337Z" fill="black"/>
<path id="Vector_110" d="M31.6303 19.4978L31.6851 19.5292C31.5534 19.4491 31.6135 19.4788 31.8197 19.6812C31.9388 19.6137 31.9617 19.552 32.036 19.4682" stroke="black" stroke-width="0.0566301"/>
<path id="Vector_111" d="M31.35 19.8125L31.394 19.859C31.2895 19.7427 31.339 19.8008 31.57 19.952C31.79 19.981 32.0155 19.8822 32.1475 19.7195" stroke="black" stroke-width="0.0565409"/>
<path id="Vector_112" fill-rule="evenodd" clip-rule="evenodd" d="M28.1836 21.3375C28.1836 21.3375 28.2711 22.0875 27.6836 23.025C27.1211 23.95 27.2086 23.625 27.2086 23.625C27.2086 23.625 27.4711 24.125 27.4336 24.125C27.3961 24.125 26.9836 23.675 26.9836 23.675L26.5086 24.175C26.5086 24.175 26.9461 23.3875 26.8961 23.3875C26.8461 23.3875 26.7711 23.1125 26.7711 23.1125L27.1211 22.975C27.1211 22.975 27.6461 22 27.6461 22.0375C27.6461 22.075 26.0586 23.1125 26.0586 23.1125L28.1836 21.3375V21.3375ZM28.5336 21.625C28.4836 21.625 28.7461 22.375 28.9711 22.75C29.1086 23.004 29.1856 23.2863 29.1961 23.575L29.9461 23.95L28.9711 22.5125L29.5961 22.7375L28.5336 21.6125V21.625ZM28.5336 23.575C28.5336 23.575 29.0586 24.1375 29.1086 24.325C29.1586 24.5125 29.1461 24.925 29.1461 24.925L28.9336 24.4625L28.6211 24.8875C28.6211 24.8875 28.8461 24.225 28.7961 24.1875C28.7461 24.15 28.4461 24.4125 28.4461 24.4125L28.5711 24C28.5711 23.9625 28.5711 23.7125 28.5336 23.575V23.575ZM25.8711 24.8875C26.0461 24.7375 26.4086 24.6375 26.4086 24.6375C26.4086 24.6375 26.1836 25.0125 26.1336 25.0125C26.0836 25.0125 25.9586 25.0125 25.8836 24.8875H25.8711ZM31.9586 22.8375C31.9586 22.8375 33.0961 23.5375 33.0961 23.5875C33.0961 23.6375 32.3461 23.25 32.3461 23.25L31.9586 22.8375V22.8375ZM29.8961 21.375C29.9836 21.425 31.5711 22.725 31.5211 22.725C31.4711 22.725 30.8211 22.35 30.8211 22.4V22.725L30.4711 21.975L30.3836 22.2625L29.8961 21.3875V21.375ZM30.2961 23.475L30.7336 24.35L31.1711 24.2625C31.1711 24.2625 30.3336 23.475 30.2961 23.475ZM31.6711 22.9125L31.7086 23.75C31.7086 23.75 31.9586 23.9875 31.9586 23.9375C31.9586 23.8875 31.7086 22.9625 31.6586 22.9125H31.6711Z" fill="#B7E1FF"/>
<path id="Vector_113" fill-rule="evenodd" clip-rule="evenodd" d="M18.7212 11.525C18.7212 11.525 20.7087 10.4375 22.9712 9.61251C24.626 9.00648 26.3333 8.55456 28.0712 8.26251C28.7462 8.26251 29.8837 9.93751 30.0712 9.93751C30.2712 9.93751 31.0337 9.47501 31.9837 9.47501C32.9337 9.47501 33.5087 10.225 33.7087 10.225H35.4212C35.6087 10.225 34.8462 8.35001 35.4212 8.45001C35.7087 8.50001 38.1462 8.87501 40.4087 9.60001C42.6712 10.35 45.8837 11.6375 45.8837 11.6375C45.8837 11.6375 40.6337 12.3375 39.2337 12.1375C39.0462 12.225 39.2337 13.3625 38.9587 12.8625C38.5212 12.7625 36.9087 12.5125 36.6212 12.5125C36.3337 12.5125 35.8087 12.8375 35.0462 13.0125C34.4682 13.1598 33.8931 13.3182 33.3212 13.4875L34.5712 15.4375L33.0337 16.1875C33.0337 16.1875 32.0837 13.95 31.6962 13.95C31.3087 13.95 31.1337 15.5375 30.6462 15.45C30.1712 15.35 29.9837 13.95 29.6087 13.575C29.2212 13.2 27.2087 13.075 26.4462 12.8875C25.6837 12.7 24.4462 12.55 23.7837 12.3625C23.1212 12.175 22.4462 12.8375 22.1587 12.8375C21.8712 12.8375 22.5337 12.275 22.2587 12.175C21.9837 12.075 21.7837 12.4625 21.5837 12.4625C21.3962 12.4625 19.3962 12.0875 19.2087 11.9875C19.0087 11.9 19.6837 11.525 19.4962 11.525H18.7337H18.7212Z" fill="#984000"/>
<path id="Vector_114" fill-rule="evenodd" clip-rule="evenodd" d="M32.8957 10.5625C32.8957 11.0925 32.4708 11.5225 31.949 11.5225C31.4272 11.5225 31.0044 11.0925 31.0044 10.5625C31.0044 10.0325 31.4272 9.60501 31.949 9.60501C32.4708 9.60501 32.8957 10.035 32.8957 10.5625Z" fill="#808080" stroke="#772600" stroke-width="0.0840173"/>
<path id="Vector_115" fill-rule="evenodd" clip-rule="evenodd" d="M28.2021 10.775C28.3747 10.577 28.5884 10.277 29.1472 10.277C29.2759 10.226 29.2759 9.92599 29.5746 9.92599C29.8759 9.92599 29.7883 10.226 30.0046 10.328C30.2184 10.427 31.9771 10.226 31.9771 10.226C31.9771 10.226 32.147 10.376 32.147 10.577C32.147 10.778 32.0183 10.925 31.9771 10.925C31.9359 10.925 30.2184 10.775 30.0896 10.826C29.9609 10.877 29.8759 10.925 29.5746 10.925C29.2759 10.925 29.1884 10.577 28.9746 10.577C28.7609 10.577 28.5472 10.526 28.2021 10.778V10.775Z" fill="#984000" stroke="#772600" stroke-width="0.147308"/>
<path id="Vector_116" d="M30.4323 15.174C30.4066 15.174 30.3499 15.012 30.2624 14.874C30.2006 14.694 30.1233 14.796 30.0461 14.523C30.0564 14.241 30.0641 14.193 30.0461 13.923C29.871 13.779 29.7963 13.737 29.6598 13.473C29.4435 13.263 29.6933 12.903 29.7345 12.639C29.5439 12.591 29.4512 12.984 29.1603 13.125C28.9491 13.29 29.1345 12.783 29.0315 12.489C28.962 12.072 28.7534 12.699 28.6762 12.876C28.5345 12.987 28.4908 13.131 28.2899 12.924C28.2899 12.771 28.4161 12.339 28.362 12.255C28.1612 12.372 27.8985 12.72 27.6899 12.774C27.4788 12.723 27.7337 12.33 27.7337 12.039C27.6565 12.009 27.3552 12.813 27.2316 12.819C27.108 12.825 27.1621 12.039 27.1028 12.057C27.0127 12.207 26.8299 12.519 26.7037 12.627C26.4591 12.588 26.7398 12.102 26.7758 11.922C26.817 11.706 26.5466 12.336 26.4024 12.375C26.2969 12.483 26.0883 12.555 26.0162 12.576C26.0986 12.39 26.5054 12.015 26.4797 11.907C26.2402 11.916 25.8771 12.282 25.6737 12.327C25.5398 12.327 25.3544 12.378 25.3312 12.375C25.3415 12.135 25.8308 11.937 25.908 11.79C25.6686 11.835 25.2076 12.081 25.0737 12.276C24.9141 12.315 24.7132 12.366 24.5587 12.276C24.5819 12.051 24.9424 11.616 25.0222 11.472C24.8034 11.583 24.6952 11.67 24.4635 11.721C24.4197 11.772 24.2961 11.88 24.3347 11.772C24.4042 11.562 24.5072 11.472 24.5922 11.322C24.3991 11.364 24.327 11.493 24.121 11.622C23.9897 11.628 23.6137 12.069 23.4875 12.075C23.274 12.2711 23.0247 12.4076 22.7588 12.474C22.5631 12.516 22.4678 12.564 22.3726 12.675C22.4704 12.474 22.6198 12.285 22.7588 12.177C22.8437 11.9949 22.9802 11.8528 23.1451 11.775C23.194 11.706 23.3279 11.688 23.1863 11.676C23.0652 11.802 22.8592 11.946 22.7588 12.027C22.6275 12.123 22.4756 12.219 22.4138 12.177C22.4833 11.961 22.6069 11.907 22.715 11.727C22.9416 11.559 22.715 11.667 22.5425 11.727C22.4318 11.841 22.2335 11.928 22.0713 12.027C21.891 12.081 21.77 12.207 21.5563 12.276C21.5563 12.348 21.6181 12.147 21.6438 12.075C21.8189 11.853 21.8653 11.79 22.0713 11.727C22.1228 11.64 22.1846 11.676 22.0301 11.676C21.9116 11.796 21.752 11.862 21.6001 11.976C21.4481 12.015 21.2499 12.027 21.0439 12.027C20.7761 12.063 20.7992 12.087 21.0439 11.925C21.1803 11.775 21.2936 11.814 21.3014 11.625C21.1391 11.763 20.9409 11.865 20.7426 11.976C20.5778 11.982 20.534 12.027 20.3563 12.027C20.4413 11.925 20.4928 11.796 20.6138 11.727C20.7941 11.496 20.5005 11.682 20.4413 11.727H19.7976C19.6843 11.895 19.7924 11.727 19.8851 11.625C19.9958 11.559 20.1117 11.472 20.0988 11.427C19.9701 11.556 19.8233 11.616 19.7126 11.727C19.5941 11.769 19.4551 11.787 19.4551 11.826C19.5504 11.667 19.7023 11.568 19.8001 11.427C19.9443 11.391 20.0679 11.337 20.0988 11.277H19.4989H19.9263C20.1452 11.277 20.3306 11.253 20.5289 11.226C20.8688 11.16 20.498 11.127 20.3126 11.127C20.2791 11.049 20.4207 11.007 20.5701 10.977C20.6988 10.905 20.861 10.842 21.0001 10.776C21.1228 10.7325 21.2385 10.6656 21.3426 10.578C21.2138 10.584 21.2138 10.62 21.0851 10.626C21.2782 10.611 21.4147 10.578 21.6438 10.578C21.8326 10.5055 22.0182 10.4224 22.2 10.329C22.2773 10.221 22.3082 10.227 22.1151 10.227C22.2876 10.164 22.5322 10.131 22.6713 10.077C22.8487 10.0337 23.0215 9.96728 23.1863 9.87902C23.3124 9.78002 23.3845 9.66302 23.5287 9.57902C23.6961 9.71102 23.6987 9.72902 24 9.72902C24.242 9.72602 24.3914 9.65702 24.515 9.52802C24.7004 9.46802 24.7338 9.36602 24.945 9.33002C25.1434 9.36633 25.3441 9.38239 25.545 9.37802C25.751 9.31502 25.9492 9.19802 26.1012 9.07802C26.2325 9.00302 26.3896 8.89502 26.5312 8.82902C26.6857 8.92202 26.8093 8.99702 27.0024 9.03002C27.2007 8.99402 27.3063 8.88002 27.4736 8.82902C27.5769 8.70101 27.7119 8.61393 27.8599 8.58002C28.1097 8.43602 28.0916 8.62502 28.2024 8.77802C28.3311 8.93402 28.4959 8.85902 28.6736 8.92802C28.774 9.10802 28.8461 9.22802 28.9749 9.32702C29.0753 9.47102 29.1937 9.50702 29.4049 9.52802C29.4821 9.64802 29.4203 9.73202 29.5748 9.77702C29.6366 9.85502 29.7422 9.88502 29.8323 9.92702M33.4348 10.677H34.1197C34.3669 10.68 34.4519 10.767 34.6785 10.776H35.2785C35.4973 10.767 35.6132 10.707 35.8347 10.677C36.208 10.671 36.0819 10.638 36.0072 10.377C35.9402 10.182 35.9299 10.089 35.8347 9.97802C35.7986 9.73802 35.7162 9.65402 35.7059 9.37802C35.6673 9.16802 35.5952 9.02702 35.6647 8.77802C35.7626 8.94902 35.8012 9.01802 36.051 9.03002C36.3085 9.03002 36.4089 9.02102 36.566 9.12902C36.6844 9.27602 36.8441 9.22802 37.081 9.22802C37.2767 9.27002 37.3101 9.38702 37.4646 9.47702C37.6475 9.59702 37.7659 9.62702 38.0208 9.62702C38.2268 9.67202 38.4071 9.70502 38.5358 9.77702C38.6466 9.93002 38.8191 9.96902 39.0508 9.97802C39.1796 9.97802 39.2826 9.96302 39.3933 9.92702C39.5916 9.93902 39.7924 9.92702 40.0371 9.92702C40.1967 10.143 40.2328 10.224 40.5083 10.227C40.6988 10.383 40.8585 10.407 41.0233 10.476H41.667C41.8988 10.497 41.9709 10.608 42.182 10.677C42.3632 10.7724 42.5489 10.8555 42.7382 10.926C42.9225 10.9649 43.1097 10.982 43.297 10.977C43.4541 11.073 43.6472 11.079 43.7682 11.175C43.9459 11.22 44.188 11.274 44.3244 11.325C44.551 11.361 44.6386 11.445 44.8394 11.475C45.012 11.535 44.7828 11.583 44.6669 11.625C44.4146 11.616 44.3965 11.505 44.1519 11.475C44.0232 11.388 43.8275 11.4 43.6369 11.325H43.5957C43.7657 11.445 43.9305 11.52 43.8532 11.727C43.6343 11.727 43.4567 11.694 43.2532 11.676C43.0369 11.628 42.9391 11.577 42.697 11.577C42.9391 11.508 43.0009 11.583 43.1683 11.676C43.2301 11.916 43.0962 11.826 42.867 11.826C42.6713 11.745 42.5528 11.646 42.3108 11.625H41.7958C42.0507 11.637 42.1048 11.748 42.267 11.877C42.2799 11.955 42.2644 11.949 42.1383 11.976C42.0044 11.841 41.8318 11.796 41.6233 11.727C41.4198 11.718 41.2061 11.697 41.0233 11.625C40.8971 11.616 40.9177 11.442 41.1958 11.727C41.3632 11.841 41.4224 11.937 41.4095 12.027C41.1881 11.961 41.0799 11.859 40.9383 11.775C40.7457 11.6972 40.5419 11.6636 40.3383 11.676C40.1169 11.607 40.3615 11.568 40.5083 11.826C40.8276 12.09 40.4671 11.976 40.3383 11.925C40.1452 11.862 39.9444 11.769 39.7796 11.727C39.6508 11.682 39.5375 11.64 39.3933 11.625C39.6173 11.649 39.692 11.742 39.7796 11.925C40.0062 12.105 39.7693 12.018 39.5658 11.976C39.4371 11.844 39.2697 11.775 39.1796 11.625C38.9659 11.502 38.9581 11.355 39.0946 11.676C39.1281 11.778 39.1204 12 39.1358 12.027C38.9787 11.826 39.0122 11.775 38.8371 11.775C38.7161 11.679 38.541 11.604 38.4509 11.475C38.2861 11.457 38.2758 11.388 38.1084 11.325C38.2449 11.514 38.4277 11.7 38.5358 11.877C38.7315 12.003 38.7856 12.117 38.9221 12.225C38.9762 12.336 39.1281 12.426 38.9659 12.276C38.7805 12.066 38.644 12.015 38.3659 11.877C38.2062 11.727 38.1496 11.667 37.9796 11.526C37.7479 11.439 37.838 11.391 37.9796 11.676C38.1419 11.85 38.2655 12.042 38.4071 12.177C38.5181 12.3316 38.6483 12.466 38.7933 12.576C38.832 12.642 38.9478 12.654 38.7933 12.675C38.6646 12.537 38.474 12.45 38.3221 12.324C38.1084 12.255 38.008 12.126 37.8509 11.976C37.7479 11.799 37.5831 11.664 37.4646 11.526C37.2174 11.412 37.5136 11.634 37.5934 11.775C37.6475 11.958 37.717 12.105 37.7633 12.276C37.8354 12.441 37.547 12.237 37.4646 12.177C37.2952 12.0491 37.105 11.9634 36.9059 11.925C36.7352 11.8852 36.5634 11.8522 36.3909 11.826C36.1977 11.766 36.4964 11.97 36.6072 12.177C36.8235 12.414 36.3934 12.219 36.2647 12.177C36.0521 12.1349 35.8364 12.1179 35.6209 12.126C35.3454 12.144 35.5437 12.186 35.6209 12.324C35.7059 12.402 35.7651 12.564 35.7497 12.624C35.5694 12.594 35.4149 12.534 35.1909 12.525C35.0107 12.594 34.7969 12.576 34.5909 12.576C34.5832 12.702 34.6296 12.594 34.7197 12.726C34.869 12.795 34.9669 12.879 34.936 12.975H33.6923C33.5558 13.017 33.7206 12.996 33.821 13.176C33.7644 13.338 33.6923 13.275 33.5197 13.275C33.4039 13.221 33.1695 13.197 33.0485 13.125C32.9275 13.125 32.9378 13.089 32.8348 13.074C33.1953 13.374 33.015 13.299 33.221 13.524C33.2545 13.539 33.3369 13.575 33.2622 13.575L33.4348 10.677Z" stroke="#772600" stroke-width="0.0972786"/>
<path id="Vector_117" d="M32.9401 13.899V13.923C32.9401 13.854 32.9401 13.893 32.9839 14.025C32.9993 14.133 32.9633 14.121 32.9195 14.199C32.9118 14.31 32.8989 14.391 32.8989 14.523C32.8835 14.631 32.832 14.733 32.7908 14.823C32.7496 14.916 32.5719 14.97 32.577 15.099C32.474 15.132 32.4715 15.054 32.4689 14.922C32.4071 14.841 32.3865 14.73 32.3401 14.622C32.3144 14.52 32.2526 14.442 32.2114 14.322C32.1496 14.211 32.0955 14.178 32.0414 14.049C32.0183 13.989 32.0234 13.911 31.9771 13.875C31.9075 13.77 31.8612 13.755 31.7402 13.749C31.6475 13.773 31.6114 13.821 31.5264 13.848C31.4595 13.875 31.3307 13.866 31.2483 13.899C31.2277 13.938 31.2895 13.959 31.3127 14.049C31.2561 14.103 31.2355 14.196 31.2046 14.274C31.1531 14.349 31.1196 14.385 31.0964 14.499C31.1325 14.568 31.1016 14.661 31.0552 14.724C31.0398 14.838 30.9908 14.901 30.9677 14.997C30.9007 15.054 30.875 15.105 30.8183 15.198C30.7694 15.279 30.7256 15.273 30.6046 15.273C30.5093 15.243 30.4964 15.183 30.4115 15.147C30.4037 15.117 30.396 15.108 30.3677 15.099" stroke="#782600" stroke-width="0.086161"/>
<path id="Vector_118" fill-rule="evenodd" clip-rule="evenodd" d="M30.5213 14.925C30.5213 14.925 30.4838 15.3875 30.1838 15.7C29.8838 16.0125 29.2588 16.375 29.2588 16.375C29.2588 16.375 30.0963 15.9875 30.1838 16.0625C30.2713 16.15 29.6463 16.85 29.6463 16.85C29.6463 16.85 30.4588 16.1125 30.5713 16.1125C30.6838 16.1125 30.9088 16.825 30.9963 16.8125C31.0838 16.8 30.8088 15.9125 30.8463 15.775C30.8838 15.6375 30.8463 14.9 30.8463 14.9L30.5213 14.925V14.925ZM32.4588 14.8625C32.4588 14.8625 32.4213 15.3625 32.1088 15.6875C31.7963 16.0125 31.1838 16.4125 31.1838 16.4125C31.1838 16.4125 32.0338 15.9875 32.1088 16.0875C32.1963 16.175 31.5713 16.9125 31.5713 16.9125C31.5713 16.9125 32.3963 16.1375 32.4963 16.1375C32.5963 16.1375 32.8463 16.8875 32.9338 16.8875C33.0213 16.8625 32.7338 15.9125 32.7838 15.7625C32.8213 15.625 32.7838 14.825 32.7838 14.825L32.4588 14.8625V14.8625ZM29.7463 10.325C29.7463 10.425 29.6588 10.5 29.5463 10.5C29.4338 10.5 29.3463 10.425 29.3463 10.325C29.3463 10.225 29.4338 10.1625 29.5463 10.1625C29.6588 10.1625 29.7463 10.2375 29.7463 10.325Z" fill="#812E00"/>
</g>
</g>
<defs>
<clipPath id="clip0_2909_185432">
<path d="M0.246094 32C0.246094 14.3269 14.573 0 32.2461 0V0C49.9192 0 64.2461 14.3269 64.2461 32V32C64.2461 49.6731 49.9192 64 32.2461 64V64C14.573 64 0.246094 49.6731 0.246094 32V32Z" fill="white"/>
</clipPath>
</defs>
</svg>
