<svg width="65" height="64" viewBox="0 0 65 64" fill="none" xmlns="http://www.w3.org/2000/svg">
<g id="Rounded=Egypt (EG)">
<g clip-path="url(#clip0_2909_185450)">
<path id="Vector" d="M0.246094 42.6625H64.2461V64H0.246094V42.6625Z" fill="black"/>
<path id="Vector_2" d="M0.246094 21.3375H64.2461V42.6625H0.246094V21.3375Z" fill="#F5F5F5"/>
<path id="Vector_3" d="M0.246094 0H64.2461V21.3375H0.246094V0Z" fill="#CE1126"/>
<g id="Group">
<path id="Vector_4" d="M32.3313 32.2559L39.6379 39.0398L39.1153 26.7199C39.0406 24.8532 37.4193 25.2799 36.2353 25.9519C35.0513 26.7199 33.6753 26.7199 32.246 26.2186C30.806 26.7199 29.4407 26.7199 28.2567 25.9519C27.0833 25.2799 25.4513 24.8532 25.3767 26.7199L24.854 39.0398L32.3313 32.2559V32.2559Z" fill="#F5F5F5" stroke="#C09300" stroke-width="0.138666" stroke-linejoin="round"/>
<path id="a" d="M26.2193 26.2932L25.7073 38.2719L24.854 39.0399L25.3767 26.7199C25.6287 26.5267 25.9144 26.382 26.2193 26.2932V26.2932ZM27.2433 27.1466L26.8167 37.1732L25.9633 38.0479L26.4753 26.4746C26.646 26.6452 27.1473 27.0612 27.2433 27.1466ZM28.1713 27.9146L27.8407 36.2772L27.1473 36.9492L27.574 27.4132C27.7447 27.5732 28.086 27.8186 28.1713 27.9146ZM29.1847 28.3412L28.854 35.4665L28.182 36.0105L28.5127 28.0852C28.6833 28.1599 29.014 28.3412 29.1847 28.3412ZM30.1233 28.3412L29.878 34.2825L29.1847 34.9545L29.4513 28.4159C29.6113 28.4159 30.0486 28.4159 30.1233 28.3412Z" fill="#C09300"/>
<path id="Vector_5" d="M38.2729 26.2932L38.7849 38.2719L39.6382 39.0399L39.1155 26.7199C38.8635 26.5267 38.5778 26.382 38.2729 26.2932V26.2932ZM37.2489 27.1466L37.6755 37.1732L38.5289 38.0479L38.0169 26.4746C37.8462 26.6452 37.3449 27.0612 37.2489 27.1466ZM36.3209 27.9146L36.6515 36.2772L37.3449 36.9492L36.9182 27.4132C36.7475 27.5732 36.4062 27.8186 36.3209 27.9146ZM35.3075 28.3412L35.6382 35.4665L36.3102 36.0105L35.9795 28.0852C35.8089 28.1599 35.4782 28.3412 35.3075 28.3412ZM34.3689 28.3412L34.6142 34.2825L35.3075 34.9545L35.0409 28.4159C34.8809 28.4159 34.4435 28.4159 34.3689 28.3412Z" fill="#C09300"/>
<path id="Vector_6" d="M32.5875 33.5999L33.6115 38.2719L33.2702 38.6132L32.9182 38.3465L32.3422 34.1865L32.5875 38.3465L32.2462 38.7732L31.9155 38.3465L32.1609 34.1865L31.5742 38.3465L31.2222 38.6132L30.8809 38.2719L31.9049 33.6106H32.5875V33.5999Z" fill="#C09300" stroke="#C09300" stroke-width="0.117333"/>
<g id="b">
<path id="Vector_7" d="M29.9529 31.5519L27.9155 38.7732L30.7209 39.1999L31.9048 33.7705L29.9529 31.5519Z" fill="#F5F5F5" stroke="#C09300" stroke-width="0.127999" stroke-linejoin="round"/>
<path id="Vector_8" d="M29.2808 34.0265L29.5261 34.6132L30.8488 33.3546" stroke="#C09300" stroke-width="0.138666" stroke-linejoin="round"/>
<path id="Vector_9" d="M30.9767 38.2718L30.678 36.8639L30.422 35.4345L29.7927 36.2772L29.526 35.3065L28.6514 36.2025L29.0887 37.8238L29.7074 36.8212L30.038 37.8452L30.678 36.8639M30.198 32.5332L30.4754 35.1252L31.318 34.0159L30.198 32.5332ZM30.9767 34.4425L31.4354 36.0425L30.9767 34.4425ZM31.6167 35.4559L30.6887 36.8639L31.6167 35.4559Z" stroke="#C09300" stroke-width="0.138666" stroke-linejoin="round"/>
<path id="Vector_10" d="M28.5127 38.6132L29.078 37.8132L29.4407 39.0399L29.9527 38.1865L30.2834 39.2105" stroke="#C09300" stroke-width="0.138666" stroke-linejoin="round"/>
</g>
<g id="Group_2">
<path id="Vector_11" d="M34.5393 31.5519L36.5767 38.7732L33.7713 39.1999L32.5873 33.7705L34.5393 31.5519Z" fill="#F5F5F5" stroke="#C09300" stroke-width="0.127999" stroke-linejoin="round"/>
<path id="Vector_12" d="M35.2114 34.0265L34.9661 34.6132L33.6434 33.3546" stroke="#C09300" stroke-width="0.138666" stroke-linejoin="round"/>
<path id="Vector_13" d="M33.5155 38.2718L33.8142 36.8639L34.0702 35.4345L34.6995 36.2772L34.9662 35.3065L35.8408 36.2025L35.4035 37.8238L34.7848 36.8212L34.4542 37.8452L33.8142 36.8639M34.2942 32.5332L34.0168 35.1252L33.1742 34.0159L34.2942 32.5332ZM33.5155 34.4425L33.0568 36.0425L33.5155 34.4425ZM32.8755 35.4559L33.8035 36.8639L32.8755 35.4559Z" stroke="#C09300" stroke-width="0.138666" stroke-linejoin="round"/>
<path id="Vector_14" d="M35.9795 38.6132L35.4142 37.8132L35.0515 39.0399L34.5395 38.1865L34.2088 39.2105" stroke="#C09300" stroke-width="0.138666" stroke-linejoin="round"/>
</g>
<g id="Group_3">
<path id="Vector_15" d="M32.2458 42.0052C34.3791 42.0052 36.4058 41.8345 37.6004 41.5038C38.1018 41.4078 38.1018 41.1518 38.1018 40.8105C38.6138 40.6398 38.3578 40.0425 38.7098 40.0425C38.3471 40.1492 38.2831 39.4558 37.8564 39.5412C37.8564 38.9438 37.2484 38.8692 36.7471 39.0398C35.7338 39.3705 33.9418 39.4558 32.2458 39.4558C30.5391 39.3705 28.7685 39.3705 27.7445 39.0292C27.2431 38.8692 26.6458 38.9438 26.6458 39.5412C26.2191 39.4558 26.1445 40.1385 25.7925 40.0425C26.1445 40.0425 25.8778 40.6505 26.3898 40.8105C26.3898 41.1518 26.3898 41.4078 26.9018 41.5038C28.0751 41.8345 30.1231 42.0052 32.2458 42.0052V42.0052Z" fill="#F5F5F5" stroke="#C09300" stroke-width="0.255999" stroke-linecap="round" stroke-linejoin="round"/>
<path id="Vector_16" d="M29.3551 38.7732C30.0378 38.8692 30.8058 38.9439 31.4031 38.8692C31.7445 38.8692 31.9898 39.4559 31.3071 39.5412C30.7205 39.6159 29.7818 39.5412 29.2805 39.4558C28.6207 39.3404 27.966 39.198 27.3178 39.0292C26.7205 38.7732 27.1471 38.2825 27.4885 38.3465C28.0974 38.5416 28.7219 38.6844 29.3551 38.7732V38.7732ZM35.1364 38.7732C34.4538 38.8692 33.6858 38.9439 33.1098 38.8692C32.7471 38.8692 32.5018 39.4559 33.1844 39.5412C33.7818 39.6159 34.7098 39.5412 35.2111 39.4558C35.6378 39.3705 36.5764 39.2105 37.1738 39.0292C37.7711 38.7732 37.3444 38.2825 37.0031 38.3465C36.3942 38.5417 35.7697 38.6844 35.1364 38.7732V38.7732Z" fill="#F5F5F5" stroke="#C09300" stroke-width="0.138666" stroke-linecap="round" stroke-linejoin="round"/>
<path id="Vector_17" d="M27.2325 38.4425C26.7205 38.3465 26.4859 38.9439 26.6459 39.2852C26.7205 39.1145 27.0725 39.1145 27.1472 38.9439C27.2432 38.6879 27.0725 38.6879 27.2432 38.4425H27.2325ZM29.2805 40.0105C29.2805 39.6692 29.6112 39.7119 29.6112 39.3705C29.6112 39.2105 29.5259 38.9439 29.3552 38.9439C29.2663 38.949 29.1824 38.9865 29.1195 39.0495C29.0565 39.1124 29.0189 39.1963 29.0139 39.2852C28.9392 39.6159 29.2805 39.6692 29.2805 40.0105V40.0105ZM31.7018 39.0399C32.2032 39.0399 32.1498 39.7119 31.9152 40.0532C31.9152 39.8079 31.4885 39.7119 31.4885 39.5412C31.4885 39.2852 31.8725 39.2852 31.7018 39.0399ZM37.2485 38.4425C37.7712 38.3465 38.0165 38.9439 37.8458 39.2852C37.7712 39.1145 37.4192 39.1145 37.3445 38.9439C37.2485 38.6879 37.4192 38.6879 37.2485 38.4425V38.4425ZM35.2325 39.9999C35.2325 39.6585 34.8912 39.7012 34.8912 39.3599C34.8912 39.1999 34.9765 38.9332 35.1472 38.9332C35.236 38.9383 35.3199 38.9759 35.3829 39.0388C35.4458 39.1018 35.4834 39.1857 35.4885 39.2745C35.5632 39.6052 35.2218 39.6585 35.2218 39.9999H35.2325ZM32.7792 39.0399C32.2778 39.0399 32.3312 39.7119 32.5658 40.0532C32.5658 39.8079 32.9925 39.7119 32.9925 39.5412C32.9925 39.2852 32.6085 39.2852 32.7792 39.0399Z" fill="#F5F5F5" stroke="#C09300" stroke-width="0.138666" stroke-linecap="round" stroke-linejoin="round"/>
<path id="Vector_18" d="M27.4136 38.6132C27.5842 38.6132 27.8402 38.6879 27.9149 38.7839L27.4136 38.6132ZM28.2562 38.8692C28.3416 38.8692 28.6829 38.9439 28.8429 39.0399L28.2562 38.8692ZM31.3069 39.2105C31.1469 39.2105 30.8056 39.2105 30.7202 39.2852L31.3069 39.1999V39.2105ZM30.3789 39.2105C30.2829 39.1145 29.9522 39.1145 29.7816 39.2105H30.3789ZM37.0775 38.6132C36.8966 38.6155 36.721 38.6752 36.5762 38.7839L37.0775 38.6132ZM36.2455 38.8692C36.1389 38.8692 35.8189 38.9439 35.6482 39.0399L36.2455 38.8692ZM33.1842 39.2105C33.3442 39.2105 33.6855 39.2105 33.7815 39.2852L33.1842 39.1999V39.2105ZM34.1122 39.2105C34.2082 39.1145 34.5389 39.1145 34.7095 39.2105H34.1122Z" fill="#F5F5F5" stroke="#C09300" stroke-width="0.0959996" stroke-linecap="round" stroke-linejoin="round"/>
<g id="Group_4">
<path id="Vector_19" d="M27.2645 39.9572C27.2112 39.9465 27.1792 39.8932 27.2005 39.8505C27.2112 39.7759 27.2645 39.7439 27.3072 39.7652C27.3499 39.7652 27.4032 39.8292 27.4032 39.8505L27.3605 39.9252L27.3392 39.9359C27.3392 39.9572 27.2965 39.9572 27.2645 39.9572ZM33.1312 40.3732C33.1098 40.3732 33.0672 40.3198 33.0672 40.2985C33.0672 40.2559 33.1312 40.1919 33.1738 40.1919L33.2592 40.2345C33.2912 40.2665 33.2912 40.3305 33.2485 40.3625C33.2272 40.3839 33.1632 40.3839 33.1312 40.3625V40.3732ZM33.1632 40.6398C33.1205 40.6185 33.1098 40.5972 33.0992 40.5545C33.0992 40.5012 33.0992 40.4905 33.1525 40.4585L33.1952 40.4372L33.2378 40.4585C33.2805 40.4798 33.3125 40.5012 33.3125 40.5439C33.3125 40.5759 33.2805 40.6078 33.2378 40.6292C33.2058 40.6505 33.1952 40.6505 33.1632 40.6292V40.6398Z" fill="#C09300"/>
<path id="Vector_20" d="M27.7445 39.4665C27.7019 39.4665 27.6485 39.5092 27.6165 39.5305C27.5525 39.5412 27.4672 39.5839 27.4032 39.5305C27.3392 39.5199 27.2539 39.5305 27.2432 39.6159C27.2539 39.6905 27.3499 39.7225 27.4139 39.6799C27.4565 39.6265 27.5739 39.5839 27.5952 39.6799C27.5419 39.7652 27.5525 39.8612 27.5099 39.9359C27.5099 39.9892 27.4779 40.0319 27.4565 40.0745C27.4032 40.0745 27.3499 40.0745 27.3072 40.1065C27.2741 40.1065 27.2414 40.1142 27.2118 40.129C27.1822 40.1439 27.1564 40.1654 27.1365 40.1919C27.0939 40.2559 27.0512 40.3199 27.0405 40.4052C27.0512 40.4692 27.1472 40.4905 27.2112 40.5012L27.4245 40.5652L27.7659 40.6612C27.9365 40.7145 28.1072 40.7358 28.2779 40.7785L28.3312 40.7892C28.4059 40.8105 28.4379 40.7358 28.4379 40.6825L28.5445 40.2985C28.5659 40.2452 28.5979 40.1385 28.5019 40.1599C28.4485 40.1919 28.3952 40.2452 28.3312 40.2452C28.2352 40.2452 28.2885 40.3519 28.3312 40.3839C28.3312 40.4479 28.3099 40.5225 28.2779 40.5759C28.2139 40.6079 28.1499 40.5759 28.0859 40.5545C28.0325 40.5545 27.9045 40.5225 27.9579 40.4479L28.0112 40.2559C28.0432 40.1919 28.0432 40.1172 28.0645 40.0425C28.0219 39.9679 27.9579 40.0745 27.9045 40.0852C27.8619 40.1065 27.7339 40.1172 27.7979 40.1919C27.8619 40.2345 27.8192 40.3092 27.7979 40.3732C27.7979 40.4479 27.7125 40.4799 27.6485 40.4479C27.5845 40.4479 27.4885 40.3945 27.5419 40.3305L27.5952 40.1385L27.6699 39.9252C27.6699 39.8505 27.7019 39.7972 27.7339 39.7332C27.7339 39.6585 27.7872 39.5945 27.7872 39.5199C27.7872 39.4879 27.7659 39.4772 27.7445 39.4772V39.4665ZM27.3499 40.2452C27.3547 40.2424 27.3602 40.2409 27.3659 40.2409C27.3715 40.2409 27.377 40.2424 27.3819 40.2452C27.4032 40.2665 27.4032 40.2879 27.3819 40.3092L27.3499 40.3305C27.2965 40.3305 27.2859 40.3199 27.2859 40.2985C27.2859 40.2879 27.2859 40.2772 27.3179 40.2665C27.3308 40.2572 27.3453 40.25 27.3605 40.2452H27.3499ZM27.2432 40.7785C27.1899 40.7358 27.2005 40.7039 27.2752 40.6399C27.3179 40.6185 27.3285 40.6185 27.3712 40.6505C27.4352 40.7039 27.4352 40.7358 27.3712 40.7892C27.3499 40.8105 27.3392 40.8105 27.3179 40.8105C27.2859 40.8105 27.2752 40.8105 27.2432 40.7892V40.7785ZM27.5632 40.8852C27.5394 40.8778 27.5194 40.8614 27.5074 40.8395C27.4955 40.8176 27.4925 40.7919 27.4992 40.7679C27.5205 40.7252 27.5312 40.7145 27.5952 40.7145C27.6699 40.7145 27.6805 40.7252 27.6912 40.7892C27.6912 40.8318 27.6912 40.8425 27.6592 40.8639C27.6473 40.8733 27.6335 40.88 27.6188 40.8837C27.6041 40.8874 27.5888 40.8879 27.5739 40.8852H27.5632ZM37.0778 40.8852C37.0565 40.8745 37.0458 40.8638 37.0458 40.8318C37.0458 40.7892 37.0672 40.7572 37.1312 40.7358C37.1952 40.7039 37.2378 40.7039 37.2592 40.7572C37.2912 40.8212 37.2912 40.8425 37.2485 40.8852C37.2272 40.9172 37.2165 40.9172 37.1632 40.9172C37.1098 40.9172 37.0992 40.9172 37.0778 40.8958V40.8852ZM28.0112 41.0132C27.9685 41.0132 27.9472 40.9705 27.9472 40.9279C27.9472 40.8959 27.9472 40.8852 27.9685 40.8639L28.0325 40.8425L28.0965 40.8532C28.1499 40.8958 28.1605 40.9385 28.1285 40.9812C28.0965 41.0239 28.0645 41.0238 28.0005 41.0132H28.0112ZM30.3365 41.1198L30.3152 41.0879C30.3152 41.0239 30.3152 40.9705 30.3365 40.9065C30.3472 40.8532 30.3365 40.7999 30.3578 40.7465L30.4005 40.4479C30.4005 40.3945 30.4005 40.3412 30.4218 40.2985C30.4325 40.2132 30.4218 40.1385 30.4432 40.0639C30.4432 40.0319 30.4752 39.9572 30.5072 39.9999C30.5498 40.0639 30.6032 40.1065 30.6565 40.1599C30.6992 40.1919 30.6565 40.2345 30.6245 40.2452C30.5818 40.2559 30.5712 40.3092 30.5712 40.3519L30.5498 40.4799C30.5498 40.5545 30.5498 40.6185 30.5285 40.6932L30.5178 40.8852L30.4965 41.0132C30.4965 41.0558 30.4965 41.1092 30.4538 41.1305C30.4218 41.1518 30.3685 41.1518 30.3472 41.1198H30.3365ZM33.5045 40.0745L33.3658 40.2025C33.3018 40.2559 33.4192 40.2772 33.4298 40.3199C33.4512 40.3839 33.4512 40.4479 33.4512 40.5119C33.4725 40.5758 33.4832 40.6292 33.4725 40.6932C33.4725 40.7679 33.3872 40.7465 33.3445 40.7892C33.2912 40.8105 33.2698 40.8638 33.2378 40.8958C33.2125 40.9494 33.198 41.0074 33.1952 41.0665C33.1952 41.1198 33.1632 41.1732 33.1952 41.2158L33.2058 41.2372H33.2592L33.4192 41.2265C33.5472 41.2052 33.6858 41.2052 33.8138 41.1945L34.0485 41.1732C34.1125 41.1838 34.1445 41.1198 34.1445 41.0665C34.1018 40.9918 34.1338 40.9172 34.1018 40.8532C34.0805 40.7679 34.0912 40.6932 34.0805 40.6185C34.0805 40.5545 34.0058 40.5332 33.9738 40.5759C33.9312 40.6185 33.8672 40.6292 33.8458 40.6718C33.8138 40.7358 33.9098 40.7358 33.9312 40.7785L33.9418 40.9385C33.9525 41.0025 33.8885 41.0025 33.8352 41.0132C33.7818 41.0345 33.7072 41.0452 33.6752 40.9812C33.6538 40.9279 33.6538 40.8745 33.6538 40.8212C33.6538 40.7145 33.6218 40.6292 33.6218 40.5332C33.6218 40.4265 33.5898 40.3092 33.5898 40.1919C33.5898 40.1385 33.5792 40.0639 33.5045 40.0745V40.0745ZM33.4405 40.9492H33.4725V41.0345L33.4405 41.0452C33.4265 41.0496 33.4123 41.0532 33.3978 41.0558C33.3907 41.0561 33.3836 41.0561 33.3765 41.0558C33.3552 41.0345 33.3552 41.0025 33.3872 40.9705L33.4405 40.9492V40.9492ZM30.2405 39.9679C30.2085 39.9679 30.1552 40.0425 30.1125 40.0319C30.0165 40.0425 30.0272 40.1385 30.1018 40.1705V40.2559C30.1125 40.3412 30.0592 40.4159 30.0698 40.5012C30.0698 40.5865 30.0378 40.6825 30.0378 40.7785C30.0058 40.8745 30.0058 40.9705 29.9952 41.0665C29.9845 41.1518 29.9205 41.1198 29.8672 41.0985V40.9918C29.8778 40.8958 29.8138 40.8745 29.7392 40.8639C29.6645 40.8639 29.6325 40.8105 29.6539 40.7465C29.6859 40.7039 29.7605 40.7145 29.8138 40.7145C29.9205 40.7359 29.9098 40.5972 29.8565 40.5439C29.8138 40.4799 29.7285 40.4372 29.7072 40.3732C29.7072 40.2879 29.6538 40.1919 29.5792 40.1492C29.4618 40.1385 29.3659 40.2345 29.3339 40.3412C29.2805 40.3412 29.2272 40.3625 29.1845 40.3839C29.1099 40.4052 29.0032 40.5332 29.1099 40.5865C29.1632 40.5972 29.3445 40.6399 29.2592 40.7145C29.2165 40.7999 29.1312 40.7998 29.0565 40.7785C28.9819 40.7785 28.8965 40.7359 28.8965 40.6505C28.8859 40.5652 28.8859 40.4799 28.8539 40.4052C28.8325 40.3199 28.7365 40.3412 28.7259 40.4265C28.6512 40.4799 28.6619 40.5759 28.7152 40.6399C28.7472 40.7145 28.7152 40.8105 28.6832 40.8745C28.6619 40.9812 28.5552 40.9812 28.4805 41.0025C28.4485 41.0238 28.3099 41.0025 28.3632 41.0772C28.4432 41.114 28.5326 41.1252 28.6192 41.1092C28.7045 41.1092 28.7792 41.0345 28.8325 40.9598C28.8859 40.9065 28.9819 40.9385 29.0672 40.9385C29.1419 40.9385 29.2272 40.9918 29.3125 40.9492C29.3339 40.8958 29.4405 40.7892 29.4725 40.8958C29.4725 40.9918 29.5472 41.0345 29.6325 41.0239C29.7285 41.0239 29.6858 41.0878 29.6858 41.1518C29.6858 41.2478 29.7605 41.3012 29.8458 41.3438H29.9312C30.0058 41.3118 30.0912 41.2798 30.1232 41.1945C30.1552 41.1199 30.1552 41.0345 30.1765 40.9598C30.1978 40.8425 30.2192 40.7145 30.2192 40.5972C30.2512 40.4905 30.2405 40.3732 30.2618 40.2559L30.2938 40.0105C30.2938 39.9572 30.2725 39.9572 30.2405 39.9679V39.9679ZM29.5258 40.4052C29.5365 40.4052 29.5472 40.4265 29.5472 40.4585C29.5472 40.5012 29.5685 40.5332 29.6005 40.5439V40.5759L29.5152 40.5972C29.4618 40.5972 29.4192 40.5759 29.3872 40.5439L29.3659 40.5225L29.3978 40.5012L29.4512 40.4479C29.4832 40.4159 29.5045 40.4052 29.5258 40.4052V40.4052ZM36.5658 39.5625C36.5044 39.5669 36.4437 39.5777 36.3845 39.5945C36.2778 39.5945 36.2245 39.7012 36.3312 39.7652C36.3952 39.9252 36.4912 39.7225 36.5978 39.7439C36.7472 39.7652 36.7578 39.9359 36.7898 40.0639C36.7898 40.1812 36.8325 40.2985 36.8645 40.4159C36.9712 40.5332 36.7898 40.6079 36.7152 40.5225C36.6512 40.4479 36.5018 40.3625 36.4272 40.4585C36.3312 40.5012 36.3205 40.6292 36.2458 40.6718C36.1178 40.7038 36.1072 40.5439 36.0325 40.4799C35.9685 40.3839 35.8512 40.3732 35.7552 40.3519C35.7125 40.2559 35.7338 40.0959 35.6485 40.0319C35.5632 40.0639 35.4138 40.2132 35.5418 40.2879C35.6485 40.3945 35.4885 40.4372 35.4352 40.5012C35.3498 40.5972 35.3285 40.7145 35.3285 40.8212C35.1898 40.8959 35.1685 40.7359 35.1472 40.6399C35.1472 40.5225 35.0405 40.5545 34.9658 40.5972C34.8592 40.6399 34.8165 40.7359 34.7525 40.8105V41.0239C34.7738 41.1198 34.8805 41.0772 34.9445 41.0665C35.0512 41.0238 35.0938 41.1412 35.0085 41.2052C34.9445 41.2692 34.7738 41.2372 34.7952 41.3545H34.9658C35.0725 41.3225 35.2005 41.2372 35.2112 41.1092C35.2325 41.0025 35.3925 41.0132 35.4778 40.9918C35.5845 40.9598 35.7232 40.9492 35.7552 41.0985C35.8298 41.1732 35.9898 41.2585 36.0752 41.1518C36.1158 41.1261 36.1483 41.0894 36.1691 41.0461C36.1898 41.0027 36.198 40.9543 36.1925 40.9065C36.1818 40.8212 36.3312 40.8212 36.3738 40.8745C36.4272 40.9599 36.5978 40.9385 36.6832 40.8745C36.7685 40.8212 36.7898 40.7039 36.9178 40.7039L37.4938 40.5439C37.6432 40.5119 37.4725 40.4159 37.4298 40.3519C37.3232 40.2985 37.2165 40.5332 37.0885 40.4159C36.9818 40.3412 36.9925 40.2025 36.9605 40.0852C36.9285 39.9359 36.9392 39.7652 36.8325 39.6585C36.7685 39.5839 36.6618 39.5625 36.5658 39.5625V39.5625ZM35.8405 40.5759C35.8512 40.5759 35.8725 40.5759 35.8938 40.5972C35.9365 40.6185 35.9685 40.6612 35.9685 40.7039C35.9685 40.7252 35.9685 40.7252 35.9365 40.7358L35.8832 40.7572C35.8618 40.7572 35.8085 40.7252 35.8085 40.7039V40.6612C35.7872 40.6185 35.7872 40.6185 35.8085 40.5972L35.8405 40.5759ZM36.5338 40.6185C36.5765 40.6185 36.5978 40.6185 36.6192 40.6505C36.6298 40.6932 36.6192 40.7145 36.5765 40.7358L36.5232 40.7572L36.4805 40.7252C36.4592 40.7145 36.4485 40.7039 36.4485 40.6825C36.4485 40.6505 36.4912 40.6185 36.5338 40.6079V40.6185ZM35.5738 40.6185C35.5952 40.6185 35.6058 40.6185 35.6165 40.6399C35.6378 40.6612 35.6485 40.6719 35.6485 40.7039V40.7679C35.6485 40.7999 35.6485 40.7892 35.5845 40.7892C35.5205 40.7892 35.5098 40.7892 35.5098 40.7252C35.5098 40.6825 35.5098 40.6719 35.5418 40.6505C35.5525 40.6292 35.5738 40.6292 35.5845 40.6292L35.5738 40.6185ZM34.9978 40.7785C35.0079 40.7816 35.0171 40.7871 35.0245 40.7945C35.0319 40.8019 35.0374 40.8111 35.0405 40.8212C35.0405 40.8532 35.0405 40.8745 35.0192 40.8852C34.9872 40.8958 34.9338 40.9065 34.9125 40.8852C34.9122 40.8816 34.9122 40.8781 34.9125 40.8745C34.8912 40.8639 34.8912 40.8532 34.9125 40.8425V40.8318L34.9338 40.7999C34.9404 40.7895 34.9504 40.7817 34.962 40.7778C34.9737 40.7739 34.9863 40.7742 34.9978 40.7785V40.7785ZM35.9792 40.9065L36.0325 40.9172V40.9812H35.9045L35.8938 40.9598C35.8938 40.9385 35.8938 40.9279 35.9152 40.9172L35.9792 40.9065V40.9065ZM34.1552 41.4185C34.1445 41.4185 34.1232 41.4078 34.1445 41.3972C34.1552 41.3652 34.1978 41.3545 34.2298 41.3332C34.2879 41.311 34.3394 41.2743 34.3792 41.2265C34.3792 41.1838 34.4218 41.1625 34.4218 41.1198L34.4112 40.9705C34.3968 40.9257 34.3664 40.8877 34.3258 40.8639C34.2938 40.8532 34.2512 40.8425 34.2405 40.7999C34.2405 40.7679 34.2725 40.7359 34.2832 40.7039L34.3472 40.5759C34.3792 40.5439 34.4218 40.5759 34.4325 40.5972L34.4858 40.7039C34.5178 40.7359 34.5392 40.7679 34.5498 40.8105C34.5712 40.8532 34.5925 40.8852 34.5925 40.9172L34.6138 41.0558C34.6138 41.1092 34.6138 41.1732 34.5925 41.2265L34.5285 41.3118C34.4965 41.3438 34.4645 41.3758 34.4218 41.3865C34.3898 41.3972 34.3685 41.4292 34.3258 41.4292H34.1658L34.1552 41.4185ZM33.4192 41.4612C33.3978 41.4398 33.3872 41.4292 33.3872 41.3972C33.3872 41.3652 33.3872 41.3652 33.4192 41.3332C33.4618 41.2905 33.4832 41.2905 33.5685 41.3332C33.6432 41.3758 33.6752 41.3758 33.6752 41.3438C33.6858 41.3225 33.7285 41.2905 33.7818 41.2905C33.8015 41.2912 33.8204 41.2988 33.8352 41.3118C33.8565 41.3332 33.8672 41.3438 33.8672 41.3865C33.8672 41.4398 33.8672 41.4398 33.8352 41.4718C33.8032 41.4932 33.8032 41.4932 33.7605 41.4932C33.7415 41.4921 33.7233 41.4855 33.7081 41.4741C33.6929 41.4627 33.6815 41.4471 33.6752 41.4292C33.6752 41.4078 33.6752 41.3972 33.6538 41.4185L33.6325 41.4292C33.6112 41.4292 33.5685 41.4612 33.5472 41.4825L33.4938 41.4932C33.4512 41.4932 33.4512 41.4932 33.4192 41.4612V41.4612ZM31.3072 40.5119C31.2325 40.5119 31.1578 40.5759 31.1472 40.6505C31.1685 40.7252 31.2325 40.8105 31.1898 40.8852C31.2218 40.9918 31.1045 41.0345 31.0298 40.9812C30.9872 40.8745 30.9658 40.7679 30.8912 40.6612C30.8058 40.6399 30.7738 40.7785 30.7098 40.8318C30.7418 40.9065 30.8272 40.9812 30.8378 41.0772C30.8592 41.1838 30.7952 41.2905 30.7205 41.3332C30.6458 41.4078 30.5392 41.3865 30.4538 41.3972C30.3472 41.4612 30.5285 41.4825 30.5818 41.4825C30.6885 41.4932 30.8058 41.4825 30.9018 41.3972C30.9765 41.3652 30.9658 41.2158 31.0618 41.2052L31.5738 41.2372C31.6592 41.2585 31.7978 41.2265 31.8618 41.2905C31.8618 41.3972 31.9685 41.4825 32.0645 41.5252C32.1178 41.5465 32.1712 41.4718 32.2245 41.4612C32.3312 41.4292 32.2992 41.3012 32.3632 41.2478H32.8965C32.9178 41.2478 32.9285 41.1945 32.9605 41.1732L32.9392 40.9705C32.9072 40.8852 32.9392 40.7785 32.8858 40.7039C32.7898 40.6825 32.7152 40.7572 32.6298 40.7679C32.5232 40.8105 32.4485 40.9065 32.4378 41.0132C32.3845 41.1092 32.2885 40.9918 32.3312 40.9065L32.3205 40.7999C32.2672 40.7465 32.1712 40.7679 32.0965 40.7572L31.7765 40.7358C31.6698 40.7358 31.5738 40.7465 31.4885 40.7252C31.3818 40.7252 31.3818 40.6185 31.3818 40.5332C31.3605 40.5169 31.3339 40.5093 31.3072 40.5119V40.5119ZM31.5205 40.9065L31.6272 40.9172H31.7658C31.8725 40.9385 31.9792 40.9385 32.0858 40.9385C32.1072 40.9385 32.1285 40.9599 32.1498 40.9812V41.1945C32.1498 41.2265 32.1498 41.2692 32.1285 41.2798C32.1229 41.2883 32.1157 41.2956 32.1072 41.3012C32.0915 41.2984 32.0767 41.2922 32.0638 41.283C32.0509 41.2737 32.0402 41.2617 32.0325 41.2478V41.0985C32.0114 41.0806 31.9854 41.0695 31.9578 41.0665L31.6805 41.0558L31.4672 41.0452C31.4352 41.0345 31.3925 41.0452 31.3712 41.0025C31.3498 40.9812 31.3818 40.9385 31.4138 40.9279C31.4474 40.9128 31.4838 40.9056 31.5205 40.9065V40.9065ZM32.7258 40.9385C32.7365 40.9385 32.7472 40.9385 32.7472 40.9705L32.7685 41.0239C32.7685 41.0345 32.7685 41.0452 32.7472 41.0452C32.6938 41.0665 32.6405 41.0665 32.6192 41.0452C32.6192 41.0345 32.6192 40.9919 32.6405 40.9812L32.7258 40.9385Z" fill="#C09300"/>
</g>
</g>
<path id="Vector_21" d="M32.2457 34.9012C35.7231 32.2345 35.4244 28.3092 35.4244 28.3092L35.1577 28.3306C34.4217 28.3306 32.6831 27.9039 32.2777 27.3812C31.8511 27.8612 30.0591 28.3412 29.3337 28.3412L29.0671 28.3092C29.0671 28.3092 28.7577 32.2239 32.2457 34.9012Z" fill="#F5F5F5" stroke="#C09300" stroke-width="0.117333"/>
<path id="Vector_22" d="M35.1474 28.5866H35.062C34.4007 28.5866 32.8647 28.2559 32.2674 27.7439C31.6487 28.2132 30.0807 28.5972 29.4301 28.5972C29.4014 28.5961 29.3728 28.5926 29.3447 28.5866C29.3506 29.2606 29.4438 29.9311 29.6221 30.5812C30.0499 32.1475 30.9698 33.5348 32.246 34.5385C33.5231 33.531 34.4429 32.1401 34.87 30.5706C35.0474 29.9239 35.1406 29.2571 35.1474 28.5866V28.5866Z" fill="#F5F5F5" stroke="#C09300" stroke-width="0.0959996"/>
<path id="Vector_23" d="M31.1154 28.2666C30.5424 28.4531 29.9467 28.5608 29.3447 28.5866L29.3554 29.0239C29.3918 29.5471 29.4812 30.0653 29.6221 30.5705C29.9088 31.6196 30.4181 32.5946 31.1154 33.4292V28.2666ZM33.3127 28.2666V33.5145C34.0435 32.6607 34.5755 31.6551 34.87 30.5705C35.0108 30.0653 35.1001 29.5471 35.1367 29.0239L35.1474 28.5972H35.062C34.6567 28.5972 33.9527 28.4692 33.3127 28.2559V28.2666Z" fill="#C09300"/>
<g id="Group_5">
<path id="Vector_24" d="M33.5582 26.9866C33.6329 26.9972 33.4622 26.6132 33.4622 26.6132C33.6542 26.8052 34.3582 26.8586 34.3582 26.8586C33.9315 26.6666 33.5049 25.2479 33.5582 24.1066C33.6009 22.9759 33.3982 22.5279 33.2382 22.3572C33.0249 22.1439 32.3315 21.9519 31.8835 21.9306C31.6169 21.9199 31.6702 22.1226 31.6702 22.1226C31.1902 22.0052 30.7102 21.9519 30.4969 22.1012C30.3049 22.2292 30.2622 22.9012 30.4115 22.7839C30.7635 22.4959 31.0729 22.7626 31.2862 23.0719C31.4782 23.3386 31.4675 24.1066 31.1902 25.0132C30.9446 25.6987 30.5839 26.3372 30.1235 26.9012C30.5502 26.9012 31.1475 26.5279 31.1475 26.5279L31.0089 27.1146C31.4569 26.9012 31.8089 26.5706 31.8089 26.5706L32.2355 27.0186C32.3742 26.8266 32.6622 26.5706 32.6622 26.5706C32.6622 26.5706 33.0142 26.9439 33.5582 26.9972V26.9866Z" fill="#F5F5F5" stroke="#C09300" stroke-width="0.127999"/>
<path id="Vector_25" d="M32.9715 24.3946C32.9715 24.3946 33.0568 26.0266 33.4621 26.6132M31.8301 24.2772C31.8301 24.2772 31.5955 26.0266 31.1475 26.5172L31.8301 24.2772ZM32.2141 24.2239C32.2141 24.2239 32.1075 26.0052 31.8088 26.5706L32.2141 24.2239ZM32.5448 24.2986C32.5448 24.2986 32.5448 26.2399 32.6515 26.5706L32.5448 24.2986Z" stroke="#C09300" stroke-width="0.138666"/>
<path id="Vector_26" d="M31.393 23.4239C31.3834 23.3002 31.347 23.1801 31.2863 23.0719C31.073 22.7519 30.7636 22.4959 30.4116 22.7839C30.4116 22.7839 30.529 22.4106 30.7956 22.3999C30.9876 22.3892 31.4463 22.5492 31.8516 23.2319C31.8516 23.2319 31.5529 23.1679 31.4783 23.2319C31.3503 23.3386 31.4036 23.4239 31.4036 23.4239H31.393Z" fill="#C09300" stroke="#C09300" stroke-width="0.0319999"/>
<path id="Vector_27" d="M30.3687 22.3252C30.4007 22.2186 30.4433 22.1332 30.5073 22.1012C30.7207 21.9519 31.19 21.9946 31.67 22.1226C31.67 22.1226 31.6273 21.9199 31.8833 21.9306C32.3313 21.9519 33.014 22.1439 33.2273 22.3572C33.2956 22.4323 33.3498 22.519 33.3873 22.6132C33.2806 22.4639 32.982 22.4746 32.9073 22.4852C32.8006 22.4959 32.726 22.4852 32.5766 22.5279C32.502 22.5492 32.3953 22.5706 32.3313 22.6132C32.2886 22.6559 32.246 22.7839 32.182 22.7839C32.0753 22.7839 32.0753 22.7626 32.0433 22.7306C32.0113 22.6772 31.99 22.6132 31.9473 22.6239C31.8406 22.6346 31.6486 22.5492 31.414 22.3572C31.1687 22.1652 31.0727 22.1226 30.774 22.1439C30.454 22.1652 30.3687 22.3466 30.3687 22.3466V22.3252V22.3252Z" fill="#C09300" stroke="#C09300" stroke-width="0.0319999"/>
<path id="Vector_28" d="M32.1182 22.6026C32.1889 22.6026 32.2462 22.5453 32.2462 22.4746C32.2462 22.4039 32.1889 22.3466 32.1182 22.3466C32.0475 22.3466 31.9902 22.4039 31.9902 22.4746C31.9902 22.5453 32.0475 22.6026 32.1182 22.6026Z" fill="#F5F5F5"/>
</g>
</g>
</g>
</g>
<defs>
<clipPath id="clip0_2909_185450">
<path d="M0.246094 32C0.246094 14.3269 14.573 0 32.2461 0V0C49.9192 0 64.2461 14.3269 64.2461 32V32C64.2461 49.6731 49.9192 64 32.2461 64V64C14.573 64 0.246094 49.6731 0.246094 32V32Z" fill="white"/>
</clipPath>
</defs>
</svg>
