<svg width="65" height="64" viewBox="0 0 65 64" fill="none" xmlns="http://www.w3.org/2000/svg">
<g id="Rounded=Eritrea (ER)">
<g clip-path="url(#clip0_2909_185331)">
<g id="Group">
<path id="Vector" fill-rule="evenodd" clip-rule="evenodd" d="M-5.75391 0H68.1836V64H-5.75391V0Z" fill="#BE0027"/>
<path id="Vector_2" fill-rule="evenodd" clip-rule="evenodd" d="M-5.75391 64L68.1836 63.9625V32L-5.75391 64Z" fill="#B4D7F4"/>
<path id="Vector_3" fill-rule="evenodd" clip-rule="evenodd" d="M-5.75391 0L68.1836 0.0375V32L-5.75391 0Z" fill="#239E46"/>
<path id="Vector_4" fill-rule="evenodd" clip-rule="evenodd" d="M18.846 43.925C17.7585 44.225 17.1335 45.075 17.146 45.875L22.496 45.85C22.546 44.9875 21.846 44.2 20.771 43.8875C26.021 43.7875 30.571 41.8125 31.396 40.5625C30.5835 40.2 29.6335 40.775 28.9585 40.6375C30.5585 39.9 35.3585 36.7875 34.5835 33.4625C33.9515 35.0436 32.8187 36.374 31.3585 37.25C33.146 34.525 35.6085 31.6875 33.4835 29.5C33.5835 30.775 32.6585 32.175 32.2585 32.275C33.296 29.4 34.296 25.775 32.0335 23.4C32.3335 24.2625 32.221 26.6875 31.8085 26.8C31.6835 24.8375 31.346 20.725 29.2835 20.7875C29.946 21.3625 30.221 22.9625 30.246 24.5625C29.771 23.4625 29.246 22.6375 28.096 21.8125C27.0778 20.0494 25.6283 18.5741 23.8835 17.525C23.9144 18.2617 24.1255 18.9797 24.4981 19.616C24.8707 20.2523 25.3936 20.7875 26.021 21.175C25.0835 21.1125 24.146 19.3375 23.146 19.2875C22.346 19.25 21.721 20.0125 20.4085 19.575C20.5585 20 21.1585 20.2 21.2835 20.5125C21.021 20.7 20.346 20.4875 19.796 20.2C20.5585 21.225 21.7335 21.825 22.7335 21.625C23.921 21.4 25.196 21.525 26.4085 22.2125C25.6518 22.371 24.8727 22.3922 24.1085 22.275C24.821 22.9875 25.2835 23.4625 26.5085 23.45C27.6085 23.45 28.1835 22.875 28.4585 23.225C29.146 24.0375 29.6085 24.85 30.1835 25.8C28.9085 25.95 29.296 24.375 27.8835 23.5625C27.096 25.2125 28.796 27.15 29.9585 27.9625C29.9585 29.2 30.146 30.2125 30.671 31.1625C31.021 31.825 31.4835 32.5 31.3085 34C30.621 33.5 29.9335 31.7875 30.1835 30.4375C29.3085 30.675 28.9835 32.1875 29.3835 32.9625C29.696 33.55 29.896 34.675 29.546 35.175C29.196 35.6375 29.171 35.5875 29.171 36.5875C29.171 37.1875 28.846 37.9 28.296 38.3875C28.421 37.975 28.546 37.2375 28.421 36.7875C27.9835 37.525 26.9085 38.275 26.571 39.0625C26.2335 39.85 26.146 41.2125 24.5335 41.525C22.446 41.9375 21.721 42.3 20.3835 42.85C20.2335 41.8375 20.6835 39.7125 21.5335 39.8375C22.371 39.9875 24.8835 38.9625 23.9835 36.8375C23.8085 37.5125 23.2085 38.1625 22.571 38.2C23.2585 37.3 24.496 36.3625 23.896 34.8625C23.5335 35.6244 22.9555 36.2633 22.2335 36.7C23.096 35.0625 22.3335 34.575 21.321 35.9125C20.946 36.4375 20.696 37.4875 20.4585 38.8125C20.0585 37.7375 20.0835 36.3125 19.6085 35.1625C19.1085 33.9125 20.271 33.575 20.8085 33.675C22.1335 34.0375 24.3585 34.0375 24.1835 31.8375C23.621 32.5875 22.6085 32.8125 21.521 32.55C22.746 31.65 23.7085 29.9875 22.346 29.1125C22.2838 29.6285 22.0949 30.1212 21.7961 30.5465C21.4973 30.9718 21.0979 31.3165 20.6335 31.55C20.4127 30.7286 20.3998 29.8651 20.596 29.0375C20.0585 29.6 19.671 30.7625 19.3585 32.1C19.3488 31.0934 19.4878 30.091 19.771 29.125C20.046 28.0875 20.746 28.7625 21.8085 28.8375C22.8335 28.9 24.246 28.3375 23.9835 26.9375C23.6335 27.4875 22.9085 27.7 22.171 27.65C23.0585 27.1125 24.596 26.15 23.7585 24.7C23.396 25.25 23.2835 25.725 22.2585 25.9C22.521 25.275 22.571 24.4 23.371 24.0625C21.946 23.775 21.1335 24.7125 20.721 26.1625C20.546 25.1625 20.346 24.7875 20.3085 24.0375C21.0835 23.1875 21.1585 21.5125 19.496 21.15C19.396 22 19.4335 22.2125 19.621 22.9C18.8335 22.45 17.746 22.1875 16.996 22.85C17.496 23.3875 18.271 23.85 19.4585 23.275C19.171 24.1875 18.446 24.025 17.446 23.675C18.0585 24.825 18.821 25.0375 19.6835 24.9C20.121 26.075 20.146 26.9625 18.846 28.675C18.896 27.6125 18.821 26.825 17.971 25.9625C17.2585 25.25 16.671 26 17.796 27.575C16.9727 26.9214 16.3847 26.0175 16.121 25C15.896 26.2625 16.096 27.75 16.796 28.6C16.4585 28.95 16.0835 28.5625 15.5335 27.7C15.7335 30.475 16.921 31 18.521 30.3875C18.5585 31.9125 18.5585 33.325 18.646 35.1625C17.9579 34.0887 17.0127 33.2036 15.896 32.5875C15.6835 33.3375 16.4585 34.3 16.896 34.8375C16.2335 34.7125 14.8085 33.625 14.8085 33.625C14.6585 34.8625 16.2585 36 17.296 36.5125C16.0835 36.4625 15.546 36.0125 14.7585 35.2625C14.771 38.6875 18.471 38.0875 19.171 37.5625L19.4835 42.8875C18.4335 42.7125 18.521 42.3875 17.621 42.3125C15.1335 42.2125 13.1585 39.325 12.5085 37.2C12.321 37.55 12.471 37.9125 12.296 38.35C11.896 37.3 11.3835 35.9625 10.6835 35.3375C10.8585 35.9375 10.8835 36.5625 10.821 37.6875C10.5835 36.95 10.3585 36.725 10.346 35.8625C10.3585 35.2 10.9835 34.7125 10.9585 33.775C10.9335 33.1 10.3085 31.625 10.2085 30.475C9.9085 31.6625 9.721 32.9 9.2585 33.625C9.496 32.375 9.421 31.5 9.8085 30.6625C10.2585 29.7625 10.6335 28.975 10.3335 28.075C10.046 28.425 10.146 28.7375 9.4335 29.575C9.271 28.6625 10.3585 27.2 11.4085 26.6C12.1585 26.225 13.0835 24.8125 12.4835 23.85C11.7835 24.35 11.471 25.0375 10.4835 26.1875C11.1835 23.4375 13.0085 22.725 15.196 22.7125C15.696 22.7125 16.6585 22.5375 16.946 21.9C16.321 22.1375 15.5835 22.1625 14.946 22.025C15.4085 21.35 16.4085 21.4375 17.3335 21.425C18.0585 21.425 19.196 21.325 19.6585 20.3C18.6526 20.684 17.5529 20.7495 16.5085 20.4875C17.896 19.7625 20.071 19.6875 21.1835 18.7375C19.9085 17.8 16.7335 18.975 14.7335 20.35C15.296 19.8375 16.1835 18.925 16.671 18.1875C15.571 17.6625 12.796 20.7375 11.846 22.5625C10.946 23.0625 10.5835 23.875 10.221 24.4375C10.721 22.8 10.7585 21.6125 11.1585 20.275C8.0585 21.3375 9.346 27.0875 8.671 28.4625C8.746 26.9375 8.6835 24.9875 8.0585 23.9875C7.1085 24.7125 7.021 29.0125 7.9335 32.6C7.596 31.6375 6.9835 30.7375 6.796 29.575C5.371 32.1625 7.621 35.2 9.496 37.6125C8.001 36.6846 6.72911 35.4383 5.771 33.9625C6.021 38.5875 10.8585 39.55 11.6085 40.6875C10.5835 40.2125 8.646 39.275 7.8085 40.2625C8.96862 40.4783 10.0815 40.8972 11.096 41.5C12.346 43.0625 14.721 43.75 18.846 43.925Z" fill="#F3E295"/>
</g>
</g>
</g>
<defs>
<clipPath id="clip0_2909_185331">
<path d="M0.246094 32C0.246094 14.3269 14.573 0 32.2461 0V0C49.9192 0 64.2461 14.3269 64.2461 32V32C64.2461 49.6731 49.9192 64 32.2461 64V64C14.573 64 0.246094 49.6731 0.246094 32V32Z" fill="white"/>
</clipPath>
</defs>
</svg>
