<svg width="65" height="64" viewBox="0 0 65 64" fill="none" xmlns="http://www.w3.org/2000/svg">
<g id="Rounded=Europe (EU)">
<g clip-path="url(#clip0_2909_185462)">
<path id="Vector" d="M0.246094 0H64.2461V64H0.246094V0Z" fill="#003399"/>
<g id="Group">
<g id="Group_2">
<g id="b">
<path id="a" d="M32.246 29.1395L31.2979 32.3L32.8781 32.6161L32.246 29.1395Z" fill="#FFCC00"/>
<path id="Vector_2" d="M32.2462 29.1395L33.1943 32.3L31.6141 32.6161L32.2462 29.1395Z" fill="#FFCC00"/>
</g>
<g id="c">
<g id="Group_3">
<path id="a_2" d="M35.252 31.3234L31.9532 31.3983L32.1409 32.9988L35.252 31.3234Z" fill="#FFCC00"/>
<path id="Vector_3" d="M35.2519 31.3234L32.5391 33.2018L31.7502 31.7965L35.2519 31.3234Z" fill="#FFCC00"/>
</g>
<g id="Group_4">
<path id="a_3" d="M34.104 34.8569L33.0134 31.7427L31.5492 32.4159L34.104 34.8569Z" fill="#FFCC00"/>
<path id="Vector_4" d="M34.104 34.8569L31.4792 32.8574L32.5719 31.6728L34.104 34.8569Z" fill="#FFCC00"/>
</g>
</g>
<g id="Group_5">
<g id="Group_6">
<path id="a_4" d="M29.2402 31.3234L32.539 31.3983L32.3513 32.9988L29.2402 31.3234Z" fill="#FFCC00"/>
<path id="Vector_5" d="M29.2403 31.3234L31.9531 33.2018L32.742 31.7965L29.2403 31.3234Z" fill="#FFCC00"/>
</g>
<g id="Group_7">
<path id="a_5" d="M30.3882 34.8569L31.4788 31.7427L32.943 32.4159L30.3882 34.8569Z" fill="#FFCC00"/>
<path id="Vector_6" d="M30.3882 34.8569L33.013 32.8574L31.9203 31.6728L30.3882 34.8569Z" fill="#FFCC00"/>
</g>
</g>
</g>
<g id="Group_8">
<g id="b_2">
<path id="a_6" d="M32.246 29.1395L31.2979 32.3L32.8781 32.6161L32.246 29.1395Z" fill="#FFCC00"/>
<path id="Vector_7" d="M32.2462 29.1395L33.1943 32.3L31.6141 32.6161L32.2462 29.1395Z" fill="#FFCC00"/>
</g>
<g id="c_2">
<g id="Group_9">
<path id="a_7" d="M35.252 31.3234L31.9532 31.3983L32.1409 32.9988L35.252 31.3234Z" fill="#FFCC00"/>
<path id="Vector_8" d="M35.2519 31.3234L32.5391 33.2018L31.7502 31.7965L35.2519 31.3234Z" fill="#FFCC00"/>
</g>
<g id="Group_10">
<path id="a_8" d="M34.104 34.8569L33.0134 31.7427L31.5492 32.4159L34.104 34.8569Z" fill="#FFCC00"/>
<path id="Vector_9" d="M34.104 34.8569L31.4792 32.8574L32.5719 31.6728L34.104 34.8569Z" fill="#FFCC00"/>
</g>
</g>
<g id="Group_11">
<g id="Group_12">
<path id="a_9" d="M29.2402 31.3234L32.539 31.3983L32.3513 32.9988L29.2402 31.3234Z" fill="#FFCC00"/>
<path id="Vector_10" d="M29.2403 31.3234L31.9531 33.2018L32.742 31.7965L29.2403 31.3234Z" fill="#FFCC00"/>
</g>
<g id="Group_13">
<path id="a_10" d="M30.3882 34.8569L31.4788 31.7427L32.943 32.4159L30.3882 34.8569Z" fill="#FFCC00"/>
<path id="Vector_11" d="M30.3882 34.8569L33.013 32.8574L31.9203 31.6728L30.3882 34.8569Z" fill="#FFCC00"/>
</g>
</g>
</g>
<g id="e">
<g id="Group_14">
<g id="b_3">
<path id="a_11" d="M32.246 29.1395L31.2979 32.3L32.8781 32.6161L32.246 29.1395Z" fill="#FFCC00"/>
<path id="Vector_12" d="M32.2462 29.1395L33.1943 32.3L31.6141 32.6161L32.2462 29.1395Z" fill="#FFCC00"/>
</g>
<g id="c_3">
<g id="Group_15">
<path id="a_12" d="M35.252 31.3234L31.9532 31.3983L32.1409 32.9988L35.252 31.3234Z" fill="#FFCC00"/>
<path id="Vector_13" d="M35.2519 31.3234L32.5391 33.2018L31.7502 31.7965L35.2519 31.3234Z" fill="#FFCC00"/>
</g>
<g id="Group_16">
<path id="a_13" d="M34.104 34.8569L33.0134 31.7427L31.5492 32.4159L34.104 34.8569Z" fill="#FFCC00"/>
<path id="Vector_14" d="M34.104 34.8569L31.4792 32.8573L32.5719 31.6728L34.104 34.8569Z" fill="#FFCC00"/>
</g>
</g>
<g id="Group_17">
<g id="Group_18">
<path id="a_14" d="M29.2402 31.3234L32.539 31.3983L32.3513 32.9988L29.2402 31.3234Z" fill="#FFCC00"/>
<path id="Vector_15" d="M29.2403 31.3234L31.9531 33.2018L32.742 31.7965L29.2403 31.3234Z" fill="#FFCC00"/>
</g>
<g id="Group_19">
<path id="a_15" d="M30.3882 34.8569L31.4788 31.7427L32.943 32.4159L30.3882 34.8569Z" fill="#FFCC00"/>
<path id="Vector_16" d="M30.3882 34.8569L33.013 32.8573L31.9203 31.6728L30.3882 34.8569Z" fill="#FFCC00"/>
</g>
</g>
</g>
<g id="Group_20">
<g id="b_4">
<path id="a_16" d="M21.1397 18.5777L23.7644 16.5781L22.6718 15.3936L21.1397 18.5777Z" fill="#FFCC00"/>
<path id="Vector_17" d="M21.1396 18.5777L22.2303 15.4635L23.6945 16.1366L21.1396 18.5777Z" fill="#FFCC00"/>
</g>
<g id="c_4">
<g id="Group_21">
<path id="a_17" d="M19.9917 15.0442L22.7045 16.9226L23.4934 15.5173L19.9917 15.0442Z" fill="#FFCC00"/>
<path id="Vector_18" d="M19.9917 15.0442L23.2905 15.1191L23.1027 16.7196L19.9917 15.0442Z" fill="#FFCC00"/>
</g>
<g id="Group_22">
<path id="a_18" d="M22.9975 12.8603L22.0493 16.0208L23.6296 16.3369L22.9975 12.8603Z" fill="#FFCC00"/>
<path id="Vector_19" d="M22.9977 12.8603L23.9458 16.0208L22.3656 16.3369L22.9977 12.8603Z" fill="#FFCC00"/>
</g>
</g>
<g id="Group_23">
<g id="Group_24">
<path id="a_19" d="M24.855 18.5777L22.2302 16.5781L23.3229 15.3936L24.855 18.5777Z" fill="#FFCC00"/>
<path id="Vector_20" d="M24.855 18.5777L23.7644 15.4635L22.3002 16.1366L24.855 18.5777Z" fill="#FFCC00"/>
</g>
<g id="Group_25">
<path id="a_20" d="M26.0034 15.0442L23.2906 16.9226L22.5017 15.5173L26.0034 15.0442Z" fill="#FFCC00"/>
<path id="Vector_21" d="M26.0034 15.0442L22.7046 15.1191L22.8924 16.7196L26.0034 15.0442Z" fill="#FFCC00"/>
</g>
</g>
</g>
<g id="Group_26">
<g id="b_5">
<path id="a_21" d="M17.8247 25.6081L16.7341 22.4939L15.2699 23.167L17.8247 25.6081Z" fill="#FFCC00"/>
<path id="Vector_22" d="M17.8247 25.6081L15.1999 23.6085L16.2926 22.4239L17.8247 25.6081Z" fill="#FFCC00"/>
</g>
<g id="c_5">
<g id="Group_27">
<path id="a_22" d="M14.1099 25.608L16.7346 23.6085L15.642 22.4239L14.1099 25.608Z" fill="#FFCC00"/>
<path id="Vector_23" d="M14.1098 25.608L15.2005 22.4938L16.6647 23.167L14.1098 25.608Z" fill="#FFCC00"/>
</g>
<g id="Group_28">
<path id="a_23" d="M12.9615 22.0745L15.6743 23.9529L16.4632 22.5477L12.9615 22.0745Z" fill="#FFCC00"/>
<path id="Vector_24" d="M12.9614 22.0745L16.2602 22.1494L16.0725 23.75L12.9614 22.0745Z" fill="#FFCC00"/>
</g>
</g>
<g id="Group_29">
<g id="Group_30">
<path id="a_24" d="M18.9726 22.0745L16.2598 23.9529L15.4709 22.5477L18.9726 22.0745Z" fill="#FFCC00"/>
<path id="Vector_25" d="M18.9727 22.0745L15.6739 22.1494L15.8616 23.75L18.9727 22.0745Z" fill="#FFCC00"/>
</g>
<g id="Group_31">
<path id="a_25" d="M15.9669 19.8907L16.915 23.0511L15.3348 23.3672L15.9669 19.8907Z" fill="#FFCC00"/>
<path id="Vector_26" d="M15.9667 19.8907L15.0186 23.0511L16.5988 23.3672L15.9667 19.8907Z" fill="#FFCC00"/>
</g>
</g>
</g>
<g id="Group_32">
<g id="b_6">
<path id="a_26" d="M18.9766 41.083L15.6778 41.1579L15.8655 42.7584L18.9766 41.083Z" fill="#FFCC00"/>
<path id="Vector_27" d="M18.9765 41.083L16.2637 42.9614L15.4748 41.5561L18.9765 41.083Z" fill="#FFCC00"/>
</g>
<g id="c_6">
<g id="Group_33">
<path id="a_27" d="M17.8281 44.6165L16.7375 41.5023L15.2733 42.1755L17.8281 44.6165Z" fill="#FFCC00"/>
<path id="Vector_28" d="M17.8281 44.6165L15.2033 42.6169L16.296 41.4324L17.8281 44.6165Z" fill="#FFCC00"/>
</g>
<g id="Group_34">
<path id="a_28" d="M14.1128 44.6165L16.7376 42.6169L15.6449 41.4324L14.1128 44.6165Z" fill="#FFCC00"/>
<path id="Vector_29" d="M14.1128 44.6165L15.2034 41.5023L16.6676 42.1755L14.1128 44.6165Z" fill="#FFCC00"/>
</g>
</g>
<g id="Group_35">
<g id="Group_36">
<path id="a_29" d="M15.9703 38.8991L16.9185 42.0596L15.3382 42.3757L15.9703 38.8991Z" fill="#FFCC00"/>
<path id="Vector_30" d="M15.9701 38.8991L15.022 42.0596L16.6022 42.3757L15.9701 38.8991Z" fill="#FFCC00"/>
</g>
<g id="Group_37">
<path id="a_30" d="M12.9643 41.083L16.2631 41.1579L16.0754 42.7585L12.9643 41.083Z" fill="#FFCC00"/>
<path id="Vector_31" d="M12.9644 41.083L15.6772 42.9614L16.4661 41.5561L12.9644 41.083Z" fill="#FFCC00"/>
</g>
</g>
</g>
<g id="Group_38">
<g id="b_7">
<path id="a_31" d="M25.836 47.4443L22.5372 47.5192L22.7249 49.1198L25.836 47.4443Z" fill="#FFCC00"/>
<path id="Vector_32" d="M25.8359 47.4443L23.1231 49.3227L22.3342 47.9175L25.8359 47.4443Z" fill="#FFCC00"/>
</g>
<g id="c_7">
<g id="Group_39">
<path id="a_32" d="M24.6875 50.9779L23.5969 47.8637L22.1327 48.5368L24.6875 50.9779Z" fill="#FFCC00"/>
<path id="Vector_33" d="M24.6875 50.9779L22.0627 48.9783L23.1554 47.7938L24.6875 50.9779Z" fill="#FFCC00"/>
</g>
<g id="Group_40">
<path id="a_33" d="M20.9722 50.9779L23.5969 48.9783L22.5043 47.7938L20.9722 50.9779Z" fill="#FFCC00"/>
<path id="Vector_34" d="M20.9721 50.9779L22.0628 47.8637L23.527 48.5368L20.9721 50.9779Z" fill="#FFCC00"/>
</g>
</g>
<g id="Group_41">
<g id="Group_42">
<path id="a_34" d="M22.8297 45.2605L23.7778 48.421L22.1976 48.737L22.8297 45.2605Z" fill="#FFCC00"/>
<path id="Vector_35" d="M22.8295 45.2605L21.8813 48.421L23.4616 48.737L22.8295 45.2605Z" fill="#FFCC00"/>
</g>
<g id="Group_43">
<path id="a_35" d="M19.8237 47.4443L23.1225 47.5192L22.9348 49.1198L19.8237 47.4443Z" fill="#FFCC00"/>
<path id="Vector_36" d="M19.8238 47.4443L22.5366 49.3227L23.3255 47.9175L19.8238 47.4443Z" fill="#FFCC00"/>
</g>
</g>
</g>
</g>
<g id="Group_44">
<g id="Group_45">
<g id="b_8">
<path id="a_36" d="M32.2467 29.1395L33.1948 32.3L31.6146 32.6161L32.2467 29.1395Z" fill="#FFCC00"/>
<path id="Vector_37" d="M32.2465 29.1395L31.2983 32.3L32.8786 32.6161L32.2465 29.1395Z" fill="#FFCC00"/>
</g>
<g id="c_8">
<g id="Group_46">
<path id="a_37" d="M29.2407 31.3234L32.5395 31.3983L32.3518 32.9988L29.2407 31.3234Z" fill="#FFCC00"/>
<path id="Vector_38" d="M29.2407 31.3234L31.9536 33.2018L32.7425 31.7965L29.2407 31.3234Z" fill="#FFCC00"/>
</g>
<g id="Group_47">
<path id="a_38" d="M30.3887 34.8569L31.4793 31.7427L32.9435 32.4159L30.3887 34.8569Z" fill="#FFCC00"/>
<path id="Vector_39" d="M30.3887 34.8569L33.0135 32.8573L31.9208 31.6728L30.3887 34.8569Z" fill="#FFCC00"/>
</g>
</g>
<g id="Group_48">
<g id="Group_49">
<path id="a_39" d="M35.2525 31.3234L31.9537 31.3983L32.1414 32.9988L35.2525 31.3234Z" fill="#FFCC00"/>
<path id="Vector_40" d="M35.2524 31.3234L32.5396 33.2018L31.7507 31.7965L35.2524 31.3234Z" fill="#FFCC00"/>
</g>
<g id="Group_50">
<path id="a_40" d="M34.1045 34.8569L33.0139 31.7427L31.5497 32.4159L34.1045 34.8569Z" fill="#FFCC00"/>
<path id="Vector_41" d="M34.1045 34.8569L31.4797 32.8573L32.5724 31.6728L34.1045 34.8569Z" fill="#FFCC00"/>
</g>
</g>
</g>
<g id="Group_51">
<g id="b_9">
<path id="a_41" d="M43.353 18.5777L40.7282 16.5781L41.8209 15.3936L43.353 18.5777Z" fill="#FFCC00"/>
<path id="Vector_42" d="M43.353 18.5777L42.2624 15.4635L40.7982 16.1366L43.353 18.5777Z" fill="#FFCC00"/>
</g>
<g id="c_9">
<g id="Group_52">
<path id="a_42" d="M44.501 15.0442L41.7881 16.9226L40.9992 15.5173L44.501 15.0442Z" fill="#FFCC00"/>
<path id="Vector_43" d="M44.501 15.0442L41.2022 15.1191L41.3899 16.7196L44.501 15.0442Z" fill="#FFCC00"/>
</g>
<g id="Group_53">
<path id="a_43" d="M41.4952 12.8603L42.4434 16.0208L40.8631 16.3369L41.4952 12.8603Z" fill="#FFCC00"/>
<path id="Vector_44" d="M41.495 12.8603L40.5469 16.0208L42.1271 16.3369L41.495 12.8603Z" fill="#FFCC00"/>
</g>
</g>
<g id="Group_54">
<g id="Group_55">
<path id="a_44" d="M39.6372 18.5777L42.262 16.5781L41.1693 15.3936L39.6372 18.5777Z" fill="#FFCC00"/>
<path id="Vector_45" d="M39.6372 18.5777L40.7278 15.4635L42.192 16.1366L39.6372 18.5777Z" fill="#FFCC00"/>
</g>
<g id="Group_56">
<path id="a_45" d="M38.4893 15.0442L41.2021 16.9226L41.991 15.5173L38.4893 15.0442Z" fill="#FFCC00"/>
<path id="Vector_46" d="M38.4892 15.0442L41.788 15.1191L41.6003 16.7196L38.4892 15.0442Z" fill="#FFCC00"/>
</g>
</g>
</g>
<g id="Group_57">
<g id="b_10">
<path id="a_46" d="M46.6679 25.6081L47.7586 22.4939L49.2228 23.167L46.6679 25.6081Z" fill="#FFCC00"/>
<path id="Vector_47" d="M46.668 25.6081L49.2928 23.6085L48.2001 22.4239L46.668 25.6081Z" fill="#FFCC00"/>
</g>
<g id="c_10">
<g id="Group_58">
<path id="a_47" d="M50.3833 25.608L47.7585 23.6085L48.8512 22.4239L50.3833 25.608Z" fill="#FFCC00"/>
<path id="Vector_48" d="M50.3833 25.608L49.2927 22.4938L47.8285 23.167L50.3833 25.608Z" fill="#FFCC00"/>
</g>
<g id="Group_59">
<path id="a_48" d="M51.5312 22.0745L48.8184 23.9529L48.0295 22.5477L51.5312 22.0745Z" fill="#FFCC00"/>
<path id="Vector_49" d="M51.5313 22.0745L48.2325 22.1494L48.4202 23.75L51.5313 22.0745Z" fill="#FFCC00"/>
</g>
</g>
<g id="Group_60">
<g id="Group_61">
<path id="a_49" d="M45.5196 22.0745L48.2324 23.9529L49.0213 22.5477L45.5196 22.0745Z" fill="#FFCC00"/>
<path id="Vector_50" d="M45.5195 22.0745L48.8183 22.1494L48.6306 23.75L45.5195 22.0745Z" fill="#FFCC00"/>
</g>
<g id="Group_62">
<path id="a_50" d="M48.5258 19.8907L47.5776 23.0511L49.1579 23.3672L48.5258 19.8907Z" fill="#FFCC00"/>
<path id="Vector_51" d="M48.526 19.8907L49.4741 23.0511L47.8939 23.3672L48.526 19.8907Z" fill="#FFCC00"/>
</g>
</g>
</g>
<g id="Group_63">
<g id="b_11">
<path id="a_51" d="M45.5161 41.083L48.8149 41.1579L48.6271 42.7584L45.5161 41.083Z" fill="#FFCC00"/>
<path id="Vector_52" d="M45.5161 41.083L48.229 42.9614L49.0179 41.5561L45.5161 41.083Z" fill="#FFCC00"/>
</g>
<g id="c_11">
<g id="Group_64">
<path id="a_52" d="M46.6645 44.6165L47.7552 41.5023L49.2194 42.1755L46.6645 44.6165Z" fill="#FFCC00"/>
<path id="Vector_53" d="M46.6646 44.6165L49.2893 42.6169L48.1967 41.4324L46.6646 44.6165Z" fill="#FFCC00"/>
</g>
<g id="Group_65">
<path id="a_53" d="M50.3799 44.6165L47.7551 42.6169L48.8478 41.4324L50.3799 44.6165Z" fill="#FFCC00"/>
<path id="Vector_54" d="M50.3799 44.6165L49.2893 41.5023L47.8251 42.1755L50.3799 44.6165Z" fill="#FFCC00"/>
</g>
</g>
<g id="Group_66">
<g id="Group_67">
<path id="a_54" d="M48.5224 38.8991L47.5742 42.0596L49.1545 42.3757L48.5224 38.8991Z" fill="#FFCC00"/>
<path id="Vector_55" d="M48.5226 38.8991L49.4707 42.0596L47.8905 42.3757L48.5226 38.8991Z" fill="#FFCC00"/>
</g>
<g id="Group_68">
<path id="a_55" d="M51.5283 41.083L48.2295 41.1579L48.4173 42.7585L51.5283 41.083Z" fill="#FFCC00"/>
<path id="Vector_56" d="M51.5283 41.083L48.8155 42.9614L48.0266 41.5561L51.5283 41.083Z" fill="#FFCC00"/>
</g>
</g>
</g>
<g id="Group_69">
<g id="b_12">
<path id="a_56" d="M38.6567 47.4443L41.9555 47.5192L41.7678 49.1198L38.6567 47.4443Z" fill="#FFCC00"/>
<path id="Vector_57" d="M38.6568 47.4443L41.3696 49.3227L42.1585 47.9175L38.6568 47.4443Z" fill="#FFCC00"/>
</g>
<g id="c_12">
<g id="Group_70">
<path id="a_57" d="M39.8052 50.9779L40.8958 47.8637L42.36 48.5368L39.8052 50.9779Z" fill="#FFCC00"/>
<path id="Vector_58" d="M39.8052 50.9779L42.43 48.9783L41.3373 47.7938L39.8052 50.9779Z" fill="#FFCC00"/>
</g>
<g id="Group_71">
<path id="a_58" d="M43.5205 50.9779L40.8957 48.9783L41.9884 47.7938L43.5205 50.9779Z" fill="#FFCC00"/>
<path id="Vector_59" d="M43.5205 50.9779L42.4299 47.8637L40.9657 48.5368L43.5205 50.9779Z" fill="#FFCC00"/>
</g>
</g>
<g id="Group_72">
<g id="Group_73">
<path id="a_59" d="M41.663 45.2605L40.7148 48.421L42.2951 48.737L41.663 45.2605Z" fill="#FFCC00"/>
<path id="Vector_60" d="M41.6632 45.2605L42.6113 48.421L41.0311 48.737L41.6632 45.2605Z" fill="#FFCC00"/>
</g>
<g id="Group_74">
<path id="a_60" d="M44.669 47.4443L41.3702 47.5192L41.5579 49.1198L44.669 47.4443Z" fill="#FFCC00"/>
<path id="Vector_61" d="M44.6689 47.4443L41.9561 49.3227L41.1672 47.9175L44.6689 47.4443Z" fill="#FFCC00"/>
</g>
</g>
</g>
</g>
</g>
</g>
</g>
<defs>
<clipPath id="clip0_2909_185462">
<path d="M0.246094 32C0.246094 14.3269 14.573 0 32.2461 0V0C49.9192 0 64.2461 14.3269 64.2461 32V32C64.2461 49.6731 49.9192 64 32.2461 64V64C14.573 64 0.246094 49.6731 0.246094 32V32Z" fill="white"/>
</clipPath>
</defs>
</svg>
