<svg width="65" height="64" viewBox="0 0 65 64" fill="none" xmlns="http://www.w3.org/2000/svg">
<g id="Rounded=Fiji (FJ)">
<g clip-path="url(#clip0_2909_185416)">
<path id="Vector" d="M0.246094 0V64H64.2461V0.025H40.4961V0H0.246094Z" fill="#68BFE5"/>
<g id="Group">
<path id="Vector_2" d="M39.021 31.75V48.8C39.021 54.375 49.096 57.6875 49.096 57.6875C49.096 57.6875 59.171 54.375 59.171 48.8125V31.75H39.021Z" fill="#F5F5F5"/>
<path id="Vector_3" d="M47.696 37.75V45.425H39.021V48.2125H47.7085V57.15L49.096 57.6875L50.496 57.15V48.2125H59.171V45.425H50.496V37.75H47.696Z" fill="#D21034"/>
<path id="Vector_4" d="M39.021 31.75H59.171V38.3375H39.021V31.75Z" fill="#D21034"/>
<g id="Group_2">
<g id="Group_3">
<path id="Vector_5" d="M40.6322 36.6875C41.2564 36.6875 41.7625 36.2782 41.7625 35.7733C41.7625 35.2684 41.2564 34.8591 40.6322 34.8591C40.008 34.8591 39.502 35.2684 39.502 35.7733C39.502 36.2782 40.008 36.6875 40.6322 36.6875Z" fill="#F5F5F5" stroke="black" stroke-width="0.066486" stroke-miterlimit="3"/>
<path id="Vector_6" d="M40.6321 35.8065C41.1874 35.8065 41.6377 35.5795 41.6377 35.2996C41.6377 35.0196 41.1874 34.7926 40.6321 34.7926C40.0767 34.7926 39.6265 35.0196 39.6265 35.2996C39.6265 35.5795 40.0767 35.8065 40.6321 35.8065Z" fill="#F5F5F5" stroke="black" stroke-width="0.066486" stroke-miterlimit="3"/>
<path id="Vector_7" d="M40.6321 36.8287C41.1874 36.8287 41.6377 36.6018 41.6377 36.3218C41.6377 36.0418 41.1874 35.8148 40.6321 35.8148C40.0767 35.8148 39.6265 36.0418 39.6265 36.3218C39.6265 36.6018 40.0767 36.8287 40.6321 36.8287Z" fill="#F5F5F5" stroke="black" stroke-width="0.066486" stroke-miterlimit="3"/>
<path id="Vector_8" d="M40.6321 36.2802C41.1874 36.2802 41.6377 36.0533 41.6377 35.7733C41.6377 35.4933 41.1874 35.2663 40.6321 35.2663C40.0767 35.2663 39.6265 35.4933 39.6265 35.7733C39.6265 36.0533 40.0767 36.2802 40.6321 36.2802Z" fill="#F5F5F5" stroke="black" stroke-width="0.066486" stroke-miterlimit="3"/>
</g>
<path id="Vector_9" d="M58.6707 37.0375L58.5082 36.575C58.5082 36.575 58.0582 36.4 58.0207 36.15C57.9457 35.525 57.7082 35.275 57.3707 35.1875C57.2763 35.1575 57.1769 35.1464 57.0782 35.155C56.9795 35.1636 56.8835 35.1916 56.7957 35.2375C56.6957 35.3875 56.1832 35.3875 55.8957 35.4C55.6082 35.4125 55.6082 35.275 55.6082 35.275C55.5466 35.2767 55.4855 35.2627 55.4309 35.2343C55.3762 35.2058 55.3297 35.1639 55.2957 35.1125C55.1457 34.825 55.0457 34.7125 54.9707 34.6875C55.3457 34.6875 55.6207 34.5125 56.0332 34.075C56.4957 33.6 56.8207 33.7875 56.8207 33.7875C56.5957 34.225 56.8957 34.1875 56.8957 34.1875C57.4957 33.8875 56.9707 33.1 56.7832 33.1375C56.6082 33.175 56.5582 33.05 56.5582 33.05C56.5582 33.1875 56.3457 33.25 56.3457 33.25C56.5082 32.3625 55.9707 32.125 55.9707 32.125C55.8957 32.2 55.8457 32.375 55.8457 32.375C55.7082 32.9 55.2207 32.825 54.6707 32.5625C54.1207 32.3 52.6582 32.8375 52.1957 33.0125C51.7457 33.2 50.9082 33.4875 50.1582 33.0625C49.4082 32.6375 49.2207 32.7125 48.9207 32.8C48.6207 32.875 48.0957 33 47.9082 32.9C47.7759 32.8333 47.6311 32.795 47.4832 32.7875C47.5457 32.7625 47.4582 32.6375 47.4582 32.6375C47.2332 32.325 47.4832 32.1375 47.4832 32.1375C47.4832 32.1375 47.0707 32.2625 47.2332 32.9875L47.3082 33.1C47.3082 33.1 47.3707 33.325 47.4957 33.3875V33.4375C47.4957 33.4375 47.5957 33.3875 47.6207 33.5375C47.6707 33.6875 47.8207 33.55 47.8957 33.425C47.8957 33.425 47.7707 34.0875 48.5957 34.25C48.5957 34.25 48.5082 34.15 48.5457 34.075C48.5832 34.0125 48.4457 33.95 48.4582 33.85C48.4582 33.75 48.2457 33.7 48.4207 33.625C48.5957 33.5375 48.6707 33.375 49.0457 33.6C49.3957 33.8125 49.6832 33.7625 49.6832 33.7625C49.6832 33.7625 49.4582 33.3125 49.5832 33.3125C49.7082 33.3125 50.2582 34 50.5332 33.9625C50.8082 33.925 51.3332 33.625 51.5957 33.7375C51.5957 33.7375 51.6207 33.6 52.6207 33.425C53.6207 33.25 54.8707 32.75 55.3332 33.1875C55.3332 33.1875 55.3832 33.5375 55.5832 33.625C55.5832 33.625 55.5457 34.35 54.2957 33.95L53.8457 33.825C53.8457 33.825 53.7832 33.6125 51.4082 34.225C51.4082 34.225 51.2832 34.275 51.1832 34.35C51.0957 34.4125 50.9707 34.3 50.4957 34.475C50.0207 34.65 48.2832 35.225 47.2082 35.0125C46.9707 34.95 46.7457 34.975 46.7457 34.95C46.7332 34.9 46.8707 34.95 46.8707 34.95C46.7832 34.8625 46.7457 34.85 46.7457 34.85C45.8457 34.7625 46.0082 34.35 46.0082 34.35L46.0582 34.475C46.2082 34.2875 45.9957 33.825 45.9957 33.825C45.992 33.8123 45.9879 33.7998 45.9832 33.7875L46.0582 33.7375C46.4957 33.3625 46.9957 33.3 46.9957 33.3C46.6957 32.925 46.0707 33.125 46.0707 33.125C46.0707 32.6875 45.8957 32.175 45.8957 32.175C45.2707 32.2375 44.9207 32.75 44.9207 32.75C44.9082 32.3 44.3207 32.0375 44.3207 32.0375C44.5332 32.2875 44.3957 32.9125 44.3957 32.9125L44.4207 32.9375H44.3707L44.3582 33.0625H44.3332C44.3332 33.0625 44.1207 33.1375 43.8582 33.7125C43.8582 33.7125 43.8332 33.8375 43.7332 33.9625V33.925C43.7332 33.925 43.4582 34.3 42.8082 33.925C42.8082 33.925 41.9332 33.4 41.6207 33.425C41.3082 33.4375 41.1082 33.5875 41.1207 33.675C41.1207 33.675 40.4207 33.6125 40.1832 34.0125C40.1832 34.0125 39.6457 34.2125 40.1082 34.6375C40.1082 34.6375 40.1582 34.8375 40.2957 34.9375C40.2957 34.9375 40.2707 34.5375 40.3707 34.6625C40.3707 34.6625 40.3957 34.7 40.4457 34.725C40.4457 34.775 40.4957 34.9375 40.5957 35.0125L40.6582 34.9875C40.6674 34.8936 40.6884 34.8012 40.7207 34.7125H40.7457L40.7332 34.725L40.8582 34.9125L40.9957 34.8375C41.0707 34.8375 41.1582 34.9 41.1582 34.9L41.3207 34.775V34.7625C41.4832 34.7875 41.5207 34.475 41.5207 34.475C41.5889 34.4912 41.6597 34.493 41.7286 34.48C41.7976 34.4671 41.863 34.4399 41.9207 34.4C41.9957 34.65 42.5707 34.9375 42.5707 34.9375H42.5957L42.5207 34.9875C42.7707 35.175 43.2707 35.125 43.2707 35.125C43.0707 35.2125 43.0957 35.5875 43.0957 35.5875C42.9707 35.6375 42.9707 35.75 42.9707 35.75C43.3582 35.9125 43.6332 35.7875 43.6332 35.7875C43.6582 35.9125 43.6332 35.925 43.6332 35.925C43.4707 36.2625 43.3957 36.6 43.3957 36.6V36.625C43.3957 36.625 42.6957 36.875 42.3957 37.2125C42.3957 37.2125 42.3582 37.1125 42.2707 37.1125C42.1832 37.1125 41.9082 36.8875 41.7832 36.8625C41.6582 36.8125 41.4707 36.8875 41.4207 36.8375C41.3832 36.775 41.4082 36.3875 41.3207 36.325L41.2332 36.075C41.1707 36.2 40.9332 36.175 40.9332 36.175C40.8993 36.1992 40.8659 36.2242 40.8332 36.25L40.7332 36.2375C40.7082 36.2375 40.6832 36.3125 40.6582 36.375C40.6497 36.3832 40.6414 36.3916 40.6332 36.4V36.325C40.5832 36.3625 40.4832 36.3125 40.4457 36.3125L40.3832 36.425L40.1582 36.45C40.1207 36.4625 40.1582 36.7625 40.1582 36.7625C39.8707 36.925 40.0082 37.15 40.0082 37.15C40.1582 37.9 41.4457 37.575 41.5457 37.6625C41.6332 37.7625 41.8582 37.7875 41.9832 37.7875C42.0957 37.7875 42.2332 38.0625 42.4082 38.0875C42.5707 38.125 42.4082 37.875 43.1582 37.6875C43.9332 37.5 44.1832 37.1875 44.1832 37.1875C44.4332 37.15 44.4957 36.85 44.5082 36.7375L44.5207 36.925C44.5582 37.175 44.3832 37.275 44.3832 37.275L45.0332 37.075C45.2957 37.0125 45.2707 36.7875 45.2707 36.7875C45.5207 37.5 45.9707 37.5375 45.9707 37.5375C46.0707 37.275 46.0582 37.1875 46.0582 37.1875H46.2582C46.2582 37.025 46.1332 36.9125 46.0582 36.8625L46.3707 37.0625L46.4957 37.0375C46.4957 37.15 46.6707 37.25 46.6707 37.25L46.6957 37.1C46.8457 37.3 47.1207 37.225 47.1207 37.225C47.1142 37.1912 47.1059 37.1578 47.0957 37.125C47.6832 37.4875 48.6082 37.025 48.6082 37.025C48.8582 37.075 48.8957 36.925 48.8957 36.925C49.1832 36.9625 49.2457 36.775 49.2457 36.775C49.9207 36.7125 50.3957 36.2375 50.3957 36.2375C50.7207 36.2125 50.7332 35.9875 50.7332 35.9875C50.7332 35.9875 51.0707 36.0375 51.3832 35.6375C52.1332 34.575 53.2332 35.1375 53.2332 35.1375L52.6082 35.175C50.9207 35.1625 51.6082 36.3 51.6082 36.3H51.7207C51.8832 36.325 52.4207 36.7625 52.2207 37.0875V37.1C51.8707 37.5625 51.2332 37.125 51.0582 36.725C50.8707 36.325 50.5082 36.4125 50.5082 36.4125C50.5082 36.4125 49.5582 36.575 49.9457 37.325H49.9582C49.9707 37.5125 50.0832 37.725 50.4207 37.9375C50.6082 38.2 51.2332 38.225 51.6957 38.125C51.9082 38.0875 53.0332 37.6 53.0332 37.6C53.1207 37.35 53.4082 37.4125 53.6582 37.0625C53.9082 36.7 53.2832 36.575 53.1582 36.3875C53.0207 36.1875 53.1957 36.225 53.1957 36.225C53.7332 36.525 53.7832 35.575 53.7832 35.575C53.7973 35.7306 53.8553 35.879 53.9505 36.0029C54.0456 36.1268 54.174 36.2212 54.3207 36.275C54.6207 35.975 54.3957 35.3625 54.3957 35.3625C55.1082 36.6375 55.5457 36.4375 55.5457 36.4375C55.1582 36.1875 55.3457 35.875 55.3457 35.875C55.6957 37.225 57.0957 36.05 57.0957 36.05C57.0332 36.25 57.0957 36.3625 57.2207 36.4875C57.3457 36.6125 57.4957 36.6625 57.4332 36.9C57.3582 37.125 56.7082 37.075 56.7082 37.075C56.7082 37.075 56.0707 37.05 56.1332 37.575C56.1582 37.7 56.5832 37.75 56.7457 37.725C56.7457 37.725 56.6832 37.725 56.9082 37.7625L57.1832 37.775C57.4582 37.775 57.7457 37.725 57.7457 37.725C58.1207 37.6375 58.0582 37.5125 58.0582 37.5125C58.6207 37.4125 58.6832 37.0375 58.6832 37.0375H58.6707Z" fill="#FFD100" stroke="black" stroke-width="0.1" stroke-miterlimit="3"/>
<path id="Vector_10" d="M40.1207 34.7C40.1207 34.7 40.1457 34.625 40.2082 34.6125C40.2457 34.6125 40.3082 34.6375 40.3582 34.7125L40.3832 34.6875C40.3832 34.6875 40.2332 34.4625 40.2957 34.3125C40.3207 34.25 40.3957 34.1875 40.4957 34.1875V34.1375C40.3707 34.1625 40.2957 34.2125 40.2582 34.3C40.2473 34.3321 40.243 34.3662 40.2457 34.4C40.2457 34.475 40.2707 34.55 40.2957 34.6C40.2669 34.579 40.231 34.5701 40.1957 34.575C40.1457 34.5875 40.1082 34.625 40.0957 34.65L40.1207 34.7ZM57.7457 37.6875C57.3707 37.75 56.7957 37.775 56.7457 37.6625C56.7457 37.65 56.7457 37.5625 57.0582 37.3625L57.0207 37.3C56.7707 37.475 56.6457 37.6 56.6957 37.6875C56.7707 37.9 57.5957 37.775 57.7582 37.75L57.7457 37.6875ZM50.4457 37.9125C50.3582 37.775 50.3957 37.5875 50.5707 37.3625L50.5082 37.325C50.3207 37.575 50.2832 37.7875 50.3832 37.95L50.4457 37.9125Z" fill="black"/>
<path id="Vector_11" d="M49.9332 37.3375C49.9332 37.5625 50.0957 37.775 50.4082 37.9625L50.4457 37.9125C50.1582 37.7375 50.0082 37.5375 49.9957 37.325C49.9957 37.0125 50.3207 36.775 50.3207 36.7625L50.2832 36.7125C50.2707 36.7125 49.9082 36.975 49.9332 37.3375V37.3375ZM56.4332 37.4125C56.3332 37.575 56.3707 37.7625 56.3707 37.7625H56.4332C56.4332 37.7625 56.4082 37.5875 56.4957 37.45C56.5252 37.4096 56.5626 37.3755 56.6055 37.3497C56.6484 37.324 56.6961 37.3071 56.7457 37.3V37.2375C56.6082 37.2625 56.4957 37.325 56.4332 37.4125ZM41.5332 34.5H41.5082V34.5125C41.5082 34.5125 41.4707 34.7125 41.3832 34.7625C41.3705 34.7712 41.3561 34.7768 41.3409 34.779C41.3257 34.7811 41.3103 34.7798 41.2957 34.775L41.1457 34.6875C41.1082 34.65 41.0832 34.6375 41.0457 34.65C41.0084 34.6045 40.9905 34.5461 40.9957 34.4875C41.0082 34.3875 41.0707 34.3 41.1832 34.225L41.1707 34.1875C41.0457 34.275 40.9707 34.375 40.9582 34.475C40.9457 34.6 41.0082 34.675 41.0207 34.6875H41.0332C41.0707 34.675 41.0832 34.6875 41.1207 34.7125L41.2832 34.8125H41.4082C41.4957 34.75 41.5332 34.575 41.5332 34.5375C41.9457 34.625 42.2832 34.125 42.2832 34.1125L42.2582 34.0875C42.2582 34.0875 41.9207 34.5875 41.5332 34.5V34.5Z" fill="black"/>
<path id="Vector_12" d="M40.5585 34.425C40.5335 34.5 40.5585 34.5875 40.596 34.6625C40.646 34.7375 40.6835 34.775 40.7335 34.7875C40.796 34.7875 40.8335 34.75 40.871 34.7125C40.896 34.675 40.9335 34.65 40.946 34.6625L40.9835 34.6875L41.021 34.6625L40.9585 34.625C40.921 34.625 40.8835 34.65 40.846 34.675C40.8085 34.7125 40.771 34.75 40.7335 34.7375C40.7085 34.7375 40.671 34.7 40.6335 34.6375C40.6132 34.6065 40.5995 34.5716 40.593 34.5351C40.5866 34.4986 40.5876 34.4611 40.596 34.425C40.6335 34.25 40.846 34.1125 40.846 34.1125V34.0875C40.8335 34.0875 40.596 34.2125 40.5585 34.425V34.425ZM39.996 37C40.021 36.925 40.071 36.875 40.1585 36.825C40.146 36.825 40.246 36.9125 40.3335 36.9L40.3835 36.875C40.4085 36.8875 40.5585 37.025 40.5585 37.2C40.5585 37.2375 40.5585 37.275 40.5335 37.3125L40.571 37.325C40.696 37.075 40.4085 36.825 40.4085 36.825H40.3835L40.321 36.8625C40.2585 36.8625 40.171 36.7875 40.1585 36.7875C40.046 36.8375 39.9835 36.9125 39.9585 36.9875L39.996 37ZM41.296 36.3375C41.2085 36.3375 40.971 36.3875 40.896 36.5C40.871 36.55 40.871 36.6 40.896 36.65L40.921 36.7375C40.996 36.925 41.071 37.125 41.146 37.175L41.171 37.1375C41.096 37.1 41.021 36.8875 40.9585 36.7125L40.921 36.6375C40.9122 36.6201 40.9076 36.6008 40.9076 36.5813C40.9076 36.5617 40.9122 36.5425 40.921 36.525C40.996 36.425 41.196 36.375 41.296 36.375C41.346 36.375 41.3585 36.5625 41.371 36.6875H41.4085C41.4085 36.5 41.3835 36.325 41.2835 36.3375H41.296Z" fill="black"/>
<path id="Vector_13" d="M40.6585 36.525C40.6434 36.5392 40.6321 36.5569 40.6256 36.5765C40.619 36.5962 40.6174 36.6171 40.621 36.6375C40.621 36.65 40.6335 37.1375 40.871 37.2375L40.8835 37.2C40.671 37.1125 40.6585 36.6375 40.6585 36.6375C40.6585 36.6375 40.646 36.5875 40.6835 36.55C40.7085 36.525 40.7835 36.525 40.8835 36.55V36.5125C40.7835 36.475 40.696 36.4875 40.6585 36.525Z" fill="black"/>
<path id="Vector_14" d="M40.4706 36.5625C40.3706 36.6375 40.3706 36.8375 40.3706 36.85H40.4081C40.4081 36.85 40.4081 36.65 40.4956 36.6C40.5206 36.575 40.5706 36.575 40.6206 36.6V36.5625C40.5706 36.5375 40.5081 36.5375 40.4706 36.5625Z" fill="black"/>
<g id="Group_4">
<path id="Vector_15" d="M45.9593 33.8867C45.9593 33.8867 46.0673 34.136 46.0673 34.3272C46.0673 34.3604 46.0507 34.3854 46.0424 34.4103L46.0008 34.3023L45.9759 34.3854C45.9759 34.3854 45.926 34.5017 46.0008 34.6264C46.1006 34.7926 46.3499 34.8923 46.7488 34.9339V34.9422C46.7372 34.942 46.7257 34.9449 46.7156 34.9505L46.6989 34.9671V35.0004C46.7156 35.0419 46.7571 35.0419 46.8485 35.0419L46.9067 35.0502L46.9566 35.0668L46.9483 35.0585C47.0314 35.0585 47.1394 35.0835 47.2475 35.125L47.1643 35.1416L47.2558 35.1832C47.2641 35.1832 47.9788 35.4741 48.2697 35.7068C48.1866 35.7816 47.8292 36.0392 47.2142 35.8896L47.1145 35.8647L47.181 35.9478C47.181 35.9478 47.5882 36.4132 47.6713 36.6958C47.53 36.6958 46.9898 36.6958 46.7987 36.5295L46.7571 36.5711C46.7571 36.5711 47.0064 36.9534 47.0729 37.2443C46.9898 37.2609 46.8236 37.2692 46.7156 37.1279L46.6657 37.0697L46.6408 37.236C46.5909 37.1944 46.5244 37.1445 46.5244 37.078V37.0448L46.3748 37.0697L46.059 36.8786C46.0429 36.8668 46.0263 36.8557 46.0092 36.8453L45.9759 36.9035L46.0258 36.9285C46.0923 36.9783 46.2086 37.0697 46.2169 37.2027H46.0175V37.2443C46.0175 37.2692 46.0175 37.3606 45.9427 37.5518C45.8512 37.5351 45.5022 37.4105 45.2944 36.8204L45.2279 36.837V36.8537C45.2279 36.9118 45.2113 37.0448 45.0285 37.0947L44.4883 37.2609C44.5356 37.1928 44.559 37.111 44.5548 37.0282V36.9617C44.5446 36.8901 44.5391 36.8179 44.5381 36.7456C44.5381 36.621 44.5631 36.5462 44.6545 36.4963L44.6213 36.4298C44.6129 36.4298 43.8234 36.7539 43.4328 36.621C43.4494 36.5378 43.5159 36.2719 43.6489 35.9893L43.6323 36.006C43.6572 35.9893 43.6821 35.9561 43.6572 35.8231V35.7816L43.6157 35.7982C43.6157 35.7982 43.3663 35.9145 43.0007 35.7816C43.0007 35.7483 43.0256 35.6985 43.1004 35.6652L43.1253 35.6569V35.5904C43.1253 35.4907 43.1336 35.258 43.2749 35.2081L43.2583 35.1416C43.2583 35.1416 42.8344 35.1749 42.5768 35.0336C42.6881 34.9536 42.8159 34.8996 42.9508 34.8757H42.9757V34.8425C42.9746 34.7766 42.9605 34.7117 42.9342 34.6513C43.0339 34.6846 43.1503 34.7095 43.1918 34.6762L43.2084 34.6679L43.1918 34.4103H43.1253L43.1336 34.6264L42.8843 34.5682L42.7846 34.535L42.8511 34.6181C42.8913 34.6766 42.9117 34.7465 42.9092 34.8175C42.7584 34.8501 42.6166 34.9153 42.4937 35.0087L42.4521 35.0419L42.4937 35.0668C42.6932 35.1998 43.0007 35.2164 43.1586 35.2081C43.0878 35.32 43.0503 35.4497 43.0505 35.5821V35.6154C43.0175 35.6347 42.9891 35.6611 42.9676 35.6927C42.946 35.7243 42.9318 35.7604 42.9259 35.7982V35.8231L42.9425 35.8314C43.1486 35.9263 43.3826 35.9411 43.599 35.873V35.9478C43.4328 36.2968 43.3497 36.6376 43.3497 36.6376V36.6708H43.3746C43.6988 36.8038 44.2639 36.6293 44.5215 36.5378C44.4883 36.596 44.4634 36.6625 44.4634 36.7456C44.4644 36.8403 44.4727 36.9348 44.4883 37.0282C44.4883 37.2193 44.3636 37.2941 44.3553 37.2941L44.3802 37.3606L45.0451 37.1612C45.1947 37.1196 45.2529 37.0282 45.2778 36.9534C45.5354 37.5684 45.9427 37.6182 45.9676 37.6266H45.9925L46.0008 37.6016C46.0448 37.4955 46.0728 37.3835 46.0839 37.2692C46.1504 37.2666 46.2169 37.2638 46.2834 37.2609V37.2193C46.2834 37.1612 46.2751 37.1113 46.2502 37.0697L46.3665 37.1362L46.4746 37.1196C46.4995 37.2276 46.6325 37.3191 46.6491 37.3274L46.6906 37.3523L46.7156 37.211C46.8818 37.3523 47.1062 37.3107 47.1228 37.3107L47.1477 37.3024V37.2692C47.1145 37.0448 46.9649 36.7789 46.8735 36.6376C47.1643 36.7705 47.6962 36.7622 47.7212 36.7622H47.7544V36.7207C47.6449 36.4457 47.4873 36.1924 47.289 35.9727C47.9705 36.0974 48.3362 35.74 48.3528 35.7234L48.3777 35.6985L48.3445 35.6818C48.0458 35.4684 47.722 35.2926 47.3804 35.1583L47.4552 35.1416L47.3721 35.1001C47.2228 35.0239 47.0577 34.984 46.8901 34.9837C46.807 34.884 46.7654 34.8757 46.7571 34.8674C46.2917 34.8175 46.1255 34.6929 46.059 34.5931V34.5682L46.0756 34.5433C46.1172 34.4851 46.1338 34.4103 46.1338 34.3272C46.1338 34.1111 46.0258 33.8701 46.0258 33.8618L45.9593 33.8867V33.8867Z" fill="black"/>
<path id="Vector_16" d="M43.84 33.7538C43.84 33.7538 43.7901 34.0031 43.574 34.1277C43.4078 34.2108 43.2001 34.2108 42.9424 34.1028L42.9092 34.0945V34.1277C42.9277 34.2347 42.9874 34.3302 43.0754 34.3937C43.1834 34.4768 43.3497 34.51 43.5657 34.4934C43.4909 34.5765 43.2665 34.8591 43.2665 35.1417V35.1832C43.2998 35.1998 43.6488 35.2996 43.8151 35.0918C43.8151 35.1749 43.8483 35.4658 43.9563 35.5738C44.0228 35.6403 44.0394 35.7234 44.0394 35.7982C44.0394 35.8647 44.0228 35.9146 44.0228 35.9146L44.0062 35.9644L44.0478 35.9312C44.0644 35.9229 44.3885 35.6819 44.4882 35.3744C44.4882 35.3744 44.5464 35.2912 44.6461 35.2663V35.3079C44.6461 35.4325 44.696 35.6486 45.045 35.7816L45.07 35.7899V35.765C45.069 35.7456 45.069 35.7262 45.07 35.7068C45.07 35.6154 45.07 35.4575 45.1614 35.3744C45.1982 35.3402 45.2229 35.295 45.2319 35.2455C45.2409 35.1961 45.2337 35.1451 45.2113 35.1001C45.2861 35.1167 45.4523 35.1749 45.5188 35.2996C45.6185 35.4824 45.9592 35.3328 45.9758 35.3328L45.9675 35.2912C45.9675 35.2912 45.8179 35.3245 45.7265 35.2663C45.7074 35.2513 45.6916 35.2325 45.6801 35.211C45.6687 35.1895 45.6618 35.1659 45.66 35.1417L45.6434 34.9422C45.6434 34.8591 45.6268 34.8009 45.5852 34.7594C45.6268 34.7594 45.7182 34.7594 45.7515 34.8425C45.8179 34.9754 46.0257 34.9837 46.034 34.9837L46.1088 34.9921L46.0506 34.9505C46.0506 34.9505 45.8678 34.8342 45.901 34.6763L45.926 34.5599C45.9759 34.3521 46.059 34.0114 45.9842 33.7953L45.9509 33.8119C45.9675 33.8618 45.9758 33.9283 45.9758 33.9948C45.9758 34.1776 45.9177 34.4103 45.8927 34.5516L45.8595 34.6679C45.8582 34.6818 45.8582 34.6957 45.8595 34.7095C45.8595 34.8175 45.9177 34.8923 45.9675 34.9339C45.9094 34.9256 45.8263 34.8923 45.8013 34.8258C45.7431 34.7095 45.6102 34.7095 45.552 34.7178L45.5021 34.7261L45.5354 34.7594C45.5936 34.7926 45.6019 34.8425 45.6019 34.9505L45.6185 35.1417C45.6268 35.2081 45.66 35.258 45.7016 35.2912C45.7515 35.3245 45.8013 35.3245 45.8429 35.3328C45.7431 35.3577 45.6019 35.3744 45.552 35.2829C45.4606 35.1001 45.1946 35.0585 45.1863 35.0502H45.1448L45.1614 35.0835C45.1614 35.0835 45.1946 35.1333 45.1946 35.1998C45.1946 35.2414 45.178 35.2996 45.1365 35.3411C45.045 35.4325 45.0284 35.6071 45.0284 35.6985V35.7317C44.7292 35.6071 44.6794 35.4242 44.6794 35.3162V35.2331L44.696 35.2081H44.6628C44.619 35.2156 44.5775 35.2329 44.5415 35.2588C44.5055 35.2848 44.4759 35.3186 44.455 35.3577C44.3724 35.5609 44.2376 35.7386 44.0644 35.873C44.0692 35.8455 44.0719 35.8178 44.0727 35.7899C44.0727 35.7151 44.0561 35.6237 43.9896 35.5489C43.8649 35.4325 43.8483 35.0502 43.8483 35.0502V34.9837L43.8151 35.0419C43.6821 35.2746 43.2998 35.1583 43.2915 35.1583C43.2749 34.8674 43.6239 34.4851 43.6239 34.4768L43.6571 34.4436H43.6073C43.3829 34.4768 43.2084 34.4436 43.092 34.3604C43.026 34.3078 42.9792 34.2347 42.959 34.1527C43.2084 34.2441 43.4244 34.2524 43.5907 34.161C43.6625 34.1173 43.7247 34.0594 43.7733 33.9908C43.8219 33.9222 43.8559 33.8443 43.8732 33.7621C44.1226 33.2136 44.3303 33.1221 44.3303 33.1221L44.322 33.0889C44.3054 33.0889 44.0893 33.172 43.84 33.7538V33.7538Z" fill="black"/>
<path id="Vector_17" d="M44.3967 32.931H44.3801L44.1807 33.2052H44.2388C44.859 33.2541 45.4405 33.5257 45.8761 33.9698L45.901 33.9948L46.0921 33.787L46.0755 33.7621C45.5353 32.9144 44.4051 32.931 44.3884 32.931H44.3967ZM44.4134 33.0058C44.5463 33.0058 45.5104 33.0307 46.009 33.7787L45.901 33.895C45.4625 33.4784 44.8986 33.2183 44.297 33.1554C44.3357 33.1054 44.3745 33.0556 44.4134 33.0058V33.0058Z" fill="black"/>
<path id="Vector_18" d="M44.2389 33.4961C44.1495 33.6131 44.0896 33.7499 44.0644 33.895L44.0727 33.9283C44.015 33.9889 43.9704 34.0608 43.9418 34.1394C43.9132 34.2181 43.9012 34.3018 43.9065 34.3854C43.9065 34.4934 43.9231 34.6014 43.9564 34.7012L43.9813 34.7594C44.081 35.0419 44.1724 35.2912 44.6295 35.1416C45.0617 35.0087 45.0783 34.9754 45.1864 34.7926L45.2196 34.751C45.2778 34.6513 45.3443 34.6347 45.4108 34.6098C45.4939 34.5848 45.577 34.5599 45.6601 34.4103L45.7266 34.3023C45.8097 34.1942 45.9094 34.0529 45.9177 33.8867H45.8845C45.8597 34.031 45.7966 34.1659 45.7016 34.2773L45.6185 34.3937C45.6004 34.4396 45.5712 34.4804 45.5335 34.5123C45.4958 34.5442 45.4507 34.5662 45.4024 34.5765C45.358 34.585 45.3158 34.6027 45.2786 34.6284C45.2413 34.6542 45.2099 34.6875 45.1864 34.7261L45.1531 34.776C45.0534 34.9505 45.0368 34.9754 44.6129 35.1084C44.1974 35.2414 44.1143 35.0336 44.0145 34.7427L43.9896 34.6846C43.8733 34.3687 43.9647 34.0529 44.1226 33.9366L44.1724 33.895L44.0977 33.9033V33.895C44.0977 33.8369 44.1558 33.679 44.2639 33.5211C44.3636 33.3881 44.5963 33.2634 44.5963 33.2551L44.5797 33.2219C44.5631 33.2302 44.3387 33.3631 44.2389 33.4961V33.4961Z" fill="black"/>
<path id="Vector_19" d="M44.0393 34.6513C44.1141 34.7012 44.2138 34.6929 44.3468 34.6513C44.3468 34.6929 44.3468 34.7926 44.4299 34.8591C44.5296 34.9422 44.6792 34.9588 44.887 34.909V34.8674C44.6875 34.9173 44.5379 34.9007 44.4548 34.8259C44.4284 34.8002 44.408 34.769 44.395 34.7345C44.3821 34.7 44.377 34.6631 44.38 34.6264V34.5932L44.3551 34.6098C44.2304 34.6596 44.1307 34.6679 44.0559 34.6098C43.9312 34.5267 43.9396 34.3023 43.9396 34.3023H43.9063C43.9063 34.3023 43.8897 34.5516 44.0393 34.6513V34.6513Z" fill="black"/>
<path id="Vector_20" d="M44.2722 34.3438C44.2223 34.3605 44.2057 34.402 44.2057 34.4353V34.4602C44.2223 34.5599 44.3304 34.6264 44.4218 34.6513C44.5215 34.6763 44.6379 34.6846 44.6794 34.6264C44.696 34.6015 44.7127 34.5599 44.6794 34.4851C44.6437 34.415 44.5824 34.3612 44.5081 34.3349C44.4339 34.3086 44.3524 34.3118 44.2805 34.3438H44.2722ZM44.4384 34.6181C44.3553 34.5932 44.2556 34.535 44.2473 34.4519C44.2473 34.4519 44.239 34.3937 44.2888 34.3771C44.353 34.351 44.4247 34.3503 44.4895 34.375C44.5542 34.3996 44.6072 34.4479 44.6379 34.51C44.6628 34.5433 44.6628 34.5765 44.6462 34.5932C44.6212 34.6347 44.5298 34.643 44.4384 34.6181V34.6181ZM44.4052 34.8425C44.3802 35.0502 44.4052 35.0586 44.4135 35.0586H44.4301L44.4467 35.0502L44.5631 34.884L44.4135 34.8175V34.8425H44.4052ZM44.4467 34.8757L44.5049 34.9007L44.4384 34.9921V34.8757H44.4467ZM44.0977 34.6763L44.0894 34.8674L44.2556 34.668L44.0894 34.6513V34.6763H44.0977ZM44.1309 34.6929H44.1808L44.1309 34.7594V34.6929Z" fill="black"/>
<path id="Vector_21" d="M43.9815 34.6098C43.9815 34.6098 44.1061 34.8508 44.1311 34.9422C44.1394 34.9921 44.2142 35.0586 44.2973 35.0835C44.3804 35.1167 44.4635 35.1167 44.5217 35.0752L44.6297 34.9838C44.663 34.9422 44.6796 34.9339 44.7128 34.9422V34.9006C44.663 34.9006 44.638 34.9173 44.6048 34.9505L44.4968 35.0336C44.4303 35.0835 44.3555 35.0669 44.3139 35.0502C44.2308 35.0253 44.1726 34.9671 44.1643 34.9256C44.1394 34.8425 44.023 34.6015 44.0147 34.5932L43.9815 34.6098V34.6098ZM44.1477 33.895C44.054 33.9444 43.9826 34.0276 43.9482 34.1277L43.9815 34.1361C43.9815 34.1361 44.0397 33.9865 44.156 33.9283C44.1873 33.9141 44.2213 33.9067 44.2557 33.9067C44.2901 33.9067 44.3242 33.9141 44.3555 33.9283L44.3638 33.895C44.2807 33.8618 44.2142 33.8618 44.1394 33.895H44.1477ZM45.0453 34.3272C45.0619 34.3272 45.3112 34.5267 45.1699 34.7594L45.1949 34.7843C45.3611 34.51 45.0702 34.294 45.0702 34.2857L45.0453 34.3272ZM44.2807 34.3605C44.2807 34.3605 44.2391 34.5017 44.4469 34.5516C44.4469 34.5516 44.2557 34.5516 44.2391 34.5017C44.2308 34.4519 44.2391 34.3438 44.2807 34.3605V34.3605ZM44.904 34.5267C44.904 34.5433 44.8874 34.5516 44.879 34.5516C44.8737 34.5519 44.8683 34.5504 44.8638 34.5475C44.8593 34.5445 44.8559 34.5401 44.8541 34.535C44.8541 34.5184 44.8624 34.51 44.879 34.51C44.8874 34.51 44.904 34.5184 44.904 34.535V34.5267ZM44.9206 34.6264C44.9206 34.6347 44.9206 34.643 44.904 34.643C44.8986 34.6433 44.8932 34.6419 44.8887 34.6389C44.8842 34.6359 44.8808 34.6315 44.879 34.6264C44.879 34.6198 44.8817 34.6134 44.8864 34.6088C44.891 34.6041 44.8974 34.6015 44.904 34.6015C44.9123 34.6015 44.9206 34.6098 44.9206 34.6264Z" fill="black"/>
<path id="Vector_22" d="M44.771 34.6014C44.7848 34.6014 44.796 34.5903 44.796 34.5765C44.796 34.5627 44.7848 34.5516 44.771 34.5516C44.7573 34.5516 44.7461 34.5627 44.7461 34.5765C44.7461 34.5903 44.7573 34.6014 44.771 34.6014Z" fill="black"/>
<path id="Vector_23" d="M44.8372 34.7095C44.8372 34.7161 44.8346 34.7225 44.8299 34.7271C44.8252 34.7318 44.8189 34.7344 44.8123 34.7344C44.8057 34.7344 44.7993 34.7318 44.7946 34.7271C44.79 34.7225 44.7873 34.7161 44.7873 34.7095C44.7873 34.7012 44.7956 34.6929 44.8123 34.6929L44.8372 34.7095V34.7095ZM44.2471 34.1028C44.2471 34.1094 44.2445 34.1158 44.2398 34.1205C44.2352 34.1251 44.2288 34.1278 44.2222 34.1278C44.2156 34.1278 44.2092 34.1251 44.2046 34.1205C44.1999 34.1158 44.1973 34.1094 44.1973 34.1028C44.1995 34.0994 44.2026 34.0966 44.2063 34.0946C44.2099 34.0927 44.2139 34.0917 44.218 34.0917C44.2222 34.0917 44.2262 34.0927 44.2298 34.0946C44.2335 34.0966 44.2365 34.0994 44.2388 34.1028H44.2471Z" fill="black"/>
<path id="Vector_24" d="M44.2388 34.2192C44.2526 34.2192 44.2637 34.208 44.2637 34.1942C44.2637 34.1805 44.2526 34.1693 44.2388 34.1693C44.225 34.1693 44.2139 34.1805 44.2139 34.1942C44.2139 34.208 44.225 34.2192 44.2388 34.2192Z" fill="black"/>
<path id="Vector_25" d="M44.1143 34.1776C44.1281 34.1776 44.1392 34.1664 44.1392 34.1527C44.1392 34.1389 44.1281 34.1277 44.1143 34.1277C44.1005 34.1277 44.0894 34.1389 44.0894 34.1527C44.0894 34.1664 44.1005 34.1776 44.1143 34.1776Z" fill="black"/>
<path id="Vector_26" d="M44.1724 34.2856C44.1727 34.291 44.1713 34.2964 44.1683 34.3009C44.1653 34.3054 44.1609 34.3088 44.1558 34.3106C44.1492 34.3106 44.1428 34.3079 44.1382 34.3033C44.1335 34.2986 44.1309 34.2922 44.1309 34.2856C44.1309 34.279 44.1335 34.2727 44.1382 34.268C44.1428 34.2633 44.1492 34.2607 44.1558 34.2607C44.1609 34.2625 44.1653 34.2659 44.1683 34.2704C44.1713 34.2749 44.1727 34.2802 44.1724 34.2856V34.2856ZM44.5713 33.4878C44.5713 33.4878 44.8622 33.6706 44.5796 34.0114C44.5796 34.0114 44.7209 33.9033 44.7292 33.7288C44.7459 33.5543 44.6295 33.413 44.563 33.4878H44.5713ZM45.6933 33.9781C45.5936 34.028 45.4606 33.9366 45.3941 33.8535C45.3276 33.7704 45.1863 33.7454 45.0949 33.9033C45.0118 34.0529 44.8871 34.1111 44.8871 34.1111C44.8871 34.1111 45.0118 34.0446 45.1365 33.9033C45.2611 33.7704 45.3359 33.8784 45.4606 33.9449C45.5769 34.0114 45.6019 34.028 45.685 33.9864V33.9781H45.6933Z" fill="black"/>
<path id="Vector_27" d="M45.6683 34.0031C45.6418 34.0236 45.6089 34.034 45.5754 34.0325C45.5419 34.031 45.51 34.0176 45.4855 33.9948C45.4024 33.9283 45.3442 33.8452 45.2528 33.895C45.153 33.9449 44.9785 34.0779 44.9785 34.0779C44.9785 34.0779 45.2694 33.8784 45.3276 33.9283C45.3774 33.9698 45.5104 34.0779 45.5852 34.0446L45.6683 34.0031V34.0031Z" fill="black"/>
<path id="Vector_28" d="M45.4438 34.1194C45.3524 34.0529 45.261 34.2025 45.1862 34.1859C45.1031 34.1693 45.0449 34.0363 45.0449 34.0363C45.0449 34.0363 45.1114 34.1693 45.2111 34.1444C45.3192 34.1111 45.3857 34.0446 45.4522 34.0945C45.5103 34.1444 45.4438 34.1194 45.4438 34.1194V34.1194Z" fill="black"/>
<path id="Vector_29" d="M45.303 34.1444C45.2792 34.1492 45.2547 34.1488 45.2311 34.1432C45.2076 34.1376 45.1855 34.1269 45.1665 34.1118C45.1475 34.0968 45.132 34.0778 45.1211 34.0561C45.1102 34.0345 45.1042 34.0107 45.1035 33.9865C45.1035 33.9865 45.1617 34.136 45.3196 34.1111L45.303 34.1444Z" fill="black"/>
<path id="Vector_30" d="M45.2944 34.028C45.3027 34.0696 45.3027 34.0945 45.2528 34.0945C45.2029 34.0945 45.1697 34.0779 45.1697 34.028C45.1697 33.9865 45.286 33.9948 45.2944 34.028ZM44.6461 33.7787C44.6441 33.7926 44.6371 33.8054 44.6264 33.8146C44.6157 33.8237 44.602 33.8287 44.5879 33.8286C44.5547 33.8286 44.5464 33.8119 44.5464 33.7787C44.5464 33.7455 44.5464 33.7205 44.5879 33.7205C44.6295 33.7205 44.6461 33.7455 44.6461 33.7787Z" fill="black"/>
<path id="Vector_31" d="M44.4382 33.5709C44.4382 33.5709 44.7541 33.5709 44.6045 33.9615C44.6045 33.9615 44.7208 33.7704 44.646 33.6291C44.5629 33.4961 44.4549 33.5294 44.4549 33.5294C44.4549 33.5294 44.4216 33.5543 44.4382 33.5709Z" fill="black"/>
<path id="Vector_32" d="M44.4385 33.7288C44.4385 33.8119 44.4883 33.8867 44.5881 33.9698L44.613 33.9366C44.5216 33.8618 44.4717 33.7953 44.4717 33.7288C44.4717 33.6623 44.5216 33.6208 44.5216 33.6208L44.4967 33.5959C44.4967 33.5959 44.4385 33.6457 44.4302 33.7288H44.4385Z" fill="black"/>
<path id="Vector_33" d="M44.5047 33.7953C44.5131 33.8369 44.5546 33.8784 44.6045 33.8951L44.6211 33.8618C44.5795 33.8452 44.5463 33.8119 44.538 33.7787C44.5214 33.7122 44.5712 33.6374 44.5712 33.6374L44.538 33.6125C44.538 33.6125 44.4798 33.7122 44.5047 33.7953V33.7953ZM44.9286 34.0114C44.9286 34.0114 44.9868 34.1361 44.9037 34.269L44.8206 34.402C44.8206 34.402 44.9203 34.2109 44.8787 34.1361C44.8455 34.053 44.9286 34.0114 44.9286 34.0114V34.0114ZM46.142 35.3245C46.4578 35.3827 47.1808 35.9478 47.1808 35.9478L47.2224 35.8979C47.1974 35.873 46.4827 35.3162 46.1503 35.258L46.1337 35.3245H46.142ZM46.4245 36.114C46.4412 36.4049 46.757 36.5794 46.757 36.5877L46.7985 36.5296C46.7985 36.5296 46.5076 36.3633 46.491 36.114H46.4245ZM45.6516 36.1805C45.6516 36.4963 45.9508 36.8786 45.9674 36.8952L46.0173 36.8537C46.0173 36.8537 45.7181 36.4714 45.7181 36.1805H45.6516ZM44.646 36.2138C44.6959 36.3218 44.6959 36.3717 44.6793 36.3966C44.6627 36.4298 44.6294 36.4298 44.6294 36.4298L44.6377 36.4963C44.6627 36.4963 44.7125 36.4797 44.7374 36.4298C44.7707 36.3717 44.7624 36.2886 44.7042 36.1805L44.646 36.2138Z" fill="black"/>
</g>
<g id="Group_5">
<path id="Vector_34" d="M40.1209 34.6375C40.1209 34.6375 40.1209 34.85 40.2959 34.975C40.2959 34.975 40.2709 34.75 40.3209 34.65C40.3209 34.65 40.2334 34.55 40.1084 34.65L40.1209 34.6375ZM40.4459 34.775C40.4459 34.775 40.4834 34.9625 40.5959 35.05L40.6584 35.0375C40.6584 35.0375 40.6959 34.7875 40.7334 34.7625C40.7709 34.7375 40.5709 34.85 40.4459 34.775Z" fill="#F5F5F5" stroke="black" stroke-width="0.025" stroke-miterlimit="3"/>
<path id="Vector_35" d="M40.7332 34.7625L40.8582 34.9625L41.0082 34.8875L40.9707 34.65C40.9707 34.65 40.8832 34.625 40.7207 34.775L40.7332 34.7625Z" fill="#F5F5F5" stroke="black" stroke-width="0.025" stroke-miterlimit="3"/>
<path id="Vector_36" d="M41.3209 34.8L41.1584 34.9375C41.1584 34.9375 41.0709 34.875 40.9959 34.8875L41.0334 34.675C41.0334 34.675 41.1584 34.5875 41.3209 34.8V34.8ZM40.1459 36.8C40.1459 36.8 40.1209 36.5125 40.1584 36.4875C40.1584 36.4875 40.2834 36.525 40.3209 36.4875C40.3209 36.4875 40.3959 36.725 40.3709 36.8125C40.3584 36.9125 40.2459 36.875 40.1459 36.8125V36.8ZM40.8959 36.5C40.8959 36.5 40.8959 36.25 40.9334 36.2125C40.9334 36.2125 41.1834 36.25 41.2334 36.125L41.3209 36.3625C41.3209 36.3625 41.0459 36.3375 40.8959 36.4875V36.5Z" fill="#F5F5F5" stroke="black" stroke-width="0.025" stroke-miterlimit="3"/>
<path id="Vector_37" d="M40.6334 36.55C40.6334 36.55 40.6834 36.2875 40.7334 36.275C40.7334 36.275 40.8584 36.3125 40.8959 36.275V36.5875C40.8959 36.5875 40.8959 36.45 40.6459 36.55H40.6334ZM40.3584 36.5875C40.3584 36.5875 40.4084 36.35 40.4459 36.35C40.4834 36.35 40.5834 36.4125 40.6334 36.375V36.55C40.6334 36.55 40.4209 36.5 40.3834 36.8L40.3584 36.5875Z" fill="#F5F5F5" stroke="black" stroke-width="0.025" stroke-miterlimit="3"/>
</g>
</g>
<g id="Group_6">
<path id="Vector_38" d="M44.1209 41.4C44.1209 41.4 44.7834 42.025 44.6209 42.55C44.6209 42.55 45.0334 41.6375 44.5834 41.375C44.1209 41.1 44.1084 41.3125 44.1209 41.4Z" fill="#00A651" stroke="black" stroke-width="0.0625" stroke-miterlimit="4.8"/>
<path id="Vector_39" d="M43.2957 42C43.2957 42 43.1207 42.2375 43.3082 42.4C43.3082 42.4 43.1082 42.7 43.2582 42.95C43.2582 42.95 43.1332 43.2125 43.1707 43.5C43.1707 43.5 43.0582 43.9375 43.2957 44.1375C43.2957 44.1375 43.5457 44.2625 43.6582 44.1625C43.6582 44.1625 43.8707 43.825 43.7332 43.4875C43.7332 43.4875 43.8957 43.2 43.7207 42.85C43.7207 42.85 43.7707 42.6375 43.6207 42.4C43.6207 42.4 43.7207 42.25 43.6332 42.125C43.6332 42.125 43.3207 41.8 43.2957 42V42Z" fill="#964B36" stroke="black" stroke-width="0.0625" stroke-miterlimit="4.8"/>
<path id="Vector_40" d="M43.4833 41.225C43.4833 41.225 42.6958 39.725 42.1458 39.6625C41.6083 39.6 41.5708 39.0625 41.5708 39.0625C41.5708 39.0625 41.6333 39.3125 42.0708 39.3125C42.5083 39.3125 43.3583 39.9375 43.4458 40.4C43.5458 40.875 43.6333 40.8125 43.6333 40.8125L43.4833 41.225Z" fill="#00A651" stroke="black" stroke-width="0.0625" stroke-miterlimit="4.8"/>
<path id="Vector_41" d="M43.4832 41.125C43.4832 41.125 43.7707 39.225 45.0082 39.1875C46.2457 39.15 45.8332 39.2875 46.1332 39.0875C46.1332 39.0875 45.2957 39.525 44.7832 39.5875C44.2707 39.65 43.8457 40.65 43.8582 40.8375C43.8707 41.025 43.5832 41.3875 43.4332 41.2625C43.2957 41.1375 43.4832 41.125 43.4832 41.125V41.125Z" fill="#00A651" stroke="black" stroke-width="0.0625" stroke-miterlimit="4.8"/>
<path id="Vector_42" d="M43.7582 41.825C43.7582 41.825 44.0457 41.075 44.5332 41.325C44.5332 41.325 44.1582 40.6 43.4832 41.225C43.4832 41.225 43.7832 41.6375 43.7707 41.825H43.7582ZM42.8207 41.075C42.8207 41.075 43.2457 42.75 42.6207 43.25C42.6207 43.25 42.6332 42.3875 42.2582 41.875C41.8832 41.3625 42.6332 40.8 42.8332 41.0625L42.8207 41.075Z" fill="#00A651" stroke="black" stroke-width="0.0625" stroke-miterlimit="4.8"/>
<path id="Vector_43" d="M42.8706 41.375C42.8706 41.375 43.6206 42.075 43.6581 42.3125C43.7081 42.55 43.8706 41.6125 43.5331 41.3375C43.3188 41.1787 43.0707 41.0717 42.8081 41.025L42.8706 41.375Z" fill="#00A651" stroke="black" stroke-width="0.0625" stroke-miterlimit="4.8"/>
<path id="Vector_44" d="M41.5083 43.225C41.5083 43.225 41.5833 43.5125 41.7583 43.575C41.7583 43.575 41.7708 43.7875 41.9333 43.8625C41.9333 43.8625 41.8458 44.0375 41.9958 44.15C41.9958 44.15 41.9583 44.525 42.0958 44.6C42.0958 44.6 42.4208 44.575 42.5333 44.475C42.5333 44.475 42.6083 44.2375 42.4208 44C42.4208 44 42.4458 43.775 42.2708 43.65C42.2708 43.65 42.3208 43.3375 42.0958 43.225C42.0958 43.225 42.0583 42.975 41.9208 42.85C41.9208 42.85 41.6333 43.25 41.5083 43.225V43.225Z" fill="#964B36" stroke="black" stroke-width="0.0625" stroke-miterlimit="4.8"/>
<path id="Vector_45" d="M41.8706 42.8625C41.8706 42.8625 40.9081 42.5 40.3706 43.0125C40.3706 43.0125 41.1956 43.125 41.3081 43.2875C41.4081 43.45 41.9206 43.025 41.8831 42.8625H41.8706Z" fill="#00A651" stroke="black" stroke-width="0.0625" stroke-miterlimit="4.8"/>
<path id="Vector_46" d="M41.5833 43.4625L41.4083 43.325C41.3083 43.2625 40.4958 43.0375 40.3833 43.825C40.3833 43.825 40.0958 43.05 40.5208 42.95C40.9458 42.825 41.2958 43.075 41.5833 43.45V43.4625ZM40.9458 41.8625C40.9458 41.8625 41.2458 42.4875 41.3583 42.5375C41.4583 42.5625 41.5458 42.45 41.5458 42.45C41.5458 42.45 41.1458 41.875 40.9458 41.8625ZM40.7208 40.8625C40.7208 40.8625 40.4708 40.0375 40.1833 40.2625C39.8833 40.475 39.9583 41.075 39.9583 41.075C39.9583 41.075 39.3583 40.4625 39.7083 39.975C40.0583 39.4875 40.7333 40.025 40.7333 40.875L40.7208 40.8625Z" fill="#00A651" stroke="black" stroke-width="0.0625" stroke-miterlimit="4.8"/>
<path id="Vector_47" d="M41.396 42.575C41.396 42.575 41.396 42.7375 41.521 42.775C41.621 42.825 41.821 42.9 41.821 42.8125C41.821 42.725 41.671 42.3625 41.6085 42.4C41.546 42.45 41.4335 42.45 41.396 42.575Z" fill="#964B36" stroke="black" stroke-width="0.0625" stroke-miterlimit="4.8"/>
<g id="Vector_48">
<path d="M41.2082 41.6125C41.2082 41.6125 41.1832 40.8875 41.6457 40.6125C41.6457 40.6125 41.7457 40.6375 41.7957 40.4875C41.7957 40.4875 41.4207 41.4 41.5207 41.8625V41.925" fill="#00A651"/>
<path d="M41.2082 41.6125C41.2082 41.6125 41.1832 40.8875 41.6457 40.6125C41.6457 40.6125 41.7457 40.6375 41.7957 40.4875C41.7957 40.4875 41.4207 41.4 41.5207 41.8625V41.925" stroke="black" stroke-width="0.0625" stroke-miterlimit="4.8"/>
</g>
<path id="Vector_49" d="M41.3081 40.725C41.3081 40.725 42.1581 38.975 43.1831 39.5875C43.1831 39.5875 42.1081 39.8 41.7206 40.575L41.3206 41.15L41.3081 40.725Z" fill="#00A651" stroke="black" stroke-width="0.0625" stroke-miterlimit="4.8"/>
<g id="Vector_50">
<path d="M40.8585 41.375C40.8585 41.375 40.6085 40.2 40.446 40.0375C40.2835 39.8875 40.021 39.7125 39.7085 39.975C39.7085 39.975 40.2585 39.4875 40.8335 39.9C41.421 40.3125 41.296 40.95 41.296 40.95L41.2335 41.7625L40.8335 41.4" fill="#00A651"/>
<path d="M40.8585 41.375C40.8585 41.375 40.6085 40.2 40.446 40.0375C40.2835 39.8875 40.021 39.7125 39.7085 39.975C39.7085 39.975 40.2585 39.4875 40.8335 39.9C41.421 40.3125 41.296 40.95 41.296 40.95L41.2335 41.7625L40.8335 41.4" stroke="black" stroke-width="0.0625" stroke-miterlimit="4.8"/>
</g>
<path id="Vector_51" d="M41.7581 42.7625C41.7581 42.7625 40.7206 40.8125 40.0581 42.2C40.0581 42.2 39.9331 42.5625 40.0581 42.7C40.0581 42.7 39.6831 42.425 39.8581 41.725C40.0331 41.05 41.1831 41.35 41.5081 41.925C41.8331 42.4875 41.9331 42.7625 41.8831 42.8C41.8331 42.825 41.7581 42.7625 41.7581 42.7625V42.7625ZM44.6706 43.325C44.6706 43.325 45.4206 41.775 45.8706 42.4875C45.8706 42.4875 45.9956 42.825 45.7956 42.975C45.7956 42.975 45.5081 42.6 45.2331 43.05C44.9831 43.4875 45.0831 43.45 45.0831 43.45C45.0831 43.45 44.7956 43.5375 44.6706 43.325Z" fill="#00A651" stroke="black" stroke-width="0.0625" stroke-miterlimit="4.8"/>
<path id="Vector_52" d="M45.7959 42.975C45.7959 42.975 46.2084 43.1875 46.0709 43.625C46.0709 43.625 46.6209 42.575 45.8584 42.4875C45.8584 42.4875 46.0084 42.8125 45.8084 42.975H45.7959ZM45.8459 41.9C45.8459 41.9 46.8459 42.1875 46.8709 42.6125C46.8709 42.6125 47.0334 41.8 46.4709 41.55C46.4709 41.55 45.7959 41.65 45.8459 41.9Z" fill="#00A651" stroke="black" stroke-width="0.0625" stroke-miterlimit="4.8"/>
<g id="Vector_53">
<path d="M46.2835 40.6C46.7085 39.775 47.246 40.875 47.246 40.875C47.246 40.875 47.4335 40 46.896 39.85C46.3585 39.7 46.021 41.6875 46.021 41.6875L45.396 41.825C45.396 41.825 45.571 40.0875 46.5085 39.925L46.621 39.95" fill="#00A651"/>
<path d="M46.2835 40.6C46.7085 39.775 47.246 40.875 47.246 40.875C47.246 40.875 47.4335 40 46.896 39.85C46.3585 39.7 46.021 41.6875 46.021 41.6875L45.396 41.825C45.396 41.825 45.571 40.0875 46.5085 39.925L46.621 39.95" stroke="black" stroke-width="0.0625" stroke-miterlimit="4.8"/>
</g>
<path id="Vector_54" d="M45.5335 41.1C45.5335 41.1 44.9335 39.8875 44.5335 39.7625C44.121 39.6375 44.7585 39.45 45.0085 39.675C45.2585 39.925 45.721 40.2125 45.671 40.8375L45.546 41.1H45.5335ZM44.921 42.775C44.921 42.775 45.096 41.95 45.571 41.7C46.0335 41.45 46.471 41.5375 46.471 41.5375C46.471 41.5375 45.9085 41.6625 45.821 41.95C45.721 42.2375 45.571 42.25 45.571 42.25L44.921 42.775V42.775Z" fill="#00A651" stroke="black" stroke-width="0.0625" stroke-miterlimit="4.8"/>
<path id="Vector_55" d="M44.6706 43.325C44.6706 43.325 44.4081 43.825 44.4706 43.9125C44.4706 43.9125 44.1831 44.3125 44.2956 44.525C44.2956 44.525 44.5831 44.7375 44.7081 44.65C44.7081 44.65 45.0331 44.1875 44.9456 43.9375C44.9456 43.9375 45.1581 43.6375 45.0706 43.45C45.0706 43.45 44.7581 43.475 44.6706 43.325Z" fill="#964B36" stroke="black" stroke-width="0.0625" stroke-miterlimit="4.8"/>
<path id="Vector_56" d="M43.2958 42.4375C43.3083 42.4375 43.4708 42.525 43.5833 42.4875L43.6583 42.425L43.5958 42.3875C43.5583 42.4625 43.3833 42.4 43.3208 42.375L43.2958 42.4375V42.4375ZM43.2708 42.925L43.2583 42.9875C43.2708 42.9875 43.5833 43.05 43.7458 42.9125L43.6958 42.8625C43.5708 42.9875 43.2708 42.925 43.2708 42.925ZM43.1833 43.475L43.1458 43.525C43.1458 43.525 43.5208 43.8 43.7708 43.5125L43.7083 43.4625C43.5083 43.7125 43.2083 43.4875 43.1958 43.4625L43.1833 43.475ZM41.7583 43.55V43.5875C41.7833 43.5875 42.0958 43.4625 42.1208 43.225H42.0833C42.0583 43.4375 41.7583 43.55 41.7583 43.55V43.55ZM41.9333 43.8375V43.875C41.9458 43.875 42.2333 43.85 42.2833 43.65H42.2458C42.2083 43.825 41.9333 43.8375 41.9333 43.8375ZM41.9958 44.1375V44.175C41.9958 44.175 42.3333 44.1875 42.4333 44.0125L42.4083 43.9875C42.3083 44.15 41.9958 44.1375 41.9958 44.1375ZM44.4458 43.9375C44.4458 43.9375 44.5958 44.075 44.7583 44.0625C44.7988 44.0617 44.8386 44.0524 44.8752 44.0352C44.9118 44.018 44.9444 43.9932 44.9708 43.9625L44.9208 43.925C44.8777 43.9692 44.8199 43.9959 44.7583 44C44.7084 43.9977 44.6595 43.9854 44.6144 43.964C44.5694 43.9425 44.529 43.9123 44.4958 43.875L44.4458 43.9375Z" fill="black"/>
</g>
<g id="Group_7">
<path id="Vector_57" d="M54.1711 45.075C54.1518 45.0835 54.1347 45.0963 54.1211 45.1125L54.1711 45.075ZM55.3211 44.7875C55.3211 44.7625 55.3086 44.775 55.2961 44.7625L55.2461 44.6625H55.2086L55.1211 44.4875C55.1232 44.4793 55.1232 44.4707 55.1211 44.4625C55.1215 44.4458 55.1215 44.4292 55.1211 44.4125C55.1086 44.4 55.0961 44.4125 55.0836 44.3875V44.3L55.0711 44.25V44.175C55.0728 44.1584 55.0728 44.1416 55.0711 44.125C55.0461 44.075 55.0211 44.0375 55.0211 43.975L55.0336 43.85L55.0086 43.725L55.0336 43.6125V42.95C55.0086 42.9 55.0211 42.8625 55.0086 42.825V42.575L54.9961 42.8875C54.9961 42.6125 54.9711 42.35 54.9711 42.35L54.5586 42.1625C54.5586 42.1625 54.5211 42.925 54.5336 43.0375C54.5336 43.1375 54.5711 43.875 54.5586 43.9625C54.5336 44.05 54.4961 44.4875 54.4961 44.4875C54.4961 44.4875 54.2961 44.6375 54.2086 44.8C54.1336 44.95 54.1461 45.0125 54.1211 45.0125L54.3211 44.975L54.1711 45.075C54.1855 45.0691 54.2012 45.0672 54.2165 45.0694C54.2319 45.0716 54.2464 45.0778 54.2586 45.0875L54.2961 45.1125L54.3211 45.0875L54.4086 45.1375L54.4586 45.1L54.4836 45.05H54.6211C54.6586 45.05 54.6836 45 54.7211 44.9625C54.7586 44.9375 54.7836 44.925 54.8211 44.925C54.8586 44.925 54.8961 44.9625 54.9336 44.975C54.9586 44.975 54.9836 44.975 55.0086 44.9375L55.0461 44.8625H55.2836L55.3211 44.8875L55.3336 44.8375V44.7875H55.3211Z" fill="#964B36" stroke="black" stroke-width="0.0375" stroke-miterlimit="4.8"/>
<g id="Vector_58">
<path d="M54.4836 45.0625L54.5461 45.075L54.5586 45.1C54.5624 45.1022 54.5667 45.1034 54.5711 45.1034C54.5755 45.1034 54.5798 45.1022 54.5836 45.1L54.6211 45.1125H54.6586L54.7086 45.125C54.7336 45.1375 54.7586 45.125 54.7836 45.1125C54.8086 45.0875 54.8211 45.1125 54.8461 45.1375C54.8711 45.1625 54.8711 45.15 54.8836 45.1375C54.8835 45.1334 54.8835 45.1292 54.8836 45.125L54.9211 45.1125L54.9711 45.1L55.0086 45.075L55.0586 45.1C55.0675 45.103 55.0759 45.1072 55.0836 45.1125C55.1086 45.075 55.1586 45.0625 55.1836 45.0375H55.3461C55.3586 45.025 55.3586 45.0125 55.3836 45.0125L55.4711 45.0625C55.4836 45.0625 55.5586 45.0875 55.5461 45.025C55.5461 44.975 55.4961 45.0125 55.4836 44.975V44.9C55.4792 44.8887 55.4725 44.8784 55.4639 44.8697C55.4553 44.8611 55.4449 44.8544 55.4336 44.85H55.3961L55.3711 44.7875C55.3586 44.7875 55.3461 44.8 55.3211 44.7875L55.2961 44.7625C55.2586 44.725 55.2336 44.7875 55.2086 44.775C55.1836 44.775 55.1586 44.7125 55.1336 44.6875C55.1336 44.675 55.0961 44.625 55.0836 44.6375C55.0586 44.65 55.0836 44.7 55.0711 44.725C55.0586 44.7375 55.0211 44.725 55.0211 44.725C54.9961 44.725 54.9961 44.725 54.9836 44.7625C54.9461 44.8 54.9336 44.8375 54.8961 44.8375L54.8336 44.8125C54.8211 44.825 54.8086 44.85 54.7836 44.85C54.7671 44.8534 54.7501 44.8534 54.7336 44.85C54.7086 44.85 54.6961 44.8125 54.6836 44.8C54.6836 44.7967 54.6823 44.7935 54.6799 44.7912C54.6776 44.7888 54.6744 44.7875 54.6711 44.7875C54.6678 44.7875 54.6646 44.7888 54.6623 44.7912C54.6599 44.7935 54.6586 44.7967 54.6586 44.8L54.6336 44.7875C54.6086 44.775 54.6086 44.7875 54.5961 44.8125V44.875L54.5461 44.925L54.4961 44.9375C54.4836 44.9375 54.4586 44.975 54.4461 44.9375C54.4336 44.8875 54.4836 44.8 54.4211 44.8125C54.4211 44.8125 54.3961 44.8125 54.3836 44.85V44.925C54.3836 44.9625 54.3086 45.025 54.3211 45.05C54.3211 45.0875 54.3586 45.05 54.3711 45.05C54.3836 45.0625 54.3711 45.0875 54.3961 45.1C54.4086 45.1375 54.4836 45.05 54.4836 45.1V45.0625ZM54.2211 44.7625V44.75L54.1586 44.725L54.1086 44.775C54.0711 44.8375 54.0836 44.9 54.0211 44.9H53.9711C53.9461 44.9125 53.9711 44.9625 53.9711 44.9875V45.025C53.9586 45.025 53.9461 45.025 53.9336 45.05C53.9336 45.1 53.9711 45.0875 53.9836 45.0875H54.1086L54.1836 45.0625L54.2461 45.05C54.257 45.0303 54.2654 45.0093 54.2711 44.9875V44.9375C54.2711 44.9125 54.2961 44.925 54.3086 44.8875C54.3086 44.8 54.2211 44.8625 54.2336 44.775" fill="#964B36"/>
<path d="M54.2211 44.7625V44.75L54.1586 44.725L54.1086 44.775C54.0711 44.8375 54.0836 44.9 54.0211 44.9H53.9711C53.9461 44.9125 53.9711 44.9625 53.9711 44.9875V45.025C53.9586 45.025 53.9461 45.025 53.9336 45.05C53.9336 45.1 53.9711 45.0875 53.9836 45.0875H54.1086L54.1836 45.0625L54.2461 45.05C54.257 45.0303 54.2654 45.0093 54.2711 44.9875V44.9375C54.2711 44.9125 54.2961 44.925 54.3086 44.8875C54.3086 44.8 54.2211 44.8625 54.2336 44.775M54.4836 45.0625L54.5461 45.075L54.5586 45.1C54.5624 45.1022 54.5667 45.1034 54.5711 45.1034C54.5755 45.1034 54.5798 45.1022 54.5836 45.1L54.6211 45.1125H54.6586L54.7086 45.125C54.7336 45.1375 54.7586 45.125 54.7836 45.1125C54.8086 45.0875 54.8211 45.1125 54.8461 45.1375C54.8711 45.1625 54.8711 45.15 54.8836 45.1375C54.8835 45.1334 54.8835 45.1292 54.8836 45.125L54.9211 45.1125L54.9711 45.1L55.0086 45.075L55.0586 45.1C55.0675 45.103 55.0759 45.1072 55.0836 45.1125C55.1086 45.075 55.1586 45.0625 55.1836 45.0375H55.3461C55.3586 45.025 55.3586 45.0125 55.3836 45.0125L55.4711 45.0625C55.4836 45.0625 55.5586 45.0875 55.5461 45.025C55.5461 44.975 55.4961 45.0125 55.4836 44.975V44.9C55.4792 44.8887 55.4725 44.8784 55.4639 44.8697C55.4553 44.8611 55.4449 44.8544 55.4336 44.85H55.3961L55.3711 44.7875C55.3586 44.7875 55.3461 44.8 55.3211 44.7875L55.2961 44.7625C55.2586 44.725 55.2336 44.7875 55.2086 44.775C55.1836 44.775 55.1586 44.7125 55.1336 44.6875C55.1336 44.675 55.0961 44.625 55.0836 44.6375C55.0586 44.65 55.0836 44.7 55.0711 44.725C55.0586 44.7375 55.0211 44.725 55.0211 44.725C54.9961 44.725 54.9961 44.725 54.9836 44.7625C54.9461 44.8 54.9336 44.8375 54.8961 44.8375L54.8336 44.8125C54.8211 44.825 54.8086 44.85 54.7836 44.85C54.7671 44.8534 54.7501 44.8534 54.7336 44.85C54.7086 44.85 54.6961 44.8125 54.6836 44.8C54.6836 44.7967 54.6823 44.7935 54.6799 44.7912C54.6776 44.7888 54.6744 44.7875 54.6711 44.7875C54.6678 44.7875 54.6646 44.7888 54.6623 44.7912C54.6599 44.7935 54.6586 44.7967 54.6586 44.8L54.6336 44.7875C54.6086 44.775 54.6086 44.7875 54.5961 44.8125V44.875L54.5461 44.925L54.4961 44.9375C54.4836 44.9375 54.4586 44.975 54.4461 44.9375C54.4336 44.8875 54.4836 44.8 54.4211 44.8125C54.4211 44.8125 54.3961 44.8125 54.3836 44.85V44.925C54.3836 44.9625 54.3086 45.025 54.3211 45.05C54.3211 45.0875 54.3586 45.05 54.3711 45.05C54.3836 45.0625 54.3711 45.0875 54.3961 45.1C54.4086 45.1375 54.4836 45.05 54.4836 45.1V45.0625Z" stroke="black" stroke-width="0.0375" stroke-miterlimit="4.8"/>
</g>
</g>
<g id="Group_8">
<path id="Vector_59" d="M55.2709 42.3375C55.2709 42.4625 55.1959 42.55 55.0959 42.55C54.9959 42.55 54.9209 42.45 54.9209 42.3375C54.9209 42.225 54.9959 42.1375 55.0959 42.1375C55.1959 42.1375 55.2709 42.225 55.2709 42.3375ZM54.7084 42.0875C54.7084 42.2125 54.6209 42.2875 54.5334 42.2875C54.4334 42.2875 54.3584 42.2 54.3584 42.0875C54.3584 41.975 54.4334 41.8875 54.5334 41.8875C54.6209 41.8875 54.7084 41.975 54.7084 42.0875Z" fill="black" stroke="black" stroke-width="0.0625" stroke-miterlimit="4.8"/>
<path id="Vector_60" d="M54.9957 42.1625C54.9957 42.2875 54.9207 42.375 54.8332 42.375C54.7332 42.375 54.6582 42.275 54.6582 42.1625C54.6582 42.05 54.7332 41.9625 54.8332 41.9625C54.9207 41.9625 54.9957 42.05 54.9957 42.1625Z" fill="black" stroke="black" stroke-width="0.0625" stroke-miterlimit="4.8"/>
<path id="Vector_61" d="M54.7086 42.35C54.7086 42.475 54.6336 42.5625 54.5461 42.5625C54.4461 42.5625 54.3711 42.4625 54.3711 42.35C54.3711 42.2375 54.4461 42.15 54.5461 42.15C54.6336 42.15 54.7086 42.2375 54.7086 42.35Z" fill="black" stroke="black" stroke-width="0.0625" stroke-miterlimit="4.8"/>
<path id="Vector_62" d="M54.9833 42.5C54.9833 42.625 54.9083 42.7125 54.8083 42.7125C54.7083 42.7125 54.6333 42.625 54.6333 42.5125C54.6333 42.3875 54.7083 42.3 54.8083 42.3C54.9083 42.3 54.9833 42.4 54.9833 42.5125V42.5Z" fill="black" stroke="black" stroke-width="0.0625" stroke-miterlimit="4.8"/>
</g>
<path id="Vector_63" d="M55.0584 40.2875C55.0584 40.2875 56.8084 37.8625 58.6709 40.3875C58.6709 40.3875 58.6709 40.6375 58.5084 40.8875L58.4584 40.7L58.3584 40.725L58.3209 40.6L58.1209 40.5875L58.1834 40.325L57.9584 40.4875L57.9959 40.3L57.7459 40.55L57.7709 40.025L57.5084 40.475L57.5334 40.1625L57.4459 40.3L57.3834 40.125L57.3084 40.3L57.1834 40.2125V40.3375L56.9584 40.15L56.8834 40.4L56.7584 40.1375L56.7334 40.3125L56.6334 40.1L56.6084 40.3375L56.2584 40.175L56.3334 40.4L56.1584 40.275L56.1959 40.4L55.9459 40.35L55.9709 40.4875L55.7209 40.45L55.7709 40.575L55.4209 40.525L55.5459 40.6625L55.5084 40.725C55.5084 40.725 57.3959 40.1 57.5209 42.45L57.1834 42.625L57.2709 42.4375L57.1834 42.375L56.8959 42.15L56.9709 41.85L56.8834 41.8875L56.8584 41.7125L56.8209 41.75L56.6959 41.575L56.6709 41.6375L56.5959 41.425L56.5209 41.575L56.4709 41.225L56.3459 41.45L56.3334 41.325L56.2834 41.4L56.1334 41.2125L56.0834 41.3375L56.0209 41.2375L55.9709 41.3625L55.7959 41.2V41.325L55.6959 41.225L55.6459 41.2875L55.3709 41.15V41.275L55.2209 41.15L55.1709 41.275C55.1709 41.275 56.8834 42.25 56.3459 43.825L56.2584 44.0375L56.2209 43.5L56.0709 43.7875L56.1709 43.1625L56.0709 43.2875L56.0459 43.0375L55.9084 43.2875L55.8584 43.0125L55.7959 43.0875L55.7084 42.6875L55.6209 42.8625L55.4959 42.4L55.4084 42.5875L55.3459 42.2L55.2834 42.4375L55.0959 42.0875L55.0584 42.225L54.9584 41.95L54.8959 42.0375C54.8959 42.0375 54.5834 42.0375 54.4834 41.95C54.3834 41.875 54.1209 42.425 54.1209 42.425L54.1584 42.0875L54.0334 42.3125V42.0875L53.8459 42.75L53.7959 42.275L53.6834 42.6875L53.6334 42.5625L53.6084 42.7375L53.5459 42.675L53.4834 42.85L53.3834 42.775V43.025L53.2959 42.9L53.2084 43.275L53.1709 43.125V43.3L53.0834 43.2L53.0084 43.575L52.8959 43.425V43.6875L52.9334 43.8875L52.8084 43.825L52.8584 44.1625C52.8584 44.1625 52.3584 43.25 52.9459 42.375C53.5334 41.5 54.3209 41.25 54.3209 41.25L54.2334 41.1875L54.2209 41.1L53.7459 41.35L53.7584 41.2L53.6334 41.3L53.6084 41.15L53.5334 41.2875L53.5084 41.225L53.4084 41.4L53.3459 41.15L53.2584 41.45L53.1834 41.2375L53.0209 41.6875V41.35L52.8959 41.7L52.8584 41.325L52.7584 41.7625V41.3625L52.6209 41.7625L52.5209 41.3875L52.4584 41.75L52.3709 41.4625L52.2709 41.8875L52.1334 41.5125L52.0584 42.075L51.9584 41.85L51.9459 42.2625L51.8334 42.0125L51.9459 42.5375L51.8084 42.3375L51.8459 42.6625L51.6459 42.3125L51.6584 42.7375L51.5584 42.5875L51.5084 42.75C51.5084 42.75 51.4584 41.125 52.5709 40.8C53.6834 40.4875 54.4084 40.9 54.4084 40.9L53.9834 40.55L54.0334 40.45H53.8709L53.9334 40.325H53.6209L53.7084 40.2L53.4584 40.2375V40.1625L53.3084 40.2875L53.3709 40.15L53.1459 40.2875V40.075L53.0209 40.2625L52.9584 40.075L52.4584 40.575L52.5959 40.05L52.5084 40.175L52.4959 40.05L52.3459 40.275L52.3209 40.1125L52.2584 40.3L52.2084 40.0875L52.0959 40.3L51.9959 40.1L51.9459 40.3625L51.8584 40.2375L51.7709 40.425L51.6459 40.3L51.6334 40.425L51.3834 40.325L51.4459 40.5125L51.2584 40.35L51.2084 40.6L51.0959 40.475L51.0209 40.7875L50.9459 40.4875L50.8584 40.7375C50.8584 40.7375 51.8459 38.2125 54.3209 39.8625C54.3209 39.8625 54.5959 40.1125 54.6584 40.3C54.7209 40.4875 54.6584 40.3375 54.6584 40.3375L54.6209 38.5875L54.7209 39.3375L54.7834 39.0875L54.7584 39.4625L55.0084 38.925C55.0084 38.925 54.7209 39.8375 54.8209 40.175C54.8209 40.175 54.9459 39.1125 55.3209 38.9875L54.9709 39.7375L55.0709 39.725L54.9959 39.875H55.0959L54.9709 40.125L54.9209 40.25L54.9834 40.375L55.0709 40.2875H55.0584Z" fill="#00A651" stroke="black" stroke-width="0.0625" stroke-miterlimit="4.8"/>
<path id="Vector_64" d="M54.8085 41.3125L54.8585 41.35C54.8585 41.35 55.021 41.1875 55.271 41.4L55.321 41.35C55.0085 41.0875 54.8085 41.3125 54.8085 41.3125V41.3125ZM54.7335 40.4625L54.721 40.5125L54.846 40.4625L54.7585 40.6125L54.9335 40.55L54.7085 40.8375L54.771 40.8875L55.121 40.4125L54.896 40.4875L54.996 40.325L54.8085 40.4125L54.846 40.1625H54.7835L54.7335 40.4625V40.4625Z" fill="black"/>
<path id="Vector_65" d="M54.3959 40.475L54.4709 40.65L54.3459 40.6L54.7209 41.225L54.7584 41.175L54.6834 41.3625L54.7459 41.3875L54.9084 40.9875L54.8459 40.95L54.7209 41.1125L54.5084 40.7375L54.6084 40.775L54.5084 40.55L54.6334 40.6375V40.3875H54.5709V40.5125L54.3709 40.375L54.4084 40.475H54.3959ZM54.1709 41.275L54.1959 41.3375C54.2959 41.3 54.3709 41.2875 54.4459 41.325C54.5084 41.35 54.5334 41.425 54.5334 41.425L54.5959 41.4125C54.5959 41.4125 54.5709 41.3125 54.4709 41.2625C54.3834 41.225 54.2834 41.225 54.1709 41.275ZM54.4459 41.95L54.3959 41.6H54.4584L54.5209 41.95H54.4459ZM54.9334 41.9L54.8459 41.625L54.9084 41.6125L54.9959 41.875L54.9334 41.9ZM55.1084 42.1L55.0459 41.825L55.1084 41.8125L55.1709 42.075L55.1084 42.1Z" fill="black"/>
<path id="Vector_66" d="M41.7462 50.125C41.7462 50.125 41.4462 50 41.3087 50.1C41.1837 50.2 41.1837 50.3375 41.0712 50.325C41.0712 50.325 41.5212 50.425 41.6212 50.3125L41.7462 50.1625V50.125ZM41.7962 50.2625C41.7962 50.2625 41.5962 50.5125 41.6712 50.6625C41.7337 50.8125 41.8712 50.825 41.8462 50.9375C41.8462 50.9375 42.0337 50.525 41.9462 50.4125L41.8212 50.2625H41.7962ZM41.4712 49.5375C41.4712 49.5375 41.1587 49.6375 41.1212 49.7875C41.0837 49.9625 41.1962 50.05 41.1087 50.125C41.1087 50.125 41.4962 49.9 41.4962 49.75C41.4974 49.6873 41.4932 49.6245 41.4837 49.5625L41.4712 49.5375ZM41.6462 49.65C41.6462 49.65 41.7962 49.3625 41.6962 49.225C41.6087 49.0875 41.4587 49.1 41.4837 48.975C41.4837 48.975 41.3587 49.425 41.4837 49.525L41.6087 49.65H41.6462ZM41.3462 49.5375C41.3462 49.5375 41.3462 49.225 41.2087 49.1375C41.0712 49.05 40.9462 49.125 40.9087 49.0125C40.9087 49.0125 40.9837 49.4625 41.1337 49.5125L41.3212 49.55L41.3462 49.5375ZM41.8712 50.075C41.8712 50.075 42.2087 49.9625 42.2462 50.325C42.2587 50.7 42.2212 50.575 42.2212 50.575C42.2212 50.575 42.0462 50.175 41.8462 50.1125L41.8712 50.075Z" fill="#00A651" stroke="black" stroke-width="0.0625" stroke-miterlimit="4.8"/>
<path id="Vector_67" d="M41.7837 50.2625L41.8212 50.55H41.8712L41.8337 50.2625L41.9587 49.65H41.8962L41.7837 50.2625Z" fill="black"/>
<path id="Vector_68" d="M41.4835 50.175L41.4585 50.2125C41.621 50.275 41.846 50.0875 41.8585 50.0875L41.8335 50.05C41.8335 50.05 41.6085 50.225 41.4835 50.175ZM41.896 49.8125L41.146 49.4375L41.171 49.375L41.921 49.75L41.896 49.8125Z" fill="black"/>
<path id="Vector_69" d="M41.3586 49.725L41.3086 49.6875L41.4586 49.525L41.5086 49.575L41.3586 49.725ZM41.6086 49.65L41.4586 49.3125L41.5211 49.275L41.6836 49.625L41.6086 49.65ZM41.8461 50.075V50.15C42.0461 50.1375 42.0961 50.275 42.0961 50.275L42.1711 50.25C42.1711 50.2125 42.0836 50.0625 41.8461 50.075V50.075Z" fill="black"/>
<g id="Vector_70">
<path d="M45.3086 50.2375C45.5586 50.1 45.6086 49.6 45.6086 49.6C45.5586 49.775 45.0961 49.9625 45.0961 49.9625C45.4336 49.75 45.8461 48.7875 45.8461 48.7875C45.7336 49.1375 44.8461 49.4125 44.2586 49.7375C43.6836 50.0625 43.9836 50.9875 43.9836 50.9875C43.7097 50.7013 43.527 50.3402 43.4586 49.95C43.3961 49.5125 43.2211 49.35 42.8336 49.3C42.4336 49.25 42.2086 49.6875 42.2086 49.6875L41.6211 50L42.2086 50.025C42.2086 50.025 42.6336 50.1625 42.6336 50.5C42.6336 50.8375 42.2586 52.1625 42.8836 52.9125C43.3086 53.425 44.8836 53.725 44.8836 53.725" fill="#F5F5F5"/>
<path d="M45.3086 50.2375C45.5586 50.1 45.6086 49.6 45.6086 49.6C45.5586 49.775 45.0961 49.9625 45.0961 49.9625C45.4336 49.75 45.8461 48.7875 45.8461 48.7875C45.7336 49.1375 44.8461 49.4125 44.2586 49.7375C43.6836 50.0625 43.9836 50.9875 43.9836 50.9875C43.7097 50.7013 43.527 50.3402 43.4586 49.95C43.3961 49.5125 43.2211 49.35 42.8336 49.3C42.4336 49.25 42.2086 49.6875 42.2086 49.6875L41.6211 50L42.2086 50.025C42.2086 50.025 42.6336 50.1625 42.6336 50.5C42.6336 50.8375 42.2586 52.1625 42.8836 52.9125C43.3086 53.425 44.8836 53.725 44.8836 53.725" stroke="black" stroke-width="0.0875" stroke-miterlimit="4.8"/>
</g>
<g id="Vector_71">
<path d="M44.1587 51.2625C44.1587 51.2625 44.2837 50.6625 44.6587 50.6875C45.0587 50.7125 45.1712 50.25 45.4087 50.175C45.6337 50.1 46.8337 49.7875 46.9712 49.2C46.9712 49.2 46.8462 50.15 45.7587 50.625C45.7587 50.625 46.6337 50.3375 46.7462 50.1375C46.7462 50.1375 46.3462 50.9875 45.3962 51.125C45.3962 51.125 46.2962 51.05 46.4212 50.8125C46.4212 50.8125 46.0212 51.35 45.3587 51.4125C45.3587 51.4125 45.9712 51.6625 46.1337 51.45C46.1337 51.45 45.7962 51.85 45.3837 51.875L45.4962 51.9125C45.4962 51.9125 45.0962 52.375 44.6712 52.0625C44.2337 51.75 44.2212 52.1375 44.2212 52.1375" fill="#F5F5F5"/>
<path d="M44.1587 51.2625C44.1587 51.2625 44.2837 50.6625 44.6587 50.6875C45.0587 50.7125 45.1712 50.25 45.4087 50.175C45.6337 50.1 46.8337 49.7875 46.9712 49.2C46.9712 49.2 46.8462 50.15 45.7587 50.625C45.7587 50.625 46.6337 50.3375 46.7462 50.1375C46.7462 50.1375 46.3462 50.9875 45.3962 51.125C45.3962 51.125 46.2962 51.05 46.4212 50.8125C46.4212 50.8125 46.0212 51.35 45.3587 51.4125C45.3587 51.4125 45.9712 51.6625 46.1337 51.45C46.1337 51.45 45.7962 51.85 45.3837 51.875L45.4962 51.9125C45.4962 51.9125 45.0962 52.375 44.6712 52.0625C44.2337 51.75 44.2212 52.1375 44.2212 52.1375" stroke="black" stroke-width="0.0875" stroke-miterlimit="4.8"/>
</g>
<g id="Vector_72">
<path d="M45.0458 52.1625C45.0458 52.1625 45.5458 53.0125 45.6083 53.4625C45.6083 53.4625 46.5708 54.5375 46.9333 54.5875C46.9333 54.5875 46.7708 54.6625 46.4583 54.4C46.4583 54.4 46.7083 54.675 46.7708 54.6875C46.8208 54.6875 46.5583 54.6625 46.5208 54.5875C46.5208 54.5875 46.6208 54.75 46.6958 54.775L46.6208 54.75C46.6208 54.75 46.4958 54.7375 46.4333 54.6875C46.3708 54.6375 46.4083 54.8125 46.4083 54.8125C46.4083 54.8125 46.2583 54.775 46.2083 54.725C46.1583 54.675 46.2333 54.8375 46.2333 54.8375L46.1083 54.8L46.0083 54.8625C46.0083 54.8625 46.0083 54.925 45.9333 54.875C45.8833 54.825 45.7708 54.875 45.7708 54.875C45.7708 54.875 45.6833 54.95 45.6458 54.9C45.6083 54.85 45.4583 55.0875 45.4583 55.0875L44.8208 53.55" fill="#F5F5F5"/>
<path d="M45.0458 52.1625C45.0458 52.1625 45.5458 53.0125 45.6083 53.4625C45.6083 53.4625 46.5708 54.5375 46.9333 54.5875C46.9333 54.5875 46.7708 54.6625 46.4583 54.4C46.4583 54.4 46.7083 54.675 46.7708 54.6875C46.8208 54.6875 46.5583 54.6625 46.5208 54.5875C46.5208 54.5875 46.6208 54.75 46.6958 54.775L46.6208 54.75C46.6208 54.75 46.4958 54.7375 46.4333 54.6875C46.3708 54.6375 46.4083 54.8125 46.4083 54.8125C46.4083 54.8125 46.2583 54.775 46.2083 54.725C46.1583 54.675 46.2333 54.8375 46.2333 54.8375L46.1083 54.8L46.0083 54.8625C46.0083 54.8625 46.0083 54.925 45.9333 54.875C45.8833 54.825 45.7708 54.875 45.7708 54.875C45.7708 54.875 45.6833 54.95 45.6458 54.9C45.6083 54.85 45.4583 55.0875 45.4583 55.0875L44.8208 53.55" stroke="black" stroke-width="0.0875" stroke-miterlimit="4.8"/>
</g>
<path id="Vector_73" d="M45.6462 54.95L44.8462 53.4125L44.9337 53.375L45.7337 54.9L45.6462 54.95ZM46.3462 54.8375L44.9712 53.3L45.0462 53.2375L46.4212 54.775L46.3462 54.8375ZM46.6712 54.7125L45.0962 53.25L45.1587 53.175L46.7462 54.625L46.6712 54.7125Z" fill="black"/>
<g id="Group_9">
<path id="Vector_74" d="M42.7267 49.7852C42.7267 49.7852 42.627 49.6024 42.5356 49.6772C42.4525 49.7436 42.4026 49.7603 42.386 49.7519C42.386 49.7519 42.4691 49.7519 42.5273 49.7104C42.5771 49.6605 42.6603 49.6855 42.7267 49.7935V49.7852ZM42.1782 49.7021L42.2364 49.8184L42.1699 50.0096L42.2198 50.0262L42.278 49.8184L42.2198 49.6855L42.1782 49.7021V49.7021Z" fill="black"/>
<path id="Vector_75" d="M42.7103 49.7603C42.7103 49.7603 42.6272 49.8434 42.5275 49.8267L42.4194 49.8018H42.569C42.6272 49.8018 42.702 49.7769 42.7103 49.7603Z" fill="black"/>
<path id="Vector_76" d="M42.6853 49.7769C42.6853 49.7769 42.5855 49.6772 42.519 49.7104C42.519 49.7104 42.6354 49.6688 42.7019 49.7686L42.6853 49.7769Z" fill="black"/>
<path id="Vector_77" d="M42.6687 49.7603C42.6687 49.7603 42.5607 49.8351 42.4443 49.7603L42.436 49.7437H42.4527C42.4527 49.7437 42.5939 49.8018 42.6687 49.7603Z" fill="black"/>
<path id="Vector_78" d="M42.5772 49.7769C42.5955 49.7769 42.6104 49.762 42.6104 49.7436C42.6104 49.7253 42.5955 49.7104 42.5772 49.7104C42.5588 49.7104 42.5439 49.7253 42.5439 49.7436C42.5439 49.762 42.5588 49.7769 42.5772 49.7769Z" fill="black"/>
</g>
<path id="Vector_79" d="M42.6711 52.55C42.6711 52.55 42.5836 52.7125 42.6336 52.8C42.6711 52.8875 42.8711 52.9375 42.8836 53.0625C42.9211 53.1875 42.9836 53.1875 43.0711 53.1625L43.1961 53.15C43.1961 53.15 42.8086 52.9375 42.6961 52.6125L42.6711 52.55Z" fill="black"/>
<g id="Group_10">
<path id="Vector_80" d="M55.0956 49.45C55.0956 49.45 55.7831 48.525 56.4081 48.775C57.0331 49.025 57.4331 49.1375 57.4331 49.1375C57.4331 49.1375 57.4456 49.7625 57.1206 49.7625C56.7831 49.7625 56.4706 49.1375 56.1706 49.3125C55.8706 49.5 55.6206 49.75 55.6081 49.8375C55.5831 49.925 54.8081 49.95 55.0956 49.4625V49.45Z" fill="#964B36" stroke="black" stroke-width="0.0375" stroke-miterlimit="4.8"/>
<path id="Vector_81" d="M52.4333 53.9C52.4333 53.9 52.2458 54.1 52.3333 54.15C52.4208 54.2 52.5833 54.15 52.5833 54.075C52.5833 54 52.4708 53.875 52.4333 53.9Z" fill="#964B36" stroke="black" stroke-width="0.0625" stroke-miterlimit="4.8"/>
<path id="Vector_82" d="M52.2833 54.1C52.2833 54.1 51.9208 53.8875 51.6458 54.375C51.3583 54.8625 51.1208 55.65 50.9583 55.75C50.7958 55.85 52.5583 54.975 52.5833 54.6125C52.5833 54.6125 52.7083 54.1375 52.5083 54.1375C52.3333 54.15 52.3208 54.175 52.2833 54.0875V54.1Z" fill="#964B36" stroke="black" stroke-width="0.0625" stroke-miterlimit="4.8"/>
<g id="Vector_83">
<path d="M52.3333 54.15C52.3333 54.15 51.9583 54.2375 51.8833 54.7625C51.8083 55.2875 51.2958 55.55 51.2583 55.575L52.3333 54.15ZM57.4333 49.125C57.4333 49.125 56.8708 49.325 56.9708 49.7125Z" fill="#964B36"/>
<path d="M57.4333 49.125C57.4333 49.125 56.8708 49.325 56.9708 49.7125M52.3333 54.15C52.3333 54.15 51.9583 54.2375 51.8833 54.7625C51.8083 55.2875 51.2958 55.55 51.2583 55.575L52.3333 54.15Z" stroke="black" stroke-width="0.0375" stroke-miterlimit="4.8"/>
</g>
</g>
<g id="Vector_84">
<path d="M53.1333 50.2625C53.1333 50.2625 53.1458 48.9375 54.2333 49C54.4458 49.0125 54.3458 49.25 54.3458 49.25C54.3458 49.25 54.5833 49.0875 54.6833 49.35C54.6833 49.35 55.0333 49.2 55.0583 49.5375C55.0583 49.5375 55.4333 49.4875 55.3958 49.7875C55.3958 49.7875 55.6458 49.7375 55.6458 49.95C55.6458 49.95 55.9333 49.825 55.8958 50.125C55.8958 50.125 56.2208 49.9125 56.1708 50.3C56.1708 50.3 56.5083 50.075 56.6208 50.4625C56.7458 50.8375 56.2833 51.675 55.8458 51.8875" fill="#FFF200"/>
<path d="M53.1333 50.2625C53.1333 50.2625 53.1458 48.9375 54.2333 49C54.4458 49.0125 54.3458 49.25 54.3458 49.25C54.3458 49.25 54.5833 49.0875 54.6833 49.35C54.6833 49.35 55.0333 49.2 55.0583 49.5375C55.0583 49.5375 55.4333 49.4875 55.3958 49.7875C55.3958 49.7875 55.6458 49.7375 55.6458 49.95C55.6458 49.95 55.9333 49.825 55.8958 50.125C55.8958 50.125 56.2208 49.9125 56.1708 50.3C56.1708 50.3 56.5083 50.075 56.6208 50.4625C56.7458 50.8375 56.2833 51.675 55.8458 51.8875" stroke="black" stroke-width="0.0375" stroke-miterlimit="4.8"/>
</g>
<path id="Vector_85" d="M56.1462 50.35C56.1462 50.35 56.2962 51.3875 55.7087 51.7625L55.7337 51.7875C56.3337 51.4125 56.1837 50.35 56.1837 50.3375H56.1462V50.35ZM55.4462 51.475L55.4712 51.5C55.8462 51.1375 55.9212 50.175 55.9212 50.125H55.8837C55.8837 50.1375 55.8087 51.125 55.4462 51.475ZM55.0962 51.2375H55.1337C55.1837 50.65 55.6587 49.9625 55.6587 49.9625L55.6212 49.9375C55.6212 49.9375 55.1462 50.6375 55.0962 51.2375ZM54.8337 51.0625H54.8712C54.9337 50.35 55.4087 49.8125 55.4087 49.8125L55.3837 49.775C55.3837 49.775 54.8962 50.3375 54.8337 51.0625V51.0625ZM54.4587 50.825H54.4837C54.5212 49.975 55.0837 49.5625 55.0962 49.55L55.0712 49.525C55.0712 49.525 54.4837 49.95 54.4462 50.825H54.4587ZM54.0962 50.6125H54.1462C54.1087 49.8375 54.7087 49.3625 54.7087 49.3625L54.6962 49.3375C54.6962 49.3375 54.0712 49.825 54.0962 50.6125V50.6125ZM53.4712 50.3375H53.5087C53.5366 50.0967 53.6326 49.8689 53.7853 49.6807C53.9381 49.4925 54.1413 49.3518 54.3712 49.275L54.3587 49.2375C54.1236 49.319 53.9165 49.4657 53.7615 49.6605C53.6066 49.8553 53.5102 50.09 53.4837 50.3375H53.4712Z" fill="black"/>
<g id="Vector_86">
<path d="M52.4959 51.875C52.4959 51.875 52.3084 50.65 53.0459 50.25C53.0459 50.25 53.1709 50.225 53.2584 50.4C53.2584 50.4 53.6459 50.2375 53.6584 50.5625C53.6584 50.5625 53.8459 50.4125 53.9084 50.625C53.9084 50.625 54.3209 50.5375 54.2334 50.85C54.2334 50.85 54.5834 50.75 54.5584 51.05C54.5584 51.05 54.9084 50.925 54.8459 51.175C54.8459 51.175 55.2209 51.1 55.1334 51.4C55.1334 51.4 55.5834 51.35 55.4459 51.675C55.4459 51.675 55.7834 51.5875 55.7084 51.85C55.7084 51.85 56.1584 51.925 55.9584 52.2C55.6341 52.6002 55.2122 52.9102 54.7334 53.1" fill="#00A651"/>
<path d="M52.4959 51.875C52.4959 51.875 52.3084 50.65 53.0459 50.25C53.0459 50.25 53.1709 50.225 53.2584 50.4C53.2584 50.4 53.6459 50.2375 53.6584 50.5625C53.6584 50.5625 53.8459 50.4125 53.9084 50.625C53.9084 50.625 54.3209 50.5375 54.2334 50.85C54.2334 50.85 54.5834 50.75 54.5584 51.05C54.5584 51.05 54.9084 50.925 54.8459 51.175C54.8459 51.175 55.2209 51.1 55.1334 51.4C55.1334 51.4 55.5834 51.35 55.4459 51.675C55.4459 51.675 55.7834 51.5875 55.7084 51.85C55.7084 51.85 56.1584 51.925 55.9584 52.2C55.6341 52.6002 55.2122 52.9102 54.7334 53.1" stroke="black" stroke-width="0.0375" stroke-miterlimit="4.8"/>
</g>
<g id="Vector_87">
<path d="M52.0958 53.125C52.0958 53.125 51.7958 52.0875 52.3708 51.825C52.3708 51.825 52.4708 51.8 52.4958 51.9C52.4958 51.9 52.6208 51.7375 52.7208 51.8875C52.7208 51.8875 53.0083 51.75 53.0708 51.9625C53.0708 51.9625 53.2708 51.8 53.3708 52.0375C53.3708 52.0375 53.5458 51.9625 53.5458 52.1625C53.5458 52.1625 53.7958 52.0375 53.7958 52.2875C53.7958 52.2875 54.0458 52.1875 53.9958 52.45C53.9958 52.45 54.3708 52.5 54.2458 52.675C54.2458 52.675 54.5833 52.7625 54.4583 52.9C54.4583 52.9 54.8208 52.8625 54.6208 53.1C54.6208 53.1 54.8958 53.0125 54.7458 53.3125C54.5833 53.6125 54.1083 53.9375 53.7583 53.9875" fill="#00A651"/>
<path d="M52.0958 53.125C52.0958 53.125 51.7958 52.0875 52.3708 51.825C52.3708 51.825 52.4708 51.8 52.4958 51.9C52.4958 51.9 52.6208 51.7375 52.7208 51.8875C52.7208 51.8875 53.0083 51.75 53.0708 51.9625C53.0708 51.9625 53.2708 51.8 53.3708 52.0375C53.3708 52.0375 53.5458 51.9625 53.5458 52.1625C53.5458 52.1625 53.7958 52.0375 53.7958 52.2875C53.7958 52.2875 54.0458 52.1875 53.9958 52.45C53.9958 52.45 54.3708 52.5 54.2458 52.675C54.2458 52.675 54.5833 52.7625 54.4583 52.9C54.4583 52.9 54.8208 52.8625 54.6208 53.1C54.6208 53.1 54.8958 53.0125 54.7458 53.3125C54.5833 53.6125 54.1083 53.9375 53.7583 53.9875" stroke="black" stroke-width="0.0375" stroke-miterlimit="4.8"/>
</g>
<path id="Vector_88" d="M52.4583 53.925C52.4583 53.925 51.8208 53.3 52.1208 53.125C52.1208 53.125 52.2458 53.1625 52.2958 53.3C52.2958 53.3 52.4583 53.075 52.5458 53.3C52.5458 53.3 52.7708 53.225 52.7708 53.3875L52.9583 53.5125C52.9583 53.5125 53.1708 53.5125 53.1333 53.6375C53.1333 53.6375 53.3708 53.6125 53.3583 53.7375C53.3583 53.7375 53.5583 53.7375 53.5458 53.875C53.5458 53.875 53.8833 53.9375 53.7333 54.1125C53.7333 54.1125 53.1208 54.2375 52.6958 54.0625C52.6958 54.0625 52.4708 53.9875 52.4458 53.9375L52.4583 53.925Z" fill="#00A651" stroke="black" stroke-width="0.0375" stroke-miterlimit="4.8"/>
<path id="Vector_89" d="M54.6459 52.9L54.6584 52.9375C55.0334 52.7875 55.6959 51.9 55.7209 51.85L55.6959 51.8375C55.6959 51.8375 55.0209 52.7625 54.6459 52.9V52.9ZM54.4334 52.7375L54.4459 52.775C54.828 52.4568 55.1682 52.0914 55.4584 51.6875L55.4334 51.6625C55.4334 51.6625 54.7584 52.5625 54.4334 52.7375V52.7375ZM54.2459 52.6625L54.2709 52.6875C54.6209 52.4 55.1209 51.4375 55.1459 51.4125L55.1084 51.3875C55.1084 51.4 54.5834 52.3875 54.2334 52.6625H54.2459ZM54.0709 52.4375H54.1084C54.1834 51.9625 54.8584 51.2125 54.8584 51.1875L54.8334 51.175C54.8084 51.2 54.1459 51.95 54.0834 52.4375H54.0709ZM52.7209 51.8625H52.7584C52.6959 51.175 53.2584 50.425 53.2709 50.4125L53.2459 50.3875C53.2459 50.3875 52.6584 51.1625 52.7209 51.8625V51.8625ZM53.0709 51.9125H53.1084C53.0209 51.3625 53.6584 50.5875 53.6709 50.575L53.6459 50.55C53.6084 50.5875 52.9834 51.35 53.0709 51.925V51.9125ZM53.6209 52.1125H53.6584C53.6584 51.4875 54.2459 50.8625 54.2459 50.8625L54.2209 50.8375C54.2209 50.8375 53.6084 51.475 53.6209 52.1125ZM52.3084 53.2375H52.3459C52.1334 52.6625 52.5084 51.925 52.5084 51.9125L52.4709 51.9C52.4709 51.9 52.0959 52.65 52.3084 53.25V53.2375ZM52.5584 53.2875L52.5959 53.275C52.4084 52.6875 52.7209 51.9 52.7334 51.9L52.6959 51.875C52.6959 51.875 52.3709 52.6875 52.5709 53.2875H52.5584ZM53.5959 53.875L53.6084 53.9125C54.2334 53.6875 54.6334 53.125 54.6459 53.1125L54.6084 53.1C54.6084 53.1 54.2084 53.65 53.6084 53.875H53.5959ZM53.4709 53.7375L53.4834 53.775C53.9834 53.55 54.4459 52.925 54.4459 52.925L54.4209 52.9C54.4209 52.9 53.9584 53.525 53.4709 53.7375ZM53.3459 53.6875L53.3709 53.725C53.7584 53.4375 54.2459 52.725 54.2584 52.725L54.2334 52.7C54.2334 52.7 53.7334 53.4125 53.3584 53.7L53.3459 53.6875ZM52.7334 53.325H52.7709C52.7561 52.854 52.8683 52.3877 53.0959 51.975L53.0584 51.95C53.0584 51.95 52.6459 52.7 52.7334 53.325ZM53.0084 53.5L53.0334 53.525C53.4334 53.1625 53.5584 52.2 53.5709 52.15H53.5334C53.5334 52.1625 53.3959 53.15 53.0084 53.5Z" fill="black"/>
<path id="Vector_90" d="M53.2834 53.6125L53.2959 53.65C53.8584 53.2375 54.0084 52.45 54.0209 52.45H53.9834C53.9834 52.45 53.8334 53.2125 53.2834 53.6125ZM53.3459 51.9375V52.0375L52.9209 53.4125L52.9584 53.425L53.3834 52.05C53.3209 51.375 53.9084 50.6375 53.9084 50.6375L53.8834 50.6125C53.8834 50.6125 53.3459 51.2875 53.3459 51.9375V51.9375Z" fill="black"/>
<path id="Vector_91" d="M53.7837 52.2625C53.7837 52.2875 53.6587 53.2375 53.1462 53.5875L53.1587 53.6125C53.6837 53.25 53.8212 52.325 53.8212 52.2875C54.0462 52.0125 54.5712 51.0625 54.5712 51.0625L54.5462 51.0375C54.5462 51.05 54.0212 51.9875 53.7962 52.2625H53.7837ZM52.2837 53.3C52.2837 53.325 52.3712 53.8 52.4712 53.9625L52.4962 53.9375C52.4087 53.775 52.3212 53.3125 52.3212 53.3H52.2837ZM52.5337 53.3C52.5337 53.55 52.5337 53.925 52.5087 53.9625H52.5462C52.5712 53.925 52.5587 53.4125 52.5587 53.3125H52.5212L52.5337 53.3Z" fill="black"/>
<path id="Vector_92" d="M52.5459 53.975L52.5834 54C52.7459 53.6375 52.7959 53.3875 52.7959 53.3875H52.7584C52.7584 53.3875 52.7084 53.6375 52.5459 53.975Z" fill="black"/>
<path id="Vector_93" d="M52.5835 54L52.596 54.025C52.7817 53.914 52.9164 53.7344 52.971 53.525H52.9335C52.9335 53.525 52.871 53.825 52.5835 53.9875V54ZM52.6335 54.0125V54.05C52.9335 54.025 53.1335 53.6625 53.146 53.65L53.121 53.625C53.121 53.625 52.9085 54 52.6335 54.0125V54.0125Z" fill="black"/>
<path id="Vector_94" d="M52.6709 54.0375V54.075C52.8038 54.0728 52.9348 54.0428 53.0554 53.9868C53.176 53.9308 53.2835 53.8501 53.3709 53.75L53.3459 53.725C53.3459 53.725 53.1209 54.0125 52.6709 54.0375V54.0375Z" fill="black"/>
<path id="Vector_95" d="M52.6958 54.05V54.0875C52.7208 54.0875 53.3208 54.2125 53.5333 53.9L53.5083 53.875C53.3083 54.175 52.7083 54.05 52.6958 54.05Z" fill="black"/>
<path id="Vector_96" d="M39.021 31.75V48.8C39.021 54.375 49.096 57.6875 49.096 57.6875C49.096 57.6875 59.171 54.375 59.171 48.8125V31.75H39.021Z" stroke="black" stroke-width="0.35" stroke-miterlimit="4.8"/>
</g>
<path id="Vector_97" d="M0.246094 0H32.2461V32H0.246094V0Z" fill="#012169"/>
<path id="Vector_98" d="M32.2461 0V4L20.3711 16L32.2461 27.6875V32H28.0586L16.1211 20.25L4.49609 32H0.246094V27.75L11.8711 16.0625L0.246094 4.625V0H4.12109L16.1211 11.75L27.7461 0H32.2461Z" fill="#F5F5F5"/>
<path id="Vector_99" d="M11.7461 20.25L12.4336 22.375L2.87109 32H0.246094V31.8125L11.7461 20.25ZM19.4961 19.5L22.8711 20L32.2461 29.1875V32L19.4961 19.5ZM32.2461 0L20.2461 12.25L19.9961 9.5L29.3711 0H32.2461ZM0.246094 0.0625L12.3086 11.875L8.62109 11.375L0.246094 3.0625V0.0625Z" fill="#C8102E"/>
<path id="Vector_100" d="M11.2461 0V32H21.2461V0H11.2461ZM0.246094 11V21H32.2461V11H0.246094Z" fill="#F5F5F5"/>
<path id="Vector_101" d="M0.246094 13V19H32.2461V13H0.246094ZM13.2461 0V32H19.2461V0H13.2461Z" fill="#C8102E"/>
</g>
</g>
<defs>
<clipPath id="clip0_2909_185416">
<path d="M0.246094 32C0.246094 14.3269 14.573 0 32.2461 0V0C49.9192 0 64.2461 14.3269 64.2461 32V32C64.2461 49.6731 49.9192 64 32.2461 64V64C14.573 64 0.246094 49.6731 0.246094 32V32Z" fill="white"/>
</clipPath>
</defs>
</svg>
