<svg width="65" height="64" viewBox="0 0 65 64" fill="none" xmlns="http://www.w3.org/2000/svg">
<g id="Rounded=Falkland Islands (FK)">
<g clip-path="url(#clip0_2909_185449)">
<path id="Vector" d="M0.246094 0H64.2461V64H0.246094V0Z" fill="#012169"/>
<path id="Vector_2" fill-rule="evenodd" clip-rule="evenodd" d="M39.6453 40.4041C39.5658 40.4021 39.4863 40.4061 39.4073 40.416C39.0027 40.4874 38.3601 41.8083 38.015 42.5818C37.4557 43.2482 37.1701 43.7718 36.944 44.1526C36.8488 44.3073 36.706 44.4739 36.7536 44.6762C35.9206 44.8785 35.873 45.5925 35.873 45.8662C35.873 46.1756 35.9682 46.3184 35.9682 46.3184L36.468 47.2466V47.2585C37.0035 48.3652 37.777 49.8408 38.2292 49.9598C38.848 50.1383 40.4664 49.5433 41.6802 48.508C44.0189 49.482 46.5249 49.9912 49.0582 50.0074C51.8904 50.0074 54.437 49.3291 56.4243 48.508C57.6381 49.5433 59.2446 50.1383 59.8753 49.9598C60.3156 49.8408 61.101 48.3533 61.6365 47.2585L62.1245 46.3184C62.1245 46.3184 62.2197 46.1756 62.2197 45.8781C62.2197 45.6044 62.172 44.8785 61.339 44.6881C61.3866 44.4858 61.2557 44.3073 61.1605 44.1526C60.9225 43.7599 60.6369 43.2363 60.0895 42.558C59.7325 41.7845 59.0899 40.4874 58.6972 40.416C58.126 40.3208 56.9122 40.6064 56.9122 40.7135V40.773L54.449 43.0697C54.449 43.1292 54.568 44.7952 55.044 46.2827C53.1154 46.9689 51.0814 47.3113 49.0345 47.2942C46.6783 47.2942 44.6671 46.8777 43.0368 46.2708C43.3431 45.2227 43.5424 44.1462 43.6318 43.0578L41.1923 40.773V40.7135C41.1923 40.6302 40.2522 40.4041 39.6453 40.4041V40.4041ZM40.2641 43.2601C40.5735 43.2601 40.8948 43.5219 41.1685 43.7956L41.1447 43.9622C41.0476 44.3911 40.9203 44.8126 40.764 45.2236C40.1562 44.8746 39.5859 44.4638 39.0622 43.9979C39.324 43.7123 39.7524 43.3315 40.2046 43.272H40.2641V43.2601ZM57.8285 43.2601H57.888C58.3402 43.3315 58.7686 43.7123 59.0423 43.9979C58.515 44.4646 57.9408 44.8754 57.3287 45.2236C57.1722 44.8127 57.045 44.3912 56.948 43.9622C56.9377 43.9071 56.9298 43.8515 56.9242 43.7956C57.186 43.51 57.5191 43.2601 57.8285 43.2601ZM38.0745 46.5207C38.3958 46.7706 38.8243 47.0562 39.336 47.3537C39.1978 47.4464 39.0449 47.5148 38.8837 47.556C38.6695 47.6036 38.4553 47.5917 38.2292 47.5441C38.1441 47.3276 38.0958 47.0983 38.0865 46.8658C38.0801 46.7509 38.0761 46.6358 38.0745 46.5207V46.5207ZM60.03 46.5207L60.0062 46.8658C59.9967 47.0983 59.9484 47.3275 59.8635 47.5441C59.6757 47.5888 59.4808 47.595 59.2906 47.5623C59.1004 47.5296 58.9188 47.4586 58.7567 47.3537C59.2803 47.0562 59.7087 46.7706 60.03 46.5207V46.5207Z" fill="url(#paint0_linear_2909_185449)" stroke="#F5F5F5" stroke-width="1.19"/>
<path id="Vector_3" fill-rule="evenodd" clip-rule="evenodd" d="M41.7563 44.6411C41.7563 44.6411 40.8985 43.2551 40.2062 43.3654C39.4988 43.4599 38.8367 44.3419 38.7915 44.3891C38.3998 44.0421 38.0509 43.6453 37.753 43.2079C37.7982 43.1606 38.8366 40.6091 39.4085 40.4989C40.0138 40.44 40.6235 40.5373 41.1844 40.7824L41.7563 44.6411Z" fill="url(#paint1_linear_2909_185449)" stroke="black" stroke-width="0.184752"/>
<path id="Vector_4" fill-rule="evenodd" clip-rule="evenodd" d="M43.6378 43.1606C43.6378 43.2551 43.3368 46.9091 42.1328 48.1849C40.9288 49.4606 38.9271 50.2481 38.2198 50.0591C37.5275 49.8544 35.9171 46.1689 35.9171 46.1689C35.9171 46.1689 37.6178 47.9329 38.882 47.6336C40.1462 47.3501 40.8987 45.1294 41.1395 44.0426C41.3803 42.9716 41.1846 40.8454 41.1846 40.8454L43.6528 43.1606H43.6378Z" fill="url(#paint2_linear_2909_185449)" stroke="black" stroke-width="0.184752"/>
<path id="Vector_5" fill-rule="evenodd" clip-rule="evenodd" d="M56.3418 44.6411C56.3418 44.6411 57.1996 43.2551 57.8919 43.3654C58.5993 43.4599 59.2615 44.3419 59.3066 44.3891C59.6984 44.0421 60.0472 43.6453 60.3451 43.2079C60.2999 43.1606 59.2615 40.6091 58.6896 40.4989C58.0844 40.44 57.4746 40.5373 56.9137 40.7824L56.3418 44.6411Z" fill="url(#paint3_linear_2909_185449)" stroke="black" stroke-width="0.184752"/>
<path id="Vector_6" fill-rule="evenodd" clip-rule="evenodd" d="M54.4604 43.1606C54.4604 43.2551 54.7614 46.9091 55.9654 48.1849C57.1694 49.4606 59.171 50.2481 59.8784 50.0591C60.5707 49.8544 62.181 46.1689 62.181 46.1689C62.181 46.1689 60.4804 47.9329 59.2162 47.6336C57.952 47.3501 57.1995 45.1294 56.9587 44.0426C56.7179 42.9716 56.9135 40.8454 56.9135 40.8454L54.4453 43.1606H54.4604Z" fill="url(#paint4_linear_2909_185449)" stroke="black" stroke-width="0.184752"/>
<path id="Vector_7" fill-rule="evenodd" clip-rule="evenodd" d="M38.0302 42.5494C37.4709 43.2277 37.1734 43.7632 36.9354 44.1559C36.6974 44.5486 36.8402 45.1079 37.3757 45.8814C37.9707 46.7144 42.7783 50.0107 49.0496 50.0107C55.3209 50.0107 60.1285 46.7263 60.7116 45.8814C61.259 45.096 61.4018 44.5486 61.1638 44.1559C60.9258 43.7632 60.6283 43.2277 60.069 42.5494C60.069 43.5728 56.0825 47.3094 49.0496 47.3094C42.0167 47.3094 38.0302 43.5728 38.0302 42.5494V42.5494Z" fill="url(#paint5_linear_2909_185449)" stroke="black" stroke-width="0.1785"/>
<path id="Vector_8" fill-rule="evenodd" clip-rule="evenodd" d="M59.7845 49.5088L60.8682 47.6345L60.3264 47.2408C60.1759 47.7133 59.5588 47.8708 59.4535 48.4693C59.3481 49.0678 59.8748 49.6505 59.7845 49.5088V49.5088Z" fill="url(#paint6_linear_2909_185449)" stroke="black" stroke-width="0.184752"/>
<path id="Vector_9" fill-rule="evenodd" clip-rule="evenodd" d="M60.7667 48.9724C60.7667 48.9724 60.9623 48.1376 60.3453 48.0274C59.7433 47.9329 59.4122 48.4999 59.5025 48.2794C59.5928 48.0274 59.954 47.7911 60.0142 46.9564C60.0593 46.1216 59.969 45.6649 59.969 45.6649C59.969 45.6649 60.2098 44.5939 61.1881 44.7356C62.1814 44.8931 62.2265 45.6806 62.2265 45.9641C62.2265 46.2476 62.1362 46.4051 62.1362 46.4051L60.7667 48.9724Z" fill="url(#paint7_linear_2909_185449)" stroke="black" stroke-width="0.184752"/>
<path id="Vector_10" d="M57.3417 45.7668L57.5455 46.1234L57.678 46.0419L57.5863 45.8076L57.6067 45.7566L57.841 45.614L58.4522 46.6939V46.7448L58.3197 46.8365L58.381 46.9384L58.9616 46.5614L58.9107 46.4595L58.7782 46.541L58.7273 46.5309L58.1161 45.451L58.3401 45.2981H58.3911L58.5438 45.5019L58.6763 45.4103L58.4726 45.0639L57.3418 45.777L57.3417 45.7668ZM55.885 46.6021L55.9358 46.704L56.0582 46.6531L56.1091 46.6632L56.6388 47.7635L56.6287 47.8145L56.5065 47.8857L56.5573 47.9876L57.1381 47.682L57.0871 47.5801L56.9648 47.6311L56.914 47.6209L56.6592 47.1014L57.2501 46.7957L57.5047 47.3051L57.4946 47.356L57.3723 47.4375L57.4232 47.5394L58.004 47.2337L57.9531 47.1319L57.8308 47.1829L57.7798 47.1625L57.2501 46.0725L57.2603 46.0215L57.3826 45.9502L57.3316 45.8484L56.7508 46.154L56.8018 46.2557L56.9241 46.1946L56.975 46.215L57.1992 46.6632L56.6083 46.969L56.3842 46.5207L56.4046 46.4697L56.5166 46.3985L56.4657 46.2966L55.885 46.6021ZM55.5487 47.5394L55.5793 47.6413L55.7423 47.6005L55.7932 47.6209L55.9257 48.0794L55.8035 48.1201C55.4672 48.222 55.1922 48.059 55.0802 47.6616C54.9681 47.2745 55.1006 46.9791 55.4265 46.8773C55.489 46.8575 55.5548 46.8506 55.6201 46.8569L55.6608 46.8874L55.773 47.1014L55.936 47.0504L55.8341 46.6836C55.6507 46.6836 55.4877 46.704 55.3451 46.7449C54.8561 46.9078 54.632 47.3051 54.7542 47.7636C54.8866 48.222 55.2941 48.4359 55.7526 48.2933C55.9215 48.2388 56.08 48.1562 56.2212 48.0488L56.0683 47.5394L56.099 47.4986L56.2212 47.4478L56.1906 47.3356L55.5487 47.5394ZM54.1938 48.8129L54.8458 48.6091L54.8153 48.497L54.6625 48.5276L54.6217 48.5073L54.2651 47.3255L54.2855 47.2848L54.4281 47.2236L54.3976 47.1217L53.7456 47.3255L53.7761 47.4274L53.929 47.3968L53.9697 47.4171L54.3263 48.5989L54.2957 48.6396L54.1632 48.7009L54.1938 48.8026V48.8129ZM50.6486 49.3935L51.7998 49.2916L51.7591 48.874L51.6165 48.8841L51.5961 49.1286L51.5757 49.1694L51.0765 49.2204L51.0256 48.6091L51.3107 48.5887L51.3413 48.6194L51.3718 48.7824H51.5043L51.4535 48.2424H51.3311V48.4155L51.3006 48.4562L51.0153 48.4767L50.9746 47.9266L51.4025 47.896L51.433 47.9164L51.4737 48.1201L51.6266 48.1099L51.5961 47.7431L50.5161 47.845V47.9469H50.6587L50.6893 47.9876L50.7912 49.2101L50.7708 49.2509L50.6383 49.2713V49.3935H50.6486ZM48.927 47.8654V47.9775L49.0593 47.9876L49.09 48.0284L49.1103 49.2509L49.0797 49.2916L48.9575 49.312V49.4139H49.5687V49.3019L49.4362 49.2916L49.3956 49.2509V48.6702L50.0068 48.66L50.0272 49.2407L49.9966 49.2815L49.8641 49.2916V49.4038H50.4753V49.2815H50.343L50.3123 49.2407L50.292 48.008L50.3226 47.9673L50.4448 47.9571V47.845H49.8336V47.9673L49.9661 47.9775L50.0067 48.008V48.5174L49.3955 48.5276L49.3751 48.0182L49.4158 47.9876L49.5381 47.9775V47.8654H48.927ZM47.623 47.8246V48.2321H47.7655L47.8063 47.9876L47.8368 47.9571H48.0916V49.2204L48.0508 49.2611H47.9082V49.3834H48.55V49.2815L48.4073 49.2611L48.3768 49.2204L48.387 47.9673H48.6417L48.6825 47.9979L48.713 48.2525H48.8556V47.845L47.623 47.8246ZM45.6363 49.1389L46.757 49.1898L46.7773 48.7822L46.6347 48.7721L46.594 49.0166L46.5635 49.0471L46.0743 49.0267L46.105 48.4155L46.38 48.4359L46.4003 48.4665L46.4207 48.6396H46.543L46.5633 48.1099H46.4412L46.4106 48.2627L46.3801 48.2934H46.105L46.1355 47.733L46.543 47.7534L46.5736 47.7839L46.6041 47.9876L46.7468 47.9979L46.757 47.6311L45.7077 47.5801V47.6922L45.83 47.7126L45.8605 47.7534L45.8096 48.9759L45.7688 49.0166H45.6363V49.1286V49.1389ZM43.0588 48.4665L43.6498 48.6702L43.6803 48.5684L43.5581 48.5073L43.5377 48.4562L43.8943 47.2848L43.9351 47.2644L44.0776 47.2949L44.1082 47.193L43.5072 46.9893L43.4766 47.0911L43.5988 47.1524L43.6295 47.193L43.2627 48.3646L43.222 48.3951L43.0895 48.3544L43.0588 48.4665ZM41.9892 48.059C42.0981 48.1486 42.2224 48.2177 42.356 48.2627C42.682 48.3646 42.9468 48.2424 43.0283 47.9878C43.0487 47.9199 43.0519 47.8481 43.0377 47.7788C43.0235 47.7094 42.9922 47.6447 42.9468 47.5904C42.845 47.4681 42.7533 47.3967 42.7126 47.3356C42.6208 47.2337 42.5903 47.1421 42.6107 47.0402C42.6515 46.9281 42.7737 46.867 42.9163 46.918C42.9876 46.9384 43.0182 46.9588 43.0588 46.9995L43.0691 47.0402L43.0386 47.2745L43.1811 47.3255L43.2831 46.9689C43.1809 46.8806 43.0635 46.8116 42.9367 46.7651C42.6515 46.6633 42.407 46.7957 42.3255 47.0402C42.3097 47.0984 42.306 47.1591 42.3148 47.2187C42.3236 47.2783 42.3445 47.3355 42.3763 47.3866C42.4476 47.4986 42.5292 47.57 42.5903 47.6413C42.7126 47.7635 42.7533 47.8756 42.7227 47.9876C42.682 48.1099 42.5597 48.171 42.3967 48.1099C42.3376 48.0887 42.2825 48.0577 42.2337 48.0182L42.2133 47.9775L42.2643 47.7025L42.1115 47.6515L41.9892 48.059ZM40.6342 47.4885L41.653 47.9979L41.8262 47.6209L41.704 47.5597L41.5715 47.7635L41.5307 47.7839L41.0825 47.5597L41.3372 47.0199L41.5817 47.1421L41.5918 47.1829L41.541 47.3459L41.653 47.407L41.8771 46.918L41.7651 46.867L41.6733 46.9995L41.6326 47.0199L41.3881 46.8976L41.6122 46.3984L41.9892 46.592L42.0096 46.6328L41.9485 46.8262L42.081 46.8875L42.2337 46.5614L41.2761 46.0826L41.2353 46.1845L41.3372 46.2557L41.3576 46.3068L40.8482 47.4171L40.8075 47.4274L40.6852 47.3866L40.6445 47.4885H40.6342ZM40.4713 45.6344L39.962 45.2777L39.9007 45.3796L40.0027 45.4611V45.5121L39.3608 46.5309L39.31 46.541L39.2081 46.4799L39.1367 46.5817L39.6461 46.9281C39.8295 47.0504 39.9823 47.1115 40.1453 47.0911C40.3592 47.0708 40.5528 46.9486 40.6953 46.7142C40.9501 46.3067 40.8788 45.9094 40.4713 45.6344ZM40.2573 45.6344L40.3592 45.7159C40.6342 45.8992 40.6648 46.1743 40.4305 46.5309C40.1961 46.8875 39.9517 46.9791 39.6767 46.7855L39.5748 46.7244L40.2573 45.6445V45.6344ZM44.3323 47.244L44.312 47.3459L44.4342 47.3866L44.4546 47.4274L44.2101 48.6295L44.1693 48.66L44.0471 48.6499L44.0267 48.7518L44.6075 48.8843L44.6278 48.7824L44.5056 48.7314L44.475 48.6906L44.5768 48.1813L44.6176 48.1915C44.8213 48.2424 44.8621 48.3442 44.8825 48.5786C44.8825 48.6906 44.8825 48.7925 44.9742 48.9147C45.015 48.9656 45.0761 49.0166 45.178 49.0267C45.245 49.0419 45.3131 49.0522 45.3817 49.0574L45.4021 48.9555L45.3817 48.9453C45.2391 48.9148 45.178 48.8638 45.1677 48.7314C45.1575 48.6091 45.1677 48.4869 45.1168 48.3646C45.0809 48.2827 45.0154 48.2172 44.9335 48.1813C45.178 48.1813 45.3206 48.0794 45.3613 47.8756C45.4122 47.621 45.2798 47.4477 44.9538 47.3764L44.3426 47.244H44.3323ZM44.7398 47.4579L44.8213 47.4782C45.0251 47.5292 45.1066 47.6515 45.0658 47.8349C45.0251 48.0489 44.9028 48.1201 44.6787 48.0691C44.6583 48.0691 44.638 48.0691 44.6075 48.0488L44.7297 47.4579H44.7398ZM52.2786 47.5904L52.299 47.7024H52.4315L52.4722 47.7228L52.6657 48.9453L52.6352 48.9759L52.5027 49.0166L52.5231 49.1185L53.1547 49.0166L53.1446 48.9046L53.002 48.9147L52.9612 48.8843L52.8797 48.3747H52.9205C53.1446 48.3239 53.2261 48.4155 53.328 48.6193C53.3788 48.7211 53.4095 48.823 53.5418 48.8944C53.603 48.9249 53.6947 48.9452 53.7966 48.9249C53.8726 48.9097 53.9475 48.8893 54.0207 48.8638L54.0003 48.7619H53.9697C53.817 48.7925 53.7456 48.7619 53.6743 48.6499C53.6131 48.548 53.5725 48.4258 53.491 48.3341C53.4297 48.2729 53.3483 48.2323 53.2362 48.2323C53.4807 48.1405 53.5928 47.9878 53.5622 47.7738C53.5215 47.5191 53.3177 47.4171 52.9713 47.4681L52.2786 47.5904ZM52.7676 47.6413L52.8695 47.6311C53.0835 47.5904 53.2158 47.6719 53.2465 47.8654C53.277 48.0691 53.1852 48.1914 52.9408 48.2321H52.8593L52.7575 47.6413H52.7676Z" fill="black"/>
<path id="Vector_11" fill-rule="evenodd" clip-rule="evenodd" d="M38.3234 49.5088L37.2398 47.6345L37.7816 47.2408C37.9321 47.7133 38.5491 47.8708 38.6545 48.4693C38.7598 49.0678 38.2331 49.6505 38.3234 49.5088V49.5088Z" fill="url(#paint8_linear_2909_185449)" stroke="black" stroke-width="0.184752"/>
<path id="Vector_12" fill-rule="evenodd" clip-rule="evenodd" d="M37.3314 48.9724C37.3314 48.9724 37.1358 48.1376 37.7528 48.0274C38.3548 47.9329 38.6859 48.4999 38.5956 48.2794C38.5053 48.0274 38.1441 47.7911 38.0839 46.9564C38.0388 46.1216 38.1291 45.6649 38.1291 45.6649C38.1291 45.6649 37.8883 44.5939 36.9101 44.7356C35.9168 44.8931 35.8716 45.6806 35.8716 45.9641C35.8716 46.2476 35.9619 46.4051 35.9619 46.4051L37.3314 48.9724Z" fill="url(#paint9_linear_2909_185449)" stroke="black" stroke-width="0.184752"/>
<path id="Vector_13" fill-rule="evenodd" clip-rule="evenodd" d="M49.0633 46.6923C49.0633 46.6923 37.7005 43.3218 37.7758 30.5958L37.851 13.7433H60.2605L60.3357 30.5013C60.411 43.2273 49.0482 46.6765 49.0482 46.6765L49.0633 46.6923Z" fill="#0072C4" stroke="#F5F5F5" stroke-width="0.600445"/>
<g id="Group">
<path id="Vector_14" fill-rule="evenodd" clip-rule="evenodd" d="M39.4119 17.5169C39.4323 17.5169 39.5646 17.3844 39.6971 17.2724C39.8703 17.1705 40.0333 17.0584 40.2064 16.9667C40.349 16.8955 40.6139 16.8342 40.726 16.7732C40.8912 16.6933 41.0372 16.5786 41.1539 16.437C41.1743 16.2129 41.2048 16.0499 41.2048 15.7952L41.7141 15.5405C41.9485 15.4794 41.9994 15.3877 42.2338 15.347C42.3865 15.296 42.631 15.296 42.845 15.296C43.0793 15.296 43.2219 15.4692 43.4359 15.4997C43.6905 15.6016 43.8026 15.6729 44.0064 15.8461C44.1083 15.9887 44.1795 16.111 44.3731 16.2129C44.5259 16.2944 44.6685 16.4166 44.8418 16.4574C45.0455 16.5694 45.2085 16.6407 45.3613 16.8037C45.5039 16.9056 45.565 17.0482 45.6873 17.1501C45.8373 17.2782 45.9975 17.3941 46.1661 17.4965C46.3699 17.629 46.5736 17.7307 46.8894 17.7002C47.0626 17.7002 47.246 17.6696 47.4498 17.7002C47.684 17.7002 47.9081 17.7002 48.1119 17.7614C48.3564 17.7614 48.55 17.7919 48.7741 17.8122C48.9779 17.853 49.1918 17.853 49.4261 17.853C49.6299 17.9142 49.854 17.904 50.0883 17.904H51.4128C51.647 17.904 51.8915 17.9141 52.0648 17.9549C52.2829 17.9516 52.5007 17.9346 52.7168 17.904C52.9816 17.904 53.1751 17.8632 53.4299 17.853H54.2245C54.4283 17.9142 54.6931 17.9549 54.8358 18.0567C55.0293 18.1077 55.121 18.1994 55.3044 18.2605C55.487 18.3355 55.6506 18.4504 55.7831 18.5967C55.9319 18.7595 56.0586 18.941 56.16 19.1367C56.2823 19.3302 56.3333 19.5442 56.4351 19.7785C56.486 20.0026 56.537 20.2165 56.537 20.461C56.5778 20.675 56.5778 20.9092 56.5778 21.1537C56.5269 21.3779 56.5166 21.6225 56.4351 21.8364C56.4351 22.0809 56.3841 22.2947 56.3434 22.4781C56.3026 22.6819 56.2518 22.8144 56.2415 23.069V23.7617C56.2415 23.9859 56.1804 24.1489 56.16 24.3934C56.0341 24.6348 55.9218 24.8831 55.8239 25.1371C55.6758 25.2422 55.5481 25.3734 55.447 25.5242C55.3451 25.5955 55.2941 25.6872 55.3044 25.728C55.4979 25.7891 55.4469 25.9215 55.4469 26.166C55.4775 26.3596 55.4876 26.5939 55.5488 26.8079C55.559 27.0421 55.61 27.1847 55.6813 27.3479C55.7628 27.4496 55.7831 27.3987 55.5896 27.3987C55.4571 27.5006 55.3145 27.4496 55.2636 27.2459C55.1572 27.0838 55.0908 26.8988 55.07 26.706C55.0496 26.4819 55.0089 26.2577 54.9375 26.1151C54.907 25.8401 54.8358 25.8401 54.5606 25.8196C54.4281 25.7076 54.255 25.6771 53.9901 25.6771C53.7355 25.6771 53.7151 25.6465 53.7049 25.9215V26.6142C53.6641 26.818 53.5724 26.9709 53.5215 27.1542C53.3789 27.2561 53.3178 27.4292 53.1446 27.5414C53.0631 27.7655 52.951 27.8062 52.7269 27.847L52.4416 27.5006C52.5741 27.2765 52.6861 27.246 52.7676 27.0014C52.8695 26.8079 52.9306 26.6856 53.002 26.5124C52.9001 26.3596 52.8186 26.2882 52.7269 26.0744C52.6257 25.904 52.5437 25.7229 52.4824 25.5344C52.3296 25.4732 52.0851 25.4631 51.973 25.3816C51.7388 25.3306 51.6776 25.5854 51.4025 25.5854H50.7505C50.4551 25.5854 50.3838 25.7381 50.1393 25.728C50.0578 25.7484 49.8846 25.7177 49.6198 25.728C49.416 25.7992 49.1816 25.7789 48.9575 25.7789C48.7233 25.7789 48.5296 25.7177 48.3463 25.677C48.1324 25.6159 47.9184 25.5547 47.6943 25.5345C47.409 25.5345 47.3071 25.5547 47.1238 25.677C46.9811 25.7687 46.7673 25.9622 46.6144 26.0744C46.5431 26.2374 46.5125 26.5124 46.4106 26.706C46.3699 26.9097 46.2884 27.0217 46.2273 27.2051C46.1514 27.3936 46.1066 27.5932 46.0948 27.796C46.0745 28.122 46.0031 28.0812 45.8096 27.9896C45.7281 27.847 45.6059 27.7044 45.5244 27.5414C45.5651 27.2969 45.6263 27.1746 45.6263 26.9097C45.5753 26.706 45.4734 26.7264 45.341 26.8587C45.341 27.1135 45.341 27.3172 45.2391 27.4496C45.2214 27.5292 45.188 27.6045 45.1407 27.671C45.0935 27.7375 45.0334 27.7938 44.964 27.8367C44.8928 28.0201 44.7399 28.1119 44.5871 28.1831C44.5668 28.1831 44.5871 28.122 44.5871 27.9794C44.475 27.7655 44.5871 27.5719 44.5871 27.2969C44.5871 27.0524 44.5668 26.8894 44.638 26.6652C44.638 26.4207 44.5361 26.1966 44.4954 26.0234C44.4038 25.84 44.3528 25.7484 44.1185 25.6771C43.9453 25.6057 43.711 25.5242 43.5989 25.3714C43.4909 25.2211 43.3426 25.1046 43.171 25.0352C42.9673 24.964 42.8553 24.8824 42.7024 24.7907C42.5598 24.6277 42.4375 24.5666 42.3764 24.3527C42.2745 24.1999 42.2644 23.9146 42.193 23.7109C42.1729 23.5083 42.1249 23.3094 42.0504 23.12C42.0273 22.9179 41.9794 22.7195 41.9078 22.5291C41.8773 22.3254 41.8263 22.1216 41.7651 21.8872C41.7651 21.653 41.7651 21.4186 41.7143 21.2047V20.512C41.6836 20.3082 41.6735 20.023 41.6225 19.8701C41.6225 19.6052 41.592 19.4626 41.5206 19.2792C41.4188 19.1061 41.4188 19.0347 41.2456 18.9839C41.1234 19.1366 40.9298 19.208 40.6853 19.2385C40.5121 19.1977 40.2676 19.1672 40.074 19.0857C39.8805 19.045 39.7583 18.9635 39.6054 18.882C39.5174 18.7478 39.4222 18.6186 39.3201 18.4949C39.2896 18.2401 39.2386 18.1077 39.2183 17.853C39.2183 17.6696 39.2285 17.7715 39.422 17.5169H39.4119Z" fill="#BCBCBC"/>
<path id="Vector_15" fill-rule="evenodd" clip-rule="evenodd" d="M42.193 19.2895L42.2338 19.2487C42.1523 19.3302 42.1829 19.2895 42.3663 19.2182C42.4681 19.157 42.6616 19.045 42.733 18.9737C42.8145 18.933 42.9571 18.8719 43.0386 18.8005C43.1201 18.6986 43.2118 18.6171 43.334 18.5255C43.4563 18.4134 43.5785 18.3726 43.7314 18.281C43.9148 18.2606 43.986 18.1791 44.1593 18.2402C44.3223 18.281 44.3935 18.281 44.526 18.1384C44.6584 18.0569 44.8113 17.9651 44.8621 17.8327V17.6187C44.8621 17.8429 44.8113 17.9244 44.6584 17.9956C44.5565 18.1281 44.4139 18.2606 44.3528 18.3827C44.2509 18.5356 44.2305 18.6171 44.1286 18.6884C44.037 18.8005 43.8944 18.8616 43.8638 19.045C43.9045 19.1265 43.8638 19.1672 43.9656 19.1775C44.0574 19.2589 44.1593 19.2284 44.2916 19.1775C44.4023 19.0576 44.4918 18.9198 44.5565 18.77C44.6686 18.6069 44.7298 18.5356 44.7909 18.4134C44.9131 18.3319 44.9844 18.2707 45.0251 18.1384C45.1576 18.0567 45.2696 17.9752 45.3614 17.8937C45.4633 17.8326 45.5141 17.7817 45.6568 17.7512C45.6672 17.8881 45.6313 18.0244 45.5549 18.1384C45.5244 18.3319 45.5345 18.4236 45.5956 18.5459C45.6874 18.6171 45.6669 18.6681 45.7281 18.8005C45.779 18.6782 45.8096 18.4541 45.83 18.3115V18.281C45.83 18.4235 45.83 18.6272 45.7893 18.7292C45.7893 18.933 45.8401 19.0246 45.8911 19.1775C45.942 19.259 45.993 19.3099 46.0541 19.3506C46.0541 19.1469 46.1153 19.0246 46.1254 18.8412C46.1661 18.9737 46.156 19.1672 46.1865 19.32C46.1968 19.4831 46.2578 19.6054 46.319 19.7377C46.4005 19.7785 46.4209 19.9211 46.4514 19.809C46.5329 19.5646 46.5329 19.2997 46.5839 19.045C46.594 18.9125 46.6043 18.719 46.6551 18.6274L46.5839 19.0349C46.594 18.9126 46.6043 18.7292 46.6551 18.6274V18.5866C46.6921 18.7714 46.716 18.9587 46.7264 19.1469C46.7264 19.2997 46.7163 19.4525 46.757 19.5951C46.8589 19.5442 46.9303 19.422 46.9914 19.2895C47.0629 19.1498 47.1519 19.0197 47.2563 18.9024L46.9913 19.2794C47.0636 19.1432 47.1526 19.0165 47.2563 18.9024V18.8719C47.2367 19.0307 47.2265 19.1906 47.2256 19.3506C47.2256 19.5136 47.2256 19.697 47.2563 19.8091C47.297 19.9925 47.3479 20.023 47.3581 20.2166C47.3581 20.3185 47.3378 20.4204 47.3886 20.4712C47.5313 20.5019 47.5313 20.4204 47.5516 20.2267C47.5516 20.0026 47.6128 19.8499 47.6229 19.6359C47.6229 19.371 47.6535 19.6665 47.6841 19.7684C47.7451 19.9139 47.7796 20.0691 47.786 20.2267C47.786 20.3286 47.7758 20.4204 47.8165 20.4712C47.949 20.4101 47.9999 20.2675 48.0814 20.186C48.1526 20.023 48.224 19.9517 48.2851 19.8396C48.4584 19.8091 48.4481 19.7377 48.4481 19.534C48.4481 19.3609 48.4379 19.1876 48.4889 19.045C48.5418 18.8948 48.586 18.7418 48.6214 18.5866C48.6825 18.556 48.7436 18.6477 48.7844 18.7291C48.8556 18.8412 48.8455 19.0042 48.8455 19.1775C48.8863 19.3302 48.9474 19.4525 49.0186 19.5951C49.0805 19.7208 49.1593 19.8373 49.2529 19.9415C49.2835 20.0536 49.2835 20.2471 49.2835 20.4C49.416 20.2471 49.4363 20.0332 49.4465 19.8091C49.4261 19.6562 49.4261 19.4627 49.3854 19.3201C49.3854 19.1672 49.3446 19.0145 49.3141 18.9024C49.2123 18.8515 49.1816 18.8005 49.2835 18.6579C49.3854 18.5662 49.5076 18.607 49.6808 18.6274C49.7725 18.719 49.803 18.7699 49.8133 18.9736C49.8133 19.1571 49.8133 19.2997 49.8845 19.422C49.9458 19.5239 50.0068 19.5951 50.0475 19.7682C50.0985 19.8192 50.1393 19.8906 50.2105 19.8091C50.2513 19.7072 50.2819 19.5035 50.3124 19.3914C50.343 19.2589 50.4041 19.1876 50.4754 19.1469C50.4754 19.3405 50.4754 19.4525 50.5468 19.5951C50.6079 19.748 50.6486 19.8091 50.7098 19.9822C50.781 20.0332 50.7913 20.1351 50.8829 20.186C50.9033 20.023 50.9135 19.8396 50.9135 19.6359V19.1469C50.9238 18.9839 50.9645 18.8921 51.0154 18.7597C51.1173 18.9024 51.1173 18.9532 51.1173 19.1469C51.2191 19.1061 51.2395 19.0246 51.2803 18.9024C51.3515 18.8311 51.3821 18.8005 51.4128 18.9736C51.4331 19.1571 51.4739 19.3201 51.5146 19.4932C51.5758 19.5747 51.6571 19.7682 51.7388 19.8396C51.7965 19.9416 51.8648 20.0372 51.9425 20.1249C51.9934 20.2267 52.0036 20.298 52.1463 20.3286C52.1463 20.0944 52.1463 19.86 52.1055 19.6359C52.1055 19.4321 52.0648 19.3609 52.0443 19.1775C51.9833 19.0654 51.9526 18.882 51.973 18.8311C52.1061 18.9446 52.2107 19.0876 52.2786 19.2487C52.3499 19.4219 52.4213 19.534 52.4824 19.7071C52.5793 19.8133 52.6647 19.9294 52.7371 20.0535C52.8594 20.1554 52.9205 20.2675 53.0428 20.3591C53.1039 20.4204 53.2465 20.461 53.277 20.4305C53.2669 20.2267 53.2363 20.0536 53.1751 19.8804C53.1748 19.735 53.1399 19.5918 53.0733 19.4626C52.9408 19.3506 52.839 19.2691 52.7676 19.1164C52.7269 19.0654 52.7168 19.0347 52.7065 18.9431C52.8821 19.0825 53.0396 19.2433 53.1751 19.4219C53.241 19.5247 53.3322 19.6089 53.44 19.6664C53.5011 19.7479 53.6948 19.8396 53.8374 19.8701C53.9201 19.9795 54.0394 20.0555 54.1735 20.0841L53.8373 19.8804C53.9217 19.986 54.0408 20.0582 54.1735 20.0841V20.1249C54.1491 19.925 54.0794 19.7334 53.9698 19.5645C53.9061 19.4094 53.8002 19.2753 53.6641 19.1774C53.5814 19.051 53.4696 18.9462 53.3381 18.8717C53.2465 18.7699 53.114 18.5865 53.0325 18.5255C53.1854 18.4235 53.3484 18.5865 53.5011 18.6579C53.6336 18.8005 53.7559 18.9839 53.8374 19.0755C53.9156 19.2428 54.0186 19.3974 54.143 19.534C54.2855 19.6155 54.3773 19.697 54.4995 19.809C54.7033 19.86 54.6218 19.7886 54.5708 19.6359C54.4995 19.4321 54.5708 19.4321 54.7033 19.5646C54.795 19.6359 54.907 19.7377 55.0395 19.809C55.0904 19.8804 55.182 19.9312 55.2636 19.8804C55.3044 19.8294 55.3044 19.8294 55.3044 19.7785C55.233 19.5544 55.1618 19.3914 54.9988 19.32C54.9274 19.2181 54.795 19.1162 54.6931 19.0144C54.6319 18.9125 54.5606 18.8514 54.4995 18.7291L54.7033 19.0042C54.632 18.9024 54.5606 18.8514 54.4995 18.7292H54.469C54.6728 18.7292 54.744 18.7902 54.8969 18.8717C55.0201 18.9222 55.1263 19.0071 55.2025 19.1162C55.2636 19.1977 55.3756 19.2895 55.4368 19.3914L55.7628 19.6359C55.8749 19.7785 55.8953 19.8701 55.8953 20.0841C55.9665 20.186 55.9768 20.3897 55.9971 20.5017C55.9768 20.6954 55.9054 20.5425 55.8953 20.4305C55.8749 20.2776 55.8138 20.2879 55.6915 20.3286C55.6915 20.5324 55.722 20.5935 55.7934 20.7462C55.7795 20.8695 55.7377 20.988 55.6711 21.0926C55.5896 21.1436 55.5693 20.9907 55.4979 20.9195C55.4979 20.7157 55.4368 20.6851 55.2941 20.5731V20.7157C55.3756 20.8584 55.4571 20.9907 55.4674 21.1945C55.5202 21.3414 55.5444 21.497 55.5386 21.653C55.5386 21.8261 55.5386 21.9892 55.4979 22.142C55.4979 22.3254 55.4674 22.4069 55.4674 22.5902V23.5682C55.443 23.7164 55.4328 23.8664 55.4368 24.0165L55.4674 23.5682C55.447 23.6905 55.4368 23.8432 55.4368 24.0165V24.047C55.3756 23.8739 55.3043 23.721 55.2636 23.5376C55.1656 23.4351 55.0894 23.3139 55.0395 23.1811C55.0089 23.0282 54.9988 22.8551 54.9681 22.7329C54.9173 22.6106 54.8663 22.4781 54.7644 22.5596C54.7236 22.8144 54.7848 22.9671 54.8663 23.2116C54.9173 23.3746 54.9173 23.5172 54.9681 23.6701C55.0496 23.8535 55.1108 23.8739 54.9681 24.0776C54.8969 24.1999 54.8663 24.2304 54.8356 24.3629C54.7135 24.424 54.6829 24.4647 54.6728 24.6074C54.632 24.4749 54.5301 24.3119 54.469 24.1591C54.4078 23.9859 54.3365 23.8127 54.306 23.6701C54.2245 23.5479 54.1328 23.3645 54.041 23.283C53.9494 23.1811 53.8373 22.9774 53.7763 22.8755C53.6438 22.7226 53.6133 22.631 53.5011 22.5596C53.4808 22.4884 53.44 22.3966 53.3686 22.4577C53.3686 22.6207 53.3686 22.794 53.4095 22.9366C53.44 23.1404 53.5011 23.2524 53.5114 23.4561V23.8432C53.4299 23.6395 53.3381 23.4765 53.277 23.283C53.1955 23.1811 53.1344 22.9774 53.0428 22.906C52.9815 22.7635 52.9409 22.6514 52.8695 22.5597C52.8594 22.4577 52.8084 22.4577 52.7676 22.3865C52.7676 22.58 52.8389 22.6514 52.8695 22.794C52.9315 22.9276 52.9561 23.0754 52.9408 23.2219C52.8594 22.9774 52.7779 22.7125 52.676 22.4884C52.5741 22.3457 52.4723 22.1624 52.411 22.0299C52.3093 21.9179 52.2073 21.9076 52.1055 21.8261C52.0181 21.7871 51.9412 21.7277 51.8814 21.653C51.9018 21.8364 51.973 21.9586 52.0138 22.1012C52.0341 22.2744 52.1156 22.417 52.1463 22.5596C52.1055 22.794 52.0444 22.4884 52.0138 22.3865C51.973 22.1827 51.9119 22.0809 51.8406 21.9687C51.7489 21.8975 51.6776 21.7854 51.5756 21.7242C51.4739 21.6835 51.5146 21.7242 51.5146 21.8567C51.5146 22.0706 51.5146 22.2132 51.5758 22.3457C51.647 22.4476 51.647 22.58 51.647 22.7634C51.6369 22.9366 51.6063 23.069 51.6063 23.2524V23.5275C51.535 23.3849 51.4636 23.2931 51.4025 23.1097C51.3006 22.9467 51.2599 22.8347 51.1784 22.6615C51.1071 22.631 50.9746 22.6004 50.9135 22.6615C50.9238 22.8347 51.0053 22.906 51.0154 23.1097C50.8829 23.2422 50.9034 23.283 50.8116 23.0792C50.7404 22.9162 50.6486 22.9264 50.5468 22.8347C50.3838 22.8144 50.4348 22.7022 50.3838 22.5495C50.3838 22.417 50.3838 22.2846 50.343 22.1725C50.1596 22.1725 50.0578 22.1725 49.9458 22.2744C49.8948 22.3762 49.9151 22.58 49.9458 22.7329V23.2116C49.905 23.3339 49.8439 23.3441 49.8133 23.4969C49.7521 23.6395 49.7318 23.8025 49.6808 23.9044C49.5586 24.0165 49.6095 24.0266 49.5484 23.8432V22.7226C49.5484 22.5392 49.579 22.4476 49.579 22.2744C49.5178 22.1319 49.4975 22.1012 49.2734 22.1012C49.2326 22.1929 49.253 22.3559 49.2734 22.4476C49.2734 22.6207 49.2938 22.7839 49.3141 22.906C49.3141 23.0894 49.3345 23.2015 49.3446 23.3542C49.3446 23.5376 49.3039 23.6802 49.2121 23.7617C49.1001 23.8025 49.202 23.884 49.0798 23.9146C48.9463 23.8513 48.8228 23.7689 48.713 23.6701C48.5908 23.6294 48.4685 23.5989 48.2851 23.5989C48.061 23.5989 48.061 23.5682 47.9795 23.3951C47.9221 23.2124 47.8811 23.0248 47.8573 22.8347C47.7758 22.6717 47.7554 22.5597 47.7248 22.3762C47.6788 22.2787 47.6087 22.1945 47.521 22.1317C47.4701 22.3151 47.4193 22.4577 47.4193 22.6615C47.3785 22.743 47.3683 22.9467 47.358 23.0385C47.2868 22.9366 47.2563 22.7329 47.2155 22.5902C47.1543 22.3865 47.1034 22.2439 46.8895 22.3152C46.6654 22.3152 46.6551 22.3152 46.6551 22.5596L46.92 22.9671V23.4561C46.92 23.6599 46.9303 23.7211 46.7875 23.7617C46.7366 23.558 46.6144 23.3542 46.482 23.1811C46.4718 23.0385 46.431 23.0792 46.2884 23.0792C46.1968 23.0792 46.105 23.0589 46.0541 23.1097V23.4154C45.9726 23.4357 45.9523 23.4154 45.8911 23.3542C45.8299 23.4561 45.8809 23.5987 45.8911 23.7312C45.8504 23.8942 45.7893 24.0369 45.7281 24.1184C45.7078 24.0674 45.6771 24.0877 45.7281 24.0877C45.4938 23.9961 45.3206 23.9452 45.1169 23.884C45.015 23.884 44.9233 23.9961 44.8621 24.0877C44.689 24.1387 44.6176 24.1896 44.4241 24.1896C44.2509 24.1896 44.1591 24.2202 43.9963 24.2202C43.874 24.2507 43.7211 24.261 43.5581 24.261C43.4766 24.2304 43.3136 24.2304 43.2628 24.1897C43.334 24.0877 43.4053 24.0369 43.4665 23.884C43.5623 23.8073 43.6509 23.722 43.7314 23.6294C43.8129 23.5682 43.9148 23.4357 43.9963 23.3544C44.0471 23.1811 44.1185 23.1506 44.2305 23.0792C44.4343 23.0792 44.4649 23.1505 44.6584 23.1811C44.852 23.2524 44.964 23.283 45.0659 23.1404C45.2188 23.0792 45.3511 22.9671 45.5244 22.9366L45.8605 22.7329C46.0031 22.6411 46.0643 22.5495 46.1865 22.4476C46.2273 22.305 46.3291 22.1929 46.2884 22.0401C46.105 21.9891 45.993 21.9994 45.8809 22.1012C45.7484 22.2235 45.7179 22.2744 45.5549 22.3762C45.4224 22.417 45.3511 22.4781 45.1881 22.5189C45.0556 22.5699 44.8825 22.5495 44.7298 22.5495C44.577 22.5495 44.3834 22.5392 44.2916 22.5902C44.4445 22.4884 44.6176 22.3865 44.7603 22.3457C44.8928 22.254 44.9436 22.2132 45.127 22.2031C45.2085 22.1012 45.3003 22.1012 45.3308 21.9281C45.3818 21.7244 45.1983 21.7854 45.0558 21.8567C44.9233 21.8872 44.7705 21.979 44.6584 22.0299C44.5201 22.0749 44.3759 22.0989 44.2305 22.1012C44.1898 22.0401 44.2611 21.9891 44.2916 21.8975C44.4445 21.8364 44.475 21.816 44.4954 21.653C44.3223 21.6734 44.2509 21.7345 44.0879 21.7549C43.9249 21.7956 43.7516 21.816 43.5581 21.8261H43.0998C42.9368 21.8261 42.845 21.7854 42.6616 21.7854C42.5291 21.7141 42.5291 21.6835 42.5291 21.4797C42.6311 21.3575 42.7329 21.3779 42.9366 21.3779L43.2933 21.1945C43.4155 21.1741 43.497 21.1232 43.4665 21.0621H42.9978C42.8145 20.9806 42.9978 20.95 43.0998 20.8889C43.2628 20.8889 43.4258 20.8889 43.5276 20.9501C43.7314 20.9501 43.8026 20.8787 43.9656 20.7464C44.0879 20.6444 44.149 20.5731 44.2916 20.5017C44.3935 20.3897 44.4954 20.3286 44.5565 20.2267C44.6991 20.0942 44.7909 20.023 44.8621 19.9109C44.9436 19.86 45.0048 19.809 44.964 19.7377C44.7501 19.7581 44.6584 19.8396 44.526 19.9415C44.4495 20.0235 44.36 20.0924 44.261 20.1452C44.1353 20.2347 43.9872 20.2876 43.8333 20.298C43.66 20.298 43.5276 20.2675 43.3645 20.2572C43.1813 20.2369 43.3443 20.1961 43.3951 20.1147C43.4664 20.0739 43.5174 19.9619 43.4664 19.8804C43.3239 19.8294 43.1609 19.8396 42.9979 19.8396H42.5291C42.356 19.8396 42.2848 19.7989 42.1625 19.7377C42.1319 19.6359 42.1625 19.6665 42.2949 19.6665C42.4433 19.6605 42.5904 19.6366 42.733 19.5951C42.8858 19.5544 42.9061 19.4932 42.9368 19.3201C42.7738 19.3201 42.6005 19.3201 42.4986 19.2895H42.193ZM39.3201 18.4949C39.2896 18.2402 39.2285 18.1077 39.2183 17.8531C39.2183 17.6697 39.2285 17.7716 39.4118 17.5169C39.4321 17.5169 39.5646 17.3844 39.697 17.2724C39.8703 17.1705 40.0333 17.0584 40.2064 16.9667C40.3389 16.8955 40.6139 16.8342 40.726 16.7732C40.8912 16.6933 41.0372 16.5786 41.1539 16.437C41.164 16.2129 41.1946 16.0499 41.1946 15.7952L41.7141 15.5405C41.9485 15.4794 41.9994 15.3877 42.2338 15.347C42.3865 15.296 42.631 15.296 42.845 15.296C43.0793 15.296 43.2219 15.4692 43.4359 15.4997C43.6905 15.6016 43.8026 15.6729 43.9961 15.8461C44.1083 15.9887 44.1795 16.111 44.3731 16.2129C44.5259 16.2944 44.6685 16.4166 44.8418 16.4574C44.8418 16.6407 44.8825 16.6101 44.7603 16.6101C44.7399 16.7935 44.6991 16.7834 44.5259 16.7834C44.4022 16.7193 44.297 16.6246 44.2203 16.5084C44.2916 16.3249 44.2509 16.6509 44.2203 16.7121C44.1388 16.7834 44.0879 16.8546 43.9961 16.7834C43.935 16.6102 43.8943 16.4981 43.8943 16.2944C43.8638 16.0804 43.8026 16.2332 43.7619 16.3249C43.7109 16.5082 43.7313 16.5694 43.7924 16.712C43.6193 16.712 43.4868 16.6916 43.3645 16.6815C43.2423 16.651 43.0996 16.6815 42.957 16.7426C42.7839 16.8546 42.845 16.8546 42.9265 16.9871C43.0793 17.038 43.1914 17.1196 43.334 17.1909C43.4766 17.1705 43.6396 17.1297 43.7924 17.089C43.9554 17.0381 44.098 17.0787 44.2611 17.089C44.3425 17.1399 44.4444 17.1501 44.4954 17.1909C44.4954 17.3029 44.4954 17.415 44.4546 17.4761C44.3935 17.527 44.3221 17.6492 44.2204 17.6799C44.0777 17.7638 43.9231 17.8256 43.7619 17.8632C43.5581 17.8632 43.4766 17.9141 43.3238 17.9957C43.3034 18.1791 43.2525 18.2199 43.0895 18.281C42.9463 18.3492 42.7896 18.384 42.631 18.3829C42.5291 18.3829 42.4375 18.393 42.3968 18.3421C42.5098 18.2241 42.5997 18.0858 42.6616 17.9346C42.6921 17.8632 42.7533 17.8124 42.6921 17.7512C42.4986 17.7614 42.4476 17.7614 42.4273 17.955C42.4069 18.1485 42.3356 18.1791 42.193 18.2402C42.2338 18.0772 42.2439 17.9346 42.2949 17.792C42.1534 17.8142 42.0102 17.8244 41.867 17.8225C41.7651 17.8937 41.7244 17.9141 41.7651 18.0262C41.6326 18.0771 41.4595 18.0466 41.2965 18.0262C41.1539 18.0262 41.2354 17.9651 41.1335 17.8937C41.0623 17.7614 40.9909 17.7309 40.8279 17.7206C40.7566 17.8225 40.6241 17.8531 40.5324 17.9244C40.3899 17.9752 40.2981 17.9346 40.1656 17.8632C40.0026 17.8632 40.0231 17.9141 40.0638 18.0364C40.1351 18.0772 40.0638 18.1281 40.1656 18.1384C40.2675 18.2199 40.349 18.2402 40.5324 18.2402C40.675 18.2096 40.838 18.2096 41.0011 18.2096C41.164 18.2096 41.1335 18.2504 41.1335 18.4134C41.0316 18.4949 40.8686 18.4846 40.6954 18.4846C40.5593 18.4669 40.4259 18.4328 40.2981 18.3829C40.1453 18.3726 40.0231 18.3421 39.9008 18.3829C39.8499 18.444 39.697 18.4644 39.8703 18.4847C39.9415 18.556 40.3286 18.5152 40.349 18.6375C40.4509 18.7394 40.4204 18.8719 40.2675 18.8719C40.2323 18.8503 40.1917 18.8388 40.1504 18.8388C40.109 18.8388 40.0685 18.8503 40.0333 18.8719C39.9314 18.8922 39.7888 18.8719 39.5951 18.8922C39.8499 18.9126 39.4118 18.6171 39.3201 18.4949V18.4949Z" fill="#FEFEFE"/>
<path id="Vector_16" fill-rule="evenodd" clip-rule="evenodd" d="M40.3696 17.3437L40.1658 17.4761C40.0232 17.5576 39.8602 17.6799 39.7685 17.7511C39.6972 17.8124 39.6972 17.8531 39.6055 17.8531C39.7583 17.8327 39.8296 17.7919 39.9722 17.7206C40.1455 17.7002 40.3085 17.6595 40.4001 17.578C40.4918 17.5475 40.4001 17.415 40.3696 17.3335V17.3437ZM41.8977 15.7035C41.9181 15.7035 41.9588 15.8054 42.0301 15.8767C42.0811 16.0091 42.132 16.1009 42.132 16.2639C42.1727 16.0906 42.2338 15.9582 42.2645 15.7749C42.2135 15.6729 42.2135 15.6424 42.0607 15.6321C42.0607 15.734 42.0811 15.6627 41.8977 15.7035V15.7035Z" fill="#BCBCBC"/>
<path id="Vector_17" fill-rule="evenodd" clip-rule="evenodd" d="M40.8758 17.1878C40.8006 17.1878 40.9962 17.109 41.0715 17.0933C41.1317 16.9673 41.1618 16.8885 41.2671 16.8098C41.4327 16.8098 41.523 16.8728 41.5982 16.983C41.7487 17.0303 41.7939 17.0933 41.9594 17.1248C42.0347 17.1878 42.1099 17.1878 41.9594 17.235C41.8691 17.2823 41.7337 17.298 41.5681 17.298C41.4322 17.3087 41.2995 17.3461 41.1768 17.4083C40.9511 17.4083 40.9812 17.4083 40.8758 17.1878V17.1878Z" fill="#C4C4C2" stroke="black" stroke-width="0.138564"/>
<path id="Vector_18" fill-rule="evenodd" clip-rule="evenodd" d="M42.4985 15.7341V15.7747C42.4985 15.673 42.4985 15.7239 42.529 15.9072C42.58 16.0295 42.6004 16.1517 42.6004 16.3351C42.6966 16.251 42.7671 16.1415 42.8042 16.0192C42.8042 15.7442 42.7533 15.7544 42.4985 15.734V15.7341ZM43.721 19.7377H43.7618C43.6599 19.7377 43.721 19.7377 43.8943 19.6359C44.0063 19.5544 44.098 19.4321 44.261 19.3914C44.3871 19.2838 44.5322 19.2009 44.6889 19.1469C44.7704 19.1061 44.8417 19.045 44.9232 19.1061C44.9028 19.2794 44.8723 19.3506 44.7194 19.422C44.6482 19.5239 44.536 19.585 44.424 19.6257C44.3222 19.6766 44.1999 19.6869 44.159 19.8091C43.9758 19.8906 43.9553 19.8702 43.7313 19.7377H43.721ZM44.3628 20.7464C44.4138 20.6954 44.6278 20.4814 44.7295 20.3999C44.8195 20.2681 44.9295 20.1513 45.0555 20.0536C45.1574 19.9007 45.2797 19.7989 45.3612 19.6665L45.6262 19.3201C45.6262 19.4729 45.6057 19.6766 45.6567 19.7684C45.6665 19.9147 45.6309 20.0606 45.5548 20.186C45.4835 20.3082 45.4223 20.3897 45.2492 20.4712C45.1065 20.5527 45.0149 20.5731 44.8925 20.675C44.7946 20.7394 44.6925 20.7973 44.5869 20.8482C44.4953 20.889 44.536 20.8787 44.3628 20.7464V20.7464ZM43.3237 21.5409H43.3644C43.2625 21.5409 43.3135 21.5511 43.4969 21.439C43.6395 21.2965 43.7517 21.2352 43.9248 21.164C44.0661 21.1578 44.2047 21.1232 44.3323 21.0621C44.4035 21.0417 44.4648 20.9909 44.5258 21.0621C44.6277 21.2047 44.6583 21.2455 44.4953 21.3371C44.3958 21.4166 44.2815 21.4755 44.159 21.5104C44.0775 21.5816 43.9145 21.5816 43.7515 21.6122C43.6293 21.6122 43.5478 21.6326 43.4969 21.541L43.7618 21.6122C43.6293 21.6122 43.558 21.6326 43.3238 21.541L43.3237 21.5409ZM44.7499 21.5409V21.5104C44.7499 21.6122 44.7499 21.5612 44.8213 21.3677C44.9538 21.1742 44.9944 21.0621 45.1575 21.0214C45.2288 20.9195 45.3613 20.8991 45.5243 20.8482C45.5854 20.9501 45.5344 21.0724 45.5243 21.1945C45.4835 21.327 45.3613 21.4186 45.2899 21.5104C45.188 21.5816 45.1473 21.653 44.9843 21.6835C44.862 21.6835 44.9334 21.6835 44.7602 21.541L44.7499 21.5409Z" fill="#BCBCBC"/>
<path id="Vector_19" fill-rule="evenodd" clip-rule="evenodd" d="M41.5002 17.0279C41.5002 17.1195 41.4289 17.201 41.3372 17.201C41.3144 17.2012 41.2918 17.1968 41.2707 17.1882C41.2496 17.1795 41.2305 17.1668 41.2144 17.1507C41.1983 17.1346 41.1855 17.1154 41.1769 17.0943C41.1682 17.0732 41.1639 17.0507 41.1641 17.0279C41.1641 16.926 41.2456 16.8546 41.3372 16.8546C41.4289 16.8546 41.5002 16.926 41.5002 17.0279Z" fill="black"/>
</g>
<g id="Group_2">
<path id="Vector_20" fill-rule="evenodd" clip-rule="evenodd" d="M41.8987 26.7944H42.0342C41.6128 26.7944 41.8686 26.7629 42.5609 27.3456C42.8619 27.0936 42.8619 27.0621 43.0877 27.5031C43.2382 27.7394 43.2683 27.4716 43.494 27.2196C43.5994 27.7236 43.6596 28.2434 44.0208 27.7709C44.4422 27.7709 44.8636 27.7394 45.0893 27.9126C45.3602 28.4324 45.2699 27.8181 45.4806 28.0544C46.0826 28.1174 46.0676 27.5189 46.6997 27.3614C47.091 27.8811 47.2716 27.4874 47.7532 27.2354C48.1294 27.3299 48.4756 27.9126 48.5508 27.3456C48.8518 26.8416 48.8669 26.8731 49.0776 27.3456C49.3786 27.6291 49.499 27.2196 49.7398 27.0779C50.1913 27.3456 50.6879 27.3929 51.3351 27.2196C51.4555 27.6764 51.7264 27.4716 52.0123 27.3456C52.5993 27.6134 52.7949 27.6921 53.4722 27.3456C53.8033 26.9361 53.6227 27.3614 53.8635 27.6291C54.3601 27.4716 54.2247 27.4401 54.7966 27.4874C55.3835 27.4874 55.4287 27.4874 55.5942 27.0779C55.8952 27.3771 55.9855 27.5976 56.3919 27.2196C57.024 27.2196 56.8283 27.2984 57.1895 27.0621C57.4755 27.6921 57.5357 27.2511 57.8668 27.4874C57.6806 27.9526 57.3525 28.3403 56.9337 28.5899C56.6778 29.0624 56.5123 29.5349 56.0006 29.7239C55.6243 30.1176 55.218 30.3539 54.7966 30.7004C54.2247 30.8579 53.5926 30.8264 52.9454 30.8264H47.3468C46.9555 31.0469 46.2933 31.1414 45.7515 31.2516C45.1495 31.2516 44.4422 31.2516 44.0208 31.1099C43.7348 30.8106 43.2382 30.4799 42.9673 30.1334C42.6663 29.8971 42.6663 29.4404 42.4255 29.1569C42.2148 28.7631 42.1245 28.1331 41.8987 27.7709V26.7944Z" fill="#005120" stroke="#002B0D" stroke-width="0.15396"/>
<g id="Vector_21">
<path fill-rule="evenodd" clip-rule="evenodd" d="M54.7965 28.0544V28.1804C54.7965 27.8024 54.8115 28.0071 54.5256 28.7474C54.4804 28.9206 54.345 28.9679 54.1343 29.0309L54.7965 28.0544ZM53.6075 28.6056H53.743C53.2463 29.0781 52.9152 29.3144 52.8099 29.8656L53.743 28.6056C53.2463 29.0781 52.9152 29.3144 52.8099 29.8656L53.6075 28.6056ZM51.7413 27.9126C51.7413 27.9126 51.7263 28.4009 51.6059 28.6056L51.7413 27.9126ZM51.2146 28.8891V29.0151V28.8891ZM50.146 28.0544H50.2815H50.131C50.1912 28.0544 50.2363 28.0544 50.131 28.0544H50.146ZM42.6963 28.0544C42.7565 28.0544 43.0274 28.4954 43.3585 28.7474C43.2832 29.1569 43.1478 29.6294 43.3585 30.0074L42.6963 28.0544ZM43.7648 28.8891C43.825 28.8891 44.0809 29.3301 44.427 29.5821L43.7648 28.8891C43.825 28.8891 44.0809 29.3301 44.427 29.5821V29.7239C44.427 29.2829 44.3969 28.8419 44.5625 28.6056C44.713 28.8734 44.8936 29.2829 44.9538 28.8891C45.7063 28.8576 46.0675 28.6371 46.5491 28.4639C46.5491 28.6686 46.519 28.5741 46.6996 28.7474L43.7648 28.8891ZM55.7296 28.1804H55.865C55.6092 28.4009 55.4135 28.8576 55.2028 29.1569L55.7296 28.1804ZM50.2815 27.7709H51.335Z" fill="#005120"/>
<path d="M43.7648 28.8891C43.825 28.8891 44.0809 29.3301 44.427 29.5821L43.7648 28.8891ZM43.7648 28.8891C43.825 28.8891 44.0809 29.3301 44.427 29.5821V29.7239C44.427 29.2829 44.3969 28.8419 44.5625 28.6056C44.713 28.8734 44.8936 29.2829 44.9538 28.8891C45.7063 28.8576 46.0675 28.6371 46.5491 28.4639C46.5491 28.6686 46.519 28.5741 46.6996 28.7474L43.7648 28.8891ZM50.2815 27.7709H51.335M54.7965 28.0544V28.1804C54.7965 27.8024 54.8115 28.0071 54.5256 28.7474C54.4804 28.9206 54.345 28.9679 54.1343 29.0309L54.7965 28.0544ZM53.6075 28.6056H53.743C53.2463 29.0781 52.9152 29.3144 52.8099 29.8656L53.743 28.6056C53.2463 29.0781 52.9152 29.3144 52.8099 29.8656L53.6075 28.6056ZM51.7413 27.9126C51.7413 27.9126 51.7263 28.4009 51.6059 28.6056L51.7413 27.9126ZM51.2146 28.8891V29.0151V28.8891ZM50.146 28.0544H50.2815H50.131C50.1912 28.0544 50.2363 28.0544 50.131 28.0544H50.146ZM42.6963 28.0544C42.7565 28.0544 43.0274 28.4954 43.3585 28.7474C43.2832 29.1569 43.1478 29.6294 43.3585 30.0074L42.6963 28.0544ZM55.7296 28.1804H55.865C55.6092 28.4009 55.4135 28.8576 55.2028 29.1569L55.7296 28.1804Z" stroke="#002B0D" stroke-width="0.15396"/>
</g>
</g>
<path id="Vector_22" fill-rule="evenodd" clip-rule="evenodd" d="M41.5816 28.7538C39.9821 28.7538 39.4524 30.4245 37.853 30.4245H37.7612V30.5264C37.7612 31.6876 37.8427 32.7676 38.016 33.7761C39.4931 33.6743 40.0331 32.1054 41.5816 32.1054C43.181 32.1054 43.721 33.7761 45.3204 33.7761C46.9199 33.7761 47.4496 32.1054 49.0491 32.1054C50.6485 32.1054 51.1885 33.7761 52.7879 33.7761C54.3872 33.7761 54.917 32.1054 56.5165 32.1054C58.0547 32.1054 58.6049 33.6539 60.0821 33.7659C60.2629 32.6649 60.3481 31.5503 60.3367 30.4346H60.2451C58.6457 30.4346 58.116 28.7639 56.5165 28.7639C54.9171 28.7639 54.3771 30.4346 52.7879 30.4346C51.1986 30.4346 50.6485 28.7639 49.0491 28.7639C47.4496 28.7639 46.9097 30.4346 45.3204 30.4346C43.7311 30.4346 43.181 28.7639 41.5816 28.7639V28.7538ZM41.5816 35.2839C40.3387 35.2839 39.7479 36.3026 38.78 36.7408C39.1001 37.6172 39.499 38.4629 39.972 39.2673C40.4304 38.931 40.9092 38.6356 41.5816 38.6356C43.181 38.6356 43.721 40.3064 45.3102 40.3064C46.9199 40.3064 47.4496 38.6355 49.049 38.6355C50.6485 38.6355 51.1884 40.3063 52.7777 40.3063C54.367 40.3063 54.9171 38.6355 56.5165 38.6355C57.0971 38.6532 57.6543 38.8689 58.0955 39.2468C58.5672 38.4453 58.9661 37.6032 59.2875 36.7305C58.3502 36.2721 57.7492 35.2839 56.5165 35.2839C54.9171 35.2839 54.3771 36.9546 52.7777 36.9546C51.1782 36.9546 50.6485 35.2839 49.049 35.2839C47.4496 35.2839 46.9096 36.9546 45.3102 36.9546C43.7109 36.9546 43.1811 35.2839 41.5816 35.2839V35.2839ZM49.0491 41.8039C47.4496 41.8039 46.9097 43.4849 45.3204 43.4849C43.8025 43.4849 43.2421 41.9873 41.8362 41.8243C43.721 43.9229 45.8501 45.1861 47.307 45.8993C47.8061 45.5121 48.3155 46.3578 49.0389 46.3578C49.7826 46.3578 50.2817 45.502 50.7707 45.8789C52.8209 44.8874 54.6637 43.5149 56.2007 41.8345C54.8356 42.0383 54.2651 43.4849 52.7777 43.4849C51.1782 43.4849 50.6485 41.8141 49.049 41.8141L49.0491 41.8039Z" fill="#F5F5F5"/>
<g id="Group_3">
<path id="Vector_23" d="M39.1855 36.1589C39.7048 35.9742 40.2326 35.8166 40.7668 35.6866L43.2216 38.1584L41.2036 38.5835L39.1855 36.1589Z" stroke="#512007" stroke-width="0.076991"/>
<path id="Vector_24" d="M44.8122 36.4719L45.2204 36.5337M43.9575 39.3765C43.9958 38.8079 45.08 35.5449 45.08 35.5449L43.9575 39.3765ZM44.3274 39.4135L45.1821 35.5696L44.3274 39.4135ZM44.6208 39.4259L45.3352 35.5696L44.6208 39.4259ZM43.9958 38.9068C44.1871 38.8079 44.7356 38.6596 44.7356 38.6596L43.9958 38.9068ZM44.2637 38.3382C44.4422 38.3382 44.8122 38.1899 44.8122 38.1899L44.2637 38.3382ZM44.3657 37.9056C44.5475 37.839 44.7355 37.7894 44.927 37.7573L44.3657 37.9056ZM44.4422 37.3618L45.0418 37.2629L44.4422 37.3618ZM44.7101 36.8921C44.7101 36.9292 45.1183 36.9292 45.1183 36.9292L44.7101 36.8921Z" stroke="#512007" stroke-width="0.0753386"/>
<path id="Vector_25" d="M49.534 36.9003L49.052 37.006M50.543 41.8691C50.4978 40.8965 49.2177 35.3145 49.2177 35.3145L50.543 41.8691ZM50.1062 41.6788L49.0972 35.3356L50.1062 41.6788ZM49.6544 41.1925C49.6243 40.833 48.9165 35.3567 48.9165 35.3567L49.6544 41.1925ZM50.4978 41.0656C50.2719 40.8965 49.6243 40.6427 49.6243 40.6427L50.4978 41.0656ZM50.1815 40.093C49.9707 40.093 49.534 39.8393 49.534 39.8393L50.1815 40.093ZM50.0611 39.353C49.8464 39.239 49.6245 39.1541 49.3984 39.0992L50.0611 39.353ZM49.9707 38.4226L49.2629 38.2535L49.9707 38.4226ZM49.6544 37.6191C49.6544 37.6826 49.1725 37.6826 49.1725 37.6826L49.6544 37.6191Z" stroke="#512007" stroke-width="0.0713783"/>
<path id="Vector_26" d="M53.242 36.7353L52.76 36.814M54.251 40.4351C54.2058 39.7109 52.9257 35.5545 52.9257 35.5545L54.251 40.4351ZM53.8142 40.2934L52.8052 35.5702L53.8142 40.2934ZM53.3624 39.9313C53.3323 39.6637 52.6245 35.586 52.6245 35.586L53.3624 39.9313ZM54.2058 39.8368C53.9799 39.7109 53.3323 39.522 53.3323 39.522L54.2058 39.8368ZM53.8895 39.1126C53.6787 39.1126 53.242 38.9237 53.242 38.9237L53.8895 39.1126ZM53.7691 38.5616C53.5544 38.4768 53.3325 38.4135 53.1064 38.3726L53.7691 38.5616ZM53.6787 37.8688L52.9709 37.7429L53.6787 37.8688ZM53.3624 37.2706C53.3624 37.3178 52.8805 37.3178 52.8805 37.3178L53.3624 37.2706Z" stroke="#512007" stroke-width="0.076991"/>
<path id="Vector_27" fill-rule="evenodd" clip-rule="evenodd" d="M48.6429 41.008L48.7785 29.5149C48.7785 29.5149 49.17 29.4677 49.17 29.5149C49.17 29.5622 49.1248 40.9608 49.0797 41.008C49.0345 41.0553 48.5977 41.0868 48.6429 41.008ZM52.935 30.0187L52.8447 39.6698L52.5435 40.0476L52.6338 30.0187H52.935Z" fill="#DD8B59" stroke="#512007" stroke-width="0.076991"/>
<path id="Vector_28" fill-rule="evenodd" clip-rule="evenodd" d="M43.7788 39.1188C43.7788 39.1188 44.2306 43.842 49.2606 43.7003C54.2907 43.5586 55.6913 38.9456 55.6913 38.9456L53.5076 38.8511C53.4624 38.8511 51.7606 41.0553 49.5618 41.0081C47.3631 40.9608 46.6703 40.4098 46.1884 39.9532C45.7065 39.4809 45.2848 38.8039 45.2848 38.8039L42.7246 37.749L42.8752 38.7567L43.7788 39.1188ZM57.378 38.6465L57.2274 38.0167V37.4814L57.4683 36.9146C57.4683 36.9146 53.6582 37.4971 53.6582 37.5444L53.6431 38.615L57.378 38.6307V38.6465Z" fill="#DD8B59" stroke="#512007" stroke-width="0.076991"/>
<path id="Vector_29" d="M43.6133 39.0715C43.7488 39.0715 44.7578 39.3077 44.7578 39.3077L45.812 40.7719M56.6552 37.4814L56.5649 38.426H57.1823L57.1372 37.4814H56.6552ZM56.0077 37.5286L55.9625 38.5362L56.354 38.489L56.3992 37.5286H56.0077ZM55.345 38.5362V37.749L55.7366 37.6073L55.7818 38.3945L55.345 38.5362ZM54.592 38.489L54.6824 37.7963L55.1342 37.8435L55.1643 38.5835L54.592 38.489ZM53.7637 38.489L53.8089 37.8907L54.2607 37.8435V38.5362L53.7637 38.489Z" stroke="#512007" stroke-width="0.076991"/>
<path id="Vector_30" d="M44.3511 39.2605C44.3963 39.3077 45.2697 42.3778 49.4715 42.3778C53.6732 42.3778 54.6822 38.8983 54.6822 38.8983" stroke="#512007" stroke-width="0.076991"/>
<path id="Vector_31" d="M55.3447 38.9928C55.3447 38.9928 53.3267 43.5586 49.4713 43.2437C45.631 42.9288 45.0136 41.4174 44.7124 40.6302C44.4112 39.843 44.2305 39.2132 44.2305 39.2132" stroke="#512007" stroke-width="0.076991"/>
<path id="Vector_32" fill-rule="evenodd" clip-rule="evenodd" d="M45.3148 38.8039C45.36 38.5362 45.36 30.2391 45.36 30.2391L45.104 30.2076L45.0588 38.6622L45.3148 38.8196V38.8039ZM39.0649 36.1116L42.3781 37.7962L42.3028 38.0324C42.3028 38.0324 39.1101 36.458 39.1101 36.4108C39.1101 36.3635 39.1402 36.1746 39.0649 36.0959V36.1116Z" fill="#DD8B59" stroke="#512007" stroke-width="0.076991"/>
<path id="Vector_33" fill-rule="evenodd" clip-rule="evenodd" d="M40.5859 35.6078C40.5859 35.7338 41.0679 38.5362 41.0679 38.5362C41.0679 38.5362 41.3691 38.5834 41.3691 38.5362L40.857 35.6551L40.5859 35.6078ZM43.6582 35.6865C43.8238 35.6865 46.8208 35.1827 46.8208 35.1827L46.7605 35.6865L43.8238 36.0014L43.6582 35.6865Z" fill="#DD8B59" stroke="#512007" stroke-width="0.076991"/>
<path id="Vector_34" fill-rule="evenodd" clip-rule="evenodd" d="M44.0801 31.8923C44.1855 31.8923 45.1343 32.3961 45.5409 32.2701C45.9475 32.1442 45.6764 31.7978 45.7517 31.7978C45.8421 31.7978 46.1433 32.034 46.324 31.845C46.5047 31.6719 46.6252 31.1208 46.5499 31.1681C46.4596 31.2153 44.1403 32.0812 44.0951 31.8923H44.0801Z" fill="#FECF3E" stroke="#512007" stroke-width="0.076991"/>
<path id="Vector_35" fill-rule="evenodd" clip-rule="evenodd" d="M43.7036 33.0416C43.8693 33.0888 47.2879 32.0812 47.2879 32.0812C47.2879 32.0812 47.2879 32.3961 47.2427 32.3961L43.7036 33.3564V33.0416Z" fill="#DD8B59" stroke="#512007" stroke-width="0.076991"/>
<path id="Vector_36" fill-rule="evenodd" clip-rule="evenodd" d="M51.6101 31.6246C51.6101 31.6246 51.836 32.1756 52.0619 32.0812C52.2878 31.9867 52.4987 31.7978 52.4987 31.7978C52.4987 31.7978 52.6794 32.2701 52.9806 32.1756C53.2818 32.0812 53.4625 31.5774 53.4625 31.5774C53.4625 31.5774 53.7637 31.6718 53.8992 31.6246C54.0348 31.5774 54.2004 30.8374 54.2004 30.8374L51.6252 31.6246H51.6101ZM51.3541 36.0644C51.3089 36.1589 51.58 36.3793 51.8059 36.3793C52.0318 36.3793 52.1071 36.0644 52.1523 36.1589C52.1975 36.2376 52.1975 36.6627 52.7547 36.521C53.3119 36.3793 53.327 35.9699 53.327 35.9699C53.327 35.9699 53.1613 36.1116 53.5529 36.1589C53.9444 36.2061 54.336 35.5606 54.3059 35.5606C54.2456 35.5606 51.4445 36.1116 51.3541 36.0644V36.0644Z" fill="#FECF3E" stroke="#512007" stroke-width="0.076991"/>
<path id="Vector_37" fill-rule="evenodd" clip-rule="evenodd" d="M43.839 31.7033C43.8115 31.8452 43.8219 31.9923 43.8692 32.1284L46.7306 31.1208C46.7306 31.1208 46.851 30.8846 46.7306 30.8846C46.6101 30.8846 43.7939 31.7978 43.824 31.7191L43.839 31.7033ZM47.604 31.0736C47.6793 31.0736 50.5257 30.1132 50.5257 30.1132C50.5257 30.1132 50.5709 30.5225 50.5257 30.5225L47.8601 31.3412L47.589 31.0736H47.604Z" fill="#DD8B59" stroke="#512007" stroke-width="0.076991"/>
<path id="Vector_38" fill-rule="evenodd" clip-rule="evenodd" d="M51.3537 33.0888C51.3537 33.0888 50.9169 33.5926 51.0525 34.2696C51.188 34.9623 51.3537 35.5606 51.3988 35.5606C51.444 35.5606 51.9259 34.6475 52.453 34.6002C52.9801 34.553 53.944 35.104 53.944 35.104C53.944 35.104 53.8084 34.002 53.8536 33.4981C53.8988 32.9943 54.6367 32.1284 54.6367 32.1284L51.3537 33.0731V33.0888Z" fill="#FECF3E" stroke="#512007" stroke-width="0.076991"/>
<path id="Vector_39" fill-rule="evenodd" clip-rule="evenodd" d="M47.3781 32.2544C47.3781 32.2544 47.2878 32.6795 47.333 32.6795L51.0528 31.6719V31.3727L47.3781 32.2386V32.2544Z" fill="#DD8B59" stroke="#512007" stroke-width="0.076991"/>
<path id="Vector_40" fill-rule="evenodd" clip-rule="evenodd" d="M42.6493 37.7963C42.6493 37.7963 41.7759 37.6703 41.821 37.8907C41.8662 38.1269 42.2578 38.3473 42.303 38.489C42.3481 38.6307 42.1674 39.1188 42.4385 39.0873C42.6945 39.04 42.9505 38.8511 42.9505 38.7094L42.9054 37.9222L42.6493 37.7963Z" fill="#B6B6B4" stroke="#512007" stroke-width="0.076991"/>
<path id="Vector_41" fill-rule="evenodd" clip-rule="evenodd" d="M47.5137 35.5134V35.8283L50.6612 35.3717L50.5709 35.1355L47.5137 35.5134Z" fill="#DD8B59" stroke="#512007" stroke-width="0.076991"/>
<path id="Vector_42" fill-rule="evenodd" clip-rule="evenodd" d="M43.7787 36.0644C43.8389 36.0644 43.7787 36.4738 44.1401 36.3793C44.4865 36.2848 44.5769 36.0644 44.5769 36.0644C44.5769 36.0644 44.6672 36.5682 45.1491 36.521C45.6311 36.4738 45.9021 35.9227 45.9021 35.9227C45.9021 35.9227 45.9323 36.3321 46.2335 36.1904C46.5347 36.0487 46.625 35.7338 46.625 35.7338L43.869 36.1431L43.7937 36.0644H43.7787ZM43.7787 33.3565C43.7787 33.3565 43.3871 33.4982 43.5227 34.3168C43.6582 35.1355 43.9745 35.6079 44.0046 35.6079C44.0498 35.6079 44.3961 34.8207 44.9232 34.6947C45.4503 34.5373 46.369 35.104 46.369 35.104C46.369 35.104 46.2786 34.3641 46.4142 33.6871C46.5109 33.2462 46.7071 32.8359 46.9865 32.4905C46.9865 32.4905 43.9142 33.3565 43.7937 33.3565H43.7787Z" fill="#FECF3E" stroke="#512007" stroke-width="0.076991"/>
<path id="Vector_43" fill-rule="evenodd" clip-rule="evenodd" d="M51.1428 35.7338L51.188 36.0172C51.188 36.0172 54.3506 35.6078 54.3506 35.5449C54.3506 35.5134 54.3506 35.23 54.2904 35.23C54.2452 35.23 51.188 35.781 51.1278 35.7338H51.1428ZM51.0977 32.8054L51.1428 33.1203L54.8627 32.0812C54.8627 32.0812 54.953 31.7978 54.9078 31.7978C54.8627 31.7978 51.188 32.9471 51.0977 32.8054Z" fill="#DD8B59" stroke="#512007" stroke-width="0.076991"/>
<path id="Vector_44" d="M54.2453 35.2772C54.2905 35.1513 54.426 32.3961 54.426 32.3961M51.4893 31.3412C51.4893 31.3412 51.4441 31.6246 51.4893 31.6246C51.5345 31.6246 54.2453 30.9319 54.2453 30.8846C54.2453 30.8374 54.5164 30.5698 54.2905 30.617C54.0796 30.6642 51.5797 31.4829 51.4893 31.3412V31.3412ZM57.3175 36.6469L54.6067 32.1756L57.3175 36.6469Z" stroke="#512007" stroke-width="0.076991"/>
<path id="Vector_45" fill-rule="evenodd" clip-rule="evenodd" d="M47.6943 31.2153C47.8449 31.2468 48.1611 31.7191 48.3418 31.6246C48.5226 31.5301 48.7786 31.2468 48.7786 31.2468C48.7786 31.2468 48.7334 31.7978 49.0798 31.7191C49.4412 31.6246 49.4864 31.2468 49.4864 31.2468C49.4864 31.2468 49.7424 31.4042 49.9683 31.2468C50.1792 31.1208 50.39 30.4281 50.3147 30.4281C50.2394 30.4281 47.7696 31.2468 47.6792 31.2153H47.6943ZM47.6039 32.5378C47.6039 32.6322 47.1521 33.3565 47.3027 34.0492C47.4533 34.7419 47.6792 35.3717 47.7244 35.3717C47.7696 35.3717 48.4322 34.6475 49.0045 34.5058C49.5617 34.3641 50.4051 34.9623 50.3599 34.9623C50.3147 34.9623 50.134 34.2696 50.134 33.7658C50.134 33.262 50.7966 31.7191 50.7966 31.7191L47.6039 32.5378ZM47.6039 35.844C47.6039 35.8755 47.7244 36.1904 48.0406 36.1904C48.3418 36.1904 48.387 35.8755 48.387 35.8755C48.387 35.8755 48.3418 36.4265 48.8238 36.3793C49.3057 36.3321 49.4713 35.8283 49.4713 35.8283C49.4713 35.8283 49.5165 36.1117 49.9231 35.97C50.3147 35.8283 50.8267 35.3717 50.7966 35.3717C50.7514 35.3717 47.634 35.97 47.5888 35.844H47.6039Z" fill="#FECF3E" stroke="#512007" stroke-width="0.076991"/>
<path id="Vector_46" fill-rule="evenodd" clip-rule="evenodd" d="M47.9597 33.4044C48.0216 33.407 48.0801 33.4353 48.1221 33.4829C48.1642 33.5306 48.1865 33.5938 48.1841 33.6586C48.1817 33.7235 48.1547 33.7846 48.1092 33.8286C48.0637 33.8726 48.0034 33.8959 47.9415 33.8933C47.8796 33.8907 47.8211 33.8624 47.7791 33.8147C47.737 33.7671 47.7147 33.7039 47.7171 33.639C47.7195 33.5742 47.7465 33.5131 47.792 33.4691C47.8375 33.4251 47.8978 33.4018 47.9597 33.4044V33.4044Z" fill="#BE0F17" stroke="#512007" stroke-width="0.0754957"/>
<path id="Vector_47" fill-rule="evenodd" clip-rule="evenodd" d="M49.5437 32.9844C49.6056 32.987 49.664 33.0153 49.7061 33.0629C49.7482 33.1106 49.7705 33.1738 49.7681 33.2386C49.7656 33.3035 49.7387 33.3646 49.6932 33.4086C49.6477 33.4526 49.5874 33.4758 49.5255 33.4732C49.4635 33.4706 49.4051 33.4424 49.363 33.3947C49.321 33.347 49.2987 33.2838 49.3011 33.219C49.3035 33.1542 49.3304 33.0931 49.3759 33.0491C49.4214 33.0051 49.4818 32.9818 49.5437 32.9844V32.9844Z" fill="#BE0F17" stroke="#512007" stroke-width="0.0754957"/>
<path id="Vector_48" fill-rule="evenodd" clip-rule="evenodd" d="M48.7517 33.8484C48.8136 33.851 48.8721 33.8793 48.9141 33.9269C48.9562 33.9746 48.9785 34.0378 48.9761 34.1026C48.9736 34.1675 48.9467 34.2286 48.9012 34.2726C48.8557 34.3166 48.7954 34.3399 48.7335 34.3373C48.6716 34.3347 48.6131 34.3064 48.5711 34.2587C48.529 34.2111 48.5067 34.1479 48.5091 34.083C48.5115 34.0182 48.5385 33.9571 48.584 33.9131C48.6294 33.8691 48.6898 33.8458 48.7517 33.8484V33.8484Z" fill="#BE0F17" stroke="#512007" stroke-width="0.0754957"/>
<path id="l" fill-rule="evenodd" clip-rule="evenodd" d="M48.7517 32.5284C48.8136 32.531 48.8721 32.5593 48.9141 32.6069C48.9562 32.6546 48.9785 32.7178 48.9761 32.7826C48.9736 32.8475 48.9467 32.9086 48.9012 32.9526C48.8557 32.9966 48.7954 33.0199 48.7335 33.0173C48.6716 33.0147 48.6131 32.9864 48.5711 32.9387C48.529 32.8911 48.5067 32.8279 48.5091 32.763C48.5115 32.6982 48.5385 32.6371 48.584 32.5931C48.6294 32.5491 48.6898 32.5258 48.7517 32.5284V32.5284Z" fill="#BE0F17" stroke="#512007" stroke-width="0.0754957"/>
<path id="Vector_49" d="M51.3088 35.8125C51.3088 35.8125 51.8359 37.6545 52.363 37.9379C52.7562 38.1586 53.1382 38.4003 53.5076 38.6622M49.0799 29.6409C49.0799 29.6094 50.4353 30.2391 50.4353 30.2864C50.4353 30.3336 55.2545 37.0248 55.2997 37.0248L49.0799 29.6409ZM52.8901 30.2864L54.125 30.8374L54.5166 31.845L52.8901 30.2864ZM45.2697 30.2076C45.2245 30.2076 46.6251 31.3097 46.6251 31.3097L46.8059 32.2071L45.2697 30.2076ZM40.5108 36.8831C41.1132 36.6154 45.3601 32.7267 45.3601 32.7267L40.5108 36.8831ZM39.3662 36.1431L44.1402 31.9395L39.3662 36.1431ZM47.333 32.5692L51.851 40.4098L47.333 32.5692Z" stroke="#512007" stroke-width="0.076991"/>
<path id="Vector_50" d="M51.2485 35.8597C51.2485 35.8597 51.625 38.0324 52.1521 38.4418C52.6792 38.8511 53.2063 39.3077 53.2063 39.3077" stroke="#512007" stroke-width="0.076991"/>
<path id="Vector_51" d="M47.6235 35.697C47.6235 35.697 48.1356 38.7199 49.1898 39.4126C49.8356 39.8323 50.4781 40.2574 51.1175 40.6879" stroke="#512007" stroke-width="0.076991"/>
<path id="Vector_52" d="M43.9791 35.8859C44.1598 36.1536 44.6418 37.5233 44.943 37.9327C45.1689 38.3105 47.3977 40.6406 47.3977 40.6406M47.5785 35.6498C47.5785 35.6498 48.708 38.0429 49.6869 38.7671C50.6356 39.5071 51.9459 40.1841 51.9459 40.1841L47.5785 35.6498ZM43.9038 35.8545C44.205 36.4055 44.1598 37.4603 44.5062 37.8225C44.8247 38.1987 45.1166 38.5986 45.3797 39.019L43.9038 35.8545Z" stroke="#512007" stroke-width="0.076991"/>
<path id="Vector_53" fill-rule="evenodd" clip-rule="evenodd" d="M46.6597 40.7509C46.6597 40.7963 46.6511 40.8414 46.6345 40.8834C46.6178 40.9254 46.5934 40.9636 46.5627 40.9958C46.5319 41.0279 46.4954 41.0535 46.4552 41.0709C46.415 41.0883 46.3719 41.0972 46.3284 41.0972C46.2849 41.0972 46.2418 41.0883 46.2016 41.0709C46.1614 41.0535 46.1249 41.0279 46.0941 40.9958C46.0633 40.9636 46.0389 40.9254 46.0223 40.8834C46.0056 40.8414 45.9971 40.7963 45.9971 40.7509C45.9971 40.659 46.032 40.5709 46.0941 40.5059C46.1562 40.441 46.2405 40.4045 46.3284 40.4045C46.4163 40.4045 46.5005 40.441 46.5627 40.5059C46.6248 40.5709 46.6597 40.659 46.6597 40.7509ZM48.2711 41.4908C48.2711 41.5702 48.241 41.6462 48.1873 41.7023C48.1337 41.7584 48.0609 41.79 47.985 41.79C47.9091 41.79 47.8363 41.7584 47.7827 41.7023C47.729 41.6462 47.6988 41.5702 47.6988 41.4908C47.6988 41.4115 47.729 41.3354 47.7827 41.2793C47.8363 41.2232 47.9091 41.1917 47.985 41.1917C48.0609 41.1917 48.1337 41.2232 48.1873 41.2793C48.241 41.3354 48.2711 41.4115 48.2711 41.4908V41.4908ZM50.3343 41.6798C50.3343 41.7591 50.3042 41.8352 50.2505 41.8913C50.1969 41.9474 50.1241 41.9789 50.0482 41.9789C49.9723 41.9789 49.8995 41.9474 49.8459 41.8913C49.7922 41.8352 49.7621 41.7591 49.7621 41.6798C49.7621 41.6004 49.7922 41.5243 49.8459 41.4682C49.8995 41.4121 49.9723 41.3806 50.0482 41.3806C50.1241 41.3806 50.1969 41.4121 50.2505 41.4682C50.3042 41.5243 50.3343 41.6004 50.3343 41.6798V41.6798ZM52.1265 40.9713C52.1265 41.1287 52.0211 41.2389 51.8855 41.2389C51.75 41.2389 51.6446 41.113 51.6446 40.9713C51.6446 40.8296 51.75 40.6879 51.8855 40.6879C52.0211 40.6879 52.1265 40.8138 52.1265 40.9713ZM53.5722 40.0739C53.5722 40.2156 53.4367 40.3258 53.2861 40.3258C53.1355 40.3258 53 40.2156 53 40.0739C53 39.9322 53.1355 39.822 53.2861 39.822C53.4367 39.822 53.5722 39.9322 53.5722 40.0739Z" fill="black" stroke="#512007" stroke-width="0.076991"/>
<path id="Vector_54" fill-rule="evenodd" clip-rule="evenodd" d="M45.0783 30.2496C44.9427 30.3441 42.759 30.8951 43.0602 30.8479C43.3614 30.8006 45.1234 31.3202 45.0783 31.1627C45.0331 31.0053 45.0783 30.3441 45.0783 30.2496ZM48.7981 29.5726C48.7077 29.5726 47.4427 30.0764 47.4879 30.0764C47.533 30.0764 48.9336 30.4858 48.8884 30.3913C48.8433 30.2968 48.8433 29.6986 48.7981 29.5726ZM52.6083 30.0292C52.5179 30.0764 51.027 30.4385 51.298 30.4858C51.5691 30.533 52.5631 30.8951 52.5631 30.8006C52.5631 30.7219 52.5631 30.0764 52.6083 30.0134V30.0292Z" fill="#FF0000" stroke="#512007" stroke-width="0.076991"/>
<path id="Vector_55" d="M52.0359 37.0353L52.5178 37.114M51.0269 40.7351C51.072 40.0109 52.3521 35.8545 52.3521 35.8545L51.0269 40.7351ZM51.4636 40.5934L52.4726 35.8702L51.4636 40.5934ZM51.9154 40.2313C51.9455 39.9636 52.6533 35.886 52.6533 35.886L51.9154 40.2313ZM51.072 40.1368C51.2979 40.0109 51.9455 39.822 51.9455 39.822L51.072 40.1368ZM51.3883 39.4126C51.5991 39.4126 52.0359 39.2237 52.0359 39.2237L51.3883 39.4126ZM51.5088 38.8616C51.7234 38.7767 51.9453 38.7135 52.1714 38.6726L51.5088 38.8616ZM51.5991 38.1688L52.307 38.0429L51.5991 38.1688ZM51.9154 37.5706C51.9154 37.6178 52.3973 37.6178 52.3973 37.6178L51.9154 37.5706Z" stroke="#512007" stroke-width="0.076991"/>
<path id="Vector_56" d="M48.3161 36.906L48.7981 36.9877M47.3071 40.7496C47.3523 39.9972 48.6324 35.6793 48.6324 35.6793L47.3071 40.7496ZM47.7439 40.7987L48.7529 35.712L47.7439 40.7987ZM48.0902 40.815L48.9336 35.712L48.0902 40.815ZM47.3523 40.1281C47.5782 39.9972 48.2258 39.801 48.2258 39.801L47.3523 40.1281ZM47.6686 39.3757C47.8794 39.3757 48.3161 39.1794 48.3161 39.1794L47.6686 39.3757ZM47.789 38.8033C48.0037 38.7151 48.2256 38.6494 48.4517 38.607L47.789 38.8033ZM47.8794 38.0836L48.5872 37.9527L47.8794 38.0836ZM48.1957 37.4621C48.1957 37.5111 48.6776 37.5111 48.6776 37.5111L48.1957 37.4621Z" stroke="#512007" stroke-width="0.0784731"/>
<path id="Vector_57" d="M45.7898 36.5289L45.3079 36.6081M46.7988 40.2513C46.7536 39.5226 45.4735 35.3409 45.4735 35.3409L46.7988 40.2513ZM46.3621 40.1087L45.3531 35.3567L46.3621 40.1087ZM45.9103 39.7444C45.8802 39.4751 45.1723 35.3726 45.1723 35.3726L45.9103 39.7444ZM46.7536 39.6494C46.5277 39.5226 45.8802 39.3326 45.8802 39.3326L46.7536 39.6494ZM46.4374 38.9207C46.2265 38.9207 45.7898 38.7306 45.7898 38.7306L46.4374 38.9207ZM46.3169 38.3663C46.1023 38.281 45.8804 38.2173 45.6543 38.1762L46.3169 38.3663ZM46.2265 37.6694L45.5187 37.5426L46.2265 37.6694ZM45.9103 37.0674C45.9103 37.115 45.4284 37.115 45.4284 37.115L45.9103 37.0674Z" stroke="#512007" stroke-width="0.0772254"/>
<path id="Vector_58" fill-rule="evenodd" clip-rule="evenodd" d="M53.3267 38.8511L57.4832 38.9456L57.5284 38.6307L53.2363 38.5835L53.3267 38.8511ZM53.5074 37.7018C53.9893 37.7018 57.6188 36.9776 57.6188 36.9776C57.6188 36.9776 57.7543 36.5052 57.6188 36.5052C57.4832 36.5052 53.5074 37.3869 53.5074 37.3869V37.7018Z" fill="#DD8B59" stroke="#512007" stroke-width="0.076991"/>
<path id="Vector_59" fill-rule="evenodd" clip-rule="evenodd" d="M48.7517 33.1884C48.8136 33.191 48.8721 33.2193 48.9141 33.2669C48.9562 33.3146 48.9785 33.3778 48.9761 33.4426C48.9736 33.5075 48.9467 33.5686 48.9012 33.6126C48.8557 33.6566 48.7954 33.6799 48.7335 33.6773C48.6716 33.6747 48.6131 33.6464 48.5711 33.5987C48.529 33.5511 48.5067 33.4879 48.5091 33.423C48.5115 33.3582 48.5385 33.2971 48.584 33.2531C48.6294 33.2091 48.6898 33.1858 48.7517 33.1884V33.1884Z" fill="#BE0F17" stroke="#512007" stroke-width="0.0754957"/>
</g>
<path id="Vector_60" d="M0.246094 0H32.2461V32H0.246094V0Z" fill="#012169"/>
<path id="Vector_61" d="M32.2461 0V4L20.3711 16L32.2461 27.6875V32H28.0586L16.1211 20.25L4.49609 32H0.246094V27.75L11.8711 16.0625L0.246094 4.625V0H4.12109L16.1211 11.75L27.7461 0H32.2461Z" fill="#F5F5F5"/>
<path id="Vector_62" d="M11.7461 20.25L12.4336 22.375L2.87109 32H0.246094V31.8125L11.7461 20.25ZM19.4961 19.5L22.8711 20L32.2461 29.1875V32L19.4961 19.5ZM32.2461 0L20.2461 12.25L19.9961 9.5L29.3711 0H32.2461ZM0.246094 0.0625L12.3086 11.875L8.62109 11.375L0.246094 3.0625V0.0625Z" fill="#C8102E"/>
<path id="Vector_63" d="M11.2461 0V32H21.2461V0H11.2461ZM0.246094 11V21H32.2461V11H0.246094Z" fill="#F5F5F5"/>
<path id="Vector_64" d="M0.246094 13V19H32.2461V13H0.246094ZM13.2461 0V32H19.2461V0H13.2461Z" fill="#C8102E"/>
</g>
</g>
<defs>
<linearGradient id="paint0_linear_2909_185449" x1="12.8386" y1="72.3941" x2="15.9922" y2="70.5863" gradientUnits="userSpaceOnUse">
<stop stop-color="#A43907"/>
<stop offset="1" stop-color="white"/>
</linearGradient>
<linearGradient id="paint1_linear_2909_185449" x1="41.7363" y1="43.8416" x2="37.6603" y2="41.6089" gradientUnits="userSpaceOnUse">
<stop stop-color="#A43907"/>
<stop offset="1" stop-color="white"/>
</linearGradient>
<linearGradient id="paint2_linear_2909_185449" x1="44.2736" y1="45.468" x2="35.4351" y2="44.3155" gradientUnits="userSpaceOnUse">
<stop stop-color="#A43907"/>
<stop offset="1" stop-color="white"/>
</linearGradient>
<linearGradient id="paint3_linear_2909_185449" x1="60.5885" y1="41.7217" x2="56.4968" y2="41.9394" gradientUnits="userSpaceOnUse">
<stop stop-color="#A43907"/>
<stop offset="1" stop-color="white"/>
</linearGradient>
<linearGradient id="paint4_linear_2909_185449" x1="62.2484" y1="43.9877" x2="53.5578" y2="44.5076" gradientUnits="userSpaceOnUse">
<stop stop-color="#A43907"/>
<stop offset="1" stop-color="white"/>
</linearGradient>
<linearGradient id="paint5_linear_2909_185449" x1="61.2828" y1="46.2741" x2="36.8164" y2="46.2741" gradientUnits="userSpaceOnUse">
<stop stop-color="#A43907"/>
<stop offset="1" stop-color="white"/>
</linearGradient>
<linearGradient id="paint6_linear_2909_185449" x1="37.5009" y1="48.0516" x2="73.2851" y2="48.1798" gradientUnits="userSpaceOnUse">
<stop stop-color="#A43907"/>
<stop offset="1" stop-color="white"/>
</linearGradient>
<linearGradient id="paint7_linear_2909_185449" x1="62.1412" y1="46.1169" x2="59.2478" y2="46.2007" gradientUnits="userSpaceOnUse">
<stop stop-color="#A43907"/>
<stop offset="1" stop-color="white"/>
</linearGradient>
<linearGradient id="paint8_linear_2909_185449" x1="36.7142" y1="48.9701" x2="39.5179" y2="49.1556" gradientUnits="userSpaceOnUse">
<stop stop-color="#A43907"/>
<stop offset="1" stop-color="white"/>
</linearGradient>
<linearGradient id="paint9_linear_2909_185449" x1="39.4505" y1="48.5699" x2="34.3585" y2="47.3138" gradientUnits="userSpaceOnUse">
<stop stop-color="#A43907"/>
<stop offset="1" stop-color="white"/>
</linearGradient>
<clipPath id="clip0_2909_185449">
<path d="M0.246094 32C0.246094 14.3269 14.573 0 32.2461 0V0C49.9192 0 64.2461 14.3269 64.2461 32V32C64.2461 49.6731 49.9192 64 32.2461 64V64C14.573 64 0.246094 49.6731 0.246094 32V32Z" fill="white"/>
</clipPath>
</defs>
</svg>
