<svg width="65" height="64" viewBox="0 0 65 64" fill="none" xmlns="http://www.w3.org/2000/svg">
<g id="Rounded=Ghana (GH)">
<g clip-path="url(#clip0_2909_185459)">
<path id="Vector" d="M0.246094 0H64.2461V64H0.246094V0Z" fill="#006B3F"/>
<path id="Vector_2" d="M0.246094 0H64.2461V42.6625H0.246094V0Z" fill="#FCD116"/>
<path id="Vector_3" d="M0.246094 0H64.2461V21.3375H0.246094V0Z" fill="#CE1126"/>
<path id="Vector_4" d="M32.2457 21.3375L39.1832 42.6625L21.0332 29.5H43.4582L25.3207 42.6625L32.2457 21.3375Z" fill="black"/>
</g>
</g>
<defs>
<clipPath id="clip0_2909_185459">
<path d="M0.246094 32C0.246094 14.3269 14.573 0 32.2461 0V0C49.9192 0 64.2461 14.3269 64.2461 32V32C64.2461 49.6731 49.9192 64 32.2461 64V64C14.573 64 0.246094 49.6731 0.246094 32V32Z" fill="white"/>
</clipPath>
</defs>
</svg>
