<svg width="65" height="64" viewBox="0 0 65 64" fill="none" xmlns="http://www.w3.org/2000/svg">
<g id="Rounded=Gibraltar (GI)">
<g clip-path="url(#clip0_2909_185408)">
<path id="Vector" d="M0.246094 0H64.2461V64H0.246094V0Z" fill="#DA000C"/>
<path id="Vector_2" d="M0.246094 0H64.2461V42.875H0.246094V0Z" fill="#F5F5F5"/>
<g id="Group">
<g id="a">
<path id="Vector_3" d="M17.3965 29.075H33.3965V40.075H17.3965V29.075Z" fill="black"/>
<path id="Vector_4" d="M25.6965 38.475H15.9465L13.7715 39.9V41.4H25.6965V38.475ZM21.6215 32.15C23.0215 32.15 24.1715 33.325 24.1715 34.775V38.45H25.9965V24.45H15.9215V38.45H19.0715V34.775C19.0715 33.375 20.1965 32.15 21.6215 32.15V32.15Z" fill="#DA000C" stroke="black" stroke-width="0.25" stroke-linecap="square"/>
<path id="Vector_5" d="M19.3711 15H24.0211V23.5H19.3711V15Z" fill="black"/>
<g id="Vector_6">
<path d="M23.9961 22.175H19.9461V20.725H16.9711V22.175H14.9711V20.725H13.7461V23.325H23.9961V22.175ZM14.9461 23.325H23.6961V24.45H14.9461V23.325ZM18.4461 11.9V20.75H19.9461V18.325C19.9461 17.425 20.5711 16.675 21.4711 16.625H21.5711C21.7943 16.625 22.0154 16.669 22.2217 16.7544C22.4279 16.8398 22.6153 16.965 22.7732 17.1229C22.931 17.2808 23.0563 17.4682 23.1417 17.6744C23.2271 17.8807 23.2711 18.1017 23.2711 18.325V20.75H24.6961V11.9H18.4461ZM17.8711 10.7V11.9H25.1961V10.7H17.8711ZM16.9461 8.42499V10.7H25.6961V8.42499H24.3711V9.59999H22.7211V8.42499H20.2211V9.59999H18.5961V8.42499H16.9461ZM13.7461 39.9H25.7461H13.7461ZM33.4961 39.2H25.3961L22.9461 40.375V42.125H33.4961" fill="#DA000C"/>
<path d="M33.4961 39.2H25.3961L22.9461 40.375V42.125H33.4961M23.9961 22.175H19.9461V20.725H16.9711V22.175H14.9711V20.725H13.7461V23.325H23.9961V22.175ZM14.9461 23.325H23.6961V24.45H14.9461V23.325ZM18.4461 11.9V20.75H19.9461V18.325C19.9461 17.425 20.5711 16.675 21.4711 16.625H21.5711C21.7943 16.625 22.0154 16.669 22.2217 16.7544C22.4279 16.8398 22.6153 16.965 22.7732 17.1229C22.931 17.2808 23.0563 17.4682 23.1417 17.6744C23.2271 17.8807 23.2711 18.1017 23.2711 18.325V20.75H24.6961V11.9H18.4461ZM17.8711 10.7V11.9H25.1961V10.7H17.8711ZM16.9461 8.42499V10.7H25.6961V8.42499H24.3711V9.59999H22.7211V8.42499H20.2211V9.59999H18.5961V8.42499H16.9461ZM13.7461 39.9H25.7461H13.7461Z" stroke="black" stroke-width="0.25" stroke-linecap="square"/>
</g>
<g id="Vector_7">
<path d="M22.9463 40.375H33.7463Z" fill="#DA000C"/>
<path d="M22.9463 40.375H33.7463" stroke="black" stroke-width="0.25"/>
</g>
</g>
<g id="Group_2">
<path id="Vector_8" d="M47.0957 29.075H31.0957V40.075H47.0957V29.075Z" fill="black"/>
<path id="Vector_9" d="M38.7957 38.475H48.5457L50.7207 39.9V41.4H38.7957V38.475ZM42.8707 32.15C41.4707 32.15 40.3207 33.325 40.3207 34.775V38.45H38.4957V24.45H48.5707V38.45H45.4207V34.775C45.4207 33.375 44.2957 32.15 42.8707 32.15V32.15Z" fill="#DA000C" stroke="black" stroke-width="0.25" stroke-linecap="square"/>
<path id="Vector_10" d="M45.1211 15H40.4711V23.5H45.1211V15Z" fill="black"/>
<g id="Vector_11">
<path d="M40.4961 22.175H44.5461V20.725H47.5211V22.175H49.5211V20.725H50.7461V23.325H40.4961V22.175ZM49.5461 23.325H40.7961V24.45H49.5461V23.325ZM46.0461 11.9V20.75H44.5461V18.325C44.5461 17.425 43.9211 16.675 43.0211 16.625H42.9211C42.6978 16.625 42.4768 16.669 42.2705 16.7544C42.0643 16.8398 41.8769 16.965 41.719 17.1229C41.5612 17.2808 41.4359 17.4682 41.3505 17.6744C41.2651 17.8807 41.2211 18.1017 41.2211 18.325V20.75H39.7961V11.9H46.0461ZM46.6211 10.7V11.9H39.2961V10.7H46.6211ZM47.5461 8.42499V10.7H38.7961V8.42499H40.1211V9.59999H41.7711V8.42499H44.2711V9.59999H45.8961V8.42499H47.5461ZM50.7461 39.9H38.7461H50.7461ZM30.9961 39.2H39.0961L41.5461 40.375V42.125H30.9961" fill="#DA000C"/>
<path d="M30.9961 39.2H39.0961L41.5461 40.375V42.125H30.9961M40.4961 22.175H44.5461V20.725H47.5211V22.175H49.5211V20.725H50.7461V23.325H40.4961V22.175ZM49.5461 23.325H40.7961V24.45H49.5461V23.325ZM46.0461 11.9V20.75H44.5461V18.325C44.5461 17.425 43.9211 16.675 43.0211 16.625H42.9211C42.6978 16.625 42.4768 16.669 42.2705 16.7544C42.0643 16.8398 41.8769 16.965 41.719 17.1229C41.5612 17.2808 41.4359 17.4682 41.3505 17.6744C41.2651 17.8807 41.2211 18.1017 41.2211 18.325V20.75H39.7961V11.9H46.0461ZM46.6211 10.7V11.9H39.2961V10.7H46.6211ZM47.5461 8.42499V10.7H38.7961V8.42499H40.1211V9.59999H41.7711V8.42499H44.2711V9.59999H45.8961V8.42499H47.5461ZM50.7461 39.9H38.7461H50.7461Z" stroke="black" stroke-width="0.25" stroke-linecap="square"/>
</g>
<g id="Vector_12">
<path d="M41.5459 40.375H30.7459Z" fill="#DA000C"/>
<path d="M41.5459 40.375H30.7459" stroke="black" stroke-width="0.25"/>
</g>
</g>
<g id="Group_3">
<g id="Group_4">
<path id="Vector_13" d="M36.5713 37.5C35.8963 37.75 35.3213 38.1 34.6963 38.45C33.9185 38.8943 33.1748 39.3956 32.4713 39.95C32.2213 40.125 31.9713 40.3 31.7963 40.55C31.5463 40.75 31.2963 41.05 31.3463 41.425C31.3463 41.575 31.5463 41.225 31.6963 41.2C31.9337 41.0729 32.2094 41.0374 32.4713 41.1C32.7963 40.75 33.2213 40.525 33.5713 40.25C34.5903 39.5125 35.6788 38.8762 36.8213 38.35L36.5713 37.5Z" fill="#F8D80E" stroke="black" stroke-width="0.2" stroke-linecap="round"/>
<g id="Vector_14">
<path d="M33.3457 39.35V40.325V39.35ZM33.9457 38.925V39.9V38.925ZM34.5457 38.55V39.5V38.55ZM35.1707 38.175V39.175Z" fill="#F8D80E"/>
<path d="M35.1707 38.175V39.175M33.3457 39.35V40.325V39.35ZM33.9457 38.925V39.9V38.925ZM34.5457 38.55V39.5V38.55Z" stroke="black" stroke-width="0.25" stroke-linecap="round"/>
</g>
<path id="Vector_15" d="M27.9709 37.55L27.6709 38.375C29.0525 38.9049 30.376 39.5751 31.6209 40.375C32.0459 40.675 32.4959 40.95 32.8209 41.35C32.8959 41.55 32.6959 41.725 32.4959 41.65C32.3209 41.6 32.1209 41.525 31.9459 41.65C31.6709 41.775 31.4209 42.2 31.8209 42.325C32.4209 42.725 33.3459 42.55 33.6209 41.875C33.7709 41.525 33.7959 41.075 33.4959 40.775C32.9959 40.2 32.2959 39.775 31.6459 39.35C30.4787 38.6386 29.2485 38.0361 27.9709 37.55V37.55Z" fill="#F8D80E" stroke="black" stroke-width="0.2" stroke-linecap="round"/>
<g id="Vector_16">
<path d="M31.7459 39.5L31.6709 40.35L31.7459 39.5ZM32.4459 39.925L32.2459 40.75L32.4459 39.925ZM33.1959 40.5L32.7459 41.15L33.1959 40.5ZM33.4209 42.05L32.7709 41.7L33.4209 42.05ZM33.6209 41.35L32.8709 41.425L33.6209 41.35ZM32.6709 42.425L32.6209 41.775L32.6709 42.425ZM32.3709 41.7L31.7709 42.15L32.3709 41.7ZM29.4209 38.225V39V38.225ZM30.9959 39.075V39.95V39.075ZM30.1959 38.65V39.475Z" fill="#F8D80E"/>
<path d="M30.1959 38.65V39.475M31.7459 39.5L31.6709 40.35L31.7459 39.5ZM32.4459 39.925L32.2459 40.75L32.4459 39.925ZM33.1959 40.5L32.7459 41.15L33.1959 40.5ZM33.4209 42.05L32.7709 41.7L33.4209 42.05ZM33.6209 41.35L32.8709 41.425L33.6209 41.35ZM32.6709 42.425L32.6209 41.775L32.6709 42.425ZM32.3709 41.7L31.7709 42.15L32.3709 41.7ZM29.4209 38.225V39V38.225ZM30.9959 39.075V39.95V39.075Z" stroke="black" stroke-width="0.25" stroke-linecap="round"/>
</g>
</g>
<path id="Vector_17" d="M27.1963 56.9V58.9H28.4463V57.9H30.1713V58.9H31.5213V56.9H27.1963ZM27.1963 59.65V61.65H31.4963V59.65H30.1463V60.65H28.4213V59.65H27.1963Z" fill="#F8D80E" stroke="black" stroke-width="0.25"/>
<path id="Vector_18" d="M31.4961 48.425H32.7461V62.925H31.4961V48.425Z" fill="#F8D80E" stroke="black" stroke-width="0.25"/>
<path id="Vector_19" d="M31.4965 49.675H32.7465V62.175H31.4965V49.675ZM32.1465 44.85L34.7965 46.4L32.1465 47.95L29.4715 46.4L32.1465 44.85ZM28.5715 45.85H27.8965V46.95H28.5715L32.1465 49.025L35.6965 46.95H36.3965V45.85H35.6965L32.1465 43.775L28.5715 45.85Z" fill="#F8D80E" stroke="black" stroke-width="0.25"/>
<path id="Vector_20" d="M32.0713 41.075C31.7804 41.1342 31.52 41.2949 31.3367 41.5285C31.1535 41.7621 31.0594 42.0534 31.0713 42.35V45.15C31.0943 45.4474 31.2228 45.7267 31.4337 45.9376C31.6446 46.1485 31.924 46.277 32.2213 46.3C32.4687 46.3186 32.7159 46.2616 32.9301 46.1366C33.1444 46.0116 33.3157 45.8245 33.4213 45.6L32.9963 45.35C32.9373 45.4964 32.8322 45.6196 32.6968 45.7008C32.5614 45.7821 32.4033 45.8169 32.2463 45.8C31.8463 45.8 31.5213 45.4 31.5713 45.025V42.225C31.5902 42.0416 31.6783 41.8723 31.8177 41.7516C31.957 41.6308 32.1371 41.5677 32.3213 41.575C32.4713 41.525 32.6963 41.75 32.7963 41.575C32.9463 41.35 32.6963 41.2 32.5463 41.075H32.0713V41.075ZM33.5213 42.05C33.3992 42.2212 33.2358 42.3588 33.0463 42.45V44.325L33.5463 44.6V42.05H33.5213Z" fill="#F8D80E" stroke="black" stroke-width="0.25"/>
</g>
<g id="Group_5">
<path id="Vector_21" d="M28.4463 9.60001H35.7713V22.9H28.4463V9.60001Z" fill="black"/>
<path id="Vector_22" d="M27.9463 9.59999V20.725H30.2713V17.425C30.2713 16.675 30.7713 15.6 32.2463 15.6C33.7213 15.6 34.2463 16.675 34.2463 17.425V20.75H36.5463V9.59999H27.9463ZM31.8963 10.85H32.5963V14.65H31.8963V10.85ZM29.8213 11.6H30.5713V14.375H29.8213V11.6ZM33.9463 11.6H34.6713V14.375H33.9213L33.9463 11.6ZM27.1463 7.99999V9.57499H37.3463V7.99999H27.1463ZM26.1963 6.14999V7.99999H38.3213V6.14999H36.7963V7.14999H35.0463V6.14999H33.0963V7.14999H31.3963V6.14999H29.4213V7.14999H27.7463V6.14999H26.1963ZM23.9463 24.45V25.6H40.5713V24.45H23.9463Z" fill="#DA000C" stroke="black" stroke-width="0.25"/>
<path id="Vector_23" d="M23.2461 20.725V24.475H41.2461V20.725H39.5461V22.175H37.2461V20.725H34.1961V22.175H30.2461V20.725H27.1961V22.175H24.9461V20.725H23.2461Z" fill="#DA000C" stroke="black" stroke-width="0.25"/>
<path id="Vector_24" d="M25.4209 25.6V39.2H28.6209V34.1C28.6209 31.725 30.2209 30.6 32.2459 30.6C34.1959 30.6 35.8709 31.725 35.8709 34.1V39.2H39.0709V25.6H25.4209Z" fill="#DA000C" stroke="black" stroke-width="0.25" stroke-linejoin="round"/>
</g>
</g>
</g>
</g>
<defs>
<clipPath id="clip0_2909_185408">
<path d="M0.246094 32C0.246094 14.3269 14.573 0 32.2461 0V0C49.9192 0 64.2461 14.3269 64.2461 32V32C64.2461 49.6731 49.9192 64 32.2461 64V64C14.573 64 0.246094 49.6731 0.246094 32V32Z" fill="white"/>
</clipPath>
</defs>
</svg>
