<svg width="65" height="64" viewBox="0 0 65 64" fill="none" xmlns="http://www.w3.org/2000/svg">
<g id="Rounded=Gambia (GM)">
<g clip-path="url(#clip0_2909_185453)">
<g id="Group">
<path id="Vector" fill-rule="evenodd" clip-rule="evenodd" d="M0.246094 0H64.2461V21.3375H0.246094V0Z" fill="#FF0000"/>
<path id="Vector_2" fill-rule="evenodd" clip-rule="evenodd" d="M0.246094 21.3375H64.2461V24.875H0.246094V21.3375Z" fill="#F5F5F5"/>
<path id="Vector_3" fill-rule="evenodd" clip-rule="evenodd" d="M0.246094 24.8875H64.2461V39.125H0.246094V24.8875Z" fill="#000099"/>
<path id="Vector_4" fill-rule="evenodd" clip-rule="evenodd" d="M0.246094 39.1125H64.2461V42.6625H0.246094V39.1125Z" fill="#F5F5F5"/>
<path id="Vector_5" fill-rule="evenodd" clip-rule="evenodd" d="M0.246094 42.6625H64.2461V64H0.246094V42.6625Z" fill="#009900"/>
</g>
</g>
</g>
<defs>
<clipPath id="clip0_2909_185453">
<path d="M0.246094 32C0.246094 14.3269 14.573 0 32.2461 0V0C49.9192 0 64.2461 14.3269 64.2461 32V32C64.2461 49.6731 49.9192 64 32.2461 64V64C14.573 64 0.246094 49.6731 0.246094 32V32Z" fill="white"/>
</clipPath>
</defs>
</svg>
