<svg width="65" height="64" viewBox="0 0 65 64" fill="none" xmlns="http://www.w3.org/2000/svg">
<g id="Rounded=Equatorial Guinea (GQ)">
<g clip-path="url(#clip0_2909_185404)">
<path id="Vector" d="M0.246094 0H64.2461V64H0.246094V0Z" fill="#E32118"/>
<path id="Vector_2" d="M0.246094 0H64.2461V42.6625H0.246094V0Z" fill="#F5F5F5"/>
<path id="Vector_3" d="M0.246094 0H64.2461V21.3375H0.246094V0Z" fill="#3E9A00"/>
<path id="Vector_4" d="M0.246094 0V64L20.2461 32L0.246094 0Z" fill="#0073CE"/>
<g id="Group">
<path id="Vector_5" d="M27.1211 25.5625H37.3336V36.2625C37.3336 39.8625 32.6461 37.0875 32.2461 39.0125C31.5461 37.0375 27.1461 39.8875 27.1461 36.05L27.1211 25.5625V25.5625Z" fill="#F5F5F5" stroke="black" stroke-width="0.125"/>
<path id="Vector_6" d="M32.9588 37.3C32.9588 37.3 32.8338 37.4375 32.5838 37.3375C32.3463 37.225 32.3213 30.475 32.3213 30.475C32.8588 29.8875 33.2838 29.7125 33.2838 29.7125L33.5963 29.9625C32.3963 30.5875 32.5088 31.4625 32.6088 32.9875C32.6463 33.55 32.6463 34.2625 32.7713 34.9625C32.9588 35.8375 33.3338 36.5875 33.3588 37.15C33.3838 37.5 32.9588 37.3125 32.9588 37.3125V37.3Z" fill="#73452B" stroke="black" stroke-width="0.025"/>
<path id="Vector_7" d="M32.134 29.55H32.6215C32.209 33.425 32.559 35.7125 32.559 36.825C32.559 37.2 32.7715 37.325 32.7465 37.325C32.2715 37.8625 32.0215 37.3 32.0215 37.3L32.134 29.55Z" fill="#73452B" stroke="black" stroke-width="0.025"/>
<g id="Vector_8">
<path d="M31.3836 37.3C30.9336 37.525 30.8836 37.1 30.9086 37.05C31.8961 35.05 32.3211 30.6375 31.4086 30.1625L31.4711 29.7375C31.8086 29.8375 32.1336 30.2875 32.1336 30.2875C32.2586 35.225 32.1336 37.25 32.0586 37.3375C31.5711 37.8375 31.3836 37.25 31.3586 37.2" fill="#A36629"/>
<path d="M31.3836 37.3C30.9336 37.525 30.8836 37.1 30.9086 37.05C31.8961 35.05 32.3211 30.6375 31.4086 30.1625L31.4711 29.7375C31.8086 29.8375 32.1336 30.2875 32.1336 30.2875C32.2586 35.225 32.1336 37.25 32.0586 37.3375C31.5711 37.8375 31.3836 37.25 31.3586 37.2" stroke="black" stroke-width="0.025"/>
</g>
<path id="Vector_9" d="M32.6712 35.5C32.9087 36.1625 33.0212 36.75 32.9587 37.3125M31.3712 37.225C31.2837 36.8 32.0587 35.7 31.9962 34.5625L31.3712 37.225Z" stroke="black" stroke-width="0.025"/>
<path id="Vector_10" d="M33.7091 27.7375C33.8716 27.55 33.8716 27.55 34.1591 27.55C34.2091 27.15 34.8841 27.15 34.9341 27.65C35.4716 27.55 35.5716 27.8625 35.3591 28.1875C35.8591 28.0625 36.3216 28.1875 36.1841 28.775C37.0966 29.025 36.7466 29.65 36.3466 29.775C36.2966 30.1875 35.9216 30.325 35.4091 30.15C34.7841 30.6125 34.4091 30.45 34.1091 30C33.3841 30.1 33.3341 29.95 33.0216 29.55C32.4591 29.7875 32.3466 29.7875 31.8716 29.4875C31.8466 29.8625 31.7091 29.7625 31.4716 29.7375C31.4966 30.2125 31.3091 30.425 30.8841 30.2625C31.1966 30.9375 30.3841 31.225 29.9716 30.6625C29.5966 30.6875 29.5716 30.5875 29.3841 30.45C29.2341 30.9875 28.6341 30.9125 28.5341 30.6125C27.7841 30.5 27.8716 30.1125 28.4841 30.075C28.5341 29.65 28.9091 29.7375 29.1466 29.7875C29.1716 29.525 29.3341 29.575 29.4716 29.625C29.3841 29.4375 29.4466 29.3375 29.6841 29.275C29.3341 28.825 29.5591 28.6625 29.8966 28.5C29.7091 28.075 30.0216 28.1 30.2716 28.075C30.2466 27.625 30.3716 27.55 30.8591 27.4875C30.7966 27.3375 30.8841 27.2 31.1466 27.2C30.9841 26.75 31.1966 26.6375 31.6841 26.725C31.7591 26.0625 33.1841 26.375 33.0591 27.275C33.4716 27.3375 33.5966 27.4125 33.7091 27.7375V27.7375Z" fill="#009A3B" stroke="black" stroke-width="0.025"/>
<path id="Vector_11" d="M30.7967 29.625C30.8842 29.5 31.0717 29.4625 31.1967 29.55C31.1717 29.3 31.3342 29.2 31.4467 29.25M30.8592 27.5C30.9592 27.55 31.0967 27.5 31.1217 27.7875C31.3342 27.4125 31.5967 27.625 31.5967 28.05L30.8592 27.5ZM33.0717 27.275C32.9592 27.4375 32.5717 27.4375 32.6092 27.8625C32.4842 27.675 32.2217 27.625 32.1092 27.8125L33.0717 27.275ZM33.7092 27.7375C33.7092 27.8375 33.6842 28.1625 33.5842 28.325L33.7092 27.7375ZM35.3592 28.1875C35.3842 28.2125 34.9842 28.1875 34.7967 28.3125L35.3592 28.1875ZM36.3467 29.7875C36.2467 29.7375 36.0217 29.6 35.8717 29.8125C35.8717 29.7 35.8717 29.4125 35.5717 29.4125L36.3467 29.7875ZM35.4217 30.1625C35.4217 29.8875 35.3592 29.8125 35.2967 29.7375L35.4217 30.1625ZM34.5467 29.7875C34.3217 29.625 34.1092 29.8625 34.1092 30L34.5467 29.7875ZM32.9842 29.55C32.9842 29.4375 32.9092 29.225 33.0967 29.15L32.9842 29.55ZM29.9467 30.6625C29.9967 30.4 30.1967 30.4 30.1592 30.2625C30.1342 30.05 29.8967 29.8625 29.5967 30.1625L29.9467 30.6625ZM30.1592 30.2625C30.3217 30.2125 30.4842 30.2375 30.5342 30.325L30.1592 30.2625ZM29.7092 29.275C29.8217 29.175 30.0842 29.2 30.2467 29.275H29.7092ZM30.2467 28.65C30.3717 28.65 30.6217 28.5875 30.6967 28.825C30.9842 28.375 31.1967 28.425 31.2592 28.5375L30.2467 28.65ZM31.7842 28.475C31.9967 28.4 32.3717 28.6125 32.5842 28.975C32.6967 28.7 32.8592 28.75 33.0217 28.725L31.7842 28.475ZM34.0217 28.975C34.3717 28.825 34.5842 29.15 34.6967 29.275C34.8592 29.0625 34.9842 29.0625 35.1467 29.0625L34.0217 28.975Z" stroke="black" stroke-width="0.025"/>
<path id="Vector_12" d="M31.8967 24.075L31.3092 24.1L31.0217 24.625L30.6967 24.125L30.1092 24.15L30.3717 23.6125L30.0592 23.1125L30.6717 23.0875L30.9342 22.5625L31.2592 23.0625L31.8467 23.0375L31.5717 23.5625L31.8967 24.075ZM29.3967 24.2625L28.7967 24.4125L28.6467 24.975L28.2217 24.55L27.6592 24.6875L27.8092 24.125L27.4217 23.6875L27.9717 23.55L28.1342 22.975L28.5592 23.4L29.1467 23.275L28.9592 23.8375L29.3967 24.2625ZM26.9592 24.7625L26.4342 25.025L26.3967 25.625L25.8967 25.3L25.3592 25.55L25.4092 24.9625L24.9092 24.6375L25.4467 24.3625L25.4967 23.775L25.9717 24.1L26.5092 23.85L26.4842 24.4375L26.9592 24.7625ZM32.6717 24.075L33.2592 24.1L33.5217 24.625L33.8467 24.125L34.4342 24.15L34.1592 23.6125L34.4842 23.1125L33.8967 23.0875L33.5967 22.5625L33.2842 23.0625L32.6967 23.0375L32.9592 23.5625L32.6717 24.075ZM35.1717 24.2625L35.7342 24.4125L35.8967 24.975L36.3217 24.55L36.8842 24.6875L36.7217 24.125L37.1467 23.6875L36.5592 23.55L36.3967 22.975L35.9717 23.4L35.4217 23.275L35.5717 23.8375L35.1717 24.2625ZM37.5717 24.7625L38.1092 25.025L38.1342 25.625L38.6342 25.3L39.1717 25.55L39.1467 24.9625L39.6217 24.6375L39.0967 24.3625L39.0717 23.775L38.5717 24.1L38.0217 23.85L38.0842 24.4375L37.5717 24.7625Z" fill="#FFD700" stroke="black" stroke-width="0.1"/>
<g id="Group_2">
<path id="Vector_13" d="M38.2961 36.05L38.9586 37.0125L39.5836 36.1L39.1461 35.3375L38.2961 36.05ZM34.0461 38.85L34.1086 39.8125C34.1086 39.8125 34.3711 39.8125 34.6086 39.7375C34.8336 39.65 35.0211 39.4875 35.0211 39.4875L34.9836 38.9875L34.0461 38.85ZM30.4836 38.85L30.4211 39.7875C30.4211 39.7875 30.1836 39.7875 29.9461 39.7375C29.8035 39.6969 29.6684 39.6336 29.5461 39.55L29.2836 38.9L30.4836 38.85ZM26.1836 36.05L25.4961 37.0125L24.7461 35.7875L25.3086 35.2L26.1836 36.05Z" fill="#F5F5F5" stroke="black" stroke-width="0.1"/>
<path id="Vector_14" d="M29.5215 40.775C29.5215 41.675 35.0215 41.675 35.0215 40.775V39.5C35.0215 40.1625 29.5215 40.025 29.5215 39.5V40.775Z" fill="#F5F5F5" stroke="black" stroke-width="0.1"/>
<path id="Vector_15" d="M24.6219 37.8125C25.0969 40.2625 29.5219 40.3125 29.5219 40.3125V39.5C29.4219 39.175 29.5969 39.0625 30.3219 38.9625C30.6219 38.9375 30.4844 38.5125 30.4844 38.5125C30.4844 38.5125 28.5594 38.85 27.1969 38.325C25.3594 37.575 25.0969 36.1375 25.0969 36.1375C25.0969 36.1375 24.9719 37.2625 24.6094 37.8125H24.6219ZM39.8969 37.8125C39.4469 40.2625 35.0219 40.3125 35.0219 40.3125V39.5C35.0969 39.175 34.8969 39.0625 34.1844 38.9625C33.8969 38.9375 34.0594 38.5125 34.0594 38.5125C34.0594 38.5125 35.9719 38.85 37.3344 38.325C39.1469 37.575 39.3594 36.1375 39.3594 36.1375C39.3594 36.1375 39.5469 37.2625 39.8969 37.8125V37.8125Z" fill="#F5F5F5" stroke="black" stroke-width="0.1"/>
<path id="Vector_16" d="M24.959 36.875C23.734 36.2125 24.6965 35.525 24.7965 33.55C24.984 34.75 26.3465 35.25 26.184 36.025C25.6215 36.05 25.359 35.2 25.0965 36.1375L24.9715 36.8875L24.959 36.875ZM39.5465 36.875C40.7715 36.1875 39.759 35.525 39.659 33.55C39.4715 34.75 38.134 35.25 38.284 36.025C38.834 36.05 39.0965 35.2 39.359 36.1375L39.5465 36.85V36.875Z" fill="#F5F5F5" stroke="black" stroke-width="0.1"/>
</g>
<path id="Vector_17" d="M25.7092 37.7875L25.8342 37.8875L25.5467 38.2125C25.4217 38.3375 25.3967 38.425 25.4842 38.5C25.5842 38.6 25.6592 38.5625 25.7592 38.45L26.0842 38.1125L26.1842 38.2125L25.8717 38.5875C25.6967 38.7875 25.5342 38.7375 25.3967 38.6125C25.2717 38.5125 25.2092 38.35 25.3967 38.15L25.7092 37.7875V37.7875ZM26.2467 38.2375L26.3717 38.325L26.3467 38.95L26.6467 38.5L26.7717 38.5875L26.3467 39.275L26.1842 39.2L26.2092 38.5625L25.9217 39.0125L25.7967 38.9375L26.2467 38.2375ZM26.4842 39.3625L26.8592 38.6125L26.9842 38.6875L26.6467 39.4125L26.4842 39.3625ZM27.0717 38.725L26.7717 39.4875L27.0717 39.6C27.3467 39.7 27.4717 39.575 27.5592 39.35C27.6467 39.1 27.6092 38.9375 27.3342 38.825L27.0717 38.725ZM27.1717 38.9125C27.4467 39 27.4717 39.1125 27.3967 39.2875C27.3217 39.475 27.2467 39.5375 26.9842 39.4125L27.1717 38.9125ZM27.9467 39.0125L27.4717 39.7375L27.6592 39.7875L27.7592 39.6L28.0842 39.675L28.1092 39.8625L28.2967 39.8875L28.1092 39.0375L27.9467 39.0125V39.0125ZM27.9967 39.2L28.0592 39.525L27.8467 39.5L27.9967 39.2V39.2ZM28.4092 39.075L28.3717 39.9125H28.6842C28.9842 39.9125 29.0592 39.7625 29.0717 39.5125C29.0717 39.2625 28.9842 39.1125 28.6967 39.1L28.4092 39.0875V39.075ZM28.5592 39.225C28.8592 39.225 28.9092 39.325 28.8967 39.525C28.8967 39.725 28.8467 39.8125 28.5467 39.775L28.5592 39.225V39.225ZM31.1967 40.2375V41.0875H31.3842V40.775C31.3842 40.775 31.5467 40.775 31.6842 40.75C31.7842 40.725 31.8592 40.65 31.8592 40.4875C31.8592 40.325 31.7717 40.2375 31.6092 40.2375H31.1967ZM31.3842 40.3625L31.5717 40.375C31.7342 40.375 31.6967 40.6125 31.5717 40.6125H31.3842V40.3625ZM32.1592 40.2375L31.8092 41.0875H31.9967L32.0842 40.875H32.4342L32.5092 41.0875H32.6967L32.3467 40.2375H32.1592V40.2375ZM32.2467 40.425L32.3717 40.75H32.1342L32.2467 40.425V40.425ZM32.6967 40.925L33.1467 40.375H32.7467V40.25H33.3842V40.375L32.9092 40.9375H33.3842V41.1H32.6967V40.925ZM35.3842 39.275L35.5467 39.25L35.6217 39.7375C35.6592 39.9 35.5717 40.025 35.4592 40.0625C35.3217 40.1125 35.1467 40.0625 35.1217 39.8375L35.2467 39.8125C35.2842 39.95 35.3467 39.9625 35.4092 39.9375C35.4592 39.925 35.4842 39.8375 35.4717 39.7625L35.3842 39.275ZM35.6592 39.2375L35.8092 39.2L35.8842 39.6C35.9217 39.775 35.9717 39.85 36.0842 39.825C36.2092 39.8 36.2342 39.725 36.2092 39.575L36.1092 39.15L36.2717 39.125L36.3717 39.5625C36.4342 39.8125 36.3092 39.9375 36.1217 39.9625C35.9592 39.9875 35.7967 39.95 35.7467 39.7L35.6592 39.2375ZM36.4842 39.6L36.6092 39.55C36.6842 39.675 36.7842 39.6625 36.8592 39.625C36.9717 39.575 36.9842 39.475 36.9342 39.45C36.8467 39.4 36.6717 39.4625 36.5592 39.425C36.4467 39.3875 36.3967 39.3125 36.3967 39.2125C36.4092 39.0875 36.5217 39.025 36.6467 38.9875C36.7717 38.95 36.8967 38.9625 36.9842 39.1125L36.8342 39.175C36.7717 39.0875 36.7092 39.0875 36.6467 39.1125C36.5967 39.1375 36.5217 39.1875 36.5592 39.2625C36.5967 39.3125 36.7967 39.275 36.8967 39.275C37.0092 39.275 37.0967 39.3625 37.1092 39.4625C37.1217 39.6 37.0717 39.675 36.9092 39.75C36.6967 39.825 36.5217 39.7375 36.4842 39.6V39.6ZM37.1967 38.9375L36.9842 39.0375L36.9342 38.9125L37.5217 38.6625L37.5717 38.775L37.3592 38.875L37.6092 39.4625L37.4717 39.55L37.1967 38.9375ZM37.5467 38.6375L37.6717 38.5625L38.0467 39.25L37.9217 39.3375L37.5467 38.6375ZM38.4592 38.6875L38.6092 38.6375C38.6275 38.6872 38.6334 38.7407 38.6264 38.7933C38.6194 38.8458 38.5996 38.8958 38.5687 38.939C38.5379 38.9821 38.497 39.0171 38.4496 39.0408C38.4022 39.0645 38.3497 39.0762 38.2967 39.075C37.8967 39.075 37.8467 38.625 37.9217 38.475C38.0217 38.225 38.3217 38.2375 38.4592 38.375L38.3217 38.475C38.2342 38.375 38.0467 38.4375 38.0342 38.5375C38.0229 38.6149 38.0362 38.6938 38.072 38.7633C38.1079 38.8328 38.1646 38.8893 38.2342 38.925C38.3592 38.9875 38.5467 38.8375 38.4592 38.6875V38.6875ZM38.3717 38.1375L38.4967 38.025L38.9967 38.6625L38.8592 38.775L38.3717 38.1375ZM38.8717 37.7375L38.7467 37.8375L39.0467 38.6375L39.1717 38.5125L39.0967 38.35L39.3342 38.1375L39.4967 38.2125L39.6217 38.1125L38.8717 37.7375V37.7375ZM38.9342 37.925L39.1967 38.05L39.0467 38.2125L38.9342 37.925V37.925Z" fill="black"/>
</g>
</g>
</g>
<defs>
<clipPath id="clip0_2909_185404">
<path d="M0.246094 32C0.246094 14.3269 14.573 0 32.2461 0V0C49.9192 0 64.2461 14.3269 64.2461 32V32C64.2461 49.6731 49.9192 64 32.2461 64V64C14.573 64 0.246094 49.6731 0.246094 32V32Z" fill="white"/>
</clipPath>
</defs>
</svg>
