<svg width="65" height="64" viewBox="0 0 65 64" fill="none" xmlns="http://www.w3.org/2000/svg">
<g id="Rounded=Guatemala (GT)">
<g clip-path="url(#clip0_2909_185399)">
<path id="Vector" d="M0.246094 0H64.2461V64H0.246094V0Z" fill="#4997D0"/>
<path id="Vector_2" d="M21.584 0H42.909V64H21.584V0Z" fill="#F5F5F5"/>
<g id="Group">
<g id="Group_2">
<path id="Vector_3" d="M30.0992 36.6732L30.0525 36.5598M30.3858 37.1665C30.5658 37.1398 30.6658 37.0865 30.7858 37.0465L30.3858 37.1665ZM30.9392 36.7798C31.0269 36.8666 31.0951 36.9712 31.1392 37.0865L30.9392 36.7798ZM30.5992 36.7465C30.6811 36.8279 30.7487 36.9226 30.7992 37.0265L30.5992 36.7465ZM27.4992 27.9199C27.4325 28.0265 27.2925 28.0999 27.1792 28.1465L27.4992 27.9199ZM27.1592 28.1332C27.1592 28.0399 27.1392 27.9332 27.1592 27.8399V28.1332ZM27.0259 28.1732L27.0725 28.3065L27.0259 28.1732ZM27.2059 28.3732L27.0725 28.3932L27.2059 28.3732ZM26.8059 28.3332C26.8059 28.5065 26.8325 28.7065 26.8459 28.8599L26.8059 28.3332ZM26.7259 28.7932C26.7522 28.8424 26.7885 28.8855 26.8325 28.9199L26.7259 28.7932ZM26.5259 29.3465C26.5592 29.4132 26.5925 29.4932 26.6125 29.6132L26.5259 29.3465ZM26.8592 29.3065L26.7259 29.4065L26.8592 29.3065ZM26.8392 29.6999C26.7725 29.7599 26.6925 29.7999 26.6059 29.8399L26.8392 29.6999ZM26.3525 32.5332C26.4203 32.6539 26.5108 32.7604 26.6192 32.8465L26.3525 32.5332ZM26.6592 32.9598C26.5888 32.9511 26.5208 32.9285 26.4592 32.8932L26.6592 32.9598ZM26.7525 33.4598L26.8659 33.5265L26.7525 33.4598ZM26.8392 33.7532C26.9192 33.8065 27.0059 33.9065 27.0859 34.0132L26.8392 33.7532ZM26.9925 34.1998C27.0859 34.2198 27.1592 34.2465 27.2059 34.2665L26.9925 34.1998ZM27.1392 34.4332H27.2725H27.1392ZM27.3592 34.0798L27.3259 34.3598L27.3592 34.0798ZM27.3925 34.4665L27.4192 34.3598L27.3925 34.4665ZM27.7325 34.7598L27.7259 34.9732L27.7325 34.7598ZM30.3392 36.8398L30.2592 36.9398L30.3392 36.8398Z" stroke="#24420E" stroke-width="0.0266665"/>
<g id="Group_3">
<g id="Vector_4">
<path d="M32.6525 37.6665C32.5992 37.5798 32.5192 37.5265 32.4325 37.4865C31.9192 37.2198 31.4058 37.0932 30.8325 36.9998C30.6925 36.9798 30.5592 36.8532 30.4192 36.7865C30.0858 36.6332 29.7192 36.5732 29.3992 36.4065C29.3496 36.3805 29.3046 36.3468 29.2658 36.3065C29.1325 36.1598 28.8992 36.1132 28.7592 35.9732C28.1992 35.4532 27.6125 34.9732 27.3059 34.2732C26.9325 33.4265 26.4725 32.5532 26.5325 31.5865C26.5725 30.9865 26.4859 30.3665 26.6325 29.7865C26.8592 28.9265 27.1392 28.0799 27.6592 27.3665L27.5725 27.4199C27.0785 28.1534 26.73 28.9749 26.5459 29.8399C26.3925 30.4199 26.4792 31.0399 26.4459 31.6399C26.3792 32.6065 26.8459 33.4798 27.2125 34.3265C27.5192 35.0198 28.1125 35.5065 28.6659 36.0332C28.8125 36.1665 29.0392 36.2132 29.1725 36.3665C29.2126 36.4053 29.2574 36.4389 29.3058 36.4665C29.6325 36.6265 29.9992 36.6865 30.3325 36.8465C30.4658 36.9132 30.5992 37.0332 30.7325 37.0532C31.2936 37.1247 31.8388 37.2891 32.3458 37.5398C32.4333 37.577 32.5092 37.6368 32.5658 37.7131L32.6525 37.6598" fill="#406325"/>
<path d="M32.6525 37.6665C32.5992 37.5798 32.5192 37.5265 32.4325 37.4865C31.9192 37.2198 31.4058 37.0932 30.8325 36.9998C30.6925 36.9798 30.5592 36.8532 30.4192 36.7865C30.0858 36.6332 29.7192 36.5732 29.3992 36.4065C29.3496 36.3805 29.3046 36.3468 29.2658 36.3065C29.1325 36.1598 28.8992 36.1132 28.7592 35.9732C28.1992 35.4532 27.6125 34.9732 27.3059 34.2732C26.9325 33.4265 26.4725 32.5532 26.5325 31.5865C26.5725 30.9865 26.4859 30.3665 26.6325 29.7865C26.8592 28.9265 27.1392 28.0799 27.6592 27.3665L27.5725 27.4199C27.0785 28.1534 26.73 28.9749 26.5459 29.8399C26.3925 30.4199 26.4792 31.0399 26.4459 31.6399C26.3792 32.6065 26.8459 33.4798 27.2125 34.3265C27.5192 35.0198 28.1125 35.5065 28.6659 36.0332C28.8125 36.1665 29.0392 36.2132 29.1725 36.3665C29.2126 36.4053 29.2574 36.4389 29.3058 36.4665C29.6325 36.6265 29.9992 36.6865 30.3325 36.8465C30.4658 36.9132 30.5992 37.0332 30.7325 37.0532C31.2936 37.1247 31.8388 37.2891 32.3458 37.5398C32.4333 37.577 32.5092 37.6368 32.5658 37.7131L32.6525 37.6598" stroke="#24420E" stroke-width="0.0133332"/>
</g>
<g id="Group_4">
<path id="Vector_5" d="M27.3331 34.1065C27.1957 33.5939 27.1911 33.0547 27.3197 32.5399C27.7664 33.4065 27.6197 34.1198 27.3331 34.1065ZM30.393 37.1332C29.9197 37.1598 29.0197 37.7532 28.9331 37.8932C29.9397 37.8998 30.533 37.4065 30.393 37.1332ZM30.893 36.8465C30.4375 36.346 30.1164 35.7382 29.9597 35.0798C30.9597 35.7998 31.2197 36.6998 30.893 36.8465Z" fill="#67923D" stroke="#24420E" stroke-width="0.0133332"/>
<path id="Vector_6" d="M30.5526 36.8532C30.0727 36.4462 29.7055 35.9228 29.4859 35.3332C30.5059 35.8798 30.8393 36.6798 30.5526 36.8532ZM29.5126 36.3998C29.5793 35.8798 29.1393 34.7865 29.0126 34.6665C28.8126 35.7665 29.2126 36.5065 29.5193 36.3998H29.5126ZM27.6926 34.7798C27.585 34.3179 27.5964 33.8362 27.726 33.3799C28.0926 34.1598 27.946 34.7932 27.6926 34.7798ZM26.7793 29.6665C27.1442 29.1943 27.6271 28.8264 28.1793 28.5999C27.7326 29.5732 26.9793 29.9265 26.7793 29.6665Z" fill="#67923D" stroke="#24420E" stroke-width="0.0133332"/>
<path id="Vector_7" d="M26.8259 29.2865C27.0901 28.7488 27.4899 28.2893 27.9859 27.9532C27.7392 28.9999 27.0726 29.4999 26.8259 29.2865ZM28.6859 35.8998C28.3526 35.4865 28.1526 34.3065 28.1992 34.1398C28.9459 34.9732 28.9992 35.8198 28.6792 35.8998H28.6859ZM26.7726 33.4665C26.3059 33.5398 25.3459 33.1599 25.2393 33.0465C26.2126 32.8332 26.8659 33.1799 26.7726 33.4665ZM26.6259 32.8199C26.6793 32.4532 27.1992 31.7665 27.3126 31.7132C27.2459 32.5132 26.8192 32.9532 26.6259 32.8199ZM30.0459 36.7332C29.3966 36.8782 28.7967 37.1908 28.3059 37.6398C29.5059 37.6465 30.2192 37.0598 30.0459 36.7332Z" fill="#67923D" stroke="#24420E" stroke-width="0.0133332"/>
</g>
<g id="Group_5">
<path id="Vector_8" d="M27.3389 34.0999C27.6189 34.1132 27.7656 33.4065 27.3189 32.5399C27.403 33.056 27.4098 33.5817 27.3389 34.0999V34.0999ZM28.0856 35.4332C27.6745 35.0657 27.1767 34.8088 26.639 34.6865C27.2323 35.4932 27.9656 35.6932 28.0856 35.4332ZM26.459 31.8999C26.2692 31.2923 25.93 30.7422 25.4723 30.2999C25.5723 31.4465 26.179 32.0799 26.459 31.8999ZM27.0189 34.1865C26.6856 33.9399 25.7523 33.8265 25.619 33.8732C26.299 34.4199 26.9656 34.4332 27.0189 34.1865ZM26.3923 32.5265C26.1035 32.1284 25.7149 31.8134 25.2656 31.6132C25.6323 32.4399 26.239 32.7465 26.3923 32.5265ZM26.5723 29.3599C26.639 28.8532 26.2056 27.7999 26.0856 27.6799C25.8923 28.7466 26.279 29.4599 26.5723 29.3599ZM26.8723 28.3599C27.0003 27.826 26.9889 27.2681 26.8389 26.7399C26.4123 27.6399 26.5856 28.3799 26.8723 28.3666V28.3599Z" fill="#406325" stroke="#24420E" stroke-width="0.0133332"/>
<path id="Vector_9" d="M27.2062 27.8532C27.3901 27.4482 27.4703 27.0037 27.4395 26.5599C26.9595 27.2066 26.9729 27.8199 27.2062 27.8532ZM27.6062 27.4466C27.9019 27.1174 28.1084 26.7181 28.2062 26.2866C27.5595 26.7532 27.3929 27.3399 27.6062 27.4466ZM26.5395 30.3265C26.5395 30.3865 26.4729 29.7799 25.8662 29.1065C25.8929 30.0932 26.2795 30.4665 26.5329 30.3265H26.5395ZM28.7062 36.0465C28.1759 35.77 27.5841 35.6324 26.9862 35.6465C27.8262 36.3398 28.6462 36.3532 28.7062 36.0465ZM29.5062 36.3932C29.2062 36.4998 28.8129 35.7665 29.0062 34.6665C29.0927 35.2644 29.261 35.8477 29.5062 36.3998V36.3932ZM30.3995 37.1398C30.5328 37.4065 29.9462 37.8998 28.9462 37.8932C29.7462 37.5598 30.3595 37.2332 30.3929 37.1398H30.3995ZM30.8862 36.8398C31.2195 36.6865 30.9595 35.8065 29.9529 35.0798C30.5262 35.9598 30.9195 36.7198 30.8862 36.8398Z" fill="#406325" stroke="#24420E" stroke-width="0.0133332"/>
<path id="Vector_10" d="M30.5526 36.8465C30.8326 36.6665 30.5059 35.8798 29.4859 35.3332C30.1193 36.0798 30.5659 36.7332 30.5526 36.8465ZM27.6993 34.7798C27.946 34.7932 28.0993 34.1599 27.7326 33.3799C27.7793 34.1132 27.7593 34.7132 27.6993 34.7798ZM26.7793 29.6599C26.9793 29.9265 27.7126 29.5732 28.1726 28.5999C27.7626 29.0214 27.2932 29.3807 26.7793 29.6665V29.6599Z" fill="#406325" stroke="#24420E" stroke-width="0.0133332"/>
<path id="Vector_11" d="M26.8392 29.2865C27.0792 29.4999 27.7392 28.9999 27.9859 27.9532C27.4526 28.7065 26.9459 29.2732 26.8392 29.2865ZM28.6859 35.8932C28.9992 35.8198 28.9526 34.9732 28.1992 34.1398C28.5326 35.0398 28.7326 35.7932 28.6859 35.8932ZM26.7592 33.4665C26.8526 33.1799 26.2059 32.8399 25.2393 33.0465C26.0593 33.1932 26.7059 33.3798 26.7592 33.4665ZM26.6259 32.8199C26.8259 32.9532 27.2459 32.5132 27.3192 31.7132C27.1442 32.1129 26.9129 32.4855 26.6326 32.8199H26.6259ZM30.0459 36.7332C30.2192 37.0665 29.5126 37.6465 28.3126 37.6332C29.2592 37.2465 29.9992 36.8532 30.0459 36.7332Z" fill="#406325" stroke="#24420E" stroke-width="0.0133332"/>
<path id="Vector_12" d="M26.8726 33.7532C26.5932 33.3092 26.2025 32.9461 25.7393 32.6999C26.0726 33.6065 26.6859 33.9732 26.8726 33.7532Z" fill="#406325" stroke="#24420E" stroke-width="0.0133332"/>
</g>
<g id="Group_6">
<path id="Vector_13" d="M26.4056 30.2665C26.6723 29.9532 27.5723 29.6532 27.7123 29.6665C27.1789 30.3665 26.5123 30.5065 26.4056 30.2665ZM28.0723 35.4332C27.9589 35.6998 27.2323 35.4998 26.6323 34.6932C27.0764 35.0082 27.5636 35.2575 28.0789 35.4332H28.0723ZM26.4523 31.8999C26.1723 32.0799 25.579 31.4465 25.4723 30.2999C25.9123 31.1865 26.339 31.8665 26.4523 31.8999ZM27.0123 34.1865C26.9656 34.4332 26.299 34.4265 25.6256 33.8732C26.0705 34.0435 26.5374 34.149 27.0123 34.1865V34.1865ZM26.3856 32.5199C26.2256 32.7399 25.6323 32.4399 25.2656 31.6132C25.8123 32.1465 26.299 32.5265 26.3856 32.5199ZM26.5656 29.3532C26.2723 29.4599 25.8923 28.7532 26.079 27.6866C26.259 28.5865 26.479 29.2999 26.5656 29.3532ZM26.8656 28.3599C26.579 28.3799 26.4056 27.6399 26.8323 26.7399C26.7789 27.5932 26.7989 28.2865 26.8656 28.3599ZM27.1989 27.8532C26.9723 27.8132 26.9523 27.2066 27.4389 26.5599C27.2948 26.9766 27.2139 27.4125 27.1989 27.8532V27.8532ZM27.5989 27.4466C27.3923 27.3332 27.5523 26.7532 28.1989 26.2866C27.9425 26.6413 27.7403 27.0323 27.5989 27.4466V27.4466Z" fill="#67923D" stroke="#24420E" stroke-width="0.0133332"/>
<path id="Vector_14" d="M26.5324 30.3265C26.2724 30.4665 25.8924 30.0932 25.8658 29.1065C26.1991 29.8865 26.4391 30.2932 26.5324 30.3265ZM28.6991 36.0465C28.6391 36.3532 27.8257 36.3398 26.9857 35.6532C27.8657 35.9398 28.6057 36.0998 28.6991 36.0465ZM28.1524 35.4132C27.9008 35.0301 27.7494 34.59 27.7124 34.1332C28.3124 34.7132 28.3924 35.3398 28.1657 35.4132H28.1524ZM27.0324 33.7465C26.8308 33.2622 26.7617 32.733 26.8324 32.2132C27.3857 33.0065 27.3191 33.7265 27.0324 33.7465ZM26.8524 33.7532C26.6724 33.9732 26.0591 33.6132 25.7324 32.6998C26.0514 33.1046 26.4288 33.4597 26.8524 33.7532V33.7532Z" fill="#67923D" stroke="#24420E" stroke-width="0.0133332"/>
</g>
<g id="Group_7">
<path id="Vector_15" d="M26.4062 30.2665C26.5129 30.5065 27.1662 30.3665 27.7062 29.6732C26.9062 30.1265 26.5929 30.3265 26.4062 30.2665ZM27.0262 33.7332C27.3129 33.7132 27.3796 32.9999 26.8262 32.2132C26.9737 32.7082 27.0412 33.2236 27.0262 33.7399V33.7332ZM28.1596 35.4132C28.3862 35.3465 28.3062 34.7132 27.7129 34.1332C28.0062 34.7799 28.1929 35.3332 28.1596 35.4132Z" fill="#406325" stroke="#24420E" stroke-width="0.0133332"/>
<path id="Vector_16" d="M26.5261 31.4532C26.6179 30.8683 26.5173 30.2694 26.2394 29.7466C25.9261 30.7732 26.2261 31.5199 26.5261 31.4532Z" fill="#406325" stroke="#24420E" stroke-width="0.0133332"/>
</g>
<path id="Vector_17" d="M26.5129 31.5865C26.1129 31.6732 25.9329 30.7865 26.2395 29.7799C26.3062 30.6799 26.4262 31.5199 26.5062 31.5799L26.5129 31.5865Z" fill="#67923D" stroke="#24420E" stroke-width="0.0133332"/>
<path id="Vector_18" d="M26.4258 31.5799C26.4843 30.9893 26.6907 30.423 27.0258 29.9332C27.1591 30.9865 26.7258 31.6865 26.4258 31.5799Z" fill="#67923D" stroke="#24420E" stroke-width="0.0133332"/>
<path id="Vector_19" d="M26.4326 31.5732C26.7259 31.6799 27.1593 30.9865 27.0259 29.9332C26.7926 30.8199 26.5259 31.5199 26.4326 31.5732Z" fill="#406325" stroke="#24420E" stroke-width="0.0133332"/>
<path id="Vector_20" d="M26.5195 32.2199C26.6119 31.6402 26.8556 31.0951 27.2262 30.6399C27.2795 31.7199 26.8062 32.3665 26.5195 32.2199Z" fill="#67923D" stroke="#24420E" stroke-width="0.0133332"/>
<path id="Vector_21" d="M26.5264 32.2265C26.8064 32.3732 27.2797 31.7398 27.2264 30.6599C26.933 31.5132 26.6264 32.1865 26.5264 32.2265Z" fill="#406325" stroke="#24420E" stroke-width="0.0133332"/>
</g>
<g id="Group_8">
<path id="Vector_22" d="M26.6993 28.8265C26.7398 28.8265 26.7726 28.7937 26.7726 28.7532C26.7726 28.7127 26.7398 28.6799 26.6993 28.6799C26.6588 28.6799 26.626 28.7127 26.626 28.7532C26.626 28.7937 26.6588 28.8265 26.6993 28.8265Z" fill="#BA1F3E" stroke="#511124" stroke-width="0.0133332"/>
<path id="Vector_23" d="M27.2599 28.4132C27.3004 28.4132 27.3332 28.3804 27.3332 28.3399C27.3332 28.2994 27.3004 28.2665 27.2599 28.2665C27.2194 28.2665 27.1865 28.2994 27.1865 28.3399C27.1865 28.3804 27.2194 28.4132 27.2599 28.4132Z" fill="#BA1F3E" stroke="#511124" stroke-width="0.0133332"/>
<path id="Vector_24" d="M27.0196 28.1866C27.0601 28.1866 27.093 28.1537 27.093 28.1132C27.093 28.0727 27.0601 28.0399 27.0196 28.0399C26.9791 28.0399 26.9463 28.0727 26.9463 28.1132C26.9463 28.1537 26.9791 28.1866 27.0196 28.1866Z" fill="#BA1F3E" stroke="#511124" stroke-width="0.0133332"/>
<path id="Vector_25" d="M26.4128 32.9599C26.4607 32.9599 26.4995 32.9211 26.4995 32.8732C26.4995 32.8253 26.4607 32.7865 26.4128 32.7865C26.365 32.7865 26.3262 32.8253 26.3262 32.8732C26.3262 32.9211 26.365 32.9599 26.4128 32.9599Z" fill="#BA1F3E" stroke="#511124" stroke-width="0.0133332"/>
<path id="Vector_26" d="M26.5798 31.8932C26.6277 31.8932 26.6665 31.8544 26.6665 31.8065C26.6665 31.7587 26.6277 31.7198 26.5798 31.7198C26.532 31.7198 26.4932 31.7587 26.4932 31.8065C26.4932 31.8544 26.532 31.8932 26.5798 31.8932Z" fill="#BA1F3E" stroke="#511124" stroke-width="0.0133332"/>
<path id="Vector_27" d="M27.4597 34.3865C27.5076 34.3865 27.5464 34.3477 27.5464 34.2999C27.5464 34.252 27.5076 34.2132 27.4597 34.2132C27.4118 34.2132 27.373 34.252 27.373 34.2999C27.373 34.3477 27.4118 34.3865 27.4597 34.3865Z" fill="#BA1F3E" stroke="#511124" stroke-width="0.0133332"/>
<path id="Vector_28" d="M27.073 34.5132C27.1209 34.5132 27.1597 34.4744 27.1597 34.4265C27.1597 34.3786 27.1209 34.3398 27.073 34.3398C27.0251 34.3398 26.9863 34.3786 26.9863 34.4265C26.9863 34.4744 27.0251 34.5132 27.073 34.5132Z" fill="#BA1F3E" stroke="#511124" stroke-width="0.0133332"/>
<path id="Vector_29" d="M30.0261 36.5932C30.074 36.5932 30.1128 36.5544 30.1128 36.5065C30.1128 36.4586 30.074 36.4198 30.0261 36.4198C29.9783 36.4198 29.9395 36.4586 29.9395 36.5065C29.9395 36.5544 29.9783 36.5932 30.0261 36.5932Z" fill="#BA1F3E" stroke="#511124" stroke-width="0.0133332"/>
<path id="Vector_30" d="M30.2195 37.0665C30.2673 37.0665 30.3061 37.0277 30.3061 36.9798C30.3061 36.932 30.2673 36.8932 30.2195 36.8932C30.1716 36.8932 30.1328 36.932 30.1328 36.9798C30.1328 37.0277 30.1716 37.0665 30.2195 37.0665Z" fill="#BA1F3E" stroke="#511124" stroke-width="0.0133332"/>
</g>
</g>
<g id="Group_9">
<path id="Vector_31" d="M37.5586 28.6999L37.4186 28.6465M37.6519 29.2665C37.6986 29.3065 37.7319 29.3199 37.8053 29.3932L37.6519 29.2665ZM37.3653 28.1265C37.3653 28.0399 37.3253 27.8865 37.3053 27.7932L37.3653 28.1265ZM37.5386 27.9932C37.5386 28.1265 37.5186 28.2465 37.4653 28.3599L37.5386 27.9932ZM37.1853 28.3265C37.3053 28.4332 37.4186 28.5265 37.5386 28.5865L37.1853 28.3265ZM37.7919 28.6665C37.7986 28.7999 37.7853 28.9332 37.7453 29.0665L37.7919 28.6665ZM37.7719 29.1665L37.8586 29.0132L37.7719 29.1665ZM37.7319 29.8265C37.8253 29.8465 37.9186 29.9599 37.9653 30.0599L37.7319 29.8265ZM37.9986 29.9732L38.1053 29.8265L37.9986 29.9732ZM38.2186 31.8799C38.1719 31.9599 38.1184 32.0358 38.0586 32.1065L38.2186 31.8799ZM37.7919 32.1065C37.8453 32.1999 37.8986 32.3065 37.9653 32.3732L37.7919 32.1065ZM38.1319 32.7665C38.0538 32.8773 37.9511 32.9686 37.8319 33.0332L38.1319 32.7665ZM37.8453 33.3332C37.7719 33.3865 37.6786 33.5332 37.5986 33.6465L37.8453 33.3332ZM38.1586 32.2999L38.0186 32.3599L38.1586 32.2999ZM37.9253 31.8599L38.0119 31.9332L37.9253 31.8599ZM37.3919 34.4265H37.2453H37.3919ZM37.1119 34.3065L37.1586 34.4132L37.1119 34.3065ZM36.6386 34.7532C36.6253 34.8798 36.6386 34.9998 36.6519 35.1265L36.6386 34.7532ZM36.9386 34.5265L37.0053 34.6732L36.9386 34.5265ZM37.2653 34.6598L37.0986 34.6932L37.2653 34.6598ZM35.0386 36.3732L34.9719 36.4932L35.0386 36.3732ZM35.7719 36.2265C35.6719 36.2398 35.5853 36.2265 35.4986 36.2132L35.7719 36.2265ZM35.1319 36.6132C35.0666 36.5871 34.9998 36.5648 34.9319 36.5465L35.1319 36.6132ZM33.9586 36.7265C33.8919 36.7732 33.8253 36.8865 33.752 36.9932L33.9586 36.7265ZM33.7119 36.6932C33.552 36.7798 33.5053 36.9398 33.4186 37.0798L33.7119 36.6932ZM33.6053 37.2732C33.4852 37.2351 33.3672 37.1906 33.252 37.1398L33.6053 37.2732ZM34.3653 37.0865C34.2119 37.0065 34.0519 37.0198 33.8919 36.9932L34.3653 37.0865ZM34.6119 36.9665C34.3653 36.9198 34.1453 36.9265 33.9253 36.9598L34.6119 36.9665ZM34.4453 36.7865L34.3519 36.7465L34.4453 36.7865ZM33.9786 37.1132L33.8253 37.0265L33.9786 37.1132ZM37.6919 33.7465C37.6053 33.7998 37.5186 33.8998 37.4386 34.0065L37.6919 33.7465Z" stroke="#24420E" stroke-width="0.0266665"/>
<g id="Group_10">
<g id="Vector_32">
<path d="M31.8721 37.6598C31.9278 37.581 32.0038 37.5188 32.0921 37.4798C32.6054 37.2131 33.1187 37.0931 33.6921 36.9998C33.8321 36.9731 33.9654 36.8465 34.1054 36.7865C34.4387 36.6265 34.8054 36.5665 35.1254 36.4065C35.1754 36.3785 35.2205 36.3425 35.2587 36.2998C35.392 36.1531 35.6254 36.1065 35.7654 35.9665C36.3254 35.4465 36.912 34.9665 37.2187 34.2665C37.592 33.4198 38.052 32.5465 37.992 31.5865C37.952 30.9732 38.0387 30.3598 37.892 29.7865C37.7068 28.9198 37.3584 28.0963 36.8654 27.3599L36.952 27.4132C37.4457 28.1468 37.7942 28.9683 37.9787 29.8332C38.132 30.4132 38.0454 31.0332 38.0787 31.6398C38.1454 32.5998 37.6787 33.4732 37.312 34.3265C37.0054 35.0198 36.412 35.4998 35.8587 36.0265C35.712 36.1598 35.4854 36.2065 35.352 36.3598C35.312 36.3986 35.2672 36.4322 35.2187 36.4598C34.8921 36.6265 34.5254 36.6865 34.1921 36.8398C34.0587 36.9065 33.9254 37.0265 33.7921 37.0531C33.2314 37.1226 32.6862 37.2848 32.1787 37.5331C32.0905 37.5721 32.0144 37.6343 31.9587 37.7131L31.8721 37.6531" fill="#406325"/>
<path d="M31.8721 37.6598C31.9278 37.581 32.0038 37.5188 32.0921 37.4798C32.6054 37.2131 33.1187 37.0931 33.6921 36.9998C33.8321 36.9731 33.9654 36.8465 34.1054 36.7865C34.4387 36.6265 34.8054 36.5665 35.1254 36.4065C35.1754 36.3785 35.2205 36.3425 35.2587 36.2998C35.392 36.1531 35.6254 36.1065 35.7654 35.9665C36.3254 35.4465 36.912 34.9665 37.2187 34.2665C37.592 33.4198 38.052 32.5465 37.992 31.5865C37.952 30.9732 38.0387 30.3598 37.892 29.7865C37.7068 28.9198 37.3584 28.0963 36.8654 27.3599L36.952 27.4132C37.4457 28.1468 37.7942 28.9683 37.9787 29.8332C38.132 30.4132 38.0454 31.0332 38.0787 31.6398C38.1454 32.5998 37.6787 33.4732 37.312 34.3265C37.0054 35.0198 36.412 35.4998 35.8587 36.0265C35.712 36.1598 35.4854 36.2065 35.352 36.3598C35.312 36.3986 35.2672 36.4322 35.2187 36.4598C34.8921 36.6265 34.5254 36.6865 34.1921 36.8398C34.0587 36.9065 33.9254 37.0265 33.7921 37.0531C33.2314 37.1226 32.6862 37.2848 32.1787 37.5331C32.0905 37.5721 32.0144 37.6343 31.9587 37.7131L31.8721 37.6531" stroke="#24420E" stroke-width="0.0133332"/>
</g>
<g id="Group_11">
<path id="Vector_33" d="M37.1523 34.3065C37.3389 33.8132 37.1523 32.6532 37.0589 32.5065C36.6123 33.5332 36.8323 34.3465 37.1523 34.3065Z" fill="#406325" stroke="#24420E" stroke-width="0.0133332"/>
<path id="Vector_34" d="M36.6793 34.7732C36.8326 34.3999 36.7193 33.4865 36.6526 33.3732C36.2793 34.1532 36.4326 34.7932 36.6793 34.7732ZM37.7993 29.8332C37.4646 29.403 37.0234 29.0675 36.5193 28.8599C36.9326 29.7466 37.6193 30.0732 37.7993 29.8332Z" fill="#406325" stroke="#24420E" stroke-width="0.0133332"/>
<path id="Vector_35" d="M37.6991 29.2999C37.4787 28.8514 37.1456 28.4677 36.7324 28.1866C36.9324 29.0532 37.4924 29.4732 37.6991 29.2999ZM38.0124 30.2999C37.7791 30.0265 36.9991 29.7665 36.8791 29.7799C37.3458 30.3799 37.9191 30.5065 38.0124 30.2932V30.2999ZM37.8258 33.3865C38.3027 33.3832 38.7701 33.2519 39.1791 33.0065C38.3191 32.8199 37.7458 33.1332 37.8258 33.3865ZM37.8191 33.0065C37.8191 32.6332 37.3924 31.8865 37.2858 31.8065C37.2458 32.6065 37.6057 33.1065 37.8191 33.0065Z" fill="#406325" stroke="#24420E" stroke-width="0.0133332"/>
<path id="Vector_36" d="M37.8458 32.0932C37.7524 31.5158 37.5087 30.9732 37.1392 30.5199C37.0858 31.5999 37.5591 32.2399 37.8458 32.0932ZM34.3125 37.1132C34.7326 37.4837 35.2432 37.7367 35.7925 37.8465C35.2058 37.0265 34.4525 36.8398 34.3192 37.1132H34.3125Z" fill="#406325" stroke="#24420E" stroke-width="0.0133332"/>
</g>
<g id="Group_12">
<path id="Vector_37" d="M37.1522 34.2932C36.8256 34.3332 36.6122 33.5332 37.0589 32.5065C37.0256 33.4532 37.0722 34.2198 37.1522 34.2932ZM33.5923 37.2065C34.1345 37.3293 34.6354 37.5912 35.0456 37.9665C34.0456 37.9731 33.4456 37.4798 33.5923 37.2065V37.2065ZM33.5923 36.6732C33.7256 36.1398 34.5923 35.2598 34.7589 35.1998C34.5189 36.3398 33.8456 36.8998 33.5923 36.6798V36.6732ZM35.0123 36.3932C34.9456 35.8732 35.3856 34.7798 35.5122 34.6598C35.7122 35.7598 35.3122 36.4998 35.0123 36.3932ZM36.4389 35.4265C36.8501 35.059 37.3479 34.8021 37.8856 34.6798C37.2922 35.4865 36.5589 35.6865 36.4389 35.4265ZM38.1589 31.8732C38.2256 31.4532 38.8056 30.6799 38.9322 30.6132C38.8522 31.5199 38.3789 32.0132 38.1589 31.8798V31.8732Z" fill="#67923D" stroke="#24420E" stroke-width="0.0133332"/>
<path id="Vector_38" d="M37.3787 34.4132C37.8815 34.1562 38.441 34.0301 39.0054 34.0465C38.2187 34.6932 37.4387 34.6998 37.3787 34.4132ZM38.0654 32.7798C38.3675 32.3617 38.7745 32.0305 39.2454 31.8199C38.8587 32.6865 38.2254 33.0065 38.0654 32.7798ZM37.9654 29.7399C37.9654 29.2332 38.4987 28.2265 38.632 28.1265C38.7054 29.1999 38.252 29.8732 37.9654 29.7399ZM37.4987 28.0065C37.3875 27.5691 37.3875 27.1107 37.4987 26.6732C37.8654 27.4065 37.7454 28.0199 37.4987 28.0065ZM37.2254 27.8665C36.8732 27.4413 36.6326 26.9349 36.5254 26.3932C37.3121 27.0132 37.4854 27.7532 37.2187 27.8665H37.2254Z" fill="#67923D" stroke="#24420E" stroke-width="0.0133332"/>
<path id="Vector_39" d="M37.9989 30.1665C37.9789 30.2265 38.1989 29.6532 38.9456 29.1465C38.6789 30.0999 38.2122 30.3665 37.9989 30.1665ZM35.7256 36.1665C36.1922 35.8198 37.4922 35.6532 37.6722 35.7132C36.7256 36.4998 35.7923 36.5132 35.7256 36.1598V36.1665ZM36.6789 34.7732C36.4322 34.7865 36.2789 34.1532 36.6456 33.3732C36.5989 34.1065 36.6189 34.7065 36.6789 34.7732ZM37.8056 29.8399C37.6256 30.0732 36.9389 29.7532 36.5256 28.8599C36.8998 29.2481 37.3315 29.5764 37.8056 29.8332V29.8399ZM37.6922 29.2999C37.4856 29.4732 36.9389 29.0599 36.7322 28.1866C37.1789 28.8132 37.5989 29.2865 37.6922 29.2999ZM38.0122 30.2999C37.9189 30.5132 37.3522 30.3865 36.8856 29.7865C37.5789 30.1799 37.8522 30.3532 38.0189 30.2999H38.0122ZM37.8389 33.3799C37.7522 33.1332 38.3256 32.8265 39.1856 33.0132C38.7206 33.0662 38.2665 33.1899 37.8389 33.3799V33.3799ZM37.8122 33.0065C37.5989 33.1065 37.2456 32.6132 37.2789 31.8132C37.3979 32.2368 37.5776 32.641 37.8122 33.0132V33.0065Z" fill="#67923D" stroke="#24420E" stroke-width="0.0133332"/>
<path id="Vector_40" d="M37.8385 32.1065C37.5585 32.2532 37.0852 31.6132 37.1385 30.5399C37.4318 31.3932 37.7385 32.0665 37.8385 32.1065ZM34.3252 37.1065C34.4585 36.8398 35.1985 37.0198 35.7919 37.8398C35.3435 37.5215 34.8488 37.2742 34.3252 37.1065V37.1065Z" fill="#67923D" stroke="#24420E" stroke-width="0.0133332"/>
</g>
<g id="Group_13">
<path id="Vector_41" d="M35.0117 36.3865C35.3184 36.4932 35.7117 35.7598 35.5184 34.6599C35.3317 35.5932 35.1051 36.3332 35.0117 36.3932V36.3865Z" fill="#406325" stroke="#24420E" stroke-width="0.0133332"/>
<path id="Vector_42" d="M35.6987 36.0398C35.951 35.4753 36.0565 34.8561 36.0053 34.2398C35.3387 35.1465 35.3787 35.9932 35.6987 36.0398ZM33.5853 37.1998C33.452 37.4732 34.032 37.9665 35.0387 37.9531C34.5184 37.7781 34.0282 37.524 33.5853 37.1998V37.1998ZM33.5987 36.6665C33.852 36.8865 34.5187 36.3332 34.7587 35.1932C34.2187 36.0198 33.712 36.6465 33.5987 36.6598V36.6665ZM36.4453 35.4198C36.5653 35.6865 37.292 35.4865 37.892 34.6798C37.4481 34.9951 36.9608 35.2444 36.4453 35.4198ZM38.1653 31.8665C38.3853 32.0065 38.852 31.5132 38.932 30.6132C38.7399 31.0666 38.4815 31.489 38.1653 31.8665V31.8665ZM37.3786 34.4132C37.4386 34.7065 38.2053 34.6932 38.9986 34.0465C38.1653 34.3132 37.4653 34.4598 37.3786 34.4132ZM38.0653 32.7732C38.232 32.9998 38.8586 32.6798 39.2453 31.8132C38.9032 32.1914 38.5052 32.5152 38.0653 32.7732ZM37.9786 29.7332C38.2653 29.8665 38.712 29.1999 38.6453 28.1332C38.3653 28.9999 38.0786 29.6865 37.9786 29.7332ZM37.512 28.0065C37.752 28.0132 37.8786 27.4065 37.512 26.6732C37.572 27.3732 37.5653 27.9465 37.512 28.0065ZM37.232 27.8599C37.4986 27.7465 37.3253 27.0132 36.5387 26.3932C36.8416 26.8448 37.0753 27.3392 37.232 27.8599V27.8599ZM38.0053 30.1732C38.2186 30.3732 38.6853 30.1065 38.952 29.1465C38.432 29.8199 38.1053 30.1599 38.0053 30.1732ZM35.7387 36.1665C35.8053 36.5132 36.732 36.4998 37.672 35.7198C36.6787 36.0398 35.8453 36.2265 35.7387 36.1665Z" fill="#406325" stroke="#24420E" stroke-width="0.0133332"/>
<path id="Vector_43" d="M36.1852 35.6532C36.377 35.2339 36.4595 34.7729 36.4252 34.3132C35.9252 34.9798 35.9452 35.6132 36.1852 35.6465V35.6532ZM37.4919 33.7398C37.6936 33.2556 37.7626 32.7263 37.6919 32.2065C37.1386 32.9998 37.2052 33.7198 37.4919 33.7398Z" fill="#406325" stroke="#24420E" stroke-width="0.0133332"/>
</g>
<path id="Vector_44" d="M35.6986 36.0332C35.3786 35.9932 35.3452 35.1465 35.9986 34.2465C35.7586 35.1665 35.6386 35.9398 35.6986 36.0332ZM38.0452 31.4799C37.9785 30.9665 38.3119 30.1399 38.4852 29.9799C38.6519 30.9399 38.3052 31.5799 38.0385 31.4799H38.0452ZM36.1786 35.6465C35.9386 35.6132 35.9186 34.9798 36.4119 34.3132C36.2673 34.7433 36.1887 35.1928 36.1786 35.6465ZM37.7385 28.6999C37.5919 28.2999 37.7385 27.3666 37.8185 27.2466C38.1719 28.0599 37.9919 28.7199 37.7385 28.6999ZM33.8652 36.7065C34.0319 36.1732 34.9452 35.3065 35.1186 35.2465C34.8319 36.4065 34.1186 36.9465 33.8652 36.7132V36.7065ZM37.4985 33.9332C37.778 33.4892 38.1687 33.1261 38.6319 32.8799C38.2985 33.7865 37.6785 34.1532 37.4985 33.9332ZM37.4919 33.7332C37.2052 33.7065 37.1385 32.9998 37.6919 32.2065C37.5444 32.7015 37.4769 33.2169 37.4919 33.7332V33.7332Z" fill="#67923D" stroke="#24420E" stroke-width="0.0133332"/>
<path id="Vector_45" d="M38.0449 31.5999C38.3916 31.7265 38.6449 30.9465 38.4849 30.0065C38.4067 30.5564 38.2589 31.094 38.0449 31.6065V31.5999Z" fill="#406325" stroke="#24420E" stroke-width="0.0133332"/>
<path id="Vector_46" d="M38.0989 31.5732C38.1322 31.0732 37.6322 30.0399 37.4989 29.9265C37.3656 30.9799 37.7989 31.6799 38.0989 31.5732ZM37.7522 28.6932C38.0055 28.7199 38.1789 28.0665 37.8255 27.2466C37.8712 27.7301 37.8442 28.2177 37.7455 28.6932H37.7522ZM33.8789 36.6998C34.1322 36.9398 34.8389 36.4065 35.1256 35.2465C34.5389 36.0665 33.9922 36.6865 33.8789 36.6998V36.6998ZM37.5189 33.9332C37.7055 34.1532 38.3189 33.7932 38.6522 32.8799C38.3292 33.2856 37.9472 33.6407 37.5189 33.9332V33.9332Z" fill="#406325" stroke="#24420E" stroke-width="0.0133332"/>
<path id="Vector_47" d="M38.0921 31.5665C37.7921 31.6799 37.3654 30.9865 37.4987 29.9332C37.7321 30.8132 37.9987 31.5132 38.0921 31.5665Z" fill="#67923D" stroke="#24420E" stroke-width="0.0133332"/>
</g>
<g id="Group_14">
<path id="Vector_48" d="M37.8849 29.0665C37.9254 29.0665 37.9582 29.0337 37.9582 28.9932C37.9582 28.9527 37.9254 28.9199 37.8849 28.9199C37.8444 28.9199 37.8115 28.9527 37.8115 28.9932C37.8115 29.0337 37.8444 29.0665 37.8849 29.0665Z" fill="#BA1F3E" stroke="#511124" stroke-width="0.0133332"/>
<path id="Vector_49" d="M38.1388 29.8599C38.1793 29.8599 38.2121 29.827 38.2121 29.7865C38.2121 29.746 38.1793 29.7132 38.1388 29.7132C38.0983 29.7132 38.0654 29.746 38.0654 29.7865C38.0654 29.827 38.0983 29.8599 38.1388 29.8599Z" fill="#BA1F3E" stroke="#511124" stroke-width="0.0133332"/>
<path id="Vector_50" d="M38.2322 32.3732C38.28 32.3732 38.3188 32.3344 38.3188 32.2865C38.3188 32.2387 38.28 32.1999 38.2322 32.1999C38.1843 32.1999 38.1455 32.2387 38.1455 32.2865C38.1455 32.3344 38.1843 32.3732 38.2322 32.3732Z" fill="#BA1F3E" stroke="#511124" stroke-width="0.0133332"/>
<path id="Vector_51" d="M37.8855 31.9065C37.9334 31.9065 37.9722 31.8677 37.9722 31.8199C37.9722 31.772 37.9334 31.7332 37.8855 31.7332C37.8376 31.7332 37.7988 31.772 37.7988 31.8199C37.7988 31.8677 37.8376 31.9065 37.8855 31.9065Z" fill="#BA1F3E" stroke="#511124" stroke-width="0.0133332"/>
<path id="Vector_52" d="M36.905 34.5665C36.9529 34.5665 36.9917 34.5277 36.9917 34.4798C36.9917 34.432 36.9529 34.3932 36.905 34.3932C36.8572 34.3932 36.8184 34.432 36.8184 34.4798C36.8184 34.5277 36.8572 34.5665 36.905 34.5665Z" fill="#BA1F3E" stroke="#511124" stroke-width="0.0133332"/>
<path id="Vector_53" d="M37.3249 34.7465C37.3728 34.7465 37.4116 34.7077 37.4116 34.6598C37.4116 34.612 37.3728 34.5732 37.3249 34.5732C37.2771 34.5732 37.2383 34.612 37.2383 34.6598C37.2383 34.7077 37.2771 34.7465 37.3249 34.7465Z" fill="#BA1F3E" stroke="#511124" stroke-width="0.0133332"/>
<path id="Vector_54" d="M34.4988 36.9065C34.5466 36.9065 34.5854 36.8677 34.5854 36.8198C34.5854 36.772 34.5466 36.7332 34.4988 36.7332C34.4509 36.7332 34.4121 36.772 34.4121 36.8198C34.4121 36.8677 34.4509 36.9065 34.4988 36.9065Z" fill="#BA1F3E" stroke="#511124" stroke-width="0.0133332"/>
<path id="Vector_55" d="M34.032 37.2398C34.0798 37.2398 34.1186 37.201 34.1186 37.1532C34.1186 37.1053 34.0798 37.0665 34.032 37.0665C33.9841 37.0665 33.9453 37.1053 33.9453 37.1532C33.9453 37.201 33.9841 37.2398 34.032 37.2398Z" fill="#BA1F3E" stroke="#511124" stroke-width="0.0133332"/>
<path id="Vector_56" d="M37.379 28.6932C37.4195 28.6932 37.4523 28.6604 37.4523 28.6199C37.4523 28.5794 37.4195 28.5465 37.379 28.5465C37.3385 28.5465 37.3057 28.5794 37.3057 28.6199C37.3057 28.6604 37.3385 28.6932 37.379 28.6932Z" fill="#BA1F3E" stroke="#511124" stroke-width="0.0133332"/>
</g>
</g>
<g id="b">
<path id="Vector_57" d="M29.1999 34.4198C29.1866 34.4865 29.2533 34.5732 29.3333 34.5532C29.3666 34.5532 29.3799 34.5198 29.3466 34.5198C29.3199 34.5265 29.2866 34.5198 29.2666 34.4998C29.2483 34.4835 29.2359 34.4617 29.2311 34.4376C29.2263 34.4136 29.2294 34.3886 29.2399 34.3665L29.1999 34.4198Z" fill="#8C959D" stroke="#485654" stroke-width="0.00666662"/>
<path id="Vector_58" d="M29.3931 34.5532C29.3264 34.6332 29.2264 34.6665 29.1664 34.6132C29.1264 34.5732 29.1131 34.5332 29.1331 34.4798L29.0664 34.5665C29.0901 34.6156 29.127 34.6572 29.1731 34.6865C29.2531 34.7198 29.3731 34.6665 29.4397 34.5798C29.4931 34.5132 29.5464 34.4198 29.5064 34.3398C29.476 34.2881 29.429 34.2482 29.3731 34.2265L29.3064 34.2932C29.3397 34.2798 29.3864 34.2932 29.4197 34.3198C29.5064 34.3865 29.4531 34.4865 29.3931 34.5532V34.5532Z" fill="#8C959D"/>
<path id="Vector_59" d="M29.3929 34.5532C29.3728 34.5798 29.348 34.6024 29.3196 34.6198C29.2862 34.6332 29.2529 34.6465 29.2196 34.6398C29.2026 34.6373 29.1865 34.6304 29.1729 34.6198C29.1597 34.6084 29.1484 34.5949 29.1396 34.5798C29.1292 34.5661 29.1224 34.5501 29.1196 34.5332C29.1196 34.5132 29.1196 34.4998 29.1329 34.4798L29.1396 34.4865L29.0662 34.5665C29.0862 34.5932 29.1062 34.6265 29.1329 34.6465L29.1796 34.6798C29.1967 34.6857 29.2149 34.6879 29.2329 34.6865C29.2709 34.6858 29.3079 34.6742 29.3396 34.6532C29.3719 34.6358 29.4011 34.6133 29.4262 34.5865L29.4929 34.4932C29.5062 34.4598 29.5129 34.4265 29.5129 34.3865C29.5126 34.3679 29.5081 34.3497 29.4996 34.3332C29.4902 34.3185 29.479 34.305 29.4662 34.2932C29.4401 34.2648 29.4083 34.2421 29.3729 34.2265H29.3796L29.3129 34.2998H29.3062C29.3196 34.2865 29.3396 34.2865 29.3596 34.2865C29.3843 34.2905 29.4075 34.3013 29.4263 34.3178C29.4452 34.3343 29.459 34.3558 29.4662 34.3798C29.4729 34.4132 29.4662 34.4465 29.4529 34.4732C29.437 34.5027 29.4167 34.5296 29.3929 34.5532V34.5532ZM29.3929 34.5532C29.4196 34.5332 29.4329 34.5065 29.4462 34.4732C29.4596 34.4465 29.4662 34.4065 29.4596 34.3798C29.4479 34.3514 29.4267 34.3278 29.3996 34.3132C29.3729 34.2932 29.3329 34.2865 29.3129 34.2998H29.3062L29.3729 34.2198C29.4274 34.2407 29.474 34.2779 29.5062 34.3265C29.5196 34.3465 29.5262 34.3665 29.5262 34.3932C29.5262 34.4265 29.5196 34.4598 29.4996 34.4998C29.4816 34.5338 29.4592 34.5652 29.4329 34.5932C29.4129 34.6265 29.3796 34.6465 29.3462 34.6665C29.3129 34.6865 29.2796 34.6998 29.2329 34.6998C29.2149 34.7009 29.1968 34.6987 29.1796 34.6932C29.16 34.6853 29.1419 34.674 29.1262 34.6598C29.0988 34.6328 29.0762 34.6012 29.0596 34.5665L29.1262 34.4798H29.1396L29.1329 34.5332C29.1329 34.5465 29.1329 34.5665 29.1462 34.5798L29.1796 34.6132L29.2196 34.6332C29.2529 34.6398 29.2862 34.6332 29.3196 34.6132C29.3474 34.5977 29.3722 34.5774 29.3929 34.5532V34.5532Z" fill="#485654"/>
<path id="Vector_60" d="M34.5929 28.6199L31.9195 31.2532L29.1796 33.8665L28.8729 34.2265C28.7396 34.3799 28.5796 34.5798 28.3929 34.7598C28.3662 34.7998 28.3196 34.7865 28.2796 34.8132C28.1555 34.8925 28.0433 34.989 27.9462 35.0998L27.1262 35.9998C27.0796 36.0598 27.0596 36.0932 27.0996 36.1332L27.5396 36.7198C27.6196 36.7998 27.7129 36.8398 27.7529 36.7732C27.9596 36.4065 28.4862 35.8532 28.6862 35.4198C28.7996 35.1532 28.9462 34.6798 29.0529 34.5665C29.1862 34.4199 29.5262 34.0465 29.8396 33.7199L29.9062 33.6532L29.9662 33.5865C31.5329 31.9865 33.3462 30.0465 34.6662 28.6799L34.5995 28.6132L34.5929 28.6199Z" fill="#6C301E" stroke="#351710" stroke-width="0.0133332" stroke-linejoin="round"/>
<path id="Vector_61" d="M29.04 33.8732C28.96 33.8732 28.9067 33.8265 28.8467 33.7798C28.9267 33.8065 29.0067 33.8332 29.08 33.8065L29.04 33.8732Z" fill="#8C959D" stroke="#485654" stroke-width="0.00666662"/>
<path id="Vector_62" d="M37.3799 26.6732L35.2599 28.4199C35.2399 28.4465 35.2199 28.4399 35.1999 28.4199L35.0066 28.2599V28.2199L35.0999 28.1265C35.1133 28.1132 35.0999 28.1065 35.0933 28.0865L35.0533 28.0465C35.0333 28.0399 35.0199 28.0465 35.0066 28.0599L34.9133 28.1599C34.8666 28.1599 34.8266 28.1999 34.8199 28.2532C33.5399 29.4999 32.4333 30.6132 31.16 31.8399L29.6533 33.2798C29.6 33.3465 29.3666 33.4732 29.2133 33.5732C29.1667 33.5977 29.1258 33.6318 29.0933 33.6732L28.9733 34.0398L28.8066 34.3198C28.96 34.4798 28.9533 34.4665 29.06 34.5665L29.8066 33.7732L29.86 33.7065C29.8318 33.6685 29.8006 33.6328 29.7666 33.5998C29.7405 33.577 29.7138 33.5548 29.6866 33.5332L29.6466 33.4932C29.6333 33.4798 29.66 33.4598 29.6733 33.4465C31.44 31.7465 33.3399 29.8665 34.8933 28.3399C34.9147 28.3481 34.9385 28.3481 34.9599 28.3399L35.1466 28.5532C35.1866 28.5932 35.2266 28.5932 35.2599 28.5799L37.3866 26.6732H37.3799Z" fill="#B2B6BA" stroke="#485654" stroke-width="0.0133332"/>
<path id="Vector_63" d="M28.9793 34.0265H29.0127C29.0263 34.0271 29.0399 34.0248 29.0527 34.0199C29.0838 33.9125 29.1172 33.8058 29.1527 33.6999C29.1398 33.6869 29.1237 33.6777 29.106 33.6732C29.126 33.6732 29.1393 33.6865 29.1527 33.6999L29.106 33.8599L29.0593 34.0199C29.0472 34.0273 29.0335 34.0318 29.0193 34.0332C29.0036 34.0329 28.9879 34.0306 28.9727 34.0265H28.9793Z" fill="#485654"/>
<path id="Vector_64" d="M29.4599 33.9132C29.482 33.9132 29.4999 33.8953 29.4999 33.8732C29.4999 33.8511 29.482 33.8332 29.4599 33.8332C29.4378 33.8332 29.4199 33.8511 29.4199 33.8732C29.4199 33.8953 29.4378 33.9132 29.4599 33.9132Z" stroke="#485654" stroke-width="0.0133332"/>
<path id="Vector_65" d="M29.206 34.1665C29.2281 34.1665 29.246 34.1486 29.246 34.1265C29.246 34.1044 29.2281 34.0865 29.206 34.0865C29.1839 34.0865 29.166 34.1044 29.166 34.1265C29.166 34.1486 29.1839 34.1665 29.206 34.1665Z" stroke="#485654" stroke-width="0.0133332"/>
<path id="Vector_66" d="M29.6464 33.4932L29.5797 33.4398C29.5611 33.4229 29.5433 33.4051 29.5264 33.3865C29.57 33.4177 29.6102 33.4535 29.6464 33.4932Z" fill="#485654"/>
<path id="Vector_67" d="M33.7266 29.2665L33.9599 29.4999L33.9999 29.4599L33.7666 29.2332L33.7266 29.2732V29.2665Z" fill="#8C959D" stroke="#485654" stroke-width="0.00666662"/>
</g>
<g id="Group_15">
<path id="Vector_68" d="M32.5446 -5.32211L32.3229 -5.56656L32.281 -5.52856L32.503 -5.29077L32.5449 -5.32877L32.5446 -5.32211Z" fill="#8C959D" stroke="#485654" stroke-width="0.00666662"/>
</g>
<g id="Group_16">
<path id="Vector_69" d="M29.1789 36.3598C28.5341 36.2057 27.8598 36.2264 27.2256 36.4198C28.3122 36.9532 29.1922 36.7265 29.1722 36.3532L29.1789 36.3598ZM35.1122 36.5798C35.7552 36.4261 36.4279 36.4492 37.0589 36.6465C35.9722 37.1732 35.0855 36.9465 35.1055 36.5798H35.1122Z" fill="#67923D" stroke="#24420E" stroke-width="0.0133332"/>
<path id="Vector_70" d="M29.1656 36.3665C29.1856 36.7332 28.3122 36.9598 27.2256 36.4265C28.2456 36.4932 29.0789 36.4532 29.1589 36.3598L29.1656 36.3665ZM35.1189 36.5865C35.0989 36.9532 35.9722 37.1798 37.0522 36.6465C36.0389 36.7132 35.2055 36.6732 35.1189 36.5798V36.5865Z" fill="#406325" stroke="#24420E" stroke-width="0.0133332"/>
</g>
<g id="c">
<path id="Vector_71" d="M34.1456 35.9998C32.8029 34.139 31.0719 32.5922 29.0723 31.4665C29.3123 31.4532 29.8389 31.7265 30.0523 31.8665C31.6456 32.8932 33.0056 34.2465 34.4256 35.8532C34.3544 35.9247 34.2787 35.9915 34.1989 36.0532L34.1456 35.9998V35.9998Z" fill="#B2B6BA" stroke="#485654" stroke-width="0.0133332"/>
<path id="Vector_72" d="M34.2854 35.9865L34.1787 36.0665C32.6454 34.0932 30.5054 32.2065 29.0654 31.4598C31.0721 32.3865 32.7587 34.2465 34.2654 35.9731H34.2787L34.2854 35.9865Z" fill="#8C959D"/>
<path id="Vector_73" d="M34.2854 35.9865L34.1787 36.0665C33.8222 35.6128 33.4463 35.1746 33.0521 34.7532C32.6612 34.331 32.2543 33.924 31.8321 33.5332C31.4094 33.1399 30.9689 32.7662 30.5121 32.4132C30.2822 32.2365 30.0465 32.0675 29.8054 31.9065C29.5654 31.7532 29.3188 31.5999 29.0654 31.4665V31.4532C29.5927 31.6999 30.095 31.9968 30.5654 32.3398C31.0322 32.681 31.4775 33.0506 31.8987 33.4465C32.3201 33.8428 32.7271 34.2542 33.1187 34.6798C33.5187 35.1065 33.8921 35.5465 34.2787 35.9732L34.2854 35.9865ZM34.2854 35.9865C33.9028 35.5498 33.5139 35.1186 33.1187 34.6932C32.7271 34.2675 32.3201 33.8561 31.8987 33.4598C31.4774 33.064 31.0321 32.6944 30.5654 32.3532C30.0972 32.0124 29.5971 31.7177 29.0721 31.4732V31.4599C29.5744 31.7461 30.0576 32.0645 30.5188 32.4132C30.9778 32.7661 31.4205 33.1398 31.8454 33.5332C32.2676 33.924 32.6746 34.331 33.0654 34.7532C33.4575 35.1769 33.8311 35.6173 34.1854 36.0732L34.2854 35.9798V35.9865Z" fill="#485654"/>
<g id="Group_17">
<path id="Vector_74" d="M34.7449 35.6665C34.6198 35.6986 34.5005 35.7503 34.3916 35.8198C34.3783 35.9132 34.2583 36.0198 34.1516 36.0398L34.1183 35.9865C34.1183 35.9847 34.1176 35.983 34.1163 35.9818C34.1151 35.9805 34.1134 35.9798 34.1116 35.9798C34.1098 35.9798 34.1081 35.9805 34.1069 35.9818C34.1056 35.983 34.1049 35.9847 34.1049 35.9865C34.0913 35.9925 34.0779 35.9992 34.0649 36.0065C34.0249 36.0065 33.9783 36.0198 33.9583 36.0732C33.9316 36.1398 33.9849 36.2265 34.0383 36.2798C34.1049 36.3265 34.1316 36.3465 34.1983 36.3465C34.2716 36.3265 34.3116 36.2598 34.3316 36.2398C34.5783 36.5398 34.7649 36.7065 35.0783 36.9465C35.2183 36.9465 35.2916 36.8598 35.2449 36.7598C35.2316 36.7265 35.1916 36.7065 35.1583 36.7198V36.6865C35.3183 36.5398 35.3916 36.3532 35.2183 36.0265C35.0716 35.7598 34.9049 35.6732 34.7516 35.6732L34.7449 35.6665ZM35.1649 35.9732L35.2316 36.1065C35.3316 36.3065 35.2449 36.5465 35.0716 36.6265H35.0583C35.0849 36.5798 35.0049 36.4798 34.9649 36.5132C34.9849 36.4665 34.9183 36.3798 34.8649 36.3998C34.8916 36.3532 34.8316 36.2732 34.7716 36.2998C34.7983 36.2532 34.7516 36.1798 34.6849 36.1932C34.7049 36.1332 34.6583 36.0732 34.5983 36.0865C34.5983 36.0332 34.5849 36.0065 34.5649 35.9865C34.6316 35.9332 34.7183 35.8465 34.7916 35.8065C34.9716 35.7265 35.0849 35.8732 35.1583 35.9732H35.1649Z" fill="#FAB81C" stroke="#6C301E" stroke-width="0.0133332"/>
<path id="Vector_75" d="M35.2385 36.1865C35.2052 36.1665 35.1852 36.1332 35.1985 36.1132C35.2118 36.0865 35.2452 36.0798 35.2785 36.0998C35.3118 36.1132 35.3318 36.1465 35.3185 36.1665C35.3118 36.1932 35.2718 36.1998 35.2385 36.1865Z" fill="#FAB81C" stroke="#6C301E" stroke-width="0.00666662"/>
<path id="Vector_76" d="M35.218 36.1198C35.1847 36.0998 35.1647 36.0665 35.178 36.0398C35.1913 36.0198 35.2247 36.0132 35.258 36.0332C35.2913 36.0465 35.3113 36.0798 35.298 36.0998C35.2913 36.1265 35.2513 36.1332 35.218 36.1198Z" fill="#FAB81C" stroke="#6C301E" stroke-width="0.00666662"/>
<path id="Vector_77" d="M35.178 36.0398C35.1446 36.0265 35.1246 35.9932 35.138 35.9732C35.1513 35.9465 35.1846 35.9398 35.218 35.9532C35.2513 35.9732 35.2713 36.0065 35.258 36.0265C35.2513 36.0532 35.2113 36.0598 35.178 36.0398Z" fill="#FAB81C" stroke="#6C301E" stroke-width="0.00666662"/>
<path id="Vector_78" d="M35.1252 35.9732C35.0919 35.9532 35.0719 35.9198 35.0852 35.8998C35.0986 35.8798 35.1319 35.8732 35.1652 35.8865C35.1986 35.9065 35.2186 35.9398 35.2119 35.9598C35.1986 35.9798 35.1586 35.9932 35.1252 35.9732V35.9732Z" fill="#FAB81C" stroke="#6C301E" stroke-width="0.00666662"/>
<path id="Vector_79" d="M35.0587 35.9065C35.0187 35.8932 35.0053 35.8532 35.0187 35.8398V35.8265C35.032 35.8332 35.0653 35.8398 35.0587 35.8198C35.0587 35.8065 35.052 35.7998 35.0587 35.8065L35.0987 35.8198C35.132 35.8398 35.152 35.8732 35.1387 35.8932C35.1253 35.9198 35.092 35.9265 35.0587 35.9065Z" fill="#FAB81C" stroke="#6C301E" stroke-width="0.00666662"/>
</g>
<path id="Vector_80" d="M34.332 36.2398C34.372 36.1198 34.4654 36.0131 34.5654 35.9865L34.332 36.2398ZM34.3454 36.2531C34.432 36.2731 34.5654 36.1731 34.5987 36.0865L34.3454 36.2531ZM34.4254 36.3531C34.532 36.3798 34.6454 36.2731 34.692 36.1931L34.4254 36.3531ZM34.5254 36.4598C34.6587 36.4598 34.732 36.3731 34.772 36.2998L34.5254 36.4598ZM34.6254 36.5665C34.732 36.5665 34.8387 36.4731 34.8654 36.3998L34.6254 36.5665ZM34.7187 36.6531C34.7681 36.656 34.8174 36.6451 34.861 36.6215C34.9045 36.598 34.9407 36.5627 34.9654 36.5198L34.7187 36.6531ZM34.832 36.7465C34.9387 36.7531 35.032 36.6865 35.0587 36.6265L34.832 36.7465ZM34.952 36.8465C35.0587 36.8465 35.132 36.7798 35.1587 36.7131Z" fill="#FAB81C"/>
<path id="Vector_81" d="M34.332 36.2398C34.3511 36.1837 34.3805 36.1317 34.4187 36.0865L34.4854 36.0198L34.5654 35.9865C34.5366 35.9952 34.5096 36.0087 34.4854 36.0265L34.4187 36.0931C34.3832 36.1378 34.354 36.1872 34.332 36.2398V36.2398ZM34.3454 36.2598C34.372 36.2598 34.3987 36.2598 34.4254 36.2465C34.4491 36.2358 34.4715 36.2224 34.492 36.2065L34.5587 36.1531L34.5987 36.0865C34.5923 36.1122 34.5784 36.1354 34.5587 36.1531C34.5393 36.1761 34.5169 36.1962 34.492 36.2131C34.4712 36.2269 34.4489 36.2381 34.4254 36.2465C34.4006 36.2587 34.3728 36.2634 34.3454 36.2598V36.2598ZM34.4254 36.3531H34.5054L34.572 36.3131C34.6175 36.2812 34.656 36.2404 34.6854 36.1931C34.6728 36.2173 34.6571 36.2397 34.6387 36.2598C34.6212 36.2822 34.6011 36.3023 34.5787 36.3198C34.5583 36.3342 34.5358 36.3455 34.512 36.3531H34.4254V36.3531ZM34.5254 36.4598C34.5503 36.4587 34.575 36.4542 34.5987 36.4465C34.6224 36.4387 34.6449 36.4275 34.6654 36.4131C34.6899 36.3985 34.7123 36.3805 34.732 36.3598L34.772 36.2931C34.7509 36.3437 34.7163 36.3875 34.672 36.4198C34.6292 36.4496 34.5774 36.4638 34.5254 36.4598ZM34.6254 36.5598C34.6761 36.5554 34.7246 36.5369 34.7654 36.5065C34.806 36.4786 34.8402 36.4422 34.8654 36.3998C34.8587 36.4198 34.8454 36.4465 34.8254 36.4665L34.772 36.5131C34.7514 36.5272 34.729 36.5384 34.7054 36.5465C34.6787 36.5598 34.652 36.5598 34.6254 36.5598V36.5598ZM34.7254 36.6531C34.7479 36.6503 34.7702 36.6459 34.792 36.6398C34.8152 36.6336 34.8376 36.6246 34.8587 36.6131C34.9038 36.5917 34.9411 36.5568 34.9654 36.5131L34.9254 36.5798C34.9054 36.5931 34.8854 36.6131 34.8587 36.6198C34.8174 36.6411 34.7718 36.6525 34.7254 36.6531V36.6531ZM34.832 36.7465H34.8987C34.9224 36.7385 34.9448 36.7273 34.9654 36.7131L35.0187 36.6798C35.0387 36.6598 35.052 36.6465 35.0587 36.6265C35.0511 36.6462 35.0398 36.6643 35.0254 36.6798C35.0075 36.6961 34.9873 36.7096 34.9654 36.7198C34.9243 36.741 34.8781 36.7503 34.832 36.7465V36.7465ZM34.952 36.8465C34.9744 36.8471 34.9968 36.8448 35.0187 36.8398C35.06 36.8284 35.0971 36.8053 35.1254 36.7731C35.1385 36.7567 35.1497 36.7388 35.1587 36.7198C35.1437 36.761 35.1156 36.7961 35.0787 36.8198C35.0578 36.8303 35.0352 36.8371 35.012 36.8398C34.99 36.8435 34.9674 36.8435 34.9454 36.8398L34.952 36.8465Z" fill="#6C301E"/>
</g>
<g id="Group_18">
<path id="Vector_82" d="M27.5258 27.9999C28.0541 27.7199 28.5017 27.3091 28.8257 26.8066C27.7858 27.0866 27.3124 27.7666 27.5258 28.0066V27.9999ZM37.2457 28.3132C37.0184 27.7892 36.6603 27.3324 36.2057 26.9866C36.3924 27.9999 37.0057 28.5066 37.2457 28.3199V28.3132Z" fill="#406325" stroke="#24420E" stroke-width="0.0133332"/>
<path id="Vector_83" d="M27.5255 27.9999C27.3055 27.7666 27.7789 27.0932 28.8189 26.8132C28.0855 27.3732 27.5389 27.8932 27.5255 27.9999ZM37.2455 28.3132C36.9988 28.5132 36.3988 28.0066 36.2121 26.9999C36.6921 27.7332 37.1455 28.2999 37.2455 28.3132Z" fill="#67923D" stroke="#24420E" stroke-width="0.0133332"/>
</g>
<g id="Group_19">
<path id="Vector_84" d="M30.3928 33.2065C30.3928 33.2065 29.9795 33.2532 29.8662 32.6865C29.7462 32.0799 30.2195 32.0199 30.2195 32.0199C30.2195 32.0199 30.7595 31.9599 31.0995 31.9532L31.2462 33.1532L30.3928 33.2065Z" fill="url(#paint0_radial_2909_185399)" stroke="#999270" stroke-width="0.0133332"/>
<path id="Vector_85" d="M30.4457 33.0265C30.4457 33.0265 30.1791 33.0732 30.1257 32.6532C30.0857 32.3532 30.2724 32.3132 30.2724 32.3132L30.8857 32.4199V32.9665L30.4457 33.0265V33.0265Z" fill="url(#paint1_radial_2909_185399)" stroke="#999270" stroke-width="0.0133332"/>
<path id="Vector_86" d="M30.2725 32.3132C30.2725 32.3132 30.6658 32.2866 30.8725 32.2599L30.9591 32.6399L30.4858 32.6666C30.4858 32.6666 30.4525 32.3266 30.2725 32.3132V32.3132Z" fill="url(#paint2_radial_2909_185399)" stroke="#999270" stroke-width="0.0133332"/>
<path id="Vector_87" d="M30.1924 32.0265C30.1924 32.0265 30.6924 31.8999 30.759 32.4599C30.7724 32.5999 30.6924 32.9332 30.4457 33.0265L31.3724 32.9265L31.2857 31.9265L30.979 31.9532C30.979 31.9532 30.3124 31.9732 30.1924 32.0199V32.0265Z" fill="url(#paint3_radial_2909_185399)" stroke="#999270" stroke-width="0.0133332"/>
<path id="Vector_88" d="M30.3924 33.2065C30.3924 33.2065 33.8524 32.9732 34.2057 32.9865C35.259 32.4132 34.2057 30.1532 33.319 28.8866C33.419 28.5999 31.3257 27.9599 30.3857 28.0199C30.2591 28.0199 30.1457 28.0332 30.0391 28.0399C29.5257 28.0932 29.5191 28.7532 29.7257 29.1732C29.9257 29.5732 31.7457 32.8399 30.4724 33.1932L30.3924 33.2065Z" fill="#F9F0AA" stroke="#999270" stroke-width="0.0133332"/>
<g id="Vector_89">
<path d="M34.099 30.2199C33.8742 29.7558 33.6134 29.31 33.319 28.8866C33.419 28.5999 31.3257 27.9599 30.3857 28.0199C30.2591 28.0199 30.1457 28.0332 30.0391 28.0399C29.5257 28.0932 29.5191 28.7532 29.7257 29.1732C29.7924 29.2932 30.0124 29.7066 30.2524 30.2199" fill="url(#paint4_linear_2909_185399)"/>
<path d="M34.099 30.2199C33.8742 29.7558 33.6134 29.31 33.319 28.8866C33.419 28.5999 31.3257 27.9599 30.3857 28.0199C30.2591 28.0199 30.1457 28.0332 30.0391 28.0399C29.5257 28.0932 29.5191 28.7532 29.7257 29.1732C29.7924 29.2932 30.0124 29.7066 30.2524 30.2199" stroke="#999270" stroke-width="0.0133332"/>
</g>
<g id="Vector_90">
<path d="M30.5792 30.9999C30.9526 31.9732 31.1592 32.9999 30.4726 33.1865L30.3926 33.2065C30.3926 33.2065 33.8592 32.9732 34.2059 32.9865C34.7792 32.6732 34.7259 31.8665 34.4192 30.9865" fill="url(#paint5_linear_2909_185399)"/>
<path d="M30.5792 30.9999C30.9526 31.9732 31.1592 32.9999 30.4726 33.1865L30.3926 33.2065C30.3926 33.2065 33.8592 32.9732 34.2059 32.9865C34.7792 32.6732 34.7259 31.8665 34.4192 30.9865" stroke="#999270" stroke-width="0.0133332"/>
</g>
<path id="Vector_91" d="M30.0727 28.2332C29.8261 28.2332 29.7594 28.4732 29.7661 28.6199C29.7727 29.0199 30.0727 29.0332 30.0727 29.0332L30.4727 29.0132L30.6594 28.1999L30.0727 28.2332Z" fill="url(#paint6_radial_2909_185399)" stroke="#999270" stroke-width="0.0133332"/>
<path id="Vector_92" d="M30.0723 28.2332L30.6589 28.1999L30.7256 28.8066L30.2056 28.8332C30.2056 28.8332 30.3723 28.3466 30.0723 28.2332Z" fill="url(#paint7_linear_2909_185399)" stroke="#999270" stroke-width="0.0133332"/>
<path id="Vector_93" d="M33.3189 28.8866C33.7656 28.8199 33.7589 28.2199 33.4522 27.9732C32.4189 27.9399 31.0589 27.9666 30.0789 28.0399C30.1923 28.0399 30.4989 28.0666 30.5389 28.4732C30.5458 28.5614 30.5312 28.6499 30.4964 28.7312C30.4616 28.8125 30.4075 28.8841 30.3389 28.9399C30.2056 29.0332 30.0723 29.0332 30.0723 29.0332H30.3123L30.5123 29.0066C31.9123 28.8266 33.3122 28.8866 33.3122 28.8866H33.3189Z" fill="url(#paint8_linear_2909_185399)" stroke="#999270" stroke-width="0.0133332"/>
<path id="Vector_94" d="M30.8123 29.8265C30.799 29.8065 30.7923 29.7799 30.759 29.7732C30.7457 29.7732 30.719 29.7732 30.7257 29.7465H30.779L30.8857 29.7332C30.9123 29.7399 30.9057 29.7732 30.8857 29.7665C30.8523 29.7665 30.8723 29.7999 30.879 29.8199L30.9657 30.0199C30.9723 30.0465 30.9923 30.0665 31.0123 30.0665L31.0857 30.0599C31.1057 30.0465 31.099 30.0199 31.099 29.9932C31.0923 29.9732 31.1323 29.9799 31.1323 29.9932L31.159 30.0865C31.159 30.0999 31.1457 30.0932 31.1323 30.0932L30.9323 30.1065C30.9123 30.1065 30.879 30.1265 30.8657 30.1065C30.8657 30.0799 30.9057 30.0932 30.9057 30.0732L30.8857 30.0065L30.8123 29.8265ZM31.1323 29.8065C31.1257 29.7865 31.1123 29.7599 31.0857 29.7532C31.0723 29.7532 31.0457 29.7532 31.0457 29.7265H31.0923L31.2057 29.7132C31.2257 29.7132 31.2323 29.7465 31.2057 29.7399C31.1857 29.7399 31.1857 29.7665 31.1923 29.7865L31.2923 30.0132C31.2923 30.0265 31.3057 30.0465 31.3257 30.0532C31.3457 30.0532 31.3723 30.0532 31.3723 30.0732C31.3723 30.0865 31.3457 30.0799 31.3323 30.0799C31.2964 30.0799 31.2605 30.0844 31.2257 30.0932C31.2123 30.0932 31.1923 30.0932 31.1923 30.0732C31.1923 30.0532 31.2257 30.0732 31.2323 30.0465C31.2323 30.0265 31.219 30.0065 31.2057 29.9799L31.1323 29.8065V29.8065ZM31.4323 29.8532C31.4323 29.8665 31.459 29.8532 31.4657 29.8532C31.4857 29.8532 31.5057 29.8465 31.5057 29.8265C31.5039 29.8107 31.4989 29.7953 31.4909 29.7816C31.4828 29.7678 31.472 29.7558 31.459 29.7465C31.439 29.7266 31.4057 29.7332 31.3857 29.7332L31.3923 29.7665L31.4323 29.8532V29.8532ZM31.4723 29.9599C31.4857 29.9799 31.4923 30.0065 31.5123 30.0265C31.5257 30.0399 31.5523 30.0332 31.5657 30.0265C31.5857 30.0265 31.599 30.0065 31.5923 29.9932C31.5857 29.9465 31.559 29.9065 31.5123 29.8932C31.4903 29.8885 31.4676 29.8885 31.4457 29.8932L31.459 29.9265L31.4723 29.9599ZM31.339 29.7999C31.3257 29.7799 31.319 29.7532 31.2923 29.7332C31.279 29.7332 31.2523 29.7399 31.2457 29.7199C31.2457 29.6999 31.2857 29.7132 31.299 29.7065C31.359 29.7065 31.4123 29.6865 31.4723 29.7065C31.519 29.7199 31.5657 29.7599 31.5723 29.8132C31.5723 29.8399 31.5523 29.8599 31.5323 29.8665L31.5657 29.8732C31.6057 29.8865 31.639 29.9132 31.659 29.9465C31.6723 29.9732 31.679 30.0132 31.659 30.0399C31.6323 30.0665 31.5923 30.0665 31.5657 30.0665C31.5123 30.0665 31.4657 30.0665 31.4123 30.0799C31.399 30.0799 31.3857 30.0465 31.4123 30.0465C31.4323 30.0465 31.4323 30.0199 31.4257 30.0065L31.339 29.8065V29.7999ZM31.8323 29.6732C31.8523 29.6732 31.859 29.6932 31.8657 29.7065L31.8857 29.7665C31.8657 29.7799 31.8523 29.7532 31.8457 29.7399C31.839 29.7265 31.819 29.7066 31.799 29.7132C31.7724 29.7113 31.7456 29.7113 31.719 29.7132C31.7057 29.7266 31.719 29.7399 31.7257 29.7532L31.7657 29.8399C31.779 29.8399 31.8057 29.8399 31.819 29.8265C31.819 29.8132 31.799 29.7799 31.8323 29.7865C31.8523 29.7999 31.8457 29.8265 31.859 29.8465L31.8923 29.9199C31.8723 29.9399 31.859 29.9132 31.8523 29.8932C31.839 29.8732 31.8057 29.8732 31.7857 29.8732C31.7723 29.8732 31.7857 29.8865 31.7857 29.8932L31.8257 29.9932C31.839 30.0132 31.8723 30.0132 31.8923 30.0132C31.919 30.0132 31.9457 30.0132 31.959 29.9865C31.9723 29.9732 31.939 29.9399 31.959 29.9332C31.9857 29.9332 31.9857 29.9599 31.9923 29.9732C31.9923 29.9932 32.0057 30.0132 32.0123 30.0265C32.0123 30.0399 31.9923 30.0399 31.9857 30.0399L31.7857 30.0532C31.759 30.0532 31.7257 30.0665 31.719 30.0399C31.719 30.0199 31.759 30.0332 31.759 29.9999L31.7323 29.9332L31.659 29.7599C31.6457 29.7399 31.6323 29.7199 31.6057 29.7132C31.5923 29.7132 31.5657 29.7132 31.579 29.6865H31.6457L31.8323 29.6732V29.6732ZM31.9857 29.7599C31.979 29.7399 31.9657 29.7132 31.939 29.6999C31.9257 29.6999 31.8923 29.6999 31.8923 29.6732C31.9123 29.6599 31.939 29.6732 31.959 29.6732C32.0123 29.6732 32.0657 29.6532 32.119 29.6732C32.1723 29.6865 32.219 29.7332 32.2257 29.7932C32.2257 29.8199 32.2057 29.8399 32.179 29.8465C32.159 29.8465 32.1923 29.8532 32.199 29.8599C32.2457 29.8799 32.2657 29.9199 32.2923 29.9599C32.299 29.9732 32.3257 30.0065 32.3323 29.9732C32.3323 29.9399 32.379 29.9732 32.3656 29.9932C32.3656 30.0199 32.3457 30.0332 32.319 30.0332C32.2923 30.0332 32.259 30.0199 32.2457 29.9932C32.219 29.9532 32.199 29.9065 32.159 29.8799C32.1457 29.8665 32.1257 29.8599 32.1057 29.8732V29.8999L32.1457 29.9799C32.159 29.9999 32.1857 29.9999 32.2123 29.9999C32.2323 30.0065 32.2257 30.0399 32.199 30.0332H32.0857C32.0657 30.0465 32.0257 30.0332 32.039 30.0132C32.059 30.0132 32.0857 29.9999 32.0723 29.9799L32.0057 29.8065L31.9857 29.7599V29.7599ZM32.079 29.8265C32.0923 29.8465 32.119 29.8265 32.139 29.8265C32.159 29.8265 32.159 29.7932 32.1523 29.7799C32.1457 29.7465 32.1257 29.7132 32.0923 29.6999C32.079 29.6999 32.039 29.6865 32.0323 29.7065L32.079 29.8132V29.8199V29.8265ZM32.559 29.9332C32.5723 29.9532 32.579 29.9732 32.599 29.9799C32.6123 29.9799 32.639 29.9799 32.6456 29.9999C32.6456 30.0199 32.619 30.0065 32.6056 30.0132C32.5702 30.0091 32.5344 30.0091 32.499 30.0132C32.479 30.0199 32.459 30.0132 32.459 29.9932C32.4723 29.9799 32.5056 29.9932 32.5056 29.9665L32.4723 29.8932L32.399 29.6999C32.3923 29.6799 32.3657 29.6799 32.3523 29.6799C32.3323 29.6799 32.3057 29.6799 32.3057 29.7065C32.3057 29.7265 32.319 29.7532 32.3057 29.7599C32.2857 29.7599 32.279 29.7399 32.2723 29.7265L32.2523 29.6599C32.2523 29.6465 32.2723 29.6532 32.279 29.6532L32.559 29.6399C32.579 29.6399 32.5923 29.6532 32.5923 29.6732C32.5923 29.6932 32.6123 29.7132 32.619 29.7399C32.6123 29.7599 32.5856 29.7399 32.5856 29.7199C32.5723 29.6999 32.5457 29.6799 32.519 29.6732C32.5057 29.6732 32.479 29.6732 32.4656 29.6865L32.479 29.7332L32.559 29.9332V29.9332ZM32.8123 29.8732C32.799 29.8732 32.8056 29.8932 32.8056 29.8999V29.9532C32.8123 29.9732 32.839 29.9732 32.859 29.9799C32.8723 29.9799 32.8656 30.0132 32.8456 30.0065H32.7656C32.7456 30.0132 32.719 29.9999 32.7323 29.9799C32.7456 29.9799 32.759 29.9732 32.7656 29.9599V29.6265C32.779 29.6065 32.8056 29.6265 32.8056 29.6332L33.0456 29.9399C33.059 29.9532 33.079 29.9665 33.099 29.9665C33.119 29.9665 33.1256 29.9999 33.099 29.9932H32.999C32.9856 29.9932 32.9656 30.0065 32.9523 29.9932C32.939 29.9865 32.9523 29.9665 32.9656 29.9665C32.9856 29.9665 32.9656 29.9399 32.959 29.9265L32.919 29.8732H32.8123V29.8732ZM32.8856 29.8399C32.899 29.8399 32.8856 29.8332 32.8856 29.8265L32.799 29.7132V29.8465H32.8856V29.8399ZM33.0923 29.7199C33.0856 29.6932 33.0723 29.6532 33.039 29.6532C33.019 29.6532 32.9923 29.6399 33.0056 29.6199H33.119C33.1656 29.6199 33.2123 29.6199 33.2523 29.6332C33.3035 29.6486 33.3493 29.678 33.3846 29.718C33.42 29.7581 33.4434 29.8072 33.4523 29.8599C33.4523 29.8999 33.4456 29.9465 33.4123 29.9665C33.359 29.9999 33.299 29.9932 33.2456 29.9865L33.1523 29.9932C33.1323 29.9932 33.1256 29.9599 33.1523 29.9665C33.179 29.9665 33.179 29.9332 33.1656 29.9199L33.0923 29.7199V29.7199ZM33.2256 29.8865C33.2323 29.9065 33.239 29.9332 33.259 29.9532H33.3256C33.359 29.9532 33.3723 29.9199 33.3723 29.8932C33.3712 29.8439 33.3575 29.7957 33.3323 29.7532C33.3203 29.7298 33.3034 29.7094 33.2826 29.6933C33.2619 29.6771 33.2379 29.6657 33.2123 29.6599H33.1456C33.139 29.6599 33.1456 29.6732 33.1456 29.6865L33.2256 29.8865V29.8865ZM31.819 30.7132C31.819 30.7332 31.8457 30.7532 31.8723 30.7532C31.8857 30.7532 31.919 30.7532 31.919 30.7799C31.9057 30.7932 31.8857 30.7799 31.8657 30.7799C31.832 30.7814 31.7985 30.7858 31.7657 30.7932H31.7057C31.6923 30.7932 31.6923 30.7665 31.7123 30.7665C31.7323 30.7665 31.7523 30.7599 31.759 30.7399C31.759 30.7199 31.7457 30.6999 31.739 30.6865L31.659 30.4999C31.659 30.4799 31.6323 30.4799 31.6123 30.4799C31.599 30.4799 31.5723 30.4865 31.5657 30.4665C31.5657 30.4465 31.599 30.4532 31.6123 30.4399L31.679 30.4199C31.6923 30.4199 31.699 30.4265 31.7057 30.4399L31.819 30.7065V30.7132ZM31.8657 30.4132H31.999C32.0257 30.4132 32.0123 30.3799 32.0257 30.3799C32.0523 30.3799 32.0523 30.4132 32.0523 30.4265C32.0536 30.4321 32.0534 30.4378 32.0519 30.4432C32.0503 30.4487 32.0474 30.4536 32.0434 30.4576C32.0394 30.4616 32.0345 30.4646 32.029 30.4661C32.0236 30.4677 32.0178 30.4678 32.0123 30.4665H31.9123L31.9457 30.5465L31.9857 30.5332C32.0218 30.5323 32.0574 30.5419 32.0881 30.5608C32.1189 30.5798 32.1435 30.6072 32.159 30.6399C32.1723 30.6665 32.179 30.7065 32.159 30.7399C32.1323 30.7732 32.0923 30.7799 32.0523 30.7799C32.019 30.7799 31.9857 30.7732 31.959 30.7399C31.9523 30.7265 31.9523 30.6932 31.9723 30.6999C31.999 30.6999 32.019 30.7132 32.019 30.7399C32.0257 30.7532 32.0523 30.7465 32.0657 30.7465C32.0857 30.7465 32.1057 30.7332 32.1057 30.7065C32.1057 30.6799 32.0923 30.6399 32.0723 30.6199C32.059 30.5932 32.0257 30.5732 31.9923 30.5732L31.9323 30.5799C31.9123 30.5799 31.9123 30.5599 31.9057 30.5465C31.8883 30.505 31.8727 30.4627 31.859 30.4199C31.859 30.4199 31.8657 30.4065 31.8723 30.4132H31.8657ZM32.3257 30.4799C32.3123 30.4532 32.299 30.4199 32.2657 30.4132C32.2523 30.4132 32.219 30.3999 32.239 30.3865H32.3457C32.3916 30.3718 32.4413 30.3742 32.4857 30.3932C32.5368 30.4086 32.5826 30.438 32.618 30.478C32.6533 30.5181 32.6767 30.5672 32.6856 30.6199C32.6856 30.6599 32.679 30.6999 32.639 30.7199C32.5923 30.7532 32.5323 30.7465 32.479 30.7465L32.3923 30.7599C32.3723 30.7599 32.3657 30.7265 32.3923 30.7265C32.419 30.7265 32.4123 30.6999 32.4057 30.6799L32.3257 30.4799V30.4799ZM32.459 30.6399C32.4723 30.6665 32.479 30.6932 32.499 30.7065C32.519 30.7199 32.539 30.7132 32.5656 30.7065C32.5923 30.7065 32.6056 30.6732 32.6056 30.6465C32.6036 30.5964 32.5874 30.5479 32.559 30.5065C32.5466 30.4841 32.5294 30.4647 32.5087 30.4498C32.488 30.4348 32.4641 30.4246 32.439 30.4199C32.4169 30.4161 32.3944 30.4161 32.3723 30.4199V30.4399L32.459 30.6399V30.6399ZM32.8856 30.3599C32.9056 30.3599 32.9123 30.3799 32.919 30.3932C32.919 30.4132 32.9323 30.4265 32.939 30.4465C32.9256 30.4665 32.9056 30.4465 32.899 30.4265C32.8923 30.4132 32.879 30.3932 32.859 30.3932C32.8301 30.3913 32.8012 30.3913 32.7723 30.3932C32.759 30.4065 32.7723 30.4265 32.7723 30.4332L32.8123 30.5265C32.8323 30.5265 32.8523 30.5265 32.8656 30.5132C32.879 30.4999 32.8523 30.4665 32.879 30.4732C32.9056 30.4732 32.899 30.5065 32.9056 30.5265L32.939 30.5999C32.9323 30.6265 32.9056 30.5999 32.899 30.5799C32.8923 30.5599 32.8656 30.5599 32.8456 30.5599C32.8323 30.5599 32.819 30.5599 32.8323 30.5732L32.8723 30.6732C32.8856 30.6999 32.919 30.6932 32.939 30.6932C32.9656 30.6932 32.9923 30.6932 33.0056 30.6732C33.019 30.6599 32.9923 30.6332 33.0056 30.6199C33.0323 30.6199 33.039 30.6399 33.039 30.6532L33.059 30.7199C33.059 30.7265 33.039 30.7199 33.0323 30.7199L32.8256 30.7332C32.8056 30.7332 32.779 30.7465 32.7656 30.7332C32.7523 30.6999 32.799 30.7132 32.8056 30.6932L32.7856 30.6332L32.7123 30.4399C32.699 30.4199 32.6856 30.3999 32.659 30.3932C32.6456 30.3932 32.619 30.3932 32.6323 30.3665H32.699L32.8856 30.3599ZM31.0723 31.3132C31.079 31.3465 31.1123 31.3599 31.139 31.3665C31.1923 31.3799 31.2523 31.3999 31.2857 31.4399C31.3057 31.4665 31.319 31.4999 31.319 31.5332C31.319 31.5665 31.2857 31.5932 31.2523 31.5999C31.2149 31.611 31.1748 31.6086 31.139 31.5932C31.1257 31.5865 31.1323 31.6199 31.1123 31.6065C31.0923 31.5999 31.099 31.5732 31.0857 31.5532C31.0803 31.5306 31.0736 31.5084 31.0657 31.4865C31.0657 31.4665 31.0923 31.4865 31.099 31.4999C31.119 31.5399 31.159 31.5665 31.2057 31.5732C31.2323 31.5732 31.259 31.5599 31.259 31.5332C31.259 31.4999 31.2323 31.4665 31.2057 31.4532C31.159 31.4332 31.1123 31.4265 31.0723 31.3999C31.0533 31.389 31.0373 31.3735 31.0256 31.3549C31.014 31.3363 31.0071 31.3151 31.0057 31.2932C31.0057 31.2665 31.0323 31.2399 31.059 31.2332C31.0937 31.222 31.131 31.222 31.1657 31.2332C31.179 31.2332 31.1857 31.2132 31.2057 31.2265C31.2057 31.2399 31.2057 31.2532 31.219 31.2665L31.239 31.3265C31.2257 31.3399 31.2057 31.3265 31.2057 31.3132C31.1857 31.2865 31.1657 31.2599 31.139 31.2599C31.1123 31.2599 31.0857 31.2599 31.0723 31.2799V31.3132V31.3132ZM31.5123 31.1999C31.539 31.1999 31.539 31.2199 31.5457 31.2332C31.5457 31.2532 31.559 31.2732 31.5657 31.2865C31.5523 31.3065 31.5323 31.2865 31.5257 31.2732C31.519 31.2599 31.5057 31.2399 31.479 31.2399H31.399C31.3857 31.2532 31.399 31.2665 31.399 31.2799L31.4323 31.3732C31.4523 31.3732 31.4723 31.3732 31.4857 31.3599C31.499 31.3465 31.4723 31.3199 31.4923 31.3132C31.519 31.3132 31.519 31.3399 31.5257 31.3599C31.5257 31.3865 31.5457 31.4132 31.559 31.4465C31.5457 31.4665 31.519 31.4465 31.519 31.4265C31.5123 31.4065 31.4857 31.3999 31.4657 31.4065C31.4523 31.4065 31.439 31.4065 31.4457 31.4199L31.4857 31.5199C31.4923 31.5399 31.5123 31.5399 31.5323 31.5399C31.559 31.5399 31.5923 31.5399 31.6123 31.5199C31.6257 31.5065 31.6123 31.4799 31.6123 31.4665C31.6323 31.4532 31.6523 31.4665 31.6523 31.4865L31.6657 31.5532C31.6657 31.5665 31.6457 31.5665 31.639 31.5665L31.439 31.5799C31.4123 31.5799 31.3857 31.5999 31.3723 31.5799C31.3723 31.5532 31.4057 31.5599 31.4123 31.5399C31.4123 31.5199 31.4123 31.5065 31.399 31.4865L31.3323 31.2865C31.3323 31.2665 31.3123 31.2465 31.2857 31.2465C31.2723 31.2465 31.2457 31.2332 31.259 31.2199H31.3257L31.5123 31.1999V31.1999ZM31.7923 31.4799C31.799 31.4999 31.8123 31.5199 31.8323 31.5265C31.8523 31.5265 31.879 31.5199 31.8857 31.5399C31.8857 31.5665 31.8523 31.5532 31.839 31.5532C31.8033 31.5509 31.7674 31.5531 31.7323 31.5599C31.719 31.5599 31.699 31.5732 31.6923 31.5532C31.6923 31.5265 31.7257 31.5399 31.7323 31.5265L31.7257 31.4732L31.659 31.2732C31.6457 31.2532 31.639 31.2265 31.6123 31.2265C31.599 31.2265 31.5723 31.2265 31.579 31.1999C31.5857 31.1865 31.6123 31.1999 31.6257 31.1999C31.6723 31.1999 31.719 31.1799 31.7723 31.1865C31.7967 31.1882 31.8202 31.1965 31.8402 31.2106C31.8602 31.2248 31.8759 31.2441 31.8857 31.2665C31.899 31.2932 31.899 31.3332 31.8857 31.3532C31.8523 31.3799 31.8123 31.3865 31.7723 31.3932C31.759 31.3932 31.7723 31.4065 31.7723 31.4132L31.7923 31.4799V31.4799ZM31.759 31.3599H31.799C31.819 31.3532 31.8323 31.3332 31.8257 31.3132C31.8229 31.2838 31.8112 31.2559 31.7923 31.2332C31.7723 31.2132 31.739 31.2132 31.719 31.2199C31.7057 31.2265 31.719 31.2399 31.719 31.2532L31.7523 31.3599H31.759ZM32.1657 31.4599C32.1657 31.4732 32.179 31.4999 32.199 31.4999C32.2123 31.4999 32.2457 31.4999 32.2457 31.5199C32.2457 31.5399 32.2123 31.5332 32.199 31.5332C32.1633 31.5313 32.1275 31.5336 32.0923 31.5399C32.079 31.5399 32.059 31.5399 32.059 31.5199C32.0723 31.5065 32.1057 31.5199 32.1057 31.4932L32.0857 31.4132L32.019 31.2199C32.019 31.1999 31.9923 31.1999 31.9723 31.2065C31.959 31.2065 31.9323 31.2065 31.9257 31.2265V31.2799C31.9123 31.2932 31.899 31.2799 31.899 31.2599C31.8919 31.237 31.883 31.2147 31.8723 31.1932C31.8723 31.1732 31.8923 31.1732 31.9057 31.1732L32.179 31.1599C32.199 31.1599 32.2123 31.1732 32.2123 31.1932L32.239 31.2599C32.2323 31.2732 32.2057 31.2599 32.2057 31.2465C32.1923 31.2265 32.1723 31.1999 32.139 31.1932C32.1257 31.1932 32.1057 31.1932 32.0857 31.2065L32.099 31.2465L32.1657 31.4599V31.4599ZM32.3057 31.2399C32.299 31.2199 32.2923 31.1932 32.2657 31.1865C32.2523 31.1865 32.2257 31.1865 32.2257 31.1599C32.2323 31.1465 32.2523 31.1599 32.2657 31.1599L32.3857 31.1465C32.4057 31.1399 32.419 31.1732 32.399 31.1732C32.379 31.1732 32.359 31.1865 32.3656 31.2065L32.399 31.3132L32.4457 31.4599C32.4457 31.4732 32.4657 31.4865 32.479 31.4865C32.499 31.4865 32.5257 31.4865 32.519 31.5132H32.4723L32.3656 31.5265C32.3523 31.5265 32.3323 31.5132 32.339 31.4999C32.3523 31.4932 32.379 31.4999 32.379 31.4732L32.359 31.3932L32.3057 31.2399ZM32.6923 31.1332C32.7123 31.1332 32.7123 31.1532 32.719 31.1665L32.7323 31.2199C32.7256 31.2399 32.699 31.2199 32.699 31.2065C32.6923 31.1865 32.679 31.1665 32.6523 31.1665C32.6257 31.1649 32.599 31.1649 32.5723 31.1665C32.559 31.1799 32.5723 31.1999 32.5723 31.2065L32.6056 31.2999C32.619 31.2999 32.639 31.2999 32.659 31.2865C32.6723 31.2732 32.6456 31.2465 32.6656 31.2399C32.6923 31.2399 32.6923 31.2732 32.6923 31.2865L32.7256 31.3732C32.719 31.3932 32.6923 31.3732 32.6923 31.3599C32.6856 31.3399 32.659 31.3332 32.639 31.3332C32.6323 31.3332 32.6056 31.3332 32.619 31.3465L32.6523 31.4465C32.659 31.4665 32.679 31.4732 32.699 31.4665C32.7256 31.4665 32.759 31.4665 32.779 31.4532C32.7923 31.4399 32.779 31.4132 32.7856 31.3932C32.8056 31.3799 32.819 31.3999 32.819 31.4199C32.8244 31.4425 32.8311 31.4647 32.839 31.4865C32.839 31.4999 32.819 31.4999 32.8056 31.4999L32.6056 31.5065C32.5856 31.5065 32.559 31.5199 32.539 31.5065C32.5323 31.4799 32.5723 31.4865 32.579 31.4732C32.5816 31.4643 32.5824 31.455 32.5813 31.4458C32.5801 31.4367 32.5771 31.4278 32.5723 31.4199L32.5056 31.2199C32.5056 31.1999 32.4857 31.1732 32.459 31.1732C32.4457 31.1732 32.419 31.1599 32.4323 31.1465H32.499L32.6923 31.1332V31.1332ZM32.8256 31.1999C32.819 31.1732 32.799 31.1532 32.7723 31.1532C32.7523 31.1599 32.739 31.1132 32.7723 31.1265H32.8723L32.919 31.1865L33.059 31.3799V31.3599L33.0856 31.1199C33.099 31.1065 33.1323 31.1199 33.1523 31.1065C33.1723 31.1065 33.219 31.1065 33.2056 31.1332C33.179 31.1332 33.1523 31.1465 33.1656 31.1732L33.2456 31.4132C33.2456 31.4399 33.2723 31.4532 33.299 31.4465C33.319 31.4465 33.319 31.4865 33.299 31.4799H33.179C33.159 31.4865 33.1256 31.4865 33.139 31.4599C33.159 31.4599 33.1923 31.4465 33.1723 31.4199L33.1056 31.2065C33.1123 31.2132 33.1056 31.2265 33.1056 31.2332L33.0923 31.4332L33.0856 31.4865C33.0656 31.4932 33.059 31.4799 33.0523 31.4665L32.859 31.2199L32.8723 31.2399C32.8923 31.3065 32.9056 31.3732 32.9323 31.4332C32.9323 31.4599 32.9656 31.4665 32.9856 31.4665C33.0123 31.4799 32.9923 31.4999 32.9723 31.4932H32.8723C32.8523 31.4932 32.8523 31.4665 32.8723 31.4665C32.9056 31.4665 32.899 31.4332 32.8856 31.4132L32.819 31.1932L32.8256 31.1999ZM33.4056 31.2532C33.4056 31.2665 33.4323 31.2532 33.439 31.2532C33.459 31.2532 33.4856 31.2532 33.4856 31.2265C33.4856 31.1932 33.4723 31.1599 33.4523 31.1465C33.4256 31.1265 33.399 31.1332 33.3723 31.1332L33.379 31.1665L33.4056 31.2532V31.2532ZM33.439 31.3599L33.4656 31.4265C33.4856 31.4399 33.5056 31.4332 33.5256 31.4332C33.539 31.4332 33.559 31.4199 33.5523 31.3999C33.5523 31.3599 33.5323 31.3132 33.4923 31.2999C33.4703 31.2952 33.4476 31.2952 33.4256 31.2999V31.3199L33.439 31.3599V31.3599ZM33.3123 31.1999C33.3056 31.1732 33.299 31.1465 33.2723 31.1332C33.259 31.1332 33.2323 31.1332 33.2323 31.1132C33.2323 31.0932 33.2656 31.1132 33.279 31.1065C33.3456 31.1065 33.399 31.0865 33.459 31.1065C33.5056 31.1199 33.5456 31.1665 33.5456 31.2132C33.5456 31.2399 33.5256 31.2599 33.499 31.2732C33.499 31.2599 33.5256 31.2732 33.5323 31.2732C33.5656 31.2865 33.599 31.3132 33.6123 31.3465C33.6256 31.3799 33.6323 31.4132 33.6123 31.4399C33.5856 31.4665 33.5456 31.4665 33.5123 31.4665L33.359 31.4732C33.339 31.4732 33.3323 31.4399 33.359 31.4465C33.379 31.4465 33.3856 31.4199 33.3723 31.3999L33.3123 31.1999V31.1999ZM33.6456 31.1865C33.6456 31.1665 33.6323 31.1332 33.6056 31.1199C33.5923 31.1199 33.5656 31.1199 33.5656 31.0999C33.579 31.0799 33.6056 31.0999 33.6323 31.0932H33.7656C33.819 31.0932 33.8656 31.1332 33.879 31.1865C33.8923 31.2132 33.879 31.2532 33.859 31.2665L33.8256 31.2799C33.8656 31.2932 33.899 31.3265 33.919 31.3599L33.9523 31.4132C33.9723 31.4265 33.9723 31.4065 33.9723 31.3932C33.999 31.3799 34.0123 31.4132 33.999 31.4332C33.9923 31.4599 33.9523 31.4665 33.9323 31.4599C33.9056 31.4599 33.8923 31.4399 33.879 31.4199L33.8123 31.3065C33.8044 31.2991 33.7947 31.294 33.7841 31.2916C33.7736 31.2893 33.7626 31.2898 33.7523 31.2932V31.3265L33.7856 31.3999C33.7923 31.4265 33.819 31.4265 33.839 31.4332C33.8656 31.4332 33.8656 31.4665 33.839 31.4599H33.719C33.7056 31.4599 33.679 31.4732 33.6723 31.4599C33.659 31.4265 33.699 31.4399 33.7123 31.4199L33.699 31.3665L33.6456 31.1865V31.1865ZM33.7323 31.2532C33.739 31.2665 33.7723 31.2532 33.7856 31.2532C33.8056 31.2532 33.819 31.2332 33.8123 31.2199C33.8123 31.1865 33.799 31.1532 33.779 31.1332C33.759 31.1199 33.7323 31.1199 33.7123 31.1265C33.699 31.1265 33.7056 31.1465 33.7123 31.1599L33.7323 31.2465V31.2532ZM34.199 31.0799C34.2123 31.0799 34.219 31.0999 34.219 31.1132C34.219 31.1332 34.2323 31.1465 34.239 31.1665C34.2256 31.1865 34.2056 31.1665 34.2056 31.1532C34.1923 31.1399 34.1856 31.1132 34.159 31.1132C34.1301 31.1112 34.1012 31.1112 34.0723 31.1132C34.059 31.1199 34.0723 31.1399 34.0723 31.1532L34.099 31.2399H34.1523C34.1723 31.2265 34.1456 31.1932 34.1656 31.1865C34.1923 31.1865 34.1923 31.2132 34.1923 31.2332C34.1923 31.2599 34.2123 31.2932 34.219 31.3199C34.2123 31.3399 34.1856 31.3199 34.1856 31.3065C34.1856 31.2865 34.159 31.2732 34.139 31.2799C34.1323 31.2799 34.1056 31.2665 34.1123 31.2799L34.1456 31.3932C34.1456 31.4132 34.1723 31.4132 34.1923 31.4132C34.219 31.4132 34.2523 31.4132 34.2723 31.3999C34.2923 31.3865 34.2723 31.3599 34.279 31.3465C34.299 31.3332 34.319 31.3465 34.3123 31.3665L34.3256 31.4332C34.3256 31.4465 34.3056 31.4465 34.299 31.4465H34.0923C34.0723 31.4465 34.0523 31.4599 34.039 31.4465C34.019 31.4199 34.059 31.4265 34.0656 31.4132C34.079 31.3999 34.0656 31.3799 34.0656 31.3665L34.0056 31.1599C34.0056 31.1399 33.9856 31.1132 33.9656 31.1132C33.9456 31.1132 33.9256 31.1065 33.9323 31.0865H33.999L34.199 31.0799V31.0799ZM32.0057 31.9532C31.999 31.9265 31.9923 31.8999 31.9657 31.8865C31.9457 31.8865 31.919 31.8865 31.9323 31.8665C31.9523 31.8532 31.9723 31.8665 31.999 31.8599C32.0523 31.8599 32.1057 31.8465 32.159 31.8599C32.1987 31.8681 32.2356 31.8866 32.266 31.9135C32.2964 31.9404 32.3193 31.9748 32.3323 32.0132C32.3457 32.0665 32.3523 32.1199 32.319 32.1665C32.2857 32.2065 32.2257 32.2199 32.1723 32.2199C32.1257 32.2199 32.0857 32.2199 32.0457 32.2332C32.0323 32.2399 32.0057 32.2265 32.019 32.2065C32.039 32.2065 32.0657 32.1932 32.059 32.1732L32.0323 32.0732L32.0057 31.9532V31.9532ZM32.1123 32.1199C32.119 32.1399 32.1257 32.1665 32.139 32.1799C32.159 32.1932 32.1857 32.1865 32.2057 32.1799C32.2323 32.1799 32.259 32.1532 32.2657 32.1199C32.2709 32.0694 32.2616 32.0186 32.239 31.9732C32.2304 31.9525 32.2167 31.9344 32.1992 31.9204C32.1817 31.9064 32.161 31.8971 32.139 31.8932C32.1147 31.8887 32.0899 31.8887 32.0657 31.8932C32.059 31.8932 32.0657 31.9065 32.0657 31.9199L32.1123 32.1199V32.1199ZM32.5856 31.8199C32.6056 31.8199 32.6056 31.8399 32.6123 31.8532L32.6256 31.9132C32.619 31.9265 32.5923 31.9132 32.5923 31.8999C32.5857 31.8799 32.5723 31.8599 32.5523 31.8599C32.5235 31.8578 32.4945 31.8578 32.4656 31.8599C32.4523 31.8665 32.4656 31.8865 32.4656 31.8999C32.4656 31.9332 32.479 31.9665 32.4857 31.9932C32.5057 31.9932 32.5256 31.9932 32.539 31.9799C32.5523 31.9665 32.5323 31.9399 32.5523 31.9332C32.579 31.9332 32.5723 31.9665 32.579 31.9799C32.579 32.0065 32.599 32.0332 32.599 32.0665C32.599 32.0865 32.5656 32.0665 32.5656 32.0532C32.5656 32.0265 32.539 32.0199 32.519 32.0265C32.5123 32.0265 32.4856 32.0199 32.499 32.0332C32.499 32.0665 32.5123 32.0999 32.5257 32.1399C32.5257 32.1599 32.5523 32.1599 32.5723 32.1599C32.599 32.1599 32.6323 32.1599 32.6523 32.1399C32.6656 32.1265 32.6523 32.0999 32.6656 32.0865C32.6856 32.0732 32.6923 32.0932 32.6923 32.1132C32.6923 32.1332 32.6923 32.1532 32.7056 32.1799L32.6723 32.1865L32.4723 32.1999C32.4523 32.1999 32.4323 32.2132 32.4123 32.1999C32.399 32.1865 32.419 32.1732 32.439 32.1732C32.459 32.1665 32.4523 32.1399 32.4523 32.1265L32.399 31.9132C32.3923 31.8932 32.379 31.8665 32.359 31.8665C32.339 31.8665 32.319 31.8599 32.3257 31.8399L32.3923 31.8332L32.5856 31.8199V31.8199ZM33.019 32.0932C33.019 32.1132 33.039 32.1332 33.059 32.1332C33.0723 32.1399 33.099 32.1332 33.1056 32.1532C33.1123 32.1732 33.079 32.1665 33.0656 32.1665L32.9523 32.1732C32.9323 32.1732 32.9123 32.1799 32.899 32.1732C32.879 32.1732 32.8856 32.1465 32.9056 32.1465C32.9256 32.1465 32.9456 32.1399 32.9523 32.1199L32.9456 32.0665L32.899 31.8799C32.899 31.8599 32.8723 31.8599 32.859 31.8599C32.8456 31.8599 32.819 31.8732 32.8123 31.8532C32.8123 31.8265 32.8456 31.8332 32.859 31.8265L32.9323 31.7999C32.9456 31.7999 32.9523 31.8065 32.9523 31.8199L33.019 32.0932V32.0932ZM33.2656 31.8732C33.2656 31.8465 33.2456 31.8199 33.219 31.8199C33.199 31.8199 33.1723 31.8199 33.1656 31.8399C33.1633 31.8524 33.1645 31.8653 33.1692 31.8771C33.174 31.8889 33.182 31.8991 33.1923 31.9065L33.2523 31.9399L33.2656 31.8999C33.2669 31.891 33.2669 31.882 33.2656 31.8732V31.8732ZM33.319 32.0732C33.319 32.0332 33.2856 32.0132 33.2523 32.0065C33.239 32.0065 33.2256 31.9865 33.219 31.9932C33.2086 32.0006 33.2006 32.0108 33.1959 32.0226C33.1912 32.0345 33.1899 32.0474 33.1923 32.0599C33.2056 32.0999 33.2256 32.1265 33.259 32.1265C33.2856 32.1332 33.3123 32.1265 33.3256 32.0999C33.3285 32.0889 33.3285 32.0775 33.3256 32.0665L33.319 32.0732ZM33.3856 32.0532C33.3892 32.07 33.3872 32.0875 33.38 32.1032C33.3728 32.1188 33.3607 32.1316 33.3456 32.1399C33.3257 32.1516 33.3035 32.1589 33.2804 32.1612C33.2574 32.1635 33.2342 32.1607 33.2123 32.1532C33.1923 32.1475 33.1743 32.1364 33.1601 32.1211C33.146 32.1058 33.1364 32.0869 33.1323 32.0665C33.1323 32.0399 33.139 31.9999 33.1723 31.9799C33.1723 31.9799 33.199 31.9732 33.179 31.9665C33.1456 31.9532 33.1123 31.9265 33.1123 31.8865C33.099 31.8532 33.1123 31.8199 33.1456 31.7999C33.1752 31.7847 33.2093 31.781 33.2413 31.7897C33.2734 31.7983 33.3011 31.8186 33.319 31.8465C33.3323 31.8732 33.3323 31.9065 33.319 31.9265L33.279 31.9599C33.3123 31.9599 33.3456 31.9865 33.359 32.0132C33.3723 32.0199 33.379 32.0399 33.379 32.0532H33.3856ZM33.599 32.0865C33.6123 32.0865 33.6323 32.0865 33.6323 32.0599C33.639 32.0532 33.6323 32.0199 33.6523 32.0265C33.6723 32.0265 33.6656 32.0465 33.6723 32.0665C33.6723 32.0932 33.6723 32.1199 33.6456 32.1399C33.6323 32.1532 33.6123 32.1465 33.5923 32.1465H33.479C33.4656 32.1465 33.4456 32.1599 33.4323 32.1465C33.419 32.1332 33.4323 32.1132 33.4323 32.0999C33.4456 32.0532 33.4723 32.0199 33.499 31.9932C33.5256 31.9732 33.5523 31.9532 33.559 31.9199C33.5609 31.8918 33.5539 31.8638 33.539 31.8399C33.5342 31.8323 33.528 31.8258 33.5208 31.8207C33.5135 31.8156 33.5052 31.8121 33.4965 31.8102C33.4878 31.8083 33.4788 31.8082 33.4701 31.8099C33.4614 31.8116 33.4531 31.8149 33.4456 31.8199C33.4256 31.8265 33.419 31.8532 33.4256 31.8665C33.439 31.8799 33.4656 31.8665 33.4723 31.8932C33.4856 31.9065 33.4723 31.9332 33.4523 31.9332C33.4256 31.9332 33.399 31.9132 33.3856 31.8865C33.3805 31.8688 33.3816 31.8497 33.3889 31.8327C33.3962 31.8157 33.4092 31.8017 33.4256 31.7932C33.459 31.7732 33.499 31.7732 33.539 31.7799C33.5723 31.7932 33.6056 31.8199 33.619 31.8599C33.6256 31.8865 33.6256 31.9199 33.6123 31.9465C33.5856 31.9932 33.539 32.0132 33.499 32.0599C33.4923 32.0665 33.4856 32.0799 33.4923 32.0999C33.4923 32.0799 33.519 32.0865 33.5256 32.0865H33.5923H33.599ZM33.8656 32.0599C33.8656 32.0799 33.879 32.0999 33.899 32.1065C33.9123 32.1065 33.939 32.1065 33.9456 32.1199C33.9523 32.1399 33.9256 32.1399 33.9123 32.1399H33.7323C33.719 32.1332 33.7323 32.1065 33.7456 32.1132C33.7656 32.1132 33.7856 32.1065 33.7923 32.0865V32.0332L33.7456 31.8465C33.7456 31.8265 33.7256 31.8265 33.7123 31.8265C33.6923 31.8265 33.6723 31.8399 33.6656 31.8265C33.6523 31.7932 33.6856 31.7999 33.699 31.7932L33.779 31.7665C33.7923 31.7665 33.799 31.7732 33.8056 31.7865L33.859 32.0599H33.8656Z" fill="#B07E09"/>
</g>
<g id="Group_20">
<path id="Vector_95" d="M31.966 26.6266L31.7127 26.9333C31.6327 27.2799 31.8327 27.5466 32.226 27.7732C32.5394 27.9732 33.126 28.0199 33.3127 27.8599L32.3994 26.9933L31.966 26.6333V26.6266Z" fill="url(#paint9_radial_2909_185399)" stroke="#4C0505" stroke-width="0.0133332"/>
<path id="Vector_96" d="M33.8192 35.6198C33.775 35.5641 33.7306 35.5085 33.6858 35.4532C33.1069 36.2401 32.3628 36.8908 31.5059 37.3598C32.5125 37.0732 33.1725 36.3465 33.8192 35.6198ZM32.7792 37.9998C33.1545 37.266 33.5593 36.5477 33.9925 35.8465C33.9462 35.7862 33.8996 35.7262 33.8525 35.6665C33.3658 36.4798 32.7859 37.4465 32.7859 37.9998H32.7792ZM35.5792 30.3665C35.5159 30.068 35.4198 29.7773 35.2925 29.4999C34.5779 28.2947 33.5744 27.2866 32.3725 26.5666V26.5466H32.3925L32.3792 26.5399H32.4125L32.3992 26.5199H32.4259L32.4059 26.4932H32.4325L32.4125 26.4732H32.4459L32.4259 26.4466H32.4525L32.4259 26.4266L32.4659 26.4199L32.4325 26.3999L32.4659 26.3932L32.4392 26.3732L32.4792 26.3599L32.4459 26.3399L32.4859 26.3199L32.4459 26.2932L32.4925 26.2799L32.4459 26.2599L32.4859 26.2332H32.4325L32.4659 26.1866H32.4192L32.4392 26.1532H32.3992L32.4192 26.1199L32.3725 26.1266L32.3925 26.0866L32.3525 26.1132L32.3659 26.0666L32.3192 26.0932L32.3259 26.0466L32.2925 26.0799V26.0332L32.2592 26.0666V26.0199L32.2259 26.0599V26.0132L32.1992 26.0532L32.1859 26.0066L32.1659 26.0466L32.1525 25.9999L32.1325 26.0532L32.1192 25.9999L32.0992 26.0532L32.0859 26.0066L32.0725 26.0466L32.0659 26.0132L32.0459 26.0599L32.0325 26.0132L32.0192 26.0666L31.9992 26.0199L31.9859 26.0732L31.9659 26.0266V26.0799L31.9392 26.0399V26.0932L31.9059 26.0532V26.0999L31.8792 26.0799L31.8925 26.1266L31.8592 26.1066L31.8725 26.1532L31.8459 26.1332L31.8525 26.1732H31.8259L31.8392 26.1999H31.8192L31.8325 26.2266C31.8084 26.3018 31.7993 26.3811 31.8059 26.4599C31.8059 26.4732 31.8459 26.4866 31.8525 26.4999C31.8725 26.5266 31.8659 26.5399 31.8659 26.5399C31.7592 26.7132 31.6659 26.8466 31.6592 27.0466C31.7392 26.9399 31.8325 26.8066 31.9525 26.8066C31.8925 26.9066 31.8659 27.2132 31.9325 27.2666L31.9859 27.1732C31.9859 27.2399 31.9925 27.2932 32.0125 27.3266L32.0792 27.2132C32.0792 27.3132 32.0925 27.3932 32.1192 27.4332C32.1477 27.3912 32.1839 27.355 32.2259 27.3266C32.2125 27.3866 32.1925 27.4399 32.1992 27.5066L32.3325 27.3399C32.3059 27.4466 32.3325 27.5266 32.3592 27.6399C32.3859 27.5066 32.3992 27.4866 32.4592 27.4332C32.4659 27.5599 32.4459 27.6732 32.4725 27.7466C32.5259 27.6332 32.5659 27.6466 32.6059 27.5732C32.5925 27.6799 32.5725 27.7932 32.6059 27.8866C32.6252 27.8151 32.6704 27.7534 32.7325 27.7132C32.7325 27.8599 32.7659 27.8332 32.6792 27.9599C32.7192 27.9732 32.8459 27.9332 32.9192 27.8999C32.8859 27.9799 32.8925 28.0399 32.8592 28.0999C32.9259 28.0599 32.9925 27.9999 33.0525 27.9399C33.0259 28.0332 32.9525 28.1266 32.9859 28.2132C33.0059 28.1266 33.0725 28.0599 33.1392 28.0466C33.1258 28.0932 33.1192 28.1932 33.0525 28.2399C33.2125 28.2532 33.2792 28.1466 33.3592 28.0599C33.3525 28.1532 33.3592 28.2199 33.4658 28.3466C33.4458 28.1866 33.4792 28.2199 33.5525 28.1266C33.5925 28.2666 33.6325 28.4199 33.7792 28.5266C33.7125 28.3732 33.7125 28.2932 33.7392 28.1999C33.7592 28.2999 33.8525 28.4199 33.8725 28.5132C33.8925 28.4066 33.9058 28.3066 33.9392 28.2399C33.988 28.3592 34.0194 28.485 34.0325 28.6132C34.0658 28.5466 34.0925 28.4799 34.1058 28.4066C35.4258 29.7799 35.7192 31.5265 34.2792 33.3732C34.7925 33.0265 34.9258 32.4732 35.2125 31.9999C34.9325 32.6199 34.8125 33.3132 34.3125 33.8265C34.7925 33.4132 34.8925 33.0332 35.1792 32.6332C34.8792 33.4665 34.4458 34.3799 33.8592 35.2198C33.9664 35.3349 34.0731 35.4504 34.1792 35.5665L34.4458 35.1065C35.0725 34.0799 36.0925 32.6065 35.5792 30.3665V30.3665Z" fill="#448127" stroke="#34541F" stroke-width="0.0133332"/>
</g>
<path id="Vector_97" d="M31.7923 26.3532C31.7257 26.3666 31.699 26.3932 31.6523 26.4466C31.7123 26.4599 31.759 26.4666 31.819 26.4666C31.8323 26.4666 31.839 26.4466 31.839 26.4266L31.8257 26.3599C31.8257 26.3466 31.7857 26.3532 31.7723 26.3599L31.7923 26.3532V26.3532Z" fill="#EAC102" stroke="#A08307" stroke-width="0.0133332"/>
<path id="Vector_98" d="M31.6455 26.4466C31.6674 26.4387 31.6896 26.4321 31.7122 26.4266C31.7385 26.4205 31.7653 26.416 31.7922 26.4132C31.7703 26.4211 31.7481 26.4278 31.7255 26.4332C31.6991 26.4393 31.6724 26.4438 31.6455 26.4466V26.4466Z" fill="#A08307"/>
<path id="Vector_99" d="M32.0924 26.4132C32.1219 26.4132 32.1457 26.3894 32.1457 26.3599C32.1457 26.3305 32.1219 26.3066 32.0924 26.3066C32.0629 26.3066 32.0391 26.3305 32.0391 26.3599C32.0391 26.3894 32.0629 26.4132 32.0924 26.4132Z" fill="black" stroke="black" stroke-width="0.00666662"/>
<path id="Vector_100" d="M32.1059 26.3732C32.117 26.3732 32.1259 26.3643 32.1259 26.3532C32.1259 26.3422 32.117 26.3332 32.1059 26.3332C32.0949 26.3332 32.0859 26.3422 32.0859 26.3532C32.0859 26.3643 32.0949 26.3732 32.1059 26.3732Z" fill="url(#paint10_radial_2909_185399)"/>
<g id="Group_21">
<path id="Vector_101" d="M32.7922 37.9798C32.8228 37.8812 32.8562 37.7833 32.8922 37.6865C32.9298 37.5878 32.9698 37.49 33.0122 37.3932C33.0922 37.1999 33.1922 37.0132 33.2856 36.8332C33.3857 36.6485 33.4901 36.4662 33.5989 36.2865C33.6516 36.1973 33.705 36.1084 33.7589 36.0199L33.9255 35.7532L33.7655 36.0199C33.7117 36.1107 33.6583 36.2018 33.6055 36.2932L33.2989 36.8399C33.199 37.0232 33.1056 37.21 33.0189 37.3999C32.9766 37.4944 32.9366 37.59 32.8989 37.6865C32.8606 37.7833 32.825 37.8811 32.7922 37.9798V37.9798ZM31.5322 37.3465C31.6452 37.2995 31.7563 37.2483 31.8656 37.1932C31.97 37.137 32.0723 37.0769 32.1722 37.0132C32.3785 36.8838 32.5746 36.739 32.7589 36.5799C32.9404 36.4242 33.1119 36.2572 33.2722 36.0799C33.3544 35.9907 33.4344 35.8995 33.5122 35.8065L33.7389 35.5199C33.6672 35.6167 33.5939 35.7123 33.5189 35.8065C33.4412 35.9018 33.3612 35.9952 33.2789 36.0865C33.1191 36.2665 32.9476 36.4358 32.7656 36.5932C32.5814 36.7504 32.3852 36.8931 32.1789 37.0199C32.0767 37.0815 31.9721 37.1394 31.8656 37.1932C31.7563 37.2483 31.6451 37.2994 31.5322 37.3465V37.3465ZM34.0189 35.3932C34.1187 35.2471 34.2143 35.0981 34.3055 34.9465L34.5722 34.4932C34.6562 34.3386 34.7385 34.183 34.8189 34.0265L35.0655 33.5599L34.9522 33.7932L34.8322 34.0332C34.7524 34.19 34.6702 34.3456 34.5855 34.4999C34.5004 34.6531 34.4115 34.8043 34.3189 34.9532C34.2252 35.1041 34.1251 35.2509 34.0189 35.3932V35.3932ZM34.4189 33.7199C34.5306 33.5847 34.633 33.4422 34.7255 33.2932C34.8202 33.1434 34.9048 32.9875 34.9789 32.8265C35.1261 32.5063 35.2378 32.171 35.3122 31.8266L35.3389 31.6932C35.361 31.5607 35.3766 31.4272 35.3855 31.2932C35.3989 31.1179 35.3989 30.9419 35.3855 30.7666C35.3703 30.5912 35.3413 30.4174 35.2989 30.2466C35.2582 30.0739 35.2048 29.9046 35.1389 29.7399C35.2067 29.9022 35.2624 30.0693 35.3055 30.2399C35.3483 30.4129 35.3773 30.589 35.3922 30.7666C35.4055 30.9399 35.4055 31.1199 35.3922 31.2999C35.3854 31.4338 35.3721 31.5673 35.3522 31.6999C35.3438 31.7422 35.3349 31.7844 35.3255 31.8266C35.2511 32.171 35.1393 32.5063 34.9922 32.8265C34.9139 32.9879 34.8248 33.1438 34.7255 33.2932C34.6309 33.4424 34.5262 33.585 34.4122 33.7199H34.4189Z" fill="#34541F"/>
<path id="Vector_102" d="M34.3057 33.3332C34.4279 33.2162 34.5374 33.0866 34.6323 32.9465C34.7274 32.8063 34.8121 32.6592 34.8857 32.5066C34.9585 32.3537 35.0252 32.198 35.0857 32.0399C35.1123 31.9599 35.1523 31.8799 35.1723 31.7999L35.199 31.7399L35.219 31.6799L35.259 31.5599C35.2923 31.3932 35.3057 31.2199 35.3123 31.0466C35.3135 30.8746 35.3001 30.7029 35.2723 30.5332C35.2457 30.3666 35.2057 30.1999 35.159 30.0332C35.1091 29.8683 35.0512 29.7059 34.9857 29.5466C35.0535 29.7058 35.1136 29.8682 35.1657 30.0332C35.2146 30.1972 35.2524 30.3642 35.279 30.5332C35.3067 30.7029 35.3201 30.8746 35.319 31.0466C35.3195 31.2188 35.3039 31.3906 35.2723 31.5599L35.2323 31.6866L35.2123 31.7466L35.1857 31.8066L35.099 32.0466C35.0363 32.2048 34.9674 32.3605 34.8923 32.5132C34.8188 32.6659 34.7342 32.813 34.639 32.9532C34.542 33.0936 34.4302 33.2232 34.3057 33.3399V33.3332Z" fill="#34541F"/>
<path id="Vector_103" d="M33.9121 35.2799C33.9988 35.1732 34.0721 35.0599 34.1521 34.9465L34.2721 34.7799L34.3854 34.6132C34.4575 34.4962 34.5242 34.3761 34.5854 34.2532L34.7588 33.8865C34.8788 33.6399 34.9921 33.3932 35.0921 33.1332C35.1909 32.8799 35.2689 32.6191 35.3254 32.3532C35.3788 32.0865 35.4188 31.8199 35.4521 31.5465C35.4788 31.2732 35.4788 30.9999 35.4521 30.7265C35.4237 30.4537 35.3633 30.1852 35.2721 29.9265C35.1797 29.6708 35.066 29.4233 34.9321 29.1866C35.0683 29.423 35.1842 29.6706 35.2788 29.9265C35.37 30.1852 35.4304 30.4537 35.4588 30.7265C35.4921 30.9932 35.4854 31.2732 35.4588 31.5465C35.4321 31.8132 35.3921 32.0865 35.3388 32.3532C35.2825 32.6213 35.2045 32.8844 35.1054 33.1399C35.0049 33.3933 34.8937 33.6424 34.7721 33.8865L34.5921 34.2532C34.531 34.3762 34.4642 34.4963 34.3921 34.6132C34.3588 34.6799 34.3188 34.7265 34.2788 34.7865L34.1588 34.9532L33.9188 35.2865L33.9121 35.2799Z" fill="#34541F"/>
<path id="Vector_104" d="M34.0984 35.4865L34.5651 34.7132C34.7162 34.4536 34.8585 34.189 34.9918 33.9199C35.1255 33.6517 35.237 33.373 35.3251 33.0865C35.3718 32.9399 35.4051 32.7999 35.4384 32.6532C35.454 32.5781 35.4673 32.5025 35.4784 32.4265C35.5342 32.0557 35.5654 31.6815 35.5718 31.3065C35.5718 31.0065 35.5451 30.7066 35.4918 30.4132C35.437 30.1171 35.3475 29.8284 35.2251 29.5532C35.1021 29.2792 34.9454 29.0217 34.7584 28.7866C34.9454 29.0217 35.1021 29.2792 35.2251 29.5532C35.3497 29.8282 35.4414 30.1168 35.4984 30.4132C35.5524 30.7079 35.5792 31.007 35.5784 31.3065C35.5784 31.6065 35.5584 31.9065 35.5184 32.2065C35.5105 32.2822 35.5016 32.3578 35.4918 32.4332C35.4805 32.5069 35.4672 32.5803 35.4518 32.6532C35.4205 32.7993 35.3827 32.9439 35.3384 33.0865C35.2507 33.3753 35.1392 33.6562 35.0051 33.9265C34.8718 34.1932 34.7184 34.4599 34.5718 34.7132C34.4201 34.9711 34.2645 35.2267 34.1051 35.4799L34.0984 35.4865ZM32.2451 26.7199H32.3384C32.4326 26.7382 32.5243 26.7673 32.6118 26.8066C32.7251 26.8599 32.8384 26.9266 32.9384 27.0066C33.0404 27.0811 33.1362 27.1636 33.2251 27.2532C33.2665 27.2987 33.3065 27.3454 33.3451 27.3932L33.4651 27.5466C33.4263 27.4968 33.3862 27.4479 33.3451 27.3999C33.3022 27.354 33.2577 27.3095 33.2118 27.2666C33.1249 27.1752 33.0313 27.0906 32.9318 27.0132C32.8304 26.9351 32.7209 26.868 32.6051 26.8132C32.4907 26.7636 32.3692 26.7321 32.2451 26.7199V26.7199Z" fill="#34541F"/>
</g>
<g id="Group_22">
<path id="Vector_105" d="M33.3391 27.4399C33.3391 27.4399 33.5391 27.5599 33.6525 27.7332C33.6525 27.7332 33.3391 27.6732 33.1191 27.4266" fill="#448127"/>
<path id="Vector_106" d="M33.339 27.4399C33.4014 27.4754 33.4596 27.5179 33.5123 27.5666C33.5677 27.6136 33.617 27.6673 33.659 27.7266L33.6656 27.7466H33.6523C33.5998 27.7331 33.5485 27.7153 33.499 27.6932C33.4507 27.6745 33.4039 27.6522 33.359 27.6266C33.2656 27.5732 33.1856 27.5066 33.1123 27.4266C33.1865 27.5016 33.272 27.5646 33.3656 27.6132C33.4087 27.6382 33.4532 27.6604 33.499 27.6799C33.5487 27.6997 33.6 27.7153 33.6523 27.7266V27.7399C33.6322 27.7094 33.6099 27.6805 33.5856 27.6532L33.5056 27.5732C33.48 27.5499 33.4533 27.5276 33.4256 27.5066C33.3977 27.4831 33.3688 27.4608 33.339 27.4399V27.4399Z" fill="#34541F"/>
<path id="Vector_107" d="M32.8857 27.3799C32.8857 27.3799 33.3657 27.6865 33.4324 27.7132C33.4324 27.7132 33.3257 27.4799 33.0991 27.3799" fill="#448127"/>
<path id="Vector_108" d="M32.8857 27.3799L33.1591 27.5465C33.2274 27.5874 33.2963 27.6274 33.3657 27.6665L33.4324 27.7065V27.7132C33.413 27.6781 33.3907 27.6446 33.3657 27.6132L33.2924 27.5199C33.2637 27.4906 33.2324 27.4638 33.1991 27.4399L33.0991 27.3799C33.1367 27.3959 33.1725 27.416 33.2057 27.4399C33.304 27.5086 33.384 27.6001 33.4391 27.7065L33.4524 27.7265L33.4324 27.7199L33.2924 27.6399L33.1591 27.5532C33.067 27.4969 32.9759 27.4391 32.8857 27.3799V27.3799Z" fill="#34541F"/>
<path id="Vector_109" d="M33.0792 27.2266C33.0792 27.2266 33.3259 27.3332 33.3859 27.5132C33.3859 27.5132 32.9325 27.3266 32.8525 27.2266" fill="#448127"/>
<path id="Vector_110" d="M33.0792 27.2266C33.1465 27.2525 33.2094 27.2884 33.2659 27.3332C33.2933 27.357 33.3179 27.3839 33.3392 27.4132L33.3925 27.5132V27.5266H33.3792C33.3344 27.505 33.29 27.4827 33.2459 27.4599C33.1987 27.4388 33.152 27.4165 33.1059 27.3932C33.0606 27.3703 33.0161 27.3458 32.9725 27.3199L32.9059 27.2799L32.8525 27.2266L32.9125 27.2732L32.9792 27.3132L33.1125 27.3799C33.2024 27.4268 33.2936 27.4713 33.3859 27.5132H33.3792C33.3662 27.4817 33.3482 27.4524 33.3259 27.4266C33.3064 27.3977 33.284 27.3709 33.2592 27.3466C33.2026 27.2984 33.1398 27.2581 33.0725 27.2266H33.0792Z" fill="#34541F"/>
<path id="Vector_111" d="M32.6992 27.4199C32.6992 27.4199 33.1392 27.7332 33.2725 27.7332C33.2725 27.7332 33.1392 27.5132 32.9126 27.4199" fill="#448127"/>
<path id="Vector_112" d="M32.6992 27.4199C32.7892 27.4794 32.8803 27.5372 32.9726 27.5932C33.0438 27.6349 33.1173 27.6727 33.1926 27.7066L33.2725 27.7266L33.2659 27.7399C33.2222 27.6719 33.1708 27.6093 33.1126 27.5532L33.0192 27.4799C32.9856 27.4547 32.95 27.4324 32.9126 27.4132C32.9859 27.4466 33.0592 27.4932 33.1126 27.5466C33.177 27.6003 33.2331 27.6632 33.2792 27.7332V27.7399H33.2725C33.2427 27.7385 33.2133 27.7318 33.1859 27.7199C33.161 27.7099 33.1365 27.6988 33.1126 27.6866C33.0649 27.6616 33.0182 27.6349 32.9726 27.6066C32.9253 27.5764 32.8786 27.5453 32.8326 27.5132C32.7874 27.4831 32.743 27.452 32.6992 27.4199V27.4199Z" fill="#34541F"/>
<path id="Vector_113" d="M32.6992 27.5132C32.6992 27.5132 32.9259 27.7132 33.0592 27.7132C33.0592 27.7132 32.9259 27.4932 32.6992 27.3932" fill="#448127"/>
<path id="Vector_114" d="M32.6992 27.5132C32.7528 27.5559 32.8084 27.596 32.8659 27.6332L32.9592 27.6799C32.9911 27.6936 33.0248 27.7026 33.0592 27.7066L33.0526 27.7132C33.0325 27.6806 33.0102 27.6494 32.9859 27.6199C32.9339 27.5563 32.8733 27.5002 32.8059 27.4532C32.7721 27.4303 32.7364 27.4102 32.6992 27.3932C32.7726 27.4266 32.8459 27.4666 32.8992 27.5266C32.9631 27.5783 33.0192 27.6389 33.0659 27.7066V27.7199H33.0592C33.0192 27.7199 32.9926 27.7066 32.9526 27.6932C32.9202 27.6777 32.889 27.6598 32.8592 27.6399L32.7792 27.5799C32.7516 27.5589 32.7249 27.5366 32.6992 27.5132V27.5132Z" fill="#34541F"/>
<path id="Vector_115" d="M32.5791 27.0799C32.5791 27.0799 33.0591 27.4199 33.1124 27.6066C33.1124 27.6066 32.6858 27.4066 32.6058 27.3066" fill="#448127"/>
<path id="Vector_116" d="M32.5791 27.0799C32.6312 27.1162 32.6824 27.154 32.7324 27.1932C32.7824 27.2319 32.8313 27.2719 32.8791 27.3132C32.926 27.3552 32.9705 27.3997 33.0124 27.4466L33.0791 27.5132L33.1258 27.6066V27.6199L33.1124 27.6132C33.0677 27.5916 33.0232 27.5694 32.9791 27.5466C32.9342 27.5253 32.8897 27.5031 32.8458 27.4799C32.8027 27.4546 32.7605 27.4279 32.7191 27.3999C32.6963 27.3852 32.674 27.3697 32.6524 27.3532C32.635 27.3397 32.6193 27.324 32.6058 27.3066L32.6591 27.3532C32.724 27.3941 32.7907 27.4319 32.8591 27.4666C32.9468 27.5133 33.0358 27.5577 33.1258 27.5999L33.1124 27.6066C33.101 27.5777 33.0853 27.5507 33.0658 27.5266C33.0472 27.501 33.0272 27.4765 33.0058 27.4532L32.8724 27.3199C32.8269 27.2764 32.7803 27.2341 32.7324 27.1932C32.6821 27.1544 32.631 27.1166 32.5791 27.0799V27.0799Z" fill="#34541F"/>
</g>
<g id="Group_23">
<path id="Vector_117" d="M29.9127 36.6865C29.4935 36.9058 29.0258 37.0159 28.5527 37.0065C29.2194 36.4598 29.8661 36.4465 29.9127 36.6865ZM34.566 36.9865C34.9127 37.2998 35.966 37.5198 36.1327 37.4798C35.426 36.7665 34.6594 36.6932 34.566 36.9865Z" fill="#406325" stroke="#24420E" stroke-width="0.0133332"/>
<path id="Vector_118" d="M29.9127 36.6865C29.8661 36.4398 29.2127 36.4532 28.5527 37.0065C28.9873 36.8316 29.4458 36.7237 29.9127 36.6865ZM34.5727 36.9798C34.666 36.6865 35.426 36.7598 36.1327 37.4798C35.64 37.2376 35.1144 37.0691 34.5727 36.9798V36.9798Z" fill="#67923D" stroke="#24420E" stroke-width="0.0133332"/>
</g>
</g>
</g>
</g>
<defs>
<radialGradient id="paint0_radial_2909_185399" cx="0" cy="0" r="1" gradientUnits="userSpaceOnUse" gradientTransform="translate(30.0728 32.5532) scale(1.09999)">
<stop offset="0.2" stop-color="#F9F0AA"/>
<stop offset="1" stop-color="#B07E09"/>
</radialGradient>
<radialGradient id="paint1_radial_2909_185399" cx="0" cy="0" r="1" gradientUnits="userSpaceOnUse" gradientTransform="translate(30.3524 32.8665) scale(0.726662)">
<stop offset="0.2" stop-color="#F9F0AA"/>
<stop offset="1" stop-color="#B07E09"/>
</radialGradient>
<radialGradient id="paint2_radial_2909_185399" cx="0" cy="0" r="1" gradientUnits="userSpaceOnUse" gradientTransform="translate(30.5191 32.5732) scale(0.65333)">
<stop offset="0.2" stop-color="#F9F0AA"/>
<stop offset="1" stop-color="#B07E09"/>
</radialGradient>
<radialGradient id="paint3_radial_2909_185399" cx="0" cy="0" r="1" gradientUnits="userSpaceOnUse" gradientTransform="translate(30.8057 32.4732) scale(1.15999)">
<stop offset="0.2" stop-color="#F9F0AA"/>
<stop offset="1" stop-color="#B07E09"/>
</radialGradient>
<linearGradient id="paint4_linear_2909_185399" x1="31.8391" y1="29.2799" x2="31.7391" y2="27.4666" gradientUnits="userSpaceOnUse">
<stop offset="0.2" stop-color="#B07E09" stop-opacity="0"/>
<stop offset="1" stop-color="#B07E09"/>
</linearGradient>
<linearGradient id="paint5_linear_2909_185399" x1="32.4526" y1="31.7799" x2="32.6126" y2="33.7732" gradientUnits="userSpaceOnUse">
<stop offset="0.2" stop-color="#B07E09" stop-opacity="0"/>
<stop offset="1" stop-color="#B07E09"/>
</linearGradient>
<radialGradient id="paint6_radial_2909_185399" cx="0" cy="0" r="1" gradientUnits="userSpaceOnUse" gradientTransform="translate(29.9794 28.8266) scale(0.866663)">
<stop offset="0.2" stop-color="#F9F0AA"/>
<stop offset="1" stop-color="#B07E09"/>
</radialGradient>
<linearGradient id="paint7_linear_2909_185399" x1="30.3456" y1="28.6332" x2="30.6056" y2="28.0399" gradientUnits="userSpaceOnUse">
<stop offset="0.2" stop-color="#F9F0AA"/>
<stop offset="1" stop-color="#B07E09"/>
</linearGradient>
<linearGradient id="paint8_linear_2909_185399" x1="31.7989" y1="27.8199" x2="31.9723" y2="30.0266" gradientUnits="userSpaceOnUse">
<stop offset="0.2" stop-color="#F9F0AA"/>
<stop offset="1" stop-color="#B07E09"/>
</linearGradient>
<radialGradient id="paint9_radial_2909_185399" cx="0" cy="0" r="1" gradientUnits="userSpaceOnUse" gradientTransform="translate(32.106 26.3533) scale(0.0199999)">
<stop offset="0.3" stop-color="#A50A0A"/>
<stop offset="1" stop-color="#4C0505"/>
</radialGradient>
<radialGradient id="paint10_radial_2909_185399" cx="0" cy="0" r="1" gradientUnits="userSpaceOnUse" gradientTransform="translate(32.1049 26.3488) scale(0.0195415 0.0204693)">
<stop stop-color="white"/>
<stop offset="1" stop-color="white" stop-opacity="0"/>
</radialGradient>
<clipPath id="clip0_2909_185399">
<path d="M0.246094 32C0.246094 14.3269 14.573 0 32.2461 0V0C49.9192 0 64.2461 14.3269 64.2461 32V32C64.2461 49.6731 49.9192 64 32.2461 64V64C14.573 64 0.246094 49.6731 0.246094 32V32Z" fill="white"/>
</clipPath>
</defs>
</svg>
