<svg width="65" height="64" viewBox="0 0 65 64" fill="none" xmlns="http://www.w3.org/2000/svg">
<g id="Rounded=Guam (GU)">
<g clip-path="url(#clip0_2909_185460)">
<path id="Vector" fill-rule="evenodd" clip-rule="evenodd" d="M0.246094 0H64.2461V64H0.246094V0Z" fill="#BE0027"/>
<path id="Vector_2" fill-rule="evenodd" clip-rule="evenodd" d="M2.80859 2.5625H61.5586V61.4375H2.80859V2.5625Z" fill="#3B5AA3"/>
<path id="Vector_3" fill-rule="evenodd" clip-rule="evenodd" d="M31.7334 49.5125C31.9584 49.6375 32.3209 49.6375 32.5209 49.525C45.4334 42.65 45.4459 23.8 32.5334 17.025C32.404 16.964 32.2624 16.9335 32.1194 16.9356C31.9765 16.9378 31.8359 16.9726 31.7084 17.0375C19.1209 23.925 19.0834 42.5625 31.7334 49.5125Z" fill="#CBE0E5"/>
<path id="Vector_4" fill-rule="evenodd" clip-rule="evenodd" d="M31.734 49.8625C31.934 50.025 32.334 50 32.5215 49.8625C42.034 42.7375 42.0965 38.3 41.6715 38.3H22.834C22.5465 38.3 22.9965 42.8125 31.734 49.85V49.8625Z" fill="#ADD2D9"/>
<path id="Vector_5" fill-rule="evenodd" clip-rule="evenodd" d="M24.3211 41.825C25.1822 41.5555 26.1125 41.6134 26.9336 41.9875C27.6461 42.3625 28.0586 42.3625 28.8211 42.3625C29.6336 42.375 30.2586 42.975 31.1336 42.9875C32.7336 43.0375 33.4211 43.825 32.1711 43.8375C31.5836 43.8375 30.3211 43.4375 29.7086 43.525C28.4336 43.65 27.6211 43.9375 26.4211 45.275L27.8086 46.225C29.0086 45.725 29.2086 45.1875 29.8711 45.1625C30.6211 45.1375 30.8711 44.6625 31.7461 44.6625C32.7336 44.85 34.0586 44.5375 34.8461 44.375C36.2336 44.05 35.5711 43.0875 34.7336 42.725C34.0586 42.4375 32.7836 42.725 31.9836 42.4375C31.3961 42.2 31.8836 41.825 32.2086 41.75C32.5336 41.6875 32.8836 41.8 33.2836 41.8625C34.0086 41.925 34.9086 41.8625 35.5336 41.75C36.8461 41.55 36.7836 41.1625 37.4211 41.1625C37.8267 41.1504 38.2191 41.0153 38.5461 40.775C38.9211 40.525 39.2961 40.025 39.7461 40.0375L40.9461 40.0875L39.2461 43.875L34.4961 48.725L32.0211 49.6625L26.6211 46.125L23.8711 41.9375L24.3086 41.825H24.3211Z" fill="#FDF9A1"/>
<path id="Vector_6" fill-rule="evenodd" clip-rule="evenodd" d="M30.5459 38.1375L41.4209 38.0875L41.6209 37.125L40.9209 37.05C40.5209 37.025 39.8584 37.4625 39.4084 37.4625C39.0834 37.4625 38.7209 36.8875 38.4084 36.9C37.8584 36.9 37.8084 37.4 37.2834 37.4C36.8584 37.4 36.6834 37.075 36.1334 37.1C35.5584 37.1375 35.6084 37.45 34.8834 37.4375C33.9209 37.4125 33.5459 36.575 32.7834 36.5625C31.4959 36.5625 31.4584 37.7875 30.5459 38.1375V38.1375Z" fill="#179A3B"/>
<path id="Vector_7" fill-rule="evenodd" clip-rule="evenodd" d="M30.5459 38.375L41.7459 38.3125V38.0125L30.2959 38.075L30.5459 38.375Z" fill="#FDF9A1"/>
<path id="Vector_8" fill-rule="evenodd" clip-rule="evenodd" d="M35.1465 41.75C35.3215 42.4 35.509 42.625 36.1965 42.8C36.884 42.9625 37.934 42.3 37.284 41.65C36.659 41.05 36.009 40.9 35.459 40.35C34.284 39.2 32.5215 36.3625 32.5215 34.375C32.5215 32.65 32.359 29.1375 32.359 25.8125C32.359 25.5875 31.709 26.4125 31.709 26.625C31.734 29.575 31.734 31.7875 31.8465 34.75C32.034 36.925 33.0715 38.375 33.9715 39.7C34.384 40.325 34.9715 41.0125 35.1465 41.7375V41.75Z" fill="#A79270"/>
<g id="G">
<path d="M28.2184 32.5125C28.1934 32.436 28.1605 32.3674 28.1196 32.3068C28.0794 32.2454 28.0313 32.1932 27.9752 32.15C27.9199 32.1068 27.8571 32.0739 27.7866 32.0511C27.7162 32.0284 27.6389 32.017 27.5548 32.017C27.4169 32.017 27.2915 32.0526 27.1787 32.1239C27.0658 32.1951 26.976 32.3 26.9093 32.4386C26.8427 32.5773 26.8093 32.7473 26.8093 32.9489C26.8093 33.1504 26.8431 33.3204 26.9105 33.4591C26.9779 33.5977 27.0692 33.7026 27.1843 33.7739C27.2995 33.8451 27.429 33.8807 27.573 33.8807C27.7063 33.8807 27.8237 33.8523 27.9252 33.7954C28.0275 33.7379 28.1071 33.6568 28.1639 33.5523C28.2215 33.447 28.2502 33.3231 28.2502 33.1807L28.3366 33.1989H27.6366V32.9489H28.523V33.1989C28.523 33.3905 28.4821 33.5572 28.4002 33.6989C28.3192 33.8405 28.2071 33.9504 28.0639 34.0284C27.9215 34.1057 27.7578 34.1443 27.573 34.1443C27.3669 34.1443 27.1859 34.0958 27.0298 33.9989C26.8745 33.9019 26.7533 33.764 26.6662 33.5852C26.5798 33.4064 26.5366 33.1943 26.5366 32.9489C26.5366 32.7648 26.5612 32.5992 26.6105 32.4523C26.6605 32.3045 26.7309 32.1788 26.8218 32.075C26.9127 31.9712 27.0203 31.8917 27.1446 31.8364C27.2688 31.781 27.4056 31.7534 27.5548 31.7534C27.6775 31.7534 27.7919 31.772 27.898 31.8091C28.0048 31.8454 28.0999 31.8973 28.1832 31.9648C28.2673 32.0314 28.3374 32.1114 28.3934 32.2045C28.4495 32.297 28.4881 32.3996 28.5093 32.5125H28.2184Z" fill="#BD0728"/>
<path d="M28.2184 32.5125L28.1234 32.5435L28.1459 32.6125H28.2184V32.5125ZM28.1196 32.3068L28.0359 32.3616L28.0367 32.3628L28.1196 32.3068ZM27.9752 32.15L27.9137 32.2288L27.9142 32.2292L27.9752 32.15ZM27.7866 32.0511L27.8173 31.956L27.8173 31.956L27.7866 32.0511ZM26.9093 32.4386L26.9995 32.482L26.9995 32.482L26.9093 32.4386ZM26.9105 33.4591L26.8205 33.5028L26.8205 33.5028L26.9105 33.4591ZM27.1843 33.7739L27.1317 33.8589L27.1843 33.7739ZM27.9252 33.7954L27.9741 33.8827L27.9743 33.8826L27.9252 33.7954ZM28.1639 33.5523L28.0761 33.5043L28.076 33.5045L28.1639 33.5523ZM28.2502 33.1807L28.2708 33.0828L28.1502 33.0574V33.1807H28.2502ZM28.3366 33.1989V33.2989L28.3572 33.101L28.3366 33.1989ZM27.6366 33.1989H27.5366V33.2989H27.6366V33.1989ZM27.6366 32.9489V32.8489H27.5366V32.9489H27.6366ZM28.523 32.9489H28.623V32.8489H28.523V32.9489ZM28.4002 33.6989L28.3137 33.6488L28.3135 33.6492L28.4002 33.6989ZM28.0639 34.0284L28.1116 34.1163L28.1117 34.1162L28.0639 34.0284ZM27.0298 33.9989L26.9768 34.0837L26.977 34.0838L27.0298 33.9989ZM26.6662 33.5852L26.5761 33.6287L26.5763 33.629L26.6662 33.5852ZM26.6105 32.4523L26.5158 32.4202L26.5157 32.4205L26.6105 32.4523ZM26.8218 32.075L26.8971 32.1409L26.8971 32.1409L26.8218 32.075ZM27.1446 31.8364L27.1039 31.745L27.1446 31.8364ZM27.898 31.8091L27.8649 31.9035L27.8657 31.9037L27.898 31.8091ZM28.1832 31.9648L28.1203 32.0425L28.1211 32.0431L28.1832 31.9648ZM28.3934 32.2045L28.3077 32.2561L28.3079 32.2564L28.3934 32.2045ZM28.5093 32.5125V32.6125H28.6299L28.6076 32.494L28.5093 32.5125ZM28.3135 32.4814C28.2859 32.397 28.249 32.3199 28.2025 32.2509L28.0367 32.3628C28.0719 32.4149 28.101 32.475 28.1234 32.5435L28.3135 32.4814ZM28.2032 32.2521C28.1572 32.1817 28.1015 32.121 28.0363 32.0708L27.9142 32.2292C27.9611 32.2653 28.0016 32.3092 28.0359 32.3616L28.2032 32.2521ZM28.0368 32.0712C27.9717 32.0204 27.8983 31.9821 27.8173 31.956L27.7559 32.1463C27.8158 32.1656 27.8681 32.1932 27.9137 32.2288L28.0368 32.0712ZM27.8173 31.956C27.7357 31.9296 27.6479 31.917 27.5548 31.917V32.117C27.6299 32.117 27.6966 32.1272 27.7559 32.1463L27.8173 31.956ZM27.5548 31.917C27.3987 31.917 27.2547 31.9576 27.1253 32.0393L27.232 32.2084C27.3284 32.1476 27.4351 32.117 27.5548 32.117V31.917ZM27.1253 32.0393C26.9942 32.122 26.8928 32.2424 26.8192 32.3953L26.9995 32.482C27.0593 32.3576 27.1373 32.2682 27.232 32.2084L27.1253 32.0393ZM26.8192 32.3953C26.7444 32.551 26.7093 32.7368 26.7093 32.9489H26.9093C26.9093 32.7579 26.941 32.6036 26.9995 32.482L26.8192 32.3953ZM26.7093 32.9489C26.7093 33.161 26.7448 33.347 26.8205 33.5028L27.0004 33.4153C26.9413 33.2939 26.9093 33.1397 26.9093 32.9489H26.7093ZM26.8205 33.5028C26.8951 33.6561 26.9983 33.7764 27.1317 33.8589L27.2369 33.6888C27.14 33.6289 27.0607 33.5394 27.0004 33.4153L26.8205 33.5028ZM27.1317 33.8589C27.2637 33.9405 27.4117 33.9807 27.573 33.9807V33.7807C27.4464 33.7807 27.3353 33.7496 27.2369 33.6888L27.1317 33.8589ZM27.573 33.9807C27.7209 33.9807 27.8556 33.949 27.9741 33.8827L27.8764 33.7082C27.7919 33.7555 27.6917 33.7807 27.573 33.7807V33.9807ZM27.9743 33.8826C28.0932 33.8157 28.1861 33.7208 28.2517 33.6L28.076 33.5045C28.028 33.5928 27.9618 33.6601 27.8762 33.7083L27.9743 33.8826ZM28.2516 33.6002C28.3186 33.4777 28.3502 33.3367 28.3502 33.1807H28.1502C28.1502 33.3095 28.1243 33.4162 28.0761 33.5043L28.2516 33.6002ZM28.2296 33.2785L28.316 33.2967L28.3572 33.101L28.2708 33.0828L28.2296 33.2785ZM28.3366 33.0989H27.6366V33.2989H28.3366V33.0989ZM27.7366 33.1989V32.9489H27.5366V33.1989H27.7366ZM27.6366 33.0489H28.523V32.8489H27.6366V33.0489ZM28.423 32.9489V33.1989H28.623V32.9489H28.423ZM28.423 33.1989C28.423 33.376 28.3853 33.5248 28.3137 33.6488L28.4868 33.7489C28.5788 33.5896 28.623 33.405 28.623 33.1989H28.423ZM28.3135 33.6492C28.2416 33.7748 28.1429 33.8714 28.016 33.9406L28.1117 34.1162C28.2712 34.0293 28.3968 33.9062 28.487 33.7485L28.3135 33.6492ZM28.0162 33.9405C27.8904 34.0088 27.7435 34.0443 27.573 34.0443V34.2443C27.7721 34.2443 27.9526 34.2026 28.1116 34.1163L28.0162 33.9405ZM27.573 34.0443C27.3832 34.0443 27.2209 33.9999 27.0826 33.9139L26.977 34.0838C27.1508 34.1918 27.3506 34.2443 27.573 34.2443V34.0443ZM27.0828 33.914C26.9447 33.8279 26.8357 33.7048 26.7561 33.5414L26.5763 33.629C26.6709 33.8232 26.8042 33.9759 26.9768 34.0837L27.0828 33.914ZM26.7562 33.5417C26.6778 33.3793 26.6366 33.1827 26.6366 32.9489H26.4366C26.4366 33.2059 26.4818 33.4335 26.5761 33.6287L26.7562 33.5417ZM26.6366 32.9489C26.6366 32.7736 26.6601 32.619 26.7053 32.484L26.5157 32.4205C26.4624 32.5794 26.4366 32.7559 26.4366 32.9489H26.6366ZM26.7052 32.4843C26.7515 32.3474 26.8159 32.2336 26.8971 32.1409L26.7466 32.0091C26.646 32.124 26.5694 32.2616 26.5158 32.4202L26.7052 32.4843ZM26.8971 32.1409C26.9786 32.0478 27.0744 31.977 27.1852 31.9277L27.1039 31.745C26.9662 31.8063 26.8469 31.8946 26.7466 32.0091L26.8971 32.1409ZM27.1852 31.9277C27.2955 31.8786 27.4182 31.8534 27.5548 31.8534V31.6534C27.3929 31.6534 27.2421 31.6835 27.1039 31.745L27.1852 31.9277ZM27.5548 31.8534C27.6673 31.8534 27.7704 31.8704 27.8649 31.9035L27.931 31.7147C27.8134 31.6735 27.6877 31.6534 27.5548 31.6534V31.8534ZM27.8657 31.9037C27.962 31.9365 28.0466 31.9829 28.1203 32.0425L28.2461 31.887C28.1531 31.8118 28.0476 31.7544 27.9302 31.7144L27.8657 31.9037ZM28.1211 32.0431C28.1956 32.1022 28.2578 32.173 28.3077 32.2561L28.4791 32.153C28.417 32.0497 28.3389 31.9606 28.2453 31.8864L28.1211 32.0431ZM28.3079 32.2564C28.3574 32.3379 28.3919 32.4291 28.4111 32.531L28.6076 32.494C28.5843 32.3701 28.5416 32.256 28.4789 32.1527L28.3079 32.2564ZM28.5093 32.4125H28.2184V32.6125H28.5093V32.4125Z" fill="#F5F5F5"/>
</g>
<g id="U">
<path d="M31.0298 31.7977H31.3116V33.3386C31.3116 33.4977 31.2741 33.6398 31.1991 33.7648C31.1249 33.889 31.0199 33.9871 30.8843 34.0591C30.7487 34.1303 30.5896 34.1659 30.4071 34.1659C30.2245 34.1659 30.0654 34.1303 29.9298 34.0591C29.7942 33.9871 29.6889 33.889 29.6139 33.7648C29.5396 33.6398 29.5025 33.4977 29.5025 33.3386V31.7977H29.7843V33.3159C29.7843 33.4295 29.8093 33.5307 29.8593 33.6193C29.9093 33.7072 29.9806 33.7765 30.073 33.8273C30.1662 33.8773 30.2775 33.9023 30.4071 33.9023C30.5366 33.9023 30.648 33.8773 30.7412 33.8273C30.8343 33.7765 30.9056 33.7072 30.9548 33.6193C31.0048 33.5307 31.0298 33.4295 31.0298 33.3159V31.7977Z" fill="#BD0728"/>
<path d="M31.0298 31.7977V31.6977H30.9298V31.7977H31.0298ZM31.3116 31.7977H31.4116V31.6977H31.3116V31.7977ZM31.1991 33.7648L31.1134 33.7133L31.1133 33.7135L31.1991 33.7648ZM30.8843 34.0591L30.9308 34.1476L30.9312 34.1474L30.8843 34.0591ZM29.9298 34.0591L29.8829 34.1474L29.8833 34.1476L29.9298 34.0591ZM29.6139 33.7648L29.5279 33.8158L29.5283 33.8165L29.6139 33.7648ZM29.5025 31.7977V31.6977H29.4025V31.7977H29.5025ZM29.7843 31.7977H29.8843V31.6977H29.7843V31.7977ZM29.8593 33.6193L29.7722 33.6685L29.7724 33.6688L29.8593 33.6193ZM30.073 33.8273L30.0248 33.9149L30.0257 33.9154L30.073 33.8273ZM30.7412 33.8273L30.7884 33.9154L30.789 33.9151L30.7412 33.8273ZM30.9548 33.6193L30.8677 33.5702L30.8676 33.5704L30.9548 33.6193ZM31.0298 31.8977H31.3116V31.6977H31.0298V31.8977ZM31.2116 31.7977V33.3386H31.4116V31.7977H31.2116ZM31.2116 33.3386C31.2116 33.4813 31.1782 33.6053 31.1134 33.7133L31.2849 33.8162C31.37 33.6743 31.4116 33.5141 31.4116 33.3386H31.2116ZM31.1133 33.7135C31.049 33.8211 30.958 33.9068 30.8375 33.9708L30.9312 34.1474C31.0819 34.0674 31.2008 33.9569 31.285 33.8161L31.1133 33.7135ZM30.8378 33.9706C30.7191 34.0329 30.5765 34.0659 30.4071 34.0659V34.2659C30.6027 34.2659 30.7784 34.2277 30.9308 34.1476L30.8378 33.9706ZM30.4071 34.0659C30.2376 34.0659 30.095 34.0329 29.9763 33.9706L29.8833 34.1476C30.0358 34.2277 30.2114 34.2659 30.4071 34.2659V34.0659ZM29.9767 33.9708C29.8561 33.9068 29.7646 33.8209 29.6995 33.7131L29.5283 33.8165C29.6132 33.9571 29.7323 34.0675 29.8829 34.1474L29.9767 33.9708ZM29.6999 33.7137C29.6357 33.6056 29.6025 33.4815 29.6025 33.3386H29.4025C29.4025 33.514 29.4436 33.6739 29.5279 33.8158L29.6999 33.7137ZM29.6025 33.3386V31.7977H29.4025V33.3386H29.6025ZM29.5025 31.8977H29.7843V31.6977H29.5025V31.8977ZM29.6843 31.7977V33.3159H29.8843V31.7977H29.6843ZM29.6843 33.3159C29.6843 33.4447 29.7128 33.5631 29.7722 33.6685L29.9464 33.5702C29.9058 33.4982 29.8843 33.4144 29.8843 33.3159H29.6843ZM29.7724 33.6688C29.832 33.7734 29.9169 33.8557 30.0248 33.9149L30.1211 33.7396C30.0442 33.6974 29.9867 33.641 29.9463 33.5699L29.7724 33.6688ZM30.0257 33.9154C30.1363 33.9748 30.2647 34.0023 30.4071 34.0023V33.8023C30.2904 33.8023 30.196 33.7798 30.1203 33.7392L30.0257 33.9154ZM30.4071 34.0023C30.5494 34.0023 30.6778 33.9748 30.7884 33.9154L30.6939 33.7392C30.6182 33.7798 30.5238 33.8023 30.4071 33.8023V34.0023ZM30.789 33.9151C30.8978 33.8558 30.9831 33.7734 31.042 33.6682L30.8676 33.5704C30.828 33.641 30.7709 33.6972 30.6933 33.7395L30.789 33.9151ZM31.0419 33.6685C31.1013 33.5631 31.1298 33.4447 31.1298 33.3159H30.9298C30.9298 33.4144 30.9083 33.4982 30.8677 33.5702L31.0419 33.6685ZM31.1298 33.3159V31.7977H30.9298V33.3159H31.1298Z" fill="#F5F5F5"/>
</g>
<g id="A">
<path d="M33.0863 34.125H32.7908L33.6453 31.7977H33.9363L34.7908 34.125H34.4953L33.7999 32.1659H33.7817L33.0863 34.125ZM33.1953 33.2159H34.3863V33.4659H33.1953V33.2159Z" fill="#BD0728"/>
<path d="M33.0863 34.125V34.225H33.1569L33.1805 34.1585L33.0863 34.125ZM32.7908 34.125L32.6969 34.0905L32.6476 34.225H32.7908V34.125ZM33.6453 31.7977V31.6977H33.5755L33.5515 31.7633L33.6453 31.7977ZM33.9363 31.7977L34.0301 31.7633L34.0061 31.6977H33.9363V31.7977ZM34.7908 34.125V34.225H34.934L34.8847 34.0905L34.7908 34.125ZM34.4953 34.125L34.4011 34.1585L34.4247 34.225H34.4953V34.125ZM33.7999 32.1659L33.8941 32.1325L33.8705 32.0659H33.7999V32.1659ZM33.7817 32.1659V32.0659H33.7111L33.6875 32.1325L33.7817 32.1659ZM33.1953 33.2159V33.1159H33.0953V33.2159H33.1953ZM34.3863 33.2159H34.4863V33.1159H34.3863V33.2159ZM34.3863 33.4659V33.5659H34.4863V33.4659H34.3863ZM33.1953 33.4659H33.0953V33.5659H33.1953V33.4659ZM33.0863 34.025H32.7908V34.225H33.0863V34.025ZM32.8847 34.1595L33.7392 31.8322L33.5515 31.7633L32.6969 34.0905L32.8847 34.1595ZM33.6453 31.8977H33.9363V31.6977H33.6453V31.8977ZM33.8424 31.8322L34.6969 34.1595L34.8847 34.0905L34.0301 31.7633L33.8424 31.8322ZM34.7908 34.025H34.4953V34.225H34.7908V34.025ZM34.5896 34.0915L33.8941 32.1325L33.7057 32.1994L34.4011 34.1585L34.5896 34.0915ZM33.7999 32.0659H33.7817V32.2659H33.7999V32.0659ZM33.6875 32.1325L32.992 34.0915L33.1805 34.1585L33.876 32.1994L33.6875 32.1325ZM33.1953 33.3159H34.3863V33.1159H33.1953V33.3159ZM34.2863 33.2159V33.4659H34.4863V33.2159H34.2863ZM34.3863 33.3659H33.1953V33.5659H34.3863V33.3659ZM33.2953 33.4659V33.2159H33.0953V33.4659H33.2953Z" fill="#F5F5F5"/>
</g>
<g id="M">
<path d="M35.9283 31.7852H36.2647L37.0556 33.717H37.0828L37.8738 31.7852H38.2101V34.1125H37.9465V32.3443H37.9238L37.1965 34.1125H36.9419L36.2147 32.3443H36.1919V34.1125H35.9283V31.7852Z" fill="#BD0728"/>
<path d="M35.9283 31.7852V31.6852H35.8283V31.7852H35.9283ZM36.2647 31.7852L36.3572 31.7473L36.3318 31.6852H36.2647V31.7852ZM37.0556 33.717L36.963 33.7549L36.9885 33.817H37.0556V33.717ZM37.0828 33.717V33.817H37.15L37.1754 33.7549L37.0828 33.717ZM37.8738 31.7852V31.6852H37.8066L37.7812 31.7473L37.8738 31.7852ZM38.2101 31.7852H38.3101V31.6852H38.2101V31.7852ZM38.2101 34.1125V34.2125H38.3101V34.1125H38.2101ZM37.9465 34.1125H37.8465V34.2125H37.9465V34.1125ZM37.9465 32.3443H38.0465V32.2443H37.9465V32.3443ZM37.9238 32.3443V32.2443H37.8568L37.8313 32.3063L37.9238 32.3443ZM37.1965 34.1125V34.2125H37.2635L37.289 34.1505L37.1965 34.1125ZM36.9419 34.1125L36.8495 34.1505L36.8749 34.2125H36.9419V34.1125ZM36.2147 32.3443L36.3071 32.3063L36.2817 32.2443H36.2147V32.3443ZM36.1919 32.3443V32.2443H36.0919V32.3443H36.1919ZM36.1919 34.1125V34.2125H36.2919V34.1125H36.1919ZM35.9283 34.1125H35.8283V34.2125H35.9283V34.1125ZM35.9283 31.8852H36.2647V31.6852H35.9283V31.8852ZM36.1721 31.8231L36.963 33.7549L37.1481 33.6791L36.3572 31.7473L36.1721 31.8231ZM37.0556 33.817H37.0828V33.617H37.0556V33.817ZM37.1754 33.7549L37.9663 31.8231L37.7812 31.7473L36.9903 33.6791L37.1754 33.7549ZM37.8738 31.8852H38.2101V31.6852H37.8738V31.8852ZM38.1101 31.7852V34.1125H38.3101V31.7852H38.1101ZM38.2101 34.0125H37.9465V34.2125H38.2101V34.0125ZM38.0465 34.1125V32.3443H37.8465V34.1125H38.0465ZM37.9465 32.2443H37.9238V32.4443H37.9465V32.2443ZM37.8313 32.3063L37.104 34.0744L37.289 34.1505L38.0162 32.3823L37.8313 32.3063ZM37.1965 34.0125H36.9419V34.2125H37.1965V34.0125ZM37.0344 34.0744L36.3071 32.3063L36.1222 32.3823L36.8495 34.1505L37.0344 34.0744ZM36.2147 32.2443H36.1919V32.4443H36.2147V32.2443ZM36.0919 32.3443V34.1125H36.2919V32.3443H36.0919ZM36.1919 34.0125H35.9283V34.2125H36.1919V34.0125ZM36.0283 34.1125V31.7852H35.8283V34.1125H36.0283Z" fill="#F5F5F5"/>
</g>
<path id="Vector_9" fill-rule="evenodd" clip-rule="evenodd" d="M26.7335 25.9125C26.5835 26.1875 27.071 25.8375 27.1835 25.7875C27.8085 25.575 28.0585 24.7875 29.1335 25.25C29.9835 25.625 31.1335 25.4125 30.5335 25.775C29.7835 26.225 28.321 26.7125 28.2835 28.9C28.4085 29.1125 28.4335 29.075 28.5335 28.85C28.746 28.35 29.821 26.95 30.346 27.075C30.5585 27.125 31.171 26.45 31.196 26.6375C31.246 27.1875 30.346 28.2875 30.3585 29.7625C30.3585 30.1125 30.7835 30.225 30.9835 29.9875C31.1835 29.775 31.296 29.55 31.6585 29.275C32.2835 28.7625 32.1085 26.5875 32.1835 26.6875C32.621 27.2625 32.6835 28.875 33.3585 29.5375C33.896 30.0875 34.346 29.825 34.2335 29.0625C33.9835 27.525 33.2585 27.9625 32.921 26.375C32.846 26.0625 32.8335 25.7875 33.2335 25.9125C33.7335 26.0625 34.0335 26.2875 34.4085 26.8625C34.7835 27.4 35.471 27.9125 35.8835 28.2375C36.5835 28.775 36.8335 28.3 36.496 27.6125C36.0667 26.8185 35.3655 26.2061 34.521 25.8875C33.946 25.6875 33.7335 25.675 33.221 25.575C33.096 25.55 32.9335 25.25 33.1835 25.1C33.7294 24.7066 34.3657 24.4572 35.0335 24.375C35.6585 24.3625 36.1585 24.8625 36.596 25C37.4835 25.225 37.471 24.6625 37.096 24.25C36.771 23.9 36.096 23.3125 35.471 23.375C34.196 23.5375 34.271 23.5 33.496 24.025C33.2085 24.1875 32.896 24.375 33.0085 24.175C33.296 23.6625 33.021 23.75 33.471 23.225C33.8085 22.85 34.0585 22.5625 34.4085 22.475C34.7335 22.3875 35.1585 22.05 35.2835 21.875C35.6085 21.4375 35.3335 21.1875 34.846 21.3375C34.421 21.4625 34.1835 21.7375 33.896 21.8125C33.2085 22.025 32.646 23.6 32.571 23.8125C32.4585 24.0875 32.346 23.95 32.3585 23.725C32.4585 22.625 32.5585 20.7625 32.171 20C31.5835 18.875 31.6335 19.4 31.4085 19.9375C31.1304 20.739 31.1304 21.6109 31.4085 22.4125C31.496 22.825 31.8335 23.2875 31.9085 23.625C31.946 23.875 31.746 23.5375 31.646 23.3875C31.271 22.825 30.996 22.4375 30.396 22.1375C29.7942 21.892 29.1341 21.8269 28.496 21.95C28.3335 22 28.6835 22.25 28.8335 22.3625C29.2335 22.6875 29.996 22.7875 30.5085 23.1125C30.9585 23.3625 31.296 23.55 31.4335 23.925C31.496 24.2 31.5835 24.6125 31.4085 24.6C30.921 24.575 30.171 24.1625 28.6335 24.325C27.846 24.4375 27.171 25.1125 26.7335 25.9125V25.9125Z" fill="#239E46"/>
<path id="Vector_10" fill-rule="evenodd" clip-rule="evenodd" d="M30.084 39.975H30.534V40.725H30.084V39.975Z" fill="black"/>
<path id="Vector_11" fill-rule="evenodd" clip-rule="evenodd" d="M27.8711 35.025C29.6336 37.475 32.4711 38.9 32.5336 40.025L26.9961 40C28.2586 38.475 29.0336 37.4375 27.8586 35.0125L27.8711 35.025Z" fill="#FDF9FF"/>
<path id="Vector_12" fill-rule="evenodd" clip-rule="evenodd" d="M26.2584 40.075C28.6709 40.6125 31.5334 40.9 33.3709 40C33.3709 40.5375 32.7709 41.3 32.2709 41.3H27.6584C28.1959 41.225 28.4959 41.0625 29.3709 41.0125L26.9209 41.05C26.6584 41.05 26.1709 40.3375 26.2584 40.075V40.075Z" fill="#A68861"/>
<path id="Vector_13" fill-rule="evenodd" clip-rule="evenodd" d="M31.7084 50.75C31.8414 50.8124 31.9865 50.8448 32.1334 50.8448C32.2803 50.8448 32.4254 50.8124 32.5584 50.75C46.4459 43.3625 46.4584 23.0875 32.5834 15.8C32.4454 15.7317 32.2936 15.6961 32.1396 15.6961C31.9857 15.6961 31.8339 15.7317 31.6959 15.8C18.1584 23.2125 18.1209 43.2625 31.7084 50.7375V50.75ZM31.7834 49.075C31.8989 49.1287 32.0248 49.1565 32.1522 49.1565C32.2795 49.1565 32.4054 49.1287 32.5209 49.075C44.1459 42.2375 44.2834 24.1625 32.5334 17.6875C32.3084 17.525 31.9834 17.575 31.7584 17.6875C20.6334 24.275 20.0084 41.6125 31.7834 49.0625V49.075Z" fill="#BE0027"/>
<path id="G_2" d="M28.2184 32.5125C28.1934 32.436 28.1605 32.3674 28.1196 32.3068C28.0794 32.2454 28.0313 32.1932 27.9752 32.15C27.9199 32.1068 27.8571 32.0739 27.7866 32.0511C27.7162 32.0284 27.6389 32.017 27.5548 32.017C27.4169 32.017 27.2915 32.0526 27.1787 32.1239C27.0658 32.1951 26.976 32.3 26.9093 32.4386C26.8427 32.5773 26.8093 32.7473 26.8093 32.9489C26.8093 33.1504 26.8431 33.3204 26.9105 33.4591C26.9779 33.5977 27.0692 33.7026 27.1843 33.7739C27.2995 33.8451 27.429 33.8807 27.573 33.8807C27.7063 33.8807 27.8237 33.8523 27.9252 33.7954C28.0275 33.7379 28.1071 33.6568 28.1639 33.5523C28.2215 33.447 28.2502 33.3231 28.2502 33.1807L28.3366 33.1989H27.6366V32.9489H28.523V33.1989C28.523 33.3905 28.4821 33.5572 28.4002 33.6989C28.3192 33.8405 28.2071 33.9504 28.0639 34.0284C27.9215 34.1057 27.7578 34.1443 27.573 34.1443C27.3669 34.1443 27.1859 34.0958 27.0298 33.9989C26.8745 33.9019 26.7533 33.764 26.6662 33.5852C26.5798 33.4064 26.5366 33.1943 26.5366 32.9489C26.5366 32.7648 26.5612 32.5992 26.6105 32.4523C26.6605 32.3045 26.7309 32.1788 26.8218 32.075C26.9127 31.9712 27.0203 31.8917 27.1446 31.8364C27.2688 31.781 27.4056 31.7534 27.5548 31.7534C27.6775 31.7534 27.7919 31.772 27.898 31.8091C28.0048 31.8454 28.0999 31.8973 28.1832 31.9648C28.2673 32.0314 28.3374 32.1114 28.3934 32.2045C28.4495 32.297 28.4881 32.3996 28.5093 32.5125H28.2184Z" fill="#BD0728"/>
<path id="U_2" d="M31.0298 31.7977H31.3116V33.3386C31.3116 33.4977 31.2741 33.6398 31.1991 33.7648C31.1249 33.889 31.0199 33.9871 30.8843 34.0591C30.7487 34.1303 30.5896 34.1659 30.4071 34.1659C30.2245 34.1659 30.0654 34.1303 29.9298 34.0591C29.7942 33.9871 29.6889 33.889 29.6139 33.7648C29.5396 33.6398 29.5025 33.4977 29.5025 33.3386V31.7977H29.7843V33.3159C29.7843 33.4295 29.8093 33.5307 29.8593 33.6193C29.9093 33.7072 29.9806 33.7765 30.073 33.8273C30.1662 33.8773 30.2775 33.9023 30.4071 33.9023C30.5366 33.9023 30.648 33.8773 30.7412 33.8273C30.8343 33.7765 30.9056 33.7072 30.9548 33.6193C31.0048 33.5307 31.0298 33.4295 31.0298 33.3159V31.7977Z" fill="#BD0728"/>
<path id="A_2" d="M33.0863 34.125H32.7908L33.6453 31.7977H33.9363L34.7908 34.125H34.4953L33.7999 32.1659H33.7817L33.0863 34.125ZM33.1953 33.2159H34.3863V33.4659H33.1953V33.2159Z" fill="#BD0728"/>
<path id="M_2" d="M35.9283 31.7852H36.2647L37.0556 33.717H37.0828L37.8738 31.7852H38.2101V34.1125H37.9465V32.3443H37.9238L37.1965 34.1125H36.9419L36.2147 32.3443H36.1919V34.1125H35.9283V31.7852Z" fill="#BD0728"/>
</g>
</g>
<defs>
<clipPath id="clip0_2909_185460">
<path d="M0.246094 32C0.246094 14.3269 14.573 0 32.2461 0V0C49.9192 0 64.2461 14.3269 64.2461 32V32C64.2461 49.6731 49.9192 64 32.2461 64V64C14.573 64 0.246094 49.6731 0.246094 32V32Z" fill="white"/>
</clipPath>
</defs>
</svg>
