<svg width="65" height="64" viewBox="0 0 65 64" fill="none" xmlns="http://www.w3.org/2000/svg">
<g id="Rounded=Guyana (GY)">
<g clip-path="url(#clip0_2909_185396)">
<g id="Group">
<path id="Vector" fill-rule="evenodd" clip-rule="evenodd" d="M0.496094 0H64.2461V64H0.496094V0Z" fill="#399408"/>
<path id="Vector_2" fill-rule="evenodd" clip-rule="evenodd" d="M0.258594 0C0.183594 0 62.2211 32.2 62.2211 32.2L0.246094 63.9625L0.258594 0Z" fill="#F5F5F5"/>
<path id="Vector_3" fill-rule="evenodd" clip-rule="evenodd" d="M0.271484 2.68749C0.621484 2.68749 56.184 31.75 55.8715 32.025L0.433984 61.775L0.271484 2.67499V2.68749Z" fill="#FFDE08"/>
<path id="Vector_4" fill-rule="evenodd" clip-rule="evenodd" d="M0.433594 0.100006C0.621094 0.100006 29.5336 32.225 29.5336 32.225L0.433594 63.6V0.100006Z" fill="black"/>
<path id="Vector_5" fill-rule="evenodd" clip-rule="evenodd" d="M0.271484 4.52501C0.446484 2.52501 26.3715 32.3125 26.3715 32.3125L0.271484 60.225V4.52501Z" fill="#DE2110"/>
</g>
</g>
</g>
<defs>
<clipPath id="clip0_2909_185396">
<path d="M0.246094 32C0.246094 14.3269 14.573 0 32.2461 0V0C49.9192 0 64.2461 14.3269 64.2461 32V32C64.2461 49.6731 49.9192 64 32.2461 64V64C14.573 64 0.246094 49.6731 0.246094 32V32Z" fill="white"/>
</clipPath>
</defs>
</svg>
