<svg width="65" height="64" viewBox="0 0 65 64" fill="none" xmlns="http://www.w3.org/2000/svg">
<g id="Rounded=Hong Kong (HK)">
<g clip-path="url(#clip0_2909_185392)">
<g id="Group">
<path id="Vector" fill-rule="evenodd" clip-rule="evenodd" d="M79.0838 65.1087H-13.9287V0H79.0838V65.1087Z" fill="#BA0000"/>
<path id="Vector_2" fill-rule="evenodd" clip-rule="evenodd" d="M31.2567 31.5087C31.2567 31.5087 24.6942 28.6825 25.6305 21.3587C26.5405 17.8325 28.1505 15.435 31.073 14.1312C32.4419 13.7336 33.8503 13.4871 35.273 13.3962C34.888 13.7462 34.573 14.105 34.4155 14.5512C34.1005 15.3562 34.328 16.1262 34.748 16.8962C35.2937 17.812 35.6174 18.8429 35.693 19.9062C35.789 20.721 35.668 21.5466 35.3423 22.2995C35.0165 23.0525 34.4976 23.7059 33.838 24.1937C32.998 24.8325 32.0005 25.06 31.1955 25.795C30.5378 26.3954 30.1262 27.2185 30.0405 28.105C30.0142 30.1525 30.5742 30.4412 31.2567 31.5175V31.5087Z" fill="#F5F5F5"/>
<g id="Vector_3">
<path fill-rule="evenodd" clip-rule="evenodd" d="M30.0049 20.9125V20.8863Z" fill="#BA0000"/>
<path d="M30.0049 20.9125V20.8863" stroke="black" stroke-width="0.27125"/>
</g>
<path id="Vector_4" d="M30.4249 30.7475C27.8699 28.49 28.0887 22.8113 30.0399 20.9125" stroke="#BA0000" stroke-width="0.27125"/>
<path id="Vector_5" fill-rule="evenodd" clip-rule="evenodd" d="M29.9873 19.5125L30.8273 19.3288L30.9236 18.5063L31.3436 19.2063L32.1836 19.0225L31.6061 19.6438L32.0261 20.3438L31.2386 20.0288L30.6611 20.65L30.7661 19.8363" fill="#BA0000"/>
<path id="Vector_6" fill-rule="evenodd" clip-rule="evenodd" d="M31.8164 31.0275C31.8164 31.0275 32.5951 23.9225 39.8664 22.68C43.5064 22.5137 46.2714 23.3537 48.3801 25.76C49.1581 26.952 49.8036 28.2253 50.3051 29.5575C49.8589 29.295 49.4301 29.1025 48.9489 29.0762C48.0914 29.015 47.4264 29.4612 46.8139 30.0825C46.1139 30.8525 45.3264 31.4212 44.2064 31.8675C43.4561 32.1963 42.6325 32.3217 41.8184 32.231C41.0043 32.1404 40.2284 31.837 39.5689 31.3512C38.7026 30.7387 38.2039 29.855 37.2589 29.295C36.4927 28.841 35.5852 28.6882 34.7126 28.8662C32.7439 29.4525 32.6389 30.065 31.8076 31.0275H31.8164Z" fill="#F5F5F5"/>
<g id="Vector_7">
<path fill-rule="evenodd" clip-rule="evenodd" d="M41.5811 26.7313L41.6073 26.7225Z" fill="#BA0000"/>
<path d="M41.5811 26.7313L41.6073 26.7225" stroke="black" stroke-width="0.27125"/>
</g>
<path id="Vector_8" d="M32.2979 30.0125C33.7066 26.9062 39.2104 25.4625 41.5904 26.7575" stroke="#BA0000" stroke-width="0.27125"/>
<path id="Vector_9" fill-rule="evenodd" clip-rule="evenodd" d="M42.9111 26.3025L43.3311 27.055L44.1448 26.9062L43.6023 27.5187L44.0311 28.2625L43.2611 27.8862L42.7098 28.4987L42.7886 27.6587L42.0186 27.2825L42.8323 27.1425" fill="#BA0000"/>
<path id="Vector_10" fill-rule="evenodd" clip-rule="evenodd" d="M32.3066 31.5438C32.3066 31.5438 39.2891 30.0213 42.7804 36.5313C44.0929 39.9263 44.1804 42.8138 42.5616 45.5788C41.6866 46.7163 40.6629 47.6788 39.5691 48.6063C39.6741 48.0988 39.7179 47.6262 39.5954 47.1712C39.3854 46.34 38.7466 45.85 37.9591 45.465C36.9842 45.0387 36.1237 44.3881 35.4479 43.5663C34.8958 42.9592 34.5137 42.2172 34.3401 41.4153C34.1665 40.6133 34.2075 39.7798 34.4591 38.9988C34.7654 37.9838 35.4479 37.2225 35.6754 36.155C35.8636 35.2829 35.72 34.372 35.2729 33.6C34.1004 31.9288 33.4791 32.025 32.2979 31.5438H32.3066Z" fill="#F5F5F5"/>
<g id="Vector_11">
<path fill-rule="evenodd" clip-rule="evenodd" d="M39.4814 39.4362L39.4989 39.4625Z" fill="#BA0000"/>
<path d="M39.4814 39.4362L39.4989 39.4625" stroke="black" stroke-width="0.27125"/>
</g>
<path id="Vector_12" d="M33.418 31.675C36.813 32.025 39.9367 36.785 39.4555 39.4537" stroke="#BA0000" stroke-width="0.27125"/>
<path id="Vector_13" fill-rule="evenodd" clip-rule="evenodd" d="M40.3039 40.565L39.7352 41.2037L40.1289 41.93L39.3764 41.5975L38.8077 42.245L38.9214 41.3963L38.1689 41.0725L38.9827 40.88L39.0964 40.0312L39.4902 40.7575" fill="#BA0000"/>
<path id="Vector_14" fill-rule="evenodd" clip-rule="evenodd" d="M32.1489 32.2613C32.1489 32.2613 35.5614 38.535 30.3026 43.7238C27.4064 45.9288 24.6589 46.8213 21.5526 46.0425C20.2139 45.535 19.0064 44.8175 17.8076 44.03C18.3151 43.9863 18.7876 43.8988 19.1901 43.645C19.9251 43.2075 20.2226 42.4638 20.3714 41.5975C20.5041 40.5407 20.8849 39.5303 21.4826 38.6488C21.9112 37.9486 22.5174 37.3742 23.2397 36.9839C23.9619 36.5935 24.7745 36.4012 25.5951 36.4263C26.6451 36.435 27.5726 36.8725 28.6576 36.7938C29.5493 36.7313 30.3856 36.3381 31.0026 35.6913C32.2801 34.09 32.0176 33.5213 32.1401 32.2613H32.1489Z" fill="#F5F5F5"/>
<g id="Vector_15">
<path fill-rule="evenodd" clip-rule="evenodd" d="M26.5839 41.3613L26.5664 41.3875Z" fill="#BA0000"/>
<path d="M26.5839 41.3613L26.5664 41.3875" stroke="black" stroke-width="0.27125"/>
</g>
<path id="Vector_16" d="M32.3326 33.3725C32.9451 36.7237 29.2614 41.055 26.5576 41.3437" stroke="#BA0000" stroke-width="0.27125"/>
<path id="Vector_17" fill-rule="evenodd" clip-rule="evenodd" d="M25.735 42.4725L24.9563 42.105L24.37 42.6913L24.475 41.8775L23.6963 41.51L24.545 41.3788L24.6413 40.565L25.0613 41.3L25.9013 41.1688L25.315 41.7463" fill="#BA0000"/>
<path id="Vector_18" fill-rule="evenodd" clip-rule="evenodd" d="M31.3696 32.1212C31.3696 32.1212 26.5834 37.4325 19.9509 34.1862C16.9059 32.1912 15.1471 29.8987 14.8496 26.7137C14.8846 25.2875 15.1646 23.905 15.5059 22.5137C15.7246 22.9775 15.9521 23.3887 16.3284 23.6862C16.9846 24.2375 17.7896 24.2725 18.6471 24.1237C19.6879 23.8984 20.7673 23.9224 21.7971 24.1937C22.5991 24.3651 23.3417 24.745 23.95 25.2949C24.5584 25.8449 25.011 26.5455 25.2621 27.3262C25.6121 28.3325 25.4984 29.3387 25.9359 30.345C26.293 31.1625 26.9418 31.8176 27.7559 32.1825C29.6809 32.8562 30.1359 32.4275 31.3696 32.1212V32.1212Z" fill="#F5F5F5"/>
<g id="Vector_19">
<path fill-rule="evenodd" clip-rule="evenodd" d="M20.9315 29.8987H20.9053Z" fill="#BA0000"/>
<path d="M20.9315 29.8987H20.9053" stroke="black" stroke-width="0.27125"/>
</g>
<path id="Vector_20" d="M30.3817 32.6725C27.4242 34.3612 22.113 32.3225 20.9492 29.8725" stroke="#BA0000" stroke-width="0.27125"/>
<path id="Vector_21" fill-rule="evenodd" clip-rule="evenodd" d="M19.6016 29.47L19.6891 28.6125L18.9541 28.2625L19.7504 28.0875L19.8379 27.23L20.2491 27.9825L21.0366 27.8075L20.4941 28.4463L20.8966 29.1988L20.1529 28.84" fill="#BA0000"/>
</g>
</g>
</g>
<defs>
<clipPath id="clip0_2909_185392">
<path d="M0.246094 32C0.246094 14.3269 14.573 0 32.2461 0V0C49.9192 0 64.2461 14.3269 64.2461 32V32C64.2461 49.6731 49.9192 64 32.2461 64V64C14.573 64 0.246094 49.6731 0.246094 32V32Z" fill="white"/>
</clipPath>
</defs>
</svg>
