<svg width="65" height="64" viewBox="0 0 65 64" fill="none" xmlns="http://www.w3.org/2000/svg">
<g id="Rounded=Heard Island and McDonald Islands (HM)">
<g clip-path="url(#clip0_2909_185389)">
<path id="Vector" d="M0.246094 0H64.2461V64H0.246094V0Z" fill="#000066"/>
<path id="Vector_2" fill-rule="evenodd" clip-rule="evenodd" d="M7.10859 46.075L12.1836 48L13.8586 42.825L15.5211 48L20.6086 46.075L17.5961 50.6125L22.2711 53.3875L16.8586 53.85L17.6086 59.2375L13.8586 55.3L10.1086 59.2375L10.8586 53.8625L5.43359 53.3875L10.1211 50.6125L7.10859 46.075ZM50.7461 59.55L48.3711 59.75L48.7086 62.1L47.0836 60.3875L45.4586 62.1L45.7461 59.75L43.3961 59.55L45.4336 58.35L44.1211 56.375L46.3336 57.2125L47.0586 54.9625L47.7711 57.2125L49.9961 56.375L48.6961 58.35L50.7461 59.55ZM50.7211 24.55L48.3711 24.75L48.6961 27.1L47.0711 25.3875L45.4461 27.1L45.7461 24.75L43.3961 24.55L45.4336 23.35L44.1211 21.375L46.3336 22.2125L47.0586 19.9625L47.7711 22.2125L49.9961 21.375L48.6961 23.35L50.7211 24.55ZM37.5961 38.775L35.2461 38.975L35.5711 41.3125L33.9461 39.6L32.3211 41.3125L32.6336 38.975L30.2836 38.775L32.3211 37.5625L31.0086 35.6L33.2211 36.4375L33.9461 34.1875L34.6586 36.4375L36.8711 35.6L35.5711 37.5625L37.5961 38.775ZM62.3711 35.275L60.0211 35.475L60.3461 37.8125L58.7211 36.1L57.0961 37.8125L57.4086 35.475L55.0586 35.275L57.0961 34.0625L55.7836 32.1L57.9961 32.9375L58.7211 30.6875L59.4461 32.9375L61.6461 32.1L60.3461 34.0625L62.3711 35.275ZM52.3211 44.375L51.0336 45.175L51.3961 43.7L50.2336 42.725L51.7336 42.6125L52.3211 41.2125L52.8711 42.625L54.3836 42.75L53.2336 43.7125L53.5961 45.1875" fill="#F5F5F5"/>
<path id="Vector_3" d="M0.246094 0H32.2461V32H0.246094V0Z" fill="#000066"/>
<path id="Vector_4" d="M32.2461 0V4L20.3711 16L32.2461 27.6875V32H28.0586L16.1211 20.25L4.49609 32H0.246094V27.75L11.8711 16.0625L0.246094 4.625V0H4.12109L16.1211 11.75L27.7461 0H32.2461Z" fill="#F5F5F5"/>
<path id="Vector_5" d="M11.7461 20.25L12.4336 22.375L2.87109 32H0.246094V31.8125L11.7461 20.25ZM19.4961 19.5L22.8711 20L32.2461 29.1875V32L19.4961 19.5ZM32.2461 0L20.2461 12.25L19.9961 9.5L29.3711 0H32.2461ZM0.246094 0.0625L12.3086 11.875L8.62109 11.375L0.246094 3.0625V0.0625Z" fill="#C8102E"/>
<path id="Vector_6" d="M11.2461 0V32H21.2461V0H11.2461ZM0.246094 11V21H32.2461V11H0.246094Z" fill="#F5F5F5"/>
<path id="Vector_7" d="M0.246094 13V19H32.2461V13H0.246094ZM13.2461 0V32H19.2461V0H13.2461Z" fill="#C8102E"/>
</g>
</g>
<defs>
<clipPath id="clip0_2909_185389">
<path d="M0.246094 32C0.246094 14.3269 14.573 0 32.2461 0V0C49.9192 0 64.2461 14.3269 64.2461 32V32C64.2461 49.6731 49.9192 64 32.2461 64V64C14.573 64 0.246094 49.6731 0.246094 32V32Z" fill="white"/>
</clipPath>
</defs>
</svg>
