<svg width="65" height="64" viewBox="0 0 65 64" fill="none" xmlns="http://www.w3.org/2000/svg">
<g id="Rounded=Honduras (HN)">
<g clip-path="url(#clip0_2909_185387)">
<path id="Vector" d="M0.246094 0H64.2461V64H0.246094V0Z" fill="#18C3DF"/>
<path id="Vector_2" d="M0.246094 21.3375H64.2461V42.6625H0.246094V21.3375Z" fill="#F5F5F5"/>
<g id="c">
<g id="b">
<path id="a" d="M32.2464 28.4445L31.1797 32L32.9575 32.3556L32.2464 28.4445Z" fill="#18C3DF"/>
<path id="Vector_3" d="M32.2468 28.4445L33.3135 32L31.5357 32.3556L32.2468 28.4445Z" fill="#18C3DF"/>
</g>
<g id="Group">
<path id="a_2" d="M35.6275 30.9013L31.9163 30.9856L32.1275 32.7862L35.6275 30.9013Z" fill="#18C3DF"/>
<path id="Vector_4" d="M35.6274 30.9013L32.5755 33.0145L31.688 31.4336L35.6274 30.9013Z" fill="#18C3DF"/>
</g>
<g id="Group_2">
<path id="a_3" d="M28.8648 30.9013L31.9167 33.0145L32.8042 31.4336L28.8648 30.9013Z" fill="#18C3DF"/>
<path id="Vector_5" d="M28.8647 30.9013L32.5759 30.9855L32.3647 32.7862L28.8647 30.9013Z" fill="#18C3DF"/>
</g>
<g id="Group_3">
<path id="a_4" d="M34.3363 34.8765L33.1093 31.373L31.4621 32.1303L34.3363 34.8765Z" fill="#18C3DF"/>
<path id="Vector_6" d="M34.3366 34.8765L31.3837 32.627L32.613 31.2944L34.3366 34.8765Z" fill="#18C3DF"/>
</g>
<g id="Group_4">
<path id="a_5" d="M30.1566 34.8765L33.1094 32.627L31.8802 31.2944L30.1566 34.8765Z" fill="#18C3DF"/>
<path id="Vector_7" d="M30.1569 34.8765L31.3838 31.373L33.0311 32.1303L30.1569 34.8765Z" fill="#18C3DF"/>
</g>
</g>
<g id="Group_5">
<g id="b_2">
<path id="a_6" d="M50.0208 22.757L48.9541 26.3125L50.7319 26.6681L50.0208 22.757Z" fill="#18C3DF"/>
<path id="Vector_8" d="M50.0212 22.757L51.0879 26.3125L49.3101 26.6681L50.0212 22.757Z" fill="#18C3DF"/>
</g>
<g id="Group_6">
<path id="a_7" d="M53.4019 25.2138L49.6907 25.2981L49.9019 27.0987L53.4019 25.2138Z" fill="#18C3DF"/>
<path id="Vector_9" d="M53.4018 25.2138L50.3499 27.327L49.4624 25.7461L53.4018 25.2138Z" fill="#18C3DF"/>
</g>
<g id="Group_7">
<path id="a_8" d="M46.6392 25.2138L49.6911 27.327L50.5786 25.7461L46.6392 25.2138Z" fill="#18C3DF"/>
<path id="Vector_10" d="M46.6391 25.2138L50.3503 25.298L50.1391 27.0987L46.6391 25.2138Z" fill="#18C3DF"/>
</g>
<g id="Group_8">
<path id="a_9" d="M52.1107 29.189L50.8837 25.6855L49.2365 26.4428L52.1107 29.189Z" fill="#18C3DF"/>
<path id="Vector_11" d="M52.111 29.189L49.1581 26.9395L50.3874 25.6069L52.111 29.189Z" fill="#18C3DF"/>
</g>
<g id="Group_9">
<path id="a_10" d="M47.931 29.189L50.8838 26.9395L49.6546 25.6069L47.931 29.189Z" fill="#18C3DF"/>
<path id="Vector_12" d="M47.9313 29.189L49.1583 25.6855L50.8055 26.4428L47.9313 29.189Z" fill="#18C3DF"/>
</g>
</g>
<g id="Group_10">
<g id="b_3">
<path id="a_11" d="M50.0208 33.4194L48.9541 36.975L50.7319 37.3305L50.0208 33.4194Z" fill="#18C3DF"/>
<path id="Vector_13" d="M50.0212 33.4194L51.0879 36.975L49.3101 37.3305L50.0212 33.4194Z" fill="#18C3DF"/>
</g>
<g id="Group_11">
<path id="a_12" d="M53.4019 35.8763L49.6907 35.9605L49.9019 37.7612L53.4019 35.8763Z" fill="#18C3DF"/>
<path id="Vector_14" d="M53.4018 35.8763L50.3499 37.9895L49.4624 36.4086L53.4018 35.8763Z" fill="#18C3DF"/>
</g>
<g id="Group_12">
<path id="a_13" d="M46.6392 35.8763L49.6911 37.9894L50.5786 36.4085L46.6392 35.8763Z" fill="#18C3DF"/>
<path id="Vector_15" d="M46.6391 35.8762L50.3503 35.9605L50.1391 37.7612L46.6391 35.8762Z" fill="#18C3DF"/>
</g>
<g id="Group_13">
<path id="a_14" d="M52.1107 39.8515L50.8837 36.348L49.2365 37.1053L52.1107 39.8515Z" fill="#18C3DF"/>
<path id="Vector_16" d="M52.111 39.8515L49.1581 37.6019L50.3874 36.2693L52.111 39.8515Z" fill="#18C3DF"/>
</g>
<g id="Group_14">
<path id="a_15" d="M47.931 39.8515L50.8838 37.6019L49.6546 36.2693L47.931 39.8515Z" fill="#18C3DF"/>
<path id="Vector_17" d="M47.9313 39.8515L49.1583 36.348L50.8055 37.1053L47.9313 39.8515Z" fill="#18C3DF"/>
</g>
</g>
<g id="Group_15">
<g id="b_4">
<path id="a_16" d="M14.471 22.757L13.4043 26.3125L15.1821 26.6681L14.471 22.757Z" fill="#18C3DF"/>
<path id="Vector_18" d="M14.4714 22.757L15.5381 26.3125L13.7603 26.6681L14.4714 22.757Z" fill="#18C3DF"/>
</g>
<g id="Group_16">
<path id="a_17" d="M17.8521 25.2138L14.1409 25.2981L14.3521 27.0987L17.8521 25.2138Z" fill="#18C3DF"/>
<path id="Vector_19" d="M17.852 25.2138L14.8001 27.327L13.9126 25.7461L17.852 25.2138Z" fill="#18C3DF"/>
</g>
<g id="Group_17">
<path id="a_18" d="M11.0894 25.2138L14.1413 27.327L15.0288 25.7461L11.0894 25.2138Z" fill="#18C3DF"/>
<path id="Vector_20" d="M11.0893 25.2138L14.8005 25.298L14.5893 27.0987L11.0893 25.2138Z" fill="#18C3DF"/>
</g>
<g id="Group_18">
<path id="a_19" d="M16.5609 29.189L15.3339 25.6855L13.6867 26.4428L16.5609 29.189Z" fill="#18C3DF"/>
<path id="Vector_21" d="M16.5612 29.189L13.6083 26.9395L14.8376 25.6069L16.5612 29.189Z" fill="#18C3DF"/>
</g>
<g id="Group_19">
<path id="a_20" d="M12.3812 29.189L15.334 26.9395L14.1048 25.6069L12.3812 29.189Z" fill="#18C3DF"/>
<path id="Vector_22" d="M12.3815 29.189L13.6085 25.6855L15.2557 26.4428L12.3815 29.189Z" fill="#18C3DF"/>
</g>
</g>
<g id="Group_20">
<g id="b_5">
<path id="a_21" d="M14.471 33.4194L13.4043 36.975L15.1821 37.3305L14.471 33.4194Z" fill="#18C3DF"/>
<path id="Vector_23" d="M14.4714 33.4194L15.5381 36.975L13.7603 37.3305L14.4714 33.4194Z" fill="#18C3DF"/>
</g>
<g id="Group_21">
<path id="a_22" d="M17.8521 35.8763L14.1409 35.9605L14.3521 37.7612L17.8521 35.8763Z" fill="#18C3DF"/>
<path id="Vector_24" d="M17.852 35.8763L14.8001 37.9895L13.9126 36.4086L17.852 35.8763Z" fill="#18C3DF"/>
</g>
<g id="Group_22">
<path id="a_23" d="M11.0894 35.8763L14.1413 37.9894L15.0288 36.4085L11.0894 35.8763Z" fill="#18C3DF"/>
<path id="Vector_25" d="M11.0893 35.8762L14.8005 35.9605L14.5893 37.7612L11.0893 35.8762Z" fill="#18C3DF"/>
</g>
<g id="Group_23">
<path id="a_24" d="M16.5609 39.8515L15.3339 36.348L13.6867 37.1053L16.5609 39.8515Z" fill="#18C3DF"/>
<path id="Vector_26" d="M16.5612 39.8515L13.6083 37.6019L14.8376 36.2693L16.5612 39.8515Z" fill="#18C3DF"/>
</g>
<g id="Group_24">
<path id="a_25" d="M12.3812 39.8515L15.334 37.6019L14.1048 36.2693L12.3812 39.8515Z" fill="#18C3DF"/>
<path id="Vector_27" d="M12.3815 39.8515L13.6085 36.348L15.2557 37.1053L12.3815 39.8515Z" fill="#18C3DF"/>
</g>
</g>
</g>
</g>
<defs>
<clipPath id="clip0_2909_185387">
<path d="M0.246094 32C0.246094 14.3269 14.573 0 32.2461 0V0C49.9192 0 64.2461 14.3269 64.2461 32V32C64.2461 49.6731 49.9192 64 32.2461 64V64C14.573 64 0.246094 49.6731 0.246094 32V32Z" fill="white"/>
</clipPath>
</defs>
</svg>
