<svg width="65" height="64" viewBox="0 0 65 64" fill="none" xmlns="http://www.w3.org/2000/svg">
<g id="Rounded=Israel (IL)">
<g clip-path="url(#clip0_2909_185381)">
<g id="Group">
<path id="Vector" fill-rule="evenodd" clip-rule="evenodd" d="M77.6711 64H-13.7539V0H77.6711V64Z" fill="#F5F5F5"/>
<path id="Vector_2" fill-rule="evenodd" clip-rule="evenodd" d="M77.6711 14.4H-13.7539V6H77.6711V14.4ZM77.6711 58.2125H-13.7539V49.8125H77.6711V58.2125ZM17.2961 23.8375L31.0586 47.7875L45.1211 23.95L17.2961 23.85V23.8375Z" fill="#0000CC"/>
<path id="Vector_3" fill-rule="evenodd" clip-rule="evenodd" d="M28.4715 39.725L31.084 44.1625L33.759 39.75L28.459 39.725H28.4715Z" fill="#F5F5F5"/>
<path id="Vector_4" fill-rule="evenodd" clip-rule="evenodd" d="M17.2461 40.075L31.0211 16.125L45.0711 39.975L17.2461 40.075V40.075Z" fill="#0000CC"/>
<path id="Vector_5" fill-rule="evenodd" clip-rule="evenodd" d="M28.4707 23.95L31.0832 19.5125L33.7582 23.9375L28.4582 23.95H28.4707ZM22.9957 33.8875L20.2832 38.3875L25.4082 38.375L22.9957 33.875V33.8875ZM20.3332 25.575L25.4832 25.6125L23.0082 30.15L20.3332 25.575V25.575ZM39.2332 33.95L41.8457 38.3875L36.6332 38.325L39.2332 33.95ZM41.7957 25.575L36.6457 25.6125L39.1207 30.15L41.7957 25.575V25.575ZM27.5082 25.575L23.9582 32L27.5582 38.2875L34.1582 38.4375L38.1582 32L34.4582 25.5L27.5082 25.5625V25.575Z" fill="#F5F5F5"/>
</g>
</g>
</g>
<defs>
<clipPath id="clip0_2909_185381">
<path d="M0.246094 32C0.246094 14.3269 14.573 0 32.2461 0V0C49.9192 0 64.2461 14.3269 64.2461 32V32C64.2461 49.6731 49.9192 64 32.2461 64V64C14.573 64 0.246094 49.6731 0.246094 32V32Z" fill="white"/>
</clipPath>
</defs>
</svg>
