<svg width="65" height="64" viewBox="0 0 65 64" fill="none" xmlns="http://www.w3.org/2000/svg">
<g id="Rounded=India (IN)">
<g clip-path="url(#clip0_2909_185376)">
<path id="Vector" d="M0.246094 0H64.2461V21.3375H0.246094V0Z" fill="#FF9933"/>
<path id="Vector_2" d="M0.246094 21.3375H64.2461V42.6625H0.246094V21.3375Z" fill="#F5F5F5"/>
<path id="Vector_3" d="M0.246094 42.6625H64.2461V64H0.246094V42.6625Z" fill="#128807"/>
<g id="Group">
<path id="Vector_4" d="M32.2452 40.5333C36.9581 40.5333 40.7786 36.7128 40.7786 32C40.7786 27.2872 36.9581 23.4667 32.2452 23.4667C27.5324 23.4667 23.7119 27.2872 23.7119 32C23.7119 36.7128 27.5324 40.5333 32.2452 40.5333Z" fill="#000088"/>
<path id="Vector_5" d="M32.246 39.4666C36.3697 39.4666 39.7126 36.1237 39.7126 32C39.7126 27.8763 36.3697 24.5333 32.246 24.5333C28.1222 24.5333 24.7793 27.8763 24.7793 32C24.7793 36.1237 28.1222 39.4666 32.246 39.4666Z" fill="#F5F5F5"/>
<path id="Vector_6" d="M32.2453 33.4933C33.07 33.4933 33.7386 32.8247 33.7386 32C33.7386 31.1752 33.07 30.5067 32.2453 30.5067C31.4205 30.5067 30.752 31.1752 30.752 32C30.752 32.8247 31.4205 33.4933 32.2453 33.4933Z" fill="#000088"/>
<g id="d">
<g id="c">
<g id="b">
<g id="a">
<path id="Vector_7" d="M39.5988 33.3581C39.8091 33.3858 40.002 33.2378 40.0297 33.0275C40.0573 32.8172 39.9093 32.6243 39.6991 32.5967C39.4888 32.569 39.2959 32.717 39.2682 32.9273C39.2406 33.1375 39.3886 33.3304 39.5988 33.3581Z" fill="#000088"/>
<path id="Vector_8" d="M32.2462 39.4667L32.5022 34.9867L32.2462 32.8533L31.9902 34.9867L32.2462 39.4667Z" fill="#000088"/>
</g>
<g id="Group_2">
<path id="Vector_9" d="M38.9964 35.2148C39.1923 35.296 39.417 35.2029 39.4981 35.007C39.5793 34.811 39.4863 34.5864 39.2903 34.5053C39.0944 34.4241 38.8698 34.5171 38.7886 34.7131C38.7074 34.909 38.8005 35.1336 38.9964 35.2148Z" fill="#000088"/>
<path id="Vector_10" d="M30.3139 39.2122L31.7207 34.9512L32.0256 32.8243L31.2262 34.8186L30.3139 39.2122Z" fill="#000088"/>
</g>
</g>
<g id="Group_3">
<g id="a_2">
<path id="Vector_11" d="M37.9348 36.8524C38.103 36.9815 38.3441 36.9498 38.4732 36.7815C38.6023 36.6133 38.5706 36.3722 38.4023 36.2431C38.2341 36.114 37.993 36.1458 37.8639 36.314C37.7348 36.4823 37.7665 36.7233 37.9348 36.8524Z" fill="#000088"/>
<path id="Vector_12" d="M28.5127 38.4663L30.9744 34.7145L31.8194 32.739L30.531 34.4585L28.5127 38.4663Z" fill="#000088"/>
</g>
<g id="Group_4">
<path id="Vector_13" d="M36.4838 38.1594C36.6129 38.3276 36.854 38.3593 37.0223 38.2302C37.1905 38.1011 37.2222 37.8601 37.0931 37.6918C36.964 37.5236 36.723 37.4918 36.5547 37.6209C36.3865 37.75 36.3547 37.9911 36.4838 38.1594Z" fill="#000088"/>
<path id="Vector_14" d="M26.9656 37.2797L30.3145 34.2929L31.642 32.6034L29.9524 33.9309L26.9656 37.2797Z" fill="#000088"/>
</g>
</g>
</g>
<g id="Group_5">
<g id="b_2">
<g id="a_3">
<path id="Vector_15" d="M34.745 39.0465C34.8262 39.2425 35.0508 39.3355 35.2467 39.2543C35.4427 39.1732 35.5357 38.9486 35.4546 38.7526C35.3734 38.5567 35.1488 38.4636 34.9528 38.5448C34.7569 38.626 34.6639 38.8506 34.745 39.0465Z" fill="#000088"/>
<path id="Vector_16" d="M25.7786 35.7333L29.7864 33.715L31.5059 32.4267L29.5304 33.2716L25.7786 35.7333Z" fill="#000088"/>
</g>
<g id="Group_6">
<path id="Vector_17" d="M32.8356 39.4535C32.8632 39.6637 33.0561 39.8117 33.2664 39.7841C33.4767 39.7564 33.6247 39.5635 33.597 39.3532C33.5693 39.143 33.3764 38.9949 33.1662 39.0226C32.9559 39.0503 32.8079 39.2432 32.8356 39.4535Z" fill="#000088"/>
<path id="Vector_18" d="M25.0328 33.9325L29.4264 33.0203L31.4207 32.2208L29.2939 32.5257L25.0328 33.9325Z" fill="#000088"/>
</g>
</g>
<g id="Group_7">
<g id="a_4">
<path id="Vector_19" d="M30.8867 39.3526C30.859 39.5628 31.007 39.7557 31.2173 39.7834C31.4275 39.8111 31.6204 39.6631 31.6481 39.4528C31.6758 39.2425 31.5278 39.0496 31.3175 39.022C31.1073 38.9943 30.9144 39.1423 30.8867 39.3526Z" fill="#000088"/>
<path id="Vector_20" d="M24.7783 32L29.2583 32.256L31.3916 32L29.2583 31.744L24.7783 32Z" fill="#000088"/>
</g>
<g id="Group_8">
<path id="Vector_21" d="M29.0302 38.7505C28.9491 38.9464 29.0421 39.171 29.238 39.2522C29.434 39.3334 29.6586 39.2403 29.7398 39.0444C29.8209 38.8484 29.7279 38.6238 29.5319 38.5427C29.336 38.4615 29.1114 38.5545 29.0302 38.7505Z" fill="#000088"/>
<path id="Vector_22" d="M25.0331 30.0675L29.2941 31.4743L31.421 31.7791L29.4267 30.9797L25.0331 30.0675Z" fill="#000088"/>
</g>
</g>
</g>
</g>
<g id="Group_9">
<g id="c_2">
<g id="b_3">
<g id="a_5">
<path id="Vector_23" d="M27.3933 37.6884C27.2642 37.8567 27.2959 38.0977 27.4642 38.2268C27.6324 38.356 27.8735 38.3242 28.0026 38.156C28.1317 37.9877 28.0999 37.7467 27.9317 37.6176C27.7634 37.4884 27.5224 37.5202 27.3933 37.6884Z" fill="#000088"/>
<path id="Vector_24" d="M25.7795 28.2667L29.5312 30.7284L31.5068 31.5734L29.7872 30.285L25.7795 28.2667Z" fill="#000088"/>
</g>
<g id="Group_10">
<path id="Vector_25" d="M26.0862 36.2387C25.918 36.3678 25.8862 36.6088 26.0153 36.7771C26.1444 36.9453 26.3855 36.9771 26.5538 36.848C26.722 36.7189 26.7537 36.4778 26.6246 36.3095C26.4955 36.1413 26.2545 36.1096 26.0862 36.2387Z" fill="#000088"/>
<path id="Vector_26" d="M26.9659 26.7203L29.9527 30.0691L31.6422 31.3966L30.3147 29.7071L26.9659 26.7203Z" fill="#000088"/>
</g>
</g>
<g id="Group_11">
<g id="a_6">
<path id="Vector_27" d="M25.199 34.5001C25.0031 34.5813 24.91 34.8059 24.9912 35.0018C25.0723 35.1978 25.297 35.2908 25.4929 35.2097C25.6888 35.1285 25.7819 34.9039 25.7007 34.7079C25.6195 34.512 25.3949 34.419 25.199 34.5001Z" fill="#000088"/>
<path id="Vector_28" d="M28.5127 25.5337L30.5309 29.5415L31.8193 31.261L30.9744 29.2855L28.5127 25.5337Z" fill="#000088"/>
</g>
<g id="Group_12">
<path id="Vector_29" d="M24.7925 32.5912C24.5822 32.6188 24.4342 32.8117 24.4619 33.022C24.4896 33.2323 24.6825 33.3803 24.8927 33.3526C25.103 33.3249 25.251 33.132 25.2233 32.9217C25.1956 32.7115 25.0027 32.5635 24.7925 32.5912Z" fill="#000088"/>
<path id="Vector_30" d="M30.3135 24.7878L31.2258 29.1814L32.0252 31.1758L31.7203 29.0489L30.3135 24.7878Z" fill="#000088"/>
</g>
</g>
</g>
<g id="Group_13">
<g id="b_4">
<g id="a_7">
<path id="Vector_31" d="M24.8924 30.6419C24.6821 30.6143 24.4892 30.7623 24.4615 30.9725C24.4339 31.1828 24.5819 31.3757 24.7921 31.4034C25.0024 31.4311 25.1953 31.283 25.223 31.0728C25.2507 30.8625 25.1026 30.6696 24.8924 30.6419Z" fill="#000088"/>
<path id="Vector_32" d="M32.245 24.5334L31.989 29.0134L32.245 31.1467L32.501 29.0134L32.245 24.5334Z" fill="#000088"/>
</g>
<g id="Group_14">
<path id="Vector_33" d="M25.4948 28.7852C25.2989 28.7041 25.0742 28.7971 24.9931 28.9931C24.9119 29.189 25.005 29.4136 25.2009 29.4948C25.3968 29.5759 25.6215 29.4829 25.7026 29.287C25.7838 29.091 25.6907 28.8664 25.4948 28.7852Z" fill="#000088"/>
<path id="Vector_34" d="M34.1773 24.7878L32.7705 29.0489L32.4656 31.1758L33.265 29.1814L34.1773 24.7878Z" fill="#000088"/>
</g>
</g>
<g id="Group_15">
<g id="a_8">
<path id="Vector_35" d="M26.5564 27.1476C26.3882 27.0185 26.1471 27.0502 26.018 27.2185C25.8889 27.3867 25.9207 27.6278 26.0889 27.7569C26.2572 27.886 26.4982 27.8543 26.6273 27.686C26.7564 27.5178 26.7247 27.2767 26.5564 27.1476Z" fill="#000088"/>
<path id="Vector_36" d="M35.9785 25.5337L33.5168 29.2855L32.6719 31.261L33.9602 29.5415L35.9785 25.5337Z" fill="#000088"/>
</g>
<g id="Group_16">
<path id="Vector_37" d="M28.0074 25.8407C27.8783 25.6724 27.6372 25.6407 27.469 25.7698C27.3007 25.8989 27.269 26.14 27.3981 26.3082C27.5272 26.4765 27.7682 26.5082 27.9365 26.3791C28.1047 26.25 28.1365 26.0089 28.0074 25.8407Z" fill="#000088"/>
<path id="Vector_38" d="M37.5256 26.7203L34.1767 29.7071L32.8493 31.3966L34.5388 30.0691L37.5256 26.7203Z" fill="#000088"/>
</g>
</g>
</g>
</g>
<g id="Group_17">
<g id="c_3">
<g id="b_5">
<g id="a_9">
<path id="Vector_39" d="M29.7452 24.9535C29.664 24.7576 29.4394 24.6645 29.2435 24.7457C29.0476 24.8268 28.9545 25.0515 29.0357 25.2474C29.1168 25.4433 29.3415 25.5364 29.5374 25.4552C29.7333 25.3741 29.8264 25.1494 29.7452 24.9535Z" fill="#000088"/>
<path id="Vector_40" d="M38.7116 28.2667L34.7038 30.285L32.9843 31.5734L34.9598 30.7284L38.7116 28.2667Z" fill="#000088"/>
</g>
<g id="Group_18">
<path id="Vector_41" d="M31.6547 24.5466C31.627 24.3363 31.4341 24.1883 31.2238 24.216C31.0136 24.2437 30.8656 24.4365 30.8932 24.6468C30.9209 24.8571 31.1138 25.0051 31.3241 24.9774C31.5343 24.9497 31.6823 24.7568 31.6547 24.5466Z" fill="#000088"/>
<path id="Vector_42" d="M39.4575 30.0675L35.0639 30.9798L33.0695 31.7792L35.1964 31.4743L39.4575 30.0675Z" fill="#000088"/>
</g>
</g>
<g id="Group_19">
<g id="a_10">
<path id="Vector_43" d="M33.6035 24.6475C33.6312 24.4372 33.4832 24.2443 33.273 24.2166C33.0627 24.189 32.8698 24.337 32.8421 24.5472C32.8144 24.7575 32.9624 24.9504 33.1727 24.9781C33.383 25.0058 33.5759 24.8577 33.6035 24.6475Z" fill="#000088"/>
<path id="Vector_44" d="M39.712 32L35.232 31.744L33.0986 32L35.232 32.256L39.712 32Z" fill="#000088"/>
</g>
<g id="Group_20">
<path id="Vector_45" d="M35.46 25.2496C35.5412 25.0536 35.4481 24.829 35.2522 24.7478C35.0563 24.6667 34.8316 24.7597 34.7505 24.9557C34.6693 25.1516 34.7624 25.3762 34.9583 25.4574C35.1542 25.5385 35.3788 25.4455 35.46 25.2496Z" fill="#000088"/>
<path id="Vector_46" d="M39.4572 33.9325L35.1961 32.5258L33.0692 32.2209L35.0636 33.0203L39.4572 33.9325Z" fill="#000088"/>
</g>
</g>
</g>
<g id="Group_21">
<g id="b_6">
<g id="a_11">
<path id="Vector_47" d="M37.097 26.3116C37.2261 26.1433 37.1943 25.9023 37.0261 25.7732C36.8578 25.644 36.6168 25.6758 36.4877 25.844C36.3586 26.0123 36.3903 26.2533 36.5586 26.3824C36.7268 26.5116 36.9679 26.4798 37.097 26.3116Z" fill="#000088"/>
<path id="Vector_48" d="M38.7108 35.7333L34.959 33.2716L32.9835 32.4266L34.703 33.715L38.7108 35.7333Z" fill="#000088"/>
</g>
<g id="Group_22">
<path id="Vector_49" d="M38.404 27.7613C38.5723 27.6322 38.604 27.3911 38.4749 27.2229C38.3458 27.0546 38.1047 27.0229 37.9365 27.152C37.7682 27.2811 37.7365 27.5222 37.8656 27.6904C37.9947 27.8587 38.2358 27.8904 38.404 27.7613Z" fill="#000088"/>
<path id="Vector_50" d="M37.5243 37.2797L34.5375 33.9308L32.848 32.6034L34.1755 34.2929L37.5243 37.2797Z" fill="#000088"/>
</g>
</g>
<g id="Group_23">
<g id="a_12">
<path id="Vector_51" d="M39.2912 29.4999C39.4872 29.4187 39.5802 29.1941 39.4991 28.9982C39.4179 28.8022 39.1933 28.7092 38.9973 28.7903C38.8014 28.8715 38.7084 29.0961 38.7895 29.2921C38.8707 29.488 39.0953 29.581 39.2912 29.4999Z" fill="#000088"/>
<path id="Vector_52" d="M35.9776 38.4663L33.9593 34.4585L32.6709 32.739L33.5159 34.7145L35.9776 38.4663Z" fill="#000088"/>
</g>
<g id="Group_24">
<path id="Vector_53" d="M39.6978 31.4088C39.908 31.3812 40.056 31.1883 40.0283 30.978C40.0007 30.7677 39.8078 30.6197 39.5975 30.6474C39.3872 30.6751 39.2392 30.868 39.2669 31.0783C39.2946 31.2885 39.4875 31.4365 39.6978 31.4088Z" fill="#000088"/>
<path id="Vector_54" d="M34.1767 39.2122L33.2645 34.8186L32.4651 32.8242L32.7699 34.9511L34.1767 39.2122Z" fill="#000088"/>
</g>
</g>
</g>
</g>
</g>
</g>
</g>
<defs>
<clipPath id="clip0_2909_185376">
<path d="M0.246094 32C0.246094 14.3269 14.573 0 32.2461 0V0C49.9192 0 64.2461 14.3269 64.2461 32V32C64.2461 49.6731 49.9192 64 32.2461 64V64C14.573 64 0.246094 49.6731 0.246094 32V32Z" fill="white"/>
</clipPath>
</defs>
</svg>
