<svg width="65" height="64" viewBox="0 0 65 64" fill="none" xmlns="http://www.w3.org/2000/svg">
<g id="Rounded=British Indian Ocean Territory (IO)">
<g clip-path="url(#clip0_2909_185374)">
<path id="Vector" fill-rule="evenodd" clip-rule="evenodd" d="M64.2461 55.5C63.5336 56.375 62.9211 58.425 61.0086 58.425C57.1961 58.425 56.2461 54.1 53.3836 54.1C51.4836 54.1 50.5336 58.4375 48.6336 58.4375C44.8086 58.4375 43.8586 54.1 41.0086 54.1C39.0961 54.1 38.1461 58.4375 36.2586 58.4375C32.4336 58.4375 31.4836 54.1 28.6336 54.1C26.7211 54.1 25.7711 58.4375 23.8711 58.4375C20.0586 58.4375 19.1086 54.1 16.2461 54.1C14.3336 54.1 13.3836 58.4375 11.4836 58.4375C7.67109 58.4375 6.72109 54.1 3.85859 54.1C1.95859 54.1 1.39609 57.1875 0.246094 57.1875V62.75C1.39609 62.75 1.95859 59.6625 3.87109 59.6625C6.72109 59.6625 7.68359 64 11.4836 64C13.3961 64 14.3461 59.6625 16.2461 59.6625C19.1086 59.6625 20.0586 64 23.8711 64C25.7711 64 26.7211 59.6625 28.6211 59.6625C31.4836 59.6625 32.4461 64 36.2461 64C38.1586 64 39.1086 59.6625 41.0086 59.6625C43.8711 59.6625 44.8211 64 48.6336 64C50.5336 64 51.4836 59.6625 53.3836 59.6625C56.2461 59.6625 57.2086 64 61.0086 64C62.9211 64 63.5336 62.775 64.2461 61.9V55.5ZM64.2461 44.675C63.5336 45.5625 62.9211 47.6 61.0086 47.6C57.1961 47.6 56.2461 43.275 53.3836 43.275C51.4836 43.275 50.5336 47.6 48.6336 47.6C44.8086 47.6 43.8586 43.275 41.0086 43.275C39.0961 43.275 38.1461 47.6 36.2586 47.6C32.4336 47.6 31.4836 43.275 28.6336 43.275C26.7211 43.275 25.7711 47.6 23.8711 47.6C20.0586 47.6 19.1086 43.275 16.2461 43.275C14.3336 43.275 13.3836 47.6 11.4836 47.6C7.67109 47.6 6.72109 43.275 3.85859 43.275C1.95859 43.275 1.39609 46.3625 0.246094 46.3625V51.9375C1.39609 51.9375 1.95859 48.85 3.87109 48.85C6.72109 48.85 7.68359 53.1875 11.4836 53.1875C13.3961 53.1875 14.3461 48.85 16.2461 48.85C19.1086 48.85 20.0586 53.1875 23.8711 53.1875C25.7711 53.1875 26.7211 48.85 28.6211 48.85C31.4836 48.85 32.4461 53.1875 36.2461 53.1875C38.1586 53.1875 39.1086 48.85 41.0086 48.85C43.8711 48.85 44.8211 53.1875 48.6336 53.1875C50.5336 53.1875 51.4836 48.85 53.3836 48.85C56.2461 48.85 57.2086 53.1875 61.0086 53.1875C62.9211 53.1875 63.5336 51.9625 64.2461 51.075V44.675ZM64.2461 33.85C63.5336 34.75 62.9211 36.7875 61.0086 36.7875C57.1961 36.7875 56.2461 32.45 53.3836 32.45C51.4836 32.45 50.5336 36.7875 48.6336 36.7875C44.8086 36.7875 43.8586 32.45 41.0086 32.45C39.0961 32.45 38.1461 36.7875 36.2586 36.7875C32.4336 36.7875 31.4836 32.45 28.6336 32.45C26.7211 32.45 25.7711 36.7875 23.8711 36.7875C20.0586 36.7875 19.1086 32.45 16.2461 32.45C14.3336 32.45 13.3836 36.7875 11.4836 36.7875C7.67109 36.7875 6.72109 32.45 3.85859 32.45C1.95859 32.45 1.39609 35.55 0.246094 35.55V41.1125C1.39609 41.1125 1.95859 38.0375 3.87109 38.0375C6.72109 38.0375 7.68359 42.3625 11.4836 42.3625C13.3961 42.3625 14.3461 38.0375 16.2461 38.0375C19.1086 38.0375 20.0586 42.3625 23.8711 42.3625C25.7711 42.3625 26.7211 38.0375 28.6211 38.0375C31.4836 38.0375 32.4461 42.3625 36.2461 42.3625C38.1586 42.3625 39.1086 38.0375 41.0086 38.0375C43.8711 38.0375 44.8211 42.3625 48.6336 42.3625C50.5336 42.3625 51.4836 38.0375 53.3836 38.0375C56.2461 38.0375 57.2086 42.3625 61.0086 42.3625C62.9211 42.3625 63.5336 41.125 64.2461 40.25V33.85ZM64.2461 23.0375C63.5336 23.9125 62.9211 25.9625 61.0086 25.9625C57.1961 25.9625 56.2461 21.6375 53.3836 21.6375C51.4836 21.6375 50.5336 25.9625 48.6336 25.9625C44.8086 25.9625 43.8586 21.6375 41.0086 21.6375C39.0961 21.6375 38.1461 25.9625 36.2586 25.9625C32.4336 25.9625 31.4836 21.6375 28.6336 21.6375C26.7211 21.6375 25.7711 25.9625 23.8711 25.9625C20.0586 25.9625 19.1086 21.6375 16.2461 21.6375C14.3336 21.6375 13.3836 25.9625 11.4836 25.9625C7.67109 25.9625 6.72109 21.6375 3.85859 21.6375C1.95859 21.6375 1.39609 24.725 0.246094 24.725V30.3C1.39609 30.3 1.95859 27.2125 3.87109 27.2125C6.72109 27.2125 7.68359 31.55 11.4836 31.55C13.3961 31.55 14.3461 27.2125 16.2461 27.2125C19.1086 27.2125 20.0586 31.55 23.8711 31.55C25.7711 31.55 26.7211 27.2125 28.6211 27.2125C31.4836 27.2125 32.4461 31.55 36.2461 31.55C38.1586 31.55 39.1086 27.2125 41.0086 27.2125C43.8711 27.2125 44.8211 31.55 48.6336 31.55C50.5336 31.55 51.4836 27.2125 53.3836 27.2125C56.2461 27.2125 57.2086 31.55 61.0086 31.55C62.9211 31.55 63.5336 30.3 64.2461 29.425V23.0375ZM64.2461 12.2125C63.5336 13.0875 62.9211 15.15 61.0086 15.15C57.1961 15.15 56.2461 10.8125 53.3836 10.8125C51.4836 10.8125 50.5336 15.15 48.6336 15.15C44.8086 15.15 43.8586 10.8125 41.0086 10.8125C39.0961 10.8125 38.1461 15.15 36.2586 15.15C32.4336 15.15 31.4836 10.8125 28.6336 10.8125C26.7211 10.8125 25.7711 15.15 23.8711 15.15C20.0586 15.15 19.1086 10.8125 16.2461 10.8125C14.3336 10.8125 13.3836 15.15 11.4836 15.15C7.67109 15.15 6.72109 10.8125 3.85859 10.8125C1.95859 10.825 1.38359 13.9375 0.246094 13.9375V19.5C1.39609 19.5 1.95859 16.4125 3.87109 16.4125C6.72109 16.4125 7.67109 20.7375 11.4961 20.7375C13.3961 20.7375 14.3461 16.4125 16.2461 16.4125C19.1086 16.4125 20.0586 20.7375 23.8711 20.7375C25.7711 20.7375 26.7211 16.4125 28.6211 16.4125C31.4836 16.4125 32.4336 20.7375 36.2461 20.7375C38.1586 20.7375 39.1086 16.4125 41.0086 16.4125C43.8711 16.4125 44.8211 20.7375 48.6336 20.7375C50.5336 20.7375 51.4836 16.4125 53.3836 16.4125C56.2461 16.4125 57.2086 20.7375 61.0086 20.7375C62.9086 20.7375 63.5336 19.5125 64.2461 18.625V12.25V12.2125ZM64.2461 1.4C63.5336 2.275 62.9211 4.3375 61.0086 4.3375C57.1961 4.3375 56.2461 0 53.3836 0C51.4836 0 50.5336 4.3375 48.6336 4.3375C44.8086 4.3375 43.8586 0 41.0086 0C39.0961 0 38.1461 4.3375 36.2586 4.3375C32.4336 4.3375 31.4836 0 28.6336 0C26.7211 0 25.7711 4.3375 23.8586 4.3375C20.0461 4.3375 19.1211 0 16.2461 0C14.3336 0 13.3961 4.3375 11.4836 4.3375C7.67109 4.3375 6.72109 0 3.85859 0C1.97109 0 1.39609 3.1 0.246094 3.1V8.675C1.39609 8.675 1.95859 5.5875 3.87109 5.5875C6.72109 5.5875 7.67109 9.925 11.4961 9.925C13.3961 9.925 14.3461 5.5875 16.2461 5.5875C19.1086 5.5875 20.0586 9.925 23.8711 9.925C25.7711 9.925 26.7211 5.5875 28.6211 5.5875C31.4836 5.5875 32.4336 9.925 36.2461 9.925C38.1586 9.925 39.1086 5.5875 41.0086 5.5875C43.8711 5.5875 44.8211 9.925 48.6336 9.925C50.5336 9.925 51.4836 5.5875 53.3836 5.5875C56.2461 5.5875 57.2086 9.925 61.0086 9.925C62.9086 9.925 63.5336 8.6875 64.2461 7.8V1.4Z" fill="#000063"/>
<path id="Vector_2" fill-rule="evenodd" clip-rule="evenodd" d="M47.4086 21.125L46.9961 58.775C46.9961 60.7625 48.7836 60.7625 48.9711 58.775L48.5836 21.15L47.4086 21.125Z" fill="#A24300" stroke="#F5F5F5" stroke-width="0.2375"/>
<path id="Vector_3" fill-rule="evenodd" clip-rule="evenodd" d="M51.5088 35.125L50.2588 33.75L49.9588 35.1375L49.4088 33.1375L48.9088 34.1375L48.8213 32.0125L48.3213 33.025L48.2213 30.9L47.7213 31.9L47.4213 29.4L46.9213 30.4L46.6338 27.9L46.1338 28.9L45.8338 26.4L45.6963 25.15L45.9463 24.65L46.5963 24.9L47.6463 25.8875L49.7338 27.875L48.4338 27.375L50.5338 29.375L49.2338 28.875L51.3338 30.875L50.0338 30.375L51.9213 32L50.6213 31.5L52.5213 33.1125L51.2213 32.6125L52.6588 34.3625L51.1588 33.4875L51.5088 35.125V35.125Z" fill="#006D00" stroke="#F5F5F5" stroke-width="0.2125"/>
<path id="Vector_4" d="M49.7463 27.875L46.7463 26.15L46.1338 28.9M51.5088 35.125L45.9463 24.65L51.5088 35.125Z" stroke="black" stroke-width="0.0375"/>
<path id="Vector_5" d="M50.5334 29.375L47.5334 27.6375L46.9209 30.4125" stroke="black" stroke-width="0.0375"/>
<path id="Vector_6" d="M51.334 30.875L48.334 29.1375L47.709 31.9" stroke="black" stroke-width="0.0375"/>
<path id="Vector_7" d="M51.9211 32L49.1211 30.625L48.3086 33.0125" stroke="black" stroke-width="0.0375"/>
<path id="Vector_8" d="M52.5207 33.125L49.7207 31.75L48.9082 34.15" stroke="black" stroke-width="0.0375"/>
<path id="Vector_9" d="M52.6588 34.375L50.1213 32.5L49.9463 35.1375" stroke="black" stroke-width="0.0375"/>
<path id="Vector_10" fill-rule="evenodd" clip-rule="evenodd" d="M36.8961 17.25L38.9336 18.0375L38.3461 16.4875L40.1211 18.2375L39.9586 16.9875L41.3961 19.0875L41.2211 17.8375L42.6711 19.9375L42.4961 18.675L44.3711 21.05L44.1961 19.8L46.0586 22.175L45.8836 20.925L47.7586 23.3L48.6836 24.5L48.7711 25.125L48.0086 25.1875L46.3836 24.6875L43.1711 23.7L44.6961 23.575L41.4711 22.575L43.0086 22.45L39.7836 21.45L41.3086 21.325L38.5086 20.6125L40.0336 20.4875L37.2336 19.775L38.7586 19.6375L36.3086 18.575L38.2586 18.725L36.9086 17.25H36.8961Z" fill="#006D00" stroke="#F5F5F5" stroke-width="0.225"/>
<path id="Vector_11" d="M43.1715 23.7L47.0715 24L45.884 20.925M36.8965 17.25L48.7715 25.125L36.8965 17.25Z" stroke="black" stroke-width="0.0375"/>
<path id="Vector_12" d="M41.4707 22.575L45.3707 22.875L44.1957 19.8" stroke="black" stroke-width="0.0375"/>
<path id="Vector_13" d="M39.7832 21.4625L43.6832 21.75L42.4957 18.675" stroke="black" stroke-width="0.0375"/>
<path id="Vector_14" d="M38.5088 20.625H41.9838L41.2338 17.825" stroke="black" stroke-width="0.0375"/>
<path id="Vector_15" d="M37.2461 19.775H40.7211L39.9586 16.9875" stroke="black" stroke-width="0.0375"/>
<path id="Vector_16" d="M36.3086 18.575L39.8711 19.225L38.3461 16.4875" stroke="black" stroke-width="0.0375"/>
<path id="Vector_17" fill-rule="evenodd" clip-rule="evenodd" d="M60.5584 19.875L58.8709 21.125L60.7459 21.3375L58.1209 21.9625L59.5209 22.3625L56.6959 22.575L58.0834 22.9875L55.2584 23.1875L56.6459 23.6L53.3459 24.0125L54.7334 24.425L51.4334 24.8375L52.8209 25.2625L49.5209 25.675L47.8709 25.875L47.1709 25.675L47.4209 25.05L48.6459 24.0125L51.0834 21.95L50.5584 23.1875L52.9959 21.125L52.4709 22.3625L54.9084 20.3L54.3834 21.5375L56.3459 19.675L55.8209 20.925L57.7709 19.05L57.2584 20.3L59.4334 18.85L58.4334 20.3L60.5584 19.8875V19.875Z" fill="#006D00" stroke="#F5F5F5" stroke-width="0.225"/>
<path id="Vector_18" d="M51.0836 21.95L49.0836 24.8375L52.8336 25.2625M60.5586 19.875L47.1836 25.6625L60.5586 19.875Z" stroke="black" stroke-width="0.0375"/>
<path id="Vector_19" d="M52.9961 21.125L50.9961 24L54.7461 24.4125" stroke="black" stroke-width="0.0375"/>
<path id="Vector_20" d="M54.9082 20.3L52.9082 23.1875L56.6582 23.6" stroke="black" stroke-width="0.0375"/>
<path id="Vector_21" d="M56.3463 19.675L54.8213 22.3625L58.0838 22.9875" stroke="black" stroke-width="0.0375"/>
<path id="Vector_22" d="M57.7836 19.05L56.2461 21.75L59.4961 22.375" stroke="black" stroke-width="0.0375"/>
<path id="Vector_23" d="M59.434 18.85L57.209 21.325H60.7465" stroke="black" stroke-width="0.0375"/>
<path id="Vector_24" fill-rule="evenodd" clip-rule="evenodd" d="M60.2963 32.4125L58.1713 31.7875L58.9338 33.2875L56.9713 31.675L57.2713 32.925L55.6213 30.9375L55.9213 32.1875L54.2588 30.2L54.5588 31.45L52.4588 29.2125L52.7588 30.4625L50.6463 28.2375L50.9463 29.475L48.8338 27.25L47.7838 26.125L47.6338 25.5125L48.3838 25.3875L50.0463 25.7625L53.3588 26.4875L51.8588 26.7375L55.1588 27.475L53.6588 27.725L56.9713 28.45L55.4713 28.7L58.3338 29.2L56.8338 29.45L59.6838 29.925L58.1838 30.175L60.7338 31.05H58.7838L60.2838 32.4125H60.2963Z" fill="#006D00" stroke="#F5F5F5" stroke-width="0.225"/>
<path id="Vector_25" d="M53.3461 26.475L49.4211 26.4875L50.9336 29.4625M60.2961 32.4125L47.6211 25.5L60.2961 32.4125Z" stroke="black" stroke-width="0.0375"/>
<path id="Vector_26" d="M55.1586 27.475H51.2461L52.7461 30.45" stroke="black" stroke-width="0.0375"/>
<path id="Vector_27" d="M56.9711 28.45L53.0586 28.475L54.5586 31.4375" stroke="black" stroke-width="0.0375"/>
<path id="Vector_28" d="M58.3334 29.1875L54.8584 29.45L55.9209 32.175" stroke="black" stroke-width="0.0375"/>
<path id="Vector_29" d="M59.6832 29.925L56.2207 30.1875L57.2707 32.9125" stroke="black" stroke-width="0.0375"/>
<path id="Vector_30" d="M60.7461 31.0375L57.1211 30.6875L58.9336 33.2875" stroke="black" stroke-width="0.0375"/>
<path id="Vector_31" fill-rule="evenodd" clip-rule="evenodd" d="M38.2959 33.125L39.3584 31.65L37.7334 31.8875L39.7334 30.7625L38.4584 30.7L40.7584 29.875L39.4834 29.825L41.7709 29.0125L40.4959 28.95L43.1209 27.85L41.8584 27.7875L44.4834 26.6875L43.2084 26.6375L45.8459 25.525L47.1584 24.975L47.7959 25L47.7584 25.625L47.0459 26.8L45.5959 29.175L45.6834 27.9625L44.2459 30.3375L44.3209 29.125L42.8834 31.5L42.9709 30.2875L41.8709 32.375L41.9459 31.1625L40.8459 33.25L40.9334 32.025L39.5334 33.8L39.9584 32.2875L38.2959 33.125V33.125Z" fill="#006D00" stroke="#F5F5F5" stroke-width="0.2125"/>
<path id="Vector_32" d="M45.6209 29.1875L46.4584 26.1875L43.2209 26.65M38.2959 33.125L47.7959 25L38.2959 33.125Z" stroke="black" stroke-width="0.0375"/>
<path id="Vector_33" d="M44.2459 30.35L45.0834 27.325L41.8584 27.7875" stroke="black" stroke-width="0.0375"/>
<path id="Vector_34" d="M42.8838 31.5L43.7463 28.5L40.5088 28.9625" stroke="black" stroke-width="0.0375"/>
<path id="Vector_35" d="M41.8709 32.375L42.3709 29.65L39.4834 29.825" stroke="black" stroke-width="0.0375"/>
<path id="Vector_36" d="M40.8457 33.25L41.3457 30.5125L38.4707 30.7" stroke="black" stroke-width="0.0375"/>
<path id="Vector_37" d="M39.5336 33.8L40.6711 31.1L37.7461 31.8875" stroke="black" stroke-width="0.0375"/>
<path id="Vector_38" fill-rule="evenodd" clip-rule="evenodd" d="M57.4961 13.625L55.4461 15L55.1211 13.5375L53.9086 15.5625L53.6836 14.5875L52.7086 16.675L52.5711 15.7125L51.7961 17.85L51.3586 16.825L50.5961 19.425L50.1586 18.3875L49.3961 20.9875L48.9586 19.9625L48.1836 22.55L47.8086 23.85L48.0211 24.375L48.8461 24.1L50.2711 23.05L53.1086 20.9375L51.4836 21.475L54.3211 19.375L52.6711 19.9125L55.5211 17.8L53.8836 18.3375L56.7336 16.7L54.7836 17.1625L57.8586 15.575L55.9836 16.0625L58.2336 14.275L56.2961 15.2L57.4961 13.625Z" fill="#006D00" stroke="#F5F5F5" stroke-width="0.225"/>
<path id="Vector_39" d="M56.709 14.375L53.7465 16.9125L48.0215 24.375" stroke="black" stroke-width="0.0375"/>
<path id="Vector_40" d="M52.4963 21.25L49.2213 22.8L48.9463 20.425" stroke="black" stroke-width="0.0375"/>
<path id="Vector_41" d="M53.7457 19.7L50.4332 21.2375L50.1582 18.8625" stroke="black" stroke-width="0.0375"/>
<path id="Vector_42" d="M54.9213 18.125L51.6338 19.6625L51.3838 17.2875" stroke="black" stroke-width="0.0375"/>
<path id="Vector_43" d="M55.9084 16.9625L52.8459 18.0875L52.4834 16.1625" stroke="black" stroke-width="0.0375"/>
<path id="Vector_44" d="M57.0336 15.8375L53.7461 16.925L53.6211 15.0375" stroke="black" stroke-width="0.0375"/>
<path id="Vector_45" d="M57.4711 14.775L54.4336 16.3375L55.0211 13.975" stroke="black" stroke-width="0.0375"/>
<path id="Vector_46" fill-rule="evenodd" clip-rule="evenodd" d="M46.4086 11.0625L47.3336 13.15L48.5086 12.05L48.2961 14.325L49.0836 13.5875L48.6586 15.8125L49.3586 15.05L48.7086 17.2125L49.7086 16.5375L48.7961 19.1L49.7961 18.4125L48.8711 20.975L49.8711 20.2875L48.9461 22.85L48.4836 24.1375L47.9836 24.475L47.4461 23.875L46.8711 22.3375L45.7211 19.2625L46.7961 20.4625L45.6461 17.3875L46.7211 18.575L45.5711 15.5L46.6336 16.7L45.2086 14.025L46.5836 15.2875L44.9336 12.5625L46.2336 13.8125L45.3961 11.275L46.4836 12.95L46.4086 11.0625Z" fill="#006D00" stroke="#F5F5F5" stroke-width="0.225"/>
<path id="Vector_47" d="M46.6465 12.05L47.6215 15.55L47.984 24.475" stroke="black" stroke-width="0.0375"/>
<path id="Vector_48" d="M46.0586 19.8125L47.9086 22.6L49.5836 20.6875" stroke="black" stroke-width="0.0375"/>
<path id="Vector_49" d="M45.9336 17.925L47.8336 20.7125L49.5086 18.8125" stroke="black" stroke-width="0.0375"/>
<path id="Vector_50" d="M45.8838 16.05L47.7588 18.8375L49.4088 16.925" stroke="black" stroke-width="0.0375"/>
<path id="Vector_51" d="M45.7461 14.625L47.6836 16.9625L49.1586 15.4625" stroke="black" stroke-width="0.0375"/>
<path id="Vector_52" d="M45.4707 13.1625L47.6207 15.55L48.8707 14" stroke="black" stroke-width="0.0375"/>
<path id="Vector_53" d="M45.7461 12.05L47.3961 14.75L48.3211 12.4625" stroke="black" stroke-width="0.0375"/>
<path id="Vector_54" fill-rule="evenodd" clip-rule="evenodd" d="M34.1465 26.4125L36.8215 24.5625L35.484 23.875L37.8215 24.275L37.0215 23.2125L39.2965 24.0625L38.484 23L40.7715 23.85L39.959 22.8L42.709 23.725L41.909 22.6625L44.584 24.0375L43.7715 22.9875L46.5215 23.9125L47.859 24.6L48.259 25.1375L47.7215 25.5125L46.259 25.7125L43.884 26.6875L44.3215 25.85L41.3715 26.25L42.4465 25.5125L39.434 26.3875L40.4965 25.6375L37.959 26.6L39.0965 25.4L36.484 26.8L37.6215 25.6125L35.4965 27.1L36.684 25.45L34.1465 26.4125Z" fill="#006D00" stroke="#F5F5F5" stroke-width="0.2125"/>
<path id="Vector_55" d="M34.9961 25.9125L37.7461 24.725L39.2461 24.5L40.4711 24.4875L42.5961 24.6125L44.4961 24.7L48.2461 25.125" stroke="black" stroke-width="0.0375"/>
<path id="Vector_56" d="M44.2465 26.3L46.3715 25L44.209 23.3125" stroke="black" stroke-width="0.0375"/>
<path id="Vector_57" d="M41.8711 26.1L44.4836 24.7125L42.3336 23.025" stroke="black" stroke-width="0.0375"/>
<path id="Vector_58" d="M37.0332 26.4375L39.2332 24.5125L37.4457 23.5375M40.1832 26.0625L42.5707 24.625L40.4082 23.0625L40.1832 26.0625Z" stroke="black" stroke-width="0.0375"/>
<path id="Vector_59" d="M38.4959 26.225L40.6709 24.5L38.9209 23.3125M36.0459 26.575L37.7584 24.725L36.3834 24.225L36.0459 26.575Z" stroke="black" stroke-width="0.0375"/>
<g id="Group">
<path id="Vector_60" fill-rule="evenodd" clip-rule="evenodd" d="M43.1315 46.6993L43.1063 43.5787L42.2022 42.1212C41.9758 41.4047 42.0868 41.0587 42.4537 41.0342C42.8192 41.0124 43.1818 41.2195 43.7086 41.2426C44.2354 41.2658 44.1362 40.4335 44.9146 40.4567C45.6929 40.4798 47.0498 40.8966 48.204 40.9661C49.3597 41.0342 49.962 40.5956 51.2938 40.5493C52.6255 40.503 52.9762 41.1268 53.0517 41.1268C53.1272 41.1268 53.5045 40.8735 53.8804 40.8272C54.2577 40.7809 54.3835 40.9661 54.3835 40.9661C54.3835 40.9661 54.3583 41.7521 54.1822 42.2138C54.0061 42.6769 53.3787 43.4397 53.3536 43.4397C53.3284 43.4397 53.1272 46.8382 53.1272 46.8614C53.1272 46.8845 43.1315 46.7688 43.1315 46.6993V46.6993Z" fill="#CC0000" stroke="black" stroke-width="0.0141972"/>
<g id="Group_2">
<path id="Vector_61" fill-rule="evenodd" clip-rule="evenodd" d="M53.4717 43.5015C53.4717 43.5015 54.4779 42.7932 54.5046 41.0892C54.5194 40.1084 53.9955 39.4001 52.6845 39.4001C50.8496 39.4001 48.229 40.1234 48.229 40.1234V40.3645C48.229 40.3645 50.3258 39.6412 52.686 39.6412C53.7336 39.6412 54.2589 40.3495 54.2589 41.0742C54.2589 42.281 53.2083 43.5028 53.2083 43.5028V45.433H53.4717V43.5015Z" fill="#FFF100" stroke="black" stroke-width="0.0141972"/>
<path id="Vector_62" fill-rule="evenodd" clip-rule="evenodd" d="M54.0189 42.9975C54.0162 43.0308 54.0209 43.0642 54.0329 43.0957C54.0449 43.1272 54.0638 43.1561 54.0884 43.1806C54.1131 43.205 54.143 43.2246 54.1762 43.2379C54.2094 43.2513 54.2453 43.2581 54.2815 43.2581C54.3178 43.2581 54.3536 43.2513 54.3869 43.2379C54.4201 43.2246 54.45 43.205 54.4746 43.1806C54.4993 43.1561 54.5182 43.1272 54.5302 43.0957C54.5421 43.0642 54.5469 43.0308 54.5442 42.9975C54.5392 42.9365 54.5094 42.8795 54.4607 42.8379C54.412 42.7963 54.348 42.7732 54.2815 42.7732C54.2151 42.7732 54.1511 42.7963 54.1024 42.8379C54.0537 42.8795 54.0238 42.9365 54.0189 42.9975Z" fill="#F5F5F5" stroke="black" stroke-width="0.0141972"/>
<path id="Vector_63" fill-rule="evenodd" clip-rule="evenodd" d="M54.2786 42.445C54.2759 42.4783 54.2807 42.5117 54.2927 42.5432C54.3046 42.5747 54.3235 42.6036 54.3482 42.6281C54.3728 42.6526 54.4027 42.6721 54.436 42.6854C54.4692 42.6988 54.505 42.7057 54.5413 42.7057C54.5775 42.7057 54.6134 42.6988 54.6466 42.6854C54.6799 42.6721 54.7097 42.6526 54.7344 42.6281C54.759 42.6036 54.7779 42.5747 54.7899 42.5432C54.8019 42.5117 54.8067 42.4783 54.8039 42.445C54.799 42.384 54.7691 42.327 54.7204 42.2854C54.6717 42.2438 54.6077 42.2207 54.5413 42.2207C54.4749 42.2207 54.4109 42.2438 54.3622 42.2854C54.3134 42.327 54.2836 42.384 54.2786 42.445Z" fill="#F5F5F5" stroke="black" stroke-width="0.0141972"/>
<path id="Vector_64" fill-rule="evenodd" clip-rule="evenodd" d="M54.4193 41.8816C54.4165 41.9149 54.4213 41.9484 54.4333 41.9799C54.4453 42.0114 54.4642 42.0402 54.4888 42.0647C54.5135 42.0892 54.5434 42.1087 54.5766 42.122C54.6098 42.1354 54.6457 42.1423 54.6819 42.1423C54.7182 42.1423 54.754 42.1354 54.7873 42.122C54.8205 42.1087 54.8504 42.0892 54.875 42.0647C54.8997 42.0402 54.9186 42.0114 54.9305 41.9799C54.9425 41.9484 54.9473 41.9149 54.9446 41.8816C54.9396 41.8207 54.9098 41.7637 54.8611 41.7221C54.8123 41.6805 54.7484 41.6573 54.6819 41.6573C54.6155 41.6573 54.5515 41.6805 54.5028 41.7221C54.4541 41.7637 54.4242 41.8207 54.4193 41.8816Z" fill="#F5F5F5" stroke="black" stroke-width="0.0141972"/>
<path id="Vector_65" fill-rule="evenodd" clip-rule="evenodd" d="M54.5169 41.2858C54.5142 41.3191 54.519 41.3525 54.5309 41.384C54.5429 41.4155 54.5618 41.4444 54.5865 41.4688C54.6111 41.4933 54.641 41.5128 54.6742 41.5262C54.7075 41.5395 54.7433 41.5464 54.7796 41.5464C54.8158 41.5464 54.8517 41.5395 54.8849 41.5262C54.9181 41.5128 54.948 41.4933 54.9727 41.4688C54.9973 41.4444 55.0162 41.4155 55.0282 41.384C55.0402 41.3525 55.0449 41.3191 55.0422 41.2858C55.0373 41.2248 55.0074 41.1678 54.9587 41.1262C54.91 41.0846 54.846 41.0615 54.7796 41.0615C54.7131 41.0615 54.6491 41.0846 54.6004 41.1262C54.5517 41.1678 54.5219 41.2248 54.5169 41.2858Z" fill="#F5F5F5" stroke="black" stroke-width="0.0141972"/>
<path id="Vector_66" fill-rule="evenodd" clip-rule="evenodd" d="M54.4954 40.6358C54.4927 40.669 54.4975 40.7025 54.5095 40.734C54.5214 40.7655 54.5403 40.7944 54.565 40.8188C54.5896 40.8433 54.6195 40.8628 54.6527 40.8762C54.686 40.8895 54.7218 40.8964 54.7581 40.8964C54.7943 40.8964 54.8302 40.8895 54.8634 40.8762C54.8967 40.8628 54.9265 40.8433 54.9512 40.8188C54.9758 40.7944 54.9947 40.7655 55.0067 40.734C55.0187 40.7025 55.0235 40.669 55.0207 40.6358C55.0158 40.5748 54.9859 40.5178 54.9372 40.4762C54.8885 40.4346 54.8245 40.4115 54.7581 40.4115C54.6916 40.4115 54.6277 40.4346 54.579 40.4762C54.5302 40.5178 54.5004 40.5748 54.4954 40.6358Z" fill="#F5F5F5" stroke="black" stroke-width="0.0141972"/>
<path id="Vector_67" fill-rule="evenodd" clip-rule="evenodd" d="M53.64 43.485C53.6372 43.5183 53.642 43.5518 53.654 43.5833C53.666 43.6147 53.6849 43.6436 53.7095 43.6681C53.7342 43.6926 53.7641 43.7121 53.7973 43.7254C53.8305 43.7388 53.8664 43.7457 53.9026 43.7457C53.9389 43.7457 53.9747 43.7388 54.008 43.7254C54.0412 43.7121 54.0711 43.6926 54.0957 43.6681C54.1204 43.6436 54.1393 43.6147 54.1512 43.5833C54.1632 43.5518 54.168 43.5183 54.1653 43.485C54.1603 43.4241 54.1305 43.367 54.0818 43.3255C54.033 43.2839 53.9691 43.2607 53.9026 43.2607C53.8362 43.2607 53.7722 43.2839 53.7235 43.3255C53.6748 43.367 53.6449 43.4241 53.64 43.485Z" fill="#F5F5F5" stroke="black" stroke-width="0.0141972"/>
<path id="Vector_68" fill-rule="evenodd" clip-rule="evenodd" d="M54.2679 40.0183C54.2652 40.0516 54.27 40.085 54.2819 40.1165C54.2939 40.148 54.3128 40.1769 54.3375 40.2013C54.3621 40.2258 54.392 40.2453 54.4252 40.2587C54.4584 40.272 54.4943 40.2789 54.5305 40.2789C54.5668 40.2789 54.6027 40.272 54.6359 40.2587C54.6691 40.2453 54.699 40.2258 54.7236 40.2013C54.7483 40.1769 54.7672 40.148 54.7792 40.1165C54.7911 40.085 54.7959 40.0516 54.7932 40.0183C54.7882 39.9573 54.7584 39.9003 54.7097 39.8587C54.661 39.8171 54.597 39.794 54.5305 39.794C54.4641 39.794 54.4001 39.8171 54.3514 39.8587C54.3027 39.9003 54.2729 39.9573 54.2679 40.0183Z" fill="#F5F5F5" stroke="black" stroke-width="0.0141972"/>
<path id="Vector_69" fill-rule="evenodd" clip-rule="evenodd" d="M53.7806 39.5308C53.7779 39.5641 53.7827 39.5975 53.7946 39.629C53.8066 39.6605 53.8255 39.6894 53.8501 39.7138C53.8748 39.7383 53.9047 39.7578 53.9379 39.7712C53.9711 39.7845 54.007 39.7914 54.0432 39.7914C54.0795 39.7914 54.1154 39.7845 54.1486 39.7712C54.1818 39.7578 54.2117 39.7383 54.2363 39.7138C54.261 39.6894 54.2799 39.6605 54.2919 39.629C54.3038 39.5975 54.3086 39.5641 54.3059 39.5308C54.3009 39.4698 54.2711 39.4128 54.2224 39.3712C54.1737 39.3296 54.1097 39.3065 54.0432 39.3065C53.9768 39.3065 53.9128 39.3296 53.8641 39.3712C53.8154 39.4128 53.7856 39.4698 53.7806 39.5308Z" fill="#F5F5F5" stroke="black" stroke-width="0.0141972"/>
<path id="Vector_70" fill-rule="evenodd" clip-rule="evenodd" d="M53.1302 39.2058C53.1275 39.2391 53.1323 39.2725 53.1442 39.304C53.1562 39.3355 53.1751 39.3644 53.1998 39.3888C53.2244 39.4133 53.2543 39.4328 53.2875 39.4462C53.3207 39.4595 53.3566 39.4664 53.3929 39.4664C53.4291 39.4664 53.465 39.4595 53.4982 39.4462C53.5314 39.4328 53.5613 39.4133 53.586 39.3888C53.6106 39.3644 53.6295 39.3355 53.6415 39.304C53.6534 39.2725 53.6582 39.2391 53.6555 39.2058C53.6505 39.1448 53.6207 39.0878 53.572 39.0462C53.5233 39.0046 53.4593 38.9815 53.3929 38.9815C53.3264 38.9815 53.2624 39.0046 53.2137 39.0462C53.165 39.0878 53.1352 39.1448 53.1302 39.2058Z" fill="#F5F5F5" stroke="black" stroke-width="0.0141972"/>
<path id="Vector_71" fill-rule="evenodd" clip-rule="evenodd" d="M52.4808 39.1625C52.4781 39.1958 52.4828 39.2292 52.4948 39.2607C52.5068 39.2922 52.5257 39.3211 52.5503 39.3456C52.575 39.3701 52.6049 39.3896 52.6381 39.4029C52.6713 39.4163 52.7072 39.4231 52.7434 39.4231C52.7797 39.4231 52.8156 39.4163 52.8488 39.4029C52.882 39.3896 52.9119 39.3701 52.9365 39.3456C52.9612 39.3211 52.9801 39.2922 52.9921 39.2607C53.004 39.2292 53.0088 39.1958 53.0061 39.1625C53.0011 39.1015 52.9713 39.0445 52.9226 39.0029C52.8739 38.9613 52.8099 38.9382 52.7434 38.9382C52.677 38.9382 52.613 38.9613 52.5643 39.0029C52.5156 39.0445 52.4858 39.1015 52.4808 39.1625Z" fill="#F5F5F5" stroke="black" stroke-width="0.0141972"/>
<path id="Vector_72" fill-rule="evenodd" clip-rule="evenodd" d="M51.7757 39.1841C51.773 39.2174 51.7778 39.2508 51.7897 39.2823C51.8017 39.3138 51.8206 39.3427 51.8453 39.3672C51.8699 39.3917 51.8998 39.4112 51.933 39.4245C51.9662 39.4379 52.0021 39.4448 52.0384 39.4448C52.0746 39.4448 52.1105 39.4379 52.1437 39.4245C52.1769 39.4112 52.2068 39.3917 52.2315 39.3672C52.2561 39.3427 52.275 39.3138 52.287 39.2823C52.299 39.2508 52.3037 39.2174 52.301 39.1841C52.296 39.1231 52.2662 39.0661 52.2175 39.0245C52.1688 38.983 52.1048 38.9598 52.0384 38.9598C51.9719 38.9598 51.9079 38.983 51.8592 39.0245C51.8105 39.0661 51.7807 39.1231 51.7757 39.1841Z" fill="#F5F5F5" stroke="black" stroke-width="0.0141972"/>
<path id="Vector_73" fill-rule="evenodd" clip-rule="evenodd" d="M51.0716 39.2816C51.0689 39.3149 51.0737 39.3484 51.0856 39.3799C51.0976 39.4113 51.1165 39.4402 51.1412 39.4647C51.1658 39.4892 51.1957 39.5087 51.2289 39.522C51.2621 39.5354 51.298 39.5423 51.3343 39.5423C51.3705 39.5423 51.4064 39.5354 51.4396 39.522C51.4728 39.5087 51.5027 39.4892 51.5274 39.4647C51.552 39.4402 51.5709 39.4113 51.5829 39.3799C51.5949 39.3484 51.5996 39.3149 51.5969 39.2816C51.5919 39.2207 51.5621 39.1636 51.5134 39.1221C51.4647 39.0805 51.4007 39.0573 51.3343 39.0573C51.2678 39.0573 51.2038 39.0805 51.1551 39.1221C51.1064 39.1636 51.0766 39.2207 51.0716 39.2816Z" fill="#F5F5F5" stroke="black" stroke-width="0.0141972"/>
<path id="Vector_74" fill-rule="evenodd" clip-rule="evenodd" d="M50.3782 39.3683C50.3755 39.4016 50.3803 39.435 50.3923 39.4665C50.4042 39.498 50.4231 39.5269 50.4478 39.5513C50.4725 39.5758 50.5023 39.5953 50.5356 39.6087C50.5688 39.622 50.6046 39.6289 50.6409 39.6289C50.6772 39.6289 50.713 39.622 50.7462 39.6087C50.7795 39.5953 50.8093 39.5758 50.834 39.5513C50.8587 39.5269 50.8776 39.498 50.8895 39.4665C50.9015 39.435 50.9063 39.4016 50.9036 39.3683C50.8986 39.3073 50.8687 39.2503 50.82 39.2087C50.7713 39.1671 50.7073 39.144 50.6409 39.144C50.5745 39.144 50.5105 39.1671 50.4618 39.2087C50.4131 39.2503 50.3832 39.3073 50.3782 39.3683Z" fill="#F5F5F5" stroke="black" stroke-width="0.0141972"/>
<path id="Vector_75" fill-rule="evenodd" clip-rule="evenodd" d="M49.6204 39.4766C49.6177 39.5099 49.6225 39.5434 49.6345 39.5749C49.6464 39.6064 49.6653 39.6352 49.69 39.6597C49.7146 39.6842 49.7445 39.7037 49.7777 39.717C49.811 39.7304 49.8468 39.7373 49.8831 39.7373C49.9193 39.7373 49.9552 39.7304 49.9884 39.717C50.0217 39.7037 50.0515 39.6842 50.0762 39.6597C50.1008 39.6352 50.1197 39.6064 50.1317 39.5749C50.1437 39.5434 50.1485 39.5099 50.1457 39.4766C50.1408 39.4157 50.1109 39.3587 50.0622 39.3171C50.0135 39.2755 49.9495 39.2523 49.8831 39.2523C49.8166 39.2523 49.7527 39.2755 49.704 39.3171C49.6552 39.3587 49.6254 39.4157 49.6204 39.4766Z" fill="#F5F5F5" stroke="black" stroke-width="0.0141972"/>
<path id="Vector_76" fill-rule="evenodd" clip-rule="evenodd" d="M48.97 39.65C48.9673 39.6833 48.9721 39.7167 48.9841 39.7482C48.996 39.7797 49.0149 39.8086 49.0396 39.8331C49.0643 39.8575 49.0941 39.8771 49.1274 39.8904C49.1606 39.9037 49.1964 39.9106 49.2327 39.9106C49.269 39.9106 49.3048 39.9037 49.338 39.8904C49.3713 39.8771 49.4011 39.8575 49.4258 39.8331C49.4505 39.8086 49.4694 39.7797 49.4813 39.7482C49.4933 39.7167 49.4981 39.6833 49.4954 39.65C49.4904 39.589 49.4605 39.532 49.4118 39.4904C49.3631 39.4488 49.2991 39.4257 49.2327 39.4257C49.1663 39.4257 49.1023 39.4488 49.0536 39.4904C49.0049 39.532 48.975 39.589 48.97 39.65Z" fill="#F5F5F5" stroke="black" stroke-width="0.0141972"/>
</g>
<path id="Vector_77" fill-rule="evenodd" clip-rule="evenodd" d="M42.4362 42.9975C42.4389 43.0308 42.4341 43.0642 42.4222 43.0957C42.4102 43.1272 42.3913 43.1561 42.3666 43.1806C42.342 43.205 42.3121 43.2246 42.2789 43.2379C42.2457 43.2513 42.2098 43.2581 42.1736 43.2581C42.1373 43.2581 42.1014 43.2513 42.0682 43.2379C42.035 43.2246 42.0051 43.205 41.9805 43.1806C41.9558 43.1561 41.9369 43.1272 41.9249 43.0957C41.913 43.0642 41.9082 43.0308 41.9109 42.9975C41.9159 42.9365 41.9457 42.8795 41.9944 42.8379C42.0431 42.7963 42.1071 42.7732 42.1736 42.7732C42.24 42.7732 42.304 42.7963 42.3527 42.8379C42.4014 42.8795 42.4312 42.9365 42.4362 42.9975Z" fill="#F5F5F5" stroke="black" stroke-width="0.0141972"/>
<path id="Vector_78" fill-rule="evenodd" clip-rule="evenodd" d="M42.1657 42.445C42.1684 42.4783 42.1636 42.5117 42.1517 42.5432C42.1397 42.5747 42.1208 42.6036 42.0961 42.6281C42.0715 42.6526 42.0416 42.6721 42.0084 42.6854C41.9752 42.6988 41.9393 42.7057 41.903 42.7057C41.8668 42.7057 41.8309 42.6988 41.7977 42.6854C41.7645 42.6721 41.7346 42.6526 41.7099 42.6281C41.6853 42.6036 41.6664 42.5747 41.6544 42.5432C41.6424 42.5117 41.6377 42.4783 41.6404 42.445C41.6454 42.384 41.6752 42.327 41.7239 42.2854C41.7726 42.2438 41.8366 42.2207 41.903 42.2207C41.9695 42.2207 42.0335 42.2438 42.0822 42.2854C42.1309 42.327 42.1607 42.384 42.1657 42.445Z" fill="#F5F5F5" stroke="black" stroke-width="0.0141972"/>
<path id="Vector_79" fill-rule="evenodd" clip-rule="evenodd" d="M42.0358 41.8816C42.0385 41.9149 42.0338 41.9484 42.0218 41.9799C42.0098 42.0114 41.9909 42.0402 41.9663 42.0647C41.9416 42.0892 41.9117 42.1087 41.8785 42.122C41.8453 42.1354 41.8094 42.1423 41.7732 42.1423C41.7369 42.1423 41.701 42.1354 41.6678 42.122C41.6346 42.1087 41.6047 42.0892 41.5801 42.0647C41.5554 42.0402 41.5365 42.0114 41.5245 41.9799C41.5126 41.9484 41.5078 41.9149 41.5105 41.8816C41.5155 41.8207 41.5453 41.7637 41.594 41.7221C41.6427 41.6805 41.7067 41.6573 41.7732 41.6573C41.8396 41.6573 41.9036 41.6805 41.9523 41.7221C42.001 41.7637 42.0308 41.8207 42.0358 41.8816Z" fill="#F5F5F5" stroke="black" stroke-width="0.0141972"/>
<path id="Vector_80" fill-rule="evenodd" clip-rule="evenodd" d="M41.9382 41.2858C41.9409 41.3191 41.9361 41.3525 41.9241 41.384C41.9122 41.4155 41.8933 41.4444 41.8686 41.4688C41.8439 41.4933 41.8141 41.5128 41.7808 41.5262C41.7476 41.5395 41.7118 41.5464 41.6755 41.5464C41.6393 41.5464 41.6034 41.5395 41.5702 41.5262C41.5369 41.5128 41.5071 41.4933 41.4824 41.4688C41.4578 41.4444 41.4388 41.4155 41.4269 41.384C41.4149 41.3525 41.4101 41.3191 41.4128 41.2858C41.4178 41.2248 41.4477 41.1678 41.4964 41.1262C41.5451 41.0846 41.6091 41.0615 41.6755 41.0615C41.7419 41.0615 41.8059 41.0846 41.8546 41.1262C41.9034 41.1678 41.9332 41.2248 41.9382 41.2858Z" fill="#F5F5F5" stroke="black" stroke-width="0.0141972"/>
<path id="Vector_81" fill-rule="evenodd" clip-rule="evenodd" d="M41.9596 40.6358C41.9624 40.6691 41.9576 40.7025 41.9456 40.734C41.9336 40.7655 41.9147 40.7944 41.8901 40.8189C41.8654 40.8433 41.8356 40.8628 41.8023 40.8762C41.7691 40.8895 41.7332 40.8964 41.697 40.8964C41.6607 40.8964 41.6249 40.8895 41.5916 40.8762C41.5584 40.8628 41.5285 40.8433 41.5039 40.8189C41.4792 40.7944 41.4603 40.7655 41.4484 40.734C41.4364 40.7025 41.4316 40.6691 41.4343 40.6358C41.4393 40.5748 41.4691 40.5178 41.5179 40.4762C41.5666 40.4346 41.6305 40.4115 41.697 40.4115C41.7634 40.4115 41.8274 40.4346 41.8761 40.4762C41.9248 40.5178 41.9547 40.5748 41.9596 40.6358Z" fill="#F5F5F5" stroke="black" stroke-width="0.0141972"/>
<path id="Vector_82" fill-rule="evenodd" clip-rule="evenodd" d="M42.1764 40.0183C42.1792 40.0516 42.1744 40.085 42.1624 40.1165C42.1504 40.148 42.1315 40.1769 42.1069 40.2013C42.0822 40.2258 42.0524 40.2453 42.0191 40.2587C41.9859 40.272 41.95 40.2789 41.9138 40.2789C41.8775 40.2789 41.8417 40.272 41.8084 40.2587C41.7752 40.2453 41.7453 40.2258 41.7207 40.2013C41.696 40.1769 41.6771 40.148 41.6652 40.1165C41.6532 40.085 41.6484 40.0516 41.6511 40.0183C41.6561 39.9573 41.6859 39.9003 41.7346 39.8587C41.7834 39.8171 41.8473 39.794 41.9138 39.794C41.9802 39.794 42.0442 39.8171 42.0929 39.8587C42.1416 39.9003 42.1715 39.9573 42.1764 40.0183Z" fill="#F5F5F5" stroke="black" stroke-width="0.0141972"/>
<path id="Vector_83" fill-rule="evenodd" clip-rule="evenodd" d="M42.653 39.5308C42.6557 39.5641 42.6509 39.5975 42.639 39.629C42.627 39.6605 42.6081 39.6894 42.5834 39.7138C42.5588 39.7383 42.5289 39.7578 42.4957 39.7712C42.4625 39.7845 42.4266 39.7914 42.3903 39.7914C42.3541 39.7914 42.3182 39.7845 42.285 39.7712C42.2518 39.7578 42.2219 39.7383 42.1973 39.7138C42.1726 39.6894 42.1537 39.6605 42.1417 39.629C42.1298 39.5975 42.125 39.5641 42.1277 39.5308C42.1327 39.4698 42.1625 39.4128 42.2112 39.3712C42.2599 39.3296 42.3239 39.3065 42.3903 39.3065C42.4568 39.3065 42.5208 39.3296 42.5695 39.3712C42.6182 39.4128 42.648 39.4698 42.653 39.5308Z" fill="#F5F5F5" stroke="black" stroke-width="0.0141972"/>
<path id="Vector_84" fill-rule="evenodd" clip-rule="evenodd" d="M43.3141 39.2058C43.3169 39.2391 43.3121 39.2725 43.3001 39.304C43.2881 39.3355 43.2692 39.3644 43.2446 39.3888C43.2199 39.4133 43.19 39.4328 43.1568 39.4462C43.1236 39.4595 43.0877 39.4664 43.0515 39.4664C43.0152 39.4664 42.9794 39.4595 42.9461 39.4462C42.9129 39.4328 42.883 39.4133 42.8584 39.3888C42.8337 39.3644 42.8148 39.3355 42.8029 39.304C42.7909 39.2725 42.7861 39.2391 42.7888 39.2058C42.7938 39.1448 42.8236 39.0878 42.8723 39.0462C42.9211 39.0046 42.985 38.9815 43.0515 38.9815C43.1179 38.9815 43.1819 39.0046 43.2306 39.0462C43.2793 39.0878 43.3092 39.1448 43.3141 39.2058Z" fill="#F5F5F5" stroke="black" stroke-width="0.0141972"/>
<path id="Vector_85" fill-rule="evenodd" clip-rule="evenodd" d="M43.9645 39.1625C43.9672 39.1958 43.9625 39.2292 43.9505 39.2607C43.9385 39.2922 43.9196 39.3211 43.895 39.3456C43.8703 39.3701 43.8404 39.3896 43.8072 39.4029C43.774 39.4163 43.7381 39.4231 43.7019 39.4231C43.6656 39.4231 43.6298 39.4163 43.5965 39.4029C43.5633 39.3896 43.5334 39.3701 43.5088 39.3456C43.4841 39.3211 43.4652 39.2922 43.4532 39.2607C43.4413 39.2292 43.4365 39.1958 43.4392 39.1625C43.4442 39.1015 43.474 39.0445 43.5227 39.0029C43.5714 38.9613 43.6354 38.9382 43.7019 38.9382C43.7683 38.9382 43.8323 38.9613 43.881 39.0029C43.9297 39.0445 43.9596 39.1015 43.9645 39.1625Z" fill="#F5F5F5" stroke="black" stroke-width="0.0141972"/>
<path id="Vector_86" fill-rule="evenodd" clip-rule="evenodd" d="M44.6686 39.1842C44.6713 39.2174 44.6666 39.2509 44.6546 39.2824C44.6426 39.3139 44.6237 39.3428 44.5991 39.3672C44.5744 39.3917 44.5445 39.4112 44.5113 39.4246C44.4781 39.4379 44.4422 39.4448 44.406 39.4448C44.3697 39.4448 44.3339 39.4379 44.3006 39.4246C44.2674 39.4112 44.2375 39.3917 44.2129 39.3672C44.1882 39.3428 44.1693 39.3139 44.1573 39.2824C44.1454 39.2509 44.1406 39.2174 44.1433 39.1842C44.1483 39.1232 44.1781 39.0662 44.2268 39.0246C44.2755 38.983 44.3395 38.9599 44.406 38.9599C44.4724 38.9599 44.5364 38.983 44.5851 39.0246C44.6338 39.0662 44.6637 39.1232 44.6686 39.1842Z" fill="#F5F5F5" stroke="black" stroke-width="0.0141972"/>
<path id="Vector_87" fill-rule="evenodd" clip-rule="evenodd" d="M45.3727 39.2817C45.3754 39.3149 45.3707 39.3484 45.3587 39.3799C45.3467 39.4114 45.3278 39.4403 45.3032 39.4647C45.2785 39.4892 45.2486 39.5087 45.2154 39.5221C45.1822 39.5354 45.1463 39.5423 45.1101 39.5423C45.0738 39.5423 45.038 39.5354 45.0047 39.5221C44.9715 39.5087 44.9416 39.4892 44.917 39.4647C44.8923 39.4403 44.8734 39.4114 44.8614 39.3799C44.8495 39.3484 44.8447 39.3149 44.8474 39.2817C44.8524 39.2207 44.8822 39.1637 44.9309 39.1221C44.9796 39.0805 45.0436 39.0574 45.1101 39.0574C45.1765 39.0574 45.2405 39.0805 45.2892 39.1221C45.3379 39.1637 45.3678 39.2207 45.3727 39.2817Z" fill="#F5F5F5" stroke="black" stroke-width="0.0141972"/>
<path id="Vector_88" fill-rule="evenodd" clip-rule="evenodd" d="M46.0768 39.3683C46.0795 39.4016 46.0748 39.435 46.0628 39.4665C46.0508 39.498 46.0319 39.5269 46.0073 39.5513C45.9826 39.5758 45.9527 39.5953 45.9195 39.6087C45.8863 39.622 45.8504 39.6289 45.8142 39.6289C45.7779 39.6289 45.7421 39.622 45.7088 39.6087C45.6756 39.5953 45.6457 39.5758 45.6211 39.5513C45.5964 39.5269 45.5775 39.498 45.5656 39.4665C45.5536 39.435 45.5488 39.4016 45.5515 39.3683C45.5565 39.3073 45.5863 39.2503 45.635 39.2087C45.6837 39.1671 45.7477 39.144 45.8142 39.144C45.8806 39.144 45.9446 39.1671 45.9933 39.2087C46.042 39.2503 46.0719 39.3073 46.0768 39.3683Z" fill="#F5F5F5" stroke="black" stroke-width="0.0141972"/>
<path id="Vector_89" fill-rule="evenodd" clip-rule="evenodd" d="M46.8239 39.4766C46.8266 39.5099 46.8218 39.5434 46.8099 39.5749C46.7979 39.6064 46.779 39.6352 46.7543 39.6597C46.7297 39.6842 46.6998 39.7037 46.6666 39.717C46.6334 39.7304 46.5975 39.7373 46.5612 39.7373C46.525 39.7373 46.4891 39.7304 46.4559 39.717C46.4227 39.7037 46.3928 39.6842 46.3681 39.6597C46.3435 39.6352 46.3246 39.6064 46.3126 39.5749C46.3007 39.5434 46.2959 39.5099 46.2986 39.4766C46.3036 39.4157 46.3334 39.3587 46.3821 39.3171C46.4308 39.2755 46.4948 39.2523 46.5612 39.2523C46.6277 39.2523 46.6917 39.2755 46.7404 39.3171C46.7891 39.3587 46.8189 39.4157 46.8239 39.4766Z" fill="#F5F5F5" stroke="black" stroke-width="0.0141972"/>
<path id="Vector_90" fill-rule="evenodd" clip-rule="evenodd" d="M47.4743 39.65C47.477 39.6833 47.4722 39.7167 47.4603 39.7482C47.4483 39.7797 47.4294 39.8086 47.4047 39.8331C47.3801 39.8575 47.3502 39.8771 47.317 39.8904C47.2838 39.9037 47.2479 39.9106 47.2116 39.9106C47.1754 39.9106 47.1395 39.9037 47.1063 39.8904C47.0731 39.8771 47.0432 39.8575 47.0185 39.8331C46.9939 39.8086 46.975 39.7797 46.963 39.7482C46.951 39.7167 46.9463 39.6833 46.949 39.65C46.954 39.589 46.9838 39.532 47.0325 39.4904C47.0812 39.4488 47.1452 39.4257 47.2116 39.4257C47.2781 39.4257 47.3421 39.4488 47.3908 39.4904C47.4395 39.532 47.4693 39.589 47.4743 39.65Z" fill="#F5F5F5" stroke="black" stroke-width="0.0141972"/>
<path id="Vector_91" fill-rule="evenodd" clip-rule="evenodd" d="M42.8053 43.485C42.8081 43.5183 42.8033 43.5518 42.7913 43.5833C42.7793 43.6147 42.7604 43.6436 42.7358 43.6681C42.7111 43.6926 42.6813 43.7121 42.648 43.7254C42.6148 43.7388 42.5789 43.7457 42.5427 43.7457C42.5064 43.7457 42.4706 43.7388 42.4374 43.7254C42.4041 43.7121 42.3742 43.6926 42.3496 43.6681C42.3249 43.6436 42.306 43.6147 42.2941 43.5833C42.2821 43.5518 42.2773 43.5183 42.28 43.485C42.285 43.4241 42.3148 43.367 42.3636 43.3255C42.4123 43.2839 42.4763 43.2607 42.5427 43.2607C42.6091 43.2607 42.6731 43.2839 42.7218 43.3255C42.7705 43.367 42.8004 43.4241 42.8053 43.485Z" fill="#F5F5F5" stroke="black" stroke-width="0.0141972"/>
<path id="Vector_92" fill-rule="evenodd" clip-rule="evenodd" d="M42.9843 43.5015C42.9843 43.5015 41.9781 42.7932 41.9515 41.0892C41.9367 40.1084 42.4605 39.4001 43.7716 39.4001C45.6065 39.4001 48.2271 40.1234 48.2271 40.1234V40.3645C48.2271 40.3645 46.1303 39.6412 43.7701 39.6412C42.7224 39.6412 42.1971 40.3495 42.1971 41.0742C42.1971 42.281 43.2477 43.5028 43.2477 43.5028V45.433H42.9843V43.5015Z" fill="#FFF100" stroke="black" stroke-width="0.0141972"/>
<path id="Vector_93" fill-rule="evenodd" clip-rule="evenodd" d="M44.8115 44.3954C44.8115 44.3954 44.887 44.2118 45.1612 44.2118C45.3477 44.2118 45.5105 44.3954 45.5105 44.5791V44.947H45.6856V44.5791C45.6856 44.3954 45.8602 44.2118 46.0348 44.2118C46.2972 44.2118 46.3845 44.3954 46.3845 44.3954C46.3845 44.3954 46.3845 43.8439 46.0348 43.8439C45.7729 43.8439 45.6856 44.0276 45.6856 44.0276C45.6856 44.0276 45.7729 43.752 45.7729 43.476C45.7729 43.1999 45.5983 43.0163 45.5983 43.0163C45.5983 43.0515 45.4232 43.2005 45.4232 43.476C45.4232 43.7515 45.5105 44.0276 45.5105 44.0276C45.5105 44.0276 45.4232 43.8439 45.1612 43.8439C44.8115 43.8439 44.8115 44.3954 44.8115 44.3954Z" fill="#FFF100" stroke="black" stroke-width="0.015177"/>
<path id="Vector_94" fill-rule="evenodd" clip-rule="evenodd" d="M50.0547 44.3954C50.0547 44.3954 50.1302 44.2118 50.4044 44.2118C50.5909 44.2118 50.7536 44.3954 50.7536 44.5791V44.947H50.9287V44.5791C50.9287 44.3954 51.1033 44.2118 51.2779 44.2118C51.5404 44.2118 51.6277 44.3954 51.6277 44.3954C51.6277 44.3954 51.6277 43.8439 51.2779 43.8439C51.016 43.8439 50.9287 44.0276 50.9287 44.0276C50.9287 44.0276 51.016 43.752 51.016 43.476C51.016 43.1999 50.8414 43.0163 50.8414 43.0163C50.8414 43.0515 50.6663 43.2005 50.6663 43.476C50.6663 43.7515 50.7536 44.0276 50.7536 44.0276C50.7536 44.0276 50.6663 43.8439 50.4044 43.8439C50.0547 43.8439 50.0547 44.3954 50.0547 44.3954Z" fill="#FFF100" stroke="black" stroke-width="0.015177"/>
<path id="Vector_95" fill-rule="evenodd" clip-rule="evenodd" d="M42.9844 46.8809V44.7083C42.9844 44.7083 43.5082 45.433 44.2954 45.433C44.9391 45.433 45.6065 44.4672 45.6065 44.4672C45.6065 44.4672 46.2206 45.1919 46.9176 45.1919C47.539 45.1919 48.2271 44.2574 48.2271 44.2574C48.2271 44.2574 48.8664 45.1919 49.5382 45.1919C50.2115 45.1919 50.8492 44.4672 50.8492 44.4672C50.8492 44.4672 51.5344 45.433 52.4222 45.433C53.208 45.433 53.4714 44.7083 53.4714 44.7083V46.8809H42.9844Z" fill="#FFF100" stroke="black" stroke-width="0.0141972"/>
<path id="Vector_96" fill-rule="evenodd" clip-rule="evenodd" d="M42.9844 46.8809V45.1919C42.9844 45.1919 44.5573 45.6727 44.5573 46.8809H42.9844Z" fill="#FFF100" stroke="black" stroke-width="0.0141972"/>
<path id="Vector_97" fill-rule="evenodd" clip-rule="evenodd" d="M53.46 46.8809V45.1919C53.46 45.1919 51.887 45.6727 51.887 46.8809H53.46Z" fill="#FFF100" stroke="black" stroke-width="0.0141972"/>
<path id="Vector_98" fill-rule="evenodd" clip-rule="evenodd" d="M44.0332 46.8809C44.0332 45.6727 45.6062 44.9099 45.6062 44.9099C45.6062 44.9099 47.1792 45.6727 47.1792 46.8809H44.0332Z" fill="#FFF100" stroke="black" stroke-width="0.0141972"/>
<path id="Vector_99" fill-rule="evenodd" clip-rule="evenodd" d="M49.2764 46.8809C49.2764 45.6727 50.8493 44.9099 50.8493 44.9099C50.8493 44.9099 52.4223 45.6727 52.4223 46.8809H49.2764Z" fill="#FFF100" stroke="black" stroke-width="0.0141972"/>
<path id="Vector_100" fill-rule="evenodd" clip-rule="evenodd" d="M46.3916 46.8875C46.3916 45.6807 48.228 44.7163 48.228 44.7163C48.228 44.7163 50.0629 45.6807 50.0629 46.8875H46.3931H46.3916Z" fill="#FFF100" stroke="black" stroke-width="0.0141972"/>
<path id="Vector_101" fill-rule="evenodd" clip-rule="evenodd" d="M53.7269 46.883C53.209 46.6419 51.2983 46.4008 48.2217 46.4008C45.145 46.4008 43.1012 46.6419 42.5818 46.883C42.0639 47.1241 42.0639 47.6076 42.5818 47.8487C43.0997 48.0898 45.1464 48.3309 48.2217 48.3309C51.2969 48.3309 53.209 48.0898 53.7269 47.8487C54.2448 47.6076 54.2448 47.1241 53.7269 46.883Z" fill="#F5F5F5" stroke="black" stroke-width="0.0141166"/>
<path id="Vector_102" fill-rule="evenodd" clip-rule="evenodd" d="M53.4711 47.8451C53.4711 48.3326 49.1052 48.3326 48.2277 48.3326C47.2744 48.3326 42.9844 48.4626 42.9844 47.8451C42.9844 47.3685 47.3069 47.3685 48.2277 47.3685C49.1377 47.3685 53.4711 47.466 53.4711 47.8451Z" fill="#808080"/>
<path id="Vector_103" fill-rule="evenodd" clip-rule="evenodd" d="M43.5044 46.1119C43.5044 46.2744 43.396 46.4044 43.2444 46.4044C43.0927 46.4044 42.9844 46.2744 42.9844 46.1119C42.9844 45.9494 43.0927 45.8301 43.2444 45.8301C43.3852 45.8301 43.5044 45.9601 43.5044 46.1119ZM53.4711 46.1119C53.4711 46.2744 53.3519 46.4044 53.2002 46.4044C53.0594 46.4044 52.9403 46.2744 52.9403 46.1119C52.9403 45.9494 53.0594 45.8301 53.2002 45.8301C53.3519 45.8301 53.4603 45.9601 53.4603 46.1119H53.4711Z" fill="#CC0000"/>
<path id="Vector_104" fill-rule="evenodd" clip-rule="evenodd" d="M48.7472 45.971C48.7472 46.1226 48.5088 46.2526 48.2272 46.2526C47.9455 46.2526 47.6963 46.1226 47.6963 45.9601C47.6963 45.7976 47.9347 45.6785 48.2272 45.6785C48.5197 45.6785 48.7472 45.8085 48.7472 45.9601V45.971Z" fill="black"/>
<path id="Vector_105" fill-rule="evenodd" clip-rule="evenodd" d="M51.2611 45.971C51.2611 46.1226 51.0877 46.2526 50.8711 46.2526C50.6544 46.2526 50.4811 46.1226 50.4811 45.9601C50.4811 45.7976 50.6543 45.6785 50.8711 45.6785C51.0878 45.6785 51.2611 45.8085 51.2611 45.9601V45.971ZM45.8661 45.971C45.8661 46.1226 45.6927 46.2526 45.4761 46.2526C45.2594 46.2526 45.0752 46.1226 45.0752 45.9601C45.0752 45.7976 45.2486 45.6785 45.4761 45.6785C45.6927 45.6785 45.8661 45.8085 45.8661 45.9601V45.971Z" fill="#006300"/>
<path id="Vector_106" fill-rule="evenodd" clip-rule="evenodd" d="M47.1737 44.3067C47.1737 44.3067 47.473 43.8942 47.7732 43.8942H48.0725V44.169C48.0725 44.5831 47.6235 44.7216 47.6235 44.7216H48.8216C48.8216 44.7216 48.3718 44.5831 48.3718 44.169V43.8942H48.6719C48.9712 43.8942 49.2705 44.3083 49.2705 44.3083V43.2038C49.2705 43.2038 48.9712 43.6179 48.6719 43.6179H48.3718V43.3416C48.3718 42.9282 48.8216 42.7905 48.8216 42.7905H47.6227C47.6227 42.7905 48.0716 42.9282 48.0716 43.3416V43.6179H47.7723C47.4722 43.6179 47.1729 43.2038 47.1729 43.2038V44.3075L47.1737 44.3067Z" fill="#FFF100" stroke="black" stroke-width="0.0178474"/>
<path id="Vector_107" fill-rule="evenodd" clip-rule="evenodd" d="M42.9775 45.1942H43.2774C43.2774 45.1942 43.0524 45.0737 43.0524 44.7113V44.4709H43.2021C43.3522 44.4709 43.5023 44.8332 43.5023 44.8332V43.8667C43.5023 43.8667 43.3522 44.2291 43.2021 44.2291H43.0524V43.9873C43.0524 43.6256 43.2774 43.505 43.2774 43.505H42.9775V45.1942Z" fill="#FFF100" stroke="black" stroke-width="0.0177106"/>
<path id="Vector_108" fill-rule="evenodd" clip-rule="evenodd" d="M53.4668 45.1942H53.167C53.167 45.1942 53.3919 45.0737 53.3919 44.7113V44.4709H53.2423C53.0921 44.4709 52.942 44.8332 52.942 44.8332V43.8667C52.942 43.8667 53.0921 44.2291 53.2423 44.2291H53.3919V43.9873C53.3919 43.6256 53.167 43.505 53.167 43.505H53.4668V45.1942Z" fill="#FFF100" stroke="black" stroke-width="0.0177106"/>
<path id="Vector_109" fill-rule="evenodd" clip-rule="evenodd" d="M48.4887 43.7439C48.4887 43.8079 48.4611 43.8692 48.412 43.9144C48.3628 43.9596 48.2962 43.985 48.2268 43.985C48.1573 43.985 48.0907 43.9596 48.0416 43.9144C47.9924 43.8692 47.9648 43.8079 47.9648 43.7439C47.9648 43.68 47.9924 43.6187 48.0416 43.5735C48.0907 43.5282 48.1573 43.5028 48.2268 43.5028C48.2962 43.5028 48.3628 43.5282 48.412 43.5735C48.4611 43.6187 48.4887 43.68 48.4887 43.7439V43.7439Z" fill="#F5F5F5" stroke="black" stroke-width="0.0141972"/>
<path id="Vector_110" fill-rule="evenodd" clip-rule="evenodd" d="M47.1737 39.2367C47.1737 39.2367 47.473 38.8242 47.7732 38.8242H48.0725V39.099C48.0725 39.5131 47.6235 39.6516 47.6235 39.6516H48.8216C48.8216 39.6516 48.3718 39.5131 48.3718 39.099V38.8242H48.6719C48.9712 38.8242 49.2705 39.2383 49.2705 39.2383V38.1338C49.2705 38.1338 48.9712 38.5479 48.6719 38.5479H48.3718V38.2715C48.3718 37.8582 48.8216 37.7205 48.8216 37.7205H47.6227C47.6227 37.7205 48.0716 37.8582 48.0716 38.2715V38.5479H47.7723C47.4722 38.5479 47.1729 38.1338 47.1729 38.1338V39.2375L47.1737 39.2367Z" fill="#FFF100" stroke="black" stroke-width="0.0178474"/>
<path id="Vector_111" fill-rule="evenodd" clip-rule="evenodd" d="M48.5102 38.7172C48.5102 38.7811 48.4826 38.8424 48.4334 38.8877C48.3843 38.9329 48.3177 38.9583 48.2482 38.9583C48.1788 38.9583 48.1122 38.9329 48.063 38.8877C48.0139 38.8424 47.9863 38.7811 47.9863 38.7172C47.9863 38.6532 48.0139 38.5919 48.063 38.5467C48.1122 38.5015 48.1788 38.4761 48.2482 38.4761C48.3177 38.4761 48.3843 38.5015 48.4334 38.5467C48.4826 38.5919 48.5102 38.6532 48.5102 38.7172V38.7172Z" fill="#F5F5F5" stroke="black" stroke-width="0.0141972"/>
<path id="Vector_112" fill-rule="evenodd" clip-rule="evenodd" d="M47.7027 39.6462H48.7518V40.3709H47.7012L47.7027 39.6462Z" fill="#FFF100" stroke="black" stroke-width="0.0141972"/>
<path id="Vector_113" fill-rule="evenodd" clip-rule="evenodd" d="M47.7027 40.0249H48.7518V42.7832H47.7012L47.7027 40.0249Z" fill="#FFF100" stroke="black" stroke-width="0.0141972"/>
<path id="Vector_114" fill-rule="evenodd" clip-rule="evenodd" d="M48.4821 42.2933C48.4848 42.3265 48.48 42.36 48.4681 42.3915C48.4561 42.423 48.4372 42.4519 48.4125 42.4763C48.3879 42.5008 48.358 42.5203 48.3248 42.5337C48.2916 42.547 48.2557 42.5539 48.2195 42.5539C48.1832 42.5539 48.1473 42.547 48.1141 42.5337C48.0809 42.5203 48.051 42.5008 48.0264 42.4763C48.0017 42.4519 47.9828 42.423 47.9708 42.3915C47.9589 42.36 47.9541 42.3265 47.9568 42.2933C47.9618 42.2323 47.9916 42.1753 48.0403 42.1337C48.089 42.0921 48.153 42.069 48.2195 42.069C48.2859 42.069 48.3499 42.0921 48.3986 42.1337C48.4473 42.1753 48.4771 42.2323 48.4821 42.2933Z" fill="#F5F5F5" stroke="black" stroke-width="0.0141972"/>
<path id="Vector_115" fill-rule="evenodd" clip-rule="evenodd" d="M48.4821 41.6758C48.4848 41.7091 48.48 41.7425 48.4681 41.774C48.4561 41.8055 48.4372 41.8344 48.4125 41.8588C48.3879 41.8833 48.358 41.9028 48.3248 41.9162C48.2916 41.9295 48.2557 41.9364 48.2195 41.9364C48.1832 41.9364 48.1473 41.9295 48.1141 41.9162C48.0809 41.9028 48.051 41.8833 48.0264 41.8588C48.0017 41.8344 47.9828 41.8055 47.9708 41.774C47.9589 41.7425 47.9541 41.7091 47.9568 41.6758C47.9618 41.6148 47.9916 41.5578 48.0403 41.5162C48.089 41.4746 48.153 41.4515 48.2195 41.4515C48.2859 41.4515 48.3499 41.4746 48.3986 41.5162C48.4473 41.5578 48.4771 41.6148 48.4821 41.6758Z" fill="#F5F5F5" stroke="black" stroke-width="0.0141972"/>
<path id="Vector_116" fill-rule="evenodd" clip-rule="evenodd" d="M48.4821 41.1016C48.4848 41.1349 48.48 41.1684 48.4681 41.1999C48.4561 41.2314 48.4372 41.2602 48.4125 41.2847C48.3879 41.3092 48.358 41.3287 48.3248 41.342C48.2916 41.3554 48.2557 41.3623 48.2195 41.3623C48.1832 41.3623 48.1473 41.3554 48.1141 41.342C48.0809 41.3287 48.051 41.3092 48.0264 41.2847C48.0017 41.2602 47.9828 41.2314 47.9708 41.1999C47.9589 41.1684 47.9541 41.1349 47.9568 41.1016C47.9618 41.0407 47.9916 40.9837 48.0403 40.9421C48.089 40.9005 48.153 40.8773 48.2195 40.8773C48.2859 40.8773 48.3499 40.9005 48.3986 40.9421C48.4473 40.9837 48.4771 41.0407 48.4821 41.1016Z" fill="#F5F5F5" stroke="black" stroke-width="0.0141972"/>
<path id="Vector_117" fill-rule="evenodd" clip-rule="evenodd" d="M48.4821 40.495C48.4848 40.5283 48.48 40.5617 48.4681 40.5932C48.4561 40.6247 48.4372 40.6536 48.4125 40.6781C48.3879 40.7025 48.358 40.7221 48.3248 40.7354C48.2916 40.7487 48.2557 40.7556 48.2195 40.7556C48.1832 40.7556 48.1473 40.7487 48.1141 40.7354C48.0809 40.7221 48.051 40.7025 48.0264 40.6781C48.0017 40.6536 47.9828 40.6247 47.9708 40.5932C47.9589 40.5617 47.9541 40.5283 47.9568 40.495C47.9618 40.434 47.9916 40.377 48.0403 40.3354C48.089 40.2938 48.153 40.2707 48.2195 40.2707C48.2859 40.2707 48.3499 40.2938 48.3986 40.3354C48.4473 40.377 48.4771 40.434 48.4821 40.495Z" fill="#F5F5F5" stroke="black" stroke-width="0.0141972"/>
<path id="Vector_118" fill-rule="evenodd" clip-rule="evenodd" d="M48.7798 46.8919C48.7798 47.0001 48.5414 47.0869 48.2382 47.0869C47.9349 47.0869 47.7182 47.0001 47.7182 46.8919C47.7182 46.7836 47.9564 46.6969 48.2489 46.6969C48.5414 46.6969 48.7798 46.7835 48.7798 46.8919V46.8919ZM53.6114 47.3685C53.5789 47.4444 53.3189 47.4551 53.0264 47.3794C52.7339 47.3144 52.5282 47.206 52.5498 47.1301C52.5823 47.0544 52.8423 47.0435 53.1348 47.1194C53.4273 47.1844 53.6332 47.2926 53.6114 47.3685V47.3685ZM51.5857 47.0435C51.5857 47.141 51.3257 47.1951 51.0223 47.1844C50.7298 47.1626 50.4914 47.0651 50.5023 46.9676C50.5132 46.8701 50.7732 46.816 51.0657 46.8376C51.3689 46.8594 51.6073 46.946 51.5857 47.0435ZM42.7239 47.3685C42.7456 47.4444 43.0056 47.4551 43.2981 47.3794C43.5906 47.3144 43.8073 47.206 43.7748 47.1301C43.7423 47.0544 43.4823 47.0435 43.1898 47.1194C42.9081 47.1844 42.6914 47.2926 42.7239 47.3685V47.3685ZM44.8364 47.0001C44.8473 47.0976 45.1073 47.1519 45.3998 47.1301C45.7032 47.1085 45.9414 47.0219 45.9198 46.9135C45.9198 46.8269 45.6598 46.7619 45.3564 46.7835C45.0639 46.8051 44.8257 46.8919 44.8364 47.0001Z" fill="black"/>
</g>
<path id="Vector_119" d="M0.246094 0H32.2461V32H0.246094V0Z" fill="#012169"/>
<path id="Vector_120" d="M32.2461 0V4L20.3711 16L32.2461 27.6875V32H28.0586L16.1211 20.25L4.49609 32H0.246094V27.75L11.8711 16.0625L0.246094 4.625V0H4.12109L16.1211 11.75L27.7461 0H32.2461Z" fill="#F5F5F5"/>
<path id="Vector_121" d="M11.7461 20.25L12.4336 22.375L2.87109 32H0.246094V31.8125L11.7461 20.25ZM19.4961 19.5L22.8711 20L32.2461 29.1875V32L19.4961 19.5ZM32.2461 0L20.2461 12.25L19.9961 9.5L29.3711 0H32.2461ZM0.246094 0.0625L12.3086 11.875L8.62109 11.375L0.246094 3.0625V0.0625Z" fill="#C8102E"/>
<path id="Vector_122" d="M11.2461 0V32H21.2461V0H11.2461ZM0.246094 11V21H32.2461V11H0.246094Z" fill="#F5F5F5"/>
<path id="Vector_123" d="M0.246094 13V19H32.2461V13H0.246094ZM13.2461 0V32H19.2461V0H13.2461Z" fill="#C8102E"/>
</g>
</g>
<defs>
<clipPath id="clip0_2909_185374">
<path d="M0.246094 32C0.246094 14.3269 14.573 0 32.2461 0V0C49.9192 0 64.2461 14.3269 64.2461 32V32C64.2461 49.6731 49.9192 64 32.2461 64V64C14.573 64 0.246094 49.6731 0.246094 32V32Z" fill="white"/>
</clipPath>
</defs>
</svg>
