<svg width="65" height="64" viewBox="0 0 65 64" fill="none" xmlns="http://www.w3.org/2000/svg">
<g id="Rounded=Iraq (IQ)">
<g clip-path="url(#clip0_2909_185429)">
<path id="Vector" d="M0.246094 21.3375H64.2461V42.6625H0.246094V21.3375Z" fill="#F5F5F5"/>
<path id="Vector_2" d="M0.246094 0H64.2461V21.3375H0.246094V0Z" fill="#CE1126"/>
<path id="Vector_3" d="M0.246094 42.6625H64.2461V64H0.246094V42.6625Z" fill="black"/>
<g id="Group">
<path id="Vector_4" d="M41.6994 28.0802C41.5778 28.0218 41.4671 27.9428 41.3724 27.8466C41.3024 27.7298 41.3491 27.7298 41.6527 27.7999C42.1899 27.9634 42.5403 27.8933 42.8907 27.613L43.1943 27.3561L43.5447 27.5196C43.7549 27.6364 43.9651 27.7065 44.0118 27.6831C44.1753 27.6364 44.5023 27.216 44.479 27.0758C44.479 26.9123 44.6191 26.959 44.7126 27.1459C44.8527 27.5196 44.6425 27.9634 44.2454 28.0568C44.0819 28.1035 43.9184 28.0802 43.6381 27.9868C43.3111 27.87 43.241 27.87 43.0775 27.9868C42.8818 28.1347 42.6472 28.2223 42.4024 28.2389C42.1576 28.2555 41.9133 28.2003 41.6994 28.0802V28.0802ZM43.0542 26.8422C42.896 26.5566 42.8155 26.2344 42.8206 25.9079C42.844 25.7678 42.8907 25.7211 43.0075 25.7678C43.241 25.8379 43.2877 26.0014 43.241 26.4685C43.241 26.889 43.171 27.0057 43.0542 26.8422ZM27.2645 26.3984C27.2411 26.7021 27.8251 27.4729 28.082 27.613C27.8952 27.6831 27.6849 27.6597 27.5214 27.7298C26.5871 28.6641 23.2237 31.9342 22.6164 32.7283C24.4382 32.775 26.447 32.705 28.1521 32.6349C28.1521 31.3969 29.32 31.3269 30.1141 30.8831C30.5112 31.5137 31.5156 31.467 31.6557 32.4247V36.5356H16.123C16.0642 36.8473 15.9407 37.1432 15.7603 37.4041C15.58 37.6651 15.3468 37.8852 15.076 38.0504C14.8052 38.2155 14.5027 38.3219 14.1882 38.3628C13.8736 38.4036 13.554 38.3779 13.25 38.2874C13.7172 37.8203 14.5113 37.6334 14.7916 36.956C15.0252 35.4612 14.3244 34.5502 13.8573 33.686C14.4449 33.4976 14.9973 33.2135 15.4923 32.8451C14.9551 34.4801 16.9405 34.3166 18.3887 34.2699C18.4354 33.7093 18.412 33.0553 17.9916 32.9619C18.5288 32.7517 18.6222 32.6816 19.5332 31.9342V34.1765L30.301 34.1531C30.301 33.4524 30.4878 32.3079 29.9273 32.3079C29.4134 32.3079 29.9273 33.7561 29.5068 33.7561H21.1682V32.3546C21.5186 31.9809 21.4718 32.0042 23.8777 29.5984C24.1112 29.3648 25.8163 27.8233 27.2879 26.3984H27.2645ZM48.076 26.3284C48.66 26.6554 49.1271 27.0758 49.8278 27.2627C49.7578 27.5663 49.4775 27.6831 49.4074 27.9868V34.2933C50.2016 34.4568 50.3884 33.9896 50.7621 33.7561C50.8556 34.7604 51.5096 35.7414 51.4629 36.559H48.076V26.3517V26.3284ZM43.5447 29.7152C43.5447 29.7152 44.7826 28.6641 44.7826 28.6174V34.1064H45.6702L45.6469 27.9634C45.9972 27.5897 46.7213 27.0758 46.8848 26.7021V36.5122H39.0834C38.9666 34.4801 38.9432 32.378 41.3257 32.8218V32.0042C41.2556 31.8641 41.1155 32.0276 41.0921 31.8407C41.4659 31.467 41.5826 31.3736 42.6104 30.486L42.6337 34.1064H43.5447V29.7152V29.7152ZM40.6016 34.0597C40.7651 34.2933 41.3491 34.2933 41.3024 33.8728C41.2323 33.5225 40.4848 33.6393 40.6016 34.0597Z" fill="#007A3D"/>
<path id="Vector_5" d="M17.9916 38.1706C18.2496 38.1706 18.4587 37.9615 18.4587 37.7035C18.4587 37.4455 18.2496 37.2363 17.9916 37.2363C17.7336 37.2363 17.5244 37.4455 17.5244 37.7035C17.5244 37.9615 17.7336 38.1706 17.9916 38.1706Z" fill="#007A3D"/>
<path id="Vector_6" d="M32.707 26.3517C33.291 26.6554 33.7581 27.0992 34.4822 27.286C34.3888 27.5663 34.1318 27.6831 34.0618 27.9867V34.2933C34.8559 34.4568 35.0194 34.013 35.3931 33.756C35.5099 34.7604 36.1406 35.7648 36.1172 36.5589H32.707V26.3517Z" fill="#007A3D"/>
</g>
</g>
</g>
<defs>
<clipPath id="clip0_2909_185429">
<path d="M0.246094 32C0.246094 14.3269 14.573 0 32.2461 0V0C49.9192 0 64.2461 14.3269 64.2461 32V32C64.2461 49.6731 49.9192 64 32.2461 64V64C14.573 64 0.246094 49.6731 0.246094 32V32Z" fill="white"/>
</clipPath>
</defs>
</svg>
