<svg width="65" height="64" viewBox="0 0 65 64" fill="none" xmlns="http://www.w3.org/2000/svg">
<g id="Rounded=Iran (Islamic Republic of) (IR)">
<g clip-path="url(#clip0_2909_185418)">
<g id="Group">
<path id="Vector" fill-rule="evenodd" clip-rule="evenodd" d="M-23.7539 0H88.2418V63.9902H-23.7539V0Z" fill="#F5F5F5"/>
<path id="Vector_2" fill-rule="evenodd" clip-rule="evenodd" d="M-23.7539 42.9741H88.2418V64.0031H-23.7539V42.9741Z" fill="#DA0000"/>
<g id="Group_2">
<path id="Vector_3" fill-rule="evenodd" clip-rule="evenodd" d="M-2.4668 43.8643H3.6742V44.29H-2.4668V43.8643ZM-1.55081 45.9801H-1.12507V46.3929H-1.56371L-1.55081 45.9801ZM3.6871 45.9672V46.3929H2.46148V45.9672H3.6871ZM4.34506 43.8643H4.77081V46.3929H4.34506V43.8643Z" fill="#F5F5F5"/>
<path id="Vector_4" fill-rule="evenodd" clip-rule="evenodd" d="M6.78383 45.9672V46.3929H4.46161V45.9672H6.78383ZM2.46191 44.9867H2.88766V46.3929H2.46191V44.9867Z" fill="#F5F5F5"/>
<path id="Vector_5" fill-rule="evenodd" clip-rule="evenodd" d="M6.43507 43.8643H6.86081V46.3929H6.44797L6.43507 43.8643ZM5.39006 43.8643H5.8029V46.3929H5.40297L5.39006 43.8643ZM-0.209078 44.8706V45.2963H-2.4668V44.8706H-0.209078ZM4.6934 44.8706V45.2963H2.46148V44.8706H4.6934Z" fill="#F5F5F5"/>
<path id="Vector_6" fill-rule="evenodd" clip-rule="evenodd" d="M2.46191 44.9738H2.88766V46.3929H2.46191V44.9738Z" fill="#F5F5F5"/>
<path id="Vector_7" fill-rule="evenodd" clip-rule="evenodd" d="M2.46191 44.9738H2.88766V46.3929H2.46191V44.9738Z" fill="#F5F5F5"/>
<path id="Vector_8" fill-rule="evenodd" clip-rule="evenodd" d="M2.46148 44.9738H2.88722V46.3929H2.46148V44.9738ZM-2.44099 44.9738H-2.02816V46.3929H-2.4668L-2.44099 44.9738ZM1.14555 44.9738H1.57129V46.3929H1.14555V44.9738ZM-0.63482 44.9738H-0.209078V46.3929H-0.63482V44.9738Z" fill="#F5F5F5"/>
<path id="Vector_9" fill-rule="evenodd" clip-rule="evenodd" d="M1.44238 45.9672V46.3929H-0.454102V45.9672H1.44238ZM1.57139 44.8705V45.2963H0.371578V44.8705H1.57139Z" fill="#F5F5F5"/>
</g>
<g id="Group_3">
<path id="Vector_10" fill-rule="evenodd" clip-rule="evenodd" d="M7.53125 43.8643H13.6593V44.29H7.53125V43.8643ZM8.43434 45.9801H8.86008V46.3929H8.44724L8.43434 45.9801ZM13.6722 45.9672V46.3929H12.4466V45.9672H13.6722ZM14.3302 43.8643H14.7559V46.3929H14.3302V43.8643Z" fill="#F5F5F5"/>
<path id="Vector_11" fill-rule="evenodd" clip-rule="evenodd" d="M16.7811 45.9672V46.3929H14.4589V45.9672H16.7811ZM12.4463 44.9867H12.872V46.3929H12.4463V44.9867Z" fill="#F5F5F5"/>
<path id="Vector_12" fill-rule="evenodd" clip-rule="evenodd" d="M16.4329 43.8643H16.8586V46.3929H16.4329V43.8643ZM15.375 43.8643H15.8007V46.3929H15.375V43.8643ZM9.77586 44.8706V45.2963H7.54395V44.8706H9.77586ZM14.6783 44.8706V45.2963H12.4464V44.8706H14.6783Z" fill="#F5F5F5"/>
<path id="Vector_13" fill-rule="evenodd" clip-rule="evenodd" d="M12.4463 44.9738H12.872V46.3929H12.4463V44.9738Z" fill="#F5F5F5"/>
<path id="Vector_14" fill-rule="evenodd" clip-rule="evenodd" d="M12.4463 44.9738H12.872V46.3929H12.4463V44.9738Z" fill="#F5F5F5"/>
<path id="Vector_15" fill-rule="evenodd" clip-rule="evenodd" d="M12.4464 44.9738H12.8722V46.3929H12.4464V44.9738ZM7.54395 44.9738H7.95678V46.3929H7.54395V44.9738ZM11.1434 44.9738H11.5562V46.3929H11.1434V44.9738ZM9.35012 44.9738H9.77586V46.3929H9.35012V44.9738Z" fill="#F5F5F5"/>
<path id="Vector_16" fill-rule="evenodd" clip-rule="evenodd" d="M11.4406 45.9672V46.3929H9.53125V45.9672H11.4406ZM11.5696 44.8705V45.2963H10.3569V44.8705H11.5696Z" fill="#F5F5F5"/>
</g>
<g id="Group_4">
<path id="Vector_17" fill-rule="evenodd" clip-rule="evenodd" d="M17.582 43.8643H23.7101V44.29H17.582V43.8643ZM18.498 45.9801H18.9238V46.3929H18.498V45.9801ZM23.7359 45.9672V46.3929H22.5103V45.9672H23.7359ZM24.381 43.8643H24.8067V46.3929H24.3939L24.381 43.8643Z" fill="#F5F5F5"/>
<path id="Vector_18" fill-rule="evenodd" clip-rule="evenodd" d="M26.8327 45.9672V46.3929H24.5104V45.9672H26.8327ZM22.5107 44.9867H22.9236V46.3929H22.5107V44.9867Z" fill="#F5F5F5"/>
<path id="Vector_19" fill-rule="evenodd" clip-rule="evenodd" d="M26.4837 43.8643H26.9094V46.3929H26.4837V43.8643ZM25.4387 43.8643H25.8515V46.3929H25.4258L25.4387 43.8643ZM19.8266 44.8706V45.2963H17.5947V44.8706H19.8266ZM24.742 44.8706V45.2963H22.5101V44.8706H24.742Z" fill="#F5F5F5"/>
<path id="Vector_20" fill-rule="evenodd" clip-rule="evenodd" d="M22.5107 44.9738H22.9236V46.3929H22.5107V44.9738Z" fill="#F5F5F5"/>
<path id="Vector_21" fill-rule="evenodd" clip-rule="evenodd" d="M22.5107 44.9738H22.9236V46.3929H22.5107V44.9738Z" fill="#F5F5F5"/>
<path id="Vector_22" fill-rule="evenodd" clip-rule="evenodd" d="M22.5101 44.9738H22.9229V46.3929H22.5101V44.9738ZM17.5947 44.9738H18.0205V46.3929H17.5947V44.9738ZM21.1942 44.9738H21.6199V46.3929H21.1942V44.9738ZM19.4138 44.9738H19.8395V46.3929H19.4138V44.9738Z" fill="#F5F5F5"/>
<path id="Vector_23" fill-rule="evenodd" clip-rule="evenodd" d="M21.4912 45.9672V46.3929H19.5947V45.9672H21.4912ZM21.6202 44.8705V45.2963H20.4204V44.8705H21.6202Z" fill="#F5F5F5"/>
</g>
<g id="Group_5">
<path id="Vector_24" fill-rule="evenodd" clip-rule="evenodd" d="M27.6709 43.8643H33.8119V44.29H27.6709V43.8643ZM28.5869 45.9801H29.0126V46.3929H28.5869V45.9801ZM33.8248 45.9672V46.3929H32.5992V45.9672H33.8248ZM34.4828 43.8643H34.9085V46.3929H34.4828V43.8643Z" fill="#F5F5F5"/>
<path id="Vector_25" fill-rule="evenodd" clip-rule="evenodd" d="M36.9215 45.9672V46.3929H34.5993V45.9672H36.9215ZM32.5996 44.9867H33.0254V46.3929H32.5996V44.9867Z" fill="#F5F5F5"/>
<path id="Vector_26" fill-rule="evenodd" clip-rule="evenodd" d="M36.5726 43.8643H36.9983V46.3929H36.5726V43.8643ZM35.5276 43.8643H35.9404V46.3929H35.5276V43.8643ZM29.9284 44.8706V45.2963H27.6836V44.8706H29.9284ZM34.8309 44.8706V45.2963H32.599V44.8706H34.8309Z" fill="#F5F5F5"/>
<path id="Vector_27" fill-rule="evenodd" clip-rule="evenodd" d="M32.5996 44.9738H33.0254V46.3929H32.5996V44.9738Z" fill="#F5F5F5"/>
<path id="Vector_28" fill-rule="evenodd" clip-rule="evenodd" d="M32.5996 44.9738H33.0254V46.3929H32.5996V44.9738Z" fill="#F5F5F5"/>
<path id="Vector_29" fill-rule="evenodd" clip-rule="evenodd" d="M32.599 44.9738H33.0247V46.3929H32.599V44.9738ZM27.6965 44.9738H28.1093V46.3929H27.6836L27.6965 44.9738ZM31.283 44.9738H31.7088V46.3929H31.283V44.9738ZM29.5027 44.9738H29.9284V46.3929H29.5027V44.9738Z" fill="#F5F5F5"/>
<path id="Vector_30" fill-rule="evenodd" clip-rule="evenodd" d="M31.5928 45.9672V46.3929H29.6963V45.9672H31.5928ZM31.7089 44.8705V45.2963H30.5091V44.8705H31.7089Z" fill="#F5F5F5"/>
</g>
<path id="Vector_31" fill-rule="evenodd" clip-rule="evenodd" d="M-23.7539 0H88.2418V21.029H-23.7539V0Z" fill="#239F40"/>
<g id="Group_6">
<path id="Vector_32" fill-rule="evenodd" clip-rule="evenodd" d="M37.8242 43.8643H43.9523V44.29H37.8242V43.8643ZM38.7402 45.9801H39.166V46.3929H38.7402V45.9801ZM43.9781 45.9672V46.3929H42.7525V45.9672H43.9781ZM44.6232 43.8643H45.0618V46.3929H44.6232V43.8643Z" fill="#F5F5F5"/>
<path id="Vector_33" fill-rule="evenodd" clip-rule="evenodd" d="M47.0748 45.9672V46.3929H44.7526V45.9672H47.0748ZM42.7529 44.9867H43.1658V46.3929H42.7529V44.9867Z" fill="#F5F5F5"/>
<path id="Vector_34" fill-rule="evenodd" clip-rule="evenodd" d="M46.7259 43.8643H47.1516V46.3929H46.7259V43.8643ZM45.6809 43.8643H46.0937V46.3929H45.6809V43.8643ZM40.0817 44.8706V45.2963H37.8369V44.8706H40.0817ZM44.9842 44.8706V45.2963H42.7523V44.8706H44.9842Z" fill="#F5F5F5"/>
<path id="Vector_35" fill-rule="evenodd" clip-rule="evenodd" d="M42.7529 44.9738H43.1658V46.3929H42.7529V44.9738Z" fill="#F5F5F5"/>
<path id="Vector_36" fill-rule="evenodd" clip-rule="evenodd" d="M42.7529 44.9738H43.1658V46.3929H42.7529V44.9738Z" fill="#F5F5F5"/>
<path id="Vector_37" fill-rule="evenodd" clip-rule="evenodd" d="M42.7523 44.9738H43.1651V46.3929H42.7523V44.9738ZM37.8369 44.9738H38.2627V46.3929H37.8369V44.9738ZM41.4364 44.9738H41.8621V46.3929H41.4364V44.9738ZM39.656 44.9738H40.0817V46.3929H39.656V44.9738Z" fill="#F5F5F5"/>
<path id="Vector_38" fill-rule="evenodd" clip-rule="evenodd" d="M41.7334 45.9672V46.3929H39.8369V45.9672H41.7334ZM41.8624 44.8705V45.2963H40.6626V44.8705H41.8624Z" fill="#F5F5F5"/>
</g>
<g id="Group_7">
<path id="Vector_39" fill-rule="evenodd" clip-rule="evenodd" d="M47.9121 43.8643H54.0531V44.29H47.9121V43.8643ZM48.8281 45.9801H49.2538V46.3929H48.8281V45.9801ZM54.066 45.9672V46.3929H52.8404V45.9672H54.066ZM54.724 43.8643H55.1497V46.3929H54.724V43.8643Z" fill="#F5F5F5"/>
<path id="Vector_40" fill-rule="evenodd" clip-rule="evenodd" d="M57.1627 45.9672V46.3929H54.8405V45.9672H57.1627ZM52.8408 44.9867H53.2666V46.3929H52.8408V44.9867Z" fill="#F5F5F5"/>
<path id="Vector_41" fill-rule="evenodd" clip-rule="evenodd" d="M56.8267 43.8643H57.2395V46.3929H56.8267V43.8643ZM55.7688 43.8643H56.1945V46.3929H55.7688V43.8643ZM50.1696 44.8706V45.2963H47.9248V44.8706H50.1696ZM55.0721 44.8706V45.2963H52.8402V44.8706H55.0721Z" fill="#F5F5F5"/>
<path id="Vector_42" fill-rule="evenodd" clip-rule="evenodd" d="M52.8408 44.9738H53.2666V46.3929H52.8408V44.9738Z" fill="#F5F5F5"/>
<path id="Vector_43" fill-rule="evenodd" clip-rule="evenodd" d="M52.8408 44.9738H53.2666V46.3929H52.8408V44.9738Z" fill="#F5F5F5"/>
<path id="Vector_44" fill-rule="evenodd" clip-rule="evenodd" d="M52.8402 44.9738H53.2659V46.3929H52.8402V44.9738ZM47.9377 44.9738H48.3506V46.3929H47.9248L47.9377 44.9738ZM51.5243 44.9738H51.95V46.3929H51.5243V44.9738ZM49.7439 44.9738H50.1696V46.3929H49.7439V44.9738Z" fill="#F5F5F5"/>
<path id="Vector_45" fill-rule="evenodd" clip-rule="evenodd" d="M51.8211 45.9672V46.3929H49.9375V45.9672H51.8211ZM51.9501 44.8705V45.2963H50.7503V44.8705H51.9501Z" fill="#F5F5F5"/>
</g>
<g id="Group_8">
<path id="Vector_46" fill-rule="evenodd" clip-rule="evenodd" d="M58.0146 43.8643H64.1427V44.29H58.0146V43.8643ZM58.9177 45.9801H59.3435V46.3929H58.9177V45.9801ZM64.1556 45.9672V46.3929H62.9429V45.9672H64.1556ZM64.8136 43.8643H65.2393V46.3929H64.8136V43.8643Z" fill="#F5F5F5"/>
<path id="Vector_47" fill-rule="evenodd" clip-rule="evenodd" d="M67.2645 45.9672V46.3929H64.9423V45.9672H67.2645ZM62.9297 44.9867H63.3554V46.3929H62.9297V44.9867Z" fill="#F5F5F5"/>
<path id="Vector_48" fill-rule="evenodd" clip-rule="evenodd" d="M66.9165 43.8643H67.3423V46.3929H66.9165V43.8643ZM65.8586 43.8643H66.2844V46.3929H65.8586V43.8643ZM60.2595 44.8706V45.2963H58.0146V44.8706H60.2595ZM65.1619 44.8706V45.2963H62.9429V44.8706H65.1619Z" fill="#F5F5F5"/>
<path id="Vector_49" fill-rule="evenodd" clip-rule="evenodd" d="M62.9426 44.9738H63.3554V46.3929H62.9297L62.9426 44.9738Z" fill="#F5F5F5"/>
<path id="Vector_50" fill-rule="evenodd" clip-rule="evenodd" d="M62.9426 44.9738H63.3554V46.3929H62.9297L62.9426 44.9738Z" fill="#F5F5F5"/>
<path id="Vector_51" fill-rule="evenodd" clip-rule="evenodd" d="M62.9429 44.9738H63.3558V46.3929H62.93L62.9429 44.9738ZM58.0146 44.9738H58.4404V46.3929H58.0146V44.9738ZM61.627 44.9738H62.0398V46.3929H61.6141L61.627 44.9738ZM59.8337 44.9738H60.2595V46.3929H59.8337V44.9738Z" fill="#F5F5F5"/>
<path id="Vector_52" fill-rule="evenodd" clip-rule="evenodd" d="M61.9109 45.9672V46.3929H60.0273V45.9672H61.9109ZM62.0399 44.8705V45.2963H60.8401V44.8705H62.0399Z" fill="#F5F5F5"/>
</g>
<g id="Group_9">
<path id="Vector_53" fill-rule="evenodd" clip-rule="evenodd" d="M-2.4668 17.9327H3.6742V18.3456H-2.4668V17.9327ZM-1.55081 20.0356H-1.12507V20.4485H-1.56371L-1.55081 20.0356ZM3.6871 20.0356V20.4485H2.46148V20.0227L3.6871 20.0356ZM4.34506 17.9327H4.77081V20.4485H4.34506V17.9327Z" fill="#F5F5F5"/>
<path id="Vector_54" fill-rule="evenodd" clip-rule="evenodd" d="M6.78383 20.0227V20.4485H4.46161V20.0227H6.78383ZM2.46191 19.0422H2.88766V20.4614H2.46191V19.0422Z" fill="#F5F5F5"/>
<path id="Vector_55" fill-rule="evenodd" clip-rule="evenodd" d="M6.43507 17.9327H6.86081V20.4485H6.44797L6.43507 17.9327ZM5.39006 17.9327H5.8029V20.4485H5.40297L5.39006 17.9327ZM-0.209078 18.9261V19.3519H-2.4668V18.939L-0.209078 18.9261ZM4.6934 18.9261V19.3519H2.46148V18.939L4.6934 18.9261Z" fill="#F5F5F5"/>
<path id="Vector_56" fill-rule="evenodd" clip-rule="evenodd" d="M2.46191 19.0422H2.88766V20.4614H2.46191V19.0422Z" fill="#F5F5F5"/>
<path id="Vector_57" fill-rule="evenodd" clip-rule="evenodd" d="M2.46191 19.0422H2.88766V20.4614H2.46191V19.0422Z" fill="#F5F5F5"/>
<path id="Vector_58" fill-rule="evenodd" clip-rule="evenodd" d="M2.46148 19.0422H2.88722V20.4614H2.46148V19.0422ZM-2.44099 19.0422H-2.02816V20.4614H-2.4668L-2.44099 19.0422ZM1.14555 19.0422H1.57129V20.4614H1.14555V19.0422ZM-0.63482 19.0422H-0.209078V20.4614H-0.63482V19.0422Z" fill="#F5F5F5"/>
<path id="Vector_59" fill-rule="evenodd" clip-rule="evenodd" d="M1.44238 20.0227V20.4485H-0.454102V20.0227H1.44238ZM1.57139 18.939V19.3519H0.371578V18.939H1.57139Z" fill="#F5F5F5"/>
</g>
<g id="Group_10">
<path id="Vector_60" fill-rule="evenodd" clip-rule="evenodd" d="M7.53125 17.9327H13.6593V18.3456H7.53125V17.9327ZM8.43434 20.0356H8.86008V20.4485H8.44724L8.43434 20.0356ZM13.6722 20.0356V20.4485H12.4466V20.0227L13.6722 20.0356ZM14.3302 17.9327H14.7559V20.4485H14.3302V17.9327Z" fill="#F5F5F5"/>
<path id="Vector_61" fill-rule="evenodd" clip-rule="evenodd" d="M16.7811 20.0227V20.4485H14.4589V20.0227H16.7811ZM12.4463 19.0422H12.872V20.4614H12.4463V19.0422Z" fill="#F5F5F5"/>
<path id="Vector_62" fill-rule="evenodd" clip-rule="evenodd" d="M16.4329 17.9327H16.8586V20.4485H16.4329V17.9327ZM15.375 17.9327H15.8007V20.4485H15.375V17.9327ZM9.77586 18.9261V19.3519H7.54395V18.939L9.77586 18.9261ZM14.6783 18.9261V19.3519H12.4464V18.939L14.6783 18.9261Z" fill="#F5F5F5"/>
<path id="Vector_63" fill-rule="evenodd" clip-rule="evenodd" d="M12.4463 19.0422H12.872V20.4614H12.4463V19.0422Z" fill="#F5F5F5"/>
<path id="Vector_64" fill-rule="evenodd" clip-rule="evenodd" d="M12.4463 19.0422H12.872V20.4614H12.4463V19.0422Z" fill="#F5F5F5"/>
<path id="Vector_65" fill-rule="evenodd" clip-rule="evenodd" d="M12.4464 19.0422H12.8722V20.4614H12.4464V19.0422ZM7.54395 19.0422H7.95678V20.4614H7.54395V19.0422ZM11.1434 19.0422H11.5562V20.4614H11.1434V19.0422ZM9.35012 19.0422H9.77586V20.4614H9.35012V19.0422Z" fill="#F5F5F5"/>
<path id="Vector_66" fill-rule="evenodd" clip-rule="evenodd" d="M11.4406 20.0227V20.4485H9.53125V20.0227H11.4406ZM11.5696 18.939V19.3519H10.3569V18.939H11.5696Z" fill="#F5F5F5"/>
</g>
<g id="Group_11">
<path id="Vector_67" fill-rule="evenodd" clip-rule="evenodd" d="M17.582 17.9327H23.7101V18.3456H17.582V17.9327ZM18.498 20.0356H18.9238V20.4485H18.498V20.0356ZM23.7359 20.0356V20.4485H22.5103V20.0227L23.7359 20.0356ZM24.381 17.9327H24.8067V20.4485H24.3939L24.381 17.9327Z" fill="#F5F5F5"/>
<path id="Vector_68" fill-rule="evenodd" clip-rule="evenodd" d="M26.8327 20.0227V20.4485H24.5104V20.0227H26.8327ZM22.5107 19.0422H22.9236V20.4614H22.5107V19.0422Z" fill="#F5F5F5"/>
<path id="Vector_69" fill-rule="evenodd" clip-rule="evenodd" d="M26.4837 17.9327H26.9094V20.4485H26.4837V17.9327ZM25.4387 17.9327H25.8515V20.4485H25.4258L25.4387 17.9327ZM19.8266 18.9261V19.3519H17.5947V18.939L19.8266 18.9261ZM24.742 18.9261V19.3519H22.5101V18.939L24.742 18.9261Z" fill="#F5F5F5"/>
<path id="Vector_70" fill-rule="evenodd" clip-rule="evenodd" d="M22.5107 19.0422H22.9236V20.4614H22.5107V19.0422Z" fill="#F5F5F5"/>
<path id="Vector_71" fill-rule="evenodd" clip-rule="evenodd" d="M22.5107 19.0422H22.9236V20.4614H22.5107V19.0422Z" fill="#F5F5F5"/>
<path id="Vector_72" fill-rule="evenodd" clip-rule="evenodd" d="M22.5101 19.0422H22.9229V20.4614H22.5101V19.0422ZM17.5947 19.0422H18.0205V20.4614H17.5947V19.0422ZM21.1942 19.0422H21.6199V20.4614H21.1942V19.0422ZM19.4138 19.0422H19.8395V20.4614H19.4138V19.0422Z" fill="#F5F5F5"/>
<path id="Vector_73" fill-rule="evenodd" clip-rule="evenodd" d="M21.4912 20.0227V20.4485H19.5947V20.0227H21.4912ZM21.6202 18.939V19.3519H20.4204V18.939H21.6202Z" fill="#F5F5F5"/>
</g>
<g id="Group_12">
<path id="Vector_74" fill-rule="evenodd" clip-rule="evenodd" d="M27.6709 17.9327H33.8119V18.3456H27.6709V17.9327ZM28.5869 20.0356H29.0126V20.4485H28.5869V20.0356ZM33.8248 20.0356V20.4485H32.5992V20.0227L33.8248 20.0356ZM34.4828 17.9327H34.9085V20.4485H34.4828V17.9327Z" fill="#F5F5F5"/>
<path id="Vector_75" fill-rule="evenodd" clip-rule="evenodd" d="M36.9215 20.0227V20.4485H34.5993V20.0227H36.9215ZM32.5996 19.0422H33.0254V20.4614H32.5996V19.0422Z" fill="#F5F5F5"/>
<path id="Vector_76" fill-rule="evenodd" clip-rule="evenodd" d="M36.5726 17.9327H36.9983V20.4485H36.5726V17.9327ZM35.5276 17.9327H35.9404V20.4485H35.5276V17.9327ZM29.9284 18.9261V19.3519H27.6836V18.939L29.9284 18.9261ZM34.8309 18.9261V19.3519H32.599V18.939L34.8309 18.9261Z" fill="#F5F5F5"/>
<path id="Vector_77" fill-rule="evenodd" clip-rule="evenodd" d="M32.5996 19.0422H33.0254V20.4614H32.5996V19.0422Z" fill="#F5F5F5"/>
<path id="Vector_78" fill-rule="evenodd" clip-rule="evenodd" d="M32.5996 19.0422H33.0254V20.4614H32.5996V19.0422Z" fill="#F5F5F5"/>
<path id="Vector_79" fill-rule="evenodd" clip-rule="evenodd" d="M32.599 19.0422H33.0247V20.4614H32.599V19.0422ZM27.6965 19.0422H28.1093V20.4614H27.6836L27.6965 19.0422ZM31.283 19.0422H31.7088V20.4614H31.283V19.0422ZM29.5027 19.0422H29.9284V20.4614H29.5027V19.0422Z" fill="#F5F5F5"/>
<path id="Vector_80" fill-rule="evenodd" clip-rule="evenodd" d="M31.5928 20.0227V20.4485H29.6963V20.0227H31.5928ZM31.7089 18.939V19.3519H30.5091V18.939H31.7089Z" fill="#F5F5F5"/>
</g>
<g id="Group_13">
<path id="Vector_81" fill-rule="evenodd" clip-rule="evenodd" d="M37.8242 17.9327H43.9523V18.3456H37.8242V17.9327ZM38.7402 20.0356H39.166V20.4485H38.7402V20.0356ZM43.9781 20.0356V20.4485H42.7525V20.0227L43.9781 20.0356ZM44.6232 17.9327H45.0618V20.4485H44.6232V17.9327Z" fill="#F5F5F5"/>
<path id="Vector_82" fill-rule="evenodd" clip-rule="evenodd" d="M47.0748 20.0227V20.4485H44.7526V20.0227H47.0748ZM42.7529 19.0422H43.1658V20.4614H42.7529V19.0422Z" fill="#F5F5F5"/>
<path id="Vector_83" fill-rule="evenodd" clip-rule="evenodd" d="M46.7259 17.9327H47.1516V20.4485H46.7259V17.9327ZM45.6809 17.9327H46.0937V20.4485H45.6809V17.9327ZM40.0817 18.9261V19.3519H37.8369V18.939L40.0817 18.9261ZM44.9842 18.9261V19.3519H42.7523V18.939L44.9842 18.9261Z" fill="#F5F5F5"/>
<path id="Vector_84" fill-rule="evenodd" clip-rule="evenodd" d="M42.7529 19.0422H43.1658V20.4614H42.7529V19.0422Z" fill="#F5F5F5"/>
<path id="Vector_85" fill-rule="evenodd" clip-rule="evenodd" d="M42.7529 19.0422H43.1658V20.4614H42.7529V19.0422Z" fill="#F5F5F5"/>
<path id="Vector_86" fill-rule="evenodd" clip-rule="evenodd" d="M42.7523 19.0422H43.1651V20.4614H42.7523V19.0422ZM37.8369 19.0422H38.2627V20.4614H37.8369V19.0422ZM41.4364 19.0422H41.8621V20.4614H41.4364V19.0422ZM39.656 19.0422H40.0817V20.4614H39.656V19.0422Z" fill="#F5F5F5"/>
<path id="Vector_87" fill-rule="evenodd" clip-rule="evenodd" d="M41.7334 20.0227V20.4485H39.8369V20.0227H41.7334ZM41.8624 18.939V19.3519H40.6626V18.939H41.8624Z" fill="#F5F5F5"/>
</g>
<g id="Group_14">
<path id="Vector_88" fill-rule="evenodd" clip-rule="evenodd" d="M47.9121 17.9327H54.0531V18.3456H47.9121V17.9327ZM48.8281 20.0356H49.2538V20.4485H48.8281V20.0356ZM54.066 20.0356V20.4485H52.8404V20.0227L54.066 20.0356ZM54.724 17.9327H55.1497V20.4485H54.724V17.9327Z" fill="#F5F5F5"/>
<path id="Vector_89" fill-rule="evenodd" clip-rule="evenodd" d="M57.1627 20.0227V20.4485H54.8405V20.0227H57.1627ZM52.8408 19.0422H53.2666V20.4614H52.8408V19.0422Z" fill="#F5F5F5"/>
<path id="Vector_90" fill-rule="evenodd" clip-rule="evenodd" d="M56.8267 17.9327H57.2395V20.4485H56.8267V17.9327ZM55.7688 17.9327H56.1945V20.4485H55.7688V17.9327ZM50.1696 18.9261V19.3519H47.9248V18.939L50.1696 18.9261ZM55.0721 18.9261V19.3519H52.8402V18.939L55.0721 18.9261Z" fill="#F5F5F5"/>
<path id="Vector_91" fill-rule="evenodd" clip-rule="evenodd" d="M52.8408 19.0422H53.2666V20.4614H52.8408V19.0422Z" fill="#F5F5F5"/>
<path id="Vector_92" fill-rule="evenodd" clip-rule="evenodd" d="M52.8408 19.0422H53.2666V20.4614H52.8408V19.0422Z" fill="#F5F5F5"/>
<path id="Vector_93" fill-rule="evenodd" clip-rule="evenodd" d="M52.8402 19.0422H53.2659V20.4614H52.8402V19.0422ZM47.9377 19.0422H48.3506V20.4614H47.9248L47.9377 19.0422ZM51.5243 19.0422H51.95V20.4614H51.5243V19.0422ZM49.7439 19.0422H50.1696V20.4614H49.7439V19.0422Z" fill="#F5F5F5"/>
<path id="Vector_94" fill-rule="evenodd" clip-rule="evenodd" d="M51.8211 20.0227V20.4485H49.9375V20.0227H51.8211ZM51.9501 18.939V19.3519H50.7503V18.939H51.9501Z" fill="#F5F5F5"/>
</g>
<g id="Group_15">
<path id="Vector_95" fill-rule="evenodd" clip-rule="evenodd" d="M58.0146 17.9327H64.1427V18.3456H58.0146V17.9327ZM58.9177 20.0356H59.3435V20.4485H58.9177V20.0356ZM64.1556 20.0356V20.4485H62.9429V20.0227L64.1556 20.0356ZM64.8136 17.9327H65.2393V20.4485H64.8136V17.9327Z" fill="#F5F5F5"/>
<path id="Vector_96" fill-rule="evenodd" clip-rule="evenodd" d="M67.2645 20.0227V20.4485H64.9423V20.0227H67.2645ZM62.9297 19.0422H63.3554V20.4614H62.9297V19.0422Z" fill="#F5F5F5"/>
<path id="Vector_97" fill-rule="evenodd" clip-rule="evenodd" d="M66.9165 17.9327H67.3423V20.4485H66.9165V17.9327ZM65.8586 17.9327H66.2844V20.4485H65.8586V17.9327ZM60.2595 18.9261V19.3519H58.0146V18.939L60.2595 18.9261ZM65.1619 18.9261V19.3519H62.9429V18.939L65.1619 18.9261Z" fill="#F5F5F5"/>
<path id="Vector_98" fill-rule="evenodd" clip-rule="evenodd" d="M62.9426 19.0422H63.3554V20.4614H62.9297L62.9426 19.0422Z" fill="#F5F5F5"/>
<path id="Vector_99" fill-rule="evenodd" clip-rule="evenodd" d="M62.9426 19.0422H63.3554V20.4614H62.9297L62.9426 19.0422Z" fill="#F5F5F5"/>
<path id="Vector_100" fill-rule="evenodd" clip-rule="evenodd" d="M62.9429 19.0422H63.3558V20.4614H62.93L62.9429 19.0422ZM58.0146 19.0422H58.4404V20.4614H58.0146V19.0422ZM61.627 19.0422H62.0398V20.4614H61.6141L61.627 19.0422ZM59.8337 19.0422H60.2595V20.4614H59.8337V19.0422Z" fill="#F5F5F5"/>
<path id="Vector_101" fill-rule="evenodd" clip-rule="evenodd" d="M61.9109 20.0227V20.4485H60.0273V20.0227H61.9109ZM62.0399 18.939V19.3519H60.8401V18.939H62.0399Z" fill="#F5F5F5"/>
</g>
<path id="Vector_102" fill-rule="evenodd" clip-rule="evenodd" d="M-8.36272 42.4451H-7.60154V43.7353H-8.36272V42.4451ZM11.6987 42.4451H12.4599V43.7353H11.6987V42.4451ZM-23.7539 42.4451H-23.0056V43.7353H-23.7539V42.4451ZM-13.5748 42.4451H-12.8136V43.7353H-13.5748V42.4451ZM-3.46024 42.4451H-2.71197V43.7353H-3.46024V42.4451ZM1.54544 42.4451H2.29372V43.7353H1.54544V42.4451ZM6.64144 42.4451H7.41551V43.7353H6.64144V42.4451ZM16.7044 42.4451H17.4656V43.7353H16.7044V42.4451ZM42.0941 42.4451H42.8423V43.7353H42.0941V42.4451ZM21.8133 42.4451H22.5745V43.7353H21.8133V42.4451ZM26.819 42.4451H27.5802V43.7353H26.819V42.4451ZM31.8763 42.4451H32.6246V43.7353H31.8763V42.4451ZM36.9336 42.4451H37.6818V43.7353H36.9336V42.4451ZM77.3145 42.4451H78.0886V43.7353H77.3145V42.4451ZM46.9965 42.4451H47.7448V43.7353H46.9836L46.9965 42.4451ZM52.0925 42.4451H52.8537V43.7353H52.0925V42.4451ZM57.253 42.4451H58.0142V43.7353H57.253V42.4451ZM62.1039 42.4451H62.8651V43.7353H62.1039V42.4451ZM67.2644 42.4451H68.0256V43.7353H67.2515L67.2644 42.4451ZM72.3217 42.4451H73.07V43.7353H72.3217V42.4451ZM87.2872 42.4451H88.0354V43.7353H87.2742L87.2872 42.4451ZM82.4363 42.4451H83.1846V43.7353H82.4363V42.4451ZM-18.6837 42.4451H-17.9225V43.7353H-18.6837V42.4451Z" fill="#D90000"/>
<path id="Vector_103" fill-rule="evenodd" clip-rule="evenodd" d="M-8.36272 20.3324H-7.60154V21.6354H-8.36272V20.3324ZM11.6987 20.3324H12.4599V21.6354H11.6987V20.3324ZM-23.7539 20.3324H-23.0056V21.6354H-23.7539V20.3324ZM-13.5748 20.3324H-12.8136V21.6354H-13.5748V20.3324ZM-3.46024 20.3324H-2.71197V21.6354H-3.46024V20.3324ZM1.54544 20.3324H2.29372V21.6354H1.54544V20.3324ZM6.64144 20.3324H7.41551V21.6354H6.64144V20.3324ZM16.7044 20.3324H17.4656V21.6354H16.7044V20.3324ZM42.0941 20.3324H42.8423V21.6354H42.0941V20.3324ZM21.8133 20.3324H22.5745V21.6354H21.8133V20.3324ZM26.819 20.3324H27.5802V21.6354H26.819V20.3324ZM31.8763 20.3324H32.6246V21.6354H31.8763V20.3324ZM36.9336 20.3324H37.6818V21.6354H36.9336V20.3324ZM77.3145 20.3324H78.0886V21.6354H77.3145V20.3324ZM46.9965 20.3324H47.7448V21.6354H46.9836L46.9965 20.3324ZM52.0925 20.3324H52.8537V21.6354H52.0925V20.3324ZM57.253 20.3324H58.0142V21.6354H57.253V20.3324ZM62.1039 20.3324H62.8651V21.6354H62.1039V20.3324ZM67.2644 20.3324H68.0256V21.6354H67.2515L67.2644 20.3324ZM72.3217 20.3324H73.07V21.6354H72.3217V20.3324ZM87.2872 20.3324H88.0354V21.6354H87.2742L87.2872 20.3324ZM82.4363 20.3324H83.1846V21.6354H82.4363V20.3324ZM-18.6837 20.3324H-17.9225V21.6354H-18.6837V20.3324Z" fill="#239E3F"/>
<g id="Group_16">
<path id="Vector_104" fill-rule="evenodd" clip-rule="evenodd" d="M35.2043 24.693C36.2751 25.9831 39.5263 33.1433 33.2434 37.8394C30.289 40.0584 32.1209 40.1616 32.2113 40.5486C36.9589 38.02 38.5071 34.6141 38.4684 31.5436C38.4297 28.486 36.817 25.7896 35.2172 24.693H35.2043Z" fill="#DA0000"/>
<path id="Vector_105" fill-rule="evenodd" clip-rule="evenodd" d="M35.8495 24.3576C37.0054 25.0655 37.9897 26.0212 38.7316 27.1556C39.4734 28.2901 39.9543 29.575 40.1394 30.9178C40.3245 32.2606 40.2093 33.6277 39.8021 34.9206C39.3949 36.2134 38.7059 37.3998 37.7847 38.3941C41.1906 37.6459 45.5254 27.5958 35.8237 24.3576H35.8495ZM28.6377 24.3576C27.4818 25.0655 26.4974 26.0212 25.7555 27.1556C25.0137 28.2901 24.5329 29.575 24.3477 30.9178C24.1626 32.2606 24.2778 33.6277 24.685 34.9206C25.0922 36.2134 25.7813 37.3998 26.7025 38.3941C23.2836 37.6459 18.9488 27.5958 28.6377 24.3576Z" fill="#DA0000"/>
<path id="Vector_106" fill-rule="evenodd" clip-rule="evenodd" d="M29.2696 24.693C28.2117 25.9831 24.9477 33.1433 31.2306 37.8394C34.185 40.0584 32.353 40.1616 32.2627 40.5486C27.5279 38.02 25.9669 34.6141 26.0056 31.5436C26.0443 28.486 27.6698 25.7896 29.2696 24.693Z" fill="#DA0000"/>
<path id="Vector_107" fill-rule="evenodd" clip-rule="evenodd" d="M38.2617 39.8907C36.2202 39.9696 34.1884 39.572 32.3272 38.7296C32.611 39.2843 32.8432 39.6326 33.1399 40.2003C34.7913 40.3422 37.0748 40.5357 38.2617 39.8907ZM26.3926 39.8907C28.2504 39.9165 30.5984 39.6326 32.3272 38.7296C32.0433 39.2843 31.8111 39.6326 31.5144 40.2003C29.863 40.3422 27.5795 40.5357 26.3926 39.8907ZM29.7985 22.5514C30.1855 23.5448 31.166 23.6996 32.2239 23.1061C32.998 23.5706 34.1849 23.5964 34.5978 22.5901C34.9074 25.0671 32.3013 24.4866 32.211 24.0092C31.2434 24.9381 29.4373 24.3963 29.7985 22.5514Z" fill="#DA0000"/>
<path id="Vector_108" fill-rule="evenodd" clip-rule="evenodd" d="M32.2889 41.4517L33.2694 40.3293L33.3984 25.3123L32.2373 24.2802L31.0762 25.2606L31.3084 40.3809L32.2889 41.4517V41.4517Z" fill="#DA0000"/>
</g>
</g>
</g>
</g>
<defs>
<clipPath id="clip0_2909_185418">
<path d="M0.246094 32C0.246094 14.3269 14.573 0 32.2461 0V0C49.9192 0 64.2461 14.3269 64.2461 32V32C64.2461 49.6731 49.9192 64 32.2461 64V64C14.573 64 0.246094 49.6731 0.246094 32V32Z" fill="white"/>
</clipPath>
</defs>
</svg>
