<svg width="65" height="64" viewBox="0 0 65 64" fill="none" xmlns="http://www.w3.org/2000/svg">
<g id="Rounded=Jersey (JE)">
<g clip-path="url(#clip0_2909_185372)">
<g id="Group">
<path id="Vector" d="M-21.8037 0H84.863V64H-21.8037V0Z" fill="#F5F5F5"/>
<path id="Vector_2" fill-rule="evenodd" clip-rule="evenodd" d="M-21.8037 0V4.26667L24.4185 32L-21.8037 59.7333V64H-14.6926L31.5296 36.2667L77.7519 64H84.863V59.7333L38.6407 32L84.863 4.26667V0H77.7519L31.5296 27.7333L-14.6926 0H-21.8037Z" fill="#DF112D"/>
<g id="Group_2">
<path id="Vector_3" d="M37.261 9.64267C38.6086 15.2036 37.869 22.0658 31.6575 25.8916C25.4886 22.0658 24.7063 15.2036 26.0966 9.64267C27.5757 8.34134 34.1783 7.51645 37.261 9.64267V9.64267Z" fill="#E8112D" stroke="black" stroke-width="0.0434382"/>
<path id="Vector_4" d="M31.7005 8.51556C33.6561 8.46934 35.6116 8.94934 37.3041 9.90223C37.5899 8.00716 38.3197 6.20651 39.4338 4.64711C38.3458 4.64711 37.8694 5.21245 37.8694 5.77778C37.6098 5.03823 36.5645 5.08089 36.2196 5.472C37.393 6.25423 36.4792 7.64445 35.4374 7.38489C34.9574 7.25334 34.6978 6.90845 34.5698 6.38578C34.7075 6.35842 34.83 6.28083 34.9137 6.16811C34.9973 6.05539 35.036 5.91559 35.0222 5.77592C35.0085 5.63625 34.9433 5.50668 34.8393 5.41242C34.7353 5.31817 34.6 5.26596 34.4596 5.26596C34.3193 5.26596 34.1839 5.31817 34.0799 5.41242C33.976 5.50668 33.9107 5.63625 33.897 5.77592C33.8833 5.91559 33.922 6.05539 34.0056 6.16811C34.0892 6.28083 34.2117 6.35842 34.3494 6.38578C34.0472 6.81956 33.5245 7.07912 33.0054 6.95112C32.4365 6.81956 32.1805 6.29689 32.1805 5.86311C32.1805 4.68978 33.3076 4.51911 33.6561 4.736C33.6561 3.95378 32.3974 3.29956 32.0063 3.95378C32.4401 3.12889 32.3512 2.08356 31.6578 1.43289C31.3392 1.7525 31.1329 2.16694 31.0701 2.61386C31.0073 3.06078 31.0912 3.51603 31.3094 3.91111C30.9183 3.25689 29.7023 3.91111 29.7023 4.69334C30.0081 4.47289 31.1352 4.64711 31.1352 5.82045C31.1352 6.25423 30.8756 6.77689 30.3529 6.90845C30.0914 6.96761 29.8179 6.94475 29.5698 6.84295C29.3217 6.74116 29.1109 6.56539 28.9663 6.33956C29.0516 6.33956 29.1369 6.25423 29.2258 6.16889C29.3129 6.07624 29.3661 5.95696 29.377 5.83031C29.3879 5.70366 29.3558 5.57704 29.2859 5.47089C29.2159 5.36474 29.1123 5.28525 28.9916 5.24525C28.871 5.20526 28.7403 5.20709 28.6209 5.25046C28.5014 5.29383 28.4 5.3762 28.3331 5.48428C28.2662 5.59235 28.2376 5.71983 28.2521 5.84612C28.2665 5.97241 28.3231 6.09014 28.4127 6.18032C28.5023 6.27049 28.6196 6.32785 28.7458 6.34311C28.7193 6.57747 28.6221 6.7982 28.4671 6.97601C28.3122 7.15382 28.1068 7.28031 27.8783 7.33867C27.6348 7.40069 27.3772 7.37265 27.1528 7.25972C26.9284 7.14678 26.7523 6.95655 26.6571 6.72408C26.5618 6.49161 26.5538 6.23255 26.6345 5.99463C26.7151 5.75671 26.8791 5.55595 27.0961 5.42934C26.7476 4.99556 25.7094 4.99556 25.4463 5.73511C25.4463 5.16623 24.9698 4.60445 23.8818 4.60445C25.0111 6.15983 25.7556 7.96078 26.0543 9.85956C27.7871 8.92729 29.7335 8.46398 31.7005 8.51556V8.51556Z" fill="#F9DD16" stroke="black" stroke-width="0.0434382"/>
<g id="Group_3">
<path id="Vector_5" d="M36.3935 13.9876C36.2157 13.9876 36.2157 14.2044 36.1766 14.2044C36.5215 14.2044 36.6957 14.0729 36.7811 13.8987V14.1618C37.0442 14.0729 37.1295 13.856 37.0442 13.728L37.3464 13.8133C37.1757 13.6818 37.3037 13.3796 37.0015 13.2053C37.0868 13.2053 37.2611 13.2907 37.3464 13.4222C37.3037 13.12 37.2611 12.9458 37.0015 12.7716H37.2149C37.1586 12.7333 37.1132 12.6811 37.0833 12.62C37.0533 12.5589 37.0399 12.491 37.0442 12.4231C37.0442 12.2489 36.9553 12.2489 36.7846 12.2916L36.0024 12.3378C35.5651 12.3378 35.1313 12.3378 34.7864 12.0747C35.3482 12.3378 36.0877 11.8151 36.0877 11.424C36.0877 10.9902 35.4833 10.5564 34.3491 10.816C33.222 11.0756 31.8317 10.9902 31.8317 10.5991C31.8317 10.208 32.8273 10.1653 33.35 10.2507C33.8726 10.3396 34.2211 10.3822 35.1775 10.0373C34.9571 10.1227 34.1784 10.1653 33.5704 9.99111C32.9624 9.81689 31.4833 9.81689 31.4833 10.5956C31.4833 11.424 33.0477 11.3387 34.4344 11.1218C35.2166 11.0329 35.654 11.1218 35.654 11.3351C35.654 11.5982 34.9144 11.6836 34.3491 11.6409C33.7538 11.5614 33.1484 11.6062 32.5713 11.7724C32.0024 11.9467 31.6113 11.7724 31.0068 11.9004C30.7011 11.9004 29.9651 11.9004 29.6166 11.296C29.3997 11.4667 28.7455 11.7724 28.6175 12.1209C28.486 12.3804 28.6175 12.6827 28.7917 12.9884C29.0513 13.3369 28.6602 13.2907 28.3544 13.2907C28.0095 13.2907 27.4868 13.2907 27.2273 12.9458C26.9677 12.6827 26.662 12.4658 26.4024 12.64C26.2708 12.7716 26.4024 12.8996 26.4877 12.8569L26.8362 12.9458C26.7665 12.914 26.6897 12.9012 26.6135 12.9087C26.5374 12.9162 26.4645 12.9437 26.4024 12.9884C26.2708 13.0738 26.4024 13.248 26.5304 13.2053C26.6193 13.1627 26.8362 13.12 26.9677 13.2053C26.8362 13.2053 26.662 13.2053 26.6193 13.2907C26.5766 13.376 26.6193 13.4684 26.7473 13.4684C27.0104 13.4684 27.0531 13.6391 27.3162 13.5964C27.2551 13.5996 27.1957 13.617 27.1426 13.6472C27.0895 13.6775 27.0442 13.7198 27.0104 13.7707C27.27 13.6391 27.4868 13.9449 27.7926 13.856C27.7037 13.8987 27.4868 14.0338 27.4868 14.1191C27.6611 13.8987 28.8771 14.2898 28.8771 13.8133L28.8344 14.1618C28.966 14.0729 29.4388 14.0302 29.6166 13.728C29.6166 13.8133 29.6166 13.9413 29.5277 13.9876C29.6593 13.9876 29.8762 13.8987 30.0966 13.5964C30.182 13.4649 30.182 13.3796 30.182 13.2907C30.3702 13.3004 30.5553 13.2395 30.7011 13.12C30.8788 12.9884 31.0495 13.248 31.3517 13.0311C31.6148 12.8569 31.8744 13.0311 32.0486 12.9458C32.1802 12.8569 32.3971 12.9458 32.5713 12.8569C32.7455 12.768 33.0051 12.8996 33.2646 12.6827C33.6984 12.8604 34.2637 13.12 35.5224 12.8996C36.2193 12.7716 36.4824 13.0311 36.4824 13.3369C36.4824 13.5964 36.3046 13.5964 36.2193 13.5964C35.7855 13.6391 35.6504 13.4649 35.4797 13.5076C35.3944 13.5538 35.3055 13.728 35.4797 13.8133C35.3482 13.856 35.3482 13.9876 35.4371 14.0302C35.526 14.0729 35.6504 14.0302 35.7855 13.9876C35.6077 14.0302 35.4797 14.1618 35.5651 14.2898C35.6113 14.3787 35.7429 14.4213 35.8709 14.2898C36.0024 14.1191 36.2193 13.9876 36.3935 13.9876V13.9876ZM28.3117 10.5138C27.9668 10.3822 27.878 10.3822 27.9206 10.6844C27.9206 10.816 28.0522 10.9902 28.1375 11.0756C28.1375 10.9476 28.1837 10.6418 28.3153 10.5564L28.3117 10.5138Z" fill="#F9DD16" stroke="black" stroke-width="0.0434382"/>
<path id="Vector_6" d="M29.4854 10.5565C29.8338 10.3787 29.9654 10.3787 29.8765 10.6845C29.8765 10.816 29.7449 10.9902 29.6596 11.0756C29.6596 10.9476 29.6596 10.6418 29.4854 10.5565Z" fill="#F9DD16" stroke="black" stroke-width="0.0434382"/>
<path id="Vector_7" d="M28.9199 10.3396C29.6168 10.3396 29.7021 10.6845 29.6595 11.0756C29.6595 11.5129 29.4426 11.3387 29.311 11.9467C29.2684 12.1209 29.0977 12.16 28.8773 12.16C28.7457 12.16 28.575 12.16 28.4861 11.9005C28.3546 11.3387 28.1377 11.4667 28.1377 11.0329C28.1377 10.6845 28.2266 10.3396 28.9199 10.3396Z" fill="#F9DD16" stroke="black" stroke-width="0.0434382"/>
<path id="Vector_8" d="M27.1387 11.9467C26.968 11.8578 26.8365 11.9467 26.7476 11.9467C27.0107 11.9893 27.0107 12.2915 27.5298 12.3804C27.4018 12.3804 27.3556 12.4658 27.2276 12.3804C27.4409 12.5547 27.6614 12.7715 28.184 12.7715C28.4863 12.7715 28.2694 12.8995 28.0951 12.8142C28.2694 13.0311 28.6605 12.8569 28.92 13.248C28.92 12.9458 28.4863 12.5084 28.7067 12.2062C27.9671 12.1635 27.9245 11.7724 27.5334 11.4667C27.1849 11.2071 27.1423 10.9475 27.0107 10.4711C26.968 10.2507 26.7049 10.1227 26.5769 10.1653C26.4454 10.1653 26.3565 10.2933 26.488 10.3787C26.5769 10.4675 26.7476 10.4675 26.7476 10.6844C26.6196 10.5138 26.4027 10.4711 26.3138 10.5564C26.2711 10.6418 26.3138 10.7698 26.4027 10.7698C26.616 10.7698 26.488 11.0329 26.7049 11.2071C26.4916 10.9902 26.3138 10.9475 26.1858 11.0755C26.1396 11.1644 26.1858 11.2924 26.3565 11.2924C26.5769 11.2924 26.7938 11.8151 27.1387 11.9467V11.9467ZM32.7885 13.9449C32.6996 13.9449 32.7423 14.1582 32.5716 14.1582C32.9165 14.1582 33.1334 14.0729 33.2649 13.9449L33.1796 14.1582C33.3503 14.0302 33.8303 13.9875 34.0471 14.0302C34.264 14.0729 34.3067 13.9875 34.3956 13.856C34.4809 13.6818 34.3956 13.5964 34.264 13.5075C34.1325 13.3795 34.0898 13.2053 34.1325 12.9458C33.528 12.0747 32.3974 12.5084 32.3974 12.8569C32.7885 13.3369 32.8311 13.2907 33.1796 13.3369C33.4818 13.4222 33.6987 13.4222 33.4818 13.5964C33.3965 13.6818 33.048 13.5964 32.8311 13.6391C32.2658 13.6391 31.96 13.248 31.832 13.4649C31.7005 13.6427 31.832 13.728 32.0916 13.728C31.9174 13.728 31.6578 13.728 31.7005 13.8987C31.7894 14.2044 32.0489 13.856 32.1805 13.9449C32.0916 13.9449 31.9174 13.9875 31.9174 14.0729C31.9174 14.1618 32.1343 14.2898 32.3511 14.0729C32.4783 13.9822 32.6324 13.9371 32.7885 13.9449V13.9449Z" fill="#F9DD16" stroke="black" stroke-width="0.0434382"/>
</g>
<path id="Vector_9" d="M29.0093 10.9476V11.0756C29.052 11.3813 29.1373 11.5129 28.8778 11.5129C28.6609 11.5129 28.7462 11.3813 28.7924 11.0756V10.9511M33.2653 12.6827C33.0775 12.5882 32.8639 12.5582 32.6573 12.5973L33.2653 12.6827ZM30.2253 12.5973C30.0475 12.9458 30.1364 13.12 30.1827 13.2907L30.2253 12.5973ZM28.4404 10.8587C28.5293 10.9476 28.6182 10.7733 28.7924 10.9476C28.7462 10.9013 28.6609 11.0756 28.5293 10.9476L28.4404 10.8587ZM29.4004 10.9013C29.2689 10.9013 29.1835 10.7733 29.0093 10.9476C29.052 10.9013 29.1373 11.0756 29.2689 10.9476L29.4004 10.9013Z" stroke="black" stroke-width="0.0434382"/>
<path id="Vector_10" d="M28.9204 12.032C29.0982 12.032 29.1835 12.032 29.1835 11.7725C29.1835 11.6836 29.3115 11.6409 29.2262 11.4667C29.3115 11.6445 28.9204 11.6445 28.9204 11.5556C28.9204 11.6409 28.4866 11.6409 28.5755 11.4667C28.5293 11.6445 28.6608 11.6836 28.6182 11.7725C28.6182 12.032 28.7035 12.032 28.9204 12.032V12.032Z" fill="#FF0016" stroke="black" stroke-width="0.0434382"/>
<g id="Vector_11">
<path d="M28.7033 11.5129L28.2695 11.3813L28.7033 11.5129ZM28.7033 11.5129H28.2695H28.7033ZM28.7033 11.5556L28.3122 11.6836L28.7033 11.5556ZM29.0518 11.5129L29.4855 11.3813L29.0518 11.5129ZM29.0518 11.5129H29.5744H29.0518ZM29.0518 11.5556L29.4855 11.6836Z" fill="black"/>
<path d="M29.0518 11.5556L29.4855 11.6836M28.7033 11.5129L28.2695 11.3813L28.7033 11.5129ZM28.7033 11.5129H28.2695H28.7033ZM28.7033 11.5556L28.3122 11.6836L28.7033 11.5556ZM29.0518 11.5129L29.4855 11.3813L29.0518 11.5129ZM29.0518 11.5129H29.5744H29.0518Z" stroke="black" stroke-width="0.0434382"/>
</g>
<path id="Vector_12" d="M26.5772 10.1653C26.4456 9.98756 26.1399 10.1653 26.1399 10.3396C26.2288 10.208 26.403 10.3822 26.531 10.3396C26.5772 10.3396 26.6625 10.2507 26.5772 10.1618V10.1653ZM26.4456 10.5565C26.3141 10.3787 25.9692 10.5565 25.9692 10.7307C26.0545 10.5991 26.2288 10.7733 26.3603 10.7307C26.403 10.7307 26.4883 10.5991 26.4456 10.5529V10.5565ZM26.3568 11.0756C26.1861 10.9013 25.8803 11.0756 25.923 11.2925C26.0119 11.1645 26.1861 11.2925 26.2714 11.2925C26.3568 11.2498 26.403 11.1218 26.3141 11.0791L26.3568 11.0756ZM26.4883 12.6827C26.3141 12.5085 26.0545 12.7289 26.0545 12.9458C26.1399 12.768 26.3568 12.9458 26.4883 12.8569C26.4883 12.8569 26.5772 12.7289 26.4883 12.6436V12.6827ZM26.4883 12.9885C26.275 12.9458 26.0545 13.248 26.1861 13.4222C26.1861 13.2053 26.4456 13.2907 26.531 13.2053L26.4883 12.9885V12.9885ZM26.7479 13.2907C26.5345 13.2053 26.3141 13.4685 26.4456 13.6391C26.4456 13.5076 26.7052 13.5538 26.7479 13.4649V13.2516V13.2907ZM31.8323 13.7707C31.6154 13.728 31.3985 13.984 31.5265 14.2045C31.5265 13.9876 31.7896 14.0729 31.875 13.9876L31.8323 13.7707ZM32.0919 14.0302C31.8785 13.9876 31.7008 14.2898 31.8323 14.464C31.8323 14.2507 32.0919 14.2898 32.1345 14.2045C32.1808 14.1618 32.1808 14.0302 32.1345 14.0302H32.0919ZM31.9176 13.4258C31.7434 13.3369 31.4839 13.5965 31.5265 13.7707C31.6154 13.5929 31.8323 13.728 31.9176 13.6391V13.4649V13.4258ZM35.523 13.856C35.3488 13.8133 35.1781 14.1191 35.2634 14.2898C35.2634 14.1191 35.523 14.1618 35.6119 14.0765C35.6119 13.9876 35.6119 13.856 35.523 13.856ZM35.523 13.5538C35.3488 13.4222 35.0892 13.6818 35.1781 13.856C35.2634 13.728 35.4803 13.8133 35.5692 13.728V13.5076L35.523 13.5538ZM35.7008 14.1191C35.4803 14.1191 35.3097 14.4213 35.4377 14.5529C35.4377 14.3751 35.6972 14.4213 35.7399 14.336C35.7861 14.2471 35.7399 14.1582 35.6972 14.1191H35.7008ZM28.9203 11.8578C29.0519 11.8578 29.0981 11.9005 29.0981 12.1636C29.0981 12.5973 29.0981 12.8569 28.9203 12.8569C28.7923 12.8569 28.7923 12.6436 28.7923 12.2916C28.7923 12.1209 28.7923 11.9893 28.7461 12.032C28.7461 11.9005 28.7923 11.8578 28.9239 11.8578H28.9203Z" fill="#0051BA"/>
<g id="Group_4">
<path id="Vector_13" d="M35.7402 18.5493C35.6122 18.5493 35.6122 18.7235 35.5659 18.7235C35.8717 18.7235 36.0033 18.6347 36.0886 18.4604V18.6773C36.3481 18.6347 36.437 18.4178 36.3481 18.2862L36.6113 18.3751C36.4797 18.2862 36.6113 17.984 36.3055 17.8524C36.3944 17.8524 36.5224 17.8951 36.6113 18.0302C36.6113 17.7671 36.5224 17.5929 36.3055 17.4613H36.4833C36.43 17.4221 36.389 17.3685 36.365 17.3067C36.3411 17.245 36.3353 17.1778 36.3481 17.1129C36.3481 16.9849 36.2628 16.9849 36.0886 17.0275H35.3953C35.0042 17.0275 34.613 17.0275 34.3073 16.8107C34.8299 17.0702 35.4806 16.5938 35.4806 16.2453C35.4806 15.8115 34.9153 15.4631 33.9161 15.68C32.9206 15.9431 31.6584 15.8578 31.6584 15.5058C31.6584 15.1538 32.5259 15.072 33.0059 15.1609C33.4824 15.2462 33.7881 15.2889 34.6557 14.9831C34.4815 15.072 33.7881 15.1182 33.2228 14.944C32.6575 14.7698 31.3526 14.7662 31.3526 15.5058C31.3526 16.2453 32.7428 16.16 33.9588 15.9431C34.6984 15.8969 35.0895 15.9431 35.0895 16.1564C35.0895 16.3698 34.4388 16.4622 33.9161 16.4195C33.3771 16.3513 32.8298 16.3961 32.309 16.5511C31.7899 16.7253 31.4415 16.5511 30.9224 16.6791C30.6166 16.6791 29.9624 16.6791 29.6175 16.1173C29.4397 16.288 28.8779 16.5511 28.7464 16.8533C28.661 17.1129 28.7464 17.376 28.9241 17.6355C29.1375 17.9413 28.7926 17.8951 28.4868 17.8951C28.2273 17.8951 27.7473 17.8951 27.4913 17.5929C27.2708 17.376 27.0113 17.1591 26.7481 17.3333C26.6628 17.4613 26.7481 17.5467 26.837 17.504L27.1393 17.5929C27.0761 17.5648 27.0067 17.554 26.938 17.5615C26.8692 17.569 26.8038 17.5945 26.7481 17.6355C26.6628 17.7244 26.7481 17.8951 26.8797 17.8524C26.9686 17.8098 27.1393 17.7671 27.2708 17.8524L26.9686 17.8951C26.9224 17.9413 26.9686 18.0729 27.0966 18.0729C27.3135 18.0729 27.3561 18.2435 27.5766 18.2009C27.5258 18.2023 27.4759 18.2148 27.4305 18.2375C27.385 18.2603 27.3451 18.2926 27.3135 18.3324C27.5304 18.2435 27.7473 18.5031 28.0104 18.4178C27.9215 18.4604 27.7473 18.592 27.7473 18.6773C27.8788 18.464 29.0095 18.8089 29.0095 18.3751L28.9668 18.6773C29.0522 18.6347 29.4859 18.592 29.6601 18.2862C29.6601 18.3751 29.6601 18.5031 29.5748 18.5493C29.7028 18.5493 29.877 18.4604 30.0939 18.2009C30.1828 18.0693 30.1828 17.984 30.1828 17.8951C30.3535 17.8951 30.485 17.8951 30.6166 17.7671C30.7908 17.6355 30.9615 17.8951 31.221 17.6782C31.4415 17.504 31.6584 17.6782 31.8326 17.5929C31.9606 17.504 32.181 17.5929 32.309 17.504C32.437 17.4151 32.7428 17.5502 32.9597 17.376C33.3508 17.504 33.8308 17.7671 34.9579 17.5502C35.6121 17.4613 35.829 17.6782 35.829 17.984C35.829 18.1973 35.6975 18.1973 35.6122 18.1973C35.1784 18.1973 35.0895 18.0693 34.9153 18.112C34.8726 18.112 34.7873 18.2898 34.9153 18.3751C34.8299 18.4178 34.8299 18.5493 34.9153 18.5884C35.0006 18.6275 35.093 18.5884 35.221 18.5493C35.0433 18.5493 34.9153 18.6773 35.0042 18.8089C35.0468 18.8942 35.1784 18.9404 35.3064 18.8089C35.3953 18.6773 35.6122 18.5493 35.7402 18.5493V18.5493ZM28.4868 15.4204C28.1846 15.2889 28.053 15.2889 28.1384 15.552C28.1384 15.68 28.2699 15.8542 28.3161 15.9431C28.3161 15.8115 28.3553 15.5058 28.4868 15.4631V15.4204Z" fill="#F9DD16" stroke="black" stroke-width="0.0434382"/>
<path id="Vector_14" d="M29.5745 15.4667C29.8341 15.2889 30.0083 15.2889 29.8768 15.552C29.8648 15.6984 29.8033 15.8363 29.7025 15.9431C29.7025 15.8116 29.7025 15.5058 29.5283 15.4631L29.5745 15.4667Z" fill="#F9DD16" stroke="black" stroke-width="0.0434382"/>
<path id="Vector_15" d="M29.0521 15.2462C29.6601 15.2462 29.7454 15.552 29.7027 15.9431C29.7027 16.3342 29.4894 16.1564 29.4005 16.7253C29.3543 16.8533 29.1836 16.896 28.9667 16.896C28.8778 16.896 28.7036 16.896 28.6609 16.6827C28.5294 16.16 28.3125 16.2453 28.3125 15.9004C28.3125 15.5555 28.4014 15.2462 29.0521 15.2462V15.2462Z" fill="#F9DD16" stroke="black" stroke-width="0.0434382"/>
<path id="Vector_16" d="M27.402 16.7253C27.2704 16.6364 27.1389 16.7253 27.0962 16.7253C27.3131 16.7253 27.3131 17.0276 27.7931 17.1164H27.4873C27.7042 17.2444 27.9211 17.4613 28.3549 17.4613C28.6606 17.4613 28.4437 17.5502 28.2695 17.4613C28.4437 17.6782 28.7922 17.504 29.0517 17.8951C29.0517 17.5929 28.618 17.2018 28.8348 16.9422C28.1842 16.896 28.138 16.5049 27.7931 16.288C27.4873 16.0284 27.4446 15.8116 27.3131 15.3778C27.2704 15.1609 27.0535 15.072 26.8793 15.1182C26.794 15.1182 26.7051 15.2036 26.8793 15.2889C26.8793 15.3778 27.0962 15.3778 27.0962 15.552C26.9682 15.4204 26.7477 15.3742 26.6624 15.4631C26.6624 15.552 26.6624 15.6409 26.7477 15.6409C26.9682 15.6409 26.8366 15.8969 27.0535 16.0711C26.8366 15.8578 26.7051 15.8116 26.5771 15.9431C26.5309 15.9858 26.5771 16.1173 26.7051 16.1173C26.922 16.1173 27.1389 16.5511 27.4446 16.7218L27.402 16.7253ZM32.5255 18.4604C32.4402 18.4604 32.4829 18.6773 32.3122 18.6773C32.6144 18.6773 32.8313 18.6347 32.9593 18.5031L32.874 18.6809C33.0055 18.592 33.4393 18.5493 33.6562 18.592C33.8731 18.6347 33.8731 18.5493 33.9584 18.4178C34.0473 18.2862 33.9584 18.2009 33.8304 18.112C33.7415 17.984 33.6989 17.8524 33.7415 17.5929C33.1797 16.8107 32.1771 17.2018 32.1771 17.504C32.5255 17.9413 32.5682 17.9413 32.874 17.9413C33.1335 18.0267 33.3077 18.0267 33.1335 18.2009C33.0482 18.2862 32.7424 18.2009 32.5717 18.2009C32.0491 18.2009 31.7895 17.8951 31.658 18.0693C31.5264 18.2471 31.658 18.2862 31.8749 18.2862C31.7433 18.2862 31.4837 18.2862 31.5264 18.464C31.6153 18.7236 31.8322 18.464 31.9602 18.464C31.8749 18.464 31.7469 18.5493 31.7469 18.6347C31.7469 18.6773 31.9175 18.8089 32.138 18.6347C32.249 18.5466 32.3874 18.5 32.5291 18.5031L32.5255 18.4604Z" fill="#F9DD16" stroke="black" stroke-width="0.0434382"/>
</g>
<path id="Vector_17" d="M29.0946 15.7689V15.9431C29.1373 16.2027 29.2262 16.3342 29.0093 16.3342C28.7924 16.3342 28.8777 16.2027 28.9204 15.8969V15.8116M32.9595 17.376C32.7876 17.2841 32.5897 17.2528 32.3977 17.2871L32.9595 17.376ZM30.2253 17.2871C30.0475 17.5929 30.1364 17.7244 30.1826 17.8951L30.2253 17.2871ZM28.6182 15.7262C28.6608 15.8116 28.7462 15.6373 28.9204 15.8116C28.8777 15.7689 28.7924 15.9431 28.6608 15.8116L28.6182 15.7262ZM29.4431 15.7689C29.3542 15.7689 29.2688 15.6373 29.0946 15.7689C29.1373 15.7689 29.2262 15.9431 29.3542 15.7689H29.4431Z" stroke="black" stroke-width="0.0434382"/>
<path id="Vector_18" d="M29.0519 16.768C29.1835 16.768 29.2688 16.768 29.2688 16.5511C29.2688 16.4622 29.4004 16.4195 29.2688 16.288C29.4004 16.4195 29.0519 16.4196 29.0519 16.3342C29.0519 16.4196 28.6182 16.4195 28.7035 16.288C28.7035 16.4195 28.7924 16.4658 28.7462 16.5511C28.7462 16.7644 28.8351 16.7644 29.0519 16.7644V16.768Z" fill="#FF0016" stroke="black" stroke-width="0.0434382"/>
<g id="Vector_19">
<path d="M28.8345 16.3342L28.4434 16.2027L28.8345 16.3342ZM28.8345 16.3342H28.4434H28.8345ZM28.8345 16.3342L28.486 16.4622L28.8345 16.3342ZM29.1367 16.3342L29.574 16.2027L29.1367 16.3342ZM29.1367 16.3342H29.6167H29.1367ZM29.1829 16.3342L29.5278 16.4622Z" fill="black"/>
<path d="M29.1829 16.3342L29.5278 16.4622M28.8345 16.3342L28.4434 16.2027L28.8345 16.3342ZM28.8345 16.3342H28.4434H28.8345ZM28.8345 16.3342L28.486 16.4622L28.8345 16.3342ZM29.1367 16.3342L29.574 16.2027L29.1367 16.3342ZM29.1367 16.3342H29.6167H29.1367Z" stroke="black" stroke-width="0.0434382"/>
</g>
<path id="Vector_20" d="M26.9216 15.1182C26.7936 14.9404 26.4878 15.1182 26.4878 15.2462C26.6194 15.1609 26.7474 15.2889 26.879 15.2462C26.879 15.2462 27.0105 15.1609 26.879 15.1182H26.9216ZM26.7936 15.4631C26.7047 15.2889 26.3563 15.4631 26.3563 15.5947C26.4452 15.5058 26.6194 15.6373 26.7047 15.5947C26.7474 15.5947 26.8363 15.5058 26.7936 15.4631V15.4631ZM26.7047 15.8969C26.5767 15.7689 26.271 15.8969 26.3136 16.1173C26.4025 15.9858 26.5767 16.1173 26.6621 16.1173C26.7047 16.1173 26.7474 15.9396 26.6621 15.9396L26.7047 15.8969ZM26.8363 17.376C26.7047 17.1982 26.4452 17.376 26.4452 17.5893C26.5305 17.4613 26.7047 17.5893 26.879 17.504V17.376H26.8363ZM26.8363 17.6356C26.6621 17.6356 26.4452 17.8951 26.5767 18.0693C26.5767 17.856 26.7901 17.8951 26.879 17.856V17.6356H26.8363ZM27.0958 17.8951C26.8825 17.8524 26.6621 18.0729 26.7936 18.2436C26.7936 18.112 27.0532 18.1582 27.0958 18.0693V17.8951V17.8951ZM31.6576 18.3324C31.4407 18.3324 31.2238 18.5458 31.3981 18.7662C31.3981 18.5493 31.6114 18.6347 31.7003 18.5493L31.6576 18.3324ZM31.8745 18.592C31.7003 18.5493 31.5261 18.8089 31.6576 18.9831C31.6576 18.7662 31.8745 18.8089 31.9172 18.7236V18.592H31.8745ZM31.743 18.0267C31.5723 17.9413 31.3092 18.2009 31.3981 18.3324C31.4407 18.2009 31.6576 18.3324 31.743 18.2436V18.0693V18.0267ZM34.9572 18.4604C34.8292 18.3751 34.655 18.6773 34.7438 18.8089C34.7438 18.6773 34.9572 18.6773 35.0461 18.6347C35.0461 18.5493 35.0461 18.4178 34.9572 18.4178V18.4604ZM34.9572 18.1582C34.8292 18.0267 34.5661 18.2862 34.655 18.4178C34.7403 18.2862 34.9145 18.4178 35.0034 18.2862V18.112L34.9572 18.1582ZM35.135 18.6773C34.9145 18.6773 34.7865 18.9404 34.9145 19.0684C34.9145 18.8942 35.1314 18.9404 35.1776 18.8551L35.1314 18.6773H35.135ZM29.0514 16.6364C29.1367 16.6364 29.183 16.6364 29.183 16.896C29.183 17.2871 29.183 17.504 29.0514 17.504C28.9198 17.504 28.9198 17.3333 28.9198 17.0276C28.9198 16.8533 28.9198 16.7253 28.8772 16.768C28.8772 16.6791 28.8772 16.6364 29.0514 16.6364V16.6364Z" fill="#0051BA"/>
<g id="Group_5">
<path id="Vector_21" d="M33.8264 23.3956C33.7126 23.3956 33.7126 23.5733 33.6841 23.5733C33.9117 23.5733 34.0255 23.4667 34.0824 23.3244V23.5378C34.253 23.4667 34.3099 23.2889 34.253 23.1822L34.4521 23.2533C34.3384 23.1467 34.4237 22.8978 34.2246 22.7556C34.2815 22.7556 34.3953 22.8267 34.4521 22.9333C34.4237 22.6844 34.3953 22.5422 34.2246 22.4H34.3668C34.3297 22.3691 34.2996 22.3266 34.2797 22.2767C34.2597 22.2268 34.2505 22.1713 34.253 22.1156C34.253 21.9733 34.1962 21.9733 34.0824 22.0089L33.5704 22.0444C33.2859 22.0444 33.0015 22.0444 32.7739 21.8311C33.1437 22.0444 33.6273 21.6178 33.6273 21.2978C33.6273 20.9422 33.229 20.5867 32.4895 20.8C31.7499 21.0133 30.8397 20.9422 30.8397 20.6222C30.8397 20.3022 31.4939 20.2667 31.8353 20.3378C32.1766 20.4089 32.4041 20.4444 33.0299 20.16C32.8877 20.2311 32.3757 20.2667 31.9775 20.1244C31.5793 19.9822 30.6121 19.9822 30.6121 20.6222C30.6121 21.2978 31.6361 21.2267 32.5464 21.0489C33.0584 20.9778 33.3428 21.0489 33.3428 21.2267C33.3428 21.44 32.8593 21.5111 32.4895 21.4756C32.099 21.4098 31.7019 21.4461 31.3233 21.5822C30.9535 21.7244 30.6975 21.5822 30.2993 21.6889C30.1001 21.6889 29.6166 21.6889 29.389 21.1911C29.2468 21.3333 28.8201 21.5822 28.7348 21.8667C28.6495 22.08 28.7348 22.3289 28.8486 22.5778C29.0193 22.8622 28.7633 22.8267 28.5641 22.8267C28.3366 22.8267 27.9953 22.8267 27.8246 22.5422C27.6539 22.3289 27.4548 22.1511 27.2841 22.2933C27.1988 22.4 27.2841 22.5067 27.341 22.4711L27.5686 22.5422C27.5229 22.5162 27.4725 22.5058 27.4225 22.5121C27.3726 22.5183 27.3248 22.541 27.2841 22.5778C27.1988 22.6489 27.2841 22.7911 27.3695 22.7556C27.4264 22.72 27.5686 22.6844 27.6539 22.7556C27.5686 22.7556 27.4548 22.7556 27.4264 22.8267C27.3979 22.8978 27.4264 22.9689 27.5117 22.9689C27.6824 22.9689 27.7108 23.1111 27.8815 23.0756C27.8417 23.0783 27.803 23.0926 27.7685 23.1172C27.7339 23.1419 27.7044 23.1764 27.6824 23.2178C27.853 23.1111 27.9953 23.36 28.1944 23.2889C28.1375 23.3244 27.9953 23.4311 27.9953 23.5022C28.109 23.3244 28.9055 23.6444 28.9055 23.2533L28.877 23.5378C28.9624 23.4667 29.2753 23.4311 29.389 23.1822C29.389 23.2533 29.389 23.36 29.3321 23.3956C29.4175 23.3956 29.5597 23.3244 29.7019 23.0756C29.7588 22.9689 29.7588 22.8978 29.7588 22.8267C29.901 22.8267 29.9864 22.7911 30.1001 22.6844C30.2139 22.5778 30.3277 22.7911 30.5268 22.6133C30.6975 22.4711 30.8681 22.6133 30.9819 22.5422C31.0673 22.4711 31.2095 22.5422 31.3233 22.4711C31.437 22.4 31.6077 22.5067 31.7784 22.3289C32.0628 22.4711 32.4326 22.6844 33.2575 22.5067C33.7126 22.4 33.8833 22.6133 33.8833 22.8622C33.8833 23.0756 33.7695 23.0756 33.7126 23.0756C33.4282 23.1111 33.3428 22.9689 33.229 23.0044C33.1722 23.04 33.1153 23.1822 33.229 23.2533C33.1437 23.2889 33.1437 23.3956 33.2006 23.4311C33.2575 23.4667 33.3428 23.4311 33.4282 23.3956C33.3144 23.4311 33.229 23.5378 33.2859 23.6444C33.3144 23.7156 33.3997 23.7511 33.485 23.6444C33.5704 23.5022 33.7126 23.3956 33.8264 23.3956V23.3956ZM28.5357 20.5511C28.3081 20.4444 28.2513 20.4444 28.2797 20.6933C28.2797 20.8 28.365 20.9422 28.4219 21.0133C28.4219 20.9067 28.4504 20.6578 28.5357 20.5867V20.5511Z" fill="#F9DD16" stroke="black" stroke-width="0.0318019"/>
<path id="Vector_22" d="M29.3037 20.5867C29.5313 20.4444 29.6166 20.4444 29.5597 20.6933C29.5597 20.8 29.4744 20.9422 29.4175 21.0133C29.4175 20.9067 29.4175 20.6578 29.3037 20.5867Z" fill="#F9DD16" stroke="black" stroke-width="0.0318019"/>
<path id="Vector_23" d="M28.9339 20.4089C29.389 20.4089 29.4459 20.6933 29.4174 21.0133C29.4174 21.3689 29.2752 21.2267 29.1899 21.7244C29.1614 21.8667 29.0477 21.9022 28.9054 21.9022C28.8201 21.9022 28.7063 21.9022 28.6494 21.6889C28.5641 21.2267 28.4219 21.3333 28.4219 20.9778C28.4219 20.6933 28.4788 20.4089 28.9339 20.4089V20.4089Z" fill="#F9DD16" stroke="black" stroke-width="0.0318019"/>
<path id="Vector_24" d="M27.7679 21.7244C27.6541 21.6533 27.5688 21.7244 27.5119 21.7244C27.6825 21.76 27.6825 22.0089 28.0239 22.08C27.9385 22.08 27.9101 22.1511 27.8248 22.08C27.967 22.2222 28.1092 22.4 28.4505 22.4C28.6497 22.4 28.5074 22.5067 28.3937 22.4356C28.5074 22.6133 28.7634 22.4711 28.9341 22.7911C28.9341 22.5422 28.6497 22.1867 28.7919 21.9378C28.3083 21.9022 28.2799 21.5822 28.0239 21.3333C27.7963 21.12 27.7679 20.9067 27.6825 20.5156C27.6541 20.3378 27.4834 20.2311 27.3981 20.2667C27.3128 20.2667 27.2559 20.3733 27.3412 20.4444C27.3981 20.5156 27.5119 20.5156 27.5119 20.6933C27.4265 20.5511 27.2843 20.5156 27.2274 20.5867C27.199 20.6578 27.2274 20.7644 27.2843 20.7644C27.4265 20.7644 27.3412 20.9778 27.4834 21.12C27.3412 20.9422 27.2274 20.9067 27.1421 21.0133C27.1137 21.0844 27.1421 21.1911 27.2559 21.1911C27.3981 21.1911 27.5403 21.6178 27.7679 21.7244V21.7244ZM31.4657 23.36C31.4088 23.36 31.4372 23.5378 31.3234 23.5378C31.551 23.5378 31.6932 23.4667 31.7785 23.36L31.7217 23.5378C31.8354 23.4311 32.1483 23.3956 32.2905 23.4311C32.4328 23.4667 32.4612 23.3956 32.5181 23.2889C32.575 23.1467 32.5181 23.0756 32.4328 23.0044C32.3474 22.8978 32.319 22.7556 32.3474 22.5422C31.9492 21.8311 31.2097 22.1867 31.2097 22.4711C31.4657 22.8622 31.4941 22.8267 31.7217 22.8622C31.9208 22.9333 32.063 22.9333 31.9208 23.0756C31.8639 23.1467 31.6363 23.0756 31.4941 23.1111C31.1243 23.1111 30.9252 22.7911 30.8399 22.9689C30.7545 23.1111 30.8399 23.1822 31.0105 23.1822C30.8968 23.1822 30.7261 23.1822 30.7545 23.3244C30.8114 23.5733 30.9821 23.2889 31.0674 23.36C31.0105 23.36 30.8968 23.3956 30.8968 23.4667C30.8968 23.5378 31.039 23.6444 31.1812 23.4667C31.2638 23.3924 31.364 23.3548 31.4657 23.36V23.36Z" fill="#F9DD16" stroke="black" stroke-width="0.0318019"/>
</g>
<path id="Vector_25" d="M28.9909 20.9067V21.0133C29.0193 21.2622 29.0762 21.3689 28.9055 21.3689C28.7633 21.3689 28.8202 21.2622 28.8486 21.0133V20.9067M31.7784 22.3289C31.6646 22.2578 31.5224 22.2222 31.3802 22.2578L31.7784 22.3289ZM29.7873 22.2578C29.6735 22.5422 29.7304 22.6844 29.7589 22.8267L29.7873 22.2578ZM28.6211 20.8355C28.678 20.9067 28.7349 20.7644 28.8486 20.9067C28.8202 20.8711 28.7633 21.0133 28.678 20.9067L28.6211 20.8355ZM29.2469 20.8711C29.1615 20.8711 29.1046 20.7644 28.9909 20.9067C29.0193 20.8711 29.0762 21.0133 29.1615 20.9067L29.2469 20.8711Z" stroke="black" stroke-width="0.0318019"/>
<path id="Vector_26" d="M28.9343 21.7956C29.0481 21.7956 29.105 21.7956 29.105 21.5822C29.105 21.5111 29.1903 21.4756 29.1334 21.3333C29.1903 21.4756 28.9343 21.4756 28.9343 21.4045C28.9343 21.4756 28.6499 21.4756 28.7067 21.3333C28.6783 21.4756 28.7636 21.5111 28.7352 21.5822C28.7352 21.7956 28.7921 21.7956 28.9343 21.7956V21.7956Z" fill="#FF0016" stroke="black" stroke-width="0.0318019"/>
<g id="Vector_27">
<path d="M28.7923 21.3689L28.5078 21.2622L28.7923 21.3689ZM28.7923 21.3689H28.5078H28.7923ZM28.7923 21.4045L28.5363 21.5111L28.7923 21.4045ZM29.0198 21.3689L29.3043 21.2622L29.0198 21.3689ZM29.0198 21.3689H29.3611H29.0198ZM29.0198 21.4045L29.3043 21.5111Z" fill="black"/>
<path d="M29.0198 21.4045L29.3043 21.5111M28.7923 21.3689L28.5078 21.2622L28.7923 21.3689ZM28.7923 21.3689H28.5078H28.7923ZM28.7923 21.4045L28.5363 21.5111L28.7923 21.4045ZM29.0198 21.3689L29.3043 21.2622L29.0198 21.3689ZM29.0198 21.3689H29.3611H29.0198Z" stroke="black" stroke-width="0.0318019"/>
</g>
<path id="Vector_28" d="M28.1054 19.5698C28.0201 19.4382 27.8174 19.5698 27.8174 19.6978C27.8743 19.6018 27.9917 19.7333 28.077 19.6978C28.1054 19.6978 28.1659 19.6338 28.1054 19.5698ZM28.0201 19.8613C27.9312 19.7333 27.7001 19.8613 27.7001 19.9929C27.757 19.8933 27.8743 20.0249 27.9632 19.9929C27.9916 19.9929 28.0485 19.8933 28.0201 19.8613ZM27.9632 20.2524C27.8459 20.1244 27.6432 20.2524 27.6716 20.416C27.7285 20.32 27.8459 20.416 27.9028 20.416C27.9632 20.3804 27.9916 20.2844 27.9312 20.2524H27.9632ZM28.0485 21.4613C27.9312 21.3298 27.757 21.4898 27.757 21.6533C27.8174 21.5253 27.9632 21.6533 28.0485 21.5893C28.0485 21.5893 28.1054 21.4898 28.0485 21.4258V21.4613ZM28.0485 21.6853C27.9063 21.6533 27.757 21.8809 27.8459 22.0124C27.8459 21.8489 28.0201 21.9129 28.077 21.8489L28.0485 21.6853V21.6853ZM28.2263 21.9129C28.077 21.8489 27.9312 22.0444 28.0201 22.176C28.0201 22.0764 28.1943 22.1084 28.2228 22.0444V21.8809L28.2263 21.9129ZM31.629 22.272C31.4832 22.24 31.3374 22.4356 31.4263 22.5991C31.4263 22.4356 31.6005 22.4996 31.6574 22.4356L31.629 22.272V22.272ZM31.8032 22.4676C31.661 22.4356 31.5401 22.6631 31.6254 22.7947C31.6254 22.6311 31.8032 22.6631 31.8317 22.5991C31.8601 22.5636 31.8601 22.4676 31.8317 22.4676H31.8032ZM31.6859 22.0124C31.5721 21.9484 31.3943 22.144 31.4263 22.272C31.4832 22.144 31.629 22.24 31.6859 22.176V22.0444V22.0124ZM34.1037 22.3396C33.9863 22.304 33.869 22.5351 33.9259 22.6631C33.9259 22.5351 34.1037 22.5671 34.1605 22.4996C34.1605 22.4356 34.1605 22.3396 34.1037 22.3396ZM34.1037 22.1084C33.9863 22.0124 33.8121 22.208 33.869 22.3396C33.9294 22.24 34.0717 22.304 34.1321 22.24V22.08L34.1037 22.1084ZM34.2174 22.5351C34.0752 22.5351 33.9579 22.7627 34.0432 22.8587C34.0432 22.7307 34.221 22.7627 34.2494 22.6951C34.2779 22.6311 34.2494 22.5671 34.2174 22.5351ZM29.6805 20.8356C29.7694 20.8356 29.7979 20.8711 29.7979 21.0631C29.7979 21.3902 29.7979 21.5858 29.6805 21.5858C29.5952 21.5858 29.5952 21.4222 29.5952 21.1591C29.5952 21.0311 29.5952 20.9351 29.5668 20.9671C29.5668 20.8676 29.5952 20.8356 29.6805 20.8356V20.8356Z" fill="#0051BA"/>
</g>
</g>
</g>
</g>
<defs>
<clipPath id="clip0_2909_185372">
<path d="M0.246094 32C0.246094 14.3269 14.573 0 32.2461 0V0C49.9192 0 64.2461 14.3269 64.2461 32V32C64.2461 49.6731 49.9192 64 32.2461 64V64C14.573 64 0.246094 49.6731 0.246094 32V32Z" fill="white"/>
</clipPath>
</defs>
</svg>
