<svg width="65" height="64" viewBox="0 0 65 64" fill="none" xmlns="http://www.w3.org/2000/svg">
<g id="Rounded=Kenya (KE)">
<g clip-path="url(#clip0_2909_185367)">
<path id="Vector" d="M0.246094 0H64.2461V64H0.246094V0Z" fill="#F5F5F5"/>
<path id="Vector_2" d="M0.246094 0H64.2461V19.2H0.246094V0Z" fill="black"/>
<path id="Vector_3" d="M0.246094 44.8H64.2461V64H0.246094V44.8Z" fill="#006600"/>
<g id="b">
<path id="Vector_4" d="M20.7812 51L21.5013 51.4L40.1813 19C41.2613 18.76 41.8613 17.72 42.4613 16.68C42.8613 15.96 44.4613 13.2 45.1413 9.60001C43.2436 11.2864 41.6355 13.2728 40.3813 15.48C39.7813 16.52 39.1813 17.56 39.4613 18.64L20.7812 51Z" fill="black" stroke="black" stroke-width="0.4" stroke-miterlimit="10"/>
<path id="Vector_5" d="M20.7812 51L21.5013 51.4L40.1813 19C41.2613 18.76 41.8613 17.72 42.4613 16.68C42.8613 15.96 44.4613 13.2 45.1413 9.60001C43.2436 11.2864 41.6355 13.2728 40.3813 15.48C39.7813 16.52 39.1813 17.56 39.4613 18.64L20.7812 51Z" fill="#F5F5F5"/>
</g>
<g id="Group">
<path id="Vector_6" d="M43.6738 51L42.9538 51.4L24.2738 19C23.1938 18.76 22.5938 17.72 21.9938 16.68C21.5938 15.96 19.9938 13.2 19.3138 9.60001C21.2115 11.2864 22.8196 13.2728 24.0738 15.48C24.6738 16.52 25.2738 17.56 24.9938 18.64L43.6738 51Z" fill="black" stroke="black" stroke-width="0.4" stroke-miterlimit="10"/>
<path id="Vector_7" d="M43.6738 51L42.9538 51.4L24.2738 19C23.1938 18.76 22.5938 17.72 21.9938 16.68C21.5938 15.96 19.9938 13.2 19.3138 9.60001C21.2115 11.2864 22.8196 13.2728 24.0738 15.48C24.6738 16.52 25.2738 17.56 24.9938 18.64L43.6738 51Z" fill="#F5F5F5"/>
</g>
<path id="Vector_8" d="M32.2211 12.8C29.8211 12.8 25.8211 19.2 24.6211 22.4H0.246094V41.6H24.6211C25.8336 44.8 29.8336 51.2 32.2336 51.2C34.6336 51.2 38.6336 44.8 39.8336 41.6H64.2461V22.4H39.8211C38.6211 19.2 34.6211 12.8 32.2211 12.8V12.8Z" fill="#BB0000"/>
<path id="c" d="M39.8213 41.6C41.0577 38.5457 41.7352 35.294 41.8213 32C41.7352 28.706 41.0577 25.4543 39.8213 22.4C38.5849 25.4543 37.9074 28.706 37.8213 32C37.9074 35.294 38.5849 38.5457 39.8213 41.6" fill="black"/>
<path id="Vector_9" d="M24.6338 41.6C23.3974 38.5457 22.7199 35.294 22.6338 32C22.7199 28.706 23.3974 25.4543 24.6338 22.4C25.8702 25.4543 26.5477 28.706 26.6338 32C26.5477 35.294 25.8702 38.5457 24.6338 41.6" fill="black"/>
<g id="Group_2">
<path id="Vector_10" d="M32.2211 34.4C33.1047 34.4 33.8211 33.3255 33.8211 32C33.8211 30.6745 33.1047 29.6 32.2211 29.6C31.3374 29.6 30.6211 30.6745 30.6211 32C30.6211 33.3255 31.3374 34.4 32.2211 34.4Z" fill="#F5F5F5"/>
<path id="d" d="M32.6211 34.32C32.6211 34.32 34.2211 37.52 34.2211 42.72C34.2211 47.92 32.6211 51.12 32.6211 51.12V34.32Z" fill="#F5F5F5"/>
<path id="Vector_11" d="M31.8203 29.68C31.8203 29.68 30.2203 26.48 30.2203 21.28C30.2203 16.08 31.8203 12.88 31.8203 12.88V29.68Z" fill="#F5F5F5"/>
<path id="Vector_12" d="M31.8203 34.32C31.8203 34.32 30.2203 37.52 30.2203 42.72C30.2203 47.92 31.8203 51.12 31.8203 51.12V34.32Z" fill="#F5F5F5"/>
<path id="Vector_13" d="M32.6211 29.68C32.6211 29.68 34.2211 26.48 34.2211 21.28C34.2211 16.08 32.6211 12.88 32.6211 12.88V29.68Z" fill="#F5F5F5"/>
</g>
</g>
</g>
<defs>
<clipPath id="clip0_2909_185367">
<path d="M0.246094 32C0.246094 14.3269 14.573 0 32.2461 0V0C49.9192 0 64.2461 14.3269 64.2461 32V32C64.2461 49.6731 49.9192 64 32.2461 64V64C14.573 64 0.246094 49.6731 0.246094 32V32Z" fill="white"/>
</clipPath>
</defs>
</svg>
