<svg width="65" height="64" viewBox="0 0 65 64" fill="none" xmlns="http://www.w3.org/2000/svg">
<g id="Rounded=Kyrgyzstan (KG)">
<g clip-path="url(#clip0_2909_185366)">
<g id="Group">
<path id="Vector" fill-rule="evenodd" clip-rule="evenodd" d="M-15.7539 0H80.3398V64.0061H-15.7539V0Z" fill="#FF0000"/>
<path id="Vector_2" fill-rule="evenodd" clip-rule="evenodd" d="M13.4275 32.6411C15.1341 30.5655 18.6704 32.595 21.5609 31.1036C18.1322 31.2881 16.2719 29.4585 13.5659 29.7199C16.3641 27.9979 18.7472 30.2734 21.8837 29.3509C17.7325 29.0126 17.917 27.1522 14.1501 26.8909C17.5019 25.461 19.147 28.3669 22.4372 27.7057C18.5627 26.814 18.0554 24.5385 15.1802 24.0465C19.3776 23.4161 19.1009 25.8915 23.2214 26.199C19.0394 24.4155 20.1464 22.8472 16.6409 21.4942C20.5615 21.402 20.3001 24.108 24.2515 24.8152C20.869 22.6627 21.2841 20.6947 18.4859 19.1572C21.8069 19.2187 22.1297 22.6166 25.5122 23.6621C22.4987 21.279 23.2829 19.2495 20.6845 17.1124C23.9747 17.8811 23.4981 20.8177 26.9267 22.6781C24.3899 19.8645 25.3585 17.835 23.1445 15.5134C26.3117 16.5435 25.1125 19.3264 28.4027 21.9709C26.5116 18.8651 27.6801 16.8817 25.8197 14.2526C28.7717 15.7901 27.3419 18.6191 30.0786 21.4481C28.7871 18.2655 30.0786 16.2821 28.7564 13.4531C31.2779 15.3442 29.7865 18.3731 31.816 21.279C31.078 17.2815 32.8 16.6204 32.2619 13.1302C34.1684 15.4826 32.0312 17.835 33.4919 21.279C33.3381 17.3584 35.4137 16.4359 35.0447 13.284C36.9512 16.113 33.9839 18.573 35.2292 21.6019C35.5367 17.8657 37.9967 16.9125 38.0429 14.0066C39.5342 16.6665 36.2747 18.5884 36.8129 22.1246C37.8737 18.2194 40.4875 17.7427 40.8104 15.1136C41.7021 18.1886 38.1351 19.6339 38.3504 23.0471C39.4112 19.5877 42.6707 19.1726 43.3472 16.6204C43.747 19.8799 40.5336 20.4641 39.6419 24.0619C41.3331 21.1406 44.2851 20.8792 45.6074 18.5576C45.4997 21.7864 41.8712 22.2015 40.7642 25.2304C42.8552 22.6627 45.469 23.1086 47.56 20.8331C47.3447 23.7544 43.6547 23.5852 41.6867 26.5987C43.9622 24.5077 47.3755 25.1381 49.1129 23.3392C49.0206 25.9069 44.5004 25.7224 42.3479 28.0132C44.9924 26.5834 48.3287 27.429 50.266 26.076C49.897 28.3361 45.1307 27.8287 42.8245 29.5815C45.9764 28.7051 48.4056 30.0428 50.9732 29.0741C49.7279 31.2728 45.3921 29.889 43.0859 31.3189C45.8226 30.8576 48.7285 32.5027 51.2192 31.98C50.4044 33.8711 45.6535 31.857 43.0705 33.0563C46.1455 33.0101 48.1442 34.9781 50.9732 34.8398C49.4357 36.5618 45.2537 34.194 42.8245 34.5938C45.7919 35.2088 48.052 37.6687 50.3121 37.7917C48.4671 39.2062 45.0077 35.9775 42.1941 36.3926C45.0846 37.1614 47.5139 40.4516 49.1744 40.5285C47.3909 41.7585 43.8546 37.7149 41.4407 37.8532C44.362 39.1909 45.715 42.5426 47.6522 43.0192C45.2691 43.788 42.9167 39.3754 40.3491 39.2216C43.3165 41.0974 43.4856 43.9571 45.7765 45.2179C43.378 45.8329 41.656 40.836 39.1191 40.4209C41.5637 42.2044 41.9174 46.0327 43.5471 47.2474C41.0871 47.3704 40.2107 42.1582 37.7046 41.4049C39.8571 43.2037 39.3344 47.0936 40.9949 48.7695C38.458 48.2468 38.7809 43.6958 36.121 42.1583C38.0275 44.5875 37.0435 48.0161 38.3042 49.9534C35.8135 48.954 36.9051 44.8796 34.522 42.5734C35.8135 45.1564 34.4297 48.1545 35.4445 50.6452C33.1844 49.5382 34.7065 44.7259 32.9691 42.804C33.7686 45.7867 32.2926 48.2468 32.8922 50.9066C30.5706 48.216 33.2459 45.5254 31.2317 42.7579C31.7545 45.9251 29.5559 48.1084 29.9095 50.7529C28.0645 48.6004 30.8935 45.141 29.4636 42.435C29.7711 45.5254 26.9267 48.2314 27.1266 50.184C25.6352 47.6932 28.7871 44.7413 27.9415 41.8969C27.757 44.8489 24.8972 46.4479 24.3591 49.1231C23.3905 46.1711 26.8037 44.034 26.5116 41.1281C25.5276 43.8956 22.7601 45.0026 21.7761 47.6779C20.9766 44.7259 25.0202 43.1576 25.1279 40.0519C23.8825 42.9731 20.5615 43.6035 19.4699 45.8329C19.0547 42.9116 23.698 41.5894 23.8671 38.8065C22.3757 41.4817 18.7472 41.574 17.4865 43.7111C17.302 40.7899 22.1912 40.4209 22.96 37.3613C21.4686 39.6368 17.4865 39.36 15.8414 41.205C16.1027 38.4836 21.3764 38.3145 22.222 35.8852C20.254 37.7764 16.6101 36.9922 14.5345 38.499C15.6876 35.8237 20.6537 36.3926 21.7607 34.4554C19.5775 35.6085 15.6876 34.5015 13.7657 35.6392C15.5185 33.1177 19.3776 34.6245 21.5609 32.8717C18.0092 33.3945 15.8721 31.98 13.4121 32.6411H13.4275Z" fill="#FFFF00"/>
<path id="Vector_3" fill-rule="evenodd" clip-rule="evenodd" d="M44.7314 32.0107C44.79 33.6759 44.5127 35.3357 43.916 36.8914C43.3192 38.447 42.4153 39.8665 41.258 41.0652C40.1008 42.2639 38.714 43.2172 37.1803 43.8684C35.6467 44.5195 33.9976 44.8551 32.3315 44.8551C30.6653 44.8551 29.0162 44.5195 27.4826 43.8684C25.9489 43.2172 24.5621 42.2639 23.4049 41.0652C22.2476 39.8665 21.3437 38.447 20.7469 36.8914C20.1502 35.3357 19.8729 33.6759 19.9315 32.0107C20.0447 28.7976 21.4006 25.7539 23.7137 23.5209C26.0268 21.2878 29.1164 20.0398 32.3315 20.0398C35.5465 20.0398 38.6361 21.2878 40.9492 23.5209C43.2623 25.7539 44.6182 28.7976 44.7314 32.0107Z" fill="#FFFF00"/>
<path id="Vector_4" fill-rule="evenodd" clip-rule="evenodd" d="M43.1319 32.0415C43.1319 33.4569 42.8531 34.8584 42.3115 36.166C41.7699 37.4737 40.976 38.6618 39.9752 39.6626C38.9743 40.6634 37.7862 41.4573 36.4786 41.999C35.1709 42.5406 33.7694 42.8194 32.354 42.8194C30.9387 42.8194 29.5372 42.5406 28.2295 41.999C26.9219 41.4573 25.7338 40.6634 24.7329 39.6626C23.7321 38.6618 22.9382 37.4737 22.3966 36.166C21.8549 34.8584 21.5762 33.4569 21.5762 32.0415C21.5762 29.181 22.7125 26.4377 24.7352 24.415C26.7579 22.3923 29.5012 21.256 32.3617 21.256C35.2222 21.256 37.9656 22.3923 39.9883 24.415C42.011 26.4377 43.1473 29.181 43.1473 32.0415H43.1319Z" fill="#FF0000"/>
<path id="Vector_5" fill-rule="evenodd" clip-rule="evenodd" d="M41.6411 32.0569C41.6411 34.5137 40.6652 36.8699 38.9279 38.6071C37.1907 40.3443 34.8345 41.3203 32.3777 41.3203C29.9209 41.3203 27.5647 40.3443 25.8275 38.6071C24.0902 36.8699 23.1143 34.5137 23.1143 32.0569C23.1143 29.6 24.0902 27.2439 25.8275 25.5066C27.5647 23.7694 29.9209 22.7934 32.3777 22.7934C34.8345 22.7934 37.1907 23.7694 38.9279 25.5066C40.6652 27.2439 41.6411 29.6 41.6411 32.0569V32.0569Z" fill="#FFFF00"/>
<path id="Vector_6" fill-rule="evenodd" clip-rule="evenodd" d="M24.4978 25.9838C27.0655 25.9376 30.2481 26.1683 32.3545 27.8595C34.6107 26.4472 37.2685 25.8152 39.919 26.0606L41.3027 28.5821C39.304 28.3823 37.3514 28.659 35.0451 29.5969C36.4469 30.6311 37.5737 31.9932 38.3269 33.5639C39.0801 35.1347 39.4367 36.8661 39.3655 38.6066C39.0272 39.0371 38.5045 39.4984 38.1662 39.9135C38.6582 36.3619 36.7825 32.3798 34.0457 30.2888C36.2597 33.5021 37.582 36.3773 37.213 40.3594L35.9522 41.1435C36.5365 37.638 35.7216 33.5329 33.1232 31.1498C34.1159 32.6173 34.8089 34.2665 35.1625 36.0026C35.516 37.7388 35.5232 39.5276 35.1835 41.2665C34.7837 41.3895 34.1687 41.7278 33.7536 41.8508C34.2441 40.2091 34.3771 38.4815 34.1437 36.7841C33.9103 35.0867 33.3159 33.4591 32.4006 32.0108C31.5025 33.4493 30.9214 35.0629 30.696 36.7437C30.4707 38.4246 30.6063 40.1342 31.0937 41.7585L29.7715 41.3741C29.0642 37.6073 30.0482 33.3791 31.7549 31.1651C30.0175 32.1799 28.3724 36.5003 28.8336 40.9129L27.6651 40.3748C27.0962 37.0845 28.5876 32.7949 30.7401 30.3195C28.3109 31.857 26.3275 35.6085 26.6811 39.6521C26.3121 39.3293 25.9585 39.1601 25.5895 38.8373C25.159 35.301 27.2039 31.7494 29.587 29.6123C27.6175 28.7781 25.4778 28.425 23.3447 28.5821C23.7291 27.7673 24.1135 26.814 24.4978 25.9991V25.9838Z" fill="#FF0000"/>
</g>
</g>
</g>
<defs>
<clipPath id="clip0_2909_185366">
<path d="M0.246094 32C0.246094 14.3269 14.573 0 32.2461 0V0C49.9192 0 64.2461 14.3269 64.2461 32V32C64.2461 49.6731 49.9192 64 32.2461 64V64C14.573 64 0.246094 49.6731 0.246094 32V32Z" fill="white"/>
</clipPath>
</defs>
</svg>
