<svg width="65" height="64" viewBox="0 0 65 64" fill="none" xmlns="http://www.w3.org/2000/svg">
<g id="Rounded=Cambodia (KH)">
<g clip-path="url(#clip0_2909_185466)">
<path id="Vector" d="M0.246094 0H64.2461V64H0.246094V0Z" fill="#032EA1"/>
<path id="Vector_2" d="M0.246094 16H64.2461V48H0.246094V16Z" fill="#E00025"/>
<g id="Group">
<g id="Group_2">
<path id="Vector_3" d="M23.2363 30.1725H41.4443V37.1805H23.2363V30.1725Z" fill="#F5F5F5" stroke="black" stroke-width="0.16" stroke-linejoin="bevel"/>
<path id="Vector_4" d="M40.5163 34.0285H41.0763V36.6685H40.5163V34.0285ZM23.2363 32.7325H41.4443V33.5325H23.2363V32.7325ZM23.2363 31.6125H41.4443V32.3485H23.2363V31.6125Z" fill="#F5F5F5" stroke="black" stroke-width="0.16" stroke-linejoin="bevel"/>
<path id="Vector_5" d="M23.2363 30.5245H41.4443V31.2125H23.2363V30.5245Z" fill="#F5F5F5" stroke="black" stroke-width="0.144" stroke-linejoin="bevel"/>
<path id="Vector_6" d="M28.0365 34.0285H28.6125V36.6685H28.0365V34.0285ZM35.8765 34.0285H36.4525V36.6685H35.8765V34.0285ZM23.3965 34.0285H23.9565V36.6685H23.3965V34.0285ZM24.5165 34.0285H25.0765V36.6685H24.5165V34.0285ZM25.7165 34.0285H26.2765V36.6685H25.7165V34.0285ZM26.9165 34.0285H27.4765V36.6685H26.9165V34.0285ZM36.9645 34.0285H37.5405V36.6685H36.9645V34.0285ZM38.1645 34.0285H38.7405V36.6685H38.1645V34.0285ZM39.3645 34.0285H39.9405V36.6685H39.3645V34.0285Z" fill="#F5F5F5" stroke="black" stroke-width="0.16" stroke-linejoin="bevel"/>
<path id="Vector_7" d="M16.1162 37.5325C16.4508 37.3503 16.7027 37.0468 16.8202 36.6845H47.7162C47.8337 37.0468 48.0857 37.3503 48.4202 37.5325H16.1162Z" fill="#F5F5F5" stroke="black" stroke-width="0.16"/>
</g>
<path id="Vector_8" d="M31.8759 19.5005C31.8759 19.5005 31.8599 18.8445 32.2439 18.8285C32.6119 18.8285 32.5959 19.5005 32.5959 19.5005H31.8759ZM29.8759 28.2205V27.3405C29.8759 26.8925 29.4279 26.8605 29.4279 26.5405C29.4279 26.5405 29.3639 26.0605 29.4919 25.8365C29.6679 26.4765 29.9719 26.3645 29.9719 26.0925C29.9719 25.8685 29.8119 25.6445 29.4439 25.0845C29.3159 24.9085 29.3959 24.3485 29.5559 24.1405C29.6199 24.6205 29.6999 24.8605 29.9079 24.8605C30.0359 24.8605 30.1319 24.7805 30.1319 24.5405C30.1319 24.2205 29.9239 24.0605 29.8119 23.7725C29.7567 23.6292 29.744 23.473 29.7752 23.3226C29.8064 23.1723 29.8803 23.034 29.9879 22.9245C30.0679 23.4045 30.0519 23.5965 30.2599 23.5965C30.6919 23.4525 30.2599 22.8285 30.1639 22.6685C30.0679 22.4925 30.3239 22.1245 30.3239 22.1245C30.4519 22.5565 30.4839 22.5885 30.6439 22.5405C30.8359 22.4925 30.8039 22.2205 30.5799 21.9965C30.4359 21.8365 30.4519 21.6285 30.6119 21.4685C30.7719 21.7725 30.9639 21.7565 30.9799 21.5645L30.8519 20.8605H33.6359L33.4919 21.5485C33.4599 21.7405 33.7159 21.7885 33.8759 21.4685C34.0359 21.6285 34.0519 21.8525 33.9079 21.9965C33.6839 22.2205 33.6519 22.4925 33.8439 22.5405C34.0039 22.5885 34.0359 22.5405 34.1639 22.1245C34.1639 22.1245 34.4039 22.3645 34.3239 22.6685C34.2279 22.8285 33.7959 23.4685 34.2279 23.5965C34.4359 23.5965 34.4199 23.4045 34.4999 22.9245C34.6048 23.0358 34.6757 23.1748 34.704 23.3251C34.7324 23.4754 34.7171 23.6306 34.6599 23.7725C34.5639 24.0605 34.3399 24.2205 34.3399 24.5405C34.3399 24.7805 34.4519 24.8605 34.5799 24.8605C34.7879 24.8605 34.8679 24.6365 34.9319 24.1405C35.0919 24.3485 35.1719 24.9085 35.0439 25.1005C34.6759 25.6445 34.4999 25.8685 34.4999 26.0925C34.4999 26.3645 34.8199 26.4765 34.9799 25.8365C35.1239 26.0605 35.0599 26.5405 35.0599 26.5405C35.0599 26.8605 34.6279 26.8925 34.6119 27.3405V28.2205H29.8759ZM31.0279 20.8605L30.9639 20.3645H33.5079L33.4439 20.8605H31.0279ZM31.1879 20.3485L31.1559 19.9485H33.3159L33.2679 20.3485H31.1879ZM31.5559 19.9325L31.5079 19.5165H32.9479L32.9319 19.9325H31.5559ZM36.8359 37.5325C36.5159 37.4205 36.0359 37.0685 36.0359 36.7325V32.8445L36.4519 32.3005H28.0359L28.4359 32.8445V36.7325C28.4359 37.0685 28.1159 37.4205 27.7959 37.5325H36.8359Z" fill="#F5F5F5" stroke="black" stroke-width="0.16"/>
<path id="Vector_9" d="M29.5078 34.0285H30.0838V36.6685H29.5078V34.0285ZM34.3718 34.0285H34.9478V36.6685H34.3718V34.0285Z" fill="#F5F5F5" stroke="black" stroke-width="0.16" stroke-linejoin="bevel"/>
<path id="Vector_10" d="M27.8764 27.8845V32.3005H36.5164V27.8845C36.4165 27.921 36.3268 27.9806 36.2545 28.0584C36.1821 28.1363 36.1293 28.2302 36.1004 28.3325V30.2205H28.3084V28.3325C28.3084 28.3325 28.2124 28.0125 27.8604 27.8845H27.8764Z" fill="#F5F5F5" stroke="black" stroke-width="0.16"/>
<path id="Vector_11" d="M35.3323 37.5325C35.0443 37.4205 34.4363 37.0685 34.4363 36.7325V32.3805C34.5003 32.1405 34.8203 31.9965 35.0283 31.8365H29.3163C29.5883 31.9965 29.8923 32.1085 30.0043 32.3805V36.7325C30.0043 37.0685 29.5243 37.4205 29.2363 37.5325H35.3323Z" fill="#F5F5F5" stroke="black" stroke-width="0.16"/>
<path id="Vector_12" d="M36.0996 31.8845V28.7485H35.3156V28.4445H29.1076V28.7645H28.3076V31.8845H36.0996ZM34.1156 37.5325C33.8276 37.4205 33.4276 37.0685 33.4276 36.7325V33.0205L33.6516 32.6845H30.8196L31.0596 33.0045V36.7325C31.0596 37.0685 30.6436 37.4205 30.3716 37.5325H34.1156Z" fill="#F5F5F5" stroke="black" stroke-width="0.16"/>
<path id="Vector_13" d="M31.5078 32.6845H32.9478V37.5325H31.5078V32.6845Z" fill="#F5F5F5" stroke="black" stroke-width="0.16"/>
<path id="Vector_14" d="M33.6997 31.6125C33.6997 31.2925 34.6277 31.2765 35.1077 31.0045H29.3477C29.8277 31.2765 30.7397 31.2925 30.7397 31.6125L30.9317 32.2365L33.3317 32.3325L33.6997 31.6125Z" fill="#F5F5F5" stroke="black" stroke-width="0.16" stroke-linejoin="bevel"/>
<path id="Vector_15" d="M34.8203 28.2205C34.8203 27.4365 34.8523 27.1485 35.0923 27.1485V29.6125C34.5003 29.8365 34.0843 30.5725 34.0843 30.5725H30.3723C30.3723 30.5725 29.9563 29.8365 29.3643 29.6125V27.1325C29.6523 27.1325 29.6523 27.4525 29.6523 28.2045L34.8203 28.2205ZM35.0923 27.9005C35.0923 27.0045 35.8763 26.9085 35.8763 26.9085V27.7085C35.5723 27.6925 35.4283 27.9645 35.4283 28.3485C35.4283 28.7485 35.6683 28.7485 35.6683 28.7485V31.0205H35.0923V27.9005Z" fill="#F5F5F5" stroke="black" stroke-width="0.16"/>
<path id="Vector_16" d="M29.3641 27.9005C29.3641 27.0045 28.5801 26.9085 28.5801 26.9085V27.7085C28.8841 27.6925 29.0281 27.9645 29.0281 28.3485C29.0281 28.7485 28.7881 28.7485 28.7881 28.7485V31.0205H29.3641V27.9005Z" fill="#F5F5F5" stroke="black" stroke-width="0.16"/>
<g id="Group_3">
<path id="Vector_17" d="M29.7959 26.3165H34.6599M30.8839 21.7085H33.6359H30.8839ZM30.5639 22.5725H33.9239H30.5639ZM30.2439 23.6125H34.2279H30.2439ZM29.9079 24.8765H34.6279H29.9079Z" stroke="black" stroke-width="0.128"/>
<path id="Vector_18" d="M28.3242 31.0525H36.1002H28.3242ZM30.7882 31.0525H33.6682V32.1085H30.7882V31.0525Z" stroke="black" stroke-width="0.16"/>
</g>
<path id="Vector_19" d="M30.4355 28.6845C30.9155 29.2605 30.8515 30.2365 30.8515 30.8125H33.6355C33.6355 30.2365 33.5715 29.2605 34.0515 28.6845H30.4355ZM31.9875 22.1245L31.6035 21.9165V21.3565C31.7635 21.4045 31.9235 21.4205 31.9555 21.6765C32.0035 21.3085 32.1155 21.3405 32.2595 21.1965C32.4195 21.3405 32.4995 21.3085 32.5635 21.6765C32.5635 21.4205 32.7555 21.4045 32.8995 21.3565V21.9165L32.5315 22.1085L31.9875 22.1245Z" fill="#F5F5F5" stroke="black" stroke-width="0.16"/>
<path id="Vector_20" d="M31.9554 23.0365L31.3154 22.5885V22.0925C31.5554 22.1405 31.7954 22.1725 31.8274 22.4445C31.8914 22.0445 32.0354 21.8525 32.2594 21.6925C32.4674 21.8525 32.6114 22.0445 32.6914 22.4445C32.7074 22.1725 32.9634 22.1405 33.1714 22.0925V22.6045L32.5474 23.0365H31.9554Z" fill="#F5F5F5" stroke="black" stroke-width="0.16"/>
<path id="Vector_21" d="M31.9083 24.4605L31.1883 23.8205V23.0685C31.4443 23.1325 31.7323 23.1645 31.7643 23.5645C31.8443 23.0045 32.0043 22.7005 32.2443 22.4765C32.5003 22.7005 32.6603 23.0045 32.7563 23.5645C32.7883 23.1645 33.0763 23.1325 33.3323 23.0685V23.8205L32.5963 24.4605H31.9083ZM33.2523 25.3085L32.6123 26.2205H31.8603L31.2043 25.3085H33.2523ZM30.8203 26.8285C31.1403 27.0045 31.2683 27.3725 31.3003 28.0445H33.1563C33.1883 27.3725 33.3163 27.0045 33.6363 26.8285H30.8203Z" fill="#F5F5F5" stroke="black" stroke-width="0.16"/>
<path id="Vector_22" d="M33.6681 25.2925V24.3965C33.5303 24.4258 33.4023 24.4897 33.296 24.582C33.1896 24.6744 33.1085 24.7922 33.0601 24.9245C33.0601 24.6045 32.6601 23.9165 32.2281 23.5645C31.7961 23.9485 31.3801 24.5885 31.3961 24.9085C31.3161 24.6685 31.1081 24.4765 30.7881 24.3965V25.3085L33.6681 25.2925Z" fill="#F5F5F5" stroke="black" stroke-width="0.16" stroke-linejoin="bevel"/>
<path id="Vector_23" d="M33.7962 26.8285V25.9325C33.4602 26.0285 33.2362 26.2045 33.1402 26.4605C33.1402 26.1405 32.7082 25.4525 32.2282 25.1005C31.7482 25.5005 31.3002 26.1245 31.3162 26.4605C31.2362 26.2205 30.9962 26.0285 30.6602 25.9325V26.8445L33.7962 26.8285Z" fill="#F5F5F5" stroke="black" stroke-width="0.16" stroke-linejoin="bevel"/>
<path id="Vector_24" d="M34.1798 28.7005V27.6445C33.8466 27.7486 33.5588 27.963 33.3638 28.2525C33.3638 27.6925 32.7238 26.8125 32.2278 26.5405C31.7158 26.8285 31.0918 27.7245 31.0918 28.2525C30.8918 27.961 30.5983 27.7465 30.2598 27.6445V28.7005H34.1798Z" fill="#F5F5F5" stroke="black" stroke-width="0.16" stroke-linejoin="bevel"/>
<path id="Vector_25" d="M33.956 31.0525V29.9645C33.572 30.1085 33.476 30.4605 33.348 30.7165C33.396 29.6125 32.74 28.4445 32.228 28.1405C31.716 28.4445 31.044 29.6445 31.108 30.7005C30.98 30.4765 30.868 30.1085 30.5 29.9645V31.0365L33.956 31.0525Z" fill="#F5F5F5" stroke="black" stroke-width="0.16" stroke-linejoin="bevel"/>
<path id="Vector_26" d="M33.6999 32.6845V31.5965C33.2999 31.6925 33.2839 31.8365 33.1559 32.0765C33.2039 31.4205 32.7399 30.6685 32.2279 30.3805C31.7159 30.6685 31.2679 31.4205 31.2999 32.0765C31.1719 31.8365 31.1559 31.6925 30.7559 31.5965V32.6845H33.6999Z" fill="#F5F5F5" stroke="black" stroke-width="0.16"/>
<g id="a">
<path id="Vector_27" d="M16.8356 36.6845V33.4205C16.7236 33.0045 16.3556 32.6205 16.0996 32.5565V29.6765L16.6916 29.9965L17.3796 33.0205V36.7005L16.8356 36.6845Z" fill="#F5F5F5" stroke="black" stroke-width="0.16"/>
<path id="Vector_28" d="M16.8356 36.7005V33.4205C16.7236 33.0045 16.3556 32.6205 16.0996 32.5565V29.4845C16.4996 29.4845 16.6916 29.9965 16.6916 29.9965L17.3796 33.0205V36.6845L16.8356 36.7005Z" fill="#F5F5F5" stroke="black" stroke-width="0.16"/>
<path id="Vector_29" d="M16.4033 37.5325C16.6753 37.4205 17.0753 37.0685 17.0753 36.7325V32.6365L16.8833 32.3165H23.8753L23.6033 32.6365V36.7325C23.6151 36.9021 23.6716 37.0655 23.7672 37.2061C23.8628 37.3466 23.9939 37.4593 24.1473 37.5325H16.4033Z" fill="#F5F5F5" stroke="black" stroke-width="0.16"/>
<path id="Vector_30" d="M22.7239 37.5325C22.4519 37.4205 22.0519 37.0685 22.0519 36.7325V32.8445L22.6279 32.3005H17.8919L18.4679 32.8445V36.7325C18.4679 37.0685 18.0679 37.4205 17.7959 37.5325H22.7239Z" fill="#F5F5F5" stroke="black" stroke-width="0.16"/>
<path id="Vector_31" d="M22.0672 37.5325C21.7952 37.4205 21.3792 37.0685 21.3792 36.7325V33.2125L21.7632 32.6845H18.7552L19.1392 33.2125V36.7325C19.1392 37.0685 18.7392 37.4205 18.4512 37.5325H22.0672Z" fill="#F5F5F5" stroke="black" stroke-width="0.16"/>
<path id="Vector_32" d="M19.556 32.6845H20.98V37.5485H19.54L19.556 32.6845Z" fill="#F5F5F5" stroke="black" stroke-width="0.16"/>
<path id="Vector_33" d="M17.5878 34.0285H18.1638V36.6685H17.5878V34.0285ZM22.5158 34.0285H23.0758V36.6685H22.4998L22.5158 34.0285ZM17.0918 29.5805H17.7958V32.3005H17.0918V29.5805ZM17.0918 29.0685H17.7798V29.5805H17.0918V29.0685ZM22.7878 30.1725H23.7638V32.2525H22.7878V30.1725Z" fill="#F5F5F5" stroke="black" stroke-width="0.16" stroke-linejoin="bevel"/>
<path id="Vector_34" d="M17.7798 32.2685V27.6285C17.9718 27.6285 18.0038 28.3165 18.4518 28.3165C18.6918 28.3165 18.6758 28.0285 18.5318 27.8045C18.4198 27.5965 18.2758 27.3245 18.4678 26.7965C18.6118 27.1965 18.9638 27.3245 18.8998 27.0845C18.7878 26.6525 18.4518 26.5725 18.7078 25.9165C18.7878 26.4605 19.1398 26.4445 19.0598 26.1245C18.9638 25.7565 18.7558 25.5965 19.0118 25.0845C19.1558 25.6765 19.3318 25.6445 19.3318 25.2765C19.3318 24.7325 19.3318 24.1565 20.0038 23.9485C20.0038 23.9485 20.0518 23.4685 20.3078 23.4685C20.5478 23.4685 20.5958 23.9485 20.5958 23.9485C21.2838 24.1565 21.2678 24.7485 21.2678 25.2765C21.2678 25.6445 21.4438 25.6765 21.5878 25.0845C21.8438 25.5965 21.6358 25.7565 21.5398 26.1245C21.4598 26.4445 21.8118 26.4605 21.8918 25.9165C22.1478 26.5725 21.8118 26.6525 21.6998 27.0845C21.6358 27.3245 21.9878 27.1965 22.1318 26.7965C22.3238 27.3245 22.1798 27.5965 22.0678 27.8045C21.9398 28.0285 21.9078 28.3165 22.1478 28.3165C22.5958 28.3165 22.6278 27.6445 22.8198 27.6445V32.2685H17.7798ZM16.6758 28.7645V32.3005H17.0758V28.7645C16.9318 28.6845 16.8038 28.6845 16.6758 28.7645Z" fill="#F5F5F5" stroke="black" stroke-width="0.16"/>
<path id="Vector_35" d="M16.708 31.0525C17.204 31.3085 17.7 31.6125 17.828 32.3005H16.708V31.0525ZM23.62 29.9965V32.3005H23.94V29.9965C23.844 29.9485 23.7 29.9325 23.62 29.9965Z" fill="#F5F5F5" stroke="black" stroke-width="0.16"/>
<path id="Vector_36" d="M23.9397 31.0525C23.4437 31.2925 22.9477 31.5805 22.8197 32.2845H23.9397V31.0525ZM20.6437 25.6605L20.9317 25.4205V25.1005C20.8357 25.1005 20.7717 25.1485 20.6917 25.2605C20.6607 25.1578 20.6093 25.0623 20.5405 24.9799C20.4718 24.8974 20.3872 24.8296 20.2917 24.7805C20.1949 24.8261 20.1082 24.8907 20.0367 24.9704C19.9652 25.0501 19.9105 25.1433 19.8757 25.2445C19.7957 25.1325 19.7477 25.1165 19.6357 25.0845V25.4045L19.9237 25.6605H20.6437Z" fill="#F5F5F5" stroke="black" stroke-width="0.16"/>
<path id="Vector_37" d="M20.8037 26.4445L20.9317 26.1405V25.7405C20.8357 25.7405 20.7717 25.7885 20.6917 25.9005C20.6607 25.7977 20.6093 25.7023 20.5405 25.6198C20.4718 25.5374 20.3872 25.4696 20.2917 25.4205C20.1949 25.4661 20.1082 25.5306 20.0367 25.6103C19.9652 25.69 19.9105 25.7833 19.8757 25.8845C19.7957 25.7725 19.7477 25.7565 19.6357 25.7405V26.1405L19.7637 26.4445H20.8037Z" fill="#F5F5F5" stroke="black" stroke-width="0.16"/>
<path id="Vector_38" d="M20.8354 27.5005L21.2514 26.9725V26.4605C21.0914 26.4605 21.0114 26.5405 20.8994 26.7165C20.7874 26.3485 20.5794 26.2845 20.2914 26.1085C19.9874 26.2685 19.7794 26.3485 19.6834 26.7005C19.5554 26.5245 19.4754 26.4765 19.3154 26.4605V26.9725L19.7474 27.5005H20.8354Z" fill="#F5F5F5" stroke="black" stroke-width="0.16"/>
<path id="Vector_39" d="M20.9478 28.5405C20.9478 28.5405 21.4598 28.1085 21.4758 27.8685V27.3085C21.2838 27.3245 21.1078 27.3725 20.9638 27.6125C20.8358 27.1485 20.6438 27.0205 20.2918 26.8125C19.9238 27.0205 19.7318 27.1485 19.6198 27.6125C19.4598 27.3725 19.2998 27.3245 19.0918 27.2925V27.8685C19.2262 28.1223 19.405 28.3499 19.6198 28.5405H20.9478Z" fill="#F5F5F5" stroke="black" stroke-width="0.16"/>
<path id="Vector_40" d="M21.156 30.4605C21.156 30.4605 21.86 29.7085 21.876 29.4045V28.5405C21.62 28.5725 21.364 28.7485 21.172 29.1165C21.012 28.3965 20.756 27.9005 20.292 27.5485C19.812 27.9005 19.556 28.3965 19.396 29.1165C19.204 28.7485 18.964 28.5725 18.708 28.5405V29.4045C18.756 29.7085 19.412 30.4605 19.412 30.4605H21.156Z" fill="#F5F5F5" stroke="black" stroke-width="0.16"/>
<path id="Vector_41" d="M21.156 31.5965C21.156 31.5965 21.748 31.0045 21.876 30.7485V29.8845C21.62 29.9165 21.364 30.0925 21.172 30.4445C21.1292 30.1534 21.0295 29.8735 20.8785 29.621C20.7275 29.3684 20.5282 29.148 20.292 28.9725C19.812 29.3245 19.556 29.7245 19.396 30.4445C19.204 30.0925 18.964 29.9165 18.708 29.8845V30.7485C18.868 31.0045 19.412 31.5965 19.412 31.5965H21.156Z" fill="#F5F5F5" stroke="black" stroke-width="0.16"/>
<path id="Vector_42" d="M21.3954 32.2685C21.2354 31.5165 21.0754 30.9565 20.2594 30.3965C19.4274 30.9565 19.2834 31.5165 19.1074 32.2685H21.3954Z" fill="#F5F5F5" stroke="black" stroke-width="0.16"/>
<path id="Vector_43" d="M21.828 32.6845V31.5965C21.444 31.7565 21.108 31.9645 20.98 32.2045C20.852 31.5965 20.58 31.3405 20.244 30.9725C19.908 31.3405 19.684 31.6125 19.54 32.2045C19.412 31.9645 19.076 31.7405 18.708 31.5965V32.6845H21.828Z" fill="#F5F5F5" stroke="black" stroke-width="0.16"/>
</g>
<g id="Group_4">
<path id="Vector_44" d="M47.6683 36.6845V33.4205C47.7803 33.0045 48.1483 32.6205 48.4043 32.5565V29.6765L47.8123 29.9965L47.1243 33.0205V36.7005L47.6683 36.6845Z" fill="#F5F5F5" stroke="black" stroke-width="0.16"/>
<path id="Vector_45" d="M47.6683 36.7005V33.4205C47.7803 33.0045 48.1483 32.6205 48.4043 32.5565V29.4845C48.0043 29.4845 47.8123 29.9965 47.8123 29.9965L47.1243 33.0205V36.6845L47.6683 36.7005Z" fill="#F5F5F5" stroke="black" stroke-width="0.16"/>
<path id="Vector_46" d="M48.1006 37.5325C47.8286 37.4205 47.4286 37.0685 47.4286 36.7325V32.6365L47.6206 32.3165H40.6286L40.9006 32.6365V36.7325C40.8889 36.9021 40.8323 37.0655 40.7367 37.2061C40.6411 37.3466 40.51 37.4593 40.3566 37.5325H48.1006Z" fill="#F5F5F5" stroke="black" stroke-width="0.16"/>
<path id="Vector_47" d="M41.78 37.5325C42.052 37.4205 42.452 37.0685 42.452 36.7325V32.8445L41.876 32.3005H46.612L46.036 32.8445V36.7325C46.036 37.0685 46.436 37.4205 46.708 37.5325H41.78Z" fill="#F5F5F5" stroke="black" stroke-width="0.16"/>
<path id="Vector_48" d="M42.4367 37.5325C42.7087 37.4205 43.1247 37.0685 43.1247 36.7325V33.2125L42.7407 32.6845H45.7487L45.3647 33.2125V36.7325C45.3647 37.0685 45.7647 37.4205 46.0527 37.5325H42.4367Z" fill="#F5F5F5" stroke="black" stroke-width="0.16"/>
<path id="Vector_49" d="M44.9479 32.6845H43.5239V37.5485H44.9639L44.9479 32.6845Z" fill="#F5F5F5" stroke="black" stroke-width="0.16"/>
<path id="Vector_50" d="M46.9161 34.0285H46.3401V36.6685H46.9161V34.0285ZM41.9881 34.0285H41.4281V36.6685H42.0041L41.9881 34.0285ZM47.4121 29.5805H46.7081V32.3005H47.4121V29.5805ZM47.4121 29.0685H46.7241V29.5805H47.4121V29.0685ZM41.7161 30.1725H40.7401V32.2525H41.7161V30.1725Z" fill="#F5F5F5" stroke="black" stroke-width="0.16" stroke-linejoin="bevel"/>
<path id="Vector_51" d="M46.7241 32.2685V27.6285C46.5321 27.6285 46.5001 28.3165 46.0521 28.3165C45.8121 28.3165 45.8281 28.0285 45.9721 27.8045C46.0841 27.5965 46.2281 27.3245 46.0361 26.7965C45.8921 27.1965 45.5401 27.3245 45.6041 27.0845C45.7161 26.6525 46.0521 26.5725 45.7961 25.9165C45.7161 26.4605 45.3641 26.4445 45.4441 26.1245C45.5401 25.7565 45.7481 25.5965 45.4921 25.0845C45.3481 25.6765 45.1721 25.6445 45.1721 25.2765C45.1721 24.7325 45.1721 24.1565 44.5001 23.9485C44.5001 23.9485 44.4521 23.4685 44.1961 23.4685C43.9561 23.4685 43.9081 23.9485 43.9081 23.9485C43.2201 24.1565 43.2361 24.7485 43.2361 25.2765C43.2361 25.6445 43.0601 25.6765 42.9161 25.0845C42.6601 25.5965 42.8681 25.7565 42.9641 26.1245C43.0441 26.4445 42.6921 26.4605 42.6121 25.9165C42.3561 26.5725 42.6921 26.6525 42.8041 27.0845C42.8681 27.3245 42.5161 27.1965 42.3721 26.7965C42.1801 27.3245 42.3241 27.5965 42.4361 27.8045C42.5641 28.0285 42.5961 28.3165 42.3561 28.3165C41.9081 28.3165 41.8761 27.6445 41.6841 27.6445V32.2685H46.7241ZM47.8281 28.7645V32.3005H47.4281V28.7645C47.5721 28.6845 47.7001 28.6845 47.8281 28.7645Z" fill="#F5F5F5" stroke="black" stroke-width="0.16"/>
<path id="Vector_52" d="M47.7959 31.0525C47.2999 31.3085 46.8039 31.6125 46.6759 32.3005H47.7959V31.0525ZM40.8839 29.9965V32.3005H40.5639V29.9965C40.6599 29.9485 40.8039 29.9325 40.8839 29.9965Z" fill="#F5F5F5" stroke="black" stroke-width="0.16"/>
<path id="Vector_53" d="M40.5642 31.0525C41.0602 31.2925 41.5562 31.5805 41.6842 32.2845H40.5642V31.0525ZM43.8602 25.6605L43.5722 25.4205V25.1005C43.6682 25.1005 43.7322 25.1485 43.8122 25.2605C43.8432 25.1578 43.8946 25.0623 43.9634 24.9799C44.0321 24.8974 44.1167 24.8296 44.2122 24.7805C44.309 24.8261 44.3957 24.8907 44.4672 24.9704C44.5387 25.0501 44.5934 25.1433 44.6282 25.2445C44.7082 25.1325 44.7562 25.1165 44.8682 25.0845V25.4045L44.5802 25.6605H43.8602Z" fill="#F5F5F5" stroke="black" stroke-width="0.16"/>
<path id="Vector_54" d="M43.7002 26.4445L43.5722 26.1405V25.7405C43.6682 25.7405 43.7322 25.7885 43.8122 25.9005C43.8432 25.7977 43.8946 25.7023 43.9634 25.6198C44.0321 25.5374 44.1167 25.4696 44.2122 25.4205C44.309 25.4661 44.3957 25.5306 44.4672 25.6103C44.5387 25.69 44.5934 25.7833 44.6282 25.8845C44.7082 25.7725 44.7562 25.7565 44.8682 25.7405V26.1405L44.7402 26.4445H43.7002Z" fill="#F5F5F5" stroke="black" stroke-width="0.16"/>
<path id="Vector_55" d="M43.6685 27.5005L43.2525 26.9725V26.4605C43.4125 26.4605 43.4925 26.5405 43.6045 26.7165C43.7165 26.3485 43.9245 26.2845 44.2125 26.1085C44.5165 26.2685 44.7245 26.3485 44.8205 26.7005C44.9485 26.5245 45.0285 26.4765 45.1885 26.4605V26.9725L44.7565 27.5005H43.6685Z" fill="#F5F5F5" stroke="black" stroke-width="0.16"/>
<path id="Vector_56" d="M43.5561 28.5405C43.5561 28.5405 43.0441 28.1085 43.0281 27.8685V27.3085C43.2201 27.3245 43.3961 27.3725 43.5401 27.6125C43.6681 27.1485 43.8601 27.0205 44.2121 26.8125C44.5801 27.0205 44.7721 27.1485 44.8841 27.6125C45.0441 27.3725 45.2041 27.3245 45.4121 27.2925V27.8685C45.2777 28.1223 45.0989 28.3499 44.8841 28.5405H43.5561Z" fill="#F5F5F5" stroke="black" stroke-width="0.16"/>
<path id="Vector_57" d="M43.3479 30.4605C43.3479 30.4605 42.6439 29.7085 42.6279 29.4045V28.5405C42.8839 28.5725 43.1399 28.7485 43.3319 29.1165C43.4919 28.3965 43.7479 27.9005 44.2119 27.5485C44.6919 27.9005 44.9479 28.3965 45.1079 29.1165C45.2999 28.7485 45.5399 28.5725 45.7959 28.5405V29.4045C45.7479 29.7085 45.0919 30.4605 45.0919 30.4605H43.3479Z" fill="#F5F5F5" stroke="black" stroke-width="0.16"/>
<path id="Vector_58" d="M43.3479 31.5965C43.3479 31.5965 42.7559 31.0045 42.6279 30.7485V29.8845C42.8839 29.9165 43.1399 30.0925 43.3319 30.4445C43.3747 30.1534 43.4745 29.8735 43.6254 29.621C43.7764 29.3684 43.9757 29.148 44.2119 28.9725C44.6919 29.3245 44.9479 29.7245 45.1079 30.4445C45.2999 30.0925 45.5399 29.9165 45.7959 29.8845V30.7485C45.6359 31.0045 45.0919 31.5965 45.0919 31.5965H43.3479Z" fill="#F5F5F5" stroke="black" stroke-width="0.16"/>
<path id="Vector_59" d="M43.1085 32.2685C43.2685 31.5165 43.4285 30.9565 44.2445 30.3965C45.0765 30.9565 45.2205 31.5165 45.3965 32.2685H43.1085Z" fill="#F5F5F5" stroke="black" stroke-width="0.16"/>
<path id="Vector_60" d="M42.6759 32.6845V31.5965C43.0599 31.7565 43.3959 31.9645 43.5239 32.2045C43.6519 31.5965 43.9239 31.3405 44.2599 30.9725C44.5959 31.3405 44.8199 31.6125 44.9639 32.2045C45.0919 31.9645 45.4279 31.7405 45.7959 31.5965V32.6845H42.6759Z" fill="#F5F5F5" stroke="black" stroke-width="0.16"/>
</g>
<path id="Vector_61" d="M12.6279 41.5005H51.8759V43.5005H12.6279V41.5005ZM11.5879 43.5005H52.9159V45.5005H11.5879V43.5005ZM14.6919 38.4925H49.7959V39.7885H14.6919V38.4925Z" fill="#F5F5F5" stroke="black" stroke-width="0.16"/>
<path id="Vector_62" d="M13.668 39.7885H50.852V41.4845H13.668V39.7885ZM15.3 37.5005H49.22V38.4925H15.3V37.5005Z" fill="#F5F5F5" stroke="black" stroke-width="0.16"/>
<path id="Vector_63" d="M18.9795 37.5005H21.5395V45.5005H18.9795V37.5005Z" fill="#F5F5F5" stroke="black" stroke-width="0.16"/>
<path id="Vector_64" d="M19.556 37.5005H20.98V45.5005H19.54L19.556 37.5005ZM30.916 37.5005H33.476V45.5005H30.916V37.5005Z" fill="#F5F5F5" stroke="black" stroke-width="0.16"/>
<path id="Vector_65" d="M31.5078 37.5005H32.9478V45.5005H31.5078V37.5005ZM42.9478 37.5005H45.5078V45.5005H42.9478V37.5005Z" fill="#F5F5F5" stroke="black" stroke-width="0.16"/>
<path id="Vector_66" d="M43.5078 37.5005H44.9478V45.5005H43.5078V37.5005Z" fill="#F5F5F5" stroke="black" stroke-width="0.16"/>
<path id="Vector_67" d="M43.4919 38.4925H44.9639M16.8359 36.6845H47.7159H16.8359ZM19.5239 44.4925H20.9959H19.5239ZM19.5239 43.4845H20.9959H19.5239ZM19.5239 42.4925H20.9959H19.5239ZM19.5239 41.4845H20.9959H19.5239ZM19.5239 40.4925H20.9959H19.5239ZM19.5239 39.4845H20.9959H19.5239ZM19.5239 38.4925H20.9959H19.5239ZM31.5239 44.4925H32.8999H31.5239ZM31.5239 43.4845H32.8999H31.5239ZM31.5239 42.4925H32.8999H31.5239ZM31.5239 41.4845H32.8999H31.5239ZM31.5239 40.4925H32.8999H31.5239ZM31.5239 39.4845H32.8999H31.5239ZM31.5239 38.4925H32.8999H31.5239ZM43.4919 44.4925H44.9639H43.4919ZM43.4919 43.4845H44.9639H43.4919ZM43.4919 42.4925H44.9639H43.4919ZM43.4919 41.4845H44.9639H43.4919ZM43.4919 40.4925H44.9639H43.4919ZM43.4919 39.4845H44.9639H43.4919Z" stroke="black" stroke-width="0.16"/>
</g>
</g>
</g>
<defs>
<clipPath id="clip0_2909_185466">
<path d="M0.246094 32C0.246094 14.3269 14.573 0 32.2461 0V0C49.9192 0 64.2461 14.3269 64.2461 32V32C64.2461 49.6731 49.9192 64 32.2461 64V64C14.573 64 0.246094 49.6731 0.246094 32V32Z" fill="white"/>
</clipPath>
</defs>
</svg>
