<svg width="65" height="64" viewBox="0 0 65 64" fill="none" xmlns="http://www.w3.org/2000/svg">
<g id="Rounded=Kiribati (KI)">
<g clip-path="url(#clip0_2909_185364)">
<g id="Group">
<path id="Vector" fill-rule="evenodd" clip-rule="evenodd" d="M-20.2959 0.00494385H84.1725V38.2988H-20.2959V0.00494385Z" fill="#E73E2D"/>
<path id="Vector_2" fill-rule="evenodd" clip-rule="evenodd" d="M25.7818 35.2529C23.3478 33.3656 18.8181 34.0034 18.0762 28.8489C21.5385 31.5303 20.9137 28.6927 26.0942 31.2569L25.7818 35.2529V35.2529Z" fill="#FEC74A" stroke="#D8AA3F" stroke-width="0.20826"/>
<path id="Vector_3" fill-rule="evenodd" clip-rule="evenodd" d="M26.4329 32.91C24.6887 30.3588 20.1851 29.5909 21.0572 24.4495C23.5303 28.068 23.8036 25.1784 27.9558 29.2004L26.4199 32.91H26.4329Z" fill="#FEC74A" stroke="#D8AA3F" stroke-width="0.20826"/>
<path id="Vector_4" fill-rule="evenodd" clip-rule="evenodd" d="M27.2139 31.2439C26.5892 28.2372 22.7233 25.7901 25.4958 21.3776C26.4069 25.673 27.7476 23.0958 30.0515 28.4064L27.2139 31.2439Z" fill="#FEC74A" stroke="#D8AA3F" stroke-width="0.20826"/>
<path id="Vector_5" fill-rule="evenodd" clip-rule="evenodd" d="M29.0363 29.708C29.3618 26.6362 26.4331 23.1348 30.4161 19.7766C29.9605 24.1371 32.0431 22.1196 32.6028 27.8467L29.0233 29.708H29.0363Z" fill="#FEC74A" stroke="#D8AA3F" stroke-width="0.20826"/>
<path id="Vector_6" fill-rule="evenodd" clip-rule="evenodd" d="M30.6504 28.4585C32.2123 25.8031 30.9628 21.4037 35.974 19.9719C33.7743 23.7596 36.4947 22.7573 34.6594 28.2372L30.6504 28.4585V28.4585Z" fill="#FEC74A" stroke="#D8AA3F" stroke-width="0.20826"/>
<path id="Vector_7" fill-rule="evenodd" clip-rule="evenodd" d="M33.0059 28.7839C35.3228 26.7533 35.544 22.1977 40.7505 22.432C37.4574 25.3216 40.36 25.2435 36.8847 29.8512L33.0059 28.7839V28.7839Z" fill="#FEC74A" stroke="#D8AA3F" stroke-width="0.20826"/>
<path id="Vector_8" fill-rule="evenodd" clip-rule="evenodd" d="M35.0752 29.9684C37.8867 28.7188 39.4356 24.4234 44.3428 26.1806C40.3468 27.9769 43.1453 28.7578 38.4594 32.1291L35.0752 29.9814V29.9684Z" fill="#FEC74A" stroke="#D8AA3F" stroke-width="0.20826"/>
<path id="Vector_9" fill-rule="evenodd" clip-rule="evenodd" d="M36.7939 31.8687C39.8528 31.4522 42.5471 27.7556 46.7644 30.8274C42.417 31.4262 44.8901 32.9621 39.4493 34.8885L36.7939 31.8687V31.8687Z" fill="#FEC74A" stroke="#D8AA3F" stroke-width="0.20826"/>
<path id="Vector_10" fill-rule="evenodd" clip-rule="evenodd" d="M47.6754 32.4414L33.6699 32.7538L34.2557 36.5285L47.6754 32.4545V32.4414Z" fill="#FEC74A" stroke="#D8AA3F" stroke-width="0.20826"/>
<path id="Vector_11" fill-rule="evenodd" clip-rule="evenodd" d="M45.6188 27.3L32.6416 32.2852L34.8153 36.4504L45.6188 27.3Z" fill="#FEC74A" stroke="#D8AA3F" stroke-width="0.20826"/>
<path id="Vector_12" fill-rule="evenodd" clip-rule="evenodd" d="M35.3099 35.0837L42.0263 22.8875L31.7305 32.4675L35.3099 35.0707V35.0837Z" fill="#FEC74A" stroke="#D8AA3F" stroke-width="0.20826"/>
<path id="Vector_13" fill-rule="evenodd" clip-rule="evenodd" d="M35.1882 34.0739L37.3485 20.3907L30.6196 32.5621L35.1882 34.0739Z" fill="#FEC74A" stroke="#D8AA3F" stroke-width="0.215798"/>
<path id="Vector_14" fill-rule="evenodd" clip-rule="evenodd" d="M34.3723 32.9621L32.1075 19.1779L29.6084 33.0272L34.3723 32.9621V32.9621Z" fill="#FEC74A" stroke="#D8AA3F" stroke-width="0.20826"/>
<path id="Vector_15" fill-rule="evenodd" clip-rule="evenodd" d="M33.1921 31.7935L26.6515 20.292L29.1628 34.2727L33.1921 31.7935V31.7935Z" fill="#FEC74A" stroke="#D8AA3F" stroke-width="0.21601"/>
<path id="Vector_16" fill-rule="evenodd" clip-rule="evenodd" d="M32.1856 31.6995L22.0459 23.1348L29.2569 35.3831L32.1856 31.6995V31.6995Z" fill="#FEC74A" stroke="#D8AA3F" stroke-width="0.20826"/>
<path id="Vector_17" fill-rule="evenodd" clip-rule="evenodd" d="M18.4925 27.3651L29.3611 36.3463L31.0402 31.6474L18.4795 27.3521L18.4925 27.3651Z" fill="#FEC74A" stroke="#D8AA3F" stroke-width="0.20826"/>
<path id="Vector_18" fill-rule="evenodd" clip-rule="evenodd" d="M29.2569 32.6106L16.4619 32.4284L29.2048 36.6717L29.2439 32.6106H29.2569Z" fill="#FEC74A" stroke="#D8AA3F" stroke-width="0.20826"/>
<path id="Vector_19" fill-rule="evenodd" clip-rule="evenodd" d="M39.631 34.9145C39.6736 35.9487 39.5067 36.9809 39.1403 37.949C38.7739 38.9171 38.2155 39.8011 37.4988 40.548C36.7821 41.2948 35.9218 41.8891 34.9696 42.295C34.0174 42.7009 32.993 42.9102 31.9579 42.9102C30.9228 42.9102 29.8984 42.7009 28.9462 42.295C27.994 41.8891 27.1337 41.2948 26.417 40.548C25.7003 39.8011 25.1419 38.9171 24.7755 37.949C24.4091 36.9809 24.2422 35.9487 24.2848 34.9145C24.2848 32.8778 25.0939 30.9244 26.5341 29.4842C27.9743 28.044 29.9277 27.2349 31.9644 27.2349C34.0012 27.2349 35.9545 28.044 37.3947 29.4842C38.8349 30.9244 39.644 32.8778 39.644 34.9145H39.631Z" fill="#FEC74A" stroke="#D8AA3F" stroke-width="0.20826"/>
<path id="Vector_20" fill-rule="evenodd" clip-rule="evenodd" d="M-20.3994 37.9213H84.5896V63.9928H-20.3994V37.9213Z" fill="#005989"/>
<path id="Vector_21" fill-rule="evenodd" clip-rule="evenodd" d="M-20.4518 56.7428C-18.4994 57.6539 -15.7139 59.9057 -12.7202 59.9057C-7.70893 59.8797 -7.57877 56.4825 -2.50243 56.6517C2.57391 56.7818 1.66277 60.3483 8.52233 60.3222C14.1844 60.3222 16.0197 55.9878 20.9138 56.5085C24.5323 56.3263 26.0162 60.5956 31.5871 60.6477C37.3533 60.7778 39.462 55.9878 43.0805 56.3913C46.9463 56.3913 48.2089 60.2441 53.6236 60.2702C60.5223 60.3092 61.7197 56.2612 66.0281 56.5215C69.1 56.4564 71.521 59.4892 76.0246 59.5543C79.6041 59.6194 82.6108 56.912 84.6414 55.9358L84.7455 51.328C82.6108 52.122 79.4479 54.7122 76.2719 54.7513C71.7162 54.9205 68.8917 51.7576 65.7157 51.7836C61.915 51.8226 60.4051 55.6885 53.9621 55.6885C48.0657 55.6885 46.712 51.7836 42.9113 51.7836C39.2016 51.8096 38.0692 56.0399 31.6392 55.9488C26.3936 55.8967 24.3501 51.9137 20.6274 51.9528C16.6965 51.9528 12.6225 55.8186 8.26201 55.6234C2.2485 55.3631 0.946875 51.9528 -2.99705 51.9528C-5.93872 51.9528 -9.11469 55.1548 -12.6551 55.2069C-16.1695 55.2719 -20.1395 52.0179 -20.5039 51.9528L-20.4518 56.7428V56.7428ZM-20.4518 47.6314C-18.4994 48.5425 -15.7139 50.7944 -12.7202 50.7944C-7.70893 50.7553 -7.57877 47.3581 -2.50243 47.5273C2.57391 47.6574 1.66277 51.2239 8.52233 51.2109C14.1844 51.1979 16.0197 46.8765 20.9138 47.3971C24.5323 47.2019 26.0162 51.4842 31.5871 51.5363C37.3533 51.6664 39.462 46.8765 43.0805 47.2669C46.9463 47.2669 48.2089 51.1198 53.6236 51.1588C60.5223 51.1848 61.7197 47.1498 66.0281 47.3971C69.1 47.332 71.521 50.3648 76.0246 50.4429C79.6041 50.508 82.6108 47.7876 84.6414 46.8244L84.7455 42.2166C82.6108 42.9976 79.4479 45.6009 76.2719 45.6269C71.7162 45.7961 68.8917 42.6332 65.7157 42.6592C61.915 42.6982 60.4051 46.5641 53.9621 46.5641C48.0657 46.5641 46.712 42.6592 42.9113 42.6592C39.2016 42.6982 38.0692 46.9155 31.6392 46.8374C26.3936 46.7723 24.3501 42.8024 20.6274 42.8414C16.6965 42.8414 12.6225 46.6942 8.26201 46.512C2.2485 46.2517 0.946875 42.8414 -2.99705 42.8414C-5.93872 42.8414 -9.11469 46.0434 -12.6551 46.0955C-16.1695 46.1476 -20.1395 42.9065 -20.5039 42.8414L-20.4518 47.6314V47.6314Z" fill="#F5F5F5"/>
<path id="Vector_22" fill-rule="evenodd" clip-rule="evenodd" d="M-20.4518 38.6111C-18.4994 39.5223 -15.7139 41.7741 -12.7202 41.7741C-7.72195 41.735 -7.59179 38.3508 -2.52847 38.507C2.54787 38.6372 1.63673 42.2036 8.4963 42.1906C14.1584 42.1906 15.9937 37.8562 20.8617 38.3769C24.4933 38.1946 25.9641 42.464 31.5351 42.516C37.2882 42.6462 39.4099 37.8562 43.0284 38.2597C46.8812 38.2597 48.1438 42.1125 53.5455 42.1385C60.4441 42.1646 61.6416 38.1295 65.95 38.3899C69.0218 38.3248 71.4299 41.3446 75.9335 41.4227C79.5129 41.4877 82.5197 38.7673 84.5372 37.8041L84.6414 33.1964C82.5197 33.9904 79.3437 36.5806 76.1808 36.6066C71.6251 36.7759 68.8006 33.6129 65.6376 33.6519C61.8369 33.678 60.327 37.5568 53.884 37.5568C48.0006 37.5568 46.6469 33.6519 42.8592 33.6519C39.1496 33.678 38.0041 37.8952 31.5871 37.8171C26.3416 37.7651 24.298 33.7821 20.5884 33.8212C16.6575 33.8212 12.5964 37.674 8.23597 37.4917C2.22247 37.2314 0.920841 33.8212 -3.01007 33.8212C-5.95174 33.8212 -9.1277 37.0232 -12.6681 37.0752C-16.1825 37.1273 -20.1395 33.8862 -20.5039 33.8212L-20.4649 38.6111H-20.4518Z" fill="#F5F5F5"/>
<path id="Vector_23" fill-rule="evenodd" clip-rule="evenodd" d="M17.3477 9.49378C24.9752 8.97313 23.5824 8.32232 26.6543 7.8277C30.5201 8.34835 30.9627 10.6913 33.1233 12.1361C33.1233 12.1361 32.3163 14.8695 29.661 14.492C29.3096 13.3987 30.9496 13.0602 26.2247 10.1706C23.4783 10.0144 18.5712 10.6522 17.3477 9.49378V9.49378ZM40.9982 13.7371L35.5053 13.9584V15.3251C39.215 15.4422 39.8788 14.9346 40.9982 13.7371Z" fill="#FFC84B" stroke="#D8AA3F" stroke-width="0.221276"/>
<path id="Vector_24" fill-rule="evenodd" clip-rule="evenodd" d="M22.098 13.5028C23.0612 13.0082 23.5298 13.2164 24.3628 13.1774C24.9355 14.2187 25.4692 14.3098 26.7187 14.44C27.2718 15.2588 28.0131 15.9331 28.8805 16.4064C29.7479 16.8798 30.7161 17.1383 31.704 17.1604C35.4396 17.0562 36.6241 14.44 39.1362 14.1536H41.7916C41.349 13.3987 41.0106 12.9691 40.0474 12.9301C37.7816 12.7741 35.5051 12.923 33.2789 13.3726L30.155 14.1536C29.2439 13.7111 26.9921 11.3551 25.5603 11.4072C24.7142 11.6285 24.7142 11.9278 24.2977 12.2402C23.4907 12.5917 22.6837 12.4225 22.085 13.5028H22.098Z" fill="#FFC84B" stroke="#D8AA3F" stroke-width="0.20826" stroke-linejoin="round"/>
<path id="Vector_25" fill-rule="evenodd" clip-rule="evenodd" d="M25.8728 12.3574C25.8728 12.4609 25.8316 12.5603 25.7584 12.6335C25.6852 12.7067 25.5858 12.7479 25.4823 12.7479C25.3787 12.7479 25.2794 12.7067 25.2062 12.6335C25.1329 12.5603 25.0918 12.4609 25.0918 12.3574C25.0918 12.2538 25.1329 12.1545 25.2062 12.0813C25.2794 12.008 25.3787 11.9669 25.4823 11.9669C25.5858 11.9669 25.6852 12.008 25.7584 12.0813C25.8316 12.1545 25.8728 12.2538 25.8728 12.3574V12.3574Z" fill="#FFC84B" stroke="#D8AA3F" stroke-width="0.20826"/>
<path id="Vector_26" fill-rule="evenodd" clip-rule="evenodd" d="M28.4374 13.4767C34.0474 6.7083 38.9545 7.52832 45.3585 7.07275C45.5667 7.85373 45.4886 9.02519 42.4428 10.0665C38.2776 10.6913 30.7933 15.0908 30.7673 15.0908C29.3745 15.0257 28.3983 13.5679 28.4243 13.4767H28.4374Z" fill="#FFC84B" stroke="#D8AA3F" stroke-width="0.221276"/>
<path id="Vector_27" d="M39.5273 9.74108L42.5471 9.98839M39.9699 9.06424L44.1091 9.24647L39.9699 9.06424Z" stroke="#D9A43E" stroke-width="0.221276" stroke-linecap="round"/>
</g>
</g>
</g>
<defs>
<clipPath id="clip0_2909_185364">
<path d="M0.246094 32C0.246094 14.3269 14.573 0 32.2461 0V0C49.9192 0 64.2461 14.3269 64.2461 32V32C64.2461 49.6731 49.9192 64 32.2461 64V64C14.573 64 0.246094 49.6731 0.246094 32V32Z" fill="white"/>
</clipPath>
</defs>
</svg>
