<svg width="65" height="64" viewBox="0 0 65 64" fill="none" xmlns="http://www.w3.org/2000/svg">
<g id="Rounded=Saint Kitts and Nevis (KN)">
<g clip-path="url(#clip0_2909_185363)">
<g id="Group">
<path id="Vector" fill-rule="evenodd" clip-rule="evenodd" d="M-13.2344 0.0249939H78.9712V63.929H-13.2344V0.0249939Z" fill="#FFE900"/>
<path id="Vector_2" fill-rule="evenodd" clip-rule="evenodd" d="M-13.2773 0.0249881L-13.1743 46.0977L58.5717 -0.0093689L-13.2773 0.0249881Z" fill="#35A100"/>
<path id="Vector_3" fill-rule="evenodd" clip-rule="evenodd" d="M79.0831 63.929L78.9199 16.0268L6.54688 63.972L79.0831 63.9376V63.929Z" fill="#C70000"/>
<path id="Vector_4" fill-rule="evenodd" clip-rule="evenodd" d="M-13.2346 49.5764L-13.1745 63.9977L2.48375 63.972L78.9538 12.7027L78.868 0.162422L63.3987 0.0249939L-13.2432 49.5764H-13.2346Z" fill="black"/>
<path id="Vector_5" fill-rule="evenodd" clip-rule="evenodd" d="M57.4811 23.1301L51.9668 22.9411L49.7937 28.1118L48.5654 22.8294L43.0511 22.6405L47.8096 19.5741L46.5727 14.2831L50.7385 17.6673L55.4883 14.5838L53.3067 19.7545L57.4811 23.1301ZM23.0811 45.5137L17.5582 45.3161L15.3937 50.4868L14.1655 45.2044L8.64258 45.0155L13.401 41.9405L12.1642 36.6667L16.33 40.0509L21.0798 36.9674L18.9067 42.1295L23.0811 45.5137Z" fill="#F5F5F5"/>
</g>
</g>
</g>
<defs>
<clipPath id="clip0_2909_185363">
<path d="M0.246094 32C0.246094 14.3269 14.573 0 32.2461 0V0C49.9192 0 64.2461 14.3269 64.2461 32V32C64.2461 49.6731 49.9192 64 32.2461 64V64C14.573 64 0.246094 49.6731 0.246094 32V32Z" fill="white"/>
</clipPath>
</defs>
</svg>
