<svg width="65" height="64" viewBox="0 0 65 64" fill="none" xmlns="http://www.w3.org/2000/svg">
<g id="Rounded=North Korea (KP)">
<g clip-path="url(#clip0_2909_185516)">
<g id="Group">
<path id="Vector" fill-rule="evenodd" clip-rule="evenodd" d="M97.2423 63.939H-9.23828V0.0698242H97.2423V63.939Z" fill="#F5F5F5" stroke="black" stroke-width="0.13114"/>
<path id="Vector_2" fill-rule="evenodd" clip-rule="evenodd" d="M97.2423 52.378H-9.23828V63.9522H97.2423V52.378Z" fill="#3E5698"/>
<path id="Vector_3" fill-rule="evenodd" clip-rule="evenodd" d="M97.2423 49.7019H-9.23828V14.3069H97.2423V49.7019Z" fill="#C60000"/>
<path id="Vector_4" fill-rule="evenodd" clip-rule="evenodd" d="M97.2423 0.0698242H-9.23828V11.6177H97.2423V0.0698242Z" fill="#3E5698"/>
<path id="Vector_5" fill-rule="evenodd" clip-rule="evenodd" d="M41.307 32.011C41.307 39.9337 34.6763 46.3668 26.4929 46.3668C18.2988 46.3668 11.6572 39.9337 11.6572 31.9978C11.6572 24.0752 18.2988 17.6421 26.4929 17.6421C34.687 17.6421 41.307 24.0751 41.307 32.011Z" fill="#F5F5F5"/>
<path id="Vector_6" fill-rule="evenodd" clip-rule="evenodd" d="M33.7481 42.0429L26.6214 36.9545L19.3868 42.0956L22.2224 33.817L15.0957 28.7418L23.9799 28.7022L26.8047 20.3972L29.4462 28.6759L38.3304 28.6231L31.085 33.7643L33.7481 42.0429Z" fill="#C40000"/>
</g>
</g>
</g>
<defs>
<clipPath id="clip0_2909_185516">
<path d="M0.246094 32C0.246094 14.3269 14.573 0 32.2461 0V0C49.9192 0 64.2461 14.3269 64.2461 32V32C64.2461 49.6731 49.9192 64 32.2461 64V64C14.573 64 0.246094 49.6731 0.246094 32V32Z" fill="white"/>
</clipPath>
</defs>
</svg>
