<svg width="65" height="64" viewBox="0 0 65 64" fill="none" xmlns="http://www.w3.org/2000/svg">
<g id="Rounded=Cayman Islands (KY)">
<g clip-path="url(#clip0_2909_185361)">
<path id="Vector" d="M0.246094 0H64.2461V64H0.246094V0Z" fill="#000066"/>
<path id="Vector_2" d="M0.246094 -0.0625H32.2461V31.9375H0.246094V-0.0625Z" fill="#012169"/>
<path id="Vector_3" d="M32.2461 -0.0625V3.9375L20.3711 15.9375L32.2461 27.625V31.9375H28.0586L16.1211 20.1875L4.49609 31.9375H0.246094V27.6875L11.8711 16L0.246094 4.5625V-0.0625H4.12109L16.1211 11.6875L27.7461 -0.0625H32.2461Z" fill="#F5F5F5"/>
<path id="Vector_4" d="M11.7461 20.1875L12.4336 22.3125L2.87109 31.9375H0.246094V31.75L11.7461 20.1875ZM19.4961 19.4375L22.8711 19.9375L32.2461 29.125V31.9375L19.4961 19.4375ZM32.2461 -0.0625L20.2461 12.1875L19.9961 9.4375L29.3711 -0.0625H32.2461ZM0.246094 0L12.3086 11.8125L8.62109 11.3125L0.246094 3V0Z" fill="#C8102E"/>
<path id="Vector_5" d="M11.2461 -0.0625V31.9375H21.2461V-0.0625H11.2461ZM0.246094 10.9375V20.9375H32.2461V10.9375H0.246094Z" fill="#F5F5F5"/>
<path id="Vector_6" d="M0.246094 12.9375V18.9375H32.2461V12.9375H0.246094ZM13.2461 -0.0625V31.9375H19.2461V-0.0625H13.2461Z" fill="#C8102E"/>
<g id="Group">
<path id="Vector_7" d="M56.2856 25.9225V34.4197C56.2856 41.7887 52.8012 44.3179 48.1342 46.3194C43.4671 44.3179 39.9463 41.7887 39.9463 34.4197V25.9134H56.2856V25.9225Z" fill="#F5F5F5" stroke="#F5F5F5" stroke-width="0.873372" stroke-linejoin="round"/>
<g id="Group_2">
<path id="Vector_8" d="M34.879 45.6279C35.1429 46.3194 37.017 47.2382 39.2004 46.0646C40.6833 45.2276 41.6386 44.0632 42.5574 41.9707C42.8122 41.443 42.9486 40.788 42.3391 40.3968C41.8569 40.042 41.0654 39.6508 40.7197 39.3051C40.5469 39.1231 40.374 38.9958 40.2466 38.8684C40.3376 38.9594 40.4195 39.0413 40.5014 39.1686C41.3747 40.2149 40.465 41.7433 39.5006 42.6621C38.8001 43.3171 37.5446 44.9274 35.7069 43.399C35.3157 43.0533 34.3969 44.4907 34.8881 45.6279H34.879ZM61.3895 45.6279C61.0802 46.3194 59.2061 47.2382 57.0681 46.0646C55.5943 45.2276 54.63 44.0632 53.6747 41.9707C53.4564 41.443 53.3199 40.788 53.9295 40.3968C54.4116 40.042 55.2031 39.6508 55.5488 39.3051C55.7217 39.1231 55.8491 38.9958 56.0219 38.8684C55.9309 38.9594 55.8491 39.0413 55.7672 39.1686C54.8938 40.2149 55.8036 41.7433 56.7224 42.6621C57.423 43.3171 58.7239 44.9274 60.5616 43.399C60.9528 43.0533 61.8262 44.4907 61.3804 45.6279H61.3895Z" fill="#FCEA83" stroke="#F5F5F5" stroke-width="0.873372" stroke-linejoin="round"/>
<path id="Vector_9" d="M48.1341 49.3762C51.6185 49.3762 56.9861 47.8023 59.87 42.3073C60.3431 41.3976 59.87 40.9154 59.2969 40.6152C58.649 40.2889 58.0589 39.8586 57.5501 39.3415C58.2507 40.042 58.1142 40.5242 57.6411 41.3066C55.4122 45.0184 52.3645 46.8925 48.1341 46.8925C43.9037 46.8925 40.856 45.0184 38.6271 41.3066C38.154 40.5242 38.0175 40.042 38.6726 39.3506C38.1714 39.8741 37.5796 40.3025 36.9258 40.6152C36.3618 40.9154 35.8796 41.3976 36.3618 42.3073C39.2366 47.8023 44.6406 49.3762 48.1341 49.3762V49.3762Z" fill="#FCEA83" stroke="#F5F5F5" stroke-width="0.873372" stroke-linejoin="round"/>
</g>
<g id="Group_3">
<path id="Vector_10" d="M40.0642 42.0071C39.9732 41.5704 39.4183 41.7432 39.2454 42.2709C39.01 41.9692 38.8029 41.6463 38.6268 41.3066C38.1082 40.5242 38.0172 39.9965 38.7632 39.2596C39.109 38.9139 39.8095 38.5136 40.2826 38.9503C41.2833 39.7782 40.7647 41.1337 40.0642 42.0071V42.0071ZM56.1579 42.0071C56.2489 41.5704 56.8584 41.7432 57.0313 42.2709C57.2496 41.9616 57.468 41.6614 57.6408 41.3066C58.1594 40.5242 58.2504 39.9965 57.4589 39.2596C57.1586 38.9139 56.4581 38.5136 55.9396 38.9503C54.9752 39.7782 55.4574 41.1337 56.1579 42.0071ZM34.8786 45.6279C34.4419 44.9729 34.0962 43.2625 34.0052 42.835C33.8778 42.4438 33.8323 42.089 34.3145 41.9252C34.7967 41.7432 35.2243 42.3528 35.4426 42.8804C35.661 43.399 36.0158 44.1814 36.407 45.1458C35.4426 44.5817 34.6602 44.9638 34.8786 45.6279ZM61.389 45.6279C61.7802 44.9729 62.126 43.2625 62.2624 42.835C62.3534 42.4438 62.4353 42.089 61.9531 41.9252C61.4709 41.7432 61.0433 42.3528 60.825 42.8804C60.6066 43.399 60.2518 44.1814 59.8606 45.1458C60.825 44.5817 61.5619 44.9638 61.389 45.6279V45.6279Z" fill="#C8102E" stroke="#F5F5F5" stroke-width="0.873372" stroke-linejoin="round"/>
</g>
<g id="Group_4">
<path id="Vector_11" d="M44.7763 25.877C44.2123 26.0044 43.8211 26.0498 43.2934 25.5677C42.9477 25.222 43.0296 24.6124 43.3844 24.385C43.7756 24.1303 44.1213 23.9574 44.6035 24.0848C45.0857 24.2212 46.3502 25.3948 46.0409 25.4403C45.7316 25.4403 45.2585 25.7405 44.7763 25.877ZM46.1228 23.7845C46.3047 23.6481 46.5231 23.5662 47.0871 23.5116C47.6148 23.4752 47.9969 23.4752 48.1334 23.8755C48.3153 24.3486 48.4427 24.9126 48.7884 25.1765C48.5701 25.3038 47.4783 25.4403 47.0871 25.222C46.5686 24.9581 46.4321 23.9483 46.1319 23.7845H46.1228ZM49.8801 23.83C50.053 23.6936 50.2713 23.6936 50.8354 23.7391C51.3994 23.7845 51.6178 23.83 51.7451 24.2212C51.8816 24.6579 51.7451 25.222 52.0181 25.6132C51.7451 25.7041 50.8809 25.7041 50.5715 25.3948C50.0985 25.0491 50.1348 24.0393 49.8801 23.8209V23.83Z" fill="#F5F5F5" stroke="#F5F5F5" stroke-width="0.873372" stroke-linejoin="round"/>
<path id="Vector_12" d="M52.4909 24.0848C52.0997 23.9938 51.8359 23.9574 51.6721 24.0848C51.8814 24.3486 51.7085 25.3948 52.1452 25.7405C52.4454 25.9589 53.2369 26.0135 53.4098 25.5222C53.6281 25.0855 53.6281 24.4305 52.5 24.0848H52.4909ZM48.0058 23.6481C48.1331 23.5207 48.397 23.4752 48.9155 23.4752C49.4887 23.4752 49.8253 23.5662 50.0073 23.9119C50.1892 24.3486 50.1346 24.9126 50.4439 25.2675C50.3166 25.4403 49.1339 25.4403 48.7882 25.1765C48.306 24.8672 48.2605 23.8664 48.0058 23.6481V23.6481ZM44.303 24.0393C44.303 23.8209 44.6033 23.7845 45.3948 23.7391C46.1681 23.6481 46.2135 23.6936 46.4774 24.2576C46.6047 24.5669 46.7776 25.0855 47.1324 25.2584C46.1681 25.4858 45.8587 25.6132 45.3402 25.3038C44.9614 25.067 44.6485 24.7384 44.4304 24.3486C44.3849 24.2212 44.3849 24.0848 44.2939 24.0393H44.303Z" fill="#073163" stroke="#F5F5F5" stroke-width="0.873372" stroke-linejoin="round"/>
</g>
<g id="Group_5">
<path id="Vector_13" d="M44.3856 20.1637C44.0762 20.1637 43.8215 20.0363 43.6395 19.818C43.3393 19.4177 42.5114 19.2448 42.1566 19.5996C42.0293 19.6906 41.8564 19.6906 41.729 19.727C41.5107 19.727 41.2469 19.9453 41.3287 20.382C41.5107 20.2455 41.5471 20.382 41.6836 20.382C41.7745 20.3365 41.729 20.4275 41.729 20.5094C41.729 20.7277 42.2021 21.1644 42.6388 21.1189C43.121 21.1189 43.3393 21.3009 43.4212 21.3918C43.5577 21.5101 43.4667 21.4737 43.5577 21.6921C43.685 21.8194 43.7305 21.8649 43.5122 22.0378C43.4128 22.1206 43.3329 22.2242 43.2781 22.3414C43.2233 22.4585 43.1948 22.5862 43.1948 22.7155C43.1948 22.8449 43.2233 22.9726 43.2781 23.0897C43.3329 23.2069 43.4128 23.3105 43.5122 23.3933C44.0762 23.8209 45.5137 24.485 47.133 23.2114C48.6978 21.9923 51.136 22.6928 51.3179 23.1204C51.5363 23.5662 51.6182 23.8209 51.6637 24.0393C51.7091 24.2212 51.9275 24.3941 52.2368 24.3486C52.537 24.3486 52.8827 24.4759 53.0556 24.6124C53.283 24.7398 53.5832 24.7034 53.5014 24.3031C53.3194 23.084 52.5825 22.9111 52.5006 22.3471C52.9282 22.3835 53.2284 22.3835 53.4104 22.2106C53.5378 22.0378 53.7106 21.7285 53.8926 21.6466C54.0199 21.5556 54.0199 21.4646 53.8471 21.5101C53.6287 21.5556 53.5014 21.6466 53.1011 21.6011C51.0996 21.3827 45.4773 19.8543 44.3856 20.1637V20.1637Z" fill="#059334" stroke="#F5F5F5" stroke-width="0.873372" stroke-linejoin="round"/>
<path id="Vector_14" d="M53.2833 21.6466C52.9508 21.8812 52.6666 22.1778 52.4463 22.52C52.0187 23.084 50.7087 23.6481 49.0893 23.6481C47.5245 23.6481 46.5692 23.3933 45.8687 22.8293C45.5696 22.5901 45.2464 22.3828 44.9044 22.2107C44.4313 21.9923 44.3403 21.5101 44.4677 21.1189C44.3403 21.3373 44.2584 21.5556 43.9946 21.5101C43.8127 21.5101 43.467 21.5101 43.5579 21.6921C43.5124 21.6011 43.5124 21.4737 43.467 21.4192L43.376 21.3373C43.5124 21.4283 43.8218 21.1644 44.0401 21.1644C44.213 21.2099 44.4313 20.9916 44.3858 20.7277L44.2584 20.1637C44.6042 19.9817 49.1803 20.8187 50.0991 20.9006C51.0089 20.9461 53.629 21.3373 53.2833 21.6466V21.6466Z" fill="black" stroke="#F5F5F5" stroke-width="0.873372" stroke-linejoin="round"/>
<path id="Vector_15" d="M44.9947 19.9908C45.4314 19.5541 45.95 19.3358 46.4776 19.4632H46.605C46.8779 19.2448 47.4784 19.1993 47.8332 19.3722H48.006C48.5246 19.1993 49.5253 19.3722 49.8801 19.727L50.0075 19.818C51.1902 19.727 51.8816 20.2456 52.7095 21.0825C52.8005 21.1735 52.9279 21.3373 53.1462 21.3828C53.41 21.4282 53.4555 21.5647 53.2372 21.6921C52.8874 21.9084 52.5793 22.1857 52.3274 22.5109C51.9271 23.0385 50.6625 23.5662 49.0886 23.5662C47.5693 23.5662 46.6505 23.2933 45.95 22.7747C45.5588 22.4745 45.2585 22.3016 45.0402 22.1652C44.7764 22.0742 44.4307 21.7285 44.558 21.3828C44.649 21.0371 44.4307 20.6004 44.2578 20.1637C44.3852 20.0727 44.7309 19.9453 44.9037 20.0363L44.9947 19.9908Z" fill="#059334" stroke="#F5F5F5" stroke-width="0.873372" stroke-linejoin="round"/>
<g id="Group_6">
<path id="Vector_16" d="M52.7099 21.0825C51.8911 20.2456 51.1906 19.727 50.0079 19.8089C50.0079 19.8544 50.0079 19.9908 49.9624 20.0818C50.7867 20.4517 51.5173 21.002 52.1004 21.6921C52.2823 21.5101 52.5825 21.3009 52.7099 21.0825ZM49.8805 19.727C49.5257 19.3813 48.525 19.1993 48.0064 19.3813C48.0064 19.5541 48.0064 19.818 47.9155 19.9908C48.2248 20.1182 48.4795 20.4275 48.7433 20.7277C48.9253 20.6822 49.3529 20.5549 49.5712 20.5094C49.7015 20.2602 49.8052 19.9979 49.8805 19.727V19.727ZM47.8336 19.3722C47.4788 19.1993 46.8692 19.2448 46.6054 19.4632C46.5144 19.6451 46.478 19.9908 46.478 20.1637C46.66 20.1637 46.9147 20.291 46.9966 20.382C47.2695 20.291 47.6152 20.1182 47.7426 19.9908C47.7881 19.8089 47.87 19.5541 47.8336 19.3813V19.3722ZM44.9951 19.9908C45.4318 19.5541 45.9504 19.3358 46.478 19.4632C46.3871 19.5996 46.3507 19.8544 46.3507 20.1182C45.8685 20.0727 45.2589 20.2092 44.9951 20.382V19.9908Z" fill="#00493D" stroke="#F5F5F5" stroke-width="0.873372" stroke-linejoin="round"/>
<path id="Vector_17" d="M51.9277 21.774C51.3796 21.125 50.6965 20.6034 49.9262 20.2456C49.9262 20.291 49.8352 20.4639 49.7897 20.6004C50.0536 20.9916 50.5721 21.8649 50.7905 22.3471C51.0088 22.2561 51.6183 21.9923 51.9277 21.774V21.774ZM48.6161 22.7383C48.6915 22.1437 48.7341 21.5454 48.7435 20.9461C48.9618 20.9006 49.3985 20.7732 49.5714 20.7277C49.7897 21.0825 50.3174 22.0014 50.5357 22.429C50.0081 22.5564 49.1347 22.7747 48.6161 22.7383ZM47.0877 20.6459C47.3061 20.5549 47.6154 20.3729 47.8246 20.2092C48.0066 20.3365 48.3523 20.6459 48.4797 20.8187C48.4797 21.2099 48.3523 22.3471 48.3068 22.7292C47.9611 22.7292 47.397 22.6473 47.0877 22.4745C47.1332 21.8194 47.1787 21.0825 47.0877 20.6459V20.6459ZM44.9043 21.1644C44.9498 21.0734 44.9953 20.7732 44.9953 20.6459C45.341 20.4275 46.2144 20.2092 46.8694 20.5549C46.9149 20.9916 46.8694 22.0833 46.8239 22.3471C46.2404 21.8726 45.5983 21.4751 44.9134 21.1644H44.9043Z" fill="#00493D" stroke="#F5F5F5" stroke-width="0.873372" stroke-linejoin="round"/>
</g>
<g id="Group_7">
<path id="Vector_18" d="M42.7298 20.3729C42.6388 20.3729 42.5933 20.1182 42.4205 20.1182C42.375 20.1182 42.2476 20.1637 42.2021 20.1182C42.2021 20.2091 42.2476 20.3001 42.2931 20.3365C42.3386 20.4639 42.557 20.382 42.7298 20.382V20.3729Z" fill="black"/>
<path id="Vector_19" d="M41.7295 20.2455V20.4639M42.7302 21.1189C43.2488 21.1189 43.3398 20.4639 43.6036 20.4275L42.7302 21.1189ZM43.0305 21.1644C43.4216 21.3464 43.731 20.4275 44.0312 20.4639L43.0305 21.1644ZM42.2481 20.0363C42.3754 20.0363 42.4664 19.8543 42.6847 20.0727C42.7757 20.1637 42.9031 20.2091 42.9941 20.2091L42.2481 20.0363ZM42.9031 20.6822C42.7211 20.9552 42.4209 21.1189 42.2481 21.037L42.9031 20.6822ZM42.1571 19.5996C42.0297 19.6906 41.9478 19.8543 41.8569 19.9908L42.1571 19.5996Z" stroke="#F5F5F5" stroke-width="0.873372" stroke-linejoin="round"/>
</g>
</g>
<g id="Group_8">
<g id="Vector_20">
<path d="M46.3971 19.5996C45.4782 18.8991 44.3865 18.2441 43.3857 18.1167C44.4299 18.8129 45.4212 19.5852 46.3516 20.4275" fill="black"/>
<path d="M46.3971 19.5996C45.4782 18.8991 44.3865 18.2441 43.3857 18.1167C44.4299 18.8129 45.4212 19.5852 46.3516 20.4275" stroke="#F5F5F5" stroke-width="0.873372" stroke-linejoin="round"/>
</g>
<g id="Vector_21">
<path d="M46.9152 18.9446C45.8235 18.1986 44.5589 17.3707 43.3398 17.2888C44.4807 17.9499 45.4968 18.8059 46.3421 19.818L46.9152 18.9446ZM48.3071 17.7255C48.7997 16.606 49.5291 15.6066 50.4451 14.7961C50.0084 15.7149 49.5353 17.5891 49.3079 18.3351" fill="black"/>
<path d="M48.3071 17.7255C48.7997 16.606 49.5291 15.6066 50.4451 14.7961C50.0084 15.7149 49.5353 17.5891 49.3079 18.3351M46.9152 18.9446C45.8235 18.1986 44.5589 17.3707 43.3398 17.2888C44.4807 17.9499 45.4968 18.8059 46.3421 19.818L46.9152 18.9446Z" stroke="#F5F5F5" stroke-width="0.873372" stroke-linejoin="round"/>
</g>
<g id="Vector_22">
<path d="M49.2715 17.5072C49.6931 16.482 50.4857 15.6536 51.4913 15.1873C50.7359 16.1298 50.1732 17.2117 49.8355 18.3715" fill="black"/>
<path d="M49.2715 17.5072C49.6931 16.482 50.4857 15.6536 51.4913 15.1873C50.7359 16.1298 50.1732 17.2117 49.8355 18.3715" stroke="#F5F5F5" stroke-width="0.873372" stroke-linejoin="round"/>
</g>
<g id="Vector_23">
<path d="M49.6631 18.3715C50.4984 17.0929 51.6956 16.092 53.102 15.4966C52.0103 16.5883 50.4 18.5898 50.0088 19.3813L49.6631 18.3715ZM50.2726 19.3358C51.055 18.8991 52.6289 18.1986 53.757 18.426C53.0656 18.6808 50.9731 19.636 50.0543 20.5185" fill="black"/>
<path d="M50.2726 19.3358C51.055 18.8991 52.6289 18.1986 53.757 18.426C53.0656 18.6808 50.9731 19.636 50.0543 20.5185M49.6631 18.3715C50.4984 17.0929 51.6956 16.092 53.102 15.4966C52.0103 16.5883 50.4 18.5898 50.0088 19.3813L49.6631 18.3715Z" stroke="#F5F5F5" stroke-width="0.873372" stroke-linejoin="round"/>
</g>
<g id="Vector_24">
<path d="M50.0992 19.0265C50.8361 18.2441 52.1917 17.0705 53.6291 16.5883C52.5829 17.5891 50.354 19.8635 50.0537 20.2092L50.0992 19.0265ZM48.0068 18.5534C47.4791 16.934 46.6967 15.4147 45.5231 14.9326C46.4579 16.269 47.1081 17.7832 47.4336 19.3813L48.0068 18.5534ZM46.9969 18.5079C46.1327 17.4617 44.95 16.4155 43.6035 16.1971C44.9229 17.0605 45.9653 18.2861 46.6057 19.727" fill="black"/>
<path d="M46.9969 18.5079C46.1327 17.4617 44.95 16.4155 43.6035 16.1971C44.9229 17.0605 45.9653 18.2861 46.6057 19.727M50.0992 19.0265C50.8361 18.2441 52.1917 17.0705 53.6291 16.5883C52.5829 17.5891 50.354 19.8635 50.0537 20.2092L50.0992 19.0265ZM48.0068 18.5534C47.4791 16.934 46.6967 15.4147 45.5231 14.9326C46.4579 16.269 47.1081 17.7832 47.4336 19.3813L48.0068 18.5534Z" stroke="#F5F5F5" stroke-width="0.873372" stroke-linejoin="round"/>
</g>
<g id="Vector_25">
<path d="M47.4887 18.4624C46.397 16.4973 45.56 16.1516 45.0869 15.7604C45.4781 16.4973 46.4334 18.4624 46.9974 19.2903" fill="black"/>
<path d="M47.4887 18.4624C46.397 16.4973 45.56 16.1516 45.0869 15.7604C45.4781 16.4973 46.4334 18.4624 46.9974 19.2903" stroke="#F5F5F5" stroke-width="0.873372" stroke-linejoin="round"/>
</g>
<path id="Vector_26" d="M45.3047 18.3351C45.9269 18.7263 46.46 19.244 46.8695 19.8544" stroke="#F5F5F5" stroke-width="0.873372" stroke-linejoin="round"/>
<g id="Vector_27">
<path d="M45.3047 19.2448C45.5594 19.4632 46.0416 19.727 46.4783 20.1182L45.3047 19.2448ZM50.4903 19.8999C50.927 19.5541 51.8823 18.9901 52.3644 18.8081L50.4903 19.8999ZM50.181 19.5996C50.6177 19.0265 51.4911 18.2441 51.8004 17.9803L50.181 19.5996ZM51.4001 16.8885C50.8138 17.5455 50.2612 18.2318 49.7443 18.9446L51.4001 16.8885ZM50.272 16.4973C49.8591 17.1081 49.4941 17.7499 49.1803 18.4169L50.272 16.4973ZM46.824 16.5883C47.0878 17.2888 47.57 18.4624 47.7338 18.9446L46.824 16.5883ZM46.4328 17.3252C46.6147 17.5982 46.9605 18.1986 47.0878 18.6353Z" fill="black"/>
<path d="M46.4328 17.3252C46.6147 17.5982 46.9605 18.1986 47.0878 18.6353M45.3047 19.2448C45.5594 19.4632 46.0416 19.727 46.4783 20.1182L45.3047 19.2448ZM50.4903 19.8999C50.927 19.5541 51.8823 18.9901 52.3644 18.8081L50.4903 19.8999ZM50.181 19.5996C50.6177 19.0265 51.4911 18.2441 51.8004 17.9803L50.181 19.5996ZM51.4001 16.8885C50.8138 17.5455 50.2612 18.2318 49.7443 18.9446L51.4001 16.8885ZM50.272 16.4973C49.8591 17.1081 49.4941 17.7499 49.1803 18.4169L50.272 16.4973ZM46.824 16.5883C47.0878 17.2888 47.57 18.4624 47.7338 18.9446L46.824 16.5883Z" stroke="#F5F5F5" stroke-width="0.873372" stroke-linejoin="round"/>
</g>
</g>
<g id="Group_9">
<path id="Vector_28" d="M47.915 17.1069C47.915 16.7157 48.1789 16.2881 48.4427 16.2881C48.7429 16.2881 48.9613 16.8067 48.9613 17.1069C48.9613 17.4617 48.6974 17.7619 48.4427 17.7619C48.1698 17.7619 47.915 17.5072 47.915 17.1069Z" fill="black" stroke="#F5F5F5" stroke-width="0.873372" stroke-linejoin="round"/>
<path id="Vector_29" d="M47.3508 17.4617C47.3963 17.025 47.6965 16.6793 47.9603 16.7157C48.2242 16.7612 48.3515 17.2888 48.306 17.589C48.2606 17.9348 47.9603 18.1986 47.742 18.1531C47.5236 18.1531 47.3053 17.8529 47.3508 17.4617ZM48.5244 17.589C48.4334 17.1978 48.6154 16.7703 48.8792 16.7157C49.1339 16.6793 49.3978 17.1069 49.4432 17.4617C49.5342 17.8074 49.3068 18.1531 49.0884 18.1531C48.8792 18.1986 48.5699 17.9802 48.5244 17.589Z" fill="black" stroke="#F5F5F5" stroke-width="0.873372" stroke-linejoin="round"/>
<path id="Vector_30" d="M47.8701 17.9348C47.8701 17.5072 48.1339 17.116 48.3978 17.116C48.698 17.116 48.9163 17.589 48.9163 17.9348C48.9163 18.2896 48.6616 18.5898 48.3978 18.5898C48.1339 18.5898 47.8701 18.335 47.8701 17.9348Z" fill="black" stroke="#F5F5F5" stroke-width="0.873372" stroke-linejoin="round"/>
<path id="Vector_31" d="M47.0879 18.1531C47.0879 17.7619 47.3972 17.3343 47.6519 17.3343C47.9249 17.3343 48.1796 17.8529 48.1796 18.1531C48.1796 18.5079 47.8703 18.8081 47.6519 18.8081C47.3972 18.8081 47.0879 18.5534 47.0879 18.1531ZM48.6982 17.9803C48.6982 17.5891 48.9711 17.1615 49.2258 17.1615C49.5261 17.1615 49.7444 17.68 49.7444 17.9803C49.7444 18.3351 49.4897 18.6353 49.2258 18.6353C48.962 18.6353 48.6982 18.3715 48.6982 17.9803Z" fill="black" stroke="#F5F5F5" stroke-width="0.873372" stroke-linejoin="round"/>
<path id="Vector_32" d="M48.5244 18.3351C48.5244 17.8984 48.8337 17.5072 49.0885 17.5072C49.3614 17.5072 49.6161 17.9802 49.6161 18.326C49.6161 18.6808 49.3523 18.9901 49.0885 18.9901C48.8337 18.9901 48.5244 18.7172 48.5244 18.3351V18.3351Z" fill="black" stroke="#F5F5F5" stroke-width="0.873372" stroke-linejoin="round"/>
<path id="Vector_33" d="M47.8339 18.7262C47.8339 18.2896 48.0886 17.8984 48.3525 17.8984C48.6618 17.8984 48.8801 18.4169 48.8801 18.7171C48.8801 19.0811 48.6072 19.3813 48.3525 19.3813C48.0886 19.3813 47.8248 19.1083 47.8248 18.7262H47.8339ZM46.7422 18.7262C46.7422 18.2896 46.9605 17.8984 47.1789 17.8984C47.3972 17.8984 47.5701 18.4169 47.5701 18.7171C47.5701 19.0811 47.3517 19.3813 47.1789 19.3813C46.9605 19.3813 46.7422 19.1083 46.7422 18.7262V18.7262ZM49.1803 18.6444C49.1803 18.2441 49.3987 17.8529 49.617 17.8529C49.8354 17.8529 50.0537 18.335 50.0537 18.6353C50.0537 19.0265 49.7899 19.2903 49.617 19.2903C49.3987 19.2903 49.1803 19.0265 49.1803 18.6353V18.6444Z" fill="black" stroke="#F5F5F5" stroke-width="0.873372" stroke-linejoin="round"/>
<path id="Vector_34" d="M49.4432 19.3722C49.5342 18.9446 49.7889 18.5898 49.9618 18.6444C50.1437 18.6808 50.1801 19.1993 50.0982 19.5087C50.0528 19.8999 49.7889 20.1182 49.6161 20.0727C49.4341 20.0363 49.3522 19.727 49.4341 19.3813L49.4432 19.3722Z" fill="black" stroke="#F5F5F5" stroke-width="0.873372" stroke-linejoin="round"/>
<path id="Vector_35" d="M48.6158 19.2448C48.6613 18.8536 48.916 18.4624 49.1344 18.5079C49.3982 18.5079 49.5256 19.0265 49.4892 19.3267C49.4437 19.727 49.2163 19.9908 49.007 19.9453C48.7887 19.9453 48.5703 19.636 48.6158 19.2448V19.2448ZM47.3967 19.3722C47.2603 18.9446 46.9964 18.6444 46.8236 18.6808C46.6507 18.7263 46.6052 19.2448 46.6962 19.5541C46.7872 19.8999 47.0419 20.1182 47.2148 20.0727C47.3513 20.0363 47.4877 19.727 47.3967 19.3813V19.3722Z" fill="black" stroke="#F5F5F5" stroke-width="0.873372" stroke-linejoin="round"/>
<path id="Vector_36" d="M47.0879 19.2903C47.0879 18.8991 47.3062 18.5079 47.5246 18.5079C47.7884 18.5079 47.9613 18.9901 47.9613 19.2903C47.9613 19.6815 47.7429 19.9453 47.5246 19.9453C47.3426 19.9453 47.0879 19.6815 47.0879 19.2903Z" fill="black" stroke="#F5F5F5" stroke-width="0.873372" stroke-linejoin="round"/>
<path id="Vector_37" d="M47.7429 19.4632C47.7429 19.0265 48.0068 18.6444 48.2615 18.6444C48.5708 18.6444 48.7892 19.1175 48.7892 19.4632C48.7892 19.818 48.5253 20.1182 48.2615 20.1182C48.0068 20.1182 47.7429 19.8544 47.7429 19.4632ZM47.9613 14.6687C47.8703 15.0144 47.5701 15.3237 47.7793 15.8059C47.3972 15.6695 47.0515 15.624 46.7422 15.9788C47.1334 15.9333 47.4791 16.0698 47.652 16.3245C47.3062 16.279 47.1334 16.4609 47.0424 16.6793C47.3517 16.5883 47.652 16.4973 47.7884 16.5428C47.652 16.6793 47.4336 16.8885 47.3972 17.0705C47.652 16.8521 47.9613 16.8885 48.1341 16.7612C48.0068 17.0705 48.2615 17.3707 48.4798 17.6709C48.4434 17.2433 48.6982 16.9431 48.5708 16.7157C48.962 16.8067 49.0075 17.1524 49.5716 17.1524C49.3532 17.025 49.2258 16.5883 48.962 16.5883C49.0894 16.5428 49.617 16.4973 49.708 16.5883C49.617 16.4064 49.3077 16.2426 49.1349 16.2426C49.3168 16.0607 49.617 15.7149 49.8354 15.624C49.5261 15.6695 49.053 15.7149 48.8801 15.9788C49.3077 15.624 49.2258 14.978 49.6989 14.8871C49.4442 14.8416 49.053 15.0144 48.7437 15.3237C48.8801 15.0599 48.8801 14.7142 49.053 14.6232C48.6982 14.7142 48.307 15.1509 48.1796 15.3692C48.1608 15.1222 48.0861 14.8827 47.9613 14.6687V14.6687Z" fill="black" stroke="#F5F5F5" stroke-width="0.873372" stroke-linejoin="round"/>
<g id="Vector_38">
<path d="M48.1793 15.3692C48.1793 15.4966 48.1793 15.7604 48.1338 15.8423L48.1793 15.3692ZM48.7433 15.3238C48.6524 15.4147 48.4795 15.715 48.4795 15.9788Z" fill="black"/>
<path d="M48.7433 15.3238C48.6524 15.4147 48.4795 15.715 48.4795 15.9788M48.1793 15.3692C48.1793 15.4966 48.1793 15.7604 48.1338 15.8423L48.1793 15.3692Z" stroke="#F5F5F5" stroke-width="0.873372" stroke-linejoin="round"/>
</g>
<path id="Vector_39" d="M49.0066 15.8423C48.8566 15.9319 48.7461 16.0749 48.6973 16.2426" stroke="#F5F5F5" stroke-width="0.873372" stroke-linejoin="round"/>
</g>
</g>
<g id="Group_10">
<g id="b">
<path id="Vector_40" d="M34.879 45.6279C35.1429 46.3194 37.017 47.2382 39.2004 46.0646C40.6833 45.2276 41.6386 44.0632 42.5574 41.9707C42.8122 41.443 42.9486 40.788 42.3391 40.3968C41.8569 40.042 41.0654 39.6508 40.7197 39.3051C40.5469 39.1231 40.374 38.9958 40.2466 38.8684C40.3376 38.9594 40.4195 39.0413 40.5014 39.1686C41.3747 40.2149 40.465 41.7433 39.5006 42.6621C38.8001 43.3171 37.5446 44.9274 35.7069 43.399C35.3157 43.0533 34.3969 44.4907 34.8881 45.6279H34.879ZM61.3895 45.6279C61.0802 46.3194 59.2061 47.2382 57.0681 46.0646C55.5943 45.2276 54.63 44.0632 53.6747 41.9707C53.4564 41.443 53.3199 40.788 53.9295 40.3968C54.4116 40.042 55.2031 39.6508 55.5488 39.3051C55.7217 39.1231 55.8491 38.9958 56.0219 38.8684C55.9309 38.9594 55.8491 39.0413 55.7672 39.1686C54.8938 40.2149 55.8036 41.7433 56.7224 42.6621C57.423 43.3171 58.7239 44.9274 60.5616 43.399C60.9528 43.0533 61.8262 44.4907 61.3804 45.6279H61.3895Z" fill="#FCEA83" stroke="black" stroke-width="0.127367"/>
<path id="Vector_41" d="M48.1341 49.3762C51.6185 49.3762 56.9861 47.8023 59.87 42.3073C60.3431 41.3976 59.87 40.9154 59.2969 40.6152C58.649 40.2889 58.0589 39.8586 57.5501 39.3415C58.2507 40.042 58.1142 40.5242 57.6411 41.3066C55.4122 45.0184 52.3645 46.8925 48.1341 46.8925C43.9037 46.8925 40.856 45.0184 38.6271 41.3066C38.154 40.5242 38.0175 40.042 38.6726 39.3506C38.1714 39.8741 37.5796 40.3025 36.9258 40.6152C36.3618 40.9154 35.8796 41.3976 36.3618 42.3073C39.2366 47.8023 44.6406 49.3762 48.1341 49.3762V49.3762Z" fill="#FCEA83" stroke="black" stroke-width="0.127367"/>
</g>
<g id="c">
<path id="Vector_42" d="M40.0642 42.0071C39.9732 41.5704 39.4183 41.7432 39.2454 42.2709C39.01 41.9692 38.8029 41.6463 38.6268 41.3066C38.1082 40.5242 38.0172 39.9965 38.7632 39.2596C39.109 38.9139 39.8095 38.5136 40.2826 38.9503C41.2833 39.7782 40.7647 41.1337 40.0642 42.0071V42.0071ZM56.1579 42.0071C56.2489 41.5704 56.8584 41.7432 57.0313 42.2709C57.2496 41.9616 57.468 41.6614 57.6408 41.3066C58.1594 40.5242 58.2504 39.9965 57.4589 39.2596C57.1586 38.9139 56.4581 38.5136 55.9396 38.9503C54.9752 39.7782 55.4574 41.1337 56.1579 42.0071ZM34.8786 45.6279C34.4419 44.9729 34.0962 43.2625 34.0052 42.835C33.8778 42.4438 33.8323 42.089 34.3145 41.9252C34.7967 41.7432 35.2243 42.3528 35.4426 42.8804C35.661 43.399 36.0158 44.1814 36.407 45.1458C35.4426 44.5817 34.6602 44.9638 34.8786 45.6279ZM61.389 45.6279C61.7802 44.9729 62.126 43.2625 62.2624 42.835C62.3534 42.4438 62.4353 42.089 61.9531 41.9252C61.4709 41.7432 61.0433 42.3528 60.825 42.8804C60.6066 43.399 60.2518 44.1814 59.8606 45.1458C60.825 44.5817 61.5619 44.9638 61.389 45.6279V45.6279Z" fill="#C8102E" stroke="black" stroke-width="0.127367"/>
</g>
<g id="Group_11">
<path id="Vector_43" d="M37.408 41.6978L37.0623 41.8797C36.9713 41.9161 36.9713 42.0071 36.9713 42.0526H36.9258L36.7529 41.6614H36.7984C36.7984 41.6978 36.8439 41.7524 36.9258 41.6978L37.6718 41.3066C37.7628 41.2611 37.7628 41.2156 37.7173 41.1792L37.7537 41.1337L37.972 41.5704H37.9356C37.8901 41.5249 37.8446 41.4794 37.7537 41.5249L37.4534 41.7069L37.5808 41.9616L37.9356 41.8342C38.0266 41.7888 37.972 41.6978 37.972 41.6523H38.0175L38.1995 42.0526C38.154 42.0071 38.1085 41.9616 38.0175 42.0071L37.2806 42.3983C37.1896 42.4438 37.1896 42.4893 37.2351 42.5257L37.1896 42.5712L36.9713 42.18L37.0168 42.1345C37.0623 42.18 37.1077 42.2254 37.1987 42.18L37.5444 41.998L37.408 41.6978ZM38.154 42.2709C38.2449 42.2254 38.2449 42.18 38.1904 42.089H38.2358L38.6725 42.744L38.3723 42.9623V42.926C38.5452 42.7895 38.5452 42.6166 38.4997 42.5712C38.4542 42.5257 38.4087 42.4802 38.4087 42.4438C38.3723 42.4438 38.3723 42.3983 38.2813 42.4893L37.972 42.7076C38.0175 42.744 38.063 42.8805 38.2813 42.744H38.3268L37.8446 43.0988V43.0533C38.063 42.8714 37.972 42.744 37.9356 42.7076L37.6263 42.926C37.5353 42.9623 37.5353 43.0169 37.5353 43.0533C37.5808 43.0533 37.5808 43.0988 37.6263 43.1443C37.6718 43.2353 37.8083 43.3172 38.0175 43.2353L38.063 43.2717L37.7173 43.399L37.2806 42.7076H37.3261C37.3625 42.744 37.4171 42.7986 37.4989 42.744L38.154 42.2709ZM38.8454 43.9267L38.5452 44.1814C38.4997 44.2269 38.4997 44.3179 38.5452 44.3634H38.4997L38.1904 44.0541L38.2358 44.0086C38.2813 44.0541 38.3268 44.0996 38.4178 44.0086L38.9818 43.4445C39.0728 43.399 39.0728 43.3535 39.0182 43.2626L39.3276 43.6265C39.2821 43.5719 39.2002 43.5719 39.1456 43.6265L38.8909 43.8812L39.1092 44.0996L39.373 43.8812C39.464 43.7902 39.4185 43.7538 39.373 43.6993L39.4185 43.6629L39.7188 44.0086H39.6733C39.6369 44.0086 39.5823 43.9722 39.5004 44.0541L38.9364 44.5817C38.8454 44.6727 38.8454 44.7091 38.8909 44.7546V44.8001L38.5907 44.4453C38.627 44.4453 38.718 44.4908 38.7635 44.4453L39.0637 44.145L38.8454 43.9267ZM39.5004 44.8456L39.6369 44.9729L39.8097 44.5817C39.8097 44.5817 39.6733 44.6181 39.4549 44.7546L39.5004 44.8456L39.4549 44.8819L39.3639 44.791C39.3276 44.8365 39.2821 44.8365 39.2366 44.8819C39.1092 44.9729 39.1456 45.0184 39.2002 45.0639V45.1003L38.9818 44.8819H39.0182L39.2002 44.8365L40.0645 44.3634L40.11 44.3998C40.11 44.3998 40.0645 44.4453 39.6733 45.3186C39.6733 45.4096 39.6369 45.446 39.6733 45.537L39.3276 45.2368L39.373 45.1913C39.4185 45.2822 39.5004 45.2822 39.5459 45.1913C39.5459 45.1458 39.5914 45.0548 39.5914 45.0093L39.4549 44.8819L39.5004 44.8365V44.8456ZM39.8461 45.7098L39.8916 45.6643C39.9371 45.7098 39.9826 45.7098 40.0736 45.6643L40.6376 44.9274L40.5921 44.8819C40.5012 44.8365 40.3738 44.8365 40.2464 44.9729V44.9274L40.4193 44.7091L41.0743 45.1913L40.856 45.446H40.8105C40.9378 45.3186 40.9014 45.1458 40.8105 45.1003V45.0548L40.2464 45.8008C40.1554 45.8463 40.2009 45.9282 40.2464 45.9737H40.2009L39.8461 45.7098Z" fill="#00493D"/>
<path id="Vector_44" d="M40.983 45.8827L40.7647 46.192C40.7192 46.283 40.7647 46.3194 40.8101 46.3739L40.7647 46.4103L40.4189 46.1465V46.101C40.5099 46.1465 40.5463 46.1465 40.5918 46.0646L41.074 45.4096C41.1104 45.3186 41.074 45.2731 41.0285 45.2276L41.074 45.1913L41.4197 45.446V45.4915C41.3287 45.446 41.2923 45.446 41.2377 45.537L41.0285 45.8463L41.2923 46.0191L41.5107 45.7098C41.5471 45.6188 41.5107 45.5825 41.4652 45.537L41.5107 45.4915L41.8564 45.7553V45.8008C41.8109 45.7553 41.729 45.7553 41.6744 45.8463L41.2468 46.5377C41.1559 46.5832 41.2013 46.6287 41.2468 46.6742V46.7106L40.8556 46.4558H40.9011C40.9375 46.4558 40.9921 46.4558 41.0285 46.4103L41.2468 46.0646L40.983 45.8827ZM41.8564 47.1109L41.9019 47.0654C41.9473 47.1109 42.0292 47.1109 42.0747 47.0199L42.4204 46.283C42.4659 46.192 42.4204 46.1465 42.3749 46.101L43.1209 46.4558L42.939 46.8015L42.9026 46.756C43.03 46.5832 42.9026 46.4103 42.8571 46.3648C42.8116 46.3648 42.7661 46.3194 42.7297 46.3194C42.6843 46.3194 42.6843 46.3194 42.6388 46.4103C42.5933 46.4558 42.4659 46.7106 42.4659 46.7106C42.5114 46.756 42.5933 46.847 42.7752 46.6196H42.8116L42.5569 47.1472L42.5114 47.1109C42.6388 46.8379 42.4659 46.8015 42.4204 46.8015L42.2476 47.1472C42.2021 47.2382 42.2476 47.2837 42.2931 47.2837V47.3292L41.8564 47.1109ZM43.1209 47.7204C42.9936 47.6294 42.9936 47.3656 43.1209 47.1109C43.2119 46.8379 43.3848 46.6287 43.5576 46.7106C43.685 46.756 43.6486 47.0199 43.5576 47.2837C43.4212 47.5839 43.2483 47.7568 43.1209 47.7204H43.0755C43.3848 47.8478 43.6031 47.6749 43.7305 47.3656C43.8578 47.1109 43.8215 46.8015 43.5485 46.6742C43.2938 46.5377 43.03 46.7106 42.9026 47.0199C42.7752 47.3292 42.8116 47.6294 43.0845 47.7204H43.1209ZM44.4674 47.8023L44.6493 47.2837C44.6857 47.1927 44.6493 47.1472 44.6039 47.1018L44.8222 47.1472V47.1927C44.7767 47.1927 44.7312 47.1927 44.6857 47.2837L44.5129 47.8023C44.4219 48.0206 44.2945 48.1935 44.0398 48.1116C43.8578 48.0661 43.7305 47.8478 43.8215 47.6294L44.0398 47.0654C44.0762 46.9744 44.0398 46.9289 43.9943 46.8834V46.847L44.3855 47.0199V47.0654C44.34 47.0199 44.2581 47.0199 44.2581 47.1109L44.0307 47.6658C43.9852 47.8387 43.9852 48.0115 44.1217 48.057C44.249 48.1025 44.3764 48.0115 44.4583 47.7932L44.4674 47.8023ZM44.8677 47.2382C44.8677 47.1927 44.8677 47.1927 44.8222 47.1927L45.1224 47.2382L45.3953 48.0661L45.5227 47.5384C45.5591 47.4475 45.5227 47.4111 45.4772 47.3656L45.732 47.4111L45.6956 47.4566C45.6501 47.4566 45.6046 47.4566 45.5591 47.5475L45.3408 48.5028H45.3044L44.9496 47.4566L44.7312 48.1571C44.7312 48.2844 44.7767 48.2844 44.8222 48.3299V48.3754L44.5584 48.2844V48.239C44.6039 48.2844 44.6857 48.239 44.6857 48.148L44.9041 47.3656L44.8677 47.2382ZM46.3506 48.1116C46.2596 48.5028 46.0777 48.5938 45.9958 48.5938H45.9048C45.9048 48.5938 45.8684 48.5483 45.9048 48.5028L46.0413 47.6294C46.0868 47.5839 46.0868 47.5384 46.1323 47.5839H46.2232C46.3051 47.5839 46.387 47.7659 46.3506 48.1116L46.478 48.1571C46.5689 47.7204 46.387 47.5384 46.1686 47.5021C45.9958 47.4566 45.732 47.4111 45.732 47.4111V47.4566C45.7774 47.5021 45.8684 47.5021 45.8229 47.6385L45.6956 48.4118C45.6501 48.5028 45.6046 48.5483 45.5591 48.5483H45.5227L45.9503 48.6393C46.1686 48.6756 46.387 48.6393 46.478 48.1571L46.3506 48.1116ZM46.7418 47.7568C46.7418 47.6658 46.6508 47.6294 46.6053 47.6294V47.5839L47.3968 47.6749L47.3513 48.0206C47.3513 47.8023 47.2149 47.7204 47.133 47.7204C47.0875 47.6749 47.042 47.6749 46.9965 47.6749C46.9601 47.6749 46.9601 47.6749 46.9601 47.8023L46.9147 48.1571C46.9601 48.1571 47.0875 48.1935 47.1785 47.9387L47.133 48.5028H47.0875C47.0875 48.239 46.9601 48.239 46.9056 48.239L46.8692 48.6302C46.8692 48.7211 46.8692 48.7211 46.9147 48.7211L47.0056 48.7666C47.133 48.7666 47.2604 48.7211 47.3513 48.4573H47.3968L47.3058 48.803L46.478 48.712C46.5689 48.712 46.6053 48.6756 46.6599 48.5938L46.7418 47.7568ZM48.1792 48.2844C48.1792 48.6756 48.0428 48.803 47.9154 48.803C47.8699 48.7666 47.8699 48.7666 47.8244 48.7666L47.788 48.7211L47.8335 47.8114C47.8335 47.7568 47.8335 47.7568 47.8699 47.7568H47.9609C48.0519 47.7568 48.1792 47.8932 48.1792 48.2844H48.3521C48.3521 47.8478 48.1337 47.7204 47.9154 47.7204C47.7334 47.6749 47.4787 47.6749 47.4787 47.6749V47.7204C47.5242 47.7204 47.6152 47.7568 47.6152 47.8478L47.5697 48.6756C47.5697 48.7666 47.5242 48.803 47.4787 48.803V48.8485H47.8699C48.0882 48.8485 48.3066 48.7575 48.3521 48.2844H48.1701H48.1792ZM49.4438 48.6302C49.4438 48.7211 49.4893 48.7211 49.5712 48.7211V48.7666L49.089 48.803C49.1345 48.7666 49.2254 48.712 49.2254 48.6302L49.1345 47.8114C49.089 47.7204 49.0435 47.7204 48.9616 47.7204V47.6749L49.4438 47.6294C49.3983 47.6749 49.3073 47.7204 49.3528 47.8114L49.4438 48.6302ZM49.8805 48.7211V48.6756C49.926 48.6756 49.9715 48.6302 49.9715 48.5483L49.7895 47.6385H49.744C49.653 47.6749 49.5712 47.7568 49.6166 47.9387H49.5712L49.5257 47.6294L50.3172 47.5021L50.3536 47.8023H50.3172C50.3172 47.6294 50.1807 47.5839 50.0442 47.5839H50.0078L50.1898 48.4937C50.1898 48.5847 50.2262 48.6302 50.3172 48.6302V48.6756L49.8805 48.7211ZM51.7546 47.8478L51.5726 47.3292C51.5726 47.2382 51.4908 47.2382 51.4453 47.2382V47.1927L51.6636 47.1018V47.1472C51.6181 47.1927 51.6181 47.1927 51.6181 47.2837L51.8001 47.8478C51.8365 48.0297 51.8365 48.2844 51.5817 48.3754C51.3998 48.4118 51.1905 48.3299 51.145 48.0661L50.9631 47.5021C50.9267 47.4111 50.8812 47.4111 50.8357 47.4111L50.7902 47.3656L51.2269 47.2382V47.2837C51.1905 47.3292 51.136 47.3747 51.1905 47.4566L51.3179 48.0206C51.3634 48.2026 51.4999 48.2844 51.6181 48.2844C51.7546 48.239 51.8001 48.0661 51.7546 47.8478ZM52.2368 47.5384C52.446 47.4475 52.4096 47.3292 52.3641 47.1927C52.3186 47.0654 52.2368 46.9744 52.1458 47.0199C52.1003 47.0199 52.0548 47.0654 52.1003 47.1109L52.2368 47.5384L52.2731 47.5839L52.3641 47.9387C52.4096 48.0297 52.4915 48.0297 52.5461 47.9751V48.0206L52.1458 48.2026L52.1003 48.1571C52.1913 48.1116 52.1913 48.0661 52.1913 47.9751L51.882 47.2382C51.8365 47.1109 51.791 47.1472 51.7091 47.1472V47.1109L52.1458 46.9289C52.3277 46.8925 52.4915 46.9289 52.5825 47.1109C52.628 47.3292 52.537 47.4566 52.3641 47.5475C52.3186 47.5475 52.2731 47.5839 52.2731 47.5839L52.2368 47.5384Z" fill="#00493D"/>
<path id="Vector_45" d="M53.3194 47.6658C53.192 47.7204 53.0192 47.5384 52.8827 47.2382C52.7554 46.9744 52.7554 46.7106 52.8827 46.6742C53.0192 46.6287 53.192 46.8015 53.3194 47.0654C53.4559 47.3292 53.4559 47.5839 53.3194 47.6749C53.5923 47.5839 53.6742 47.2837 53.5378 46.9744C53.4104 46.7106 53.1466 46.5377 52.8827 46.6287C52.8215 46.6594 52.7671 46.7021 52.7227 46.7543C52.6784 46.8065 52.645 46.8671 52.6246 46.9325C52.6043 46.9979 52.5973 47.0667 52.6041 47.1349C52.6109 47.2031 52.6314 47.2691 52.6644 47.3292C52.8008 47.6294 53.0647 47.8023 53.3194 47.6749V47.6658ZM53.3649 46.4558H53.283L53.5378 46.2739L54.3292 46.7106L54.0563 46.2375C54.0199 46.1465 53.929 46.1465 53.8926 46.1465V46.101L54.1109 46.01C54.0654 46.0646 54.0199 46.101 54.1109 46.192L54.5476 47.0654L54.5021 47.1109L53.5378 46.5832L53.8926 47.2382C53.929 47.3292 54.0199 47.3292 54.0654 47.2837V47.3292L53.8471 47.4566V47.4111C53.8926 47.3656 53.8926 47.3201 53.8471 47.2382L53.5014 46.5377L53.3649 46.4467V46.4558ZM55.33 46.5832V46.5377C55.33 46.4922 55.3755 46.4467 55.33 46.3648L54.8023 45.6279H54.7568C54.6659 45.6643 54.6295 45.8463 54.7568 45.9736L54.7204 46.0191L54.5385 45.7098L55.1935 45.2731L55.3755 45.5461C55.239 45.4096 55.1025 45.4096 55.0207 45.4551L54.9752 45.4915L55.5028 46.2375C55.5483 46.3285 55.6302 46.3285 55.6848 46.283V46.3194L55.33 46.5832Z" fill="#00493D"/>
<path id="Vector_46" d="M55.812 45.537L56.0667 45.8463C56.1122 45.8827 56.2032 45.8827 56.2487 45.8463V45.8827L55.8939 46.192V46.1465C55.9394 46.101 55.9394 46.0555 55.8939 45.9737L55.3753 45.3186C55.3298 45.2276 55.2843 45.2731 55.1934 45.2731L55.5482 44.9729V45.0184C55.5482 45.0548 55.5027 45.1094 55.5482 45.1913L55.7665 45.446L56.0212 45.2731L55.812 44.9729C55.7665 44.8819 55.6755 44.9274 55.63 44.9274L55.9849 44.6181V44.6636C55.9394 44.7091 55.9394 44.7546 55.9849 44.8455L56.5034 45.4915C56.5489 45.537 56.5944 45.537 56.6399 45.4915L56.6763 45.537L56.3306 45.8463L56.2851 45.8008C56.3306 45.7553 56.3761 45.7098 56.3306 45.6188L56.0667 45.3186L55.812 45.537ZM56.2032 44.6181C56.1577 44.5817 56.0667 44.5817 56.0212 44.6181V44.5817L56.5944 44.0541L56.8582 44.3179H56.8127C56.6763 44.1359 56.5034 44.2269 56.4215 44.2724C56.4215 44.3179 56.3761 44.3179 56.3306 44.3634C56.3306 44.3634 56.3306 44.3998 56.3761 44.4907L56.6399 44.7546C56.6763 44.7091 56.8127 44.6181 56.6399 44.3998H56.6763L57.0311 44.8001V44.8364C56.8127 44.6181 56.7218 44.7455 56.6763 44.8001L56.9492 45.0548C56.9856 45.1458 57.0311 45.1458 57.0311 45.1458L57.1584 45.0184C57.2039 44.9729 57.2494 44.8364 57.1584 44.5817H57.2039L57.3768 44.8819L56.8127 45.446L56.7672 45.4096C56.8127 45.3641 56.8582 45.3186 56.7672 45.2276L56.2032 44.6181ZM57.2494 43.399C57.2039 43.4445 57.2039 43.5355 57.2858 43.581C57.3768 43.6629 57.4678 43.6629 57.6406 43.581C57.7316 43.5355 57.8954 43.49 58.0318 43.6174C58.2502 43.8357 58.1592 44.0086 58.1228 44.0995C58.0773 44.145 57.9863 44.1905 57.9408 44.2269C57.8954 44.2269 57.8954 44.2269 57.8954 44.2724V44.3179L57.5951 44.0541H57.6406C57.8135 44.145 57.9863 44.1814 58.0773 44.0541C58.1683 43.9631 58.0773 43.8721 58.0318 43.8357C57.9408 43.7447 57.8499 43.7447 57.7225 43.8357C57.5951 43.8812 57.4223 43.8812 57.2858 43.7902C57.113 43.6174 57.113 43.49 57.1948 43.3535L57.3768 43.2262C57.4223 43.2262 57.4223 43.2262 57.3768 43.1352L57.6861 43.3535H57.6406C57.4223 43.2626 57.2858 43.3171 57.2494 43.399ZM57.6406 43.0533C57.5496 43.0078 57.5042 43.0533 57.4587 43.0988H57.4223L57.9045 42.3983L58.2047 42.6166L58.1592 42.6621C58.1047 42.6154 58.0354 42.5897 57.9636 42.5897C57.8918 42.5897 57.8224 42.6154 57.768 42.6621C57.768 42.7076 57.7225 42.7531 57.7225 42.7895C57.6861 42.7895 57.6861 42.835 57.768 42.8805C57.8135 42.9259 58.0773 43.0988 58.0773 43.0988C58.1228 43.0533 58.2047 42.9623 58.0318 42.7895V42.744L58.4685 43.0988C58.2047 42.9623 58.1592 43.0988 58.1228 43.1352L58.423 43.3535C58.514 43.399 58.5504 43.399 58.5504 43.399C58.5504 43.3535 58.5959 43.308 58.6414 43.2717C58.6868 43.1807 58.7323 43.0533 58.5504 42.8805L58.5959 42.835L58.8142 43.0988L58.3775 43.7538H58.332C58.3775 43.6629 58.3775 43.6174 58.2956 43.5355L57.6406 43.0533ZM58.8142 42.2709L58.6868 42.4893C58.5049 42.3073 58.423 42.1799 58.423 42.1799L58.8142 42.2709H58.9052C58.9507 42.2709 59.0326 42.3073 59.078 42.3073C59.2054 42.3528 59.169 42.3983 59.1235 42.4893H59.169L59.3874 42.089C59.2964 42.1799 59.2509 42.1345 59.169 42.1345C58.2502 41.9616 58.1683 41.9161 58.1683 41.9161V41.9616L58.8597 42.744C58.9052 42.7895 58.9052 42.8805 58.9052 42.9259H58.9507L59.078 42.7076L59.0326 42.6621C58.9871 42.7531 58.9416 42.7895 58.8597 42.6621L58.7687 42.5711L58.9052 42.2709H58.8142ZM58.5504 41.3066C58.514 41.3521 58.514 41.443 58.6414 41.4885C58.7687 41.5249 58.8233 41.4885 58.9507 41.3975C59.078 41.3066 59.2054 41.2156 59.3783 41.3066C59.6512 41.443 59.5966 41.6614 59.5602 41.7433L59.4237 41.9252V42.0071L59.078 41.8251C59.2964 41.8706 59.4692 41.8251 59.5147 41.6978C59.5602 41.6068 59.4692 41.5249 59.4237 41.4794C59.3328 41.443 59.2509 41.4794 59.1235 41.5704C58.9871 41.6978 58.8506 41.7524 58.6868 41.6614C58.5049 41.5704 58.423 41.443 58.5049 41.3066C58.5049 41.2156 58.5959 41.1792 58.6414 41.1337C58.6414 41.0882 58.6414 41.0882 58.5959 41.0427V41.0063L58.9507 41.1792H58.9052C58.6868 41.1337 58.5504 41.2247 58.5504 41.3066V41.3066Z" fill="#00493D"/>
</g>
</g>
<g id="Group_12">
<g id="d">
<path id="Vector_47" d="M44.7763 25.877C44.2123 26.0044 43.8211 26.0498 43.2934 25.5677C42.9477 25.222 43.0296 24.6124 43.3844 24.385C43.7756 24.1303 44.1213 23.9574 44.6035 24.0848C45.0857 24.2212 46.3502 25.3948 46.0409 25.4403C45.7316 25.4403 45.2585 25.7405 44.7763 25.877ZM46.1228 23.7845C46.3047 23.6481 46.5231 23.5662 47.0871 23.5116C47.6148 23.4752 47.9969 23.4752 48.1334 23.8755C48.3153 24.3486 48.4427 24.9126 48.7884 25.1765C48.5701 25.3038 47.4783 25.4403 47.0871 25.222C46.5686 24.9581 46.4321 23.9483 46.1319 23.7845H46.1228ZM49.8801 23.83C50.053 23.6936 50.2713 23.6936 50.8354 23.7391C51.3994 23.7845 51.6178 23.83 51.7451 24.2212C51.8816 24.6579 51.7451 25.222 52.0181 25.6132C51.7451 25.7041 50.8809 25.7041 50.5715 25.3948C50.0985 25.0491 50.1348 24.0393 49.8801 23.8209V23.83Z" fill="#F5F5F5" stroke="black" stroke-width="0.127367"/>
<path id="Vector_48" d="M52.4909 24.0848C52.0997 23.9938 51.8359 23.9574 51.6721 24.0848C51.8814 24.3486 51.7085 25.3948 52.1452 25.7405C52.4454 25.9589 53.2369 26.0135 53.4098 25.5222C53.6281 25.0855 53.6281 24.4305 52.5 24.0848H52.4909ZM48.0058 23.6481C48.1331 23.5207 48.397 23.4752 48.9155 23.4752C49.4887 23.4752 49.8253 23.5662 50.0073 23.9119C50.1892 24.3486 50.1346 24.9126 50.4439 25.2675C50.3166 25.4403 49.1339 25.4403 48.7882 25.1765C48.306 24.8672 48.2605 23.8664 48.0058 23.6481V23.6481ZM44.303 24.0393C44.303 23.8209 44.6033 23.7845 45.3948 23.7391C46.1681 23.6481 46.2135 23.6936 46.4774 24.2576C46.6047 24.5669 46.7776 25.0855 47.1324 25.2584C46.1681 25.4858 45.8587 25.6132 45.3402 25.3038C44.9614 25.067 44.6485 24.7384 44.4304 24.3486C44.3849 24.2212 44.3849 24.0848 44.2939 24.0393H44.303Z" fill="#073163" stroke="black" stroke-width="0.127367"/>
</g>
<g id="Group_13">
<g id="f">
<g id="Vector_49">
<path d="M46.3961 19.5996C45.4772 18.8991 44.3855 18.2441 43.3848 18.1167C44.4289 18.8129 45.4203 19.5852 46.3506 20.4275" fill="#F9D050"/>
<path d="M46.3961 19.5996C45.4772 18.8991 44.3855 18.2441 43.3848 18.1167C44.4289 18.8129 45.4203 19.5852 46.3506 20.4275" stroke="black" stroke-width="0.0545858"/>
</g>
<g id="Vector_50">
<path d="M46.9142 18.9446C45.8225 18.1986 44.5579 17.3707 43.3389 17.2888C44.4797 17.9499 45.4958 18.8059 46.3411 19.818L46.9142 18.9446ZM48.3062 17.7255C48.7987 16.606 49.5281 15.6066 50.4441 14.7961C50.0074 15.7149 49.5343 17.5891 49.3069 18.3351" fill="#F9D050"/>
<path d="M48.3062 17.7255C48.7987 16.606 49.5281 15.6066 50.4441 14.7961C50.0074 15.7149 49.5343 17.5891 49.3069 18.3351M46.9142 18.9446C45.8225 18.1986 44.5579 17.3707 43.3389 17.2888C44.4797 17.9499 45.4958 18.8059 46.3411 19.818L46.9142 18.9446Z" stroke="black" stroke-width="0.0545858"/>
</g>
<g id="Vector_51">
<path d="M49.2705 17.5072C49.6921 16.482 50.4848 15.6536 51.4903 15.1873C50.7349 16.1298 50.1723 17.2117 49.8346 18.3715" fill="#F9D050"/>
<path d="M49.2705 17.5072C49.6921 16.482 50.4848 15.6536 51.4903 15.1873C50.7349 16.1298 50.1723 17.2117 49.8346 18.3715" stroke="black" stroke-width="0.0545858"/>
</g>
<g id="Vector_52">
<path d="M49.6621 18.3715C50.4974 17.0929 51.6946 16.092 53.101 15.4966C52.0093 16.5883 50.399 18.5898 50.0078 19.3813L49.6621 18.3715ZM50.2716 19.3358C51.054 18.8991 52.6279 18.1986 53.756 18.426C53.0646 18.6808 50.9722 19.636 50.0533 20.5185" fill="#F9D050"/>
<path d="M50.2716 19.3358C51.054 18.8991 52.6279 18.1986 53.756 18.426C53.0646 18.6808 50.9722 19.636 50.0533 20.5185M49.6621 18.3715C50.4974 17.0929 51.6946 16.092 53.101 15.4966C52.0093 16.5883 50.399 18.5898 50.0078 19.3813L49.6621 18.3715Z" stroke="black" stroke-width="0.0545858"/>
</g>
<g id="Vector_53">
<path d="M50.0982 19.0265C50.8352 18.2441 52.1907 17.0705 53.6281 16.5883C52.5819 17.5891 50.353 19.8635 50.0528 20.2092L50.0982 19.0265ZM48.0058 18.5534C47.4781 16.934 46.6957 15.4147 45.5221 14.9326C46.4569 16.269 47.1072 17.7832 47.4326 19.3813L48.0058 18.5534ZM46.996 18.5079C46.1317 17.4617 44.949 16.4155 43.6025 16.1971C44.922 17.0605 45.9644 18.2861 46.6048 19.727" fill="#F9D050"/>
<path d="M46.996 18.5079C46.1317 17.4617 44.949 16.4155 43.6025 16.1971C44.922 17.0605 45.9644 18.2861 46.6048 19.727M50.0982 19.0265C50.8352 18.2441 52.1907 17.0705 53.6281 16.5883C52.5819 17.5891 50.353 19.8635 50.0528 20.2092L50.0982 19.0265ZM48.0058 18.5534C47.4781 16.934 46.6957 15.4147 45.5221 14.9326C46.4569 16.269 47.1072 17.7832 47.4326 19.3813L48.0058 18.5534Z" stroke="black" stroke-width="0.0545858"/>
</g>
<g id="Vector_54">
<path d="M47.4877 18.4624C46.396 16.4973 45.559 16.1516 45.0859 15.7604C45.4771 16.4973 46.4324 18.4624 46.9964 19.2903" fill="#F9D050"/>
<path d="M47.4877 18.4624C46.396 16.4973 45.559 16.1516 45.0859 15.7604C45.4771 16.4973 46.4324 18.4624 46.9964 19.2903" stroke="black" stroke-width="0.0545858"/>
</g>
<path id="Vector_55" d="M45.3037 18.3351C45.9259 18.7263 46.459 19.244 46.8685 19.8544" stroke="black" stroke-width="0.0545858"/>
<g id="Vector_56">
<path d="M45.3037 19.2448C45.5584 19.4632 46.0406 19.727 46.4773 20.1182L45.3037 19.2448ZM50.4894 19.8999C50.926 19.5541 51.8813 18.9901 52.3635 18.8081L50.4894 19.8999ZM50.18 19.5996C50.6167 19.0265 51.4901 18.2441 51.7994 17.9803L50.18 19.5996ZM51.3991 16.8885C50.8129 17.5455 50.2602 18.2318 49.7434 18.9446L51.3991 16.8885ZM50.271 16.4973C49.8581 17.1081 49.4931 17.7499 49.1793 18.4169L50.271 16.4973ZM46.823 16.5883C47.0868 17.2888 47.569 18.4624 47.7328 18.9446L46.823 16.5883ZM46.4318 17.3252C46.6138 17.5982 46.9595 18.1986 47.0868 18.6353Z" fill="#F9D050"/>
<path d="M46.4318 17.3252C46.6138 17.5982 46.9595 18.1986 47.0868 18.6353M45.3037 19.2448C45.5584 19.4632 46.0406 19.727 46.4773 20.1182L45.3037 19.2448ZM50.4894 19.8999C50.926 19.5541 51.8813 18.9901 52.3635 18.8081L50.4894 19.8999ZM50.18 19.5996C50.6167 19.0265 51.4901 18.2441 51.7994 17.9803L50.18 19.5996ZM51.3991 16.8885C50.8129 17.5455 50.2602 18.2318 49.7434 18.9446L51.3991 16.8885ZM50.271 16.4973C49.8581 17.1081 49.4931 17.7499 49.1793 18.4169L50.271 16.4973ZM46.823 16.5883C47.0868 17.2888 47.569 18.4624 47.7328 18.9446L46.823 16.5883Z" stroke="black" stroke-width="0.0545858"/>
</g>
</g>
<g id="g">
<path id="Vector_57" d="M47.915 17.1069C47.915 16.7157 48.1789 16.2881 48.4427 16.2881C48.7429 16.2881 48.9613 16.8067 48.9613 17.1069C48.9613 17.4617 48.6974 17.7619 48.4427 17.7619C48.1698 17.7619 47.915 17.5072 47.915 17.1069Z" fill="#F9D050" stroke="black" stroke-width="0.0545858"/>
<path id="Vector_58" d="M47.3508 17.4617C47.3963 17.025 47.6965 16.6793 47.9603 16.7157C48.2242 16.7612 48.3515 17.2888 48.306 17.589C48.2606 17.9348 47.9603 18.1986 47.742 18.1531C47.5236 18.1531 47.3053 17.8529 47.3508 17.4617ZM48.5244 17.589C48.4334 17.1978 48.6154 16.7703 48.8792 16.7157C49.1339 16.6793 49.3978 17.1069 49.4432 17.4617C49.5342 17.8074 49.3068 18.1531 49.0884 18.1531C48.8792 18.1986 48.5699 17.9802 48.5244 17.589Z" fill="#F9D050" stroke="black" stroke-width="0.0545858"/>
<path id="Vector_59" d="M47.8701 17.9348C47.8701 17.5072 48.1339 17.116 48.3978 17.116C48.698 17.116 48.9163 17.589 48.9163 17.9348C48.9163 18.2896 48.6616 18.5898 48.3978 18.5898C48.1339 18.5898 47.8701 18.335 47.8701 17.9348Z" fill="#F9D050" stroke="black" stroke-width="0.0545858"/>
<path id="Vector_60" d="M47.0879 18.1531C47.0879 17.7619 47.3972 17.3343 47.6519 17.3343C47.9249 17.3343 48.1796 17.8529 48.1796 18.1531C48.1796 18.5079 47.8703 18.8081 47.6519 18.8081C47.3972 18.8081 47.0879 18.5534 47.0879 18.1531ZM48.6982 17.9803C48.6982 17.5891 48.9711 17.1615 49.2258 17.1615C49.5261 17.1615 49.7444 17.68 49.7444 17.9803C49.7444 18.3351 49.4897 18.6353 49.2258 18.6353C48.962 18.6353 48.6982 18.3715 48.6982 17.9803Z" fill="#F9D050" stroke="black" stroke-width="0.0545858"/>
<path id="Vector_61" d="M48.5244 18.3351C48.5244 17.8984 48.8337 17.5072 49.0885 17.5072C49.3614 17.5072 49.6161 17.9802 49.6161 18.326C49.6161 18.6808 49.3523 18.9901 49.0885 18.9901C48.8337 18.9901 48.5244 18.7172 48.5244 18.3351V18.3351Z" fill="#F9D050" stroke="black" stroke-width="0.0545858"/>
<path id="Vector_62" d="M47.8339 18.7262C47.8339 18.2896 48.0886 17.8984 48.3525 17.8984C48.6618 17.8984 48.8801 18.4169 48.8801 18.7171C48.8801 19.0811 48.6072 19.3813 48.3525 19.3813C48.0886 19.3813 47.8248 19.1083 47.8248 18.7262H47.8339ZM46.7422 18.7262C46.7422 18.2896 46.9605 17.8984 47.1789 17.8984C47.3972 17.8984 47.5701 18.4169 47.5701 18.7171C47.5701 19.0811 47.3517 19.3813 47.1789 19.3813C46.9605 19.3813 46.7422 19.1083 46.7422 18.7262V18.7262ZM49.1803 18.6444C49.1803 18.2441 49.3987 17.8529 49.617 17.8529C49.8354 17.8529 50.0537 18.335 50.0537 18.6353C50.0537 19.0265 49.7899 19.2903 49.617 19.2903C49.3987 19.2903 49.1803 19.0265 49.1803 18.6353V18.6444Z" fill="#F9D050" stroke="black" stroke-width="0.0545858"/>
<path id="Vector_63" d="M49.4432 19.3722C49.5342 18.9446 49.7889 18.5898 49.9618 18.6444C50.1437 18.6808 50.1801 19.1993 50.0982 19.5087C50.0528 19.8999 49.7889 20.1182 49.6161 20.0727C49.4341 20.0363 49.3522 19.727 49.4341 19.3813L49.4432 19.3722Z" fill="#F9D050" stroke="black" stroke-width="0.0545858"/>
<path id="Vector_64" d="M48.6158 19.2448C48.6613 18.8536 48.916 18.4624 49.1344 18.5079C49.3982 18.5079 49.5256 19.0265 49.4892 19.3267C49.4437 19.727 49.2163 19.9908 49.007 19.9453C48.7887 19.9453 48.5703 19.636 48.6158 19.2448V19.2448ZM47.3967 19.3722C47.2603 18.9446 46.9964 18.6444 46.8236 18.6808C46.6507 18.7263 46.6052 19.2448 46.6962 19.5541C46.7872 19.8999 47.0419 20.1182 47.2148 20.0727C47.3513 20.0363 47.4877 19.727 47.3967 19.3813V19.3722Z" fill="#F9D050" stroke="black" stroke-width="0.0545858"/>
<path id="Vector_65" d="M47.0879 19.2903C47.0879 18.8991 47.3062 18.5079 47.5246 18.5079C47.7884 18.5079 47.9613 18.9901 47.9613 19.2903C47.9613 19.6815 47.7429 19.9453 47.5246 19.9453C47.3426 19.9453 47.0879 19.6815 47.0879 19.2903Z" fill="#F9D050" stroke="black" stroke-width="0.0545858"/>
<path id="Vector_66" d="M47.7429 19.4632C47.7429 19.0265 48.0068 18.6444 48.2615 18.6444C48.5708 18.6444 48.7892 19.1175 48.7892 19.4632C48.7892 19.818 48.5253 20.1182 48.2615 20.1182C48.0068 20.1182 47.7429 19.8544 47.7429 19.4632ZM47.9613 14.6687C47.8703 15.0144 47.5701 15.3237 47.7793 15.8059C47.3972 15.6695 47.0515 15.624 46.7422 15.9788C47.1334 15.9333 47.4791 16.0698 47.652 16.3245C47.3062 16.279 47.1334 16.4609 47.0424 16.6793C47.3517 16.5883 47.652 16.4973 47.7884 16.5428C47.652 16.6793 47.4336 16.8885 47.3972 17.0705C47.652 16.8521 47.9613 16.8885 48.1341 16.7612C48.0068 17.0705 48.2615 17.3707 48.4798 17.6709C48.4434 17.2433 48.6982 16.9431 48.5708 16.7157C48.962 16.8067 49.0075 17.1524 49.5716 17.1524C49.3532 17.025 49.2258 16.5883 48.962 16.5883C49.0894 16.5428 49.617 16.4973 49.708 16.5883C49.617 16.4064 49.3077 16.2426 49.1349 16.2426C49.3168 16.0607 49.617 15.7149 49.8354 15.624C49.5261 15.6695 49.053 15.7149 48.8801 15.9788C49.3077 15.624 49.2258 14.978 49.6989 14.8871C49.4442 14.8416 49.053 15.0144 48.7437 15.3237C48.8801 15.0599 48.8801 14.7142 49.053 14.6232C48.6982 14.7142 48.307 15.1509 48.1796 15.3692C48.1608 15.1222 48.0861 14.8827 47.9613 14.6687V14.6687Z" fill="#F9D050" stroke="black" stroke-width="0.0545858"/>
<g id="Vector_67">
<path d="M48.1793 15.3692C48.1793 15.4966 48.1793 15.7604 48.1338 15.8423L48.1793 15.3692ZM48.7433 15.3238C48.6524 15.4147 48.4795 15.715 48.4795 15.9788Z" fill="#F9D050"/>
<path d="M48.7433 15.3238C48.6524 15.4147 48.4795 15.715 48.4795 15.9788M48.1793 15.3692C48.1793 15.4966 48.1793 15.7604 48.1338 15.8423L48.1793 15.3692Z" stroke="black" stroke-width="0.0545858"/>
</g>
<path id="Vector_68" d="M49.0066 15.8423C48.8566 15.9319 48.7461 16.0749 48.6973 16.2426" stroke="black" stroke-width="0.0545858"/>
</g>
</g>
<g id="e">
<path id="Vector_69" d="M44.3856 20.1637C44.0762 20.1637 43.8215 20.0363 43.6395 19.818C43.3393 19.4177 42.5114 19.2448 42.1566 19.5996C42.0293 19.6906 41.8564 19.6906 41.729 19.727C41.5107 19.727 41.2469 19.9453 41.3287 20.382C41.5107 20.2455 41.5471 20.382 41.6836 20.382C41.7745 20.3365 41.729 20.4275 41.729 20.5094C41.729 20.7277 42.2021 21.1644 42.6388 21.1189C43.121 21.1189 43.3393 21.3009 43.4212 21.3918C43.5577 21.5101 43.4667 21.4737 43.5577 21.6921C43.685 21.8194 43.7305 21.8649 43.5122 22.0378C43.4128 22.1206 43.3329 22.2242 43.2781 22.3414C43.2233 22.4585 43.1948 22.5862 43.1948 22.7155C43.1948 22.8449 43.2233 22.9726 43.2781 23.0897C43.3329 23.2069 43.4128 23.3105 43.5122 23.3933C44.0762 23.8209 45.5137 24.485 47.133 23.2114C48.6978 21.9923 51.136 22.6928 51.3179 23.1204C51.5363 23.5662 51.6182 23.8209 51.6637 24.0393C51.7091 24.2212 51.9275 24.3941 52.2368 24.3486C52.537 24.3486 52.8827 24.4759 53.0556 24.6124C53.283 24.7398 53.5832 24.7034 53.5014 24.3031C53.3194 23.084 52.5825 22.9111 52.5006 22.3471C52.9282 22.3835 53.2284 22.3835 53.4104 22.2106C53.5378 22.0378 53.7106 21.7285 53.8926 21.6466C54.0199 21.5556 54.0199 21.4646 53.8471 21.5101C53.6287 21.5556 53.5014 21.6466 53.1011 21.6011C51.0996 21.3827 45.4773 19.8543 44.3856 20.1637V20.1637Z" fill="#059334" stroke="black" stroke-width="0.127367"/>
<path id="Vector_70" d="M53.2833 21.6466C52.9508 21.8812 52.6666 22.1778 52.4463 22.52C52.0187 23.084 50.7087 23.6481 49.0893 23.6481C47.5245 23.6481 46.5692 23.3933 45.8687 22.8293C45.5696 22.5901 45.2464 22.3828 44.9044 22.2107C44.4313 21.9923 44.3403 21.5101 44.4677 21.1189C44.3403 21.3373 44.2584 21.5556 43.9946 21.5101C43.8127 21.5101 43.467 21.5101 43.5579 21.6921C43.5124 21.6011 43.5124 21.4737 43.467 21.4192L43.376 21.3373C43.5124 21.4283 43.8218 21.1644 44.0401 21.1644C44.213 21.2099 44.4313 20.9916 44.3858 20.7277L44.2584 20.1637C44.6042 19.9817 49.1803 20.8187 50.0991 20.9006C51.0089 20.9461 53.629 21.3373 53.2833 21.6466V21.6466Z" fill="black" stroke="black" stroke-width="0.127367"/>
<path id="Vector_71" d="M44.9947 19.9908C45.4314 19.5541 45.95 19.3358 46.4776 19.4632H46.605C46.8779 19.2448 47.4784 19.1993 47.8332 19.3722H48.006C48.5246 19.1993 49.5253 19.3722 49.8801 19.727L50.0075 19.818C51.1902 19.727 51.8816 20.2456 52.7095 21.0825C52.8005 21.1735 52.9279 21.3373 53.1462 21.3828C53.41 21.4282 53.4555 21.5647 53.2372 21.6921C52.8874 21.9084 52.5793 22.1857 52.3274 22.5109C51.9271 23.0385 50.6625 23.5662 49.0886 23.5662C47.5693 23.5662 46.6505 23.2933 45.95 22.7747C45.5588 22.4745 45.2585 22.3016 45.0402 22.1652C44.7764 22.0742 44.4307 21.7285 44.558 21.3828C44.649 21.0371 44.4307 20.6004 44.2578 20.1637C44.3852 20.0727 44.7309 19.9453 44.9037 20.0363L44.9947 19.9908Z" fill="#059334" stroke="black" stroke-width="0.127367"/>
<g id="Group_14">
<path id="Vector_72" d="M52.7099 21.0825C51.8911 20.2456 51.1906 19.727 50.0079 19.8089C50.0079 19.8544 50.0079 19.9908 49.9624 20.0818C50.7867 20.4517 51.5173 21.002 52.1004 21.6921C52.2823 21.5101 52.5825 21.3009 52.7099 21.0825ZM49.8805 19.727C49.5257 19.3813 48.525 19.1993 48.0064 19.3813C48.0064 19.5541 48.0064 19.818 47.9155 19.9908C48.2248 20.1182 48.4795 20.4275 48.7433 20.7277C48.9253 20.6822 49.3529 20.5549 49.5712 20.5094C49.7015 20.2602 49.8052 19.9979 49.8805 19.727V19.727ZM47.8336 19.3722C47.4788 19.1993 46.8692 19.2448 46.6054 19.4632C46.5144 19.6451 46.478 19.9908 46.478 20.1637C46.66 20.1637 46.9147 20.291 46.9966 20.382C47.2695 20.291 47.6152 20.1182 47.7426 19.9908C47.7881 19.8089 47.87 19.5541 47.8336 19.3813V19.3722ZM44.9951 19.9908C45.4318 19.5541 45.9504 19.3358 46.478 19.4632C46.3871 19.5996 46.3507 19.8544 46.3507 20.1182C45.8685 20.0727 45.2589 20.2092 44.9951 20.382V19.9908Z" fill="#00493D" stroke="black" stroke-width="0.127367"/>
<path id="Vector_73" d="M51.9277 21.774C51.3796 21.125 50.6965 20.6034 49.9262 20.2456C49.9262 20.291 49.8352 20.4639 49.7897 20.6004C50.0536 20.9916 50.5721 21.8649 50.7905 22.3471C51.0088 22.2561 51.6183 21.9923 51.9277 21.774V21.774ZM48.6161 22.7383C48.6915 22.1437 48.7341 21.5454 48.7435 20.9461C48.9618 20.9006 49.3985 20.7732 49.5714 20.7277C49.7897 21.0825 50.3174 22.0014 50.5357 22.429C50.0081 22.5564 49.1347 22.7747 48.6161 22.7383ZM47.0877 20.6459C47.3061 20.5549 47.6154 20.3729 47.8246 20.2092C48.0066 20.3365 48.3523 20.6459 48.4797 20.8187C48.4797 21.2099 48.3523 22.3471 48.3068 22.7292C47.9611 22.7292 47.397 22.6473 47.0877 22.4745C47.1332 21.8194 47.1787 21.0825 47.0877 20.6459V20.6459ZM44.9043 21.1644C44.9498 21.0734 44.9953 20.7732 44.9953 20.6459C45.341 20.4275 46.2144 20.2092 46.8694 20.5549C46.9149 20.9916 46.8694 22.0833 46.8239 22.3471C46.2404 21.8726 45.5983 21.4751 44.9134 21.1644H44.9043Z" fill="#00493D" stroke="black" stroke-width="0.127367"/>
</g>
<g id="Group_15">
<path id="Vector_74" d="M42.7298 20.3729C42.6388 20.3729 42.5933 20.1182 42.4205 20.1182C42.375 20.1182 42.2476 20.1637 42.2021 20.1182C42.2021 20.2091 42.2476 20.3001 42.2931 20.3365C42.3386 20.4639 42.557 20.382 42.7298 20.382V20.3729Z" fill="black"/>
<path id="Vector_75" d="M41.7295 20.2455V20.4639M42.7302 21.1189C43.2488 21.1189 43.3398 20.4639 43.6036 20.4275L42.7302 21.1189ZM43.0305 21.1644C43.4216 21.3464 43.731 20.4275 44.0312 20.4639L43.0305 21.1644ZM42.2481 20.0363C42.3754 20.0363 42.4664 19.8543 42.6847 20.0727C42.7757 20.1637 42.9031 20.2091 42.9941 20.2091L42.2481 20.0363ZM42.9031 20.6822C42.7211 20.9552 42.4209 21.1189 42.2481 21.037L42.9031 20.6822ZM42.1571 19.5996C42.0297 19.6906 41.9478 19.8543 41.8569 19.9908L42.1571 19.5996Z" stroke="black" stroke-width="0.127367"/>
</g>
</g>
</g>
<g id="Group_16">
<path id="a" d="M56.2847 25.9225V34.4196C56.2847 41.7887 52.8003 44.3179 48.1332 46.3193C43.4661 44.3179 39.9453 41.7887 39.9453 34.4196V25.9134H56.2847V25.9225Z" fill="#F5F5F5"/>
<path id="Vector_76" d="M48.1335 33.1096C48.5247 33.1096 49.1342 32.7639 49.6619 32.2362C50.2259 31.6267 51.1903 31.4174 52.191 32.2362C53.1918 33.0641 53.8013 32.7184 54.329 32.2362C54.8475 31.7631 55.2842 31.5812 56.285 31.5812V25.9225H39.9365V31.5903C40.9373 31.5903 41.3739 31.7722 41.9016 32.2453C42.4202 32.7275 43.0297 33.0732 44.0395 32.2453C45.0858 31.4265 45.9955 31.6358 46.6051 32.2453C47.0873 32.773 47.6968 33.1187 48.1335 33.1187V33.1096Z" fill="#C8102E"/>
<g id="Group_17">
<path id="Vector_77" d="M48.1335 37.4764C48.6611 37.4764 49.7074 36.9033 49.9621 36.7759C50.9265 36.2028 51.6179 36.7304 52.191 36.9943C52.8006 37.249 53.9287 37.5583 54.6292 36.9943C55.3297 36.4211 55.7209 36.4666 56.2031 36.4666C56.2941 35.8116 56.2941 35.1565 56.2941 34.4196V33.892C55.6754 33.7646 55.3752 33.9375 54.7202 34.5106C54.0651 35.0747 53.3191 34.9473 52.3548 34.6016C51.445 34.2013 50.5353 33.5099 49.6164 34.6016C49.2353 35.0275 48.7035 35.2885 48.1335 35.3294C47.4785 35.3294 46.9144 34.9018 46.6506 34.6016C45.6953 33.5099 44.8219 34.2013 43.9031 34.6016C42.9478 34.9473 42.1563 35.0747 41.5104 34.5106C40.9009 33.9375 40.5916 33.7646 39.9365 33.892V34.4196C39.9365 35.1565 39.982 35.8116 40.0639 36.4666C40.5461 36.4666 40.9009 36.4211 41.5923 36.9943C42.2928 37.5583 43.4664 37.249 44.0396 36.9943C44.6491 36.7304 45.3405 36.2028 46.3049 36.7759C46.5687 36.9033 47.5694 37.4673 48.1335 37.4673V37.4764ZM48.1335 39.3505C48.8889 39.3098 49.6228 39.0849 50.2714 38.6955C51.1448 38.2133 51.7543 38.4226 52.6277 38.8684C53.5375 39.3051 54.2835 39.1686 54.8111 38.8684C55.0659 38.6864 55.2842 38.3407 55.8483 38.4772C55.5935 39.5689 55.1932 40.5241 54.7202 41.3065C54.3485 41.4298 53.9561 41.4779 53.5656 41.4483C53.1752 41.4186 52.7945 41.3117 52.4458 41.1337C51.536 40.697 50.3988 40.4332 49.7893 40.8244C49.2949 41.1461 48.7228 41.3284 48.1335 41.352C47.6513 41.352 47.0418 41.1701 46.4777 40.8244C45.8682 40.4332 44.731 40.697 43.8212 41.1337C43.4731 41.3132 43.0927 41.4217 42.7023 41.4529C42.3118 41.4841 41.9191 41.4375 41.5468 41.3156C41.0737 40.5241 40.6825 39.5598 40.4187 38.4772C40.9827 38.3407 41.2011 38.6955 41.4649 38.8684C41.7911 39.0525 42.1593 39.1493 42.5339 39.1493C42.9085 39.1493 43.2767 39.0525 43.6029 38.8684C44.5126 38.4317 45.1222 38.2133 45.9955 38.6864C46.6433 39.079 47.3773 39.307 48.1335 39.3505V39.3505ZM48.1335 46.3193C49.8197 45.6658 51.3942 44.7543 52.8006 43.6173C52.4458 43.49 52.2365 43.5718 51.9272 43.3535C51.6179 43.1352 50.7081 43.0533 49.9257 43.49C49.3831 43.8065 48.7662 43.9732 48.138 43.9732C47.5099 43.9732 46.893 43.8065 46.3503 43.49C45.5589 43.0533 44.6491 43.1352 44.3489 43.3535C44.0396 43.5718 43.8212 43.49 43.4664 43.6264C44.8671 44.7693 46.4431 45.6786 48.1335 46.3193V46.3193Z" fill="#0B50A0"/>
</g>
<g id="Group_18">
<path id="Vector_78" d="M46.9961 28.0513C47.0416 28.1423 46.9597 28.3606 46.9961 28.4425C47.0871 28.6245 47.0871 28.7154 47.2145 28.7973H47.5238C48.479 28.7973 49.6163 28.4061 50.5715 28.4061C51.4904 28.4061 52.0544 28.7063 52.573 28.7063C52.8823 28.7063 53.1461 28.488 53.1461 28.2697C53.1461 28.0513 52.8004 27.9239 52.0544 27.9239C51.0082 27.9239 50.4441 28.1878 49.5708 28.1878C48.2607 28.1878 48.0424 27.7056 48.0424 27.4873C48.0424 27.2689 48.2607 26.9687 48.9612 26.9687C49.1796 26.9687 49.3524 26.9232 49.4434 26.8322C49.4889 26.7413 49.6162 26.5684 49.8801 26.441C50.1803 26.2591 50.7898 26.441 51.0992 26.2227C51.0992 26.4046 50.8353 26.6594 50.617 26.7503C51.0537 26.6139 51.5268 26.6139 51.6177 26.9687C51.3994 26.8322 51.0537 26.9232 50.9263 26.9687C50.7444 27.0051 50.6625 27.0597 50.4896 27.0961C50.6625 27.0506 50.7535 27.3963 51.0082 27.3963C50.7535 27.6146 50.3168 27.6146 49.8801 27.4418C49.7436 27.3963 49.3979 27.2689 49.1796 27.2689C48.7429 27.2689 48.479 27.3599 48.479 27.5327C48.479 27.7511 48.752 27.8785 49.5253 27.8785C50.3168 27.8785 50.7535 27.6601 51.927 27.6601C51.8361 27.5327 51.9725 27.3963 51.7997 27.2689C52.2364 27.2689 52.7094 27.3963 52.8914 27.7056C52.8459 27.3963 53.1006 27.1415 53.0188 26.8777C53.2826 26.9232 53.5009 27.1779 53.5373 27.3963C53.5373 27.2689 53.7193 27.2689 53.7193 27.1415C53.8409 27.2073 53.9394 27.309 54.0013 27.4327C54.0631 27.5564 54.0854 27.6962 54.065 27.833C54.1924 27.6146 54.3288 27.7056 54.4107 27.4418C54.5017 27.6237 54.4562 28.1423 54.1469 28.3151C54.4198 28.1332 54.8019 28.1332 55.0657 28.4425C54.8019 28.4061 54.6745 28.5335 54.5472 28.579C53.9124 28.9034 53.203 29.0541 52.4911 29.0157C51.7997 28.9702 51.7087 28.8337 51.272 28.8337C51.5358 28.8792 52.0544 29.4069 52.5457 29.4069C52.8459 29.4069 53.0643 29.4069 53.1916 29.3614C53.319 29.3159 53.5373 29.3614 53.7102 29.4523C53.8466 29.5797 54.1105 29.7071 54.2833 29.6707C54.2378 29.8435 54.1469 29.9254 54.0195 29.9709C54.2378 30.1074 54.1105 30.1893 54.3288 30.3621C54.2378 30.3621 54.1469 30.4531 54.0195 30.4076C54.1469 30.535 54.1469 30.7169 54.2833 30.7988C54.2378 30.7988 54.1014 30.8443 54.0195 30.7988C54.1469 30.9807 54.0195 31.19 54.1469 31.281C54.2833 31.4629 54.0195 31.6722 53.8012 31.4993C53.8466 31.6267 53.7102 31.7631 53.5828 31.7177C53.4554 31.6722 53.3645 31.5357 53.4009 31.4993C53.4009 31.4538 53.4009 31.4538 53.4554 31.4083C53.3645 31.5448 53.1916 31.5448 53.1006 31.4993C53.0643 31.4538 53.0097 31.4083 53.0097 31.3719C52.7094 31.4629 52.5821 31.19 52.6276 31.0626C52.664 30.9353 52.9278 30.8807 53.0188 30.9353C53.1097 30.9716 53.1916 31.0262 53.2826 30.9353C53.3736 30.8898 53.41 30.7988 53.41 30.7169C53.41 30.5805 53.2826 30.1893 52.7094 30.2347C52.0544 30.2802 51.0082 30.1074 50.4896 29.9254C50.4441 29.889 50.3986 29.889 50.3532 29.8344C50.3532 30.0164 50.1803 30.1074 50.1803 30.2802C50.1803 30.4986 50.2713 30.6714 50.5351 30.7533C50.3986 30.9716 50.1803 30.9353 50.0984 30.7988C50.0984 30.9353 49.9165 31.0171 49.9165 31.19C49.8801 31.099 49.8255 31.0626 49.7891 30.9716C49.6617 31.281 49.3069 31.4538 49.1341 31.3719C48.9157 31.5448 48.661 31.4993 48.57 31.3265C48.4427 31.4174 48.2607 31.4174 48.1788 31.3265C48.1788 31.4538 48.0878 31.4174 48.0424 31.5903C48.0424 31.6813 47.8695 31.7177 47.7876 31.6813C47.6966 31.6267 47.6512 31.4538 47.7421 31.3719C47.6148 31.4629 47.4783 31.4629 47.3964 31.3719C47.3964 31.281 47.3964 31.1536 47.4874 31.099H47.5693C47.4783 31.0626 47.3509 31.099 47.26 31.0626C47.169 30.9716 47.169 30.8807 47.2145 30.7988C47.26 30.7533 47.3964 30.6714 47.4874 30.7533L47.5238 30.7988C47.5238 30.7078 47.5693 30.6259 47.6148 30.6259C47.7058 30.5805 47.824 30.5805 47.9605 30.7169C48.0515 30.8443 48.1333 30.8443 48.3972 30.8079C48.6155 30.8079 48.9612 30.5804 49.216 30.3621C48.4881 30.2347 48.9157 29.7526 49.1341 29.5797C48.9612 29.5342 48.6974 29.5342 48.5245 29.6252C47.6148 30.1074 46.6504 30.6714 46.0409 30.4986C46.0494 30.5898 46.0806 30.6774 46.1319 30.7533C45.9954 30.7533 45.7316 30.7533 45.6497 30.6259C45.6042 30.7169 45.5223 30.9353 45.6042 31.1081C45.5132 31.0171 45.2585 30.9262 45.122 30.8898C45.213 30.9807 45.122 31.1536 45.1675 31.281C45.0401 31.1536 44.8218 31.0626 44.7308 31.1536C44.6399 31.2446 44.467 31.281 44.3396 31.2446C44.2548 31.3645 44.1336 31.4538 43.9939 31.4993C43.9939 31.4083 43.9939 31.281 43.9484 31.2355C43.9029 31.3719 43.7665 31.5448 43.6027 31.6267C43.6027 31.5357 43.6027 31.4083 43.5572 31.3265C43.5572 31.4993 43.2115 31.5903 43.166 31.7177C43.2115 31.5903 43.2115 31.4538 43.2115 31.3719C43.1632 31.4493 43.0996 31.5158 43.0244 31.5675C42.9493 31.6191 42.8643 31.6548 42.7748 31.6722C42.8112 31.5812 42.8658 31.4902 42.8112 31.4083C42.7748 31.5903 42.511 31.6813 42.2927 31.6267C42.2927 31.7177 42.1107 31.845 41.9015 31.7177C41.765 31.6722 41.6831 31.5357 41.765 31.4538C41.5921 31.4538 41.4193 31.281 41.5103 31.1536C41.5103 31.1081 41.5467 31.0626 41.5467 31.0171C41.4193 30.9262 41.3738 30.7533 41.5103 30.6259C41.5467 30.5805 41.6831 30.5805 41.765 30.5805C41.765 30.2347 42.0743 30.2347 42.2017 30.4895C42.2927 30.6259 42.5565 30.8443 42.7748 30.7988C42.8658 30.7988 42.9022 30.7533 42.9932 30.7533C43.3845 30.624 43.753 30.4336 44.0849 30.1893C44.1213 30.0619 44.1213 29.9709 44.1213 29.889C43.9484 29.98 43.7756 30.0619 43.6846 30.1893V30.0619C43.5572 30.0619 43.3389 30.0164 43.2479 30.0164C43.2934 29.9709 43.3389 29.7526 43.4299 29.7071C43.2115 29.7526 42.9932 29.7071 42.8112 29.6707C42.9022 29.5797 42.9022 29.4523 42.9477 29.3159C42.8567 29.3614 42.6384 29.2795 42.4655 29.3159C42.511 29.1885 42.5565 29.0157 42.6839 28.9702C42.5019 29.0157 42.2927 28.9702 42.0743 28.8792C42.2563 28.8792 42.3381 28.6609 42.4655 28.6609C42.1198 28.6609 42.0288 28.488 41.856 28.4061C41.9833 28.4425 42.0743 28.3151 42.2017 28.3151C42.0743 28.2697 41.856 28.0513 41.947 27.9239C41.9015 27.9694 41.856 28.0513 41.765 28.1059C41.674 28.1423 41.5103 28.1059 41.3738 27.9694C41.2828 27.7875 41.3283 27.5782 41.5103 27.5327C41.4703 27.5302 41.432 27.5162 41.3998 27.4925C41.3675 27.4688 41.3428 27.4364 41.3284 27.399C41.314 27.3617 41.3107 27.321 41.3187 27.2818C41.3268 27.2427 41.3459 27.2066 41.3738 27.1779C41.4193 27.087 41.5921 26.9687 41.6831 27.087L41.8105 27.2689C41.765 27.1779 41.765 27.0051 41.765 26.8777C41.8105 26.7503 41.9015 26.7503 42.0379 26.6958C42.1562 26.6958 42.2472 26.8322 42.2472 26.9687C42.2472 27.0961 42.2927 27.1779 42.3382 27.3599L42.3745 27.1779C42.3745 27.0051 42.5929 27.0506 42.7293 27.087C42.8567 27.1415 42.9022 27.3963 42.7293 27.5327C42.6384 27.6237 42.6839 27.7511 42.7748 27.833C43.0751 28.3151 43.5936 28.7063 44.0394 28.7518C44.0394 28.5699 44.1304 28.4061 44.2577 28.2697C44.2577 28.1787 44.2941 28.0513 44.3487 27.9694C44.3851 27.7056 44.5125 27.5782 44.6853 27.6601C44.6489 27.6146 44.5944 27.5691 44.5944 27.5327C44.467 27.3963 44.3396 27.1779 44.4306 27.0051C44.5216 26.8322 44.7763 26.8777 44.8673 26.9687C44.8218 26.6958 45.122 26.4865 45.122 26.3501C45.1675 26.4865 45.2585 26.6594 45.213 26.7867C45.2585 26.6139 45.5587 26.3955 45.7771 26.3137C45.6861 26.441 45.959 26.6594 45.9135 26.7867C46.0045 26.5684 46.3502 26.441 46.6049 26.441C46.514 26.532 46.514 26.7049 46.514 26.7867C46.6504 26.7867 46.8779 26.7503 46.9597 26.6139C46.9597 26.7958 46.8688 26.9687 46.7778 27.0506C46.8233 27.0051 46.9961 27.0051 47.1326 27.0051C46.9961 27.1415 47.0416 27.278 46.9143 27.3599C47.0871 27.2689 47.3055 27.2689 47.3509 27.4509C47.4419 27.5782 47.3055 27.7966 47.2145 27.9239C47.1235 27.9694 47.0416 28.0513 46.9961 28.0513V28.0513Z" fill="#F9D050" stroke="black" stroke-width="0.127367"/>
<g id="Group_19">
<path id="Vector_79" d="M44.3042 28.579C43.9949 28.7063 43.9039 29.0157 43.8584 29.1885" stroke="black" stroke-width="0.127367"/>
<path id="Vector_80" d="M44.4677 30.1984C44.7407 30.1074 44.9044 30.0164 45.1228 29.6252M44.2585 28.8792C43.8218 29.1521 43.6399 29.3614 43.7308 29.8436L44.2585 28.8792Z" stroke="black" stroke-width="0.127367"/>
<path id="Vector_81" d="M44.9955 29.7981C44.9046 29.98 44.9955 30.2802 44.8682 30.4076C44.9852 30.3494 45.0862 30.2634 45.1623 30.1571C45.2384 30.0509 45.2873 29.9276 45.3048 29.7981" stroke="black" stroke-width="0.127367"/>
<path id="Vector_82" d="M46.1231 29.4888V29.7071C46.305 29.5797 46.3505 29.4069 46.3505 29.1885M45.0859 30.2803C45.2588 30.1893 45.5226 29.9254 45.65 29.6252C45.6045 29.7526 45.65 29.9709 45.559 30.1074C45.7774 29.8891 45.8683 29.7526 45.9138 29.5342L45.9502 29.7162C46.0412 29.6252 46.1322 29.5342 46.1322 29.3614L45.0859 30.2803Z" stroke="black" stroke-width="0.127367"/>
<path id="Vector_83" d="M46.2597 27.2689C46.1687 27.2689 46.0777 27.3144 46.0777 27.4509C46.0777 27.5328 45.9504 27.6601 45.9504 27.7966C45.914 27.9694 45.823 28.0149 45.6956 27.9694C45.5592 27.8785 45.5592 27.8785 45.5592 27.7511C45.5592 27.5691 45.7775 27.5328 45.7775 27.3599C45.823 27.2689 45.8685 27.1416 45.914 27.1416C45.6956 27.2689 45.3863 27.178 45.3408 26.9232M46.3052 29.4524C46.569 29.2704 46.6054 29.0157 46.6054 28.6245L46.3052 29.4524ZM46.6054 29.0612C46.7873 28.9247 46.8237 28.8428 46.8237 28.4425L46.6054 29.0612Z" stroke="black" stroke-width="0.127367"/>
<path id="Vector_84" d="M46.6514 27.3963C46.5604 27.4418 46.4694 27.3053 46.3512 27.3599C46.3057 27.3599 46.1692 27.3963 46.1328 27.3599" stroke="black" stroke-width="0.127367"/>
<path id="Vector_85" d="M44.9949 27.0506C44.9039 27.2689 44.9494 27.5328 45.1222 27.5783M46.0411 27.6147C46.0866 27.6601 46.3049 27.7511 46.5233 27.6601C46.3413 27.7056 46.214 27.4873 46.3868 27.3599L46.0411 27.6147ZM45.6499 27.178C45.4679 27.178 45.3406 27.3144 45.3861 27.4509C45.4316 27.5783 45.6044 27.5783 45.7318 27.4873L45.6499 27.178ZM45.3406 29.3614C45.3861 29.3159 45.4316 29.234 45.4316 29.1794C45.5225 29.1794 45.6135 29.1431 45.6499 29.0976C45.8228 29.0976 45.9501 28.9702 45.9956 28.8428C46.0866 28.8428 46.1321 28.6245 46.1776 28.5335C46.2139 28.579 46.3049 28.5335 46.3504 28.3516C46.4414 28.4061 46.5688 28.3516 46.6051 28.2242L45.3406 29.3614ZM44.822 27.924C44.822 27.9695 44.731 28.0513 44.6401 28.1059C44.6856 28.1878 44.6401 28.4061 44.5582 28.4425C44.6037 28.5335 44.5582 28.6609 44.5127 28.7519C44.5127 28.7973 44.5582 28.9338 44.5582 28.9702L44.822 27.924Z" stroke="black" stroke-width="0.127367"/>
<path id="Vector_86" d="M53.0192 31.372C52.9283 31.281 52.9283 31.1536 53.0647 31.0626C53.1557 31.0171 53.1921 30.9717 53.2831 30.9353M45.0861 27.742C45.0406 27.9694 45.0406 28.2697 44.9951 28.4061C44.9496 28.4971 44.8678 28.7973 45.2135 28.8792C45.6047 28.9702 45.823 28.9247 46.0414 28.2697L45.0861 27.742ZM46.6964 29.9709C46.6964 30.0164 46.6509 30.1074 46.569 30.1074L46.6964 29.9709ZM46.9966 29.889C46.9966 29.98 46.9056 30.1074 46.8692 30.1438L46.9966 29.889ZM47.3059 29.7981C47.3059 29.889 47.3059 30.0164 47.215 30.0619L47.3059 29.7981ZM44.6494 27.0961C44.6858 27.0961 44.7404 27.187 44.7768 27.2689C44.6494 27.1779 44.513 27.3963 44.5948 27.5328L44.6494 27.0961ZM44.513 27.833L44.3401 27.9694L44.513 27.833ZM44.3856 28.2242C44.3401 28.2242 44.2946 28.2697 44.2582 28.2697L44.3856 28.2242ZM42.2931 27.4418C42.2931 27.3963 42.2931 27.3963 42.3386 27.3508L42.2931 27.4418ZM41.9019 27.3144C41.8565 27.3144 41.8565 27.3144 41.811 27.2689L41.9019 27.3144ZM41.9383 27.924H42.0293H41.9383ZM41.7655 27.6601C41.6964 27.5915 41.6071 27.5469 41.5107 27.5328L41.7655 27.6601ZM44.1672 29.2795C43.8579 29.5342 43.7306 29.7526 43.6851 30.0619L44.1672 29.2795ZM44.4675 29.4887C44.3902 29.6508 44.2708 29.789 44.1218 29.889L44.4675 29.4887ZM42.7753 30.7988C42.6297 30.8458 42.4752 30.8587 42.3238 30.8366C42.1724 30.8145 42.0281 30.758 41.9019 30.6714C41.8565 30.6259 41.811 30.6259 41.7655 30.5805L42.7753 30.7988ZM44.0763 30.1984C44.0399 30.3621 43.9853 30.5805 43.9034 30.6259C44.2582 30.444 44.5584 30.1893 44.6039 29.7981L44.0763 30.1984ZM41.5471 31.0171C41.6836 30.9717 41.8201 31.0626 41.9019 30.9717L41.5471 31.0171ZM49.1346 29.5797C49.2255 29.6252 49.3529 29.6707 49.3984 29.7071C49.4439 29.6161 49.6167 29.4887 49.7441 29.4524L49.1346 29.5797ZM46.0414 30.4986C45.9959 30.3166 46.0868 30.1074 46.3507 30.0164L46.0414 30.4986ZM44.3401 31.2355C44.3856 31.1445 44.3856 31.0171 44.4311 30.9353L44.3401 31.2355ZM42.4205 31.372C42.375 31.4629 42.2931 31.5448 42.2931 31.6267L42.4205 31.372ZM41.7655 31.4538C41.7655 31.4538 41.7655 31.4083 41.811 31.4083C41.9019 31.372 42.0293 31.281 42.0748 31.19L41.7655 31.4538ZM47.6971 30.8443C47.6062 30.8898 47.5698 30.8443 47.5243 30.7988L47.6971 30.8443ZM47.6516 31.0626C47.6516 31.0626 47.6152 31.1081 47.5607 31.1081L47.6516 31.0626ZM47.87 31.281C47.8245 31.3265 47.779 31.372 47.7426 31.372L47.87 31.281ZM49.1346 31.372C49.2255 31.3265 49.271 31.2355 49.3165 31.0626L49.1346 31.372ZM48.5705 31.3265C48.6979 31.281 48.7888 31.19 48.9162 31.0626L48.5705 31.3265ZM49.7896 30.9717C49.7896 30.8807 49.7896 30.7988 49.8351 30.7169L49.7896 30.9717Z" stroke="black" stroke-width="0.127367"/>
<path id="Vector_87" d="M46.9967 28.0513C46.9603 28.0968 46.9057 28.0513 46.9057 28.0513C46.8239 27.9603 46.9603 27.7966 47.0877 27.7056C46.9603 27.7511 46.8693 27.7511 46.7784 27.7511C46.6874 28.0149 46.4327 28.1423 46.2598 27.9694C46.2143 28.1423 45.996 28.3606 45.8231 28.3152C45.6412 28.2242 45.6048 28.0968 45.6412 27.9694C45.4319 28.2242 45.1681 28.0604 45.0862 27.9694C45.0407 27.8785 45.0862 27.6601 45.1772 27.3963M50.3537 29.8345C49.6623 29.5342 49.7078 29.143 49.1346 29.1885L50.3537 29.8345ZM53.456 31.1991C53.5015 31.2355 53.456 31.372 53.456 31.4083V31.1991ZM53.8472 31.1991C53.8017 31.3265 53.8017 31.372 53.8017 31.4993L53.8472 31.1991ZM50.4902 27.0961H50.1263H50.4902ZM46.8239 28.579C46.8239 28.67 46.9603 28.8428 47.306 28.8428C47.2605 28.8428 47.2151 28.7973 47.2151 28.7973L46.8239 28.579Z" stroke="black" stroke-width="0.127367"/>
</g>
<path id="Vector_88" d="M49.7895 29.7071C49.6621 29.7981 49.5256 29.7071 49.3983 29.8436C49.3073 29.9345 49.4438 29.9709 49.5257 29.9709C49.4893 30.1074 49.4893 30.1529 49.7076 30.1529C49.6166 30.2802 49.8805 30.3257 49.835 30.4986C49.8898 30.4418 49.9274 30.3706 49.9435 30.2934C49.9596 30.2161 49.9535 30.1359 49.9259 30.0619C49.8805 29.9254 49.653 29.8436 49.7895 29.7071Z" fill="black"/>
<g id="Group_20">
<path id="Vector_89" d="M45.8229 28.3151C45.641 28.2242 45.6046 28.0968 45.641 27.9694C45.6046 28.0604 45.5227 28.0968 45.4317 28.0968C45.2498 28.488 45.0405 28.8428 44.7767 28.8428C44.4674 28.8792 44.5129 29.1885 44.7312 29.1885C45.2134 29.2795 45.4317 29.0975 45.8229 28.3151V28.3151ZM41.5106 27.2689C41.638 27.1415 41.547 27.0051 41.4652 26.9687C41.3287 26.9232 41.074 26.9687 40.9375 27.1779C41.074 27.1415 41.2104 27.1415 41.2468 27.2234C41.2923 27.3144 41.3742 27.4054 41.5106 27.2689ZM41.729 26.4865C42.0292 26.4865 42.1202 26.532 42.1566 26.6594C42.2021 26.7503 42.1202 26.8777 42.0292 26.8777C41.9018 26.8777 41.7654 26.7867 41.8109 26.7503C41.8564 26.6594 41.8564 26.532 41.7199 26.4774L41.729 26.4865ZM42.5933 27.1779C42.8116 27.2234 42.9026 27.087 42.7752 26.9232C42.7297 26.7867 42.5933 26.7049 42.3749 26.7412C42.5933 26.8777 42.3749 27.0961 42.5933 27.1779ZM40.983 27.9239C41.0221 28.0013 41.0877 28.0622 41.1677 28.0956C41.2478 28.1289 41.3371 28.1326 41.4197 28.1059C41.547 28.0513 41.6016 27.9239 41.547 27.833C41.4561 27.7056 41.3287 27.6601 41.2923 27.833C41.2013 28.0149 41.074 27.9694 40.983 27.9239ZM41.638 30.5804C41.547 30.4076 41.2923 30.4076 41.074 30.5804C41.1649 30.535 41.3287 30.5804 41.3742 30.6714C41.4197 30.7624 41.5106 30.7624 41.5561 30.7624C41.5925 30.7169 41.6835 30.6714 41.638 30.5804V30.5804ZM41.9837 30.3257C41.9837 30.1074 41.6835 30.0528 41.5106 30.1438C41.6016 30.1438 41.729 30.2347 41.729 30.3257C41.7654 30.4167 41.8564 30.4531 41.9018 30.4531C41.9928 30.4076 42.0292 30.3621 41.9928 30.3257H41.9837ZM41.547 31.1081C41.2923 31.0626 41.1558 31.3719 41.1558 31.5812C41.2013 31.4538 41.3378 31.3719 41.4652 31.4083C41.5925 31.4083 41.638 31.3719 41.638 31.281C41.6835 31.19 41.638 31.1536 41.547 31.099V31.1081ZM41.5925 31.845C41.6835 31.8905 41.7745 31.7995 41.8109 31.6722C41.8109 31.5812 41.9928 31.5812 42.0292 31.6267C42.1202 31.6722 42.1202 31.845 41.9837 31.936C41.8928 31.9815 41.6835 32.027 41.5925 31.845ZM47.6515 30.535C47.5606 30.4986 47.3513 30.4076 47.1785 30.535C47.3058 30.4986 47.3968 30.5804 47.4332 30.6714C47.4332 30.7624 47.5697 30.7988 47.6152 30.7169C47.6515 30.6714 47.7061 30.5804 47.6515 30.535V30.535ZM47.2603 30.8443C47.0875 30.7533 46.8692 30.9716 46.8237 31.1536C46.9126 31.0811 47.0195 31.0339 47.133 31.0171C47.224 31.0626 47.3058 31.0171 47.3058 30.9262C47.3513 30.8898 47.3513 30.8443 47.2603 30.8443ZM47.4878 31.1991C47.3513 31.1991 47.1785 31.3719 47.1785 31.5448C47.2149 31.4538 47.3058 31.4083 47.3968 31.4538C47.4878 31.4538 47.6152 31.4083 47.6152 31.3264C47.6152 31.2355 47.5697 31.19 47.4787 31.19L47.4878 31.1991ZM47.8699 31.5448C47.7789 31.4993 47.6515 31.5448 47.6515 31.6722C47.6515 31.7995 47.6515 31.936 47.6152 31.9815C47.7061 31.8905 47.788 31.845 47.8699 31.7995C47.9154 31.7631 47.9609 31.6267 47.8699 31.5448V31.5448ZM52.8008 31.1536C52.7098 31.0626 52.5825 31.1081 52.537 31.19C52.4915 31.281 52.446 31.4993 52.537 31.6722C52.537 31.5812 52.6279 31.4538 52.7189 31.4538C52.8463 31.4083 52.8827 31.2355 52.8008 31.1536ZM53.0646 31.3264C52.8827 31.4174 52.8827 31.7176 53.0191 31.8905C53.0191 31.7995 53.0646 31.6722 53.1465 31.6267C53.283 31.6267 53.3285 31.4538 53.283 31.3719C53.192 31.281 53.101 31.3264 53.0646 31.3264ZM53.5832 31.4993C53.4922 31.4538 53.4012 31.5448 53.4012 31.6267C53.3649 31.7631 53.4558 31.936 53.5832 32.0179C53.5832 31.9269 53.6287 31.845 53.6742 31.7995C53.8015 31.7086 53.7652 31.5448 53.5832 31.4993ZM53.9744 31.4538C53.8834 31.4538 53.8015 31.5812 53.8834 31.7176C53.9289 31.8086 54.0199 31.845 54.1927 31.8086C54.1473 31.8086 54.0654 31.6722 54.1018 31.6267C54.1473 31.5357 54.1018 31.4538 53.9744 31.4538Z" fill="#073163"/>
</g>
</g>
<g id="h">
<path id="Vector_90" d="M41.8565 39.6053L44.0399 32.8912L46.2234 39.6053L40.501 35.4659H47.5789L41.8565 39.6053Z" fill="#F9D050"/>
<path id="Vector_91" d="M42.2933 38.9958L46.8239 35.6842H41.2471L45.7322 38.9958L44.04 33.6827L42.2933 38.9958Z" fill="#024919"/>
</g>
<g id="Group_21">
<path id="Vector_92" d="M41.8565 39.6053L44.0399 32.8912L46.2234 39.6053L40.501 35.4659H47.5789L41.8565 39.6053Z" fill="#F9D050"/>
<path id="Vector_93" d="M42.2933 38.9958L46.8239 35.6842H41.2471L45.7322 38.9958L44.04 33.6827L42.2933 38.9958Z" fill="#024919"/>
</g>
<g id="Group_22">
<path id="Vector_94" d="M41.8565 39.6053L44.0399 32.8912L46.2234 39.6053L40.501 35.4659H47.5789L41.8565 39.6053Z" fill="#F9D050"/>
<path id="Vector_95" d="M42.2933 38.9958L46.8239 35.6842H41.2471L45.7322 38.9958L44.04 33.6827L42.2933 38.9958Z" fill="#024919"/>
</g>
<path id="Vector_96" d="M56.2847 25.9225V34.4196C56.2847 41.7887 52.8003 44.3179 48.1332 46.3193C43.4661 44.3179 39.9453 41.7887 39.9453 34.4196V25.9134H56.2847V25.9225Z" stroke="black" stroke-width="0.127367"/>
</g>
</g>
</g>
<defs>
<clipPath id="clip0_2909_185361">
<path d="M0.246094 32C0.246094 14.3269 14.573 0 32.2461 0V0C49.9192 0 64.2461 14.3269 64.2461 32V32C64.2461 49.6731 49.9192 64 32.2461 64V64C14.573 64 0.246094 49.6731 0.246094 32V32Z" fill="white"/>
</clipPath>
</defs>
</svg>
