<svg width="65" height="64" viewBox="0 0 65 64" fill="none" xmlns="http://www.w3.org/2000/svg">
<g id="Rounded=Kazakhstan (KZ)">
<g clip-path="url(#clip0_2909_185359)">
<g id="Group">
<path id="Vector" fill-rule="evenodd" clip-rule="evenodd" d="M0.246094 0H64.2461V64H0.246094V0Z" fill="#00ABC2"/>
<g id="Group_2">
<path id="Vector_2" fill-rule="evenodd" clip-rule="evenodd" d="M5.62031 62.25C6.05781 62.6625 5.90781 63.375 7.12031 63.2875C8.95781 63.2875 9.00781 62.1625 9.00781 61.375C9.00781 60.5875 6.25781 59.5 6.13281 58.3375C6.00781 57.175 6.77031 56.8625 7.40781 56.8625C8.03281 56.8625 8.48281 57.2375 8.48281 57.55C8.48281 57.8625 8.17031 57.9625 7.73281 57.9625C7.29531 57.9625 7.92031 57.7375 7.53281 57.55C7.14531 57.3625 6.90781 57.825 6.90781 58.1125C6.90781 58.3875 7.85781 58.475 8.48281 58.275C8.60781 58.9 8.68281 58.9375 7.78281 60C8.42031 59.5875 8.48281 59.5 9.18281 59.725C8.48281 59.125 9.00781 57.9 9.03281 57.5875C9.05781 57.275 8.90781 56.9 8.62031 56.7125C8.10781 56.2625 6.99531 56.2375 6.33281 56.5375C5.35781 56.9625 5.30781 58.2375 5.57031 58.6625L8.25781 61.4125C8.44531 61.7375 8.50781 62.6375 7.37031 62.6875C6.15781 62.775 5.74531 61.1375 5.53281 60.5875C5.24531 61.1875 4.93281 62.8375 3.72031 62.7375C2.58281 62.7 2.35781 61.8 2.54531 61.475L5.30781 58.6625C5.55781 58.2375 5.52031 56.9625 4.55781 56.5375C3.88281 56.2375 2.77031 56.2625 2.25781 56.725C1.98281 56.9 1.82031 57.275 1.84531 57.5875C1.87031 57.9 2.39531 59.125 1.69531 59.7125C2.39531 59.4875 2.44531 59.5875 3.08281 60C2.20781 58.9375 2.25781 58.8875 2.39531 58.2625C3.02031 58.475 3.98281 58.3875 3.98281 58.1125C3.98281 57.825 3.73281 57.3625 3.34531 57.55C2.97031 57.7375 3.59531 57.9625 3.15781 57.9625C2.70781 57.9625 2.39531 57.875 2.39531 57.55C2.39531 57.225 2.83281 56.8625 3.47031 56.8625C4.10781 56.8625 4.87031 57.1875 4.73281 58.3375C4.60781 59.4875 1.79531 60.75 1.79531 61.5375C1.79531 62.325 1.99531 63.2875 3.83281 63.2875C5.04531 63.375 5.18281 62.6625 5.62031 62.2375V62.25Z" fill="#FFEC2D"/>
<path id="Vector_3" fill-rule="evenodd" clip-rule="evenodd" d="M5.4709 45.75C5.9084 45.325 6.2584 44.0625 7.4709 44.1625C9.3084 44.1625 10.0084 45.175 10.0084 45.9625C10.0084 46.75 6.2584 53.175 6.1334 54.3375C6.0084 55.4875 6.7709 55.8125 7.4084 55.8125C8.0334 55.8125 8.4834 55.4375 8.4834 55.1125C8.4834 54.7875 8.1709 54.7 7.7334 54.7C7.2959 54.7 7.9084 54.925 7.5334 55.1125C7.1584 55.3 6.9084 54.8375 6.9084 54.5625C6.9084 54.275 7.8459 54.1875 8.4834 54.4C8.6084 53.775 8.6709 53.725 7.7834 52.6625C8.4209 53.075 8.4834 53.1625 9.1834 52.9375C8.4834 53.5375 9.0084 54.7625 9.0334 55.075C9.0584 55.3875 8.9084 55.7625 8.6084 55.95C8.1084 56.4125 6.9834 56.425 6.3334 56.125C5.3584 55.7 5.3084 54.425 5.5709 54L9.1834 46.1875C9.3709 45.8625 8.8709 44.8125 7.7209 44.7625C6.5209 44.6625 6.0959 45.925 5.8959 46.475L7.5334 46.35C7.5334 46.35 7.5959 46.6 7.5334 46.775C6.6834 46.825 5.8959 46.9875 5.8959 46.9875L5.8334 47.8125H6.6459L6.5709 48.1875C6.5709 48.1875 5.8959 48.1375 5.8209 48.1875C5.7584 48.2375 5.6959 49.025 5.6959 49.025C5.6959 49.025 5.5709 49.0625 5.4459 49.0625C5.2959 49.0625 5.1709 49.025 5.1709 49.025C5.1709 49.025 5.1084 48.2375 5.0459 48.1875C4.9834 48.1375 4.2959 48.1875 4.2959 48.1875L4.2334 47.8125H5.0459L4.9834 46.9875C4.9834 46.9875 4.1834 46.825 3.3334 46.775C3.2709 46.6125 3.3334 46.3625 3.3334 46.3625L4.9834 46.4875C4.7709 45.925 4.3584 44.6625 3.1459 44.7625C2.0084 44.8 1.4959 45.8625 1.6834 46.1875L5.3084 54C5.5584 54.425 5.5084 55.7 4.5459 56.125C3.8834 56.425 2.7709 56.4125 2.2584 55.95C1.9709 55.7625 1.8209 55.3875 1.8459 55.075C1.8709 54.7625 2.3834 53.5375 1.6834 52.95C2.3834 53.175 2.4459 53.075 3.0834 52.6625C2.2084 53.725 2.2584 53.775 2.3834 54.4C3.0209 54.1875 3.9709 54.275 3.9709 54.5625C3.9709 54.8375 3.7209 55.3 3.3459 55.1125C2.9584 54.925 3.5959 54.7 3.1459 54.7C2.7084 54.7 2.3959 54.7875 2.3959 55.1125C2.3959 55.4375 2.8334 55.8125 3.4709 55.8125C4.1084 55.8125 4.8584 55.4875 4.7334 54.325C4.6084 53.175 0.858398 46.75 0.858398 45.95C0.858398 45.175 1.5584 44.1625 3.3959 44.1625C4.6084 44.0625 5.0334 45.325 5.4709 45.75V45.75Z" fill="#FFEC2D"/>
<path id="Vector_4" fill-rule="evenodd" clip-rule="evenodd" d="M5.4707 42.5625C5.9082 42.9875 6.2582 44.25 7.4707 44.15C9.3082 44.15 10.0082 43.1375 10.0082 42.35C10.0082 41.5625 6.2582 35.1375 6.1332 33.975C6.0082 32.825 6.7707 32.5 7.4082 32.5C8.0332 32.5 8.4832 32.875 8.4832 33.2C8.4832 33.525 8.1707 33.6125 7.7332 33.6125C7.2957 33.6125 7.9207 33.3875 7.5332 33.2C7.1457 33.0125 6.9082 33.475 6.9082 33.75C6.9082 34.0375 7.8457 34.125 8.4832 33.9125C8.6082 34.5375 8.6707 34.5875 7.7832 35.65C8.4207 35.2375 8.4832 35.15 9.1832 35.375C8.4832 34.775 9.0082 33.55 9.0332 33.2375C9.0582 32.925 8.9082 32.55 8.6082 32.3625C8.1082 31.9 6.9832 31.8875 6.3332 32.1875C5.3582 32.6125 5.3082 33.8875 5.5707 34.3125L9.1832 42.125C9.3707 42.45 8.8707 43.5 7.7207 43.55C6.5207 43.65 6.0957 42.3875 5.8957 41.8375L7.5332 41.9625C7.5332 41.9625 7.5957 41.7125 7.5332 41.5375C6.6832 41.475 5.8957 41.325 5.8957 41.325L5.8332 40.5H6.6207L6.5582 40.125C6.5582 40.125 5.8832 40.175 5.8082 40.125C5.7582 40.075 5.6832 39.2875 5.6832 39.2875C5.6832 39.2875 5.5582 39.25 5.4332 39.25C5.2832 39.25 5.1582 39.2875 5.1582 39.2875C5.1582 39.2875 5.0957 40.075 5.0332 40.125C4.9707 40.175 4.2832 40.125 4.2832 40.125L4.2207 40.5H5.0332L4.9707 41.325C4.9707 41.325 4.1707 41.475 3.3207 41.5375C3.2582 41.7 3.3207 41.95 3.3207 41.95L4.9707 41.825C4.7582 42.3875 4.3457 43.65 3.1332 43.55C1.9957 43.5125 1.4832 42.45 1.6832 42.125L5.2957 34.3125C5.5457 33.8875 5.4957 32.6125 4.5332 32.1875C3.8707 31.8875 2.7582 31.9 2.2457 32.3625C1.9582 32.55 1.8082 32.925 1.8332 33.2375C1.8582 33.55 2.3707 34.775 1.6707 35.3625C2.3707 35.1375 2.4332 35.2375 3.0707 35.65C2.1832 34.5875 2.2457 34.5375 2.3707 33.9125C3.0082 34.125 3.9582 34.0375 3.9582 33.75C3.9582 33.4625 3.7082 33.0125 3.3332 33.2C2.9582 33.3875 3.5832 33.6125 3.1332 33.6125C2.6957 33.6125 2.3832 33.525 2.3832 33.2C2.3832 32.875 2.8207 32.5125 3.4582 32.5125C4.0957 32.5125 4.8457 32.825 4.7207 33.9875C4.5957 35.1375 0.845703 41.5625 0.845703 42.3625C0.845703 43.1375 1.5457 44.15 3.3832 44.15C4.5957 44.25 5.0207 42.9875 5.4582 42.5625H5.4707Z" fill="#FFEC2D"/>
<path id="Vector_5" fill-rule="evenodd" clip-rule="evenodd" d="M5.4709 21.4C5.9084 20.975 6.2584 19.7125 7.4709 19.8C9.3084 19.8 10.0084 20.825 10.0084 21.6125C10.0084 22.3875 6.2584 28.8125 6.1334 29.975C6.0084 31.125 6.7709 31.45 7.4084 31.45C8.0334 31.45 8.4834 31.075 8.4834 30.7625C8.4834 30.45 8.1709 30.3375 7.7334 30.3375C7.2959 30.3375 7.9084 30.575 7.5334 30.7625C7.1584 30.95 6.9084 30.4875 6.9084 30.2C6.9084 29.925 7.8459 29.825 8.4834 30.0375C8.6084 29.4125 8.6709 29.375 7.7834 28.3125C8.4209 28.725 8.4834 28.8125 9.1834 28.5875C8.4834 29.1875 9.0084 30.4125 9.0334 30.7125C9.0584 31.0125 8.9084 31.4 8.6084 31.5875C8.1084 32.05 6.9834 32.075 6.3334 31.775C5.3584 31.3375 5.3084 30.0625 5.5709 29.65L9.1834 21.8375C9.3709 21.5125 8.8709 20.45 7.7209 20.4C6.5209 20.3125 6.0959 21.575 5.8959 22.125L7.5334 22C7.5334 22 7.5959 22.25 7.5334 22.425C6.6834 22.475 5.8959 22.625 5.8959 22.625L5.8334 23.4625H6.6459L6.5709 23.8375C6.5709 23.8375 5.8959 23.7875 5.8209 23.8375C5.7584 23.875 5.6959 24.6625 5.6959 24.6625C5.6959 24.6625 5.5709 24.7125 5.4459 24.7125C5.2959 24.7125 5.1709 24.6625 5.1709 24.6625C5.1709 24.6625 5.1084 23.875 5.0459 23.8375C4.9834 23.7875 4.2959 23.8375 4.2959 23.8375L4.2334 23.4625H5.0459L4.9834 22.625C4.9834 22.625 4.1834 22.475 3.3334 22.425C3.2709 22.2625 3.3334 22 3.3334 22L4.9834 22.125C4.7709 21.575 4.3584 20.3125 3.1459 20.4C2.0084 20.45 1.4959 21.5125 1.6834 21.8375L5.3084 29.65C5.5584 30.0625 5.5084 31.3375 4.5459 31.775C3.8834 32.075 2.7709 32.05 2.2584 31.5875C1.9709 31.4125 1.8209 31.0375 1.8459 30.7125C1.8709 30.3875 2.3834 29.1875 1.6834 28.5875C2.3834 28.8125 2.4459 28.725 3.0834 28.3125C2.2084 29.375 2.2584 29.425 2.3834 30.0375C3.0209 29.8375 3.9709 29.925 3.9709 30.2C3.9709 30.475 3.7209 30.95 3.3459 30.7625C2.9584 30.575 3.5959 30.3375 3.1459 30.3375C2.7084 30.3375 2.3959 30.4375 2.3959 30.7625C2.3959 31.0875 2.8334 31.45 3.4709 31.45C4.1084 31.45 4.8584 31.125 4.7334 29.975C4.6084 28.8125 0.858398 22.3875 0.858398 21.6C0.858398 20.825 1.5584 19.8 3.3959 19.8C4.6084 19.7125 5.0334 20.975 5.4709 21.4V21.4Z" fill="#FFEC2D"/>
<path id="Vector_6" fill-rule="evenodd" clip-rule="evenodd" d="M5.4709 18.2125C5.9084 18.6375 6.2584 19.8875 7.4709 19.8C9.3084 19.8 10.0084 18.7875 10.0084 18C10.0084 17.2125 6.2584 10.7875 6.1334 9.62498C6.0084 8.47498 6.7709 8.14998 7.4084 8.14998C8.0334 8.14998 8.4834 8.52498 8.4834 8.83748C8.4834 9.14998 8.1709 9.26248 7.7334 9.26248C7.2959 9.26248 7.9209 9.02498 7.5334 8.83748C7.1459 8.64998 6.9084 9.12498 6.9084 9.39998C6.9084 9.67498 7.8459 9.77498 8.4834 9.56248C8.6084 10.1875 8.6709 10.225 7.7834 11.2875C8.4209 10.875 8.4834 10.7875 9.1834 11.0125C8.4834 10.4125 9.0084 9.18748 9.0334 8.88748C9.0584 8.58748 8.9084 8.19998 8.6084 8.01248C8.1084 7.54998 6.9834 7.52498 6.3334 7.82498C5.3584 8.26248 5.3084 9.53748 5.5709 9.94998L9.1834 17.7625C9.3709 18.0875 8.8709 19.15 7.7209 19.2C6.5209 19.2875 6.0959 18.025 5.8959 17.475L7.5334 17.6C7.5334 17.6 7.5959 17.35 7.5334 17.175C6.98424 17.1392 6.43753 17.0724 5.8959 16.975L5.8334 16.1375H6.6209L6.5584 15.7625C6.5584 15.7625 5.8834 15.8125 5.8084 15.7625C5.7584 15.725 5.6834 14.9375 5.6834 14.9375C5.6834 14.9375 5.5584 14.8875 5.4334 14.8875C5.2834 14.8875 5.1584 14.9375 5.1584 14.9375C5.1584 14.9375 5.0959 15.725 5.0334 15.775C4.9709 15.8125 4.2834 15.775 4.2834 15.775L4.2209 16.15H5.0334L4.9709 16.975C4.9709 16.975 4.1709 17.125 3.3209 17.175C3.28597 17.3145 3.28597 17.4605 3.3209 17.6L4.9709 17.475C4.7584 18.025 4.3459 19.2875 3.1334 19.2C1.9959 19.15 1.4834 18.0875 1.6834 17.7625L5.2959 9.94998C5.5459 9.53748 5.4959 8.26248 4.5334 7.82498C3.8709 7.52498 2.7584 7.54998 2.2459 8.01248C1.9584 8.19998 1.8084 8.56248 1.8334 8.88748C1.8584 9.21248 2.3709 10.4125 1.6709 11.0125C2.3709 10.7875 2.4334 10.8875 3.0709 11.2875C2.1834 10.225 2.2459 10.1875 2.3709 9.56248C3.0084 9.76248 3.9584 9.68748 3.9584 9.39998C3.9584 9.11248 3.7084 8.64998 3.3334 8.83748C2.9584 9.02498 3.5834 9.26248 3.1334 9.26248C2.6959 9.26248 2.3834 9.16248 2.3834 8.83748C2.3834 8.51248 2.8209 8.14998 3.4584 8.14998C4.0959 8.14998 4.8584 8.47498 4.7334 9.62498C4.6084 10.7875 0.858398 17.2125 0.858398 18C0.858398 18.7875 1.5584 19.8 3.3959 19.8C4.6084 19.8875 5.0334 18.6375 5.4709 18.2125V18.2125Z" fill="#FFEC2D"/>
<path id="Vector_7" fill-rule="evenodd" clip-rule="evenodd" d="M5.62031 1.71249C6.05781 1.28749 5.90781 0.587487 7.12031 0.662487C8.95781 0.662487 9.00781 1.78749 9.00781 2.57499C9.00781 3.36249 6.25781 4.46249 6.13281 5.61249C6.00781 6.77499 6.77031 7.09999 7.40781 7.09999C8.03281 7.09999 8.48281 6.72499 8.48281 6.39999C8.48281 6.07499 8.17031 5.99999 7.74531 5.99999C7.32031 5.99999 7.93281 6.23749 7.54531 6.41249C7.15781 6.58749 6.92031 6.13749 6.92031 5.86249C6.92031 5.58749 7.87031 5.48749 8.49531 5.69999C8.62031 5.07499 8.69531 5.02499 7.79531 3.96249C8.42031 4.37499 8.49531 4.46249 9.18281 4.24999C8.48281 4.84999 9.00781 6.07499 9.03281 6.37499C9.05781 6.67499 8.90781 7.06249 8.62031 7.24999C8.10781 7.71249 6.99531 7.73749 6.33281 7.43749C5.35781 6.99999 5.30781 5.72499 5.57031 5.31249L8.25781 2.56249C8.44531 2.22499 8.50781 1.32499 7.37031 1.27499C6.15781 1.18749 5.74531 2.83749 5.53281 3.37499C5.24531 2.77499 4.93281 1.12499 3.72031 1.21249C2.58281 1.26249 2.35781 2.16249 2.54531 2.48749L5.30781 5.29999C5.55781 5.71249 5.52031 6.98749 4.55781 7.42499C3.88281 7.72499 2.77031 7.69999 2.25781 7.23749C1.98281 7.04999 1.82031 6.68749 1.84531 6.36249C1.87031 6.03749 2.39531 4.83749 1.69531 4.23749C2.39531 4.46249 2.44531 4.36249 3.08281 3.94999C2.20781 5.01249 2.25781 5.07499 2.39531 5.68749C3.02031 5.47499 3.98281 5.56249 3.98281 5.84999C3.98281 6.12499 3.73281 6.59999 3.34531 6.39999C2.97031 6.22499 3.59531 5.98749 3.15781 5.98749C2.70781 5.98749 2.39531 6.08749 2.39531 6.39999C2.39531 6.71249 2.83281 7.09999 3.47031 7.09999C4.10781 7.09999 4.87031 6.77499 4.73281 5.61249C4.60781 4.46249 1.79531 3.19999 1.79531 2.41249C1.79531 1.62499 1.99531 0.662487 3.83281 0.662487C5.04531 0.574987 5.18281 1.28749 5.62031 1.71249V1.71249Z" fill="#FFEC2D"/>
</g>
<g id="Group_3">
<path id="Vector_8" d="M47.2584 28.1437C47.2584 22.576 42.4958 18.0625 36.6209 18.0625C30.746 18.0625 25.9834 22.576 25.9834 28.1437C25.9834 33.7115 30.746 38.225 36.6209 38.225C42.4958 38.225 47.2584 33.7115 47.2584 28.1437Z" fill="#FFEC2D"/>
<path id="Vector_9" fill-rule="evenodd" clip-rule="evenodd" d="M36.1205 12.05C36.0205 12.05 35.5455 15.4 35.3705 16.15C35.1955 17.8375 37.6205 17.775 37.2205 16.0875L36.1205 12.0375V12.05ZM36.9705 44.525C37.058 44.525 37.783 41.2125 38.0205 40.475C38.308 38.8125 35.883 38.725 36.1455 40.425L36.9705 44.525V44.525ZM20.0205 28.075C20.0205 28.1625 23.508 28.8625 24.283 29.0875C26.033 29.375 26.158 27.0875 24.358 27.3375L20.0205 28.0875V28.075ZM53.983 28.475C53.983 28.3875 50.458 27.8125 49.6705 27.6125C47.908 27.4 47.8955 29.6875 49.6705 29.375L53.983 28.475ZM23.5955 17.45C23.533 17.5125 25.833 20.1125 26.2955 20.75C27.4955 22 29.083 20.25 27.4955 19.4L23.5955 17.4625V17.45ZM49.983 38.825C50.0455 38.7625 47.5205 36.3625 46.9955 35.775C45.683 34.625 44.2705 36.4875 45.9205 37.2125L49.983 38.8375V38.825ZM28.858 13.825C28.783 13.8625 29.858 17.0875 30.033 17.85C30.633 19.4375 32.808 18.4 31.683 17.0375L28.8705 13.825H28.858ZM44.2455 42.875C44.333 42.8375 43.4955 39.55 43.383 38.7875C42.8955 37.1625 40.658 38.0375 41.6705 39.4875L44.258 42.8625L44.2455 42.875ZM48.033 16.075C47.958 16.0125 45.183 18.15 44.508 18.575C43.1705 19.7 44.983 21.225 45.908 19.7375L48.033 16.075ZM25.158 40.2875C25.2205 40.35 28.158 38.4125 28.858 38.025C30.2705 37 28.583 35.35 27.5455 36.775L25.1705 40.2875H25.158ZM20.783 22.275C20.7455 22.35 23.783 24.1125 24.4455 24.575C26.008 25.3875 26.9205 23.2625 25.133 22.925L20.783 22.275V22.275ZM52.4955 34.575C52.533 34.5 49.6205 32.5375 48.9955 32.0375C47.4955 31.1125 46.433 33.175 48.1955 33.625L52.4955 34.575V34.575ZM42.4205 12.9625C42.333 12.9375 40.5955 15.8875 40.133 16.525C40.1339 16.7286 40.1984 16.9268 40.3176 17.0918C40.4368 17.2568 40.6047 17.3804 40.7977 17.4452C40.9907 17.51 41.1991 17.5128 41.3938 17.4531C41.5884 17.3934 41.7595 17.2743 41.883 17.1125L42.4205 12.9625ZM30.683 43.5C30.7705 43.5375 32.7205 40.7 33.2205 40.0875C34.133 38.6375 31.9205 37.7125 31.508 39.3875L30.683 43.5V43.5ZM20.9955 34.8375C21.033 34.9125 24.4955 34.0875 25.308 33.9625C27.008 33.4875 26.058 31.3875 24.558 32.3625L20.9955 34.8375ZM52.508 22C52.483 21.925 48.9705 22.5125 48.158 22.5875C46.408 22.95 47.2205 25.1125 48.783 24.2375L52.508 22V22Z" fill="#FFEC2D"/>
<path id="Vector_10" fill-rule="evenodd" clip-rule="evenodd" d="M39.5705 12.2625C39.483 12.25 38.308 15.4375 37.958 16.1375C37.4455 17.7625 39.833 18.1625 39.7955 16.4375L39.583 12.25L39.5705 12.2625ZM33.508 44.25C33.5955 44.275 35.008 41.1625 35.408 40.475C36.033 38.9 33.683 38.35 33.5955 40.0625L33.4955 44.25H33.508ZM32.2955 12.575C32.208 12.6 32.533 15.975 32.533 16.75C32.7705 18.4125 35.108 17.8375 34.333 16.2875L32.2955 12.575V12.575ZM40.7955 44.0625C40.883 44.05 40.7955 40.6625 40.858 39.8875C40.7455 38.2 38.358 38.625 39.033 40.225L40.783 44.0625H40.7955ZM26.2705 15.375C26.1955 15.425 27.858 18.4125 28.1705 19.125C29.0705 20.5875 31.008 19.2125 29.6455 18.05L26.2705 15.375ZM46.8705 41.3625C46.9455 41.3125 45.4955 38.2125 45.2455 37.4875C44.458 35.975 42.433 37.225 43.6955 38.4625L46.8705 41.3625ZM21.8705 19.575C21.8205 19.65 24.508 21.875 25.0705 22.45C26.458 23.5 27.7455 21.55 26.0455 20.9375L21.8705 19.575ZM51.1455 37.0375C51.1955 36.9625 48.683 34.5625 48.158 33.9625C46.858 32.825 45.433 34.6875 47.083 35.4125L51.1455 37.0375ZM19.9455 24.8125C19.9205 24.9 23.233 26.1625 23.958 26.525C25.633 27.0875 26.1705 24.85 24.3455 24.8L19.9455 24.8125V24.8125ZM53.3705 32.0375C53.408 31.9625 50.1955 30.4875 49.4955 30.075C47.8705 29.4 47.158 31.6 48.9705 31.775L53.3705 32.0375ZM19.833 31.25C19.8455 31.325 23.4205 31.275 24.233 31.3375C26.008 31.25 25.583 28.9875 23.883 29.6L19.833 31.25ZM53.608 25.625C53.608 25.5375 50.033 25.35 49.233 25.2375C47.4455 25.2125 47.708 27.5 49.4455 26.9875L53.608 25.6125V25.625ZM22.8955 37.925C22.9455 38 26.1455 36.475 26.8955 36.1875C28.4455 35.375 27.0205 33.5125 25.783 34.775L22.8955 37.925ZM50.683 18.8875C50.633 18.8125 47.3455 20.125 46.558 20.3625C44.9455 21.075 46.233 23.025 47.558 21.85L50.683 18.8875V18.8875ZM28.0955 42.35C28.1705 42.3875 30.458 39.7875 31.033 39.2375C32.1205 37.9 30.033 36.7375 29.4205 38.3625L28.0955 42.35ZM45.558 14.375C45.4955 14.325 43.0205 16.7625 42.408 17.275C41.233 18.5375 43.233 19.8375 43.958 18.2625L45.5455 14.375H45.558Z" fill="#FFEC2D"/>
<g id="Group_4">
<path id="Vector_11" fill-rule="evenodd" clip-rule="evenodd" d="M20.3559 34.8491C20.5469 35.4938 20.5742 39.1039 24.4206 42.585C28.2398 46.0404 34.787 46.8139 34.787 46.8139C34.787 46.8139 34.8143 47.3039 34.3506 47.3297C33.8868 47.3812 31.6498 46.9429 30.5314 46.6077C29.4402 46.2982 28.4581 45.7309 28.349 45.7567C28.2126 45.8083 27.9943 46.1693 27.667 46.1177C27.3396 46.0662 25.7574 44.519 25.0481 44.1064C23.6294 42.9473 22.3734 41.6215 21.3107 40.1611C20.5469 39.0007 20.3559 38.2271 20.1104 38.2271C19.8649 38.2271 18.9646 38.7944 18.9646 38.7944C18.9646 38.7944 18.1462 37.634 17.437 35.7774C16.7004 33.9208 16.7822 32.8378 16.9459 32.7604C17.1369 32.6831 17.1369 34.1271 17.6825 35.4422C18.2281 36.7831 18.9919 37.1957 18.9919 37.1957C18.9919 37.1957 18.5009 36.4995 18.119 34.7718C17.737 33.0441 17.5734 31.368 17.8462 30.8523C18.119 30.3365 18.3645 30.1818 18.3918 30.2076C18.4463 30.2592 17.928 31.007 18.2826 32.9925C18.6373 34.9781 19.5921 36.6542 19.8103 36.5768C20.0286 36.4995 19.6739 36.0869 19.5375 34.9265C19.4011 33.7661 19.6739 33.0441 19.974 32.9409C20.1104 32.8378 20.3286 34.2303 20.3559 34.8491V34.8491ZM17.6825 38.1498C16.9459 37.5051 15.8002 35.2617 15.5546 35.3649C15.2818 35.4938 17.4097 38.7171 17.4642 38.9749C17.5188 39.2844 17.9826 40.1611 17.6279 40.0322C17.2733 39.9032 14.7362 37.3762 15.0363 37.8661C15.3364 38.3561 17.246 40.5737 17.1369 40.7026C17.0278 40.8315 15.5546 39.4649 15.5001 39.6454C15.4728 39.8001 16.9459 41.141 16.9186 41.2957C16.8914 41.4504 15.9638 40.4447 15.9638 40.651C15.9638 40.8573 16.9186 41.863 16.9186 42.0177C16.9186 42.1724 16.1002 41.2957 16.373 41.7599C16.6186 42.2756 17.3278 42.7139 17.3006 42.8687C17.2733 43.0234 16.7004 42.6624 16.7004 42.7397C16.7004 42.8171 17.7643 43.1781 18.0098 43.4617C18.2826 43.7454 20.0286 45.6536 21.338 46.6077C22.6474 47.5618 26.4121 49.2379 26.6849 49.2379C26.9304 49.2379 27.3123 48.7221 27.2305 48.5158C27.1486 48.3096 23.4658 47.1234 22.4565 46.2467C21.4198 45.3699 18.9101 43.2555 18.6918 43.1523C18.5009 43.0234 17.928 43.0749 17.928 42.946C17.928 42.8171 18.6646 43.0234 18.61 42.946C18.5827 42.8687 17.6006 42.4561 17.6279 42.3787C17.6825 42.3014 18.3099 42.5334 18.3099 42.4561C18.3099 42.3787 17.1642 41.7856 17.2187 41.6567C17.246 41.5278 18.0644 42.0177 18.0644 41.9146C18.0644 41.863 16.9732 41.141 17.0005 41.012C17.0278 40.8831 17.8462 41.5793 17.8189 41.4246C17.7916 41.2699 17.1642 40.3932 17.1642 40.29C17.1642 40.1611 18.1462 41.1668 18.2554 40.9605C18.3099 40.78 17.9007 39.1039 17.928 39.0781C17.9553 39.0523 18.6646 39.4391 18.7737 39.207C18.9101 38.9491 18.2826 38.6139 17.6825 38.1498V38.1498ZM30.2586 50.8366C29.7402 50.914 29.4947 50.7335 29.7948 50.3209C30.204 50.3209 31.2952 49.9857 31.6771 49.8309C32.059 49.6762 32.4682 49.4699 32.7956 49.1863C33.123 48.8511 33.3412 49.3668 33.1502 49.6504C33.0138 49.8309 32.3864 50.1662 31.9226 50.3467C31.2406 50.553 30.6405 50.8624 30.2586 50.8366ZM33.6686 49.5215C33.3139 49.1605 33.614 48.9026 34.1323 48.619C34.8962 48.2322 34.6779 47.6907 35.66 47.2523C36.0965 46.9945 42.2072 44.6737 44.1986 43.436C46.1901 42.1982 51.7825 38.2013 53.2829 35.4422C54.756 32.7089 54.0467 32.5026 54.265 32.3994C54.4559 32.2705 54.6742 32.7862 54.6469 33.4051C54.5923 33.9982 54.1013 35.8032 54.265 35.9837C54.4286 36.1642 56.5019 34.5655 57.3749 32.6315C58.2478 30.6975 58.9026 28.6862 59.3118 28.6862C59.7482 28.6862 58.6025 31.9869 57.8659 33.2762C57.1566 34.5655 56.311 35.2101 56.5019 35.4938C56.7202 35.7516 58.848 34.0755 59.5846 32.8378C60.2938 31.5743 60.9758 30.4655 61.1122 30.6975C60.8952 32.2081 60.2652 33.639 59.2845 34.8491C58.1387 36.0869 56.7747 36.9894 56.993 37.1699C57.1839 37.3762 58.7389 37.5825 60.3484 36.551C61.9852 35.4938 62.1489 33.9724 62.3398 34.0498C62.5581 34.1271 62.1489 36.2158 60.5939 37.5051C59.039 38.7944 56.993 38.9234 57.0475 39.207C57.1566 39.4649 61.4942 38.0208 61.4123 38.3561C61.3305 38.6655 55.7926 40.7284 55.7381 40.9347C55.7381 41.0894 56.6929 41.141 58.1933 40.8058C59.6664 40.4963 61.085 39.3875 61.2759 39.6454C61.3305 40.0064 60.212 40.8831 58.5206 41.2957C56.802 41.7083 55.9563 42.2498 55.9018 42.3787C55.8745 42.5077 58.9571 42.0177 58.9571 42.1724C58.9571 42.3271 54.9197 43.0749 54.8924 43.2812C54.8378 43.4617 58.7116 42.5334 58.657 42.7655C58.5479 42.946 53.392 44.39 53.4466 44.4674C53.4738 44.5706 57.7568 43.5907 57.675 43.7454C57.5658 43.9259 50.473 45.8083 50.4185 45.9372C50.3639 46.0404 56.6929 44.5963 56.6383 44.7253C56.5838 44.8542 53.3647 45.602 53.3647 45.6794C53.3647 45.7567 55.9563 45.2926 55.9018 45.4215C55.8745 45.5246 49.3546 47.0976 49.2182 47.3297C49.0818 47.5875 52.6009 46.685 52.5463 47.1492C52.4918 47.6133 44.9898 49.9857 44.9625 49.5473C44.9079 49.1089 49.5182 48.0001 49.491 47.8712C49.4364 47.7423 46.8448 48.1291 46.7902 47.897C46.763 47.6391 48.5089 47.1234 48.3725 47.0202C48.2361 46.8913 46.9266 47.3812 47.0358 47.0976C47.1722 46.814 49.6546 45.7309 49.6001 45.6536C49.5728 45.5762 48.6998 45.9114 48.7817 45.6536C48.8908 45.3699 54.1558 43.9259 54.074 43.7454C53.9922 43.5907 51.6461 44.1064 51.4278 44.158C51.346 44.0033 54.7014 42.8171 54.6469 42.6108C54.5378 42.4303 52.8464 43.307 52.7373 43.0749C52.6827 42.8171 55.7108 41.7083 55.5198 41.5278C55.3289 41.3473 53.9649 41.9919 53.7739 41.8114C53.583 41.6309 56.6383 39.6454 56.1746 39.5938C55.7108 39.568 55.1379 40.2127 55.0834 39.8001C55.1379 39.2844 57.4567 38.4334 56.9384 38.0208C56.12 37.7888 53.3647 38.2013 52.219 38.846C51.0732 39.4907 47.254 43.0749 46.3265 43.6422C45.399 44.1838 42.2345 45.4473 41.6343 45.7051C40.7068 46.0146 40.5431 46.4787 39.5883 46.9429C37.8697 47.3812 37.897 47.8712 37.0786 48.1548C36.7785 48.2322 33.6958 49.6247 33.6686 49.5215V49.5215ZM29.3583 51.3265C28.84 51.5844 28.3762 52.2033 28.6763 52.4611C28.84 52.7706 29.3583 51.7649 29.7675 51.8165L31.9499 51.9196C33.123 51.997 33.6958 51.6876 34.3506 51.7391C35.0053 51.7907 36.4511 51.4039 37.1331 51.4039C37.8151 51.4039 37.9515 51.4813 38.0061 51.1976C38.0879 50.9397 35.8782 51.1203 34.8962 51.0945C33.9141 51.0429 32.6865 51.275 31.9499 51.275C31.2679 51.2492 30.0949 51.0429 29.3583 51.3265V51.3265Z" fill="#FFEC2D"/>
<path id="Vector_12" d="M32.6316 51.0171C32.6316 50.8035 32.424 50.6303 32.1679 50.6303C31.9117 50.6303 31.7041 50.8035 31.7041 51.0171C31.7041 51.2307 31.9117 51.4039 32.1679 51.4039C32.424 51.4039 32.6316 51.2307 32.6316 51.0171Z" fill="#FFEC2D"/>
<path id="Vector_13" fill-rule="evenodd" clip-rule="evenodd" d="M43.5167 50.2693C43.9804 50.192 45.2353 50.6045 46.1083 50.785C47.6905 51.3781 50.6368 51.0945 50.6368 51.3781C50.6368 51.6618 50.4458 51.997 49.7638 52.0486C49.0818 52.1001 47.3632 51.7907 47.4177 51.7907C47.4723 51.7907 48.7817 52.3838 48.3998 52.5385C48.0179 52.6932 46.8994 52.2033 46.7084 52.3322C46.5175 52.4611 47.7451 52.6932 47.5268 52.7706C47.3632 52.8479 46.5175 52.6674 46.2447 52.6932C45.9719 52.7448 46.4629 53.0284 46.1356 53.1316C45.8082 53.2605 45.2626 52.9769 45.0444 53.0542C44.7988 53.1316 45.5354 53.57 45.208 53.6215C44.8807 53.6731 44.1168 53.4152 43.6804 53.3637C43.2439 53.3637 44.0896 53.7762 43.8168 53.8278C43.544 53.8536 42.7801 53.4926 42.5892 53.4926C42.3982 53.4926 42.5892 54.0083 42.3164 54.0083C42.0436 54.0083 41.7162 53.57 41.5525 53.57C41.3888 53.57 41.5525 54.0857 41.2797 54.0857C41.0069 54.0857 40.8978 53.5442 40.6796 53.57C40.4068 53.6215 40.6796 54.2662 40.2976 54.2146C39.943 54.1888 39.8884 53.5442 39.5884 53.57C39.3156 53.6215 39.6429 54.2146 39.3701 54.2146C39.0973 54.2146 39.0428 53.6215 38.77 53.57C38.4972 53.5442 38.6063 54.1373 38.4426 54.1373C38.2789 54.1373 38.1152 53.57 38.0061 53.57C37.9243 53.57 38.0061 54.1373 37.6788 54.0857C37.3514 54.0341 37.3514 53.4668 37.2696 53.4926C37.1604 53.5442 37.1604 53.9567 36.9422 53.9567C36.724 53.9567 36.6967 53.5442 36.6148 53.5957C36.5057 53.6215 36.1784 54.1372 35.9601 54.0599C35.7146 53.9825 36.0147 53.57 35.9056 53.57C35.7964 53.57 35.5236 53.8536 35.36 53.8278C35.1963 53.802 35.36 53.4668 35.3054 53.4668C35.2508 53.4668 34.8416 53.6731 34.6507 53.6731C34.4597 53.6731 33.9414 53.931 33.805 53.6989C33.6686 53.441 34.1596 53.441 34.2688 53.2089C34.3506 52.9769 33.996 52.2806 34.3779 52.0486C34.7325 51.7907 35.9056 52.3838 37.6515 51.9712C40.816 51.1718 43.2712 50.2435 43.5167 50.2693V50.2693Z" fill="#FFEC2D"/>
</g>
</g>
</g>
</g>
</g>
<defs>
<clipPath id="clip0_2909_185359">
<path d="M0.246094 32C0.246094 14.3269 14.573 0 32.2461 0V0C49.9192 0 64.2461 14.3269 64.2461 32V32C64.2461 49.6731 49.9192 64 32.2461 64V64C14.573 64 0.246094 49.6731 0.246094 32V32Z" fill="white"/>
</clipPath>
</defs>
</svg>
