<svg width="65" height="64" viewBox="0 0 65 64" fill="none" xmlns="http://www.w3.org/2000/svg">
<g id="Rounded=Saint Lucia (LC)">
<g clip-path="url(#clip0_2909_185352)">
<g id="Group">
<path id="Vector" fill-rule="evenodd" clip-rule="evenodd" d="M0.246094 0H64.2461V64H0.246094V0Z" fill="#65CFFF"/>
<path id="Vector_2" fill-rule="evenodd" clip-rule="evenodd" d="M32.0957 5.60001L53.7832 58.3L10.7832 58.425L32.0832 5.60001H32.0957Z" fill="#F5F5F5"/>
<path id="Vector_3" fill-rule="evenodd" clip-rule="evenodd" d="M32.1211 12.875L50.8711 58.2L13.6836 58.3L32.1211 12.875Z" fill="black"/>
<path id="Vector_4" fill-rule="evenodd" clip-rule="evenodd" d="M32.0957 32.0125L53.7832 58.3625L10.7832 58.425L32.0957 32.0125Z" fill="#FFCE00"/>
</g>
</g>
</g>
<defs>
<clipPath id="clip0_2909_185352">
<path d="M0.246094 32C0.246094 14.3269 14.573 0 32.2461 0V0C49.9192 0 64.2461 14.3269 64.2461 32V32C64.2461 49.6731 49.9192 64 32.2461 64V64C14.573 64 0.246094 49.6731 0.246094 32V32Z" fill="white"/>
</clipPath>
</defs>
</svg>
