<svg width="65" height="64" viewBox="0 0 65 64" fill="none" xmlns="http://www.w3.org/2000/svg">
<g id="Rounded=Liechtenstein (LI)">
<g clip-path="url(#clip0_2909_185351)">
<path id="Vector" d="M0.246094 0H64.2586V32H0.246094V0Z" fill="#002B7F"/>
<path id="Vector_2" d="M0.246094 32H64.2586V64H0.246094V32Z" fill="#CE1126"/>
<g id="Group">
<g id="a">
<path id="Vector_3" d="M16.5786 13.0453L16.3759 19.7119H9.61329C8.7813 18.0906 8.09863 16.7253 8.09863 14.8586C8.09863 13.3013 9.32529 12.064 11.0853 12.064C12.9519 12.064 15.0106 12.6933 16.5786 13.0453V13.0453Z" fill="#FFD83D"/>
<g id="Group_2">
<g id="Vector_4">
<path d="M8.91016 13.3546V17.1946V13.3546ZM9.44349 12.9599V18.0799V12.9599ZM9.99815 12.6933V18.7946V12.6933ZM10.5315 12.5653V17.3546V12.5653ZM11.0755 12.5439V17.3759V12.5439ZM11.6195 12.3626V17.3759V12.3626ZM12.1635 12.3626V17.3759V12.3626ZM12.7075 12.4159V17.4293V12.4159ZM13.2515 12.4693V17.4719V12.4693ZM13.7955 12.7786V17.7919V12.7786ZM14.3288 12.8319V18.4746V12.8319ZM14.8835 12.8319V17.8453V12.8319ZM15.4168 12.8319V17.8453Z" fill="#FFD83D"/>
<path d="M15.4168 12.8319V17.8453M8.91016 13.3546V17.1946V13.3546ZM9.44349 12.9599V18.0799V12.9599ZM9.99815 12.6933V18.7946V12.6933ZM10.5315 12.5653V17.3546V12.5653ZM11.0755 12.5439V17.3759V12.5439ZM11.6195 12.3626V17.3759V12.3626ZM12.1635 12.3626V17.3759V12.3626ZM12.7075 12.4159V17.4293V12.4159ZM13.2515 12.4693V17.4719V12.4693ZM13.7955 12.7786V17.7919V12.7786ZM14.3288 12.8319V18.4746V12.8319ZM14.8835 12.8319V17.8453V12.8319Z" stroke="black" stroke-width="0.159999" stroke-linecap="round" stroke-linejoin="round"/>
</g>
<path id="Vector_5" d="M12.3126 12.5866C13.4646 12.7679 15.9819 13.9519 15.6939 15.5413C15.2886 17.8026 13.9659 16.8959 12.2166 16.5759L10.8939 17.0133C10.4139 17.4933 9.72058 17.9413 9.25124 17.3546H8.46191V20.4266H17.1445V13.0133L12.3126 12.5866Z" fill="black" stroke="black" stroke-width="0.159999" stroke-linecap="round" stroke-linejoin="round"/>
</g>
<path id="Vector_6" d="M16.1945 12.576C16.4832 12.576 16.7172 12.342 16.7172 12.0533C16.7172 11.7646 16.4832 11.5306 16.1945 11.5306C15.9059 11.5306 15.6719 11.7646 15.6719 12.0533C15.6719 12.342 15.9059 12.576 16.1945 12.576Z" fill="#FFD83D" stroke="black" stroke-width="0.213332" stroke-linecap="round" stroke-linejoin="round"/>
<path id="Vector_7" d="M15.0109 12.2879C15.2996 12.2879 15.5336 12.0539 15.5336 11.7653C15.5336 11.4766 15.2996 11.2426 15.0109 11.2426C14.7223 11.2426 14.4883 11.4766 14.4883 11.7653C14.4883 12.0539 14.7223 12.2879 15.0109 12.2879Z" fill="#FFD83D" stroke="black" stroke-width="0.213332" stroke-linecap="round" stroke-linejoin="round"/>
<path id="Vector_8" d="M13.8059 11.9893C14.0945 11.9893 14.3285 11.7553 14.3285 11.4666C14.3285 11.178 14.0945 10.944 13.8059 10.944C13.5172 10.944 13.2832 11.178 13.2832 11.4666C13.2832 11.7553 13.5172 11.9893 13.8059 11.9893Z" fill="#FFD83D" stroke="black" stroke-width="0.213332" stroke-linecap="round" stroke-linejoin="round"/>
<path id="Vector_9" d="M12.5998 11.7866C12.8885 11.7866 13.1225 11.5526 13.1225 11.264C13.1225 10.9753 12.8885 10.7413 12.5998 10.7413C12.3112 10.7413 12.0771 10.9753 12.0771 11.264C12.0771 11.5526 12.3112 11.7866 12.5998 11.7866Z" fill="#FFD83D" stroke="black" stroke-width="0.213332" stroke-linecap="round" stroke-linejoin="round"/>
<path id="Vector_10" d="M11.3947 11.6693C11.6834 11.6693 11.9174 11.4353 11.9174 11.1466C11.9174 10.858 11.6834 10.624 11.3947 10.624C11.1061 10.624 10.8721 10.858 10.8721 11.1466C10.8721 11.4353 11.1061 11.6693 11.3947 11.6693Z" fill="#FFD83D" stroke="black" stroke-width="0.213332" stroke-linecap="round" stroke-linejoin="round"/>
<path id="Vector_11" d="M10.2219 11.7333C10.5105 11.7333 10.7445 11.4993 10.7445 11.2106C10.7445 10.922 10.5105 10.688 10.2219 10.688C9.93322 10.688 9.69922 10.922 9.69922 11.2106C9.69922 11.4993 9.93322 11.7333 10.2219 11.7333Z" fill="#FFD83D" stroke="black" stroke-width="0.213332" stroke-linecap="round" stroke-linejoin="round"/>
<path id="Vector_12" d="M9.09102 12.1173C9.37968 12.1173 9.61369 11.8833 9.61369 11.5946C9.61369 11.306 9.37968 11.072 9.09102 11.072C8.80236 11.072 8.56836 11.306 8.56836 11.5946C8.56836 11.8833 8.80236 12.1173 9.09102 12.1173Z" fill="#FFD83D" stroke="black" stroke-width="0.213332" stroke-linecap="round" stroke-linejoin="round"/>
<path id="Vector_13" d="M8.14181 12.8213C8.43047 12.8213 8.66447 12.5873 8.66447 12.2986C8.66447 12.01 8.43047 11.776 8.14181 11.776C7.85315 11.776 7.61914 12.01 7.61914 12.2986C7.61914 12.5873 7.85315 12.8213 8.14181 12.8213Z" fill="#FFD83D" stroke="black" stroke-width="0.213332" stroke-linecap="round" stroke-linejoin="round"/>
<path id="Vector_14" d="M7.46993 13.7919C7.75859 13.7919 7.99259 13.5579 7.99259 13.2693C7.99259 12.9806 7.75859 12.7466 7.46993 12.7466C7.18127 12.7466 6.94727 12.9806 6.94727 13.2693C6.94727 13.5579 7.18127 13.7919 7.46993 13.7919Z" fill="#FFD83D" stroke="black" stroke-width="0.213332" stroke-linecap="round" stroke-linejoin="round"/>
<path id="Vector_15" d="M7.13888 14.944C7.42754 14.944 7.66154 14.7099 7.66154 14.4213C7.66154 14.1326 7.42754 13.8986 7.13888 13.8986C6.85022 13.8986 6.61621 14.1326 6.61621 14.4213C6.61621 14.7099 6.85022 14.944 7.13888 14.944Z" fill="#FFD83D" stroke="black" stroke-width="0.213332" stroke-linecap="round" stroke-linejoin="round"/>
<path id="Vector_16" d="M7.14962 16.1279C7.43828 16.1279 7.67228 15.8939 7.67228 15.6053C7.67228 15.3166 7.43828 15.0826 7.14962 15.0826C6.86096 15.0826 6.62695 15.3166 6.62695 15.6053C6.62695 15.8939 6.86096 16.1279 7.14962 16.1279Z" fill="#FFD83D" stroke="black" stroke-width="0.213332" stroke-linecap="round" stroke-linejoin="round"/>
<path id="Vector_17" d="M7.38399 17.2906C7.67265 17.2906 7.90666 17.0566 7.90666 16.7679C7.90666 16.4793 7.67265 16.2453 7.38399 16.2453C7.09533 16.2453 6.86133 16.4793 6.86133 16.7679C6.86133 17.0566 7.09533 17.2906 7.38399 17.2906Z" fill="#FFD83D" stroke="black" stroke-width="0.213332" stroke-linecap="round" stroke-linejoin="round"/>
<path id="Vector_18" d="M16.4297 12.7466L16.3764 13.4399C15.0644 13.2266 13.2084 12.5013 11.4697 12.5013C9.86973 12.5013 8.6324 13.1413 8.6324 14.7626C8.6324 16.3519 9.3044 17.8026 10.2004 19.2746L9.2724 19.7013C8.4404 18.1013 7.74707 16.7146 7.74707 14.8586C7.74707 13.3013 8.97373 11.7653 11.0857 11.7653C12.9524 11.7653 14.8617 12.4053 16.4297 12.7466V12.7466Z" fill="#FFD83D" stroke="black" stroke-width="0.213332" stroke-linecap="round" stroke-linejoin="round"/>
</g>
<g id="Group_3">
<path id="Vector_19" d="M17.773 13.0453L17.9756 19.7119H24.7383C25.5703 18.0906 26.2529 16.7253 26.2529 14.8586C26.2529 13.3013 25.0263 12.064 23.2663 12.064C21.3996 12.064 19.341 12.6933 17.773 13.0453V13.0453Z" fill="#FFD83D"/>
<g id="Group_4">
<g id="Vector_20">
<path d="M25.4414 13.3546V17.1946V13.3546ZM24.9081 12.9599V18.0799V12.9599ZM24.3534 12.6933V18.7946V12.6933ZM23.8201 12.5653V17.3546V12.5653ZM23.2761 12.5439V17.3759V12.5439ZM22.7321 12.3626V17.3759V12.3626ZM22.1881 12.3626V17.3759V12.3626ZM21.6441 12.4159V17.4293V12.4159ZM21.1001 12.4693V17.4719V12.4693ZM20.5561 12.7786V17.7919V12.7786ZM20.0228 12.8319V18.4746V12.8319ZM19.4681 12.8319V17.8453V12.8319ZM18.9348 12.8319V17.8453Z" fill="#FFD83D"/>
<path d="M18.9348 12.8319V17.8453M25.4414 13.3546V17.1946V13.3546ZM24.9081 12.9599V18.0799V12.9599ZM24.3534 12.6933V18.7946V12.6933ZM23.8201 12.5653V17.3546V12.5653ZM23.2761 12.5439V17.3759V12.5439ZM22.7321 12.3626V17.3759V12.3626ZM22.1881 12.3626V17.3759V12.3626ZM21.6441 12.4159V17.4293V12.4159ZM21.1001 12.4693V17.4719V12.4693ZM20.5561 12.7786V17.7919V12.7786ZM20.0228 12.8319V18.4746V12.8319ZM19.4681 12.8319V17.8453V12.8319Z" stroke="black" stroke-width="0.159999" stroke-linecap="round" stroke-linejoin="round"/>
</g>
<path id="Vector_21" d="M22.039 12.5866C20.887 12.7679 18.3697 13.9519 18.6577 15.5413C19.063 17.8026 20.3857 16.8959 22.135 16.5759L23.4577 17.0133C23.9377 17.4933 24.631 17.9413 25.1003 17.3546H25.8896V20.4266H17.207V13.0133L22.039 12.5866Z" fill="black" stroke="black" stroke-width="0.159999" stroke-linecap="round" stroke-linejoin="round"/>
</g>
<path id="Vector_22" d="M18.157 12.576C17.8684 12.576 17.6344 12.342 17.6344 12.0533C17.6344 11.7646 17.8684 11.5306 18.157 11.5306C18.4457 11.5306 18.6797 11.7646 18.6797 12.0533C18.6797 12.342 18.4457 12.576 18.157 12.576Z" fill="#FFD83D" stroke="black" stroke-width="0.213332" stroke-linecap="round" stroke-linejoin="round"/>
<path id="Vector_23" d="M19.3406 12.2879C19.052 12.2879 18.818 12.0539 18.818 11.7653C18.818 11.4766 19.052 11.2426 19.3406 11.2426C19.6293 11.2426 19.8633 11.4766 19.8633 11.7653C19.8633 12.0539 19.6293 12.2879 19.3406 12.2879Z" fill="#FFD83D" stroke="black" stroke-width="0.213332" stroke-linecap="round" stroke-linejoin="round"/>
<path id="Vector_24" d="M20.5457 11.9893C20.257 11.9893 20.023 11.7553 20.023 11.4666C20.023 11.178 20.257 10.944 20.5457 10.944C20.8344 10.944 21.0684 11.178 21.0684 11.4666C21.0684 11.7553 20.8344 11.9893 20.5457 11.9893Z" fill="#FFD83D" stroke="black" stroke-width="0.213332" stroke-linecap="round" stroke-linejoin="round"/>
<path id="Vector_25" d="M21.7517 11.7866C21.4631 11.7866 21.2291 11.5526 21.2291 11.264C21.2291 10.9753 21.4631 10.7413 21.7517 10.7413C22.0404 10.7413 22.2744 10.9753 22.2744 11.264C22.2744 11.5526 22.0404 11.7866 21.7517 11.7866Z" fill="#FFD83D" stroke="black" stroke-width="0.213332" stroke-linecap="round" stroke-linejoin="round"/>
<path id="Vector_26" d="M22.9568 11.6693C22.6682 11.6693 22.4342 11.4353 22.4342 11.1466C22.4342 10.858 22.6682 10.624 22.9568 10.624C23.2455 10.624 23.4795 10.858 23.4795 11.1466C23.4795 11.4353 23.2455 11.6693 22.9568 11.6693Z" fill="#FFD83D" stroke="black" stroke-width="0.213332" stroke-linecap="round" stroke-linejoin="round"/>
<path id="Vector_27" d="M24.1297 11.7333C23.841 11.7333 23.607 11.4993 23.607 11.2106C23.607 10.922 23.841 10.688 24.1297 10.688C24.4183 10.688 24.6523 10.922 24.6523 11.2106C24.6523 11.4993 24.4183 11.7333 24.1297 11.7333Z" fill="#FFD83D" stroke="black" stroke-width="0.213332" stroke-linecap="round" stroke-linejoin="round"/>
<path id="Vector_28" d="M25.2605 12.1173C24.9719 12.1173 24.7379 11.8833 24.7379 11.5946C24.7379 11.306 24.9719 11.072 25.2605 11.072C25.5492 11.072 25.7832 11.306 25.7832 11.5946C25.7832 11.8833 25.5492 12.1173 25.2605 12.1173Z" fill="#FFD83D" stroke="black" stroke-width="0.213332" stroke-linecap="round" stroke-linejoin="round"/>
<path id="Vector_29" d="M26.2098 12.8213C25.9211 12.8213 25.6871 12.5873 25.6871 12.2986C25.6871 12.01 25.9211 11.776 26.2098 11.776C26.4984 11.776 26.7324 12.01 26.7324 12.2986C26.7324 12.5873 26.4984 12.8213 26.2098 12.8213Z" fill="#FFD83D" stroke="black" stroke-width="0.213332" stroke-linecap="round" stroke-linejoin="round"/>
<path id="Vector_30" d="M26.8816 13.7919C26.593 13.7919 26.359 13.5579 26.359 13.2693C26.359 12.9806 26.593 12.7466 26.8816 12.7466C27.1703 12.7466 27.4043 12.9806 27.4043 13.2693C27.4043 13.5579 27.1703 13.7919 26.8816 13.7919Z" fill="#FFD83D" stroke="black" stroke-width="0.213332" stroke-linecap="round" stroke-linejoin="round"/>
<path id="Vector_31" d="M27.2127 14.944C26.924 14.944 26.69 14.7099 26.69 14.4213C26.69 14.1326 26.924 13.8986 27.2127 13.8986C27.5013 13.8986 27.7354 14.1326 27.7354 14.4213C27.7354 14.7099 27.5013 14.944 27.2127 14.944Z" fill="#FFD83D" stroke="black" stroke-width="0.213332" stroke-linecap="round" stroke-linejoin="round"/>
<path id="Vector_32" d="M27.2019 16.1279C26.9133 16.1279 26.6793 15.8939 26.6793 15.6053C26.6793 15.3166 26.9133 15.0826 27.2019 15.0826C27.4906 15.0826 27.7246 15.3166 27.7246 15.6053C27.7246 15.8939 27.4906 16.1279 27.2019 16.1279Z" fill="#FFD83D" stroke="black" stroke-width="0.213332" stroke-linecap="round" stroke-linejoin="round"/>
<path id="Vector_33" d="M26.9676 17.2906C26.6789 17.2906 26.4449 17.0566 26.4449 16.7679C26.4449 16.4793 26.6789 16.2453 26.9676 16.2453C27.2562 16.2453 27.4902 16.4793 27.4902 16.7679C27.4902 17.0566 27.2562 17.2906 26.9676 17.2906Z" fill="#FFD83D" stroke="black" stroke-width="0.213332" stroke-linecap="round" stroke-linejoin="round"/>
<path id="Vector_34" d="M17.9219 12.7466L17.9752 13.4399C19.2872 13.2266 21.1432 12.5013 22.8818 12.5013C24.4818 12.5013 25.7192 13.1413 25.7192 14.7626C25.7192 16.3519 25.0472 17.8026 24.1512 19.2746L25.0792 19.7013C25.9112 18.1013 26.6045 16.7146 26.6045 14.8586C26.6045 13.3013 25.3778 11.7653 23.2658 11.7653C21.3992 11.7653 19.4899 12.4053 17.9219 12.7466V12.7466Z" fill="#FFD83D" stroke="black" stroke-width="0.213332" stroke-linecap="round" stroke-linejoin="round"/>
</g>
<path id="Vector_35" d="M17.1755 5.66399L16.6209 6.69865L17.1755 7.72265L17.7195 6.69865L17.1755 5.65332V5.66399ZM17.1755 8.26664L16.6209 9.29064L17.1755 10.3253L17.7089 9.27997L17.1649 8.25598L17.1755 8.26664ZM15.2129 7.99998L16.0769 8.54398L16.9409 7.99998L16.0876 7.44531L15.2129 7.99998ZM17.3995 7.99998L18.2635 8.54398L19.1382 7.99998L18.2635 7.44531L17.4102 7.99998H17.3995Z" fill="#FFD83D" stroke="black" stroke-width="0.213332" stroke-linecap="round" stroke-linejoin="round"/>
<path id="Vector_36" d="M17.1758 8.42663C17.4055 8.42663 17.5918 8.24038 17.5918 8.01063C17.5918 7.78088 17.4055 7.59464 17.1758 7.59464C16.946 7.59464 16.7598 7.78088 16.7598 8.01063C16.7598 8.24038 16.946 8.42663 17.1758 8.42663Z" fill="#FFD83D" stroke="black" stroke-width="0.213332" stroke-linecap="round" stroke-linejoin="round"/>
<path id="Vector_37" d="M17.1757 11.7866C17.7942 11.7866 18.2957 11.2852 18.2957 10.6666C18.2957 10.0481 17.7942 9.54663 17.1757 9.54663C16.5571 9.54663 16.0557 10.0481 16.0557 10.6666C16.0557 11.2852 16.5571 11.7866 17.1757 11.7866Z" fill="#FFD83D" stroke="black" stroke-width="0.213332" stroke-linecap="round" stroke-linejoin="round"/>
<path id="Vector_38" d="M16.0879 10.944C16.4473 10.8817 16.8112 10.8496 17.1759 10.848C17.5386 10.848 17.9012 10.88 18.2425 10.944M16.8879 9.58929V10.2933C16.6233 10.306 16.3597 10.3345 16.0986 10.3786L16.8879 9.58929ZM18.2532 10.3786C17.9885 10.334 17.7214 10.3055 17.4532 10.2933V9.58929L18.2532 10.3786Z" stroke="black" stroke-width="0.159999" stroke-linecap="round" stroke-linejoin="round"/>
<path id="Vector_39" d="M16.0874 12.5546C15.9807 14.368 15.7674 16.2346 15.0527 17.5786L16.2047 17.1093C16.6101 15.5839 16.6954 13.6106 16.8127 12.672L16.0874 12.5546V12.5546ZM18.2634 12.5546L17.5274 12.672C17.6554 13.6106 17.7407 15.5839 18.1354 17.1093L19.2874 17.5786C18.5834 16.2346 18.3701 14.3786 18.2634 12.5546V12.5546Z" fill="#FFD83D" stroke="black" stroke-width="0.213332" stroke-linecap="round" stroke-linejoin="round"/>
<path id="Vector_40" d="M17.1758 16.5013C15.7891 16.5013 14.7758 17.1413 14.7225 18.8053C14.3811 18.2079 12.9625 16.3519 11.6291 16.5973C10.8398 16.7466 10.1358 17.8453 10.2638 19.0933C9.60248 17.2159 7.69315 16.9066 6.28516 18.0266C7.53315 19.0399 8.08782 22.0586 9.13315 23.3599H25.2077C26.2531 22.0586 26.8077 19.0399 28.0557 18.0266C26.6584 16.9066 24.7384 17.2159 24.0878 19.0933C24.1944 17.8453 23.5011 16.7466 22.7011 16.5973C21.3784 16.3519 19.9598 18.2079 19.6184 18.8053C19.5651 17.1519 18.5518 16.5013 17.1651 16.5013H17.1758Z" fill="#FFD83D" stroke="black" stroke-width="0.213332" stroke-linecap="round" stroke-linejoin="round"/>
<g id="Group_5">
<path id="Vector_41" d="M25.1862 23.3599C25.1862 23.9572 21.6022 24.6079 17.1756 24.6079C12.7489 24.6079 9.1543 23.9679 9.1543 23.3599C9.1543 22.7732 12.7489 22.4532 17.1756 22.4532C21.5916 22.4532 25.1862 22.7732 25.1862 23.3599Z" fill="black" stroke="black" stroke-width="0.159999" stroke-linecap="round" stroke-linejoin="round"/>
<path id="Vector_42" d="M17.1761 12.5759C17.3823 12.5759 17.5494 12.4088 17.5494 12.2026C17.5494 11.9964 17.3823 11.8293 17.1761 11.8293C16.9699 11.8293 16.8027 11.9964 16.8027 12.2026C16.8027 12.4088 16.9699 12.5759 17.1761 12.5759Z" fill="#FFD83D" stroke="black" stroke-width="0.159999" stroke-linecap="round" stroke-linejoin="round"/>
<path id="Vector_43" d="M17.1759 13.408C17.3939 13.408 17.5706 13.2313 17.5706 13.0133C17.5706 12.7953 17.3939 12.6186 17.1759 12.6186C16.9579 12.6186 16.7812 12.7953 16.7812 13.0133C16.7812 13.2313 16.9579 13.408 17.1759 13.408Z" fill="#FFD83D" stroke="black" stroke-width="0.159999" stroke-linecap="round" stroke-linejoin="round"/>
<path id="Vector_44" d="M17.1756 14.3253C17.4171 14.3253 17.6129 14.1295 17.6129 13.888C17.6129 13.6464 17.4171 13.4506 17.1756 13.4506C16.9341 13.4506 16.7383 13.6464 16.7383 13.888C16.7383 14.1295 16.9341 14.3253 17.1756 14.3253Z" fill="#FFD83D" stroke="black" stroke-width="0.159999" stroke-linecap="round" stroke-linejoin="round"/>
<path id="Vector_45" d="M17.1761 15.3599C17.453 15.3599 17.6775 15.1355 17.6775 14.8586C17.6775 14.5817 17.453 14.3573 17.1761 14.3573C16.8993 14.3573 16.6748 14.5817 16.6748 14.8586C16.6748 15.1355 16.8993 15.3599 17.1761 15.3599Z" fill="#FFD83D" stroke="black" stroke-width="0.159999" stroke-linecap="round" stroke-linejoin="round"/>
<path id="Vector_46" d="M17.1758 16.4799C17.4763 16.4799 17.7198 16.2364 17.7198 15.9359C17.7198 15.6355 17.4763 15.3919 17.1758 15.3919C16.8754 15.3919 16.6318 15.6355 16.6318 15.9359C16.6318 16.2364 16.8754 16.4799 17.1758 16.4799Z" fill="#FFD83D" stroke="black" stroke-width="0.159999" stroke-linecap="round" stroke-linejoin="round"/>
<path id="Vector_47" d="M16.9627 16.9813C16.8987 16.9813 16.8454 17.0346 16.856 17.1306L16.92 17.5893C16.9414 17.7493 17.0267 17.6959 17.0587 17.5893C17.08 17.4613 17.0694 17.3759 17.08 17.1519C17.08 17.0346 17.016 16.9813 16.952 16.9813H16.9627ZM17.3894 16.9813C17.3254 16.9813 17.272 17.0346 17.272 17.1519C17.272 17.3759 17.272 17.4613 17.2934 17.5786C17.3147 17.7066 17.4 17.7493 17.432 17.5786L17.4853 17.1306C17.5067 17.0239 17.4427 16.9813 17.3894 16.9813ZM16.568 17.0453C16.5397 17.0453 16.5126 17.0565 16.4926 17.0765C16.4726 17.0965 16.4614 17.1236 16.4614 17.1519C16.4614 17.2586 16.4934 17.3973 16.504 17.5573C16.5254 17.7173 16.6427 17.6639 16.6534 17.5573C16.6534 17.4719 16.6747 17.3226 16.6534 17.1413C16.6534 17.0773 16.632 17.0453 16.5894 17.0346C16.5823 17.0337 16.5751 17.0337 16.568 17.0346V17.0453ZM17.752 17.0453C17.72 17.0453 17.688 17.0773 17.6773 17.1519C17.6716 17.2874 17.6788 17.4231 17.6987 17.5573C17.6987 17.6639 17.8267 17.7173 17.8373 17.5573C17.8373 17.3973 17.88 17.2693 17.88 17.1626C17.88 17.0986 17.8267 17.0559 17.7733 17.0453C17.7663 17.0444 17.7591 17.0444 17.752 17.0453V17.0453ZM16.1094 17.2266C16.056 17.2373 16.0027 17.3013 16.024 17.3653C16.056 17.5039 16.088 17.6533 16.088 17.7919C16.088 17.9093 16.184 17.8666 16.1947 17.7919C16.203 17.6499 16.2066 17.5076 16.2054 17.3653C16.2054 17.2586 16.152 17.2159 16.0987 17.2266H16.1094ZM18.2 17.2266C18.168 17.2373 18.136 17.2799 18.136 17.3653L18.1573 17.7919C18.1573 17.8666 18.264 17.9093 18.264 17.7919C18.264 17.6533 18.2853 17.5039 18.3173 17.3653C18.3387 17.3013 18.2853 17.2373 18.2427 17.2266C18.2322 17.2239 18.2212 17.2239 18.2107 17.2266H18.2ZM11.9067 17.2479C11.8427 17.2479 11.8 17.3226 11.8427 17.4079C11.9067 17.5573 11.9814 17.6426 12.0454 17.7919C12.0987 17.9306 12.1947 17.8453 12.1627 17.7493L12.0134 17.3546C11.9814 17.2799 11.9387 17.2479 11.9067 17.2479ZM22.4453 17.2479C22.4027 17.2479 22.3707 17.2799 22.3387 17.3546C22.2427 17.5573 22.2107 17.6533 22.1787 17.7493C22.1573 17.8559 22.2427 17.9306 22.3067 17.7919L22.4987 17.4079C22.5413 17.3226 22.4987 17.2479 22.4453 17.2479ZM12.3334 17.2479C12.28 17.2693 12.2587 17.3226 12.28 17.3866C12.344 17.5146 12.4187 17.6533 12.472 17.7919C12.5147 17.9093 12.6214 17.8773 12.5787 17.7706L12.472 17.3759C12.4294 17.2693 12.3654 17.2373 12.3334 17.2479V17.2479ZM21.9867 17.2479C21.944 17.2586 21.9013 17.3013 21.88 17.3759C21.8053 17.5893 21.7947 17.6533 21.7627 17.7706C21.72 17.8773 21.8267 17.9093 21.8693 17.7919L22.0613 17.3866C22.0827 17.3226 22.0613 17.2693 22.0187 17.2479C22.0082 17.2452 21.9972 17.2452 21.9867 17.2479V17.2479ZM12.8667 17.3546C12.8027 17.3653 12.76 17.4506 12.8027 17.5573C12.8454 17.6853 12.9094 17.8026 12.9734 17.9519C13.0374 18.1013 13.1334 18.0693 13.112 17.9733C13.08 17.8773 13.0587 17.7279 12.984 17.4933C12.952 17.3866 12.9094 17.3439 12.8667 17.3546V17.3546ZM21.4853 17.3546C21.4427 17.3546 21.3893 17.3866 21.3573 17.4933C21.2933 17.7279 21.2507 17.8773 21.24 17.9733C21.208 18.0799 21.3147 18.1013 21.368 17.9519C21.432 17.8026 21.496 17.6853 21.5387 17.5573C21.5813 17.4506 21.5387 17.3653 21.4853 17.3546V17.3546ZM11.544 17.4293C11.48 17.4293 11.4374 17.5359 11.4694 17.6106C11.5227 17.7173 11.5654 17.7599 11.6187 17.8879C11.6827 18.0159 11.7467 17.9199 11.7254 17.8346C11.6934 17.7493 11.6614 17.6533 11.64 17.5359C11.6187 17.4506 11.576 17.4293 11.5334 17.4293H11.544ZM22.808 17.4293C22.7653 17.4293 22.7333 17.4506 22.7013 17.5359L22.6267 17.8346C22.6053 17.9199 22.6693 18.0159 22.7333 17.8879C22.7867 17.7599 22.8187 17.7279 22.8827 17.6106C22.9147 17.5359 22.8613 17.4399 22.808 17.4293V17.4293ZM15.6614 17.7279C15.5867 17.7279 15.5227 17.8133 15.5547 17.8879C15.576 18.0159 15.64 18.1226 15.672 18.2826C15.7147 18.4213 15.8107 18.3573 15.8 18.2613C15.7923 18.118 15.7744 17.9754 15.7467 17.8346C15.7254 17.7599 15.6934 17.7279 15.6507 17.7279H15.6614ZM18.6907 17.7279C18.6587 17.7279 18.616 17.7599 18.6053 17.8346C18.574 17.9751 18.5526 18.1177 18.5413 18.2613C18.5413 18.3573 18.6373 18.4213 18.6693 18.2826L18.7973 17.8879C18.8187 17.8133 18.7547 17.7279 18.6907 17.7279V17.7279ZM17.176 17.8559C17.0907 17.8559 17.08 17.9626 17.08 18.0373C17.0735 18.2802 16.9996 18.5165 16.8667 18.7199C16.76 18.8479 16.6214 18.8159 16.4934 18.7413C16.3693 18.6736 16.2515 18.5951 16.1414 18.5066C15.992 18.3999 15.8854 18.4639 16.056 18.7093C16.5467 19.4133 17.08 20.0106 17.08 21.1626C17.08 21.3012 17.112 21.3439 17.176 21.3439C17.24 21.3439 17.2614 21.3012 17.2614 21.1519C17.2614 20.0106 17.7947 19.4133 18.2853 18.6986C18.456 18.4639 18.3493 18.3999 18.2107 18.5066C18.101 18.5957 17.9832 18.6743 17.8587 18.7413C17.72 18.8159 17.5813 18.8479 17.4853 18.7199C17.3524 18.5165 17.2785 18.2802 17.272 18.0373C17.2613 17.9626 17.2507 17.8559 17.1654 17.8559H17.176ZM13.4107 17.6853C13.4036 17.6841 13.3964 17.6841 13.3894 17.6853C13.3574 17.6959 13.3467 17.7279 13.3574 17.7919L13.4747 18.2079C13.5067 18.3146 13.624 18.2826 13.6027 18.1546L13.5387 17.8239C13.5174 17.7386 13.4534 17.6853 13.4107 17.6853ZM20.9413 17.6853C20.888 17.6853 20.8347 17.7386 20.8133 17.8239C20.7707 17.9733 20.7707 18.0159 20.7493 18.1439C20.7173 18.2826 20.8453 18.3039 20.8667 18.2079L20.9947 17.7813C20.9947 17.7279 20.984 17.6959 20.952 17.6853C20.9449 17.6841 20.9377 17.6841 20.9307 17.6853H20.9413ZM11.1707 17.7279C11.1067 17.7279 11.064 17.8133 11.128 17.9199C11.192 18.0479 11.3094 18.1973 11.3627 18.2933C11.416 18.3786 11.512 18.3146 11.448 18.2079C11.384 18.1013 11.3627 17.9626 11.2774 17.8026C11.2703 17.7801 11.2561 17.7606 11.2368 17.7471C11.2175 17.7336 11.1942 17.7268 11.1707 17.7279ZM23.1707 17.7279C23.1387 17.7279 23.096 17.7493 23.064 17.8026C22.9893 17.9626 22.9573 18.0906 22.904 18.2079C22.84 18.3146 22.9253 18.3786 22.9787 18.2933C23.032 18.1973 23.1493 18.0479 23.2133 17.9199C23.2773 17.8133 23.2347 17.7279 23.1707 17.7279ZM7.78939 18.0799C7.72539 18.0799 7.70405 18.2079 7.76805 18.2933C7.85088 18.3981 7.94377 18.4945 8.04539 18.5813C8.13072 18.6666 8.15205 18.5599 8.10939 18.4746L7.91739 18.1866C7.86405 18.1119 7.82139 18.0799 7.78939 18.0799ZM26.552 18.0799C26.52 18.0799 26.4773 18.1119 26.4346 18.1866L26.232 18.4746C26.1893 18.5599 26.2106 18.6666 26.3066 18.5813C26.4084 18.4946 26.5013 18.3982 26.584 18.2933C26.648 18.2079 26.6266 18.0799 26.552 18.0799ZM8.33339 18.1866C8.26939 18.1866 8.22672 18.2293 8.28005 18.3253L8.48272 18.7306C8.53605 18.8373 8.69605 18.8693 8.63205 18.7093L8.49339 18.3039C8.46139 18.2293 8.38672 18.1973 8.33339 18.1973V18.1866ZM26.0186 18.1866C25.9546 18.1866 25.88 18.2293 25.848 18.3039L25.72 18.7093C25.656 18.8693 25.816 18.8373 25.8693 18.7306C25.9227 18.6239 26.008 18.4639 26.0613 18.3253C26.1146 18.2293 26.072 18.1866 26.0186 18.1866V18.1866ZM7.28806 18.2293C7.20272 18.2293 7.20272 18.3039 7.27739 18.3573C7.37339 18.4319 7.49072 18.5066 7.59739 18.6026C7.73605 18.7093 7.77872 18.6026 7.70405 18.5173C7.64005 18.4319 7.57606 18.3466 7.39472 18.2506C7.35206 18.2293 7.32006 18.2293 7.28806 18.2293ZM27.0533 18.2293C27.032 18.2293 26.9893 18.2293 26.9466 18.2506C26.776 18.3466 26.7013 18.4319 26.6266 18.5173C26.5626 18.6133 26.616 18.7093 26.744 18.6026C26.8506 18.5066 26.9786 18.4319 27.064 18.3573C27.1493 18.3039 27.1386 18.2293 27.064 18.2293H27.0533ZM15.3627 18.3039C15.3094 18.3039 15.2774 18.3573 15.288 18.4319L15.3947 18.8159C15.416 18.9333 15.5547 18.9333 15.5334 18.8159C15.512 18.7093 15.5014 18.5706 15.4587 18.3999C15.448 18.3359 15.416 18.3039 15.3734 18.2933C15.3698 18.293 15.3662 18.293 15.3627 18.2933V18.3039ZM18.968 18.3039C18.936 18.3039 18.904 18.3359 18.8827 18.4106C18.84 18.5706 18.8293 18.7093 18.808 18.8266C18.7867 18.9333 18.9253 18.9333 18.9467 18.8159L19.0533 18.4319C19.0747 18.3573 19.032 18.3039 18.9893 18.3039C18.9823 18.3027 18.9751 18.3027 18.968 18.3039V18.3039ZM12.1414 18.0906C12.1094 18.0906 12.088 18.1653 12.12 18.2719C12.2332 18.5793 12.291 18.9044 12.2907 19.2319C12.2587 19.3599 12.184 19.3706 12.088 19.3386C11.9834 19.2869 11.8835 19.2263 11.7894 19.1573C11.704 19.1039 11.608 19.1679 11.736 19.2746C12.376 19.8079 12.8347 20.4159 13.016 21.1519C13.0374 21.3012 13.1334 21.3226 13.112 21.1519C12.9627 20.2239 12.9307 19.4559 13.1547 18.9866C13.24 18.8053 13.1547 18.6346 13.0267 18.9226C12.9307 19.1146 12.792 19.1893 12.6747 19.0293C12.5079 18.7689 12.3651 18.494 12.248 18.2079C12.2267 18.1333 12.1947 18.1013 12.1627 18.0906C12.1592 18.09 12.1556 18.09 12.152 18.0906H12.1414ZM22.1787 18.0906C22.1467 18.0906 22.1147 18.1333 22.0933 18.1973C22.0187 18.4106 21.784 18.8586 21.6667 19.0293C21.5493 19.1999 21.4107 19.1146 21.3253 18.9226C21.1867 18.6346 21.112 18.8053 21.1867 18.9866C21.4107 19.4559 21.3787 20.2239 21.24 21.1519C21.208 21.3226 21.304 21.3012 21.3467 21.1519C21.544 20.4028 21.9872 19.7416 22.6053 19.2746C22.7333 19.1679 22.6373 19.1039 22.552 19.1679C22.4574 19.23 22.3574 19.2835 22.2533 19.3279C22.1467 19.3706 22.0827 19.3599 22.0507 19.2213C22.0293 19.0933 22.072 18.8053 22.232 18.2613C22.2533 18.1759 22.232 18.1013 22.2 18.0906C22.1931 18.0882 22.1856 18.0882 22.1787 18.0906V18.0906ZM8.89872 18.3466C8.84538 18.3466 8.79205 18.3893 8.82405 18.4746C8.86672 18.6239 8.95205 18.7733 8.98405 18.8586C9.01605 18.9546 9.11205 18.9119 9.09072 18.7839L9.03738 18.4533C9.03738 18.3893 8.96272 18.3466 8.89872 18.3466ZM25.4427 18.3466C25.3787 18.3466 25.3147 18.3893 25.304 18.4533L25.2613 18.7839C25.24 18.9119 25.336 18.9546 25.368 18.8586C25.3893 18.7733 25.4747 18.6239 25.5173 18.4746C25.5493 18.3893 25.5067 18.3466 25.4427 18.3466ZM10.904 18.1653C10.84 18.1546 10.8294 18.3253 10.8827 18.3999L11.1814 18.7306C11.2667 18.8373 11.32 18.7413 11.2667 18.6559L10.9894 18.2506C10.9574 18.1973 10.9254 18.1653 10.904 18.1653V18.1653ZM23.4373 18.1653C23.416 18.1653 23.384 18.1973 23.352 18.2506L23.0747 18.6559C23.0213 18.7413 23.0747 18.8373 23.1707 18.7306L23.4587 18.3999C23.512 18.3253 23.512 18.1546 23.4373 18.1653V18.1653ZM9.35738 18.5919C9.31471 18.5919 9.28271 18.6133 9.30405 18.6986C9.32538 18.8266 9.35738 18.9119 9.38938 19.0293C9.42138 19.1359 9.49605 19.1253 9.49605 19.0186L9.46405 18.6773C9.4594 18.6517 9.44641 18.6284 9.4271 18.611C9.4078 18.5937 9.38328 18.5832 9.35738 18.5813V18.5919ZM24.984 18.5919C24.959 18.5914 24.9347 18.5997 24.9152 18.6153C24.8957 18.6309 24.8823 18.6528 24.8773 18.6773L24.8453 19.0186C24.8453 19.1253 24.9307 19.1466 24.952 19.0293L25.048 18.7093C25.0693 18.6133 25.0267 18.5813 24.984 18.5813V18.5919ZM10.7547 18.7413C10.6907 18.7413 10.6374 18.8159 10.712 18.9119C10.8294 19.0719 10.968 19.1786 11.0214 19.2319C11.064 19.2959 11.1814 19.2746 11.1067 19.1573L10.8614 18.7839C10.84 18.7413 10.7974 18.7306 10.7547 18.7413ZM23.5547 18.7413C23.5333 18.7413 23.5013 18.7519 23.4907 18.7839L23.2347 19.1573C23.16 19.2746 23.2773 19.2959 23.3307 19.2426C23.3733 19.1786 23.512 19.0719 23.64 18.9119C23.7147 18.8053 23.6507 18.7413 23.5867 18.7413C23.5796 18.7405 23.5724 18.7405 23.5653 18.7413H23.5547ZM8.54672 19.1786C8.50405 19.1786 8.48272 19.2213 8.54672 19.3173C8.71145 19.5171 8.83147 19.7498 8.89872 19.9999C8.90938 20.1493 8.84538 20.1492 8.78138 20.1492C8.57872 20.1492 8.48272 19.9999 8.31205 19.9573C8.13072 19.9253 8.09872 20.0106 8.22672 20.1066C8.83811 20.4932 9.37026 20.9928 9.79471 21.5786C9.90138 21.7812 10.04 21.8452 9.96538 21.6639C9.75813 21.248 9.66956 20.7829 9.70938 20.3199C9.76271 20.0213 9.83738 19.8293 9.82671 19.6586C9.82671 19.4986 9.72005 19.5093 9.68805 19.6586L9.58138 19.9573C9.53871 20.0106 9.38938 20.0426 9.26138 19.8613C9.07997 19.6386 8.88016 19.4317 8.66405 19.2426C8.63205 19.2106 8.58938 19.1893 8.55738 19.1786H8.54672ZM25.7946 19.1786C25.7626 19.1786 25.72 19.1999 25.6773 19.2426C25.465 19.4322 25.2687 19.6391 25.0907 19.8613C24.952 20.0426 24.8027 20.0106 24.7707 19.9679C24.722 19.8698 24.6862 19.7658 24.664 19.6586C24.6213 19.5093 24.5253 19.4986 24.5147 19.6586C24.5147 19.8293 24.5787 20.0213 24.632 20.3199C24.6853 20.6186 24.632 21.0879 24.3867 21.6639C24.3013 21.8452 24.4507 21.7706 24.5573 21.5786C24.9778 20.9931 25.5064 20.4935 26.1146 20.1066C26.2426 20.0106 26.2213 19.9253 26.04 19.9573C25.8587 19.9999 25.7627 20.1492 25.5707 20.1492C25.5067 20.1492 25.432 20.1493 25.4427 19.9999C25.4533 19.8613 25.6347 19.5306 25.7946 19.3173C25.8586 19.2106 25.848 19.1786 25.7946 19.1786V19.1786Z" fill="black"/>
<g id="Vector_48">
<path d="M9.50684 22.6879L9.72017 23.3386L9.50684 22.6879ZM9.9335 22.5599L10.1255 23.2212L9.9335 22.5599ZM10.4028 22.4746L10.5308 23.1573L10.4028 22.4746ZM10.8295 22.3999L10.9682 23.0719L10.8295 22.3999ZM11.3735 22.3466L11.4802 23.0293L11.3735 22.3466ZM11.9602 22.3466L12.0775 23.0186L11.9602 22.3466ZM12.5362 22.1546L12.6215 22.8373L12.5362 22.1546ZM13.0695 22.1866L13.1548 22.8693L13.0695 22.1866ZM13.5922 22.1226L13.6775 22.8053L13.5922 22.1226ZM14.1042 22.0586L14.1575 22.7519L14.1042 22.0586ZM14.6695 22.0586L14.7121 22.7519L14.6695 22.0586ZM15.1815 22.0266L15.2135 22.7199L15.1815 22.0266ZM15.7361 21.9946L15.7681 22.6773L15.7361 21.9946ZM16.3761 21.9733L16.4081 22.6666L16.3761 21.9733ZM24.8348 22.6879L24.6214 23.3386L24.8348 22.6879ZM24.4081 22.5599L24.2268 23.2212L24.4081 22.5599ZM23.9494 22.4746L23.8214 23.1573L23.9494 22.4746ZM23.5228 22.3999L23.3841 23.0719L23.5228 22.3999ZM22.9575 22.3466L22.8508 23.0293L22.9575 22.3466ZM22.3815 22.3466L22.2641 23.0293L22.3815 22.3466ZM21.8161 22.1546L21.7308 22.8373L21.8161 22.1546ZM21.2721 22.1866L21.1868 22.8693L21.2721 22.1866ZM20.7601 22.1226L20.6641 22.8053L20.7601 22.1226ZM20.2375 22.0586L20.1841 22.7519L20.2375 22.0586ZM19.6721 22.0586L19.6295 22.7519L19.6721 22.0586ZM19.1708 22.0266L19.1388 22.7199L19.1708 22.0266ZM18.6055 21.9946L18.5841 22.6773L18.6055 21.9946ZM17.9655 21.9733L17.9441 22.6666L17.9655 21.9733ZM17.1761 21.9199V22.6879Z" fill="#FFD83D"/>
<path d="M17.1761 21.9199V22.6879M9.50684 22.6879L9.72017 23.3386L9.50684 22.6879ZM9.9335 22.5599L10.1255 23.2212L9.9335 22.5599ZM10.4028 22.4746L10.5308 23.1573L10.4028 22.4746ZM10.8295 22.3999L10.9682 23.0719L10.8295 22.3999ZM11.3735 22.3466L11.4802 23.0293L11.3735 22.3466ZM11.9602 22.3466L12.0775 23.0186L11.9602 22.3466ZM12.5362 22.1546L12.6215 22.8373L12.5362 22.1546ZM13.0695 22.1866L13.1548 22.8693L13.0695 22.1866ZM13.5922 22.1226L13.6775 22.8053L13.5922 22.1226ZM14.1042 22.0586L14.1575 22.7519L14.1042 22.0586ZM14.6695 22.0586L14.7121 22.7519L14.6695 22.0586ZM15.1815 22.0266L15.2135 22.7199L15.1815 22.0266ZM15.7361 21.9946L15.7681 22.6773L15.7361 21.9946ZM16.3761 21.9733L16.4081 22.6666L16.3761 21.9733ZM24.8348 22.6879L24.6214 23.3386L24.8348 22.6879ZM24.4081 22.5599L24.2268 23.2212L24.4081 22.5599ZM23.9494 22.4746L23.8214 23.1573L23.9494 22.4746ZM23.5228 22.3999L23.3841 23.0719L23.5228 22.3999ZM22.9575 22.3466L22.8508 23.0293L22.9575 22.3466ZM22.3815 22.3466L22.2641 23.0293L22.3815 22.3466ZM21.8161 22.1546L21.7308 22.8373L21.8161 22.1546ZM21.2721 22.1866L21.1868 22.8693L21.2721 22.1866ZM20.7601 22.1226L20.6641 22.8053L20.7601 22.1226ZM20.2375 22.0586L20.1841 22.7519L20.2375 22.0586ZM19.6721 22.0586L19.6295 22.7519L19.6721 22.0586ZM19.1708 22.0266L19.1388 22.7199L19.1708 22.0266ZM18.6055 21.9946L18.5841 22.6773L18.6055 21.9946ZM17.9655 21.9733L17.9441 22.6666L17.9655 21.9733Z" stroke="black" stroke-width="0.159999" stroke-linecap="round" stroke-linejoin="round"/>
</g>
</g>
</g>
</g>
</g>
<defs>
<clipPath id="clip0_2909_185351">
<path d="M0.246094 32C0.246094 14.3269 14.573 0 32.2461 0V0C49.9192 0 64.2461 14.3269 64.2461 32V32C64.2461 49.6731 49.9192 64 32.2461 64V64C14.573 64 0.246094 49.6731 0.246094 32V32Z" fill="white"/>
</clipPath>
</defs>
</svg>
