<svg width="65" height="64" viewBox="0 0 65 64" fill="none" xmlns="http://www.w3.org/2000/svg">
<g id="Rounded=North Macedonia (MK)">
<g clip-path="url(#clip0_2909_185339)">
<path id="Vector" d="M0.246094 0H64.2461V64H0.246094V0Z" fill="#D20000"/>
<path id="Vector_2" d="M0.246094 0H11.0961L32.2461 30.8625L53.3961 0H64.2461L0.246094 64H11.0961L32.2461 33.1375L53.3961 64H64.2461L0.246094 0ZM64.2461 25.6V38.4L0.246094 25.6V38.4L64.2461 25.6ZM25.8461 0L32.2461 27.425L38.6461 0H25.8461ZM25.8461 64L32.2461 36.575L38.6461 64H25.8461Z" fill="#FFE600"/>
<path id="Vector_3" d="M32.2465 42.2875C37.9281 42.2875 42.534 37.6816 42.534 32C42.534 26.3184 37.9281 21.7125 32.2465 21.7125C26.5649 21.7125 21.959 26.3184 21.959 32C21.959 37.6816 26.5649 42.2875 32.2465 42.2875Z" fill="#FFE600" stroke="#D20000" stroke-width="2.2875"/>
</g>
</g>
<defs>
<clipPath id="clip0_2909_185339">
<path d="M0.246094 32C0.246094 14.3269 14.573 0 32.2461 0V0C49.9192 0 64.2461 14.3269 64.2461 32V32C64.2461 49.6731 49.9192 64 32.2461 64V64C14.573 64 0.246094 49.6731 0.246094 32V32Z" fill="white"/>
</clipPath>
</defs>
</svg>
