<svg width="65" height="64" viewBox="0 0 65 64" fill="none" xmlns="http://www.w3.org/2000/svg">
<g id="Rounded=Macau (MO)">
<g clip-path="url(#clip0_2909_185483)">
<path id="Vector" d="M0.246094 0H64.2461V64H0.246094V0Z" fill="#00785E"/>
<path id="Vector_2" d="M34.309 18.425L32.2465 12.0625L30.184 18.4375L35.5965 14.5H28.8965L34.309 18.425Z" fill="#FBD116"/>
<g id="a">
<path id="Vector_3" d="M32.2463 44.2125H18.5838C18.4139 44.0406 18.2472 43.8656 18.0838 43.6875H32.2463C32.2983 43.7067 32.3437 43.7405 32.377 43.7848C32.4102 43.8292 32.43 43.8822 32.4338 43.9375C32.4338 44.0625 32.3588 44.175 32.2463 44.2125ZM32.2463 40.0375C32.3213 39.875 32.4838 39.5 32.4088 39.0375C32.383 38.8589 32.3281 38.6858 32.2463 38.525C31.016 39.6919 29.531 40.5563 27.9088 41.05C26.8954 41.3565 25.8425 41.5123 24.7838 41.5125H16.3588C16.6088 41.8798 16.8715 42.2384 17.1463 42.5875H25.2713C27.825 42.5909 30.2969 41.6872 32.2463 40.0375ZM17.6338 36.75C17.2213 36.9072 16.787 37 16.3463 37.025C17.3587 38.1759 18.6048 39.0979 20.0015 39.7294C21.3982 40.3609 22.9134 40.6876 24.4463 40.6875C25.9036 40.6889 27.3461 40.395 28.6867 39.8235C30.0273 39.252 31.2382 38.4149 32.2463 37.3625C32.622 34.7581 32.8225 32.1313 32.8463 29.5C32.8784 26.4807 32.6778 23.4635 32.2463 20.475C31.3713 21.2625 29.7213 22.975 28.9463 25.5875C28.649 26.5855 28.4974 27.6212 28.4963 28.6625C28.493 30.8036 29.1284 32.897 30.3213 34.675C28.857 32.7823 28.0653 30.4555 28.0713 28.0625C28.0652 26.4638 28.4154 24.8839 29.0963 23.4375C28.6335 22.948 28.2911 22.3574 28.0963 21.7125C27.1753 23.3359 26.6928 25.1711 26.6963 27.0375C26.6954 29.3519 27.4405 31.605 28.8213 33.4625C27.5683 32.1418 26.0456 31.1065 24.3567 30.4271C22.6677 29.7476 20.8523 29.4399 19.0338 29.525C19.3999 29.8661 19.7043 30.2679 19.9338 30.7125C21.647 30.7136 23.3422 31.0619 24.9171 31.7365C26.4919 32.4111 27.9136 33.398 29.0963 34.6375C26.8112 32.7261 23.9254 31.6815 20.9463 31.6875C19.2213 31.6875 17.5713 32.025 16.0713 32.6625C16.9036 34.8568 18.4265 36.7211 20.4105 37.9747C22.3946 39.2282 24.7322 39.803 27.0713 39.6125C26.4361 39.7279 25.7919 39.7864 25.1463 39.7875C22.3423 39.7911 19.6473 38.7014 17.6338 36.75V36.75ZM32.2463 48.5875H25.1713C27.4228 49.4815 29.8237 49.9397 32.2463 49.9375C32.3524 49.7327 32.4081 49.5056 32.4088 49.275C32.4116 49.036 32.3558 48.8 32.2463 48.5875V48.5875ZM32.2463 45.3125H19.7588C20.0989 45.6038 20.4492 45.8831 20.8088 46.15H32.2463C32.3546 46.0395 32.4171 45.8922 32.4213 45.7375C32.4213 45.4875 32.2713 45.35 32.2463 45.3125V45.3125ZM32.2463 46.9875H22.0213C22.6421 47.3782 23.2848 47.733 23.9463 48.05H32.2463C32.351 47.8815 32.4032 47.6857 32.3963 47.4875C32.3914 47.3105 32.3397 47.138 32.2463 46.9875V46.9875Z" fill="#F5F5F5"/>
<path id="Vector_4" d="M19.6961 26.4625L18.8211 21.9125L16.8586 26.1125L20.9086 23.8625L16.3086 23.3L19.6961 26.4625ZM25.8586 19.1125L22.1586 16.325L23.5086 20.75L25.0211 16.375L21.2336 19.0375L25.8586 19.1125Z" fill="#FBD116"/>
</g>
<g id="Group">
<path id="Vector_5" d="M32.2459 44.2125H45.9084C46.0783 44.0406 46.245 43.8656 46.4084 43.6875H32.2459C32.1939 43.7067 32.1485 43.7405 32.1152 43.7848C32.0819 43.8292 32.0622 43.8822 32.0584 43.9375C32.0584 44.0625 32.1334 44.175 32.2459 44.2125ZM32.2459 40.0375C32.1709 39.875 32.0084 39.5 32.0834 39.0375C32.1092 38.8589 32.1641 38.6858 32.2459 38.525C33.4762 39.6919 34.9612 40.5563 36.5834 41.05C37.5968 41.3565 38.6497 41.5123 39.7084 41.5125H48.1334C47.8834 41.8798 47.6207 42.2384 47.3459 42.5875H39.2209C36.6672 42.5909 34.1953 41.6872 32.2459 40.0375ZM46.8584 36.75C47.2709 36.9072 47.7052 37 48.1459 37.025C47.1335 38.1759 45.8874 39.0979 44.4907 39.7294C43.094 40.3609 41.5787 40.6876 40.0459 40.6875C38.5886 40.6889 37.1461 40.395 35.8055 39.8235C34.4649 39.252 33.254 38.4149 32.2459 37.3625C31.8702 34.7581 31.6697 32.1313 31.6459 29.5C31.6138 26.4807 31.8144 23.4635 32.2459 20.475C33.1209 21.2625 34.7709 22.975 35.5459 25.5875C35.8432 26.5855 35.9948 27.6212 35.9959 28.6625C35.9992 30.8036 35.3637 32.897 34.1709 34.675C35.6352 32.7823 36.4269 30.4555 36.4209 28.0625C36.427 26.4638 36.0768 24.8839 35.3959 23.4375C35.8587 22.948 36.201 22.3574 36.3959 21.7125C37.3169 23.3359 37.7994 25.1711 37.7959 27.0375C37.7968 29.3519 37.0516 31.605 35.6709 33.4625C36.9239 32.1418 38.4466 31.1065 40.1355 30.4271C41.8244 29.7476 43.6399 29.4399 45.4584 29.525C45.0923 29.8661 44.7879 30.2679 44.5584 30.7125C42.8452 30.7136 41.1499 31.0619 39.5751 31.7365C38.0003 32.4111 36.5786 33.398 35.3959 34.6375C37.681 32.7261 40.5668 31.6815 43.5459 31.6875C45.2709 31.6875 46.9209 32.025 48.4209 32.6625C47.5886 34.8568 46.0657 36.7211 44.0816 37.9747C42.0976 39.2282 39.76 39.803 37.4209 39.6125C38.0561 39.7279 38.7003 39.7864 39.3459 39.7875C42.1499 39.7911 44.8449 38.7014 46.8584 36.75V36.75ZM32.2459 48.5875H39.3209C37.0694 49.4815 34.6684 49.9397 32.2459 49.9375C32.1398 49.7327 32.0841 49.5056 32.0834 49.275C32.0806 49.036 32.1364 48.8 32.2459 48.5875V48.5875ZM32.2459 45.3125H44.7334C44.3932 45.6038 44.043 45.8831 43.6834 46.15H32.2459C32.1376 46.0395 32.075 45.8922 32.0709 45.7375C32.0709 45.4875 32.2209 45.35 32.2459 45.3125V45.3125ZM32.2459 46.9875H42.4709C41.8501 47.3782 41.2074 47.733 40.5459 48.05H32.2459C32.1412 47.8815 32.089 47.6857 32.0959 47.4875C32.1007 47.3105 32.1525 47.138 32.2459 46.9875V46.9875Z" fill="#F5F5F5"/>
<path id="Vector_6" d="M44.7961 26.4625L45.6711 21.9125L47.6336 26.1125L43.5836 23.8625L48.1836 23.3L44.7961 26.4625ZM38.6336 19.1125L42.3336 16.325L40.9836 20.75L39.4711 16.375L43.2586 19.0375L38.6336 19.1125Z" fill="#FBD116"/>
</g>
</g>
</g>
<defs>
<clipPath id="clip0_2909_185483">
<path d="M0.246094 32C0.246094 14.3269 14.573 0 32.2461 0V0C49.9192 0 64.2461 14.3269 64.2461 32V32C64.2461 49.6731 49.9192 64 32.2461 64V64C14.573 64 0.246094 49.6731 0.246094 32V32Z" fill="white"/>
</clipPath>
</defs>
</svg>
