<svg width="65" height="64" viewBox="0 0 65 64" fill="none" xmlns="http://www.w3.org/2000/svg">
<g id="Rounded=Mauritania (MR)">
<g clip-path="url(#clip0_2909_185457)">
<path id="Vector" d="M0.246094 0H64.2461V64H0.246094V0Z" fill="#CD2A3E"/>
<path id="Vector_2" d="M0.246094 9.60001H64.2461V54.4H0.246094V9.60001Z" fill="#006233"/>
<path id="Vector_3" d="M52.2463 20.6125C52.2463 25.9168 50.1392 31.0039 46.3884 34.7546C42.6377 38.5054 37.5506 40.6125 32.2463 40.6125C26.942 40.6125 21.8549 38.5054 18.1042 34.7546C14.3534 31.0039 12.2463 25.9168 12.2463 20.6125C11.7991 22.3182 11.5723 24.0741 11.5713 25.8375C11.5674 28.7768 12.1903 31.6831 13.3984 34.3626C14.6065 37.0421 16.3721 39.4333 18.5773 41.3765C20.7826 43.3198 23.3768 44.7705 26.1871 45.6319C28.9973 46.4933 31.9589 46.7456 34.8743 46.372C37.7897 45.9984 40.592 45.0075 43.0942 43.4653C45.5964 41.9231 47.741 39.8651 49.385 37.4285C51.0289 34.992 52.1345 32.2329 52.6279 29.3354C53.1213 26.4378 52.9912 23.4683 52.2463 20.625V20.6125Z" fill="#FFC400"/>
<path id="Vector_4" d="M32.2463 12.5L30.4463 18.0375H24.6338L29.3338 21.45L27.5463 26.975L32.2463 23.5625L36.9463 26.975L35.1463 21.45L39.8588 18.0375H34.0463L32.2463 12.5Z" fill="#FFC400"/>
</g>
</g>
<defs>
<clipPath id="clip0_2909_185457">
<path d="M0.246094 32C0.246094 14.3269 14.573 0 32.2461 0V0C49.9192 0 64.2461 14.3269 64.2461 32V32C64.2461 49.6731 49.9192 64 32.2461 64V64C14.573 64 0.246094 49.6731 0.246094 32V32Z" fill="white"/>
</clipPath>
</defs>
</svg>
