<svg width="65" height="64" viewBox="0 0 65 64" fill="none" xmlns="http://www.w3.org/2000/svg">
<g id="Rounded=Malta (MT)">
<g clip-path="url(#clip0_2909_185513)">
<g id="Group">
<path id="Vector" fill-rule="evenodd" clip-rule="evenodd" d="M32.2461 0H64.2461V64H32.2461V0Z" fill="#CE0000"/>
<path id="Vector_2" fill-rule="evenodd" clip-rule="evenodd" d="M0.246094 0H32.2461V64H0.246094V0Z" fill="#F5F5F5"/>
</g>
<g id="Group_2">
<path id="Vector_3" fill-rule="evenodd" clip-rule="evenodd" d="M13.3459 13.5133C13.3459 13.6139 13.2322 13.6971 13.0921 13.6971C12.9478 13.6971 12.834 13.6096 12.834 13.5133C12.834 13.4127 12.9478 13.3295 13.0878 13.3295C13.2278 13.3295 13.3503 13.4127 13.3503 13.5133H13.3459Z" fill="#F1EEEE"/>
<path id="Vector_4" fill-rule="evenodd" clip-rule="evenodd" d="M5.33398 12.6251V17.2761H9.98965C10.0162 17.6786 10.1878 18.0578 10.4727 18.3434C10.7575 18.629 11.1362 18.8017 11.5386 18.8294V23.4804H16.1899V18.8294C16.5923 18.8017 16.9711 18.629 17.2559 18.3434C17.5407 18.0578 17.7123 17.6786 17.7389 17.2761H22.3902V12.6251H17.7389C17.7113 12.2234 17.5392 11.8453 17.2545 11.5606C16.9698 11.2759 16.5916 11.1038 16.1899 11.0762V6.4252H11.5386V11.0762C11.1369 11.1038 10.7587 11.2759 10.474 11.5606C10.1893 11.8453 10.0172 12.2234 9.98965 12.6251H5.33398Z" fill="#CC0000"/>
<path id="Vector_5" fill-rule="evenodd" clip-rule="evenodd" d="M5.49121 12.7826V17.123H10.1425C10.1701 17.5247 10.3421 17.9028 10.6269 18.1875C10.9116 18.4722 11.2898 18.6443 11.6915 18.6719V23.3273H16.0321V18.6719C16.4346 18.6453 16.8138 18.4737 17.0994 18.1889C17.3851 17.9041 17.5577 17.5254 17.5854 17.123H22.2367V12.7826H17.5854C17.5587 12.3794 17.3865 11.9997 17.1008 11.714C16.8151 11.4283 16.4353 11.2561 16.0321 11.2294V6.57834H11.6915V11.2294C11.2898 11.2581 10.9122 11.4312 10.6282 11.7167C10.3443 12.0022 10.1733 12.3808 10.1469 12.7826H5.49121Z" fill="#FFE600"/>
<path id="Vector_6" fill-rule="evenodd" clip-rule="evenodd" d="M5.64062 12.9357V16.9655H10.2919C10.3186 17.3686 10.4908 17.7484 10.7766 18.0341C11.0623 18.3198 11.4421 18.492 11.8453 18.5187V23.1698H15.8752V18.5144C16.2776 18.4866 16.6564 18.314 16.9412 18.0284C17.226 17.7428 17.3976 17.3636 17.4242 16.9611H22.0755V12.9357H17.4242C17.3977 12.534 17.2267 12.1553 16.9428 11.8698C16.6589 11.5843 16.2812 11.4112 15.8796 11.3825V6.73584H11.8496V11.3825C11.4471 11.4091 11.0679 11.5807 10.7823 11.8655C10.4967 12.1503 10.324 12.529 10.2963 12.9314H5.64062V12.9357Z" fill="#707070"/>
<path id="Vector_7" fill-rule="evenodd" clip-rule="evenodd" d="M5.79785 13.0889V16.808H10.4491C10.4757 17.2104 10.6473 17.5896 10.9321 17.8752C11.217 18.1608 11.5957 18.3335 11.9981 18.3612V23.0122H15.7174V18.3612C16.1199 18.3346 16.4991 18.163 16.7847 17.8782C17.0704 17.5934 17.243 17.2147 17.2707 16.8123H21.9177V13.0933H17.2707C17.2442 12.6908 17.0726 12.3116 16.7877 12.026C16.5029 11.7404 16.1242 11.5677 15.7218 11.54V6.88898H12.0025V11.54C11.6 11.5666 11.2208 11.7382 10.9352 12.023C10.6495 12.3078 10.4769 12.6865 10.4491 13.0889H5.79785Z" fill="#A0A0A0"/>
<g id="Group_3">
<path id="Vector_8" fill-rule="evenodd" clip-rule="evenodd" d="M12.0372 11.155C12.3129 11.4306 12.0897 12.0913 11.5471 12.6382C11.0045 13.1852 10.3394 13.4039 10.0638 13.1283C9.7925 12.857 10.0157 12.1963 10.5582 11.6494C11.1008 11.1025 11.7659 10.8837 12.0372 11.155V11.155Z" fill="#D0D0D0"/>
<path id="Vector_9" fill-rule="evenodd" clip-rule="evenodd" d="M11.7089 11.4831C11.9846 11.7588 11.9102 12.2707 11.547 12.6339C11.1839 12.997 10.6675 13.0714 10.3963 12.8001C10.1206 12.5289 10.195 12.0126 10.5582 11.6494C10.9213 11.2863 11.4377 11.2119 11.7089 11.4831V11.4831Z" fill="#808080"/>
<path id="Vector_10" fill-rule="evenodd" clip-rule="evenodd" d="M10.3398 12.3057L10.4492 12.1963L10.8868 12.4151L10.668 11.9775L10.7774 11.8682L11.215 12.7432L10.3398 12.3057ZM10.9962 11.6494L11.1056 11.54L11.7619 12.1963L11.6569 12.3057L10.9962 11.6494Z" fill="#D0D0D0"/>
</g>
<g id="Group_4">
<path id="Vector_11" fill-rule="evenodd" clip-rule="evenodd" d="M17.6554 13.1327C17.3841 13.4039 16.719 13.1808 16.1764 12.6382C15.6338 12.0957 15.4107 11.4306 15.6819 11.155C15.9576 10.8837 16.6183 11.1069 17.1609 11.6494C17.7035 12.192 17.9266 12.857 17.6554 13.1283V13.1327Z" fill="#D0D0D0"/>
<path id="Vector_12" fill-rule="evenodd" clip-rule="evenodd" d="M17.327 12.8001C17.0558 13.0714 16.5394 13.0014 16.1763 12.6382C15.8131 12.2751 15.7387 11.7588 16.01 11.4875C16.2813 11.2162 16.7976 11.2862 17.1608 11.6494C17.5239 12.0126 17.5983 12.5245 17.327 12.8001Z" fill="#808080"/>
<path id="Vector_13" fill-rule="evenodd" clip-rule="evenodd" d="M16.5049 11.4263L16.6143 11.54L16.3956 11.9776L16.8331 11.7588L16.9425 11.8682L16.0674 12.3057L16.5049 11.4306V11.4263ZM17.1613 12.087L17.2707 12.1963L16.6143 12.8526L16.5049 12.7476L17.1613 12.087Z" fill="#D0D0D0"/>
</g>
<g id="Group_5">
<path id="Vector_14" fill-rule="evenodd" clip-rule="evenodd" d="M15.6819 18.7463C15.4107 18.475 15.6338 17.8099 16.1764 17.2674C16.719 16.7248 17.3841 16.5017 17.6554 16.773C17.9266 17.0442 17.7079 17.7093 17.1609 18.2519C16.614 18.7944 15.9576 19.0175 15.6819 18.7463Z" fill="#D0D0D0"/>
<path id="Vector_15" fill-rule="evenodd" clip-rule="evenodd" d="M16.01 18.4181C15.7387 18.1468 15.8131 17.6305 16.1763 17.2674C16.5394 16.9042 17.0514 16.8299 17.327 17.1011C17.5983 17.3768 17.5239 17.8887 17.1608 18.2518C16.7976 18.615 16.2856 18.6894 16.01 18.4181Z" fill="#808080"/>
<path id="Vector_16" fill-rule="evenodd" clip-rule="evenodd" d="M17.3845 17.5956L17.2751 17.7049L16.8375 17.4862L17.0563 17.9237L16.9425 18.0331L16.505 17.158L17.3801 17.5956H17.3845ZM16.7281 18.2519L16.6144 18.3612L15.958 17.7049L16.0674 17.5956L16.7281 18.2519Z" fill="#D0D0D0"/>
</g>
<g id="Group_6">
<path id="Vector_17" fill-rule="evenodd" clip-rule="evenodd" d="M10.0684 16.773C10.3397 16.5017 11.0004 16.7205 11.5473 17.2674C12.0943 17.8143 12.3131 18.475 12.0418 18.7463C11.7661 19.0175 11.1054 18.7988 10.5584 18.2518C10.0115 17.7049 9.7927 17.0442 10.0684 16.773Z" fill="#D0D0D0"/>
<path id="Vector_18" fill-rule="evenodd" clip-rule="evenodd" d="M10.3963 17.1011C10.6675 16.8299 11.1839 16.9042 11.547 17.2674C11.9102 17.6305 11.9846 18.1425 11.7089 18.4181C11.4377 18.6894 10.9213 18.615 10.5582 18.2518C10.195 17.8887 10.1206 17.3768 10.3963 17.1011V17.1011Z" fill="#808080"/>
<path id="Vector_19" fill-rule="evenodd" clip-rule="evenodd" d="M11.215 18.4706L11.1056 18.3612L11.3243 17.9237L10.8868 18.1425L10.7774 18.0331L11.6525 17.5955L11.215 18.4706ZM10.5586 17.8143L10.4492 17.7049L11.1056 17.0486L11.215 17.158L10.5586 17.8143Z" fill="#D0D0D0"/>
</g>
<path id="Vector_20" d="M17.1194 14.9528C17.1194 16.7467 15.662 18.2081 13.8628 18.2081C12.0635 18.2081 10.6104 16.7511 10.6104 14.9528C10.6104 13.1545 12.0677 11.6975 13.867 11.6975C15.6663 11.6975 17.1237 13.1545 17.1237 14.9528H17.1194Z" stroke="#707070" stroke-width="0.0432431"/>
<path id="Vector_21" d="M16.3431 14.9521C16.3431 16.3189 15.2327 17.4323 13.8618 17.4323C12.4909 17.4323 11.3838 16.3222 11.3838 14.9521C11.3838 13.582 12.4942 12.4719 13.8651 12.4719C15.236 12.4719 16.3464 13.582 16.3464 14.9521H16.3431Z" stroke="#707070" stroke-width="0.0329472"/>
<path id="Vector_22" fill-rule="evenodd" clip-rule="evenodd" d="M12.7721 17.5868C12.7721 17.6274 12.756 17.6664 12.7273 17.6951C12.6985 17.7238 12.6596 17.7399 12.619 17.7399C12.5784 17.7399 12.5394 17.7238 12.5107 17.6951C12.482 17.6664 12.4658 17.6274 12.4658 17.5868C12.4658 17.5462 12.482 17.5072 12.5107 17.4785C12.5394 17.4498 12.5784 17.4337 12.619 17.4337C12.6596 17.4337 12.6985 17.4498 12.7273 17.4785C12.756 17.5072 12.7721 17.5462 12.7721 17.5868ZM15.2575 17.5868C15.2575 17.628 15.2411 17.6675 15.212 17.6966C15.1828 17.7258 15.1433 17.7421 15.1021 17.7421C15.0609 17.7421 15.0214 17.7258 14.9923 17.6966C14.9632 17.6675 14.9468 17.628 14.9468 17.5868C14.9468 17.5462 14.9629 17.5072 14.9917 17.4785C15.0204 17.4498 15.0593 17.4337 15.0999 17.4337C15.1406 17.4337 15.1795 17.4498 15.2082 17.4785C15.237 17.5072 15.2531 17.5462 15.2531 17.5868H15.2575ZM13.7566 17.5868V17.7487H13.551C13.3453 17.7487 13.3453 17.9106 13.551 17.9106H13.7566V18.0725C13.7566 18.2387 13.9404 18.2606 13.9535 18.0856L13.9667 17.9106H14.1723C14.378 17.9106 14.378 17.7487 14.1723 17.7487H13.9667V17.5868C13.9667 17.4249 13.7566 17.4249 13.7566 17.5868Z" fill="#D0D0D0"/>
<path id="Vector_23" fill-rule="evenodd" clip-rule="evenodd" d="M13.0919 15.2974V15.3879C13.0919 15.3879 13.0442 15.4591 12.7335 15.4811C12.4227 15.503 12.375 15.4811 12.375 15.4811C12.3837 15.5599 12.443 15.7125 12.4256 15.8936C12.4386 16.1031 12.3678 16.2945 12.3678 16.2945C12.375 16.3048 12.3389 16.3113 12.2724 16.3048C12.3244 16.2596 12.3172 16.1264 12.3244 15.9388C12.3302 15.75 12.1279 15.4668 12.1698 15.3892C12.2117 15.3116 13.0919 15.2974 13.0919 15.2974V15.2974Z" fill="#D0D0D0" stroke="#707070" stroke-width="0.0136716"/>
<path id="Vector_24" fill-rule="evenodd" clip-rule="evenodd" d="M14.3178 14.9646C14.6199 14.9504 15.1258 14.9529 15.1258 14.9529C15.1258 14.9529 15.2458 15.1922 15.24 15.3241C15.2342 15.456 15.1937 15.5698 15.1388 15.5129C15.0839 15.456 15.1634 15.4676 15.1735 15.3241C15.1836 15.1818 15.0781 15.0344 15.0781 15.0344C15.0781 15.0344 14.8613 15.1288 14.5361 15.1094C14.2109 15.09 14.3554 14.9698 14.3193 14.9646H14.3178Z" fill="#D0D0D0" stroke="#707070" stroke-width="0.0136716"/>
<path id="Vector_25" fill-rule="evenodd" clip-rule="evenodd" d="M14.4234 15.2015C14.7255 15.186 14.9235 15.2325 14.9235 15.2325C14.9235 15.2325 15.042 15.4717 15.0377 15.6037C15.0333 15.7356 14.9914 15.8494 14.935 15.7925C14.8787 15.7356 14.961 15.7472 14.9712 15.6037C14.9813 15.4614 14.8743 15.3127 14.8743 15.3127C14.8743 15.3127 14.6575 15.4071 14.3338 15.389C14.0086 15.3696 14.1011 15.3502 14.0649 15.345C14.0288 15.3398 14.0187 15.4355 13.5273 15.4485C13.0358 15.4614 12.7843 15.345 12.7843 15.345C12.7843 15.345 12.7352 15.4148 12.4259 15.4355C12.1166 15.4562 12.0674 15.4355 12.0674 15.4355C12.0747 15.5157 12.1354 15.6683 12.118 15.8494C12.1296 16.0589 12.0602 16.2502 12.0602 16.2502C12.0674 16.2606 12.0299 16.2671 11.9648 16.2606C12.0154 16.2153 12.0096 16.0821 12.0154 15.8946C12.0212 15.7058 11.8203 15.4213 11.8622 15.3437C11.9041 15.2661 12.1267 15.3385 12.1701 15.2972C12.212 15.2571 11.9706 14.97 12.0154 14.7023C12.0617 14.4333 12.316 14.5083 12.6311 14.5187C12.9448 14.5277 13.64 14.6092 13.8091 14.5187C13.9768 14.4281 13.903 14.0919 14.0635 13.8772C14.1083 13.8175 14.1697 13.7692 14.2417 13.737C14.3136 13.7048 14.3936 13.6899 14.474 13.6936C14.5751 13.6936 14.7298 14.0609 14.7298 14.1514L14.6792 14.198H14.6272V14.2432C14.5115 14.2562 14.4942 14.1436 14.4234 14.0609C14.3916 14.1902 14.5245 14.6105 14.5245 14.8846C14.5245 15.1148 14.4292 15.2157 14.4234 15.1989V15.2015Z" fill="#D0D0D0" stroke="#707070" stroke-width="0.0136716"/>
<path id="Vector_26" fill-rule="evenodd" clip-rule="evenodd" d="M13.435 14.8018C13.4408 14.8923 13.0404 15.0979 13.0072 15.1794C12.9739 15.2609 13.1083 15.3048 13.0679 15.3514C13.026 15.3979 12.9927 15.3798 12.984 15.3889C12.9754 15.3979 12.8337 15.0708 12.8337 15.0708C12.8337 15.0708 13.2095 14.9026 13.1951 14.8289C13.1806 14.7552 12.9176 14.7125 12.8684 14.5276C12.8207 14.344 12.8482 13.9884 12.8092 13.9134C12.7701 13.8396 12.3076 13.7685 12.3076 13.656C12.3076 13.5435 12.7846 13.2357 12.8337 13.1905C12.8843 13.1439 12.9349 13.2357 12.8843 13.281C12.8337 13.3275 12.4623 13.6108 12.4623 13.656C12.4623 13.7026 12.7701 13.7478 12.8728 13.7478C12.9739 13.7478 13.026 13.7026 13.026 13.6573C13.026 13.6172 12.9248 13.6108 12.9248 13.5189C12.9248 13.4271 12.9754 13.3819 13.078 13.3819C13.1286 13.3819 13.2269 13.44 13.2312 13.5189C13.2355 13.5965 13.1401 13.6043 13.1286 13.656C13.117 13.7077 13.2298 13.7478 13.3338 13.7478C13.435 13.7478 13.7862 14.0142 13.8368 14.0608C13.8874 14.106 13.938 14.106 13.8874 14.1513C13.8368 14.1979 13.8672 14.2522 13.8151 14.2056C13.7718 14.1616 13.7645 14.1151 13.7645 14.1151C13.7602 14.0724 13.3844 13.8849 13.3338 13.9315C13.2818 13.9767 13.3338 14.5263 13.3338 14.5729C13.3338 14.6634 13.4393 14.6634 13.435 14.8018Z" fill="#D0D0D0" stroke="#707070" stroke-width="0.0136716"/>
<path id="Vector_27" fill-rule="evenodd" clip-rule="evenodd" d="M12.7812 13.7408H13.3938V14.384H12.7812V13.7408Z" fill="#A7A7A7"/>
<path id="Vector_28" d="M14.7698 16.051L12.7102 12.9594C12.6928 12.9333 12.6692 12.9172 12.6575 12.9234C12.6457 12.9297 12.6504 12.956 12.6678 12.9821L14.7273 16.0736C14.7447 16.0998 14.7684 16.1159 14.7801 16.1097C14.7918 16.1034 14.7872 16.0771 14.7698 16.051Z" fill="#808080"/>
<path id="Vector_29" fill-rule="evenodd" clip-rule="evenodd" d="M12.9338 13.236C12.9338 13.2603 12.9229 13.2837 12.9037 13.3009C12.8845 13.3181 12.8584 13.3278 12.8311 13.3278C12.8039 13.3278 12.7778 13.3181 12.7586 13.3009C12.7393 13.2837 12.7285 13.2603 12.7285 13.236C12.7285 13.2116 12.7393 13.1883 12.7586 13.1711C12.7778 13.1538 12.8039 13.1442 12.8311 13.1442C12.8584 13.1442 12.8845 13.1538 12.9037 13.1711C12.9229 13.1883 12.9338 13.2116 12.9338 13.236V13.236Z" fill="#D0D0D0" stroke="#707070" stroke-width="0.0136716"/>
<path id="Vector_30" fill-rule="evenodd" clip-rule="evenodd" d="M14.728 14.069C14.728 14.1127 14.4917 14.1565 14.216 14.1565C13.9404 14.1565 13.7041 14.1127 13.7041 14.069C13.7041 14.034 13.9404 14.1259 14.216 14.1259C14.4917 14.1259 14.728 14.034 14.728 14.069Z" fill="#808080"/>
<path id="Vector_31" fill-rule="evenodd" clip-rule="evenodd" d="M12.834 14.384H13.3459V14.5634H12.834V14.384Z" fill="#A7A7A7"/>
<path id="Vector_32" fill-rule="evenodd" clip-rule="evenodd" d="M14.497 13.929C14.4532 14.0252 14.4007 14.0909 14.392 14.0777C14.3832 14.069 14.4182 13.9815 14.4664 13.8896C14.5189 13.7977 14.567 13.7321 14.5714 13.7408C14.5801 13.754 14.5495 13.8371 14.497 13.929ZM14.6283 14.1696C14.5714 14.2221 14.5276 14.2571 14.5232 14.244C14.5232 14.2353 14.567 14.1871 14.6239 14.1346C14.6808 14.0865 14.7289 14.0515 14.7289 14.0646C14.7289 14.0734 14.6851 14.1215 14.6283 14.1696V14.1696Z" fill="#808080"/>
<path id="Vector_33" fill-rule="evenodd" clip-rule="evenodd" d="M14.5667 14.0515C14.6061 14.1302 14.6324 14.1959 14.6236 14.2002C14.6192 14.2002 14.5799 14.1434 14.5361 14.069C14.4923 13.9902 14.4661 13.929 14.4748 13.9246C14.4836 13.9246 14.5186 13.9815 14.5624 14.0559L14.5667 14.0515ZM14.523 14.4496C14.523 14.4628 14.3655 14.4715 14.1642 14.4715C13.9629 14.4715 13.8054 14.4628 13.8054 14.4496C13.8054 14.4365 13.9673 14.4278 14.1642 14.4278C14.3655 14.4278 14.523 14.4365 14.523 14.4496ZM13.3459 14.4059C13.3459 14.419 13.2322 14.4278 13.0921 14.4278C12.9478 14.4278 12.834 14.419 12.834 14.4059C12.834 14.3928 12.9478 14.384 13.0878 14.384C13.2278 14.384 13.3503 14.3928 13.3503 14.4059H13.3459Z" fill="#808080"/>
<path id="Vector_34" fill-rule="evenodd" clip-rule="evenodd" d="M12.2217 16.0003C12.2217 16.0003 12.3067 16.2049 12.6659 16.2078C13.025 16.2106 13.1507 16.1464 13.0042 16.0373C12.8577 15.9282 12.5884 15.9628 12.6233 16.0566C12.6583 16.1504 12.5213 16.1816 12.4891 16.1157C12.457 16.0498 12.3285 15.8543 12.56 15.8412C12.7915 15.8281 13.283 15.7571 13.4058 15.8935C13.5287 16.0299 13.266 16.1532 13.4644 16.1822C13.6629 16.2106 13.6912 16.1492 14.0314 16.1305C14.3717 16.1117 14.5011 16.193 14.6174 16.1816C14.7336 16.1703 14.7175 15.9702 14.6249 15.9196C14.5333 15.8685 14.3556 15.8594 14.3102 15.8037C14.2649 15.748 14.142 15.7929 14.1534 15.7298C14.1647 15.6667 14.3282 15.7736 14.3301 15.7412C14.3301 15.74 14.3575 15.719 14.3632 15.7133C14.3424 15.7088 14.3301 15.7167 14.315 15.7247C14.332 15.7111 14.331 15.7048 14.3367 15.694C14.3339 15.69 14.3131 15.7099 14.3093 15.7054C14.3055 15.7008 14.3329 15.6735 14.3206 15.6838C14.3168 15.6866 14.2847 15.7025 14.2838 15.6917C14.2838 15.6872 14.3008 15.6758 14.2951 15.669C14.2904 15.6639 14.2668 15.6753 14.263 15.6764C14.2772 15.6576 14.2762 15.6582 14.263 15.644C14.2507 15.6304 14.2422 15.6304 14.2223 15.6463C14.2309 15.6235 14.2327 15.619 14.2129 15.6105C14.1978 15.6014 14.1968 15.5934 14.177 15.6338C14.1845 15.5906 14.1647 15.5883 14.1732 15.5684C14.1779 15.5497 14.2044 15.5417 14.2479 15.5457C14.3329 15.5462 14.3773 15.648 14.4047 15.6474C14.4331 15.6474 14.4633 15.54 14.5824 15.5832C14.7005 15.6269 14.7147 15.6355 14.7752 15.6616C14.8347 15.6872 14.7327 15.7264 14.7667 15.7776C14.8007 15.8287 15.0341 15.9981 14.968 16.1754C14.9018 16.3516 14.7317 16.38 14.7157 16.4567C14.7005 16.5328 15.2543 16.5022 15.3961 16.5277C15.5379 16.5533 15.6267 16.6584 15.6324 16.6766C15.638 16.6948 15.3848 16.6931 15.3848 16.6931C15.3848 16.6931 15.2543 16.626 14.9444 16.6192C14.6334 16.6135 14.5153 16.4885 14.3991 16.4726C14.2828 16.4567 14.0352 16.4993 13.8972 16.4931C13.7583 16.4868 13.6185 16.4646 13.5287 16.4527C13.4389 16.4402 12.9928 16.6539 12.9947 16.7039C12.9012 16.6999 12.6829 16.6886 12.6914 16.6942C12.7008 16.6999 12.7311 16.5976 12.9012 16.5794C13.0713 16.5613 13.2386 16.4794 13.2319 16.426C13.2272 16.372 13.266 16.1873 13.2792 16.1089C13.2924 16.0305 13.3576 15.9918 13.3425 15.9498C13.3274 15.9088 13.1327 15.8662 12.9456 15.8673C12.7585 15.8685 12.5506 15.8787 12.5203 15.9242C12.4901 15.9696 12.5137 16.1004 12.5524 16.085C12.5902 16.0702 12.543 15.9844 12.5836 15.9668C12.6592 15.9437 12.7427 15.9317 12.8275 15.9316C12.9257 15.9293 13.0968 16.0151 13.0949 16.0424C13.093 16.0702 13.1497 16.1617 13.0713 16.1958C12.9928 16.2311 12.8322 16.247 12.6781 16.239C12.5431 16.2302 12.4157 16.1972 12.3124 16.1441C12.2557 16.11 12.2217 16.0072 12.2217 15.9998V16.0003Z" fill="#D0D0D0" stroke="#808080" stroke-width="0.00732862"/>
<path id="Vector_35" fill-rule="evenodd" clip-rule="evenodd" d="M14.5006 15.6966C14.5006 15.7082 14.496 15.7193 14.4878 15.7276C14.4796 15.7358 14.4684 15.7404 14.4568 15.7404C14.4452 15.7404 14.4341 15.7358 14.4259 15.7276C14.4177 15.7193 14.4131 15.7082 14.4131 15.6966C14.4131 15.685 14.4177 15.6739 14.4259 15.6657C14.4341 15.6575 14.4452 15.6529 14.4568 15.6529C14.4684 15.6529 14.4796 15.6575 14.4878 15.6657C14.496 15.6739 14.5006 15.685 14.5006 15.6966Z" fill="black"/>
<path id="Vector_36" d="M16.4306 15.1016L16.6319 15.1453L16.9644 14.9134L16.9381 15.0359L16.7631 15.1497L16.6669 15.2109L16.7325 15.3072L16.8419 15.4822L16.8156 15.596L16.61 15.2416L16.4087 15.1978L16.4306 15.1016ZM16.0937 13.6358L16.4787 13.4564L16.3737 13.2289L16.4262 13.207L16.6756 13.7539L16.6231 13.7758L16.5181 13.5483L16.133 13.7233L16.0893 13.6358H16.0937ZM15.4942 12.9051L15.8486 12.5813L15.9186 12.6601L15.9099 13.207L16.1899 12.9533L16.2556 13.0233L15.8967 13.347L15.8267 13.2727L15.8399 12.7214L15.5598 12.9795L15.4942 12.9051V12.9051ZM13.9408 12.2794L14.0021 11.7982L14.0984 11.8157L14.0502 12.2357L14.4222 12.2794L14.4134 12.3363L13.9408 12.2794ZM13.1795 12.3495L13.092 11.8769L13.1926 11.8594L13.267 12.2751L13.6346 12.2094L13.6477 12.2663L13.1795 12.3495V12.3495ZM11.7662 13.0451L11.7312 13.0014L11.9849 12.8001L12.0943 12.9401C12.0707 12.99 12.0413 13.037 12.0068 13.0801C11.9748 13.1221 11.9381 13.1602 11.8974 13.1939C11.8437 13.2383 11.7831 13.2738 11.718 13.2989C11.6568 13.3208 11.6043 13.3252 11.5561 13.3164C11.508 13.3077 11.4686 13.2814 11.438 13.2464C11.4093 13.2087 11.3939 13.1625 11.3942 13.1151C11.3926 13.0594 11.4078 13.0045 11.438 12.9576C11.4762 12.9007 11.5235 12.8505 11.578 12.8089C11.6182 12.7771 11.6623 12.7506 11.7093 12.7301C11.7487 12.7126 11.7837 12.6995 11.8187 12.6995C11.8537 12.6995 11.8799 12.7082 11.9106 12.7257L11.8493 12.7957C11.8276 12.7847 11.8036 12.7787 11.7793 12.7782C11.7574 12.7782 11.7355 12.7826 11.7049 12.7957C11.6719 12.8105 11.6409 12.8296 11.613 12.8526C11.578 12.8789 11.5474 12.9095 11.5255 12.9401L11.4861 13.0145C11.4775 13.0419 11.4758 13.0711 11.4812 13.0993C11.4865 13.1275 11.4987 13.154 11.5167 13.1764C11.5406 13.2075 11.5747 13.2292 11.613 13.2377C11.648 13.2464 11.6874 13.242 11.7312 13.2245C11.7749 13.207 11.8187 13.1808 11.858 13.1545C11.8909 13.1276 11.9203 13.0967 11.9456 13.0626C11.9718 13.0276 11.9893 12.997 11.9981 12.9751L11.9412 12.9051L11.7662 13.0451V13.0451ZM11.753 16.5061L11.3592 16.7861L11.0617 16.366L11.1054 16.3354L11.3461 16.6723L11.4686 16.5848L11.263 16.2917L11.3067 16.261L11.5167 16.5498L11.6918 16.4229L11.753 16.5104V16.5061ZM11.1755 15.8804C11.2016 15.8731 11.2253 15.8592 11.2445 15.84C11.2637 15.8209 11.2776 15.7971 11.2848 15.771C11.3023 15.7141 11.3023 15.6529 11.2848 15.5785C11.2694 15.514 11.2342 15.4558 11.1842 15.4122C11.1627 15.3942 11.1369 15.382 11.1094 15.3766C11.0818 15.3713 11.0534 15.373 11.0267 15.3816C10.9923 15.3909 10.9617 15.4108 10.9392 15.4385C10.9138 15.4696 10.8985 15.5078 10.8954 15.5479C10.891 15.5916 10.8954 15.6354 10.9085 15.6835C10.9245 15.7468 10.9578 15.8044 11.0048 15.8498C11.0486 15.8935 11.1054 15.8979 11.1755 15.8804V15.8804ZM11.2017 15.981C11.1229 16.0029 11.0529 15.9854 10.9917 15.9373C10.9304 15.8804 10.8867 15.806 10.856 15.701C10.8385 15.631 10.8298 15.5697 10.8342 15.5085C10.8385 15.4472 10.856 15.3991 10.8867 15.3597C10.9132 15.3219 10.9518 15.2942 10.996 15.281C11.0423 15.2674 11.0919 15.2705 11.1361 15.2897C11.1862 15.3121 11.2287 15.3486 11.2586 15.3947C11.2943 15.4468 11.3209 15.5044 11.3373 15.5654C11.3549 15.6354 11.3636 15.6966 11.3549 15.7579C11.3515 15.8114 11.3333 15.8629 11.3023 15.9066C11.278 15.9419 11.2426 15.9681 11.2017 15.981V15.981ZM11.2411 15.0009L10.7598 14.9922L10.7685 14.6553C10.7685 14.5853 10.7729 14.5371 10.7816 14.5021C10.7948 14.4671 10.8079 14.4365 10.8298 14.4146C10.8517 14.3971 10.8779 14.3884 10.9042 14.3884C10.9392 14.3884 10.9654 14.4059 10.9917 14.4409C11.0179 14.4759 11.0267 14.5284 11.0311 14.6028L11.0573 14.5459C11.0754 14.514 11.0974 14.4846 11.1229 14.4584L11.2542 14.3315V14.4628L11.1492 14.559L11.0836 14.629C11.0661 14.6465 11.0573 14.664 11.0486 14.6815C11.0425 14.6956 11.0381 14.7102 11.0354 14.7253V14.7822L11.0311 14.8959L11.2411 14.9047V15.0053V15.0009ZM10.9742 14.8959L10.9785 14.6772L10.9742 14.5721C10.97 14.5492 10.9594 14.528 10.9435 14.5109C10.9313 14.4996 10.9162 14.492 10.8998 14.489C10.8779 14.489 10.856 14.5021 10.8473 14.5328C10.8294 14.5696 10.8205 14.61 10.821 14.6509L10.8166 14.8915L10.9742 14.8959V14.8959ZM12.3131 12.7782V12.2138L12.4094 12.1569L12.9213 12.4151L12.8251 12.472L12.6719 12.3932L12.4006 12.5551V12.7214L12.3131 12.7782V12.7782ZM12.4006 12.4938L12.6194 12.3626L12.4838 12.2882L12.3875 12.2313L12.3962 12.332V12.4938H12.4006ZM14.7241 12.3451L15.2448 12.1263L15.3323 12.1919L15.3017 12.7607L15.2054 12.6951L15.2229 12.5245L14.9604 12.3407L14.8116 12.4063L14.7241 12.3451V12.3451ZM15.0172 12.3145L15.2273 12.4676L15.2404 12.3101C15.2448 12.2663 15.2492 12.2269 15.2579 12.2007L15.1704 12.2488L15.0172 12.3145V12.3145ZM16.3081 14.1084L16.7763 13.9946L16.855 14.3227C16.8681 14.3884 16.8769 14.4409 16.8769 14.4759C16.8768 14.5084 16.8677 14.5402 16.8506 14.5678C16.8331 14.594 16.8156 14.6115 16.7894 14.6159C16.7544 14.6246 16.7237 14.6159 16.6931 14.5853C16.6545 14.5443 16.626 14.4949 16.61 14.4409C16.61 14.4671 16.61 14.4846 16.6012 14.5021C16.5907 14.5359 16.576 14.5682 16.5575 14.5984L16.4612 14.7603L16.4306 14.6378L16.505 14.5153L16.5531 14.4278C16.5662 14.4059 16.5706 14.384 16.575 14.3709C16.5766 14.3563 16.5766 14.3417 16.575 14.3271L16.5662 14.2702L16.5356 14.1565L16.3299 14.2046L16.3081 14.1084V14.1084ZM16.5925 14.1434L16.6406 14.3534C16.6537 14.3971 16.6625 14.4321 16.6756 14.454C16.6887 14.4803 16.7019 14.4978 16.7194 14.5065C16.7325 14.5153 16.75 14.5196 16.7631 14.5153C16.785 14.5109 16.8025 14.4934 16.8069 14.4671C16.8166 14.4237 16.8151 14.3786 16.8025 14.3359L16.7456 14.104L16.5925 14.1434V14.1434Z" fill="#D0D0D0"/>
</g>
</g>
</g>
<defs>
<clipPath id="clip0_2909_185513">
<path d="M0.246094 32C0.246094 14.3269 14.573 0 32.2461 0V0C49.9192 0 64.2461 14.3269 64.2461 32V32C64.2461 49.6731 49.9192 64 32.2461 64V64C14.573 64 0.246094 49.6731 0.246094 32V32Z" fill="white"/>
</clipPath>
</defs>
</svg>
