<svg width="65" height="64" viewBox="0 0 65 64" fill="none" xmlns="http://www.w3.org/2000/svg">
<g id="Rounded=Malawi (MW)">
<g clip-path="url(#clip0_2909_185491)">
<g id="Group">
<path id="Vector" fill-rule="evenodd" clip-rule="evenodd" d="M-15.9785 0H80.0223V64.0036H-15.9785V0Z" fill="#F41408"/>
<path id="Vector_2" fill-rule="evenodd" clip-rule="evenodd" d="M-15.9785 42.663H80.0223V64.0036H-15.9785V42.663Z" fill="#21873B"/>
<path id="Vector_3" fill-rule="evenodd" clip-rule="evenodd" d="M-15.9785 0H80.0223V21.3315H-15.9785V0Z" fill="black"/>
<path id="Vector_4" fill-rule="evenodd" clip-rule="evenodd" d="M20.2724 19.3266C21.6128 16.0633 24.1944 13.466 27.4496 12.106C30.7047 10.746 34.3668 10.7348 37.6303 12.0746C39.2713 12.7204 40.7615 13.6978 42.0077 14.9456C43.254 16.1934 44.2295 17.6848 44.8732 19.3266H20.2724ZM17.0212 20.2117C14.8112 20.0425 12.6203 19.6798 10.4737 19.1279C9.96793 18.9473 9.94084 18.6403 10.0041 18.4054C10.0559 18.2525 10.1643 18.1251 10.307 18.0495C10.4498 17.974 10.6161 17.9559 10.7717 17.999C11.4852 18.1797 14.3751 18.9473 17.0303 20.2117H17.0212ZM32.609 8.36284C32.0852 5.47288 31.9497 2.28489 32.0039 1.75205C32.049 1.21018 32.3471 1.11987 32.5909 1.11987C32.7506 1.13131 32.9 1.20293 33.009 1.32027C33.118 1.43761 33.1783 1.59193 33.1779 1.75205C33.1779 2.4926 33.1599 5.48191 32.609 8.36284ZM34.0539 8.43508C33.848 6.22486 33.8329 4.001 34.0088 1.78818C34.1081 1.25534 34.4062 1.18309 34.65 1.21018C34.8938 1.22825 35.219 1.50821 35.1828 1.89655C35.1196 2.61904 34.8487 5.59931 34.0539 8.43508V8.43508ZM35.3544 8.61571C35.3183 5.67156 35.7157 2.51067 35.8692 1.98686C36.0047 1.46306 36.3117 1.4179 36.5556 1.46306C36.7107 1.50177 36.8454 1.59783 36.9325 1.73189C37.0197 1.86595 37.0528 2.02805 37.0252 2.18555C36.8988 2.90804 36.384 5.85218 35.3544 8.60668V8.61571ZM36.7362 8.91373C36.962 5.98765 37.6393 2.87191 37.8199 2.36617C38.0005 1.86043 38.3166 1.84236 38.5514 1.90558C38.7025 1.95736 38.8283 2.06434 38.9037 2.20506C38.979 2.34577 38.9984 2.5098 38.9578 2.6642C38.7682 3.37765 38.0005 6.26761 36.7362 8.91373ZM38.0909 9.34723C38.4535 7.15981 39.0065 5.00824 39.7436 2.91707C39.9784 2.42939 40.2854 2.43842 40.5202 2.5197C40.6683 2.58536 40.7855 2.70535 40.8477 2.85491C40.9099 3.00447 40.9123 3.17219 40.8544 3.32347C40.6015 4.00983 39.572 6.81851 38.0818 9.34723H38.0909ZM39.3552 9.88006C40.0777 7.02623 41.2879 4.08208 41.5678 3.61246C41.8388 3.14285 42.1458 3.17897 42.3626 3.28734C42.5015 3.36407 42.6065 3.49026 42.6567 3.64085C42.7069 3.79143 42.6986 3.95539 42.6335 4.10014C42.3174 4.77748 41.0621 7.48682 39.3552 9.88006V9.88006ZM40.6015 10.5303C41.3429 8.43895 42.2614 6.41466 43.347 4.47945C43.654 4.03693 43.9611 4.10014 44.1778 4.22658C44.3082 4.31808 44.3992 4.45541 44.4327 4.61113C44.4662 4.76685 44.4397 4.92947 44.3585 5.06647C43.9972 5.69865 42.5071 8.29059 40.6015 10.5303ZM41.7756 11.2799C42.6942 9.26136 43.7882 7.32731 45.0448 5.49997C45.388 5.08454 45.686 5.17485 45.8847 5.31935C46.0073 5.42025 46.0875 5.56359 46.1092 5.72088C46.131 5.87817 46.0927 6.03788 46.0021 6.16827C45.5777 6.77336 43.8708 9.22079 41.7756 11.2799V11.2799ZM42.8774 12.1378C44.3223 9.57301 46.255 7.04429 46.6433 6.65595C47.0226 6.27665 47.3116 6.38502 47.5013 6.54758C47.6819 6.71014 47.7903 7.11654 47.5374 7.41457C47.0678 7.9745 45.1532 10.2684 42.8774 12.1378ZM43.9159 13.0861C45.1706 11.2573 46.5817 9.54097 48.1335 7.95643C48.5489 7.61325 48.8289 7.74872 49.0005 7.92031C49.1062 8.04215 49.1613 8.1998 49.1546 8.36098C49.1479 8.52216 49.0798 8.67468 48.9643 8.7873C47.4106 10.3688 45.718 11.8075 43.9069 13.0861H43.9159ZM44.8552 14.1247C46.7246 11.8579 49.0727 9.69944 49.5152 9.39238C49.9668 9.08533 50.2197 9.24789 50.3822 9.42851C50.4765 9.55853 50.5178 9.71956 50.4977 9.87892C50.4775 10.0383 50.3975 10.184 50.2738 10.2865C48.5829 11.7213 46.7697 13.0056 44.8552 14.1247V14.1247ZM45.668 15.1904C47.2183 13.6014 48.9045 12.1509 50.7073 10.8554C51.177 10.5845 51.4298 10.7741 51.5653 10.9819C51.7098 11.1805 51.7098 11.596 51.3847 11.8218C49.5851 13.1106 47.6751 14.2379 45.677 15.1904H45.668ZM46.4085 16.3464C48.0891 14.8973 49.8932 13.5979 51.8001 12.463C52.2878 12.2372 52.5226 12.4449 52.649 12.6526C52.7664 12.8603 52.7393 13.2848 52.3962 13.4835C51.764 13.8447 49.1811 15.362 46.4085 16.3464V16.3464ZM47.0949 17.6649C48.9041 16.3811 50.8196 15.2541 52.8206 14.2963C53.3264 14.1157 53.5431 14.3414 53.6425 14.5672C53.6983 14.7163 53.6958 14.8809 53.6355 15.0283C53.5753 15.1756 53.4616 15.2948 53.3173 15.362C51.3148 16.3108 49.2326 17.0814 47.0949 17.6649V17.6649ZM47.6187 18.9383C49.5255 17.808 51.5293 16.8499 53.6063 16.0754C54.1301 15.9399 54.3288 16.1838 54.4101 16.4096C54.5004 16.6353 54.383 17.0417 54.0127 17.1772C51.9379 17.953 49.7981 18.5424 47.6187 18.9383V18.9383ZM48.0341 20.293C50.0392 19.3357 52.1244 18.556 54.2656 17.9629C54.7894 17.8726 54.961 18.1255 55.0242 18.3693C55.0526 18.5244 55.022 18.6844 54.9384 18.8181C54.8549 18.9517 54.7244 19.0493 54.5727 19.0918C53.8502 19.2905 50.9692 20.0581 48.0341 20.2839V20.293ZM31.2001 8.40799C30.6051 6.2771 30.1972 4.09836 29.9809 1.89655C29.9809 1.35468 30.2609 1.23728 30.5047 1.21018C30.6664 1.20746 30.823 1.2668 30.9422 1.37599C31.0615 1.48518 31.1344 1.63592 31.1459 1.79721C31.2182 2.5197 31.4801 5.49997 31.2001 8.42605V8.40799ZM29.8093 8.58861C29.0301 6.51352 28.4347 4.37394 28.0302 2.19458C27.985 1.65271 28.256 1.50821 28.4908 1.46306C28.6517 1.44464 28.8136 1.48871 28.943 1.58618C29.0724 1.68365 29.1594 1.82708 29.1862 1.98686C29.3126 2.70935 29.8364 5.6535 29.8093 8.58861ZM28.4276 8.89567C27.4679 6.8937 26.6852 4.81162 26.0885 2.67323C25.9982 2.14039 26.2601 1.9688 26.4949 1.90558C26.6512 1.87762 26.8122 1.90947 26.9461 1.99481C27.0799 2.08014 27.1768 2.21271 27.2174 2.36617C27.4161 3.07963 28.1927 5.96056 28.4276 8.89567ZM27.1271 9.30207C26.0025 7.39038 25.0475 5.38382 24.2732 3.30541C24.1378 2.7816 24.3816 2.58292 24.6074 2.50164C24.7619 2.45803 24.9272 2.47483 25.0697 2.54862C25.2123 2.62242 25.3214 2.74768 25.375 2.899C25.6279 3.5944 26.6484 6.39405 27.1271 9.30207V9.30207ZM25.8627 9.81685C24.5749 8.01339 23.4477 6.1005 22.4941 4.10014C22.3135 3.58537 22.5302 3.37765 22.756 3.27831C22.9062 3.21985 23.073 3.22094 23.2224 3.28137C23.3718 3.3418 23.4925 3.457 23.5598 3.60343C23.8668 4.27174 25.1222 6.98107 25.8537 9.83491L25.8627 9.81685ZM24.5803 10.4851C23.136 8.79855 21.8426 6.98838 20.715 5.07551C20.4892 4.58783 20.6879 4.35302 20.8956 4.23561C21.0402 4.16366 21.2068 4.14977 21.3613 4.19679C21.5158 4.24381 21.6465 4.34818 21.7265 4.48848C22.0967 5.12066 23.5959 7.71259 24.5803 10.4851ZM23.4063 11.2257C21.8227 9.66888 20.3782 7.97663 19.0894 6.16827C18.8184 5.69865 18.9991 5.44578 19.2068 5.31032C19.3457 5.23059 19.5091 5.20493 19.6658 5.23826C19.8224 5.27159 19.9613 5.36157 20.0557 5.49094C20.4802 6.09602 22.187 8.54346 23.4063 11.2257ZM22.3135 12.0385C20.6026 10.6267 19.0191 9.0674 17.5812 7.37844C17.2741 6.93592 17.4367 6.67401 17.6263 6.52049C17.7563 6.42618 17.9174 6.3849 18.0767 6.40503C18.2361 6.42516 18.3818 6.50518 18.4843 6.62886C18.9539 7.18879 20.8685 9.48269 22.3135 12.0475V12.0385ZM21.2478 13.0048C19.418 11.7482 17.7016 10.334 16.1181 8.77827C15.7749 8.36284 15.9104 8.08287 16.082 7.91128C16.2038 7.80554 16.3615 7.75039 16.5227 7.7571C16.6839 7.76382 16.8364 7.8319 16.949 7.9474C17.4728 8.47121 19.5861 10.5755 21.2478 13.0048V13.0048ZM20.3266 13.9892C18.3987 12.8927 16.5705 11.6295 14.8628 10.2142C14.4835 9.83491 14.6009 9.54591 14.7635 9.35626C14.8757 9.24332 15.0263 9.17687 15.1854 9.17017C15.3444 9.16348 15.5001 9.21703 15.6214 9.32013C16.1904 9.78975 18.4662 11.7134 20.3266 13.9892ZM19.4506 15.1181C17.4321 14.196 15.4981 13.099 13.6707 11.8398C13.2553 11.4876 13.3456 11.1896 13.4901 10.9909C13.5913 10.8658 13.7364 10.784 13.8958 10.7622C14.0552 10.7404 14.2169 10.7802 14.348 10.8735C16.1688 12.1376 17.8761 13.5579 19.4506 15.1181V15.1181ZM18.6649 16.3283C16.5719 15.5946 14.5472 14.6789 12.6141 13.5919C12.1625 13.2758 12.2257 12.9777 12.3522 12.761C12.4423 12.6291 12.579 12.5363 12.7348 12.5011C12.8906 12.4659 13.054 12.491 13.192 12.5713C13.8333 12.9326 16.4252 14.4227 18.6649 16.3283V16.3283ZM18.0056 17.5656C15.1608 16.8431 12.2077 15.6329 11.738 15.362C11.2774 15.091 11.3045 14.784 11.4129 14.5672C11.4913 14.4276 11.6191 14.3224 11.7712 14.2722C11.9233 14.2221 12.0887 14.2307 12.2347 14.2963C12.9031 14.6033 15.6124 15.8677 18.0147 17.5656H18.0056ZM17.4818 18.8118C15.2929 18.4434 13.1411 17.8813 11.0517 17.1321C10.564 16.9063 10.573 16.5902 10.6543 16.3644C10.7446 16.1386 11.0878 15.8948 11.4581 16.0303C12.1444 16.2831 14.9531 17.3127 17.4818 18.8118V18.8118Z" fill="#F31509"/>
<path id="Vector_5" fill-rule="evenodd" clip-rule="evenodd" d="M17.0303 20.2116C14.0952 19.9859 10.9794 19.3176 10.4737 19.1279C9.96793 18.9473 9.94084 18.6402 10.0041 18.4054C10.0559 18.2524 10.1643 18.1251 10.307 18.0495C10.4498 17.9739 10.6161 17.9559 10.7717 17.999C11.4852 18.1796 14.3751 18.9473 17.0303 20.2116Z" fill="#F31509"/>
<path id="Vector_6" fill-rule="evenodd" clip-rule="evenodd" d="M8.88379 19.3898H56.541V21.1328H8.88379V19.3898Z" fill="black"/>
</g>
</g>
</g>
<defs>
<clipPath id="clip0_2909_185491">
<path d="M0.246094 32C0.246094 14.3269 14.573 0 32.2461 0V0C49.9192 0 64.2461 14.3269 64.2461 32V32C64.2461 49.6731 49.9192 64 32.2461 64V64C14.573 64 0.246094 49.6731 0.246094 32V32Z" fill="white"/>
</clipPath>
</defs>
</svg>
