<svg width="65" height="64" viewBox="0 0 65 64" fill="none" xmlns="http://www.w3.org/2000/svg">
<g id="Rounded=Namibia (NA)">
<g clip-path="url(#clip0_2909_185402)">
<g id="Group">
<path id="Vector" fill-rule="evenodd" clip-rule="evenodd" d="M0.246094 0H64.2461V64H0.246094V0Z" fill="#F5F5F5"/>
<path id="Vector_2" fill-rule="evenodd" clip-rule="evenodd" d="M-13.2793 0.025L-13.1793 46.1L58.5707 0L-13.2793 0.025V0.025Z" fill="#3662A2"/>
<path id="Vector_3" fill-rule="evenodd" clip-rule="evenodd" d="M79.0832 63.9375L78.9082 16.0375L6.5332 63.975L79.0832 63.9375Z" fill="#38A100"/>
<path id="Vector_4" fill-rule="evenodd" clip-rule="evenodd" d="M-13.2422 49.575L-13.1797 64L2.48281 63.975L78.9453 12.7125L78.8703 0.174994L63.3953 0.0249939L-13.2297 49.575H-13.2422Z" fill="#C70000"/>
<path id="Vector_5" fill-rule="evenodd" clip-rule="evenodd" d="M19.4961 22.925L16.6086 21.175L14.9336 24.125L13.3086 21.15L10.3711 22.875L10.4461 19.4875L7.07109 19.5125L8.82109 16.6125L5.87109 14.9375L8.84609 13.3125L7.12109 10.375L10.4961 10.45L10.4836 7.06249L13.3836 8.81249L15.0586 5.86249L16.6836 8.82499L19.6461 7.12499L19.5711 10.5L22.9461 10.4875L21.1961 13.3875L24.1461 15.05L21.1711 16.6875L22.8836 19.6125L19.5086 19.55L19.4961 22.925Z" fill="#FFE700"/>
<path id="Vector_6" fill-rule="evenodd" clip-rule="evenodd" d="M21.2207 15C21.2207 18.4 18.4332 21.1625 14.9957 21.1625C11.5582 21.1625 8.7832 18.4 8.7832 14.9875C8.7832 11.575 11.5707 8.82501 15.0082 8.82501C18.4457 8.82501 21.2207 11.575 21.2207 14.9875V15Z" fill="#3662A2"/>
<path id="Vector_7" fill-rule="evenodd" clip-rule="evenodd" d="M19.8707 15C19.9042 15.6601 19.803 16.3202 19.5735 16.94C19.3439 17.5598 18.9907 18.1265 18.5353 18.6055C18.0799 19.0846 17.5318 19.466 16.9244 19.7267C16.317 19.9874 15.6629 20.1218 15.002 20.1218C14.341 20.1218 13.6869 19.9874 13.0795 19.7267C12.4721 19.466 11.924 19.0846 11.4686 18.6055C11.0132 18.1265 10.66 17.5598 10.4304 16.94C10.2009 16.3202 10.0997 15.6601 10.1332 15C10.1965 13.7514 10.7371 12.5748 11.6432 11.7134C12.5493 10.8521 13.7517 10.3718 15.002 10.3718C16.2522 10.3718 17.4546 10.8521 18.3607 11.7134C19.2668 12.5748 19.8074 13.7514 19.8707 15V15Z" fill="#FFE700"/>
</g>
</g>
</g>
<defs>
<clipPath id="clip0_2909_185402">
<path d="M0.246094 32C0.246094 14.3269 14.573 0 32.2461 0V0C49.9192 0 64.2461 14.3269 64.2461 32V32C64.2461 49.6731 49.9192 64 32.2461 64V64C14.573 64 0.246094 49.6731 0.246094 32V32Z" fill="white"/>
</clipPath>
</defs>
</svg>
