<svg width="65" height="64" viewBox="0 0 65 64" fill="none" xmlns="http://www.w3.org/2000/svg">
<g id="Rounded=New Caledonia (NC)">
<g clip-path="url(#clip0_2909_185324)">
<path id="Vector" d="M0.246094 0H64.2461V64H0.246094V0Z" fill="#009543"/>
<path id="Vector_2" d="M0.246094 0H64.2461V42.6625H0.246094V0Z" fill="#ED4135"/>
<path id="Vector_3" d="M0.246094 0H64.2461V21.3375H0.246094V0Z" fill="#0035AD"/>
<path id="Vector_4" d="M28.4457 52.975C40.0299 52.975 49.4207 43.5842 49.4207 32C49.4207 20.4158 40.0299 11.025 28.4457 11.025C16.8615 11.025 7.4707 20.4158 7.4707 32C7.4707 43.5842 16.8615 52.975 28.4457 52.975Z" fill="#FAE600" stroke="black" stroke-width="0.7125"/>
<g id="Vector_5">
<path d="M24.8965 35.125H32.009H24.8965ZM24.8965 29.875H32.009H24.8965ZM28.4465 11.075V46.925Z" fill="black"/>
<path d="M28.4465 11.075V46.925M24.8965 35.125H32.009H24.8965ZM24.8965 29.875H32.009H24.8965Z" stroke="black" stroke-width="0.85"/>
</g>
<path id="Vector_6" d="M19.9965 51.25C28.5715 54.75 36.5965 51.475 36.5965 51.475C36.5965 51.475 33.559 48.2 32.009 46.9125C30.4965 45.6625 26.034 45.7125 24.509 46.9125C23.259 47.9125 19.609 51.6 20.009 51.2625L19.9965 51.25Z" fill="black"/>
<path id="Vector_7" d="M28.4457 45.0875C29.7436 45.0875 30.7957 43.5597 30.7957 41.675C30.7957 39.7903 29.7436 38.2625 28.4457 38.2625C27.1478 38.2625 26.0957 39.7903 26.0957 41.675C26.0957 43.5597 27.1478 45.0875 28.4457 45.0875Z" fill="black"/>
<path id="Vector_8" d="M28.4457 34.3C30.0197 34.3 31.2957 33.4941 31.2957 32.5C31.2957 31.5059 30.0197 30.7 28.4457 30.7C26.8717 30.7 25.5957 31.5059 25.5957 32.5C25.5957 33.4941 26.8717 34.3 28.4457 34.3Z" fill="black"/>
<path id="Vector_9" d="M28.4457 27.025C30.0197 27.025 31.2957 25.749 31.2957 24.175C31.2957 22.601 30.0197 21.325 28.4457 21.325C26.8717 21.325 25.5957 22.601 25.5957 24.175C25.5957 25.749 26.8717 27.025 28.4457 27.025Z" fill="black"/>
<path id="Vector_10" d="M31.8707 13.5875C31.8707 13.5875 32.1207 13.9875 31.5957 14.925C29.1082 19.3875 26.6332 19.4875 26.1582 19.8625C25.6332 20.2875 25.4082 20.2625 25.4082 20.2625C25.4582 19.8875 25.4832 18.3125 25.5082 18.1625C25.8832 16.0875 29.0457 16.1125 31.5082 13.975C31.8832 13.6375 31.8582 13.575 31.8582 13.575L31.8707 13.5875ZM23.5457 23.1875C23.5457 23.1875 24.1082 24.775 24.1832 26.3875C24.3207 28.9375 26.7707 29.0125 28.4457 29.0125V27.5875C27.1957 27.5875 26.0832 27.4125 25.1832 25.525C24.7065 24.6996 24.1586 23.9175 23.5457 23.1875V23.1875ZM23.4707 43.8125C23.4707 43.8125 24.3707 42.6875 25.4207 40.1125C25.6616 39.5001 26.0763 38.9715 26.6138 38.5917C27.1512 38.2119 27.788 37.9976 28.4457 37.975V35.975C25.7457 35.975 24.4457 36.975 24.3207 38.4625C24.0207 41.4625 23.4707 43.8 23.4707 43.8V43.8125ZM33.3707 23.1875C33.3707 23.1875 32.7957 24.775 32.7207 26.3875C32.5832 28.95 30.1332 29.0125 28.4582 29.0125V27.6C29.7207 27.6 30.8207 27.4125 31.7332 25.5375C32.2082 24.7 32.7582 23.9125 33.3582 23.1875H33.3707ZM33.4332 43.8125C33.4332 43.8125 32.5457 42.7 31.4832 40.1125C31.2404 39.5024 30.8248 38.9765 30.2875 38.599C29.7502 38.2216 29.1145 38.009 28.4582 37.9875V35.9875C31.1582 35.9875 32.4582 36.9875 32.5957 38.4625C32.7644 40.2614 33.0441 42.0481 33.4332 43.8125V43.8125Z" fill="black"/>
</g>
</g>
<defs>
<clipPath id="clip0_2909_185324">
<path d="M0.246094 32C0.246094 14.3269 14.573 0 32.2461 0V0C49.9192 0 64.2461 14.3269 64.2461 32V32C64.2461 49.6731 49.9192 64 32.2461 64V64C14.573 64 0.246094 49.6731 0.246094 32V32Z" fill="white"/>
</clipPath>
</defs>
</svg>
