<svg width="65" height="64" viewBox="0 0 65 64" fill="none" xmlns="http://www.w3.org/2000/svg">
<g id="Rounded=Niger (NE)">
<g clip-path="url(#clip0_2909_185444)">
<path id="Vector" d="M0.246094 0H64.2461V64H0.246094V0Z" fill="#0DB02B"/>
<path id="Vector_2" d="M0.246094 0H64.2461V42.6625H0.246094V0Z" fill="#F5F5F5"/>
<path id="Vector_3" d="M0.246094 0H64.2461V21.3375H0.246094V0Z" fill="#E05206"/>
<path id="Vector_4" d="M32.2461 41.0625C37.2512 41.0625 41.3086 37.0051 41.3086 32C41.3086 26.9949 37.2512 22.9375 32.2461 22.9375C27.241 22.9375 23.1836 26.9949 23.1836 32C23.1836 37.0051 27.241 41.0625 32.2461 41.0625Z" fill="#E05206"/>
</g>
</g>
<defs>
<clipPath id="clip0_2909_185444">
<path d="M0.246094 32C0.246094 14.3269 14.573 0 32.2461 0V0C49.9192 0 64.2461 14.3269 64.2461 32V32C64.2461 49.6731 49.9192 64 32.2461 64V64C14.573 64 0.246094 49.6731 0.246094 32V32Z" fill="white"/>
</clipPath>
</defs>
</svg>
