<svg width="65" height="64" viewBox="0 0 65 64" fill="none" xmlns="http://www.w3.org/2000/svg">
<g id="Rounded=Norfolk Island (NF)">
<g clip-path="url(#clip0_2909_185322)">
<g id="Group">
<path id="Vector" fill-rule="evenodd" clip-rule="evenodd" d="M19.7207 0H44.7707V64H19.7207V0Z" fill="#F5F5F5"/>
<path id="Vector_2" fill-rule="evenodd" clip-rule="evenodd" d="M0.246094 0H19.7211V64H0.246094V0ZM44.7711 0H64.2461V64H44.7711V0Z" fill="#198200"/>
</g>
<g id="Group_2">
<path id="Vector_3" fill-rule="evenodd" clip-rule="evenodd" d="M30.6211 41.55V46.675L32.6836 46.7C32.6836 46.7 32.0211 42.225 32.3836 41.625C32.7586 41.0375 33.0961 41.125 33.0961 41.125C33.0961 41.125 34.4461 41.525 34.5961 41.4625C34.7461 41.4 34.5711 40.95 35.2961 41.0125C35.5336 40.925 35.4086 40.5125 35.6211 40.5C35.8336 40.475 39.9586 41.65 40.8461 40.5375C40.6211 39.9125 39.8086 40.5 39.5961 40.5125C39.3961 40.5125 38.5961 40.1375 38.1211 40.5125C37.6836 40.2 35.7461 39.9875 35.7461 39.9875C35.4961 39.7375 40.3711 40.1125 40.6586 39.925C41.2336 39.35 39.5961 39.4125 39.3336 39.6C38.8836 39.325 38.3086 39.35 37.9586 39.5375C37.7836 39.1375 36.2086 39.3125 35.3211 39.2C35.0336 39.025 35.0711 38.9375 35.2711 38.825C37.1211 38.9125 38.9586 39.15 40.8086 39.075C41.3086 38.4125 40.1836 38.1625 39.4836 38.725C39.0711 38.05 38.2336 38.7 37.6836 38.6375C37.1336 38.575 37.3836 37.8875 38.0961 38C38.7961 38.1 40.0586 37.95 40.2961 37.625C40.5336 37.3125 40.1586 36.9875 38.9961 37.2875C38.5961 36.9125 37.7336 37.2875 37.3211 37.4125C36.7836 37.125 35.5336 37.375 35.1086 37.4875C34.6836 37.225 37.3086 36.8 37.3086 36.8C38.3086 36.7875 38.8836 36.6125 39.2086 36.525C40.7336 35.7 39.1836 35.6125 38.3836 36.2125C37.8836 35.825 37.4086 36.25 36.9586 36.4C36.5086 36.55 35.6586 36.65 35.6586 36.5875C35.6586 36.525 36.8836 35.775 36.8836 35.775C36.8836 35.775 38.3836 35.6625 38.6711 35.625C38.9711 35.5875 40.5086 34.8 38.4211 35.325C37.6961 35.3875 37.2586 35.35 36.9836 35.3625C35.3711 35.2 37.1336 35.05 37.1336 35.05C37.1336 35.05 39.4086 34.8375 39.4461 34.725C39.4836 33.85 37.5711 34.2625 37.5711 34.2625C37.5711 33.625 35.7836 34.275 35.7836 34.2625C35.4461 34.0625 35.9836 33.85 35.9836 33.85C36.4461 33.7375 37.1586 33.7 37.3336 33.55C37.3336 33.55 38.6586 33.55 38.8211 33.1875C38.4961 32.2875 36.0086 33.35 35.6836 33.5125C35.2336 33.5125 35.9836 32.7875 35.9961 32.7625C36.0211 32.7375 38.0461 32.65 39.0086 31.35C39.0836 30.5625 37.8836 31.8 37.8836 31.8C37.7961 30.775 36.5836 31.8625 35.8836 31.95C35.1711 32.0375 35.1461 31.625 35.6336 31.575C36.1336 31.5 36.6836 31.55 36.9586 30.8C37.2461 30.05 38.0836 30.8375 38.2211 30.55C38.3711 30.2875 37.9211 30.05 37.9211 30.05C37.9211 30.05 38.5461 29.4125 37.5461 29.425C36.5461 29.45 35.2336 29.3 35.2336 29.3C35.2336 29.3 36.2836 28.9 37.2586 28.925C38.2461 28.9375 37.7086 28.2125 36.7586 28.2125C35.8336 28.2125 35.3336 27.8875 35.3336 27.8875L36.9461 27.2875L36.8336 26.8375C36.8336 26.8375 37.7711 26.0875 36.4586 26.2625L34.9711 26.4625L32.3086 26.8625C32.2836 26.8625 31.5836 26.65 32.2586 26.4875C32.9461 26.3125 35.3586 25.8125 35.7211 25.95C36.0961 26.075 35.6836 25.05 34.3961 24.925C33.1211 24.8 32.3211 25.2375 32.3211 25.2375C32.3211 25.2375 31.4961 24.9375 32.2586 24.6875C33.0336 24.4375 34.2586 24.775 34.2586 24.775C34.2586 24.775 35.6211 24.3625 34.4836 24.1875C33.3586 24.025 32.9836 24.35 32.4836 24.3625C32.2711 24.1125 34.2586 24.05 34.3836 23.825C34.1711 23.45 32.9336 23.825 32.2211 23.825C31.9086 23.7 31.8961 23.4875 32.2461 23.3625C32.9711 23.3375 33.6586 23.375 34.3961 23.35C34.3711 22.95 34.3961 22.4875 34.3836 22.1C33.4461 21.925 32.3586 22.225 31.8336 22.2C31.9711 21.775 33.9836 21.6625 34.2086 21.55C34.6711 20.9625 32.2461 21.55 32.2086 21.55C31.7961 21.4875 31.8336 21.2125 32.0836 21.05C32.7086 20.9875 34.0961 21.1375 33.9961 20.725C33.9086 20.325 33.0336 20.5375 32.6711 20.625C32.2961 20.7125 31.7711 20.65 31.7711 20.65C31.5336 20.3375 33.8586 20.4625 33.8461 20.225C33.8086 19.9375 32.3711 20.1375 31.8836 20.15C31.4961 19.9 33.7211 19.7125 33.7586 19.6875C33.8336 18.975 32.2586 19.6875 31.9586 19.6875C31.6586 19.6875 31.8086 19.2375 31.8086 19.2375C31.8086 19.2375 32.4336 18.9625 32.4086 18.9125C32.3961 18.875 31.9461 18.725 31.9086 18.725C31.8586 18.725 31.9086 18.225 31.9086 18.225C31.9086 18.225 32.4086 17.85 32.3711 17.7375C32.3211 17.6375 31.7711 17.825 31.7711 17.825V17.4C31.7711 17.4 32.1711 17.35 32.2211 17.1625C32.2586 16.975 31.7211 16.95 31.7211 16.95L31.5211 14.7L31.3211 16.8L30.6211 16.9125C30.6211 16.9125 31.1086 17.1875 31.1961 17.4625C31.2836 17.7375 30.5961 17.65 30.5961 17.65C30.5961 17.65 31.1461 18.125 31.1961 18.3C31.2336 18.4625 30.4211 18.5125 30.4211 18.5125C30.4211 18.5125 31.1086 19.0125 31.1461 19.275C31.1961 19.5625 31.1461 19.7125 31.1461 19.7125C31.1461 19.7125 30.0211 18.7125 29.2961 19C28.9211 19.2 30.1586 19.2875 30.9836 20C30.9836 20.1625 28.9836 19.5125 28.9086 19.925C28.9586 20.0375 31.0336 20.3375 31.1961 20.6C30.4336 20.6375 28.8586 20.4375 28.9086 20.6875C28.7461 20.975 30.3961 20.8125 31.0836 21.0625C31.2836 21.2875 31.2711 21.475 30.9211 21.5C30.2461 21.1875 28.7586 20.95 28.7586 21.35C28.7586 21.4625 30.2961 21.3875 30.8461 21.7625C30.1086 21.925 27.5961 21.4125 27.5836 21.6625C27.6586 21.7875 28.0586 22.2875 28.7336 22.275C29.4211 22.25 30.9961 22.55 31.1086 22.7625C31.2086 22.975 29.0586 22.3125 28.2336 22.7C27.4086 23.0875 30.5711 22.85 31.0836 23.325C31.5961 23.8 30.0586 23.275 30.0586 23.275C30.0586 23.275 27.9336 22.975 27.6086 23.125C27.2836 23.275 26.9211 23.625 26.9211 23.625C26.9211 23.625 27.1336 24.05 27.3461 23.9625C27.5586 23.875 27.2836 24.2125 27.2836 24.2125C27.2836 24.2125 30.2836 24.9375 30.9336 25.5875C31.5961 26.2125 27.1336 24.5875 27.1336 24.5875C27.1336 24.5875 25.3336 25.2375 27.2336 25.2875C27.0211 25.6 27.3586 25.7875 27.3586 25.7875C27.3586 25.7875 30.5086 26.4625 30.8336 26.975C31.1461 27.475 28.6711 26.475 28.1211 26.2C27.5586 25.925 25.9836 26.375 25.9961 26.475C26.0211 26.5875 26.7711 26.7375 26.7961 26.925C26.8086 27.125 25.8711 27.175 25.8711 27.35C25.8711 27.525 29.8711 28.35 30.9336 29.2625C31.9961 30.175 27.7961 28.1875 27.7961 28.1875C27.7961 28.1875 28.0336 28.5125 27.7961 28.6C27.5586 28.675 26.7211 27.4 25.3586 28.1875C25.1086 28.5125 26.5586 28.775 26.9211 28.8125C26.7961 29.125 26.6836 29.2375 27.1961 29.5625C27.7086 29.875 26.1961 29.0875 26.1961 29.125L26.2961 29.6875C25.8211 29.3125 25.2586 29.1875 24.7211 29.575C24.7211 29.575 24.6961 29.9625 25.2586 30.2C24.9461 30.825 25.5961 30.625 26.6211 31.2C25.0961 30.8 24.9711 31.55 26.0586 31.7125C27.1586 31.8875 30.1461 31.9875 30.8461 32.9125C31.5586 33.825 29.8461 32.5625 29.6586 32.5375C29.6114 32.6877 29.582 32.8429 29.5711 33C29.1348 32.7127 28.653 32.5014 28.1461 32.375C28.1086 32.475 28.1211 32.5875 28.0711 32.675C27.5711 32.325 27.1461 32.075 26.4336 32.0375L26.3461 32.375C26.3461 32.375 25.7461 31.625 24.5711 32.375C23.9086 32.85 27.0461 32.55 27.5711 33.1C28.0711 33.6625 27.6711 33.75 27.6711 33.75L26.3836 33.275C26.3836 33.275 24.8711 33 24.4461 33.3375C24.0086 33.675 30.6836 34.5125 30.8711 35.4375C30.9961 35.9375 29.3086 34.9125 27.8336 34.475L27.6711 34.975C27.6711 34.975 27.0836 34.375 26.4211 34.275L26.5461 34.85C26.5461 34.85 24.9211 34.0875 24.0836 34.4875C23.2461 34.9 26.9836 35.1125 27.3336 35.4875C27.6711 35.8875 26.1961 35.2375 26.0586 35.4875C25.9336 35.75 24.1211 35.025 24.1461 35.3625C24.1586 35.7125 24.3961 35.9 24.3961 35.9C24.3961 35.9 28.1836 36.275 28.3086 36.7125C28.4336 37.1625 26.2086 36.4625 26.2086 36.4625C26.2086 36.4625 25.9961 36.775 26.1711 36.925C26.3461 37.075 24.8836 36.075 25.0211 36.7375C24.5461 36.55 23.3336 35.9625 23.4961 36.4125C23.6711 36.8625 26.9461 37.5 26.9461 37.5C26.9461 37.5 25.5086 37.6125 25.5711 37.975C23.7336 36.85 23.7836 37.575 23.8211 37.6C23.8586 37.6125 21.4461 36.9875 23.2711 37.975C25.0836 38.9625 24.2461 38.7875 24.2711 38.8125C24.2961 38.825 24.4586 39.3125 24.4211 39.3125C24.3711 39.3125 23.1711 38.6625 22.7711 38.6125C22.3711 38.575 20.4461 39.15 22.4961 40.05C24.5461 40.95 25.8086 39.8375 26.9461 39.9625C28.0711 40.0875 28.6086 40.2875 28.4961 40.65C28.3961 41.0125 27.3461 39.45 26.2461 40.8C24.9836 40.55 24.1211 40.4125 24.7711 41.325C22.7211 40.575 21.4711 41.575 24.0586 41.975C26.5961 42.05 28.1586 41.35 28.1586 41.35C28.1586 41.35 28.5836 42.1375 29.2086 41.5875C29.8336 41.025 29.8461 41.8 29.8711 41.8L30.4711 41.55H30.6211V41.55Z" fill="#198200" stroke="black" stroke-width="0.0875" stroke-linecap="round" stroke-linejoin="round"/>
<path id="Vector_4" fill-rule="evenodd" clip-rule="evenodd" d="M30.871 38.5V38.15C30.871 38.15 30.0585 38.0125 29.671 38.0875C29.421 37.9625 29.2085 37.775 28.9335 37.925C28.8835 38.05 29.4335 38.35 29.6335 38.35C29.8585 38.4875 30.871 38.525 30.871 38.5125V38.5ZM30.8585 39.0875C30.8585 39.0875 30.046 38.8 29.7335 39.1375C29.7835 39.5 30.6835 39.675 30.8585 39.575C31.0585 39.475 30.8585 39.1125 30.8585 39.0875ZM32.221 39.2375V39.4875C32.221 39.4875 33.1835 39.675 33.346 39.4625C33.521 39.2625 32.596 39.125 32.221 39.2375ZM32.171 38.2375L32.2085 38.525C32.2085 38.525 33.046 38.7125 33.3585 38.25C33.6835 37.8 32.6335 38.25 32.171 38.2375V38.2375ZM32.221 37.2625V37.45C32.221 37.45 32.846 37.55 32.9835 37.2875C33.1335 37.0125 32.2335 37.2875 32.221 37.2625V37.2625ZM30.9085 36.6875C30.8085 36.5625 30.471 36.2125 29.5585 36.1125C28.9335 36.1125 30.7085 37.05 30.9085 36.6875ZM32.196 35.7375L32.171 35.9875C32.171 35.9875 34.321 35.3625 34.821 35.4C35.271 35.275 35.3585 34.9625 35.346 34.9625C34.9585 34.6875 33.1085 35.1875 32.196 35.7375ZM32.246 34.9875L32.221 35.2375C32.221 35.2375 33.721 34.9375 34.1335 34.65C34.5335 34.3625 32.2585 34.9875 32.246 34.975V34.9875ZM32.1835 34.2375V34.4875C32.1835 34.4875 33.1835 34.4625 33.396 34.25C33.521 34.05 32.5085 34.225 32.1835 34.2375ZM34.2835 36.3625C34.2835 36.3625 34.8085 36.425 34.9085 36.275C34.896 36 34.2835 36.3625 34.2835 36.35V36.3625ZM32.221 33.3L32.2335 33.85C32.2335 33.85 34.6585 33.075 34.8085 32.9375C34.9585 32.8 35.3085 32.3625 32.221 33.3V33.3ZM32.1585 32.525V32.925C32.1585 32.925 33.1335 32.8625 33.5835 32.4875C34.021 32.1125 32.1585 32.5375 32.1585 32.525V32.525ZM30.9835 31.6125L31.046 31.9875L27.846 30.9375C27.846 30.9375 27.6835 30.4125 30.971 31.6125H30.9835ZM31.0335 30.325C31.0335 30.3625 31.0335 30.675 31.021 30.6625C31.021 30.6625 28.796 29.7375 28.7085 29.8125C28.421 29.125 31.0335 30.3375 31.0335 30.3125V30.325ZM32.121 30.9L32.1585 31.2125C32.1585 31.2125 33.521 30.925 33.596 30.7875C33.671 30.6625 32.121 30.9125 32.121 30.9ZM32.146 31.625L32.196 31.9375C32.196 31.9375 32.7335 31.9 32.821 31.775C32.896 31.65 32.146 31.625 32.146 31.625V31.625ZM32.071 29.9625V30.275C32.071 30.275 33.571 29.975 33.7335 29.8375C33.896 29.6875 32.0335 29.9625 32.071 29.9625V29.9625ZM32.071 29.1375C32.071 29.1625 32.021 29.45 32.0585 29.45C32.7752 29.3508 33.4766 29.1618 34.146 28.8875C34.4335 28.6375 32.096 29.175 32.071 29.1375ZM32.046 27.6875V28C32.046 28 33.196 27.7625 33.421 27.525C33.646 27.2875 32.046 27.7125 32.046 27.6875V27.6875ZM31.846 25.575L31.8835 26.05C31.8835 26.05 33.421 25.8375 33.646 25.575C33.871 25.325 31.846 25.575 31.846 25.575V25.575ZM31.1335 22.025V22.325C31.1335 22.325 30.396 22.2875 30.5835 22.1625C30.7585 22.0375 31.1335 22.05 31.1335 22.0375V22.025ZM31.821 22.425V22.825C31.821 22.825 32.7835 22.7375 32.8585 22.575C32.921 22.4375 31.8335 22.425 31.821 22.425ZM31.7585 23L31.796 23.25C31.8085 23.25 32.171 23.225 32.246 23.125C32.321 23.025 31.796 23.025 31.7585 23V23ZM30.9585 24.15C30.9585 24.175 30.9835 24.525 30.9585 24.525C30.9585 24.525 28.896 23.925 28.7085 23.9375C28.5085 23.9375 28.4585 23.4625 30.9585 24.15ZM31.121 24.825C31.121 24.8875 31.171 25.2625 31.096 25.25C31.021 25.2375 29.696 24.8125 29.846 24.6875C29.971 24.5625 31.121 24.85 31.121 24.8125V24.825ZM31.0085 27.65V27.9875C31.0085 27.9875 28.7085 27.2875 28.6335 27.175C28.546 27.05 28.321 26.5125 31.0085 27.65ZM31.096 28.475C31.096 28.4875 31.121 28.8 31.096 28.8L27.971 27.7C27.971 27.7 27.721 26.875 31.096 28.475V28.475Z" fill="#F5F5F5" stroke="black" stroke-width="0.1" stroke-linecap="round" stroke-linejoin="round"/>
<path id="Vector_5" fill-rule="evenodd" clip-rule="evenodd" d="M27.3711 39.3375V39.6875C27.3711 39.6875 26.7461 39.5125 26.5586 39.175C26.9211 39.075 27.3836 39.35 27.3711 39.3375Z" fill="#F5F5F5" stroke="black" stroke-width="0.1" stroke-linejoin="round"/>
</g>
</g>
</g>
<defs>
<clipPath id="clip0_2909_185322">
<path d="M0.246094 32C0.246094 14.3269 14.573 0 32.2461 0V0C49.9192 0 64.2461 14.3269 64.2461 32V32C64.2461 49.6731 49.9192 64 32.2461 64V64C14.573 64 0.246094 49.6731 0.246094 32V32Z" fill="white"/>
</clipPath>
</defs>
</svg>
