<svg width="65" height="64" viewBox="0 0 65 64" fill="none" xmlns="http://www.w3.org/2000/svg">
<g id="Rounded=Nicaragua (NI)">
<g clip-path="url(#clip0_2909_185320)">
<path id="Vector" d="M0.246094 0H64.2461V64H0.246094V0Z" fill="#0067C6"/>
<path id="Vector_2" d="M0.246094 21.3375H64.2461V42.6625H0.246094V21.3375Z" fill="#F5F5F5"/>
<path id="Vector_3" d="M22.6465 31.925L23.709 32L23.7215 31.8375L23.2965 31.8125L23.334 31.3125L23.784 30.9875V30.7875L23.3215 31.125C23.309 31.0125 23.2465 30.9 23.134 30.8625C23.034 30.825 22.9215 30.8125 22.834 30.8875C22.734 30.9625 22.709 31.1125 22.6965 31.225L22.6465 31.925V31.925ZM22.809 31.7875L22.8465 31.2625C22.859 31.175 22.8715 31.075 22.9465 31.0125C22.9634 30.9992 22.9834 30.9906 23.0046 30.9873C23.0258 30.984 23.0475 30.9862 23.0676 30.9938C23.0877 31.0013 23.1055 31.0139 23.1193 31.0303C23.1331 31.0467 23.1425 31.0664 23.1465 31.0875C23.209 31.2125 23.184 31.3625 23.1715 31.5L23.1465 31.8125L22.809 31.7875V31.7875ZM22.784 30.2875L23.8215 30.5375L24.0715 29.525L23.909 29.4875L23.709 30.3625L23.3965 30.275L23.5715 29.5L23.434 29.4625L23.2465 30.2375L22.9715 30.175L23.159 29.35L23.009 29.3125L22.784 30.2875V30.2875ZM23.159 28.9L24.159 29.25L24.2215 29.1L23.8215 28.975L23.984 28.5125C24.009 28.3875 24.034 28.2375 23.959 28.125C23.9293 28.0829 23.89 28.0485 23.8443 28.0246C23.7987 28.0007 23.748 27.988 23.6965 27.9875C23.5715 27.9875 23.484 28.075 23.434 28.175C23.359 28.3125 23.309 28.475 23.259 28.625L23.159 28.9V28.9ZM23.359 28.8L23.5215 28.35C23.5465 28.2625 23.5965 28.175 23.684 28.15C23.759 28.125 23.8465 28.1875 23.8465 28.275C23.8715 28.4 23.809 28.55 23.759 28.675L23.684 28.925L23.359 28.8V28.8ZM23.7215 27.6125L24.284 27.9375C24.3965 28 24.534 28.0375 24.6465 27.9625C24.7965 27.8875 24.8965 27.7125 24.9715 27.575C25.0215 27.45 25.0715 27.2875 24.9965 27.15C24.909 27.025 24.759 26.9625 24.634 26.875L24.259 26.6625L24.1965 26.7875C24.3715 26.9125 24.559 27.0125 24.734 27.1125C24.8215 27.1625 24.8965 27.2625 24.8715 27.3625C24.8504 27.4857 24.7988 27.6018 24.7215 27.7C24.659 27.7875 24.559 27.85 24.459 27.825C24.334 27.8125 24.259 27.7375 24.159 27.6875L23.784 27.475L23.7215 27.6V27.6125ZM24.484 26.3625L25.334 27L25.7215 26.4875C25.7965 26.375 25.8715 26.2375 25.8215 26.1125C25.7986 26.057 25.7608 26.009 25.7122 25.9737C25.6637 25.9384 25.6063 25.9172 25.5465 25.9125C25.4965 25.9125 25.4215 25.9375 25.3965 25.9625C25.4215 25.8375 25.334 25.7375 25.234 25.7125C25.109 25.6625 24.984 25.75 24.8965 25.8375C24.7965 25.9375 24.709 26.0625 24.6215 26.175L24.484 26.35V26.3625ZM24.6965 26.325L24.9965 25.95C25.0465 25.8875 25.1215 25.825 25.1965 25.8625C25.2715 25.9 25.284 25.9875 25.2465 26.0375C25.1965 26.1625 25.1215 26.2375 25.0465 26.3375L24.9215 26.5L24.6965 26.325V26.325ZM25.0465 26.575L25.3465 26.2C25.409 26.1375 25.4715 26.0625 25.559 26.075C25.634 26.1 25.684 26.175 25.6715 26.25C25.6215 26.3875 25.5215 26.5 25.434 26.625L25.309 26.7875L25.0465 26.5875V26.575ZM25.4465 25.225L26.1715 26L26.7965 25.4L26.6965 25.3L26.1965 25.775H26.1715L25.5465 25.1125L25.4465 25.225ZM26.384 24.4L27.034 25.25L27.159 25.15L26.509 24.3L26.384 24.4ZM27.334 23.75C27.2361 23.8123 27.1512 23.893 27.084 23.9875C27.0204 24.0663 26.9837 24.1634 26.9792 24.2646C26.9747 24.3658 27.0026 24.4658 27.059 24.55C27.1105 24.6346 27.1839 24.7037 27.2715 24.75C27.359 24.7875 27.4465 24.8125 27.5465 24.8C27.6729 24.7765 27.7934 24.7279 27.9007 24.657C28.0081 24.5862 28.1002 24.4945 28.1715 24.3875C28.2201 24.2909 28.2334 24.1803 28.209 24.075L28.059 24.1375C28.0965 24.35 27.959 24.45 27.809 24.55C27.559 24.6875 27.334 24.675 27.184 24.4625C27.0465 24.2125 27.209 24.0125 27.409 23.875C27.559 23.7875 27.6965 23.725 27.834 23.8125L27.959 23.7125C27.8787 23.6566 27.7816 23.6301 27.684 23.6375C27.5715 23.6375 27.459 23.675 27.334 23.7625V23.75ZM28.5965 23.125L28.484 24.3125L28.659 24.25L28.684 23.875L29.234 23.6625L29.509 23.9125L29.6715 23.8375L28.7715 23.05L28.5965 23.125ZM28.7465 23.25L29.0965 23.55L28.6965 23.7125L28.7465 23.25V23.25ZM30.934 22.4625L31.009 23.525L31.584 23.4875C31.734 23.475 31.8965 23.4375 31.9965 23.3125C32.0547 23.2349 32.094 23.1448 32.1114 23.0493C32.1288 22.9538 32.1237 22.8556 32.0965 22.7625C32.0681 22.6813 32.0182 22.6094 31.9522 22.5544C31.8862 22.4994 31.8064 22.4633 31.7215 22.45C31.5715 22.4125 31.409 22.4375 31.234 22.45L30.934 22.4625V22.4625ZM31.0965 22.6L31.559 22.575C31.6485 22.5703 31.7368 22.5968 31.809 22.65C31.8619 22.6876 31.9038 22.7388 31.9302 22.7982C31.9566 22.8576 31.9665 22.923 31.959 22.9875C31.955 23.0606 31.929 23.1307 31.8844 23.1887C31.8397 23.2467 31.7786 23.2899 31.709 23.3125L31.459 23.35L31.1465 23.3625L31.0965 22.6125V22.6ZM32.4215 22.4L32.359 23.4625L33.3965 23.525V23.375L32.5215 23.325L32.5465 23L33.334 23.05L33.3465 22.9L32.559 22.85V22.5625L33.4215 22.6125V22.4625L32.4215 22.4V22.4ZM35.209 22.85L34.834 23.85L34.959 23.8875L35.2715 23.1V23.0625L35.2965 23.1125L35.6715 24.1625L35.8465 24.2375L36.2215 23.2375L36.0965 23.1875L35.784 23.975V24.0125L35.759 23.975L35.384 22.9125L35.209 22.85ZM36.6465 23.4625L36.1465 24.4125L36.0215 24.3375L36.4965 23.3875L36.6465 23.4625ZM37.4465 23.9375C37.352 23.8721 37.246 23.8255 37.134 23.8C37.0353 23.7743 36.9309 23.7812 36.8363 23.8194C36.7418 23.8577 36.6621 23.9254 36.609 24.0125C36.5535 24.0899 36.519 24.1803 36.509 24.275C36.509 24.375 36.534 24.475 36.584 24.5625C36.6567 24.6646 36.7505 24.7498 36.859 24.8125C36.984 24.9 37.0965 24.9375 37.209 24.95C37.334 24.95 37.4215 24.925 37.5215 24.8625L37.3965 24.7375C37.2215 24.8625 37.0715 24.7875 36.9215 24.6875C36.684 24.5375 36.5965 24.3125 36.734 24.1C36.8965 23.85 37.159 23.9125 37.359 24.05C37.509 24.1375 37.6215 24.25 37.609 24.4125L37.734 24.475C37.7556 24.3777 37.7423 24.276 37.6965 24.1875C37.6351 24.0848 37.5492 23.9989 37.4465 23.9375ZM38.459 24.6875L37.3465 25.1375L37.4715 25.2625L37.8215 25.125L38.2715 25.5L38.184 25.875L38.309 25.9875L38.5965 24.8125L38.4715 24.6875H38.459ZM38.4215 24.8875L38.2965 25.3375L37.984 25.0625L38.4215 24.8875ZM39.2715 25.4375L38.4465 26.1125L38.5465 26.2375L38.8715 25.975L39.1965 26.3625L39.0965 26.9L39.2215 27.0625L39.3215 26.4875C39.4215 26.5625 39.559 26.6125 39.659 26.5375C39.759 26.5 39.8465 26.4125 39.8465 26.3C39.859 26.15 39.759 26.0375 39.6715 25.925L39.2715 25.4375V25.4375ZM39.2465 25.65C39.3715 25.8 39.4965 25.9375 39.5965 26.0875C39.6465 26.1625 39.7215 26.2625 39.6465 26.35C39.609 26.425 39.4965 26.425 39.434 26.375C39.309 26.2875 39.2215 26.15 39.109 26.0375L38.984 25.875L39.2465 25.65V25.65ZM40.509 27.1375L39.309 27.1875L39.409 27.35L39.784 27.325L40.0715 27.825L39.859 28.15L39.959 28.3L40.609 27.3L40.5215 27.1375H40.509ZM40.409 27.3L40.159 27.6875L39.9465 27.3125L40.409 27.3ZM41.1965 28.55C41.134 28.3625 41.0215 28.175 40.8465 28.0875C40.7468 28.0388 40.6337 28.0247 40.5251 28.0473C40.4165 28.0699 40.3184 28.128 40.2465 28.2125C40.1215 28.3625 40.1215 28.5625 40.1465 28.7375C40.1831 28.9472 40.2784 29.1423 40.4215 29.3L40.3465 29.325L40.3965 29.4625L40.8965 29.2875L40.6965 28.75L40.584 28.7875L40.734 29.1875L40.559 29.25C40.4176 29.116 40.3215 28.9412 40.284 28.75C40.2465 28.6 40.2465 28.425 40.359 28.325C40.484 28.2 40.6965 28.15 40.859 28.2625C40.9912 28.3796 41.0794 28.5384 41.109 28.7125C41.1465 28.825 41.1465 28.9625 41.059 29.05C41.034 29.0625 41.059 29.0875 41.0715 29.1125L41.1215 29.175C41.1658 29.1388 41.2012 29.0929 41.225 29.0409C41.2488 28.9889 41.2605 28.9322 41.259 28.875C41.259 28.7625 41.234 28.65 41.1965 28.55V28.55ZM41.509 29.3875L40.909 29.5C40.7965 29.525 40.7215 29.55 40.659 29.6C40.609 29.65 40.5715 29.7125 40.5465 29.8C40.5297 29.9081 40.5339 30.0185 40.559 30.125C40.584 30.25 40.6215 30.35 40.684 30.425C40.7215 30.5 40.784 30.55 40.8465 30.575C40.9215 30.5875 41.009 30.6 41.1215 30.575L41.709 30.45L41.684 30.3L41.109 30.425C40.8465 30.4625 40.759 30.325 40.709 30.1C40.659 29.85 40.6965 29.7 40.959 29.65L41.534 29.525L41.509 29.3875V29.3875ZM41.834 31.2L40.734 30.725V30.9L41.084 31.05L41.1215 31.625L40.809 31.825L40.8215 32L41.8465 31.375L41.834 31.2V31.2ZM41.6715 31.3L41.2715 31.55L41.234 31.1125L41.6715 31.3ZM23.4715 33.9625L23.3215 34L23.484 34.65L23.6465 34.6125L23.4715 33.9625ZM41.0215 33.9625L41.1715 34L41.009 34.65L40.8465 34.6125L41.0215 33.9625ZM25.1215 36.6875L23.934 36.825L24.034 36.975L24.409 36.9375L24.7215 37.425L24.5465 37.75L24.6465 37.9L25.2215 36.8375L25.1215 36.6875ZM25.034 36.8625L24.809 37.275L24.559 36.9125L25.034 36.8625V36.8625ZM25.584 37.35L24.8215 38.05L24.9215 38.175L25.559 37.5625L25.2215 38.4875L25.3465 38.6125L26.259 38.3375L25.634 38.925L25.734 39.025L26.484 38.325L26.334 38.15L25.409 38.4375L25.759 37.525L25.584 37.35ZM26.684 38.475L26.0465 39.325L26.8715 39.95L26.959 39.825L26.259 39.3L26.459 39.05L27.084 39.5125L27.184 39.3875L26.5465 38.9125L26.7215 38.6875L27.3965 39.2L27.484 39.075L26.684 38.475ZM27.734 39.2375L27.234 40.175L27.359 40.25L27.559 39.875L28.0215 40.125L28.1215 40.6625L28.2965 40.75L28.184 40.1875C28.309 40.225 28.434 40.2 28.5215 40.1125C28.584 40.0375 28.634 39.925 28.5965 39.825C28.559 39.6875 28.4215 39.6125 28.309 39.55L27.734 39.2375V39.2375ZM27.7965 39.45L28.284 39.7C28.3465 39.7625 28.4465 39.825 28.434 39.925C28.434 40.0125 28.334 40.05 28.259 40.05C28.0965 40.0125 27.9715 39.925 27.834 39.85L27.634 39.75L27.7965 39.45ZM28.934 39.8625L28.534 40.8625L28.684 40.9125L29.084 39.925L28.934 39.8625ZM29.8965 40.2C29.7882 40.162 29.6736 40.145 29.559 40.15C29.4578 40.151 29.3596 40.1843 29.2787 40.245C29.1977 40.3057 29.1383 40.3906 29.109 40.4875C29.0752 40.5794 29.0666 40.6786 29.084 40.775C29.109 40.875 29.159 40.9625 29.234 41.025C29.3275 41.1103 29.4384 41.1742 29.559 41.2125C29.6965 41.2625 29.8215 41.2625 29.934 41.25C30.0439 41.227 30.1416 41.1648 30.209 41.075L30.0715 41C29.9215 41.1625 29.759 41.125 29.584 41.075C29.3215 40.975 29.184 40.7875 29.259 40.5375C29.3465 40.2625 29.609 40.2625 29.8465 40.3375C30.009 40.3875 30.1465 40.4625 30.1715 40.625L30.3215 40.6375C30.3092 40.5425 30.2651 40.4544 30.1965 40.3875C30.1135 40.3012 30.0104 40.2368 29.8965 40.2V40.2ZM30.9715 40.45L30.2715 41.4125L30.4465 41.4375L30.659 41.1375L31.234 41.225L31.359 41.575L31.534 41.6L31.1465 40.475L30.9715 40.4375V40.45ZM31.034 40.625L31.184 41.0625L30.759 41L31.034 40.625V40.625ZM33.4715 40.45C33.356 40.4701 33.2456 40.5126 33.1465 40.575C33.0595 40.6256 32.9909 40.7025 32.9505 40.7946C32.91 40.8867 32.8999 40.9893 32.9215 41.0875C32.9409 41.1802 32.984 41.2663 33.0465 41.3375C33.109 41.425 33.1965 41.4625 33.2965 41.5C33.3965 41.525 33.5215 41.525 33.6715 41.5C33.7963 41.4763 33.9127 41.4203 34.009 41.3375C34.0941 41.268 34.1517 41.1706 34.1715 41.0625H33.9965C33.959 41.275 33.7965 41.3125 33.6215 41.3625C33.334 41.4125 33.1215 41.3125 33.0715 41.0625C33.0215 40.775 33.2465 40.6375 33.484 40.5875C33.6465 40.55 33.809 40.55 33.8965 40.675L34.0465 40.625C33.9918 40.5472 33.9126 40.49 33.8215 40.4625C33.6997 40.4255 33.5704 40.4212 33.4465 40.45H33.4715ZM34.184 40.325L34.484 41.35L35.484 41.05L35.434 40.9L34.5965 41.15L34.4965 40.85L35.259 40.6125L35.2215 40.475L34.459 40.7L34.3715 40.425L35.184 40.175L35.1465 40.0375L34.184 40.325V40.325ZM35.334 39.95L35.784 40.925L35.909 40.8625L35.534 40.0625L36.5715 40.5375H36.6465L36.7715 40.4625L36.334 39.5L36.209 39.5625L36.5715 40.3625L35.509 39.875L35.334 39.9625V39.95ZM36.509 39.4125L36.5965 39.5375L36.9715 39.2875L36.984 39.275L37.484 40.0375L37.609 39.95L37.1215 39.2V39.175L37.509 38.925L37.434 38.8L36.509 39.4125ZM37.584 38.6625L38.309 39.4625L38.4215 39.35L38.134 39.05L38.509 38.7L39.059 38.7625L39.1965 38.6375L38.6215 38.5625C38.6965 38.4625 38.7215 38.3125 38.659 38.2125C38.609 38.125 38.5215 38.05 38.409 38.05C38.259 38.05 38.159 38.15 38.034 38.25L37.584 38.675V38.6625ZM37.7965 38.675L38.209 38.3C38.2715 38.25 38.384 38.175 38.4715 38.2375C38.5465 38.2875 38.5465 38.3875 38.4965 38.4625C38.4215 38.5875 38.2965 38.6875 38.184 38.8L38.034 38.925L37.7965 38.675V38.675ZM38.8215 37.425L39.2965 38.5375L39.4215 38.4L39.259 38.05L39.634 37.6L39.9965 37.6875L40.109 37.5375L38.934 37.2875L38.8215 37.4375V37.425ZM39.009 37.475L39.4715 37.5625L39.1965 37.9L39.009 37.475ZM39.284 36.825L40.184 37.4125L40.6465 36.6875L40.5215 36.6L40.1465 37.175V37.2L40.1215 37.1875L39.3715 36.6875L39.284 36.825Z" fill="#C8A400"/>
<g id="Group">
<path id="Vector_4" d="M32.2419 24.1492L28.8819 29.9625L27.2393 32.8105H37.2446L35.6766 30.1012L32.2419 24.1492V24.1492Z" fill="#F5F5F5"/>
<g id="e">
<g id="d">
<path id="Vector_5" opacity="0.6" d="M32.2423 24.1492L31.9863 24.5759L32.2423 30.4425L32.4983 24.5759L32.2423 24.1492Z" fill="#17C0EB" stroke="#17C0EB" stroke-width="0.0106666"/>
<path id="Vector_6" d="M32.2421 29.5999H32.2314L32.2421 29.9199L32.2528 29.5999H32.2421Z" fill="#F5F5F5"/>
</g>
<g id="Group_2">
<path id="Vector_7" opacity="0.6" d="M38.2383 28.5052L37.7534 28.3936L32.253 30.4499L37.9116 28.8805L38.2383 28.5052Z" fill="#17C0EB" stroke="#17C0EB" stroke-width="0.0106666"/>
<path id="Vector_8" d="M33.0541 30.1895L33.0508 30.1794L32.7497 30.2884L33.0574 30.1997L33.0541 30.1895Z" fill="#F5F5F5"/>
</g>
<g id="Group_3">
<path id="Vector_9" opacity="0.6" d="M35.9482 35.5532L35.9045 35.0576L32.2491 30.4618L35.4903 35.3585L35.9482 35.5532Z" fill="#17C0EB" stroke="#17C0EB" stroke-width="0.0106666"/>
<path id="Vector_10" d="M32.7443 31.1436L32.7529 31.1373L32.5562 30.8847L32.7357 31.1498L32.7443 31.1436Z" fill="#F5F5F5"/>
</g>
<g id="Group_4">
<path id="Vector_11" opacity="0.6" d="M28.537 35.5532L28.9949 35.3585L32.2361 30.4618L28.5807 35.0576L28.537 35.5532Z" fill="#17C0EB" stroke="#17C0EB" stroke-width="0.0106666"/>
<path id="Vector_12" d="M31.7404 31.1436L31.749 31.1498L31.9285 30.8847L31.7318 31.1373L31.7404 31.1436Z" fill="#F5F5F5"/>
</g>
<g id="Group_5">
<path id="Vector_13" opacity="0.6" d="M26.2471 28.5052L26.5738 28.8805L32.2324 30.4499L26.732 28.3935L26.2471 28.5052Z" fill="#17C0EB" stroke="#17C0EB" stroke-width="0.0106666"/>
<path id="Vector_14" d="M31.431 30.1895L31.4277 30.1996L31.7354 30.2884L31.4343 30.1794L31.431 30.1895Z" fill="#F5F5F5"/>
</g>
</g>
<g id="Group_6">
<g id="d_2">
<path id="Vector_15" opacity="0.6" d="M33.1197 24.2106L32.8068 24.5975L32.2439 30.4426L33.3138 24.6687L33.1197 24.2106Z" fill="#17C0EB" stroke="#17C0EB" stroke-width="0.0106666"/>
<path id="Vector_16" d="M32.3611 29.6082L32.3506 29.6067L32.3166 29.9251L32.3717 29.6097L32.3611 29.6082Z" fill="#F5F5F5"/>
</g>
<g id="Group_7">
<path id="Vector_17" opacity="0.6" d="M38.4507 29.3585L37.9861 29.1805L32.253 30.4513L38.075 29.6847L38.4507 29.3585Z" fill="#17C0EB" stroke="#17C0EB" stroke-width="0.0106666"/>
<path id="Vector_18" d="M33.0829 30.305L33.0811 30.2945L32.7678 30.3606L33.0848 30.3155L33.0829 30.305Z" fill="#F5F5F5"/>
</g>
<g id="Group_8">
<path id="Vector_19" opacity="0.6" d="M35.2017 36.0193L35.2274 35.5224L32.2472 30.4626L34.7754 35.7628L35.2017 36.0193Z" fill="#17C0EB" stroke="#17C0EB" stroke-width="0.0106666"/>
<path id="Vector_20" d="M32.6429 31.2067L32.6523 31.2017L32.4927 30.9241L32.6335 31.2117L32.6429 31.2067Z" fill="#F5F5F5"/>
</g>
<g id="Group_9">
<path id="Vector_21" opacity="0.6" d="M27.8637 34.9879L28.3442 34.8588L32.2354 30.4609L27.9759 34.5032L27.8637 34.9879Z" fill="#17C0EB" stroke="#17C0EB" stroke-width="0.0106666"/>
<path id="Vector_22" d="M31.6496 31.0671L31.6572 31.0745L31.8718 30.8369L31.6419 31.0596L31.6496 31.0671Z" fill="#F5F5F5"/>
</g>
<g id="Group_10">
<path id="Vector_23" opacity="0.6" d="M26.5771 27.6897L26.8483 28.1069L32.2335 30.4485L27.0728 27.6467L26.5771 27.6897Z" fill="#17C0EB" stroke="#17C0EB" stroke-width="0.0106666"/>
<path id="Vector_24" d="M31.4764 30.0792L31.4717 30.0887L31.764 30.2194L31.481 30.0696L31.4764 30.0792Z" fill="#F5F5F5"/>
</g>
</g>
<g id="Group_11">
<g id="d_3">
<path id="Vector_25" opacity="0.6" d="M33.9795 24.3935L33.6158 24.733L32.2448 30.443L34.108 24.8742L33.9795 24.3935Z" fill="#17C0EB" stroke="#17C0EB" stroke-width="0.0106666"/>
<path id="Vector_26" d="M32.4771 29.633L32.4668 29.63L32.3888 29.9406L32.4873 29.6359L32.4771 29.633Z" fill="#F5F5F5"/>
</g>
<g id="Group_12">
<path id="Vector_27" opacity="0.6" d="M38.5421 30.2332L38.1068 29.9923L32.2527 30.4529L38.1247 30.504L38.5421 30.2332Z" fill="#17C0EB" stroke="#17C0EB" stroke-width="0.0106666"/>
<path id="Vector_28" d="M33.0951 30.4234L33.0947 30.4128L32.7753 30.4346L33.0955 30.4341L33.0951 30.4234Z" fill="#F5F5F5"/>
</g>
<g id="Group_13">
<path id="Vector_29" opacity="0.6" d="M34.3981 36.377L34.4927 35.8885L32.2457 30.4632L34.0116 36.0636L34.3981 36.377Z" fill="#17C0EB" stroke="#17C0EB" stroke-width="0.0106666"/>
<path id="Vector_30" d="M32.5339 31.2551L32.5439 31.2514L32.4245 30.9544L32.5239 31.2587L32.5339 31.2551Z" fill="#F5F5F5"/>
</g>
<g id="Group_14">
<path id="Vector_31" opacity="0.6" d="M27.275 34.3343L27.7688 34.2734L32.2342 30.4598L27.4536 33.8699L27.275 34.3343Z" fill="#17C0EB" stroke="#17C0EB" stroke-width="0.0106666"/>
<path id="Vector_32" d="M31.5706 30.9786L31.5771 30.987L31.8227 30.7816L31.564 30.9702L31.5706 30.9786Z" fill="#F5F5F5"/>
</g>
<g id="Group_15">
<path id="Vector_33" opacity="0.6" d="M27.0162 26.9281L27.2268 27.3789L32.2336 30.4473L27.5131 26.9544L27.0162 26.9281Z" fill="#17C0EB" stroke="#17C0EB" stroke-width="0.0106666"/>
<path id="Vector_34" d="M31.5353 29.9761L31.5293 29.9849L31.8006 30.155L31.5412 29.9672L31.5353 29.9761Z" fill="#F5F5F5"/>
</g>
</g>
<g id="Group_16">
<g id="d_4">
<path id="Vector_35" opacity="0.6" d="M34.8061 24.6942L34.3987 24.9799L32.2464 30.4435L34.8665 25.1881L34.8061 24.6942Z" fill="#17C0EB" stroke="#17C0EB" stroke-width="0.0106666"/>
<path id="Vector_36" d="M32.5888 29.6737L32.5791 29.6693L32.4587 29.966L32.5986 29.678L32.5888 29.6737Z" fill="#F5F5F5"/>
</g>
<g id="Group_17">
<path id="Vector_37" opacity="0.6" d="M38.5113 31.1122L38.1138 30.813L32.2525 30.4543L38.0602 31.3222L38.5113 31.1122Z" fill="#17C0EB" stroke="#17C0EB" stroke-width="0.0106666"/>
<path id="Vector_38" d="M33.0907 30.5424L33.0918 30.5318L32.7724 30.509L33.0896 30.553L33.0907 30.5424Z" fill="#F5F5F5"/>
</g>
<g id="Group_18">
<path id="Vector_39" opacity="0.6" d="M33.5523 36.6194L33.714 36.1489L32.2439 30.4637L33.2132 36.2553L33.5523 36.6194Z" fill="#17C0EB" stroke="#17C0EB" stroke-width="0.0106666"/>
<path id="Vector_40" d="M32.4193 31.2879L32.4297 31.2857L32.3527 30.9749L32.4088 31.2901L32.4193 31.2879Z" fill="#F5F5F5"/>
</g>
<g id="Group_19">
<path id="Vector_41" opacity="0.6" d="M26.7831 33.6052L27.2806 33.6136L32.2333 30.4585L27.0246 33.1702L26.7831 33.6052Z" fill="#17C0EB" stroke="#17C0EB" stroke-width="0.0106666"/>
<path id="Vector_42" d="M31.5035 30.8799L31.5088 30.8891L31.7806 30.7199L31.4981 30.8707L31.5035 30.8799Z" fill="#F5F5F5"/>
</g>
<g id="Group_20">
<path id="Vector_43" opacity="0.6" d="M27.557 26.235L27.7028 26.7108L32.2339 30.4461L28.0454 26.3303L27.557 26.235Z" fill="#17C0EB" stroke="#17C0EB" stroke-width="0.0106666"/>
<path id="Vector_44" d="M31.6077 29.8822L31.6006 29.8901L31.8455 30.0963L31.6149 29.8743L31.6077 29.8822Z" fill="#F5F5F5"/>
</g>
</g>
<g id="Group_21">
<g id="d_5">
<path id="Vector_45" opacity="0.6" d="M35.5833 25.1072L35.1401 25.3333L32.2484 30.4442L35.5743 25.6046L35.5833 25.1072Z" fill="#17C0EB" stroke="#17C0EB" stroke-width="0.0106666"/>
<path id="Vector_46" d="M32.6946 29.7296L32.6855 29.7239L32.525 30.0009L32.7036 29.7352L32.6946 29.7296Z" fill="#F5F5F5"/>
</g>
<g id="Group_22">
<path id="Vector_47" opacity="0.6" d="M38.359 31.9783L38.0069 31.6267L32.2526 30.4558L37.883 32.1235L38.359 31.9783Z" fill="#17C0EB" stroke="#17C0EB" stroke-width="0.0106666"/>
<path id="Vector_48" d="M33.0707 30.6596L33.0732 30.6493L32.7602 30.5822L33.0681 30.67L33.0707 30.6596Z" fill="#F5F5F5"/>
</g>
<g id="Group_23">
<path id="Vector_49" opacity="0.6" d="M32.6821 36.7418L32.9077 36.2983L32.2431 30.4638L32.397 36.3341L32.6821 36.7418Z" fill="#17C0EB" stroke="#17C0EB" stroke-width="0.0106666"/>
<path id="Vector_50" d="M32.3019 31.3045L32.3125 31.3037L32.2795 30.9852L32.2912 31.3052L32.3019 31.3045Z" fill="#F5F5F5"/>
</g>
<g id="Group_24">
<path id="Vector_51" opacity="0.6" d="M26.3973 32.8147L26.8888 32.8923L32.2323 30.4572L26.697 32.4175L26.3973 32.8147Z" fill="#17C0EB" stroke="#17C0EB" stroke-width="0.0106666"/>
<path id="Vector_52" d="M31.4511 30.7729L31.4551 30.7828L31.7478 30.653L31.4471 30.763L31.4511 30.7729Z" fill="#F5F5F5"/>
</g>
<g id="Group_25">
<path id="Vector_53" opacity="0.6" d="M28.1902 25.6241L28.2684 26.1155L32.2355 30.445L28.6606 25.7864L28.1902 25.6241Z" fill="#17C0EB" stroke="#17C0EB" stroke-width="0.0106666"/>
<path id="Vector_54" d="M31.6937 29.7995L31.6855 29.8064L31.8994 30.0446L31.7019 29.7927L31.6937 29.7995Z" fill="#F5F5F5"/>
</g>
</g>
<g id="Group_26">
<g id="d_6">
<path id="Vector_55" opacity="0.6" d="M36.2938 25.6241L35.8234 25.7864L32.2485 30.445L36.2156 26.1155L36.2938 25.6241Z" fill="#17C0EB" stroke="#17C0EB" stroke-width="0.0106666"/>
<path id="Vector_56" d="M32.7904 29.7995L32.7822 29.7927L32.5847 30.0447L32.7986 29.8064L32.7904 29.7995Z" fill="#F5F5F5"/>
</g>
<g id="Group_27">
<path id="Vector_57" opacity="0.6" d="M38.0867 32.8147L37.787 32.4175L32.2517 30.4572L37.5952 32.8922L38.0867 32.8147Z" fill="#17C0EB" stroke="#17C0EB" stroke-width="0.0106666"/>
<path id="Vector_58" d="M33.0331 30.7729L33.0371 30.763L32.7364 30.653L33.0291 30.7828L33.0331 30.7729Z" fill="#F5F5F5"/>
</g>
<g id="Group_28">
<path id="Vector_59" opacity="0.6" d="M31.8022 36.7418L32.0874 36.3341L32.2412 30.4639L31.5766 36.2984L31.8022 36.7418Z" fill="#17C0EB" stroke="#17C0EB" stroke-width="0.0106666"/>
<path id="Vector_60" d="M32.1827 31.3045L32.1934 31.3052L32.205 30.9853L32.1721 31.3037L32.1827 31.3045Z" fill="#F5F5F5"/>
</g>
<g id="Group_29">
<path id="Vector_61" opacity="0.6" d="M26.1256 31.9783L26.6015 32.1235L32.2319 30.4558L26.4776 31.6267L26.1256 31.9783Z" fill="#17C0EB" stroke="#17C0EB" stroke-width="0.0106666"/>
<path id="Vector_62" d="M31.4144 30.6597L31.417 30.67L31.7249 30.5822L31.4118 30.6493L31.4144 30.6597Z" fill="#F5F5F5"/>
</g>
<g id="Group_30">
<path id="Vector_63" opacity="0.6" d="M28.9017 25.1071L28.9107 25.6046L32.2366 30.4442L29.3449 25.3333L28.9017 25.1071Z" fill="#17C0EB" stroke="#17C0EB" stroke-width="0.0106666"/>
<path id="Vector_64" d="M31.7903 29.7295L31.7812 29.7352L31.9599 30.0009L31.7993 29.7239L31.7903 29.7295Z" fill="#F5F5F5"/>
</g>
</g>
<g id="Group_31">
<g id="d_7">
<path id="Vector_65" opacity="0.6" d="M36.9272 26.235L36.4388 26.3303L32.2503 30.4461L36.7814 26.7108L36.9272 26.235Z" fill="#17C0EB" stroke="#17C0EB" stroke-width="0.0106666"/>
<path id="Vector_66" d="M32.8763 29.8822L32.8691 29.8743L32.6385 30.0963L32.8834 29.8902L32.8763 29.8822Z" fill="#F5F5F5"/>
</g>
<g id="Group_32">
<path id="Vector_67" opacity="0.6" d="M37.7021 33.6052L37.4606 33.1702L32.2519 30.4585L37.2046 33.6136L37.7021 33.6052Z" fill="#17C0EB" stroke="#17C0EB" stroke-width="0.0106666"/>
<path id="Vector_68" d="M32.982 30.8799L32.9873 30.8706L32.7048 30.7199L32.9766 30.8891L32.982 30.8799Z" fill="#F5F5F5"/>
</g>
<g id="Group_33">
<path id="Vector_69" opacity="0.6" d="M30.9312 36.6194L31.2703 36.2553L32.2397 30.4637L30.7695 36.1489L30.9312 36.6194Z" fill="#17C0EB" stroke="#17C0EB" stroke-width="0.0106666"/>
<path id="Vector_70" d="M32.0648 31.2879L32.0752 31.2901L32.1313 30.9749L32.0543 31.2857L32.0648 31.2879Z" fill="#F5F5F5"/>
</g>
<g id="Group_34">
<path id="Vector_71" opacity="0.6" d="M25.9732 31.1122L26.4243 31.3222L32.2321 30.4543L26.3708 30.813L25.9732 31.1122Z" fill="#17C0EB" stroke="#17C0EB" stroke-width="0.0106666"/>
<path id="Vector_72" d="M31.3944 30.5424L31.3955 30.553L31.7126 30.509L31.3933 30.5318L31.3944 30.5424Z" fill="#F5F5F5"/>
</g>
<g id="Group_35">
<path id="Vector_73" opacity="0.6" d="M29.6782 24.6942L29.6179 25.1881L32.2379 30.4435L30.0856 24.9799L29.6782 24.6942Z" fill="#17C0EB" stroke="#17C0EB" stroke-width="0.0106666"/>
<path id="Vector_74" d="M31.8955 29.6737L31.8857 29.678L32.0256 29.966L31.9052 29.6693L31.8955 29.6737Z" fill="#F5F5F5"/>
</g>
</g>
<g id="Group_36">
<g id="d_8">
<path id="Vector_75" opacity="0.6" d="M37.4683 26.9281L36.9715 26.9544L32.251 30.4473L37.2578 27.3789L37.4683 26.9281Z" fill="#17C0EB" stroke="#17C0EB" stroke-width="0.0106666"/>
<path id="Vector_76" d="M32.9493 29.976L32.9434 29.9672L32.684 30.155L32.9553 29.9849L32.9493 29.976Z" fill="#F5F5F5"/>
</g>
<g id="Group_37">
<path id="Vector_77" opacity="0.6" d="M37.2096 34.3343L37.031 33.8699L32.2504 30.4598L36.7158 34.2734L37.2096 34.3343Z" fill="#17C0EB" stroke="#17C0EB" stroke-width="0.0106666"/>
<path id="Vector_78" d="M32.9143 30.9786L32.9209 30.9702L32.6622 30.7815L32.9078 30.987L32.9143 30.9786Z" fill="#F5F5F5"/>
</g>
<g id="Group_38">
<path id="Vector_79" opacity="0.6" d="M30.0856 36.377L30.4721 36.0636L32.2381 30.4632L29.991 35.8885L30.0856 36.377Z" fill="#17C0EB" stroke="#17C0EB" stroke-width="0.0106666"/>
<path id="Vector_80" d="M31.9499 31.2551L31.96 31.2587L32.0594 30.9544L31.9399 31.2514L31.9499 31.2551Z" fill="#F5F5F5"/>
</g>
<g id="Group_39">
<path id="Vector_81" opacity="0.6" d="M25.9416 30.2332L26.359 30.5039L32.231 30.4528L26.3769 29.9922L25.9416 30.2332Z" fill="#17C0EB" stroke="#17C0EB" stroke-width="0.0106666"/>
<path id="Vector_82" d="M31.389 30.4234L31.3887 30.4341L31.7088 30.4346L31.3894 30.4128L31.389 30.4234Z" fill="#F5F5F5"/>
</g>
<g id="Group_40">
<path id="Vector_83" opacity="0.6" d="M30.5039 24.3935L30.3754 24.8742L32.2386 30.443L30.8676 24.733L30.5039 24.3935Z" fill="#17C0EB" stroke="#17C0EB" stroke-width="0.0106666"/>
<path id="Vector_84" d="M32.0063 29.633L31.9961 29.6359L32.0946 29.9406L32.0166 29.63L32.0063 29.633Z" fill="#F5F5F5"/>
</g>
</g>
<g id="Group_41">
<g id="d_9">
<path id="Vector_85" opacity="0.6" d="M37.9081 27.6897L37.4124 27.6467L32.2517 30.4486L37.6369 28.1069L37.9081 27.6897Z" fill="#17C0EB" stroke="#17C0EB" stroke-width="0.0106666"/>
<path id="Vector_86" d="M33.0096 30.0792L33.0049 30.0696L32.7219 30.2194L33.0142 30.0888L33.0096 30.0792Z" fill="#F5F5F5"/>
</g>
<g id="Group_42">
<path id="Vector_87" opacity="0.6" d="M36.6215 34.9879L36.5093 34.5032L32.2498 30.4609L36.141 34.8588L36.6215 34.9879Z" fill="#17C0EB" stroke="#17C0EB" stroke-width="0.0106666"/>
<path id="Vector_88" d="M32.8351 31.067L32.8428 31.0596L32.6128 30.8369L32.8274 31.0745L32.8351 31.067Z" fill="#F5F5F5"/>
</g>
<g id="Group_43">
<path id="Vector_89" opacity="0.6" d="M29.2828 36.0193L29.7091 35.7628L32.2373 30.4626L29.257 35.5224L29.2828 36.0193Z" fill="#17C0EB" stroke="#17C0EB" stroke-width="0.0106666"/>
<path id="Vector_90" d="M31.8421 31.2067L31.8516 31.2117L31.9924 30.9241L31.8327 31.2017L31.8421 31.2067Z" fill="#F5F5F5"/>
</g>
<g id="Group_44">
<path id="Vector_91" opacity="0.6" d="M26.0337 29.3585L26.4094 29.6847L32.2314 30.4514L26.4983 29.1805L26.0337 29.3585Z" fill="#17C0EB" stroke="#17C0EB" stroke-width="0.0106666"/>
<path id="Vector_92" d="M31.4013 30.305L31.3994 30.3156L31.7164 30.3606L31.4031 30.2945L31.4013 30.305Z" fill="#F5F5F5"/>
</g>
<g id="Group_45">
<path id="Vector_93" opacity="0.6" d="M31.3648 24.2106L31.1707 24.6687L32.2407 30.4427L31.6777 24.5975L31.3648 24.2106Z" fill="#17C0EB" stroke="#17C0EB" stroke-width="0.0106666"/>
<path id="Vector_94" d="M32.1238 29.6082L32.1133 29.6097L32.1684 29.9251L32.1344 29.6067L32.1238 29.6082Z" fill="#F5F5F5"/>
</g>
</g>
<path id="Vector_95" d="M32.2418 28.3519C31.1056 28.3506 30.0071 28.7597 29.1485 29.5039L27.5912 32.2132C27.5354 32.5051 27.5068 32.8014 27.5059 33.0985H28.0392C28.0935 32.0219 28.5594 31.0074 29.3406 30.2646C30.1218 29.5218 31.1585 29.1076 32.2365 29.1076C33.3145 29.1076 34.3512 29.5218 35.1324 30.2646C35.9136 31.0074 36.3795 32.0219 36.4338 33.0985H36.9672C36.9697 32.8018 36.9447 32.5054 36.8925 32.2132L35.3352 29.5039C34.4761 28.7605 33.3779 28.3516 32.2418 28.3519Z" fill="#FF0000"/>
<path id="Vector_96" d="M32.2424 28.4479C31.037 28.4454 29.8778 28.9121 29.0105 29.7492L27.7305 31.9785C27.6398 32.3414 27.5932 32.7139 27.5918 33.0879H28.0505C28.1261 32.0278 28.6007 31.0357 29.3785 30.3114C30.1563 29.5871 31.1796 29.1845 32.2424 29.1845C33.3053 29.1845 34.3286 29.5871 35.1064 30.3114C35.8842 31.0357 36.3588 32.0278 36.4344 33.0879H36.8931C36.8922 32.7103 36.8456 32.3342 36.7544 31.9679L35.4744 29.7492C34.607 28.9121 33.4479 28.4454 32.2424 28.4479V28.4479Z" fill="#FF6600"/>
<path id="Vector_97" d="M32.2426 28.5332C31.5981 28.5315 30.9606 28.6666 30.3722 28.9295C29.7838 29.1925 29.2579 29.5773 28.8292 30.0585L27.9012 31.6585C27.7534 32.124 27.6814 32.6102 27.6879 33.0985H28.0399C28.0942 32.0219 28.5601 31.0074 29.3413 30.2646C30.1225 29.5218 31.1593 29.1075 32.2372 29.1075C33.3152 29.1075 34.3519 29.5218 35.1331 30.2646C35.9143 31.0074 36.3803 32.0219 36.4345 33.0985H36.8079C36.8079 32.5972 36.7225 32.1172 36.5839 31.6692L35.6452 30.0585C35.2182 29.5781 34.6941 29.1937 34.1076 28.9308C33.521 28.6678 32.8853 28.5323 32.2426 28.5332V28.5332Z" fill="#FFFF00"/>
<path id="Vector_98" d="M32.2427 28.6185C31.507 28.6182 30.7825 28.799 30.1332 29.145C29.484 29.491 28.9299 29.9916 28.52 30.6025L28.2214 31.1252C27.9191 31.7391 27.7621 32.4143 27.7627 33.0985H28.0507C28.1264 32.0384 28.6009 31.0463 29.3787 30.3221C30.1565 29.5978 31.1799 29.1951 32.2427 29.1951C33.3055 29.1951 34.3288 29.5978 35.1067 30.3221C35.8845 31.0463 36.359 32.0384 36.4347 33.0985H36.7227C36.7232 32.4143 36.5663 31.7391 36.264 31.1252L35.9653 30.5919C35.5554 29.9809 35.0014 29.4803 34.3521 29.1343C33.7029 28.7883 32.9784 28.6075 32.2427 28.6079V28.6185Z" fill="#00FF00"/>
<path id="Vector_99" d="M32.2423 28.6932C31.6643 28.6932 31.092 28.8073 30.5581 29.0288C30.0242 29.2503 29.5393 29.575 29.1311 29.9842C28.7228 30.3934 28.3993 30.8791 28.1791 31.4135C27.9589 31.9479 27.8463 32.5205 27.8477 33.0986H28.0503C28.126 32.0384 28.6005 31.0464 29.3783 30.3221C30.1562 29.5978 31.1795 29.1951 32.2423 29.1951C33.3051 29.1951 34.3285 29.5978 35.1063 30.3221C35.8841 31.0464 36.3586 32.0384 36.4343 33.0986H36.637C36.6384 32.5205 36.5257 31.9479 36.3055 31.4135C36.0853 30.8791 35.7618 30.3934 35.3536 29.9842C34.9454 29.575 34.4604 29.2503 33.9265 29.0288C33.3927 28.8073 32.8203 28.6932 32.2423 28.6932V28.6932Z" fill="#00CCFF"/>
<path id="Vector_100" d="M32.2419 28.7786C31.099 28.7786 30.0029 29.2326 29.1948 30.0407C28.3866 30.8489 27.9326 31.945 27.9326 33.0879H28.0819C28.0819 31.9846 28.5202 30.9265 29.3004 30.1463C30.0805 29.3662 31.1386 28.9279 32.2419 28.9279C33.3452 28.9279 34.4033 29.3662 35.1835 30.1463C35.9636 30.9265 36.4019 31.9846 36.4019 33.0879H36.5513C36.5456 31.9487 36.0891 30.8581 35.2816 30.0545C34.474 29.251 33.3811 28.7999 32.2419 28.7999V28.7786Z" fill="#0000FF"/>
<path id="Vector_101" d="M32.2422 28.8746C31.6812 28.8745 31.1257 28.9862 30.6083 29.2031C30.0909 29.42 29.6219 29.7378 29.2287 30.138C28.8355 30.5382 28.5259 31.0127 28.3181 31.5338C28.1103 32.0549 28.0083 32.6123 28.0182 33.1732H28.1036V33.0879C28.1149 31.9902 28.5618 30.942 29.3459 30.1739C30.1301 29.4058 31.1872 28.9806 32.2849 28.9919C33.3825 29.0032 34.4307 29.4501 35.1989 30.2342C35.967 31.0184 36.3922 32.0756 36.3809 33.1732H36.4662V33.0879C36.4662 32.5332 36.3569 31.9839 36.1447 31.4714C35.9324 30.9589 35.6213 30.4933 35.229 30.1011C34.8368 29.7088 34.3711 29.3977 33.8587 29.1854C33.3462 28.9731 32.7969 28.8639 32.2422 28.8639V28.8746Z" fill="#800080"/>
<path id="Vector_102" d="M32.2853 30.7306C32.2106 30.7306 32.1573 30.6772 32.0933 30.6666C32.0621 30.694 32.0388 30.7291 32.0257 30.7685C32.0126 30.8078 32.0101 30.85 32.0186 30.8906C32.0506 30.9012 32.0506 30.9332 32.1146 30.9866C32.1786 31.0399 32.1679 31.0612 32.1573 31.1999C32.1573 31.2426 32.1679 31.3599 32.2213 31.3706C32.2746 31.3812 32.3279 31.3386 32.3386 31.2426C32.3493 31.1679 32.3813 31.1146 32.4133 31.0719C32.4453 30.8692 32.3919 30.7946 32.2853 30.7306Z" fill="#510000"/>
<path id="Vector_103" d="M31.9435 30.2399C31.8795 30.2399 31.7728 30.3466 31.7302 30.2932C31.7088 30.2612 31.6982 30.1972 31.7302 30.1439C31.7782 30.0378 31.861 29.9513 31.9648 29.8986C32.2102 29.7492 32.3808 29.7919 32.4982 30.0052C32.6155 30.1972 32.7328 30.4106 32.7435 30.5812C32.7435 30.6346 32.7755 30.7306 32.7222 30.7839C32.5835 30.9332 32.2315 30.6239 32.0288 30.6772C31.9648 30.6879 31.8795 30.7412 31.8155 30.6986C31.7728 30.6666 31.8155 30.5919 31.8475 30.5599C31.9115 30.5066 32.0075 30.3039 31.9968 30.2186C31.9968 30.1759 31.9968 30.2399 31.9435 30.2399V30.2399Z" fill="#FF0000"/>
<path id="Vector_104" d="M31.9225 30.1439C31.7945 30.1865 31.8158 30.2505 31.7518 30.3039C31.7732 30.3145 31.8372 30.3359 31.9012 30.2719C31.9225 30.2505 31.9545 30.2399 31.9758 30.2399L31.9012 30.3145C31.8378 30.3667 31.7868 30.4323 31.7518 30.5065C31.7198 30.5919 31.7092 30.6879 31.7198 30.6985C31.7198 30.6985 31.7625 30.7839 31.8798 30.8265C32.0932 30.9119 32.1358 31.0932 32.3598 31.0932C32.5305 31.0932 32.5091 30.9759 32.6478 30.9972C32.7545 31.0185 32.8291 30.9225 32.7118 30.8692C32.5216 30.8318 32.326 30.8318 32.1358 30.8692C32.0932 30.4425 32.1358 30.5919 32.1252 30.3999C32.1145 30.2185 32.0505 30.2079 32.1252 30.0479C32.0718 30.1545 31.9972 30.1332 31.9118 30.1332L31.9225 30.1439Z" fill="url(#paint0_linear_2909_185320)"/>
<path id="Vector_105" d="M32.3486 29.8452L32.3379 29.9092L32.3699 30.0159L32.3912 30.1225C32.3912 30.1545 32.4339 30.1652 32.4659 30.1865C32.5086 30.2185 32.4659 30.2932 32.4979 30.3039C32.5192 30.3039 32.5512 30.1972 32.5512 30.1759V30.1012C32.5345 30.0686 32.5167 30.0366 32.4979 30.0052C32.4913 29.9942 32.4842 29.9835 32.4766 29.9732C32.4529 29.9373 32.4241 29.905 32.3912 29.8772C32.3809 29.8696 32.3702 29.8625 32.3592 29.8559L32.3379 29.8452H32.3486Z" fill="#FF2A2A"/>
<path id="Vector_106" d="M32.3806 30.6559L32.1672 30.5812C32.0286 30.5385 31.8899 30.4532 31.7939 30.4959C31.7619 30.5065 31.7619 30.5385 31.7512 30.5919C31.7512 30.6452 31.6979 30.7305 31.7512 30.6985C31.8152 30.6559 32.0072 30.7839 32.0712 30.8159C32.1032 30.8372 32.1779 30.8799 32.1886 30.9225C32.2099 30.9865 32.1886 31.1145 32.1886 31.1785C32.1886 31.2319 32.2099 31.3705 32.2632 31.3919C32.3272 31.4025 32.3806 31.3492 32.4019 31.2532C32.4339 31.1572 32.4446 31.1039 32.4872 31.0505C32.5299 30.9972 32.5726 30.9652 32.6259 30.9545C32.6899 30.9545 32.7752 31.0079 32.7752 30.9332C32.7752 30.8905 32.7326 30.8479 32.7539 30.7839C32.7646 30.7305 32.7112 30.7412 32.6579 30.7199L32.3699 30.6559H32.3806Z" fill="url(#paint1_linear_2909_185320)"/>
<path id="Vector_107" d="M32.0716 30.8159C32.029 30.7945 31.8263 30.6559 31.7517 30.7092C31.7197 30.7092 31.709 30.7092 31.709 30.6772L31.7303 30.5812C31.7303 30.5492 31.7517 30.4959 31.7837 30.4745C31.8583 30.4105 32.029 30.5279 32.1143 30.5599L32.0716 30.8159V30.8159Z" fill="#910000"/>
<path id="Vector_108" d="M32.4344 31.0826C32.5304 30.9119 32.5944 30.9332 32.7117 30.9332C32.7544 30.9332 32.7651 30.9012 32.7544 30.8586C32.7224 30.9226 32.5731 30.8586 32.4877 30.8906C32.3277 30.9652 32.3597 31.2852 32.2744 31.3172C32.3597 31.3919 32.3917 31.1359 32.4344 31.0826V31.0826Z" fill="#FF3A3A"/>
<g id="Group_46">
<path id="Vector_109" d="M27.2395 32.8105L26.1729 34.6559H38.3221L37.2555 32.8212H27.2502L27.2395 32.8105Z" fill="#F5F5F5"/>
<g id="n">
<path id="k" d="M26.8769 34.2825C26.7093 34.2822 26.5418 34.2929 26.3756 34.3145L26.3223 34.4105C26.5783 34.3785 26.8236 34.3358 27.0903 34.3358C27.4316 34.3358 27.7516 34.4212 28.1249 34.4212H28.6156C28.9889 34.4212 29.2983 34.3358 29.6503 34.3358C30.0023 34.3358 30.3222 34.4212 30.6956 34.4212H31.1862C31.5596 34.4212 31.8689 34.3358 32.2209 34.3358C32.5729 34.3358 32.8929 34.4212 33.2662 34.4212H33.7462C34.1196 34.4212 34.4396 34.3358 34.7916 34.3358C35.1436 34.3358 35.4636 34.4212 35.8369 34.4212H36.3169C36.6902 34.4212 37.0102 34.3358 37.3622 34.3358C37.6396 34.3358 37.8956 34.3892 38.1622 34.4105L38.1089 34.3039C37.953 34.2877 37.7963 34.2805 37.6396 34.2825H37.1596C36.7862 34.2825 36.4662 34.3572 36.1142 34.3679C35.7622 34.3679 35.4422 34.2825 35.0689 34.2825H34.5889C34.2156 34.2825 33.8956 34.3572 33.5436 34.3679C33.1916 34.3679 32.8716 34.2825 32.4982 34.2825H32.0289C31.6556 34.2825 31.3356 34.3572 30.9836 34.3679C30.6316 34.3679 30.3116 34.2825 29.9383 34.2825H29.4583C29.0849 34.2825 28.7649 34.3572 28.4129 34.3679C28.0609 34.3679 27.7516 34.2825 27.3783 34.2825H26.8876H26.8769Z" fill="url(#paint2_linear_2909_185320)"/>
<path id="Vector_110" d="M26.8769 34.2825C26.7093 34.2822 26.5418 34.2929 26.3756 34.3145L26.3223 34.4105C26.5783 34.3785 26.8236 34.3358 27.0903 34.3358C27.4316 34.3358 27.7516 34.4212 28.1249 34.4212H28.6156C28.9889 34.4212 29.2983 34.3358 29.6503 34.3358C30.0023 34.3358 30.3222 34.4212 30.6956 34.4212H31.1862C31.5596 34.4212 31.8689 34.3358 32.2209 34.3358C32.5729 34.3358 32.8929 34.4212 33.2662 34.4212H33.7462C34.1196 34.4212 34.4396 34.3358 34.7916 34.3358C35.1436 34.3358 35.4636 34.4212 35.8369 34.4212H36.3169C36.6902 34.4212 37.0102 34.3358 37.3622 34.3358C37.6396 34.3358 37.8956 34.3892 38.1622 34.4105L38.1089 34.3039C37.953 34.2877 37.7963 34.2805 37.6396 34.2825H37.1596C36.7862 34.2825 36.4662 34.3572 36.1142 34.3679C35.7622 34.3679 35.4422 34.2825 35.0689 34.2825H34.5889C34.2156 34.2825 33.8956 34.3572 33.5436 34.3679C33.1916 34.3679 32.8716 34.2825 32.4982 34.2825H32.0289C31.6556 34.2825 31.3356 34.3572 30.9836 34.3679C30.6316 34.3679 30.3116 34.2825 29.9383 34.2825H29.4583C29.0849 34.2825 28.7649 34.3572 28.4129 34.3679C28.0609 34.3679 27.7516 34.2825 27.3783 34.2825H26.8876H26.8769Z" fill="url(#paint3_linear_2909_185320)"/>
<path id="Vector_111" d="M26.8769 34.2825C26.7093 34.2822 26.5418 34.2929 26.3756 34.3145L26.3223 34.4105C26.5783 34.3785 26.8236 34.3358 27.0903 34.3358C27.4316 34.3358 27.7516 34.4212 28.1249 34.4212H28.6156C28.9889 34.4212 29.2983 34.3358 29.6503 34.3358C30.0023 34.3358 30.3222 34.4212 30.6956 34.4212H31.1862C31.5596 34.4212 31.8689 34.3358 32.2209 34.3358C32.5729 34.3358 32.8929 34.4212 33.2662 34.4212H33.7462C34.1196 34.4212 34.4396 34.3358 34.7916 34.3358C35.1436 34.3358 35.4636 34.4212 35.8369 34.4212H36.3169C36.6902 34.4212 37.0102 34.3358 37.3622 34.3358C37.6396 34.3358 37.8956 34.3892 38.1622 34.4105L38.1089 34.3039C37.953 34.2877 37.7963 34.2805 37.6396 34.2825H37.1596C36.7862 34.2825 36.4662 34.3572 36.1142 34.3679C35.7622 34.3679 35.4422 34.2825 35.0689 34.2825H34.5889C34.2156 34.2825 33.8956 34.3572 33.5436 34.3679C33.1916 34.3679 32.8716 34.2825 32.4982 34.2825H32.0289C31.6556 34.2825 31.3356 34.3572 30.9836 34.3679C30.6316 34.3679 30.3116 34.2825 29.9383 34.2825H29.4583C29.0849 34.2825 28.7649 34.3572 28.4129 34.3679C28.0609 34.3679 27.7516 34.2825 27.3783 34.2825H26.8876H26.8769Z" fill="url(#paint4_linear_2909_185320)"/>
</g>
<g id="Group_47">
<path id="k_2" d="M26.8769 34.2825C26.7093 34.2822 26.5418 34.2929 26.3756 34.3145L26.3223 34.4105C26.5783 34.3785 26.8236 34.3358 27.0903 34.3358C27.4316 34.3358 27.7516 34.4212 28.1249 34.4212H28.6156C28.9889 34.4212 29.2983 34.3358 29.6503 34.3358C30.0023 34.3358 30.3222 34.4212 30.6956 34.4212H31.1862C31.5596 34.4212 31.8689 34.3358 32.2209 34.3358C32.5729 34.3358 32.8929 34.4212 33.2662 34.4212H33.7462C34.1196 34.4212 34.4396 34.3358 34.7916 34.3358C35.1436 34.3358 35.4636 34.4212 35.8369 34.4212H36.3169C36.6902 34.4212 37.0102 34.3358 37.3622 34.3358C37.6396 34.3358 37.8956 34.3892 38.1622 34.4105L38.1089 34.3039C37.953 34.2877 37.7963 34.2805 37.6396 34.2825H37.1596C36.7862 34.2825 36.4662 34.3572 36.1142 34.3679C35.7622 34.3679 35.4422 34.2825 35.0689 34.2825H34.5889C34.2156 34.2825 33.8956 34.3572 33.5436 34.3679C33.1916 34.3679 32.8716 34.2825 32.4982 34.2825H32.0289C31.6556 34.2825 31.3356 34.3572 30.9836 34.3679C30.6316 34.3679 30.3116 34.2825 29.9383 34.2825H29.4583C29.0849 34.2825 28.7649 34.3572 28.4129 34.3679C28.0609 34.3679 27.7516 34.2825 27.3783 34.2825H26.8876H26.8769Z" fill="url(#paint5_linear_2909_185320)"/>
<path id="Vector_112" d="M26.8769 34.2825C26.7093 34.2822 26.5418 34.2929 26.3756 34.3145L26.3223 34.4105C26.5783 34.3785 26.8236 34.3358 27.0903 34.3358C27.4316 34.3358 27.7516 34.4212 28.1249 34.4212H28.6156C28.9889 34.4212 29.2983 34.3358 29.6503 34.3358C30.0023 34.3358 30.3222 34.4212 30.6956 34.4212H31.1862C31.5596 34.4212 31.8689 34.3358 32.2209 34.3358C32.5729 34.3358 32.8929 34.4212 33.2662 34.4212H33.7462C34.1196 34.4212 34.4396 34.3358 34.7916 34.3358C35.1436 34.3358 35.4636 34.4212 35.8369 34.4212H36.3169C36.6902 34.4212 37.0102 34.3358 37.3622 34.3358C37.6396 34.3358 37.8956 34.3892 38.1622 34.4105L38.1089 34.3039C37.953 34.2877 37.7963 34.2805 37.6396 34.2825H37.1596C36.7862 34.2825 36.4662 34.3572 36.1142 34.3679C35.7622 34.3679 35.4422 34.2825 35.0689 34.2825H34.5889C34.2156 34.2825 33.8956 34.3572 33.5436 34.3679C33.1916 34.3679 32.8716 34.2825 32.4982 34.2825H32.0289C31.6556 34.2825 31.3356 34.3572 30.9836 34.3679C30.6316 34.3679 30.3116 34.2825 29.9383 34.2825H29.4583C29.0849 34.2825 28.7649 34.3572 28.4129 34.3679C28.0609 34.3679 27.7516 34.2825 27.3783 34.2825H26.8876H26.8769Z" fill="url(#paint6_linear_2909_185320)"/>
<path id="Vector_113" d="M26.8769 34.2825C26.7093 34.2822 26.5418 34.2929 26.3756 34.3145L26.3223 34.4105C26.5783 34.3785 26.8236 34.3358 27.0903 34.3358C27.4316 34.3358 27.7516 34.4212 28.1249 34.4212H28.6156C28.9889 34.4212 29.2983 34.3358 29.6503 34.3358C30.0023 34.3358 30.3222 34.4212 30.6956 34.4212H31.1862C31.5596 34.4212 31.8689 34.3358 32.2209 34.3358C32.5729 34.3358 32.8929 34.4212 33.2662 34.4212H33.7462C34.1196 34.4212 34.4396 34.3358 34.7916 34.3358C35.1436 34.3358 35.4636 34.4212 35.8369 34.4212H36.3169C36.6902 34.4212 37.0102 34.3358 37.3622 34.3358C37.6396 34.3358 37.8956 34.3892 38.1622 34.4105L38.1089 34.3039C37.953 34.2877 37.7963 34.2805 37.6396 34.2825H37.1596C36.7862 34.2825 36.4662 34.3572 36.1142 34.3679C35.7622 34.3679 35.4422 34.2825 35.0689 34.2825H34.5889C34.2156 34.2825 33.8956 34.3572 33.5436 34.3679C33.1916 34.3679 32.8716 34.2825 32.4982 34.2825H32.0289C31.6556 34.2825 31.3356 34.3572 30.9836 34.3679C30.6316 34.3679 30.3116 34.2825 29.9383 34.2825H29.4583C29.0849 34.2825 28.7649 34.3572 28.4129 34.3679C28.0609 34.3679 27.7516 34.2825 27.3783 34.2825H26.8876H26.8769Z" fill="url(#paint7_linear_2909_185320)"/>
</g>
<g id="Group_48">
<path id="k_3" d="M26.8769 34.2825C26.7093 34.2822 26.5418 34.2929 26.3756 34.3145L26.3223 34.4105C26.5783 34.3785 26.8236 34.3358 27.0903 34.3358C27.4316 34.3358 27.7516 34.4212 28.1249 34.4212H28.6156C28.9889 34.4212 29.2983 34.3358 29.6503 34.3358C30.0023 34.3358 30.3222 34.4212 30.6956 34.4212H31.1862C31.5596 34.4212 31.8689 34.3358 32.2209 34.3358C32.5729 34.3358 32.8929 34.4212 33.2662 34.4212H33.7462C34.1196 34.4212 34.4396 34.3358 34.7916 34.3358C35.1436 34.3358 35.4636 34.4212 35.8369 34.4212H36.3169C36.6902 34.4212 37.0102 34.3358 37.3622 34.3358C37.6396 34.3358 37.8956 34.3892 38.1622 34.4105L38.1089 34.3039C37.953 34.2877 37.7963 34.2805 37.6396 34.2825H37.1596C36.7862 34.2825 36.4662 34.3572 36.1142 34.3679C35.7622 34.3679 35.4422 34.2825 35.0689 34.2825H34.5889C34.2156 34.2825 33.8956 34.3572 33.5436 34.3679C33.1916 34.3679 32.8716 34.2825 32.4982 34.2825H32.0289C31.6556 34.2825 31.3356 34.3572 30.9836 34.3679C30.6316 34.3679 30.3116 34.2825 29.9383 34.2825H29.4583C29.0849 34.2825 28.7649 34.3572 28.4129 34.3679C28.0609 34.3679 27.7516 34.2825 27.3783 34.2825H26.8876H26.8769Z" fill="url(#paint8_linear_2909_185320)"/>
<path id="Vector_114" d="M26.8769 34.2825C26.7093 34.2822 26.5418 34.2929 26.3756 34.3145L26.3223 34.4105C26.5783 34.3785 26.8236 34.3358 27.0903 34.3358C27.4316 34.3358 27.7516 34.4212 28.1249 34.4212H28.6156C28.9889 34.4212 29.2983 34.3358 29.6503 34.3358C30.0023 34.3358 30.3222 34.4212 30.6956 34.4212H31.1862C31.5596 34.4212 31.8689 34.3358 32.2209 34.3358C32.5729 34.3358 32.8929 34.4212 33.2662 34.4212H33.7462C34.1196 34.4212 34.4396 34.3358 34.7916 34.3358C35.1436 34.3358 35.4636 34.4212 35.8369 34.4212H36.3169C36.6902 34.4212 37.0102 34.3358 37.3622 34.3358C37.6396 34.3358 37.8956 34.3892 38.1622 34.4105L38.1089 34.3039C37.953 34.2877 37.7963 34.2805 37.6396 34.2825H37.1596C36.7862 34.2825 36.4662 34.3572 36.1142 34.3679C35.7622 34.3679 35.4422 34.2825 35.0689 34.2825H34.5889C34.2156 34.2825 33.8956 34.3572 33.5436 34.3679C33.1916 34.3679 32.8716 34.2825 32.4982 34.2825H32.0289C31.6556 34.2825 31.3356 34.3572 30.9836 34.3679C30.6316 34.3679 30.3116 34.2825 29.9383 34.2825H29.4583C29.0849 34.2825 28.7649 34.3572 28.4129 34.3679C28.0609 34.3679 27.7516 34.2825 27.3783 34.2825H26.8876H26.8769Z" fill="url(#paint9_linear_2909_185320)"/>
<path id="Vector_115" d="M26.8769 34.2825C26.7093 34.2822 26.5418 34.2929 26.3756 34.3145L26.3223 34.4105C26.5783 34.3785 26.8236 34.3358 27.0903 34.3358C27.4316 34.3358 27.7516 34.4212 28.1249 34.4212H28.6156C28.9889 34.4212 29.2983 34.3358 29.6503 34.3358C30.0023 34.3358 30.3222 34.4212 30.6956 34.4212H31.1862C31.5596 34.4212 31.8689 34.3358 32.2209 34.3358C32.5729 34.3358 32.8929 34.4212 33.2662 34.4212H33.7462C34.1196 34.4212 34.4396 34.3358 34.7916 34.3358C35.1436 34.3358 35.4636 34.4212 35.8369 34.4212H36.3169C36.6902 34.4212 37.0102 34.3358 37.3622 34.3358C37.6396 34.3358 37.8956 34.3892 38.1622 34.4105L38.1089 34.3039C37.953 34.2877 37.7963 34.2805 37.6396 34.2825H37.1596C36.7862 34.2825 36.4662 34.3572 36.1142 34.3679C35.7622 34.3679 35.4422 34.2825 35.0689 34.2825H34.5889C34.2156 34.2825 33.8956 34.3572 33.5436 34.3679C33.1916 34.3679 32.8716 34.2825 32.4982 34.2825H32.0289C31.6556 34.2825 31.3356 34.3572 30.9836 34.3679C30.6316 34.3679 30.3116 34.2825 29.9383 34.2825H29.4583C29.0849 34.2825 28.7649 34.3572 28.4129 34.3679C28.0609 34.3679 27.7516 34.2825 27.3783 34.2825H26.8876H26.8769Z" fill="url(#paint10_linear_2909_185320)"/>
</g>
<path id="Vector_116" d="M27.25 32.7999V32.8212H37.2446L37.2339 32.7999H27.25V32.7999ZM27.2287 32.8319L27.218 32.8639H37.2553L37.2446 32.8319H27.218H27.2287ZM27.2073 32.8745L27.186 32.9065H37.298L37.2766 32.8745H27.2073V32.8745ZM27.1753 32.9279L27.1433 32.9812H37.3406L37.3086 32.9279H27.1753ZM27.1327 33.0025L27.1007 33.0559H37.3833L37.3513 33.0025H27.1327V33.0025ZM27.09 33.0772L27.0687 33.1199H37.4153L37.3939 33.0772H27.09V33.0772ZM27.0473 33.1519L27.026 33.1945H37.4686L37.4366 33.1519H27.0473ZM27.0047 33.2265L26.9727 33.2905H37.5113L37.4793 33.2265H27.0153H27.0047Z" fill="url(#paint11_linear_2909_185320)"/>
<path id="Vector_117" d="M27.6982 33.3119C28.0609 33.3865 28.0929 33.3119 28.0929 33.3119H27.6982ZM36.3915 33.3119C36.3915 33.3119 36.4235 33.3865 36.7862 33.3119H36.3915Z" fill="url(#paint12_linear_2909_185320)"/>
</g>
<g id="Group_49">
<g id="t">
<path id="Vector_118" d="M35.5065 31.6799C35.3251 31.6799 35.2718 31.7759 35.2718 31.7759C34.9838 32.9065 34.0131 34.0479 32.8611 34.0479H32.0078V35.1999H38.5571L37.8958 34.0265C36.8611 33.8772 36.0185 32.8212 35.7518 31.7759C35.7518 31.7759 35.6878 31.6799 35.5065 31.6799V31.6799Z" fill="url(#paint13_linear_2909_185320)"/>
<path id="Vector_119" d="M35.5067 31.7332C35.4214 31.7332 35.3787 31.7439 35.3467 31.7652L35.3147 31.7972C35.1548 32.3878 34.8463 32.9276 34.4187 33.3652C33.992 33.8025 33.4587 34.1012 32.8614 34.1012H32.04V35.1572H38.536L37.928 34.0905C37.4267 34.0159 36.968 33.7492 36.6054 33.3652C36.1777 32.9276 35.8693 32.3878 35.7094 31.7972L35.6774 31.7652C35.6249 31.7379 35.5655 31.7267 35.5067 31.7332V31.7332Z" fill="#97C924"/>
<path id="Vector_120" d="M35.5064 31.7332H35.549V32.8852C35.5388 33.1275 35.4653 33.3629 35.3357 33.5679C35.2824 33.7385 35.229 33.6745 35.0904 33.8772C34.9105 33.9392 34.7246 33.9821 34.5357 34.0052C34.269 34.0479 33.6824 34.0905 33.373 34.0159C33.77 33.8944 34.1297 33.6742 34.4184 33.3759C34.4977 33.291 34.5725 33.202 34.6424 33.1092C34.7613 32.9615 34.8683 32.8045 34.9624 32.6399L35.069 32.4265C35.1201 32.3257 35.1663 32.2224 35.2077 32.1172C35.2489 32.0125 35.2845 31.9057 35.3144 31.7972L35.3464 31.7652L35.4104 31.7439L35.517 31.7332H35.5064Z" fill="#EDE71F"/>
<path id="Vector_121" d="M35.4429 31.8825C35.3895 32.5225 35.1975 33.2905 34.7282 33.7812C34.5575 33.9199 34.3335 34.0585 34.1309 34.0265C34.8455 33.4399 35.2829 32.5332 35.4322 31.8825H35.4429Z" fill="#C6CB24"/>
<path id="Vector_122" d="M34.8554 32.9919C34.7488 33.2799 34.3434 33.7065 33.9168 34.0585H33.6074C33.8741 34.0372 34.4928 33.5252 34.8554 32.9919V32.9919Z" fill="#9ECB34"/>
</g>
<g id="Group_50">
<path id="Vector_123" d="M35.5065 31.6799C35.3251 31.6799 35.2718 31.7759 35.2718 31.7759C34.9838 32.9065 34.0131 34.0479 32.8611 34.0479H32.0078V35.1999H38.5571L37.8958 34.0265C36.8611 33.8772 36.0185 32.8212 35.7518 31.7759C35.7518 31.7759 35.6878 31.6799 35.5065 31.6799V31.6799Z" fill="url(#paint14_linear_2909_185320)"/>
<path id="Vector_124" d="M35.5067 31.7332C35.4214 31.7332 35.3787 31.7439 35.3467 31.7652L35.3147 31.7972C35.1548 32.3878 34.8463 32.9276 34.4187 33.3652C33.992 33.8025 33.4587 34.1012 32.8614 34.1012H32.04V35.1572H38.536L37.928 34.0905C37.4267 34.0159 36.968 33.7492 36.6054 33.3652C36.1777 32.9276 35.8693 32.3878 35.7094 31.7972L35.6774 31.7652C35.6249 31.7379 35.5655 31.7267 35.5067 31.7332V31.7332Z" fill="#97C924"/>
<path id="Vector_125" d="M35.5064 31.7332H35.549V32.8852C35.5388 33.1275 35.4653 33.3629 35.3357 33.5679C35.2824 33.7385 35.229 33.6745 35.0904 33.8772C34.9105 33.9392 34.7246 33.9821 34.5357 34.0052C34.269 34.0479 33.6824 34.0905 33.373 34.0159C33.77 33.8944 34.1297 33.6742 34.4184 33.3759C34.4977 33.291 34.5725 33.202 34.6424 33.1092C34.7613 32.9615 34.8683 32.8045 34.9624 32.6399L35.069 32.4265C35.1201 32.3257 35.1663 32.2224 35.2077 32.1172C35.2489 32.0125 35.2845 31.9057 35.3144 31.7972L35.3464 31.7652L35.4104 31.7439L35.517 31.7332H35.5064Z" fill="#EDE71F"/>
<path id="Vector_126" d="M35.4429 31.8825C35.3895 32.5225 35.1975 33.2905 34.7282 33.7812C34.5575 33.9199 34.3335 34.0585 34.1309 34.0265C34.8455 33.4399 35.2829 32.5332 35.4322 31.8825H35.4429Z" fill="#C6CB24"/>
<path id="Vector_127" d="M34.8554 32.9919C34.7488 33.2799 34.3434 33.7065 33.9168 34.0585H33.6074C33.8741 34.0372 34.4928 33.5252 34.8554 32.9919V32.9919Z" fill="#9ECB34"/>
</g>
<g id="Group_51">
<path id="Vector_128" d="M32.4774 31.7866C32.776 32.9065 33.736 34.0479 34.888 34.0479H35.752V35.1999H28.7334V34.0479H29.5867C30.7387 34.0479 31.7094 32.9065 31.9974 31.7759C31.9974 31.7759 32.0614 31.6906 32.2427 31.6906C32.424 31.6906 32.4774 31.7759 32.4774 31.7759V31.7866Z" fill="url(#paint15_linear_2909_185320)"/>
<path id="Vector_129" d="M32.243 31.7332C32.3284 31.7332 32.371 31.7545 32.403 31.7652L32.435 31.7972C32.5949 32.3878 32.9034 32.9276 33.331 33.3652C33.7577 33.8025 34.291 34.1012 34.8883 34.1012H35.7097V35.1572H28.7764V34.0905H29.5977C30.1844 34.0905 30.7284 33.8025 31.155 33.3652C31.5788 32.9264 31.8835 32.3867 32.0404 31.7972L32.0724 31.7652C32.1252 31.739 32.1843 31.7279 32.243 31.7332V31.7332Z" fill="#97C924"/>
<path id="Vector_130" d="M32.168 31.7332C32.1574 31.7328 32.1467 31.7328 32.136 31.7332L32.072 31.7652L32.04 31.7972C32.0103 31.9058 31.9747 32.0126 31.9334 32.1172C31.8958 32.2259 31.8531 32.3326 31.8054 32.4372C31.7719 32.5059 31.7364 32.5735 31.6987 32.6399C31.6046 32.8046 31.4976 32.9615 31.3787 33.1092C31.3085 33.1984 31.2338 33.2838 31.1547 33.3652C30.8672 33.6674 30.5075 33.8914 30.1094 34.0159C30.408 34.0906 30.536 34.0159 30.8027 33.9732C31.016 33.9412 31.2507 33.9092 31.4427 33.8452C31.6027 33.6319 31.5494 33.7066 31.6027 33.5359C31.7307 33.3012 31.9227 33.0879 31.9654 32.8212C32.136 32.5012 32.168 31.9039 32.168 31.7332V31.7332Z" fill="#EDE71F"/>
<path id="Vector_131" d="M32.1684 31.8825C32.1258 32.5225 31.9231 33.2905 31.4538 33.7812C31.2831 33.9199 31.0698 34.0585 30.8564 34.0265C31.5818 33.4399 32.0191 32.5332 32.1684 31.8825Z" fill="#C6CB24"/>
<path id="Vector_132" d="M31.5811 32.9919C31.3492 33.4113 31.0289 33.7752 30.6424 34.0585H30.3438C30.6104 34.0372 31.2184 33.5252 31.5811 32.9919Z" fill="#9ECB34"/>
<path id="Vector_133" d="M32.3491 31.7439L32.4024 31.7652L32.4451 31.7972C32.4754 31.9056 32.511 32.0124 32.5517 32.1172C32.5892 32.2259 32.632 32.3327 32.6797 32.4372L32.7864 32.6399C32.8805 32.8046 32.9875 32.9615 33.1064 33.1092C33.1766 33.1984 33.2513 33.2838 33.3304 33.3652C33.616 33.6794 33.9752 33.9177 34.3757 34.0586C33.5971 34.0586 33.2664 33.9946 32.9891 33.6319C32.7874 33.4184 32.6345 33.1636 32.5411 32.8852C32.4877 32.6719 32.3277 32.1919 32.3384 31.7439H32.3491Z" fill="#EDE71F"/>
<path id="Vector_134" d="M32.4023 31.8825C32.445 32.5225 32.637 33.1625 33.1063 33.6532C33.277 33.8025 33.4903 33.9305 33.7037 33.8985C33.0335 33.4125 32.5694 32.6934 32.4023 31.8825V31.8825Z" fill="#C6CB24"/>
</g>
<g id="w">
<path id="Vector_135" d="M30.621 31.6799C30.429 31.6799 30.3756 31.7759 30.3756 31.7759C30.109 32.8212 29.117 34.1545 28.0823 34.3145L27.5703 35.1999H32.797V33.9945C31.8583 33.7385 31.101 32.7465 30.8556 31.7759C30.8556 31.7759 30.8023 31.6905 30.6103 31.6905L30.621 31.6799Z" fill="url(#paint16_linear_2909_185320)"/>
<path id="Vector_136" d="M30.6212 31.7332C30.5359 31.7332 30.4825 31.7545 30.4505 31.7652L30.4185 31.7972C30.2391 32.3824 29.9455 32.9262 29.5545 33.3972C29.1919 33.8559 28.5199 34.3145 28.0612 34.3572L27.6025 35.1572H32.7225V34.0159C32.3374 33.8888 31.9894 33.669 31.7092 33.3759C31.28 32.9352 30.9714 32.3916 30.8132 31.7972L30.7812 31.7652C30.7317 31.7404 30.6764 31.7294 30.6212 31.7332V31.7332Z" fill="#97C924"/>
<path id="Vector_137" d="M30.4712 31.8825C30.4072 32.8425 29.8738 34.0692 29.2658 34.2719C29.0632 34.3465 28.7218 34.3679 28.6045 34.3785C29.0748 34.1172 29.485 33.76 29.8084 33.33C30.1318 32.9 30.3612 32.4069 30.4818 31.8825H30.4712Z" fill="#93BC30"/>
<path id="Vector_138" d="M30.6207 31.7332H30.5674V32.8852C30.5674 33.1305 30.6634 33.3332 30.7807 33.5679L30.802 33.6212C30.8554 33.7385 30.8874 33.7812 31.0474 33.9092C31.5054 34.2361 32.0657 34.3875 32.626 34.3358C32.5087 34.2398 32.3807 34.1545 32.2634 34.0798L32.7434 34.0265C32.348 33.8973 31.992 33.6698 31.7087 33.3652C31.6572 33.3135 31.6073 33.2602 31.5594 33.2052L31.4954 33.1199C31.3691 32.9691 31.255 32.8086 31.154 32.6399C31.1162 32.5699 31.0806 32.4988 31.0474 32.4265C30.9819 32.2915 30.9249 32.1526 30.8767 32.0105C30.853 31.9401 30.8317 31.869 30.8127 31.7972L30.7807 31.7652C30.7605 31.755 30.739 31.7479 30.7167 31.7439C30.6818 31.7353 30.6459 31.7317 30.6101 31.7332H30.6207Z" fill="#EDE71F"/>
<path id="Vector_139" d="M30.6846 31.8825C30.7379 32.5225 30.9299 33.2905 31.3992 33.7812C31.5699 33.9199 31.7832 34.0585 31.9966 34.0265C31.3459 33.4666 30.8871 32.7168 30.6846 31.8825V31.8825Z" fill="#CCD11E"/>
<path id="Vector_140" d="M31.1328 32.7785C31.4783 33.4543 32.0216 34.0087 32.6901 34.3678H32.9568C32.4875 34.1118 31.7301 33.7492 31.1435 32.7679L31.1328 32.7785Z" fill="#9ECB34"/>
</g>
<g id="Group_52">
<path id="Vector_141" d="M30.621 31.6799C30.429 31.6799 30.3756 31.7759 30.3756 31.7759C30.109 32.8212 29.117 34.1545 28.0823 34.3145L27.5703 35.1999H32.797V33.9945C31.8583 33.7385 31.101 32.7465 30.8556 31.7759C30.8556 31.7759 30.8023 31.6905 30.6103 31.6905L30.621 31.6799Z" fill="url(#paint17_linear_2909_185320)"/>
<path id="Vector_142" d="M30.6212 31.7332C30.5359 31.7332 30.4825 31.7545 30.4505 31.7652L30.4185 31.7972C30.2391 32.3824 29.9455 32.9262 29.5545 33.3972C29.1919 33.8559 28.5199 34.3145 28.0612 34.3572L27.6025 35.1572H32.7225V34.0159C32.3374 33.8888 31.9894 33.669 31.7092 33.3759C31.28 32.9352 30.9714 32.3916 30.8132 31.7972L30.7812 31.7652C30.7317 31.7404 30.6764 31.7294 30.6212 31.7332V31.7332Z" fill="#97C924"/>
<path id="Vector_143" d="M30.4712 31.8825C30.4072 32.8425 29.8738 34.0692 29.2658 34.2719C29.0632 34.3465 28.7218 34.3679 28.6045 34.3785C29.0748 34.1172 29.485 33.76 29.8084 33.33C30.1318 32.9 30.3612 32.4069 30.4818 31.8825H30.4712Z" fill="#93BC30"/>
<path id="Vector_144" d="M30.6207 31.7332H30.5674V32.8852C30.5674 33.1305 30.6634 33.3332 30.7807 33.5679L30.802 33.6212C30.8554 33.7385 30.8874 33.7812 31.0474 33.9092C31.5054 34.2361 32.0657 34.3875 32.626 34.3358C32.5087 34.2398 32.3807 34.1545 32.2634 34.0798L32.7434 34.0265C32.348 33.8973 31.992 33.6698 31.7087 33.3652C31.6572 33.3135 31.6073 33.2602 31.5594 33.2052L31.4954 33.1199C31.3691 32.9691 31.255 32.8086 31.154 32.6399C31.1162 32.5699 31.0806 32.4988 31.0474 32.4265C30.9819 32.2915 30.9249 32.1526 30.8767 32.0105C30.853 31.9401 30.8317 31.869 30.8127 31.7972L30.7807 31.7652C30.7605 31.755 30.739 31.7479 30.7167 31.7439C30.6818 31.7353 30.6459 31.7317 30.6101 31.7332H30.6207Z" fill="#EDE71F"/>
<path id="Vector_145" d="M30.6846 31.8825C30.7379 32.5225 30.9299 33.2905 31.3992 33.7812C31.5699 33.9199 31.7832 34.0585 31.9966 34.0265C31.3459 33.4666 30.8871 32.7168 30.6846 31.8825V31.8825Z" fill="#C6CB24"/>
<path id="Vector_146" d="M31.1328 32.7785C31.4783 33.4543 32.0216 34.0087 32.6901 34.3678H32.9568C32.4875 34.1118 31.7301 33.7492 31.1435 32.7679L31.1328 32.7785Z" fill="#9ECB34"/>
</g>
</g>
<path id="Vector_147" d="M38.2686 34.6345C38.2046 34.6559 37.7992 34.6132 37.5859 34.6345L37.4472 34.6665H37.0952C36.7112 34.6665 36.3806 34.7732 36.0179 34.7732C35.6552 34.7732 35.3246 34.6665 34.9512 34.6665H34.5886C34.2046 34.6665 33.8739 34.7732 33.5112 34.7732C33.1486 34.7732 32.8179 34.6665 32.4446 34.6665H32.0819C31.6979 34.6665 31.3672 34.7732 31.0152 34.7732C30.6419 34.7732 30.3219 34.6665 29.9379 34.6665H29.5753C29.1913 34.6665 28.8713 34.7732 28.5086 34.7732C28.1353 34.7732 27.8153 34.6665 27.4313 34.6665H27.0686C26.7699 34.6665 26.4073 34.7305 26.1193 34.7519L25.4473 35.9145H39.0365L38.2686 34.6345Z" fill="#F5F5F5"/>
<path id="Vector_148" d="M37.3624 34.4639H37.2984C36.957 34.4745 36.701 34.5812 36.1037 34.5812C35.5064 34.5812 35.4424 34.4745 34.7597 34.4959C34.1197 34.4959 33.8637 34.6239 33.5117 34.6239C33.1704 34.6239 32.6157 34.5492 32.1784 34.5919C31.7517 34.6345 31.2397 34.7305 30.8984 34.7305C30.4824 34.7305 30.0664 34.6559 29.6397 34.6985C29.2024 34.7412 28.9997 34.8585 28.4557 34.8585C27.9864 34.8585 27.4957 34.7839 27.0904 34.7839C26.7277 34.7839 26.3224 34.8905 26.0237 34.9332L25.9277 35.0932C26.1731 35.0612 26.8451 34.9545 27.0797 34.9545C27.3357 34.9545 28.2211 35.0079 28.7117 34.9865C29.2131 34.9759 29.2664 34.8585 29.8531 34.8585C30.2584 34.8585 30.5571 34.9012 30.9731 34.9012C31.2397 34.9012 31.4744 34.7732 31.869 34.7732L32.1677 34.7625C32.4984 34.7092 33.0637 34.7625 33.4477 34.7839C33.7997 34.8052 34.0344 34.7199 34.4077 34.7092L34.877 34.6985C35.2504 34.6772 35.5597 34.7625 35.9117 34.7625C36.253 34.7412 36.5944 34.6559 36.957 34.6559L37.437 34.6345C37.6824 34.6345 38.0664 34.6345 38.3224 34.6879L38.237 34.5385C37.981 34.5279 37.6717 34.4639 37.3624 34.4639V34.4639Z" fill="url(#paint18_linear_2909_185320)"/>
<g id="A">
<path id="z" d="M26.9408 35.7119C26.5782 35.7119 26.2582 35.7972 25.9168 35.8079C25.7883 35.8045 25.6601 35.7938 25.5328 35.7759L25.4795 35.8612H26.1195C26.4928 35.8612 26.8022 35.7759 27.1435 35.7652C27.4955 35.7759 27.8048 35.8719 28.1781 35.8719H28.6581C29.0208 35.8719 29.3408 35.7759 29.6821 35.7652C30.0341 35.7759 30.3541 35.8719 30.7168 35.8719H31.1968C31.5701 35.8719 31.8795 35.7759 32.2315 35.7652C32.5728 35.7759 32.8821 35.8719 33.2555 35.8719H33.7355C34.0981 35.8719 34.4181 35.7759 34.7701 35.7652C35.1115 35.7759 35.4315 35.8719 35.7941 35.8719H36.2741C36.6474 35.8719 36.9568 35.7759 37.2981 35.7652C37.6501 35.7759 37.9594 35.8719 38.3328 35.8719H38.8128L39.0048 35.8612L38.9514 35.7759C38.8448 35.7865 38.7274 35.8079 38.6101 35.8079C38.2581 35.8079 37.9488 35.7012 37.5754 35.7012H37.0954C36.7328 35.7012 36.4128 35.8079 36.0715 35.8079C35.7195 35.7972 35.4101 35.7012 35.0368 35.7012H34.5568C34.1941 35.7012 33.8741 35.8079 33.5328 35.8079C33.1808 35.7972 32.8715 35.7012 32.4981 35.7012H32.0181C31.6448 35.7012 31.3355 35.8079 30.9941 35.8079C30.6421 35.7972 30.3328 35.7012 29.9595 35.7012H29.4795C29.1168 35.7012 28.7968 35.8079 28.4555 35.8079C28.1035 35.7972 27.7941 35.7012 27.4208 35.7012H26.9408V35.7119Z" fill="url(#paint19_linear_2909_185320)"/>
<path id="Vector_149" d="M26.9408 35.7119C26.5782 35.7119 26.2582 35.7972 25.9168 35.8079C25.7883 35.8045 25.6601 35.7938 25.5328 35.7759L25.4795 35.8612H26.1195C26.4928 35.8612 26.8022 35.7759 27.1435 35.7652C27.4955 35.7759 27.8048 35.8719 28.1781 35.8719H28.6581C29.0208 35.8719 29.3408 35.7759 29.6821 35.7652C30.0341 35.7759 30.3541 35.8719 30.7168 35.8719H31.1968C31.5701 35.8719 31.8795 35.7759 32.2315 35.7652C32.5728 35.7759 32.8821 35.8719 33.2555 35.8719H33.7355C34.0981 35.8719 34.4181 35.7759 34.7701 35.7652C35.1115 35.7759 35.4315 35.8719 35.7941 35.8719H36.2741C36.6474 35.8719 36.9568 35.7759 37.2981 35.7652C37.6501 35.7759 37.9594 35.8719 38.3328 35.8719H38.8128L39.0048 35.8612L38.9514 35.7759C38.8448 35.7865 38.7274 35.8079 38.6101 35.8079C38.2581 35.8079 37.9488 35.7012 37.5754 35.7012H37.0954C36.7328 35.7012 36.4128 35.8079 36.0715 35.8079C35.7195 35.7972 35.4101 35.7012 35.0368 35.7012H34.5568C34.1941 35.7012 33.8741 35.8079 33.5328 35.8079C33.1808 35.7972 32.8715 35.7012 32.4981 35.7012H32.0181C31.6448 35.7012 31.3355 35.8079 30.9941 35.8079C30.6421 35.7972 30.3328 35.7012 29.9595 35.7012H29.4795C29.1168 35.7012 28.7968 35.8079 28.4555 35.8079C28.1035 35.7972 27.7941 35.7012 27.4208 35.7012H26.9408V35.7119Z" fill="url(#paint20_linear_2909_185320)"/>
<path id="Vector_150" d="M26.9408 35.7119C26.5782 35.7119 26.2582 35.7972 25.9168 35.8079C25.7883 35.8045 25.6601 35.7938 25.5328 35.7759L25.4795 35.8612H26.1195C26.4928 35.8612 26.8022 35.7759 27.1435 35.7652C27.4955 35.7759 27.8048 35.8719 28.1781 35.8719H28.6581C29.0208 35.8719 29.3408 35.7759 29.6821 35.7652C30.0341 35.7759 30.3541 35.8719 30.7168 35.8719H31.1968C31.5701 35.8719 31.8795 35.7759 32.2315 35.7652C32.5728 35.7759 32.8821 35.8719 33.2555 35.8719H33.7355C34.0981 35.8719 34.4181 35.7759 34.7701 35.7652C35.1115 35.7759 35.4315 35.8719 35.7941 35.8719H36.2741C36.6474 35.8719 36.9568 35.7759 37.2981 35.7652C37.6501 35.7759 37.9594 35.8719 38.3328 35.8719H38.8128L39.0048 35.8612L38.9514 35.7759C38.8448 35.7865 38.7274 35.8079 38.6101 35.8079C38.2581 35.8079 37.9488 35.7012 37.5754 35.7012H37.0954C36.7328 35.7012 36.4128 35.8079 36.0715 35.8079C35.7195 35.7972 35.4101 35.7012 35.0368 35.7012H34.5568C34.1941 35.7012 33.8741 35.8079 33.5328 35.8079C33.1808 35.7972 32.8715 35.7012 32.4981 35.7012H32.0181C31.6448 35.7012 31.3355 35.8079 30.9941 35.8079C30.6421 35.7972 30.3328 35.7012 29.9595 35.7012H29.4795C29.1168 35.7012 28.7968 35.8079 28.4555 35.8079C28.1035 35.7972 27.7941 35.7012 27.4208 35.7012H26.9408V35.7119Z" fill="url(#paint21_linear_2909_185320)"/>
</g>
<g id="Group_53">
<path id="z_2" d="M26.9408 35.7119C26.5782 35.7119 26.2582 35.7972 25.9168 35.8079C25.7883 35.8045 25.6601 35.7938 25.5328 35.7759L25.4795 35.8612H26.1195C26.4928 35.8612 26.8022 35.7759 27.1435 35.7652C27.4955 35.7759 27.8048 35.8719 28.1781 35.8719H28.6581C29.0208 35.8719 29.3408 35.7759 29.6821 35.7652C30.0341 35.7759 30.3541 35.8719 30.7168 35.8719H31.1968C31.5701 35.8719 31.8795 35.7759 32.2315 35.7652C32.5728 35.7759 32.8821 35.8719 33.2555 35.8719H33.7355C34.0981 35.8719 34.4181 35.7759 34.7701 35.7652C35.1115 35.7759 35.4315 35.8719 35.7941 35.8719H36.2741C36.6474 35.8719 36.9568 35.7759 37.2981 35.7652C37.6501 35.7759 37.9594 35.8719 38.3328 35.8719H38.8128L39.0048 35.8612L38.9514 35.7759C38.8448 35.7865 38.7274 35.8079 38.6101 35.8079C38.2581 35.8079 37.9488 35.7012 37.5754 35.7012H37.0954C36.7328 35.7012 36.4128 35.8079 36.0715 35.8079C35.7195 35.7972 35.4101 35.7012 35.0368 35.7012H34.5568C34.1941 35.7012 33.8741 35.8079 33.5328 35.8079C33.1808 35.7972 32.8715 35.7012 32.4981 35.7012H32.0181C31.6448 35.7012 31.3355 35.8079 30.9941 35.8079C30.6421 35.7972 30.3328 35.7012 29.9595 35.7012H29.4795C29.1168 35.7012 28.7968 35.8079 28.4555 35.8079C28.1035 35.7972 27.7941 35.7012 27.4208 35.7012H26.9408V35.7119Z" fill="url(#paint22_linear_2909_185320)"/>
<path id="Vector_151" d="M26.9408 35.7119C26.5782 35.7119 26.2582 35.7972 25.9168 35.8079C25.7883 35.8045 25.6601 35.7938 25.5328 35.7759L25.4795 35.8612H26.1195C26.4928 35.8612 26.8022 35.7759 27.1435 35.7652C27.4955 35.7759 27.8048 35.8719 28.1781 35.8719H28.6581C29.0208 35.8719 29.3408 35.7759 29.6821 35.7652C30.0341 35.7759 30.3541 35.8719 30.7168 35.8719H31.1968C31.5701 35.8719 31.8795 35.7759 32.2315 35.7652C32.5728 35.7759 32.8821 35.8719 33.2555 35.8719H33.7355C34.0981 35.8719 34.4181 35.7759 34.7701 35.7652C35.1115 35.7759 35.4315 35.8719 35.7941 35.8719H36.2741C36.6474 35.8719 36.9568 35.7759 37.2981 35.7652C37.6501 35.7759 37.9594 35.8719 38.3328 35.8719H38.8128L39.0048 35.8612L38.9514 35.7759C38.8448 35.7865 38.7274 35.8079 38.6101 35.8079C38.2581 35.8079 37.9488 35.7012 37.5754 35.7012H37.0954C36.7328 35.7012 36.4128 35.8079 36.0715 35.8079C35.7195 35.7972 35.4101 35.7012 35.0368 35.7012H34.5568C34.1941 35.7012 33.8741 35.8079 33.5328 35.8079C33.1808 35.7972 32.8715 35.7012 32.4981 35.7012H32.0181C31.6448 35.7012 31.3355 35.8079 30.9941 35.8079C30.6421 35.7972 30.3328 35.7012 29.9595 35.7012H29.4795C29.1168 35.7012 28.7968 35.8079 28.4555 35.8079C28.1035 35.7972 27.7941 35.7012 27.4208 35.7012H26.9408V35.7119Z" fill="url(#paint23_linear_2909_185320)"/>
<path id="Vector_152" d="M26.9408 35.7119C26.5782 35.7119 26.2582 35.7972 25.9168 35.8079C25.7883 35.8045 25.6601 35.7938 25.5328 35.7759L25.4795 35.8612H26.1195C26.4928 35.8612 26.8022 35.7759 27.1435 35.7652C27.4955 35.7759 27.8048 35.8719 28.1781 35.8719H28.6581C29.0208 35.8719 29.3408 35.7759 29.6821 35.7652C30.0341 35.7759 30.3541 35.8719 30.7168 35.8719H31.1968C31.5701 35.8719 31.8795 35.7759 32.2315 35.7652C32.5728 35.7759 32.8821 35.8719 33.2555 35.8719H33.7355C34.0981 35.8719 34.4181 35.7759 34.7701 35.7652C35.1115 35.7759 35.4315 35.8719 35.7941 35.8719H36.2741C36.6474 35.8719 36.9568 35.7759 37.2981 35.7652C37.6501 35.7759 37.9594 35.8719 38.3328 35.8719H38.8128L39.0048 35.8612L38.9514 35.7759C38.8448 35.7865 38.7274 35.8079 38.6101 35.8079C38.2581 35.8079 37.9488 35.7012 37.5754 35.7012H37.0954C36.7328 35.7012 36.4128 35.8079 36.0715 35.8079C35.7195 35.7972 35.4101 35.7012 35.0368 35.7012H34.5568C34.1941 35.7012 33.8741 35.8079 33.5328 35.8079C33.1808 35.7972 32.8715 35.7012 32.4981 35.7012H32.0181C31.6448 35.7012 31.3355 35.8079 30.9941 35.8079C30.6421 35.7972 30.3328 35.7012 29.9595 35.7012H29.4795C29.1168 35.7012 28.7968 35.8079 28.4555 35.8079C28.1035 35.7972 27.7941 35.7012 27.4208 35.7012H26.9408V35.7119Z" fill="url(#paint24_linear_2909_185320)"/>
</g>
<g id="Group_54">
<path id="z_3" d="M26.9408 35.7119C26.5782 35.7119 26.2582 35.7972 25.9168 35.8079C25.7883 35.8045 25.6601 35.7938 25.5328 35.7759L25.4795 35.8612H26.1195C26.4928 35.8612 26.8022 35.7759 27.1435 35.7652C27.4955 35.7759 27.8048 35.8719 28.1781 35.8719H28.6581C29.0208 35.8719 29.3408 35.7759 29.6821 35.7652C30.0341 35.7759 30.3541 35.8719 30.7168 35.8719H31.1968C31.5701 35.8719 31.8795 35.7759 32.2315 35.7652C32.5728 35.7759 32.8821 35.8719 33.2555 35.8719H33.7355C34.0981 35.8719 34.4181 35.7759 34.7701 35.7652C35.1115 35.7759 35.4315 35.8719 35.7941 35.8719H36.2741C36.6474 35.8719 36.9568 35.7759 37.2981 35.7652C37.6501 35.7759 37.9594 35.8719 38.3328 35.8719H38.8128L39.0048 35.8612L38.9514 35.7759C38.8448 35.7865 38.7274 35.8079 38.6101 35.8079C38.2581 35.8079 37.9488 35.7012 37.5754 35.7012H37.0954C36.7328 35.7012 36.4128 35.8079 36.0715 35.8079C35.7195 35.7972 35.4101 35.7012 35.0368 35.7012H34.5568C34.1941 35.7012 33.8741 35.8079 33.5328 35.8079C33.1808 35.7972 32.8715 35.7012 32.4981 35.7012H32.0181C31.6448 35.7012 31.3355 35.8079 30.9941 35.8079C30.6421 35.7972 30.3328 35.7012 29.9595 35.7012H29.4795C29.1168 35.7012 28.7968 35.8079 28.4555 35.8079C28.1035 35.7972 27.7941 35.7012 27.4208 35.7012H26.9408V35.7119Z" fill="url(#paint25_linear_2909_185320)"/>
<path id="Vector_153" d="M26.9408 35.7119C26.5782 35.7119 26.2582 35.7972 25.9168 35.8079C25.7883 35.8045 25.6601 35.7938 25.5328 35.7759L25.4795 35.8612H26.1195C26.4928 35.8612 26.8022 35.7759 27.1435 35.7652C27.4955 35.7759 27.8048 35.8719 28.1781 35.8719H28.6581C29.0208 35.8719 29.3408 35.7759 29.6821 35.7652C30.0341 35.7759 30.3541 35.8719 30.7168 35.8719H31.1968C31.5701 35.8719 31.8795 35.7759 32.2315 35.7652C32.5728 35.7759 32.8821 35.8719 33.2555 35.8719H33.7355C34.0981 35.8719 34.4181 35.7759 34.7701 35.7652C35.1115 35.7759 35.4315 35.8719 35.7941 35.8719H36.2741C36.6474 35.8719 36.9568 35.7759 37.2981 35.7652C37.6501 35.7759 37.9594 35.8719 38.3328 35.8719H38.8128L39.0048 35.8612L38.9514 35.7759C38.8448 35.7865 38.7274 35.8079 38.6101 35.8079C38.2581 35.8079 37.9488 35.7012 37.5754 35.7012H37.0954C36.7328 35.7012 36.4128 35.8079 36.0715 35.8079C35.7195 35.7972 35.4101 35.7012 35.0368 35.7012H34.5568C34.1941 35.7012 33.8741 35.8079 33.5328 35.8079C33.1808 35.7972 32.8715 35.7012 32.4981 35.7012H32.0181C31.6448 35.7012 31.3355 35.8079 30.9941 35.8079C30.6421 35.7972 30.3328 35.7012 29.9595 35.7012H29.4795C29.1168 35.7012 28.7968 35.8079 28.4555 35.8079C28.1035 35.7972 27.7941 35.7012 27.4208 35.7012H26.9408V35.7119Z" fill="url(#paint26_linear_2909_185320)"/>
<path id="Vector_154" d="M26.9408 35.7119C26.5782 35.7119 26.2582 35.7972 25.9168 35.8079C25.7883 35.8045 25.6601 35.7938 25.5328 35.7759L25.4795 35.8612H26.1195C26.4928 35.8612 26.8022 35.7759 27.1435 35.7652C27.4955 35.7759 27.8048 35.8719 28.1781 35.8719H28.6581C29.0208 35.8719 29.3408 35.7759 29.6821 35.7652C30.0341 35.7759 30.3541 35.8719 30.7168 35.8719H31.1968C31.5701 35.8719 31.8795 35.7759 32.2315 35.7652C32.5728 35.7759 32.8821 35.8719 33.2555 35.8719H33.7355C34.0981 35.8719 34.4181 35.7759 34.7701 35.7652C35.1115 35.7759 35.4315 35.8719 35.7941 35.8719H36.2741C36.6474 35.8719 36.9568 35.7759 37.2981 35.7652C37.6501 35.7759 37.9594 35.8719 38.3328 35.8719H38.8128L39.0048 35.8612L38.9514 35.7759C38.8448 35.7865 38.7274 35.8079 38.6101 35.8079C38.2581 35.8079 37.9488 35.7012 37.5754 35.7012H37.0954C36.7328 35.7012 36.4128 35.8079 36.0715 35.8079C35.7195 35.7972 35.4101 35.7012 35.0368 35.7012H34.5568C34.1941 35.7012 33.8741 35.8079 33.5328 35.8079C33.1808 35.7972 32.8715 35.7012 32.4981 35.7012H32.0181C31.6448 35.7012 31.3355 35.8079 30.9941 35.8079C30.6421 35.7972 30.3328 35.7012 29.9595 35.7012H29.4795C29.1168 35.7012 28.7968 35.8079 28.4555 35.8079C28.1035 35.7972 27.7941 35.7012 27.4208 35.7012H26.9408V35.7119Z" fill="url(#paint27_linear_2909_185320)"/>
</g>
<path id="Vector_155" d="M26.2579 34.6345L25.9912 35.0825C26.3005 35.0292 26.7485 34.9012 27.1325 34.9012C27.5165 34.9012 27.9859 34.9972 28.4552 35.0079C28.9885 35.0079 29.2019 34.8799 29.6285 34.8372C30.0659 34.7945 30.4819 34.8905 30.9085 34.9012C31.2392 34.9012 31.7512 34.7839 32.1885 34.7412C32.6152 34.6879 33.0099 34.7732 33.5218 34.7732C34.0445 34.7839 34.1298 34.6452 34.7592 34.6345C35.4418 34.6239 35.5058 34.7305 36.1032 34.7305C36.5512 34.7519 36.9458 34.6345 37.3512 34.6132C37.7565 34.5812 37.9378 34.6132 38.2365 34.6132L38.0338 34.2719L27.2285 34.5172L26.2579 34.6345Z" fill="#97C924"/>
<path id="Vector_156" d="M37.5752 34.6239L38.0019 34.6559C38.1048 34.6682 38.2079 34.6788 38.3112 34.6879L38.2685 34.6345C38.2045 34.6559 37.7992 34.6132 37.5859 34.6345L37.5752 34.6239Z" fill="#F5F5F5"/>
</g>
<path id="Vector_157" d="M32.2463 23.9875L28.8213 29.925L25.3213 36H39.1713L35.7463 30.0625L32.2463 23.9875ZM32.2463 24.3L35.6213 30.1375L38.9088 35.8375H25.5963L28.9588 30.0125L32.2463 24.3Z" fill="#C8A400"/>
</g>
</g>
<defs>
<linearGradient id="paint0_linear_2909_185320" x1="32.1038" y1="30.8372" x2="32.3065" y2="30.2292" gradientUnits="userSpaceOnUse">
<stop stop-color="#510000"/>
<stop offset="0.3" stop-color="#8A0000"/>
<stop offset="1" stop-color="#AA0000"/>
</linearGradient>
<linearGradient id="paint1_linear_2909_185320" x1="32.3912" y1="31.0825" x2="32.5512" y2="30.6559" gradientUnits="userSpaceOnUse">
<stop stop-color="#FF2A2A"/>
<stop offset="1" stop-color="#FF0000"/>
</linearGradient>
<linearGradient id="paint2_linear_2909_185320" x1="26.3223" y1="33.8665" x2="46.5782" y2="33.8665" gradientUnits="userSpaceOnUse">
<stop stop-color="#002255"/>
<stop offset="0.5" stop-color="#0044AA"/>
<stop offset="1" stop-color="#002255"/>
</linearGradient>
<linearGradient id="paint3_linear_2909_185320" x1="26.3223" y1="33.8665" x2="46.5782" y2="33.8665" gradientUnits="userSpaceOnUse">
<stop stop-color="#002255"/>
<stop offset="0.5" stop-color="#0044AA"/>
<stop offset="1" stop-color="#002255"/>
</linearGradient>
<linearGradient id="paint4_linear_2909_185320" x1="26.3223" y1="33.8665" x2="46.5782" y2="33.8665" gradientUnits="userSpaceOnUse">
<stop stop-color="#002255"/>
<stop offset="0.5" stop-color="#0044AA"/>
<stop offset="1" stop-color="#002255"/>
</linearGradient>
<linearGradient id="paint5_linear_2909_185320" x1="26.3223" y1="33.8665" x2="46.5782" y2="33.8665" gradientUnits="userSpaceOnUse">
<stop stop-color="#002255"/>
<stop offset="0.5" stop-color="#0044AA"/>
<stop offset="1" stop-color="#002255"/>
</linearGradient>
<linearGradient id="paint6_linear_2909_185320" x1="26.3223" y1="33.8665" x2="46.5782" y2="33.8665" gradientUnits="userSpaceOnUse">
<stop stop-color="#002255"/>
<stop offset="0.5" stop-color="#0044AA"/>
<stop offset="1" stop-color="#002255"/>
</linearGradient>
<linearGradient id="paint7_linear_2909_185320" x1="26.3223" y1="33.8665" x2="46.5782" y2="33.8665" gradientUnits="userSpaceOnUse">
<stop stop-color="#002255"/>
<stop offset="0.5" stop-color="#0044AA"/>
<stop offset="1" stop-color="#002255"/>
</linearGradient>
<linearGradient id="paint8_linear_2909_185320" x1="26.3223" y1="33.8665" x2="46.5782" y2="33.8665" gradientUnits="userSpaceOnUse">
<stop stop-color="#002255"/>
<stop offset="0.5" stop-color="#0044AA"/>
<stop offset="1" stop-color="#002255"/>
</linearGradient>
<linearGradient id="paint9_linear_2909_185320" x1="26.3223" y1="33.8665" x2="46.5782" y2="33.8665" gradientUnits="userSpaceOnUse">
<stop stop-color="#002255"/>
<stop offset="0.5" stop-color="#0044AA"/>
<stop offset="1" stop-color="#002255"/>
</linearGradient>
<linearGradient id="paint10_linear_2909_185320" x1="26.3223" y1="33.8665" x2="46.5782" y2="33.8665" gradientUnits="userSpaceOnUse">
<stop stop-color="#002255"/>
<stop offset="0.5" stop-color="#0044AA"/>
<stop offset="1" stop-color="#002255"/>
</linearGradient>
<linearGradient id="paint11_linear_2909_185320" x1="26.322" y1="33.8665" x2="46.5779" y2="33.8665" gradientUnits="userSpaceOnUse">
<stop stop-color="#002255"/>
<stop offset="0.5" stop-color="#0044AA"/>
<stop offset="1" stop-color="#002255"/>
</linearGradient>
<linearGradient id="paint12_linear_2909_185320" x1="26.3222" y1="33.8665" x2="46.5782" y2="33.8665" gradientUnits="userSpaceOnUse">
<stop stop-color="#002255"/>
<stop offset="0.5" stop-color="#0044AA"/>
<stop offset="1" stop-color="#002255"/>
</linearGradient>
<linearGradient id="paint13_linear_2909_185320" x1="30.6212" y1="33.2479" x2="30.6212" y2="33.8772" gradientUnits="userSpaceOnUse">
<stop stop-color="#F5F549"/>
<stop offset="1" stop-color="#97C924"/>
</linearGradient>
<linearGradient id="paint14_linear_2909_185320" x1="30.6212" y1="33.2479" x2="30.6212" y2="33.8772" gradientUnits="userSpaceOnUse">
<stop stop-color="#F5F549"/>
<stop offset="1" stop-color="#97C924"/>
</linearGradient>
<linearGradient id="paint15_linear_2909_185320" x1="30.6214" y1="33.2479" x2="30.6214" y2="33.8772" gradientUnits="userSpaceOnUse">
<stop stop-color="#F5F549"/>
<stop offset="1" stop-color="#97C924"/>
</linearGradient>
<linearGradient id="paint16_linear_2909_185320" x1="30.621" y1="33.2479" x2="30.621" y2="33.8772" gradientUnits="userSpaceOnUse">
<stop stop-color="#F5F549"/>
<stop offset="1" stop-color="#97C924"/>
</linearGradient>
<linearGradient id="paint17_linear_2909_185320" x1="30.621" y1="33.2479" x2="30.621" y2="33.8772" gradientUnits="userSpaceOnUse">
<stop stop-color="#F5F549"/>
<stop offset="1" stop-color="#97C924"/>
</linearGradient>
<linearGradient id="paint18_linear_2909_185320" x1="25.929" y1="34.4663" x2="38.3377" y2="34.4663" gradientUnits="userSpaceOnUse">
<stop stop-color="#002255"/>
<stop offset="0.5" stop-color="#0044AA"/>
<stop offset="1" stop-color="#002255"/>
</linearGradient>
<linearGradient id="paint19_linear_2909_185320" x1="25.5266" y1="35.7055" x2="38.9572" y2="35.7055" gradientUnits="userSpaceOnUse">
<stop stop-color="#002255"/>
<stop offset="0.5" stop-color="#0044AA"/>
<stop offset="1" stop-color="#002255"/>
</linearGradient>
<linearGradient id="paint20_linear_2909_185320" x1="25.5266" y1="35.7055" x2="38.9572" y2="35.7055" gradientUnits="userSpaceOnUse">
<stop stop-color="#002255"/>
<stop offset="0.5" stop-color="#0044AA"/>
<stop offset="1" stop-color="#002255"/>
</linearGradient>
<linearGradient id="paint21_linear_2909_185320" x1="25.5266" y1="35.7055" x2="38.9572" y2="35.7055" gradientUnits="userSpaceOnUse">
<stop stop-color="#002255"/>
<stop offset="0.5" stop-color="#0044AA"/>
<stop offset="1" stop-color="#002255"/>
</linearGradient>
<linearGradient id="paint22_linear_2909_185320" x1="25.5266" y1="35.7055" x2="38.9572" y2="35.7055" gradientUnits="userSpaceOnUse">
<stop stop-color="#002255"/>
<stop offset="0.5" stop-color="#0044AA"/>
<stop offset="1" stop-color="#002255"/>
</linearGradient>
<linearGradient id="paint23_linear_2909_185320" x1="25.5266" y1="35.7055" x2="38.9572" y2="35.7055" gradientUnits="userSpaceOnUse">
<stop stop-color="#002255"/>
<stop offset="0.5" stop-color="#0044AA"/>
<stop offset="1" stop-color="#002255"/>
</linearGradient>
<linearGradient id="paint24_linear_2909_185320" x1="25.5266" y1="35.7055" x2="38.9572" y2="35.7055" gradientUnits="userSpaceOnUse">
<stop stop-color="#002255"/>
<stop offset="0.5" stop-color="#0044AA"/>
<stop offset="1" stop-color="#002255"/>
</linearGradient>
<linearGradient id="paint25_linear_2909_185320" x1="25.5266" y1="35.7055" x2="38.9572" y2="35.7055" gradientUnits="userSpaceOnUse">
<stop stop-color="#002255"/>
<stop offset="0.5" stop-color="#0044AA"/>
<stop offset="1" stop-color="#002255"/>
</linearGradient>
<linearGradient id="paint26_linear_2909_185320" x1="25.5266" y1="35.7055" x2="38.9572" y2="35.7055" gradientUnits="userSpaceOnUse">
<stop stop-color="#002255"/>
<stop offset="0.5" stop-color="#0044AA"/>
<stop offset="1" stop-color="#002255"/>
</linearGradient>
<linearGradient id="paint27_linear_2909_185320" x1="25.5266" y1="35.7055" x2="38.9572" y2="35.7055" gradientUnits="userSpaceOnUse">
<stop stop-color="#002255"/>
<stop offset="0.5" stop-color="#0044AA"/>
<stop offset="1" stop-color="#002255"/>
</linearGradient>
<clipPath id="clip0_2909_185320">
<path d="M0.246094 32C0.246094 14.3269 14.573 0 32.2461 0V0C49.9192 0 64.2461 14.3269 64.2461 32V32C64.2461 49.6731 49.9192 64 32.2461 64V64C14.573 64 0.246094 49.6731 0.246094 32V32Z" fill="white"/>
</clipPath>
</defs>
</svg>
