<svg width="65" height="64" viewBox="0 0 65 64" fill="none" xmlns="http://www.w3.org/2000/svg">
<g id="Rounded=Nepal (NP)">
<g clip-path="url(#clip0_2909_185495)">
<g id="Group">
<path id="Vector" d="M0.246094 0H64.2461V64H0.246094V0Z" fill="#F5F5F5"/>
<g id="Group_2">
<g id="Group_3">
<path id="Vector_2" fill-rule="evenodd" clip-rule="evenodd" d="M1.05859 63.1875H48.4086L17.4211 31.7625L49.5836 31.8L1.07109 0.8125V63.1875H1.05859Z" fill="#CE0000" stroke="#000063" stroke-width="1.625"/>
<path id="Vector_3" fill-rule="evenodd" clip-rule="evenodd" d="M22.8336 46.475L19.4586 47.6L22.1086 50.075L18.5461 49.85L20.0086 53.125L16.8211 51.5875L16.8836 55.1625L14.5336 52.55L13.1961 55.875L12.0461 52.5875L9.50859 55.1625L9.73359 51.7L6.37109 53.125L7.94609 50L4.28359 50.075L6.97109 47.7875L3.55859 46.475L6.93359 45.35L4.27109 42.875L7.82109 43.1L6.37109 39.825L9.57109 41.3625L9.50859 37.7875L11.8586 40.4L13.1961 37.075L14.3336 40.3625L16.8836 37.7875L16.6461 41.25L20.0211 39.825L18.4336 42.95L22.1086 42.875L19.4211 45.1625L22.8336 46.475ZM18.7836 23.3875L17.3711 24.4375L18.0711 25.0125C19.7138 23.865 21.035 22.3158 21.9086 20.5125C22.1336 23.175 19.6961 29.1375 13.3211 29.2C12.1559 29.2149 10.9993 28.9988 9.91803 28.5643C8.83677 28.1298 7.85226 27.4855 7.02133 26.6685C6.1904 25.8515 5.5295 24.8781 5.07677 23.8043C4.62404 22.7306 4.38845 21.5778 4.38359 20.4125C5.63359 22.6875 6.40859 23.7875 8.38359 24.975L8.97109 24.425L7.64609 23.3125L9.35859 22.8625L8.43359 21.3125L10.2336 21.4375L10.0086 19.6375L11.5836 20.5625L12.0836 18.875L13.2086 20.225L14.2711 18.9375L14.8461 20.6875L16.3211 19.6625L16.1336 21.45L17.9086 21.2375L17.0711 22.8875L18.7836 23.3875V23.3875Z" fill="#F5F5F5"/>
</g>
</g>
</g>
</g>
</g>
<defs>
<clipPath id="clip0_2909_185495">
<path d="M0.246094 32C0.246094 14.3269 14.573 0 32.2461 0V0C49.9192 0 64.2461 14.3269 64.2461 32V32C64.2461 49.6731 49.9192 64 32.2461 64V64C14.573 64 0.246094 49.6731 0.246094 32V32Z" fill="white"/>
</clipPath>
</defs>
</svg>
