<svg width="65" height="64" viewBox="0 0 65 64" fill="none" xmlns="http://www.w3.org/2000/svg">
<g id="Rounded=Niue (NU)">
<g clip-path="url(#clip0_2909_185347)">
<g id="Group">
<path id="Vector" fill-rule="evenodd" clip-rule="evenodd" d="M0.246094 0H64.7007V32.008H0.246094V0Z" fill="#F5F5F5"/>
<path id="Vector_2" d="M0.246094 0V2.39963L15.6244 10.321L21.417 10.4887L0.246094 0Z" fill="#C8102E"/>
<path id="Vector_3" d="M6.82617 0L25.4814 9.74044V0H6.82617Z" fill="#012169"/>
<path id="Vector_4" d="M27.9709 0V12.4368H0.246094V19.5325H27.9838V31.9693H36.4986V19.5325H64.2363V12.4368H36.4986V0H27.9838H27.9709Z" fill="#C8102E"/>
<path id="Vector_5" d="M38.9756 0V9.17279L57.218 0.0774075L38.9756 0Z" fill="#012169"/>
<path id="Vector_6" d="M39.5566 10.1791L44.6913 10.1404L64.6109 0.0773926L59.3214 0.1548L39.5695 10.192L39.5566 10.1791Z" fill="#C8102E"/>
<path id="Vector_7" d="M0.246094 21.6096V28.4214L13.0441 21.6741L0.246094 21.6225V21.6096Z" fill="#012169"/>
<path id="Vector_8" d="M49.516 21.8934L44.1748 21.8547L64.275 31.8532L64.146 29.5697L49.5031 21.8934H49.516ZM5.23888 32.0338L24.0876 22.1256L19.1464 22.1643L0.246094 32.008" fill="#C8102E"/>
<path id="Vector_9" d="M64.4814 2.81247L49.2579 10.3597L64.275 10.4242V21.6612H51.4899L64.1589 28.5376L64.3395 32.0209L57.5792 31.9435L39.0531 22.8481V32.0338H25.5325V22.8352L8.15456 31.9951L0.297699 32.0209V63.9902H128.226V0.051605L64.6233 0L64.4814 2.81247ZM0.323501 3.61235L0.246094 10.2436L13.715 10.4113L0.3106 3.61235H0.323501Z" fill="#012169"/>
<g id="Group_2">
<path id="Vector_10" fill-rule="evenodd" clip-rule="evenodd" d="M64.2363 0H128.239V63.9902H64.2492L64.2363 0Z" fill="#FFD900"/>
<path id="Vector_11" fill-rule="evenodd" clip-rule="evenodd" d="M0.246094 31.9951H67.7841V63.9902H0.246094V31.9951Z" fill="#FFD900"/>
</g>
<g id="Group_3">
<path id="Vector_12" fill-rule="evenodd" clip-rule="evenodd" d="M37.7763 16.1652C37.8124 16.912 37.6965 17.6582 37.4357 18.3588C37.1748 19.0594 36.7744 19.6998 36.2587 20.241C35.743 20.7823 35.1227 21.2132 34.4356 21.5076C33.7484 21.802 33.0086 21.9538 32.261 21.9538C31.5134 21.9538 30.7736 21.802 30.0864 21.5076C29.3992 21.2132 28.779 20.7823 28.2633 20.241C27.7476 19.6998 27.3472 19.0594 27.0863 18.3588C26.8255 17.6582 26.7096 16.912 26.7457 16.1652C26.8142 14.7486 27.4252 13.4127 28.452 12.4344C29.4789 11.4561 30.8427 10.9103 32.261 10.9103C33.6793 10.9103 35.0431 11.4561 36.0699 12.4344C37.0968 13.4127 37.7077 14.7486 37.7763 16.1652V16.1652Z" fill="#012169"/>
<path id="Vector_13" fill-rule="evenodd" clip-rule="evenodd" d="M29.5064 19.8679L30.5772 16.7071L27.7905 14.7461H31.2352L32.2931 11.5724L33.351 14.7461H36.7956L34.0089 16.7071L35.0797 19.8679L32.2931 17.894L29.5064 19.8679ZM49.542 17.6747L50.071 16.1911L48.6906 15.2622H50.3935L50.9225 13.7785L51.4385 15.2751H53.1544L51.774 16.1782L52.3029 17.6618L50.9225 16.7587L49.542 17.6747ZM30.8739 28.7053L31.4029 27.2216L30.0224 26.3056H31.7383L32.2544 24.822L32.7833 26.3056H34.4863L33.1058 27.2087L33.6348 28.7053L32.2544 27.7893L30.8739 28.7053ZM30.8739 7.16019L31.4029 5.66364L30.0224 4.76055H31.7383L32.2544 3.26401L32.7833 4.74765H34.4863L33.1058 5.67654L33.6348 7.16019L32.2544 6.2571L30.8739 7.16019ZM12.1542 17.6489L12.6832 16.1653L11.3027 15.2622H13.0057L13.5347 13.7656L14.0507 15.2493H15.7666L14.3861 16.1653L14.9022 17.6489L13.5347 16.7458L12.1542 17.6489Z" fill="#FEDD00"/>
</g>
</g>
</g>
</g>
<defs>
<clipPath id="clip0_2909_185347">
<path d="M0.246094 32C0.246094 14.3269 14.573 0 32.2461 0V0C49.9192 0 64.2461 14.3269 64.2461 32V32C64.2461 49.6731 49.9192 64 32.2461 64V64C14.573 64 0.246094 49.6731 0.246094 32V32Z" fill="white"/>
</clipPath>
</defs>
</svg>
