<svg width="65" height="64" viewBox="0 0 65 64" fill="none" xmlns="http://www.w3.org/2000/svg">
<g id="Rounded=New Zealand (NZ)">
<g clip-path="url(#clip0_2909_185316)">
<path id="Vector" fill-rule="evenodd" clip-rule="evenodd" d="M0.246094 0H64.2461V64H0.246094V0Z" fill="#00247D"/>
<g id="Group">
<g id="Group_2">
<g id="a">
<path id="Vector_2" d="M49.7959 19.3663V21.0848L53.233 19.3663H49.7959Z" fill="#F5F5F5"/>
<path id="Vector_3" d="M50.5277 21.2763L49.5176 19.8859L53.3084 19.256L50.5277 21.2763Z" fill="#F5F5F5"/>
</g>
<g id="Group_3">
<path id="Vector_4" d="M49.7949 19.3663V21.0848L46.3578 19.3663H49.7949Z" fill="#F5F5F5"/>
<path id="Vector_5" d="M49.0631 21.2763L50.0732 19.8859L46.2824 19.256L49.0631 21.2763Z" fill="#F5F5F5"/>
</g>
<g id="Group_4">
<path id="Vector_6" d="M50.7754 20.0788L49.1409 20.6098L51.8375 23.3477L50.7754 20.0788Z" fill="#F5F5F5"/>
<path id="Vector_7" d="M49.1852 21.3654L50.1953 19.9751L51.9659 23.3857L49.1852 21.3654Z" fill="#F5F5F5"/>
</g>
<g id="Group_5">
<path id="Vector_8" d="M48.8145 20.0788L50.4489 20.6098L49.8766 16.8099L48.8145 20.0788Z" fill="#F5F5F5"/>
<path id="Vector_9" d="M50.8581 19.9725L49.2236 20.5036L49.796 16.7036L50.8581 19.9725Z" fill="#F5F5F5"/>
</g>
<g id="Group_6">
<path id="Vector_10" d="M48.8154 20.0788L50.4499 20.6098L47.7533 23.3477L48.8154 20.0788Z" fill="#F5F5F5"/>
<path id="Vector_11" d="M50.4057 21.3654L49.3955 19.9751L47.625 23.3857L50.4057 21.3654Z" fill="#F5F5F5"/>
</g>
</g>
<g id="Group_7">
<g id="a_2">
<path id="Vector_12" d="M49.7949 19.716V20.8516L52.0661 19.716H49.7949Z" fill="#CC142B"/>
<path id="Vector_13" d="M50.2788 20.9781L49.6113 20.0594L52.1163 19.6432L50.2788 20.9781Z" fill="#CC142B"/>
</g>
<g id="Group_8">
<path id="Vector_14" d="M49.7949 19.716V20.8516L47.5237 19.716H49.7949Z" fill="#CC142B"/>
<path id="Vector_15" d="M49.311 20.9781L49.9785 20.0594L47.4736 19.6432L49.311 20.9781Z" fill="#CC142B"/>
</g>
<g id="Group_9">
<path id="Vector_16" d="M50.4424 20.1869L49.3624 20.5378L51.1442 22.3469L50.4424 20.1869Z" fill="#CC142B"/>
<path id="Vector_17" d="M49.3921 21.0371L50.0596 20.1183L51.2295 22.3721L49.3921 21.0371Z" fill="#CC142B"/>
</g>
<g id="Group_10">
<path id="Vector_18" d="M49.1475 20.1869L50.2275 20.5378L49.8493 18.0268L49.1475 20.1869Z" fill="#CC142B"/>
<path id="Vector_19" d="M50.497 20.1167L49.417 20.4676L49.7952 17.9566L50.497 20.1167Z" fill="#CC142B"/>
</g>
<g id="Group_11">
<path id="Vector_20" d="M49.1475 20.1869L50.2275 20.5378L48.4456 22.3469L49.1475 20.1869Z" fill="#CC142B"/>
<path id="Vector_21" d="M50.1978 21.0371L49.5303 20.1183L48.3603 22.3721L50.1978 21.0371Z" fill="#CC142B"/>
</g>
</g>
</g>
<g id="Group_12">
<g id="Group_13">
<g id="a_3">
<path id="Vector_22" d="M58.7998 27.3019L58.7998 28.8312L61.8584 27.3019L58.7998 27.3019Z" fill="#F5F5F5"/>
<path id="Vector_23" d="M59.4516 29.0016L58.5527 27.7644L61.9261 27.2038L59.4516 29.0016Z" fill="#F5F5F5"/>
</g>
<g id="Group_14">
<path id="Vector_24" d="M58.7998 27.302L58.7998 28.8313L55.7412 27.302L58.7998 27.302Z" fill="#F5F5F5"/>
<path id="Vector_25" d="M58.148 29.0016L59.0469 27.7644L55.6735 27.2038L58.148 29.0016Z" fill="#F5F5F5"/>
</g>
<g id="Group_15">
<path id="Vector_26" d="M59.6729 27.936L58.2184 28.4086L60.618 30.8449L59.6729 27.936Z" fill="#F5F5F5"/>
<path id="Vector_27" d="M58.2574 29.0809L59.1562 27.8437L60.7318 30.8787L58.2574 29.0809Z" fill="#F5F5F5"/>
</g>
<g id="Group_16">
<path id="Vector_28" d="M57.9277 27.936L59.3822 28.4086L58.8729 25.0271L57.9277 27.936Z" fill="#F5F5F5"/>
<path id="Vector_29" d="M59.7455 27.8415L58.291 28.3141L58.8003 24.9326L59.7455 27.8415Z" fill="#F5F5F5"/>
</g>
<g id="Group_17">
<path id="Vector_30" d="M57.9268 27.936L59.3812 28.4086L56.9816 30.8449L57.9268 27.936Z" fill="#F5F5F5"/>
<path id="Vector_31" d="M59.3423 29.0809L58.4434 27.8437L56.8678 30.8787L59.3423 29.0809Z" fill="#F5F5F5"/>
</g>
</g>
<g id="Group_18">
<g id="a_4">
<path id="Vector_32" d="M58.7998 27.6517L58.7998 28.5981L60.6925 27.6517L58.7998 27.6517Z" fill="#CC142B"/>
<path id="Vector_33" d="M59.2027 28.7035L58.6465 27.9379L60.7339 27.591L59.2027 28.7035Z" fill="#CC142B"/>
</g>
<g id="Group_19">
<path id="Vector_34" d="M58.7998 27.6517L58.7998 28.5981L56.9071 27.6517L58.7998 27.6517Z" fill="#CC142B"/>
<path id="Vector_35" d="M58.3969 28.7035L58.9531 27.9379L56.8657 27.591L58.3969 28.7035Z" fill="#CC142B"/>
</g>
<g id="Group_20">
<path id="Vector_36" d="M59.3398 28.0441L58.4398 28.3365L59.9247 29.8441L59.3398 28.0441Z" fill="#CC142B"/>
<path id="Vector_37" d="M58.4643 28.7526L59.0205 27.987L59.9955 29.8651L58.4643 28.7526Z" fill="#CC142B"/>
</g>
<g id="Group_21">
<path id="Vector_38" d="M58.2598 28.0441L59.1598 28.3365L58.8446 26.244L58.2598 28.0441Z" fill="#CC142B"/>
<path id="Vector_39" d="M59.3844 27.9856L58.4844 28.278L58.7995 26.1855L59.3844 27.9856Z" fill="#CC142B"/>
</g>
<g id="Group_22">
<path id="Vector_40" d="M58.2598 28.0441L59.1598 28.3365L57.6749 29.8441L58.2598 28.0441Z" fill="#CC142B"/>
<path id="Vector_41" d="M59.1353 28.7526L58.5791 27.987L57.6041 29.8651L59.1353 28.7526Z" fill="#CC142B"/>
</g>
</g>
</g>
<g id="Group_23">
<g id="Group_24">
<g id="a_5">
<path id="Vector_42" d="M39.3047 29.9318L39.3047 31.6504L42.7418 29.9318L39.3047 29.9318Z" fill="#F5F5F5"/>
<path id="Vector_43" d="M40.0365 31.8418L39.0264 30.4514L42.8172 29.8215L40.0365 31.8418Z" fill="#F5F5F5"/>
</g>
<g id="Group_25">
<path id="Vector_44" d="M39.3037 29.9318L39.3037 31.6504L35.8666 29.9318L39.3037 29.9318Z" fill="#F5F5F5"/>
<path id="Vector_45" d="M38.5719 31.8418L39.582 30.4514L35.7912 29.8215L38.5719 31.8418Z" fill="#F5F5F5"/>
</g>
<g id="Group_26">
<path id="Vector_46" d="M40.2842 30.6443L38.6497 31.1754L41.3463 33.9132L40.2842 30.6443Z" fill="#F5F5F5"/>
<path id="Vector_47" d="M38.694 31.9309L39.7041 30.5406L41.4746 33.9512L38.694 31.9309Z" fill="#F5F5F5"/>
</g>
<g id="Group_27">
<path id="Vector_48" d="M38.3232 30.6443L39.9577 31.1754L39.3854 27.3754L38.3232 30.6443Z" fill="#F5F5F5"/>
<path id="Vector_49" d="M40.3669 30.5381L38.7324 31.0691L39.3047 27.2692L40.3669 30.5381Z" fill="#F5F5F5"/>
</g>
<g id="Group_28">
<path id="Vector_50" d="M38.3242 30.6443L39.9587 31.1754L37.2621 33.9132L38.3242 30.6443Z" fill="#F5F5F5"/>
<path id="Vector_51" d="M39.9144 31.9309L38.9043 30.5406L37.1338 33.9512L39.9144 31.9309Z" fill="#F5F5F5"/>
</g>
</g>
<g id="Group_29">
<g id="a_6">
<path id="Vector_52" d="M39.3037 30.2816L39.3037 31.4172L41.5749 30.2816L39.3037 30.2816Z" fill="#CC142B"/>
<path id="Vector_53" d="M39.7876 31.5437L39.1201 30.625L41.6251 30.2087L39.7876 31.5437Z" fill="#CC142B"/>
</g>
<g id="Group_30">
<path id="Vector_54" d="M39.3037 30.2816L39.3037 31.4172L37.0325 30.2816L39.3037 30.2816Z" fill="#CC142B"/>
<path id="Vector_55" d="M38.8198 31.5437L39.4873 30.625L36.9823 30.2087L38.8198 31.5437Z" fill="#CC142B"/>
</g>
<g id="Group_31">
<path id="Vector_56" d="M39.9512 30.7524L38.8711 31.1033L40.653 32.9125L39.9512 30.7524Z" fill="#CC142B"/>
<path id="Vector_57" d="M38.9009 31.6026L39.5684 30.6839L40.7383 32.9376L38.9009 31.6026Z" fill="#CC142B"/>
</g>
<g id="Group_32">
<path id="Vector_58" d="M38.6562 30.7524L39.7363 31.1033L39.3581 28.5923L38.6562 30.7524Z" fill="#CC142B"/>
<path id="Vector_59" d="M40.0058 30.6822L38.9258 31.0331L39.304 28.5222L40.0058 30.6822Z" fill="#CC142B"/>
</g>
<g id="Group_33">
<path id="Vector_60" d="M38.6562 30.7524L39.7363 31.1033L37.9544 32.9125L38.6562 30.7524Z" fill="#CC142B"/>
<path id="Vector_61" d="M39.7066 31.6026L39.0391 30.6839L37.8691 32.9376L39.7066 31.6026Z" fill="#CC142B"/>
</g>
</g>
</g>
<g id="Group_34">
<g id="Group_35">
<g id="a_7">
<path id="Vector_62" d="M49.7959 46.5074V48.4152L53.6116 46.5074H49.7959Z" fill="#F5F5F5"/>
<path id="Vector_63" d="M50.6087 48.6278L49.4873 47.0843L53.6956 46.385L50.6087 48.6278Z" fill="#F5F5F5"/>
</g>
<g id="Group_36">
<path id="Vector_64" d="M49.7949 46.5074V48.4152L45.9793 46.5074H49.7949Z" fill="#F5F5F5"/>
<path id="Vector_65" d="M48.9821 48.6278L50.1035 47.0843L45.8952 46.385L48.9821 48.6278Z" fill="#F5F5F5"/>
</g>
<g id="Group_37">
<path id="Vector_66" d="M50.8838 47.2984L49.0693 47.8879L52.0629 50.9273L50.8838 47.2984Z" fill="#F5F5F5"/>
<path id="Vector_67" d="M49.1188 48.7267L50.2402 47.1833L52.2058 50.9695L49.1188 48.7267Z" fill="#F5F5F5"/>
</g>
<g id="Group_38">
<path id="Vector_68" d="M48.707 47.2983L50.5215 47.8879L49.8861 43.6694L48.707 47.2983Z" fill="#F5F5F5"/>
<path id="Vector_69" d="M50.9746 47.1804L49.1602 47.77L49.7955 43.5515L50.9746 47.1804Z" fill="#F5F5F5"/>
</g>
<g id="Group_39">
<path id="Vector_70" d="M48.707 47.2984L50.5215 47.8879L47.5279 50.9273L48.707 47.2984Z" fill="#F5F5F5"/>
<path id="Vector_71" d="M50.472 48.7267L49.3506 47.1833L47.385 50.9695L50.472 48.7267Z" fill="#F5F5F5"/>
</g>
</g>
<g id="Group_40">
<g id="a_8">
<path id="Vector_72" d="M49.7949 46.8572V48.1821L52.4447 46.8572H49.7949Z" fill="#CC142B"/>
<path id="Vector_73" d="M50.3598 48.3296L49.5811 47.2578L52.5035 46.7721L50.3598 48.3296Z" fill="#CC142B"/>
</g>
<g id="Group_41">
<path id="Vector_74" d="M49.7959 46.8572V48.1821L47.1461 46.8572H49.7959Z" fill="#CC142B"/>
<path id="Vector_75" d="M49.231 48.3296L50.0098 47.2578L47.0873 46.7721L49.231 48.3296Z" fill="#CC142B"/>
</g>
<g id="Group_42">
<path id="Vector_76" d="M50.5508 47.4064L49.2907 47.8158L51.3696 49.9265L50.5508 47.4064Z" fill="#CC142B"/>
<path id="Vector_77" d="M49.3248 48.3984L50.1035 47.3265L51.4685 49.9559L49.3248 48.3984Z" fill="#CC142B"/>
</g>
<g id="Group_43">
<path id="Vector_78" d="M49.0391 47.4064L50.2991 47.8158L49.8579 44.8864L49.0391 47.4064Z" fill="#CC142B"/>
<path id="Vector_79" d="M50.6145 47.3246L49.3545 47.734L49.7957 44.8045L50.6145 47.3246Z" fill="#CC142B"/>
</g>
<g id="Group_44">
<path id="Vector_80" d="M49.0391 47.4064L50.2991 47.8158L48.2202 49.9265L49.0391 47.4064Z" fill="#CC142B"/>
<path id="Vector_81" d="M50.2651 48.3984L49.4863 47.3265L48.1214 49.9559L50.2651 48.3984Z" fill="#CC142B"/>
</g>
</g>
</g>
<path id="Vector_82" d="M0.246094 0H32.2461V32H0.246094V0Z" fill="#012169"/>
<path id="Vector_83" d="M32.2461 0V4L20.3711 16L32.2461 27.6875V32H28.0586L16.1211 20.25L4.49609 32H0.246094V27.75L11.8711 16.0625L0.246094 4.625V0H4.12109L16.1211 11.75L27.7461 0H32.2461Z" fill="#F5F5F5"/>
<path id="Vector_84" d="M11.7461 20.25L12.4336 22.375L2.87109 32H0.246094V31.8125L11.7461 20.25ZM19.4961 19.5L22.8711 20L32.2461 29.1875V32L19.4961 19.5ZM32.2461 0L20.2461 12.25L19.9961 9.5L29.3711 0H32.2461ZM0.246094 0.0625L12.3086 11.875L8.62109 11.375L0.246094 3.0625V0.0625Z" fill="#C8102E"/>
<path id="Vector_85" d="M11.2461 0V32H21.2461V0H11.2461ZM0.246094 11V21H32.2461V11H0.246094Z" fill="#F5F5F5"/>
<path id="Vector_86" d="M0.246094 13V19H32.2461V13H0.246094ZM13.2461 0V32H19.2461V0H13.2461Z" fill="#C8102E"/>
</g>
</g>
<defs>
<clipPath id="clip0_2909_185316">
<path d="M0.246094 32C0.246094 14.3269 14.573 0 32.2461 0V0C49.9192 0 64.2461 14.3269 64.2461 32V32C64.2461 49.6731 49.9192 64 32.2461 64V64C14.573 64 0.246094 49.6731 0.246094 32V32Z" fill="white"/>
</clipPath>
</defs>
</svg>
