<svg width="65" height="64" viewBox="0 0 65 64" fill="none" xmlns="http://www.w3.org/2000/svg">
<g id="Rounded=French Polynesia (PF)">
<g clip-path="url(#clip0_2909_185310)">
<g id="Group">
<path id="Vector" d="M0.246094 0H64.2461V64H0.246094V0Z" fill="#F5F5F5"/>
<path id="Vector_2" fill-rule="evenodd" clip-rule="evenodd" d="M26.5465 45.4375C26.5465 45.4375 27.9965 44.2625 29.3965 44.2625C30.7965 44.2625 31.1965 45.2375 32.1715 45.3125C33.1465 45.4 33.9715 44.3375 35.1715 44.3125C36.3965 44.2625 37.9215 45.1625 37.9215 45.1625L32.609 46.75L26.5465 45.425V45.4375ZM23.509 43.7125L41.5465 43.8C41.5465 43.8 39.984 42.1125 38.1465 42.075C36.3215 42.0375 36.8215 42.8625 35.4215 42.975C34.009 43.1 33.659 42.1125 32.3715 42.15C31.084 42.1875 30.334 42.975 29.3715 43.0125C28.384 43.05 27.134 42.0375 26.3965 42.075C25.6465 42.1125 22.9965 43.25 22.9965 43.25L23.4965 43.7125H23.509ZM21.1965 41.5625L43.459 41.65C43.8215 41.1375 42.3715 39.925 41.0465 39.8125C39.9465 39.85 39.1715 40.9375 38.2715 40.975C37.3715 41.025 36.359 39.85 35.334 39.8875C34.334 39.925 33.2715 40.9875 32.259 40.9875C31.234 40.9875 30.4965 39.85 29.209 39.85C27.9215 39.85 27.334 41.1 26.359 41.025C25.3715 40.9375 24.5215 39.775 23.584 39.775C22.6465 39.775 21.084 41.175 20.7715 41.1C20.459 41.025 21.159 41.6875 21.1965 41.5625V41.5625Z" fill="#083D9C" stroke="#083D9C" stroke-width="0.25"/>
<path id="Vector_3" fill-rule="evenodd" clip-rule="evenodd" d="M29.7465 29.1875L34.8715 30.5625V23.25C32.5215 23.375 30.5715 18.8 34.709 18.4875C30.659 17.8875 30.184 18.95 29.709 20.075L29.759 29.1875H29.7465Z" fill="#FF0000" stroke="black" stroke-width="0.3125" stroke-linejoin="round"/>
<g id="Vector_4">
<path fill-rule="evenodd" clip-rule="evenodd" d="M26.5078 34.5L38.0703 34.5375Z" fill="#083D9C"/>
<path d="M26.5078 34.5L38.0703 34.5375" stroke="#083D9C" stroke-width="0.625" stroke-linecap="round"/>
</g>
<path id="Vector_5" d="M36.7836 31.6L36.7461 32.7375M27.0586 31.725L28.4336 33.5625L27.0586 31.725ZM27.0586 33.5625L28.5461 31.7625L27.0586 33.5625ZM27.8461 31.6L27.7961 32.7375L27.8461 31.6ZM29.2461 31.725L30.6211 33.5625L29.2461 31.725ZM29.2461 33.5625L30.7336 31.7625L29.2461 33.5625ZM30.0336 31.6L29.9836 32.7375L30.0336 31.6ZM31.4836 31.725L32.8336 33.5625L31.4836 31.725ZM31.4711 33.5625L32.9586 31.7625L31.4711 33.5625ZM32.2586 31.6L32.2211 32.7375L32.2586 31.6ZM33.7711 31.725L35.1461 33.5625L33.7711 31.725ZM33.7711 33.5625L35.2711 31.7625L33.7711 33.5625ZM34.5586 31.6L34.5211 32.7375L34.5586 31.6ZM36.0086 31.725L37.3711 33.5625L36.0086 31.725ZM35.9961 33.5625L37.4961 31.7625L35.9961 33.5625Z" stroke="black" stroke-width="0.5" stroke-linecap="round"/>
<path id="Vector_6" fill-rule="evenodd" clip-rule="evenodd" d="M18.7457 34.625L23.6582 34.65V31.5625L18.0332 31.3L18.7332 34.6125L18.7457 34.625ZM18.4957 30.3625L23.7457 30.8625L23.6957 28.675L18.5707 26.65L18.5082 30.3625H18.4957ZM19.5582 25.9875L23.5832 27.9375L24.1582 27.3375C24.1582 27.3375 23.7832 27.0875 23.8082 26.8375C23.8082 26.6125 24.1832 26.575 24.1832 26.3125C24.1832 26.075 23.7707 26.05 23.7707 25.8125C23.7332 25.5625 24.0957 25.275 24.0957 25.275L20.4582 22.125L19.5582 26V25.9875ZM45.9582 34.65H40.7707L40.7332 31.65L46.4332 31.2125L45.9582 34.65ZM40.8082 30.9375L46.9832 30.1875L45.6457 26.65L40.7707 28.7125L40.8082 30.9375ZM45.3082 25.675L40.8332 28C40.7707 27.75 40.7082 27.5 40.4082 27.3C40.4082 27.3 40.6832 27.1375 40.6832 26.8625C40.6832 26.5875 40.3207 26.55 40.3207 26.4C40.3207 26.25 40.6457 26.1 40.6707 25.75C40.6332 25.5 40.3207 25.175 40.3832 25.1L43.8457 22.45L45.2832 25.6625L45.3082 25.675ZM35.6332 30.875L37.8707 30.775L37.9082 29.875L35.6457 30.875H35.6332ZM28.8457 30.8L26.4957 30.75V29.8125L28.8457 30.8125V30.8ZM28.8332 30.525L26.4957 29.325V27.7625C26.4957 27.7625 26.2207 27.8 26.2582 27.4875C26.2707 26.8375 27.9832 28.675 28.8457 29.275L28.8332 30.525V30.525ZM35.6332 30.3875V29.375C35.6332 29.375 37.7332 27.475 38.1832 27.125C38.1832 27.5125 37.9332 27.8125 37.9332 27.8125V29.3125L35.6332 30.4V30.3875ZM21.9957 21.8375L24.3582 24.4625C24.4207 24.2125 24.9582 24.1875 25.5082 24.2125C26.0582 24.2625 26.4957 24.1875 26.4957 24.5875C26.4957 24.9625 26.2082 24.9125 26.2082 25.1875C26.2082 25.4625 26.6332 25.4375 26.6332 25.7875C26.6332 26.1375 26.3332 26.0625 26.3207 26.3375C26.3207 26.5625 26.6457 26.5875 26.6457 26.5875L28.8582 28.725V26.425L24.2957 19.2625L21.9957 21.8375V21.8375ZM25.6207 19.125L28.7207 25.4625C28.7207 25.4625 28.7582 19.6125 29.2707 19.3L28.3957 17.7L25.6207 19.125ZM39.0832 19.375L35.6332 25.5375V22.9375C35.6332 22.9375 35.9207 22.5 35.4707 22.5375C35.0207 22.575 34.4582 22.5 34.4582 22.5L35.8457 17.625L39.0957 19.375H39.0832ZM42.6332 22.0125C42.5957 22.0875 40.2957 24.4125 40.2957 24.4125C40.1957 24.1375 39.4957 24.275 38.8457 24.275C38.1832 24.275 38.0957 24.4875 38.1207 24.65C38.1957 25.1125 38.4207 24.775 38.4207 25.2C38.4207 25.6125 38.0957 25.45 38.0707 25.7625C38.0957 26.1125 38.5707 26.025 38.2957 26.3L35.6332 28.85V26.425L40.5832 18.7375L42.6332 22.0125V22.0125Z" fill="#EF7D08"/>
<path id="Vector_7" fill-rule="evenodd" clip-rule="evenodd" d="M30.8828 35.7875C29.7703 37.625 26.7953 37.0875 26.1078 35.7875C25.8953 35.7375 26.0203 27.85 26.0203 27.85C26.0203 27.85 25.6828 27.7 25.6703 27.4625C25.6578 27.2125 26.1203 27.2 26.1203 26.8875C26.1203 26.575 25.6453 26.6875 25.6328 26.3875C25.6328 26.075 26.1453 26.1125 26.1328 25.8375C26.0953 25.525 25.5578 25.575 25.5328 25.275C25.5078 25.05 25.9078 24.85 26.0328 24.75H24.7953C24.1953 24.75 24.8078 24.8875 24.7953 25.25C24.7953 25.475 24.4953 25.625 24.4703 25.825C24.4703 26.025 24.8953 26.1625 24.9078 26.4125C24.9078 26.625 24.4703 26.65 24.4828 26.85C24.5203 27.1875 24.8703 27.2625 24.8703 27.475C24.8703 27.675 24.3828 27.7625 24.3828 27.925L24.4578 36.025C25.2078 40 29.6328 41 30.8828 35.775V35.7875ZM33.7953 35.7875C34.9203 37.625 37.8828 37.0875 38.5828 35.7875C38.7953 35.7375 38.6703 27.85 38.6703 27.85C38.6703 27.85 39.0078 27.7 39.0203 27.4625C39.0328 27.2125 38.5953 27.2 38.5953 26.8875C38.5953 26.575 39.0453 26.6875 39.0578 26.3875C39.0578 26.075 38.5828 26.1 38.6078 25.8125C38.6328 25.5 38.9953 25.5375 39.0203 25.25C39.0328 25 38.7828 24.85 38.6703 24.75H39.8828C40.4953 24.75 39.8828 24.8875 39.8828 25.25C39.8828 25.475 40.1953 25.625 40.2203 25.825C40.2203 26.025 39.7828 26.1625 39.7828 26.4125C39.7828 26.625 40.2203 26.65 40.1953 26.85C40.1703 27.1875 39.8203 27.2625 39.8203 27.475C39.8203 27.675 40.3078 27.7625 40.3078 27.925C40.2828 28.25 40.2328 36.025 40.2328 36.025C39.4703 40 35.0578 41 33.7953 35.775V35.7875Z" fill="#FF0000" stroke="black" stroke-width="0.3125" stroke-linejoin="round"/>
<path id="Vector_8" fill-rule="evenodd" clip-rule="evenodd" d="M29.8094 39.4125H34.7844C34.8219 39.375 33.6594 37.6875 32.2844 37.8125C30.7594 37.85 29.7219 39.4125 29.8094 39.4125ZM45.6594 39.2875H38.8594C38.8594 39.2875 39.7344 38.775 39.9844 38.2875C40.4219 38.5375 40.2969 38.775 41.1719 38.8125C42.0469 38.85 42.8969 37.8125 43.7344 37.85C44.5719 37.8875 45.6594 39.325 45.6594 39.2875ZM18.8594 39.2875H25.6594C25.6594 39.2875 24.7844 38.775 24.5344 38.2875C24.0969 38.5375 24.2219 38.775 23.3344 38.8125C22.4594 38.85 21.6219 37.8125 20.7719 37.85C19.9344 37.8875 18.8594 39.325 18.8594 39.2875ZM19.3594 37.1625L24.2094 37.1875C24.2094 37.1875 23.8969 36.525 23.8594 35.7125C22.6094 35.275 21.5844 36.65 20.6969 36.6875C19.7969 36.725 18.8594 35.7125 18.8594 35.7125L19.3594 37.15V37.1625ZM45.2344 37.1625L40.3844 37.1875C40.3844 37.1875 40.6969 36.525 40.7344 35.7125C41.9844 35.275 42.9969 36.65 43.8969 36.6875C44.7969 36.725 45.7344 35.7125 45.7344 35.7125L45.2344 37.15V37.1625ZM31.0469 37.1875L33.5094 37.1125C33.5094 37.1125 33.5469 36.3625 32.2594 36.3625C30.9719 36.3625 31.0844 37.2375 31.0469 37.1875ZM29.5469 36.1375C29.9844 35.9 30.3844 35.6625 30.6469 35.125L28.9719 35.1625C28.9719 35.1625 28.1969 35.625 27.7969 36.1375H29.5469ZM34.9844 36.1375C34.5188 35.9312 34.1358 35.5747 33.8969 35.125L35.5719 35.1625C35.5719 35.1625 36.3594 35.625 36.7469 36.1375H34.9969H34.9844Z" fill="#083D9C" stroke="#083D9C" stroke-width="0.25"/>
<path id="Vector_9" fill-rule="evenodd" clip-rule="evenodd" d="M-15.7539 48H80.2461V64H-15.7539V48ZM-15.7539 0H80.2461V16H-15.7539V0Z" fill="#DE2010"/>
</g>
</g>
</g>
<defs>
<clipPath id="clip0_2909_185310">
<path d="M0.246094 32C0.246094 14.3269 14.573 0 32.2461 0V0C49.9192 0 64.2461 14.3269 64.2461 32V32C64.2461 49.6731 49.9192 64 32.2461 64V64C14.573 64 0.246094 49.6731 0.246094 32V32Z" fill="white"/>
</clipPath>
</defs>
</svg>
