<svg width="65" height="64" viewBox="0 0 65 64" fill="none" xmlns="http://www.w3.org/2000/svg">
<g id="Rounded=Papua New Guinea (PG)">
<g clip-path="url(#clip0_2909_185307)">
<g id="Group">
<g id="Group_2">
<path id="Vector" fill-rule="evenodd" clip-rule="evenodd" d="M-10.1894 0L-10.2539 63.9902H74.7653L-10.1894 0Z" fill="black"/>
<path id="Vector_2" fill-rule="evenodd" clip-rule="evenodd" d="M74.7008 63.9902L74.7653 0H-10.2539L74.7008 63.9902Z" fill="#FF0000"/>
</g>
<path id="Vector_3" d="M42.2421 15.9202L41.1068 15.8685C40.7585 15.0429 39.778 14.7332 39.1716 15.0945C38.6298 15.1332 35.7528 15.0429 35.7528 15.0429L37.8557 15.9589C38.3717 17.3651 40.1779 17.7005 40.1779 17.7005C40.0231 20.2808 37.559 17.3651 35.4948 18.8358C34.024 19.726 33.9982 20.771 33.1983 22.4869C32.8079 23.0794 32.3768 23.6441 31.9082 24.177L33.6499 24.0479L33.0951 24.7704L35.1593 24.4737C35.1593 24.4737 34.8884 24.7059 34.7207 24.8865C35.0303 24.951 37.0816 24.4092 37.0816 24.4092L36.9397 25.0671C37.9847 24.6414 39.2877 24.2157 39.2877 24.2157C39.2877 24.2157 39.7522 24.6027 40.1779 24.7704L40.4746 23.5964L41.6486 23.8931L41.9454 22.7062C43.7128 25.0671 44.3063 27.4281 47.5445 28.0215L47.2478 26.8346C48.1509 27.2216 49.828 28.0473 49.828 28.0473L50.0861 27.5055C51.4923 28.5118 52.6663 28.4989 53.4404 28.6021L52.8598 27.1313L53.4533 27.4281L52.5631 25.0671L53.4533 25.3639L52.2664 23.5964L52.705 23.2997L52.576 22.4095C54.3306 23.0029 56.7044 23.8931 56.9882 25.9573C57.285 29.1955 53.7371 30.0857 51.3891 29.789C53.1566 31.2597 56.3948 30.6663 57.8784 29.1955C58.4382 28.5042 58.839 27.6982 59.0524 26.8346C59.3492 27.7248 59.9426 28.8988 59.9426 30.0857C59.6459 32.7305 56.098 33.6207 53.75 33.9174C56.3948 35.3881 61.1166 33.6207 61.4134 29.789C61.4134 26.5379 59.3492 25.0671 58.459 23.5964C58.3458 23.0702 58.2468 22.5411 58.1622 22.0095C58.2913 22.0353 59.0524 22.4224 59.0524 22.4224C59.0524 22.4224 58.5364 21.4419 58.459 21.2355C58.459 21.2355 57.543 18.7326 57.2076 18.1779C57.2592 18.1392 57.8784 18.2811 57.8784 18.2811L55.453 15.2493L56.1367 15.1719C56.1367 15.1719 53.3501 12.9658 52.576 12.6819L53.4662 12.3852C51.6858 11.5079 49.6216 12.0885 47.8541 13.2754L48.1509 12.3852L47.609 12.4368V11.4305L48.1509 10.6177L47.2736 10.321L47.8541 8.85027L46.9769 9.147L47.2736 7.66335C47.2736 7.66335 46.6027 7.97298 46.2028 7.92138C46.2157 7.96008 46.6801 6.92798 46.6801 6.92798C46.3963 6.48934 46.6801 5.59915 46.6801 5.59915C44.6159 5.89588 44.3192 6.19261 43.1452 7.96008C41.3648 11.2112 41.9583 12.6819 42.255 15.9202H42.2421Z" fill="#FFCC00" stroke="#FFCC00" stroke-width="0.296729"/>
<path id="Vector_4" fill-rule="evenodd" clip-rule="evenodd" d="M53.3879 20.771C53.5427 21.0291 55.207 21.8289 56.4713 22.5514C56.1359 21.1839 53.6717 20.8871 53.375 20.771H53.3879Z" fill="#FF0000" stroke="#FF0000" stroke-width="0.387037"/>
<path id="Vector_5" fill-rule="evenodd" clip-rule="evenodd" d="M12.8398 53.2047L10.9562 52.0049L8.44047 53.2176L9.00813 51.0631L7.07294 49.0376L9.30486 48.9086L10.6337 46.4574L11.4465 48.5216L14.1815 49.0247L12.4657 50.4439L12.8398 53.2047ZM17.652 42.6773L16.7747 42.2645L15.949 42.7418L16.078 41.7871L15.3555 41.1421L16.3102 40.9615L16.6973 40.0842L17.1617 40.9357L18.1164 41.0389L17.4455 41.7355L17.652 42.6773ZM21.8965 36.6395L19.9871 35.7106L18.1293 36.7427L18.426 34.6527L16.865 33.2078L18.955 32.8466L19.8323 30.9114L20.8386 32.795L22.9415 33.0272L21.4836 34.5753L21.8965 36.6395ZM13.1623 28.2537L10.9175 27.1184L8.7243 28.3311L9.08554 25.8541L7.25356 24.1253L9.7306 23.7254L10.8014 21.4419L11.9625 23.6738L14.4525 23.9834L12.685 25.7896L13.1623 28.2537ZM5.09905 36.9621L2.82843 35.6203L0.570711 37.0008L1.15127 34.4205L-0.861328 32.7047L1.77053 32.4466L2.78973 30.0083L3.82183 32.4337L6.46658 32.6531L4.49269 34.3947L5.09905 36.9621Z" fill="#F5F5F5"/>
</g>
</g>
</g>
<defs>
<clipPath id="clip0_2909_185307">
<path d="M0.246094 32C0.246094 14.3269 14.573 0 32.2461 0V0C49.9192 0 64.2461 14.3269 64.2461 32V32C64.2461 49.6731 49.9192 64 32.2461 64V64C14.573 64 0.246094 49.6731 0.246094 32V32Z" fill="white"/>
</clipPath>
</defs>
</svg>
