<svg width="65" height="64" viewBox="0 0 65 64" fill="none" xmlns="http://www.w3.org/2000/svg">
<g id="Rounded=Pakistan (PK)">
<g clip-path="url(#clip0_2909_185356)">
<g id="Group">
<path id="Vector" fill-rule="evenodd" clip-rule="evenodd" d="M-11.6289 0H84.3711V64H-11.6289V0Z" fill="#0C590B"/>
<path id="Vector_2" fill-rule="evenodd" clip-rule="evenodd" d="M-11.6289 0H12.4336V64H-11.6289V0Z" fill="#F5F5F5"/>
<g id="Group_2">
<path id="Vector_3" fill-rule="evenodd" clip-rule="evenodd" d="M50.709 28.175L46.809 27.35L44.759 30.7625L44.334 26.8125L40.459 25.9125L44.084 24.2875L43.7465 20.325L46.4215 23.275L50.084 21.725L48.0965 25.175L50.7215 28.175H50.709Z" fill="#F5F5F5"/>
<path id="Vector_4" fill-rule="evenodd" clip-rule="evenodd" d="M52.1707 38.25C51.3388 40.0652 50.1563 41.6981 48.6911 43.0548C47.226 44.4114 45.5071 45.4651 43.6334 46.1551C41.7596 46.8451 39.7679 47.1579 37.7728 47.0756C35.7777 46.9932 33.8186 46.5172 32.0082 45.675C28.3349 43.9743 25.4877 40.8841 24.0929 37.0841C22.6981 33.2841 22.87 29.0858 24.5707 25.4125C25.4153 23.5243 26.6457 21.8337 28.1827 20.4494C29.7198 19.0652 31.5296 18.0179 33.4957 17.375C32.9809 17.8036 32.4886 18.2583 32.0207 18.7375C29.5819 21.4383 28.2873 24.9807 28.4098 28.6176C28.5322 32.2545 30.0623 35.7017 32.6772 38.2324C35.2922 40.763 38.7877 42.1793 42.4266 42.1826C46.0656 42.1859 49.5636 40.7759 52.1832 38.25H52.1707Z" fill="#F5F5F5"/>
</g>
</g>
</g>
</g>
<defs>
<clipPath id="clip0_2909_185356">
<path d="M0.246094 32C0.246094 14.3269 14.573 0 32.2461 0V0C49.9192 0 64.2461 14.3269 64.2461 32V32C64.2461 49.6731 49.9192 64 32.2461 64V64C14.573 64 0.246094 49.6731 0.246094 32V32Z" fill="white"/>
</clipPath>
</defs>
</svg>
