<svg width="65" height="64" viewBox="0 0 65 64" fill="none" xmlns="http://www.w3.org/2000/svg">
<g id="Rounded=Palau (PW)">
<g clip-path="url(#clip0_2909_185314)">
<g id="Group">
<path id="Vector" fill-rule="evenodd" clip-rule="evenodd" d="M-22.8789 0.0110779H89.9694V64.0034H-22.8789V0.0110779Z" fill="#4AADD6"/>
<path id="Vector_2" fill-rule="evenodd" clip-rule="evenodd" d="M46.7716 30.9582C46.6536 36.1125 44.4974 41.0098 40.7754 44.5773C37.0534 48.1448 32.0691 50.0916 26.9145 49.9911C24.3558 50.0508 21.8105 49.6058 19.4239 48.6815C17.0372 47.7572 14.8561 46.3718 13.0051 44.6043C11.1541 42.8368 9.66952 40.7219 8.63612 38.3804C7.60272 36.039 7.04079 33.5169 6.98242 30.9582C6.98242 20.4677 15.8994 11.9254 26.877 11.9254C37.8546 11.9254 46.7341 20.4302 46.7341 30.9582H46.7716Z" fill="#FFDE00"/>
</g>
</g>
</g>
<defs>
<clipPath id="clip0_2909_185314">
<path d="M0.246094 32C0.246094 14.3269 14.573 0 32.2461 0V0C49.9192 0 64.2461 14.3269 64.2461 32V32C64.2461 49.6731 49.9192 64 32.2461 64V64C14.573 64 0.246094 49.6731 0.246094 32V32Z" fill="white"/>
</clipPath>
</defs>
</svg>
