<svg width="65" height="64" viewBox="0 0 65 64" fill="none" xmlns="http://www.w3.org/2000/svg">
<g id="Rounded=Solomon Islands (SB)">
<g clip-path="url(#clip0_2909_185296)">
<g id="Group">
<path id="Vector" fill-rule="evenodd" clip-rule="evenodd" d="M0.246094 63.3967L123.672 0H0.246094V63.3967Z" fill="#0000D6"/>
<path id="Vector_2" fill-rule="evenodd" clip-rule="evenodd" d="M128.239 0L3.63867 63.9902H128.239V0V0Z" fill="#006000"/>
<path id="Vector_3" fill-rule="evenodd" clip-rule="evenodd" d="M128.252 0H121.389L0.246094 60.6746V63.9902H7.09666L128.239 3.43173V0H128.252Z" fill="#FFCC00"/>
<path id="Vector_4" fill-rule="evenodd" clip-rule="evenodd" d="M5.27854 12.3981L6.77508 8.10199L2.87891 5.44433H7.69107L9.17472 1.13531L10.6584 5.44433H15.4576L11.5743 8.10199L13.058 12.3852L9.17472 9.74045L5.27854 12.3981ZM29.1717 12.3981L30.6682 8.10199L26.772 5.44433H31.5842L33.0678 1.13531L34.5515 5.44433H39.3378L35.4675 8.10199L36.9511 12.3852L33.0678 9.72755L29.1717 12.3981ZM29.1717 30.4599L30.6682 26.1637L26.772 23.5061H31.5842L33.0678 19.1971L34.5515 23.5061H39.3378L35.4675 26.1637L36.964 30.4599L33.0807 27.8022L29.1717 30.4599ZM17.3025 21.5322L18.7861 17.2361L14.9029 14.5784H19.7021L21.1858 10.2823L22.6694 14.5784H27.4816L23.5854 17.2361L25.0691 21.5322L21.1987 18.8745L17.3025 21.5322ZM5.27854 30.4599L6.77508 26.1637L2.87891 23.5061H7.69107L9.17472 19.1971L10.6584 23.5061H15.4576L11.5743 26.1637L13.058 30.447L9.17472 27.7893L5.27854 30.4599Z" fill="#F5F5F5"/>
</g>
</g>
</g>
<defs>
<clipPath id="clip0_2909_185296">
<path d="M0.246094 32C0.246094 14.3269 14.573 0 32.2461 0V0C49.9192 0 64.2461 14.3269 64.2461 32V32C64.2461 49.6731 49.9192 64 32.2461 64V64C14.573 64 0.246094 49.6731 0.246094 32V32Z" fill="white"/>
</clipPath>
</defs>
</svg>
