<svg width="65" height="64" viewBox="0 0 65 64" fill="none" xmlns="http://www.w3.org/2000/svg">
<g id="Rounded=Singapore (SG)">
<g clip-path="url(#clip0_2909_185291)">
<g id="Group">
<path id="Vector" fill-rule="evenodd" clip-rule="evenodd" d="M-2.25391 0H93.747V64.0036H-2.25391V0Z" fill="#F5F5F5"/>
<path id="Vector_2" fill-rule="evenodd" clip-rule="evenodd" d="M-2.25391 0H93.747V31.9973H-2.25391V0Z" fill="#DF0000"/>
<path id="Vector_3" fill-rule="evenodd" clip-rule="evenodd" d="M19.8906 5.36448C17.3643 5.90578 15.1012 7.29994 13.4814 9.31281C11.8616 11.3257 10.9838 13.8346 10.9955 16.4183C11.0071 19.0019 11.9075 21.5029 13.5454 23.501C15.1833 25.4992 17.4589 26.8729 19.99 27.3914C18.2857 27.8901 16.4889 27.986 14.7413 27.6716C12.9937 27.3571 11.343 26.6408 9.9196 25.5792C8.49616 24.5177 7.33887 23.1398 6.53903 21.5545C5.73919 19.9691 5.31867 18.2196 5.31066 16.4439C5.30266 14.6682 5.70737 12.915 6.49288 11.3225C7.27839 9.72997 8.42321 8.34178 9.83702 7.26742C11.2508 6.19305 12.8949 5.46191 14.6397 5.13167C16.3844 4.80143 18.182 4.88113 19.8906 5.36448Z" fill="#F5F5F5"/>
<path id="Vector_4" fill-rule="evenodd" clip-rule="evenodd" d="M15.9881 14.6665L14.2812 13.4202L16.4036 13.4022L17.0538 11.3882L17.7311 13.4022H19.8444L18.1466 14.6665L18.7968 16.6805L17.0719 15.4432L15.356 16.6895L15.9881 14.6665ZM18.3362 21.6115L16.6203 20.3652L18.7426 20.3471L19.4019 18.3332L20.0702 20.3381H22.1925L20.4766 21.6024L21.1359 23.6164L19.42 22.3881L17.704 23.6344L18.3362 21.6115ZM26.1301 21.5573L24.4142 20.311L26.5275 20.2929L27.1867 18.279L27.855 20.2929H29.9864L28.2795 21.5573L28.9388 23.5712L27.2138 22.334L25.4979 23.5803L26.1301 21.5573ZM28.4511 14.6756L26.7352 13.4293L28.8575 13.4112L29.5077 11.3973L30.1851 13.4022H32.2983L30.6005 14.6665L31.2507 16.6805L29.5258 15.4522L27.8099 16.6985L28.4511 14.6756ZM22.2828 10.1148L20.5669 8.86855L22.6892 8.85049L23.3485 6.83655L24.0168 8.85049H26.1391L24.4232 10.1148L25.0825 12.1198L23.3666 10.8915L21.6506 12.1378L22.2828 10.1148Z" fill="#F5F5F5"/>
</g>
</g>
</g>
<defs>
<clipPath id="clip0_2909_185291">
<path d="M0.246094 32C0.246094 14.3269 14.573 0 32.2461 0V0C49.9192 0 64.2461 14.3269 64.2461 32V32C64.2461 49.6731 49.9192 64 32.2461 64V64C14.573 64 0.246094 49.6731 0.246094 32V32Z" fill="white"/>
</clipPath>
</defs>
</svg>
