<svg width="65" height="64" viewBox="0 0 65 64" fill="none" xmlns="http://www.w3.org/2000/svg">
<g id="Rounded=Slovenia (SI)">
<g clip-path="url(#clip0_2909_185289)">
<g id="Group">
<path id="Vector" fill-rule="evenodd" clip-rule="evenodd" d="M-7.50391 0H120.502V63.9963H-7.50391V0Z" fill="#F5F5F5"/>
<path id="Vector_2" fill-rule="evenodd" clip-rule="evenodd" d="M-7.50391 42.6728H120.502V63.9963H-7.50391V42.6728Z" fill="#D50000"/>
<path id="Vector_3" fill-rule="evenodd" clip-rule="evenodd" d="M-7.50391 21.3364H120.502V42.6728H-7.50391V21.3364Z" fill="#0000BF"/>
<path id="Vector_4" fill-rule="evenodd" clip-rule="evenodd" d="M28.786 11.6205C28.2841 19.3289 28.001 23.5498 26.8299 25.5059C25.5559 27.6035 24.3205 29.1348 19.366 30.9879C14.4244 29.1348 13.189 27.6035 11.915 25.5059C10.7568 23.5498 10.4609 19.3289 9.95898 11.6205L10.6925 11.376C12.1595 10.9256 13.2663 10.5652 14.077 10.4108C15.2352 10.1534 16.2261 9.88319 19.3532 9.81885C22.4803 9.87032 23.4712 10.1663 24.6294 10.4108C25.453 10.5781 26.5983 10.9256 28.0524 11.376L28.786 11.6333V11.6205Z" fill="#D50000"/>
<path id="Vector_5" fill-rule="evenodd" clip-rule="evenodd" d="M28.0662 11.3631C27.59 19.0586 27.204 22.5847 26.5734 24.2705C25.3766 27.1788 23.472 28.7745 19.3669 30.2802C15.2746 28.7617 13.3701 27.1788 12.1604 24.2705C11.5427 22.5847 11.1438 19.0715 10.6934 11.3631C12.1347 10.9127 13.2671 10.5653 14.0778 10.398C15.236 10.1535 16.2269 9.85747 19.354 9.806C22.4811 9.85747 23.4849 10.1535 24.6431 10.398C25.4667 10.5653 26.612 10.9127 28.0662 11.3631V11.3631Z" fill="#0000BF"/>
<path id="Vector_6" fill-rule="evenodd" clip-rule="evenodd" d="M19.3662 13.7181L19.5593 14.1942L20.4215 14.31L19.8681 14.6446L20.4086 15.005L19.6236 15.1336L19.3791 15.5583L19.1217 15.1208L18.3496 15.0178L18.8644 14.6446L18.3496 14.31L19.1732 14.1814L19.3662 13.7181V13.7181Z" fill="#FFDF00"/>
<path id="Vector_7" fill-rule="evenodd" clip-rule="evenodd" d="M26.2769 22.456L25.8008 22.0699L25.4533 21.5037L24.7841 20.9117L24.4238 20.3198L23.7546 19.7149L23.4201 19.123L23.0597 18.827L22.8152 18.6082L22.2104 19.1358L21.8758 19.7278L21.4511 20.101L21.0007 19.7407L20.6533 19.1358L19.3664 16.8581L18.0795 19.1358L17.7449 19.7407L17.2817 20.101L16.8699 19.7149L16.5353 19.1358L15.9304 18.6082L15.6859 18.827L15.3256 19.123L14.991 19.7149L14.3219 20.3198L13.9615 20.9117L13.2795 21.5037L12.9449 22.0699L12.4688 22.456C12.7435 24.1725 13.5543 25.7581 14.7851 26.9858C15.6087 27.7708 17.2945 28.8389 19.3535 29.5467C21.0445 29.0112 22.6079 28.1353 23.9477 26.9729C25.1808 25.7504 25.9961 24.1695 26.2769 22.456V22.456Z" fill="#F5F5F5"/>
<path id="Vector_8" fill-rule="evenodd" clip-rule="evenodd" d="M21.4256 10.488L21.6187 10.9513L22.4809 11.08L21.9275 11.4017L22.468 11.7749L21.683 11.9036L21.4385 12.3283L21.1811 11.8907L20.4219 11.7878L20.9366 11.4017L20.409 11.08L21.2326 10.9513L21.4256 10.488V10.488ZM17.3076 10.488L17.5007 10.9384L18.3629 11.0671L17.8095 11.4017L18.35 11.762L17.565 11.8907L17.3205 12.3154L17.0503 11.8779L16.3039 11.7749L16.8186 11.4017L16.291 11.0671L17.1146 10.9384L17.3076 10.4752V10.488Z" fill="#FFDF00"/>
<path id="Vector_9" fill-rule="evenodd" clip-rule="evenodd" d="M25.2075 25.3772H24.2809L23.4187 25.3128L22.3764 24.7981L21.1924 24.811L20.1758 25.3128L19.378 25.3772L18.5672 25.3128L17.5506 24.811H16.3795L15.3372 25.3257L14.475 25.3772H13.5227L13.0723 24.6051L13.0851 24.5793L14.4878 24.811L15.3372 24.7466L16.3795 24.2319H17.5635L18.593 24.7466L19.3908 24.811L20.1887 24.7338L21.2182 24.2447H22.3764L23.4316 24.7466L24.2938 24.811L25.645 24.5665L25.6708 24.6051L25.2075 25.3772V25.3772ZM14.3977 26.574L15.3243 26.5096L16.3667 25.9949H17.5377L18.5672 26.4968L19.3651 26.574L20.1629 26.4968L21.1924 25.9949H22.3635L23.4059 26.5096L24.3453 26.574L24.9501 25.8276L24.9244 25.8019L24.2809 25.9949L23.4187 25.9305L22.3764 25.4158H21.2053L20.1758 25.9305L19.378 25.9949L18.5801 25.9305L17.5506 25.4158H16.3795L15.3372 25.9305L14.475 25.9949L13.8315 25.8405V25.8662L14.3977 26.574V26.574Z" fill="#0000BF"/>
</g>
</g>
</g>
<defs>
<clipPath id="clip0_2909_185289">
<path d="M0.246094 32C0.246094 14.3269 14.573 0 32.2461 0V0C49.9192 0 64.2461 14.3269 64.2461 32V32C64.2461 49.6731 49.9192 64 32.2461 64V64C14.573 64 0.246094 49.6731 0.246094 32V32Z" fill="white"/>
</clipPath>
</defs>
</svg>
