<svg width="65" height="64" viewBox="0 0 65 64" fill="none" xmlns="http://www.w3.org/2000/svg">
<g id="Rounded=San Marino (SM)">
<g clip-path="url(#clip0_2909_185286)">
<g id="Group">
<path id="Vector" fill-rule="evenodd" clip-rule="evenodd" d="M0.246094 32H64.2461V64H0.246094V32Z" fill="#19B6EF"/>
<path id="Vector_2" fill-rule="evenodd" clip-rule="evenodd" d="M0.246094 0H64.2461V32H0.246094V0Z" fill="#F5F5F5"/>
</g>
<path id="Vector_3" fill-rule="evenodd" clip-rule="evenodd" d="M31.8581 45.225C38.8456 40 46.3706 29.325 37.5581 23.7125C35.9081 23.3875 34.0706 23.4875 33.1831 24.1875C32.7206 23.9125 32.3581 23.9375 31.8831 24.4375C31.5581 24.0375 31.2331 23.85 30.5456 24.0625C29.909 23.7159 29.2096 23.4998 28.4884 23.4268C27.7673 23.3539 27.0388 23.4255 26.3456 23.6375C18.6581 28.2625 23.3581 39.2125 31.8456 45.225H31.8581Z" fill="#FFDD00" stroke="#7D6C00" stroke-width="0.3"/>
<g id="Group_2">
<path id="Vector_4" fill-rule="evenodd" clip-rule="evenodd" d="M44.7836 33.35C44.7836 33.35 45.5711 32.2875 45.5961 32.2875C46.3836 31.825 46.4711 31.225 46.4711 31.225C47.2586 30.975 47.0086 30.3375 47.0711 30.25C47.1938 30.1286 47.2773 29.9732 47.3107 29.8038C47.3442 29.6344 47.326 29.4589 47.2586 29.3C47.2586 29.1875 47.5336 28.1875 47.1461 28.05C47.1711 26.9875 46.5086 27.0875 45.9836 27.7875C45.4211 27.95 45.2961 28.4125 45.4836 28.9125C44.7586 28.9125 44.7336 29.975 44.9461 30.575C43.9711 30.55 44.5211 31.6375 44.4836 31.7C44.1586 31.85 44.7336 33.4 44.7836 33.35ZM38.6211 42.4375L39.1211 42.7375C39.2086 43.1125 39.5586 43.3375 39.8211 43.275C39.9461 43.85 40.5711 43.775 41.0086 43.4375C41.3836 43.9625 41.8211 43.975 42.4211 43.8C42.9711 44.2 43.6711 44.025 44.1336 43.6C44.6336 44.0125 44.9711 43.725 45.2211 43.275C45.6086 43.375 45.9211 43.3125 46.0586 42.925C46.8211 42.8625 46.4336 42.15 45.8086 41.8375C46.3086 41.4125 46.8711 40.5125 46.0836 40.375C45.8336 40.2 45.3836 40.2375 45.0336 40.4C44.9461 40 44.3836 39.9 43.7836 40.35C43.5711 39.9 42.8461 40.1125 42.5086 40.425C42.0711 40.05 41.5586 40.05 40.7961 40.4875L38.6211 42.4375ZM38.6211 41.275C38.7086 40.775 38.3711 39.875 38.8961 39.775C38.7961 38.95 38.9461 38.0125 39.8961 38.1C40.0586 37.3125 40.0211 36.575 40.9336 36.475C40.9336 36.475 41.6711 33.9125 42.4336 35.6875C42.7211 36.1875 42.6711 37.0375 42.0711 36.875C42.1961 37.5 41.9836 38.0625 41.2836 38.0375C41.5961 38.4875 41.4961 39.0875 41.1586 39.375L38.6211 41.275ZM43.0461 38.1L43.8336 37.9375C44.6461 37.3875 44.9711 37.175 45.3836 37.775C46.0586 37.625 46.7086 37.7 46.6836 38.2375C47.4961 38.2875 47.4836 38.8 47.3961 39.2125C47.5211 39.925 47.2086 40.8625 46.7086 39.725C45.1336 38.7625 44.2461 38.8875 41.7461 39.45L43.0461 38.1V38.1ZM43.4586 37.3125C43.4836 37.2875 45.7961 36.6875 45.5461 35.975C46.1961 35.875 46.3336 35.225 46.3586 35.225C47.7211 34.7875 47.6336 34 47.6336 34C48.0211 33.575 48.7086 33.1625 48.5586 32.425C48.6086 31.5875 48.6836 31.0625 47.5586 31.6125C46.7086 31.525 46.4211 32.0125 46.1711 32.7375C45.7711 32.275 45.1336 33.025 45.0586 33.7C45.0586 33.7 44.0211 34.7 44.0211 34.725L43.1586 36.325L43.4586 37.3125V37.3125Z" fill="#4FD46B" stroke="#3A9D4F" stroke-width="0.3" stroke-linejoin="round"/>
<path id="Vector_5" fill-rule="evenodd" clip-rule="evenodd" d="M43.5078 35.5125C42.9578 35.1 42.6453 34.6 42.7578 34.1C42.3828 33.6125 42.1328 33.3125 42.4828 32.8875L42.2078 31.8875C41.4953 31.6125 41.7953 31.0125 41.9953 30.8C41.6578 30.3375 41.6453 29.85 41.9578 29.4125C41.9578 28.5375 42.5703 28.8625 43.0828 29.4125C43.0828 29.4125 43.9203 30.0125 43.2953 30.55C43.9203 30.7625 44.1078 31.3 43.7578 31.525C44.2953 31.775 44.3828 32.2625 44.0828 32.5875C44.6328 33.025 44.4203 33.5875 44.5953 34.0875L43.5078 35.5125V35.5125Z" fill="#4FD46B" stroke="#3A9D4F" stroke-width="0.3" stroke-linejoin="round"/>
<path id="Vector_6" fill-rule="evenodd" clip-rule="evenodd" d="M44.4956 31.475C44.4581 31.45 43.5581 30.3 43.8081 30.225C43.7581 29.875 43.4831 29.4875 43.6456 29.1375C43.2081 28.7 43.1956 28.175 43.5331 27.7625C43.2331 27.35 43.3706 26.8 43.7831 26.45C43.6581 25.7875 44.1206 25.625 44.5331 25.5C44.8456 24.425 45.3456 24.7 45.6331 25.525C46.0581 25.9 45.9956 26.4625 45.8456 26.8875C46.3456 27.225 46.0456 27.65 45.8206 27.8375L44.4831 31.475H44.4956Z" fill="#4FD46B" stroke="#3A9D4F" stroke-width="0.3" stroke-linejoin="round"/>
<path id="Vector_7" fill-rule="evenodd" clip-rule="evenodd" d="M44.3594 25.75L43.5969 24.9875C43.7844 24.5875 43.9469 23.8625 43.3719 23.55C43.0594 22.775 41.4969 21.825 41.2344 23.65C40.9844 23.1 40.4844 22.5625 40.1094 23.2C39.2969 22.4875 38.8594 22.7 39.2844 23.6C39.2844 23.6 38.9094 24.2 39.9094 24.6625C39.9844 24.7375 39.5719 25.75 40.7719 25.775C40.5469 26.1125 40.9219 26.6 41.3969 26.5625C41.0469 26.9875 41.6344 27.4375 41.9969 27.2625C41.8344 27.7375 41.8469 27.9625 42.4969 28.025L43.2469 28.8625L43.8344 29.6875L44.3469 25.75H44.3594Z" fill="#4FD46B" stroke="#3A9D4F" stroke-width="0.3" stroke-linejoin="round"/>
<path id="Vector_8" d="M41.3703 36.5C41.3703 36.5375 38.9578 40.525 38.8703 41.8375M44.8203 32.875C44.8453 32.825 46.2703 29.5625 46.4578 28.5625L44.8203 32.875ZM44.9578 27.0625C44.9578 27.0625 45.2078 29.725 44.5453 31.6875L44.9578 27.0625ZM40.5953 24.375C40.5953 24.375 43.5078 27.175 43.7828 28.325L40.5953 24.375ZM42.6203 24.075C42.6203 24.075 42.8203 26.375 43.6203 28.6375L42.6203 24.075ZM47.7703 32.4375C47.7703 32.4375 44.8578 34.8875 43.4328 37.0375L47.7703 32.4375ZM45.0078 41.0375C45.0078 41.0375 41.1703 41.5625 39.4828 41.6L45.0078 41.0375ZM43.7328 42.6875C43.7328 42.6875 38.9828 42.5625 38.6328 42.225L43.7328 42.6875Z" stroke="#3A9D4F" stroke-width="0.275" stroke-linecap="round"/>
</g>
<path id="Vector_9" fill-rule="evenodd" clip-rule="evenodd" d="M31.8343 44.4625C26.7968 39.7125 21.6343 30.7875 26.7718 26.2875C27.6718 26.8 28.7593 26.3375 30.2343 25.7625C30.6843 26.25 31.2593 26.375 31.8218 26.0125C32.4718 26.275 32.9468 26.0625 33.2593 25.7125C34.7093 26.5625 36.5718 27 37.0093 26.1625C42.0593 30.9625 36.9468 39.9125 31.8218 44.4625H31.8343Z" fill="#65C7FF" stroke="#7D6C00" stroke-width="0.3"/>
<path id="Vector_10" fill-rule="evenodd" clip-rule="evenodd" d="M31.859 44.325C29.5555 42.0996 27.6451 39.5004 26.209 36.6375C26.459 36.4125 26.584 36.35 26.7215 35.9625C27.4545 36.0934 28.2059 36.0806 28.934 35.925C29.134 36.6875 29.184 37.325 29.659 37.9625L30.684 35.9625C31.406 36.1445 32.1619 36.1445 32.884 35.9625C33.309 36.5375 33.159 37.4 33.909 38.05C34.359 36.725 34.809 36.6375 35.259 35.925C35.9215 36.1625 36.3465 36.05 36.884 35.8875C37.1715 36.2125 37.034 36.2 37.559 36.6875C36.1484 39.5608 34.2155 42.1464 31.859 44.3125V44.325Z" fill="#8FC753"/>
<path id="Vector_11" fill-rule="evenodd" clip-rule="evenodd" d="M25.9332 21.9125C25.9332 22.0318 25.8858 22.1463 25.8014 22.2307C25.717 22.3151 25.6026 22.3625 25.4832 22.3625C25.3639 22.3625 25.2494 22.3151 25.165 22.2307C25.0806 22.1463 25.0332 22.0318 25.0332 21.9125C25.0332 21.7932 25.0806 21.6787 25.165 21.5943C25.2494 21.5099 25.3639 21.4625 25.4832 21.4625C25.6026 21.4625 25.717 21.5099 25.8014 21.5943C25.8858 21.6787 25.9332 21.7932 25.9332 21.9125ZM25.4707 20.875C25.4707 20.9943 25.4233 21.1088 25.3389 21.1932C25.2545 21.2776 25.1401 21.325 25.0207 21.325C24.9014 21.325 24.7869 21.2776 24.7025 21.1932C24.6181 21.1088 24.5707 20.9943 24.5707 20.875C24.5707 20.7557 24.6181 20.6412 24.7025 20.5568C24.7869 20.4724 24.9014 20.425 25.0207 20.425C25.1401 20.425 25.2545 20.4724 25.3389 20.5568C25.4233 20.6412 25.4707 20.7557 25.4707 20.875V20.875ZM24.9207 19.925C24.9316 19.9895 24.9282 20.0556 24.9109 20.1187C24.8936 20.1818 24.8628 20.2404 24.8206 20.2903C24.7783 20.3403 24.7257 20.3804 24.6663 20.4079C24.607 20.4355 24.5424 20.4497 24.477 20.4497C24.4115 20.4497 24.3469 20.4355 24.2876 20.4079C24.2282 20.3804 24.1756 20.3403 24.1333 20.2903C24.0911 20.2404 24.0603 20.1818 24.043 20.1187C24.0257 20.0556 24.0223 19.9895 24.0332 19.925C24.0509 19.8201 24.1051 19.7248 24.1864 19.6561C24.2676 19.5874 24.3706 19.5497 24.477 19.5497C24.5833 19.5497 24.6863 19.5874 24.7675 19.6561C24.8488 19.7248 24.903 19.8201 24.9207 19.925ZM24.5457 19C24.5616 19.0662 24.5623 19.1351 24.5478 19.2016C24.5332 19.268 24.5038 19.3304 24.4617 19.3838C24.4196 19.4373 24.3659 19.4805 24.3047 19.5102C24.2434 19.5399 24.1763 19.5553 24.1082 19.5553C24.0401 19.5553 23.973 19.5399 23.9118 19.5102C23.8505 19.4805 23.7968 19.4373 23.7547 19.3838C23.7126 19.3304 23.6832 19.268 23.6686 19.2016C23.6541 19.1351 23.6548 19.0662 23.6707 19C23.6944 18.9018 23.7504 18.8144 23.8297 18.7518C23.9091 18.6893 24.0072 18.6553 24.1082 18.6553C24.2092 18.6553 24.3073 18.6893 24.3867 18.7518C24.466 18.8144 24.5221 18.9018 24.5457 19V19ZM24.6082 17.9875C24.6191 18.052 24.6157 18.1181 24.5984 18.1812C24.5811 18.2443 24.5503 18.3029 24.5081 18.3528C24.4658 18.4028 24.4132 18.4429 24.3538 18.4704C24.2945 18.498 24.2299 18.5122 24.1645 18.5122C24.099 18.5122 24.0344 18.498 23.9751 18.4704C23.9157 18.4429 23.8631 18.4028 23.8208 18.3528C23.7786 18.3029 23.7478 18.2443 23.7305 18.1812C23.7132 18.1181 23.7098 18.052 23.7207 17.9875C23.7384 17.8826 23.7926 17.7873 23.8739 17.7186C23.9551 17.6499 24.0581 17.6122 24.1645 17.6122C24.2708 17.6122 24.3738 17.6499 24.455 17.7186C24.5363 17.7873 24.5905 17.8826 24.6082 17.9875ZM26.9707 16.325C26.9707 16.3841 26.9591 16.4426 26.9365 16.4972C26.9138 16.5518 26.8807 16.6014 26.8389 16.6432C26.7971 16.685 26.7475 16.7181 26.6929 16.7407C26.6383 16.7634 26.5798 16.775 26.5207 16.775C26.4616 16.775 26.4031 16.7634 26.3485 16.7407C26.2939 16.7181 26.2443 16.685 26.2025 16.6432C26.1607 16.6014 26.1276 16.5518 26.105 16.4972C26.0823 16.4426 26.0707 16.3841 26.0707 16.325C26.0707 16.2057 26.1181 16.0912 26.2025 16.0068C26.2869 15.9224 26.4014 15.875 26.5207 15.875C26.6401 15.875 26.7545 15.9224 26.8389 16.0068C26.9233 16.0912 26.9707 16.2057 26.9707 16.325ZM26.0832 16.475C26.0941 16.5395 26.0907 16.6056 26.0734 16.6687C26.0561 16.7318 26.0253 16.7904 25.9831 16.8403C25.9408 16.8903 25.8882 16.9304 25.8288 16.9579C25.7695 16.9855 25.7049 16.9997 25.6395 16.9997C25.574 16.9997 25.5094 16.9855 25.4501 16.9579C25.3907 16.9304 25.3381 16.8903 25.2958 16.8403C25.2536 16.7904 25.2228 16.7318 25.2055 16.6687C25.1882 16.6056 25.1848 16.5395 25.1957 16.475C25.2134 16.3701 25.2676 16.2748 25.3489 16.2061C25.4301 16.1374 25.5331 16.0997 25.6395 16.0997C25.7458 16.0997 25.8488 16.1374 25.93 16.2061C26.0113 16.2748 26.0655 16.3701 26.0832 16.475V16.475ZM25.1207 17.0625C25.1207 17.1216 25.1091 17.1801 25.0864 17.2347C25.0638 17.2893 25.0307 17.3389 24.9889 17.3807C24.9471 17.4225 24.8975 17.4556 24.8429 17.4782C24.7883 17.5009 24.7298 17.5125 24.6707 17.5125C24.6116 17.5125 24.5531 17.5009 24.4985 17.4782C24.4439 17.4556 24.3943 17.4225 24.3525 17.3807C24.3107 17.3389 24.2776 17.2893 24.255 17.2347C24.2323 17.1801 24.2207 17.1216 24.2207 17.0625C24.2207 16.9432 24.2681 16.8287 24.3525 16.7443C24.4369 16.6599 24.5514 16.6125 24.6707 16.6125C24.7901 16.6125 24.9045 16.6599 24.9889 16.7443C25.0733 16.8287 25.1207 16.9432 25.1207 17.0625V17.0625ZM28.1082 16.3375C28.1082 16.4568 28.0608 16.5713 27.9764 16.6557C27.892 16.7401 27.7776 16.7875 27.6582 16.7875C27.5389 16.7875 27.4244 16.7401 27.34 16.6557C27.2556 16.5713 27.2082 16.4568 27.2082 16.3375C27.2082 16.2182 27.2556 16.1037 27.34 16.0193C27.4244 15.9349 27.5389 15.8875 27.6582 15.8875C27.7776 15.8875 27.892 15.9349 27.9764 16.0193C28.0608 16.1037 28.1082 16.2182 28.1082 16.3375ZM29.3457 16.4375C29.3566 16.502 29.3532 16.5681 29.3359 16.6312C29.3186 16.6943 29.2878 16.7529 29.2456 16.8028C29.2033 16.8528 29.1507 16.8929 29.0914 16.9204C29.032 16.948 28.9674 16.9622 28.902 16.9622C28.8365 16.9622 28.7719 16.948 28.7126 16.9204C28.6532 16.8929 28.6006 16.8528 28.5583 16.8028C28.5161 16.7529 28.4853 16.6943 28.468 16.6312C28.4507 16.5681 28.4473 16.502 28.4582 16.4375C28.4819 16.3393 28.5379 16.2519 28.6172 16.1893C28.6966 16.1268 28.7947 16.0928 28.8957 16.0928C28.9967 16.0928 29.0948 16.1268 29.1742 16.1893C29.2535 16.2519 29.3096 16.3393 29.3332 16.4375H29.3457ZM30.4457 16.375C30.4566 16.4395 30.4532 16.5056 30.4359 16.5687C30.4186 16.6318 30.3878 16.6904 30.3456 16.7403C30.3033 16.7903 30.2507 16.8304 30.1914 16.8579C30.132 16.8855 30.0674 16.8997 30.002 16.8997C29.9365 16.8997 29.8719 16.8855 29.8126 16.8579C29.7532 16.8304 29.7006 16.7903 29.6583 16.7403C29.6161 16.6904 29.5853 16.6318 29.568 16.5687C29.5507 16.5056 29.5473 16.4395 29.5582 16.375C29.5759 16.2701 29.6301 16.1748 29.7114 16.1061C29.7926 16.0374 29.8956 15.9997 30.002 15.9997C30.1083 15.9997 30.2113 16.0374 30.2925 16.1061C30.3738 16.1748 30.428 16.2701 30.4457 16.375V16.375Z" fill="#F5F5F5" stroke="black" stroke-width="0.1375"/>
<path id="Vector_12" fill-rule="evenodd" clip-rule="evenodd" d="M33.0344 15.6625C33.0344 15.9675 32.9132 16.26 32.6975 16.4757C32.4819 16.6913 32.1894 16.8125 31.8844 16.8125C31.5794 16.8125 31.2869 16.6913 31.0712 16.4757C30.8555 16.26 30.7344 15.9675 30.7344 15.6625C30.764 15.3798 30.8972 15.118 31.1084 14.9278C31.3197 14.7375 31.5939 14.6322 31.8781 14.6322C32.1624 14.6322 32.4366 14.7375 32.6478 14.9278C32.859 15.118 32.9923 15.3798 33.0219 15.6625H33.0344Z" fill="#FFDD00" stroke="#7D6C00" stroke-width="0.1375"/>
<path id="Vector_13" fill-rule="evenodd" clip-rule="evenodd" d="M34.234 16.3625C34.234 16.4819 34.1866 16.5963 34.1022 16.6807C34.0178 16.7651 33.9033 16.8125 33.784 16.8125C33.6646 16.8125 33.5502 16.7651 33.4658 16.6807C33.3814 16.5963 33.334 16.4819 33.334 16.3625C33.334 16.2432 33.3814 16.1287 33.4658 16.0443C33.5502 15.9599 33.6646 15.9125 33.784 15.9125C33.9033 15.9125 34.0178 15.9599 34.1022 16.0443C34.1866 16.1287 34.234 16.2432 34.234 16.3625ZM35.3965 16.45C35.4073 16.5145 35.404 16.5806 35.3867 16.6437C35.3694 16.7068 35.3386 16.7654 35.2963 16.8153C35.2541 16.8653 35.2015 16.9054 35.1421 16.9329C35.0828 16.9605 35.0182 16.9747 34.9527 16.9747C34.8873 16.9747 34.8227 16.9605 34.7633 16.9329C34.704 16.9054 34.6514 16.8653 34.6091 16.8153C34.5669 16.7654 34.536 16.7068 34.5187 16.6437C34.5015 16.5806 34.4981 16.5145 34.509 16.45C34.5267 16.3451 34.5809 16.2498 34.6622 16.1811C34.7434 16.1124 34.8463 16.0747 34.9527 16.0747C35.0591 16.0747 35.1621 16.1124 35.2433 16.1811C35.3245 16.2498 35.3788 16.3451 35.3965 16.45V16.45ZM36.5215 16.4C36.5323 16.4645 36.529 16.5306 36.5117 16.5937C36.4944 16.6568 36.4636 16.7154 36.4213 16.7653C36.3791 16.8153 36.3265 16.8554 36.2671 16.8829C36.2078 16.9105 36.1432 16.9247 36.0777 16.9247C36.0123 16.9247 35.9477 16.9105 35.8883 16.8829C35.829 16.8554 35.7764 16.8153 35.7341 16.7653C35.6919 16.7154 35.661 16.6568 35.6437 16.5937C35.6265 16.5306 35.6231 16.4645 35.634 16.4C35.6517 16.2951 35.7059 16.1998 35.7872 16.1311C35.8684 16.0624 35.9713 16.0247 36.0777 16.0247C36.1841 16.0247 36.2871 16.0624 36.3683 16.1311C36.4495 16.1998 36.5038 16.2951 36.5215 16.4V16.4ZM37.4715 16.3625C37.4823 16.427 37.479 16.4931 37.4617 16.5562C37.4444 16.6193 37.4136 16.6779 37.3713 16.7278C37.3291 16.7778 37.2765 16.8179 37.2171 16.8454C37.1578 16.873 37.0932 16.8872 37.0277 16.8872C36.9623 16.8872 36.8977 16.873 36.8383 16.8454C36.779 16.8179 36.7264 16.7778 36.6841 16.7278C36.6419 16.6779 36.611 16.6193 36.5937 16.5562C36.5764 16.4931 36.5731 16.427 36.584 16.3625C36.6017 16.2576 36.6559 16.1623 36.7372 16.0936C36.8184 16.0249 36.9213 15.9872 37.0277 15.9872C37.1341 15.9872 37.2371 16.0249 37.3183 16.0936C37.3995 16.1623 37.4538 16.2576 37.4715 16.3625ZM38.659 16.4875C38.659 16.6069 38.6116 16.7213 38.5272 16.8057C38.4428 16.8901 38.3283 16.9375 38.209 16.9375C38.0896 16.9375 37.9752 16.8901 37.8908 16.8057C37.8064 16.7213 37.759 16.6069 37.759 16.4875C37.759 16.3682 37.8064 16.2537 37.8908 16.1693C37.9752 16.0849 38.0896 16.0375 38.209 16.0375C38.3283 16.0375 38.4428 16.0849 38.5272 16.1693C38.6116 16.2537 38.659 16.3682 38.659 16.4875V16.4875ZM39.584 17.075C39.5948 17.1395 39.5915 17.2056 39.5742 17.2687C39.5569 17.3318 39.5261 17.3904 39.4838 17.4403C39.4416 17.4903 39.389 17.5304 39.3296 17.5579C39.2703 17.5855 39.2057 17.5997 39.1402 17.5997C39.0748 17.5997 39.0102 17.5855 38.9508 17.5579C38.8915 17.5304 38.8389 17.4903 38.7966 17.4403C38.7544 17.3904 38.7235 17.3318 38.7062 17.2687C38.689 17.2056 38.6856 17.1395 38.6965 17.075C38.7142 16.9701 38.7684 16.8748 38.8497 16.8061C38.9309 16.7374 39.0338 16.6997 39.1402 16.6997C39.2466 16.6997 39.3496 16.7374 39.4308 16.8061C39.512 16.8748 39.5663 16.9701 39.584 17.075V17.075Z" fill="#F5F5F5" stroke="black" stroke-width="0.1375"/>
<path id="Vector_14" fill-rule="evenodd" clip-rule="evenodd" d="M25.4961 20.225L26.6461 22.425H37.2086L38.4211 20.3C37.7086 19.8125 37.2211 19.4375 36.2086 19.675C35.6211 18.8375 34.9961 18.675 34.0586 18.775C33.8039 18.4795 33.4465 18.2918 33.0586 18.25L30.8336 18.3125C30.2586 18.3625 29.8086 18.8125 29.7836 18.8125C28.8336 18.6875 27.9711 18.725 27.7461 19.6375C26.8836 19.425 26.2836 19.6625 25.4961 20.225V20.225Z" fill="#E40000" stroke="#AC0000" stroke-width="0.3"/>
<path id="Vector_15" fill-rule="evenodd" clip-rule="evenodd" d="M39.9715 18.05C39.9823 18.1145 39.979 18.1806 39.9617 18.2437C39.9444 18.3068 39.9136 18.3654 39.8713 18.4153C39.8291 18.4653 39.7765 18.5054 39.7171 18.5329C39.6578 18.5605 39.5932 18.5747 39.5277 18.5747C39.4623 18.5747 39.3977 18.5605 39.3383 18.5329C39.279 18.5054 39.2264 18.4653 39.1841 18.4153C39.1419 18.3654 39.111 18.3068 39.0937 18.2437C39.0764 18.1806 39.0731 18.1145 39.084 18.05C39.1017 17.9451 39.1559 17.8498 39.2372 17.7811C39.3184 17.7124 39.4213 17.6747 39.5277 17.6747C39.6341 17.6747 39.7371 17.7124 39.8183 17.7811C39.8995 17.8498 39.9538 17.9451 39.9715 18.05ZM40.0465 19.0875C40.0573 19.152 40.054 19.2181 40.0367 19.2812C40.0194 19.3443 39.9886 19.4029 39.9463 19.4528C39.9041 19.5028 39.8515 19.5429 39.7921 19.5704C39.7328 19.598 39.6682 19.6122 39.6027 19.6122C39.5373 19.6122 39.4727 19.598 39.4133 19.5704C39.354 19.5429 39.3014 19.5028 39.2591 19.4528C39.2169 19.4029 39.186 19.3443 39.1687 19.2812C39.1514 19.2181 39.1481 19.152 39.159 19.0875C39.1767 18.9826 39.2309 18.8873 39.3122 18.8186C39.3934 18.7499 39.4963 18.7122 39.6027 18.7122C39.7091 18.7122 39.8121 18.7499 39.8933 18.8186C39.9745 18.8873 40.0288 18.9826 40.0465 19.0875ZM39.7215 20.0625C39.7323 20.127 39.729 20.1931 39.7117 20.2562C39.6944 20.3193 39.6636 20.3779 39.6213 20.4278C39.5791 20.4778 39.5265 20.5179 39.4671 20.5454C39.4078 20.573 39.3432 20.5872 39.2777 20.5872C39.2123 20.5872 39.1477 20.573 39.0883 20.5454C39.029 20.5179 38.9764 20.4778 38.9341 20.4278C38.8919 20.3779 38.861 20.3193 38.8437 20.2562C38.8264 20.1931 38.8231 20.127 38.834 20.0625C38.8517 19.9576 38.9059 19.8623 38.9872 19.7936C39.0684 19.7249 39.1713 19.6872 39.2777 19.6872C39.3841 19.6872 39.4871 19.7249 39.5683 19.7936C39.6495 19.8623 39.7038 19.9576 39.7215 20.0625ZM39.309 20.8625C39.3249 20.9287 39.3256 20.9976 39.3111 21.0641C39.2965 21.1305 39.2671 21.1929 39.225 21.2463C39.1829 21.2998 39.1292 21.343 39.0679 21.3727C39.0067 21.4024 38.9395 21.4178 38.8715 21.4178C38.8034 21.4178 38.7363 21.4024 38.675 21.3727C38.6138 21.343 38.5601 21.2998 38.518 21.2463C38.4759 21.1929 38.4464 21.1305 38.4319 21.0641C38.4173 20.9976 38.4181 20.9287 38.434 20.8625C38.4576 20.7643 38.5136 20.6769 38.593 20.6143C38.6724 20.5518 38.7705 20.5178 38.8715 20.5178C38.9725 20.5178 39.0706 20.5518 39.15 20.6143C39.2293 20.6769 39.2853 20.7643 39.309 20.8625V20.8625ZM38.834 21.8625C38.834 21.9819 38.7866 22.0963 38.7022 22.1807C38.6178 22.2651 38.5033 22.3125 38.384 22.3125C38.2646 22.3125 38.1502 22.2651 38.0658 22.1807C37.9814 22.0963 37.934 21.9819 37.934 21.8625C37.934 21.7432 37.9814 21.6287 38.0658 21.5443C38.1502 21.4599 38.2646 21.4125 38.384 21.4125C38.5033 21.4125 38.6178 21.4599 38.7022 21.5443C38.7866 21.6287 38.834 21.7432 38.834 21.8625ZM32.584 20.5875C32.597 20.6813 32.5897 20.7767 32.5626 20.8675C32.5356 20.9582 32.4894 21.0421 32.4273 21.1135C32.3651 21.1848 32.2883 21.2421 32.2021 21.2813C32.116 21.3205 32.0224 21.3408 31.9277 21.3408C31.8331 21.3408 31.7395 21.3205 31.6533 21.2813C31.5672 21.2421 31.4904 21.1848 31.4282 21.1135C31.366 21.0421 31.3199 20.9582 31.2928 20.8675C31.2658 20.7767 31.2585 20.6813 31.2715 20.5875C31.2934 20.429 31.3719 20.2839 31.4926 20.1788C31.6132 20.0737 31.7678 20.0158 31.9277 20.0158C32.0877 20.0158 32.2423 20.0737 32.3629 20.1788C32.4835 20.2839 32.5621 20.429 32.584 20.5875V20.5875ZM32.709 19.075C32.7231 19.1876 32.7132 19.3019 32.6798 19.4104C32.6463 19.5188 32.5902 19.6189 32.5152 19.704C32.4401 19.7891 32.3478 19.8573 32.2443 19.904C32.1409 19.9507 32.0287 19.9748 31.9152 19.9748C31.8018 19.9748 31.6896 19.9507 31.5861 19.904C31.4827 19.8573 31.3904 19.7891 31.3153 19.704C31.2402 19.6189 31.1841 19.5188 31.1507 19.4104C31.1173 19.3019 31.1073 19.1876 31.1215 19.075C31.1215 18.8628 31.2058 18.6593 31.3558 18.5093C31.5058 18.3593 31.7093 18.275 31.9215 18.275C32.1337 18.275 32.3371 18.3593 32.4872 18.5093C32.6372 18.6593 32.7215 18.8628 32.7215 19.075H32.709Z" fill="#F5F5F5" stroke="black" stroke-width="0.1375"/>
<path id="Vector_16" fill-rule="evenodd" clip-rule="evenodd" d="M32.6094 17.6C32.6094 17.7906 32.5336 17.9734 32.3989 18.1082C32.2641 18.243 32.0812 18.3188 31.8906 18.3188C31.7 18.3188 31.5172 18.243 31.3824 18.1082C31.2476 17.9734 31.1719 17.7906 31.1719 17.6C31.1719 17.4094 31.2476 17.2266 31.3824 17.0918C31.5172 16.957 31.7 16.8813 31.8906 16.8813C32.0812 16.8813 32.2641 16.957 32.3989 17.0918C32.5336 17.2266 32.6094 17.4094 32.6094 17.6V17.6Z" fill="#F5F5F5" stroke="black" stroke-width="0.1375"/>
<path id="Vector_17" fill-rule="evenodd" clip-rule="evenodd" d="M31.6469 14.5375V13.9625H31.1719L31.1844 13.5375H31.5969V13.1625H32.1844V13.5H32.6469V13.95H32.1594V14.55H31.6469V14.5375Z" fill="#FFDD00" stroke="#7D6C00" stroke-width="0.1375"/>
<path id="Vector_18" d="M26.5826 22.425C25.6451 20.8125 24.2451 18.6375 25.1076 17.7C26.3076 16.3375 29.1076 17.575 30.8951 16.775C31.0201 18.3125 30.5951 20.8375 31.2826 21.3625L30.6451 21.925C30.2576 21.425 29.5201 20.75 28.6076 21.95C28.0951 21.5 27.5076 21.575 27.2326 22.175C26.9576 22.2125 26.9826 22.325 26.5826 22.425V22.425ZM37.2701 22.3625C38.2076 20.7625 39.6076 18.5875 38.7451 17.6375C37.5451 16.2875 34.7451 17.5125 32.9576 16.725C32.8326 18.25 33.2576 20.775 32.5701 21.3125L33.2076 21.8625C33.8326 21 34.5826 20.975 35.2326 21.9C35.7576 21.4375 36.2951 21.5 36.6201 22.125C36.8951 22.1625 36.8701 22.2625 37.2701 22.375V22.3625Z" stroke="#FFDD00" stroke-width="0.4125"/>
<path id="Vector_19" fill-rule="evenodd" clip-rule="evenodd" d="M26.5582 23.625C30.0718 23.3051 33.6071 23.3051 37.1207 23.625L37.5332 22.425C33.8457 21.75 31.2957 21.675 26.4707 22.3375L26.5582 23.6125V23.625Z" fill="#FFDD00" stroke="#7D6C00" stroke-width="0.3"/>
<path id="Vector_20" fill-rule="evenodd" clip-rule="evenodd" d="M31.4582 43.9125L31.5457 43.35C31.9207 43.4625 32.2082 43.4125 32.5207 43.3L32.8457 42.8125L32.5957 42.525C32.3832 42.575 32.2207 42.775 32.0707 42.95C31.8582 42.95 31.6707 42.85 31.4582 42.8125L31.2582 41.95C31.0582 41.7125 30.6332 41.7375 30.7207 42.1625L30.7707 42.4875C30.8457 42.6875 30.8832 42.975 31.0207 43.1125V43.4625L31.4582 43.9125V43.9125ZM31.6207 41.475C31.3332 41.6125 30.9957 41.375 30.6457 41.225C30.3207 41.2125 30.0582 41.475 29.6582 41.4C29.7332 41.1875 29.9082 41.15 30.0332 41.025C29.9457 40.475 30.2332 40.2875 30.3207 40.2875C30.3957 40.2875 30.7207 40.375 30.7207 40.375L31.0457 40.4125C31.2457 40.7625 31.5082 41.0875 31.6207 41.475V41.475Z" fill="#C76E2E"/>
<path id="Vector_21" fill-rule="evenodd" clip-rule="evenodd" d="M29.6832 48.8125C30.6207 47.275 37.1832 44.2125 43.3332 37.575C37.0832 43.6125 33.1582 45.0875 28.0332 48.775L29.6832 48.8125V48.8125Z" fill="#FFE100" stroke="#E9BF00" stroke-width="0.3"/>
<path id="Vector_22" fill-rule="evenodd" clip-rule="evenodd" d="M38.6961 41.75C38.6961 41.876 38.646 41.9968 38.557 42.0859C38.4679 42.175 38.3471 42.225 38.2211 42.225C38.0951 42.225 37.9743 42.175 37.8852 42.0859C37.7961 41.9968 37.7461 41.876 37.7461 41.75C37.7461 41.624 37.7961 41.5032 37.8852 41.4141C37.9743 41.325 38.0951 41.275 38.2211 41.275C38.3471 41.275 38.4679 41.325 38.557 41.4141C38.646 41.5032 38.6961 41.624 38.6961 41.75ZM43.2836 37.1125C43.2836 37.2567 43.2263 37.395 43.1243 37.497C43.0224 37.599 42.8841 37.6563 42.7398 37.6562C42.5956 37.6563 42.4573 37.599 42.3554 37.497C42.2534 37.395 42.1961 37.2567 42.1961 37.1125C42.1961 36.9683 42.2534 36.83 42.3554 36.728C42.4573 36.626 42.5956 36.5687 42.7398 36.5687C42.8841 36.5687 43.0224 36.626 43.1243 36.728C43.2263 36.83 43.2836 36.9683 43.2836 37.1125V37.1125ZM44.8086 33.1625C44.8086 33.2885 44.7585 33.4093 44.6695 33.4984C44.5804 33.5875 44.4596 33.6375 44.3336 33.6375C44.2076 33.6375 44.0868 33.5875 43.9977 33.4984C43.9086 33.4093 43.8586 33.2885 43.8586 33.1625C43.8586 33.0365 43.9086 32.9157 43.9977 32.8266C44.0868 32.7375 44.2076 32.6875 44.3336 32.6875C44.4596 32.6875 44.5804 32.7375 44.6695 32.8266C44.7585 32.9157 44.8086 33.0365 44.8086 33.1625ZM43.3086 28.0375C43.3086 28.1635 43.2585 28.2843 43.1695 28.3734C43.0804 28.4625 42.9596 28.5125 42.8336 28.5125C42.7076 28.5125 42.5868 28.4625 42.4977 28.3734C42.4086 28.2843 42.3586 28.1635 42.3586 28.0375C42.3586 27.9115 42.4086 27.7907 42.4977 27.7016C42.5868 27.6125 42.7076 27.5625 42.8336 27.5625C42.9596 27.5625 43.0804 27.6125 43.1695 27.7016C43.2585 27.7907 43.3086 27.9115 43.3086 28.0375V28.0375Z" fill="#9D4916" stroke="#68300E" stroke-width="0.1375"/>
<path id="Vector_23" fill-rule="evenodd" clip-rule="evenodd" d="M26.7965 35.95V33.925L26.584 33.75V33.275L26.959 33.2375L27.034 30.9875L26.784 30.85L26.759 30.475C26.759 30.475 27.034 30.575 27.034 30.5L27.0965 30.0625C27.0965 30.0625 26.934 30.025 26.934 29.95C26.934 29.875 27.134 29.7125 27.134 29.7125C27.134 29.7125 27.034 29.6125 27.009 29.55L26.8965 29.175L26.9965 28.8L26.934 28.5875L26.759 28.275L27.009 28.0375L26.934 27.6625C26.934 27.6 27.0965 27.3125 27.134 27.2875L27.4465 26.875L28.0215 26.7375L28.709 26.8375L29.084 27.0875L29.159 27.7C29.159 27.7 29.084 28.075 29.059 28.075L28.7465 28.2C28.7465 28.2 28.409 28.2375 28.3715 28.2C28.334 28.1625 28.4715 28.6125 28.4715 28.6125V29.025L28.434 29.5375C28.434 29.5375 28.434 29.7875 28.409 29.8125L28.2965 29.95L28.2715 30.4625L28.809 30.6L28.784 30.9125L28.409 30.95L28.4715 33.0375L29.0215 33.1375V33.725L28.7715 33.85L28.709 35.95H26.7965ZM35.109 35.975V33.9625L34.909 33.7875V33.3125L35.284 33.275L35.359 31.025L35.109 30.875L35.084 30.5C35.084 30.5 35.359 30.6 35.359 30.5375L35.4215 30.0875C35.4215 30.0875 35.2465 30.0625 35.2465 29.9875C35.2465 29.9125 35.459 29.75 35.459 29.75C35.459 29.75 35.359 29.65 35.3215 29.575C35.284 29.5 35.2215 29.2 35.2215 29.2L35.3215 28.825L35.2465 28.625L35.084 28.3125L35.3215 28.0625L35.2465 27.6875C35.2951 27.5511 35.367 27.4242 35.459 27.3125L35.759 26.9125L36.3465 26.775L37.034 26.875L37.409 27.125L37.4715 27.725C37.4715 27.725 37.409 28.1 37.3715 28.1C37.334 28.1 37.059 28.25 37.059 28.25C37.059 28.25 36.7215 28.275 36.684 28.25C36.6465 28.225 36.7965 28.65 36.7965 28.65V29.0625L36.759 29.575C36.759 29.575 36.759 29.825 36.7215 29.85L36.6215 29.9875L36.584 30.5L37.134 30.6375L37.0965 30.95L36.7215 30.9875L36.7965 33.075L37.334 33.175V33.75L37.0965 33.8875L37.034 35.975H35.109V35.975ZM30.909 36.05V34.025L30.6965 33.8625V33.375L31.0715 33.35L31.1465 31.0875L30.8965 30.95L30.8715 30.575C30.8715 30.575 31.1465 30.675 31.1465 30.6125L31.209 30.1625C31.209 30.1625 31.034 30.125 31.034 30.0625C31.034 30 31.2465 29.8125 31.2465 29.8125L31.109 29.65C31.0715 29.5875 31.009 29.275 31.009 29.275L31.109 28.9L31.034 28.6875L30.8715 28.3875L31.109 28.1375L31.034 27.7625C31.0826 27.6261 31.1545 27.4992 31.2465 27.3875L31.559 26.975L32.134 26.85L32.8215 26.95L33.1965 27.1875L33.259 27.8C33.259 27.8 33.1965 28.175 33.159 28.175C33.1215 28.175 32.859 28.3125 32.859 28.3125C32.859 28.3125 32.509 28.35 32.484 28.3125C32.459 28.275 32.584 28.725 32.584 28.725V29.1375L32.5465 29.6375C32.5465 29.6375 32.5465 29.8875 32.509 29.925C32.4715 29.95 32.409 30.05 32.409 30.05L32.3715 30.575L32.9215 30.7L32.884 31.0125L32.509 31.05L32.584 33.1375L33.134 33.2375V33.825L32.884 33.95L32.8215 36.05H30.909V36.05Z" fill="#F5F5F5" stroke="#A9A9A9" stroke-width="0.1375"/>
<path id="Vector_24" fill-rule="evenodd" clip-rule="evenodd" d="M27.2969 35.925V34.3375H28.1969V36L27.2969 35.925ZM31.4969 36.05L31.5344 34.425H32.3344V36.025L31.5094 36.0625L31.4969 36.05ZM35.6469 36.025L35.5844 34.5L36.4344 34.4625V36.0625L35.6469 36.025ZM27.5219 31.2125H28.0219V32.05H27.5219V31.2125ZM31.5719 31.25H32.2719V32.05H31.5719V31.25ZM35.6969 31.3125H36.3219V32.075H35.6969V31.3125Z" fill="black"/>
<path id="Vector_25" d="M36.2457 27.7C36.2457 27.7 36.4082 28.175 36.6582 28.2375M27.7832 27.6C28.3332 28.2125 28.3707 28.2125 28.3707 28.2125L27.7832 27.6ZM31.8707 27.5875C31.9582 27.8 32.1332 28.25 32.3457 28.275L31.8707 27.5875Z" stroke="#A8A8A8" stroke-width="0.1375"/>
<path id="Vector_26" fill-rule="evenodd" clip-rule="evenodd" d="M27.2095 25.875C28.8095 25.35 26.8345 24.3125 26.5095 25.875C25.9845 25.95 25.922 26.3375 24.797 26.1625C22.0845 30.5875 24.097 37.7 32.022 45.075C17.822 33 23.597 24.075 27.522 24.4C29.6595 24.55 28.5845 27.2125 27.2095 25.875V25.875Z" fill="#B97700"/>
<path id="Vector_27" d="M30.609 25.0625C30.609 25.0125 31.209 24.9125 31.409 25.2625M27.6465 23.6C27.6465 23.6 28.959 23.95 28.959 24.5125L27.6465 23.6ZM28.959 23.5125C28.959 23.5125 29.859 23.9 30.059 24.2625L28.959 23.5125ZM36.0715 23.6625C36.0715 23.6625 34.9215 23.8 34.6715 24.1625L36.0715 23.6625ZM34.3215 23.75C34.3215 23.75 33.6715 24.3125 33.7215 24.4625L34.3215 23.75ZM34.1715 26.1625C34.0715 26.1125 33.6215 25.5125 33.7215 24.7625L34.1715 26.1625ZM29.759 25.7625C29.759 25.7625 30.059 25.4125 30.059 24.7625L29.759 25.7625ZM31.859 24.5125L31.909 25.9625L31.859 24.5125ZM33.159 25.7625C33.159 25.6625 33.5715 24.7125 33.1215 24.2625L33.159 25.7625ZM30.409 24.0625C30.409 24.0625 30.059 25.0125 30.309 25.8125L30.409 24.0625ZM32.9715 24.9125C32.9715 24.9125 32.4215 25.0625 32.1715 25.3125L32.9715 24.9125Z" stroke="#7D6C00" stroke-width="0.3"/>
<path id="Vector_28" fill-rule="evenodd" clip-rule="evenodd" d="M29.6578 40.25C29.6828 40.25 30.1578 40.1625 30.1578 39.925C30.4078 39.775 30.2203 39.3375 30.2203 39.3375L29.7703 39.25L29.1578 38.55C29.1328 38.3375 29.2078 38.1375 29.0703 37.925C28.6453 38.025 28.4078 38.375 28.2578 38.7875C28.3703 38.9125 28.3828 39.05 28.5703 39.1625C28.7703 39.2 28.9078 39.0875 29.0953 39.125C29.1953 39.2875 29.1703 39.4375 29.1953 39.5875C29.4453 39.775 29.5078 40.025 29.6578 40.25V40.25ZM29.1078 37.2875V36.4625L28.5203 36.45C28.4453 36.575 28.3078 36.625 28.2203 36.7375L27.8203 36.9375C27.9828 37.15 28.1953 37.2625 28.3203 37.3625C28.6328 37.45 28.8703 37.45 29.1078 37.2875V37.2875ZM27.2578 38.5L26.9453 37.9625C27.152 37.905 27.372 37.9182 27.5703 38C27.5703 38 27.7078 38.3375 27.6078 38.4625C27.5578 38.5875 27.2453 38.525 27.2578 38.5ZM32.1328 39.05C32.2253 39.0137 32.3071 38.9545 32.3705 38.878C32.4339 38.8015 32.4768 38.7101 32.4953 38.6125L31.8953 37.925H31.3703C31.2453 37.7875 31.0453 37.7625 30.8828 37.7625C30.8828 37.7625 31.0578 38.0125 31.2703 38.075C31.4328 38.4125 32.0953 39.05 32.1453 39.05H32.1328ZM32.7078 39.1375C32.9634 39.0229 33.2402 38.9633 33.5203 38.9625C33.4953 38.75 33.9078 38.25 33.9078 38.25L34.6578 39.225C34.5203 39.3375 34.2828 39.3 34.0953 39.3375C34.0953 39.3375 33.7328 39.6875 33.6953 39.7C33.6578 39.7125 33.0078 39.8625 32.6953 39.675C32.5453 39.4 32.7203 39.0875 32.7078 39.1375V39.1375ZM33.1328 37.425C33.2203 37.1125 33.2578 36.8 33.1328 36.425C33.1328 36.425 32.2828 36.4 32.2828 36.425L31.7203 36.675C31.7203 36.675 31.9078 37.2375 32.1203 37.175C32.2203 37.475 32.5078 37.4 32.6453 37.5L33.1328 37.425V37.425ZM36.4453 36.575C36.3328 36.925 36.2703 37.3 36.4453 37.65C36.5953 37.675 36.7703 37.775 36.9078 37.75L37.5953 36.525C37.1203 36.375 36.7453 36.3875 36.4453 36.575Z" fill="#C76E2E"/>
<path id="Vector_29" fill-rule="evenodd" clip-rule="evenodd" d="M36.6582 25.75C35.0582 25.25 37.0332 24.2 37.3582 25.75C37.8832 25.8375 37.9457 26.225 39.0707 26.0625C41.7707 30.475 39.7707 37.6 31.8457 44.9625C46.0332 32.8875 40.2707 23.9625 36.3457 24.2875C34.1957 24.4375 35.2832 27.1 36.6582 25.7625V25.75Z" fill="#B97700"/>
<path id="Vector_30" fill-rule="evenodd" clip-rule="evenodd" d="M36.8204 37.95C36.7954 37.95 36.4079 38.2375 36.4079 38.2375L35.8579 38.45L35.2704 38.4625L35.1454 38.0625L35.5954 37.6625C35.2204 37.6 34.8329 37.75 34.5329 38.0375C34.5329 38.0375 34.5329 38.475 34.7829 38.7C34.9685 38.8946 35.1691 39.0744 35.3829 39.2375C35.6704 39.2875 35.9329 39.2375 36.1204 39.1L36.8204 37.95V37.95ZM33.7204 41.975C33.9079 42.025 35.2329 40.275 35.2329 40.275C35.115 39.9603 34.883 39.7014 34.5829 39.55C34.5829 39.55 33.9329 40.3 33.9204 40.5625C33.8204 40.8 33.5329 41.6875 33.6579 41.8C33.6454 41.825 33.5954 42.175 33.7204 41.975V41.975Z" fill="#C76E2E"/>
<path id="Vector_31" fill-rule="evenodd" clip-rule="evenodd" d="M25.0957 42.325C23.1207 40.6 20.4457 39.65 16.7207 40.95C17.7207 41.375 18.8082 41.525 19.7332 41.9875L25.0957 42.325Z" fill="#006800" stroke="#004100" stroke-width="0.3" stroke-linejoin="round"/>
<path id="Vector_32" d="M19.3711 41.1C23.2711 41.175 24.4086 42.15 24.1961 41.9875" stroke="#00A400" stroke-width="0.275" stroke-linecap="round"/>
<path id="Vector_33" fill-rule="evenodd" clip-rule="evenodd" d="M25.1711 42.525C24.0086 42.75 22.3961 43.875 21.9211 43.825C20.6586 43.675 19.4586 43.15 18.2336 42.7625C17.7211 42.6 17.2086 42.7625 16.6836 42.7625C21.0586 40.6875 22.5586 40.975 25.1836 42.5125L25.1711 42.525Z" fill="#006800" stroke="#004100" stroke-width="0.275" stroke-linejoin="round"/>
<path id="Vector_34" fill-rule="evenodd" clip-rule="evenodd" d="M22.2965 39.475C22.2965 39.475 20.834 39.675 20.1715 39.725C19.534 39.675 18.584 39.075 17.5465 37.975C16.9965 37.375 15.759 37.45 15.759 37.45C18.509 36.8625 20.634 37.4125 22.2965 39.475ZM20.2965 36.6375C18.309 36.5125 15.834 34.725 15.2715 32.6125C15.2715 32.65 15.9965 33.075 15.884 33.1875C19.134 34.0125 19.359 34.675 20.309 36.6375H20.2965ZM23.634 40.05C23.9215 38.25 24.009 37.05 23.134 35.9875C22.4465 35.175 22.259 34.6875 21.759 33.55C21.6215 35.925 21.109 37.875 23.634 40.05ZM20.509 35.05C21.984 32.9 22.234 31.275 22.009 28.725C21.8523 29.2255 21.6601 29.7143 21.434 30.1875C19.2465 31.5625 20.2215 33.7125 20.509 35.0625V35.05Z" fill="#006800" stroke="#004100" stroke-width="0.3" stroke-linejoin="round"/>
<path id="Vector_35" fill-rule="evenodd" clip-rule="evenodd" d="M19.2092 24.6625C20.6842 26.8125 20.4592 28.8375 20.2217 31.4C20.0688 30.8999 19.8809 30.4112 19.6592 29.9375C17.4592 28.5625 18.9217 26 19.2092 24.6625Z" fill="#006800" stroke="#004100" stroke-width="0.3" stroke-linejoin="round"/>
<path id="Vector_36" fill-rule="evenodd" clip-rule="evenodd" d="M20.4219 28C23.9969 26.1875 22.6219 23.9 23.2719 22.1375C20.7969 23.9875 20.4719 25.95 20.4219 27.9875V28Z" fill="#006800" stroke="#004100" stroke-width="0.3" stroke-linejoin="round"/>
<path id="Vector_37" d="M19.8582 30.1875C19.7707 29.2875 19.3332 26.8875 19.2832 26.65M20.9082 27.5375C21.3582 26.2875 22.2457 24.1375 22.3332 24.1375L20.9082 27.5375Z" stroke="#00A400" stroke-width="0.275" stroke-linecap="round"/>
<path id="Vector_38" fill-rule="evenodd" clip-rule="evenodd" d="M20.0211 34.2C18.0211 34.075 15.8836 31.3625 15.3086 29.25C15.3086 29.275 16.0461 29.7 15.9211 29.8125C18.7711 31.0875 19.0711 32.2375 20.0211 34.1875V34.2ZM19.4336 32.325C17.9586 30.175 17.6961 28.55 17.9336 26C17.9711 26.2 18.4586 27.4625 18.4961 27.4625C20.6836 28.8375 19.7086 30.9875 19.4336 32.3375V32.325ZM20.7461 28.5625C24.4461 26.925 23.3086 25.2 24.4086 23.4C21.9336 25.2375 20.7836 26.525 20.7461 28.5625V28.5625Z" fill="#006800" stroke="#004100" stroke-width="0.3" stroke-linejoin="round"/>
<path id="Vector_39" d="M20.9082 28.1875C22.4082 26.6875 22.9457 25.4375 22.9457 25.4375" stroke="#00A400" stroke-width="0.275" stroke-linecap="round"/>
<g id="Group_3">
<path id="Vector_40" fill-rule="evenodd" clip-rule="evenodd" d="M34.0453 48.85L35.8453 48.8875C29.8828 43.2875 18.4328 40.85 20.0328 30.5625C18.3703 41.725 29.3703 42.75 34.0453 48.85Z" fill="#FFE100" stroke="#E9BF00" stroke-width="0.3"/>
<path id="Vector_41" fill-rule="evenodd" clip-rule="evenodd" d="M20.9707 28.35C20.9707 28.4255 20.9558 28.5003 20.9269 28.57C20.898 28.6398 20.8557 28.7032 20.8023 28.7566C20.7489 28.81 20.6855 28.8523 20.6157 28.8812C20.546 28.9101 20.4712 28.925 20.3957 28.925C20.3202 28.925 20.2454 28.9101 20.1757 28.8812C20.1059 28.8523 20.0425 28.81 19.9891 28.7566C19.9357 28.7032 19.8934 28.6398 19.8645 28.57C19.8356 28.5003 19.8207 28.4255 19.8207 28.35C19.8207 28.1975 19.8813 28.0512 19.9891 27.9434C20.097 27.8356 20.2432 27.775 20.3957 27.775C20.5482 27.775 20.6945 27.8356 20.8023 27.9434C20.9101 28.0512 20.9707 28.1975 20.9707 28.35ZM20.6207 31.5C20.6207 31.6442 20.5634 31.7825 20.4614 31.8845C20.3595 31.9865 20.2212 32.0437 20.077 32.0437C19.9327 32.0437 19.7944 31.9865 19.6925 31.8845C19.5905 31.7825 19.5332 31.6442 19.5332 31.5C19.5332 31.3558 19.5905 31.2175 19.6925 31.1155C19.7944 31.0135 19.9327 30.9562 20.077 30.9562C20.2212 30.9562 20.3595 31.0135 20.4614 31.1155C20.5634 31.2175 20.6207 31.3558 20.6207 31.5ZM21.1207 36C21.1207 36.126 21.0707 36.2468 20.9816 36.3359C20.8925 36.425 20.7717 36.475 20.6457 36.475C20.5197 36.475 20.3989 36.425 20.3098 36.3359C20.2207 36.2468 20.1707 36.126 20.1707 36C20.1707 35.874 20.2207 35.7532 20.3098 35.6641C20.3989 35.575 20.5197 35.525 20.6457 35.525C20.7717 35.525 20.8925 35.575 20.9816 35.6641C21.0707 35.7532 21.1207 35.874 21.1207 36V36ZM25.2957 40.9625C25.2957 41.0901 25.245 41.2125 25.1547 41.3028C25.0645 41.393 24.9421 41.4437 24.8145 41.4437C24.6868 41.4437 24.5644 41.393 24.4742 41.3028C24.3839 41.2125 24.3332 41.0901 24.3332 40.9625C24.3332 40.8349 24.3839 40.7124 24.4742 40.6222C24.5644 40.5319 24.6868 40.4812 24.8145 40.4812C24.9421 40.4812 25.0645 40.5319 25.1547 40.6222C25.245 40.7124 25.2957 40.8349 25.2957 40.9625ZM25.8957 42.3875C25.8957 42.5135 25.8457 42.6343 25.7566 42.7234C25.6675 42.8125 25.5467 42.8625 25.4207 42.8625C25.2947 42.8625 25.1739 42.8125 25.0848 42.7234C24.9957 42.6343 24.9457 42.5135 24.9457 42.3875C24.9457 42.2615 24.9957 42.1407 25.0848 42.0516C25.1739 41.9625 25.2947 41.9125 25.4207 41.9125C25.5467 41.9125 25.6675 41.9625 25.7566 42.0516C25.8457 42.1407 25.8957 42.2615 25.8957 42.3875V42.3875Z" fill="#9D4916" stroke="#68300E" stroke-width="0.1375"/>
</g>
<g id="Group_4">
<g id="Group_5">
<path id="Vector_42" fill-rule="evenodd" clip-rule="evenodd" d="M27.9977 46.5375C27.7299 46.3333 27.5154 46.0675 27.3727 45.7625L25.4977 45.55L25.4727 46.625L28.0102 46.5375H27.9977Z" fill="#F5F5F5" stroke="black" stroke-width="0.1375"/>
<path id="Vector_43" fill-rule="evenodd" clip-rule="evenodd" d="M14.284 45.275C15.3715 45.475 17.009 45.175 17.5465 45.875C18.1965 46.6 15.5465 47.725 15.9215 48.35C16.734 49.225 17.584 48.8625 18.4965 48.3875C18.7215 47.9125 18.884 47.075 18.9965 46.825C18.6715 46.0625 17.7715 45.6875 17.9965 44.525C19.5215 43.95 22.434 44 22.7465 44.225C22.9965 44.7 22.7715 44.925 22.8215 45.3125C22.5715 45.7875 21.9215 46.6125 21.9215 47.0625C23.509 47.6125 23.9215 46.9625 25.359 47C27.034 47.025 28.059 47.475 28.4215 46.8125C28.1715 46.2375 26.634 46.7 26.0465 46.325C25.759 46.225 25.5715 46 25.3215 45.7375C25.0715 45.475 24.359 45.4625 24.2465 44.825C24.5465 43.4625 26.509 43.675 26.834 43.4625L31.959 43.8125C32.884 43.7875 33.409 45.4625 32.159 45.9625C30.909 46.4625 27.1965 45.2125 25.5965 46.0875C25.509 45.725 24.3465 45.2 24.2715 45.175C23.7715 45.325 22.8215 45.275 22.8215 45.275C22.584 45.7125 22.3215 46.025 22.084 46.4625C21.0215 46 20.0215 46.825 18.859 46.5875L17.0465 46.775L15.8965 46.675L14.1465 47.175L15.3965 46.075L14.284 45.275V45.275Z" fill="#F5F5F5" stroke="black" stroke-width="0.1375" stroke-linejoin="round"/>
<path id="Vector_44" fill-rule="evenodd" clip-rule="evenodd" d="M14.2094 45.0625C14.2206 45.1322 14.2166 45.2035 14.1976 45.2715C14.1786 45.3395 14.1451 45.4026 14.0993 45.4563C14.0536 45.5101 13.9967 45.5532 13.9326 45.5829C13.8685 45.6125 13.7987 45.6278 13.7281 45.6278C13.6575 45.6278 13.5878 45.6125 13.5237 45.5829C13.4596 45.5532 13.4027 45.5101 13.3569 45.4563C13.3112 45.4026 13.2776 45.3395 13.2586 45.2715C13.2396 45.2035 13.2356 45.1322 13.2469 45.0625C13.2654 44.9482 13.3239 44.8442 13.4121 44.7691C13.5003 44.694 13.6123 44.6528 13.7281 44.6528C13.8439 44.6528 13.956 44.694 14.0441 44.7691C14.1323 44.8442 14.1909 44.9482 14.2094 45.0625V45.0625ZM14.0844 47.45C14.0844 47.5793 14.033 47.7033 13.9416 47.7947C13.8502 47.8861 13.7262 47.9375 13.5969 47.9375C13.4676 47.9375 13.3436 47.8861 13.2522 47.7947C13.1607 47.7033 13.1094 47.5793 13.1094 47.45C13.1094 47.3207 13.1607 47.1967 13.2522 47.1053C13.3436 47.0139 13.4676 46.9625 13.5969 46.9625C13.7262 46.9625 13.8502 47.0139 13.9416 47.1053C14.033 47.1967 14.0844 47.3207 14.0844 47.45V47.45Z" fill="#F5F5F5" stroke="black" stroke-width="0.1375"/>
</g>
<g id="Group_6">
<path id="Vector_45" fill-rule="evenodd" clip-rule="evenodd" d="M35.748 46.55C36.0605 46.2625 36.248 46.075 36.373 45.7625L38.248 45.5625L38.2855 46.6375L35.748 46.55Z" fill="#F5F5F5" stroke="black" stroke-width="0.1375"/>
<path id="Vector_46" fill-rule="evenodd" clip-rule="evenodd" d="M49.4603 45.2875C48.3728 45.4875 46.7353 45.1875 46.2103 45.8875C45.5603 46.6125 48.2103 47.7375 47.8353 48.3625C47.0103 49.2375 46.1728 48.875 45.2478 48.4C45.0353 47.925 44.8728 47.0875 44.7478 46.8375C45.0853 46.075 45.9853 45.6875 45.7478 44.525C44.2353 43.9625 41.3228 44.0125 40.9978 44.225C40.7478 44.7125 40.9853 44.9375 40.9353 45.3125C41.1853 45.8125 41.8228 46.625 41.8228 47.0625C40.2353 47.625 39.8228 46.975 38.3853 47.0125C36.7103 47.0375 35.6853 47.4875 35.3228 46.8125C35.5728 46.2375 37.1103 46.7125 37.6978 46.3375C37.9853 46.2375 38.1728 46 38.4353 45.75C38.6978 45.5 39.3978 45.475 39.4978 44.8375C39.1978 43.475 37.2353 43.6875 36.9103 43.475L31.7853 43.825C30.8603 43.8 30.3478 45.475 31.5978 45.975C32.8478 46.475 36.5478 45.225 38.1603 46.0875C38.2478 45.7375 39.3978 45.2125 39.4853 45.1875C39.9728 45.3375 40.9353 45.2875 40.9353 45.2875C41.1603 45.7125 41.4353 46.0375 41.6728 46.475C42.7353 46 43.7353 46.8375 44.8978 46.6L46.6978 46.7875L47.8603 46.6875L49.6103 47.1875L48.3603 46.0875L49.4603 45.2875V45.2875Z" fill="#F5F5F5" stroke="black" stroke-width="0.1375" stroke-linejoin="round"/>
<path id="Vector_47" fill-rule="evenodd" clip-rule="evenodd" d="M49.5477 45.0625C49.5364 45.1322 49.5404 45.2035 49.5594 45.2715C49.5784 45.3395 49.6119 45.4025 49.6577 45.4563C49.7035 45.5101 49.7604 45.5532 49.8245 45.5828C49.8885 45.6125 49.9583 45.6278 50.0289 45.6278C50.0995 45.6278 50.1693 45.6125 50.2334 45.5828C50.2975 45.5532 50.3544 45.5101 50.4001 45.4563C50.4459 45.4025 50.4794 45.3395 50.4984 45.2715C50.5174 45.2035 50.5214 45.1322 50.5102 45.0625C50.5102 44.9332 50.4588 44.8092 50.3674 44.7178C50.2759 44.6263 50.152 44.575 50.0227 44.575C49.8934 44.575 49.7694 44.6263 49.6779 44.7178C49.5865 44.8092 49.5352 44.9332 49.5352 45.0625H49.5477ZM49.6727 47.4625C49.6614 47.5322 49.6654 47.6035 49.6844 47.6715C49.7034 47.7395 49.7369 47.8025 49.7827 47.8563C49.8285 47.9101 49.8854 47.9532 49.9495 47.9828C50.0135 48.0125 50.0833 48.0278 50.1539 48.0278C50.2245 48.0278 50.2943 48.0125 50.3584 47.9828C50.4225 47.9532 50.4794 47.9101 50.5251 47.8563C50.5709 47.8025 50.6044 47.7395 50.6234 47.6715C50.6424 47.6035 50.6464 47.5322 50.6352 47.4625C50.6167 47.3482 50.5581 47.2442 50.4699 47.1691C50.3817 47.094 50.2697 47.0528 50.1539 47.0528C50.0381 47.0528 49.9261 47.094 49.8379 47.1691C49.7497 47.2442 49.6911 47.3482 49.6727 47.4625V47.4625Z" fill="#F5F5F5" stroke="black" stroke-width="0.1375"/>
</g>
<path id="Vector_48" fill-rule="evenodd" clip-rule="evenodd" d="M31.8477 43.9125C31.4102 43.825 31.2602 43.85 30.9727 43.825L30.2852 45.9375C31.3352 46.025 32.3227 46.025 32.3227 46.025C31.6852 45.9 31.8352 43.925 31.8477 43.9V43.9125Z" fill="#F5F5F5"/>
</g>
<g id="Group_7">
<path id="L" d="M27.371 45.3659V43.9361H27.6248V45.1405H28.2708V45.3659H27.371Z" fill="black"/>
<path id="I" d="M28.4872 45.4326V44.0028H28.741V45.4326H28.4872Z" fill="black"/>
<path id="B" d="M29.6071 45.5436H29.1698V44.1148C29.3624 44.1057 29.4974 44.1011 29.5749 44.1011C29.7232 44.1011 29.839 44.133 29.9223 44.1968C30.0062 44.2599 30.0482 44.3503 30.0482 44.4681C30.0482 44.5813 29.9883 44.6708 29.8686 44.7365C30.0463 44.7983 30.1351 44.9258 30.1351 45.1191C30.1351 45.2492 30.0859 45.3526 29.9877 45.4294C29.8894 45.5055 29.7626 45.5436 29.6071 45.5436ZM29.4236 44.3178V44.6604C29.4626 44.663 29.5036 44.6643 29.5466 44.6643C29.7118 44.6643 29.7945 44.6021 29.7945 44.4778C29.7945 44.3679 29.7193 44.3129 29.569 44.3129C29.5293 44.3129 29.4808 44.3145 29.4236 44.3178ZM29.4236 44.8585V45.3308C29.475 45.3354 29.5166 45.3377 29.5485 45.3377C29.6617 45.3377 29.7437 45.3185 29.7945 45.2801C29.8459 45.2417 29.8716 45.1779 29.8716 45.0888C29.8716 45.0075 29.8478 44.9483 29.8003 44.9112C29.7528 44.8741 29.6699 44.8556 29.5514 44.8556C29.5267 44.8556 29.4841 44.8565 29.4236 44.8585Z" fill="black"/>
<path id="E" d="M30.7341 44.4281V44.7629H31.2065V44.9785H30.7341V45.407H31.3822V45.6324H30.4804V44.2026H31.3929V44.4281H30.7341Z" fill="black"/>
<path id="R" d="M32.5522 45.6547L32.1706 45.0642C32.1322 45.0636 32.0785 45.0613 32.0095 45.0574V45.6547H31.746V44.2249C31.7603 44.2249 31.8153 44.2226 31.9109 44.218C32.0066 44.2128 32.0837 44.2102 32.1422 44.2102C32.5053 44.2102 32.6868 44.3508 32.6868 44.6318C32.6868 44.7164 32.6618 44.7935 32.6117 44.8632C32.5616 44.9328 32.4985 44.9819 32.4224 45.0105L32.8449 45.6547H32.5522ZM32.0095 44.4454V44.8427C32.0564 44.8466 32.0921 44.8485 32.1169 44.8485C32.2229 44.8485 32.3004 44.8335 32.3492 44.8036C32.3986 44.7737 32.4233 44.7155 32.4233 44.6289C32.4233 44.5586 32.397 44.5095 32.3443 44.4815C32.2916 44.4536 32.2086 44.4396 32.0954 44.4396C32.0681 44.4396 32.0394 44.4415 32.0095 44.4454Z" fill="black"/>
<path id="T" d="M33.5718 44.4059V45.6102H33.3181V44.4059H32.8633V44.1804H34.0471V44.4059H33.5718Z" fill="black"/>
<path id="A" d="M35.0238 45.4103L34.9194 45.1205H34.4295L34.3299 45.4103H34.0478L34.6178 43.961H34.7291L35.3039 45.4103H35.0238ZM34.6734 44.3983L34.5017 44.9263H34.8452L34.6734 44.3983Z" fill="black"/>
<path id="S" d="M35.498 45.2869L35.5917 45.0595C35.6919 45.1298 35.7905 45.1649 35.8874 45.1649C36.0364 45.1649 36.1109 45.1128 36.1109 45.0087C36.1109 44.9599 36.0933 44.9134 36.0582 44.8692C36.0231 44.8249 35.9505 44.7755 35.8406 44.7208C35.7313 44.6655 35.6574 44.6203 35.619 44.5852C35.5813 44.5494 35.552 44.5071 35.5312 44.4583C35.511 44.4095 35.5009 44.3555 35.5009 44.2963C35.5009 44.1857 35.5413 44.0939 35.6219 44.021C35.7033 43.9482 35.8074 43.9117 35.9343 43.9117C36.0995 43.9117 36.2209 43.9426 36.2983 44.0045L36.2212 44.2231C36.1321 44.1593 36.038 44.1274 35.9391 44.1274C35.8806 44.1274 35.835 44.143 35.8025 44.1743C35.7706 44.2049 35.7547 44.2449 35.7547 44.2943C35.7547 44.3763 35.8454 44.4615 36.027 44.55C36.1226 44.5969 36.1916 44.6401 36.2339 44.6798C36.2762 44.7189 36.3084 44.7647 36.3305 44.8174C36.3526 44.8695 36.3637 44.9277 36.3637 44.9921C36.3637 45.108 36.3178 45.2033 36.2261 45.2781C36.135 45.3529 36.0127 45.3903 35.8591 45.3903C35.7257 45.3903 35.6054 45.3559 35.498 45.2869Z" fill="black"/>
</g>
<path id="Vector_49" d="M18.5219 28.5125C19.3719 29.125 19.3719 31.3125 19.3719 31.3125M20.4219 42.475C21.7719 42.6375 23.6344 42.525 24.4469 42.475H20.4219ZM18.3969 37.8875C19.5219 38.7875 22.0094 39.3125 21.9719 39.3125L18.3969 37.8875ZM23.3844 39.5625C23.0219 37.6875 22.6219 37.25 22.2969 36.0625L23.3844 39.5625ZM16.4844 33.95C18.3969 34.8125 18.6844 35.375 19.8969 36.225L16.4844 33.95ZM20.5844 34.35C20.7469 32.05 21.0844 31.4375 21.6469 30.9125L20.5844 34.35ZM16.4844 30.625C17.4632 31.6873 18.4507 32.7415 19.4469 33.7875L16.4844 30.625Z" stroke="#00A400" stroke-width="0.275" stroke-linecap="round"/>
</g>
</g>
<defs>
<clipPath id="clip0_2909_185286">
<path d="M0.246094 32C0.246094 14.3269 14.573 0 32.2461 0V0C49.9192 0 64.2461 14.3269 64.2461 32V32C64.2461 49.6731 49.9192 64 32.2461 64V64C14.573 64 0.246094 49.6731 0.246094 32V32Z" fill="white"/>
</clipPath>
</defs>
</svg>
