<svg width="65" height="64" viewBox="0 0 65 64" fill="none" xmlns="http://www.w3.org/2000/svg">
<g id="Rounded=South Sudan (SS)">
<g clip-path="url(#clip0_2909_185283)">
<path id="Vector" d="M0.246094 44.8H64.2461V64H0.246094V44.8Z" fill="#078930"/>
<path id="Vector_2" d="M0.246094 19.2H64.2461V44.8H0.246094V19.2Z" fill="#F5F5F5"/>
<path id="Vector_3" d="M0.246094 0H64.2461V19.2H0.246094V0Z" fill="black"/>
<path id="Vector_4" d="M0.246094 22.4H64.2461V41.6H0.246094V22.4Z" fill="#DA121A"/>
<path id="Vector_5" d="M0.246094 0L54.3711 32L0.246094 64V0Z" fill="#0F47AF"/>
<path id="Vector_6" d="M26.3719 25.975L8.29688 32L26.3969 38.0125L15.2094 22.2625V41.7375L26.3719 25.975Z" fill="#FCDD09"/>
</g>
</g>
<defs>
<clipPath id="clip0_2909_185283">
<path d="M0.246094 32C0.246094 14.3269 14.573 0 32.2461 0V0C49.9192 0 64.2461 14.3269 64.2461 32V32C64.2461 49.6731 49.9192 64 32.2461 64V64C14.573 64 0.246094 49.6731 0.246094 32V32Z" fill="white"/>
</clipPath>
</defs>
</svg>
