<svg width="65" height="64" viewBox="0 0 65 64" fill="none" xmlns="http://www.w3.org/2000/svg">
<g id="Rounded=Sao Tome and Principe (ST)">
<g clip-path="url(#clip0_2909_185282)">
<path id="Vector" d="M0.246094 0H64.2461V64H0.246094V0Z" fill="#12AD2B"/>
<path id="Vector_2" d="M0.246094 18.2875H64.2461V45.7125H0.246094V18.2875Z" fill="#FFCE00"/>
<path id="Vector_3" d="M0.246094 0V64L24.2461 32" fill="#D21034"/>
<g id="c">
<g id="b">
<path id="a" d="M34.8594 24.3958L32.2971 32.2817L36.24 33.5628" fill="black"/>
<path id="Vector_4" d="M34.8594 24.3958L37.4217 32.2817L33.4787 33.5628" fill="black"/>
</g>
<g id="Group">
<path id="a_2" d="M42.7441 30.1252H34.4524V34.2711" fill="black"/>
<path id="Vector_5" d="M42.7441 30.1252L36.036 34.999L33.5991 31.6449" fill="black"/>
</g>
<g id="Group_2">
<path id="a_3" d="M39.7324 39.3957L37.1701 31.5098L33.2272 32.7909" fill="black"/>
<path id="Vector_6" d="M39.7324 39.3957L33.0243 34.5219L35.4611 31.1678" fill="black"/>
</g>
<g id="Group_3">
<path id="a_4" d="M29.9844 39.3957L36.6925 34.5219L34.2557 31.1678" fill="black"/>
<path id="Vector_7" d="M29.9844 39.3957L32.5467 31.5097L36.4896 32.7909" fill="black"/>
</g>
<g id="Group_4">
<path id="a_5" d="M26.9727 30.1252L33.6808 34.999L36.1177 31.6449" fill="black"/>
<path id="Vector_8" d="M26.9727 30.1252H35.2644V34.2711" fill="black"/>
</g>
</g>
</g>
</g>
<defs>
<clipPath id="clip0_2909_185282">
<path d="M0.246094 32C0.246094 14.3269 14.573 0 32.2461 0V0C49.9192 0 64.2461 14.3269 64.2461 32V32C64.2461 49.6731 49.9192 64 32.2461 64V64C14.573 64 0.246094 49.6731 0.246094 32V32Z" fill="white"/>
</clipPath>
</defs>
</svg>
