<svg width="65" height="64" viewBox="0 0 65 64" fill="none" xmlns="http://www.w3.org/2000/svg">
<g id="Rounded=Sint Maarten (SX)">
<g clip-path="url(#clip0_2909_185281)">
<g id="Group">
<path id="Vector" fill-rule="evenodd" clip-rule="evenodd" d="M0.246094 0H96.248V32.0006H42.9136L0.246094 0Z" fill="#ED2939"/>
<path id="Vector_2" fill-rule="evenodd" clip-rule="evenodd" d="M0.246094 64.0012H96.248V32.0006H42.9136L0.246094 64.0012Z" fill="#002395"/>
<path id="Vector_3" fill-rule="evenodd" clip-rule="evenodd" d="M0.246094 0L42.9136 32.0006L0.246094 64.0012V0Z" fill="#F5F5F5"/>
<path id="Vector_4" d="M21.7785 24.1498L21.7927 23.6662C21.7927 23.6662 21.5225 23.2396 21.8354 22.7844C21.8354 22.7844 21.1812 22.4289 21.3376 21.8884C21.3376 21.8884 20.7403 21.7462 20.7829 21.092C20.7829 21.092 20.1429 21.0493 20.0718 20.4946C20.0718 20.4946 19.4318 20.6084 19.1616 20.0679C19.1616 20.0679 18.5358 20.196 18.3509 19.7551C18.3509 19.7551 17.7535 19.9684 17.3838 19.4564C17.3838 19.4564 16.7437 19.7124 16.4735 19.2288C16.2175 19.7124 15.5775 19.4564 15.5775 19.4564C15.2219 19.9684 14.6104 19.7408 14.6104 19.7408C14.4397 20.196 13.8139 20.0679 13.8139 20.0679C13.5295 20.5942 12.8894 20.4946 12.8894 20.4946C12.8326 21.0351 12.1783 21.0777 12.1783 21.0777C12.1995 21.2531 12.1584 21.4304 12.0622 21.5785C11.966 21.7267 11.8209 21.8364 11.6521 21.8884C11.7943 22.4289 11.1543 22.7702 11.1543 22.7702C11.4672 23.2253 11.197 23.652 11.197 23.652V24.1071L21.7785 24.1498Z" fill="#FFFF00"/>
<path id="Vector_5" d="M21.7826 24.1553V23.6539C21.7826 23.6539 21.5247 23.224 21.84 22.7942C21.84 22.7942 21.1808 22.436 21.3384 21.8916C21.3384 21.8916 20.7366 21.7483 20.7796 21.0892C20.7796 21.0892 20.1348 21.0462 20.0631 20.5018C20.0631 20.5018 19.4326 20.6021 19.1604 20.0719C19.1604 20.0719 18.5299 20.1866 18.358 19.7567C18.358 19.7567 17.7418 19.9716 17.3836 19.4558C17.3836 19.4558 16.7388 19.7137 16.4808 19.2266C16.2086 19.7137 15.5638 19.4558 15.5638 19.4558C15.2199 19.9573 14.6037 19.7424 14.6037 19.7424C14.4318 20.1865 13.8156 20.0719 13.8156 20.0719C13.529 20.6021 12.8842 20.5018 12.8842 20.5018C12.8269 21.0319 12.1821 21.0749 12.1821 21.0749C12.2058 21.2501 12.1651 21.428 12.0676 21.5755C11.9701 21.7231 11.8224 21.8303 11.6519 21.8772C11.7952 22.4217 11.1504 22.7655 11.1504 22.7655C11.4656 23.224 11.1934 23.6539 11.1934 23.6539V24.1124L21.7826 24.1553V24.1553Z" stroke="black" stroke-width="0.0429854"/>
<path id="Vector_6" d="M21.5376 23.5382C19.8735 23.3676 17.9535 22.9693 16.4743 23.8085C15.4788 23.2253 14.0992 23.2538 12.9187 23.3818C12.2929 23.4813 11.5391 23.4813 10.8707 23.5951L10.7711 23.6094C9.54799 23.6947 8.45286 23.3249 7.40039 22.8698C7.74173 24.7614 8.11152 26.7099 8.29641 28.701C8.69464 31.6308 6.9026 34.1056 7.62795 37.0069C8.06885 38.4008 9.60488 39.2114 11.0129 39.3679C12.3622 39.4562 13.703 39.6464 15.0237 39.9368C15.2629 39.9956 15.4962 40.0766 15.7206 40.1786C16.0265 40.3113 16.3024 40.5048 16.5312 40.7475C17.2993 39.9652 18.4086 39.7519 19.518 39.6381C21.4807 39.3963 23.9269 39.5243 25.1358 37.7323V37.6327C25.7901 36.6372 25.7047 35.1296 25.4203 34.006C25.3919 33.622 25.2923 33.2807 25.2354 32.8966C24.0265 29.7108 25.0647 26.1267 25.5767 22.9124C24.951 23.2538 24.2398 23.4245 23.5287 23.5951C22.9598 23.6662 22.3482 23.6378 21.7651 23.5951L21.5376 23.5382" fill="#FF0000"/>
<path id="Vector_7" d="M24.0263 32.6975C24.0121 32.9109 24.1259 33.0673 24.1685 33.2664C24.3961 34.6602 24.6237 36.5092 23.173 37.3767C21.6085 38.3723 19.5178 37.9456 17.6831 38.4861C17.3133 38.5857 16.8013 38.9128 16.5453 39.1546C16.3746 39.055 16.2182 38.8843 16.0048 38.7848C14.483 37.9883 12.5203 38.2443 10.8136 37.8176C9.96026 37.5332 9.06425 36.879 8.83669 35.9972C8.28201 33.6931 9.61892 31.7304 9.46248 29.4548C9.35328 27.7462 9.08666 26.0512 8.66602 24.3916C10.0443 24.9935 11.578 25.1429 13.0465 24.8183C14.1559 24.6761 15.4644 24.6761 16.4884 25.1312C17.0869 24.9041 17.7138 24.7605 18.3515 24.7045C19.532 24.8183 20.7978 25.0316 22.0067 25.0316C22.7865 24.9746 23.5487 24.772 24.2539 24.4343C23.8272 27.1365 23.0307 29.981 24.0121 32.6833" fill="#80CFE1"/>
<path id="Vector_8" d="M21.6226 33.238L21.6083 30.6922H21.9212L18.0243 28.1748V26.8805H18.394L16.4456 25.4867L14.5113 26.8805H14.8811V28.1748L11.041 30.6922H11.3255L11.3539 33.2238H21.5941" fill="#F5F5F5"/>
<path id="Vector_9" d="M21.612 33.2391V30.6888H21.9129L18.0441 28.1814L18.0297 26.8919H18.4023L16.4535 25.4878L14.5191 26.8776H14.8917L14.906 28.1814L11.0371 30.6888H11.3523V33.2248H21.612V33.2391Z" stroke="black" stroke-width="0.171941"/>
<path id="Vector_10" d="M22.8166 36.566V37.3625H10.3008V36.5518H22.8166" fill="#F5F5F5"/>
<path id="Vector_11" d="M22.8147 36.5775V37.3655H10.291V36.5632H22.8147V36.5775Z" stroke="black" stroke-width="0.171941"/>
<path id="Vector_12" d="M11.1254 36.5234V33.8211H11.6232L11.5948 36.5518L11.6232 33.8495L10.9121 33.8353V33.2664H22.091V33.8353H21.3941L21.4083 36.566L21.3941 33.8353H21.9061V36.5376" fill="#F5F5F5"/>
<path id="Vector_13" d="M11.1231 36.5202V33.8266H11.6247L11.596 36.5488L11.6247 33.8552L10.9082 33.8266V33.2534L22.085 33.2678V33.8409H21.3972L21.4115 36.5632L21.3828 33.8409H21.8987L21.913 36.5345" stroke="black" stroke-width="0.171941"/>
<path id="Vector_14" d="M13.5287 35.8611V33.9842H12.0098V35.8468L13.5143 35.8611" stroke="black" stroke-width="0.171941"/>
<path id="Vector_15" d="M12.4401 34.371V35.4599H13.1279V34.371H12.4258H12.4401ZM20.88 35.8611L20.8657 33.9985H19.3754V35.8611H20.88Z" stroke="black" stroke-width="0.171941"/>
<path id="Vector_16" d="M19.7769 34.3853V35.4742H20.4647V34.3853H19.7769ZM20.8659 32.8093V30.9467H19.3613V32.8093H20.8659Z" stroke="black" stroke-width="0.171941"/>
<path id="Vector_17" d="M19.7618 31.3335V32.4225H20.4496V31.3335H19.7618ZM13.5143 32.8093V30.9324H12.0098V32.795H13.5143V32.8093Z" stroke="black" stroke-width="0.171941"/>
<path id="Vector_18" d="M16.2373 32.8093V30.9324H14.7328V32.795H16.2373M12.4258 31.3192V32.4081H13.1136V31.3192H12.4258Z" stroke="black" stroke-width="0.171941"/>
<path id="Vector_19" d="M15.1348 31.3192V32.4081H15.8226V31.3192H15.1348ZM18.3302 32.8093V30.9467L16.8256 30.9324V32.795L18.3302 32.8093Z" stroke="black" stroke-width="0.171941"/>
<path id="Vector_20" d="M17.2266 31.3192V32.4081H17.9287V31.3192H17.2266Z" stroke="black" stroke-width="0.171941"/>
<path id="Vector_21" d="M18.707 32.2424L18.7212 36.566H14.3834L14.3691 32.2282H18.707" fill="#F5F5F5"/>
<path id="Vector_22" d="M18.7032 32.2362L18.7175 36.5632H14.3758L14.3614 32.2362H18.7032ZM14.3328 33.4684H18.7175H14.3328ZM14.8773 36.5632V33.497V36.5632ZM18.1873 36.5632V33.5114V36.5632ZM20.2937 30.3879L17.8577 28.6113H15.0922L12.6562 30.3879H20.2937ZM15.3071 27.1212V28.2101H17.6285V27.1212H15.3071Z" stroke="black" stroke-width="0.171941"/>
<path id="Vector_23" d="M16.453 25.8604L17.7427 26.7773H15.1777L16.4674 25.8604M15.9372 27.3934V27.9379H16.9975V27.3934H15.9372Z" stroke="black" stroke-width="0.171941"/>
<path id="Vector_24" d="M21.6654 25.2592C22.0352 25.2592 22.1205 26.7667 22.1205 27.5205C22.629 27.7185 23.0825 28.0356 23.4432 28.445H19.916C20.2686 28.0392 20.7121 27.7225 21.2103 27.5205C21.2103 26.7667 21.2956 25.2449 21.6654 25.2592" fill="#F5F5F5"/>
<path id="Vector_25" d="M21.6535 25.2586C22.026 25.2586 22.112 26.763 22.112 27.5224C22.4273 27.6083 23.1294 28.0525 23.4303 28.4393H19.9053C20.2062 28.0525 20.9084 27.6083 21.2093 27.5224C21.2093 26.763 21.2953 25.2586 21.6535 25.2586ZM14.5605 32.3508H14.8758L14.7898 32.5227C14.7898 32.5227 14.9331 32.7233 14.7898 32.9526L14.8758 33.0959H14.5605L14.6465 32.9526C14.6465 32.9526 14.5032 32.6947 14.6465 32.5227L14.5605 32.3508ZM15.2054 32.3508H15.5206L15.4346 32.5227C15.4346 32.5227 15.5779 32.7233 15.4346 32.9526L15.5206 33.0959H15.2054L15.2913 32.9526C15.2913 32.9526 15.148 32.6947 15.2913 32.5227L15.2054 32.3508ZM15.9218 32.3508H16.2227L16.1368 32.5227C16.1368 32.5227 16.28 32.7233 16.1368 32.9526L16.2227 33.0959H15.9218L15.9935 32.9526C15.9935 32.9526 15.8502 32.6947 15.9935 32.5227L15.9075 32.3508H15.9218ZM16.7099 32.3508H17.0252L16.9249 32.5371C16.9249 32.5371 17.0825 32.7233 16.9249 32.9526L17.0108 33.0959H16.7099L16.7959 32.9526C16.7959 32.9526 16.6526 32.6947 16.7959 32.5227L16.7099 32.3651V32.3508ZM17.4121 32.3508H17.7273L17.627 32.5371C17.627 32.5371 17.7846 32.7233 17.627 32.9526L17.713 33.0959H17.4264L17.498 32.9526C17.498 32.9526 17.3547 32.6947 17.498 32.5227L17.4121 32.3651V32.3508ZM18.1142 32.3651H18.4294L18.3291 32.5371C18.3291 32.5371 18.4867 32.7233 18.3291 32.9526L18.4151 33.0959H18.1285L18.2002 32.9526C18.2002 32.9526 18.0569 32.6947 18.2002 32.5227L18.1142 32.3651Z" stroke="black" stroke-width="0.171941"/>
<path id="Vector_26" d="M16.5587 42.0986C18.1137 42.1393 19.6612 41.8685 21.1099 41.3021L23.1864 41.1173L23.2149 43.6204C21.4797 44.5875 17.4547 44.8009 16.5587 44.7867C15.6769 44.7867 11.5951 44.5875 9.8457 43.6204L9.87415 41.103L11.9364 41.2879C13.4103 41.8557 14.9794 42.1357 16.5587 42.1128" fill="#FFFF00"/>
<path id="Vector_27" d="M16.5524 42.108C18.1859 42.108 20.1777 41.7785 21.1234 41.2913L23.1725 41.1194L23.2155 43.6268C21.4816 44.5867 17.4408 44.8016 16.5667 44.7873C15.6783 44.7873 11.5945 44.5867 9.83203 43.6124L9.86069 41.1051L11.9241 41.2913C12.8698 41.7785 14.9332 42.108 16.5524 42.108" stroke="black" stroke-width="0.0429854"/>
<path id="Vector_28" d="M4.54078 31.3891L6.36126 31.958L5.80658 34.902L4.09988 35.1723C4.09988 35.1723 3.81543 33.622 4.54078 31.3891" fill="#FFFF00"/>
<path id="Vector_29" d="M4.54591 31.3908L6.35139 31.9639L5.80688 34.9011L4.08738 35.1734C4.08738 35.1734 3.80079 33.626 4.54591 31.3908Z" stroke="black" stroke-width="0.0429854"/>
<path id="Vector_30" d="M5.80631 34.8736L4.09961 35.1722L5.18052 33.622L5.80631 34.8736Z" fill="#7E7E7E"/>
<path id="Vector_31" d="M5.80544 34.8725L4.08594 35.159L5.17495 33.626L5.80544 34.8725Z" stroke="black" stroke-width="0.0429854"/>
<path id="Vector_32" d="M3.46023 33.5082L5.2096 33.6362C5.25227 35.1154 5.42294 40.7617 12.1786 41.0746L11.9653 43.1368C3.74468 43.2222 3.13311 36.1963 3.46023 33.5082" fill="#FFFF00"/>
<path id="Vector_33" d="M9.87639 43.5551L11.9398 43.1109M3.45692 33.5114L5.20508 33.626C5.24807 35.1161 5.42002 40.7612 12.1834 41.0764L11.9684 43.1396C3.74351 43.2256 3.12735 36.205 3.45692 33.5114V33.5114Z" stroke="black" stroke-width="0.0429854"/>
<path id="Vector_34" d="M28.4215 31.4033L26.6152 31.9722L27.1841 34.9162L28.9051 35.2007C28.9051 35.2007 29.1895 33.6362 28.4215 31.4033Z" fill="#FFFF00"/>
<path id="Vector_35" d="M28.4168 31.4052L26.6113 31.9783L27.1845 34.9155L28.904 35.202C28.904 35.202 29.1906 33.6546 28.4168 31.4052Z" stroke="black" stroke-width="0.0429854"/>
<path id="Vector_36" d="M27.1836 34.8878L28.9045 35.1865L27.8094 33.6505L27.1836 34.8878" fill="#7E7E7E"/>
<path id="Vector_37" d="M27.1855 34.8868L28.905 35.1877L27.8017 33.6546L27.1855 34.8868Z" stroke="black" stroke-width="0.0429854"/>
<path id="Vector_38" d="M29.5306 33.5224L27.7813 33.6504C27.7528 35.1296 27.6248 40.7901 20.8691 41.0888L21.0967 43.1368C29.3173 43.2364 29.8862 36.2105 29.5306 33.5224" fill="#FFFF00"/>
<path id="Vector_39" d="M23.1866 43.5551L21.1232 43.1253M29.5201 33.5257L27.7719 33.6403C27.7432 35.1304 27.6286 40.7899 20.8652 41.0907L21.0945 43.1396C29.3194 43.2399 29.8783 36.2193 29.5201 33.54V33.5257Z" stroke="black" stroke-width="0.0429854"/>
<path id="Vector_40" d="M15.4648 43.3502C15.4221 43.3786 15.351 43.3786 15.2799 43.3786L14.9527 43.3644L14.9812 42.9519L15.3083 42.9662C15.3652 42.9662 15.4221 42.9946 15.4505 43.0088C15.5216 43.0373 15.5501 43.1084 15.5359 43.1937C15.5359 43.2648 15.5074 43.3217 15.4648 43.336V43.3502ZM14.9101 43.9902L14.9527 43.4924L15.3225 43.5208C15.4245 43.5274 15.5254 43.4971 15.607 43.4355C15.6639 43.3644 15.7065 43.2933 15.7065 43.1937C15.7123 43.1474 15.7076 43.1004 15.6929 43.0561C15.6781 43.0118 15.6536 42.9713 15.6212 42.9377C15.5504 42.8752 15.4596 42.8399 15.3652 42.8382L14.8247 42.8097L14.7536 43.976H14.9101V43.9902ZM16.1048 43.0088H16.503L16.6452 43.0373C16.6879 43.0657 16.7163 43.1226 16.7163 43.2079C16.7163 43.2933 16.7021 43.3502 16.6594 43.3786C16.6168 43.4071 16.5457 43.4213 16.4745 43.4213H16.0905V43.0088H16.1048ZM16.0905 44.0471V43.5493H16.4603C16.5314 43.5493 16.5883 43.5493 16.6168 43.5777C16.6737 43.592 16.7021 43.6488 16.7021 43.72V43.9191L16.7163 44.0186L16.7306 44.0613H16.9297V44.0329C16.9152 44.0264 16.9025 44.0166 16.8926 44.0042C16.8827 43.9918 16.8759 43.9773 16.8728 43.9617V43.7057C16.8728 43.6346 16.8443 43.5777 16.8159 43.5635C16.7925 43.5253 16.7577 43.4955 16.7163 43.4782L16.8586 43.3786L16.887 43.1937C16.887 43.0657 16.8301 42.9662 16.7163 42.9235C16.6441 42.8942 16.5667 42.8797 16.4888 42.8808H15.9341V44.0471H16.0905V44.0471ZM17.3421 43.8053C17.266 43.7125 17.2212 43.598 17.2141 43.4782C17.2141 43.3075 17.2426 43.1937 17.3137 43.1084C17.3848 43.0088 17.4843 42.9662 17.6123 42.9662C17.7546 42.9662 17.8399 42.9946 17.9252 43.0799C17.9964 43.1511 18.0532 43.2648 18.0675 43.4071C18.0675 43.5351 18.039 43.6488 17.9821 43.7484C17.911 43.848 17.8257 43.9049 17.6692 43.9191C17.527 43.9191 17.4132 43.8906 17.3421 43.8053V43.8053ZM17.143 43.0657C17.0659 43.1887 17.031 43.3335 17.0434 43.4782C17.0481 43.6361 17.1086 43.7873 17.2141 43.9049C17.2735 43.9582 17.3435 43.9984 17.4194 44.0229C17.4954 44.0474 17.5757 44.0556 17.655 44.0471C17.7423 44.0499 17.829 44.032 17.9081 43.9949C17.9872 43.9579 18.0564 43.9026 18.1101 43.8337C18.1954 43.7032 18.2353 43.5483 18.2239 43.3928C18.2242 43.2476 18.1739 43.1068 18.0817 42.9946C17.9679 42.8666 17.7972 42.8097 17.5981 42.8239C17.3848 42.8239 17.2426 42.9093 17.143 43.0657V43.0657ZM22.6471 41.3732C22.7463 41.3526 22.849 41.3575 22.9458 41.3875C23.088 41.4301 23.1733 41.5297 23.2302 41.6719L23.0596 41.7004C23.0485 41.6638 23.0302 41.6299 23.0058 41.6006C22.9814 41.5712 22.9513 41.5471 22.9173 41.5297C22.8397 41.5025 22.7559 41.4976 22.6756 41.5155C22.6218 41.5203 22.5698 41.5368 22.5231 41.5638C22.4764 41.5908 22.4362 41.6277 22.4053 41.6719C22.3484 41.7715 22.3342 41.8853 22.3627 42.0559C22.3769 42.1982 22.4338 42.2977 22.5049 42.3688C22.5902 42.4542 22.6898 42.4826 22.832 42.4542C22.9323 42.441 23.0238 42.3901 23.088 42.3119C23.1449 42.255 23.1733 42.1413 23.1449 42.0133L22.7751 42.0701L22.7467 41.9421L23.2729 41.8568L23.3725 42.4826H23.2729L23.216 42.3404C23.1774 42.3959 23.1293 42.444 23.0738 42.4826C22.9999 42.5424 22.9116 42.5816 22.8178 42.5964C22.6836 42.6172 22.5465 42.5867 22.4338 42.511C22.3674 42.4593 22.3119 42.395 22.2704 42.3218C22.2289 42.2486 22.2023 42.1679 22.192 42.0844C22.1737 42.0021 22.1718 41.9171 22.1864 41.8341C22.2011 41.7511 22.232 41.6718 22.2773 41.6008C22.3185 41.5381 22.373 41.4852 22.4369 41.4459C22.5008 41.4066 22.5726 41.3818 22.6471 41.3732V41.3732ZM23.8418 41.2879L24.2116 41.1457C24.257 41.1289 24.306 41.124 24.3538 41.1315C24.4107 41.1315 24.4676 41.1741 24.496 41.2595C24.5245 41.3306 24.5245 41.3875 24.496 41.4301L24.3396 41.5297L23.984 41.6719L23.8418 41.2879V41.2879ZM24.2116 42.255L24.0267 41.7857L24.3823 41.6577C24.4277 41.6402 24.4758 41.6306 24.5245 41.6293C24.5814 41.6293 24.624 41.6719 24.6667 41.743L24.7378 41.9279L24.7805 42.0133L24.8089 42.0417L24.9938 41.9706V41.9564C24.9654 41.9564 24.9369 41.9279 24.9085 41.8995L24.8658 41.8141L24.8089 41.6719C24.7805 41.6008 24.752 41.5581 24.7094 41.5297C24.6693 41.5109 24.6256 41.5011 24.5814 41.5012C24.624 41.4586 24.6525 41.4159 24.6667 41.359C24.6779 41.3019 24.673 41.2428 24.6525 41.1884C24.5956 41.0604 24.5103 40.9892 24.3823 40.9892C24.3254 40.9892 24.24 40.9892 24.1547 41.0177L23.6285 41.2168L24.0551 42.3119L24.2116 42.255V42.255ZM25.577 41.6861L24.9085 40.6906L25.6481 40.2212L25.7334 40.3492L25.1218 40.7332L25.3352 41.0177L25.8898 40.6763L25.961 40.7901L25.4063 41.1457L25.6338 41.4728L26.2454 41.0746L26.3307 41.1884L25.577 41.6719V41.6861ZM26.1743 39.951L26.3592 39.7377C26.4445 39.6381 26.5441 39.5954 26.6436 39.6097C26.7668 39.6247 26.8817 39.6797 26.9708 39.7661C27.0523 39.838 27.1115 39.9318 27.1414 40.0363C27.1699 40.1074 27.1556 40.1786 27.1414 40.2354L27.0561 40.335L26.857 40.5483L26.1743 39.951ZM27.1699 40.4061C27.3121 40.2639 27.3548 40.0932 27.2694 39.9083C27.2195 39.7994 27.1467 39.7024 27.0561 39.6239C26.9503 39.5263 26.8154 39.4663 26.6721 39.4532C26.5967 39.4463 26.5209 39.4583 26.4514 39.4881C26.3818 39.5179 26.3208 39.5646 26.2739 39.6239L25.9467 39.9652L26.857 40.7617L27.1841 40.4061H27.1699ZM27.881 39.4959L26.8428 38.8843L26.9281 38.7421L27.9663 39.3537L27.881 39.4959ZM28.2934 38.7848L27.1556 38.3439L27.497 37.5474L27.6392 37.6043L27.3548 38.2585L27.6961 38.3865L27.9521 37.7892L28.0943 37.8461L27.8383 38.4434L28.2081 38.5856L28.4926 37.9314L28.6348 37.9883L28.2934 38.7848V38.7848ZM28.8055 37.4052L27.625 37.1492L27.6677 36.9643L28.7486 36.5945L27.7957 36.3954L27.8241 36.2531L29.0046 36.4949L28.9761 36.6798L27.881 37.0496L28.8339 37.2629L28.8055 37.4052V37.4052ZM28.7059 35.9118L28.7201 35.7696C28.7912 35.7696 28.8623 35.7696 28.8908 35.7269C28.9761 35.6842 29.033 35.5989 29.033 35.4709V35.3002C29.0046 35.2007 28.9477 35.158 28.8623 35.1438C28.7912 35.1438 28.7486 35.1438 28.7201 35.1865C28.6917 35.2291 28.649 35.286 28.6348 35.3714L28.5779 35.5136L28.4783 35.7411C28.4214 35.8123 28.3361 35.8407 28.2366 35.8265C28.1862 35.8223 28.1374 35.8075 28.0932 35.7829C28.0491 35.7584 28.0107 35.7248 27.9806 35.6842C27.9094 35.6131 27.8952 35.5136 27.9094 35.3714C27.9094 35.2576 27.9521 35.158 28.0232 35.0727C28.0943 35.0016 28.1939 34.9589 28.3219 34.9731V35.1153C28.2508 35.1153 28.1939 35.1296 28.1654 35.158C28.0943 35.2007 28.0517 35.2718 28.0517 35.3998C28.0374 35.4851 28.0517 35.542 28.0801 35.5989C28.1228 35.6416 28.1654 35.67 28.2223 35.67C28.2792 35.67 28.3219 35.67 28.3646 35.6131L28.4499 35.414L28.4926 35.2576C28.521 35.1722 28.5495 35.1153 28.5921 35.0727C28.6257 35.0403 28.6662 35.0158 28.7104 35.001C28.7547 34.9862 28.8018 34.9816 28.8481 34.9873C28.9904 35.0016 29.0757 35.0585 29.1326 35.158C29.1752 35.2576 29.1895 35.3714 29.1752 35.4994C29.1765 35.5609 29.1645 35.622 29.14 35.6785C29.1154 35.735 29.0789 35.7854 29.033 35.8265C28.9872 35.8622 28.9345 35.8882 28.8783 35.9029C28.822 35.9176 28.7634 35.9206 28.7059 35.9118V35.9118ZM4.25742 35.8407L4.28586 35.9829C4.22897 35.9971 4.17208 36.0256 4.14364 36.0683C4.0583 36.1251 4.04408 36.2105 4.0583 36.3527L4.11519 36.5092C4.17208 36.5945 4.2432 36.6372 4.32853 36.6229C4.38542 36.6087 4.42809 36.5803 4.45653 36.5376L4.48498 36.3385V36.1678L4.54187 35.9403C4.57031 35.8691 4.64143 35.8123 4.74098 35.798C4.79073 35.789 4.84183 35.7906 4.89088 35.8029C4.93993 35.8152 4.9858 35.8377 5.02543 35.8691C5.11077 35.926 5.16766 36.0114 5.16766 36.1536C5.18476 36.2073 5.19105 36.2639 5.18616 36.32C5.18128 36.3761 5.16532 36.4308 5.13921 36.4807C5.09655 36.566 5.01121 36.6229 4.88321 36.6514L4.85476 36.5092C4.91165 36.4807 4.95432 36.4665 4.99699 36.4238C5.03966 36.3669 5.05388 36.2816 5.03966 36.1678C5.02543 36.0825 4.99699 36.0256 4.9401 35.9829C4.92063 35.9664 4.89794 35.954 4.87346 35.9467C4.84898 35.9393 4.82324 35.9371 4.79787 35.9403C4.77147 35.9445 4.74679 35.9561 4.72666 35.9737C4.70654 35.9913 4.69178 36.0142 4.68409 36.0398C4.66113 36.1085 4.65147 36.1809 4.65565 36.2531V36.4238C4.65332 36.4939 4.63379 36.5622 4.59876 36.6229C4.57682 36.6617 4.54608 36.6947 4.50902 36.7194C4.47197 36.7441 4.42963 36.7598 4.38542 36.7652C4.2432 36.7936 4.14364 36.7652 4.07253 36.6798C3.99618 36.5913 3.94682 36.4827 3.9303 36.3669C3.8985 36.2473 3.91377 36.1201 3.97297 36.0114C4.00461 35.9635 4.04659 35.9233 4.09581 35.8937C4.14504 35.8642 4.20026 35.8461 4.25742 35.8407V35.8407ZM4.18631 37.3909L5.33833 37.0354L5.62278 37.8461L5.48055 37.903L5.25299 37.2345L4.89743 37.3341L5.09655 37.9456L4.95432 37.9883L4.76943 37.3767L4.3712 37.4905L4.59876 38.1732L4.45653 38.2159L4.18631 37.3909ZM4.69832 38.799L5.765 38.2301L5.87878 38.4292L5.13921 39.1972L6.2059 39.0265L6.31968 39.2114L5.25299 39.7803L5.18188 39.6381L5.80767 39.311L5.92145 39.2541L6.0779 39.1688L5.01121 39.3537L4.9401 39.2114L5.66545 38.4434L5.62278 38.4719L5.509 38.5287C5.47297 38.5554 5.43493 38.5791 5.39522 38.5999L4.76943 38.927L4.69832 38.7848V38.799ZM6.67524 40.3492C6.61835 40.3492 6.57569 40.3208 6.5188 40.2639L6.29124 40.0363L6.58991 39.7519L6.81747 39.9794L6.9028 40.1074C6.93125 40.1786 6.9028 40.2497 6.84591 40.2923C6.78902 40.3492 6.73213 40.3777 6.67524 40.3634V40.3492ZM5.82189 40.463L6.19168 40.1217L6.44768 40.4061C6.52149 40.4748 6.61722 40.5151 6.71791 40.5199C6.80987 40.5134 6.8961 40.4729 6.95969 40.4061C7.03081 40.335 7.07347 40.2639 7.07347 40.1643C7.07347 40.079 7.03081 40.0079 6.95969 39.9226L6.58991 39.5385L5.70811 40.3492L5.82189 40.463V40.463ZM6.88858 41.4017L7.51437 40.4061L8.26817 40.8612L8.19705 40.9892L7.57126 40.6195L7.38637 40.9181L7.95527 41.2595L7.86993 41.3732L7.30103 41.0319L7.0877 41.3732L7.71349 41.743L7.64237 41.871L6.87436 41.4017H6.88858ZM8.76595 41.2168L9.14996 41.3306L9.26374 41.4017C9.30641 41.4444 9.32063 41.5155 9.29218 41.5866C9.27796 41.6577 9.23529 41.7004 9.1784 41.7288L8.99351 41.7146L8.63795 41.6008L8.76595 41.2168V41.2168ZM8.43883 42.1982L8.58106 41.7146L8.95084 41.8284L9.09307 41.8995C9.12151 41.9421 9.13574 41.999 9.10729 42.0701L9.06462 42.2408L9.03618 42.3404V42.3688L9.23529 42.4399V42.4115L9.20685 42.3262C9.20685 42.3119 9.20685 42.2693 9.23529 42.2266L9.27796 42.0844C9.29218 42.0133 9.30641 41.9706 9.27796 41.9421C9.26547 41.8983 9.24081 41.8588 9.20685 41.8284C9.26374 41.8141 9.32063 41.7999 9.3633 41.7573C9.40596 41.7288 9.43441 41.6719 9.46286 41.615C9.50552 41.4728 9.47708 41.3732 9.39174 41.2879C9.33485 41.2595 9.27796 41.2168 9.1784 41.1884L8.65217 41.0177L8.28239 42.127L8.42461 42.1839" fill="#009FC5"/>
<path id="Vector_41" d="M10.0592 21.9595C10.2015 21.6182 11.4673 20.7222 15.6629 21.1062C15.6629 21.1062 16.374 21.5471 16.7865 21.4902C17.014 21.4617 16.6443 21.5044 16.3314 21.2484C16.0185 20.9924 15.9474 20.4662 16.6727 20.4804C17.3838 20.4946 20.0861 20.6511 20.1288 20.8928C20.1714 21.1346 18.7065 21.2342 18.1661 21.22C17.6114 21.22 17.6825 21.4902 18.223 21.4617C19.9297 21.4048 21.7786 20.8075 23.7697 22.2013C23.9973 22.3578 23.1582 22.3862 22.5182 22.116C22.5182 22.116 20.783 22.2155 20.0434 22.0875C20.0434 22.0875 19.4745 22.5569 18.7065 22.5142C18.8061 22.756 18.4221 23.652 16.0754 22.9835C15.6771 23.0973 14.2691 23.3391 14.4113 22.9124C14.0415 22.9124 13.3873 23.0262 13.2878 22.8129C13.2024 22.6138 14.4398 22.2866 14.6673 22.0591C14.6673 22.0591 12.022 22.0875 11.5242 21.9169C11.5242 21.9169 9.95969 22.2582 10.0592 21.9595" fill="#BC715F"/>
<path id="Vector_42" d="M10.9124 25.6574C10.9551 25.5863 10.9835 25.444 11.0973 25.444C11.3675 25.5152 11.5382 25.9987 11.8653 25.6858C11.9791 25.6574 12.0076 25.8138 12.1071 25.8281C12.1782 26.0983 12.3916 25.7854 12.5338 25.7996C12.907 25.6444 13.3182 25.6048 13.7143 25.6858C13.7143 25.9418 13.5151 26.2263 13.2591 26.3827C13.2591 26.6387 13.5009 26.8094 13.5009 27.0796C13.4583 27.1792 13.5009 27.3356 13.3587 27.3641C13.1596 27.3214 12.9747 27.3072 12.8182 27.2076C12.7898 27.1792 12.7756 27.1507 12.7471 27.1507C12.7187 27.2503 12.8609 27.3356 12.9178 27.4352C12.8182 27.5774 12.6618 27.4352 12.5338 27.4352C12.4911 27.5348 12.5338 27.6485 12.4342 27.7196C12.2636 27.7054 12.2209 27.5205 12.1213 27.4352C12.0218 27.549 12.2067 27.6201 12.2209 27.7054C12.164 28.0468 12.164 28.3881 11.8227 28.6157L11.5951 28.7294C11.5382 28.5446 11.5667 28.2886 11.524 28.1037C11.3818 28.3312 11.2822 28.5303 11.0973 28.7152C10.8555 28.6299 10.7133 28.3597 10.6706 28.1321C10.6192 27.9994 10.6079 27.8544 10.6383 27.7153C10.6686 27.5762 10.7392 27.4491 10.8413 27.3499C10.7702 27.2076 10.5142 27.2503 10.4857 27.0512C10.116 26.8094 9.91685 27.4779 9.67507 27.1223C9.63717 26.9557 9.63932 26.7824 9.68135 26.6168C9.72338 26.4511 9.80409 26.2978 9.91685 26.1694C9.87418 26.0272 9.70351 26.0698 9.60395 25.9987C9.36217 25.7996 9.03505 25.6005 9.04928 25.2449C9.36453 25.1289 9.70653 25.1061 10.0344 25.1792C10.3623 25.2524 10.6621 25.4184 10.8982 25.6574" fill="#008737"/>
<path id="Vector_43" d="M11.2252 25.6289C11.2252 25.9134 11.4243 25.7001 11.5807 25.8707C11.4527 25.8281 11.3674 26.0841 11.2536 25.9418L11.1683 26.013C11.2109 26.1125 11.3105 26.1267 11.2109 26.2263C11.0829 26.2832 11.0687 26.1125 10.9976 26.0556C10.9976 26.0272 11.0118 25.9703 10.9692 25.9561C10.8981 26.013 10.8269 26.0414 10.7132 26.0272C10.6847 25.9703 10.6278 25.8849 10.6847 25.8565C10.7843 25.7143 10.9407 25.8992 11.0118 25.8138C11.0261 25.7285 10.9549 25.6289 11.0545 25.5578C11.1114 25.5721 11.1967 25.5436 11.2252 25.6147V25.6289ZM12.0074 25.8565C12.0074 25.9134 11.979 25.9987 12.0501 26.0272C12.1496 25.9845 12.2492 26.0272 12.3061 26.1125C12.3061 26.1694 12.3203 26.2263 12.2492 26.2547L12.107 26.2263C12.107 26.1978 12.0643 26.1836 12.0501 26.1552C11.979 26.1267 11.9505 26.1836 11.9079 26.2121C11.9363 26.269 12.0216 26.3116 11.9932 26.3827C11.9079 26.4681 11.8652 26.2974 11.7656 26.3401C11.7087 26.3116 11.7941 26.1836 11.6945 26.141C11.5665 26.141 11.6518 26.3401 11.4954 26.269C11.4385 26.1978 11.3816 26.1267 11.4527 26.0414C11.489 26.0221 11.5303 26.0145 11.571 26.0196C11.6118 26.0247 11.6499 26.0422 11.6803 26.0698C11.7798 25.9703 11.7798 25.5578 12.0074 25.8565V25.8565ZM11.0403 26.2832C11.0972 26.3685 11.0261 26.4965 11.0972 26.5961C11.2394 26.3543 11.3532 26.653 11.5096 26.6245C11.5523 26.6814 11.5096 26.7667 11.5238 26.8236C11.339 26.8805 11.1114 26.9374 10.9549 26.781L10.8981 26.8379C10.9976 26.9232 11.0972 27.037 11.0118 27.1934C10.8696 27.2219 10.6563 27.2219 10.5852 27.0796C10.5567 26.9516 10.6705 26.8663 10.5425 26.781C10.4572 26.8947 10.4572 27.0512 10.258 26.9374C10.2305 26.9239 10.206 26.9049 10.186 26.8817C10.166 26.8585 10.1509 26.8314 10.1416 26.8022C10.1323 26.773 10.129 26.7422 10.1319 26.7116C10.1348 26.6811 10.1438 26.6515 10.1585 26.6245C10.3007 26.4254 10.514 26.6245 10.642 26.525C10.6705 26.3543 10.5994 26.2121 10.7558 26.1125C10.8981 26.0983 10.9549 26.1978 11.0403 26.2832" fill="#FFFF00"/>
<path id="Vector_44" d="M11.5676 26.3827C11.5107 26.6672 11.2832 26.3685 11.1836 26.3543C11.3258 26.1125 11.4112 26.4396 11.5676 26.3827ZM12.2503 26.6956C12.1081 26.7383 12.1081 26.5534 12.0369 26.4823L12.1081 26.4254L12.2503 26.7099" fill="#F5F5F5"/>
<path id="Vector_45" d="M12.0503 26.6387C12.0788 26.7383 11.9365 26.8236 12.0645 26.8947L12.1641 26.7952C12.2779 26.8236 12.3917 26.8521 12.4628 26.9374C12.5481 27.165 12.3205 27.165 12.2068 27.2219H12.093C12.1214 27.1507 12.0361 27.1223 12.0076 27.0796C11.983 27.0735 11.957 27.0757 11.9339 27.086C11.9107 27.0964 11.8916 27.1141 11.8796 27.1365C11.9081 27.2787 12.0788 27.3783 11.8939 27.4921C11.7516 27.4921 11.5383 27.549 11.5525 27.3499C11.4956 27.2361 11.6948 27.0654 11.4814 27.0654C11.4103 27.2076 11.3392 27.3499 11.1543 27.2076L11.1685 26.9943C11.3392 26.9943 11.5525 27.0227 11.6379 26.8236C11.6805 26.6814 11.5525 26.5534 11.6663 26.4396C11.8512 26.3969 11.9508 26.525 12.0361 26.6387" fill="#FFFF00"/>
<path id="Vector_46" d="M11.9077 26.9659C11.9646 27.0796 11.8366 27.0796 11.7655 27.1365C11.6944 27.1365 11.6517 27.1081 11.5948 27.0512C11.5664 26.9232 11.6659 26.909 11.737 26.8663C11.8224 26.8236 11.8508 26.9232 11.9077 26.9659" fill="black"/>
<path id="Vector_47" d="M11.8085 27.0227C11.7943 27.0654 11.7659 27.0512 11.7374 27.0654L11.709 26.9232C11.7659 26.9232 11.837 26.9516 11.8085 27.037" fill="#F5F5F5"/>
</g>
</g>
</g>
<defs>
<clipPath id="clip0_2909_185281">
<path d="M0.246094 32C0.246094 14.3269 14.573 0 32.2461 0V0C49.9192 0 64.2461 14.3269 64.2461 32V32C64.2461 49.6731 49.9192 64 32.2461 64V64C14.573 64 0.246094 49.6731 0.246094 32V32Z" fill="white"/>
</clipPath>
</defs>
</svg>
