<svg width="65" height="64" viewBox="0 0 65 64" fill="none" xmlns="http://www.w3.org/2000/svg">
<g id="Rounded=Syrian Arab Republic (SY)">
<g clip-path="url(#clip0_2909_185431)">
<path id="Vector" d="M64.2461 21.3375H0.246094V42.675H64.2461V21.3375Z" fill="#F5F5F5"/>
<path id="Vector_2" d="M64.2461 42.6625H0.246094V64H64.2461V42.6625Z" fill="black"/>
<path id="Vector_3" fill-rule="evenodd" clip-rule="evenodd" d="M0.246094 0H64.2461V21.3375H0.246094V0Z" fill="#FF0000"/>
<path id="Vector_4" fill-rule="evenodd" clip-rule="evenodd" d="M19.1719 37.4625L15.3219 34.6875L11.4969 37.5L12.9219 32.925L9.10938 30.125L13.8344 30.0875L15.2969 25.525L16.7969 30.075H21.4969L17.6969 32.925L19.1594 37.475L19.1719 37.4625ZM54.8469 37.4625L51.0094 34.6875L47.1844 37.5L48.6094 32.925L44.7969 30.1125L49.5094 30.075L50.9719 25.5125L52.4719 30.0625H57.1969L53.3969 32.9125L54.8469 37.4625V37.4625Z" fill="#009900"/>
</g>
</g>
<defs>
<clipPath id="clip0_2909_185431">
<path d="M0.246094 32C0.246094 14.3269 14.573 0 32.2461 0V0C49.9192 0 64.2461 14.3269 64.2461 32V32C64.2461 49.6731 49.9192 64 32.2461 64V64C14.573 64 0.246094 49.6731 0.246094 32V32Z" fill="white"/>
</clipPath>
</defs>
</svg>
