<svg width="65" height="64" viewBox="0 0 65 64" fill="none" xmlns="http://www.w3.org/2000/svg">
<g id="Rounded=Swaziland (SZ)">
<g clip-path="url(#clip0_2909_185280)">
<g id="Group">
<path id="Vector" fill-rule="evenodd" clip-rule="evenodd" d="M-15.7539 0H80.2314V63.9902H-15.7539V0Z" fill="#3E5EB9"/>
<path id="Vector_2" fill-rule="evenodd" clip-rule="evenodd" d="M-15.7539 11.4305H80.2314V52.5726H-15.7539V11.4305Z" fill="#FFD900"/>
<path id="Vector_3" fill-rule="evenodd" clip-rule="evenodd" d="M-15.7539 15.9976H80.2314V47.9927H-15.7539V15.9976Z" fill="#B10C0C"/>
<path id="Vector_4" d="M70.8646 31.3113H-5.51078C-5.88128 31.3113 -6.18164 31.6175 -6.18164 31.9951C-6.18164 32.3727 -5.88128 32.6789 -5.51078 32.6789H70.8646C71.2351 32.6789 71.5355 32.3727 71.5355 31.9951C71.5355 31.6175 71.2351 31.3113 70.8646 31.3113Z" fill="#FFD900" stroke="black" stroke-width="0.167716"/>
<g id="Group_2">
<path id="Vector_5" fill-rule="evenodd" clip-rule="evenodd" d="M63.0934 24.6852L59.207 26.0554L63.0934 27.4255L66.9798 26.0554L63.0934 24.6852V24.6852Z" fill="#F5F5F5" stroke="black" stroke-width="0.160693"/>
<path id="Vector_6" d="M60.531 25.5961H4.39768C4.1198 25.5961 3.89453 25.7982 3.89453 26.0476V26.0605C3.89453 26.3099 4.1198 26.5121 4.39768 26.5121H60.531C60.8089 26.5121 61.0342 26.3099 61.0342 26.0605V26.0476C61.0342 25.7982 60.8089 25.5961 60.531 25.5961Z" fill="#FFD900" stroke="black" stroke-width="0.167716"/>
<path id="Vector_7" d="M59.6656 26.5121C59.8914 26.5121 60.1172 26.2798 60.1172 26.0476C60.1172 25.8154 59.8914 25.5961 59.6656 25.5961" stroke="black" stroke-width="0.161267"/>
<path id="Vector_8" d="M59.2145 26.5121C59.4402 26.5121 59.666 26.2798 59.666 26.0476C59.666 25.8154 59.4402 25.5961 59.2145 25.5961" stroke="black" stroke-width="0.161267"/>
<path id="Vector_9" d="M58.7496 26.525C58.9754 26.525 59.2012 26.2927 59.2012 26.0605C59.2012 25.8283 58.9754 25.609 58.7496 25.609" stroke="black" stroke-width="0.161267"/>
</g>
<g id="Group_3">
<path id="Vector_10" fill-rule="evenodd" clip-rule="evenodd" d="M59.443 27.4332L55.5566 28.8033L59.443 30.1735L63.3294 28.8033L59.443 27.4332V27.4332Z" fill="#F5F5F5" stroke="black" stroke-width="0.160693"/>
<path id="Vector_11" d="M56.8806 28.3441H0.747293C0.469411 28.3441 0.244141 28.5462 0.244141 28.7956V28.8085C0.244141 29.0579 0.469411 29.26 0.747293 29.26H56.8806C57.1585 29.26 57.3838 29.0579 57.3838 28.8085V28.7956C57.3838 28.5462 57.1585 28.3441 56.8806 28.3441Z" fill="#FFD900" stroke="black" stroke-width="0.167716"/>
<path id="Vector_12" d="M56.0152 29.26C56.241 29.26 56.4668 29.0278 56.4668 28.7956C56.4668 28.5634 56.241 28.3441 56.0152 28.3441" stroke="black" stroke-width="0.161267"/>
<path id="Vector_13" d="M55.5641 29.26C55.7898 29.26 56.0156 29.0278 56.0156 28.7956C56.0156 28.5634 55.7898 28.3441 55.5641 28.3441" stroke="black" stroke-width="0.161267"/>
<path id="Vector_14" d="M55.0992 29.273C55.325 29.273 55.5508 29.0407 55.5508 28.8085C55.5508 28.5763 55.325 28.357 55.0992 28.357" stroke="black" stroke-width="0.161267"/>
</g>
<g id="Group_4">
<path id="Vector_15" fill-rule="evenodd" clip-rule="evenodd" d="M66.0466 31.4534C65.3629 32.6487 66.581 31.0582 69.5766 33.0632C70.1235 33.4295 70.6083 34.4127 70.6083 35.0971C70.4715 35.0007 70.3597 34.8079 70.2105 34.6633C69.9868 34.885 70.4218 35.8778 70.484 36.3502C70.0116 36.0899 70.0614 35.9646 69.8998 35.6369C69.9371 36.0224 69.8252 37.102 70.0116 37.5069C69.6387 37.4105 69.6636 37.1117 69.4772 37.0442C69.6015 37.5165 69.3529 38.0178 69.4274 38.5479C69.2037 38.3359 68.98 38.1624 68.8805 38.0756C68.8681 38.3262 68.4704 38.9817 68.4579 39.2227C68.2715 39.107 68.2218 38.9335 68.1969 38.8178C67.9732 39.107 67.1652 40.1673 67.1155 40.4758C66.494 39.9263 64.903 38.5961 64.6917 37.8828C64.5053 38.2877 64.2443 38.4226 63.7222 38.7214C63.5109 37.5936 62.7278 36.3309 63.1504 35.367C62.8643 35.5453 62.5905 35.7351 62.3301 35.9357C62.5095 35.0282 62.9332 34.1602 63.5735 33.3879C64.2137 32.6157 65.0564 31.9566 66.0466 31.4534V31.4534Z" fill="#3D5DA7" stroke="black" stroke-width="0.109459"/>
<path id="Vector_16" fill-rule="evenodd" clip-rule="evenodd" d="M63.4727 37.4007C63.7694 36.8202 64.0274 36.6267 64.2209 36.2654C64.5435 35.6204 64.5951 35.1043 64.866 35.1688C65.1627 35.2462 65.1627 35.5172 64.7886 36.1622C64.4274 36.8073 64.2467 36.9363 63.4727 37.4007V37.4007ZM65.4207 38.7683C65.382 38.3296 65.5111 38.149 65.4853 37.8652C65.4466 37.362 65.253 37.0266 65.5111 37.0008C65.7691 36.975 65.8981 37.1427 65.8981 37.6459C65.8981 38.149 65.8207 38.278 65.4207 38.7683ZM66.8915 39.6198C66.7883 39.0134 66.8657 38.7425 66.7883 38.3425C66.6593 37.6588 66.4012 37.1943 66.6593 37.1298C66.9044 37.0653 67.0463 37.2975 67.1366 37.9942C67.2398 38.7038 67.1882 38.8973 66.9044 39.6198H66.8915ZM68.4396 35.3365C68.0655 35.0785 67.8591 35.0527 67.6269 34.8721C67.214 34.5625 67.0076 34.227 66.8786 34.3947C66.7496 34.5625 66.8399 34.7431 67.2656 35.0269C67.7043 35.3107 67.8462 35.3365 68.4267 35.3365H68.4396ZM68.1816 37.3749C67.9881 36.975 67.7946 36.8718 67.6656 36.6267C67.4462 36.1751 67.4462 35.7881 67.214 35.8913C66.9818 35.9816 66.956 36.188 67.214 36.6267C67.472 37.0524 67.6011 37.1298 68.1816 37.3749Z" fill="#A70000"/>
</g>
<g id="Group_5">
<path id="Vector_17" fill-rule="evenodd" clip-rule="evenodd" d="M-2.83351 32.6077C-2.87616 32.2535 -2.79087 32.2142 -3.0183 31.9518C-2.70558 32.083 -2.69137 32.4372 -2.30757 32.1879C-2.16543 32.1092 -2.10857 32.1092 -2.27914 31.7288C-1.88114 31.7288 -0.573393 32.1879 -0.374389 32.2011C0.179981 32.2273 1.175 31.6238 1.8573 32.3585C2.52539 33.0275 2.29796 33.7228 2.29796 34.6542C2.0421 34.523 2.15581 34.4706 1.87152 34.1295C2.09895 34.9428 1.87152 36.4121 1.87152 37.2779C1.7578 37.068 1.77201 37.1467 1.67251 36.9368C1.38822 37.7239 1.04707 37.8945 1.04707 38.8128C0.947569 38.4586 1.04707 38.5242 0.933356 38.3405C0.649064 38.9309 -1.19883 39.4425 -0.488104 40.0459C-1.11355 39.6786 -1.39784 39.718 -1.69634 39.3769C-1.82428 39.4556 -1.92378 39.613 -2.03749 39.8229C-3.17466 39.2982 -2.74823 38.1831 -3.64375 37.4353C-3.78589 37.7502 -3.72903 37.6977 -3.89961 38.2093C-4.07018 37.5009 -4.12704 37.0418 -4.32605 36.5302C-4.49662 36.8188 -4.46819 36.7007 -4.79513 37.1467C-4.93728 36.2809 -5.13628 36.071 -5.05099 35.5069C-5.39214 35.7431 -5.16471 35.6381 -5.50586 35.9398C-5.19314 33.7097 -3.81432 32.083 -2.83351 32.6077V32.6077Z" fill="#3D5DA7" stroke="black" stroke-width="0.136556"/>
<path id="Vector_18" fill-rule="evenodd" clip-rule="evenodd" d="M-4.2207 36.2267C-3.92397 35.5171 -3.66595 35.2849 -3.47243 34.8334C-3.1499 34.0206 -3.08539 33.3755 -2.81447 33.4787C-2.53064 33.569 -2.54354 33.9045 -2.91768 34.7044C-3.17365 35.3368 -3.62587 35.8705 -4.2078 36.2267H-4.2207ZM-3.1112 38.0071C-2.99508 37.362 -2.81447 37.1298 -2.73706 36.717C-2.60805 35.9945 -2.68545 35.4655 -2.42743 35.4913C-2.1694 35.5171 -2.1049 35.7881 -2.27261 36.5234C-2.45323 37.233 -2.56934 37.4007 -3.1112 38.0071V38.0071ZM-1.79527 39.2456C-1.76947 38.6263 -1.61465 38.3812 -1.60175 37.9813C-1.56305 37.2846 -1.69206 36.7815 -1.44693 36.7815C-1.18891 36.7815 -1.1115 37.0395 -1.18891 37.7361C-1.26632 38.4328 -1.35663 38.6134 -1.79527 39.2456V39.2456ZM1.03011 35.1946C0.488254 34.6527 0.165721 34.5495 -0.182613 34.2141C-0.801873 33.6078 -1.0986 33.0272 -1.31792 33.2336C-1.53724 33.44 -1.40823 33.7497 -0.763169 34.3173C-0.118106 34.8979 0.114117 34.9882 1.03011 35.1946V35.1946ZM0.707574 37.2846C0.346339 36.7428 0.0883138 36.6008 -0.131007 36.2525C-0.543847 35.6332 -0.67286 35.1172 -0.905082 35.2462C-1.1373 35.3752 -1.0857 35.6461 -0.647057 36.2396C-0.208415 36.8331 -0.0406987 36.9363 0.707574 37.2717V37.2846Z" fill="#A70000"/>
</g>
<g id="Group_6">
<path id="Vector_19" fill-rule="evenodd" clip-rule="evenodd" d="M55.1004 31.9925C50.5333 36.5596 44.4353 45.7091 32.2392 45.7091C21.5742 45.7091 13.9538 36.5673 9.38672 31.9925C13.9538 27.4255 21.5742 18.2837 32.2392 18.2837C44.4353 18.2837 50.5247 27.4177 55.1004 31.9925Z" fill="#F5F5F5" stroke="black" stroke-width="0.16319"/>
<path id="Vector_20" fill-rule="evenodd" clip-rule="evenodd" d="M30.6519 23.0545C31.8646 24.4221 30.8454 24.9768 32.1355 25.0671C33.4902 25.1574 32.729 26.5121 33.8643 26.5508C34.6642 26.5895 33.7869 29.7761 34.561 30.834C35.335 31.9306 35.993 31.1565 36.0059 31.9435C36.0188 32.7692 33.8772 32.6789 33.8385 35.2075C33.774 36.6653 32.0323 36.7557 31.942 37.6974C31.8388 38.5747 35.3866 39.065 35.335 39.8649C35.2963 40.6389 31.5163 40.5099 31.3486 41.413C31.2711 42.2258 36.5349 42.8837 36.9606 45.206C36.1865 45.464 33.9417 45.722 32.2387 45.722C21.5823 45.722 13.9577 36.5621 9.39062 31.9951C13.9577 27.4281 21.5823 18.2811 32.2387 18.2811C32.2387 18.2811 29.0779 21.1838 30.6519 23.0545V23.0545Z" fill="black"/>
<path id="Vector_21" fill-rule="evenodd" clip-rule="evenodd" d="M17.918 27.1184H19.0275V30.7824H17.918V27.1184ZM17.918 33.2207H19.0275V36.8718H17.918V33.2207ZM20.137 27.1184H21.2465V30.7824H20.137V27.1184ZM20.137 33.2207H21.2465V36.8718H20.137V33.2207ZM22.356 27.1184H23.4655V30.7824H22.356V27.1184ZM22.356 33.2207H23.4655V36.8718H22.356V33.2207ZM24.575 27.1184H25.6845V30.7824H24.575V27.1184ZM24.575 33.2207H25.6845V36.8718H24.575V33.2207ZM26.7811 27.1184H27.8906V30.7824H26.7811V27.1184ZM26.7811 33.2207H27.8906V36.8718H26.7811V33.2207ZM29.0001 27.1184H30.1096V30.7824H29.013L29.0001 27.1184ZM29.0001 33.2207H30.1096V36.8718H29.013L29.0001 33.2207Z" fill="#F5F5F5"/>
<path id="Vector_22" fill-rule="evenodd" clip-rule="evenodd" d="M34.6895 27.1184H35.7861V30.7824H34.6895V27.1184ZM34.6895 33.2207H35.7861V36.8718H34.6895V33.2207ZM36.8956 27.1184H38.0051V30.7824H36.8956V27.1184ZM36.8956 33.2207H38.0051V36.8718H36.8956V33.2207ZM39.1146 27.1184H40.2241V30.7824H39.1146V27.1184ZM39.1146 33.2207H40.2241V36.8718H39.1146V33.2207ZM41.3336 27.1184H42.4431V30.7824H41.3336V27.1184ZM41.3336 33.2207H42.4431V36.8718H41.3336V33.2207ZM43.5526 27.1184H44.6621V30.7824H43.5526V27.1184ZM43.5526 33.2207H44.6621V36.8718H43.5526V33.2207ZM45.7587 27.1184H46.8682V30.7824H45.7587V27.1184ZM45.7587 33.2207H46.8682V36.8718H45.7587V33.2207Z" fill="black"/>
</g>
<g id="Group_7">
<path id="Vector_23" fill-rule="evenodd" clip-rule="evenodd" d="M24.848 20.7316C24.2228 21.9522 25.962 20.328 28.6902 22.3755C29.3755 23.1169 29.8051 24.0109 29.9292 24.9544C29.3495 24.8363 28.3151 24.2654 28.3151 24.2654C28.3151 24.2654 29.52 25.4663 29.52 26.8641C29.0994 26.5983 28.8834 26.6377 28.747 26.3128C28.747 26.7558 29.1221 27.0511 29.1221 27.75C28.8663 27.541 28.5885 27.3532 28.2923 27.1889C28.6902 27.8878 27.5535 29.2462 28.1218 29.699C27.1329 29.5513 26.1098 28.9115 25.712 28.2225C25.496 28.3603 25.4846 28.5867 25.4619 28.8327C25.496 28.8524 23.95 27.6811 24.0978 27.2283C23.8818 27.5236 23.8591 27.6811 23.8136 28.0157C23.2119 27.5027 22.77 26.866 22.5291 26.1652L22.0062 26.8247C21.8243 25.673 21.8243 25.7124 22.1995 24.728C21.9378 24.9101 21.6874 25.104 21.4492 25.3088C21.6127 24.3819 21.9998 23.4953 22.5854 22.7066C23.171 21.918 23.942 21.245 24.848 20.7316V20.7316Z" fill="#3D5DA7" stroke="black" stroke-width="0.105779"/>
<path id="Vector_24" fill-rule="evenodd" clip-rule="evenodd" d="M23.2852 26.7056C23.3884 25.867 23.6077 25.5445 23.6722 25.0026C23.8012 24.0479 23.6593 23.3384 23.9947 23.3642C24.3302 23.3771 24.4334 23.7383 24.2657 24.693C24.0979 25.6477 23.956 25.867 23.2852 26.7056V26.7056ZM25.0526 28.2537C24.9881 27.5313 25.1171 27.2345 25.0784 26.7701C25.001 25.9702 24.7559 25.4284 25.0526 25.3767C25.3494 25.3251 25.4913 25.5961 25.53 26.4088C25.5558 27.2216 25.4784 27.4409 25.0526 28.2537ZM27.8135 29.5051C27.5168 28.8988 27.2587 28.7053 27.0652 28.3182C26.7298 27.6216 26.6524 27.041 26.3944 27.1571C26.1363 27.2474 26.1363 27.5442 26.5234 28.2279C26.9104 28.9117 27.0781 29.0536 27.8135 29.5181V29.5051ZM28.7682 23.9963C28.007 23.5835 27.6071 23.5835 27.1168 23.3255C26.2524 22.8739 25.7493 22.3579 25.5687 22.6417C25.3881 22.9255 25.6332 23.2093 26.5234 23.6222C27.4265 24.035 27.6845 24.0479 28.7682 23.9963V23.9963ZM29.052 26.2927C28.4973 25.8283 28.1618 25.7767 27.8135 25.4671C27.1684 24.951 26.8588 24.435 26.6524 24.6414C26.4331 24.8478 26.575 25.1187 27.2458 25.609C27.9038 26.1121 28.136 26.1637 29.052 26.2927Z" fill="#A70000"/>
</g>
</g>
</g>
</g>
<defs>
<clipPath id="clip0_2909_185280">
<path d="M0.246094 32C0.246094 14.3269 14.573 0 32.2461 0V0C49.9192 0 64.2461 14.3269 64.2461 32V32C64.2461 49.6731 49.9192 64 32.2461 64V64C14.573 64 0.246094 49.6731 0.246094 32V32Z" fill="white"/>
</clipPath>
</defs>
</svg>
