<svg width="65" height="64" viewBox="0 0 65 64" fill="none" xmlns="http://www.w3.org/2000/svg">
<g id="Rounded=Turks and Caicos Islands (TC)">
<g clip-path="url(#clip0_2909_185279)">
<path id="Vector" d="M64.2461 64V0H0.246094V64H64.2461Z" fill="#002868"/>
<g id="Group">
<path id="Vector_2" d="M61.6211 23.9375V35.1875C61.6211 42.6875 57.8711 50.7656 48.4961 55.1406C39.1211 50.7656 35.3711 42.6875 35.3711 35.1875V23.9375H61.6211Z" fill="#FCD116" stroke="black"/>
<path id="Vector_3" d="M61.6211 23.9375V35.1875C61.6211 42.6875 57.8711 50.7656 48.4961 55.1406C39.1211 50.7656 35.3711 42.6875 35.3711 35.1875V23.9375H61.6211Z" stroke="#F5F5F5" stroke-width="0.875"/>
<g id="Group_2">
<g id="Vector_4">
<path d="M43.7617 36.3281C43.418 36.9062 42.8398 37.0312 42.3867 36.8437C41.918 36.6562 41.4961 35.5625 41.0273 34.9687C40.5742 34.3906 40.4492 34.6406 40.1367 34.2969C39.8398 33.9687 39.3711 33.7187 38.6367 33.375C38.2305 33.1875 37.8086 33.0156 37.5273 32.2969C37.6367 32 37.9336 31.75 38.168 31.6562C38.4023 31.5781 38.5898 31.2344 38.6211 30.9375C38.6523 30.6562 38.9023 30.3437 39.2461 30.1094C39.0898 30.1406 38.7617 30.0781 38.6055 29.9687C38.4648 29.8437 38.2305 29.875 38.0898 29.9844C37.9492 30.0781 37.7773 30.1094 37.5273 30.0781C37.6211 30 37.793 29.8281 37.8086 29.6719C37.8242 29.5156 38.0117 29.4375 38.3711 29.4375C38.7148 29.4375 38.9492 29.0312 39.2305 29.0312C39.0273 29.0312 39.0742 28.6875 39.1836 28.6719C38.6836 28.5781 38.7461 28.1719 38.9492 28.1719C38.9336 28.1094 38.8711 28.0469 38.6367 27.9687C38.418 27.8906 38.5273 27.6875 38.6992 27.5625C38.543 27.25 38.6836 27.0156 38.9336 26.8125C38.5898 26.7969 38.9648 26.3125 39.0586 26.0469C39.1523 25.7969 39.1992 25.7656 39.3086 25.9219C39.4336 26.0625 39.7148 26.3906 40.043 26.4844C40.3555 26.5781 40.543 26.75 40.6055 27.0156C40.668 27.2969 40.793 27.4375 41.1367 27.5625C41.4961 27.6719 41.9805 27.9687 41.918 28.6406C42.1992 28.6562 42.4023 28.7344 42.5742 28.875" fill="#FCAD56"/>
<path d="M43.7617 36.3281C43.418 36.9062 42.8398 37.0312 42.3867 36.8437C41.918 36.6562 41.4961 35.5625 41.0273 34.9687C40.5742 34.3906 40.4492 34.6406 40.1367 34.2969C39.8398 33.9687 39.3711 33.7187 38.6367 33.375C38.2305 33.1875 37.8086 33.0156 37.5273 32.2969C37.6367 32 37.9336 31.75 38.168 31.6562C38.4023 31.5781 38.5898 31.2344 38.6211 30.9375C38.6523 30.6562 38.9023 30.3437 39.2461 30.1094C39.0898 30.1406 38.7617 30.0781 38.6055 29.9687C38.4648 29.8437 38.2305 29.875 38.0898 29.9844C37.9492 30.0781 37.7773 30.1094 37.5273 30.0781C37.6211 30 37.793 29.8281 37.8086 29.6719C37.8242 29.5156 38.0117 29.4375 38.3711 29.4375C38.7148 29.4375 38.9492 29.0312 39.2305 29.0312C39.0273 29.0312 39.0742 28.6875 39.1836 28.6719C38.6836 28.5781 38.7461 28.1719 38.9492 28.1719C38.9336 28.1094 38.8711 28.0469 38.6367 27.9687C38.418 27.8906 38.5273 27.6875 38.6992 27.5625C38.543 27.25 38.6836 27.0156 38.9336 26.8125C38.5898 26.7969 38.9648 26.3125 39.0586 26.0469C39.1523 25.7969 39.1992 25.7656 39.3086 25.9219C39.4336 26.0625 39.7148 26.3906 40.043 26.4844C40.3555 26.5781 40.543 26.75 40.6055 27.0156C40.668 27.2969 40.793 27.4375 41.1367 27.5625C41.4961 27.6719 41.9805 27.9687 41.918 28.6406C42.1992 28.6562 42.4023 28.7344 42.5742 28.875" stroke="black" stroke-width="0.034375" stroke-linecap="round" stroke-linejoin="round"/>
</g>
<path id="Vector_5" d="M44.6217 27.8594C44.6217 28.2344 44.7936 28.4688 45.0124 28.6562C45.2467 28.8438 45.4499 29 45.403 29.2344C45.3561 29.4844 45.4499 29.6406 45.653 29.7969C45.8717 29.9531 46.028 30.1406 45.9655 30.4531C45.903 30.7656 45.9499 30.9531 46.0749 31.1875C46.1999 31.4219 46.4186 31.6094 46.3249 31.9844C46.2311 32.3594 46.278 32.8594 46.403 33.1094C46.5124 33.3438 46.403 33.5312 46.1842 33.9531C45.9655 34.3594 45.8405 34.5156 45.3874 34.6719C44.9186 34.8125 44.8874 35.0938 44.8874 35.5781C44.8874 36.0781 44.5592 36.3281 43.9499 36.2344C43.3249 36.75 42.9342 36.1406 42.778 35.375C42.6217 34.6094 42.5905 33.7812 41.6686 33.1094C40.7624 32.4219 41.1217 31.2656 41.8874 30.7969C42.653 30.3438 42.5592 29 42.4655 28.1719C42.3874 27.3438 42.9342 26.875 43.3561 26.4219C43.9186 26.6406 44.6217 27.5 44.6217 27.8594Z" fill="#FFA1A1" stroke="black" stroke-width="0.034375" stroke-linecap="round" stroke-linejoin="round"/>
<path id="Vector_6" d="M43.2923 33.1875C43.1204 32.7812 42.9329 32.375 43.3861 31.5C43.8548 30.6094 43.5579 29.9375 43.4173 29.4844C43.2767 29.0469 43.2454 28.6406 43.4173 28.4531C43.6048 28.2812 43.6829 28.1719 43.6986 27.875C43.7142 27.5937 43.9486 27.6875 43.9798 27.8281C44.0111 27.9687 44.0423 28.2031 43.7923 28.625C43.5423 29.0625 44.4954 30.125 44.0579 31.2656C43.7611 32.0625 44.1517 33.0781 44.3079 33.7812C44.4642 34.4844 44.5579 36.1719 43.5267 36.4219C44.2298 36.0781 43.5736 33.8437 43.2923 33.1875Z" fill="#F1B2DC" stroke="black" stroke-width="0.034375" stroke-linecap="round" stroke-linejoin="round"/>
<path id="Vector_7" d="M38.9336 26.8125C39.043 26.8125 39.2773 26.7812 39.2773 26.9219M38.6523 33.0625C38.8242 33.0938 38.918 33 38.9648 32.8906C39.0117 32.7812 39.043 32.7188 39.1992 32.7031C39.3555 32.7031 39.6055 32.6562 39.668 32.5312C39.7148 32.4062 39.9023 32.5156 40.0742 32.2031C40.2305 31.875 40.3398 31.5 40.7617 31.3594L38.6523 33.0625ZM41.918 28.6406C41.7617 28.6406 41.3086 28.6562 41.1211 29.0625L41.918 28.6406ZM39.8242 26.7031C40.1992 26.8125 40.043 27.0625 40.2305 27.2031C40.5742 27.4688 40.2617 27.75 40.543 27.8281C40.8242 27.9062 40.8086 27.9531 40.7461 28.2656C40.6523 28.625 40.9961 28.6406 40.8711 28.875L39.8242 26.7031ZM39.2461 30.1094C39.4648 29.9062 40.0117 29.75 40.1367 29.5312L39.2461 30.1094ZM39.2305 29.0312C39.5586 29.0156 39.9961 29.1406 40.0586 29.0156L39.2305 29.0312ZM39.1836 28.6719C39.3398 28.6719 39.668 28.5625 39.7305 28.3438L39.1836 28.6719ZM38.9492 28.1719C39.1367 28.1719 39.3711 28.1562 39.6055 27.9844L38.9492 28.1719ZM38.6992 27.5625C38.8398 27.4531 39.0898 27.5781 39.3242 27.4219L38.6992 27.5625Z" stroke="black" stroke-width="0.034375" stroke-linecap="round" stroke-linejoin="round"/>
<g id="Group_3">
<g id="b">
<path id="Vector_8" d="M53.8867 29.6719C53.8867 29.6719 52.793 28.75 51.8867 28.125C50.9805 27.5 49.8867 26.7344 49.8867 26.5781C50.0586 26.4531 50.9805 27.0469 52.2461 27.8125C53.5273 28.5938 54.2461 29.3594 54.2461 29.3594L53.8867 29.6719ZM53.8086 30.2969C53.8086 30.2969 52.7461 29.6562 51.6992 29.2031C50.6055 28.75 48.9648 28.75 48.793 28.5938C48.793 28.4375 50.6992 28.3438 52.0586 28.8906C53.4492 29.5312 54.168 29.9844 54.168 29.9844L53.8086 30.2969ZM53.793 31.3594C53.793 31.3594 52.6367 30.8281 51.5117 30.5781C50.418 30.3281 48.8555 30.4219 48.668 30.2812C48.668 30.125 50.6055 29.8125 52.0586 30.2812C53.5273 30.7344 54.1523 31.0469 54.1523 31.0469L53.793 31.3594ZM53.7305 32.4375C53.7305 32.4375 52.8555 31.8438 51.6992 31.7188C50.6055 31.6094 49.1523 32.4375 48.9648 32.2812C48.9648 32.125 50.2305 31.2031 51.8086 31.3594C53.3555 31.5156 54.0898 32.125 54.0898 32.125L53.7305 32.4375ZM54.0898 29.0312C54.0898 29.0312 52.9805 28.0156 52.9805 27.3281C52.9805 26.7188 53.6523 25.7812 53.9492 25.7812C53.793 26.0938 53.2773 26.7188 53.2773 27.3281C53.2773 27.9531 54.4492 28.7188 54.4492 28.7188L54.0898 29.0312Z" fill="#9E540A" stroke="black" stroke-width="0.034375" stroke-linecap="round" stroke-linejoin="round"/>
<path id="Vector_9" d="M54.0901 29.0312C54.0901 29.0312 54.3089 28.0156 54.3089 27.3281C54.3089 26.4062 53.6526 25.5625 53.7151 25.3281C53.9495 25.5625 54.6058 26.25 54.6058 27.3281C54.6058 28.2656 54.4495 28.7188 54.4495 28.7188L54.0901 29.0312Z" fill="#9E540A" stroke="black" stroke-width="0.034375" stroke-linecap="round" stroke-linejoin="round"/>
<g id="Group_4">
<path id="Vector_10" d="M54.3555 28.7031C54.3555 28.4062 54.2461 28.1406 54.0586 27.9375C53.8086 27.6406 53.4336 27.5469 53.043 27.6094C52.5742 27.6875 52.1992 27.9688 51.9648 28.4062C51.6523 28.9844 51.6211 29.6094 51.6055 30.2188C51.6055 32.3281 51.6836 33.1875 51.7461 35.2656C51.7617 35.875 51.8711 37.125 51.5898 38.1094C51.4805 38.5312 51.3555 38.9219 51.168 39.3281C51.293 38.8125 51.3555 38.5469 51.418 38.1562C51.5898 37.1406 51.543 36.1875 51.5117 35.25C51.4492 33.3281 51.3398 32.3438 51.2773 30.0156C51.2617 29.3125 51.3242 28.7812 51.6523 28.2188C51.9961 27.6406 52.5898 27.2188 53.2617 27.2188C53.543 27.2188 53.7773 27.2656 54.0117 27.4062C54.4805 27.6562 54.6992 28.1719 54.6992 28.6875L54.3555 28.7031Z" fill="#9E540A" stroke="#FCD116" stroke-width="0.1875" stroke-linecap="round" stroke-linejoin="round"/>
<path id="a" d="M54.3555 28.7031C54.3555 28.4062 54.2461 28.1406 54.0586 27.9375C53.8086 27.6406 53.4336 27.5469 53.043 27.6094C52.5742 27.6875 52.1992 27.9688 51.9648 28.4062C51.6523 28.9844 51.6211 29.6094 51.6055 30.2188C51.6055 32.3281 51.6836 33.1875 51.7461 35.2656C51.7617 35.875 51.8711 37.125 51.5898 38.1094C51.4805 38.5312 51.3555 38.9219 51.168 39.3281C51.293 38.8125 51.3555 38.5469 51.418 38.1562C51.5898 37.1406 51.543 36.1875 51.5117 35.25C51.4492 33.3281 51.3398 32.3438 51.2773 30.0156C51.2617 29.3125 51.3242 28.7812 51.6523 28.2188C51.9961 27.6406 52.5898 27.2188 53.2617 27.2188C53.543 27.2188 53.7773 27.2656 54.0117 27.4062C54.4805 27.6562 54.6992 28.1719 54.6992 28.6875L54.3555 28.7031Z" fill="#9E540A"/>
</g>
<path id="Vector_11" d="M54.4492 36.2344C54.4492 36.2344 54.0117 37.0156 53.6836 37.5781C53.3554 38.1406 53.0898 38.2656 52.8398 38.0938C52.6054 37.9219 52.8086 37.4688 52.9961 37.25C53.1836 37.0312 54.2304 36.0156 54.2304 36.0156L54.4492 36.2344Z" fill="#9E540A" stroke="black" stroke-width="0.034375" stroke-linecap="round" stroke-linejoin="round"/>
<path id="Vector_12" d="M54.5581 36.2969C54.5581 36.2969 54.3863 37.1875 54.2456 37.8281C54.1206 38.4688 53.9019 38.6875 53.6363 38.6094C53.355 38.5469 53.4019 38.0312 53.5113 37.7656C53.6206 37.5 54.2769 36.1562 54.2769 36.1562L54.5581 36.2969Z" fill="#9E540A" stroke="black" stroke-width="0.034375" stroke-linecap="round" stroke-linejoin="round"/>
<path id="Vector_13" d="M54.7468 36.3281V37.8906C54.7468 38.5469 54.5905 38.8125 54.2936 38.7969C54.0124 38.7812 53.9499 38.2812 54.0124 37.9844C54.0593 37.7031 54.4499 36.25 54.4499 36.25L54.7468 36.3281Z" fill="#9E540A" stroke="black" stroke-width="0.034375" stroke-linecap="round" stroke-linejoin="round"/>
</g>
<g id="Group_5">
<path id="Vector_14" d="M55.6055 29.6719C55.6055 29.6719 56.6992 28.75 57.6055 28.125C58.5117 27.5 59.6055 26.7344 59.6055 26.5781C59.4336 26.4531 58.5117 27.0469 57.2461 27.8125C55.9648 28.5938 55.2461 29.3594 55.2461 29.3594L55.6055 29.6719ZM55.6836 30.2969C55.6836 30.2969 56.7461 29.6562 57.793 29.2031C58.8867 28.75 60.5273 28.75 60.6992 28.5938C60.6992 28.4375 58.793 28.3438 57.4336 28.8906C56.043 29.5312 55.3242 29.9844 55.3242 29.9844L55.6836 30.2969ZM55.6992 31.3594C55.6992 31.3594 56.8555 30.8281 57.9805 30.5781C59.0742 30.3281 60.6367 30.4219 60.8242 30.2812C60.8242 30.125 58.8867 29.8125 57.4336 30.2812C55.9648 30.7344 55.3398 31.0469 55.3398 31.0469L55.6992 31.3594ZM55.7617 32.4375C55.7617 32.4375 56.6367 31.8438 57.793 31.7188C58.8867 31.6094 60.3398 32.4375 60.5273 32.2812C60.5273 32.125 59.2617 31.2031 57.6836 31.3594C56.1367 31.5156 55.4023 32.125 55.4023 32.125L55.7617 32.4375ZM55.4023 29.0312C55.4023 29.0312 56.5117 28.0156 56.5117 27.3281C56.5117 26.7188 55.8398 25.7812 55.543 25.7812C55.6992 26.0938 56.2148 26.7188 56.2148 27.3281C56.2148 27.9531 55.043 28.7188 55.043 28.7188L55.4023 29.0312Z" fill="#9E540A" stroke="black" stroke-width="0.034375" stroke-linecap="round" stroke-linejoin="round"/>
<path id="Vector_15" d="M55.4021 29.0312C55.4021 29.0312 55.1833 28.0156 55.1833 27.3281C55.1833 26.4062 55.8396 25.5625 55.7771 25.3281C55.5427 25.5625 54.8864 26.25 54.8864 27.3281C54.8864 28.2656 55.0427 28.7188 55.0427 28.7188L55.4021 29.0312Z" fill="#9E540A" stroke="black" stroke-width="0.034375" stroke-linecap="round" stroke-linejoin="round"/>
<g id="Group_6">
<path id="Vector_16" d="M55.1367 28.7031C55.1367 28.4062 55.2461 28.1406 55.4336 27.9375C55.6836 27.6406 56.0586 27.5469 56.4492 27.6094C56.918 27.6875 57.293 27.9688 57.5273 28.4062C57.8398 28.9844 57.8711 29.6094 57.8867 30.2188C57.8867 32.3281 57.8086 33.1875 57.7461 35.2656C57.7305 35.875 57.6211 37.125 57.9023 38.1094C58.0117 38.5312 58.1367 38.9219 58.3242 39.3281C58.1992 38.8125 58.1367 38.5469 58.0742 38.1562C57.9023 37.1406 57.9492 36.1875 57.9805 35.25C58.043 33.3281 58.1523 32.3438 58.2148 30.0156C58.2305 29.3125 58.168 28.7812 57.8398 28.2188C57.4961 27.6406 56.9023 27.2188 56.2305 27.2188C55.9492 27.2188 55.7148 27.2656 55.4805 27.4062C55.0117 27.6562 54.793 28.1719 54.793 28.6875L55.1367 28.7031Z" fill="#9E540A" stroke="#FCD116" stroke-width="0.1875" stroke-linecap="round" stroke-linejoin="round"/>
<path id="a_2" d="M55.1367 28.7031C55.1367 28.4062 55.2461 28.1406 55.4336 27.9375C55.6836 27.6406 56.0586 27.5469 56.4492 27.6094C56.918 27.6875 57.293 27.9688 57.5273 28.4062C57.8398 28.9844 57.8711 29.6094 57.8867 30.2188C57.8867 32.3281 57.8086 33.1875 57.7461 35.2656C57.7305 35.875 57.6211 37.125 57.9023 38.1094C58.0117 38.5312 58.1367 38.9219 58.3242 39.3281C58.1992 38.8125 58.1367 38.5469 58.0742 38.1562C57.9023 37.1406 57.9492 36.1875 57.9805 35.25C58.043 33.3281 58.1523 32.3438 58.2148 30.0156C58.2305 29.3125 58.168 28.7812 57.8398 28.2188C57.4961 27.6406 56.9023 27.2188 56.2305 27.2188C55.9492 27.2188 55.7148 27.2656 55.4805 27.4062C55.0117 27.6562 54.793 28.1719 54.793 28.6875L55.1367 28.7031Z" fill="#9E540A"/>
</g>
<path id="Vector_17" d="M55.043 36.2344C55.043 36.2344 55.4805 37.0156 55.8086 37.5781C56.1367 38.1406 56.4024 38.2656 56.6524 38.0938C56.8867 37.9219 56.6836 37.4688 56.4961 37.25C56.3086 37.0312 55.2617 36.0156 55.2617 36.0156L55.043 36.2344Z" fill="#9E540A" stroke="black" stroke-width="0.034375" stroke-linecap="round" stroke-linejoin="round"/>
<path id="Vector_18" d="M54.934 36.2969C54.934 36.2969 55.1059 37.1875 55.2465 37.8281C55.3715 38.4688 55.5903 38.6875 55.8559 38.6094C56.1372 38.5469 56.0903 38.0312 55.9809 37.7656C55.8715 37.5 55.2153 36.1562 55.2153 36.1562L54.934 36.2969Z" fill="#9E540A" stroke="black" stroke-width="0.034375" stroke-linecap="round" stroke-linejoin="round"/>
<path id="Vector_19" d="M54.7454 36.3281V37.8906C54.7454 38.5469 54.9017 38.8125 55.1986 38.7969C55.4798 38.7812 55.5423 38.2812 55.4798 37.9844C55.4329 37.7031 55.0423 36.25 55.0423 36.25L54.7454 36.3281Z" fill="#9E540A" stroke="black" stroke-width="0.034375" stroke-linecap="round" stroke-linejoin="round"/>
</g>
<g id="c">
<path id="Vector_20" d="M54.7461 36.3125C53.918 36.2969 53.8398 36 53.8398 36C53.8398 36 53.7305 35.625 53.7148 35.3906C53.6992 35.3594 53.4805 34.8906 53.543 34.6875C53.4648 34.5 53.2773 34.0469 53.4492 33.9688C53.3711 33.75 53.2461 33.5 53.2305 33.2656C53.168 33.0938 53.0117 32.7188 53.1367 32.5938C53.1367 32.5938 52.8398 31.9688 52.9805 31.8125C52.9805 31.8125 52.8398 31.2031 52.9805 31.0469C52.9805 31.0469 52.9805 30.4219 53.1367 30.2656C53.1367 30.2656 53.1367 29.6562 53.2773 29.5C53.2773 29.5312 53.7148 28.6406 54.7461 28.6406L54.7305 29.9688H54.7461V36.3125Z" fill="#9E540A" stroke="black" stroke-width="0.034375" stroke-linecap="round" stroke-linejoin="round"/>
<path id="Vector_21" d="M54.7461 33.6719C53.418 33.6719 53.2773 33.3594 53.2773 33.3594L53.2305 33.2656M54.7461 32.9062C53.418 32.8906 53.1367 32.5938 53.1367 32.5938L54.7461 32.9062ZM54.7461 32.125C53.418 32.125 52.9805 31.8125 52.9805 31.8125L54.7461 32.125ZM54.7461 31.3594C53.418 31.3438 52.9805 31.0469 52.9805 31.0469L54.7461 31.3594ZM54.7461 30.5781C53.418 30.5625 53.1367 30.2656 53.1367 30.2656L54.7461 30.5781ZM54.7305 29.9688C54.7461 29.9688 53.7305 29.9688 53.5742 29.8125L53.2773 29.5156L54.7305 29.9688ZM54.7461 35.6875C54.3555 35.6875 53.918 35.625 53.7148 35.3906L54.7461 35.6875ZM54.7461 35.0625C54.0117 35.0625 53.5742 34.7656 53.5742 34.7656C53.5742 34.7656 53.5586 34.7344 53.543 34.6875L54.7461 35.0625ZM54.7461 34.2969C53.7773 34.2812 53.5117 34.0781 53.4492 33.9688L54.7461 34.2969Z" stroke="black" stroke-width="0.034375" stroke-linecap="round" stroke-linejoin="round"/>
</g>
<g id="Group_7">
<path id="Vector_22" d="M54.7461 36.3125C55.5742 36.2969 55.6523 36 55.6523 36C55.6523 36 55.7617 35.625 55.7773 35.3906C55.793 35.3594 56.0117 34.8906 55.9492 34.6875C56.0273 34.5 56.2148 34.0469 56.043 33.9688C56.1211 33.75 56.2461 33.5 56.2617 33.2656C56.3242 33.0938 56.4805 32.7188 56.3555 32.5938C56.3555 32.5938 56.6523 31.9688 56.5117 31.8125C56.5117 31.8125 56.6523 31.2031 56.5117 31.0469C56.5117 31.0469 56.5117 30.4219 56.3555 30.2656C56.3555 30.2656 56.3555 29.6562 56.2148 29.5C56.2148 29.5312 55.7773 28.6406 54.7461 28.6406L54.7617 29.9688H54.7461V36.3125Z" fill="#9E540A" stroke="black" stroke-width="0.034375" stroke-linecap="round" stroke-linejoin="round"/>
<path id="Vector_23" d="M54.7461 33.6719C56.0742 33.6719 56.2148 33.3594 56.2148 33.3594L56.2617 33.2656M54.7461 32.9062C56.0742 32.8906 56.3555 32.5938 56.3555 32.5938L54.7461 32.9062ZM54.7461 32.125C56.0742 32.125 56.5117 31.8125 56.5117 31.8125L54.7461 32.125ZM54.7461 31.3594C56.0742 31.3438 56.5117 31.0469 56.5117 31.0469L54.7461 31.3594ZM54.7461 30.5781C56.0742 30.5625 56.3555 30.2656 56.3555 30.2656L54.7461 30.5781ZM54.7617 29.9688C54.7461 29.9688 55.7617 29.9688 55.918 29.8125L56.2148 29.5156L54.7617 29.9688ZM54.7461 35.6875C55.1367 35.6875 55.5742 35.625 55.7773 35.3906L54.7461 35.6875ZM54.7461 35.0625C55.4805 35.0625 55.918 34.7656 55.918 34.7656C55.918 34.7656 55.9336 34.7344 55.9492 34.6875L54.7461 35.0625ZM54.7461 34.2969C55.7148 34.2812 55.9805 34.0781 56.043 33.9688L54.7461 34.2969Z" stroke="black" stroke-width="0.034375" stroke-linecap="round" stroke-linejoin="round"/>
</g>
</g>
<g id="Group_8">
<g id="d">
<g id="Vector_24">
<path d="M48.4956 50.6875C47.8237 51.3125 46.5269 50.9062 46.1206 50.625C45.6987 50.7656 44.5737 50.3281 44.2769 49.8438C43.4644 49.9531 43.1831 48.7969 43.3237 48.5C43.5425 48.0625 43.1519 47.7812 43.4331 47.4844C43.8237 47.1094 43.2144 46.75 43.5894 46.5C43.9644 46.2344 43.4956 45.7969 43.8706 45.5156C44.2612 45.2188 43.6675 44.8125 44.0737 44.6094C44.48 44.4062 44.0269 43.875 44.3706 43.6719C44.7144 43.4688 44.1675 42.9531 44.6362 42.7188C45.0894 42.4844 44.6831 42.0781 45.0425 41.9062C45.4331 41.7031 45.0737 41.2812 45.4331 41.1406C45.8394 40.9688 45.5425 40.5156 45.8862 40.3906C46.1831 40.2812 45.9956 40 46.1831 39.75H48.4956" fill="#009E49"/>
<path d="M48.4956 50.6875C47.8237 51.3125 46.5269 50.9062 46.1206 50.625C45.6987 50.7656 44.5737 50.3281 44.2769 49.8438C43.4644 49.9531 43.1831 48.7969 43.3237 48.5C43.5425 48.0625 43.1519 47.7812 43.4331 47.4844C43.8237 47.1094 43.2144 46.75 43.5894 46.5C43.9644 46.2344 43.4956 45.7969 43.8706 45.5156C44.2612 45.2188 43.6675 44.8125 44.0737 44.6094C44.48 44.4062 44.0269 43.875 44.3706 43.6719C44.7144 43.4688 44.1675 42.9531 44.6362 42.7188C45.0894 42.4844 44.6831 42.0781 45.0425 41.9062C45.4331 41.7031 45.0737 41.2812 45.4331 41.1406C45.8394 40.9688 45.5425 40.5156 45.8862 40.3906C46.1831 40.2812 45.9956 40 46.1831 39.75H48.4956" stroke="black" stroke-width="0.034375" stroke-linecap="round" stroke-linejoin="round"/>
</g>
<path id="Vector_25" d="M47.5589 39.9531C47.2777 40.3438 47.7152 40.5156 47.4495 40.8281C47.1839 41.1562 47.5589 41.2656 47.3558 41.6406C47.1527 42.0156 47.512 42.1094 47.2464 42.4844C46.9808 42.8594 47.387 43.1562 47.1058 43.5312C46.8089 43.9062 47.2464 44.1094 46.9808 44.4844C46.7308 44.875 47.1058 45.0781 46.8714 45.3594C46.637 45.6562 47.0433 45.9375 46.7464 46.2969C46.4652 46.6406 46.8714 46.9062 46.637 47.2188C46.4027 47.5469 46.7308 47.8906 46.5277 48.1562C46.3245 48.4062 46.6683 48.7969 46.3714 49.1406C46.0902 49.4844 46.4339 49.7188 46.262 49.9531C46.0902 50.1875 45.9495 50.5312 46.1214 50.625M46.9495 39.8438C46.637 40.1562 47.012 40.3906 46.6995 40.7656C46.3714 41.1562 46.6683 41.3594 46.4027 41.7031C46.137 42.0469 46.5277 42.2188 46.2308 42.6094C45.9339 42.9844 46.2933 43.2188 45.9652 43.5312C45.6527 43.8594 46.0277 44.1406 45.6995 44.4844C45.387 44.8438 45.762 45.0781 45.4495 45.3906C45.1214 45.7188 45.4964 46.0625 45.1839 46.375C44.8714 46.7031 45.2464 47.1094 44.887 47.4844C44.5433 47.8594 44.9495 48.1562 44.6683 48.4375C44.3714 48.7344 44.637 49.0312 44.4339 49.2344C44.2308 49.4375 44.1995 49.7188 44.2777 49.8438L46.9495 39.8438Z" stroke="black" stroke-width="0.034375" stroke-linecap="round" stroke-linejoin="round"/>
</g>
<g id="Group_9">
<g id="Vector_26">
<path d="M48.4946 50.6875C49.1665 51.3125 50.4634 50.9062 50.8696 50.625C51.2915 50.7656 52.4165 50.3281 52.7134 49.8438C53.5259 49.9531 53.8071 48.7969 53.6665 48.5C53.4478 48.0625 53.8384 47.7812 53.5571 47.4844C53.1665 47.1094 53.7759 46.75 53.4009 46.5C53.0259 46.2344 53.4946 45.7969 53.1196 45.5156C52.729 45.2188 53.3228 44.8125 52.9165 44.6094C52.5103 44.4062 52.9634 43.875 52.6196 43.6719C52.2759 43.4688 52.8228 42.9531 52.354 42.7188C51.9009 42.4844 52.3071 42.0781 51.9478 41.9062C51.5571 41.7031 51.9165 41.2812 51.5571 41.1406C51.1509 40.9688 51.4478 40.5156 51.104 40.3906C50.8071 40.2812 50.9946 40 50.8071 39.75H48.4946" fill="#009E49"/>
<path d="M48.4946 50.6875C49.1665 51.3125 50.4634 50.9062 50.8696 50.625C51.2915 50.7656 52.4165 50.3281 52.7134 49.8438C53.5259 49.9531 53.8071 48.7969 53.6665 48.5C53.4478 48.0625 53.8384 47.7812 53.5571 47.4844C53.1665 47.1094 53.7759 46.75 53.4009 46.5C53.0259 46.2344 53.4946 45.7969 53.1196 45.5156C52.729 45.2188 53.3228 44.8125 52.9165 44.6094C52.5103 44.4062 52.9634 43.875 52.6196 43.6719C52.2759 43.4688 52.8228 42.9531 52.354 42.7188C51.9009 42.4844 52.3071 42.0781 51.9478 41.9062C51.5571 41.7031 51.9165 41.2812 51.5571 41.1406C51.1509 40.9688 51.4478 40.5156 51.104 40.3906C50.8071 40.2812 50.9946 40 50.8071 39.75H48.4946" stroke="black" stroke-width="0.034375" stroke-linecap="round" stroke-linejoin="round"/>
</g>
<path id="Vector_27" d="M49.4313 39.9531C49.7126 40.3438 49.2751 40.5156 49.5407 40.8281C49.8063 41.1562 49.4313 41.2656 49.6345 41.6406C49.8376 42.0156 49.4782 42.1094 49.7438 42.4844C50.0095 42.8594 49.6032 43.1562 49.8845 43.5312C50.1813 43.9062 49.7438 44.1094 50.0095 44.4844C50.2595 44.875 49.8845 45.0781 50.1188 45.3594C50.3532 45.6562 49.947 45.9375 50.2438 46.2969C50.5251 46.6406 50.1188 46.9062 50.3532 47.2188C50.5876 47.5469 50.2595 47.8906 50.4626 48.1562C50.6657 48.4062 50.322 48.7969 50.6188 49.1406C50.9001 49.4844 50.5563 49.7188 50.7282 49.9531C50.9001 50.1875 51.0407 50.5312 50.8688 50.625M50.0407 39.8438C50.3532 40.1562 49.9782 40.3906 50.2907 40.7656C50.6188 41.1562 50.322 41.3594 50.5876 41.7031C50.8532 42.0469 50.4626 42.2188 50.7595 42.6094C51.0563 42.9844 50.697 43.2188 51.0251 43.5312C51.3376 43.8594 50.9626 44.1406 51.2907 44.4844C51.6032 44.8438 51.2282 45.0781 51.5407 45.3906C51.8688 45.7188 51.4938 46.0625 51.8063 46.375C52.1188 46.7031 51.7438 47.1094 52.1032 47.4844C52.447 47.8594 52.0407 48.1562 52.322 48.4375C52.6188 48.7344 52.3532 49.0312 52.5563 49.2344C52.7595 49.4375 52.7907 49.7188 52.7126 49.8438L50.0407 39.8438Z" stroke="black" stroke-width="0.034375" stroke-linecap="round" stroke-linejoin="round"/>
</g>
<path id="Vector_28" d="M48.4961 50.6875V39.75" stroke="#009E49" stroke-width="0.034375" stroke-linecap="round" stroke-linejoin="round"/>
<path id="Vector_29" d="M48.495 40.3125C48.3544 40.9219 48.6982 41.4531 48.495 41.9688C48.2919 42.4688 48.6357 42.6719 48.5263 43.0781C48.4013 43.4844 48.6669 43.7812 48.495 44.2188C48.3232 44.6562 48.7294 45 48.495 45.5781C48.2607 46.1406 48.6513 46.2812 48.495 46.8594C48.3232 47.5156 48.7919 47.8594 48.495 48.3281C48.1982 48.7969 48.7607 48.9062 48.5263 49.4375C48.2919 49.9531 48.6669 50.1562 48.495 50.6875" stroke="black" stroke-width="0.034375" stroke-linecap="round" stroke-linejoin="round"/>
<path id="Vector_30" d="M48.7305 42.2812C48.6523 42.4531 48.9648 42.8594 48.793 43.1719C48.6055 43.4687 48.8867 43.9375 48.6992 44.3125C48.5117 44.6875 48.9961 45.1562 48.8086 45.5937C48.6055 46.0312 48.9023 46.5781 48.8086 46.9844C48.7305 47.3906 49.0117 48.1719 48.8086 48.4531C48.6055 48.75 49.0117 48.8281 48.7773 49.5469C48.543 50.2656 48.3867 49.6562 48.5273 49.4375C48.8242 48.9531 48.1992 48.7969 48.4961 48.3281C48.793 47.8594 48.3242 47.5156 48.4961 46.8594C48.6523 46.2812 48.2617 46.1406 48.4961 45.5781C48.7305 45 48.3242 44.6562 48.4961 44.2187C48.668 43.7812 48.4023 43.4844 48.5273 43.0781C48.6367 42.6719 48.293 42.4687 48.4961 41.9687C48.6523 41.4687 48.8086 42.1094 48.7305 42.2812ZM47.418 42.7812C47.3086 42.9687 47.6055 43.3281 47.3398 43.6875C47.1523 43.9375 47.4648 44.2344 47.1992 44.5937C47.0273 44.8437 47.3711 45.1562 47.1367 45.5156C46.9805 45.7187 47.2461 46.1094 47.0586 46.4062C46.8711 46.7187 47.1523 46.9687 46.8242 47.375C46.6367 47.5937 46.9648 48.1406 46.7617 48.3125C46.5586 48.4844 46.7461 49.1562 46.6055 49.25C46.4805 49.3594 46.6055 49.8437 46.2617 49.9531C46.4336 49.7187 46.0898 49.4844 46.3711 49.1406C46.668 48.7969 46.3242 48.4062 46.5273 48.1562C46.7305 47.8906 46.4023 47.5469 46.6367 47.2187C46.8711 46.9062 46.4648 46.6406 46.7461 46.2969C47.043 45.9375 46.6367 45.6562 46.8711 45.3594C47.1055 45.0781 46.7305 44.875 46.9805 44.4844C47.2461 44.1094 46.8086 43.9062 47.1055 43.5312C47.3867 43.1562 46.9805 42.8594 47.2461 42.4844C47.5117 42.1094 47.1523 42.0156 47.3555 41.6406C47.7305 41.7812 47.543 42.5937 47.418 42.7812ZM46.6367 41.7656C46.4805 42.0156 46.6992 42.3125 46.4648 42.625C46.2305 42.9531 46.4648 43.3594 46.2305 43.625C45.9961 43.875 46.293 44.375 45.9961 44.5781C45.6992 44.7812 45.8867 45.3906 45.6523 45.5937C45.418 45.7969 45.6523 46.375 45.3867 46.6719C45.1211 46.9687 45.2461 47.5781 45.0898 47.7187C44.9492 47.8594 45.293 48.1562 45.043 48.3594C44.7773 48.5625 44.7773 48.9687 44.4336 49.2344C44.6367 49.0312 44.3711 48.7344 44.668 48.4375C44.9492 48.1562 44.543 47.8594 44.8867 47.4844C45.2461 47.1094 44.8711 46.7031 45.1836 46.375C45.4961 46.0625 45.1211 45.7187 45.4492 45.3906C45.7617 45.0781 45.3867 44.8437 45.6992 44.4844C46.0273 44.1406 45.6523 43.8594 45.9648 43.5312C46.293 43.2187 45.9336 42.9844 46.2305 42.6094C46.5273 42.2187 46.1367 42.0469 46.4023 41.7031C46.5273 41.5469 46.5273 41.4062 46.5273 41.2812C46.7148 40.7969 46.7148 41.6406 46.6367 41.7656Z" fill="#FCD116" stroke="black" stroke-width="0.034375" stroke-linecap="round" stroke-linejoin="round"/>
<path id="Vector_31" d="M46.3242 40.1094C46.3242 36.8281 46.7773 35.6875 48.4961 35.6875C50.2148 35.6875 50.668 36.8281 50.668 40.1094H46.3242Z" fill="#CE1126" stroke="black" stroke-width="0.034375" stroke-linecap="round" stroke-linejoin="round"/>
<path id="Vector_32" d="M46.3242 40.1094C46.3242 36.8281 46.7773 35.6875 48.4961 35.6875C47.7148 35.6875 47.2305 36.2969 47.1055 36.7031C46.9648 37.1094 47.043 37.0781 47.2148 36.9219C47.3867 36.7656 47.3086 37.1094 47.1523 37.2969C47.0117 37.4844 46.8711 38.0312 47.0742 37.8594C47.2773 37.6719 47.4336 37.875 47.2148 38.1875C46.9961 38.4844 46.8086 39.2031 47.0273 38.9531C47.2461 38.7031 47.293 39.1094 47.1523 39.3125C47.0273 39.5156 47.043 39.7031 47.1523 39.6094C47.2773 39.5156 47.2617 39.9375 47.1523 40.1094H46.3242ZM49.3086 40.0469C49.3086 39.5625 49.3242 38.4219 49.0586 38.0469C48.8711 37.75 48.8711 37.4375 49.0898 37.7812C49.3086 38.125 49.418 37.9531 49.2617 37.6094C49.0742 37.1719 48.8242 36.6875 48.8867 36.5938C48.9648 36.4844 49.0117 36.5312 49.168 36.7656C49.3242 37 49.3555 36.6562 49.1836 36.4219C49.0117 36.2031 49.0273 36.1562 49.3867 36.3125C50.0273 36.5781 50.3398 37.3438 50.3398 39.9219L49.3086 40.0469Z" fill="black" stroke="black" stroke-width="0.034375" stroke-linecap="round" stroke-linejoin="round"/>
<path id="Vector_33" d="M48.4959 40.5781C47.8084 40.5781 47.0584 40.4688 46.5584 40.2656C45.9646 40.0313 45.9334 39.8281 46.1365 39.5781C46.2928 39.3906 46.6053 39.5 46.9178 39.6406C47.2146 39.7656 48.0584 39.8594 48.4959 39.8594C48.9334 39.8594 49.7771 39.7656 50.074 39.625C50.3865 39.5 50.699 39.3906 50.8553 39.5781C51.0584 39.8281 51.0271 40.0313 50.4334 40.2656C49.9334 40.4688 49.1834 40.5781 48.4959 40.5781Z" fill="#CE1126" stroke="black" stroke-width="0.034375" stroke-linecap="round" stroke-linejoin="round"/>
</g>
</g>
</g>
<path id="Vector_34" d="M0.246094 -0.0625H32.2461V31.9375H0.246094V-0.0625Z" fill="#012169"/>
<path id="Vector_35" d="M32.2461 -0.0625V3.9375L20.3711 15.9375L32.2461 27.625V31.9375H28.0586L16.1211 20.1875L4.49609 31.9375H0.246094V27.6875L11.8711 16L0.246094 4.5625V-0.0625H4.12109L16.1211 11.6875L27.7461 -0.0625H32.2461Z" fill="#F5F5F5"/>
<path id="Vector_36" d="M11.7461 20.1875L12.4336 22.3125L2.87109 31.9375H0.246094V31.75L11.7461 20.1875ZM19.4961 19.4375L22.8711 19.9375L32.2461 29.125V31.9375L19.4961 19.4375ZM32.2461 -0.0625L20.2461 12.1875L19.9961 9.4375L29.3711 -0.0625H32.2461ZM0.246094 0L12.3086 11.8125L8.62109 11.3125L0.246094 3V0Z" fill="#C8102E"/>
<path id="Vector_37" d="M11.2461 -0.0625V31.9375H21.2461V-0.0625H11.2461ZM0.246094 10.9375V20.9375H32.2461V10.9375H0.246094Z" fill="#F5F5F5"/>
<path id="Vector_38" d="M0.246094 12.9375V18.9375H32.2461V12.9375H0.246094ZM13.2461 -0.0625V31.9375H19.2461V-0.0625H13.2461Z" fill="#C8102E"/>
</g>
</g>
<defs>
<clipPath id="clip0_2909_185279">
<path d="M0.246094 32C0.246094 14.3269 14.573 0 32.2461 0V0C49.9192 0 64.2461 14.3269 64.2461 32V32C64.2461 49.6731 49.9192 64 32.2461 64V64C14.573 64 0.246094 49.6731 0.246094 32V32Z" fill="white"/>
</clipPath>
</defs>
</svg>
