<svg width="65" height="64" viewBox="0 0 65 64" fill="none" xmlns="http://www.w3.org/2000/svg">
<g id="Rounded=French Southern Territories (TF)">
<g clip-path="url(#clip0_2909_185417)">
<path id="Vector" d="M0.246094 0H64.2461V64H0.246094V0Z" fill="#002395"/>
<path id="Vector_2" d="M0.246094 0H39.2836V26.25H0.246094V0Z" fill="#F5F5F5"/>
<path id="Vector_3" d="M0.246094 0H13.0461V25.6H0.246094V0Z" fill="#002395"/>
<path id="Vector_4" d="M25.8457 0H38.6457V25.6H25.8457V0Z" fill="#ED2939"/>
<path id="Vector_5" d="M35.5465 29.275L37.609 32.5625H43.4715V44L39.059 37.125L33.1465 46.5625H36.0215L39.0715 41.125L45.309 52.325L51.5465 41.125L54.584 46.5625H57.459L51.559 37.125L47.159 44V37.675H49.7965L51.759 34.55H47.159V32.55H53.0215L55.084 29.275H35.5465ZM42.4215 43.275H36.0215V45.525H42.4215V43.275ZM54.584 43.275H48.184V45.525H54.584V43.275Z" fill="#F5F5F5"/>
</g>
</g>
<defs>
<clipPath id="clip0_2909_185417">
<path d="M0.246094 32C0.246094 14.3269 14.573 0 32.2461 0V0C49.9192 0 64.2461 14.3269 64.2461 32V32C64.2461 49.6731 49.9192 64 32.2461 64V64C14.573 64 0.246094 49.6731 0.246094 32V32Z" fill="white"/>
</clipPath>
</defs>
</svg>
