<svg width="65" height="64" viewBox="0 0 65 64" fill="none" xmlns="http://www.w3.org/2000/svg">
<g id="Rounded=Togo (TG)">
<g clip-path="url(#clip0_2909_185472)">
<g id="Group">
<path id="Vector" fill-rule="evenodd" clip-rule="evenodd" d="M0.246094 0.0117188H96.1849V63.9967H0.246094V0.0117188Z" fill="#FFE300"/>
<path id="Vector_2" fill-rule="evenodd" clip-rule="evenodd" d="M0.246094 26.0209H96.1849V38.8772H0.246094V26.0209ZM0.246094 0.0375061H96.1849V12.8938H0.246094V0.0375061Z" fill="#118600"/>
<path id="Vector_3" fill-rule="evenodd" clip-rule="evenodd" d="M0.246094 0.0375061H38.5571V38.8772H0.246094V0.0375061Z" fill="#D80000"/>
<path id="Vector_4" fill-rule="evenodd" clip-rule="evenodd" d="M17.0481 16.066C17.0481 15.9499 19.4078 9.42508 19.4078 9.42508L21.5484 15.9499C21.5484 15.9499 28.718 16.1692 28.718 16.0531C28.718 15.9371 23.0442 20.3342 23.0442 20.3342C23.0442 20.3342 25.7135 27.8262 25.6103 27.6199C25.5072 27.4007 19.4078 23.1196 19.4078 23.1196C19.4078 23.1196 13.1925 27.4007 13.3085 27.4007C13.4246 27.4007 15.6554 20.3471 15.6554 20.3471L10.0977 16.1563L17.0481 16.0531V16.066Z" fill="#F5F5F5"/>
<path id="Vector_5" fill-rule="evenodd" clip-rule="evenodd" d="M0.246094 51.1533H96.1849V64.0096H0.246094V51.1533Z" fill="#118600"/>
</g>
</g>
</g>
<defs>
<clipPath id="clip0_2909_185472">
<path d="M0.246094 32C0.246094 14.3269 14.573 0 32.2461 0V0C49.9192 0 64.2461 14.3269 64.2461 32V32C64.2461 49.6731 49.9192 64 32.2461 64V64C14.573 64 0.246094 49.6731 0.246094 32V32Z" fill="white"/>
</clipPath>
</defs>
</svg>
