<svg width="65" height="64" viewBox="0 0 65 64" fill="none" xmlns="http://www.w3.org/2000/svg">
<g id="Rounded=Tajikistan (TJ)">
<g clip-path="url(#clip0_2909_185276)">
<path id="Vector" d="M0.246094 0H64.2461V64H0.246094V0Z" fill="#006600"/>
<path id="Vector_2" d="M0.246094 0H64.2461V45.7125H0.246094V0Z" fill="#F5F5F5"/>
<path id="Vector_3" d="M0.246094 0H64.2461V18.2875H0.246094V0Z" fill="#CC0000"/>
<g id="Group">
<path id="Vector_4" d="M29.686 31.1498C29.8108 30.9351 30.0021 30.767 30.231 30.6708C30.4598 30.5745 30.7138 30.5554 30.9545 30.6164C31.1952 30.6773 31.4095 30.815 31.5649 31.0085C31.7204 31.2021 31.8086 31.441 31.8163 31.6892V36.2606H32.6757V31.6892C32.6833 31.441 32.7715 31.2021 32.927 31.0085C33.0825 30.815 33.2968 30.6773 33.5375 30.6164C33.7782 30.5554 34.0321 30.5745 34.261 30.6708C34.4899 30.767 34.6812 30.9351 34.806 31.1498C34.9404 30.7445 34.9767 30.313 34.9118 29.8909C34.847 29.4689 34.6828 29.0682 34.4328 28.722C34.1829 28.3758 33.8543 28.0938 33.4741 27.8994C33.0939 27.7049 32.673 27.6035 32.246 27.6035C31.8189 27.6035 31.398 27.7049 31.0178 27.8994C30.6376 28.0938 30.3091 28.3758 30.0591 28.722C29.8092 29.0682 29.645 29.4689 29.5801 29.8909C29.5153 30.313 29.5515 30.7445 29.686 31.1498" fill="#F8C300"/>
<path id="Vector_5" d="M30.2988 29.9521C30.6745 29.8758 31.0646 29.9195 31.414 30.077C31.7635 30.2345 32.0546 30.4978 32.2463 30.8298C32.4379 30.4978 32.729 30.2345 33.0785 30.077C33.4279 29.9195 33.818 29.8758 34.1937 29.9521C34.1291 29.4815 33.8962 29.0502 33.5382 28.738C33.1802 28.4258 32.7213 28.2538 32.2463 28.2538C31.7713 28.2538 31.3123 28.4258 30.9543 28.738C30.5963 29.0502 30.3635 29.4815 30.2988 29.9521" fill="#F5F5F5"/>
<path id="a" d="M31.8162 34.4321C31.7571 35.0798 31.5174 35.6979 31.1244 36.216C30.7313 36.7342 30.2007 37.1316 29.5929 37.3631C28.9851 37.5946 28.3246 37.6509 27.6864 37.5255C27.0482 37.4001 26.4581 37.098 25.9831 36.6538C25.7806 37.1644 25.4644 37.6222 25.0584 37.9922C24.6524 38.3622 24.1673 38.6347 23.6401 38.789C23.1129 38.9433 22.5574 38.9753 22.016 38.8825C21.4746 38.7898 20.9614 38.5748 20.5156 38.2538C20.8539 41.5818 25.8459 40.9052 26.2116 37.6686C27.7842 40.4207 31.2402 39.6344 32.2459 36.2606L31.8162 34.4321Z" fill="#F8C300"/>
<path id="Vector_6" d="M32.676 34.4321C32.7351 35.0798 32.9748 35.6979 33.3678 36.216C33.7609 36.7342 34.2915 37.1316 34.8993 37.3631C35.5071 37.5946 36.1676 37.6509 36.8058 37.5255C37.444 37.4001 38.0341 37.098 38.5091 36.6538C38.7115 37.1644 39.0278 37.6222 39.4338 37.9922C39.8398 38.3622 40.3249 38.6347 40.8521 38.789C41.3793 38.9433 41.9348 38.9753 42.4762 38.8825C43.0176 38.7898 43.5308 38.5748 43.9766 38.2538C43.6383 41.5818 38.6463 40.9052 38.2806 37.6686C36.708 40.4207 33.252 39.6344 32.2463 36.2606L32.676 34.4321Z" fill="#F8C300"/>
<path id="b" d="M28.4803 40.3475C27.7854 41.8561 26.3957 42.1121 25.1797 40.8961C25.1797 40.8961 25.6643 40.5486 26.1854 40.4572C26.1536 40.2238 26.1722 39.9864 26.24 39.7608C26.3078 39.5352 26.4233 39.3269 26.5785 39.1498C26.9695 39.4032 27.2604 39.7846 27.4014 40.2286C28.1328 40.1372 28.4803 40.3475 28.4803 40.3475V40.3475Z" fill="#F8C300"/>
<path id="Vector_7" d="M33.9454 40.1775C33.0135 41.5524 31.6006 41.578 30.5996 40.1797C30.5996 40.1797 31.1344 39.9161 31.6634 39.911C31.6701 39.6755 31.7273 39.4443 31.831 39.2328C31.9348 39.0214 32.0827 38.8347 32.2648 38.6853C32.6092 38.9992 32.8338 39.4229 32.9004 39.8841C33.637 39.9133 33.9454 40.1775 33.9454 40.1775V40.1775Z" fill="#F8C300"/>
<path id="Vector_8" d="M39.3107 40.8904C38.1689 42.0965 36.7704 41.8934 36.0085 40.3518C36.0085 40.3518 36.5789 40.178 37.1018 40.2585C37.1465 40.0273 37.2402 39.8083 37.3768 39.6164C37.5134 39.4245 37.6895 39.2641 37.8934 39.1462C38.1824 39.5116 38.3357 39.966 38.3269 40.4319C39.049 40.5798 39.3107 40.8904 39.3107 40.8904V40.8904Z" fill="#F8C300"/>
<path id="Vector_9" d="M23.377 43.7029C29.1639 41.9804 35.3272 41.9804 41.1141 43.7029" stroke="#F8C300" stroke-width="1.46286"/>
<g id="Group_2">
<g id="Group_3">
<path id="c" d="M34.4803 21.2173L30.8667 23.8427L32.247 19.5947L33.6272 23.8427L30.0137 21.2173H34.4803Z" fill="#F8C300"/>
</g>
<g id="d">
<path id="Vector_10" d="M28.0799 22.9361L24.4663 25.5615L25.8466 21.3135L27.2268 25.5615L23.6133 22.9361H28.0799Z" fill="#F8C300"/>
<path id="Vector_11" d="M23.3982 27.6173L19.7847 30.2427L21.1649 25.9947L22.5452 30.2427L18.9316 27.6173H23.3982Z" fill="#F8C300"/>
<path id="Vector_12" d="M21.6795 34.0173L18.0659 36.6427L19.4462 32.3947L20.8264 36.6427L17.2129 34.0173H21.6795Z" fill="#F8C300"/>
</g>
<g id="Group_4">
<path id="Vector_13" d="M36.4123 22.9361L40.0259 25.5615L38.6456 21.3135L37.2654 25.5615L40.8789 22.9361H36.4123Z" fill="#F8C300"/>
<path id="Vector_14" d="M41.094 27.6173L44.7075 30.2427L43.3272 25.9947L41.947 30.2427L45.5605 27.6173H41.094Z" fill="#F8C300"/>
<path id="Vector_15" d="M42.8127 34.0173L46.4263 36.6427L45.046 32.3947L43.6657 36.6427L47.2793 34.0173H42.8127Z" fill="#F8C300"/>
</g>
</g>
</g>
</g>
</g>
<defs>
<clipPath id="clip0_2909_185276">
<path d="M0.246094 32C0.246094 14.3269 14.573 0 32.2461 0V0C49.9192 0 64.2461 14.3269 64.2461 32V32C64.2461 49.6731 49.9192 64 32.2461 64V64C14.573 64 0.246094 49.6731 0.246094 32V32Z" fill="white"/>
</clipPath>
</defs>
</svg>
