<svg width="65" height="64" viewBox="0 0 65 64" fill="none" xmlns="http://www.w3.org/2000/svg">
<g id="Rounded=Turkmenistan (TM)">
<g clip-path="url(#clip0_2909_185508)">
<g id="Group">
<path id="Vector" fill-rule="evenodd" clip-rule="evenodd" d="M0.246094 0H96.2314V63.9902H0.246094V0Z" fill="#00843D"/>
<g id="Group_2">
<path id="Vector_2" fill-rule="evenodd" clip-rule="evenodd" d="M33.1562 17.1845C36.6396 18.8616 40.7938 17.1845 42.3032 14.8622C43.8514 12.6948 44.032 9.05666 41.3614 5.71524C45.4898 9.14697 46.4187 13.0302 44.3545 16.2298C41.6195 19.8808 35.5301 19.7776 33.1562 17.1845V17.1845Z" fill="#F5F5F5"/>
<path id="Vector_3" fill-rule="evenodd" clip-rule="evenodd" d="M38.5624 9.83075L38.7559 9.13409L38.1883 8.70834L38.8849 8.68254L39.1171 7.99878L39.3494 8.68254H40.046L39.4913 9.13409L39.6977 9.81785L39.13 9.40501L38.5624 9.83075ZM35.0791 14.1656L35.2855 13.4818L34.7178 13.0432L35.4274 13.0303L35.6467 12.3465L35.8918 13.0174L36.5885 13.0303L36.0337 13.4689L36.2402 14.1656L35.6596 13.7527L35.0791 14.1656ZM35.3113 10.7467L35.5177 10.0501L34.95 9.62433L35.6467 9.59853L35.8789 8.91476L36.1112 9.59853H36.8207L36.266 10.0501L36.4724 10.7338L35.8918 10.321L35.3113 10.7467ZM35.3113 7.31501L35.5177 6.61834L34.95 6.1926L35.6467 6.1668L35.8789 5.48303L36.1112 6.1668H36.8207L36.266 6.61834L36.4724 7.30211L35.8918 6.90217L35.3113 7.31501ZM31.4667 11.6627L31.6602 10.9661L31.1055 10.5274L31.8021 10.5145L32.0344 9.83075L32.2666 10.5016L32.9633 10.5145L32.4085 10.9532L32.6149 11.6498L32.0344 11.237L31.4667 11.6627Z" fill="#F5F5F5"/>
</g>
<path id="Vector_4" fill-rule="evenodd" clip-rule="evenodd" d="M6.18164 0H26.7591V63.9902H6.19454L6.18164 0Z" fill="#CA3745"/>
<g id="Group_3">
<path id="Vector_5" fill-rule="evenodd" clip-rule="evenodd" d="M6.18164 16.6813V16.2298L7.04602 15.0816L6.86541 14.8622L7.38146 14.1656L7.21374 13.9463L6.86541 14.3978L6.69769 14.1656L7.89751 12.5658L8.06522 12.798L7.89751 13.0303L8.24584 13.4947L9.09732 12.3336L8.23294 11.237L7.89751 11.6627L8.06522 11.8821L7.89751 12.1143L6.69769 10.5145L6.86541 10.2823L7.21374 10.7467L7.38146 10.5145L6.86541 9.83076L7.04602 9.59853L6.19454 8.46322V7.99878L7.38146 9.59853L7.21374 9.83076L7.72979 10.5145L7.38146 10.9661L7.72979 11.4305L8.24584 10.7467L9.44566 12.3723L8.24584 13.9334L7.72979 13.2496L7.38146 13.7011L7.72979 14.1527L7.21374 14.8493L7.38146 15.0687L6.19454 16.6684L6.18164 16.6813Z" fill="#FAAE29"/>
<path id="Vector_6" fill-rule="evenodd" clip-rule="evenodd" d="M6.18164 10.9661L6.36226 11.4305V12.1143H6.87831L7.21374 12.3465L6.87831 12.5658H6.36226V13.2625L6.19454 13.714V10.9661H6.18164Z" fill="#FAAE29"/>
</g>
<g id="Group_4">
<path id="Vector_7" fill-rule="evenodd" clip-rule="evenodd" d="M6.18164 27.6603V27.1958L7.04602 26.0605L6.86541 25.8283L7.38146 25.1445L7.21374 24.8994L6.86541 25.351L6.69769 25.1574L7.89751 23.5577L8.06522 23.777L7.89751 24.0092L8.24584 24.4737L9.09732 23.3255L8.23294 22.216L7.89751 22.6417L8.06522 22.8739L7.89751 23.0932L6.69769 21.4935L6.86541 21.2742L7.21374 21.7257L7.38146 21.4935L6.86541 20.8097L7.04602 20.5904L6.19454 19.4293V18.9648L7.38146 20.5646L7.21374 20.7968L7.72979 21.4806L7.38146 21.945L7.72979 22.3966L8.24584 21.7128L9.44566 23.3384L8.24584 24.9123L7.72979 24.2286L7.38146 24.6801L7.72979 25.1574L7.21374 25.8412L7.38146 26.0734L6.19454 27.6732L6.18164 27.6603Z" fill="#FAAE29"/>
<path id="Vector_8" fill-rule="evenodd" clip-rule="evenodd" d="M6.18164 21.9321L6.36226 22.3966V23.0803H6.87831L7.21374 23.3126L6.87831 23.5448H6.36226V24.2286L6.19454 24.6801V21.945L6.18164 21.9321Z" fill="#FAAE29"/>
</g>
<g id="Group_5">
<path id="Vector_9" fill-rule="evenodd" clip-rule="evenodd" d="M6.18164 38.6264V38.1748L7.04602 37.0266L6.86541 36.7944L7.38146 36.1106L7.21374 35.8913L6.86541 36.3428L6.69769 36.1106L7.89751 34.5109L8.06522 34.7431L7.89751 34.9753L8.24584 35.4268L9.09732 34.2786L8.23294 33.1691L7.89751 33.5949L8.06522 33.8271L7.89751 34.0593L6.69769 32.4596L6.86541 32.2273L7.21374 32.6789L7.38146 32.4596L6.86541 31.7758L7.04602 31.5436L6.19454 30.3954V29.9438L7.38146 31.5436L7.21374 31.7758L7.72979 32.4596L7.38146 32.9111L7.72979 33.3756L8.24584 32.6918L9.44566 34.3173L8.24584 35.8913L7.72979 35.1946L7.38146 35.6591L7.72979 36.1106L7.21374 36.7944L7.38146 37.0266L6.19454 38.6264H6.18164Z" fill="#FAAE29"/>
<path id="Vector_10" fill-rule="evenodd" clip-rule="evenodd" d="M6.18164 32.9111L6.36226 33.3755V34.0593H6.87831L7.21374 34.2915L6.87831 34.5108H6.36226V35.1946L6.19454 35.6591V32.8982L6.18164 32.9111Z" fill="#FAAE29"/>
</g>
<g id="Group_6">
<path id="Vector_11" fill-rule="evenodd" clip-rule="evenodd" d="M6.18164 48.9087V48.4571L7.04602 47.3089L6.86541 47.0896L7.38146 46.3929L7.21374 46.1865L6.86541 46.638L6.69769 46.4058L7.89751 44.8061L8.06522 45.0383L7.89751 45.2705L8.24584 45.7349L9.09732 44.5738L8.23294 43.4772L7.89751 43.903L8.06522 44.1223L7.89751 44.3545L6.69769 42.7548L6.86541 42.5225L7.21374 42.987L7.38146 42.7548L6.86541 42.071L7.04602 41.8388L6.19454 40.7035V40.239L7.38146 41.8388L7.21374 42.0581L7.72979 42.7419L7.38146 43.1934L7.72979 43.6578L8.24584 42.9741L9.44566 44.5996L8.24584 46.1736L7.72979 45.4898L7.38146 45.9414L7.72979 46.3929L7.21374 47.0896L7.38146 47.3089L6.19454 48.9087H6.18164Z" fill="#FAAE29"/>
<path id="Vector_12" fill-rule="evenodd" clip-rule="evenodd" d="M6.18164 43.1934L6.36226 43.6579V44.3416H6.87831L7.21374 44.5738L6.87831 44.7932H6.36226V45.4898L6.18164 45.9285V43.1805V43.1934Z" fill="#FAAE29"/>
</g>
<g id="Group_7">
<path id="Vector_13" fill-rule="evenodd" clip-rule="evenodd" d="M26.7589 16.6813V16.2298L25.9074 15.0816L26.0752 14.8622L25.5591 14.1656L25.7397 13.9463L26.0881 14.3978L26.2558 14.1656L25.056 12.5658L24.8753 12.798L25.056 13.0303L24.6947 13.4947L23.8561 12.3336L24.7076 11.237L25.056 11.6627L24.8753 11.8821L25.056 12.1143L26.2558 10.5145L26.0752 10.2823L25.7397 10.7467L25.572 10.5145L26.0881 9.83076L25.9074 9.59853L26.7589 8.45032V7.99878L25.572 9.59853L25.7397 9.83076L25.2237 10.5145L25.572 10.9661L25.2237 11.4305L24.7076 10.7467L23.5078 12.3723L24.7076 13.9463L25.2237 13.2625L25.572 13.714L25.2237 14.1656L25.7397 14.8622L25.572 15.0816L26.7589 16.6813V16.6813Z" fill="#FAAE29"/>
<path id="Vector_14" fill-rule="evenodd" clip-rule="evenodd" d="M26.7587 10.9661L26.5909 11.4305V12.1143H26.0749L25.7266 12.3465L26.0749 12.5658H26.5909V13.2625L26.7587 13.714V10.9661Z" fill="#FAAE29"/>
</g>
<g id="Group_8">
<path id="Vector_15" fill-rule="evenodd" clip-rule="evenodd" d="M26.8226 27.6603V27.1958L25.9582 26.0605L26.1388 25.8283L25.6228 25.1445L25.7905 24.9123L26.1388 25.3768L26.3066 25.1445L25.1067 23.5448L24.939 23.7641L25.1067 23.9963L24.7584 24.4608L23.9069 23.3126L24.7713 22.2031L25.1067 22.6288L24.939 22.861L25.1067 23.0803L26.3066 21.4806L26.1388 21.2613L25.7905 21.7128L25.6228 21.4806L26.1388 20.7968L25.9711 20.5775L26.8097 19.4164V18.9778L25.6228 20.5775L25.7905 20.7968L25.2745 21.4806L25.6228 21.945L25.2745 22.3966L24.7584 21.7128L23.5586 23.3384L24.7713 24.9123L25.2874 24.2286L25.6228 24.6801L25.2745 25.1445L25.7905 25.8283L25.6228 26.0605L26.8226 27.6603V27.6603Z" fill="#FAAE29"/>
<path id="Vector_16" fill-rule="evenodd" clip-rule="evenodd" d="M26.8231 21.9321L26.6425 22.3966V23.0803H26.1264L25.791 23.3126L26.1264 23.5448H26.6425V24.2286L26.8102 24.6801V21.945L26.8231 21.9321Z" fill="#FAAE29"/>
</g>
<g id="Group_9">
<path id="Vector_17" fill-rule="evenodd" clip-rule="evenodd" d="M26.7577 38.6264V38.1748L25.9192 37.0266L26.0869 36.7944L25.5708 36.1106L25.7514 35.8913L26.0998 36.3428L26.2675 36.1106L25.0677 34.5109L24.8871 34.7431L25.0677 34.9753L24.7064 35.4268L23.8679 34.2786L24.7193 33.1691L25.0677 33.5949L24.8871 33.8271L25.0677 34.0593L26.2675 32.4596L26.0869 32.2273L25.7514 32.6789L25.5837 32.4596L26.0998 31.7758L25.9192 31.5436L26.7706 30.3954V29.9438L25.5837 31.5436L25.7514 31.7758L25.2354 32.4596L25.5837 32.9111L25.2354 33.3756L24.7193 32.6918L23.5195 34.3173L24.7193 35.8913L25.2354 35.1946L25.5837 35.6591L25.2354 36.1106L25.7514 36.7944L25.5837 37.0266L26.7706 38.6264H26.7577Z" fill="#FAAE29"/>
<path id="Vector_18" fill-rule="evenodd" clip-rule="evenodd" d="M26.7587 32.9111L26.5909 33.3755V34.0593H26.0749L25.7266 34.2915L26.0749 34.5108H26.5909V35.1946L26.7587 35.6591V32.8982V32.9111Z" fill="#FAAE29"/>
</g>
<g id="Group_10">
<path id="Vector_19" fill-rule="evenodd" clip-rule="evenodd" d="M26.7589 48.9086V48.4571L25.9074 47.3089L26.0752 47.0896L25.5591 46.3929L25.7397 46.1736L26.0881 46.6251L26.2558 46.3929L25.056 44.7932L24.8753 45.0254L25.056 45.2576L24.6947 45.722L23.8561 44.5609L24.7076 43.4643L25.056 43.8901L24.8753 44.1094L25.056 44.3416L26.2558 42.7418L26.0752 42.5096L25.7397 42.9741L25.572 42.7418L26.0881 42.0581L25.9074 41.8259L26.7589 40.6906V40.2261L25.572 41.8259L25.7397 42.0581L25.2237 42.7418L25.572 43.1934L25.2237 43.6578L24.7076 42.9741L23.5078 44.5996L24.7076 46.1736L25.2237 45.4898L25.572 45.9414L25.2237 46.3929L25.7397 47.0896L25.572 47.3089L26.7589 48.9086V48.9086Z" fill="#FAAE29"/>
<path id="Vector_20" fill-rule="evenodd" clip-rule="evenodd" d="M26.7587 43.1934L26.5909 43.6578V44.3416H26.0749L25.7266 44.5738L26.0749 44.7931H26.5909V45.4898L26.7587 45.9414V43.1934Z" fill="#FAAE29"/>
</g>
<path id="Vector_21" fill-rule="evenodd" clip-rule="evenodd" d="M6.18164 4.34774V3.87039L7.04602 2.73508L6.86541 2.50286L7.38146 1.81909L7.21374 1.58687L6.86541 2.03841L6.69769 1.81909L7.89751 0.219336L8.06522 0.438658L7.89751 0.67088L8.24584 1.16113L9.09732 1.51459e-05H9.44566L8.24584 1.59977L7.72979 0.916004L7.38146 1.36755L7.72979 1.83199L7.21374 2.51576L7.38146 2.74798L6.19454 4.34774H6.18164ZM6.18164 1.51459e-05H7.21374L6.87831 0.232238H6.36226V0.903103L6.19454 1.35465V1.51459e-05H6.18164ZM26.7591 4.34774V3.87039L25.9077 2.73508L26.0754 2.50286L25.5593 1.81909L25.7399 1.58687L26.0754 2.03841L26.256 1.81909L25.0562 0.219336L24.8756 0.438658L25.0562 0.67088L24.6949 1.13533L23.8564 -0.0257874H23.508L24.7078 1.58687L25.2239 0.903103L25.5722 1.35465L25.2239 1.81909L25.7399 2.50286L25.5722 2.73508L26.7591 4.33483V4.34774ZM26.7591 1.51459e-05H25.727L26.0754 0.232238H26.5914V0.903103L26.7591 1.35465V1.51459e-05ZM14.761 63.0871C14.761 63.0871 15.4963 61.797 17.367 61.3971C19.2248 61.01 19.5473 62.2614 20.6052 62.2614C21.6631 62.2614 23.3532 61.3971 23.3532 61.3971C23.3532 61.3971 21.676 63.0484 20.373 63.0097C19.0829 62.971 18.6313 62.1453 17.3025 62.2614C15.9737 62.3905 14.761 63.1258 14.761 63.0871V63.0871Z" fill="#FAAE29"/>
<path id="Vector_22" fill-rule="evenodd" clip-rule="evenodd" d="M18.3461 63.0871C18.3461 63.0871 17.6108 61.797 15.753 61.3971C13.8952 61.01 13.5598 62.2615 12.5019 62.2615C11.444 62.2615 9.75391 61.3971 9.75391 61.3971C9.75391 61.3971 11.444 63.0484 12.747 63.0097C14.0371 62.971 14.4887 62.1453 15.8175 62.2615C17.1463 62.3905 18.3461 63.1258 18.3461 63.0871V63.0871Z" fill="#FAAE29"/>
<g id="Group_11">
<path id="Vector_23" fill-rule="evenodd" clip-rule="evenodd" d="M12.2689 60.9455C12.1011 60.5972 11.7012 59.1006 11.9076 58.92C12.2431 58.791 13.1074 60.3263 13.03 61.6938C12.4624 62.0034 10.5272 61.5648 10.553 61.1648C10.682 60.5972 11.7786 60.7778 12.2689 60.9455Z" fill="#FAAE29"/>
<path id="Vector_24" fill-rule="evenodd" clip-rule="evenodd" d="M11.096 59.6425C10.9928 59.2555 10.8251 57.6815 11.0702 57.5525C11.4057 57.5267 12.0249 59.2555 11.7282 60.5714C11.1218 60.7262 9.28987 59.7715 9.38018 59.3716C9.5995 58.8555 10.6445 59.3458 11.096 59.6296V59.6425Z" fill="#FAAE29"/>
<path id="Vector_25" fill-rule="evenodd" clip-rule="evenodd" d="M10.1527 58.1846C10.0753 57.7847 10.0495 56.185 10.2946 56.1075C10.6429 56.1204 11.0945 57.9395 10.6816 59.2038C10.0753 59.2554 8.3465 58.0169 8.46261 57.6557C8.72063 57.1654 9.71403 57.8105 10.1398 58.1717L10.1527 58.1846Z" fill="#FAAE29"/>
<path id="Vector_26" fill-rule="evenodd" clip-rule="evenodd" d="M9.40439 56.6107C9.36568 56.2108 9.5334 54.6368 9.79142 54.5981C10.1269 54.6884 10.3591 56.5849 9.81722 57.746C9.19796 57.6686 7.62401 56.0818 7.79173 55.7463C8.11426 55.3335 9.01735 56.1721 9.39148 56.6107H9.40439Z" fill="#FAAE29"/>
<path id="Vector_27" fill-rule="evenodd" clip-rule="evenodd" d="M8.87631 54.9851C8.88921 54.5723 9.22464 53.05 9.48267 53.0629C9.7923 53.2177 9.831 55.14 9.16014 56.185C8.56668 55.9914 7.18624 54.1208 7.37976 53.8111C7.741 53.4628 8.54088 54.4691 8.87631 54.9722V54.9851Z" fill="#FAAE29"/>
<path id="Vector_28" fill-rule="evenodd" clip-rule="evenodd" d="M9.01808 53.1274C8.97937 54.7529 8.68264 54.7658 8.14079 53.566C7.90857 53.1145 7.88277 51.2438 8.08919 51.1664C8.39882 51.1664 9.00517 52.4952 9.01808 53.1274V53.1274Z" fill="#FAAE29"/>
</g>
<g id="Group_12">
<path id="Vector_29" fill-rule="evenodd" clip-rule="evenodd" d="M20.7594 61.1132C20.9142 60.7778 21.3271 59.2683 21.1078 59.0877C20.7723 58.9587 19.9079 60.494 19.9853 61.8615C20.5659 62.1711 22.5011 61.7325 22.4753 61.3325C22.3334 60.7778 21.2368 60.9584 20.7465 61.1132H20.7594Z" fill="#FAAE29"/>
<path id="Vector_30" fill-rule="evenodd" clip-rule="evenodd" d="M21.9213 59.8102C22.0245 59.4232 22.1922 57.8492 21.96 57.7202C21.6116 57.6944 20.9924 59.4361 21.2891 60.752C21.8954 60.8939 23.7403 59.9392 23.6371 59.5522C23.4178 59.0361 22.3728 59.5135 21.9213 59.8102Z" fill="#FAAE29"/>
<path id="Vector_31" fill-rule="evenodd" clip-rule="evenodd" d="M22.8743 58.3395C22.9388 57.9524 22.9775 56.3527 22.7195 56.2753C22.3841 56.3011 21.9196 58.1201 22.3325 59.3716C22.9517 59.4361 24.6805 58.1847 24.5515 57.8234C24.2934 57.3461 23.3001 57.9911 22.8743 58.3395Z" fill="#FAAE29"/>
<path id="Vector_32" fill-rule="evenodd" clip-rule="evenodd" d="M23.624 56.7913C23.6498 56.3785 23.495 54.8045 23.237 54.7787C22.9015 54.869 22.6564 56.7526 23.2112 57.9266C23.8175 57.8492 25.3915 56.2495 25.2238 55.914C24.9012 55.5012 24.0111 56.3398 23.624 56.7913V56.7913Z" fill="#FAAE29"/>
<path id="Vector_33" fill-rule="evenodd" clip-rule="evenodd" d="M24.1405 55.1528C24.1276 54.7529 23.8051 53.2176 23.547 53.2305C23.2245 53.3854 23.1858 55.3076 23.8567 56.3526C24.463 56.1591 25.8306 54.2885 25.637 53.9917C25.2758 53.6434 24.4759 54.6368 24.1405 55.1528V55.1528Z" fill="#FAAE29"/>
<path id="Vector_34" fill-rule="evenodd" clip-rule="evenodd" d="M23.998 53.2951C24.0497 54.9206 24.3464 54.9464 24.8753 53.7337C25.1205 53.2822 25.1463 51.4115 24.9269 51.3341C24.6173 51.3341 24.0109 52.6758 23.998 53.2951V53.2951Z" fill="#FAAE29"/>
</g>
<g id="Group_13">
<path id="Vector_35" fill-rule="evenodd" clip-rule="evenodd" d="M23.5635 41.1151H22.5404V41.8014H21.5545V42.4878H17.6108L16.9411 43.1937L17.276 43.5467H18.9316L19.2478 43.1937H17.6108L17.9271 42.8408H20.2337L19.2478 43.8801H16.9597L16.3087 43.5467L15.639 43.8801H13.3323L12.3464 42.8408H14.6531L14.9879 43.1937H13.3323L13.6672 43.5467H15.3228L15.639 43.1937L14.9879 42.4878H11.3605V41.8014H10.3746V41.1151H9.38867V37.9775H10.3746V37.2912H11.3605V36.5852H14.9879L15.639 35.8989L15.3228 35.5459H13.6672L13.3323 35.8989H14.9879L14.6531 36.2323H12.3464L13.3323 35.1929H15.6576L16.3273 35.5459L16.9783 35.1929H19.285L20.2709 36.2323H17.9643L17.648 35.8989H19.285L18.9502 35.5459H17.3132L16.9597 35.8989L17.6294 36.5852H21.5731V37.2912H22.559V37.9775H23.5635V41.1151V41.1151Z" fill="#CA3745" stroke="black" stroke-width="0.0190993"/>
<path id="Vector_36" fill-rule="evenodd" clip-rule="evenodd" d="M9.71875 38.3429V40.7745H10.7047V41.4608H11.6905V42.1471H14.9924L16.3131 43.1963L17.6246 42.157H21.2519V41.4706L22.2378 41.4608V40.7745H23.2423V38.333H22.2471V37.6467H21.2612V36.9407H17.6339L16.3224 35.9014L15.0017 36.9407H11.6999V37.6467H10.7139V38.333H9.72805L9.71875 38.3429Z" fill="#00843D" stroke="#FAAE29" stroke-width="0.095496"/>
<path id="Vector_37" fill-rule="evenodd" clip-rule="evenodd" d="M14.3282 37.2811L12.3535 39.0206V37.2811H14.3282ZM18.2776 37.2811L20.2648 39.0206V37.2811H18.2776V37.2811ZM14.3282 41.804L12.3535 40.0644V41.804H14.3282ZM18.2776 41.804L20.2648 40.0644V41.804H18.2776V41.804ZM18.94 38.3248L18.2776 39.0206H19.6024L18.94 38.3248V38.3248ZM13.6658 38.3248L13.0159 39.0206H14.3282L13.6658 38.3248ZM13.6658 40.7602L13.0159 40.0644H14.3282L13.6658 40.7602ZM18.94 40.7602L18.2776 40.0644H19.6024L18.94 40.7602V40.7602Z" fill="#CA3745"/>
<path id="Vector_38" fill-rule="evenodd" clip-rule="evenodd" d="M16.303 42.4998L15.6406 41.804H16.9654L16.303 42.4998V42.4998ZM16.303 39.0206L15.6406 38.3248H16.9654L16.303 39.0206V39.0206ZM16.303 36.5852L15.6406 37.2969H16.9654L16.303 36.5852V36.5852ZM16.303 40.0644L15.6406 40.7602H16.9654L16.303 40.0644V40.0644Z" fill="#FAAE29"/>
<path id="Vector_39" fill-rule="evenodd" clip-rule="evenodd" d="M18.2852 39.0292H19.6152V39.3723H18.2945L18.2852 39.0292Z" fill="#FAAE29" stroke="black" stroke-width="0.0095496"/>
<path id="Vector_40" fill-rule="evenodd" clip-rule="evenodd" d="M13.3457 39.3723H13.9968V39.7253H13.3457V39.3723ZM18.6193 39.3723H19.2704V39.7253H18.6193V39.3723Z" fill="#CC0000" stroke="black" stroke-width="0.0095496"/>
<path id="Vector_41" fill-rule="evenodd" clip-rule="evenodd" d="M15.6523 37.2937H16.9638V37.6369H15.6523V37.2937ZM15.6523 37.98H16.9638V38.333H15.6523V37.98Z" fill="#990000" stroke="black" stroke-width="0.0095496"/>
<path id="Vector_42" fill-rule="evenodd" clip-rule="evenodd" d="M15.3184 37.6369H17.2995V37.9898H15.3184V37.6369ZM15.6532 40.7744H16.9646V41.1078H15.6532V40.7744ZM15.6532 41.4608H16.9646V41.804H15.6532V41.4608ZM15.3184 41.1176H17.2995V41.4608H15.3184V41.1176Z" fill="#990000" stroke="black" stroke-width="0.0095496"/>
<path id="Vector_43" fill-rule="evenodd" clip-rule="evenodd" d="M18.2847 39.7253H19.6148V40.0685H18.294L18.2847 39.7253ZM13.0111 39.0292H14.3318V39.3723H13.0111V39.0292ZM13.0111 39.7155H14.3318V40.0685H13.0111V39.7155ZM12.6855 39.3723H13.3366V39.7253H12.6855V39.3723ZM14.0063 39.3723H14.6573V39.7253H14.0063V39.3723ZM17.9592 39.3723H18.6103V39.7253H17.9592V39.3723ZM19.2799 39.3723H19.931V39.7253H19.2799V39.3723Z" fill="#FAAE29" stroke="black" stroke-width="0.0095496"/>
<path id="Vector_44" d="M15.4997 41.3608C15.546 41.3608 15.5834 41.3213 15.5834 41.2726C15.5834 41.2239 15.546 41.1844 15.4997 41.1844C15.4535 41.1844 15.416 41.2239 15.416 41.2726C15.416 41.3213 15.4535 41.3608 15.4997 41.3608Z" fill="#F5F5F5"/>
<path id="Vector_45" d="M16.3122 41.3608C16.3585 41.3608 16.3959 41.3213 16.3959 41.2726C16.3959 41.2239 16.3585 41.1844 16.3122 41.1844C16.266 41.1844 16.2285 41.2239 16.2285 41.2726C16.2285 41.3213 16.266 41.3608 16.3122 41.3608Z" fill="#F5F5F5"/>
<path id="Vector_46" d="M17.1364 41.3608C17.1827 41.3608 17.2202 41.3213 17.2202 41.2726C17.2202 41.2239 17.1827 41.1844 17.1364 41.1844C17.0902 41.1844 17.0527 41.2239 17.0527 41.2726C17.0527 41.3213 17.0902 41.3608 17.1364 41.3608Z" fill="#F5F5F5"/>
<path id="Vector_47" d="M15.8239 41.0288C15.8702 41.0288 15.9077 40.9892 15.9077 40.9405C15.9077 40.8918 15.8702 40.8523 15.8239 40.8523C15.7777 40.8523 15.7402 40.8918 15.7402 40.9405C15.7402 40.9892 15.7777 41.0288 15.8239 41.0288Z" fill="#F5F5F5"/>
<path id="Vector_48" d="M16.8005 41.0288C16.8467 41.0288 16.8842 40.9892 16.8842 40.9405C16.8842 40.8918 16.8467 40.8523 16.8005 40.8523C16.7543 40.8523 16.7168 40.8918 16.7168 40.9405C16.7168 40.9892 16.7543 41.0288 16.8005 41.0288Z" fill="#F5F5F5"/>
<path id="Vector_49" d="M15.8122 41.7088C15.8585 41.7088 15.8959 41.6693 15.8959 41.6205C15.8959 41.5718 15.8585 41.5323 15.8122 41.5323C15.766 41.5323 15.7285 41.5718 15.7285 41.6205C15.7285 41.6693 15.766 41.7088 15.8122 41.7088Z" fill="#F5F5F5"/>
<path id="Vector_50" d="M16.8005 41.7246C16.8467 41.7246 16.8842 41.6851 16.8842 41.6363C16.8842 41.5876 16.8467 41.5481 16.8005 41.5481C16.7543 41.5481 16.7168 41.5876 16.7168 41.6363C16.7168 41.6851 16.7543 41.7246 16.8005 41.7246Z" fill="#F5F5F5"/>
<path id="Vector_51" d="M18.1111 39.6213C18.1573 39.6213 18.1948 39.5817 18.1948 39.533C18.1948 39.4843 18.1573 39.4448 18.1111 39.4448C18.0648 39.4448 18.0273 39.4843 18.0273 39.533C18.0273 39.5817 18.0648 39.6213 18.1111 39.6213Z" fill="#F5F5F5"/>
<path id="Vector_52" d="M18.9372 39.6213C18.9835 39.6213 19.0209 39.5817 19.0209 39.533C19.0209 39.4843 18.9835 39.4448 18.9372 39.4448C18.891 39.4448 18.8535 39.4843 18.8535 39.533C18.8535 39.5817 18.891 39.6213 18.9372 39.6213Z" fill="#F5F5F5"/>
<path id="Vector_53" d="M19.7614 39.6213C19.8077 39.6213 19.8452 39.5817 19.8452 39.533C19.8452 39.4843 19.8077 39.4448 19.7614 39.4448C19.7152 39.4448 19.6777 39.4843 19.6777 39.533C19.6777 39.5817 19.7152 39.6213 19.7614 39.6213Z" fill="#F5F5F5"/>
<path id="Vector_54" d="M18.4489 39.2734C18.4952 39.2734 18.5327 39.2338 18.5327 39.1851C18.5327 39.1364 18.4952 39.0969 18.4489 39.0969C18.4027 39.0969 18.3652 39.1364 18.3652 39.1851C18.3652 39.2338 18.4027 39.2734 18.4489 39.2734Z" fill="#F5F5F5"/>
<path id="Vector_55" d="M19.4236 39.2734C19.4698 39.2734 19.5073 39.2338 19.5073 39.1851C19.5073 39.1364 19.4698 39.0969 19.4236 39.0969C19.3773 39.0969 19.3398 39.1364 19.3398 39.1851C19.3398 39.2338 19.3773 39.2734 19.4236 39.2734Z" fill="#F5F5F5"/>
<path id="Vector_56" d="M18.4372 39.9534C18.4835 39.9534 18.5209 39.9139 18.5209 39.8651C18.5209 39.8164 18.4835 39.7769 18.4372 39.7769C18.391 39.7769 18.3535 39.8164 18.3535 39.8651C18.3535 39.9139 18.391 39.9534 18.4372 39.9534Z" fill="#F5F5F5"/>
<path id="Vector_57" d="M19.4236 39.9692C19.4698 39.9692 19.5073 39.9297 19.5073 39.8809C19.5073 39.8322 19.4698 39.7927 19.4236 39.7927C19.3773 39.7927 19.3398 39.8322 19.3398 39.8809C19.3398 39.9297 19.3773 39.9692 19.4236 39.9692Z" fill="#F5F5F5"/>
<path id="Vector_58" d="M15.488 37.8975C15.5342 37.8975 15.5717 37.858 15.5717 37.8093C15.5717 37.7605 15.5342 37.721 15.488 37.721C15.4418 37.721 15.4043 37.7605 15.4043 37.8093C15.4043 37.858 15.4418 37.8975 15.488 37.8975Z" fill="#F5F5F5"/>
<path id="Vector_59" d="M16.3122 37.8975C16.3585 37.8975 16.3959 37.858 16.3959 37.8093C16.3959 37.7605 16.3585 37.721 16.3122 37.721C16.266 37.721 16.2285 37.7605 16.2285 37.8093C16.2285 37.858 16.266 37.8975 16.3122 37.8975Z" fill="#F5F5F5"/>
<path id="Vector_60" d="M17.1364 37.8817C17.1827 37.8817 17.2202 37.8422 17.2202 37.7934C17.2202 37.7447 17.1827 37.7052 17.1364 37.7052C17.0902 37.7052 17.0527 37.7447 17.0527 37.7934C17.0527 37.8422 17.0902 37.8817 17.1364 37.8817Z" fill="#F5F5F5"/>
<path id="Vector_61" d="M15.8122 37.5496C15.8585 37.5496 15.8959 37.5101 15.8959 37.4614C15.8959 37.4126 15.8585 37.3731 15.8122 37.3731C15.766 37.3731 15.7285 37.4126 15.7285 37.4614C15.7285 37.5101 15.766 37.5496 15.8122 37.5496Z" fill="#F5F5F5"/>
<path id="Vector_62" d="M16.8005 37.5496C16.8467 37.5496 16.8842 37.5101 16.8842 37.4614C16.8842 37.4126 16.8467 37.3731 16.8005 37.3731C16.7543 37.3731 16.7168 37.4126 16.7168 37.4614C16.7168 37.5101 16.7543 37.5496 16.8005 37.5496Z" fill="#F5F5F5"/>
<path id="Vector_63" d="M15.8122 38.2296C15.8585 38.2296 15.8959 38.1901 15.8959 38.1413C15.8959 38.0926 15.8585 38.0531 15.8122 38.0531C15.766 38.0531 15.7285 38.0926 15.7285 38.1413C15.7285 38.1901 15.766 38.2296 15.8122 38.2296Z" fill="#F5F5F5"/>
<path id="Vector_64" d="M16.8005 38.2454C16.8467 38.2454 16.8842 38.2059 16.8842 38.1572C16.8842 38.1084 16.8467 38.0689 16.8005 38.0689C16.7543 38.0689 16.7168 38.1084 16.7168 38.1572C16.7168 38.2059 16.7543 38.2454 16.8005 38.2454Z" fill="#F5F5F5"/>
<path id="Vector_65" d="M12.8493 39.6529C12.8956 39.6529 12.933 39.6134 12.933 39.5647C12.933 39.5159 12.8956 39.4764 12.8493 39.4764C12.8031 39.4764 12.7656 39.5159 12.7656 39.5647C12.7656 39.6134 12.8031 39.6529 12.8493 39.6529Z" fill="#F5F5F5"/>
<path id="Vector_66" d="M13.6755 39.6529C13.7217 39.6529 13.7592 39.6134 13.7592 39.5647C13.7592 39.5159 13.7217 39.4764 13.6755 39.4764C13.6293 39.4764 13.5918 39.5159 13.5918 39.5647C13.5918 39.6134 13.6293 39.6529 13.6755 39.6529Z" fill="#F5F5F5"/>
<path id="Vector_67" d="M14.4997 39.6371C14.546 39.6371 14.5834 39.5976 14.5834 39.5488C14.5834 39.5001 14.546 39.4606 14.4997 39.4606C14.4535 39.4606 14.416 39.5001 14.416 39.5488C14.416 39.5976 14.4535 39.6371 14.4997 39.6371Z" fill="#F5F5F5"/>
<path id="Vector_68" d="M13.1872 39.305C13.2335 39.305 13.2709 39.2655 13.2709 39.2167C13.2709 39.168 13.2335 39.1285 13.1872 39.1285C13.141 39.1285 13.1035 39.168 13.1035 39.2167C13.1035 39.2655 13.141 39.305 13.1872 39.305Z" fill="#F5F5F5"/>
<path id="Vector_69" d="M14.1618 39.305C14.2081 39.305 14.2455 39.2655 14.2455 39.2167C14.2455 39.168 14.2081 39.1285 14.1618 39.1285C14.1156 39.1285 14.0781 39.168 14.0781 39.2167C14.0781 39.2655 14.1156 39.305 14.1618 39.305Z" fill="#F5F5F5"/>
<path id="Vector_70" d="M13.1755 39.985C13.2217 39.985 13.2592 39.9455 13.2592 39.8967C13.2592 39.848 13.2217 39.8085 13.1755 39.8085C13.1293 39.8085 13.0918 39.848 13.0918 39.8967C13.0918 39.9455 13.1293 39.985 13.1755 39.985Z" fill="#F5F5F5"/>
<path id="Vector_71" d="M14.1618 40.0008C14.2081 40.0008 14.2455 39.9613 14.2455 39.9126C14.2455 39.8638 14.2081 39.8243 14.1618 39.8243C14.1156 39.8243 14.0781 39.8638 14.0781 39.9126C14.0781 39.9613 14.1156 40.0008 14.1618 40.0008Z" fill="#F5F5F5"/>
</g>
<path id="Vector_72" fill-rule="evenodd" clip-rule="evenodd" d="M17.611 31.9693L18.1787 31.7113L18.7463 31.9693H17.611ZM15.908 31.9693L16.4757 31.7113L17.0434 31.9693H15.908ZM14.2051 31.9693L14.7727 31.7113L15.3404 31.9693H14.2051V31.9693ZM17.611 25.8541L18.1787 26.1251L18.7463 25.867H17.611V25.8541ZM15.908 25.8541L16.4757 26.1251L17.0434 25.867H15.908V25.8541ZM14.2051 25.8541L14.7727 26.1251L15.3404 25.867H14.2051V25.8541Z" fill="#F5F5F5"/>
<path id="Vector_73" fill-rule="evenodd" clip-rule="evenodd" d="M17.1462 32.7692L16.4754 33.2981L15.8174 32.7692L15.1465 33.2981L14.5015 32.7692V33.0272L14.9272 33.2981L14.7079 33.5562V33.8271H14.9272L15.1465 33.5691L15.3659 33.8271H15.5852V33.5691L15.3659 33.2981L15.8174 33.0401L16.256 33.2981L16.0367 33.5562V33.8271H16.256L16.4754 33.5691L16.6947 33.8271H16.914V33.5691L16.6947 33.2981L17.1333 33.0401L17.572 33.2981L17.3526 33.5562V33.8271H17.572L17.7913 33.5691L18.0106 33.8271H18.2299V33.5691L18.0106 33.2981L18.4622 33.0401V32.7692L17.7913 33.2852L17.1462 32.7563V32.7692ZM17.1462 25.0671L16.4754 24.5253L15.8174 25.0671L15.1465 24.5253L14.5015 25.0671V24.7962L14.9272 24.5382L14.7079 24.2673V24.0092H14.9272L15.1465 24.2673L15.3659 24.0092H15.5981V24.2673L15.3788 24.5253L15.8174 24.7962L16.256 24.5382L16.0367 24.2673V24.0092H16.256L16.4754 24.2673L16.6947 24.0092H16.914V24.2673L16.6947 24.5253L17.1333 24.7962L17.572 24.5382L17.3526 24.2673V24.0092H17.572L17.7913 24.2673L18.0106 24.0092H18.2428V24.2673L18.0235 24.5253L18.4622 24.7962V25.0542L17.7913 24.5382L17.1462 25.0542V25.0671ZM22.139 29.4923L22.8486 28.9117L22.139 28.3441L22.8486 27.7635L22.139 27.183H22.5002L22.8486 27.57L23.2098 27.3765H23.5581V27.57L23.2098 27.7635L23.5581 27.957V28.1505H23.2098L22.8486 27.957L22.5002 28.3441L22.8486 28.7311L23.2098 28.5247H23.5581V28.7182L23.2098 28.9117L23.5581 29.1052V29.2988H23.2098L22.8486 29.1052L22.5002 29.4923L22.8486 29.8793L23.2098 29.6858H23.5581V29.8793L23.2098 30.0599L23.5581 30.2535V30.447H23.2098L22.8486 30.2535L22.5002 30.6405H22.139L22.8486 30.0599L22.139 29.4923V29.4923ZM10.7988 29.4923L10.0892 28.9117L10.7988 28.3441L10.0892 27.7635L10.7988 27.183H10.4505L10.0892 27.57L9.74091 27.3765H9.39258V27.57L9.74091 27.7635L9.39258 27.957V28.1505H9.74091L10.1021 27.957L10.4505 28.3441L10.0892 28.7311L9.74091 28.5247H9.39258V28.7182L9.74091 28.9117L9.39258 29.1052V29.2988H9.74091L10.1021 29.1052L10.4505 29.4923L10.0892 29.8793L9.74091 29.6858H9.39258V29.8793L9.74091 30.0599L9.39258 30.2535V30.447H9.74091L10.1021 30.2535L10.4505 30.6405H10.7988L10.0892 30.0599L10.7988 29.4923Z" fill="#00843D"/>
<path id="Vector_74" fill-rule="evenodd" clip-rule="evenodd" d="M22.4245 31.4372H22.7125V31.6921H22.4245V31.4372ZM22.1366 31.6921H22.4245V31.962H22.1525L22.1366 31.6921ZM20.7288 33.0266H21.0167V33.2964H20.7288V33.0266ZM21.0167 32.7567H21.2887V33.0266H21.0167V32.7567ZM11.6582 32.7567H11.9461V33.0266H11.6422L11.6582 32.7567ZM10.2344 31.4372H10.5223V31.6921H10.2344V31.4372ZM10.5223 31.6921H10.8103V31.962H10.5223V31.6921ZM10.5223 25.8445H10.8103V26.1144H10.5223V25.8445ZM10.2344 26.1144H10.5223V26.3843H10.2344V26.1144ZM11.9461 24.5251H12.2181V24.7949H11.9621L11.9461 24.5251ZM11.6582 24.7949H11.9461V25.0648H11.6422L11.6582 24.7949ZM20.7288 24.5251H21.0167V24.7949H20.7288V24.5251ZM21.0167 24.7949H21.2887V25.0648H21.0167V24.7949ZM22.1366 25.8445H22.4245V26.1144H22.1525L22.1366 25.8445ZM22.4245 26.1294H22.7125V26.3843H22.4245V26.1294ZM11.9621 33.0266H12.2341V33.2964H11.9621V33.0266Z" fill="#00843D" stroke="black" stroke-width="0.0464627"/>
<path id="Vector_75" fill-rule="evenodd" clip-rule="evenodd" d="M15.5991 28.9117H14.7734V28.3957H15.3282V27.9054H15.8829V27.4539H16.4506V28.0086C15.9862 28.0086 15.612 28.3957 15.612 28.9117H15.5991Z" fill="#F5F5F5"/>
<path id="Vector_76" fill-rule="evenodd" clip-rule="evenodd" d="M17.2749 28.9117H18.1135V28.3957H17.5587V27.9054H17.004V27.4539H16.4492V28.0086C16.9008 28.0086 17.2749 28.3957 17.2749 28.9117V28.9117Z" fill="#FAAE29"/>
<path id="Vector_77" fill-rule="evenodd" clip-rule="evenodd" d="M17.2749 28.9117H18.1135V29.4278H17.5587V29.9309H17.004V30.3696H16.4492V29.8148C16.9008 29.8148 17.2749 29.4278 17.2749 28.9117V28.9117Z" fill="#F5F5F5"/>
<path id="Vector_78" fill-rule="evenodd" clip-rule="evenodd" d="M15.5991 28.9117H14.7734V29.4278H15.3282V29.9309H15.8829V30.3696H16.4506V29.8148C15.9862 29.8148 15.612 29.4278 15.612 28.9117H15.5991Z" fill="#FAAE29"/>
<path id="Vector_79" fill-rule="evenodd" clip-rule="evenodd" d="M17.2749 28.9117H16.4492V28.0086C16.9008 28.0086 17.2749 28.4215 17.2749 28.9117Z" fill="#00843D"/>
<path id="Vector_80" fill-rule="evenodd" clip-rule="evenodd" d="M17.2749 28.9117H16.4492V29.8148C16.9008 29.8148 17.2749 29.4149 17.2749 28.9117Z" fill="#CA3745"/>
<path id="Vector_81" fill-rule="evenodd" clip-rule="evenodd" d="M15.5977 28.9117H16.4491V29.8148C15.9847 29.8148 15.6106 29.4149 15.6106 28.9117H15.5977Z" fill="#00843D"/>
<path id="Vector_82" fill-rule="evenodd" clip-rule="evenodd" d="M15.5977 28.9117H16.4491V28.0086C15.9847 28.0086 15.6106 28.4215 15.6106 28.9117H15.5977Z" fill="#CA3745"/>
<path id="Vector_83" fill-rule="evenodd" clip-rule="evenodd" d="M17.3278 32.2273L16.4763 31.7113L15.6248 32.2273L14.7734 31.7113L13.9219 32.2273V31.9693L14.4895 31.7113L14.2057 31.4404V31.1823H14.4895L14.7734 31.4404L15.0572 31.1823H15.341V31.4404L15.0572 31.6984L15.6248 31.9693L16.1925 31.7113L15.9087 31.4404V31.1823H16.1925L16.4763 31.4404L16.7601 31.1823H17.044V31.4404L16.7601 31.6984L17.3278 31.9693L17.8955 31.7113L17.6116 31.4404V31.1823H17.8955L18.1793 31.4404L18.4631 31.1823H18.7469V31.4404L18.4631 31.6984L19.0308 31.9693V32.2273L18.1793 31.7113L17.3278 32.2273V32.2273ZM17.3278 25.5961L16.4763 26.1251L15.6248 25.5961L14.7734 26.1251L13.9219 25.5961V25.8541L14.4895 26.1251L14.2057 26.3831V26.654H14.4895L14.7734 26.396L15.0572 26.654H15.341V26.396L15.0572 26.138L15.6248 25.8541L16.1925 26.1251L15.9087 26.3831V26.654H16.1925L16.4763 26.396L16.7601 26.654H17.044V26.396L16.7601 26.138L17.3278 25.8541L17.8955 26.1251L17.6116 26.3831V26.654H17.8955L18.1793 26.396L18.4631 26.654H18.7469V26.396L18.4631 26.138L19.0308 25.8541V25.5961L18.1793 26.1251L17.3278 25.5961V25.5961ZM20.437 29.5826L20.0113 28.9117L20.437 28.2538L20.0113 27.5829L20.437 26.9249H20.2435L20.0242 27.3636L19.8177 27.1442H19.5984V27.3636L19.8177 27.5829L19.5984 27.8022V28.0215H19.8177L20.0242 27.8022L20.2435 28.2538L20.0242 28.6924L19.8177 28.4731H19.5984V28.6924L19.8177 28.9117L19.5984 29.131V29.3633H19.8177L20.0242 29.131L20.2435 29.5826L20.0242 30.0212L19.8177 29.8019H19.5984V30.0212L19.8177 30.2405L19.5984 30.4599V30.6921H19.8177L20.0242 30.4599L20.2435 30.9114H20.4499L20.0242 30.2405L20.4499 29.5826H20.437Z" fill="#00843D"/>
<path id="Vector_84" fill-rule="evenodd" clip-rule="evenodd" d="M13.9164 25.8595L12.7966 26.9091V30.8975L13.9164 31.962H19.0356L20.1554 30.9125V26.9241L19.0196 25.8595H13.9164ZM13.6284 25.0499L10.7969 27.7188V30.1178L13.6444 32.7567H19.3076L22.1391 30.1028V27.7038L19.3076 25.0499H13.6444H13.6284Z" fill="#00843D" stroke="black" stroke-width="0.0619503"/>
<path id="Vector_85" fill-rule="evenodd" clip-rule="evenodd" d="M15.1144 32.2397L15.5623 32.7795L16.023 32.2397H15.1016H15.1144Z" fill="#FAAE29" stroke="black" stroke-width="0.0339315"/>
<path id="Vector_86" fill-rule="evenodd" clip-rule="evenodd" d="M15.1144 25.5966L15.5623 25.0569L16.023 25.5966H15.1016H15.1144Z" fill="#FAAE29" stroke="black" stroke-width="0.0339315"/>
<path id="Vector_87" fill-rule="evenodd" clip-rule="evenodd" d="M16.921 25.5966L17.3689 25.0569L17.8297 25.5966H16.9082H16.921Z" fill="#FAAE29" stroke="black" stroke-width="0.0339315"/>
<path id="Vector_88" fill-rule="evenodd" clip-rule="evenodd" d="M16.921 32.2397L17.3689 32.7795L17.8297 32.2397H16.9082H16.921Z" fill="#FAAE29" stroke="black" stroke-width="0.0339315"/>
<path id="Vector_89" fill-rule="evenodd" clip-rule="evenodd" d="M14.212 25.5966L14.6599 25.0569L15.1207 25.5966H14.1992H14.212Z" fill="#CA3745" stroke="black" stroke-width="0.0339315"/>
<path id="Vector_90" fill-rule="evenodd" clip-rule="evenodd" d="M16.0187 25.5966L16.4666 25.0569L16.9273 25.5966H16.0059H16.0187Z" fill="#CA3745" stroke="black" stroke-width="0.0339315"/>
<path id="Vector_91" fill-rule="evenodd" clip-rule="evenodd" d="M17.837 25.5966L18.2849 25.0569L18.7457 25.5966H17.8242H17.837Z" fill="#CA3745" stroke="black" stroke-width="0.0339315"/>
<path id="Vector_92" fill-rule="evenodd" clip-rule="evenodd" d="M13.0742 31.4408L13.914 32.228H13.0742V31.4408Z" fill="#CA3745" stroke="black" stroke-width="0.0696902"/>
<path id="Vector_93" fill-rule="evenodd" clip-rule="evenodd" d="M12.502 29.5826L12.9277 28.9117L12.502 28.2538L12.9277 27.5829L12.502 26.9249H12.7213L12.9277 27.3636L13.147 27.1442H13.3534V27.3636L13.147 27.5829L13.3534 27.8022V28.0344H13.147L12.9277 27.8022L12.7213 28.2538L12.9277 28.6924L13.147 28.4731H13.3534V28.6924L13.147 28.9117L13.3534 29.131V29.3633H13.147L12.9277 29.131L12.7213 29.5826L12.9277 30.0212L13.147 29.8019H13.3534V30.0212L13.147 30.2405L13.3534 30.4599V30.6921H13.147L12.9277 30.4599L12.7213 30.9114H12.502L12.9277 30.2405L12.502 29.5826V29.5826Z" fill="#00843D"/>
<path id="Vector_94" fill-rule="evenodd" clip-rule="evenodd" d="M20.7227 28.1878H21.8585L22.1464 28.4307L21.8585 28.6736H20.7387V28.1743L20.7227 28.1878Z" fill="#CA3745" stroke="black" stroke-width="0.0440788"/>
<path id="Vector_95" fill-rule="evenodd" clip-rule="evenodd" d="M13.0686 26.3843L12.4927 26.9241V30.8975L13.0686 31.4372H12.2207V26.3843H13.0686Z" fill="#CA3745" stroke="black" stroke-width="0.0619503"/>
<path id="Vector_96" fill-rule="evenodd" clip-rule="evenodd" d="M14.212 32.2397L14.6599 32.7795L15.1207 32.2397H14.1992H14.212Z" fill="#CA3745" stroke="black" stroke-width="0.0339315"/>
<path id="Vector_97" fill-rule="evenodd" clip-rule="evenodd" d="M16.0187 32.2397L16.4666 32.7795L16.9273 32.2397H16.0059H16.0187Z" fill="#CA3745" stroke="black" stroke-width="0.0339315"/>
<path id="Vector_98" fill-rule="evenodd" clip-rule="evenodd" d="M17.837 32.2397L18.2849 32.7795L18.7457 32.2397H17.8242H17.837Z" fill="#CA3745" stroke="black" stroke-width="0.0339315"/>
<path id="Vector_99" fill-rule="evenodd" clip-rule="evenodd" d="M19.8709 26.3843L20.4468 26.9241V30.8975L19.8709 31.4372H20.7188V26.3843H19.8709Z" fill="#CA3745" stroke="black" stroke-width="0.0619503"/>
<path id="Vector_100" fill-rule="evenodd" clip-rule="evenodd" d="M19.8633 31.4408L19.0235 32.228H19.8633V31.4408Z" fill="#CA3745" stroke="black" stroke-width="0.0696902"/>
<path id="Vector_101" fill-rule="evenodd" clip-rule="evenodd" d="M19.8633 26.3826L19.0235 25.5955H19.8633V26.3826Z" fill="#CA3745" stroke="black" stroke-width="0.0696902"/>
<path id="Vector_102" fill-rule="evenodd" clip-rule="evenodd" d="M13.0742 26.3826L13.914 25.5955H13.0742V26.3826Z" fill="#CA3745" stroke="black" stroke-width="0.0696902"/>
<path id="Vector_103" fill-rule="evenodd" clip-rule="evenodd" d="M13.9156 25.8595L12.7958 26.9091V30.8974L13.9156 31.962H19.0348L20.1546 30.9124V26.9241L19.0188 25.8595H13.9156ZM13.9156 25.5896L12.5078 26.9091V30.8974L13.9156 32.2319H19.0348L20.4426 30.8974V26.9091L19.0188 25.5896H13.9156Z" fill="#00843D" stroke="black" stroke-width="0.0619503"/>
<path id="Vector_104" fill-rule="evenodd" clip-rule="evenodd" d="M20.7227 28.6665H21.8585L22.1464 28.9094L21.8585 29.1524H20.7387V28.653L20.7227 28.6665Z" fill="#FAAE29" stroke="black" stroke-width="0.0440803"/>
<path id="Vector_105" fill-rule="evenodd" clip-rule="evenodd" d="M20.7227 29.1554H21.8585L22.1464 29.3983L21.8585 29.6412H20.7387V29.1419L20.7227 29.1554Z" fill="#CA3745" stroke="black" stroke-width="0.0440788"/>
<path id="Vector_106" fill-rule="evenodd" clip-rule="evenodd" d="M20.7227 29.6212H21.8585L22.1464 29.8641L21.8585 30.107H20.7387V29.6077L20.7227 29.6212Z" fill="#FAAE29" stroke="black" stroke-width="0.0440803"/>
<path id="Vector_107" fill-rule="evenodd" clip-rule="evenodd" d="M20.7227 27.7118H21.8585L22.1464 27.9547L21.8585 28.1977H20.7387V27.6983L20.7227 27.7118Z" fill="#FAAE29" stroke="black" stroke-width="0.0440803"/>
<path id="Vector_108" fill-rule="evenodd" clip-rule="evenodd" d="M12.2305 28.1878H11.0946L10.8067 28.4307L11.0946 28.6736H12.2145V28.1743L12.2305 28.1878Z" fill="#CA3745" stroke="black" stroke-width="0.0440788"/>
<path id="Vector_109" fill-rule="evenodd" clip-rule="evenodd" d="M12.2305 28.6665H11.0946L10.8067 28.9094L11.0946 29.1524H12.2145V28.653L12.2305 28.6665Z" fill="#FAAE29" stroke="black" stroke-width="0.0440803"/>
<path id="Vector_110" fill-rule="evenodd" clip-rule="evenodd" d="M12.2305 29.1554H11.0946L10.8067 29.3983L11.0946 29.6412H12.2145V29.1419L12.2305 29.1554Z" fill="#CA3745" stroke="black" stroke-width="0.0440788"/>
<path id="Vector_111" fill-rule="evenodd" clip-rule="evenodd" d="M12.2305 29.6341H11.0946L10.8067 29.877L11.0946 30.1199H12.2145V29.6206L12.2305 29.6341Z" fill="#FAAE29" stroke="black" stroke-width="0.0440803"/>
<path id="Vector_112" fill-rule="evenodd" clip-rule="evenodd" d="M12.2305 27.7118H11.0946L10.8067 27.9547L11.0946 28.1977H12.2145V27.6983L12.2305 27.7118Z" fill="#FAAE29" stroke="black" stroke-width="0.0440803"/>
<path id="Vector_113" fill-rule="evenodd" clip-rule="evenodd" d="M10.5234 26.1294V31.6771H11.9472V33.0116H21.0178V31.6771H22.4256V26.1294H21.0178V24.8099H11.9472V26.1294H10.5234ZM10.8114 26.3843V31.4372H12.2192V32.7567H20.7299V31.4372H22.1537V26.3843H20.7299V25.0798H12.2192V26.3993H10.8114V26.3843Z" fill="#970000" stroke="black" stroke-width="0.0464627"/>
<path id="Vector_114" fill-rule="evenodd" clip-rule="evenodd" d="M23.5563 5.3832L22.7084 4.35949V3.59531L21.8605 2.83113H20.1648L18.741 2.06696H14.2137L12.7899 2.83113H11.0942L10.2463 3.59531V4.35949L9.39844 5.36878V7.43062L10.2463 8.43991V9.2185L11.0942 9.98268H12.7899L14.2137 10.7469H18.741L20.1648 9.98268H21.8605L22.7244 9.2185V8.45432L23.5723 7.43062V5.36878L23.5563 5.3832Z" fill="#CA3745" stroke="black" stroke-width="0.0455624"/>
<path id="Vector_115" fill-rule="evenodd" clip-rule="evenodd" d="M9.66406 6.39905V7.17312L10.5284 8.19232V8.9664L11.3799 9.72757H13.07L14.4891 10.4887H16.4759V6.39905H9.67696H9.66406Z" fill="#FAAE29"/>
<path id="Vector_116" fill-rule="evenodd" clip-rule="evenodd" d="M14.0894 8.19231L13.0573 8.83738H12.4252L12.6316 9.0696L12.2188 9.50824L12.4252 9.72756L13.0444 9.50824L13.2509 9.72756L13.3541 9.13411L14.4894 8.43744L14.0765 8.17941L14.0894 8.19231Z" fill="#CA3745"/>
<path id="Vector_117" fill-rule="evenodd" clip-rule="evenodd" d="M12.954 7.67627L11.9219 8.33423H11.2897L11.4961 8.55355L11.0833 8.99219L11.2897 9.21151L11.909 8.99219L12.1154 9.21151L12.2186 8.61806L13.3539 7.93429L12.954 7.67627V7.67627ZM12.3863 6.64417L11.3542 7.31503H10.722L10.9285 7.53435L10.5156 7.97299L10.722 8.19231L11.3413 7.97299L11.5477 8.19231L11.6509 7.59886L12.7862 6.91509L12.3863 6.65707V6.64417Z" fill="#CA3745"/>
<path id="Vector_118" fill-rule="evenodd" clip-rule="evenodd" d="M23.2755 6.39902V5.62495L22.424 4.61865V3.84457L21.5726 3.0705H19.8696L18.4505 2.30933H16.4766V6.39902H23.2755V6.39902Z" fill="#FAAE29"/>
<path id="Vector_119" fill-rule="evenodd" clip-rule="evenodd" d="M16.4764 10.4887H15.9603L15.3411 9.97269H14.3735L13.8574 9.71467L14.1154 9.45664L14.6315 9.71467H15.1604L15.6765 8.95349L16.4764 9.21152V9.72757H15.6894L16.4635 10.4887H16.4764Z" fill="#CA3745"/>
<path id="Vector_120" fill-rule="evenodd" clip-rule="evenodd" d="M9.66406 6.39902V5.62495L10.5284 4.61865V3.84457L11.3799 3.0705H13.07L14.4891 2.30933H16.4759V6.39902H9.67696H9.66406Z" fill="#F5F5F5"/>
<path id="Vector_121" fill-rule="evenodd" clip-rule="evenodd" d="M16.4764 2.32223H15.9603L15.3411 2.82538H14.3735L13.8574 3.0834L14.1154 3.34143L14.6315 3.0834H15.1604L15.6765 3.84457L16.4764 3.58655V3.0705H15.6894L16.4635 2.30933L16.4764 2.32223ZM16.4764 2.32223H16.9924L17.6117 2.82538H18.5793L19.0953 3.0834L18.8373 3.34143L18.3213 3.0834H17.7923L17.2634 3.84457L16.4764 3.58655V3.0705H17.2505L16.4764 2.30933V2.32223Z" fill="#CA3745"/>
<path id="Vector_122" fill-rule="evenodd" clip-rule="evenodd" d="M23.2755 6.39905V7.17312L22.424 8.19232V8.9664L21.5726 9.72757H19.8696L18.4505 10.4887H16.4766V6.39905H23.2755V6.39905Z" fill="#F5F5F5"/>
<path id="Vector_123" fill-rule="evenodd" clip-rule="evenodd" d="M16.4767 10.4887H16.9928L17.612 9.97267H18.5796L19.0957 9.71465L18.8376 9.45662L18.3216 9.71465H17.7926L17.2637 8.95347L16.4767 9.2115V9.72755H17.2508L16.4767 10.4887V10.4887ZM12.9547 5.1218L11.9226 4.47674H11.2904L11.4968 4.24452L11.084 3.80587L11.2904 3.58655L11.9097 3.80587L12.1161 3.58655L12.2193 4.18001L13.3546 4.86378L12.9547 5.1218V5.1218ZM18.8634 4.60575L19.8955 3.96069H20.5148L20.3213 3.72847L20.7341 3.30273L20.5148 3.0834L19.9084 3.30273L19.6891 3.0834L19.5988 3.66396L18.4635 4.36063L18.8634 4.61865V4.60575Z" fill="#CA3745"/>
<path id="Vector_124" fill-rule="evenodd" clip-rule="evenodd" d="M14.0885 4.61865L13.0564 3.96069H12.4242L12.6307 3.72847L12.2178 3.30273L12.4242 3.0834L13.0435 3.30273L13.2499 3.0834L13.3531 3.66396L14.4884 4.36063L14.0756 4.61865H14.0885ZM12.3726 6.1281L11.3405 5.48304H10.7084L10.9148 5.25081L10.502 4.81217L10.7084 4.59285L11.3276 4.81217L11.5341 4.59285L11.6373 5.18631L12.7726 5.87007L12.3726 6.1281V6.1281Z" fill="#CA3745"/>
<path id="Vector_125" fill-rule="evenodd" clip-rule="evenodd" d="M10.1809 6.39905H10.4389L10.6969 6.65707L10.9549 6.39905H16.4767V9.97269H16.2187L16.4767 10.2307V10.4887L15.6897 9.71467V9.45664H15.9477V9.71467H16.2058V9.45664L14.0899 8.33424H12.2838V7.23763L11.4968 6.65707H10.9549L10.6969 6.9151L10.9549 7.17312H10.6969L10.168 6.39905H10.1809Z" fill="#F5F5F5"/>
<path id="Vector_126" fill-rule="evenodd" clip-rule="evenodd" d="M10.1809 6.39902H10.4389L10.6969 6.141L10.9549 6.39902H16.4767V2.82538H16.2187L16.4767 2.56735V2.30933L15.6897 3.0834V3.34143H15.9477V3.0834H16.2058V3.34143L14.0899 4.46383H12.2838V5.57334L11.4968 6.141H10.9549L10.6969 5.88297L10.9549 5.62495H10.6969L10.168 6.39902H10.1809Z" fill="#FAAE29"/>
<path id="Vector_127" fill-rule="evenodd" clip-rule="evenodd" d="M11.3789 6.39905H16.4749V9.46955L14.2043 8.17942H12.5013V7.16022L11.3789 6.39905V6.39905Z" fill="#00843D"/>
<path id="Vector_128" fill-rule="evenodd" clip-rule="evenodd" d="M19.9976 5.1218L21.0297 4.47673H21.649L21.4425 4.24451L21.8554 3.80587L21.649 3.58655L21.0297 3.80587L20.8233 3.58655L20.733 4.18001L19.5977 4.86377L19.9976 5.1218ZM20.5652 6.1539L21.5973 5.48303H22.2166L22.0102 5.26371L22.423 4.82507L22.2166 4.60575L21.5973 4.82507L21.3909 4.60575L21.3006 5.1992L20.1653 5.88297L20.5652 6.141V6.1539Z" fill="#CA3745"/>
<path id="Vector_129" fill-rule="evenodd" clip-rule="evenodd" d="M22.7724 6.39902H22.5143L22.2563 6.141L21.9854 6.39902H16.4766V2.82538H16.7346L16.4766 2.56735V2.30933L17.2506 3.0834V3.34143H16.9926V3.0834H16.7346V3.34143L18.8633 4.46383H20.6695V5.57334L21.4564 6.141H21.9725L22.2434 5.88297L21.9854 5.62495H22.2434L22.7595 6.39902H22.7724Z" fill="#F5F5F5"/>
<path id="Vector_130" fill-rule="evenodd" clip-rule="evenodd" d="M21.5726 6.39903H16.4766V3.35434L18.7472 4.63156H20.4372V5.65076L21.5726 6.42484V6.39903Z" fill="#00843D"/>
<path id="Vector_131" fill-rule="evenodd" clip-rule="evenodd" d="M18.8628 8.19231L19.8949 8.83738H20.5271L20.3207 9.0696L20.7335 9.50824L20.5271 9.72756L19.9078 9.50824L19.7014 9.72756L19.5982 9.13411L18.4629 8.43744L18.8628 8.17941V8.19231Z" fill="#CA3745"/>
<path id="Vector_132" fill-rule="evenodd" clip-rule="evenodd" d="M19.9976 7.67627L21.0297 8.33423H21.649L21.4425 8.55355L21.8554 8.99219L21.649 9.21151L21.0297 8.99219L20.8233 9.21151L20.733 8.61806L19.5977 7.93429L19.9976 7.67627V7.67627ZM20.5652 6.64417L21.5973 7.31503H22.2166L22.0102 7.53435L22.423 7.97299L22.2166 8.19231L21.5973 7.97299L21.3909 8.19231L21.3006 7.59886L20.1653 6.91509L20.5652 6.65707V6.64417Z" fill="#CA3745"/>
<path id="Vector_133" fill-rule="evenodd" clip-rule="evenodd" d="M22.7724 6.39905H22.5143L22.2563 6.65707L21.9854 6.39905H16.4766V9.97269H16.7346L16.4766 10.2307V10.4887L17.2506 9.71467V9.45664H16.9926V9.71467H16.7346V9.45664L18.8633 8.33424H20.6695V7.23763L21.4564 6.65707H21.9725L22.2434 6.9151L21.9854 7.17312H22.2434L22.7595 6.39905H22.7724Z" fill="#FAAE29"/>
<path id="Vector_134" fill-rule="evenodd" clip-rule="evenodd" d="M21.5709 6.39903H16.4749V9.46953L18.7455 8.17941H20.4356V7.16021L21.5709 6.39903V6.39903ZM11.3789 6.39903H16.4749V3.35434L14.2043 4.63156H12.5013V5.65076L11.3789 6.42484V6.39903Z" fill="#CA3745"/>
<path id="Vector_135" fill-rule="evenodd" clip-rule="evenodd" d="M17.0304 6.39905L18.4495 5.62497H19.3139L19.0301 5.36695L19.5977 4.8638L19.301 4.60577L18.4624 4.8638L18.1786 4.60577L18.0496 5.28954L16.4756 6.10232L17.0304 6.39905V6.39905ZM15.9209 6.39905L14.5017 7.17312H13.6373L13.9212 7.43115L13.3535 7.9343L13.6373 8.19232L14.4888 7.9343L14.7727 8.19232L14.9017 7.50856L16.4756 6.69578L15.908 6.39905H15.9209Z" fill="#CA3745"/>
<path id="Vector_136" fill-rule="evenodd" clip-rule="evenodd" d="M15.9209 6.39905L14.5017 5.62497H13.6373L13.9212 5.36695L13.3535 4.8638L13.6373 4.60577L14.4888 4.8638L14.7727 4.60577L14.9017 5.28954L16.4756 6.10232L15.908 6.39905H15.9209ZM17.0304 6.39905L18.4495 7.17312H19.3139L19.0301 7.43115L19.5977 7.9343L19.301 8.19232L18.4624 7.9343L18.1786 8.19232L18.0496 7.50856L16.4756 6.69578L17.0304 6.39905V6.39905Z" fill="#00843D"/>
<path id="Vector_137" fill-rule="evenodd" clip-rule="evenodd" d="M14.7734 6.39905L16.4764 5.12183L18.1794 6.39905L16.4764 7.67627L14.7734 6.39905Z" fill="#F5F5F5"/>
<path id="Vector_138" fill-rule="evenodd" clip-rule="evenodd" d="M10.9532 6.91509L11.2241 7.17312L10.9661 7.43114H10.7081L9.9082 6.39904H10.1662L10.6952 7.17312H10.9532L10.6952 6.91509L10.9532 6.65707H11.4822V6.91509H10.9661H10.9532ZM10.9532 5.88299L11.2241 5.62497L10.9661 5.36694H10.7081L9.9082 6.39904H10.1662L10.6952 5.62497H10.9532L10.6952 5.88299L10.9532 6.14102H11.4822V5.88299H10.9661H10.9532ZM21.9838 6.91509L21.7257 7.17312L21.9838 7.43114H22.2418L23.0288 6.39904H22.7707L22.2547 7.17312H21.9838L22.2418 6.91509L21.9838 6.65707H21.4677V6.91509H21.9838ZM21.9838 5.88299L21.7257 5.62497L21.9838 5.36694H22.2418L23.0288 6.39904H22.7707L22.2547 5.62497H21.9838L22.2418 5.88299L21.9838 6.14102H21.4677V5.88299H21.9838ZM16.204 5.36694H16.733V7.43114H16.2169L16.204 5.36694Z" fill="#CA3745"/>
<path id="Vector_139" fill-rule="evenodd" clip-rule="evenodd" d="M15.4316 5.883H17.5216V6.9151H15.4316V5.883Z" fill="#CA3745"/>
<path id="Vector_140" fill-rule="evenodd" clip-rule="evenodd" d="M14.0736 45.2242L9.36328 47.8209V52.0525L14.1181 54.6492H18.8284L23.5387 52.0525V47.8209L18.8284 45.2723H14.1181L14.0736 45.2242Z" fill="#00843D" stroke="black" stroke-width="0.0462259"/>
<path id="Vector_141" fill-rule="evenodd" clip-rule="evenodd" d="M11.1477 49.5408H11.4315V49.0119H11.9862V49.5279H12.2701V48.3152H11.9862V48.8312H11.4186V48.3152H11.1348V49.5279L11.1477 49.5408ZM18.3724 53.6047H18.6691V53.0886H19.2367V53.6047H19.5206V52.3791H19.2367V52.908H18.6691V52.392H18.3853V53.6047H18.3724ZM13.8053 47.5024H14.0892V46.9606H14.6697V47.4766H14.9535V46.2639H14.6697V46.7799H14.1021V46.2639H13.7924V47.4895L13.8053 47.5024ZM17.9982 47.5024H18.2821V46.9606H18.8497V47.4766H19.1464V46.2639H18.8497V46.7799H18.2821V46.2639H17.9982V47.4895V47.5024ZM20.6688 49.5279H20.9526V49.0119H21.5203V49.5279H21.8041V48.3152H21.5332V48.8312H20.9655V48.3152H20.6817V49.5279H20.6688ZM20.6688 51.5663H20.9526V51.0502H21.5203V51.5663H21.8041V50.3536H21.5332V50.8696H20.9655V50.3536H20.6817V51.5663H20.6688Z" fill="#CC0000"/>
<path id="Vector_142" fill-rule="evenodd" clip-rule="evenodd" d="M16.4767 54.4304V49.9279H23.3273V51.9663L18.7603 54.4175H16.4767V54.4304ZM16.4767 45.464V49.9279H9.61328V47.8895L14.1932 45.4382H16.4767V45.464Z" fill="#FAAE29"/>
<path id="Vector_143" fill-rule="evenodd" clip-rule="evenodd" d="M16.4767 45.464V49.9279H23.3273V47.8895L18.7603 45.4382H16.4767V45.464ZM16.4767 54.4304V49.9279H9.61328V51.9663L14.1932 54.4175H16.4767V54.4304Z" fill="#F5F5F5"/>
<path id="Vector_144" fill-rule="evenodd" clip-rule="evenodd" d="M20.1276 48.1145H22.8756L20.1276 46.8956V48.1145ZM23.3271 47.9075V49.9428H18.9923V48.3214H18.0763L16.9281 47.712V46.2861L17.6248 45.6652H16.7088V47.712H16.4766V45.4697H18.7601L23.3271 47.9075V47.9075Z" fill="#FAAE29" stroke="black" stroke-width="0.0121799"/>
<path id="Vector_145" fill-rule="evenodd" clip-rule="evenodd" d="M14.1797 48.5087V51.3728H14.8764L16.4761 52.1856L18.0759 51.3728H18.7596V48.5087H18.0759L16.4761 47.683L14.8764 48.5087H14.1797Z" fill="#CA3745"/>
<path id="Vector_146" fill-rule="evenodd" clip-rule="evenodd" d="M12.8255 51.7799H10.0775L12.8255 52.9988V51.7799ZM9.626 51.9869V49.9516H13.9608V51.573H14.8768L16.025 52.1824V53.6083L15.3284 54.2292H16.2443V52.1824H16.4766V54.4247H14.193L9.626 51.9869V51.9869Z" fill="#FAAE29" stroke="black" stroke-width="0.0121799"/>
<path id="Vector_147" fill-rule="evenodd" clip-rule="evenodd" d="M12.8255 48.1145H10.0775L12.8255 46.8956V48.1145ZM9.626 47.9075V49.9428H13.9608V48.3214H14.8768L16.025 47.712V46.2861L15.3284 45.6652H16.2443V47.712H16.4766V45.4697H14.193L9.626 47.9075V47.9075Z" fill="#F5F5F5" stroke="black" stroke-width="0.0121799"/>
<path id="Vector_148" fill-rule="evenodd" clip-rule="evenodd" d="M20.1276 51.7799H22.8756L20.1276 52.9988V51.7799ZM23.3271 51.9869V49.9516H18.9923V51.573H18.0763L16.9281 52.1824V53.6083L17.6248 54.2292H16.7088V52.1824H16.4766V54.4247H18.7601L23.3271 51.9869V51.9869Z" fill="#F5F5F5" stroke="black" stroke-width="0.0121799"/>
<path id="Vector_149" fill-rule="evenodd" clip-rule="evenodd" d="M10.9922 51.5792H11.276V50.9599H11.8437V51.5663H12.1275V50.1472H11.8566V50.7535H11.2889V50.1472H11.0051V51.5663L10.9922 51.5792ZM13.7273 53.6047H14.0111V52.9983H14.5916V53.6047H14.8755V52.1856H14.5916V52.7919H14.0111V52.1856H13.7273V53.6047ZM10.9922 48.3152H11.276V48.9216H11.8437V48.3152H12.1275V49.7343H11.8566V49.128H11.2889V49.7343H11.0051V48.3152H10.9922ZM13.7273 46.2768H14.0111V46.8832H14.5916V46.2768H14.8755V47.6959H14.5916V47.0896H14.0111V47.6959H13.7273V46.2768ZM18.075 53.6047H18.3588V52.9983H18.9265V53.6047H19.2232V52.1856H18.9265V52.7919H18.3588V52.1856H18.075V53.6047ZM20.8229 49.7343H21.1068V49.128H21.6744V49.7343H21.9582V48.3152H21.6744V48.9216H21.1068V48.3152H20.8229V49.7343Z" fill="#CA3745"/>
<path id="Vector_150" fill-rule="evenodd" clip-rule="evenodd" d="M18.0762 53.6047H18.36V52.9984H18.9277V53.6047H19.2244V52.1856H18.9277V52.7919H18.36V52.1856H18.0762V53.6047Z" fill="#CA3745"/>
<path id="Vector_151" fill-rule="evenodd" clip-rule="evenodd" d="M18.0762 53.6047H18.36V52.9983H18.9277V53.6047H19.2244V52.1856H18.9277V52.7919H18.36V52.1856H18.0762V53.6047ZM20.8241 51.5663H21.108V50.9599H21.6756V51.5663H21.9594V50.1472H21.6756V50.7535H21.108V50.1472H20.8241V51.5663ZM18.0762 47.6959H18.36V47.0896H18.9277V47.6959H19.2244V46.2768H18.9277V46.8832H18.36V46.2768H18.0762V47.6959Z" fill="#CA3745"/>
<path id="Vector_152" fill-rule="evenodd" clip-rule="evenodd" d="M16.7087 49.9408L17.6118 49.1925H18.0763V49.5795H17.6247V49.7601H18.3085V49.0119H17.6247V48.4571H16.7087V49.0119H16.9281V48.6377H17.3925V49.0248L16.4765 49.7601L15.5734 49.0119V48.6377H16.0121V49.0248H16.2443V48.4571H15.3412V49.0119H14.6445V49.7601H15.3283V49.5666H14.8768V49.2054H15.3283L16.2443 49.9408L15.3412 50.689H14.8768V50.302H15.3283V50.1214H14.6445V50.8697H15.3283V51.4244H16.2443V50.8697H16.0121V51.2438H15.5605V50.8697L16.4636 50.1214L17.3925 50.8697V51.2438H16.9281V50.8697H16.7087V51.4244H17.6118V50.8697H18.3085V50.1214H17.6118V50.3149H18.0763V50.689H17.6247L16.7087 49.9408V49.9408Z" fill="#F5F5F5"/>
<g id="Group_14">
<path id="Vector_153" fill-rule="evenodd" clip-rule="evenodd" d="M10.0637 18.3594L10.5023 17.9042H13.16L15.1468 15.9036H17.8044L19.7912 17.9162H22.4489L22.8875 18.3594L22.4489 18.8027H19.7783L17.7915 20.8152H15.1339L13.16 18.8027H10.4894L10.0508 18.3594H10.0637Z" fill="#CA3745"/>
<path id="Vector_154" fill-rule="evenodd" clip-rule="evenodd" d="M10.2891 18.3959L10.5293 18.1781H13.2679L15.3219 16.0653H17.6041L19.6701 18.189H22.4087L22.637 18.4068L22.4087 18.6137H19.6701L17.8323 20.5196H15.0937L13.2679 18.6137H10.5173L10.2891 18.3959V18.3959Z" fill="#CA3745" stroke="black" stroke-width="0.034312"/>
<path id="Vector_155" fill-rule="evenodd" clip-rule="evenodd" d="M17.5844 18.587L18.4617 19.4735L18.0231 19.9168L17.7908 19.7011H17.5844V19.9168L17.8037 20.1444H18.2553L18.6939 19.7011V19.2459L17.8037 18.3594L18.6939 17.4609V17.0177L18.2553 16.5744H17.8037L17.5844 16.7901V17.0177H17.8037L18.036 16.7901L18.4746 17.2453L17.5844 18.1318L16.7071 17.2453L17.5844 16.3468V16.1192H17.3651L16.4878 17.0177L15.5976 16.1192H15.3783V16.3468L16.2556 17.2453L15.3783 18.1318L14.4881 17.2453L14.9397 16.7901L15.159 17.0177H15.3783V16.7901L15.159 16.5744H14.7074L14.2688 17.0177V17.4609L15.159 18.3594L14.2688 19.2459V19.7011L14.7074 20.1444H15.159L15.3783 19.9168V19.7011H15.1332L14.9138 19.9168L14.4623 19.4735L15.3525 18.587L16.2298 19.4735L15.3525 20.372V20.5876H15.5718L16.462 19.7011L17.3393 20.5876H17.5586V20.372L16.6813 19.4735L17.5586 18.587H17.5844ZM16.4749 17.4609L15.5847 18.3594L16.4749 19.2459L17.3522 18.3594L16.4749 17.4609ZM15.1461 20.8152V22.6122L15.3654 22.3726L15.5847 22.6122L15.804 22.3726L16.0234 22.6122L16.2556 22.3726L16.4749 22.6122L16.6942 22.3726L16.9135 22.6122L17.1329 22.3726L17.3522 22.6122L17.5715 22.3726L17.8037 22.6122V20.8152H15.1332H15.1461ZM17.8037 15.9036V14.1066L17.5715 14.3462L17.3522 14.1066L17.1329 14.3462L16.9135 14.1066L16.6942 14.3462L16.4749 14.1066L16.2427 14.3462L16.0234 14.1066L15.804 14.3462L15.5847 14.1066L15.3654 14.3462L15.1461 14.1066V15.9036H17.8037V15.9036ZM21.5451 17.9161V16.1192L21.3387 16.3588L21.1194 16.1192L20.9 16.3588L20.6678 16.1192L20.4485 16.3588L20.2292 16.1192L20.0098 16.3588L19.7905 16.1192V17.9161H21.558H21.5451ZM13.1593 17.9161V16.1192L12.9271 16.3588L12.7077 16.1192L12.4884 16.3588L12.2691 16.1192L12.0498 16.3588L11.8305 16.1192L11.5982 16.3588L11.3789 16.1192V17.9161H13.1464H13.1593ZM21.558 18.8026V20.5996L21.3387 20.36L21.1194 20.5996L20.9 20.36L20.6678 20.5996L20.4485 20.36L20.2292 20.5996L20.0098 20.36L19.7905 20.5996V18.8026H21.558V18.8026ZM13.1464 18.8026V20.5996L12.9271 20.36L12.7077 20.5996L12.4884 20.36L12.2691 20.5996L12.0498 20.36L11.8305 20.5996L11.5982 20.36L11.3789 20.5996V18.8026H13.1464V18.8026Z" fill="#FAAE29"/>
<path id="Vector_156" fill-rule="evenodd" clip-rule="evenodd" d="M17.7907 20.8153V21.9294L18.0229 21.7018L18.2423 21.9413L18.4616 21.7018L18.6809 21.9413L18.9002 21.7018L19.1195 21.9413L19.3518 21.7018L19.5711 21.9413L19.7904 21.7018V18.8027L17.7907 20.8153V20.8153ZM15.146 20.8153V21.9294L14.9137 21.7018L14.6944 21.9413L14.4751 21.7018L14.2558 21.9413L14.0365 21.7018L13.8171 21.9413L13.5978 21.7018L13.3785 21.9413L13.1463 21.7018V18.8027L15.146 20.8153V20.8153ZM15.146 15.9036V14.7895L14.9137 15.0051L14.6944 14.7895L14.4751 15.0051L14.2558 14.7895L14.0365 15.0051L13.8171 14.7895L13.5978 15.0051L13.3785 14.7895L13.1463 15.0051V17.9162L15.146 15.9036V15.9036ZM17.7907 15.9036V14.7895L18.0229 15.0051L18.2423 14.7895L18.4616 15.0051L18.6809 14.7895L18.9002 15.0051L19.1195 14.7895L19.3389 15.0051L19.5711 14.7895L19.7904 15.0051V17.9162L17.7907 15.9036V15.9036ZM11.3788 20.1444L11.1595 19.9168L10.9402 20.1564L10.7208 19.9168L10.5015 20.1564L10.2822 19.9168L10.05 20.1564L9.83065 19.9168L9.61133 20.1564V16.5625L9.83065 16.8021L10.05 16.5625L10.2822 16.8021L10.5015 16.5625L10.7208 16.8021L10.9402 16.5625L11.1595 16.8021L11.3788 16.5625V17.9162H10.5015L10.05 18.3594L10.5015 18.8027H11.3788V20.1444V20.1444ZM21.5579 20.1444L21.7772 19.9168L21.9965 20.1564L22.2158 19.9168L22.4481 20.1564L22.6674 19.9168L22.8867 20.1564L23.106 19.9168L23.3254 20.1564V16.5625L23.106 16.8021L22.8867 16.5625L22.6674 16.8021L22.4481 16.5625L22.2158 16.8021L21.9965 16.5625L21.7772 16.8021L21.5579 16.5625V17.9162H22.4481L22.8867 18.3594L22.4481 18.8027H21.5579V20.1444V20.1444Z" fill="#00843D"/>
<path id="Vector_157" fill-rule="evenodd" clip-rule="evenodd" d="M14.0491 20.959C14.0491 20.959 13.8685 21.1267 13.8685 21.2225C13.8685 21.3064 14.062 21.4861 14.1524 21.4861C14.2556 21.4861 14.4233 21.3064 14.4233 21.2225C14.4233 21.1387 14.2427 20.959 14.2427 20.959V20.5996C14.2427 20.5996 14.6297 21.2106 14.6297 20.947C14.6297 20.7553 14.2427 20.4319 14.2427 20.4319H14.0491C14.0491 20.4319 13.6621 20.8152 13.6621 20.947C13.6621 21.2106 14.0491 20.5996 14.0491 20.5996V20.959V20.959Z" fill="#F5F5F5"/>
<path id="Vector_158" fill-rule="evenodd" clip-rule="evenodd" d="M16.3601 21.6419C16.3601 21.6419 16.1408 21.8814 16.1408 22.0012C16.1408 22.121 16.373 22.3846 16.4763 22.3846C16.6053 22.3846 16.7988 22.133 16.7988 22.0132C16.7988 21.8934 16.5795 21.6419 16.5795 21.6419V21.1387C16.5795 21.1387 16.9665 21.9533 16.9665 21.582C16.9665 21.3424 16.5795 20.8991 16.5795 20.8991H16.3601C16.3601 20.8991 15.9086 21.4502 15.9731 21.582C15.9731 21.9533 16.3601 21.1387 16.3601 21.1387V21.6419V21.6419Z" fill="#CA3745"/>
<path id="Vector_159" d="M14.0327 18.5735C14.274 18.5735 14.4697 18.4719 14.4697 18.3466C14.4697 18.2212 14.274 18.1196 14.0327 18.1196C13.7913 18.1196 13.5957 18.2212 13.5957 18.3466C13.5957 18.4719 13.7913 18.5735 14.0327 18.5735Z" fill="#00843D"/>
<path id="Vector_160" d="M16.4721 18.5735C16.7135 18.5735 16.9091 18.4719 16.9091 18.3466C16.9091 18.2212 16.7135 18.1196 16.4721 18.1196C16.2308 18.1196 16.0352 18.2212 16.0352 18.3466C16.0352 18.4719 16.2308 18.5735 16.4721 18.5735Z" fill="#00843D"/>
<path id="Vector_161" d="M18.8979 18.5735C19.1393 18.5735 19.3349 18.4719 19.3349 18.3466C19.3349 18.2212 19.1393 18.1196 18.8979 18.1196C18.6566 18.1196 18.4609 18.2212 18.4609 18.3466C18.4609 18.4719 18.6566 18.5735 18.8979 18.5735Z" fill="#00843D"/>
<path id="Vector_162" fill-rule="evenodd" clip-rule="evenodd" d="M14.0113 15.7838C14.0113 15.7838 13.8306 15.6041 13.8306 15.5202C13.8306 15.4364 14.0242 15.2447 14.1016 15.2447C14.2048 15.2447 14.3725 15.4244 14.3725 15.5082C14.3725 15.6041 14.1919 15.7838 14.1919 15.7838V16.1432C14.1919 16.1432 14.5918 15.5202 14.5918 15.7838C14.5918 15.9755 14.2048 16.3109 14.2048 16.3109H14.0113C14.0113 16.3109 13.6113 15.9275 13.6113 15.7958C13.6113 15.5322 13.9984 16.1312 13.9984 16.1312V15.7718L14.0113 15.7838Z" fill="#F5F5F5"/>
<path id="Vector_163" fill-rule="evenodd" clip-rule="evenodd" d="M16.3086 15.0889C16.3086 15.0889 16.0893 14.8494 16.0893 14.7296C16.0893 14.6098 16.3344 14.3582 16.4247 14.3582C16.5537 14.3582 16.7601 14.5978 16.7601 14.7176C16.7601 14.8374 16.5408 15.1009 16.5408 15.1009V15.5801C16.5408 15.5801 16.9278 14.7775 16.9278 15.1488C16.9278 15.3884 16.5408 15.8437 16.5408 15.8437H16.2957C16.2957 15.8437 15.8441 15.2806 15.9087 15.1488C15.9087 14.7895 16.2957 15.5921 16.2957 15.5921V15.0889H16.3086Z" fill="#CA3745"/>
<path id="Vector_164" fill-rule="evenodd" clip-rule="evenodd" d="M18.759 20.959C18.759 20.959 18.5783 21.1267 18.5783 21.2226C18.5783 21.3064 18.7719 21.4861 18.8622 21.4861C18.9654 21.4861 19.1331 21.3064 19.1331 21.2226C19.1331 21.1387 18.9525 20.959 18.9525 20.959V20.5996C18.9525 20.5996 19.3395 21.2106 19.3395 20.947C19.3395 20.7554 18.9525 20.4319 18.9525 20.4319H18.7461C18.7461 20.4319 18.359 20.8153 18.359 20.947C18.359 21.2106 18.7461 20.5996 18.7461 20.5996V20.959H18.759ZM18.7203 15.7838C18.7203 15.7838 18.5396 15.6041 18.5396 15.5082C18.5396 15.4364 18.7332 15.2447 18.8106 15.2447C18.9138 15.2447 19.0815 15.4244 19.0815 15.5082C19.0815 15.6041 18.9009 15.7838 18.9009 15.7838V16.1432C18.9009 16.1432 19.3008 15.5202 19.3008 15.7838C19.3008 15.9755 18.9138 16.3109 18.9138 16.3109H18.7203C18.7203 16.3109 18.3203 15.9275 18.3203 15.7958C18.3203 15.5322 18.7073 16.1312 18.7073 16.1312V15.7718L18.7203 15.7838Z" fill="#F5F5F5"/>
<path id="Vector_165" fill-rule="evenodd" clip-rule="evenodd" d="M12.128 19.7131C12.128 19.7131 11.8829 19.8808 11.8829 19.9527C11.8829 20.0366 12.1409 20.2163 12.257 20.2043C12.386 20.2043 12.6183 20.0486 12.6183 19.9647C12.6183 19.8808 12.3731 19.7131 12.3731 19.7131V19.3777C12.3731 19.3777 12.8118 19.9168 12.8118 19.6772C12.8118 19.5095 12.3731 19.21 12.3731 19.21H12.128C12.128 19.21 11.6249 19.5933 11.7023 19.6772C11.7023 19.9168 12.128 19.3777 12.128 19.3777V19.7131V19.7131ZM12.0764 17.1854C12.0764 17.1854 11.8313 17.0177 11.8313 16.9338C11.8313 16.85 12.0893 16.6823 12.2054 16.6942C12.3344 16.6942 12.5667 16.85 12.5667 16.9338C12.5667 17.0177 12.3215 17.1734 12.3215 17.1734V17.5089C12.3215 17.5089 12.7602 16.9698 12.7602 17.2213C12.7602 17.3771 12.3215 17.6766 12.3215 17.6766H12.0764C12.0764 17.6766 11.5733 17.3052 11.6507 17.2213C11.6507 16.9818 12.0764 17.5089 12.0764 17.5089V17.1854V17.1854ZM20.6299 19.6532C20.6299 19.6532 20.3719 19.8209 20.3719 19.9048C20.3719 19.9887 20.6428 20.1564 20.759 20.1564C20.888 20.1564 21.1202 19.9887 21.1202 19.9168C21.1202 19.8209 20.8622 19.6532 20.8622 19.6532V19.3298C20.8622 19.3298 21.3008 19.8689 21.3008 19.6173C21.3008 19.4616 20.8751 19.1621 20.8751 19.1621H20.617C20.617 19.1621 20.1268 19.5334 20.1913 19.6173C20.1913 19.8689 20.6299 19.3298 20.6299 19.3298V19.6652V19.6532ZM20.5783 17.1375C20.5783 17.1375 20.3203 16.9698 20.3203 16.8859C20.3203 16.8021 20.5912 16.6343 20.7074 16.6343C20.8364 16.6343 21.0686 16.8021 21.0686 16.8739C21.0686 16.9698 20.8106 17.1255 20.8106 17.1255V17.4609C20.8106 17.4609 21.2492 16.9219 21.2492 17.1614C21.2492 17.3292 20.8235 17.6287 20.8235 17.6287H20.5654C20.5654 17.6287 20.0752 17.2573 20.1397 17.1734C20.1397 16.9219 20.5783 17.4609 20.5783 17.4609V17.1255V17.1375Z" fill="#CA3745"/>
<path id="Vector_166" fill-rule="evenodd" clip-rule="evenodd" d="M10.3214 19.6891C10.244 19.5334 10.2698 19.4615 10.2698 19.3777C10.2698 19.2938 10.4891 19.1381 10.5665 19.1381C10.6697 19.1381 10.8374 19.3058 10.8374 19.4016C10.8374 19.4855 10.8374 19.5574 10.7987 19.7131L10.6955 19.4615C10.5536 19.8209 10.5407 19.8209 10.4633 19.4495L10.3343 19.6891H10.3214ZM10.3214 17.1135C10.2569 17.2692 10.2698 17.3411 10.2698 17.425C10.2698 17.5088 10.4891 17.6646 10.5794 17.6646C10.6826 17.6646 10.8503 17.4969 10.8503 17.401C10.8503 17.3172 10.8503 17.2453 10.8116 17.0895L10.6955 17.3411C10.5665 16.9817 10.5536 16.9817 10.4633 17.3531L10.3343 17.1135H10.3214ZM22.255 19.6532C22.1776 19.4975 22.1905 19.4256 22.1905 19.3417C22.1905 19.2579 22.4227 19.1021 22.5001 19.1021C22.6033 19.1021 22.7711 19.2818 22.7711 19.3657C22.7711 19.4495 22.7711 19.5334 22.7324 19.6772L22.6163 19.4256C22.4872 19.785 22.4743 19.797 22.384 19.4256L22.255 19.6532ZM22.255 17.0895C22.1776 17.2333 22.2034 17.3052 22.2034 17.401C22.2034 17.4729 22.4227 17.6406 22.5001 17.6406C22.6033 17.6406 22.784 17.4609 22.784 17.3771C22.784 17.2812 22.784 17.2093 22.7453 17.0536L22.6163 17.3172C22.4872 16.9458 22.4872 16.9338 22.3969 17.3172L22.2679 17.0776L22.255 17.0895Z" fill="#F5F5F5"/>
<path id="Vector_167" fill-rule="evenodd" clip-rule="evenodd" d="M15.1078 22.6599V22.013H13.0436V20.7432H11.2117V20.3239H9.6119V16.4904H11.2117V16.0711H13.0436V14.8013H15.1078V14.1664H17.8429V14.8013H19.9071V16.0711H21.7262V16.5024H23.3388V20.3239H21.7391V20.7432H19.92V22.013H17.8558V22.6479H15.1207L15.1078 22.6599ZM14.8756 22.8636V22.2286H12.8114V20.9588H10.9923V20.5275H9.39258V16.2868H10.9923V15.8675H12.8114V14.5857H14.8756V13.9507H18.0751V14.5857H20.1393V15.8675H21.9584V16.2868H23.5581V20.5275H21.9584V20.9588H20.1264V22.2286H18.0622V22.8636H14.8756V22.8636Z" fill="#CA3745" stroke="black" stroke-width="0.0124319"/>
</g>
</g>
</g>
</g>
<defs>
<clipPath id="clip0_2909_185508">
<path d="M0.246094 32C0.246094 14.3269 14.573 0 32.2461 0V0C49.9192 0 64.2461 14.3269 64.2461 32V32C64.2461 49.6731 49.9192 64 32.2461 64V64C14.573 64 0.246094 49.6731 0.246094 32V32Z" fill="white"/>
</clipPath>
</defs>
</svg>
