<svg width="65" height="64" viewBox="0 0 65 64" fill="none" xmlns="http://www.w3.org/2000/svg">
<g id="Rounded=Tunisia (TN)">
<g clip-path="url(#clip0_2909_185274)">
<g id="Group">
<path id="Vector" fill-rule="evenodd" clip-rule="evenodd" d="M-15.7539 0H80.2314V63.9902H-15.7539V0Z" fill="#E70013"/>
<path id="Vector_2" fill-rule="evenodd" clip-rule="evenodd" d="M48.4684 31.9693C48.4684 34.0888 48.0509 36.1875 47.2398 38.1456C46.4288 40.1037 45.2399 41.8829 43.7412 43.3816C42.2426 44.8803 40.4634 46.0691 38.5052 46.8802C36.5471 47.6913 34.4484 48.1088 32.3289 48.1088C30.2095 48.1088 28.1107 47.6913 26.1526 46.8802C24.1945 46.0691 22.4153 44.8803 20.9166 43.3816C19.4179 41.8829 18.2291 40.1037 17.418 38.1456C16.6069 36.1875 16.1895 34.0888 16.1895 31.9693C16.1895 27.6888 17.8899 23.5837 20.9166 20.557C23.9433 17.5302 28.0485 15.8298 32.3289 15.8298C36.6094 15.8298 40.7145 17.5302 43.7412 20.557C46.768 23.5837 48.4684 27.6888 48.4684 31.9693V31.9693Z" fill="#F5F5F5"/>
<path id="Vector_3" fill-rule="evenodd" clip-rule="evenodd" d="M32.3291 42.6773C29.4892 42.6773 26.7655 41.5492 24.7574 39.541C22.7493 37.5329 21.6211 34.8092 21.6211 31.9693C21.6211 29.1294 22.7493 26.4057 24.7574 24.3976C26.7655 22.3894 29.4892 21.2613 32.3291 21.2613C33.7999 21.2613 35.4899 21.6096 36.6252 22.4482C28.8071 22.7449 26.8203 29.3761 26.8203 32.0596C26.8203 34.7431 28.0846 40.7034 36.6252 41.5807C35.3058 42.2956 33.8298 42.6723 32.3291 42.6773V42.6773Z" fill="#E70013"/>
<path id="Vector_4" fill-rule="evenodd" clip-rule="evenodd" d="M41.7601 36.4718L36.8963 34.7044L33.6839 38.7553L33.8645 33.5948L29.0137 31.7887L33.9936 30.3566L34.2129 25.1961L37.1028 29.4794L42.0826 28.086L38.896 32.1628L41.7601 36.4718Z" fill="#E70013"/>
</g>
</g>
</g>
<defs>
<clipPath id="clip0_2909_185274">
<path d="M0.246094 32C0.246094 14.3269 14.573 0 32.2461 0V0C49.9192 0 64.2461 14.3269 64.2461 32V32C64.2461 49.6731 49.9192 64 32.2461 64V64C14.573 64 0.246094 49.6731 0.246094 32V32Z" fill="white"/>
</clipPath>
</defs>
</svg>
