<svg width="65" height="64" viewBox="0 0 65 64" fill="none" xmlns="http://www.w3.org/2000/svg">
<g id="Rounded=Taiwan (TW)">
<g clip-path="url(#clip0_2909_185269)">
<g id="Group">
<path id="Vector" d="M0.246094 0H96.2461V64H0.246094V0Z" fill="#FF0000"/>
<path id="Vector_2" d="M0.246094 0H48.2461V32H0.246094V0Z" fill="#000095"/>
<g id="Group_2">
<path id="Vector_3" d="M20.7828 16.925L20.4453 18.2L21.7078 18.5375L21.4578 17.6125L20.7828 16.925ZM27.0328 17.6125L26.7828 18.5375L28.0453 18.2L27.7078 16.925L27.0328 17.6125ZM21.4578 14.3875L20.7828 15.075L21.0328 16L21.4578 14.3875Z" fill="#F5F5F5"/>
<path id="Vector_4" d="M21.0332 16L20.7832 16.925L21.4582 17.6125L21.0332 16Z" fill="#F5F5F5"/>
<path id="Vector_5" d="M20.7844 15.075L19.8594 16L20.7844 16.925L21.0344 16L20.7844 15.075ZM22.6344 18.7875L23.3219 19.4625L24.2469 19.2125L22.6344 18.7875ZM25.1719 19.4625L26.4469 19.8L26.7844 18.5375L25.8594 18.7875L25.1719 19.4625Z" fill="#F5F5F5"/>
<path id="Vector_6" d="M25.859 18.7875L26.784 18.5375L27.034 17.6125L25.859 18.7875ZM21.709 18.5375L22.0465 19.8L23.3215 19.4625L22.634 18.7875L21.709 18.5375ZM24.2465 19.2125L25.1715 19.4625L25.859 18.7875L24.2465 19.2125Z" fill="#F5F5F5"/>
<path id="Vector_7" d="M23.3203 19.4625L24.2453 20.3875L25.1703 19.4625L24.2453 19.2125L23.3203 19.4625ZM21.7078 13.4625L20.4453 13.8L20.7828 15.075L21.4578 14.3875L21.7078 13.4625ZM21.4578 17.6125L21.7078 18.5375L22.6328 18.7875L21.4578 17.6125ZM27.4578 16L27.7078 15.075L27.0328 14.3875L27.4578 16Z" fill="#F5F5F5"/>
<path id="Vector_8" d="M22.634 13.2125L21.709 13.4625L21.459 14.3875L22.634 13.2125ZM27.034 14.3875L26.784 13.4625L25.859 13.2125L27.034 14.3875ZM27.709 16.925L28.634 16L27.709 15.075L27.459 16L27.709 16.925Z" fill="#F5F5F5"/>
<path id="Vector_9" d="M27.0332 14.3875L25.8582 13.2125L24.2457 12.7875L22.6332 13.2125L21.4582 14.3875L21.0332 16L21.4582 17.6125L22.6332 18.7875L24.2457 19.2125L25.8582 18.7875L27.0332 17.6125L27.4582 16L27.0332 14.3875Z" fill="#F5F5F5"/>
<path id="Vector_10" d="M27.034 17.6125L27.709 16.925L27.459 16L27.034 17.6125ZM27.709 15.075L28.0465 13.8L26.784 13.4625L27.034 14.3875L27.709 15.075ZM26.784 13.4625L26.4465 12.2L25.1715 12.5375L25.859 13.2125L26.784 13.4625ZM23.3215 12.5375L22.0465 12.2L21.709 13.4625L22.634 13.2125L23.3215 12.5375Z" fill="#F5F5F5"/>
<path id="Vector_11" d="M24.2453 12.7875L23.3203 12.5375L22.6328 13.2125L24.2453 12.7875Z" fill="#F5F5F5"/>
<path id="Vector_12" d="M25.1703 12.5375L24.2453 11.6125L23.3203 12.5375L24.2453 12.7875L25.1703 12.5375Z" fill="#F5F5F5"/>
<path id="Vector_13" d="M25.8594 13.2125L25.1719 12.5375L24.2469 12.7875L25.8594 13.2125ZM23.3219 19.4625L22.0469 19.8L22.6344 22L24.2469 20.3875L23.3219 19.4625ZM22.6344 22L24.2469 28L25.8594 22L24.2469 20.3875L22.6344 22ZM21.7094 18.5375L20.4469 18.2L19.8594 20.3875L22.0469 19.8L21.7094 18.5375Z" fill="#F5F5F5"/>
<path id="Vector_14" d="M19.8594 20.3875L18.2469 26.3875L22.6344 22L22.0469 19.8L19.8594 20.3875ZM18.2469 17.6125L13.8594 22L19.8594 20.3875L20.4469 18.2L18.2469 17.6125Z" fill="#F5F5F5"/>
<path id="Vector_15" d="M20.7836 16.925L19.8586 16L18.2461 17.6125L20.4461 18.2L20.7836 16.925ZM20.7836 15.075L20.4461 13.8L18.2461 14.3875L19.8586 16L20.7836 15.075Z" fill="#F5F5F5"/>
<path id="Vector_16" d="M18.2461 14.3875L12.2461 16L18.2461 17.6125L19.8586 16L18.2461 14.3875ZM30.2461 17.6125L28.0461 18.2L28.6336 20.3875L34.6336 22L30.2461 17.6125Z" fill="#F5F5F5"/>
<path id="Vector_17" d="M26.7836 18.5375L26.4461 19.8L28.6336 20.3875L28.0461 18.2L26.7836 18.5375ZM25.1711 19.4625L24.2461 20.3875L25.8586 22L26.4461 19.8L25.1711 19.4625ZM27.7086 16.925L28.0461 18.2L30.2461 17.6125L28.6336 16L27.7086 16.925ZM25.8586 22L30.2461 26.3875L28.6336 20.3875L26.4461 19.8L25.8586 22ZM26.7836 13.4625L28.0461 13.8L28.6336 11.6125L26.4461 12.2L26.7836 13.4625ZM30.2461 14.3875L34.6336 9.99999L28.6336 11.6125L28.0461 13.8L30.2461 14.3875ZM28.6336 11.6125L30.2461 5.61249L25.8586 9.99999L26.4461 12.2L28.6336 11.6125ZM30.2461 17.6125L36.2461 16L30.2461 14.3875L28.6336 16L30.2461 17.6125Z" fill="#F5F5F5"/>
<path id="Vector_18" d="M27.7086 15.075L28.6336 16L30.2461 14.3875L28.0461 13.8L27.7086 15.075ZM22.6336 9.99999L18.2461 5.61249L19.8586 11.6125L22.0461 12.2L22.6336 9.99999ZM21.7086 13.4625L22.0461 12.2L19.8586 11.6125L20.4461 13.8L21.7086 13.4625Z" fill="#F5F5F5"/>
<path id="Vector_19" d="M19.8594 11.6125L13.8594 10L18.2469 14.3875L20.4469 13.8L19.8594 11.6125ZM25.1719 12.5375L26.4469 12.2L25.8594 10L24.2469 11.6125L25.1719 12.5375Z" fill="#F5F5F5"/>
<path id="Vector_20" d="M25.8578 10L24.2453 4L22.6328 10L24.2453 11.6125L25.8578 10Z" fill="#F5F5F5"/>
<path id="Vector_21" d="M23.3219 12.5375L24.2469 11.6125L22.6344 10L22.0469 12.2L23.3219 12.5375Z" fill="#F5F5F5"/>
</g>
<path id="Vector_22" d="M24.2453 22.8C28.0008 22.8 31.0453 19.7555 31.0453 16C31.0453 12.2445 28.0008 9.20001 24.2453 9.20001C20.4898 9.20001 17.4453 12.2445 17.4453 16C17.4453 19.7555 20.4898 22.8 24.2453 22.8Z" fill="#000095"/>
<path id="Vector_23" d="M24.2461 22C27.5598 22 30.2461 19.3137 30.2461 16C30.2461 12.6863 27.5598 10 24.2461 10C20.9324 10 18.2461 12.6863 18.2461 16C18.2461 19.3137 20.9324 22 24.2461 22Z" fill="#F5F5F5"/>
</g>
</g>
</g>
<defs>
<clipPath id="clip0_2909_185269">
<path d="M0.246094 32C0.246094 14.3269 14.573 0 32.2461 0V0C49.9192 0 64.2461 14.3269 64.2461 32V32C64.2461 49.6731 49.9192 64 32.2461 64V64C14.573 64 0.246094 49.6731 0.246094 32V32Z" fill="white"/>
</clipPath>
</defs>
</svg>
