<svg width="65" height="64" viewBox="0 0 65 64" fill="none" xmlns="http://www.w3.org/2000/svg">
<g id="Rounded=Tanzania (TZ)">
<g clip-path="url(#clip0_2909_185268)">
<g id="Group">
<g id="Group_2">
<path id="Vector" fill-rule="evenodd" clip-rule="evenodd" d="M-13.0293 0H82.9689V63.9902H-13.0293V0Z" fill="#0099FF"/>
<path id="Vector_2" fill-rule="evenodd" clip-rule="evenodd" d="M-13.0293 0H82.9689L-13.0293 63.9902V0Z" fill="#009900"/>
<path id="Vector_3" fill-rule="evenodd" clip-rule="evenodd" d="M-13.0293 63.9902H8.30937L82.956 13.3399V0H61.6302L-13.0293 50.6632V64.0031V63.9902Z" fill="black"/>
<path id="Vector_4" fill-rule="evenodd" clip-rule="evenodd" d="M-13.0293 48.7667L60.1208 0H67.3455L-13.0293 53.5789V48.7796V48.7667ZM2.59412 63.9902L82.9689 10.4113V15.2235L9.80591 63.9902H2.59412Z" fill="#FFFF00"/>
</g>
</g>
</g>
</g>
<defs>
<clipPath id="clip0_2909_185268">
<path d="M0.246094 32C0.246094 14.3269 14.573 0 32.2461 0V0C49.9192 0 64.2461 14.3269 64.2461 32V32C64.2461 49.6731 49.9192 64 32.2461 64V64C14.573 64 0.246094 49.6731 0.246094 32V32Z" fill="white"/>
</clipPath>
</defs>
</svg>
