<svg width="65" height="64" viewBox="0 0 65 64" fill="none" xmlns="http://www.w3.org/2000/svg">
<g id="Rounded=Uganda (UG)">
<g clip-path="url(#clip0_2909_185267)">
<g id="Group">
<path id="Vector" fill-rule="evenodd" clip-rule="evenodd" d="M-15.7539 42.6644H80.2314V53.3338H-15.7539V42.6644Z" fill="#FFE700"/>
<path id="Vector_2" fill-rule="evenodd" clip-rule="evenodd" d="M-15.7539 31.9951H80.2314V42.6644H-15.7539V31.9951Z" fill="black"/>
<path id="Vector_3" fill-rule="evenodd" clip-rule="evenodd" d="M-15.7539 21.3387H80.2314V31.9951H-15.7539V21.3387Z" fill="#DE3908"/>
<path id="Vector_4" fill-rule="evenodd" clip-rule="evenodd" d="M-15.7539 10.6693H80.2314V21.3387H-15.7539V10.6693Z" fill="#FFE700"/>
<path id="Vector_5" fill-rule="evenodd" clip-rule="evenodd" d="M-15.7539 0H80.2314V10.6693H-15.7539V0Z" fill="black"/>
<path id="Vector_6" fill-rule="evenodd" clip-rule="evenodd" d="M42.2117 31.9951C42.2117 34.6383 41.1617 37.1732 39.2927 39.0423C37.4237 40.9113 34.8887 41.9613 32.2455 41.9613C29.6023 41.9613 27.0674 40.9113 25.1983 39.0423C23.3293 37.1732 22.2793 34.6383 22.2793 31.9951C22.2793 29.3519 23.3293 26.8169 25.1983 24.9479C27.0674 23.0789 29.6023 22.0289 32.2455 22.0289C34.8887 22.0289 37.4237 23.0789 39.2927 24.9479C41.1617 26.8169 42.2117 29.3519 42.2117 31.9951V31.9951Z" fill="#FFFDFF" stroke="black" stroke-width="0.116111"/>
<path id="Vector_7" fill-rule="evenodd" clip-rule="evenodd" d="M30.4849 24.3576L29.8398 23.1706C30.0979 22.9126 30.5107 22.732 31.1816 22.732L31.1171 24.0221L30.4849 24.3576Z" fill="#DE3108" stroke="black" stroke-width="0.116111"/>
<path id="Vector_8" fill-rule="evenodd" clip-rule="evenodd" d="M31.1164 24.0479L31.1938 22.732C31.1938 22.732 32.5356 22.6546 33.258 23.519L32.5485 24.5511L31.1035 24.035L31.1164 24.0479Z" fill="#FFE700" stroke="black" stroke-width="0.116111"/>
<path id="Vector_9" fill-rule="evenodd" clip-rule="evenodd" d="M32.5742 24.5382L33.2322 23.5061C33.6708 23.9705 33.8514 24.306 33.9289 24.7962C33.9289 24.822 32.8838 25.0542 32.8838 25.0542L32.5742 24.5382Z" fill="#DE3108" stroke="black" stroke-width="0.116111"/>
<path id="Vector_10" fill-rule="evenodd" clip-rule="evenodd" d="M30.8205 41.4001C30.8205 41.4001 32.059 39.981 34.4586 40.2777C34.0974 39.6972 32.9234 39.7617 32.9234 39.7617C32.9234 39.7617 32.5622 37.0008 32.846 36.8718C33.1298 36.7428 34.3296 36.8718 34.3296 36.8718C34.4973 36.8718 34.7683 36.446 34.5489 36.1751C34.3296 35.9042 33.6975 34.8592 33.9555 34.6528C34.2135 34.4463 35.6326 34.7689 35.6326 34.7689L31.6333 29.6342C31.6333 29.6342 31.2204 27.699 32.0461 26.783C33.0266 25.9573 32.9234 25.08 32.8976 25.0929C32.7686 24.1899 31.401 23.5448 30.4721 24.3705C29.9303 25.0284 30.2915 25.5316 30.2915 25.5316C30.2915 25.5316 28.8724 25.9186 28.8079 26.1766C28.7563 26.4089 30.4205 26.125 30.4205 26.125L30.2657 27.2603C30.2657 27.2603 27.0146 30.2276 29.4917 32.7692C29.5304 32.7692 29.582 32.6531 29.582 32.6531C29.582 32.6531 30.4592 33.7368 31.3752 33.969C32.2396 34.8592 32.1493 34.7173 32.1493 34.7173C32.1493 34.7173 32.3299 36.1106 32.1622 36.3944C31.2545 36.2821 30.3369 36.2734 29.4272 36.3686C29.1304 36.4589 27.9951 36.4073 28.266 38.2522L28.6789 37.3104C28.6789 37.3104 28.6531 37.9813 28.924 38.2135C28.8724 37.5168 29.182 37.0395 29.182 37.0395C29.182 37.0395 29.2336 37.8136 29.4142 37.9168C29.582 38.0458 29.582 36.6783 30.5238 36.7815C31.4655 36.9105 32.1493 36.8718 32.1493 36.8718C32.1493 36.8718 32.4589 39.5294 32.3557 39.7875C31.6849 39.6197 30.0593 39.852 29.9561 40.2648C30.9108 40.2003 31.3494 40.3164 31.3494 40.3164C31.3494 40.3164 30.5754 41.0002 30.8205 41.4001Z" fill="black" stroke="black" stroke-width="0.10321" stroke-linecap="round" stroke-linejoin="round"/>
<path id="Vector_11" fill-rule="evenodd" clip-rule="evenodd" d="M31.2066 26.8346C31.2066 26.8346 28.8327 29.4406 29.8519 31.4403C29.9164 31.1565 29.8906 30.9888 29.9164 31.0017C29.8648 30.963 30.2132 31.2339 30.1745 31.1823C30.2003 31.0404 30.0842 30.7308 30.0842 30.7308L30.3938 30.8082L30.2132 30.4598L30.6647 30.5244C30.6647 30.5244 30.5099 30.0857 30.5615 30.0857C30.6863 30.0924 30.8111 30.101 30.9356 30.1115C30.2648 28.9117 30.8969 27.9183 31.1937 26.8475L31.2066 26.8346Z" fill="#9CA69C" stroke="#9CA69C" stroke-width="0.10321" stroke-linecap="round" stroke-linejoin="round"/>
<path id="Vector_12" fill-rule="evenodd" clip-rule="evenodd" d="M32.0195 24.6156C32.0195 24.6156 32.1486 25.5187 31.6583 25.7767C31.5809 25.8283 31.2713 25.9315 31.31 26.1121C31.3745 26.3573 31.5035 26.3057 31.697 26.267C32.2131 26.1767 32.8065 25.08 32.0195 24.6156V24.6156Z" fill="#9CA69C" stroke="#9CA69C" stroke-width="0.116111"/>
<path id="Vector_13" fill-rule="evenodd" clip-rule="evenodd" d="M31.1429 25.3767C31.1429 25.4281 31.1225 25.4773 31.0862 25.5136C31.0499 25.5499 31.0007 25.5703 30.9494 25.5703C30.8981 25.5703 30.8488 25.5499 30.8125 25.5136C30.7762 25.4773 30.7559 25.4281 30.7559 25.3767C30.7559 25.3254 30.7762 25.2762 30.8125 25.2399C30.8488 25.2036 30.8981 25.1832 30.9494 25.1832C31.0007 25.1832 31.0499 25.2036 31.0862 25.2399C31.1225 25.2762 31.1429 25.3254 31.1429 25.3767Z" fill="#F5F5F5"/>
<path id="Vector_14" fill-rule="evenodd" clip-rule="evenodd" d="M30.3819 26.125C30.2528 26.2282 29.6078 26.912 30.2528 27.1571C30.9237 26.9765 30.7302 26.8604 30.885 26.7056C30.885 26.4089 30.5496 26.3185 30.3819 26.125Z" fill="#DE3108" stroke="black" stroke-width="0.116111"/>
<path id="Vector_15" fill-rule="evenodd" clip-rule="evenodd" d="M31.8121 32.5627C31.7734 32.7176 31.6315 33.2594 31.8379 33.6723C32.4056 33.44 32.6636 33.5045 32.8571 33.6336C32.3927 33.2465 32.2121 33.1046 31.8121 32.5627V32.5627Z" fill="#9CA69C" stroke="#9CA69C" stroke-width="0.10321" stroke-linecap="round" stroke-linejoin="round"/>
<path id="Vector_16" fill-rule="evenodd" clip-rule="evenodd" d="M32.793 35.143L32.8188 36.4073C32.8188 36.4073 33.2703 36.4976 33.4638 36.4073C33.6703 36.3299 33.4638 35.53 32.793 35.143Z" fill="#F5F5F5" stroke="#F5F5F5" stroke-width="0.10321" stroke-linecap="round" stroke-linejoin="round"/>
<path id="Vector_17" fill-rule="evenodd" clip-rule="evenodd" d="M36.0058 35.2978C36.0058 35.2978 35.1801 33.3239 33.103 32.8208C31.0259 32.3176 31.2839 30.1115 31.4517 29.9696C31.542 29.7761 31.6065 29.4793 32.2128 29.7632C32.8192 30.047 35.5801 31.4403 35.98 31.5048C36.3799 31.5693 36.0316 35.3494 36.0058 35.2978V35.2978Z" fill="#9CA69C" stroke="black" stroke-width="0.116111"/>
<path id="Vector_18" fill-rule="evenodd" clip-rule="evenodd" d="M34.0199 32.8208C33.9812 32.8337 36.8066 34.485 35.9551 35.9042C36.7679 35.3752 36.497 34.4334 36.497 34.4334C36.497 34.4334 37.1549 36.1493 35.5552 36.9879C35.7358 37.1427 35.839 37.104 35.839 37.104L35.581 37.3749C35.581 37.3749 35.452 37.5813 36.5228 37.0653C36.226 37.2975 36.2002 37.4652 36.2002 37.4652C36.2002 37.4652 36.2905 37.6975 36.9872 37.0782C36.7098 37.3512 36.4749 37.6643 36.2905 38.0071C37.8387 37.8652 41.1672 32.8853 35.2455 31.4146L35.5036 31.6984L34.0199 32.8208V32.8208Z" fill="#DE3108" stroke="black" stroke-width="0.10321" stroke-linejoin="round"/>
<path id="Vector_19" fill-rule="evenodd" clip-rule="evenodd" d="M34.1355 32.3305C34.5226 32.5886 34.6516 32.6918 34.7032 32.8208C34.3549 32.7434 34.0323 32.7692 34.0323 32.7692C34.0323 32.7692 33.2841 32.0467 33.1422 31.9951C33.0389 31.9951 32.4455 31.6081 32.4455 31.6081C32.1488 31.4662 31.8778 30.447 32.9615 30.7437C34.0968 31.2726 34.2517 31.3113 34.2517 31.3113L35.5934 31.7371L36.3675 32.6015C36.3675 32.6015 34.987 31.9177 34.8193 31.9048C35.2064 32.2144 35.4128 32.6273 35.4128 32.6273C34.9741 32.4983 34.6 32.3951 34.1355 32.3305V32.3305Z" fill="#F5F5F5" stroke="black" stroke-width="0.10321" stroke-linecap="round" stroke-linejoin="round"/>
<path id="Vector_20" d="M28.7949 26.2282C28.7949 26.2282 30.1109 25.9186 30.2657 25.9702" stroke="#F5F5F5" stroke-width="0.10321" stroke-linecap="round"/>
<path id="Vector_21" fill-rule="evenodd" clip-rule="evenodd" d="M-15.7539 53.3338H80.2314V64.0031H-15.7539V53.3338Z" fill="#DE3908"/>
</g>
</g>
</g>
<defs>
<clipPath id="clip0_2909_185267">
<path d="M0.246094 32C0.246094 14.3269 14.573 0 32.2461 0V0C49.9192 0 64.2461 14.3269 64.2461 32V32C64.2461 49.6731 49.9192 64 32.2461 64V64C14.573 64 0.246094 49.6731 0.246094 32V32Z" fill="white"/>
</clipPath>
</defs>
</svg>
