<svg width="65" height="64" viewBox="0 0 65 64" fill="none" xmlns="http://www.w3.org/2000/svg">
<g id="Rounded=United Nations (UN)">
<g clip-path="url(#clip0_2909_185326)">
<path id="Vector" fill-rule="evenodd" clip-rule="evenodd" d="M0.246094 0H64.2461V64H0.246094V0Z" fill="#4B92DB"/>
<g id="Group">
<path id="a" d="M37.2701 46.96C37.0381 47.2118 36.7837 47.442 36.5101 47.648C34.8141 45.888 32.8141 43.952 30.9181 43.952C29.7421 43.952 28.9021 44.848 27.9101 45.472C26.5421 46.352 24.6621 46.848 23.0541 46.2C22.1447 45.8886 21.3372 45.3355 20.7181 44.6C21.399 45.0247 22.1707 45.2823 22.9701 45.3518C23.7696 45.4214 24.5742 45.3008 25.3181 45C26.8941 44.344 28.5101 43.472 30.3101 43.472C32.9661 43.472 35.4941 45.272 37.2701 46.96ZM17.6221 41.44C19.3821 43.44 22.2541 42.8 24.5981 43.296C24.9261 43.376 25.2381 43.48 25.5901 43.424C25.3101 43.248 24.9341 43.224 24.6141 43.104C22.7901 42.416 22.5101 40.464 21.5101 39.128C22.7901 39.976 23.8381 41.128 25.0301 42.224C25.8704 42.9188 26.8866 43.3674 27.9661 43.52C27.7101 43.616 27.3741 43.6 27.0861 43.664C25.1661 44.144 23.0381 44.896 20.9901 44.224C19.562 43.7478 18.3635 42.7548 17.6301 41.44H17.6221ZM14.8061 36.8C15.9021 39.288 18.6621 39.488 20.4861 41.008C20.8132 41.2985 21.1762 41.5458 21.5661 41.744L21.5901 41.728C21.1391 41.3348 20.7339 40.892 20.3821 40.408C19.3341 38.888 19.6781 36.808 18.8701 35.192C19.6207 36.0263 20.2434 36.9672 20.7181 37.984C21.3981 39.6 21.6301 41.448 23.1581 42.68C21.5021 42.136 19.5981 42.24 18.1181 41.272C16.5501 40.248 15.1021 38.632 14.8061 36.808V36.8ZM13.6301 31.776C13.7901 33.968 16.1101 35.136 17.2301 36.936C17.4701 37.32 17.7101 37.72 18.0541 38.024C17.9981 37.792 17.8141 37.584 17.7021 37.36C17.3349 36.5513 17.1886 35.6597 17.2781 34.776C17.3821 33.656 17.8461 32.616 17.6701 31.44C18.6301 33.512 18.3181 36.096 18.8701 38.328C18.9981 38.824 19.2941 39.256 19.4781 39.728C18.5421 39.008 17.3101 38.368 16.2781 37.568C15.2493 36.8284 14.4461 35.8174 13.9581 34.648C13.644 33.7253 13.5321 32.7458 13.6301 31.776V31.776ZM13.6941 27.744C13.8061 27.256 13.8941 26.752 14.1021 26.304C13.7021 28.368 15.0781 29.856 15.5421 31.648C15.7181 32.32 15.7821 33.032 16.0541 33.664C16.0781 33.672 16.1021 33.648 16.1181 33.632C15.4381 31.728 16.4381 29.968 17.3981 28.472C17.6334 28.0615 17.8008 27.6158 17.8941 27.152C17.9981 28.016 17.8141 29.008 17.6541 29.896C17.4541 31.04 17.0621 32.112 16.7501 33.216C16.5812 33.9355 16.5675 34.6828 16.7101 35.408L16.6061 35.328C15.8861 34 14.4621 32.96 14.0381 31.504C13.6328 30.2944 13.5151 29.007 13.6941 27.744V27.744ZM14.4541 25.52C14.4803 24.0505 15.0178 22.636 15.9741 21.52C15.9981 21.504 16.0221 21.48 16.0541 21.488C15.0461 23.008 15.9661 24.944 15.8301 26.68L15.7021 28.456C15.7181 28.472 15.7181 28.528 15.7661 28.504C15.8301 28.304 15.8461 28.096 15.8781 27.888C16.1181 26.448 17.3821 25.456 18.4461 24.448C18.6922 24.2157 18.8835 23.9315 19.0061 23.616C18.9181 24.336 18.7181 25.064 18.3981 25.712C17.5741 27.376 15.9901 28.72 15.7021 30.616C15.5661 28.8 14.4541 27.448 14.4541 25.52V25.52ZM17.0941 20.248C17.5541 19.695 18.1659 19.289 18.8541 19.08C17.5341 19.984 17.6061 21.592 17.2061 22.936C17.0621 23.424 16.8461 23.888 16.7261 24.392L16.7661 24.424C17.0019 23.8189 17.371 23.2747 17.8461 22.832C18.7661 21.968 20.1501 21.44 20.6061 20.168C20.5821 21.936 19.0781 23.28 17.7021 24.32C17.0896 24.7821 16.5915 25.3788 16.2461 26.064C16.2941 25.584 16.3261 25.168 16.2781 24.696C16.1341 23.152 16.0381 21.416 17.1021 20.248H17.0941ZM22.4141 17.28C21.4461 18.136 20.7981 19.232 20.0461 20.216C19.4301 21.04 18.5741 21.544 17.8461 22.232C18.2461 21.416 18.3101 20.472 18.8141 19.68C19.6701 18.32 21.0941 17.792 22.4141 17.28V17.28Z" fill="#F5F5F5"/>
<path id="Vector_2" d="M27.2221 46.96C27.4541 47.2118 27.7085 47.442 27.9821 47.648C29.6781 45.888 31.6781 43.952 33.5741 43.952C34.7501 43.952 35.5901 44.848 36.5821 45.472C37.9501 46.352 39.8301 46.848 41.4381 46.2C42.3475 45.8886 43.155 45.3355 43.7741 44.6C43.0932 45.0247 42.3215 45.2823 41.522 45.3518C40.7226 45.4214 39.918 45.3008 39.1741 45C37.5981 44.344 35.9821 43.472 34.1821 43.472C31.5261 43.472 28.9981 45.272 27.2221 46.96ZM46.8701 41.44C45.1101 43.44 42.2381 42.8 39.8941 43.296C39.5661 43.376 39.2541 43.48 38.9021 43.424C39.1821 43.248 39.5581 43.224 39.8781 43.104C41.7021 42.416 41.9821 40.464 42.9821 39.128C41.7021 39.976 40.6541 41.128 39.4621 42.224C38.6218 42.9188 37.6056 43.3674 36.5261 43.52C36.7821 43.616 37.1181 43.6 37.4061 43.664C39.3261 44.144 41.4541 44.896 43.5021 44.224C44.9302 43.7478 46.1287 42.7548 46.8621 41.44H46.8701ZM49.6861 36.8C48.5901 39.288 45.8301 39.488 44.0061 41.008C43.679 41.2985 43.316 41.5458 42.9261 41.744L42.9021 41.728C43.3531 41.3348 43.7583 40.892 44.1101 40.408C45.1581 38.888 44.8141 36.808 45.6221 35.192C44.8715 36.0263 44.2488 36.9672 43.7741 37.984C43.0941 39.6 42.8621 41.448 41.3341 42.68C42.9901 42.136 44.8941 42.24 46.3741 41.272C47.9421 40.248 49.3901 38.632 49.6861 36.808V36.8ZM50.8621 31.776C50.7021 33.968 48.3821 35.136 47.2621 36.936C47.0221 37.32 46.7821 37.72 46.4381 38.024C46.4941 37.792 46.6781 37.584 46.7901 37.36C47.1573 36.5513 47.3036 35.6597 47.2141 34.776C47.1101 33.656 46.6461 32.616 46.8221 31.44C45.8621 33.512 46.1741 36.096 45.6221 38.328C45.4941 38.824 45.1981 39.256 45.0141 39.728C45.9501 39.008 47.1821 38.368 48.2141 37.568C49.2429 36.8284 50.0461 35.8174 50.5341 34.648C50.8482 33.7253 50.9601 32.7458 50.8621 31.776V31.776ZM50.7981 27.744C50.6861 27.256 50.5981 26.752 50.3901 26.304C50.7901 28.368 49.4141 29.856 48.9501 31.648C48.7741 32.32 48.7101 33.032 48.4381 33.664C48.4141 33.672 48.3901 33.648 48.3741 33.632C49.0541 31.728 48.0541 29.968 47.0941 28.472C46.8588 28.0615 46.6914 27.6158 46.5981 27.152C46.4941 28.016 46.6781 29.008 46.8381 29.896C47.0381 31.04 47.4301 32.112 47.7421 33.216C47.911 33.9355 47.9247 34.6828 47.7821 35.408L47.8861 35.328C48.6061 34 50.0301 32.96 50.4541 31.504C50.8594 30.2944 50.9771 29.007 50.7981 27.744V27.744ZM50.0381 25.52C50.0119 24.0505 49.4744 22.636 48.5181 21.52C48.4941 21.504 48.4701 21.48 48.4381 21.488C49.4461 23.008 48.5261 24.944 48.6621 26.68L48.7901 28.456C48.7741 28.472 48.7741 28.528 48.7261 28.504C48.6621 28.304 48.6461 28.096 48.6141 27.888C48.3741 26.448 47.1101 25.456 46.0461 24.448C45.8 24.2157 45.6087 23.9315 45.4861 23.616C45.5741 24.336 45.7741 25.064 46.0941 25.712C46.9181 27.376 48.5021 28.72 48.7901 30.616C48.9261 28.8 50.0381 27.448 50.0381 25.52V25.52ZM47.3981 20.248C46.9381 19.695 46.3263 19.289 45.6381 19.08C46.9581 19.984 46.8861 21.592 47.2861 22.936C47.4301 23.424 47.6461 23.888 47.7661 24.392L47.7261 24.424C47.4903 23.8189 47.1211 23.2747 46.6461 22.832C45.7261 21.968 44.3421 21.44 43.8861 20.168C43.9101 21.936 45.4141 23.28 46.7901 24.32C47.4026 24.7821 47.9007 25.3788 48.2461 26.064C48.1981 25.584 48.1661 25.168 48.2141 24.696C48.3581 23.152 48.4541 21.416 47.3901 20.248H47.3981ZM42.0781 17.28C43.0461 18.136 43.6941 19.232 44.4461 20.216C45.0621 21.04 45.9181 21.544 46.6461 22.232C46.2461 21.416 46.1821 20.472 45.6781 19.68C44.8221 18.32 43.3981 17.792 42.0781 17.28V17.28Z" fill="#F5F5F5"/>
</g>
<path id="Vector_3" d="M44.1211 34.9375L43.8211 34.775C43.2165 36.0244 42.4145 37.1682 41.4461 38.1625L39.7711 36.4875C40.5841 35.6499 41.2517 34.6824 41.7461 33.625L41.4586 33.475C40.9794 34.4997 40.3331 35.4375 39.5461 36.25L38.0211 34.725C38.6665 34.0582 39.191 33.2841 39.5711 32.4375L39.2836 32.2875C38.9197 33.1056 38.4164 33.8543 37.7961 34.5L36.1211 32.8375C36.5833 32.3484 36.9482 31.7757 37.1961 31.15L36.9086 31C36.6772 31.5973 36.3335 32.1446 35.8961 32.6125L34.3711 31.0875C34.807 30.605 35.063 29.9869 35.0961 29.3375H37.2461C37.2296 29.9069 37.1154 30.4693 36.9086 31L37.1961 31.15C37.4248 30.5764 37.5517 29.9672 37.5711 29.35H39.9461C39.9237 30.3676 39.6985 31.3705 39.2836 32.3L39.5711 32.45C40.0067 31.4691 40.2405 30.4106 40.2586 29.3375H42.4086C42.3904 30.7726 42.0665 32.1874 41.4586 33.4875L41.7461 33.6375C42.3711 32.3125 42.7086 30.85 42.7336 29.3375H45.1086C45.0855 31.2228 44.6459 33.0796 43.8211 34.775L44.1086 34.9375C44.981 33.1463 45.4341 31.1799 45.4336 29.1875C45.4336 27.4625 45.0961 25.7875 44.4711 24.2375L44.1836 24.3625C44.7711 25.825 45.0836 27.4 45.1086 29.025H42.7336C42.7115 27.7522 42.4574 26.4941 41.9836 25.3125L41.6961 25.4375C42.1491 26.5803 42.3906 27.7959 42.4086 29.025H40.2586C40.2426 28.0839 40.0606 27.1529 39.7211 26.275L39.4336 26.4C39.7522 27.2391 39.9214 28.1275 39.9336 29.025H37.5586C37.5452 28.4535 37.4397 27.8879 37.2461 27.35L36.9461 27.475C37.1275 27.9725 37.2288 28.4957 37.2461 29.025H35.0961C35.063 28.3756 34.807 27.7575 34.3711 27.275L35.8961 25.7625C36.3634 26.2549 36.725 26.8377 36.9586 27.475L37.2461 27.35C36.9978 26.6758 36.6151 26.0592 36.1211 25.5375L37.7961 23.85C38.5032 24.5873 39.0557 25.4586 39.4211 26.4125L39.7211 26.2875C39.3373 25.2957 38.7594 24.3905 38.0211 23.625L39.5461 22.1125C40.4743 23.0687 41.205 24.1986 41.6961 25.4375L41.9961 25.3125C41.4866 24.0358 40.7306 22.8719 39.7711 21.8875L41.4586 20.2C42.6299 21.3963 43.5557 22.8104 44.1836 24.3625L44.4711 24.2375C43.8083 22.5991 42.8219 21.1111 41.5711 19.8625C40.3163 18.6044 38.8195 17.6136 37.1711 16.95L37.0461 17.25C38.6071 17.8751 40.0299 18.801 41.2336 19.975L39.5461 21.6625C38.5777 20.7191 37.4359 19.972 36.1836 19.4625L36.0586 19.7625C37.2732 20.2534 38.3811 20.975 39.3211 21.8875L37.7961 23.4125C37.0704 22.7087 36.2178 22.1488 35.2836 21.7625L35.1586 22.0625C36.055 22.4305 36.8736 22.9649 37.5711 23.6375L35.8961 25.3125C35.4297 24.873 34.8876 24.5215 34.2961 24.275L34.1711 24.575C34.7247 24.8034 35.2328 25.1294 35.6711 25.5375L34.1461 27.0625C33.6636 26.6266 33.0455 26.3706 32.3961 26.3375V24.1875C33.0099 24.2014 33.6159 24.3285 34.1836 24.5625L34.3086 24.275C33.706 24.0218 33.0619 23.882 32.4086 23.8625V21.4875C33.3528 21.5083 34.2851 21.7033 35.1586 22.0625L35.2836 21.7625C34.3697 21.3911 33.395 21.1919 32.4086 21.175V19C33.6653 19.0211 34.9072 19.2754 36.0711 19.75L36.1961 19.45C34.9919 18.9629 33.7075 18.7043 32.4086 18.6875V16.3125C34.0336 16.325 35.5961 16.65 37.0586 17.2375L37.1836 16.9375C35.6133 16.3108 33.9369 15.9925 32.2461 16C30.197 15.9988 28.1762 16.4783 26.3461 17.4L26.4961 17.675C28.2322 16.8072 30.1428 16.3456 32.0836 16.325V18.7C30.5252 18.7221 28.9917 19.0937 27.5961 19.7875L27.7461 20.0625C29.0955 19.3935 30.5776 19.0347 32.0836 19.0125V21.175C30.9262 21.1959 29.7872 21.4689 28.7461 21.975L28.8836 22.25C29.8825 21.7672 30.9743 21.507 32.0836 21.4875V23.8625C31.3609 23.8847 30.6504 24.0549 29.9961 24.3625L30.1336 24.6375C30.7456 24.353 31.409 24.1956 32.0836 24.175V26.3375C31.7461 26.35 31.4336 26.4375 31.1336 26.5625L31.2836 26.8375C31.5891 26.7127 31.9161 26.649 32.2461 26.65C32.5788 26.6511 32.9079 26.7179 33.2147 26.8466C33.5214 26.9754 33.7997 27.1634 34.0336 27.4C34.2702 27.6339 34.4583 27.9122 34.587 28.2189C34.7157 28.5257 34.7825 28.8548 34.7836 29.1875C34.7836 30.575 33.6461 31.725 32.2461 31.725C31.9112 31.7263 31.5795 31.6606 31.2704 31.5318C30.9613 31.403 30.681 31.2137 30.4461 30.975C30.2118 30.7401 30.026 30.4614 29.8995 30.1547C29.7729 29.8479 29.7081 29.5193 29.7086 29.1875C29.7086 28.5 29.9711 27.8625 30.4586 27.3875C30.6948 27.1517 30.9751 26.9648 31.2836 26.8375L31.1336 26.55C30.8454 26.6723 30.5794 26.8412 30.3461 27.05L28.8211 25.5375C29.203 25.166 29.6419 24.858 30.1211 24.625L29.9961 24.375C29.4819 24.6152 29.0093 24.9359 28.5961 25.325L26.9086 23.625C27.4908 23.066 28.1573 22.602 28.8836 22.25L28.7461 21.975C27.992 22.3443 27.3003 22.8294 26.6961 23.4125L25.1711 21.875C25.9292 21.1363 26.798 20.5205 27.7461 20.05L27.5961 19.775C26.6212 20.2594 25.7273 20.8919 24.9461 21.65L23.2586 19.9625C24.2123 19.033 25.3045 18.2571 26.4961 17.6625L26.3461 17.3875C23.7774 18.6807 21.6981 20.7732 20.4211 23.35L20.6961 23.5C21.2954 22.2793 22.0844 21.1613 23.0336 20.1875L24.7211 21.875C23.9353 22.6866 23.2854 23.6193 22.7961 24.6375L23.0711 24.7875C23.5468 23.7963 24.18 22.8887 24.9461 22.1L26.4711 23.625C25.8536 24.2662 25.3467 25.0054 24.9711 25.8125L25.2461 25.9625C25.6028 25.1787 26.0888 24.4603 26.6836 23.8375L28.3711 25.525C27.939 25.9853 27.5919 26.5185 27.3461 27.1L27.6211 27.25C27.853 26.6953 28.1833 26.1872 28.5961 25.75L30.1211 27.275C29.6887 27.7548 29.433 28.3677 29.3961 29.0125H27.2461C27.2633 28.4071 27.3904 27.81 27.6211 27.25L27.3461 27.1C27.0865 27.7055 26.9424 28.3541 26.9211 29.0125H24.5461C24.5671 27.9585 24.8054 26.9202 25.2461 25.9625L24.9711 25.8125C24.5013 26.8154 24.2458 27.9053 24.2211 29.0125H22.0711C22.095 27.5484 22.4362 26.107 23.0711 24.7875L22.7961 24.6375C22.1358 26.0029 21.7817 27.496 21.7586 29.0125H19.3836C19.4056 27.1043 19.8541 25.2251 20.6961 23.5125L20.4211 23.35C19.5237 25.1606 19.0574 27.1542 19.0586 29.175C19.0605 30.4318 19.2414 31.6818 19.5961 32.8875L19.9086 32.8125C19.5748 31.6795 19.3981 30.5061 19.3836 29.325H21.7586C21.7721 30.308 21.9236 31.2842 22.2086 32.225L22.5211 32.15C22.2432 31.2336 22.0959 30.2826 22.0836 29.325H24.2336C24.2462 30.1058 24.3725 30.8806 24.6086 31.625L24.9211 31.55C24.6877 30.8307 24.5613 30.081 24.5461 29.325H26.9211C26.9386 29.8839 27.0441 30.4365 27.2336 30.9625L27.5461 30.8875C27.3633 30.386 27.2621 29.8585 27.2461 29.325H29.3961C29.4292 29.9744 29.6852 30.5925 30.1211 31.075L28.5961 32.6C28.1336 32.1063 27.7763 31.5236 27.5461 30.8875L27.2336 30.9625C27.4795 31.6555 27.8668 32.2898 28.3711 32.825L26.6961 34.5C25.8883 33.664 25.2813 32.6553 24.9211 31.55L24.6086 31.625C24.9834 32.7875 25.6207 33.8482 26.4711 34.725L24.9461 36.25C23.8228 35.0959 22.9914 33.6903 22.5211 32.15L22.2086 32.225C22.6905 33.821 23.5478 35.2783 24.7086 36.475L23.0461 38.15C21.5788 36.6547 20.5014 34.8218 19.9086 32.8125L19.5961 32.8875C20.2139 35.0086 21.3577 36.9391 22.9211 38.5C23.9961 39.575 25.2336 40.4375 26.5586 41.075L26.7211 40.8C25.4367 40.1893 24.2624 39.3699 23.2461 38.375L24.9336 36.7C25.7946 37.5346 26.7924 38.2153 27.8836 38.7125L28.0336 38.4375C26.9695 37.9536 25.9969 37.2897 25.1586 36.475L26.6836 34.95C27.3838 35.6256 28.2013 36.1678 29.0961 36.55L29.2586 36.275C28.3864 35.9077 27.5897 35.3821 26.9086 34.725L28.5836 33.05C29.1163 33.5483 29.7461 33.9313 30.4336 34.175L30.5961 33.9C29.9312 33.6717 29.322 33.3053 28.8086 32.825L30.3336 31.3C30.8161 31.7359 31.4342 31.9919 32.0836 32.025V34.175C31.5725 34.1606 31.0666 34.0678 30.5836 33.9L30.4336 34.1875C30.9603 34.3729 31.5129 34.4742 32.0711 34.4875V36.8625C31.105 36.8455 30.1508 36.6461 29.2586 36.275L29.0961 36.55C30.0378 36.9512 31.0477 37.1676 32.0711 37.1875V39.3375C30.6777 39.3186 29.3032 39.0122 28.0336 38.4375L27.8836 38.7125C29.1986 39.3156 30.6246 39.6391 32.0711 39.6625V42.0375C30.1961 42.0125 28.3711 41.5875 26.6961 40.7875L26.5461 41.075C28.3243 41.931 30.2726 42.3753 32.2461 42.375C34.3461 42.375 36.3711 41.875 38.1836 40.9625L38.0336 40.6625C36.2886 41.5453 34.3641 42.0158 32.4086 42.0375V39.6625C33.9848 39.6432 35.5361 39.2671 36.9461 38.5625L36.7961 38.275C35.4335 38.96 33.9335 39.3275 32.4086 39.35V37.2C33.5941 37.1772 34.7597 36.8911 35.8211 36.3625L35.6711 36.075C34.6573 36.5844 33.5429 36.862 32.4086 36.8875V34.5125C33.1637 34.4908 33.9053 34.3075 34.5836 33.975L34.4336 33.6875C33.8015 33.9954 33.1113 34.1658 32.4086 34.1875V32.0375C33.0536 32.0016 33.6669 31.7457 34.1461 31.3125L35.6711 32.8375C35.3035 33.1812 34.8863 33.4677 34.4336 33.6875L34.5836 33.975C35.0645 33.7386 35.507 33.431 35.8961 33.0625L37.5711 34.7375C37.0089 35.2767 36.3683 35.7277 35.6711 36.075L35.8211 36.3625C36.5464 35.9984 37.2123 35.5264 37.7961 34.9625L39.3211 36.4875C38.5752 37.2083 37.7237 37.811 36.7961 38.275L36.9461 38.5625C37.9021 38.0821 38.7789 37.4582 39.5461 36.7125L41.2211 38.3875C40.2804 39.3035 39.2056 40.0706 38.0336 40.6625L38.1836 40.9625C39.4312 40.3297 40.5704 39.5027 41.5586 38.5125C42.6022 37.4716 43.4642 36.2632 44.1086 34.9375H44.1211Z" fill="#F5F5F5"/>
<path id="Vector_4" d="M32.9208 26.125V26.2375H33.0083V26.1375L32.9208 26.125ZM32.7958 26H32.9208V26.0875H32.7958V26ZM32.7083 26V25.9125L32.6208 25.9V25.975L32.7083 26ZM32.5333 25.95L32.4458 25.9375V25.85L32.5458 25.8625L32.5333 25.95ZM31.7708 25.85H31.8708V25.925H31.7708V25.85ZM31.6208 26V25.925L31.5333 25.9125V25.9875L31.6208 26ZM31.5333 26.125L31.4208 26.0875L31.4458 26.0125L31.5458 26.0375L31.5333 26.125ZM31.3458 26.2125L31.3333 26.1375L31.4083 26.125L31.4208 26.2L31.3458 26.2125ZM20.8708 34.375H20.8083V34.5H20.9208V34.6875H20.9958L20.9833 34.475L20.8708 34.4375V34.375ZM21.9208 35.55L21.8708 35.6375L21.7208 35.5125L21.6208 35.3625L21.5708 35.2375L21.4708 34.9875L21.6708 35.0875L21.7333 35.275L21.8333 35.35L21.9208 35.55ZM24.6208 39.125L24.5208 38.9625L24.6833 38.9875L24.8458 39.1375L24.9208 39.3125L24.8208 39.3625L24.7708 39.2875L24.6458 39.25L24.6208 39.125ZM31.8458 27H31.6958L31.6708 26.7L31.7583 26.6375V26.5H31.2833V26.375L31.3458 26.325L31.2333 26.2875L31.1583 26.4L31.1333 26.525L30.9958 26.55V26.6125H30.8958V26.7875L30.5208 27.1L29.7833 27.075C29.7333 27.2 29.5958 27.0625 29.5958 27.0625C29.5708 26.975 29.3833 27.0625 29.3833 27.0625C29.3833 27.2 29.1333 26.9875 29.1333 26.9875L28.6708 26.65C28.4083 26.4 28.0083 26.725 27.9958 26.7875C27.9958 26.975 27.6833 26.825 27.6833 26.825C27.6833 26.825 27.4208 26.75 27.3833 26.85C27.3333 26.9625 27.1708 26.9375 27.1708 26.9375L27.1333 26.9875L27.0083 27.0125L26.9833 27.1L26.8208 27.125L27.2208 27.1125C27.3208 27.1 27.1833 27.3375 27.1083 27.325L26.9208 27.3375L26.8583 27.4125H26.6833L26.6083 27.5125H26.3583C26.3583 27.5125 26.2083 27.625 26.2208 27.6625C26.2333 27.7 26.1958 27.825 26.1583 27.825C26.1208 27.825 26.0333 27.95 26.0583 27.9875C26.0833 28.025 25.9833 28.1625 25.9833 28.1625L25.9583 28.2875L25.8708 28.325V28.7L25.7208 28.8V28.9625L25.4708 29.2125L25.5083 29.4375L25.3083 29.65L25.3333 29.8625L25.2083 29.9L25.1833 30L25.1333 30.2875H25.2583C25.3333 30.275 25.3208 30.475 25.2583 30.5C25.2083 30.525 25.0583 30.575 25.1333 30.625C25.2208 30.6875 24.9333 30.675 24.9333 30.5875C24.9333 30.5125 24.7708 30.45 24.7333 30.4625C24.6958 30.5 24.6208 30.35 24.6208 30.35C24.4833 30.2 24.0333 30.3625 24.0333 30.3625L23.9583 30.575C23.8083 30.6125 23.7208 30.85 23.7208 30.85C23.5958 30.8875 23.5083 31.0375 23.5458 31.075C23.5833 31.125 23.4833 31.1375 23.4833 31.1375V31.425L23.4208 31.525V31.85C23.5083 31.85 23.4958 32 23.4958 32C23.3708 32 23.3833 32.1875 23.3833 32.1875L23.1083 32.275L23.0583 32.3625L22.7083 32.35L22.6208 32.4375L22.5208 32.35H21.8583L21.8333 32.275L21.7083 32.25L21.6833 32.1L21.4833 32.1125L21.4458 32.2H21.2333C21.2458 32.35 21.0208 32.55 20.9833 32.5C20.9708 32.4375 20.8208 32.3 20.8833 32.2625L21.1333 32.2125V32.1125H20.6333L20.5833 32.1875H20.3708V32.4125L20.2833 32.4375C20.2083 32.4875 20.2833 32.625 20.2833 32.625C20.3833 32.725 20.2833 32.875 20.2833 32.875C20.1958 32.95 20.3458 33.1 20.3458 33.1C20.4458 33.125 20.2833 33.2125 20.2833 33.2125C20.3083 33.3375 20.3833 33.3875 20.3833 33.3875C20.3083 33.5125 20.4333 33.5875 20.4333 33.5875L20.4458 33.8125L20.5458 33.875V34.025L20.5958 34.1125H20.8083L20.7958 33.775C20.6083 33.5625 20.9583 33.5125 20.9708 33.5875C20.9708 33.675 21.1333 33.7125 21.1333 33.7125C21.1583 33.9125 21.3833 34.0375 21.4458 33.8375C21.5083 33.625 21.5708 33.75 21.6083 33.8375C21.6458 33.9375 21.8958 34.175 21.8958 34.175H22.0958L22.1208 34.3625C22.3458 34.35 22.4208 34.3625 22.5083 34.6875C22.5345 34.7724 22.5796 34.8503 22.6402 34.9152C22.7009 34.9802 22.7754 35.0305 22.8583 35.0625H23.0458C23.0458 34.9 23.2333 35.0875 23.2333 35.175C23.2333 35.25 23.5833 35.55 23.5833 35.55L23.9583 35.6375L24.2833 35.9125L24.5333 35.8875H24.6458C24.7083 35.65 25.0208 35.8875 25.0583 35.975C25.0833 36.0625 25.2958 36.2 25.3083 36.125C25.3458 36.0625 25.4958 36.1 25.5208 36.3C25.5458 36.5 25.6458 36.4625 25.6458 36.4625H26.3958L26.6583 36.2125H27.3333C27.6833 36.2 27.4708 35.7125 27.4083 35.7125C27.2833 35.625 27.4458 35.2375 27.4458 35.2375L26.4708 34.3375C26.2458 34.3375 26.4458 34 26.4458 34C26.6208 33.9 26.4083 33.725 26.4083 33.725C26.4333 33.5625 26.3208 33.375 26.3208 33.375C26.0708 33.2125 26.1458 32.9 26.1458 32.9V32.6875C25.9458 32.5 26.2208 32.4625 26.2208 32.4625C26.3208 32.3 26.1583 32.1875 26.1583 32.1875L26.1458 32.0125L25.9333 31.9875L25.9083 31.35L25.4208 30.6625C25.3333 30.6375 25.3958 30.475 25.3958 30.475C25.5208 30.4 25.3708 30.2375 25.3708 30.2375L25.3583 29.95L25.6333 29.9125L25.7083 29.8125H25.8333V29.4625C25.8833 29.2875 26.0458 29.375 26.0458 29.375L26.2333 29.3875L26.3458 29.1875L26.3708 29.025H26.2208C26.0583 28.9125 26.1458 28.5625 26.1458 28.5625C26.3958 28.1875 26.6833 28.4 26.6833 28.4H26.8708C27.1583 28.575 26.8958 28.9375 26.8958 28.9375C26.8458 29.0125 26.8708 29.275 26.8708 29.275L26.9458 29.7L26.7708 29.85C26.6208 29.925 26.6208 30.125 26.7708 30.1625C26.8958 30.1625 26.8458 30.425 26.6833 30.25C26.4458 30.25 26.8083 30.475 26.7083 30.4125C26.9583 30.5375 26.8958 30.3125 26.8958 30.3125L27.2208 30.0625C27.3458 29.9625 27.5458 30.25 27.5458 30.3C27.5458 30.3375 28.0833 30.3 28.0833 30.3C28.2333 30.4 28.2833 30.65 28.2833 30.65C28.4333 30.4625 28.7333 30.6375 28.5083 30.7375C28.7208 30.875 28.7208 30.9875 28.7208 30.9875C28.8958 30.9375 28.8958 31.075 28.8958 31.1125L28.9458 30.9125C28.7458 30.7625 29.2083 30.7125 29.0708 30.9875L28.9958 31.1125L29.1333 31.2125L29.1458 31.525C29.4458 31.5 29.3583 31.1375 29.3583 31.1375L29.4833 31.1C29.4833 30.975 29.5833 31.05 29.5833 31.05C29.4958 30.5875 29.7958 30.5125 29.7958 30.5125C29.9708 30.475 29.9833 30.1 29.9833 30.1C29.8583 30.05 29.9333 29.8625 30.0708 30.025C30.1958 30.1875 29.9833 29.7 29.9833 29.7L29.8833 29.6125L29.7333 29.5875L29.7208 29.45H29.4708L29.4458 29.6375L29.3458 29.6625L29.3208 29.6125L29.2833 29.75H29.0333V29.5875L29.1708 29.55L29.2333 29.475L29.2708 29.25H29.4458L29.6708 29.1875C29.6708 28.9625 29.7958 29.0125 29.7958 29.0125L29.8833 29.075L30.0083 29.175V29.25L29.9333 29.3L29.9208 29.4L29.9583 29.55H30.0708C30.1083 29.3375 30.3833 29.3375 30.4708 29.475L30.5458 29.2875C30.3583 29.1875 30.5458 29.0375 30.5958 29.1125C30.6458 29.175 30.7708 28.9375 30.7708 28.9375C30.7708 28.9375 30.8583 29.0625 30.7708 28.8875C30.6708 28.725 30.8333 28.6375 30.8333 28.6375C30.8083 28.4875 31.0083 28.5125 31.0083 28.5125L31.0208 28.3L30.8333 28.2875C30.7958 28.475 30.6333 28.3125 30.7083 28.275C30.7833 28.2375 30.8708 28.15 30.8708 28.15V28.025L30.9583 27.9875V27.8625H31.1708L31.3458 27.775L31.3833 27.7H31.5708L31.8333 27.45L31.8083 27.3375C31.6458 27.3375 31.8083 27.2125 31.8083 27.2125L31.8333 27.0125L31.8458 27Z" fill="#F5F5F5"/>
<path id="Vector_5" d="M26.4708 29.675L26.2333 29.65L26.2458 29.75H26.3208C26.4208 29.9375 26.3208 30.3875 26.3208 30.3875C26.3208 30.3875 26.1708 30.4 26.1458 30.325C26.1208 30.2375 26.0458 30.5 26.1083 30.5375C26.1583 30.575 26.3458 30.5375 26.3583 30.6875C26.3583 30.8375 26.4833 30.6 26.4833 30.6V29.675H26.4708Z" fill="#F5F5F5"/>
<path id="Vector_6" d="M26.5336 31.1875L26.5586 31.0625L26.4586 31.025L26.4711 30.825L26.5586 30.8125V30.7125L26.3711 30.85L26.2461 30.775V31.1L26.4461 31.375L26.5336 31.1875ZM26.5836 31.5375L26.4836 31.55V31.6625H26.5836V31.5375ZM26.4586 32.225L26.3461 32.2375V32.3375L26.4711 32.325L26.4586 32.225ZM26.6211 31.9C26.6461 31.9 26.6711 31.8875 26.6711 31.85C26.6711 31.8125 26.6461 31.7875 26.6211 31.7875C26.5961 31.7875 26.5586 31.8125 26.5586 31.85C26.5586 31.875 26.5836 31.9 26.6211 31.9Z" fill="#F5F5F5"/>
<path id="Vector_7" d="M26.709 32.2C26.7435 32.2 26.7715 32.172 26.7715 32.1375C26.7715 32.103 26.7435 32.075 26.709 32.075C26.6745 32.075 26.6465 32.103 26.6465 32.1375C26.6465 32.172 26.6745 32.2 26.709 32.2Z" fill="#F5F5F5"/>
<path id="Vector_8" d="M26.709 30.65C26.7435 30.65 26.7715 30.622 26.7715 30.5875C26.7715 30.553 26.7435 30.525 26.709 30.525C26.6745 30.525 26.6465 30.553 26.6465 30.5875C26.6465 30.622 26.6745 30.65 26.709 30.65Z" fill="#F5F5F5"/>
<path id="Vector_9" d="M30.4332 30.175L30.4707 30.05L30.5457 30V29.875L30.6082 29.775L30.6957 29.675L30.7207 29.5625L30.8457 29.4875L31.0082 29.4625L31.0707 29.375L31.1082 29.2125V29.0875L31.1707 29.0125L31.3332 28.95V28.7H31.2457V28.6L31.0957 28.5875L31.0582 28.65H30.9957L30.9832 28.7625H31.0582L31.0707 28.8375L31.0207 28.8875L30.9957 28.9625L30.8957 28.9875L30.6457 29.2125V29.325L30.5707 29.425L30.4957 29.625H30.2082L30.1582 29.875L30.1957 30.075L30.4332 30.175ZM31.6082 29.5125V29.325L31.5832 29.15L31.3832 29.05L31.2332 29.1875L31.2082 29.375V29.5L31.0832 29.525L31.0457 29.9L30.9457 29.9375V30.0625L30.8207 30.1125L30.6582 30.15L30.6332 30.325L30.5332 30.3875L30.4832 30.55L30.4082 30.95C30.4082 30.95 30.5332 31.175 30.5957 31.075C30.6137 31.0424 30.6388 31.0143 30.6691 30.9927C30.6994 30.9711 30.7341 30.9565 30.7707 30.95L30.8082 30.85L31.1707 30.8625C31.1957 30.7125 31.3707 30.775 31.3707 30.8375C31.3707 30.9 31.4957 30.85 31.4957 30.85L31.5957 30.7H31.7457V30.5375L31.8207 30.5V30.25C32.0332 30.1875 32.0082 29.9875 32.0082 29.9875L32.0582 29.925L32.0332 29.825C31.9207 29.7875 31.9832 29.7 32.0457 29.7125C32.1082 29.75 31.9582 29.5875 31.9582 29.5875C31.8707 29.6625 31.8082 29.5125 31.8082 29.5125H31.6082V29.5125ZM31.8207 31.1375C31.8082 31.3125 31.6082 31.3625 31.6082 31.3625L31.4582 31.325L31.3832 31.25L31.3707 31.0625H31.4957L31.5082 31.1375H31.8207V31.1375ZM32.5332 30.2875C32.5707 30.4125 32.5582 30.1 32.6207 30.1125C32.6707 30.1125 32.6207 29.925 32.6207 29.925L32.3957 30.1C32.5207 30.1 32.5207 30.225 32.5332 30.2875ZM33.2457 29.575C33.2957 29.7 33.2832 29.875 33.4832 30.0125C33.5457 30.0625 33.4457 30.1375 33.3707 30.1125C33.3082 30.0625 33.1207 29.775 33.1207 29.775V29.6C33.1582 29.4875 33.2207 29.525 33.2457 29.5875V29.575ZM33.4207 33.65L33.3332 33.6125L33.2457 33.6875L33.2832 33.725L33.3207 33.7875L33.4207 33.65ZM32.9207 33.4625V33.6375V33.4625ZM34.9457 33.2L34.8957 33.1375L34.7957 33.2L34.8332 33.275L34.9457 33.2ZM38.6832 36.0875L38.8082 36.1375V36.375C38.9707 36.5375 39.4957 36.4 39.4957 36.3625L39.4707 35.8625L39.3957 35.7875V35.45C39.4457 35.275 39.1457 35.025 39.1082 35.075C39.0832 35.125 38.9082 35.0875 38.9082 35.1375C38.9082 35.2 38.7957 35.4625 38.8582 35.5625C38.9082 35.65 38.8207 35.65 38.7957 35.75C38.7957 35.85 38.6582 36 38.6707 36.0875H38.6832ZM38.3832 35.55C38.3582 35.65 38.2707 35.7125 38.2207 35.675C38.1582 35.625 38.2832 35.7375 38.3082 35.8C38.315 35.8103 38.3243 35.8188 38.3352 35.8246C38.3461 35.8305 38.3583 35.8335 38.3707 35.8335C38.3831 35.8335 38.3953 35.8305 38.4062 35.8246C38.4171 35.8188 38.4264 35.8103 38.4332 35.8C38.4707 35.7375 38.4582 35.6125 38.4832 35.55C38.5082 35.5125 38.4082 35.5 38.3832 35.55V35.55ZM37.7707 33.075H37.8582V33.325H37.7707V33.075ZM39.1457 30.475C39.0832 30.4 39.4082 30.2625 39.4707 30.425C39.5207 30.5875 39.4707 30.55 39.4082 30.55C39.3582 30.525 39.2207 30.575 39.1582 30.475H39.1457ZM39.4207 28.75L39.5707 28.775V28.6875L39.4457 28.6625L39.4207 28.75ZM39.0707 28.925L39.1457 28.8875L39.1207 28.825L39.0957 28.7875L39.0582 28.8L38.9582 28.8625L38.8707 28.8L38.8332 28.875L38.9457 28.9375L38.9582 28.95H38.9832L39.0582 28.9L39.0707 28.925ZM39.5707 25.6125H39.3582C39.3582 25.6125 39.4207 25.6375 39.2332 25.4625C39.0457 25.2875 38.9332 25.5 38.9332 25.5L38.7207 25.5375V25.75L38.6207 25.7875V25.9125H38.7707C38.7707 25.9125 38.7707 26.075 38.8207 26C38.8707 25.925 39.1957 26.0125 39.1582 26.175C39.1582 26.25 39.4957 26.425 39.4582 26.6375C39.6207 26.6625 39.5832 26.8375 39.5832 26.8375L39.8082 26.875L39.8832 26.7375H39.9457V26.6625L39.7957 26.625L39.7707 26.2L39.6832 26.125L39.7082 26.025L39.5957 25.975L39.6582 25.8L39.5582 25.6125H39.5707ZM40.1457 26.9875H40.0332L39.7957 27.0125L39.6707 27.2625C39.6707 27.2625 39.7332 27.3125 39.7957 27.4125C39.8332 27.5 39.8707 28.0625 39.7082 28.1625C39.5457 28.25 39.7082 28.1875 39.7082 28.1875L39.6957 28.4875C39.7332 28.6125 39.7957 28.5625 39.8332 28.4875C39.8832 28.425 39.9207 28.4125 39.9707 28.3375C40.0405 28.2581 40.0917 28.1641 40.1207 28.0625C40.1207 27.9625 40.1957 27.8125 40.1582 27.775C40.1207 27.7375 40.1957 27.55 40.1957 27.55C40.1957 27.55 40.2457 27.425 40.1957 27.325C40.1457 27.225 40.2082 27.1 40.2457 27.05L40.1457 26.9875V26.9875ZM40.3082 27.5375V27.4375H40.3957V27.5625L40.3082 27.5375ZM40.3082 27.9125L40.2332 27.875L40.2707 27.8L40.3457 27.8375L40.3082 27.9125ZM40.1832 26.8375L40.1332 26.7125C40.1332 26.7125 40.1332 26.6125 40.1582 26.5625C40.1832 26.5 40.1082 26.45 40.0582 26.4375C40.0207 26.425 40.0332 26.3125 40.0207 26.2625C40.0207 26.2125 39.9207 26.1625 39.9207 26.1625L39.8957 25.925C39.8957 25.8875 39.7707 25.825 39.8082 25.8L39.9207 25.675C39.9582 25.6375 39.8832 25.45 39.9457 25.4875C40.0082 25.5375 40.0082 25.6125 40.0332 25.65C40.0582 25.7125 40.0332 25.9 40.0957 25.9375C40.1582 25.975 40.0832 26.1125 40.1832 26.1125C40.2957 26.1125 40.2207 26.3625 40.2207 26.3625C40.2207 26.3625 40.1957 26.5625 40.2582 26.575C40.3332 26.575 40.2957 26.9125 40.2957 26.9125L40.1832 26.8375ZM39.3207 24.65C39.3582 24.7125 39.4457 24.75 39.4457 24.8C39.4457 24.8625 39.4082 24.9 39.4957 24.9125C39.5707 24.925 39.6207 24.9 39.6582 24.9625C39.6839 25.0396 39.6839 25.1229 39.6582 25.2C39.6582 25.25 39.6832 25.325 39.7457 25.325C39.8082 25.325 39.8207 25.35 39.8207 25.3875C39.8207 25.425 39.9082 25.2375 39.9082 25.2375C39.8332 25.1875 39.7832 25.0625 39.7832 25.0625L39.7207 24.85C39.7207 24.8125 39.6332 24.7875 39.5957 24.775C39.5457 24.775 39.4707 24.65 39.4707 24.65H39.3207V24.65ZM39.4457 24.525C39.4131 24.4785 39.3703 24.44 39.3207 24.4125C39.2707 24.3875 39.2332 24.3625 39.1707 24.3625C39.1563 24.3618 39.1423 24.3576 39.1299 24.3502C39.1175 24.3428 39.1071 24.3325 39.0997 24.3201C39.0923 24.3077 39.088 24.2937 39.0873 24.2793C39.0866 24.2649 39.0895 24.2505 39.0957 24.2375C39.1207 24.175 39.0582 24.1375 39.0582 24.0875C39.0582 24.0375 39.0957 24.0375 39.1582 24.0875C39.2332 24.1125 39.2207 24.125 39.2707 24.2C39.3207 24.2625 39.3457 24.325 39.3957 24.325C39.4582 24.3 39.4957 24.45 39.5457 24.4C39.5957 24.3625 39.5832 24.5 39.5832 24.5L39.4582 24.5375L39.4457 24.525ZM37.8957 26.0625C37.9707 26.1375 37.4957 26.1125 37.4957 26.0625C37.4957 26.0125 37.5457 25.8125 37.6582 25.85C37.7832 25.9 37.7832 25.6125 37.7832 25.6125C37.7832 25.6125 37.6832 25.625 37.7832 25.575C37.8707 25.525 37.7832 25.45 37.7332 25.4L37.6582 25.2875H37.8457C37.9207 25.2375 37.9457 24.975 37.9457 24.975C38.1082 25.0375 38.1957 24.925 38.1957 24.925C38.1957 24.925 38.2207 25.0125 38.2707 25.075C38.3207 25.1375 38.1457 25.175 38.2082 25.2C38.2707 25.25 38.2957 25.375 38.2707 25.4125C38.2457 25.45 38.0957 25.4125 38.0957 25.375C38.0957 25.3125 38.0457 25.4375 38.0957 25.5C38.1457 25.575 38.0332 25.675 38.0082 25.675C37.9832 25.675 37.8082 25.7 37.9457 25.775C38.0957 25.8625 38.2582 25.8125 38.2582 25.8125C38.2582 25.8125 38.3832 25.8125 38.4207 25.875C38.4582 25.9375 38.4082 25.95 38.3332 25.95L37.9582 25.925C37.9582 25.925 37.8582 26.025 37.8957 26.05V26.0625ZM37.0457 26.1875C37.1082 26.1625 37.2707 26.15 37.2957 26.1875C37.3207 26.2375 37.2082 26.2875 37.2082 26.2875L37.0457 26.3125C36.9957 26.25 36.9832 26.1875 37.0457 26.1875ZM38.7582 25.05C38.8707 24.9875 39.0957 24.9875 39.0832 24.9125C39.0707 24.825 39.2082 24.8 39.2082 24.8L39.2582 24.9625L39.3832 25.05V25.2C39.3832 25.2 39.4332 25.175 39.2832 25.2C39.1332 25.25 39.2332 25.325 39.2332 25.325H38.9082L38.8707 25.2L38.7582 25.05ZM38.2457 24.3125C38.3207 24.3125 38.2207 24.625 38.4332 24.6C38.6457 24.575 38.4332 24.7 38.6082 24.7125C38.7582 24.7125 38.7332 24.5875 38.7707 24.4875C38.8332 24.4 38.8082 24.35 38.7082 24.3125C38.6207 24.2875 38.6207 24.2875 38.5832 24.1875C38.5582 24.075 38.4582 24.05 38.4582 24.05L38.4207 23.8875L38.2457 24L38.0707 24.225C38.0707 24.4 38.1582 24.3125 38.2457 24.3125ZM38.5957 25.4625L38.6332 25.375L38.7082 25.4125L38.6707 25.5L38.5957 25.4625ZM38.4582 25.3375H38.5332V25.425H38.4582V25.3375ZM38.5207 23.5375L38.5332 23.6625H38.4582L38.4457 23.5375H38.5207ZM38.2957 24.7875H38.3832V24.8625H38.2957V24.7875ZM38.0832 24.7875V24.7125L38.2082 24.7L38.2207 24.775L38.0832 24.7875ZM36.9957 26.0875L36.9207 26.05L36.9582 25.9625L37.0332 25.9875L36.9957 26.0875ZM36.5707 25.8375V25.7625L36.6957 25.75V25.825L36.5707 25.8375ZM33.9707 25.8375V25.9125L34.2707 25.9V25.8125L33.9707 25.8375ZM33.7832 25.9375L33.7582 25.8125L33.8332 25.8L33.8582 25.925L33.7832 25.9375ZM33.7207 26.0125L33.6957 25.9375H33.7332L33.7582 26L33.7207 26.0125ZM34.3832 25.7875V25.8875H34.5082C34.5082 25.8875 34.5832 25.95 34.5832 25.9875C34.5832 26.025 34.6832 26.075 34.7332 26.075C34.7832 26.075 34.9332 25.9625 34.9332 25.9625C34.9332 25.9625 34.9957 25.775 34.9332 25.7875C34.8957 25.8 34.7832 25.8875 34.7707 25.8C34.7707 25.725 34.5957 25.7625 34.5957 25.7625L34.3832 25.7875V25.7875ZM35.0457 25.6375C35.0457 25.6875 35.0207 25.7375 35.1082 25.75C35.1832 25.75 35.3332 25.7 35.3457 25.775C35.3457 25.8625 35.3457 25.9 35.4707 25.95C35.5497 25.9837 35.6348 26.0007 35.7207 26L35.9707 25.975C35.9707 25.975 36.1582 26.0125 36.1957 26.05C36.3457 26.2 36.4457 26.2375 36.4707 26.175C36.5207 26.1 36.4707 25.95 36.4457 25.9C36.4457 25.85 36.2457 25.5875 36.1832 25.65C36.1207 25.7 36.1082 25.65 35.9832 25.6875C35.8582 25.725 35.6082 25.6875 35.6082 25.6375C35.5832 25.5875 35.3957 25.5625 35.3957 25.5125C35.3957 25.45 35.2707 25.3875 35.2707 25.4625C35.2957 25.55 35.1832 25.5875 35.1457 25.5625C35.1332 25.5375 35.0457 25.6375 35.0457 25.6375V25.6375ZM38.1082 23.9125L38.2082 23.6125C38.0707 23.5875 38.0957 23.4375 38.0957 23.4375C38.0957 23.3125 37.8957 23.1875 37.8332 23.225C37.7707 23.2625 37.7957 22.9375 37.7957 22.9375C37.7957 22.9375 37.9207 22.8625 37.9707 22.9C38.0207 22.9375 37.5082 22.225 37.4082 22.2875C37.2957 22.3625 37.0582 22.225 37.0707 22.1C37.0832 21.975 36.5957 21.575 36.5957 21.575C36.5957 21.575 36.4332 21.475 36.4082 21.55C36.3832 21.625 36.3332 21.675 36.4082 21.725C36.4832 21.7625 36.4707 21.6625 36.5707 21.75C36.6582 21.85 36.8332 21.9625 36.7707 22.05C36.6957 22.125 36.6207 22.1625 36.6207 22.1625L36.7207 22.2625H36.8582L36.8832 22.5C36.8832 22.5 37.0457 22.575 37.0832 22.675C37.1332 22.7625 37.1332 22.825 37.0832 22.875C37.0457 22.925 36.9582 23.025 36.9832 23.125C36.9832 23.2125 37.1082 23.25 37.1082 23.25L37.2082 23.2625L37.2832 23.3V23.475C37.3957 23.45 37.5707 23.6 37.5582 23.7C37.5457 23.7875 37.5832 23.7375 37.7082 23.825C37.8332 23.925 37.8082 23.95 37.8957 24.0125C37.9957 24.075 38.0707 24.0375 38.1082 23.9125V23.9125Z" fill="#F5F5F5"/>
<path id="Vector_10" d="M35.9203 22.075C35.9078 22.025 35.8703 21.825 35.9578 21.85C36.0328 21.85 35.9828 21.85 36.0828 21.8875C36.1703 21.925 36.1828 21.825 36.1828 21.825H36.3328L36.5203 21.975L36.4828 22.1H36.3578C36.2828 22 36.1578 22.0375 36.1828 22.1375C36.2078 22.225 36.1203 22.4 36.0578 22.4125C36.0078 22.425 35.8328 22.425 35.8453 22.35L35.9203 22.075V22.075ZM35.8078 21.7125V21.6C35.8078 21.6 35.8078 21.5 35.7328 21.5C35.6578 21.5 35.5453 21.4125 35.5703 21.3625C35.5953 21.3125 35.3453 21.25 35.3453 21.25C35.3453 21.25 35.1203 21.0375 35.1953 21.0625C35.2828 21.0875 35.2328 20.975 35.2328 20.975C35.2328 20.975 35.0828 21 35.0328 20.975C34.9953 20.975 35.0078 20.85 35.0078 20.85C35.0078 20.85 34.8453 20.8125 34.8453 20.85C34.8453 20.8875 34.9078 20.8875 34.9328 20.975C34.9578 21.05 34.9328 21.1875 35.0578 21.225C35.1828 21.2375 35.2078 21.2625 35.2203 21.325C35.2328 21.375 35.3828 21.3875 35.3828 21.3875L35.4953 21.4375L35.8078 21.7125V21.7125ZM34.3328 20.225L34.2328 20.2V20.325H34.3703L34.3328 20.225ZM34.3328 19.775C34.1953 19.6625 34.5203 19.85 34.5203 19.85C34.6203 19.85 34.6953 19.9375 34.6953 19.975C34.6953 20.0125 34.8328 20 34.8328 20L34.8578 19.9L34.7453 19.775L34.6578 19.7C34.6578 19.7 34.5078 19.7 34.5078 19.65C34.5078 19.6125 34.3828 19.8125 34.3328 19.775V19.775ZM36.7828 19.85C36.7453 19.975 36.7203 20.1375 36.6578 20.1375C36.5953 20.1375 36.6203 20.3125 36.6203 20.3125H36.8453C36.8953 20.3375 36.8953 20.475 36.8953 20.475C37.0953 20.4625 37.1828 20.725 37.1453 20.8C37.1328 20.8625 37.2328 20.8625 37.2328 20.8625C37.2328 20.8625 37.2328 21.075 37.2078 21.1375C37.1828 21.1875 37.3828 21.225 37.4328 21.3125C37.4828 21.3875 37.4078 21.6625 37.3703 21.675C37.3203 21.675 37.4703 21.725 37.4578 21.8C37.4453 21.8625 37.4953 21.8 37.5078 21.9L37.5578 22.2375L37.7328 22.25C37.7703 22.075 38.1078 22.075 38.1578 22.0875C38.3953 22.175 38.5578 22.525 38.5578 22.6C38.5578 22.6875 38.4203 22.7 38.4203 22.7L38.4453 23.0875C38.6703 23.1625 38.8578 23.4875 38.8203 23.5375C38.7953 23.5875 38.9828 23.575 38.9828 23.575C39.0078 23.325 39.2328 23.4125 39.2578 23.5C39.2578 23.575 39.3078 23.75 39.3078 23.75L39.3703 23.875L39.4703 23.9625H39.6078L39.6453 24.0375L39.8203 24.0625C39.8203 24.0625 39.9703 24.225 39.9828 24.2625C39.9953 24.3 40.1953 24.2875 40.2453 24.3C40.3078 24.3125 40.3828 24.3625 40.3953 24.425C40.4078 24.5 40.4953 24.6 40.4953 24.6C40.4953 24.6 40.6453 24.6375 40.6578 24.7L40.7453 24.875L40.8703 24.975L40.8828 25.1L41.0328 25.1125L41.0703 25.275H41.3203L41.4453 25.175C41.6203 25.075 41.7453 24.95 41.7578 24.9C41.7578 24.85 41.7953 24.65 41.9203 24.6875C42.0578 24.725 41.9703 24.3875 41.9703 24.3875C41.9703 24.3875 41.7828 24.2625 41.7953 24.1875C41.7953 24.1125 41.6078 23.9875 41.6203 23.9375C41.6328 23.875 41.4453 23.7625 41.4578 23.7125C41.4703 23.6625 41.3703 23.5125 41.3703 23.5125L41.1703 23.325L41.1453 23.2L40.9828 23.1875L40.6578 22.8L40.6703 22.675H40.5828V22.525L40.4953 22.475L40.3453 22.4625L40.0453 22.1375L40.0203 21.9875H39.8828L39.9078 21.7C39.9953 21.575 39.9453 21.35 39.9453 21.35C39.9453 21.35 39.7578 21.45 39.6703 21.4C39.5703 21.3625 39.7078 21.275 39.7078 21.275V21.15L39.6203 21.075C39.6203 21.075 39.3953 21.1125 39.3828 21.075L39.3328 20.85L39.3203 20.625L39.2203 20.575V20.5H39.0703V20.35L38.9828 20.325L38.9078 20.2875L38.8953 20.125L38.5953 20.1125L38.5078 19.975L38.3953 19.8125L38.0703 19.7875L37.9828 19.7L37.8578 19.675L37.7578 19.6375L37.7203 19.7L37.4703 19.7125L37.4578 19.8C37.3328 19.8625 36.7953 19.8 36.7828 19.85V19.85ZM38.1703 19.5C38.1578 19.4 38.4453 19.3 38.5078 19.375C38.5703 19.4625 38.7578 19.475 38.7828 19.875C38.7953 20.025 38.5453 19.725 38.5453 19.725L38.3453 19.6625C38.2453 19.6375 38.1828 19.5625 38.1703 19.5ZM34.2828 19.6625L34.2078 19.6375L34.2578 19.5125L34.3328 19.55L34.2828 19.6625ZM33.5828 18.3375L33.4203 18.1625V18.0125L33.3578 17.9625L33.3078 17.775L33.1328 17.725L32.9578 17.7875L32.7828 17.9125L32.5703 17.9375L32.4703 18.0625L32.8953 18.1L32.9703 18.225L33.2828 18.2625L33.4828 18.4625C33.6578 18.5125 33.6953 18.4375 33.5828 18.3375V18.3375ZM33.5578 17.675C33.5328 17.55 33.3578 17.825 33.5328 17.875C33.7078 17.9375 33.8828 17.875 33.8828 17.875L33.9203 17.8L34.5828 17.8125L34.6703 17.6875C34.6703 17.6875 34.8203 17.625 34.8953 17.65C34.9578 17.675 34.8953 17.4625 34.8328 17.4875C34.7703 17.5125 34.6328 17.5 34.6328 17.5H34.3953C34.3953 17.4125 34.1703 17.45 34.1578 17.5C34.1578 17.55 34.0703 17.575 34.0703 17.575L33.7578 17.6C33.7328 17.675 33.5703 17.725 33.5578 17.675V17.675ZM32.2453 19.95C32.4453 20.025 32.5203 19.975 32.5328 19.9125C32.5453 19.8625 32.5578 19.85 32.6453 19.8375C32.7203 19.825 32.6328 19.6625 32.5578 19.675C32.4703 19.6875 32.3953 19.65 32.3828 19.575C32.3703 19.5125 32.2328 19.3375 32.2203 19.475C32.2078 19.6 32.1203 19.6 32.1328 19.7C32.1578 19.8 32.1953 19.95 32.2453 19.95V19.95ZM30.7203 20.1125C30.7078 20.0625 30.9828 20.05 31.0203 20.0875C31.0578 20.1375 31.0328 20.2125 31.1453 20.2125C31.2578 20.2125 31.2203 20.2875 31.2078 20.325C31.1953 20.3625 31.0578 20.35 31.0453 20.3125C31.0453 20.2625 30.8328 20.25 30.8328 20.25C30.8328 20.25 30.7328 20.175 30.7078 20.1125H30.7203ZM35.1328 17.3L35.0703 17.225L35.0078 17.2875L35.1078 17.3875L35.1328 17.4125L35.1578 17.3875L35.2828 17.275L35.2453 17.2125L35.1328 17.3ZM34.4203 16.925L34.3828 16.9875L34.4828 17.05L34.5078 17.0625H34.5328L34.6703 16.9625L34.6328 16.8875L34.5078 16.975L34.4203 16.925ZM34.0578 19.7375H33.9328L33.9203 19.8125H34.0328L34.1203 19.95L34.1828 19.9125L34.0828 19.7625V19.75L34.0578 19.7375ZM29.6828 23.5125V23.6625H29.8953C29.9703 23.6625 29.8203 23.5625 29.8203 23.5625C29.8203 23.5625 29.6703 23.575 29.6828 23.5125V23.5125ZM29.9328 23.5125L29.9828 23.45L30.0578 23.5125L30.0078 23.575L29.9328 23.5125ZM27.5078 20.9875L27.5703 20.925L27.6453 21.0125L27.5953 21.075L27.5078 20.9875ZM31.2453 38.2875L31.2078 38.3625L31.2828 38.4125L31.2578 38.4375L31.3203 38.4875L31.3828 38.425L31.4203 38.3875L31.3703 38.3625L31.2453 38.2875ZM30.2953 37.325L30.2078 37.3875L30.1703 37.425L30.2203 37.4625L30.3078 37.525L30.3578 37.4625L30.3078 37.425L30.3453 37.3875L30.2953 37.325ZM40.2328 34.825C40.2203 34.7625 40.1328 34.725 40.1328 34.725L40.1078 34.8L40.1328 34.8125V34.9125L40.1828 34.9625C40.2203 34.9125 40.2453 34.875 40.2328 34.8375V34.825ZM40.2328 34.5625V34.4375L40.3578 34.4625V34.575L40.2328 34.5625ZM43.4328 33.525C43.4953 33.4875 43.5578 33.4125 43.5578 33.5625C43.5578 33.725 43.4828 33.675 43.4328 33.725C43.3828 33.775 43.3578 33.575 43.4328 33.5125V33.525ZM44.1078 32.95V32.925C44.1079 32.8995 44.1037 32.8741 44.0953 32.85L44.0203 32.875V32.9375C44.0328 32.9625 44.0328 32.9875 44.0578 33L44.1078 33.0125V32.9375V32.95ZM43.9328 33.0125L43.9828 33.175L44.0578 33.15C44.0383 33.0968 44.0216 33.0425 44.0078 32.9875L43.9328 33.0125ZM43.6453 33.325H43.5703C43.5703 33.3875 43.5703 33.4625 43.6328 33.475L43.6578 33.4L43.6453 33.3375V33.325ZM43.2953 31.725C43.2949 31.7123 43.2912 31.6998 43.2847 31.6889C43.2781 31.678 43.2689 31.6689 43.2578 31.6625C43.1953 31.6375 43.0953 31.675 43.0453 31.7125L43.0828 31.775C43.1453 31.75 43.2078 31.725 43.2203 31.7375L43.2953 31.725V31.725ZM39.6078 27.4125C39.5578 27.4625 39.4453 27.4875 39.4453 27.4875L39.3953 27.6375L39.3328 27.6875V27.825C39.3203 27.925 39.2078 27.975 39.2078 27.975L39.1453 28.0375C39.1453 28.0375 38.8328 28.0625 38.7828 28.0375C38.6578 27.9875 38.7453 27.825 38.8328 27.8375C38.9078 27.85 38.8203 27.6125 38.8203 27.6125L38.9203 27.6C38.9203 27.6 38.9328 27.35 38.9703 27.35C39.0078 27.35 38.9703 27.275 38.9078 27.225C38.8578 27.1875 38.7828 27.0625 38.7328 27.075H38.4703L38.4328 27.15L38.2828 27.175C38.2828 27.175 38.2953 27.2875 38.2703 27.3125C38.1953 27.4125 37.8828 27.6125 38.0203 27.275L38.0578 27.2V27.075L37.8078 27.0625C37.8078 27.0625 37.6953 27.0125 37.6953 26.9625V26.8375L37.4078 26.5375L37.0703 26.4875L37.0453 26.425L36.8453 26.4C36.5953 26.275 36.3953 26.3875 36.4328 26.5875C36.4703 26.7875 36.5453 26.875 36.4078 26.875C36.2828 26.875 36.2453 26.75 36.2453 26.75C36.2453 26.75 36.1453 26.725 36.1453 26.775C36.1453 26.825 36.1078 26.9375 36.1453 26.9875C36.1828 27.05 36.0953 27.125 36.0453 27.0875C36.0078 27.05 35.9078 26.925 35.9203 26.8875C35.9578 26.8375 35.7453 26.5875 35.9578 26.55C36.1703 26.5 35.9453 26.3875 36.0203 26.3625L36.1328 26.3H36.2328L36.3078 26.25L36.1328 26.225L36.0203 26.2125L35.8203 26.2C35.7108 26.2661 35.627 26.3675 35.5828 26.4875C35.4828 26.7 35.2203 26.4125 35.3203 26.3C35.4078 26.2 35.0203 26.3 34.9578 26.35C34.8953 26.4 34.6953 26.375 34.6953 26.375C34.6578 26.5 34.4703 26.3625 34.5203 26.275C34.5703 26.2 34.5703 26.15 34.5703 26.15L34.5078 26.125L34.4328 26.275C34.2453 26.275 34.1828 26.3875 34.2328 26.45C34.2703 26.525 34.1703 26.45 34.1453 26.5375C34.1203 26.625 34.1578 26.625 34.2453 26.6625C34.3203 26.7125 34.1953 26.7125 34.2453 26.775C34.3078 26.8375 34.4703 26.775 34.3703 26.875C34.2828 26.9625 34.0953 26.925 34.0953 26.925C34.0828 27.05 33.8328 27.0125 33.8078 26.975C33.7303 26.8819 33.6511 26.7902 33.5703 26.7L33.3203 26.6875C33.2953 26.4875 33.4453 26.5875 33.4953 26.4375C33.5453 26.2875 33.5703 26.05 33.5703 26.05C33.5703 26.05 33.3578 26.0375 33.3453 26.1C33.3453 26.1625 33.2078 26.2125 33.2078 26.2125C33.2078 26.2125 33.0953 26.25 33.1328 26.3C33.1828 26.3625 33.0578 26.3875 33.0578 26.3875C33.0578 26.3875 33.0828 26.475 33.0453 26.5125C32.9328 26.6125 32.6703 26.5125 32.6328 26.475L32.4703 26.4125L32.3078 26.3L32.1203 26.3875L32.0703 26.4375H31.8703V26.6L32.2203 26.6375L32.2453 26.975L32.0953 26.925H32.0078L31.9703 26.8375H31.8828V27.125L31.9703 27.1875L32.0328 27.2625H32.1578L32.1953 27.4375H32.5203L32.5703 27.5125L32.7703 27.525L33.1453 27.925L33.1203 28.05L33.0578 28.0875C33.0828 28.175 32.8828 28.125 32.8828 28.125V28.2L32.9828 28.2125L33.0703 28.275L33.1953 28.0375C33.3453 27.95 33.4203 28.0875 33.4328 28.1625C33.4328 28.25 33.3578 28.2375 33.3578 28.2375V28.425L33.4453 28.45C33.5703 28.6125 33.3953 28.7 33.3953 28.7L33.3453 28.8375C33.3078 28.9625 33.1578 28.9375 33.1578 28.9375L33.1078 29.0125L32.9453 29.05L33.2703 29.1C33.2953 28.9875 33.3703 28.9625 33.4203 29.0125C33.4578 29.0625 33.4578 29.1625 33.4578 29.1625L33.5328 29.175V29.325L33.6078 29.35V29.7875L33.6953 29.8875C33.8578 29.825 33.8578 29.9375 33.7703 29.9875C33.6828 30.0375 33.7453 30.2875 33.7453 30.2875L33.6828 30.35V30.4625L33.6078 30.5125V30.6625C33.4703 30.5875 33.3078 30.625 33.2703 30.6625C33.1453 30.575 32.8953 30.6125 32.8953 30.675C32.9828 30.7875 32.8078 30.8 32.8078 30.8L32.7078 30.925C32.7828 31.05 32.6453 31.0625 32.6453 31.0625V31.3125L32.4828 31.475L32.4953 31.825C32.4953 31.9125 32.6953 31.925 32.7453 31.875C32.7828 31.825 32.9328 31.9875 32.9328 31.9875H33.0578L33.0828 31.7375L33.0078 31.7V31.3125L33.1328 31.1625C33.2953 31.1 33.2453 31.5125 33.2453 31.55C33.2453 31.7 33.3203 31.6875 33.3953 31.6625C33.5203 31.6 33.4203 31.8125 33.3078 31.7875C33.2078 31.7875 33.2703 31.925 33.2703 31.925L33.3328 31.9625L33.2078 32.05L33.1078 32.175L32.9828 32.1375L32.8203 32.125L32.7703 32.025L32.6703 32.0125L32.6578 32.2L32.5953 32.2875L32.4328 32.45C32.6453 32.45 32.4078 32.5875 32.3578 32.5875C32.4828 32.6375 32.3453 32.75 32.0328 32.6625V32.75L31.9203 32.7625L32.0203 32.875L32.1203 32.8875L32.0828 33.1125C32.0828 33.2875 31.6453 33.175 31.6078 33.125L31.5953 33.375H31.5203V33.775L31.6578 33.75V33.85H32.0203L32.5328 33.3125L32.8453 33.2375C32.8703 33.1125 33.0078 33.2625 33.0078 33.2625C33.1328 33.2625 33.1578 33.35 33.1578 33.35L33.3328 33.375C33.4828 33.4125 33.3953 33.425 33.4078 33.4875C33.4078 33.5625 33.4828 33.5375 33.4828 33.5375L33.5078 33.3625H33.5953L33.5078 33.275L33.3578 33.2125L33.2078 33.15C33.0953 33 33.2328 33.025 33.3328 33.025H33.5078C33.5078 33.025 33.7078 33.3125 33.7078 33.375C33.7078 33.4375 33.8078 33.45 33.8078 33.45H33.9203L33.9578 33.5375H34.0828L34.1203 33.6125H34.3703V33.4875L34.1453 33.45V33.325L33.9703 33.275C33.9203 33.05 34.0203 32.9875 34.0828 33.0875L34.1578 33.1L34.1328 32.9L34.2328 32.875L34.1953 32.5875L34.1203 32.5625V32.475H34.4578C34.4328 32.3125 34.4578 32.225 34.4578 32.225H34.5578L34.5703 32.3L34.9828 32.3375L35.2703 32C35.2578 31.975 35.2953 31.9625 35.2703 31.925C35.2203 31.8875 35.1703 31.925 35.1078 31.8875C35.0328 31.85 35.1078 31.625 35.0953 31.5625C35.0828 31.5125 35.3203 31.4375 35.2828 31.5625C35.2328 31.675 35.2828 31.725 35.2828 31.725C35.4453 31.5625 35.5953 31.7375 35.5828 31.7875C35.5703 31.825 35.6703 31.8625 35.7453 31.825C35.8078 31.7875 35.8953 31.95 35.8703 32.025C35.8328 32.1 35.5953 32.0875 35.5828 32.0125C35.5703 31.925 35.5328 31.9625 35.5078 32C35.4828 32.0375 35.3578 32.0625 35.2953 32.025C35.2847 32.0193 35.2761 32.0106 35.2703 32L34.9828 32.3375H34.9953C35.1578 32.425 35.0828 32.55 35.0203 32.5875L34.8828 32.6L34.8578 32.6625L34.5078 32.6875L34.4828 32.8125C34.3078 32.8 34.2328 32.9875 34.2828 33.075C34.3203 33.175 34.2828 33.25 34.2828 33.25L34.4203 33.325L34.6078 33.2625C34.6328 33.1375 34.7578 33.1 34.8578 33.0125C34.9703 32.9375 35.1453 33.175 35.0953 33.275C35.0328 33.3875 35.0328 33.425 35.0328 33.425L35.0453 33.55L34.9203 33.6L34.8078 33.6625V33.725H34.4328L34.3703 33.7875L34.1953 33.8L34.1453 33.8875L34.0203 33.9C34.0203 33.9 33.8328 34 33.9078 34.1C33.9828 34.2125 33.5703 34.2 33.4828 34.05C33.4578 34.175 33.3078 34.05 33.3078 34.05L33.1578 34.025V33.825C33.1203 33.6875 32.8703 33.6875 32.8828 33.775C32.8953 33.875 32.4078 33.825 32.4078 33.825L32.2453 33.9L32.0953 33.9875V34.05L31.8453 34.075L31.7453 34.125L31.6953 34.05H31.5953L31.4828 34.2C31.2078 34.2 30.9453 34.375 30.9703 34.45C30.9953 34.5125 30.8578 34.575 30.8578 34.575L30.7328 34.6125L30.6578 34.7375L30.5078 34.7875L30.4828 35.075L30.3953 35.125V35.25L30.3078 35.275V35.35H30.1703L30.2453 35.5625L30.3578 35.6125C30.5453 35.6375 30.4578 35.8625 30.4578 35.8625L30.5703 35.8875L30.6203 36.0375L30.7328 36.25C30.7703 36.4125 30.8953 36.375 30.9453 36.3625C30.9953 36.35 31.0453 36.525 31.0453 36.525H31.5828C31.5828 36.525 31.5578 36.5875 31.6453 36.6125C31.7453 36.6375 32.3578 36.6625 32.3828 36.625C32.3578 36.5 32.7078 36.475 32.8578 36.5875C33.0078 36.7 33.2078 36.625 33.2078 36.625L33.4078 36.875L33.5328 37.1625L33.7578 37.2375L33.9203 37.275L33.9703 37.5L34.0953 37.5125L34.1328 37.6625C34.2828 37.775 34.0953 38 34.0953 38V38.3L34.1953 38.35V38.4625L34.3578 38.6375L34.5578 38.65L35.0578 39.1875L35.4703 39.3125L35.5328 39.525H35.6328L35.7203 39.45L36.0328 39.4375L36.1953 39.2875L36.3703 39.2625L37.8453 38.0125L37.7203 37.925V37.625C37.9453 37.45 37.9703 37.1375 37.7328 37.125C37.5703 37.0875 37.6453 36.9125 37.8078 36.875L37.8953 36.85V36.725L38.2078 36.4375V36.225L37.5453 35.675C37.2453 35.55 37.5453 34.9125 37.7328 34.925C37.9328 34.9375 37.7328 33.925 37.7328 33.925L37.6078 33.875L37.6453 33.55H37.4953L37.2578 33.8625L37.1953 34.075C37.1703 34.3625 36.3453 34.3 36.3078 34.2625L35.9828 34.1C35.9828 34.1 35.7703 33.925 35.7328 33.975C35.6953 34.0375 35.5078 33.9125 35.5078 33.95C35.5078 34 35.3328 33.8625 35.3328 33.8625L35.0703 33.7625L35.2703 33.725L35.2203 33.5625L35.5703 33.7375C35.6078 33.7875 35.7828 33.775 35.7828 33.775L35.8328 33.85C35.8328 33.85 35.9453 33.8375 36.0078 33.9125C36.0703 34 36.4203 33.925 36.4203 33.925L36.5203 34.0125L36.6578 34.0625L37.0703 34.075L37.0828 33.825L37.1703 33.7375L37.1578 33.575L37.2453 33.5V33.3625L37.3203 33.3375L37.3328 33.0375L37.4078 33.025V32.375L37.2078 32.1875C37.1953 32.25 36.9828 32.25 36.9828 32.25C36.9828 32.25 36.9328 32.35 36.8828 32.35C36.8328 32.35 36.9453 32.475 36.9078 32.55C36.8828 32.6375 36.7828 32.6375 36.7828 32.6375L36.5828 32.6875L36.5328 32.75H36.3203L36.2828 32.575L36.5328 32.5125L36.6578 32.4375L36.7328 32.3125C36.7328 32.175 36.8953 32.1875 36.8953 32.1875C36.8953 32.1875 37.2078 31.9375 37.2203 31.8125C37.2203 31.6875 37.3453 31.35 37.5203 31.35H37.8703C37.9953 31.3 37.9578 31.125 37.9578 31.125L38.1328 31.0875L38.1578 31.1875C38.1578 31.1875 38.4078 31.2125 38.4328 31.175C38.4578 31.1375 38.5078 31.05 38.5703 31.075C38.6453 31.125 38.8578 30.9875 38.8578 30.9875C38.8578 30.8875 39.1953 30.925 39.1953 30.925L39.2453 30.8C39.2453 30.8 39.0078 30.5 38.9703 30.5C38.9328 30.5 38.7203 30.3125 38.6953 30.375C38.4828 30.325 38.4953 30.025 38.4953 30.025L38.4203 29.8375C38.4203 29.725 38.2203 29.5 38.1703 29.525C37.9703 29.375 38.1203 29.2 38.1703 29.1875C38.2328 29.1875 38.3578 28.9875 38.3578 28.9875L38.4328 28.8L38.6578 28.7375L38.6828 28.5625L38.5578 28.5375C38.5578 28.5375 38.6828 28.2875 38.7578 28.2875L39.3078 28.275C39.3453 28.25 39.4328 28.025 39.4328 27.9875C39.4328 27.95 39.5328 27.9375 39.5703 27.925C39.6078 27.9125 39.6953 27.8 39.7328 27.75C39.7578 27.6875 39.6703 27.35 39.6078 27.4125V27.4125Z" fill="#F5F5F5"/>
<path id="Vector_11" d="M32.2465 32.275C32.2715 32.25 32.284 32.3375 32.3215 32.325C32.3715 32.325 32.384 32.4 32.3465 32.4C32.309 32.4 32.309 32.45 32.309 32.4625C32.309 32.4875 32.309 32.5375 32.2715 32.5625C32.2465 32.6 32.2215 32.575 32.1715 32.5625C32.134 32.5375 32.1215 32.5375 32.0715 32.5375C32.0215 32.5375 32.059 32.6125 32.059 32.6125C32.059 32.6125 31.8465 32.6125 31.884 32.575C31.934 32.55 31.9715 32.5375 31.934 32.5125C31.909 32.5 31.934 32.475 31.934 32.4375C31.934 32.4 32.034 32.4125 32.009 32.3875C31.984 32.35 32.009 32.2375 32.059 32.3L32.084 32.2375C32.059 32.2 32.084 32.2 32.0215 32.175C31.959 32.15 32.009 32.0375 32.009 32.0375V31.95C32.034 31.85 32.234 31.8375 32.2465 31.925V32.0875L32.309 32.1C32.309 32.1 32.2965 32.1625 32.2465 32.1625C32.1965 32.1625 32.2465 32.2 32.2215 32.225L32.2465 32.275V32.275ZM31.584 32.375C31.6215 32.3125 31.684 32.05 31.7715 32.125C31.8465 32.2125 31.8965 32.125 31.8965 32.125C31.8965 32.125 31.934 32.175 31.9215 32.25C31.8965 32.3375 31.8715 32.4125 31.8215 32.425C31.7715 32.425 31.734 32.4625 31.6715 32.475C31.6215 32.4875 31.584 32.375 31.584 32.375V32.375Z" fill="#F5F5F5"/>
</g>
</g>
<defs>
<clipPath id="clip0_2909_185326">
<path d="M0.246094 32C0.246094 14.3269 14.573 0 32.2461 0V0C49.9192 0 64.2461 14.3269 64.2461 32V32C64.2461 49.6731 49.9192 64 32.2461 64V64C14.573 64 0.246094 49.6731 0.246094 32V32Z" fill="white"/>
</clipPath>
</defs>
</svg>
