<svg width="65" height="64" viewBox="0 0 65 64" fill="none" xmlns="http://www.w3.org/2000/svg">
<g id="Rounded=Uruguay (UY)">
<g clip-path="url(#clip0_2909_185265)">
<path id="Vector" d="M0.246094 0H64.2461V64H0.246094V0Z" fill="#F5F5F5"/>
<path id="Vector_2" d="M35.7461 7.11249H64.2461V14.225H35.7461V7.11249ZM35.7461 21.3375H64.2461V28.45H35.7461V21.3375ZM0.246094 35.55H64.2461V42.675H0.246094V35.55ZM0.246094 49.775H64.2461V56.9H0.246094V49.775Z" fill="#0038A8"/>
<g id="Group">
<g id="c">
<g id="b">
<g id="a">
<g id="Vector_3">
<path d="M17.2139 21.2516L18.3909 23.0091C13.5545 26.5091 16.5072 28.5789 13.0798 29.6992C15.2115 27.6188 12.7441 27.4435 14.5402 23.1074" fill="#FCD116"/>
<path d="M17.2139 21.2516L18.3909 23.0091C13.5545 26.5091 16.5072 28.5789 13.0798 29.6992C15.2115 27.6188 12.7441 27.4435 14.5402 23.1074" stroke="black" stroke-width="0.234667" stroke-miterlimit="20" stroke-linecap="square"/>
</g>
<path id="Vector_4" d="M16.3727 21.7497C13.7043 26.1478 15.4543 28.566 13.08 29.6992" stroke="black" stroke-width="0.234667" stroke-miterlimit="20"/>
<g id="Vector_5">
<path d="M18.0185 17.775H20.3652L18.0185 30.6817L15.6719 17.775H18.0185V30.6817Z" fill="#FCD116"/>
<path d="M18.0185 17.775H20.3652L18.0185 30.6817L15.6719 17.775H18.0185ZM18.0185 17.775V30.6817" stroke="black" stroke-width="0.234667" stroke-miterlimit="20"/>
</g>
</g>
<g id="Group_2">
<g id="Vector_6">
<path d="M14.9938 19.6641L14.5833 21.7391C8.68855 20.7941 9.31292 24.3455 6.09718 22.7142C9.07557 22.7505 7.45486 20.8818 11.7909 19.0857" fill="#FCD116"/>
<path d="M14.9938 19.6641L14.5833 21.7391C8.68855 20.7941 9.31292 24.3455 6.09718 22.7142C9.07557 22.7505 7.45486 20.8818 11.7909 19.0857" stroke="black" stroke-width="0.234667" stroke-miterlimit="20" stroke-linecap="square"/>
</g>
<path id="Vector_7" d="M14.0453 19.4214C9.0485 20.6444 8.576 23.5918 6.09578 22.7142" stroke="black" stroke-width="0.234667" stroke-miterlimit="20"/>
<g id="Vector_8">
<path d="M18.0207 17.775L19.68 19.4344L8.89428 26.9014L16.3613 16.1157L18.0207 17.775L8.89428 26.9014Z" fill="#FCD116"/>
<path d="M18.0207 17.775L19.68 19.4344L8.89428 26.9014L16.3613 16.1157L18.0207 17.775ZM18.0207 17.775L8.89428 26.9014" stroke="black" stroke-width="0.234667" stroke-miterlimit="20"/>
</g>
</g>
</g>
<g id="Group_3">
<g id="a_2">
<g id="Vector_9">
<path d="M14.5433 16.97L12.7857 18.147C9.28569 13.3105 7.21596 16.2632 6.09563 12.8358C8.17599 14.9676 8.35134 12.5002 12.6874 14.2962" fill="#FCD116"/>
<path d="M14.5433 16.97L12.7857 18.147C9.28569 13.3105 7.21596 16.2632 6.09563 12.8358C8.17599 14.9676 8.35134 12.5002 12.6874 14.2962" stroke="black" stroke-width="0.234667" stroke-miterlimit="20" stroke-linecap="square"/>
</g>
<path id="Vector_10" d="M14.0446 16.1286C9.64652 13.4602 7.22829 15.2102 6.09512 12.8358" stroke="black" stroke-width="0.234667" stroke-miterlimit="20"/>
<g id="Vector_11">
<path d="M18.0195 17.775V20.1216L5.11286 17.775L18.0195 15.4283V17.775H5.11286Z" fill="#FCD116"/>
<path d="M18.0195 17.775V20.1216L5.11286 17.775L18.0195 15.4283V17.775ZM18.0195 17.775H5.11286" stroke="black" stroke-width="0.234667" stroke-miterlimit="20"/>
</g>
</g>
<g id="Group_4">
<g id="Vector_12">
<path d="M16.1318 14.7474L14.0567 14.3369C15.0017 8.44215 11.4503 9.06652 13.0817 5.85078C13.0454 8.82917 14.914 7.20846 16.7101 11.5445" fill="#FCD116"/>
<path d="M16.1318 14.7474L14.0567 14.3369C15.0017 8.44215 11.4503 9.06652 13.0817 5.85078C13.0454 8.82917 14.914 7.20846 16.7101 11.5445" stroke="black" stroke-width="0.234667" stroke-miterlimit="20" stroke-linecap="square"/>
</g>
<path id="Vector_13" d="M16.3734 13.8003C15.1503 8.8035 12.2029 8.33101 13.0806 5.85079" stroke="black" stroke-width="0.234667" stroke-miterlimit="20"/>
<g id="Vector_14">
<path d="M18.0203 17.775L16.361 19.4344L8.89395 8.64861L19.6797 16.1157L18.0203 17.775L8.89395 8.64861Z" fill="#FCD116"/>
<path d="M18.0203 17.775L16.361 19.4344L8.89395 8.64861L19.6797 16.1157L18.0203 17.775ZM18.0203 17.775L8.89395 8.64861" stroke="black" stroke-width="0.234667" stroke-miterlimit="20"/>
</g>
</g>
</g>
</g>
<g id="Group_5">
<g id="b_2">
<g id="a_3">
<g id="Vector_15">
<path d="M18.8271 14.2984L17.6501 12.5409C22.4865 9.04085 19.5338 6.97112 22.9612 5.85079C20.8295 7.93115 23.2969 8.1065 21.5008 12.4426" fill="#FCD116"/>
<path d="M18.8271 14.2984L17.6501 12.5409C22.4865 9.04085 19.5338 6.97112 22.9612 5.85079C20.8295 7.93115 23.2969 8.1065 21.5008 12.4426" stroke="black" stroke-width="0.234667" stroke-miterlimit="20" stroke-linecap="square"/>
</g>
<path id="Vector_16" d="M19.6683 13.8003C22.3367 9.40219 20.5867 6.98397 22.9611 5.85079" stroke="black" stroke-width="0.234667" stroke-miterlimit="20"/>
<g id="Vector_17">
<path d="M18.0225 17.775H15.6758L18.0225 4.86832L20.3691 17.775H18.0225V4.86832Z" fill="#FCD116"/>
<path d="M18.0225 17.775H15.6758L18.0225 4.86832L20.3691 17.775H18.0225ZM18.0225 17.775V4.86832" stroke="black" stroke-width="0.234667" stroke-miterlimit="20"/>
</g>
</g>
<g id="Group_6">
<g id="Vector_18">
<path d="M21.0472 15.8859L21.4577 13.8109C27.3525 14.7559 26.7281 11.2045 29.9438 12.8358C26.9654 12.7995 28.5862 14.6682 24.2501 16.4643" fill="#FCD116"/>
<path d="M21.0472 15.8859L21.4577 13.8109C27.3525 14.7559 26.7281 11.2045 29.9438 12.8358C26.9654 12.7995 28.5862 14.6682 24.2501 16.4643" stroke="black" stroke-width="0.234667" stroke-miterlimit="20" stroke-linecap="square"/>
</g>
<path id="Vector_19" d="M21.9958 16.1286C26.9925 14.9056 27.465 11.9582 29.9452 12.8358" stroke="black" stroke-width="0.234667" stroke-miterlimit="20"/>
<g id="Vector_20">
<path d="M18.0203 17.775L16.361 16.1156L27.1467 8.64859L19.6797 19.4343L18.0203 17.775L27.1467 8.64859Z" fill="#FCD116"/>
<path d="M18.0203 17.775L16.361 16.1156L27.1467 8.64859L19.6797 19.4343L18.0203 17.775ZM18.0203 17.775L27.1467 8.64859" stroke="black" stroke-width="0.234667" stroke-miterlimit="20"/>
</g>
</g>
</g>
<g id="Group_7">
<g id="a_4">
<g id="Vector_21">
<path d="M21.4977 18.58L23.2553 17.403C26.7553 22.2395 28.8251 19.2868 29.9454 22.7142C27.865 20.5824 27.6897 23.0498 23.3536 21.2538" fill="#FCD116"/>
<path d="M21.4977 18.58L23.2553 17.403C26.7553 22.2395 28.8251 19.2868 29.9454 22.7142C27.865 20.5824 27.6897 23.0498 23.3536 21.2538" stroke="black" stroke-width="0.234667" stroke-miterlimit="20" stroke-linecap="square"/>
</g>
<path id="Vector_22" d="M21.9964 19.4214C26.3945 22.0898 28.8127 20.3398 29.9459 22.7142" stroke="black" stroke-width="0.234667" stroke-miterlimit="20"/>
<g id="Vector_23">
<path d="M18.0215 17.775V15.4283L30.9282 17.775L18.0215 20.1217V17.775H30.9282Z" fill="#FCD116"/>
<path d="M18.0215 17.775V15.4283L30.9282 17.775L18.0215 20.1217V17.775ZM18.0215 17.775H30.9282" stroke="black" stroke-width="0.234667" stroke-miterlimit="20"/>
</g>
</g>
<g id="Group_8">
<g id="Vector_24">
<path d="M19.9092 20.8026L21.9843 21.213C21.0393 27.1078 24.5907 26.4835 22.9593 29.6992C22.9957 26.7208 21.127 28.3415 19.3309 24.0055" fill="#FCD116"/>
<path d="M19.9092 20.8026L21.9843 21.213C21.0393 27.1078 24.5907 26.4835 22.9593 29.6992C22.9957 26.7208 21.127 28.3415 19.3309 24.0055" stroke="black" stroke-width="0.234667" stroke-miterlimit="20" stroke-linecap="square"/>
</g>
<path id="Vector_25" d="M19.6677 21.7497C20.8907 26.7465 23.8381 27.219 22.9604 29.6992" stroke="black" stroke-width="0.234667" stroke-miterlimit="20"/>
<g id="Vector_26">
<path d="M18.0207 17.775L19.68 16.1156L27.1471 26.9014L16.3613 19.4343L18.0207 17.775L27.1471 26.9014Z" fill="#FCD116"/>
<path d="M18.0207 17.775L19.68 16.1156L27.1471 26.9014L16.3613 19.4343L18.0207 17.775ZM18.0207 17.775L27.1471 26.9014" stroke="black" stroke-width="0.234667" stroke-miterlimit="20"/>
</g>
</g>
</g>
</g>
<path id="Vector_27" d="M18.021 22.0772C20.397 22.0772 22.3232 20.1511 22.3232 17.775C22.3232 15.3989 20.397 13.4728 18.021 13.4728C15.6449 13.4728 13.7188 15.3989 13.7188 17.775C13.7188 20.1511 15.6449 22.0772 18.021 22.0772Z" fill="#FCD116" stroke="black" stroke-width="0.234667" stroke-miterlimit="20"/>
</g>
<g id="Group_9">
<g id="d">
<path id="Vector_28" d="M21.1901 16.0541C20.9163 16.367 20.7599 15.8194 19.7821 15.8194C18.8043 15.8194 18.6479 16.4061 18.4914 16.2888C18.335 16.1714 19.3128 15.4674 19.6257 15.4283C19.9386 15.3892 20.8381 15.7021 21.1901 16.0541ZM20.0559 16.4061C20.3297 16.6408 20.095 17.1492 19.8212 17.1492C19.5474 17.1492 19.039 16.6799 19.2737 16.367" fill="black"/>
<path id="Vector_29" d="M18.7656 16.7581C18.8047 16.2888 19.1958 16.2106 19.8216 16.2106C20.4474 16.2106 20.7212 16.6799 20.9559 16.7972C20.6821 16.7972 20.4474 16.4061 19.8216 16.4061C19.1958 16.4061 19.1958 16.4061 18.7656 16.7972V16.7581ZM18.883 16.8755C19.0394 16.6408 19.235 17.1101 19.6652 17.1101C20.0954 17.1101 20.3301 16.9928 20.6039 16.7972C20.8776 16.6017 20.2127 17.2666 19.7825 17.2666C19.3523 17.2666 18.7656 17.0319 18.883 16.8755Z" fill="black"/>
<path id="Vector_30" d="M20.212 17.1101C20.7204 16.8363 20.4075 16.4452 20.212 16.367C20.2902 16.4452 20.6031 16.8363 20.212 17.1101ZM18.0217 19.4568C18.2564 19.4568 18.3346 19.3786 18.6475 19.3786C18.9604 19.3786 19.7035 19.8088 20.1337 19.6523C19.2342 20.0044 19.5862 19.7697 18.0217 19.7697H17.8262L18.0217 19.4568ZM20.2902 20.0044C20.1337 19.7306 20.1728 19.8088 19.86 19.3786C20.1728 19.6132 20.2511 19.7306 20.2902 20.0044ZM18.0217 20.3955C18.9995 20.3955 18.8431 20.1999 20.1337 19.6523C19.1951 19.7697 18.9995 20.0826 18.0217 20.0826H17.8262L18.0217 20.3955ZM18.0217 18.9483C18.2955 18.9483 18.3737 18.7528 18.6866 18.7528C18.9995 18.7528 19.4297 18.8701 19.6253 19.0266C19.6644 19.0657 19.508 18.7137 19.1951 18.6746C18.8822 18.6355 18.9995 18.127 18.6475 18.0488C18.6475 18.2052 18.7648 18.1661 18.804 18.4008C18.804 18.5963 18.452 18.5963 18.3737 18.4008C18.452 18.7137 18.2173 18.7137 18.0217 18.7137" fill="black"/>
</g>
<g id="Group_10">
<path id="Vector_31" d="M14.8529 16.0541C15.1266 16.367 15.2831 15.8194 16.2609 15.8194C17.2386 15.8194 17.3951 16.4061 17.5515 16.2888C17.708 16.1714 16.7302 15.4674 16.4173 15.4283C16.1044 15.3892 15.2049 15.7021 14.8529 16.0541ZM15.9871 16.4061C15.7133 16.6408 15.948 17.1492 16.2217 17.1492C16.4955 17.1492 17.004 16.6799 16.7693 16.367" fill="black"/>
<path id="Vector_32" d="M17.2773 16.7581C17.2382 16.2888 16.8471 16.2106 16.2213 16.2106C15.5956 16.2106 15.3218 16.6799 15.0871 16.7972C15.3609 16.7972 15.5956 16.4061 16.2213 16.4061C16.8471 16.4061 16.8471 16.4061 17.2773 16.7972V16.7581ZM17.16 16.8755C17.0036 16.6408 16.808 17.1101 16.3778 17.1101C15.9476 17.1101 15.7129 16.9928 15.4391 16.7972C15.1653 16.6017 15.8302 17.2666 16.2605 17.2666C16.6907 17.2666 17.2773 17.0319 17.16 16.8755Z" fill="black"/>
<path id="Vector_33" d="M15.831 17.1101C15.3226 16.8363 15.6355 16.4452 15.831 16.367C15.7528 16.4452 15.4399 16.8363 15.831 17.1101ZM18.0212 19.4568C17.7866 19.4568 17.7084 19.3786 17.3955 19.3786C17.0826 19.3786 16.3395 19.8088 15.9092 19.6523C16.8088 20.0044 16.4568 19.7697 18.0212 19.7697H18.2168L18.0212 19.4568ZM15.7528 20.0044C15.9092 19.7306 15.8701 19.8088 16.183 19.3786C15.8701 19.6132 15.7919 19.7306 15.7528 20.0044ZM18.0212 20.3955C17.0435 20.3955 17.1999 20.1999 15.9092 19.6523C16.8479 19.7697 17.0435 20.0826 18.0212 20.0826H18.2168L18.0212 20.3955ZM18.0212 18.9483C17.7475 18.9483 17.6692 18.7528 17.3563 18.7528C17.0435 18.7528 16.6132 18.8701 16.4177 19.0266C16.3786 19.0657 16.535 18.7137 16.8479 18.6746C17.1608 18.6355 17.0435 18.127 17.3955 18.0488C17.3955 18.2052 17.2781 18.1661 17.239 18.4008C17.239 18.5963 17.591 18.5963 17.6692 18.4008C17.591 18.7137 17.8257 18.7137 18.0212 18.7137" fill="black"/>
</g>
<path id="Vector_34" d="M18.0212 20.7475C17.8256 20.7475 17.3172 20.8648 18.0212 20.8648C18.7252 20.8648 18.2168 20.7475 18.0212 20.7475Z" fill="black"/>
</g>
</g>
</g>
<defs>
<clipPath id="clip0_2909_185265">
<path d="M0.246094 32C0.246094 14.3269 14.573 0 32.2461 0V0C49.9192 0 64.2461 14.3269 64.2461 32V32C64.2461 49.6731 49.9192 64 32.2461 64V64C14.573 64 0.246094 49.6731 0.246094 32V32Z" fill="white"/>
</clipPath>
</defs>
</svg>
