<svg width="65" height="64" viewBox="0 0 65 64" fill="none" xmlns="http://www.w3.org/2000/svg">
<g id="Rounded=Saint Vincent and the Grenadines (VC)">
<g clip-path="url(#clip0_2909_185262)">
<g id="Group">
<path id="Vector" fill-rule="evenodd" clip-rule="evenodd" d="M0.246094 0H64.0461V64H0.246094V0Z" fill="#F4F100"/>
<path id="Vector_2" fill-rule="evenodd" clip-rule="evenodd" d="M48.4453 0H64.2453V64H48.4453V0Z" fill="#199A00"/>
<path id="Vector_3" fill-rule="evenodd" clip-rule="evenodd" d="M0.246094 0H16.0461V64H0.246094V0Z" fill="#0058AA"/>
</g>
<path id="Vector_4" fill-rule="evenodd" clip-rule="evenodd" d="M24.1465 17.325L17.959 26.85L23.934 36.7625L29.7715 26.9375L24.1465 17.325V17.325ZM40.3215 17.325L34.1215 26.85L40.084 36.7625L45.934 26.9375L40.309 17.325H40.3215ZM32.1465 30.3125L25.9715 39.825L31.934 49.75L37.7715 39.9125L32.1465 30.3125V30.3125Z" fill="#199A00"/>
</g>
</g>
<defs>
<clipPath id="clip0_2909_185262">
<path d="M0.246094 32C0.246094 14.3269 14.573 0 32.2461 0V0C49.9192 0 64.2461 14.3269 64.2461 32V32C64.2461 49.6731 49.9192 64 32.2461 64V64C14.573 64 0.246094 49.6731 0.246094 32V32Z" fill="white"/>
</clipPath>
</defs>
</svg>
