<svg width="65" height="64" viewBox="0 0 65 64" fill="none" xmlns="http://www.w3.org/2000/svg">
<g id="Rounded=Virgin Islands (British) (VG)">
<g clip-path="url(#clip0_2909_185261)">
<path id="Vector" d="M0.246094 0H64.2461V64H0.246094V0Z" fill="#000066"/>
<g id="Group">
<path id="Vector_2" d="M36.615 15.5864L59.7404 15.5033L59.6942 36.0982C59.6942 36.0982 60.5069 39.2382 49.997 43.9945C53.7743 43.6066 57.8933 39.5799 57.8933 39.5799C57.8933 39.5799 59.5649 37.4281 60.3868 38.6287C61.1995 39.8293 61.9661 40.4388 62.5664 40.9098C63.1667 41.3716 63.6377 42.6646 62.7419 43.6066C61.8368 44.5578 60.4238 44.6779 60.0359 43.5235C59.4356 43.8282 55.7507 48.2889 48.1961 48.5013C40.5123 48.372 36.3102 43.4773 36.3102 43.4773C36.3102 43.4773 35.2851 45.1119 33.8167 43.8282C32.4037 42.1474 33.475 41.0761 33.475 41.0761C33.475 41.0761 34.6756 40.3927 35.0265 39.9217C35.5806 39.2752 35.7561 38.4163 36.6889 38.4163C37.8156 38.5086 38.2404 39.4045 38.2404 39.4045C38.2404 39.4045 42.1008 43.4773 46.2659 43.9945C36.8736 39.4876 36.5226 36.6985 36.5688 36.0151L36.615 15.5957V15.5864Z" fill="#F5F5F5"/>
<path id="Vector_3" d="M37.1691 16.1498L59.2231 16.0205V35.8396C59.2693 38.4255 54.9287 41.0391 48.1499 44.3823C41.1587 40.7805 37.1229 38.5918 37.0859 35.7934L37.1691 16.1498V16.1498Z" fill="#006129" stroke="black" stroke-width="0.175472"/>
<g id="c">
<path id="Vector_4" d="M40.1719 19.0774L41.4648 17.1657L42.7855 19.0867" stroke="#FFC72C" stroke-width="0.175472"/>
<path id="Vector_5" d="M41.732 18.3571C41.732 18.4257 41.7048 18.4914 41.6563 18.5399C41.6078 18.5884 41.542 18.6157 41.4734 18.6157C41.4049 18.6157 41.3391 18.5884 41.2906 18.5399C41.2421 18.4914 41.2148 18.4257 41.2148 18.3571C41.2148 18.2885 41.2421 18.2227 41.2906 18.1742C41.3391 18.1257 41.4049 18.0985 41.4734 18.0985C41.542 18.0985 41.6078 18.1257 41.6563 18.1742C41.7048 18.2227 41.732 18.2885 41.732 18.3571V18.3571Z" fill="#FFC72C" stroke="black" stroke-width="0.0831184"/>
<g id="Vector_6">
<path d="M40.4111 20.4904H42.4336C42.4336 20.4904 42.4613 20.2318 42.2212 20.0748C43.2833 19.9271 43.0062 19.0035 43.8836 18.9481C44.0683 18.9758 43.4218 19.3452 43.4218 19.3452C43.4218 19.3452 42.8954 19.7147 43.1447 19.9086C43.3294 20.0656 43.4218 19.8162 43.4403 19.6315C43.468 19.4468 44.2992 19.3268 44.1791 18.8004C43.9852 18.3663 42.8215 19.0959 42.8215 19.0959L41.9903 19.0866C41.9349 18.9943 41.7133 18.6249 41.4731 18.6249C41.1961 18.6249 40.9929 19.0866 40.9929 19.0866H39.1181C39.1181 19.0866 39.0535 19.5761 40.0047 19.6685C40.2171 19.9455 40.3834 20.0194 40.5773 20.0933C40.448 20.1949 40.4111 20.3242 40.4111 20.4904V20.4904ZM40.5588 20.0841H42.2397Z" fill="#FFC72C"/>
<path d="M40.5588 20.0841H42.2397M40.4111 20.4904H42.4336C42.4336 20.4904 42.4613 20.2318 42.2212 20.0748C43.2833 19.9271 43.0062 19.0035 43.8836 18.9481C44.0683 18.9758 43.4218 19.3452 43.4218 19.3452C43.4218 19.3452 42.8954 19.7147 43.1447 19.9086C43.3294 20.0656 43.4218 19.8162 43.4403 19.6315C43.468 19.4468 44.2992 19.3268 44.1791 18.8004C43.9852 18.3663 42.8215 19.0959 42.8215 19.0959L41.9903 19.0866C41.9349 18.9943 41.7133 18.6249 41.4731 18.6249C41.1961 18.6249 40.9929 19.0866 40.9929 19.0866H39.1181C39.1181 19.0866 39.0535 19.5761 40.0047 19.6685C40.2171 19.9455 40.3834 20.0194 40.5773 20.0933C40.448 20.1949 40.4111 20.3242 40.4111 20.4904V20.4904Z" stroke="black" stroke-width="0.0831184"/>
</g>
<g id="Vector_7">
<path d="M39.793 19.0959C39.793 19.0959 39.9223 19.8809 40.5503 20.0656Z" fill="#FFC72C"/>
<path d="M39.793 19.0959C39.793 19.0959 39.9223 19.8809 40.5503 20.0656" stroke="black" stroke-width="0.0831184"/>
</g>
<path id="Vector_8" d="M39.6914 19.0774C39.7468 18.7819 39.8668 18.7265 39.9869 18.3386C40.0054 17.9692 39.6914 18.0153 39.7837 17.7845C39.95 17.5166 39.8668 17.2673 39.5528 17.0733C39.6175 17.415 39.1465 17.7383 39.1465 18.0153C39.1465 18.2924 39.3866 18.237 39.3589 18.6618C39.3774 18.9019 39.2942 18.8465 39.2665 19.0774H39.6914Z" fill="url(#paint0_linear_2909_185261)" stroke="black" stroke-width="0.0831184"/>
<path id="Vector_9" d="M41.7127 17.2211C41.7127 17.2848 41.6874 17.3459 41.6423 17.3909C41.5973 17.4359 41.5362 17.4612 41.4725 17.4612C41.4089 17.4612 41.3478 17.4359 41.3028 17.3909C41.2577 17.3459 41.2324 17.2848 41.2324 17.2211C41.2324 17.1574 41.2577 17.0963 41.3028 17.0513C41.3478 17.0063 41.4089 16.981 41.4725 16.981C41.5362 16.981 41.5973 17.0063 41.6423 17.0513C41.6874 17.0963 41.7127 17.1574 41.7127 17.2211V17.2211Z" fill="#FFC72C" stroke="black" stroke-width="0.0831184"/>
</g>
<g id="Group_2">
<path id="Vector_10" d="M40.1719 19.0774L41.4648 17.1657L42.7855 19.0867" stroke="#FFC72C" stroke-width="0.175472"/>
<path id="Vector_11" d="M41.732 18.3571C41.732 18.4257 41.7048 18.4914 41.6563 18.5399C41.6078 18.5884 41.542 18.6157 41.4734 18.6157C41.4049 18.6157 41.3391 18.5884 41.2906 18.5399C41.2421 18.4914 41.2148 18.4257 41.2148 18.3571C41.2148 18.2885 41.2421 18.2227 41.2906 18.1742C41.3391 18.1257 41.4049 18.0985 41.4734 18.0985C41.542 18.0985 41.6078 18.1257 41.6563 18.1742C41.7048 18.2227 41.732 18.2885 41.732 18.3571V18.3571Z" fill="#FFC72C" stroke="black" stroke-width="0.0831184"/>
<g id="Vector_12">
<path d="M40.4111 20.4904H42.4336C42.4336 20.4904 42.4613 20.2318 42.2212 20.0748C43.2833 19.9271 43.0062 19.0035 43.8836 18.9481C44.0683 18.9758 43.4218 19.3452 43.4218 19.3452C43.4218 19.3452 42.8954 19.7147 43.1447 19.9086C43.3294 20.0656 43.4218 19.8162 43.4403 19.6315C43.468 19.4468 44.2992 19.3268 44.1791 18.8004C43.9852 18.3663 42.8215 19.0959 42.8215 19.0959L41.9903 19.0866C41.9349 18.9943 41.7133 18.6249 41.4731 18.6249C41.1961 18.6249 40.9929 19.0866 40.9929 19.0866H39.1181C39.1181 19.0866 39.0535 19.5761 40.0047 19.6685C40.2171 19.9455 40.3834 20.0194 40.5773 20.0933C40.448 20.1949 40.4111 20.3242 40.4111 20.4904V20.4904ZM40.5588 20.0841H42.2397Z" fill="#FFC72C"/>
<path d="M40.5588 20.0841H42.2397M40.4111 20.4904H42.4336C42.4336 20.4904 42.4613 20.2318 42.2212 20.0748C43.2833 19.9271 43.0062 19.0035 43.8836 18.9481C44.0683 18.9758 43.4218 19.3452 43.4218 19.3452C43.4218 19.3452 42.8954 19.7147 43.1447 19.9086C43.3294 20.0656 43.4218 19.8162 43.4403 19.6315C43.468 19.4468 44.2992 19.3268 44.1791 18.8004C43.9852 18.3663 42.8215 19.0959 42.8215 19.0959L41.9903 19.0866C41.9349 18.9943 41.7133 18.6249 41.4731 18.6249C41.1961 18.6249 40.9929 19.0866 40.9929 19.0866H39.1181C39.1181 19.0866 39.0535 19.5761 40.0047 19.6685C40.2171 19.9455 40.3834 20.0194 40.5773 20.0933C40.448 20.1949 40.4111 20.3242 40.4111 20.4904V20.4904Z" stroke="black" stroke-width="0.0831184"/>
</g>
<g id="Vector_13">
<path d="M39.793 19.0959C39.793 19.0959 39.9223 19.8809 40.5503 20.0656Z" fill="#FFC72C"/>
<path d="M39.793 19.0959C39.793 19.0959 39.9223 19.8809 40.5503 20.0656" stroke="black" stroke-width="0.0831184"/>
</g>
<path id="Vector_14" d="M39.6914 19.0774C39.7468 18.7819 39.8668 18.7265 39.9869 18.3386C40.0054 17.9692 39.6914 18.0153 39.7837 17.7845C39.95 17.5166 39.8668 17.2673 39.5528 17.0733C39.6175 17.415 39.1465 17.7383 39.1465 18.0153C39.1465 18.2924 39.3866 18.237 39.3589 18.6618C39.3774 18.9019 39.2942 18.8465 39.2665 19.0774H39.6914Z" fill="url(#paint1_linear_2909_185261)" stroke="black" stroke-width="0.0831184"/>
<path id="Vector_15" d="M41.7127 17.2211C41.7127 17.2848 41.6874 17.3459 41.6423 17.3909C41.5973 17.4359 41.5362 17.4612 41.4725 17.4612C41.4089 17.4612 41.3478 17.4359 41.3028 17.3909C41.2577 17.3459 41.2324 17.2848 41.2324 17.2211C41.2324 17.1574 41.2577 17.0963 41.3028 17.0513C41.3478 17.0063 41.4089 16.981 41.4725 16.981C41.5362 16.981 41.5973 17.0063 41.6423 17.0513C41.6874 17.0963 41.7127 17.1574 41.7127 17.2211V17.2211Z" fill="#FFC72C" stroke="black" stroke-width="0.0831184"/>
</g>
<g id="Group_3">
<path id="Vector_16" d="M40.1719 19.0774L41.4648 17.1657L42.7855 19.0867" stroke="#FFC72C" stroke-width="0.175472"/>
<path id="Vector_17" d="M41.732 18.3571C41.732 18.4257 41.7048 18.4914 41.6563 18.5399C41.6078 18.5884 41.542 18.6157 41.4734 18.6157C41.4049 18.6157 41.3391 18.5884 41.2906 18.5399C41.2421 18.4914 41.2148 18.4257 41.2148 18.3571C41.2148 18.2885 41.2421 18.2227 41.2906 18.1742C41.3391 18.1257 41.4049 18.0985 41.4734 18.0985C41.542 18.0985 41.6078 18.1257 41.6563 18.1742C41.7048 18.2227 41.732 18.2885 41.732 18.3571V18.3571Z" fill="#FFC72C" stroke="black" stroke-width="0.0831184"/>
<g id="Vector_18">
<path d="M40.4111 20.4904H42.4336C42.4336 20.4904 42.4613 20.2318 42.2212 20.0748C43.2833 19.9271 43.0062 19.0035 43.8836 18.9481C44.0683 18.9758 43.4218 19.3452 43.4218 19.3452C43.4218 19.3452 42.8954 19.7147 43.1447 19.9086C43.3294 20.0656 43.4218 19.8162 43.4403 19.6315C43.468 19.4468 44.2992 19.3268 44.1791 18.8004C43.9852 18.3663 42.8215 19.0959 42.8215 19.0959L41.9903 19.0866C41.9349 18.9943 41.7133 18.6249 41.4731 18.6249C41.1961 18.6249 40.9929 19.0866 40.9929 19.0866H39.1181C39.1181 19.0866 39.0535 19.5761 40.0047 19.6685C40.2171 19.9455 40.3834 20.0194 40.5773 20.0933C40.448 20.1949 40.4111 20.3242 40.4111 20.4904V20.4904ZM40.5588 20.0841H42.2397Z" fill="#FFC72C"/>
<path d="M40.5588 20.0841H42.2397M40.4111 20.4904H42.4336C42.4336 20.4904 42.4613 20.2318 42.2212 20.0748C43.2833 19.9271 43.0062 19.0035 43.8836 18.9481C44.0683 18.9758 43.4218 19.3452 43.4218 19.3452C43.4218 19.3452 42.8954 19.7147 43.1447 19.9086C43.3294 20.0656 43.4218 19.8162 43.4403 19.6315C43.468 19.4468 44.2992 19.3268 44.1791 18.8004C43.9852 18.3663 42.8215 19.0959 42.8215 19.0959L41.9903 19.0866C41.9349 18.9943 41.7133 18.6249 41.4731 18.6249C41.1961 18.6249 40.9929 19.0866 40.9929 19.0866H39.1181C39.1181 19.0866 39.0535 19.5761 40.0047 19.6685C40.2171 19.9455 40.3834 20.0194 40.5773 20.0933C40.448 20.1949 40.4111 20.3242 40.4111 20.4904V20.4904Z" stroke="black" stroke-width="0.0831184"/>
</g>
<g id="Vector_19">
<path d="M39.793 19.0959C39.793 19.0959 39.9223 19.8809 40.5503 20.0656Z" fill="#FFC72C"/>
<path d="M39.793 19.0959C39.793 19.0959 39.9223 19.8809 40.5503 20.0656" stroke="black" stroke-width="0.0831184"/>
</g>
<path id="Vector_20" d="M39.6914 19.0774C39.7468 18.7819 39.8668 18.7265 39.9869 18.3386C40.0054 17.9692 39.6914 18.0153 39.7837 17.7845C39.95 17.5166 39.8668 17.2673 39.5528 17.0733C39.6175 17.415 39.1465 17.7383 39.1465 18.0153C39.1465 18.2924 39.3866 18.237 39.3589 18.6618C39.3774 18.9019 39.2942 18.8465 39.2665 19.0774H39.6914Z" fill="url(#paint2_linear_2909_185261)" stroke="black" stroke-width="0.0831184"/>
<path id="Vector_21" d="M41.7127 17.2211C41.7127 17.2848 41.6874 17.3459 41.6423 17.3909C41.5973 17.4359 41.5362 17.4612 41.4725 17.4612C41.4089 17.4612 41.3478 17.4359 41.3028 17.3909C41.2577 17.3459 41.2324 17.2848 41.2324 17.2211C41.2324 17.1574 41.2577 17.0963 41.3028 17.0513C41.3478 17.0063 41.4089 16.981 41.4725 16.981C41.5362 16.981 41.5973 17.0063 41.6423 17.0513C41.6874 17.0963 41.7127 17.1574 41.7127 17.2211V17.2211Z" fill="#FFC72C" stroke="black" stroke-width="0.0831184"/>
</g>
<g id="Group_4">
<path id="Vector_22" d="M40.1719 19.0774L41.4648 17.1657L42.7855 19.0867" stroke="#FFC72C" stroke-width="0.175472"/>
<path id="Vector_23" d="M41.732 18.3571C41.732 18.4257 41.7048 18.4914 41.6563 18.5399C41.6078 18.5884 41.542 18.6157 41.4734 18.6157C41.4049 18.6157 41.3391 18.5884 41.2906 18.5399C41.2421 18.4914 41.2148 18.4257 41.2148 18.3571C41.2148 18.2885 41.2421 18.2227 41.2906 18.1742C41.3391 18.1257 41.4049 18.0985 41.4734 18.0985C41.542 18.0985 41.6078 18.1257 41.6563 18.1742C41.7048 18.2227 41.732 18.2885 41.732 18.3571V18.3571Z" fill="#FFC72C" stroke="black" stroke-width="0.0831184"/>
<g id="Vector_24">
<path d="M40.4111 20.4904H42.4336C42.4336 20.4904 42.4613 20.2318 42.2212 20.0748C43.2833 19.9271 43.0062 19.0035 43.8836 18.9481C44.0683 18.9758 43.4218 19.3452 43.4218 19.3452C43.4218 19.3452 42.8954 19.7147 43.1447 19.9086C43.3294 20.0656 43.4218 19.8162 43.4403 19.6315C43.468 19.4468 44.2992 19.3268 44.1791 18.8004C43.9852 18.3663 42.8215 19.0959 42.8215 19.0959L41.9903 19.0866C41.9349 18.9943 41.7133 18.6249 41.4731 18.6249C41.1961 18.6249 40.9929 19.0866 40.9929 19.0866H39.1181C39.1181 19.0866 39.0535 19.5761 40.0047 19.6685C40.2171 19.9455 40.3834 20.0194 40.5773 20.0933C40.448 20.1949 40.4111 20.3242 40.4111 20.4904V20.4904ZM40.5588 20.0841H42.2397Z" fill="#FFC72C"/>
<path d="M40.5588 20.0841H42.2397M40.4111 20.4904H42.4336C42.4336 20.4904 42.4613 20.2318 42.2212 20.0748C43.2833 19.9271 43.0062 19.0035 43.8836 18.9481C44.0683 18.9758 43.4218 19.3452 43.4218 19.3452C43.4218 19.3452 42.8954 19.7147 43.1447 19.9086C43.3294 20.0656 43.4218 19.8162 43.4403 19.6315C43.468 19.4468 44.2992 19.3268 44.1791 18.8004C43.9852 18.3663 42.8215 19.0959 42.8215 19.0959L41.9903 19.0866C41.9349 18.9943 41.7133 18.6249 41.4731 18.6249C41.1961 18.6249 40.9929 19.0866 40.9929 19.0866H39.1181C39.1181 19.0866 39.0535 19.5761 40.0047 19.6685C40.2171 19.9455 40.3834 20.0194 40.5773 20.0933C40.448 20.1949 40.4111 20.3242 40.4111 20.4904V20.4904Z" stroke="black" stroke-width="0.0831184"/>
</g>
<g id="Vector_25">
<path d="M39.793 19.0959C39.793 19.0959 39.9223 19.8809 40.5503 20.0656Z" fill="#FFC72C"/>
<path d="M39.793 19.0959C39.793 19.0959 39.9223 19.8809 40.5503 20.0656" stroke="black" stroke-width="0.0831184"/>
</g>
<path id="Vector_26" d="M39.6914 19.0774C39.7468 18.7819 39.8668 18.7265 39.9869 18.3386C40.0054 17.9692 39.6914 18.0153 39.7837 17.7845C39.95 17.5166 39.8668 17.2673 39.5528 17.0733C39.6175 17.415 39.1465 17.7383 39.1465 18.0153C39.1465 18.2924 39.3866 18.237 39.3589 18.6618C39.3774 18.9019 39.2942 18.8465 39.2665 19.0774H39.6914Z" fill="url(#paint3_linear_2909_185261)" stroke="black" stroke-width="0.0831184"/>
<path id="Vector_27" d="M41.7127 17.2211C41.7127 17.2848 41.6874 17.3459 41.6423 17.3909C41.5973 17.4359 41.5362 17.4612 41.4725 17.4612C41.4089 17.4612 41.3478 17.4359 41.3028 17.3909C41.2577 17.3459 41.2324 17.2848 41.2324 17.2211C41.2324 17.1574 41.2577 17.0963 41.3028 17.0513C41.3478 17.0063 41.4089 16.981 41.4725 16.981C41.5362 16.981 41.5973 17.0063 41.6423 17.0513C41.6874 17.0963 41.7127 17.1574 41.7127 17.2211V17.2211Z" fill="#FFC72C" stroke="black" stroke-width="0.0831184"/>
</g>
<g id="Group_5">
<path id="Vector_28" d="M40.1719 19.0774L41.4648 17.1657L42.7855 19.0867" stroke="#FFC72C" stroke-width="0.175472"/>
<path id="Vector_29" d="M41.732 18.3571C41.732 18.4257 41.7048 18.4914 41.6563 18.5399C41.6078 18.5884 41.542 18.6157 41.4734 18.6157C41.4049 18.6157 41.3391 18.5884 41.2906 18.5399C41.2421 18.4914 41.2148 18.4257 41.2148 18.3571C41.2148 18.2885 41.2421 18.2227 41.2906 18.1742C41.3391 18.1257 41.4049 18.0985 41.4734 18.0985C41.542 18.0985 41.6078 18.1257 41.6563 18.1742C41.7048 18.2227 41.732 18.2885 41.732 18.3571V18.3571Z" fill="#FFC72C" stroke="black" stroke-width="0.0831184"/>
<g id="Vector_30">
<path d="M40.4111 20.4904H42.4336C42.4336 20.4904 42.4613 20.2318 42.2212 20.0748C43.2833 19.9271 43.0062 19.0035 43.8836 18.9481C44.0683 18.9758 43.4218 19.3452 43.4218 19.3452C43.4218 19.3452 42.8954 19.7147 43.1447 19.9086C43.3294 20.0656 43.4218 19.8162 43.4403 19.6315C43.468 19.4468 44.2992 19.3268 44.1791 18.8004C43.9852 18.3663 42.8215 19.0959 42.8215 19.0959L41.9903 19.0866C41.9349 18.9943 41.7133 18.6249 41.4731 18.6249C41.1961 18.6249 40.9929 19.0866 40.9929 19.0866H39.1181C39.1181 19.0866 39.0535 19.5761 40.0047 19.6685C40.2171 19.9455 40.3834 20.0194 40.5773 20.0933C40.448 20.1949 40.4111 20.3242 40.4111 20.4904V20.4904ZM40.5588 20.0841H42.2397Z" fill="#FFC72C"/>
<path d="M40.5588 20.0841H42.2397M40.4111 20.4904H42.4336C42.4336 20.4904 42.4613 20.2318 42.2212 20.0748C43.2833 19.9271 43.0062 19.0035 43.8836 18.9481C44.0683 18.9758 43.4218 19.3452 43.4218 19.3452C43.4218 19.3452 42.8954 19.7147 43.1447 19.9086C43.3294 20.0656 43.4218 19.8162 43.4403 19.6315C43.468 19.4468 44.2992 19.3268 44.1791 18.8004C43.9852 18.3663 42.8215 19.0959 42.8215 19.0959L41.9903 19.0866C41.9349 18.9943 41.7133 18.6249 41.4731 18.6249C41.1961 18.6249 40.9929 19.0866 40.9929 19.0866H39.1181C39.1181 19.0866 39.0535 19.5761 40.0047 19.6685C40.2171 19.9455 40.3834 20.0194 40.5773 20.0933C40.448 20.1949 40.4111 20.3242 40.4111 20.4904V20.4904Z" stroke="black" stroke-width="0.0831184"/>
</g>
<g id="Vector_31">
<path d="M39.793 19.0959C39.793 19.0959 39.9223 19.8809 40.5503 20.0656Z" fill="#FFC72C"/>
<path d="M39.793 19.0959C39.793 19.0959 39.9223 19.8809 40.5503 20.0656" stroke="black" stroke-width="0.0831184"/>
</g>
<path id="Vector_32" d="M39.6914 19.0774C39.7468 18.7819 39.8668 18.7265 39.9869 18.3386C40.0054 17.9692 39.6914 18.0153 39.7837 17.7845C39.95 17.5166 39.8668 17.2673 39.5528 17.0733C39.6175 17.415 39.1465 17.7383 39.1465 18.0153C39.1465 18.2924 39.3866 18.237 39.3589 18.6618C39.3774 18.9019 39.2942 18.8465 39.2665 19.0774H39.6914Z" fill="url(#paint4_linear_2909_185261)" stroke="black" stroke-width="0.0831184"/>
<path id="Vector_33" d="M41.7127 17.2211C41.7127 17.2848 41.6874 17.3459 41.6423 17.3909C41.5973 17.4359 41.5362 17.4612 41.4725 17.4612C41.4089 17.4612 41.3478 17.4359 41.3028 17.3909C41.2577 17.3459 41.2324 17.2848 41.2324 17.2211C41.2324 17.1574 41.2577 17.0963 41.3028 17.0513C41.3478 17.0063 41.4089 16.981 41.4725 16.981C41.5362 16.981 41.5973 17.0063 41.6423 17.0513C41.6874 17.0963 41.7127 17.1574 41.7127 17.2211V17.2211Z" fill="#FFC72C" stroke="black" stroke-width="0.0831184"/>
</g>
<g id="Group_6">
<path id="Vector_34" d="M40.1719 19.0774L41.4648 17.1657L42.7855 19.0867" stroke="#FFC72C" stroke-width="0.175472"/>
<path id="Vector_35" d="M41.732 18.3571C41.732 18.4257 41.7048 18.4914 41.6563 18.5399C41.6078 18.5884 41.542 18.6157 41.4734 18.6157C41.4049 18.6157 41.3391 18.5884 41.2906 18.5399C41.2421 18.4914 41.2148 18.4257 41.2148 18.3571C41.2148 18.2885 41.2421 18.2227 41.2906 18.1742C41.3391 18.1257 41.4049 18.0985 41.4734 18.0985C41.542 18.0985 41.6078 18.1257 41.6563 18.1742C41.7048 18.2227 41.732 18.2885 41.732 18.3571V18.3571Z" fill="#FFC72C" stroke="black" stroke-width="0.0831184"/>
<g id="Vector_36">
<path d="M40.4111 20.4904H42.4336C42.4336 20.4904 42.4613 20.2318 42.2212 20.0748C43.2833 19.9271 43.0062 19.0035 43.8836 18.9481C44.0683 18.9758 43.4218 19.3452 43.4218 19.3452C43.4218 19.3452 42.8954 19.7147 43.1447 19.9086C43.3294 20.0656 43.4218 19.8162 43.4403 19.6315C43.468 19.4468 44.2992 19.3268 44.1791 18.8004C43.9852 18.3663 42.8215 19.0959 42.8215 19.0959L41.9903 19.0866C41.9349 18.9943 41.7133 18.6249 41.4731 18.6249C41.1961 18.6249 40.9929 19.0866 40.9929 19.0866H39.1181C39.1181 19.0866 39.0535 19.5761 40.0047 19.6685C40.2171 19.9455 40.3834 20.0194 40.5773 20.0933C40.448 20.1949 40.4111 20.3242 40.4111 20.4904V20.4904ZM40.5588 20.0841H42.2397Z" fill="#FFC72C"/>
<path d="M40.5588 20.0841H42.2397M40.4111 20.4904H42.4336C42.4336 20.4904 42.4613 20.2318 42.2212 20.0748C43.2833 19.9271 43.0062 19.0035 43.8836 18.9481C44.0683 18.9758 43.4218 19.3452 43.4218 19.3452C43.4218 19.3452 42.8954 19.7147 43.1447 19.9086C43.3294 20.0656 43.4218 19.8162 43.4403 19.6315C43.468 19.4468 44.2992 19.3268 44.1791 18.8004C43.9852 18.3663 42.8215 19.0959 42.8215 19.0959L41.9903 19.0866C41.9349 18.9943 41.7133 18.6249 41.4731 18.6249C41.1961 18.6249 40.9929 19.0866 40.9929 19.0866H39.1181C39.1181 19.0866 39.0535 19.5761 40.0047 19.6685C40.2171 19.9455 40.3834 20.0194 40.5773 20.0933C40.448 20.1949 40.4111 20.3242 40.4111 20.4904V20.4904Z" stroke="black" stroke-width="0.0831184"/>
</g>
<g id="Vector_37">
<path d="M39.793 19.0959C39.793 19.0959 39.9223 19.8809 40.5503 20.0656Z" fill="#FFC72C"/>
<path d="M39.793 19.0959C39.793 19.0959 39.9223 19.8809 40.5503 20.0656" stroke="black" stroke-width="0.0831184"/>
</g>
<path id="Vector_38" d="M39.6914 19.0774C39.7468 18.7819 39.8668 18.7265 39.9869 18.3386C40.0054 17.9692 39.6914 18.0153 39.7837 17.7845C39.95 17.5166 39.8668 17.2673 39.5528 17.0733C39.6175 17.415 39.1465 17.7383 39.1465 18.0153C39.1465 18.2924 39.3866 18.237 39.3589 18.6618C39.3774 18.9019 39.2942 18.8465 39.2665 19.0774H39.6914Z" fill="url(#paint5_linear_2909_185261)" stroke="black" stroke-width="0.0831184"/>
<path id="Vector_39" d="M41.7127 17.2211C41.7127 17.2848 41.6874 17.3459 41.6423 17.3909C41.5973 17.4359 41.5362 17.4612 41.4725 17.4612C41.4089 17.4612 41.3478 17.4359 41.3028 17.3909C41.2577 17.3459 41.2324 17.2848 41.2324 17.2211C41.2324 17.1574 41.2577 17.0963 41.3028 17.0513C41.3478 17.0063 41.4089 16.981 41.4725 16.981C41.5362 16.981 41.5973 17.0063 41.6423 17.0513C41.6874 17.0963 41.7127 17.1574 41.7127 17.2211V17.2211Z" fill="#FFC72C" stroke="black" stroke-width="0.0831184"/>
</g>
<g id="Group_7">
<path id="Vector_40" d="M40.1719 19.0774L41.4648 17.1657L42.7855 19.0867" stroke="#FFC72C" stroke-width="0.175472"/>
<path id="Vector_41" d="M41.732 18.3571C41.732 18.4257 41.7048 18.4914 41.6563 18.5399C41.6078 18.5884 41.542 18.6157 41.4734 18.6157C41.4049 18.6157 41.3391 18.5884 41.2906 18.5399C41.2421 18.4914 41.2148 18.4257 41.2148 18.3571C41.2148 18.2885 41.2421 18.2227 41.2906 18.1742C41.3391 18.1257 41.4049 18.0985 41.4734 18.0985C41.542 18.0985 41.6078 18.1257 41.6563 18.1742C41.7048 18.2227 41.732 18.2885 41.732 18.3571V18.3571Z" fill="#FFC72C" stroke="black" stroke-width="0.0831184"/>
<g id="Vector_42">
<path d="M40.4111 20.4904H42.4336C42.4336 20.4904 42.4613 20.2318 42.2212 20.0748C43.2833 19.9271 43.0062 19.0035 43.8836 18.9481C44.0683 18.9758 43.4218 19.3452 43.4218 19.3452C43.4218 19.3452 42.8954 19.7147 43.1447 19.9086C43.3294 20.0656 43.4218 19.8162 43.4403 19.6315C43.468 19.4468 44.2992 19.3268 44.1791 18.8004C43.9852 18.3663 42.8215 19.0959 42.8215 19.0959L41.9903 19.0866C41.9349 18.9943 41.7133 18.6249 41.4731 18.6249C41.1961 18.6249 40.9929 19.0866 40.9929 19.0866H39.1181C39.1181 19.0866 39.0535 19.5761 40.0047 19.6685C40.2171 19.9455 40.3834 20.0194 40.5773 20.0933C40.448 20.1949 40.4111 20.3242 40.4111 20.4904V20.4904ZM40.5588 20.0841H42.2397Z" fill="#FFC72C"/>
<path d="M40.5588 20.0841H42.2397M40.4111 20.4904H42.4336C42.4336 20.4904 42.4613 20.2318 42.2212 20.0748C43.2833 19.9271 43.0062 19.0035 43.8836 18.9481C44.0683 18.9758 43.4218 19.3452 43.4218 19.3452C43.4218 19.3452 42.8954 19.7147 43.1447 19.9086C43.3294 20.0656 43.4218 19.8162 43.4403 19.6315C43.468 19.4468 44.2992 19.3268 44.1791 18.8004C43.9852 18.3663 42.8215 19.0959 42.8215 19.0959L41.9903 19.0866C41.9349 18.9943 41.7133 18.6249 41.4731 18.6249C41.1961 18.6249 40.9929 19.0866 40.9929 19.0866H39.1181C39.1181 19.0866 39.0535 19.5761 40.0047 19.6685C40.2171 19.9455 40.3834 20.0194 40.5773 20.0933C40.448 20.1949 40.4111 20.3242 40.4111 20.4904V20.4904Z" stroke="black" stroke-width="0.0831184"/>
</g>
<g id="Vector_43">
<path d="M39.793 19.0959C39.793 19.0959 39.9223 19.8809 40.5503 20.0656Z" fill="#FFC72C"/>
<path d="M39.793 19.0959C39.793 19.0959 39.9223 19.8809 40.5503 20.0656" stroke="black" stroke-width="0.0831184"/>
</g>
<path id="Vector_44" d="M39.6914 19.0774C39.7468 18.7819 39.8668 18.7265 39.9869 18.3386C40.0054 17.9692 39.6914 18.0153 39.7837 17.7845C39.95 17.5166 39.8668 17.2673 39.5528 17.0733C39.6175 17.415 39.1465 17.7383 39.1465 18.0153C39.1465 18.2924 39.3866 18.237 39.3589 18.6618C39.3774 18.9019 39.2942 18.8465 39.2665 19.0774H39.6914Z" fill="url(#paint6_linear_2909_185261)" stroke="black" stroke-width="0.0831184"/>
<path id="Vector_45" d="M41.7127 17.2211C41.7127 17.2848 41.6874 17.3459 41.6423 17.3909C41.5973 17.4359 41.5362 17.4612 41.4725 17.4612C41.4089 17.4612 41.3478 17.4359 41.3028 17.3909C41.2577 17.3459 41.2324 17.2848 41.2324 17.2211C41.2324 17.1574 41.2577 17.0963 41.3028 17.0513C41.3478 17.0063 41.4089 16.981 41.4725 16.981C41.5362 16.981 41.5973 17.0063 41.6423 17.0513C41.6874 17.0963 41.7127 17.1574 41.7127 17.2211V17.2211Z" fill="#FFC72C" stroke="black" stroke-width="0.0831184"/>
</g>
<g id="Group_8">
<path id="Vector_46" d="M40.1719 19.0774L41.4648 17.1657L42.7855 19.0867" stroke="#FFC72C" stroke-width="0.175472"/>
<path id="Vector_47" d="M41.732 18.3571C41.732 18.4257 41.7048 18.4914 41.6563 18.5399C41.6078 18.5884 41.542 18.6157 41.4734 18.6157C41.4049 18.6157 41.3391 18.5884 41.2906 18.5399C41.2421 18.4914 41.2148 18.4257 41.2148 18.3571C41.2148 18.2885 41.2421 18.2227 41.2906 18.1742C41.3391 18.1257 41.4049 18.0985 41.4734 18.0985C41.542 18.0985 41.6078 18.1257 41.6563 18.1742C41.7048 18.2227 41.732 18.2885 41.732 18.3571V18.3571Z" fill="#FFC72C" stroke="black" stroke-width="0.0831184"/>
<g id="Vector_48">
<path d="M40.4111 20.4904H42.4336C42.4336 20.4904 42.4613 20.2318 42.2212 20.0748C43.2833 19.9271 43.0062 19.0035 43.8836 18.9481C44.0683 18.9758 43.4218 19.3452 43.4218 19.3452C43.4218 19.3452 42.8954 19.7147 43.1447 19.9086C43.3294 20.0656 43.4218 19.8162 43.4403 19.6315C43.468 19.4468 44.2992 19.3268 44.1791 18.8004C43.9852 18.3663 42.8215 19.0959 42.8215 19.0959L41.9903 19.0866C41.9349 18.9943 41.7133 18.6249 41.4731 18.6249C41.1961 18.6249 40.9929 19.0866 40.9929 19.0866H39.1181C39.1181 19.0866 39.0535 19.5761 40.0047 19.6685C40.2171 19.9455 40.3834 20.0194 40.5773 20.0933C40.448 20.1949 40.4111 20.3242 40.4111 20.4904V20.4904ZM40.5588 20.0841H42.2397Z" fill="#FFC72C"/>
<path d="M40.5588 20.0841H42.2397M40.4111 20.4904H42.4336C42.4336 20.4904 42.4613 20.2318 42.2212 20.0748C43.2833 19.9271 43.0062 19.0035 43.8836 18.9481C44.0683 18.9758 43.4218 19.3452 43.4218 19.3452C43.4218 19.3452 42.8954 19.7147 43.1447 19.9086C43.3294 20.0656 43.4218 19.8162 43.4403 19.6315C43.468 19.4468 44.2992 19.3268 44.1791 18.8004C43.9852 18.3663 42.8215 19.0959 42.8215 19.0959L41.9903 19.0866C41.9349 18.9943 41.7133 18.6249 41.4731 18.6249C41.1961 18.6249 40.9929 19.0866 40.9929 19.0866H39.1181C39.1181 19.0866 39.0535 19.5761 40.0047 19.6685C40.2171 19.9455 40.3834 20.0194 40.5773 20.0933C40.448 20.1949 40.4111 20.3242 40.4111 20.4904V20.4904Z" stroke="black" stroke-width="0.0831184"/>
</g>
<g id="Vector_49">
<path d="M39.793 19.0959C39.793 19.0959 39.9223 19.8809 40.5503 20.0656Z" fill="#FFC72C"/>
<path d="M39.793 19.0959C39.793 19.0959 39.9223 19.8809 40.5503 20.0656" stroke="black" stroke-width="0.0831184"/>
</g>
<path id="Vector_50" d="M39.6914 19.0774C39.7468 18.7819 39.8668 18.7265 39.9869 18.3386C40.0054 17.9692 39.6914 18.0153 39.7837 17.7845C39.95 17.5166 39.8668 17.2673 39.5528 17.0733C39.6175 17.415 39.1465 17.7383 39.1465 18.0153C39.1465 18.2924 39.3866 18.237 39.3589 18.6618C39.3774 18.9019 39.2942 18.8465 39.2665 19.0774H39.6914Z" fill="url(#paint7_linear_2909_185261)" stroke="black" stroke-width="0.0831184"/>
<path id="Vector_51" d="M41.7127 17.2211C41.7127 17.2848 41.6874 17.3459 41.6423 17.3909C41.5973 17.4359 41.5362 17.4612 41.4725 17.4612C41.4089 17.4612 41.3478 17.4359 41.3028 17.3909C41.2577 17.3459 41.2324 17.2848 41.2324 17.2211C41.2324 17.1574 41.2577 17.0963 41.3028 17.0513C41.3478 17.0063 41.4089 16.981 41.4725 16.981C41.5362 16.981 41.5973 17.0063 41.6423 17.0513C41.6874 17.0963 41.7127 17.1574 41.7127 17.2211V17.2211Z" fill="#FFC72C" stroke="black" stroke-width="0.0831184"/>
</g>
<g id="Group_9">
<path id="Vector_52" d="M40.1719 19.0774L41.4648 17.1657L42.7855 19.0867" stroke="#FFC72C" stroke-width="0.175472"/>
<path id="Vector_53" d="M41.732 18.3571C41.732 18.4257 41.7048 18.4914 41.6563 18.5399C41.6078 18.5884 41.542 18.6157 41.4734 18.6157C41.4049 18.6157 41.3391 18.5884 41.2906 18.5399C41.2421 18.4914 41.2148 18.4257 41.2148 18.3571C41.2148 18.2885 41.2421 18.2227 41.2906 18.1742C41.3391 18.1257 41.4049 18.0985 41.4734 18.0985C41.542 18.0985 41.6078 18.1257 41.6563 18.1742C41.7048 18.2227 41.732 18.2885 41.732 18.3571V18.3571Z" fill="#FFC72C" stroke="black" stroke-width="0.0831184"/>
<g id="Vector_54">
<path d="M40.4111 20.4904H42.4336C42.4336 20.4904 42.4613 20.2318 42.2212 20.0748C43.2833 19.9271 43.0062 19.0035 43.8836 18.9481C44.0683 18.9758 43.4218 19.3452 43.4218 19.3452C43.4218 19.3452 42.8954 19.7147 43.1447 19.9086C43.3294 20.0656 43.4218 19.8162 43.4403 19.6315C43.468 19.4468 44.2992 19.3268 44.1791 18.8004C43.9852 18.3663 42.8215 19.0959 42.8215 19.0959L41.9903 19.0866C41.9349 18.9943 41.7133 18.6249 41.4731 18.6249C41.1961 18.6249 40.9929 19.0866 40.9929 19.0866H39.1181C39.1181 19.0866 39.0535 19.5761 40.0047 19.6685C40.2171 19.9455 40.3834 20.0194 40.5773 20.0933C40.448 20.1949 40.4111 20.3242 40.4111 20.4904V20.4904ZM40.5588 20.0841H42.2397Z" fill="#FFC72C"/>
<path d="M40.5588 20.0841H42.2397M40.4111 20.4904H42.4336C42.4336 20.4904 42.4613 20.2318 42.2212 20.0748C43.2833 19.9271 43.0062 19.0035 43.8836 18.9481C44.0683 18.9758 43.4218 19.3452 43.4218 19.3452C43.4218 19.3452 42.8954 19.7147 43.1447 19.9086C43.3294 20.0656 43.4218 19.8162 43.4403 19.6315C43.468 19.4468 44.2992 19.3268 44.1791 18.8004C43.9852 18.3663 42.8215 19.0959 42.8215 19.0959L41.9903 19.0866C41.9349 18.9943 41.7133 18.6249 41.4731 18.6249C41.1961 18.6249 40.9929 19.0866 40.9929 19.0866H39.1181C39.1181 19.0866 39.0535 19.5761 40.0047 19.6685C40.2171 19.9455 40.3834 20.0194 40.5773 20.0933C40.448 20.1949 40.4111 20.3242 40.4111 20.4904V20.4904Z" stroke="black" stroke-width="0.0831184"/>
</g>
<g id="Vector_55">
<path d="M39.793 19.0959C39.793 19.0959 39.9223 19.8809 40.5503 20.0656Z" fill="#FFC72C"/>
<path d="M39.793 19.0959C39.793 19.0959 39.9223 19.8809 40.5503 20.0656" stroke="black" stroke-width="0.0831184"/>
</g>
<path id="Vector_56" d="M39.6914 19.0774C39.7468 18.7819 39.8668 18.7265 39.9869 18.3386C40.0054 17.9692 39.6914 18.0153 39.7837 17.7845C39.95 17.5166 39.8668 17.2673 39.5528 17.0733C39.6175 17.415 39.1465 17.7383 39.1465 18.0153C39.1465 18.2924 39.3866 18.237 39.3589 18.6618C39.3774 18.9019 39.2942 18.8465 39.2665 19.0774H39.6914Z" fill="url(#paint8_linear_2909_185261)" stroke="black" stroke-width="0.0831184"/>
<path id="Vector_57" d="M41.7127 17.2211C41.7127 17.2848 41.6874 17.3459 41.6423 17.3909C41.5973 17.4359 41.5362 17.4612 41.4725 17.4612C41.4089 17.4612 41.3478 17.4359 41.3028 17.3909C41.2577 17.3459 41.2324 17.2848 41.2324 17.2211C41.2324 17.1574 41.2577 17.0963 41.3028 17.0513C41.3478 17.0063 41.4089 16.981 41.4725 16.981C41.5362 16.981 41.5973 17.0063 41.6423 17.0513C41.6874 17.0963 41.7127 17.1574 41.7127 17.2211V17.2211Z" fill="#FFC72C" stroke="black" stroke-width="0.0831184"/>
</g>
<g id="Group_10">
<path id="Vector_58" d="M40.1719 19.0774L41.4648 17.1657L42.7855 19.0867" stroke="#FFC72C" stroke-width="0.175472"/>
<path id="Vector_59" d="M41.732 18.3571C41.732 18.4257 41.7048 18.4914 41.6563 18.5399C41.6078 18.5884 41.542 18.6157 41.4734 18.6157C41.4049 18.6157 41.3391 18.5884 41.2906 18.5399C41.2421 18.4914 41.2148 18.4257 41.2148 18.3571C41.2148 18.2885 41.2421 18.2227 41.2906 18.1742C41.3391 18.1257 41.4049 18.0985 41.4734 18.0985C41.542 18.0985 41.6078 18.1257 41.6563 18.1742C41.7048 18.2227 41.732 18.2885 41.732 18.3571V18.3571Z" fill="#FFC72C" stroke="black" stroke-width="0.0831184"/>
<g id="Vector_60">
<path d="M40.4111 20.4904H42.4336C42.4336 20.4904 42.4613 20.2318 42.2212 20.0748C43.2833 19.9271 43.0062 19.0035 43.8836 18.9481C44.0683 18.9758 43.4218 19.3452 43.4218 19.3452C43.4218 19.3452 42.8954 19.7147 43.1447 19.9086C43.3294 20.0656 43.4218 19.8162 43.4403 19.6315C43.468 19.4468 44.2992 19.3268 44.1791 18.8004C43.9852 18.3663 42.8215 19.0959 42.8215 19.0959L41.9903 19.0866C41.9349 18.9943 41.7133 18.6249 41.4731 18.6249C41.1961 18.6249 40.9929 19.0866 40.9929 19.0866H39.1181C39.1181 19.0866 39.0535 19.5761 40.0047 19.6685C40.2171 19.9455 40.3834 20.0194 40.5773 20.0933C40.448 20.1949 40.4111 20.3242 40.4111 20.4904V20.4904ZM40.5588 20.0841H42.2397Z" fill="#FFC72C"/>
<path d="M40.5588 20.0841H42.2397M40.4111 20.4904H42.4336C42.4336 20.4904 42.4613 20.2318 42.2212 20.0748C43.2833 19.9271 43.0062 19.0035 43.8836 18.9481C44.0683 18.9758 43.4218 19.3452 43.4218 19.3452C43.4218 19.3452 42.8954 19.7147 43.1447 19.9086C43.3294 20.0656 43.4218 19.8162 43.4403 19.6315C43.468 19.4468 44.2992 19.3268 44.1791 18.8004C43.9852 18.3663 42.8215 19.0959 42.8215 19.0959L41.9903 19.0866C41.9349 18.9943 41.7133 18.6249 41.4731 18.6249C41.1961 18.6249 40.9929 19.0866 40.9929 19.0866H39.1181C39.1181 19.0866 39.0535 19.5761 40.0047 19.6685C40.2171 19.9455 40.3834 20.0194 40.5773 20.0933C40.448 20.1949 40.4111 20.3242 40.4111 20.4904V20.4904Z" stroke="black" stroke-width="0.0831184"/>
</g>
<g id="Vector_61">
<path d="M39.793 19.0959C39.793 19.0959 39.9223 19.8809 40.5503 20.0656Z" fill="#FFC72C"/>
<path d="M39.793 19.0959C39.793 19.0959 39.9223 19.8809 40.5503 20.0656" stroke="black" stroke-width="0.0831184"/>
</g>
<path id="Vector_62" d="M39.6914 19.0774C39.7468 18.7819 39.8668 18.7265 39.9869 18.3386C40.0054 17.9692 39.6914 18.0153 39.7837 17.7845C39.95 17.5166 39.8668 17.2673 39.5528 17.0733C39.6175 17.415 39.1465 17.7383 39.1465 18.0153C39.1465 18.2924 39.3866 18.237 39.3589 18.6618C39.3774 18.9019 39.2942 18.8465 39.2665 19.0774H39.6914Z" fill="url(#paint9_linear_2909_185261)" stroke="black" stroke-width="0.0831184"/>
<path id="Vector_63" d="M41.7127 17.2211C41.7127 17.2848 41.6874 17.3459 41.6423 17.3909C41.5973 17.4359 41.5362 17.4612 41.4725 17.4612C41.4089 17.4612 41.3478 17.4359 41.3028 17.3909C41.2577 17.3459 41.2324 17.2848 41.2324 17.2211C41.2324 17.1574 41.2577 17.0963 41.3028 17.0513C41.3478 17.0063 41.4089 16.981 41.4725 16.981C41.5362 16.981 41.5973 17.0063 41.6423 17.0513C41.6874 17.0963 41.7127 17.1574 41.7127 17.2211V17.2211Z" fill="#FFC72C" stroke="black" stroke-width="0.0831184"/>
</g>
<g id="Group_11">
<path id="Vector_64" d="M40.1719 19.0774L41.4648 17.1657L42.7855 19.0867" stroke="#FFC72C" stroke-width="0.175472"/>
<path id="Vector_65" d="M41.732 18.3571C41.732 18.4257 41.7048 18.4914 41.6563 18.5399C41.6078 18.5884 41.542 18.6157 41.4734 18.6157C41.4049 18.6157 41.3391 18.5884 41.2906 18.5399C41.2421 18.4914 41.2148 18.4257 41.2148 18.3571C41.2148 18.2885 41.2421 18.2227 41.2906 18.1742C41.3391 18.1257 41.4049 18.0985 41.4734 18.0985C41.542 18.0985 41.6078 18.1257 41.6563 18.1742C41.7048 18.2227 41.732 18.2885 41.732 18.3571V18.3571Z" fill="#FFC72C" stroke="black" stroke-width="0.0831184"/>
<g id="Vector_66">
<path d="M40.4111 20.4904H42.4336C42.4336 20.4904 42.4613 20.2318 42.2212 20.0748C43.2833 19.9271 43.0062 19.0035 43.8836 18.9481C44.0683 18.9758 43.4218 19.3452 43.4218 19.3452C43.4218 19.3452 42.8954 19.7147 43.1447 19.9086C43.3294 20.0656 43.4218 19.8162 43.4403 19.6315C43.468 19.4468 44.2992 19.3268 44.1791 18.8004C43.9852 18.3663 42.8215 19.0959 42.8215 19.0959L41.9903 19.0866C41.9349 18.9943 41.7133 18.6249 41.4731 18.6249C41.1961 18.6249 40.9929 19.0866 40.9929 19.0866H39.1181C39.1181 19.0866 39.0535 19.5761 40.0047 19.6685C40.2171 19.9455 40.3834 20.0194 40.5773 20.0933C40.448 20.1949 40.4111 20.3242 40.4111 20.4904V20.4904ZM40.5588 20.0841H42.2397Z" fill="#FFC72C"/>
<path d="M40.5588 20.0841H42.2397M40.4111 20.4904H42.4336C42.4336 20.4904 42.4613 20.2318 42.2212 20.0748C43.2833 19.9271 43.0062 19.0035 43.8836 18.9481C44.0683 18.9758 43.4218 19.3452 43.4218 19.3452C43.4218 19.3452 42.8954 19.7147 43.1447 19.9086C43.3294 20.0656 43.4218 19.8162 43.4403 19.6315C43.468 19.4468 44.2992 19.3268 44.1791 18.8004C43.9852 18.3663 42.8215 19.0959 42.8215 19.0959L41.9903 19.0866C41.9349 18.9943 41.7133 18.6249 41.4731 18.6249C41.1961 18.6249 40.9929 19.0866 40.9929 19.0866H39.1181C39.1181 19.0866 39.0535 19.5761 40.0047 19.6685C40.2171 19.9455 40.3834 20.0194 40.5773 20.0933C40.448 20.1949 40.4111 20.3242 40.4111 20.4904V20.4904Z" stroke="black" stroke-width="0.0831184"/>
</g>
<g id="Vector_67">
<path d="M39.793 19.0959C39.793 19.0959 39.9223 19.8809 40.5503 20.0656Z" fill="#FFC72C"/>
<path d="M39.793 19.0959C39.793 19.0959 39.9223 19.8809 40.5503 20.0656" stroke="black" stroke-width="0.0831184"/>
</g>
<path id="Vector_68" d="M39.6914 19.0774C39.7468 18.7819 39.8668 18.7265 39.9869 18.3386C40.0054 17.9692 39.6914 18.0153 39.7837 17.7845C39.95 17.5166 39.8668 17.2673 39.5528 17.0733C39.6175 17.415 39.1465 17.7383 39.1465 18.0153C39.1465 18.2924 39.3866 18.237 39.3589 18.6618C39.3774 18.9019 39.2942 18.8465 39.2665 19.0774H39.6914Z" fill="url(#paint10_linear_2909_185261)" stroke="black" stroke-width="0.0831184"/>
<path id="Vector_69" d="M41.7127 17.2211C41.7127 17.2848 41.6874 17.3459 41.6423 17.3909C41.5973 17.4359 41.5362 17.4612 41.4725 17.4612C41.4089 17.4612 41.3478 17.4359 41.3028 17.3909C41.2577 17.3459 41.2324 17.2848 41.2324 17.2211C41.2324 17.1574 41.2577 17.0963 41.3028 17.0513C41.3478 17.0063 41.4089 16.981 41.4725 16.981C41.5362 16.981 41.5973 17.0063 41.6423 17.0513C41.6874 17.0963 41.7127 17.1574 41.7127 17.2211V17.2211Z" fill="#FFC72C" stroke="black" stroke-width="0.0831184"/>
</g>
<g id="Group_12">
<path id="Vector_70" d="M40.1719 19.0774L41.4648 17.1657L42.7855 19.0867" stroke="#FFC72C" stroke-width="0.175472"/>
<path id="Vector_71" d="M41.732 18.3571C41.732 18.4257 41.7048 18.4914 41.6563 18.5399C41.6078 18.5884 41.542 18.6157 41.4734 18.6157C41.4049 18.6157 41.3391 18.5884 41.2906 18.5399C41.2421 18.4914 41.2148 18.4257 41.2148 18.3571C41.2148 18.2885 41.2421 18.2227 41.2906 18.1742C41.3391 18.1257 41.4049 18.0985 41.4734 18.0985C41.542 18.0985 41.6078 18.1257 41.6563 18.1742C41.7048 18.2227 41.732 18.2885 41.732 18.3571V18.3571Z" fill="#FFC72C" stroke="black" stroke-width="0.0831184"/>
<g id="Vector_72">
<path d="M40.4111 20.4904H42.4336C42.4336 20.4904 42.4613 20.2318 42.2212 20.0748C43.2833 19.9271 43.0062 19.0035 43.8836 18.9481C44.0683 18.9758 43.4218 19.3452 43.4218 19.3452C43.4218 19.3452 42.8954 19.7147 43.1447 19.9086C43.3294 20.0656 43.4218 19.8162 43.4403 19.6315C43.468 19.4468 44.2992 19.3268 44.1791 18.8004C43.9852 18.3663 42.8215 19.0959 42.8215 19.0959L41.9903 19.0866C41.9349 18.9943 41.7133 18.6249 41.4731 18.6249C41.1961 18.6249 40.9929 19.0866 40.9929 19.0866H39.1181C39.1181 19.0866 39.0535 19.5761 40.0047 19.6685C40.2171 19.9455 40.3834 20.0194 40.5773 20.0933C40.448 20.1949 40.4111 20.3242 40.4111 20.4904V20.4904ZM40.5588 20.0841H42.2397Z" fill="#FFC72C"/>
<path d="M40.5588 20.0841H42.2397M40.4111 20.4904H42.4336C42.4336 20.4904 42.4613 20.2318 42.2212 20.0748C43.2833 19.9271 43.0062 19.0035 43.8836 18.9481C44.0683 18.9758 43.4218 19.3452 43.4218 19.3452C43.4218 19.3452 42.8954 19.7147 43.1447 19.9086C43.3294 20.0656 43.4218 19.8162 43.4403 19.6315C43.468 19.4468 44.2992 19.3268 44.1791 18.8004C43.9852 18.3663 42.8215 19.0959 42.8215 19.0959L41.9903 19.0866C41.9349 18.9943 41.7133 18.6249 41.4731 18.6249C41.1961 18.6249 40.9929 19.0866 40.9929 19.0866H39.1181C39.1181 19.0866 39.0535 19.5761 40.0047 19.6685C40.2171 19.9455 40.3834 20.0194 40.5773 20.0933C40.448 20.1949 40.4111 20.3242 40.4111 20.4904V20.4904Z" stroke="black" stroke-width="0.0831184"/>
</g>
<g id="Vector_73">
<path d="M39.793 19.0959C39.793 19.0959 39.9223 19.8809 40.5503 20.0656Z" fill="#FFC72C"/>
<path d="M39.793 19.0959C39.793 19.0959 39.9223 19.8809 40.5503 20.0656" stroke="black" stroke-width="0.0831184"/>
</g>
<path id="Vector_74" d="M39.6914 19.0774C39.7468 18.7819 39.8668 18.7265 39.9869 18.3386C40.0054 17.9692 39.6914 18.0153 39.7837 17.7845C39.95 17.5166 39.8668 17.2673 39.5528 17.0733C39.6175 17.415 39.1465 17.7383 39.1465 18.0153C39.1465 18.2924 39.3866 18.237 39.3589 18.6618C39.3774 18.9019 39.2942 18.8465 39.2665 19.0774H39.6914Z" fill="url(#paint11_linear_2909_185261)" stroke="black" stroke-width="0.0831184"/>
<path id="Vector_75" d="M41.7127 17.2211C41.7127 17.2848 41.6874 17.3459 41.6423 17.3909C41.5973 17.4359 41.5362 17.4612 41.4725 17.4612C41.4089 17.4612 41.3478 17.4359 41.3028 17.3909C41.2577 17.3459 41.2324 17.2848 41.2324 17.2211C41.2324 17.1574 41.2577 17.0963 41.3028 17.0513C41.3478 17.0063 41.4089 16.981 41.4725 16.981C41.5362 16.981 41.5973 17.0063 41.6423 17.0513C41.6874 17.0963 41.7127 17.1574 41.7127 17.2211V17.2211Z" fill="#FFC72C" stroke="black" stroke-width="0.0831184"/>
</g>
<g id="Group_13">
<path id="Vector_76" d="M49.4985 39.8108C49.4985 39.8108 50.0249 41.0299 50.6252 40.2726C51.2255 39.5338 51.0131 39.2105 51.0131 39.2105L49.6647 38.4809L49.2676 39.3121L49.4985 39.8108V39.8108Z" fill="#FFC72C" stroke="black" stroke-width="0.0831184"/>
<path id="Vector_77" d="M50.6626 39.6538C50.6626 39.6538 50.755 39.663 50.8196 39.5337C50.8935 39.4044 50.6626 39.349 50.5518 39.2013L50.441 39.4322L50.6626 39.6538ZM47.6149 39.3213L46.4328 39.9678C46.4328 39.9678 45.8418 40.0879 45.8048 39.9678C45.7586 39.857 45.814 39.7554 46.1281 39.7369C46.4328 39.7277 47.264 38.9612 47.264 38.9612L47.6149 39.3306V39.3213ZM47.6334 18.2739L47.6704 18.6987C47.6888 18.8465 47.4395 19.1605 47.4302 19.142C47.4118 19.1236 47.2917 19.1605 47.3102 19.2436C47.3194 19.336 47.4949 19.3637 47.4949 19.3637C47.4949 19.3637 47.4302 19.6685 47.4949 19.6869C47.5688 19.6962 47.3102 20.0748 47.4949 20.1764C47.6888 20.278 48.0121 20.4165 48.1598 20.3888C48.3076 20.3519 48.1598 20.9522 48.1598 20.9522L47.7442 21.8295L49.9977 21.5986L49.5359 20.8598C49.5359 20.8598 49.3143 20.7028 49.3697 20.278C49.4343 19.8624 49.342 17.9414 49.342 17.9414L47.735 17.7198L47.6334 18.2739V18.2739ZM47.2178 21.6171C47.2178 21.6171 46.4882 21.9496 46.5159 22.8547C46.3312 23.732 46.2296 24.6094 46.2296 24.6094C46.2296 24.6094 45.3615 25.5883 45.1029 25.9485C44.8351 26.2995 44.438 27.0106 44.2994 27.2045C44.1517 27.3892 43.5791 28.0172 43.5883 28.2574C43.6068 28.4882 43.459 29.5318 44.0316 29.6427C44.1794 29.7073 44.6504 28.4421 44.6504 28.4421C44.6504 28.4421 44.6781 27.9064 44.5119 27.7956C44.3549 27.7032 44.8628 27.3523 44.8628 27.3523L46.0634 26.4565C46.2851 26.2717 46.8854 25.6068 46.8854 25.6068L47.2178 21.6171V21.6171Z" fill="#FFC6B5" stroke="black" stroke-width="0.0831184"/>
<path id="Vector_78" d="M48.0578 20.9245C48.0578 20.9245 48.2425 21.4416 48.6673 21.3493C49.0921 21.2569 49.5908 20.8691 49.5908 20.8691C49.5908 20.8691 49.988 20.8506 50.0434 20.9152C50.0988 20.9706 51.1147 21.9496 51.0777 22.2544C51.05 22.5684 50.616 22.476 50.4497 22.6792C50.2927 22.8824 50.0249 23.3995 50.0988 23.7874C50.1727 24.1568 50.3943 24.6556 50.3666 24.8495C50.3389 25.0342 50.1819 25.0989 50.1819 25.2004C50.1819 25.2928 50.3112 25.4775 50.3112 25.6622C50.3112 25.8562 50.1265 26.1332 50.1634 26.3272C50.1911 26.5119 50.2004 27.066 50.2004 27.066L50.1634 29.6519C50.1634 29.6519 50.3112 29.735 50.3204 29.8828C50.3389 30.0213 51.3179 34.2788 51.3179 34.2788C51.3179 34.2788 51.2717 34.4173 51.1701 34.3989C51.0685 34.3804 51.5672 35.0546 51.5765 35.2485C51.5949 35.4332 52.0936 36.9294 52.0752 37.1325C52.0659 37.3357 51.9828 37.7975 51.9459 37.8067C51.8997 37.8252 52.2691 38.7487 52.2045 38.8873C52.149 39.035 51.558 39.0258 51.558 39.0258L51.3917 38.9889C51.3917 38.9889 51.401 39.1828 51.2902 39.2013C51.1701 39.2105 50.3112 39.1551 50.3112 39.1551C50.3112 39.1551 50.0618 39.5337 49.9141 39.5245C49.7663 39.506 49.5724 39.2474 49.5354 39.2844C49.4893 39.3306 49.6647 39.5799 49.6278 39.6538C49.5724 39.7277 48.8335 39.8847 48.6858 39.5337C48.538 39.1828 48.7781 39.2752 48.7227 39.2013C48.6858 39.1274 48.3533 38.9334 48.2425 38.9889C48.1501 39.0535 48.5103 39.1366 48.4918 39.2844C48.4826 39.4322 48.1686 39.6538 48.0578 39.6538C47.9377 39.6538 47.6607 39.1089 47.2451 39.1643C46.8387 39.229 46.5801 39.3306 46.5801 39.3306C46.5801 39.3306 46.0906 39.5337 45.8875 39.4876C45.6843 39.4506 45.5919 39.2844 45.5919 39.2013C45.5919 39.1089 45.7397 38.7303 45.7305 38.6102C45.712 38.4994 45.5919 38.3793 45.5919 38.2038C45.5919 38.0191 45.9336 37.4281 45.9336 37.4281L45.9152 34.7313C45.9152 34.7313 45.6104 34.7313 45.5919 34.5466C45.5827 34.3619 46.0629 30.2891 46.1461 30.0213L46.4046 28.8207C46.4046 28.8207 46.183 28.9315 46.1645 28.8207C46.1553 28.7284 46.8295 26.401 46.8295 26.401C46.8295 26.401 46.9403 25.2374 46.9403 24.9326C46.9403 24.6278 46.8849 24.203 46.8849 24.203C46.8849 24.203 46.2846 23.9444 46.2661 23.5565C46.2107 22.9378 46.8387 22.5961 46.9126 22.3929L47.2081 21.5617C47.2081 21.5617 47.5314 21.0076 48.0578 20.9245V20.9245Z" fill="#F5F5F5" stroke="black" stroke-width="0.0831184"/>
<path id="Vector_79" d="M47.8374 39.5061C47.8374 39.5061 46.4152 40.2449 46.212 40.3095C46.0088 40.365 45.8795 40.0602 46.0827 40.0048C46.2859 39.9401 46.6091 39.9124 46.6091 39.9124C46.6091 39.9124 46.1289 39.5338 46.1474 39.5153L46.8123 39.2752C46.8308 39.2752 47.0155 39.6446 47.1448 39.6261C47.3282 39.5371 47.5016 39.4287 47.662 39.3029L47.8374 39.5061V39.5061Z" fill="#FFC72C" stroke="black" stroke-width="0.0831184"/>
<path id="Vector_80" d="M49.832 39.9124C49.9706 40.0879 50.0167 40.3834 50.3307 40.2079C50.6355 40.0325 50.1737 39.7092 50.1737 39.7092L49.832 39.9124Z" fill="#FFC6B5" stroke="black" stroke-width="0.0831184"/>
<path id="Vector_81" d="M50.3944 39.8847C50.3944 39.8847 50.5422 40.0048 50.6715 39.8662C50.8008 39.7369 50.4129 39.4599 50.4129 39.4599L50.2189 39.6815L50.3944 39.8847ZM51.0224 22.3282C51.0409 22.3282 51.5027 23.769 51.5673 24.1384C51.6227 24.5078 51.8166 25.967 51.7428 26.1702C51.6689 26.3733 50.9208 27.3523 50.8377 27.6016C50.7453 27.851 50.2189 28.8022 50.2189 28.8022C50.2189 28.8022 50.0896 29.7443 50.0342 29.7812C49.9696 29.8274 50.182 30.0583 50.1635 30.1321C50.1358 30.2245 49.7387 30.6308 49.5632 30.5939C49.3785 30.5477 49.1015 30.3446 49.1015 30.1506C49.0737 29.9659 49.1015 29.3287 49.24 29.1717C49.3693 29.0054 50.0619 27.3892 50.0989 27.2876C50.145 27.1768 50.7269 25.9023 50.7453 25.6899C50.7638 25.4683 50.5606 24.9603 50.3575 24.7756C49.8957 23.418 50.0804 22.6053 51.0224 22.3282V22.3282Z" fill="#FFC6B5" stroke="black" stroke-width="0.0831184"/>
<path id="Vector_82" d="M47.5774 18.1908C47.5774 18.1908 47.9099 18.237 48.0854 18.1354C48.2609 18.0338 48.464 17.9876 48.6118 18.1908C48.7596 18.394 48.8612 18.3755 48.8612 18.3755C48.8612 18.3755 48.6395 18.9296 48.8612 18.985C49.0736 19.0405 49.1844 19.0405 49.1936 19.1143C49.2121 19.1882 49.0089 19.3452 49.0643 19.4191C49.1197 19.493 49.2213 19.5761 49.2398 19.6408C49.249 19.6962 49.1105 19.9455 49.1475 20.0102C49.1936 20.0656 49.3322 20.2965 49.4153 20.2965C49.5076 20.2965 49.443 20.6659 49.7108 20.5735C49.9694 20.4812 49.9602 20.2503 49.9602 20.2503C49.9602 20.2503 50.2372 20.2133 50.3111 19.964C50.3758 19.7146 50.5512 19.65 50.5512 19.65C50.5512 19.65 50.9022 19.4653 50.4404 19.1698C50.4404 17.1195 49.092 17.3411 49.092 17.3411C49.092 17.3411 48.935 16.9717 48.6672 17.0179C48.4086 17.0641 48.3901 17.3689 48.2054 17.3411C48.0115 17.3134 47.9653 17.1841 47.9561 17.1934C47.9376 17.2119 47.7714 17.5074 47.7714 17.572C47.7714 17.6459 47.2634 17.4797 47.3096 17.8491C47.3558 18.237 47.6051 18.2185 47.5867 18.1908H47.5774Z" fill="#9C5100" stroke="black" stroke-width="0.0831184"/>
<g id="Group_14">
<path id="Vector_83" d="M49.9615 34.6759C49.9615 34.6759 50.5248 37.3542 51.3745 38.1115M49.9615 21.497C49.9615 21.497 48.6593 22.3282 48.687 22.6238L49.9615 21.497ZM50.257 21.6448C50.257 21.6448 49.9615 21.968 49.943 21.968L50.257 21.6448ZM50.6449 21.9957C50.6449 21.9957 49.9984 22.5222 50.1 22.8546L50.6449 21.9957ZM47.6064 21.4232C47.6064 21.4232 47.4125 21.8203 47.4587 21.9496C47.4956 22.0789 47.8281 22.5776 47.865 22.8823C47.9112 23.1963 47.865 23.4088 47.865 23.4088L47.6064 21.4232ZM47.2647 22.1528C47.2647 22.1528 47.3202 22.6145 47.4125 22.7069C47.5049 22.7992 47.7357 23.1963 47.7635 23.3534L47.2647 22.1528ZM47.1447 24.1014C47.1447 24.1014 47.5326 24.2861 47.8835 23.5565L47.1447 24.1014ZM48.4469 23.0486C48.4376 23.0486 48.1698 23.7597 48.6408 24.0275C49.1026 24.2954 49.4628 24.2584 49.6567 24.1845C49.8691 24.1199 50.0908 23.9814 50.0908 23.9814L48.4469 23.0486ZM48.2437 23.9259C48.2437 23.9259 48.2714 24.8864 49.6936 25.8377L48.2437 23.9259ZM48.3083 24.831C48.3083 24.831 48.2899 25.6807 48.844 26.0593L48.3083 24.831ZM48.0128 23.8336C48.0128 23.8336 47.588 25.0988 47.2463 25.2189L48.0128 23.8336ZM47.8835 24.7571C47.8835 24.7571 47.865 25.6622 47.745 25.9854L47.8835 24.7571ZM47.6342 26.2071C47.6342 26.2071 47.9205 26.5765 48.2437 26.5396C48.5669 26.5118 48.7055 26.1332 48.9179 26.1886C49.1395 26.2533 49.3427 26.4287 49.8506 26.3826L47.6342 26.2071ZM49.1211 26.7612C49.1211 26.7612 49.1211 27.5093 49.2596 27.5832C49.3889 27.657 49.3242 28.3405 49.3242 28.3405L49.1211 26.7612ZM47.3386 26.4103C47.3386 26.4103 47.3202 27.1121 47.237 27.3615C47.1447 27.6109 46.9692 28.0357 47.0061 28.4051L47.3386 26.4103ZM46.4428 28.8115C46.5167 28.7838 46.766 28.5621 46.766 28.5621L46.4428 28.8115ZM46.8953 28.7191C46.8953 28.7191 46.2673 31.4158 46.4428 33.0228L46.8953 28.7191ZM47.0431 28.8576C47.0431 28.8576 46.7199 30.8709 46.8676 31.2588L47.0431 28.8576ZM46.8861 28.793L48.1144 28.8853L46.8861 28.793ZM48.2899 28.7191C48.2899 28.7191 48.6223 28.9038 49.0933 28.8669L48.2899 28.7191ZM48.1421 29.7073C48.1421 29.7073 48.0867 33.1521 47.9943 33.9186L48.1421 29.7073ZM49.943 30.4923C49.943 30.4923 50.3216 33.5215 50.5433 33.7986L49.943 30.4923ZM49.2134 30.8709C49.2134 30.8709 49.4443 33.5492 49.5828 33.7893L49.2134 30.8709ZM45.8887 34.7221C45.8887 34.7221 46.3504 34.5743 46.7568 34.1403C47.2186 34.7683 47.9389 34.168 47.9389 34.168C47.9389 34.168 49.0472 34.9253 49.5459 34.0756C50.3124 34.5743 50.6911 34.0017 50.6911 34.0017C50.6911 34.0017 50.9681 34.4266 51.1713 34.3804L45.8887 34.7221Z" stroke="black" stroke-width="0.0831184"/>
<path id="Vector_84" d="M43.6074 28.5529C43.6074 28.5529 44.023 29.2455 43.9768 29.6057M47.0245 34.3989C47.0245 34.3989 47.0892 36.6338 47.2185 38.2131L47.0245 34.3989ZM46.9137 36.9294C46.9137 36.9294 46.8398 38.3886 46.7567 38.4994L46.9137 36.9294ZM46.0548 38.6379C46.0548 38.6379 46.2118 39.2752 47.0153 38.6841C47.8188 38.1023 47.8372 38.9057 47.8649 38.9889C47.8926 39.0812 48.0219 39.7092 48.3267 39.1828L46.0548 38.6379ZM48.9732 38.3239C48.9732 38.3239 48.8439 39.6169 49.9983 38.6749C51.1527 37.7236 51.3467 38.6564 51.3836 38.9519L48.9732 38.3239ZM48.9916 17.6921C48.9916 17.6921 48.8901 18.3386 49.5735 18.2739C49.4811 18.6341 49.7582 18.7449 49.7582 18.7449L48.9916 17.6921ZM50.2569 19.142C50.2754 19.142 50.5709 19.3267 50.2569 19.5669V19.142ZM49.2687 19.65C49.2687 19.65 49.4165 19.8347 49.5735 19.7885C49.7397 19.7423 49.9983 19.9455 49.9983 19.9455C49.9983 19.9455 50.22 20.0194 50.2477 19.9732L49.2687 19.65ZM48.3729 20.2041C48.3729 20.2041 48.8716 20.398 49.2041 19.613L48.3729 20.2041ZM47.4586 19.3729L47.7449 19.3914L47.4586 19.3729ZM44.2077 28.6083L44.2354 29.2455L44.2077 28.6083Z" stroke="black" stroke-width="0.0831184"/>
<path id="Vector_85" d="M49.1215 29.9936C49.1215 29.9936 49.4263 29.9567 49.4171 30.4738C49.611 29.8274 50.0081 29.8181 50.0081 29.8181M47.4961 19.6685H47.7639L47.533 19.77L47.4961 19.6685Z" stroke="black" stroke-width="0.0831184" stroke-linejoin="round"/>
<path id="Vector_86" d="M47.8652 18.8465C47.9114 18.8465 48.0684 18.7911 48.0961 18.8373C48.1331 18.8742 47.9206 18.9111 47.8652 18.8465Z" stroke="black" stroke-width="0.157001" stroke-linejoin="round"/>
</g>
</g>
<g id="Group_15">
<path id="Vector_87" d="M48.067 44.6409C51.9221 44.4583 55.5538 42.7783 58.189 39.9586C58.1521 39.9216 59.0109 38.721 59.6944 38.8873C60.3778 39.0628 61.366 41.0761 62.5666 41.5101C63.1669 42.4521 62.4003 43.311 62.1417 43.4773C61.8831 43.6527 60.7195 44.1237 60.5533 43.4403C60.3778 42.7477 60.0361 42.8862 60.0361 42.8862C60.0361 42.8862 54.541 48.2427 48.1963 48.0303C41.6392 48.0672 36.2273 42.877 36.2273 42.877L35.7563 43.3941C35.7563 43.3941 35.2391 43.9483 34.9805 43.9113C34.7219 43.8651 33.6044 43.1356 33.5213 42.406C33.429 41.6764 34.2047 41.2054 34.2047 41.2054C34.2047 41.2054 36.098 39.7462 36.3104 38.9796C36.7445 38.5456 37.5572 39.2752 37.5572 39.2752C37.5572 39.2752 42.535 44.9826 48.067 44.6317V44.6409Z" fill="#FFC72C" stroke="black" stroke-width="0.175472"/>
<path id="Vector_88" d="M34.084 41.3162C34.084 41.3162 34.5919 41.1869 34.7766 41.3993C34.9613 41.6117 36.2543 42.877 36.2543 42.877" stroke="black" stroke-width="0.175472"/>
<path id="Vector_89" d="M62.1041 41.2793C62.1041 41.2793 61.8548 41.1407 61.4576 41.4363C61.0513 41.741 60.0446 42.8677 60.0446 42.8677M35.2476 41.9165L34.7305 42.2952C34.7305 42.2952 36.0234 42.5537 35.7279 43.4034L35.2476 41.9165Z" stroke="black" stroke-width="0.175472"/>
<path id="Vector_90" d="M60.9604 41.8795L61.5146 42.3044C61.5146 42.3044 60.3601 42.3875 60.6095 43.4773" stroke="black" stroke-width="0.175472"/>
</g>
<path id="Vector_91" d="M40.6238 42.683C40.5868 42.7754 40.4945 42.683 40.4206 42.7015C40.2359 42.7015 40.0697 42.8308 39.9034 42.9231L38.2041 43.9113C38.1487 43.8929 38.1579 43.8467 38.1764 43.8005L38.6382 41.6764C38.6566 41.5563 38.6936 41.3993 38.5735 41.307C38.5274 41.27 38.6012 41.2054 38.6382 41.27L39.5063 41.8888C39.4786 41.9719 39.4232 41.9073 39.377 41.8796C39.2569 41.7595 39.1092 41.8703 39.1184 42.0181L38.8044 43.4126C39.1923 43.191 39.5802 42.9693 39.9681 42.7292C40.0974 42.6738 40.199 42.4891 40.0604 42.3783C40.005 42.3413 39.9127 42.2582 40.005 42.2397L40.6238 42.683V42.683ZM41.2333 45.6383C41.2148 45.6938 41.1871 45.703 41.141 45.6661L40.1251 45.1119C40.1343 45.0473 40.162 45.038 40.2082 45.075C40.3005 45.1396 40.4483 45.1673 40.5222 45.0565L40.8916 44.3823L41.4088 43.4403C41.4827 43.3203 41.3996 43.1817 41.2887 43.1356C41.2518 43.1171 41.1964 43.0986 41.2426 43.0617C41.261 43.034 41.3164 43.0894 41.3441 43.0986L42.3231 43.6343C42.3139 43.6897 42.2862 43.6989 42.24 43.662C42.1476 43.5973 41.9999 43.5696 41.926 43.6805L41.5566 44.3546L41.0394 45.2966C40.9655 45.4075 41.0486 45.5552 41.1594 45.6014L41.2333 45.6383ZM45.1676 44.7148L44.8905 45.4906C44.7705 45.4813 44.8536 45.3336 44.8166 45.2597C44.7983 45.0828 44.7267 44.9157 44.6112 44.7805C44.4958 44.6452 44.342 44.5482 44.1702 44.5024C43.8931 44.4285 43.616 44.567 43.4498 44.7887C43.2086 45.1173 43.0675 45.5085 43.0435 45.9154C43.035 46.0314 43.058 46.1475 43.11 46.2516C43.162 46.3556 43.2411 46.4436 43.339 46.5065C43.5018 46.6082 43.6923 46.6566 43.8839 46.645L44.0778 46.0632C44.1055 45.9339 43.967 45.8508 43.8654 45.8231C43.8469 45.7861 43.8839 45.7307 43.93 45.7769L44.9459 46.1463C44.9459 46.2664 44.7982 46.1278 44.7151 46.1832C44.595 46.2294 44.5858 46.3772 44.5303 46.488L44.4103 46.8389C43.9485 46.8667 43.4867 46.7743 43.0804 46.5434C42.7017 46.3033 42.4339 45.8323 42.517 45.3705C42.5724 44.9734 42.8218 44.604 43.182 44.4285C43.5145 44.2438 43.9208 44.253 44.2718 44.3916C44.4565 44.4562 44.6227 44.5763 44.7705 44.7056C44.8628 44.8256 45.0291 44.8256 45.1029 44.6963L45.1676 44.7148V44.7148ZM46.8207 47.3746C46.8207 47.4115 46.8207 47.4577 46.7653 47.43L45.6016 47.2545C45.6016 47.2084 45.6017 47.1714 45.6571 47.1991C45.7494 47.2176 45.8972 47.2176 45.9341 47.1068C45.9895 46.9498 45.9988 46.7835 46.0265 46.6265L46.2297 45.2782C46.2574 45.1858 46.2297 45.075 46.1281 45.0381C46.0634 45.0103 46.008 45.0103 45.9434 44.9919C45.9434 44.9549 45.9434 44.918 45.9988 44.9365L47.1624 45.1212C47.1624 45.1581 47.1624 45.1951 47.107 45.1766C47.0147 45.1489 46.8761 45.1581 46.83 45.2689C46.7745 45.4167 46.7653 45.5829 46.7376 45.7399L46.5344 47.0883C46.5067 47.1807 46.5344 47.3007 46.6453 47.3377L46.83 47.3746H46.8207ZM49.9792 46.6173L49.933 47.4392L47.8458 47.5408C47.8366 47.4947 47.8458 47.467 47.9013 47.4762C48.0028 47.4762 48.1414 47.43 48.1598 47.31L48.1321 46.7004L48.0675 45.4629C48.0767 45.3428 47.9751 45.2505 47.8551 45.2597C47.8181 45.2412 47.7166 45.2966 47.7258 45.232C47.7073 45.1766 47.7904 45.2043 47.8181 45.1951L48.9818 45.1304C48.9818 45.1858 48.9818 45.2135 48.9172 45.2043C48.8156 45.2043 48.677 45.2228 48.6401 45.3521C48.6309 45.5275 48.6493 45.703 48.6586 45.8785L48.7232 47.1714C48.7232 47.273 48.8156 47.3746 48.9264 47.3561C49.0926 47.3469 49.2681 47.3561 49.4343 47.31C49.6652 47.2453 49.7853 47.0144 49.8499 46.802C49.8961 46.7466 49.8499 46.5988 49.9423 46.6173H49.9792V46.6173ZM51.5954 44.604C51.54 44.604 51.5677 44.6779 51.5492 44.7148C51.4569 45.4075 51.3738 46.1001 51.2722 46.7835C51.2537 46.9405 51.2168 47.116 51.069 47.1899C51.0136 47.2176 51.0598 47.3007 51.1152 47.2545L51.8078 47.0421C51.7986 46.9313 51.6601 47.0421 51.5862 47.0144C51.4292 47.0144 51.4015 46.8205 51.4292 46.7004C51.4292 46.6081 51.4476 46.5342 51.4569 46.4511L52.2511 46.2109C52.3527 46.3402 52.4635 46.4603 52.5559 46.5988C52.6298 46.7281 52.4635 46.7835 52.3712 46.8112C52.3158 46.8112 52.3527 46.9036 52.3989 46.8667L53.4425 46.5527C53.4425 46.4326 53.2947 46.5527 53.2301 46.4603C53.0269 46.3218 52.8884 46.1186 52.7314 45.9339L51.5954 44.604V44.604ZM51.5954 45.4352L52.1495 46.1094L51.4754 46.3125L51.5954 45.4352ZM55.1603 43.0524L55.465 43.6066C55.3727 43.6989 55.3173 43.505 55.2341 43.4773C55.1652 43.417 55.0789 43.38 54.9877 43.3717C54.8964 43.3634 54.8049 43.3842 54.7262 43.4311L54.5415 43.5327L55.4466 45.2228C55.4927 45.3613 55.6682 45.389 55.7883 45.3151C55.8252 45.2782 55.8714 45.2597 55.8806 45.3243C55.7329 45.4167 55.5574 45.4998 55.4004 45.5829L54.8001 45.9062C54.7539 45.86 54.7816 45.8323 54.837 45.8138C54.8696 45.802 54.899 45.7827 54.9228 45.7575C54.9466 45.7323 54.9641 45.7018 54.974 45.6686C54.9839 45.6354 54.9858 45.6003 54.9797 45.5661C54.9735 45.532 54.9595 45.4998 54.9386 45.4721L54.0428 43.8097C53.8765 43.9021 53.6734 43.976 53.6272 44.1792C53.581 44.3177 53.6457 44.4747 53.6457 44.5855C53.5995 44.6409 53.581 44.567 53.5533 44.5301L53.304 44.0499L55.1603 43.0524V43.0524ZM56.5733 42.212L57.1459 42.9786C57.2752 42.8862 57.386 42.7384 57.349 42.5722C57.3675 42.4429 57.1828 42.2951 57.2475 42.2028C57.2844 42.1843 57.3121 42.2767 57.3398 42.3044L58.0048 43.1817C57.9124 43.2741 57.857 43.0802 57.7646 43.0524C57.6353 42.9601 57.4599 42.9139 57.3213 43.0155C57.2198 43.0524 57.229 43.1079 57.2936 43.1725C57.4414 43.3664 57.5892 43.5789 57.7554 43.7728C57.8478 43.8652 57.9771 43.7728 58.0602 43.6989C58.2818 43.5512 58.4758 43.311 58.4665 43.034C58.485 42.9047 58.4019 42.7754 58.4019 42.6646C58.4573 42.5999 58.4665 42.7015 58.4942 42.7384L58.8082 43.2926L57.1828 44.5209C57.1182 44.4747 57.1828 44.4378 57.229 44.41C57.3768 44.3177 57.3306 44.1237 57.229 44.0222L56.1762 42.6461C56.0838 42.526 55.9176 42.5907 55.8344 42.6738C55.7883 42.7292 55.7421 42.6276 55.8067 42.6184L57.3306 41.464L57.7462 42.0181C57.6538 42.1104 57.5615 41.898 57.4599 41.8888C57.2567 41.778 57.0166 41.8611 56.8503 41.9996L56.564 42.212" fill="black"/>
</g>
<path id="Vector_92" d="M0.246094 0H32.2461V32H0.246094V0Z" fill="#012169"/>
<path id="Vector_93" d="M32.2461 0V4L20.3711 16L32.2461 27.6875V32H28.0586L16.1211 20.25L4.49609 32H0.246094V27.75L11.8711 16.0625L0.246094 4.625V0H4.12109L16.1211 11.75L27.7461 0H32.2461Z" fill="#F5F5F5"/>
<path id="Vector_94" d="M11.7461 20.25L12.4336 22.375L2.87109 32H0.246094V31.8125L11.7461 20.25ZM19.4961 19.5L22.8711 20L32.2461 29.1875V32L19.4961 19.5ZM32.2461 0L20.2461 12.25L19.9961 9.5L29.3711 0H32.2461ZM0.246094 0.0625L12.3086 11.875L8.62109 11.375L0.246094 3.0625V0.0625Z" fill="#C8102E"/>
<path id="Vector_95" d="M11.2461 0V32H21.2461V0H11.2461ZM0.246094 11V21H32.2461V11H0.246094Z" fill="#F5F5F5"/>
<path id="Vector_96" d="M0.246094 13V19H32.2461V13H0.246094ZM13.2461 0V32H19.2461V0H13.2461Z" fill="#C8102E"/>
</g>
</g>
<defs>
<linearGradient id="paint0_linear_2909_185261" x1="39.4053" y1="18.5149" x2="38.3548" y2="18.36" gradientUnits="userSpaceOnUse">
<stop stop-color="#FF0000"/>
<stop offset="1" stop-color="#FFFF00"/>
</linearGradient>
<linearGradient id="paint1_linear_2909_185261" x1="39.4053" y1="18.5149" x2="38.3548" y2="18.36" gradientUnits="userSpaceOnUse">
<stop stop-color="#FF0000"/>
<stop offset="1" stop-color="#FFFF00"/>
</linearGradient>
<linearGradient id="paint2_linear_2909_185261" x1="39.4053" y1="18.5149" x2="38.3548" y2="18.36" gradientUnits="userSpaceOnUse">
<stop stop-color="#FF0000"/>
<stop offset="1" stop-color="#FFFF00"/>
</linearGradient>
<linearGradient id="paint3_linear_2909_185261" x1="39.4053" y1="18.5149" x2="38.3548" y2="18.36" gradientUnits="userSpaceOnUse">
<stop stop-color="#FF0000"/>
<stop offset="1" stop-color="#FFFF00"/>
</linearGradient>
<linearGradient id="paint4_linear_2909_185261" x1="39.4053" y1="18.5149" x2="38.3548" y2="18.36" gradientUnits="userSpaceOnUse">
<stop stop-color="#FF0000"/>
<stop offset="1" stop-color="#FFFF00"/>
</linearGradient>
<linearGradient id="paint5_linear_2909_185261" x1="39.4053" y1="18.5149" x2="38.3548" y2="18.36" gradientUnits="userSpaceOnUse">
<stop stop-color="#FF0000"/>
<stop offset="1" stop-color="#FFFF00"/>
</linearGradient>
<linearGradient id="paint6_linear_2909_185261" x1="39.4053" y1="18.5149" x2="38.3548" y2="18.36" gradientUnits="userSpaceOnUse">
<stop stop-color="#FF0000"/>
<stop offset="1" stop-color="#FFFF00"/>
</linearGradient>
<linearGradient id="paint7_linear_2909_185261" x1="39.4053" y1="18.5149" x2="38.3548" y2="18.36" gradientUnits="userSpaceOnUse">
<stop stop-color="#FF0000"/>
<stop offset="1" stop-color="#FFFF00"/>
</linearGradient>
<linearGradient id="paint8_linear_2909_185261" x1="39.4053" y1="18.5149" x2="38.3548" y2="18.36" gradientUnits="userSpaceOnUse">
<stop stop-color="#FF0000"/>
<stop offset="1" stop-color="#FFFF00"/>
</linearGradient>
<linearGradient id="paint9_linear_2909_185261" x1="39.4053" y1="18.5149" x2="38.3548" y2="18.36" gradientUnits="userSpaceOnUse">
<stop stop-color="#FF0000"/>
<stop offset="1" stop-color="#FFFF00"/>
</linearGradient>
<linearGradient id="paint10_linear_2909_185261" x1="39.4053" y1="18.5149" x2="38.3548" y2="18.36" gradientUnits="userSpaceOnUse">
<stop stop-color="#FF0000"/>
<stop offset="1" stop-color="#FFFF00"/>
</linearGradient>
<linearGradient id="paint11_linear_2909_185261" x1="39.4053" y1="18.5149" x2="38.3548" y2="18.36" gradientUnits="userSpaceOnUse">
<stop stop-color="#FF0000"/>
<stop offset="1" stop-color="#FFFF00"/>
</linearGradient>
<clipPath id="clip0_2909_185261">
<path d="M0.246094 32C0.246094 14.3269 14.573 0 32.2461 0V0C49.9192 0 64.2461 14.3269 64.2461 32V32C64.2461 49.6731 49.9192 64 32.2461 64V64C14.573 64 0.246094 49.6731 0.246094 32V32Z" fill="white"/>
</clipPath>
</defs>
</svg>
