<svg width="65" height="64" viewBox="0 0 65 64" fill="none" xmlns="http://www.w3.org/2000/svg">
<g id="Rounded=Virgin Islands (U.S.) (VI)">
<g clip-path="url(#clip0_2909_185260)">
<path id="Vector" d="M0.246094 0H64.2461V64H0.246094V0Z" fill="#F5F5F5"/>
<path id="Vector_2" d="M20.6844 39.5C20.6844 39.5 20.6344 39.1375 21.2969 38.875C21.9594 38.625 22.0094 37.6625 21.8844 37.025C21.8844 37.025 21.5344 37.6375 21.1094 37.8375C21.1094 37.8375 20.4219 38.2 20.3844 38.8875C20.3844 38.8875 20.3844 39.1375 20.3344 39.325C20.3094 39.4375 19.9969 38.475 20.5844 37.75C21.1719 37.0125 21.3344 36.4125 20.8719 35.25C20.8719 35.25 20.8219 35.95 20.3594 36.3625C19.8844 36.7625 19.8344 36.8 19.8344 37.7625C19.8344 37.7625 19.8344 38.1 19.6719 38.2125C19.6719 38.2125 19.2969 37.675 19.2094 37.3375C19.1094 36.975 19.0719 36.8375 19.4844 36.425C19.4844 36.425 20.8094 35.5625 19.8594 33.675C19.8594 33.675 19.8219 34.3375 19.3594 34.7125C18.9094 35.0875 18.9469 35.35 18.9219 36.0125C18.8969 36.675 18.8469 36.6375 18.7969 36.725C18.7969 36.725 17.9594 35.175 18.6094 34.35C19.2594 33.525 19.6219 33.35 18.9094 31.8125C18.9094 31.8125 18.9344 32.6 18.3594 32.9875C17.7844 33.375 17.9219 34.3 17.9219 34.3C17.9219 34.3 17.9594 34.6375 17.8344 34.8875C17.8344 34.8875 17.0219 33.3 17.7969 32.45C18.4594 31.725 18.5094 31.2125 18.1469 30.1875C18.1469 30.1875 18.1094 30.6625 17.7469 30.925C17.3719 31.175 17.0969 31.425 17.1594 32.425C17.1594 32.425 17.1844 33.1125 17.0969 33.3C17.0969 33.3 16.7594 32.675 16.6594 32.2625C16.5719 31.85 16.5344 31.6125 16.7844 31.2C17.0344 30.7875 18.0344 29.6 16.8344 27.9C16.8344 27.9 16.7969 28.45 16.4969 28.95C16.1969 29.45 16.3344 30.0375 16.3969 30.4875C16.4719 30.9375 16.2469 31.375 16.2469 31.375C16.2469 31.375 15.7344 30.425 15.8344 29.3375C15.9594 28.25 15.5094 27.3375 14.4969 26.7125C14.4969 26.7125 13.7719 28.4 14.7719 29.2625C14.7719 29.2625 15.6219 30.1125 15.8344 31.1375C15.8344 31.1375 15.1844 31.0625 14.6094 29.925C14.0219 28.8 12.8094 28.975 12.7344 28.9625C12.7344 28.9625 12.9219 30.7125 14.7844 31.2125C14.7844 31.2125 15.9844 31.425 16.1969 32.3C16.1969 32.3 16.3969 32.9 16.4844 33.225C16.4844 33.225 16.1094 33.075 15.7594 32.5625C15.4094 32.0375 15.4594 31.975 14.2844 31.8625C14.2844 31.8625 13.8094 31.8125 13.5594 31.475C13.5594 31.475 14.0594 33.3375 15.3219 33.325C15.3219 33.325 16.4844 33.2 17.1344 34.725L16.8344 34.525C16.6719 34.4 16.2344 34.1875 15.3844 34.3C14.5344 34.4125 14.2969 34.25 14.0844 34.175C14.0844 34.175 14.9469 35.7625 16.1594 35.3C17.3719 34.825 17.9594 36.525 17.9719 36.5625C17.9719 36.5625 17.8094 36.4375 17.5969 36.225C17.3844 36.0125 16.9344 35.7625 16.0969 36.025C16.0969 36.025 15.4844 36.2625 14.8719 36.075C14.8719 36.075 15.4594 37.2125 16.8469 37.025C18.2219 36.825 18.5844 38.05 18.5844 38.05L18.2719 37.8375C18.1469 37.7375 17.6719 37.4625 16.6719 37.7625C15.6719 38.0625 15.3094 37.7125 15.3094 37.7125C15.3094 37.7125 15.8719 38.725 16.9344 38.8375C16.9344 38.8375 17.5219 38.8375 17.7844 38.75C18.0257 38.6478 18.2952 38.6331 18.5462 38.7084C18.7973 38.7837 19.0141 38.9443 19.1594 39.1625C19.1594 39.1625 19.0344 39.1875 18.8344 39.1C18.8344 39.1 18.1219 38.85 17.5844 39.3C17.5844 39.3 17.1094 39.8 16.4219 39.7C16.4219 39.7 17.2969 40.55 18.7094 39.825C18.7094 39.825 19.1844 39.4875 19.5219 39.75C19.8719 40.0125 20.6844 39.5 20.6844 39.5V39.5Z" fill="#369443" stroke="#010002" stroke-width="0.15" stroke-miterlimit="10"/>
<g id="Group">
<path id="Vector_3" d="M28.4706 18.375C28.4706 18.375 28.3081 16.9125 29.4706 16.775C30.6706 16.6375 31.2706 16.8875 31.2706 16.8875L31.8081 17.95L31.6206 18.675L30.8706 19.0125C30.8706 19.0125 30.9956 17.9125 29.9956 17.8875C29.7456 17.8875 29.5831 17.9875 29.1831 17.925C28.7706 17.85 28.5581 18.3 28.4706 18.3625V18.375Z" fill="#F4C53D" stroke="#010002" stroke-width="0.15" stroke-miterlimit="10"/>
<path id="Vector_4" d="M36.6207 21.9625C36.4457 22.1875 35.7582 22.2625 35.7582 22.2625C35.7582 22.2625 36.4707 22.8 36.7707 23.5875C37.0832 24.3625 28.5457 23.5875 28.5457 23.5875C28.5457 23.5875 28.9207 23.325 29.1707 22.8375C29.1707 22.8375 28.7957 22.9625 28.4082 22.5875C28.4082 22.5875 28.6957 22.6875 29.0582 22.125C29.0582 22.125 29.6082 21.425 29.9957 21.2375C29.9957 21.2375 29.8082 21.35 29.3832 21.1125C29.3832 21.1125 30.1332 21.0125 30.3832 19.75C30.3832 19.75 30.4332 19.475 30.7207 19.0625C30.9957 18.6625 30.9332 19.15 31.4582 18.525C31.4582 18.525 31.6957 18.075 31.4832 17.8125C31.2707 17.55 31.0582 17.6375 30.6207 17.375C30.1832 17.1125 29.9957 16.975 30.1457 16.575C30.2957 16.175 30.6707 16.2375 30.7332 16.2375C30.7832 16.2375 30.8207 15.8875 31.2832 15.65C31.9098 15.4642 32.5749 15.4513 33.2082 15.6125C33.3957 15.725 34.1582 15.95 34.5957 17.0625C35.0457 18.1875 34.4707 18.6125 35.6957 20.3125C35.6957 20.3125 35.1957 20.4125 34.8957 20.3125C34.8957 20.3125 35.5207 21.4375 36.6207 21.9625V21.9625Z" fill="#F4C53D" stroke="#010002" stroke-width="0.15" stroke-miterlimit="10"/>
<path id="Vector_5" d="M31.333 17.225C30.358 17.175 30.733 16.2375 30.733 16.2375" stroke="#010002" stroke-width="0.15" stroke-miterlimit="10"/>
<path id="Vector_6" d="M33.0465 17.35C33.0465 17.35 32.8715 17.2625 32.734 17.075C32.5215 16.8 32.059 16.675 31.809 16.925C31.809 16.925 31.559 17.2125 31.334 17.225C31.334 17.225 31.584 17.3 31.759 17.4625C31.934 17.625 32.1215 17.7375 32.384 17.7125C32.634 17.6625 32.684 17.525 32.7965 17.45C32.9215 17.3625 33.0465 17.35 33.0465 17.35V17.35Z" fill="#F4C53D" stroke="#010002" stroke-width="0.15" stroke-miterlimit="10"/>
</g>
<path id="Vector_7" d="M20.5333 41.65C20.5333 41.65 20.5083 41.025 21.3083 40.9625L23.6583 44.2375C23.6583 44.2375 23.5708 44.45 22.5083 44.425C22.5083 44.425 22.3833 44.425 22.3333 44.55C22.2458 44.75 20.5333 41.65 20.5333 41.65Z" fill="#369443" stroke="#010002" stroke-width="0.15" stroke-miterlimit="10"/>
<g id="a">
<path id="Vector_8" d="M23.1166 37.8429C23.1166 37.8429 22.3654 39.1316 21.4576 39.1527C21.4576 39.1527 19.8964 38.963 19.4553 39.371C19.1466 39.6556 18.832 39.8904 18.7025 40.6176C18.5761 41.3447 18.9509 41.5013 19.0398 41.5329C19.0398 41.5329 19.109 42.0523 19.6224 41.9168C19.6224 41.9168 19.6525 42.4588 20.5588 42.1984C21.4666 41.9379 21.843 42.0207 22.0191 41.1174C22.1983 40.2126 22.3624 40.2277 22.5235 40.1193C22.7403 39.9732 23.1483 39.8362 23.4509 39.6616C23.7219 39.505 24.7637 38.9751 25.119 38.9344C25.4743 38.8923 25.396 37.6969 25.396 37.6969H24.4776L24.0335 37.042L23.1151 37.8429H23.1166ZM26.0072 31.3783C26.0072 31.3783 25.0889 32.1266 24.318 31.3783C24.318 31.3783 24.0079 31.7517 23.3846 31.6433C22.7644 31.5334 22.6605 31.2067 22.6018 31.02C22.6018 31.02 22.0628 31.3332 21.6081 31.0847C21.1565 30.8378 21.1565 30.463 21.1565 30.463C21.1565 30.463 20.3661 30.6195 19.9611 30.0836C19.5561 29.5491 19.803 29.0192 20.0213 28.956C20.0213 28.956 19.1677 29.1803 18.9344 28.4471C18.8722 28.2834 18.8626 28.1044 18.9069 27.935C18.9511 27.7655 19.047 27.6141 19.1813 27.5017C19.1813 27.5017 17.3837 27.4926 16.646 26.9296C16.646 26.9296 16.0333 26.5442 16.3991 26.1392C16.3991 26.1392 14.7807 25.8802 14.3757 25.2359C14.3757 25.2359 14.1981 25.0582 14.2568 24.7466C14.2568 24.7466 14.2673 24.5705 14.445 24.5599C14.445 24.5599 12.5992 24.2739 12.0663 23.6656C12.0663 23.6656 11.8103 23.3856 11.9383 23.0108C11.9383 23.0108 11.9654 22.9129 12.0091 22.8451C12.0091 22.8451 10.3289 22.4914 9.50091 21.7431C9.50091 21.7431 9.02216 21.3171 9.26906 20.745C9.26906 20.745 6.4613 19.9772 7.11168 18.7396C7.11168 18.7396 5.79888 18.3136 6.2144 17.1288C6.2144 17.1288 5.12893 16.5778 5.60166 15.7046C6.05482 14.869 7.4474 15.8506 9.09442 16.3068C9.09442 16.3068 13.5567 17.7099 15.7532 18.0833L21.9951 27.3767L25.6369 28.7798L26.0057 31.3783H26.0072Z" fill="#F4C53D" stroke="#010002" stroke-width="0.15055"/>
<path id="Vector_9" d="M26.0513 24.5343C26.0513 24.5343 25.4656 24.0947 24.4223 24.6111C24.4223 24.6111 24.0715 24.8535 23.7945 24.5885C23.7345 24.5312 23.6879 24.4613 23.6581 24.3838C23.6283 24.3063 23.616 24.2232 23.6222 24.1404C23.6284 24.0576 23.6529 23.9772 23.6939 23.905C23.7349 23.8328 23.7914 23.7706 23.8593 23.7229C24.6376 23.1463 24.9252 21.4164 23.7418 20.6983C23.7418 20.6983 22.0256 19.6806 15.7281 18.0787C15.7281 18.0787 15.2011 17.9312 14.9181 18.002C14.7812 18.0369 14.6563 18.1082 14.5566 18.2084C14.4569 18.3086 14.3862 18.4339 14.352 18.571C14.352 18.571 14.069 19.3735 15.0175 19.8327C15.0175 19.8327 15.445 20.0284 15.8861 20.1548C15.8861 20.1548 15.4014 20.0494 15.1936 20.5282C14.9979 20.9859 15.2839 21.4541 16.1722 21.7552C16.1722 21.7552 16.4131 21.8485 16.7548 21.9313C16.7548 21.9313 15.9945 22.1496 16.3604 22.7639C16.3604 22.7639 16.6856 23.4082 17.8358 23.5226C17.8358 23.5226 16.9776 23.616 17.5828 24.432C17.5828 24.432 17.8493 24.8791 18.6879 25.0447C18.6879 25.0447 18.0526 25.0658 18.3717 25.6364C18.6939 26.2084 19.4482 26.5306 20.1919 26.5833C20.1919 26.5833 20.5938 26.6044 20.8754 26.5412C20.8754 26.5412 20.1678 26.895 20.5833 27.4866C20.5833 27.4866 20.8889 27.9082 21.6537 27.8871C21.6537 27.8871 21.4565 28.5495 22.0165 28.7994C22.4531 28.9951 22.816 28.682 22.816 28.682C22.816 28.682 22.6684 29.3911 23.3052 29.641C23.3052 29.641 23.6229 29.8051 24.0971 29.641C24.0971 29.641 24.4585 30.4524 25.7472 29.8819C27.0359 29.3143 26.0513 24.5358 26.0513 24.5358V24.5343ZM26.1266 31.9022C26.1266 31.9022 25.9384 32.917 24.4404 34.1936C24.4404 34.1936 23.2842 35.2128 23.3128 36.3871C23.3429 37.584 23.1065 37.718 22.6519 38.123C22.6519 38.123 23.5898 38.1967 24.0429 37.572C24.0429 37.572 24.0234 38.6108 23.8849 38.7056C23.8849 38.7056 24.1799 38.7237 24.606 38.2585C24.606 38.2585 24.8619 37.9875 25.0998 37.8836C25.0998 37.8836 24.8228 38.6017 25.0396 39.2671C25.0396 39.2671 25.1088 39.0067 25.4747 38.8923C25.4747 38.8923 26.1371 38.7568 26.393 37.8008C26.393 37.8008 26.5601 37.1685 27.5974 36.6054C27.5974 36.6054 28.7717 36.1628 28.7416 35.5847C28.7115 35.0051 26.1281 31.9022 26.1281 31.9022H26.1266Z" fill="#F4C53D" stroke="#010002" stroke-width="0.15055"/>
<path id="Vector_10" d="M31.5707 44.9835C31.5707 44.9835 31.3012 46.1699 30.3663 46.075C30.3663 46.075 29.7054 46.0118 29.7551 44.9098C29.7551 44.9098 28.778 45.4307 28.6199 44.142C28.6199 44.142 27.7317 44.3482 27.7422 43.1438C27.7422 43.1438 26.9142 43.2883 27.0121 42.2179C27.0121 42.2179 26.1133 42.4588 26.1133 41.4501C26.1133 41.4501 24.0116 41.1009 28.3926 37.1053L32.3009 39.4328L31.5707 44.9835V44.9835Z" fill="#F4C53D" stroke="#010002" stroke-width="0.15055" stroke-miterlimit="10"/>
<path id="Vector_11" d="M32.0058 39.6556C32.0058 39.6556 31.3539 40.2337 30.8902 39.3695C30.8902 39.3695 30.2579 39.3394 30.1601 38.8607C30.1601 38.8607 29.6467 38.8095 29.5473 38.3202C29.5473 38.3202 28.8473 38.2479 28.8668 37.6563C28.8668 37.6563 27.5932 37.5569 28.8668 36.1146C30.1405 34.6724 32.3009 38.5084 32.3009 38.5084L32.0058 39.6556ZM32.7315 39.2973C33.3638 39.2973 34.0789 43.2417 33.8937 45.6188C33.826 46.4815 33.3638 47.1861 32.7315 47.1861C32.0992 47.1861 31.6385 46.4815 31.5722 45.6188C31.3856 43.2417 32.1007 39.2973 32.7315 39.2973Z" fill="#F4C53D" stroke="#010002" stroke-width="0.15055"/>
<path id="Vector_12" d="M32.7306 40.5619C33.2129 40.5619 33.6038 39.9822 33.6038 39.2671C33.6038 38.5521 33.2129 37.9724 32.7306 37.9724C32.2484 37.9724 31.8574 38.5521 31.8574 39.2671C31.8574 39.9822 32.2484 40.5619 32.7306 40.5619Z" fill="#F4C53D" stroke="#010002" stroke-width="0.15055"/>
<path id="Vector_13" d="M26.1133 41.4501C26.1133 41.4501 26.2894 39.9431 28.8653 37.6562C28.8653 37.6562 28.7765 37.0631 29.6346 36.4609M29.7536 44.9097C29.7536 44.9097 29.8529 42.8216 31.6626 39.8272L29.7536 44.9097ZM28.6184 44.1419C28.6184 44.1419 28.3369 42.936 30.8887 39.3695C30.8887 39.3695 30.5921 38.5189 31.5 37.9724L28.6184 44.1419ZM27.7407 43.1438C27.7407 43.1438 27.6609 41.8385 30.1586 38.8606C30.1586 38.8606 29.9373 38.0928 30.8421 37.4786L27.7407 43.1438ZM27.0106 42.2179C27.0106 42.2179 27.1039 40.8991 29.5458 38.3202C29.5458 38.3202 29.4254 37.5313 30.2986 37.042L27.0106 42.2179Z" stroke="#010002" stroke-width="0.15055" stroke-miterlimit="10"/>
<path id="Vector_14" d="M25.7653 36.8327C25.7653 36.8327 25.4551 36.8975 25.2398 37.1414C25.0246 37.3868 24.6105 37.3416 24.6105 37.3416C24.6105 37.3416 24.8364 37.1609 24.9116 36.7063C24.9899 36.2531 25.2398 36.1161 25.2398 36.1161M6.21484 17.1288C6.21484 17.1288 8.23673 18.3 14.5388 19.4713L6.21484 17.1288ZM7.11212 18.7396C7.11212 18.7396 12.5876 20.5252 15.1379 20.745L7.11212 18.7396ZM9.268 20.745C9.268 20.745 12.4807 21.7536 16.243 22.3905L9.268 20.745ZM12.0095 22.8466C12.0095 22.8466 15.6378 23.7183 17.3721 23.8629L12.0095 22.8466ZM14.4454 24.5599C14.4454 24.5599 17.5151 25.1997 18.292 25.2765L14.4454 24.5599ZM16.3996 26.1392C16.3996 26.1392 18.6397 26.4794 19.531 26.4613L16.3996 26.1392ZM19.1817 27.5001C19.1817 27.5001 20.088 27.458 20.5231 27.3857L19.1817 27.5001ZM20.0203 28.956C20.0203 28.956 20.7911 28.7482 21.2442 28.4576L20.0203 28.956ZM21.1554 30.463C21.1554 30.463 21.7486 30.2341 22.0346 29.6109L21.1554 30.463ZM22.6022 31.02C22.6022 31.02 23.0599 30.609 23.09 30.1513L22.6022 31.02ZM24.3185 31.3783C24.3185 31.3783 24.1469 31.2293 24.2643 30.5849L24.3185 31.3783ZM24.0972 29.6395C24.0972 29.6395 24.0068 29.4558 24.037 29.1637L24.0972 29.6395ZM20.8603 20.4122C20.8603 20.4122 21.8961 20.8278 22.2409 21.3999C22.5872 21.9719 22.3598 22.5275 22.2409 22.8451C22.1822 23.0062 21.452 24.4139 22.3101 25.4331L20.8603 20.4122ZM20.8739 26.5381C20.8739 26.5381 20.8799 26.5336 21.2442 26.4177L20.8739 26.5381ZM18.6879 25.0417C18.6879 25.0417 19.3052 25.1651 19.9119 25.1711L18.6879 25.0417ZM17.8343 23.5181C17.8343 23.5181 18.5599 23.5919 19.2419 23.5813L17.8343 23.5181ZM16.7548 21.9283C16.7548 21.9283 17.8012 22.136 18.3627 22.1466L16.7548 21.9283ZM15.8862 20.1548C15.8862 20.1548 17.1764 20.5222 18.1354 20.6531L15.8862 20.1548ZM20.2672 21.4119C20.2672 21.4119 19.3398 22.2746 20.4554 23.0755C20.4554 23.0755 19.9917 23.8026 20.9191 24.5614L20.2672 21.4119ZM20.6722 24.9197C20.6722 24.9197 20.5337 26.3078 22.2319 26.3078C22.2319 26.3078 21.9052 27.5438 23.5447 27.5032C23.5447 27.5032 23.7313 28.4908 24.9147 28.292L20.6722 24.9197ZM22.3086 39.1542C22.3086 39.1542 22.0392 39.2144 21.4565 39.1542H22.3086ZM19.8185 39.8814C19.8185 39.8814 18.9995 39.7564 19.0387 41.5344L19.8185 39.8814ZM20.3123 40.2864C20.3123 40.2864 19.5716 40.193 19.6198 41.9183L20.3123 40.2864ZM27.459 36.1297C27.459 36.1297 27.1037 36.2019 26.8568 36.4835C26.6114 36.7635 26.1371 36.7108 26.1371 36.7108C26.1371 36.7108 26.3931 36.503 26.4834 35.9836C26.5707 35.4642 26.8583 35.3077 26.8583 35.3077L27.459 36.1297ZM26.0107 34.8169C26.0107 34.8169 25.6554 34.8891 25.4085 35.1692C25.1616 35.4507 24.6873 35.398 24.6873 35.398C24.6873 35.398 24.9433 35.1902 25.0336 34.6708C25.1224 34.1514 25.4085 33.9949 25.4085 33.9949L26.0107 34.8169Z" stroke="#010002" stroke-width="0.15055"/>
</g>
<g id="Group_2">
<path id="Vector_15" d="M42.1021 37.8429C42.1021 37.8429 42.8533 39.1316 43.7612 39.1527C43.7612 39.1527 45.3224 38.963 45.7635 39.371C46.0721 39.6556 46.3868 39.8904 46.5162 40.6176C46.6427 41.3447 46.2678 41.5013 46.179 41.5329C46.179 41.5329 46.1097 42.0523 45.5964 41.9168C45.5964 41.9168 45.5663 42.4588 44.6599 42.1984C43.7521 41.9379 43.3758 42.0207 43.1996 41.1174C43.0205 40.2126 42.8564 40.2277 42.6953 40.1193C42.4785 39.9732 42.0705 39.8362 41.7679 39.6616C41.4969 39.505 40.4551 38.9751 40.0998 38.9344C39.7445 38.8923 39.8228 37.6969 39.8228 37.6969H40.7411L41.1853 37.042L42.1036 37.8429H42.1021ZM39.2115 31.3783C39.2115 31.3783 40.1299 32.1266 40.9007 31.3783C40.9007 31.3783 41.2108 31.7517 41.8341 31.6433C42.4544 31.5334 42.5583 31.2067 42.617 31.02C42.617 31.02 43.156 31.3332 43.6106 31.0847C44.0623 30.8378 44.0623 30.463 44.0623 30.463C44.0623 30.463 44.8527 30.6195 45.2576 30.0836C45.6626 29.5491 45.4157 29.0192 45.1974 28.956C45.1974 28.956 46.051 29.1803 46.2844 28.4471C46.3465 28.2834 46.3561 28.1044 46.3119 27.935C46.2676 27.7655 46.1717 27.6141 46.0375 27.5017C46.0375 27.5017 47.835 27.4926 48.5727 26.9296C48.5727 26.9296 49.1855 26.5442 48.8196 26.1392C48.8196 26.1392 50.4381 25.8802 50.843 25.2359C50.843 25.2359 51.0207 25.0582 50.962 24.7466C50.962 24.7466 50.9514 24.5705 50.7738 24.5599C50.7738 24.5599 52.6195 24.2739 53.1525 23.6656C53.1525 23.6656 53.4084 23.3856 53.2804 23.0108C53.2804 23.0108 53.2533 22.9129 53.2097 22.8451C53.2097 22.8451 54.8898 22.4914 55.7178 21.7431C55.7178 21.7431 56.1966 21.3171 55.9497 20.745C55.9497 20.745 58.7574 19.9772 58.1071 18.7396C58.1071 18.7396 59.4199 18.3136 59.0044 17.1288C59.0044 17.1288 60.0898 16.5778 59.6171 15.7046C59.1639 14.869 57.7713 15.8506 56.1243 16.3068C56.1243 16.3068 51.662 17.7099 49.4655 18.0833L43.2237 27.3767L39.5819 28.7798L39.213 31.3783H39.2115Z" fill="#F4C53D" stroke="#010002" stroke-width="0.15055"/>
<path id="Vector_16" d="M39.1675 24.5343C39.1675 24.5343 39.7531 24.0947 40.7964 24.6111C40.7964 24.6111 41.1472 24.8535 41.4242 24.5885C41.4843 24.5312 41.5309 24.4613 41.5607 24.3838C41.5905 24.3063 41.6027 24.2232 41.5965 24.1404C41.5903 24.0576 41.5659 23.9772 41.5249 23.905C41.4839 23.8328 41.4274 23.7706 41.3595 23.7229C40.5811 23.1463 40.2936 21.4164 41.4769 20.6983C41.4769 20.6983 43.1932 19.6806 49.4907 18.0787C49.4907 18.0787 50.0176 17.9312 50.3006 18.002C50.4376 18.0369 50.5625 18.1082 50.6622 18.2084C50.7618 18.3086 50.8325 18.4339 50.8667 18.571C50.8667 18.571 51.1497 19.3735 50.2013 19.8327C50.2013 19.8327 49.7737 20.0284 49.3326 20.1548C49.3326 20.1548 49.8174 20.0494 50.0251 20.5282C50.2209 20.9859 49.9348 21.4541 49.0466 21.7552C49.0466 21.7552 48.8057 21.8485 48.4639 21.9313C48.4639 21.9313 49.2242 22.1496 48.8584 22.7639C48.8584 22.7639 48.5332 23.4082 47.383 23.5226C47.383 23.5226 48.2411 23.616 47.6359 24.432C47.6359 24.432 47.3694 24.8791 46.5309 25.0447C46.5309 25.0447 47.1662 25.0658 46.847 25.6364C46.5248 26.2084 45.7706 26.5306 45.0269 26.5833C45.0269 26.5833 44.6249 26.6044 44.3434 26.5412C44.3434 26.5412 45.051 26.895 44.6354 27.4866C44.6354 27.4866 44.3298 27.9082 43.565 27.8871C43.565 27.8871 43.7623 28.5495 43.2022 28.7994C42.7656 28.9951 42.4028 28.682 42.4028 28.682C42.4028 28.682 42.5503 29.3911 41.9135 29.641C41.9135 29.641 41.5958 29.8051 41.1216 29.641C41.1216 29.641 40.7603 30.4524 39.4716 29.8819C38.1829 29.3143 39.1675 24.5358 39.1675 24.5358V24.5343ZM39.0922 31.9022C39.0922 31.9022 39.2804 32.917 40.7784 34.1936C40.7784 34.1936 41.9346 35.2128 41.906 36.3871C41.8759 37.584 42.1122 37.718 42.5669 38.123C42.5669 38.123 41.629 38.1967 41.1758 37.572C41.1758 37.572 41.1954 38.6108 41.3339 38.7056C41.3339 38.7056 41.0388 38.7237 40.6128 38.2585C40.6128 38.2585 40.3568 37.9875 40.1189 37.8836C40.1189 37.8836 40.396 38.6017 40.1792 39.2671C40.1792 39.2671 40.1099 39.0067 39.7441 38.8923C39.7441 38.8923 39.0817 38.7568 38.8257 37.8008C38.8257 37.8008 38.6586 37.1685 37.6213 36.6054C37.6213 36.6054 36.447 36.1628 36.4771 35.5847C36.5073 35.0051 39.0907 31.9022 39.0907 31.9022H39.0922Z" fill="#F4C53D" stroke="#010002" stroke-width="0.15055"/>
<path id="Vector_17" d="M33.648 44.9835C33.648 44.9835 33.9175 46.1699 34.8524 46.075C34.8524 46.075 35.5134 46.0118 35.4637 44.9098C35.4637 44.9098 36.4407 45.4307 36.5988 44.142C36.5988 44.142 37.4871 44.3482 37.4765 43.1438C37.4765 43.1438 38.3046 43.2883 38.2067 42.2179C38.2067 42.2179 39.1055 42.4588 39.1055 41.4501C39.1055 41.4501 41.2072 41.1009 36.8261 37.1053L32.9179 39.4328L33.648 44.9835V44.9835Z" fill="#F4C53D" stroke="#010002" stroke-width="0.15055" stroke-miterlimit="10"/>
<path id="Vector_18" d="M33.2129 39.6556C33.2129 39.6556 33.8648 40.2337 34.3285 39.3695C34.3285 39.3695 34.9608 39.3394 35.0587 38.8607C35.0587 38.8607 35.5721 38.8095 35.6714 38.3202C35.6714 38.3202 36.3715 38.2479 36.3519 37.6563C36.3519 37.6563 37.6256 37.5569 36.3519 36.1146C35.0782 34.6724 32.9179 38.5084 32.9179 38.5084L33.2129 39.6556ZM32.4873 39.2973C31.855 39.2973 31.1399 43.2417 31.325 45.6188C31.3928 46.4815 31.855 47.1861 32.4873 47.1861C33.1196 47.1861 33.5803 46.4815 33.6465 45.6188C33.8332 43.2417 33.1181 39.2973 32.4873 39.2973Z" fill="#F4C53D" stroke="#010002" stroke-width="0.15055"/>
<path id="Vector_19" d="M32.4881 40.5619C32.0059 40.5619 31.6149 39.9822 31.6149 39.2671C31.6149 38.5521 32.0059 37.9724 32.4881 37.9724C32.9704 37.9724 33.3613 38.5521 33.3613 39.2671C33.3613 39.9822 32.9704 40.5619 32.4881 40.5619Z" fill="#F4C53D" stroke="#010002" stroke-width="0.15055"/>
<path id="Vector_20" d="M39.1055 41.4501C39.1055 41.4501 38.9293 39.9431 36.3534 37.6562C36.3534 37.6562 36.4422 37.0631 35.5841 36.4609M35.4652 44.9097C35.4652 44.9097 35.3658 42.8216 33.5562 39.8272L35.4652 44.9097ZM36.6003 44.1419C36.6003 44.1419 36.8818 42.936 34.33 39.3695C34.33 39.3695 34.6266 38.5189 33.7188 37.9724L36.6003 44.1419ZM37.478 43.1438C37.478 43.1438 37.5578 41.8385 35.0602 38.8606C35.0602 38.8606 35.2815 38.0928 34.3767 37.4786L37.478 43.1438ZM38.2082 42.2179C38.2082 42.2179 38.1148 40.8991 35.6729 38.3202C35.6729 38.3202 35.7934 37.5313 34.9202 37.042L38.2082 42.2179Z" stroke="#010002" stroke-width="0.15055" stroke-miterlimit="10"/>
<path id="Vector_21" d="M39.4535 36.8327C39.4535 36.8327 39.7636 36.8975 39.9789 37.1414C40.1942 37.3868 40.6082 37.3416 40.6082 37.3416C40.6082 37.3416 40.3824 37.1609 40.3071 36.7063C40.2288 36.2531 39.9789 36.1161 39.9789 36.1161M59.0039 17.1288C59.0039 17.1288 56.982 18.3 50.68 19.4713L59.0039 17.1288ZM58.1066 18.7396C58.1066 18.7396 52.6311 20.5252 50.0808 20.745L58.1066 18.7396ZM55.9508 20.745C55.9508 20.745 52.738 21.7536 48.9758 22.3905L55.9508 20.745ZM53.2092 22.8466C53.2092 22.8466 49.581 23.7183 47.8466 23.8629L53.2092 22.8466ZM50.7733 24.5599C50.7733 24.5599 47.7036 25.1997 46.9268 25.2765L50.7733 24.5599ZM48.8192 26.1392C48.8192 26.1392 46.579 26.4794 45.6878 26.4613L48.8192 26.1392ZM46.037 27.5001C46.037 27.5001 45.1307 27.458 44.6956 27.3857L46.037 27.5001ZM45.1985 28.956C45.1985 28.956 44.4277 28.7482 43.9745 28.4576L45.1985 28.956ZM44.0633 30.463C44.0633 30.463 43.4702 30.2341 43.1841 29.6109L44.0633 30.463ZM42.6165 31.02C42.6165 31.02 42.1589 30.609 42.1288 30.1513L42.6165 31.02ZM40.9003 31.3783C40.9003 31.3783 41.0719 31.2293 40.9545 30.5849L40.9003 31.3783ZM41.1216 29.6395C41.1216 29.6395 41.2119 29.4558 41.1818 29.1637L41.1216 29.6395ZM44.3584 20.4122C44.3584 20.4122 43.3226 20.8278 42.9779 21.3999C42.6316 21.9719 42.8589 22.5275 42.9779 22.8451C43.0366 23.0062 43.7667 24.4139 42.9086 25.4331L44.3584 20.4122ZM44.3449 26.5381C44.3449 26.5381 44.3388 26.5336 43.9745 26.4177L44.3449 26.5381ZM46.5308 25.0417C46.5308 25.0417 45.9136 25.1651 45.3069 25.1711L46.5308 25.0417ZM47.3845 23.5181C47.3845 23.5181 46.6588 23.5919 45.9768 23.5813L47.3845 23.5181ZM48.4639 21.9283C48.4639 21.9283 47.4176 22.136 46.856 22.1466L48.4639 21.9283ZM49.3326 20.1548C49.3326 20.1548 48.0424 20.5222 47.0834 20.6531L49.3326 20.1548ZM44.9516 21.4119C44.9516 21.4119 45.879 22.2746 44.7634 23.0755C44.7634 23.0755 45.2271 23.8026 44.2997 24.5614L44.9516 21.4119ZM44.5466 24.9197C44.5466 24.9197 44.6851 26.3078 42.9869 26.3078C42.9869 26.3078 43.3136 27.5438 41.6741 27.5032C41.6741 27.5032 41.4874 28.4908 40.3041 28.292L44.5466 24.9197ZM42.9101 39.1542C42.9101 39.1542 43.1796 39.2144 43.7622 39.1542H42.9101ZM45.4002 39.8814C45.4002 39.8814 46.2192 39.7564 46.1801 41.5344L45.4002 39.8814ZM44.9064 40.2864C44.9064 40.2864 45.6471 40.193 45.5989 41.9183L44.9064 40.2864ZM37.7598 36.1297C37.7598 36.1297 38.1151 36.2019 38.362 36.4835C38.6074 36.7635 39.0816 36.7108 39.0816 36.7108C39.0816 36.7108 38.8257 36.503 38.7354 35.9836C38.648 35.4642 38.3605 35.3077 38.3605 35.3077L37.7598 36.1297ZM39.2081 34.8169C39.2081 34.8169 39.5634 34.8891 39.8103 35.1692C40.0572 35.4507 40.5314 35.398 40.5314 35.398C40.5314 35.398 40.2755 35.1902 40.1852 34.6708C40.0963 34.1514 39.8103 33.9949 39.8103 33.9949L39.2081 34.8169Z" stroke="#010002" stroke-width="0.15055"/>
</g>
<path id="Vector_22" d="M47.709 34.0875L46.8465 33.5875L45.4215 39.775L44.834 39.35L46.2215 33.425L45.2465 33.45L47.559 29.225L47.709 34.1V34.0875ZM51.084 35.7625L50.5465 34.8875L46.2465 39.975L45.784 39.45L50.0715 34.45L49.1965 33.975L53.1215 31.3875L51.084 35.7625Z" fill="#0081C6" stroke="#010002" stroke-width="0.15" stroke-miterlimit="10"/>
<path id="Vector_23" d="M50.2203 32.925L49.5078 32.2L45.6578 39.6L45.0703 39.25L48.9453 31.875L47.9953 31.625L51.2578 28.175L50.2078 32.925H50.2203ZM44.7078 41.8625L44.4203 43.0375L45.2078 43.825L44.0828 48.525L43.0953 47.2L41.6328 47.8875L42.7578 43.175L43.7828 42.8875L44.0453 41.7125C44.0453 41.7125 44.3578 41.5875 44.7078 41.8625V41.8625Z" fill="#0081C6" stroke="#010002" stroke-width="0.15" stroke-miterlimit="10"/>
<path id="Vector_24" d="M44.9715 41.075L44.409 42.1375L44.9715 43.1125L42.734 47.3625L42.109 45.8L40.5215 46.0625L42.759 41.8125H43.8215L44.3715 40.7625C44.3715 40.7625 44.7715 40.7625 44.9715 41.075V41.075Z" fill="#0081C6" stroke="#010002" stroke-width="0.15" stroke-miterlimit="10"/>
<path id="Vector_25" d="M45.0711 41.3875L43.5586 43.3125L43.9086 44.3875L40.8211 48L40.5336 46.3375L38.9336 46.2125L42.0211 42.6L43.0586 42.85L44.6586 40.825C44.6586 40.825 45.0961 41.0375 45.0711 41.3875ZM6.79609 36.8875C7.15859 36.7375 7.42109 36.6 7.42109 36.2125C7.42109 36.125 7.37109 35.925 7.25859 35.6125L4.84609 28.225C4.76417 27.9519 4.66394 27.6846 4.54609 27.425C4.43359 27.2125 4.22109 27.125 3.93359 27.0125H7.00859C6.67109 27.1625 6.37109 27.2875 6.38359 27.6375C6.38359 27.7875 6.40859 27.975 6.48359 28.225L8.34609 34L10.1961 28.2125C10.2711 27.9625 10.3211 27.775 10.3211 27.6375C10.3086 27.2625 9.98359 27.1375 9.67109 27H12.6586C12.3836 27.1125 12.1586 27.1875 12.0461 27.4125C11.9961 27.5125 11.8836 27.7625 11.7461 28.2125L9.33359 35.5875C9.26167 35.7908 9.20731 35.9999 9.17109 36.2125C9.17109 36.2125 9.05859 36.675 9.79609 36.875H6.79609V36.8875ZM58.3211 36.1375V27.7625C58.3254 27.6494 58.2995 27.5373 58.2461 27.4375C58.2086 27.35 57.9961 27.1375 57.6961 27.0125H60.4711C60.25 27.0907 60.0581 27.2346 59.9211 27.425C59.8667 27.5289 59.8408 27.6453 59.8461 27.7625V36.1375C59.8461 36.275 59.8711 36.3875 59.9211 36.475C59.9711 36.55 60.1711 36.75 60.4711 36.8875H57.6961C57.9961 36.7625 58.1961 36.55 58.2461 36.475C58.2961 36.3875 58.3211 36.275 58.3211 36.125V36.1375Z" fill="#0081C6" stroke="#010002" stroke-width="0.15" stroke-miterlimit="10"/>
<path id="Vector_26" d="M32.7344 38.975C32.7344 38.975 40.1344 35.6875 40.1594 28.1H25.2969C25.3219 35.6875 32.7344 38.975 32.7344 38.975Z" fill="#F5F5F5" stroke="#010002" stroke-width="0.15"/>
<path id="Vector_27" d="M26.4453 28.1V32.95C26.4453 32.95 27.0078 34.075 27.5828 34.7875V28.1H26.4453ZM28.7328 28.1V36.1C28.7328 36.1 29.4453 36.8 29.8703 37.1375V28.1H28.7203H28.7328ZM31.0078 28.1V37.975C31.0078 37.975 31.8328 38.5125 32.1578 38.6875V28.1H30.9953H31.0078ZM39.0078 28.1V32.95C39.0078 32.95 38.4453 34.075 37.8703 34.7875V28.1H39.0078ZM36.7203 28.1V36.1C36.7203 36.1 36.0078 36.8 35.5953 37.1375V28.1H36.7203ZM34.4453 28.1V37.975C34.4453 37.975 33.6203 38.5125 33.2953 38.6875V28.1H34.4453Z" fill="#A60032" stroke="#010002" stroke-width="0.15"/>
<path id="Vector_28" d="M40.1594 22.575C40.1594 22.575 36.5219 24.475 32.7344 22.425C28.9344 24.475 25.2969 22.575 25.2969 22.575V28.1H40.1594V22.575V22.575Z" fill="#162667" stroke="#010002" stroke-width="0.15" stroke-miterlimit="10"/>
</g>
</g>
<defs>
<clipPath id="clip0_2909_185260">
<path d="M0.246094 32C0.246094 14.3269 14.573 0 32.2461 0V0C49.9192 0 64.2461 14.3269 64.2461 32V32C64.2461 49.6731 49.9192 64 32.2461 64V64C14.573 64 0.246094 49.6731 0.246094 32V32Z" fill="white"/>
</clipPath>
</defs>
</svg>
