<svg width="65" height="64" viewBox="0 0 65 64" fill="none" xmlns="http://www.w3.org/2000/svg">
<g id="Rounded=Vanuatu (VU)">
<g clip-path="url(#clip0_2909_185259)">
<g id="Group">
<g id="Group_2">
<path id="Vector" fill-rule="evenodd" clip-rule="evenodd" d="M0.246094 0L43.6717 27.4281H96.2443V36.575H43.6717L0.246094 63.9902V0Z" fill="black"/>
<path id="Vector_2" fill-rule="evenodd" clip-rule="evenodd" d="M0.246094 61.7196L44.5877 33.3755H96.2443V30.6276H44.5877L0.246094 2.28351V6.41191L41.8397 31.9951L0.246094 57.6041V61.7067V61.7196Z" fill="#FFFF00"/>
<path id="Vector_3" fill-rule="evenodd" clip-rule="evenodd" d="M0.246094 63.9902L44.5877 35.6591H96.2443V63.9902H0.246094Z" fill="#40AA40"/>
<path id="Vector_4" fill-rule="evenodd" clip-rule="evenodd" d="M0.246094 0L44.5877 28.344H96.2443V0H0.246094Z" fill="#CE0000"/>
<path id="Vector_5" fill-rule="evenodd" clip-rule="evenodd" d="M12.2189 33.3239C12.3737 33.3626 12.4124 33.4013 12.5672 33.182C12.6059 33.0659 12.6963 32.924 12.7737 32.7692C12.8898 32.5885 12.9414 32.5111 13.0317 32.6531C13.1091 32.7305 13.38 32.5885 13.4961 32.666C13.6638 32.795 13.5606 32.7692 13.7026 32.6401C13.8058 32.4079 13.7026 32.4337 13.5606 32.3305C13.4574 32.266 13.1736 32.4079 13.0704 32.3305C13.1091 32.1112 13.1865 32.0725 13.3155 32.0338C13.4187 32.1112 13.7026 31.9822 13.8058 31.9822C13.9348 32.008 14.038 32.0209 14.0767 31.8403C14.1412 31.7113 14.1154 31.8016 14.0767 31.7113C13.9477 31.6339 13.6897 31.7758 13.5735 31.7113C13.4445 31.5951 13.4574 31.5564 13.5477 31.3887C13.6509 31.3242 13.7284 31.35 13.8703 31.4403C13.9993 31.5306 14.2186 31.35 14.3476 31.3371C14.4508 31.2081 14.5798 31.1694 14.5024 31.0275C14.4637 30.8985 14.425 30.8985 14.2702 30.8598C14.1154 30.7566 13.9219 30.9501 13.8574 30.7953C13.9864 30.6276 14.0251 30.6663 14.1799 30.7566C14.2702 30.7953 14.5669 30.6276 14.6443 30.6147C14.7863 30.5759 14.7218 30.7308 14.8121 30.3824C14.7863 30.2534 14.5411 30.4727 14.3992 30.434C14.2702 30.4598 14.1541 30.4082 14.1412 30.2663C14.1412 30.0728 14.2444 30.0599 14.3734 30.0857C14.5024 30.1115 14.7734 29.9567 14.8766 29.9567C15.0185 30.0341 15.0701 30.0083 15.1862 29.8277C15.2636 29.6213 15.1733 29.6987 15.0314 29.5955C14.9153 29.5309 14.6443 29.6729 14.5411 29.5955C14.554 29.5309 14.5927 29.4277 14.6701 29.389C14.7734 29.4148 14.8637 29.4019 14.9927 29.4922C15.1217 29.5438 15.341 29.2987 15.4571 29.2084C15.4313 29.0794 15.212 29.26 15.083 29.1697C15.0056 29.1181 14.9024 29.0536 14.8766 28.9891C14.954 28.7698 14.9153 28.7827 15.1217 28.8601C15.2249 28.8214 15.4055 28.8214 15.2894 28.6279C15.2636 28.5892 15.1604 28.6021 15.0701 28.5634C14.9411 28.4859 14.8379 28.4085 14.7218 28.3698C14.6443 28.3569 14.5153 28.3311 14.4508 28.344C14.4379 28.473 14.4766 28.5505 14.4508 28.7053C14.5153 28.7956 14.6185 28.7956 14.6443 28.8343C14.5282 28.9246 14.4766 28.873 14.3605 28.8859C14.2186 28.7827 14.296 28.4859 14.1283 28.5505C14.167 28.6408 14.1541 28.9762 14.2186 29.0407C14.296 29.0923 14.3992 29.1439 14.4121 29.2213C14.2831 29.4019 14.2444 29.389 14.1025 29.2987C13.9735 29.2213 14.0251 28.9504 13.9219 28.9633C13.7929 29.0536 13.7929 29.0536 13.8187 29.1955C13.8187 29.3632 13.7542 29.6084 13.8961 29.7116C14.0638 29.8406 14.0896 29.8148 13.9477 30.047C13.8574 30.1631 13.8058 30.1373 13.6897 30.0857C13.5864 30.0083 13.6122 29.7245 13.5219 29.6213C13.3542 29.5309 13.4445 29.5309 13.3155 29.6471C13.2639 29.8148 13.3026 29.8535 13.3671 29.9954C13.4187 30.0728 13.4187 30.3824 13.5219 30.3824C13.6768 30.4856 13.6767 30.4598 13.4961 30.6405C13.3671 30.6405 13.3026 30.6792 13.1994 30.5501C13.0704 30.4598 13.1478 30.1631 12.9801 30.1502C12.8253 30.1631 12.7995 30.1631 12.8124 30.3695C12.8382 30.563 12.7737 30.8469 12.9156 30.963C13.0575 31.0275 13.1478 31.0146 13.1865 31.092L13.0188 31.2855C12.9285 31.2855 12.8253 31.221 12.7092 31.1952C12.5801 31.1436 12.6447 31.0275 12.5414 30.9501C12.4124 30.9888 12.4124 30.8211 12.3479 30.9888C12.3737 31.1307 12.3221 31.3113 12.464 31.4016C12.5672 31.479 12.6576 31.6338 12.7737 31.6984C12.9027 31.8532 12.8382 31.879 12.7737 32.0854C12.6705 32.0854 12.5414 32.0209 12.4382 31.9435C12.3221 31.8661 12.3479 31.5822 12.2318 31.5048C12.1415 31.4145 12.1673 31.3371 12.0254 31.5306C12.0254 31.6726 12.0383 31.6855 12.077 31.7887C12.077 31.9177 12.0383 32.1757 12.1673 32.266L12.5543 32.395C12.6447 32.524 12.5543 32.4982 12.4511 32.6789C12.3737 32.8595 12.3737 32.8853 12.2705 32.9756C12.1673 33.1046 12.1415 33.1562 12.2189 33.3239V33.3239Z" fill="#FFFF00"/>
<path id="Vector_6" fill-rule="evenodd" clip-rule="evenodd" d="M15.3655 33.4788C15.4558 33.3368 15.5075 33.311 15.3655 33.053C15.2752 32.9756 15.172 32.8079 15.0688 32.666C14.9398 32.4725 14.9011 32.408 15.0688 32.3434C15.172 32.3047 15.1462 31.9564 15.2623 31.8661C15.43 31.7371 15.3784 31.8403 15.3139 31.6339C15.1462 31.4275 15.1333 31.5436 14.9785 31.6597C14.8624 31.75 14.9011 32.0983 14.785 32.1757C14.5915 32.0467 14.6044 31.9693 14.6044 31.8016C14.7076 31.7242 14.7205 31.3629 14.7592 31.2726C14.8366 31.1436 14.8882 31.0275 14.7334 30.9114C14.6302 30.7824 14.7076 30.8598 14.6044 30.8727C14.4883 30.963 14.527 31.3113 14.4108 31.3888C14.256 31.5049 14.2302 31.4533 14.1012 31.2984C14.1012 31.1694 14.1528 31.092 14.2818 30.9759C14.4108 30.8727 14.3334 30.5631 14.385 30.4341C14.3076 30.2663 14.3205 30.1115 14.1528 30.1373C14.0238 30.1373 13.998 30.176 13.9206 30.3179C13.7529 30.447 13.8561 30.7308 13.6884 30.7308C13.5723 30.5244 13.6239 30.4986 13.7787 30.3825C13.8432 30.2921 13.8045 29.918 13.8303 29.8148C13.8561 29.66 13.9593 29.789 13.7013 29.5568C13.5465 29.531 13.6626 29.8922 13.5723 30.0212C13.5336 30.1631 13.4433 30.2663 13.3142 30.2147C13.1336 30.1373 13.1594 30.0341 13.2497 29.8922C13.3142 29.7761 13.2884 29.4278 13.3271 29.3117C13.4562 29.1955 13.4562 29.131 13.3271 28.9375C13.1723 28.7698 13.211 28.8988 13.0562 29.0149C12.9401 29.0923 12.9788 29.4536 12.8627 29.531C12.7982 29.4794 12.7337 29.402 12.7208 29.3117C12.7853 29.2084 12.8111 29.1052 12.9401 29.002C13.0433 28.8859 12.9014 28.5505 12.8627 28.4086C12.7466 28.3828 12.824 28.6666 12.6821 28.7827C12.6047 28.8472 12.5015 28.9246 12.4241 28.9246C12.2692 28.7698 12.2563 28.7956 12.3983 28.615C12.4241 28.486 12.4886 28.2925 12.2692 28.357C12.2176 28.357 12.1918 28.486 12.1144 28.5634C11.9983 28.6408 11.8822 28.7311 11.8048 28.8472C11.7532 28.9246 11.6758 29.0536 11.6758 29.131C11.779 29.1826 11.8693 29.1826 11.9983 29.26C12.1144 29.2342 12.1531 29.131 12.1918 29.1052C12.2434 29.2729 12.166 29.3117 12.1273 29.4407C11.9854 29.5568 11.7403 29.3504 11.7403 29.5439C11.8306 29.5439 12.1273 29.6987 12.2305 29.6471C12.3079 29.5826 12.3853 29.5052 12.4628 29.5181C12.5918 29.7116 12.5531 29.7632 12.4112 29.8793C12.2821 29.9696 12.0499 29.8277 12.0241 29.9309C12.0628 30.1115 12.0628 30.1115 12.1918 30.1373C12.3595 30.2018 12.5531 30.3696 12.7079 30.2663C12.8885 30.1373 12.8756 30.0986 13.0433 30.3309C13.1078 30.4728 13.0691 30.5244 12.9788 30.6147C12.8498 30.705 12.5918 30.5631 12.4757 30.6147C12.3208 30.7566 12.3595 30.6534 12.4241 30.8598C12.5531 30.963 12.5918 30.9501 12.7466 30.9243C12.8498 30.8985 13.1336 31.0275 13.1852 30.9243C13.3142 30.7953 13.3142 30.7953 13.4045 31.0533C13.3529 31.1952 13.3529 31.2726 13.1981 31.3371C13.0691 31.4404 12.8111 31.2339 12.7466 31.4017C12.695 31.5694 12.6821 31.6081 12.8756 31.6597C13.0691 31.7113 13.3013 31.9048 13.4691 31.7887C13.5723 31.6597 13.5981 31.5823 13.7013 31.5565L13.8045 31.8145C13.7658 31.9177 13.6755 31.9951 13.5981 32.1112C13.4949 32.2273 13.4045 32.1112 13.3013 32.2015C13.3013 32.3305 13.1336 32.2789 13.2626 32.408C13.4045 32.4467 13.5594 32.5628 13.6884 32.4596C13.8045 32.3821 13.9722 32.3305 14.0754 32.2531C14.2689 32.1757 14.2689 32.2531 14.4366 32.408C14.3735 32.5246 14.2854 32.6259 14.1786 32.7047C14.0496 32.7821 13.8045 32.6531 13.7013 32.7434C13.5723 32.795 13.5207 32.7434 13.6368 32.9756C13.7658 33.0401 13.7787 33.0143 13.8819 33.0143C14.0109 33.0659 14.2302 33.2207 14.3721 33.1175C14.4496 32.9885 14.5657 32.8595 14.6302 32.7692C14.785 32.7047 14.7334 32.795 14.8495 32.9756C14.9785 33.1304 15.0172 33.1433 15.0559 33.2852C15.1333 33.4401 15.172 33.5046 15.3655 33.4788Z" fill="#FFFF00"/>
<path id="Vector_7" fill-rule="evenodd" clip-rule="evenodd" d="M12.5031 39.3101C12.5031 38.6521 12.3999 37.9813 12.5031 37.9813C18.3474 37.9813 19.8052 33.9819 19.8052 31.3371C19.8052 28.6795 17.7797 26.0089 13.9609 26.0089C9.57451 26.0089 8.10377 28.615 8.10377 31.3371C8.10377 33.9948 10.297 35.9816 12.4902 35.9816C15.4188 35.9816 16.1542 35.3236 18.3474 32.666C17.612 35.9816 13.9609 37.3104 12.5031 37.3104C11.7181 37.3364 10.9362 37.1992 10.207 36.9075C9.4777 36.6158 8.81691 36.1759 8.26639 35.6157C7.71587 35.0555 7.28761 34.3871 7.00868 33.6529C6.72975 32.9186 6.60623 32.1345 6.64593 31.35C6.64593 28.0215 8.83914 24.693 13.9609 24.693C18.3474 24.693 21.2759 28.0215 21.2759 31.35C21.2759 35.9945 17.612 39.323 12.5031 39.323V39.3101Z" fill="#FFFF00"/>
</g>
</g>
</g>
</g>
<defs>
<clipPath id="clip0_2909_185259">
<path d="M0.246094 32C0.246094 14.3269 14.573 0 32.2461 0V0C49.9192 0 64.2461 14.3269 64.2461 32V32C64.2461 49.6731 49.9192 64 32.2461 64V64C14.573 64 0.246094 49.6731 0.246094 32V32Z" fill="white"/>
</clipPath>
</defs>
</svg>
