<svg width="65" height="64" viewBox="0 0 65 64" fill="none" xmlns="http://www.w3.org/2000/svg">
<g id="Rounded=Samoa (WS)">
<g clip-path="url(#clip0_2909_185478)">
<g id="Group">
<path id="Vector" fill-rule="evenodd" clip-rule="evenodd" d="M0.246094 0H64.2461V64H0.246094V0Z" fill="#CE1126"/>
<path id="Vector_2" fill-rule="evenodd" clip-rule="evenodd" d="M0.246094 0H32.2461V32H0.246094V0Z" fill="#002B7F"/>
<path id="Vector_3" fill-rule="evenodd" clip-rule="evenodd" d="M18.6211 28.925L16.1711 27.2625L13.8086 28.95L14.5586 26.0125L12.3086 24.175L15.2086 24.0125L16.1711 21.2125L17.2336 24.0625L20.0836 24.125L17.8086 26.0625L18.6211 28.925ZM18.1961 9.32499L16.2461 8.07499L14.3211 9.32499L14.8461 6.94999L13.1336 5.43749L15.4211 5.23749L16.2711 3.04999L17.1586 5.26249L19.4086 5.43749L17.6586 6.99999L18.1961 9.32499ZM9.53359 16.375L7.63359 15.025L5.70859 16.325L6.28359 14.0375L4.49609 12.525L6.77109 12.425L7.60859 10.1625L8.43359 12.3875L10.7211 12.525L8.93359 14.025L9.53359 16.375ZM26.9086 14.7875L25.0711 13.6L23.2836 14.8125L23.7836 12.6375L22.1586 11.2375L24.3211 11.0625L25.0711 9.01249L25.8961 11.0875L27.9961 11.2125L26.3461 12.6625L26.9086 14.7875ZM21.7711 19.95L20.5586 19.175L19.3586 19.95L19.6711 18.5L18.5836 17.5375L20.0086 17.4125L20.5586 16.0375L21.1211 17.4125L22.5211 17.5375L21.4586 18.5L21.7711 19.95Z" fill="#F5F5F5"/>
</g>
</g>
</g>
<defs>
<clipPath id="clip0_2909_185478">
<path d="M0.246094 32C0.246094 14.3269 14.573 0 32.2461 0V0C49.9192 0 64.2461 14.3269 64.2461 32V32C64.2461 49.6731 49.9192 64 32.2461 64V64C14.573 64 0.246094 49.6731 0.246094 32V32Z" fill="white"/>
</clipPath>
</defs>
</svg>
